G04 Layer: TopLayer*
G04 EasyEDA Pro v2.2.46.11, 2026-02-26 15:34:19*
G04 Gerber Generator version 0.3*
G04 Scale: 100 percent, Rotated: No, Reflected: No*
G04 Dimensions in millimeters*
G04 Leading zeros omitted, absolute positions, 4 integers and 5 decimals*
G04 Generated by custom config*
%FSLAX45Y45*%
%MOMM*%
%ADD10C,0.254*%
%ADD11C,0.381*%
%ADD12C,0.5334*%
%ADD13C,0.635*%
%ADD14C,0.508*%
%ADD15R,0.8X0.9*%
%ADD16R,0.9X0.8*%
%ADD17R,1.41X1.35001*%
%ADD18R,1.7028X1.7*%
%ADD19R,1.7X1.7*%
%ADD20C,1.7*%
%ADD21R,1.7X1.5748*%
%ADD22O,0.27X1.5*%
%ADD23O,1.5X0.27*%
%ADD24R,2.49999X1.1*%
%ADD25R,2.34X3.59999*%
G75*


G04 PolygonModel Start*
G54D10*
G01X400507Y-1609293D02*
G01X575107Y-1609293D01*
G01X635000Y-1549400D01*
G01X600507Y-959307D02*
G01X600507Y-1438707D01*
G01X647700Y-1485900D01*
G01X900506Y-1809293D02*
G01X900506Y-1675206D01*
G01X774700Y-1549400D01*
G01X711200Y-1549400D01*
G01X1250493Y-1159307D02*
G01X1025093Y-1159307D01*
G01X698500Y-1485900D01*
G01X950493Y-1809293D02*
G01X950493Y-1915693D01*
G01X997102Y-1962302D01*
G01X997102Y-2108200D01*
G01X900506Y-1809293D02*
G01X900506Y-1906194D01*
G01X857098Y-1949602D01*
G01X857098Y-2108200D01*
G54D11*
G01X997102Y-2108200D02*
G01X997102Y-2207882D01*
G01X999020Y-2209800D01*
G01X1028700Y-2209800D01*
G01X1028700Y-2335200D01*
G01X1027100Y-2336800D01*
G01X857098Y-2108200D02*
G01X857098Y-2207882D01*
G01X855180Y-2209800D01*
G01X825500Y-2209800D01*
G01X825500Y-2335200D01*
G01X827100Y-2336800D01*
G54D10*
G01X1250493Y-1109294D02*
G01X1341806Y-1109294D01*
G01X1384300Y-1066800D01*
G01X1384300Y-945998D01*
G01X1390498Y-939800D01*
G01X1250493Y-1159307D02*
G01X1393393Y-1159307D01*
G01X1530502Y-1022198D01*
G01X1530502Y-939800D01*
G01X550494Y-959307D02*
G01X550494Y-804494D01*
G01X527202Y-781202D01*
G01X419100Y-781202D01*
G01X400507Y-1659306D02*
G01X296494Y-1659306D01*
G01X247802Y-1707998D01*
G01X247802Y-1816100D01*
G01X400507Y-1609293D02*
G01X168707Y-1609293D01*
G01X107798Y-1670202D01*
G01X107798Y-1816100D01*
G54D11*
G01X247802Y-1816100D02*
G01X247802Y-2019300D01*
G01X107798Y-1816100D02*
G01X107798Y-2019300D01*
G54D10*
G01X550494Y-1809293D02*
G01X550494Y-1900606D01*
G01X520700Y-1930400D01*
G01X457200Y-1930400D01*
G01X342900Y-1816100D01*
G01X247802Y-1816100D01*
G01X650494Y-959307D02*
G01X650494Y-599694D01*
G01X444500Y-393700D01*
G01X400507Y-1109294D02*
G01X298660Y-1109294D01*
G01X215900Y-1026535D01*
G01X215900Y-736600D01*
G01X190500Y-711200D01*
G01X190500Y-393700D01*
G01X600507Y-959307D02*
G01X600507Y-714807D01*
G01X526898Y-641198D01*
G01X444500Y-641198D01*
G54D11*
G01X1027100Y-2336800D02*
G01X1028700Y-2338400D01*
G01X1028700Y-2451100D01*
G01X1003300Y-2476500D01*
G01X533400Y-2476500D01*
G01X247802Y-2190902D01*
G01X247802Y-2019300D01*
G54D12*
G01X1816100Y-2260600D02*
G01X1562100Y-2260600D01*
G01X1485900Y-2336800D01*
G01X1034846Y-2336800D01*
G54D11*
G01X1816100Y-2514600D02*
G01X1193800Y-2514600D01*
G01X1155700Y-2552700D01*
G01X482600Y-2552700D01*
G01X107798Y-2177898D01*
G01X107798Y-2019300D01*
G54D10*
G01X1250493Y-1309294D02*
G01X1345006Y-1309294D01*
G01X1663700Y-990600D01*
G01X1816100Y-990600D01*
G01X1250493Y-1359306D02*
G01X1421994Y-1359306D01*
G01X1524000Y-1257300D01*
G01X1803400Y-1257300D01*
G01X1816100Y-1244600D01*
G01X1250493Y-1409294D02*
G01X1587094Y-1409294D01*
G01X1676400Y-1498600D01*
G01X1816100Y-1498600D01*
G01X1250493Y-1559306D02*
G01X1358900Y-1559306D01*
G01X1409700Y-1610106D01*
G01X1409700Y-1778000D01*
G01X1638300Y-2006600D01*
G01X1816100Y-2006600D01*
G01X1250493Y-1459306D02*
G01X1357706Y-1459306D01*
G01X1651000Y-1752600D01*
G01X1816100Y-1752600D01*
G54D13*
G01X1816100Y-495300D02*
G01X1816099Y-495301D01*
G01X1816099Y-642300D01*
G01X1745802Y-712597D01*
G01X1490795Y-712597D01*
G01X1816100Y-241300D02*
G01X1701800Y-241300D01*
G01X1689100Y-254000D01*
G01X1492192Y-254000D01*
G01X1490795Y-252603D01*
G54D10*
G01X444043Y-781202D02*
G01X373489Y-781202D01*
G01X330200Y-737913D01*
G01X330200Y-298202D01*
G01X387102Y-241300D01*
G01X888653Y-241300D01*
G01X1530502Y-939800D02*
G01X1530502Y-752305D01*
G01X1490795Y-712597D01*
G54D12*
G01X1387399Y-939796D02*
G01X1278701Y-939796D01*
G01X1155700Y-816795D01*
G01X1155700Y-508000D01*
G01X1130300Y-482600D01*
G01X896803Y-482600D01*
G54D13*
G01X1816100Y-2260600D02*
G01X1930400Y-2260600D01*
G01X1993900Y-2197100D01*
G01X1993900Y-127000D01*
G01X1930400Y-63500D01*
G01X1066800Y-63500D01*
G01X896803Y-233497D01*
G01X896803Y-482600D01*
G54D14*
G01X997102Y-2108200D02*
G01X1117945Y-2108200D01*
G54D12*
G01X1004187Y-2209800D02*
G01X1160421Y-2209800D01*
G54D10*
G01X247802Y-2019300D02*
G01X365907Y-2019300D01*
G01X107798Y-1816100D02*
G01X50800Y-1816100D01*
G01X107798Y-2019300D02*
G01X50800Y-2019300D01*
G54D13*
G01X896803Y-482600D02*
G01X1490795Y-482600D01*
G36*
G01X600507Y-1199007D02*
G01X604393Y-1199007D01*
G01X660400Y-1143000D01*
G01X1040025Y-1143000D01*
G01X1056331Y-1159307D01*
G01X1056331Y-1610669D01*
G01X1003300Y-1663700D01*
G01X629514Y-1663700D01*
G01X575107Y-1609293D01*
G01X575107Y-1224407D01*
G01X600507Y-1199007D01*
G37*
G36*
G01X1664746Y-2260600D02*
G01X1664746Y-2121946D01*
G01X1346200Y-1803400D01*
G01X1206500Y-1803400D01*
G01X1168400Y-1841500D01*
G01X1168400Y-1905000D01*
G01X1130300Y-1943100D01*
G01X965200Y-1943100D01*
G01X997102Y-1962302D01*
G01X987993Y-2019300D01*
G01X1054100Y-2019300D01*
G01X1079500Y-2044700D01*
G01X1079500Y-2235200D01*
G01X1104900Y-2235200D01*
G01X1130300Y-2260600D01*
G01X1130300Y-2413000D01*
G01X1104900Y-2438400D01*
G01X1041400Y-2438400D01*
G01X990600Y-2489200D01*
G01X990554Y-2501900D01*
G01X1130300Y-2501900D01*
G01X1168400Y-2463800D01*
G01X1664641Y-2463800D01*
G01X1664641Y-2260704D01*
G01X1664746Y-2260600D01*
G37*
G36*
G01X296494Y-1659306D02*
G01X296494Y-1693494D01*
G01X317500Y-1714500D01*
G01X393700Y-1714500D01*
G01X444500Y-1765300D01*
G01X444500Y-1855079D01*
G01X486628Y-1897208D01*
G01X550494Y-1897208D01*
G01X634486Y-1981200D01*
G01X723900Y-1981200D01*
G01X723900Y-2184400D01*
G01X685800Y-2222500D01*
G01X685800Y-2476500D01*
G01X533400Y-2476500D01*
G01X247802Y-2190902D01*
G01X247802Y-2092401D01*
G01X282499Y-2092401D01*
G01X304800Y-2070100D01*
G01X304800Y-1968500D01*
G01X279400Y-1943100D01*
G01X247802Y-1943100D01*
G01X247802Y-1887111D01*
G01X284589Y-1887111D01*
G01X304800Y-1866900D01*
G01X304800Y-1763425D01*
G01X281268Y-1739894D01*
G01X245817Y-1739894D01*
G01X245817Y-1707998D01*
G01X294509Y-1659306D01*
G01X296494Y-1659306D01*
G37*
G36*
G01X168707Y-1609293D02*
G01X54407Y-1609293D01*
G01X25400Y-1638300D01*
G01X25400Y-2578100D01*
G01X50800Y-2603500D01*
G01X1638300Y-2603500D01*
G01X1663700Y-2578100D01*
G01X1663700Y-2514600D01*
G01X1193800Y-2514600D01*
G01X1155700Y-2552700D01*
G01X482600Y-2552700D01*
G01X107798Y-2177898D01*
G01X107798Y-2098599D01*
G01X79299Y-2098599D01*
G01X50800Y-2070100D01*
G01X50800Y-1968500D01*
G01X76200Y-1943100D01*
G01X107798Y-1943100D01*
G01X107798Y-1891834D01*
G01X75734Y-1891834D01*
G01X50800Y-1866900D01*
G01X50800Y-1765300D01*
G01X76200Y-1739900D01*
G01X107798Y-1739900D01*
G01X107798Y-1670202D01*
G01X168707Y-1609293D01*
G37*

G04 Pad Start*
G54D15*
G01X107798Y-1816100D03*
G01X247802Y-1816100D03*
G54D16*
G01X444500Y-641198D03*
G01X444500Y-781202D03*
G54D15*
G01X1530502Y-939800D03*
G01X1390498Y-939800D03*
G01X107798Y-2019300D03*
G01X247802Y-2019300D03*
G01X997102Y-2108200D03*
G01X857098Y-2108200D03*
G54D17*
G01X1027100Y-2336800D03*
G01X827100Y-2336800D03*
G54D19*
G01X1816100Y-241300D03*
G54D20*
G01X1816100Y-495300D03*
G01X1816100Y-990600D03*
G01X1816100Y-1244600D03*
G01X1816100Y-1498600D03*
G01X1816100Y-1752600D03*
G01X1816100Y-2006600D03*
G01X1816100Y-2260600D03*
G54D21*
G01X1816100Y-2514600D03*
G54D19*
G01X203200Y-393700D03*
G54D20*
G01X457200Y-393700D03*
G54D22*
G01X550494Y-1809293D03*
G01X600507Y-1809293D03*
G01X650494Y-1809293D03*
G01X700507Y-1809293D03*
G01X750494Y-1809293D03*
G01X800506Y-1809293D03*
G01X850494Y-1809293D03*
G01X900506Y-1809293D03*
G01X950493Y-1809293D03*
G01X1000506Y-1809293D03*
G01X1050493Y-1809293D03*
G01X1100506Y-1809293D03*
G54D23*
G01X1250493Y-1659306D03*
G01X1250493Y-1609293D03*
G01X1250493Y-1559306D03*
G01X1250493Y-1509293D03*
G01X1250493Y-1459306D03*
G01X1250493Y-1409294D03*
G01X1250493Y-1359306D03*
G01X1250493Y-1309294D03*
G01X1250493Y-1259307D03*
G01X1250493Y-1209294D03*
G01X1250493Y-1159307D03*
G01X1250493Y-1109294D03*
G54D22*
G01X1100506Y-959307D03*
G01X1050493Y-959307D03*
G01X1000506Y-959307D03*
G01X950493Y-959307D03*
G01X900506Y-959307D03*
G01X850494Y-959307D03*
G01X800506Y-959307D03*
G01X750494Y-959307D03*
G01X700507Y-959307D03*
G01X650494Y-959307D03*
G01X600507Y-959307D03*
G01X550494Y-959307D03*
G54D23*
G01X400507Y-1109294D03*
G01X400507Y-1159307D03*
G01X400507Y-1209294D03*
G01X400507Y-1259307D03*
G01X400507Y-1309294D03*
G01X400507Y-1359306D03*
G01X400507Y-1409294D03*
G01X400507Y-1459306D03*
G01X400507Y-1509293D03*
G01X400507Y-1559306D03*
G01X400507Y-1609293D03*
G01X400507Y-1659306D03*
G54D24*
G01X1490795Y-712597D03*
G01X1490795Y-482600D03*
G01X1490795Y-252603D03*
G54D25*
G01X896803Y-482600D03*
G04 Pad End*

M02*

