<?xml version="1.0" encoding="UTF-8"?>
<svg xmlns="http://www.w3.org/2000/svg" xmlns:xlink="http://www.w3.org/1999/xlink"
     width="20.32000" height="26.03500" viewBox="0 0 20.32000 26.03500">
<defs>
<mask id="d0">
<rect x="-10.16000" y="-13.01750" width="40.64000" height="52.07000" fill="white" />
</mask>
<g id="d1">
<circle cx="0" cy="0" r="0.127" fill="#288f28ff" />
</g>
<g id="d2">
<circle cx="0" cy="0" r="0.1905" fill="#288f28ff" />
</g>
<g id="d3">
<circle cx="0" cy="0" r="0.2667" fill="#288f28ff" />
</g>
<g id="d4">
<circle cx="0" cy="0" r="0.3175" fill="#288f28ff" />
</g>
<g id="d5">
<circle cx="0" cy="0" r="0.254" fill="#288f28ff" />
</g>
<g id="d6">
<rect x="-0.40" y="-0.45" width="0.80" height="0.90" fill="#288f28ff" transform="rotate(-0.0)" />
</g>
<g id="d7">
<rect x="-0.45" y="-0.40" width="0.90" height="0.80" fill="#288f28ff" transform="rotate(-0.0)" />
</g>
<g id="d8">
<rect x="-0.705" y="-0.675005" width="1.410" height="1.350010" fill="#288f28ff" transform="rotate(-0.0)" />
</g>
<g id="d9">
<rect x="-0.85" y="-0.85" width="1.70" height="1.70" fill="#288f28ff" transform="rotate(-0.0)" />
</g>
<g id="d10">
<circle cx="0" cy="0" r="0.85" fill="#288f28ff" />
</g>
<g id="d11">
<rect x="-0.85" y="-0.78740" width="1.70" height="1.57480" fill="#288f28ff" transform="rotate(-0.0)" />
</g>
<g id="d12">
<rect x="-0.135" y="-0.75" width="0.270" height="1.50" fill="#288f28ff" rx="0.135" ry="0.135" transform="rotate(-0.0)" />
</g>
<g id="d13">
<rect x="-0.75" y="-0.135" width="1.50" height="0.270" fill="#288f28ff" rx="0.135" ry="0.135" transform="rotate(-0.0)" />
</g>
<g id="d14">
<rect x="-1.249995" y="-0.55" width="2.499990" height="1.10" fill="#288f28ff" transform="rotate(-0.0)" />
</g>
<g id="d15">
<rect x="-1.170" y="-1.799995" width="2.340" height="3.599990" fill="#288f28ff" transform="rotate(-0.0)" />
</g>
</defs>
<g mask="url(#d0)">
<g></g>
<use xlink:href="#d1" x="4.06857" y="15.77543" />
<path d="M4.06857000,15.90243000 L4.06857000,15.64843000 L5.81457000,15.64843000 L5.81457000,15.90243000 Z" fill="#288f28ff" />
<use xlink:href="#d1" x="5.81457" y="15.77543" />
<use xlink:href="#d1" x="5.81457" y="15.77543" />
<path d="M5.90437256,15.86523256 L5.72476744,15.68562744 L6.32369744,15.08669744 L6.50330256,15.26630256 Z" fill="#288f28ff" />
<use xlink:href="#d1" x="6.41350" y="15.17650" />
<use xlink:href="#d1" x="6.06857" y="9.27557" />
<path d="M5.94157000,9.27557000 L6.19557000,9.27557000 L6.19557000,14.06957000 L5.94157000,14.06957000 Z" fill="#288f28ff" />
<use xlink:href="#d1" x="6.06857" y="14.06957" />
<use xlink:href="#d1" x="6.06857" y="14.06957" />
<path d="M5.97876744,14.15937256 L6.15837256,13.97976744 L6.63030256,14.45169744 L6.45069744,14.63130256 Z" fill="#288f28ff" />
<use xlink:href="#d1" x="6.54050" y="14.54150" />
<use xlink:href="#d1" x="9.06856" y="17.77543" />
<path d="M9.19556000,17.77543000 L8.94156000,17.77543000 L8.94156000,16.43456000 L9.19556000,16.43456000 Z" fill="#288f28ff" />
<use xlink:href="#d1" x="9.06856" y="16.43456" />
<use xlink:href="#d1" x="9.06856" y="16.43456" />
<path d="M9.15836256,16.34475744 L8.97875744,16.52436256 L7.72069744,15.26630256 L7.90030256,15.08669744 Z" fill="#288f28ff" />
<use xlink:href="#d1" x="7.81050" y="15.17650" />
<use xlink:href="#d1" x="7.81050" y="15.17650" />
<path d="M7.81050000,15.04950000 L7.81050000,15.30350000 L7.17550000,15.30350000 L7.17550000,15.04950000 Z" fill="#288f28ff" />
<use xlink:href="#d1" x="7.17550" y="15.17650" />
<use xlink:href="#d1" x="12.56843" y="11.27557" />
<path d="M12.56843000,11.14857000 L12.56843000,11.40257000 L10.31443000,11.40257000 L10.31443000,11.14857000 Z" fill="#288f28ff" />
<use xlink:href="#d1" x="10.31443" y="11.27557" />
<use xlink:href="#d1" x="10.31443" y="11.27557" />
<path d="M10.22462744,11.18576744 L10.40423256,11.36537256 L7.13830256,14.63130256 L6.95869744,14.45169744 Z" fill="#288f28ff" />
<use xlink:href="#d1" x="7.04850" y="14.54150" />
<use xlink:href="#d1" x="9.56843" y="17.77543" />
<path d="M9.44143000,17.77543000 L9.69543000,17.77543000 L9.69543000,18.83943000 L9.44143000,18.83943000 Z" fill="#288f28ff" />
<use xlink:href="#d1" x="9.56843" y="18.83943" />
<use xlink:href="#d1" x="9.56843" y="18.83943" />
<path d="M9.47862744,18.92923256 L9.65823256,18.74962744 L10.12432256,19.21571744 L9.94471744,19.39532256 Z" fill="#288f28ff" />
<use xlink:href="#d1" x="10.03452" y="19.30552" />
<use xlink:href="#d1" x="10.03452" y="19.30552" />
<path d="M9.90752000,19.30552000 L10.16152000,19.30552000 L10.16152000,20.76450000 L9.90752000,20.76450000 Z" fill="#288f28ff" />
<use xlink:href="#d1" x="10.03452" y="20.76450" />
<use xlink:href="#d1" x="9.06856" y="17.77543" />
<path d="M8.94156000,17.77543000 L9.19556000,17.77543000 L9.19556000,18.74444000 L8.94156000,18.74444000 Z" fill="#288f28ff" />
<use xlink:href="#d1" x="9.06856" y="18.74444" />
<use xlink:href="#d1" x="9.06856" y="18.74444" />
<path d="M8.97875744,18.65463744 L9.15836256,18.83424256 L8.72428256,19.26832256 L8.54467744,19.08871744 Z" fill="#288f28ff" />
<use xlink:href="#d1" x="8.63448" y="19.17852" />
<use xlink:href="#d1" x="8.63448" y="19.17852" />
<path d="M8.50748000,19.17852000 L8.76148000,19.17852000 L8.76148000,20.76450000 L8.50748000,20.76450000 Z" fill="#288f28ff" />
<use xlink:href="#d1" x="8.63448" y="20.76450" />
<use xlink:href="#d2" x="10.03452" y="20.76450" />
<path d="M9.84402000,20.76450000 L10.22502000,20.76450000 L10.22502000,21.76132000 L9.84402000,21.76132000 Z" fill="#288f28ff" />
<use xlink:href="#d2" x="10.03452" y="21.76132" />
<use xlink:href="#d2" x="10.03452" y="21.76132" />
<path d="M9.89981616,21.89602384 L10.16922384,21.62661616 L10.18840384,21.64579616 L9.91899616,21.91520384 Z" fill="#288f28ff" />
<use xlink:href="#d2" x="10.05370" y="21.78050" />
<use xlink:href="#d2" x="10.05370" y="21.78050" />
<path d="M10.05370000,21.97100000 L10.05370000,21.59000000 L10.35050000,21.59000000 L10.35050000,21.97100000 Z" fill="#288f28ff" />
<use xlink:href="#d2" x="10.35050" y="21.78050" />
<use xlink:href="#d2" x="10.35050" y="21.78050" />
<path d="M10.16000000,21.78050000 L10.54100000,21.78050000 L10.54100000,23.03450000 L10.16000000,23.03450000 Z" fill="#288f28ff" />
<use xlink:href="#d2" x="10.35050" y="23.03450" />
<use xlink:href="#d2" x="10.35050" y="23.03450" />
<path d="M10.21579616,22.89979616 L10.48520384,23.16920384 L10.46920384,23.18520384 L10.19979616,22.91579616 Z" fill="#288f28ff" />
<use xlink:href="#d2" x="10.33450" y="23.05050" />
<use xlink:href="#d2" x="8.63448" y="20.76450" />
<path d="M8.44398000,20.76450000 L8.82498000,20.76450000 L8.82498000,21.76132000 L8.44398000,21.76132000 Z" fill="#288f28ff" />
<use xlink:href="#d2" x="8.63448" y="21.76132" />
<use xlink:href="#d2" x="8.63448" y="21.76132" />
<path d="M8.49977616,21.62661616 L8.76918384,21.89602384 L8.75000384,21.91520384 L8.48059616,21.64579616 Z" fill="#288f28ff" />
<use xlink:href="#d2" x="8.61530" y="21.78050" />
<use xlink:href="#d2" x="8.61530" y="21.78050" />
<path d="M8.61530000,21.59000000 L8.61530000,21.97100000 L8.31850000,21.97100000 L8.31850000,21.59000000 Z" fill="#288f28ff" />
<use xlink:href="#d2" x="8.31850" y="21.78050" />
<use xlink:href="#d2" x="8.31850" y="21.78050" />
<path d="M8.12800000,21.78050000 L8.50900000,21.78050000 L8.50900000,23.03450000 L8.12800000,23.03450000 Z" fill="#288f28ff" />
<use xlink:href="#d2" x="8.31850" y="23.03450" />
<use xlink:href="#d2" x="8.31850" y="23.03450" />
<path d="M8.18379616,23.16920384 L8.45320384,22.89979616 L8.46920384,22.91579616 L8.19979616,23.18520384 Z" fill="#288f28ff" />
<use xlink:href="#d2" x="8.33450" y="23.05050" />
<use xlink:href="#d1" x="12.56843" y="10.77544" />
<path d="M12.56843000,10.90244000 L12.56843000,10.64844000 L13.48156000,10.64844000 L13.48156000,10.90244000 Z" fill="#288f28ff" />
<use xlink:href="#d1" x="13.48156" y="10.77544" />
<use xlink:href="#d1" x="13.48156" y="10.77544" />
<path d="M13.57136256,10.86524256 L13.39175744,10.68563744 L13.81669744,10.26069744 L13.99630256,10.44030256 Z" fill="#288f28ff" />
<use xlink:href="#d1" x="13.90650" y="10.35050" />
<use xlink:href="#d1" x="13.90650" y="10.35050" />
<path d="M14.03350000,10.35050000 L13.77950000,10.35050000 L13.77950000,9.14248000 L14.03350000,9.14248000 Z" fill="#288f28ff" />
<use xlink:href="#d1" x="13.90650" y="9.14248" />
<use xlink:href="#d1" x="13.90650" y="9.14248" />
<path d="M13.99630256,9.23228256 L13.81669744,9.05267744 L13.87867744,8.99069744 L14.05828256,9.17030256 Z" fill="#288f28ff" />
<use xlink:href="#d1" x="13.96848" y="9.08050" />
<use xlink:href="#d1" x="12.56843" y="11.27557" />
<path d="M12.56843000,11.40257000 L12.56843000,11.14857000 L13.99743000,11.14857000 L13.99743000,11.40257000 Z" fill="#288f28ff" />
<use xlink:href="#d1" x="13.99743" y="11.27557" />
<use xlink:href="#d1" x="13.99743" y="11.27557" />
<path d="M14.08723256,11.36537256 L13.90762744,11.18576744 L15.27871744,9.81467744 L15.45832256,9.99428256 Z" fill="#288f28ff" />
<use xlink:href="#d1" x="15.36852" y="9.90448" />
<use xlink:href="#d1" x="15.36852" y="9.90448" />
<path d="M15.49552000,9.90448000 L15.24152000,9.90448000 L15.24152000,9.08050000 L15.49552000,9.08050000 Z" fill="#288f28ff" />
<use xlink:href="#d1" x="15.36852" y="9.08050" />
<use xlink:href="#d1" x="5.56844" y="9.27557" />
<path d="M5.69544000,9.27557000 L5.44144000,9.27557000 L5.44144000,7.72744000 L5.69544000,7.72744000 Z" fill="#288f28ff" />
<use xlink:href="#d1" x="5.56844" y="7.72744" />
<use xlink:href="#d1" x="5.56844" y="7.72744" />
<path d="M5.65824256,7.63763744 L5.47863744,7.81724256 L5.24571744,7.58432256 L5.42532256,7.40471744 Z" fill="#288f28ff" />
<use xlink:href="#d1" x="5.33552" y="7.49452" />
<use xlink:href="#d1" x="5.33552" y="7.49452" />
<path d="M5.33552000,7.36752000 L5.33552000,7.62152000 L4.25450000,7.62152000 L4.25450000,7.36752000 Z" fill="#288f28ff" />
<use xlink:href="#d1" x="4.25450" y="7.49452" />
<use xlink:href="#d1" x="4.06857" y="16.27556" />
<path d="M4.06857000,16.14856000 L4.06857000,16.40256000 L3.02844000,16.40256000 L3.02844000,16.14856000 Z" fill="#288f28ff" />
<use xlink:href="#d1" x="3.02844" y="16.27556" />
<use xlink:href="#d1" x="3.02844" y="16.27556" />
<path d="M2.93863744,16.18575744 L3.11824256,16.36536256 L2.63132256,16.85228256 L2.45171744,16.67267744 Z" fill="#288f28ff" />
<use xlink:href="#d1" x="2.54152" y="16.76248" />
<use xlink:href="#d1" x="2.54152" y="16.76248" />
<path d="M2.41452000,16.76248000 L2.66852000,16.76248000 L2.66852000,17.84350000 L2.41452000,17.84350000 Z" fill="#288f28ff" />
<use xlink:href="#d1" x="2.54152" y="17.84350" />
<use xlink:href="#d1" x="4.06857" y="15.77543" />
<path d="M4.06857000,15.64843000 L4.06857000,15.90243000 L1.75057000,15.90243000 L1.75057000,15.64843000 Z" fill="#288f28ff" />
<use xlink:href="#d1" x="1.75057" y="15.77543" />
<use xlink:href="#d1" x="1.75057" y="15.77543" />
<path d="M1.66076744,15.68562744 L1.84037256,15.86523256 L1.23128256,16.47432256 L1.05167744,16.29471744 Z" fill="#288f28ff" />
<use xlink:href="#d1" x="1.14148" y="16.38452" />
<use xlink:href="#d1" x="1.14148" y="16.38452" />
<path d="M1.01448000,16.38452000 L1.26848000,16.38452000 L1.26848000,17.84350000 L1.01448000,17.84350000 Z" fill="#288f28ff" />
<use xlink:href="#d1" x="1.14148" y="17.84350" />
<use xlink:href="#d2" x="2.54152" y="17.84350" />
<path d="M2.35102000,17.84350000 L2.73202000,17.84350000 L2.73202000,19.87550000 L2.35102000,19.87550000 Z" fill="#288f28ff" />
<use xlink:href="#d2" x="2.54152" y="19.87550" />
<use xlink:href="#d2" x="1.14148" y="17.84350" />
<path d="M0.95098000,17.84350000 L1.33198000,17.84350000 L1.33198000,19.87550000 L0.95098000,19.87550000 Z" fill="#288f28ff" />
<use xlink:href="#d2" x="1.14148" y="19.87550" />
<use xlink:href="#d1" x="5.56844" y="17.77543" />
<path d="M5.44144000,17.77543000 L5.69544000,17.77543000 L5.69544000,18.68856000 L5.44144000,18.68856000 Z" fill="#288f28ff" />
<use xlink:href="#d1" x="5.56844" y="18.68856" />
<use xlink:href="#d1" x="5.56844" y="18.68856" />
<path d="M5.47863744,18.59875744 L5.65824256,18.77836256 L5.36030256,19.07630256 L5.18069744,18.89669744 Z" fill="#288f28ff" />
<use xlink:href="#d1" x="5.27050" y="18.98650" />
<use xlink:href="#d1" x="5.27050" y="18.98650" />
<path d="M5.27050000,18.85950000 L5.27050000,19.11350000 L4.63550000,19.11350000 L4.63550000,18.85950000 Z" fill="#288f28ff" />
<use xlink:href="#d1" x="4.63550" y="18.98650" />
<use xlink:href="#d1" x="4.63550" y="18.98650" />
<path d="M4.72530256,18.89669744 L4.54569744,19.07630256 L3.40269744,17.93330256 L3.58230256,17.75369744 Z" fill="#288f28ff" />
<use xlink:href="#d1" x="3.49250" y="17.84350" />
<use xlink:href="#d1" x="3.49250" y="17.84350" />
<path d="M3.49250000,17.71650000 L3.49250000,17.97050000 L2.54152000,17.97050000 L2.54152000,17.71650000 Z" fill="#288f28ff" />
<use xlink:href="#d1" x="2.54152" y="17.84350" />
<use xlink:href="#d1" x="6.56844" y="9.27557" />
<path d="M6.69544000,9.27557000 L6.44144000,9.27557000 L6.44144000,5.67944000 L6.69544000,5.67944000 Z" fill="#288f28ff" />
<use xlink:href="#d1" x="6.56844" y="5.67944" />
<use xlink:href="#d1" x="6.56844" y="5.67944" />
<path d="M6.65824256,5.58963744 L6.47863744,5.76924256 L4.41869744,3.70930256 L4.59830256,3.52969744 Z" fill="#288f28ff" />
<use xlink:href="#d1" x="4.50850" y="3.61950" />
<use xlink:href="#d1" x="4.06857" y="10.77544" />
<path d="M4.06857000,10.64844000 L4.06857000,10.90244000 L3.05010000,10.90244000 L3.05010000,10.64844000 Z" fill="#288f28ff" />
<use xlink:href="#d1" x="3.05010" y="10.77544" />
<use xlink:href="#d1" x="3.05010" y="10.77544" />
<path d="M3.13990202,10.68563690 L2.96029798,10.86524310 L2.13269798,10.03765310 L2.31230202,9.85804690 Z" fill="#288f28ff" />
<use xlink:href="#d1" x="2.22250" y="9.94785" />
<use xlink:href="#d1" x="2.22250" y="9.94785" />
<path d="M2.34950000,9.94785000 L2.09550000,9.94785000 L2.09550000,7.04850000 L2.34950000,7.04850000 Z" fill="#288f28ff" />
<use xlink:href="#d1" x="2.22250" y="7.04850" />
<use xlink:href="#d1" x="2.22250" y="7.04850" />
<path d="M2.31230256,6.95869744 L2.13269744,7.13830256 L1.87869744,6.88430256 L2.05830256,6.70469744 Z" fill="#288f28ff" />
<use xlink:href="#d1" x="1.96850" y="6.79450" />
<use xlink:href="#d1" x="1.96850" y="6.79450" />
<path d="M2.09550000,6.79450000 L1.84150000,6.79450000 L1.84150000,3.61950000 L2.09550000,3.61950000 Z" fill="#288f28ff" />
<use xlink:href="#d1" x="1.96850" y="3.61950" />
<use xlink:href="#d1" x="6.06857" y="9.27557" />
<path d="M6.19557000,9.27557000 L5.94157000,9.27557000 L5.94157000,6.83057000 L6.19557000,6.83057000 Z" fill="#288f28ff" />
<use xlink:href="#d1" x="6.06857" y="6.83057" />
<use xlink:href="#d1" x="6.06857" y="6.83057" />
<path d="M6.15837256,6.74076744 L5.97876744,6.92037256 L5.24267744,6.18428256 L5.42228256,6.00467744 Z" fill="#288f28ff" />
<use xlink:href="#d1" x="5.33248" y="6.09448" />
<use xlink:href="#d1" x="5.33248" y="6.09448" />
<path d="M5.33248000,5.96748000 L5.33248000,6.22148000 L4.50850000,6.22148000 L4.50850000,5.96748000 Z" fill="#288f28ff" />
<use xlink:href="#d1" x="4.50850" y="6.09448" />
<use xlink:href="#d2" x="10.33450" y="23.05050" />
<path d="M10.19979616,23.18520384 L10.46920384,22.91579616 L10.48520384,22.93179616 L10.21579616,23.20120384 Z" fill="#288f28ff" />
<use xlink:href="#d2" x="10.35050" y="23.06650" />
<use xlink:href="#d2" x="10.35050" y="23.06650" />
<path d="M10.16000000,23.06650000 L10.54100000,23.06650000 L10.54100000,24.19350000 L10.16000000,24.19350000 Z" fill="#288f28ff" />
<use xlink:href="#d2" x="10.35050" y="24.19350" />
<use xlink:href="#d2" x="10.35050" y="24.19350" />
<path d="M10.21579616,24.05879616 L10.48520384,24.32820384 L10.23120384,24.58220384 L9.96179616,24.31279616 Z" fill="#288f28ff" />
<use xlink:href="#d2" x="10.09650" y="24.44750" />
<use xlink:href="#d2" x="10.09650" y="24.44750" />
<path d="M10.09650000,24.25700000 L10.09650000,24.63800000 L5.39750000,24.63800000 L5.39750000,24.25700000 Z" fill="#288f28ff" />
<use xlink:href="#d2" x="5.39750" y="24.44750" />
<use xlink:href="#d2" x="5.39750" y="24.44750" />
<path d="M5.53220384,24.31279616 L5.26279616,24.58220384 L2.40681616,21.72622384 L2.67622384,21.45681616 Z" fill="#288f28ff" />
<use xlink:href="#d2" x="2.54152" y="21.59152" />
<use xlink:href="#d2" x="2.54152" y="21.59152" />
<path d="M2.73202000,21.59152000 L2.35102000,21.59152000 L2.35102000,19.87550000 L2.73202000,19.87550000 Z" fill="#288f28ff" />
<use xlink:href="#d2" x="2.54152" y="19.87550" />
<use xlink:href="#d3" x="18.22450" y="22.28850" />
<path d="M18.22450000,22.02180000 L18.22450000,22.55520000 L15.68450000,22.55520000 L15.68450000,22.02180000 Z" fill="#288f28ff" />
<use xlink:href="#d3" x="15.68450" y="22.28850" />
<use xlink:href="#d3" x="15.68450" y="22.28850" />
<path d="M15.49591462,22.09991462 L15.87308538,22.47708538 L15.11108538,23.23908538 L14.73391462,22.86191462 Z" fill="#288f28ff" />
<use xlink:href="#d3" x="14.92250" y="23.05050" />
<use xlink:href="#d3" x="14.92250" y="23.05050" />
<path d="M14.92250000,22.78380000 L14.92250000,23.31720000 L10.41196000,23.31720000 L10.41196000,22.78380000 Z" fill="#288f28ff" />
<use xlink:href="#d3" x="10.41196" y="23.05050" />
<use xlink:href="#d2" x="18.22450" y="24.82850" />
<path d="M18.22450000,24.63800000 L18.22450000,25.01900000 L12.00150000,25.01900000 L12.00150000,24.63800000 Z" fill="#288f28ff" />
<use xlink:href="#d2" x="12.00150" y="24.82850" />
<use xlink:href="#d2" x="12.00150" y="24.82850" />
<path d="M11.86679616,24.69379616 L12.13620384,24.96320384 L11.75520384,25.34420384 L11.48579616,25.07479616 Z" fill="#288f28ff" />
<use xlink:href="#d2" x="11.62050" y="25.20950" />
<use xlink:href="#d2" x="11.62050" y="25.20950" />
<path d="M11.62050000,25.01900000 L11.62050000,25.40000000 L4.88950000,25.40000000 L4.88950000,25.01900000 Z" fill="#288f28ff" />
<use xlink:href="#d2" x="4.88950" y="25.20950" />
<use xlink:href="#d2" x="4.88950" y="25.20950" />
<path d="M5.02420384,25.07479616 L4.75479616,25.34420384 L1.00677616,21.59618384 L1.27618384,21.32677616 Z" fill="#288f28ff" />
<use xlink:href="#d2" x="1.14148" y="21.46148" />
<use xlink:href="#d2" x="1.14148" y="21.46148" />
<path d="M1.33198000,21.46148000 L0.95098000,21.46148000 L0.95098000,19.87550000 L1.33198000,19.87550000 Z" fill="#288f28ff" />
<use xlink:href="#d2" x="1.14148" y="19.87550" />
<use xlink:href="#d1" x="12.56843" y="12.77544" />
<path d="M12.56843000,12.90244000 L12.56843000,12.64844000 L13.51356000,12.64844000 L13.51356000,12.90244000 Z" fill="#288f28ff" />
<use xlink:href="#d1" x="13.51356" y="12.77544" />
<use xlink:href="#d1" x="13.51356" y="12.77544" />
<path d="M13.60336256,12.86524256 L13.42375744,12.68563744 L16.61069744,9.49869744 L16.79030256,9.67830256 Z" fill="#288f28ff" />
<use xlink:href="#d1" x="16.70050" y="9.58850" />
<use xlink:href="#d1" x="16.70050" y="9.58850" />
<path d="M16.70050000,9.71550000 L16.70050000,9.46150000 L18.22450000,9.46150000 L18.22450000,9.71550000 Z" fill="#288f28ff" />
<use xlink:href="#d1" x="18.22450" y="9.58850" />
<use xlink:href="#d1" x="12.56843" y="13.27556" />
<path d="M12.56843000,13.40256000 L12.56843000,13.14856000 L14.28344000,13.14856000 L14.28344000,13.40256000 Z" fill="#288f28ff" />
<use xlink:href="#d1" x="14.28344" y="13.27556" />
<use xlink:href="#d1" x="14.28344" y="13.27556" />
<path d="M14.37324256,13.36536256 L14.19363744,13.18575744 L15.21369744,12.16569744 L15.39330256,12.34530256 Z" fill="#288f28ff" />
<use xlink:href="#d1" x="15.30350" y="12.25550" />
<use xlink:href="#d1" x="15.30350" y="12.25550" />
<path d="M15.30350000,12.38250000 L15.30350000,12.12850000 L18.09750000,12.12850000 L18.09750000,12.38250000 Z" fill="#288f28ff" />
<use xlink:href="#d1" x="18.09750" y="12.25550" />
<use xlink:href="#d1" x="18.09750" y="12.25550" />
<path d="M18.18730256,12.34530256 L18.00769744,12.16569744 L18.13469744,12.03869744 L18.31430256,12.21830256 Z" fill="#288f28ff" />
<use xlink:href="#d1" x="18.22450" y="12.12850" />
<use xlink:href="#d1" x="12.56843" y="13.77544" />
<path d="M12.56843000,13.90244000 L12.56843000,13.64844000 L15.93444000,13.64844000 L15.93444000,13.90244000 Z" fill="#288f28ff" />
<use xlink:href="#d1" x="15.93444" y="13.77544" />
<use xlink:href="#d1" x="15.93444" y="13.77544" />
<path d="M15.84463744,13.86524256 L16.02424256,13.68563744 L16.91730256,14.57869744 L16.73769744,14.75830256 Z" fill="#288f28ff" />
<use xlink:href="#d1" x="16.82750" y="14.66850" />
<use xlink:href="#d1" x="16.82750" y="14.66850" />
<path d="M16.82750000,14.79550000 L16.82750000,14.54150000 L18.22450000,14.54150000 L18.22450000,14.79550000 Z" fill="#288f28ff" />
<use xlink:href="#d1" x="18.22450" y="14.66850" />
<use xlink:href="#d1" x="12.56843" y="15.27556" />
<path d="M12.56843000,15.40256000 L12.56843000,15.14856000 L13.65250000,15.14856000 L13.65250000,15.40256000 Z" fill="#288f28ff" />
<use xlink:href="#d1" x="13.65250" y="15.27556" />
<use xlink:href="#d1" x="13.65250" y="15.27556" />
<path d="M13.56269744,15.36536256 L13.74230256,15.18575744 L14.25030256,15.69375744 L14.07069744,15.87336256 Z" fill="#288f28ff" />
<use xlink:href="#d1" x="14.16050" y="15.78356" />
<use xlink:href="#d1" x="14.16050" y="15.78356" />
<path d="M14.03350000,15.78356000 L14.28750000,15.78356000 L14.28750000,17.46250000 L14.03350000,17.46250000 Z" fill="#288f28ff" />
<use xlink:href="#d1" x="14.16050" y="17.46250" />
<use xlink:href="#d1" x="14.16050" y="17.46250" />
<path d="M14.07069744,17.55230256 L14.25030256,17.37269744 L16.53630256,19.65869744 L16.35669744,19.83830256 Z" fill="#288f28ff" />
<use xlink:href="#d1" x="16.44650" y="19.74850" />
<use xlink:href="#d1" x="16.44650" y="19.74850" />
<path d="M16.44650000,19.87550000 L16.44650000,19.62150000 L18.22450000,19.62150000 L18.22450000,19.87550000 Z" fill="#288f28ff" />
<use xlink:href="#d1" x="18.22450" y="19.74850" />
<use xlink:href="#d1" x="12.56843" y="14.27556" />
<path d="M12.56843000,14.40256000 L12.56843000,14.14856000 L13.64056000,14.14856000 L13.64056000,14.40256000 Z" fill="#288f28ff" />
<use xlink:href="#d1" x="13.64056" y="14.27556" />
<use xlink:href="#d1" x="13.64056" y="14.27556" />
<path d="M13.55075744,14.36536256 L13.73036256,14.18575744 L16.66330256,17.11869744 L16.48369744,17.29830256 Z" fill="#288f28ff" />
<use xlink:href="#d1" x="16.57350" y="17.20850" />
<use xlink:href="#d1" x="16.57350" y="17.20850" />
<path d="M16.57350000,17.33550000 L16.57350000,17.08150000 L18.22450000,17.08150000 L18.22450000,17.33550000 Z" fill="#288f28ff" />
<use xlink:href="#d1" x="18.22450" y="17.20850" />
<use xlink:href="#d4" x="18.22450" y="4.63550" />
<path d="M17.99999360,4.41099360 L18.44900640,4.86000640 L18.44899640,4.86001640 L17.99998360,4.41100360 Z" fill="#288f28ff" />
<use xlink:href="#d4" x="18.22449" y="4.63551" />
<use xlink:href="#d4" x="18.22449" y="4.63551" />
<path d="M17.90699000,4.63551000 L18.54199000,4.63551000 L18.54199000,6.10550000 L17.90699000,6.10550000 Z" fill="#288f28ff" />
<use xlink:href="#d4" x="18.22449" y="6.10550" />
<use xlink:href="#d4" x="18.22449" y="6.10550" />
<path d="M17.99998360,5.88099360 L18.44899640,6.33000640 L17.74602640,7.03297640 L17.29701360,6.58396360 Z" fill="#288f28ff" />
<use xlink:href="#d4" x="17.52152" y="6.80847" />
<use xlink:href="#d4" x="17.52152" y="6.80847" />
<path d="M17.52152000,6.49097000 L17.52152000,7.12597000 L14.97145000,7.12597000 L14.97145000,6.49097000 Z" fill="#288f28ff" />
<use xlink:href="#d4" x="14.97145" y="6.80847" />
<use xlink:href="#d4" x="18.22450" y="2.09550" />
<path d="M18.22450000,1.77800000 L18.22450000,2.41300000 L17.08150000,2.41300000 L17.08150000,1.77800000 Z" fill="#288f28ff" />
<use xlink:href="#d4" x="17.08150" y="2.09550" />
<use xlink:href="#d4" x="17.08150" y="2.09550" />
<path d="M16.85699360,1.87099360 L17.30600640,2.32000640 L17.17900640,2.44700640 L16.72999360,1.99799360 Z" fill="#288f28ff" />
<use xlink:href="#d4" x="16.95450" y="2.22250" />
<use xlink:href="#d4" x="16.95450" y="2.22250" />
<path d="M16.95450000,1.90500000 L16.95450000,2.54000000 L14.98542000,2.54000000 L14.98542000,1.90500000 Z" fill="#288f28ff" />
<use xlink:href="#d4" x="14.98542" y="2.22250" />
<use xlink:href="#d4" x="14.98542" y="2.22250" />
<path d="M15.20992640,1.99799360 L14.76091360,2.44700640 L14.74694360,2.43303640 L15.19595640,1.98402360 Z" fill="#288f28ff" />
<use xlink:href="#d4" x="14.97145" y="2.20853" />
<use xlink:href="#d1" x="4.50393" y="7.49452" />
<path d="M4.50393000,7.36752000 L4.50393000,7.62152000 L3.79839000,7.62152000 L3.79839000,7.36752000 Z" fill="#288f28ff" />
<use xlink:href="#d1" x="3.79839" y="7.49452" />
<use xlink:href="#d1" x="3.79839" y="7.49452" />
<path d="M3.88819256,7.40471744 L3.70858744,7.58432256 L3.27569744,7.15143256 L3.45530256,6.97182744 Z" fill="#288f28ff" />
<use xlink:href="#d1" x="3.36550" y="7.06163" />
<use xlink:href="#d1" x="3.36550" y="7.06163" />
<path d="M3.49250000,7.06163000 L3.23850000,7.06163000 L3.23850000,2.66452000 L3.49250000,2.66452000 Z" fill="#288f28ff" />
<use xlink:href="#d1" x="3.36550" y="2.66452" />
<use xlink:href="#d1" x="3.36550" y="2.66452" />
<path d="M3.45530256,2.75432256 L3.27569744,2.57471744 L3.84471744,2.00569744 L4.02432256,2.18530256 Z" fill="#288f28ff" />
<use xlink:href="#d1" x="3.93452" y="2.09550" />
<use xlink:href="#d1" x="3.93452" y="2.09550" />
<path d="M3.93452000,2.22250000 L3.93452000,1.96850000 L8.95003000,1.96850000 L8.95003000,2.22250000 Z" fill="#288f28ff" />
<use xlink:href="#d1" x="8.95003" y="2.09550" />
<use xlink:href="#d1" x="15.36852" y="9.08050" />
<path d="M15.49552000,9.08050000 L15.24152000,9.08050000 L15.24152000,7.20555000 L15.49552000,7.20555000 Z" fill="#288f28ff" />
<use xlink:href="#d1" x="15.36852" y="7.20555" />
<use xlink:href="#d1" x="15.36852" y="7.20555" />
<path d="M15.45832369,7.11574857 L15.27871631,7.29535143 L14.88164631,6.89827143 L15.06125369,6.71866857 Z" fill="#288f28ff" />
<use xlink:href="#d1" x="14.97145" y="6.80847" />
<use xlink:href="#d3" x="13.93749" y="9.08046" />
<path d="M13.93749000,8.81376000 L13.93749000,9.34716000 L12.85051000,9.34716000 L12.85051000,8.81376000 Z" fill="#288f28ff" />
<use xlink:href="#d3" x="12.85051" y="9.08046" />
<use xlink:href="#d3" x="12.85051" y="9.08046" />
<path d="M13.03909538,8.89187462 L12.66192462,9.26904538 L11.43191462,8.03903538 L11.80908538,7.66186462 Z" fill="#288f28ff" />
<use xlink:href="#d3" x="11.62050" y="7.85045" />
<use xlink:href="#d3" x="11.62050" y="7.85045" />
<path d="M11.88720000,7.85045000 L11.35380000,7.85045000 L11.35380000,4.76250000 L11.88720000,4.76250000 Z" fill="#288f28ff" />
<use xlink:href="#d3" x="11.62050" y="4.76250" />
<use xlink:href="#d3" x="11.62050" y="4.76250" />
<path d="M11.80908538,4.57391462 L11.43191462,4.95108538 L11.17791462,4.69708538 L11.55508538,4.31991462 Z" fill="#288f28ff" />
<use xlink:href="#d3" x="11.36650" y="4.50850" />
<use xlink:href="#d3" x="11.36650" y="4.50850" />
<path d="M11.36650000,4.24180000 L11.36650000,4.77520000 L9.03153000,4.77520000 L9.03153000,4.24180000 Z" fill="#288f28ff" />
<use xlink:href="#d3" x="9.03153" y="4.50850" />
<use xlink:href="#d4" x="18.22450" y="22.28850" />
<path d="M18.22450000,22.60600000 L18.22450000,21.97100000 L19.36750000,21.97100000 L19.36750000,22.60600000 Z" fill="#288f28ff" />
<use xlink:href="#d4" x="19.36750" y="22.28850" />
<use xlink:href="#d4" x="19.36750" y="22.28850" />
<path d="M19.59200640,22.51300640 L19.14299360,22.06399360 L19.77799360,21.42899360 L20.22700640,21.87800640 Z" fill="#288f28ff" />
<use xlink:href="#d4" x="20.00250" y="21.65350" />
<use xlink:href="#d4" x="20.00250" y="21.65350" />
<path d="M20.32000000,21.65350000 L19.68500000,21.65350000 L19.68500000,0.95250000 L20.32000000,0.95250000 Z" fill="#288f28ff" />
<use xlink:href="#d4" x="20.00250" y="0.95250" />
<use xlink:href="#d4" x="20.00250" y="0.95250" />
<path d="M20.22700640,0.72799360 L19.77799360,1.17700640 L19.14299360,0.54200640 L19.59200640,0.09299360 Z" fill="#288f28ff" />
<use xlink:href="#d4" x="19.36750" y="0.31750" />
<use xlink:href="#d4" x="19.36750" y="0.31750" />
<path d="M19.36750000,0.00000000 L19.36750000,0.63500000 L10.73150000,0.63500000 L10.73150000,0.00000000 Z" fill="#288f28ff" />
<use xlink:href="#d4" x="10.73150" y="0.31750" />
<use xlink:href="#d4" x="10.73150" y="0.31750" />
<path d="M10.50699360,0.09299360 L10.95600640,0.54200640 L9.25603640,2.24197640 L8.80702360,1.79296360 Z" fill="#288f28ff" />
<use xlink:href="#d4" x="9.03153" y="2.01747" />
<use xlink:href="#d4" x="9.03153" y="2.01747" />
<path d="M8.71403000,2.01747000 L9.34903000,2.01747000 L9.34903000,4.50850000 L8.71403000,4.50850000 Z" fill="#288f28ff" />
<use xlink:href="#d4" x="9.03153" y="4.50850" />
<use xlink:href="#d5" x="10.03452" y="20.76450" />
<path d="M10.03452000,21.01850000 L10.03452000,20.51050000 L11.24295000,20.51050000 L11.24295000,21.01850000 Z" fill="#288f28ff" />
<use xlink:href="#d5" x="11.24295" y="20.76450" />
<use xlink:href="#d3" x="10.10537" y="21.78050" />
<path d="M10.10537000,22.04720000 L10.10537000,21.51380000 L11.66771000,21.51380000 L11.66771000,22.04720000 Z" fill="#288f28ff" />
<use xlink:href="#d3" x="11.66771" y="21.78050" />
<use xlink:href="#d1" x="2.54152" y="19.87550" />
<path d="M2.54152000,20.00250000 L2.54152000,19.74850000 L3.72257000,19.74850000 L3.72257000,20.00250000 Z" fill="#288f28ff" />
<use xlink:href="#d1" x="3.72257" y="19.87550" />
<use xlink:href="#d1" x="1.14148" y="17.84350" />
<path d="M1.14148000,17.71650000 L1.14148000,17.97050000 L0.57150000,17.97050000 L0.57150000,17.71650000 Z" fill="#288f28ff" />
<use xlink:href="#d1" x="0.57150" y="17.84350" />
<use xlink:href="#d1" x="1.14148" y="19.87550" />
<path d="M1.14148000,19.74850000 L1.14148000,20.00250000 L0.57150000,20.00250000 L0.57150000,19.74850000 Z" fill="#288f28ff" />
<use xlink:href="#d1" x="0.57150" y="19.87550" />
<use xlink:href="#d4" x="9.03153" y="4.50850" />
<path d="M9.03153000,4.82600000 L9.03153000,4.19100000 L14.97145000,4.19100000 L14.97145000,4.82600000 Z" fill="#288f28ff" />
<use xlink:href="#d4" x="14.97145" y="4.50850" />
<path d="M6.06857000,11.67257000 L6.10743000,11.67257000 L6.66750000,11.11250000 L10.46375000,11.11250000 L10.62681000,11.27557000 L10.62681000,15.78919000 L10.09650000,16.31950000 L6.35864000,16.31950000 L5.81457000,15.77543000 L5.81457000,11.92657000 L6.06857000,11.67257000 Z" fill="#288f28ff" />
<path d="M16.71096000,22.28850000 L16.71096000,20.90196000 L13.52550000,17.71650000 L12.12850000,17.71650000 L11.74750000,18.09750000 L11.74750000,18.73250000 L11.36650000,19.11350000 L9.71550000,19.11350000 L10.03452000,19.30552000 L9.94343000,19.87550000 L10.60450000,19.87550000 L10.85850000,20.12950000 L10.85850000,22.03450000 L11.11250000,22.03450000 L11.36650000,22.28850000 L11.36650000,23.81250000 L11.11250000,24.06650000 L10.47750000,24.06650000 L9.96950000,24.57450000 L9.96904000,24.70150000 L11.36650000,24.70150000 L11.74750000,24.32050000 L16.70991000,24.32050000 L16.70991000,22.28954000 L16.71096000,22.28850000 Z" fill="#288f28ff" />
<path d="M3.02844000,16.27556000 L3.02844000,16.61744000 L3.23850000,16.82750000 L4.00050000,16.82750000 L4.50850000,17.33550000 L4.50850000,18.23329000 L4.92978000,18.65458000 L5.56844000,18.65458000 L6.40836000,19.49450000 L7.30250000,19.49450000 L7.30250000,21.52650000 L6.92150000,21.90750000 L6.92150000,24.44750000 L5.39750000,24.44750000 L2.54152000,21.59152000 L2.54152000,20.60651000 L2.88849000,20.60651000 L3.11150000,20.38350000 L3.11150000,19.36750000 L2.85750000,19.11350000 L2.54152000,19.11350000 L2.54152000,18.55361000 L2.90939000,18.55361000 L3.11150000,18.35150000 L3.11150000,17.31675000 L2.87618000,17.08144000 L2.52167000,17.08144000 L2.52167000,16.76248000 L3.00859000,16.27556000 L3.02844000,16.27556000 Z" fill="#288f28ff" />
<path d="M1.75057000,15.77543000 L0.60757000,15.77543000 L0.31750000,16.06550000 L0.31750000,25.46350000 L0.57150000,25.71750000 L16.44650000,25.71750000 L16.70050000,25.46350000 L16.70050000,24.82850000 L12.00150000,24.82850000 L11.62050000,25.20950000 L4.88950000,25.20950000 L1.14148000,21.46148000 L1.14148000,20.66849000 L0.85649000,20.66849000 L0.57150000,20.38350000 L0.57150000,19.36750000 L0.82550000,19.11350000 L1.14148000,19.11350000 L1.14148000,18.60084000 L0.82084000,18.60084000 L0.57150000,18.35150000 L0.57150000,17.33550000 L0.82550000,17.08150000 L1.14148000,17.08150000 L1.14148000,16.38452000 L1.75057000,15.77543000 Z" fill="#288f28ff" />
<use xlink:href="#d6" x="1.14148" y="17.84350" />
<use xlink:href="#d6" x="2.54152" y="17.84350" />
<use xlink:href="#d7" x="4.50850" y="6.09448" />
<use xlink:href="#d7" x="4.50850" y="7.49452" />
<use xlink:href="#d6" x="15.36852" y="9.08050" />
<use xlink:href="#d6" x="13.96848" y="9.08050" />
<use xlink:href="#d6" x="1.14148" y="19.87550" />
<use xlink:href="#d6" x="2.54152" y="19.87550" />
<use xlink:href="#d6" x="10.03452" y="20.76450" />
<use xlink:href="#d6" x="8.63448" y="20.76450" />
<use xlink:href="#d8" x="10.33450" y="23.05050" />
<use xlink:href="#d8" x="8.33450" y="23.05050" />
<use xlink:href="#d9" x="18.22450" y="2.09550" />
<use xlink:href="#d10" x="18.22450" y="4.63550" />
<use xlink:href="#d10" x="18.22450" y="9.58850" />
<use xlink:href="#d10" x="18.22450" y="12.12850" />
<use xlink:href="#d10" x="18.22450" y="14.66850" />
<use xlink:href="#d10" x="18.22450" y="17.20850" />
<use xlink:href="#d10" x="18.22450" y="19.74850" />
<use xlink:href="#d10" x="18.22450" y="22.28850" />
<use xlink:href="#d11" x="18.22450" y="24.82850" />
<use xlink:href="#d9" x="2.09550" y="3.61950" />
<use xlink:href="#d10" x="4.63550" y="3.61950" />
<use xlink:href="#d12" x="5.56844" y="17.77543" />
<use xlink:href="#d12" x="6.06857" y="17.77543" />
<use xlink:href="#d12" x="6.56844" y="17.77543" />
<use xlink:href="#d12" x="7.06857" y="17.77543" />
<use xlink:href="#d12" x="7.56844" y="17.77543" />
<use xlink:href="#d12" x="8.06856" y="17.77543" />
<use xlink:href="#d12" x="8.56844" y="17.77543" />
<use xlink:href="#d12" x="9.06856" y="17.77543" />
<use xlink:href="#d12" x="9.56843" y="17.77543" />
<use xlink:href="#d12" x="10.06856" y="17.77543" />
<use xlink:href="#d12" x="10.56843" y="17.77543" />
<use xlink:href="#d12" x="11.06856" y="17.77543" />
<use xlink:href="#d13" x="12.56843" y="16.27556" />
<use xlink:href="#d13" x="12.56843" y="15.77543" />
<use xlink:href="#d13" x="12.56843" y="15.27556" />
<use xlink:href="#d13" x="12.56843" y="14.77543" />
<use xlink:href="#d13" x="12.56843" y="14.27556" />
<use xlink:href="#d13" x="12.56843" y="13.77544" />
<use xlink:href="#d13" x="12.56843" y="13.27556" />
<use xlink:href="#d13" x="12.56843" y="12.77544" />
<use xlink:href="#d13" x="12.56843" y="12.27557" />
<use xlink:href="#d13" x="12.56843" y="11.77544" />
<use xlink:href="#d13" x="12.56843" y="11.27557" />
<use xlink:href="#d13" x="12.56843" y="10.77544" />
<use xlink:href="#d12" x="11.06856" y="9.27557" />
<use xlink:href="#d12" x="10.56843" y="9.27557" />
<use xlink:href="#d12" x="10.06856" y="9.27557" />
<use xlink:href="#d12" x="9.56843" y="9.27557" />
<use xlink:href="#d12" x="9.06856" y="9.27557" />
<use xlink:href="#d12" x="8.56844" y="9.27557" />
<use xlink:href="#d12" x="8.06856" y="9.27557" />
<use xlink:href="#d12" x="7.56844" y="9.27557" />
<use xlink:href="#d12" x="7.06857" y="9.27557" />
<use xlink:href="#d12" x="6.56844" y="9.27557" />
<use xlink:href="#d12" x="6.06857" y="9.27557" />
<use xlink:href="#d12" x="5.56844" y="9.27557" />
<use xlink:href="#d13" x="4.06857" y="10.77544" />
<use xlink:href="#d13" x="4.06857" y="11.27557" />
<use xlink:href="#d13" x="4.06857" y="11.77544" />
<use xlink:href="#d13" x="4.06857" y="12.27557" />
<use xlink:href="#d13" x="4.06857" y="12.77544" />
<use xlink:href="#d13" x="4.06857" y="13.27556" />
<use xlink:href="#d13" x="4.06857" y="13.77544" />
<use xlink:href="#d13" x="4.06857" y="14.27556" />
<use xlink:href="#d13" x="4.06857" y="14.77543" />
<use xlink:href="#d13" x="4.06857" y="15.27556" />
<use xlink:href="#d13" x="4.06857" y="15.77543" />
<use xlink:href="#d13" x="4.06857" y="16.27556" />
<use xlink:href="#d14" x="14.97145" y="6.80847" />
<use xlink:href="#d14" x="14.97145" y="4.50850" />
<use xlink:href="#d14" x="14.97145" y="2.20853" />
<use xlink:href="#d15" x="9.03153" y="4.50850" />
</g>
</svg>