  0
SECTION
  2
HEADER
  9
$ACADVER
  1
AC1027
  9
$ACADMAINTVER
 70
105
  9
$DWGCODEPAGE
  3
ANSI_1252
  9
$LASTSAVEDBY
  1
ezdxf
  9
$REQUIREDVERSIONS
160
0
  9
$INSBASE
 10
0.0
 20
0.0
 30
0.0
  9
$EXTMIN
 10
1e+20
 20
1e+20
 30
1e+20
  9
$EXTMAX
 10
-1e+20
 20
-1e+20
 30
-1e+20
  9
$LIMMIN
 10
0.0
 20
0.0
  9
$LIMMAX
 10
420.0
 20
297.0
  9
$ORTHOMODE
 70
0
  9
$REGENMODE
 70
1
  9
$FILLMODE
 70
1
  9
$QTEXTMODE
 70
0
  9
$MIRRTEXT
 70
1
  9
$LTSCALE
 40
1.0
  9
$ATTMODE
 70
1
  9
$TEXTSIZE
 40
2.5
  9
$TRACEWID
 40
1.0
  9
$TEXTSTYLE
  7
Standard
  9
$CLAYER
  8
0
  9
$CELTYPE
  6
ByLayer
  9
$CECOLOR
 62
256
  9
$CELTSCALE
 40
1.0
  9
$DISPSILH
 70
0
  9
$DIMSCALE
 40
1.0
  9
$DIMASZ
 40
2.5
  9
$DIMEXO
 40
0.625
  9
$DIMDLI
 40
3.75
  9
$DIMRND
 40
0.0
  9
$DIMDLE
 40
0.0
  9
$DIMEXE
 40
1.25
  9
$DIMTP
 40
0.0
  9
$DIMTM
 40
0.0
  9
$DIMTXT
 40
2.5
  9
$DIMCEN
 40
2.5
  9
$DIMTSZ
 40
0.0
  9
$DIMTOL
 70
0
  9
$DIMLIM
 70
0
  9
$DIMTIH
 70
0
  9
$DIMTOH
 70
0
  9
$DIMSE1
 70
0
  9
$DIMSE2
 70
0
  9
$DIMTAD
 70
1
  9
$DIMZIN
 70
8
  9
$DIMBLK
  1

  9
$DIMASO
 70
1
  9
$DIMSHO
 70
1
  9
$DIMPOST
  1

  9
$DIMAPOST
  1

  9
$DIMALT
 70
0
  9
$DIMALTD
 70
3
  9
$DIMALTF
 40
0.03937007874
  9
$DIMLFAC
 40
1.0
  9
$DIMTOFL
 70
1
  9
$DIMTVP
 40
0.0
  9
$DIMTIX
 70
0
  9
$DIMSOXD
 70
0
  9
$DIMSAH
 70
0
  9
$DIMBLK1
  1

  9
$DIMBLK2
  1

  9
$DIMSTYLE
  2
ISO-25
  9
$DIMCLRD
 70
0
  9
$DIMCLRE
 70
0
  9
$DIMCLRT
 70
0
  9
$DIMTFAC
 40
1.0
  9
$DIMGAP
 40
0.625
  9
$DIMJUST
 70
0
  9
$DIMSD1
 70
0
  9
$DIMSD2
 70
0
  9
$DIMTOLJ
 70
0
  9
$DIMTZIN
 70
8
  9
$DIMALTZ
 70
0
  9
$DIMALTTZ
 70
0
  9
$DIMUPT
 70
0
  9
$DIMDEC
 70
2
  9
$DIMTDEC
 70
2
  9
$DIMALTU
 70
2
  9
$DIMALTTD
 70
3
  9
$DIMTXSTY
  7
Standard
  9
$DIMAUNIT
 70
0
  9
$DIMADEC
 70
0
  9
$DIMALTRND
 40
0.0
  9
$DIMAZIN
 70
0
  9
$DIMDSEP
 70
44
  9
$DIMATFIT
 70
3
  9
$DIMFRAC
 70
0
  9
$DIMLDRBLK
  1

  9
$DIMLUNIT
 70
2
  9
$DIMLWD
 70
-2
  9
$DIMLWE
 70
-2
  9
$DIMTMOVE
 70
0
  9
$DIMFXL
 40
1.0
  9
$DIMFXLON
 70
0
  9
$DIMJOGANG
 40
0.785398163397
  9
$DIMTFILL
 70
0
  9
$DIMTFILLCLR
 70
0
  9
$DIMARCSYM
 70
0
  9
$DIMLTYPE
  6

  9
$DIMLTEX1
  6

  9
$DIMLTEX2
  6

  9
$DIMTXTDIRECTION
 70
0
  9
$LUNITS
 70
2
  9
$LUPREC
 70
4
  9
$SKETCHINC
 40
1.0
  9
$FILLETRAD
 40
10.0
  9
$AUNITS
 70
0
  9
$AUPREC
 70
2
  9
$MENU
  1
.
  9
$ELEVATION
 40
0.0
  9
$PELEVATION
 40
0.0
  9
$THICKNESS
 40
0.0
  9
$LIMCHECK
 70
0
  9
$CHAMFERA
 40
0.0
  9
$CHAMFERB
 40
0.0
  9
$CHAMFERC
 40
0.0
  9
$CHAMFERD
 40
0.0
  9
$SKPOLY
 70
0
  9
$TDCREATE
 40
2460964.5980092594
  9
$TDUCREATE
 40
2458532.153996898
  9
$TDUPDATE
 40
2460964.5980092594
  9
$TDUUPDATE
 40
2458532.1544311
  9
$TDINDWG
 40
0.0
  9
$TDUSRTIMER
 40
0.0
  9
$USRTIMER
 70
1
  9
$ANGBASE
 50
0.0
  9
$ANGDIR
 70
0
  9
$PDMODE
 70
0
  9
$PDSIZE
 40
0.0
  9
$PLINEWID
 40
0.0
  9
$SPLFRAME
 70
0
  9
$SPLINETYPE
 70
6
  9
$SPLINESEGS
 70
8
  9
$HANDSEED
  5
161
  9
$SURFTAB1
 70
6
  9
$SURFTAB2
 70
6
  9
$SURFTYPE
 70
6
  9
$SURFU
 70
6
  9
$SURFV
 70
6
  9
$UCSBASE
  2

  9
$UCSNAME
  2

  9
$UCSORG
 10
0.0
 20
0.0
 30
0.0
  9
$UCSXDIR
 10
1.0
 20
0.0
 30
0.0
  9
$UCSYDIR
 10
0.0
 20
1.0
 30
0.0
  9
$UCSORTHOREF
  2

  9
$UCSORTHOVIEW
 70
0
  9
$UCSORGTOP
 10
0.0
 20
0.0
 30
0.0
  9
$UCSORGBOTTOM
 10
0.0
 20
0.0
 30
0.0
  9
$UCSORGLEFT
 10
0.0
 20
0.0
 30
0.0
  9
$UCSORGRIGHT
 10
0.0
 20
0.0
 30
0.0
  9
$UCSORGFRONT
 10
0.0
 20
0.0
 30
0.0
  9
$UCSORGBACK
 10
0.0
 20
0.0
 30
0.0
  9
$PUCSBASE
  2

  9
$PUCSNAME
  2

  9
$PUCSORG
 10
0.0
 20
0.0
 30
0.0
  9
$PUCSXDIR
 10
1.0
 20
0.0
 30
0.0
  9
$PUCSYDIR
 10
0.0
 20
1.0
 30
0.0
  9
$PUCSORTHOREF
  2

  9
$PUCSORTHOVIEW
 70
0
  9
$PUCSORGTOP
 10
0.0
 20
0.0
 30
0.0
  9
$PUCSORGBOTTOM
 10
0.0
 20
0.0
 30
0.0
  9
$PUCSORGLEFT
 10
0.0
 20
0.0
 30
0.0
  9
$PUCSORGRIGHT
 10
0.0
 20
0.0
 30
0.0
  9
$PUCSORGFRONT
 10
0.0
 20
0.0
 30
0.0
  9
$PUCSORGBACK
 10
0.0
 20
0.0
 30
0.0
  9
$USERI1
 70
0
  9
$USERI2
 70
0
  9
$USERI3
 70
0
  9
$USERI4
 70
0
  9
$USERI5
 70
0
  9
$USERR1
 40
0.0
  9
$USERR2
 40
0.0
  9
$USERR3
 40
0.0
  9
$USERR4
 40
0.0
  9
$USERR5
 40
0.0
  9
$WORLDVIEW
 70
1
  9
$SHADEDGE
 70
3
  9
$SHADEDIF
 70
70
  9
$TILEMODE
 70
1
  9
$MAXACTVP
 70
64
  9
$PINSBASE
 10
0.0
 20
0.0
 30
0.0
  9
$PLIMCHECK
 70
0
  9
$PEXTMIN
 10
1e+20
 20
1e+20
 30
1e+20
  9
$PEXTMAX
 10
-1e+20
 20
-1e+20
 30
-1e+20
  9
$PLIMMIN
 10
0.0
 20
0.0
  9
$PLIMMAX
 10
420.0
 20
297.0
  9
$UNITMODE
 70
0
  9
$VISRETAIN
 70
1
  9
$PLINEGEN
 70
0
  9
$PSLTSCALE
 70
1
  9
$TREEDEPTH
 70
3020
  9
$CMLSTYLE
  2
Standard
  9
$CMLJUST
 70
0
  9
$CMLSCALE
 40
20.0
  9
$PROXYGRAPHICS
 70
1
  9
$MEASUREMENT
 70
1
  9
$CELWEIGHT
370
-1
  9
$ENDCAPS
280
0
  9
$JOINSTYLE
280
0
  9
$LWDISPLAY
290
0
  9
$INSUNITS
 70
6
  9
$HYPERLINKBASE
  1

  9
$STYLESHEET
  1

  9
$XEDIT
290
1
  9
$CEPSNTYPE
380
0
  9
$PSTYLEMODE
290
1
  9
$FINGERPRINTGUID
  2
{E8EEC103-8800-4D34-AC28-796ED81F14A4}
  9
$VERSIONGUID
  2
{F3F2B67D-029A-45DE-AF69-5D7C1F2FC17C}
  9
$EXTNAMES
290
1
  9
$PSVPSCALE
 40
0.0
  9
$OLESTARTUP
290
0
  9
$SORTENTS
280
127
  9
$INDEXCTL
280
0
  9
$HIDETEXT
280
1
  9
$XCLIPFRAME
280
1
  9
$HALOGAP
280
0
  9
$OBSCOLOR
 70
257
  9
$OBSLTYPE
280
0
  9
$INTERSECTIONDISPLAY
280
0
  9
$INTERSECTIONCOLOR
 70
257
  9
$DIMASSOC
280
2
  9
$PROJECTNAME
  1

  9
$CAMERADISPLAY
290
0
  9
$LENSLENGTH
 40
50.0
  9
$CAMERAHEIGHT
 40
0.0
  9
$STEPSPERSEC
 40
24.0
  9
$STEPSIZE
 40
100.0
  9
$3DDWFPREC
 40
2.0
  9
$PSOLWIDTH
 40
0.005
  9
$PSOLHEIGHT
 40
0.08
  9
$LOFTANG1
 40
1.570796326795
  9
$LOFTANG2
 40
1.570796326795
  9
$LOFTMAG1
 40
0.0
  9
$LOFTMAG2
 40
0.0
  9
$LOFTPARAM
 70
7
  9
$LOFTNORMALS
280
1
  9
$LATITUDE
 40
37.795
  9
$LONGITUDE
 40
-122.394
  9
$NORTHDIRECTION
 40
0.0
  9
$TIMEZONE
 70
-8000
  9
$LIGHTGLYPHDISPLAY
280
1
  9
$TILEMODELIGHTSYNCH
280
1
  9
$CMATERIAL
347
20
  9
$SOLIDHIST
280
0
  9
$SHOWHIST
280
1
  9
$DWFFRAME
280
2
  9
$DGNFRAME
280
2
  9
$REALWORLDSCALE
290
1
  9
$INTERFERECOLOR
 62
256
  9
$CSHADOW
280
0
  9
$SHADOWPLANELOCATION
 40
0.0
  0
ENDSEC
  0
SECTION
  2
CLASSES
  0
CLASS
  1
ACDBDICTIONARYWDFLT
  2
AcDbDictionaryWithDefault
  3
ObjectDBX Classes
 90
0
 91
0
280
0
281
0
  0
CLASS
  1
SUN
  2
AcDbSun
  3
SCENEOE
 90
1153
 91
0
280
0
281
0
  0
CLASS
  1
VISUALSTYLE
  2
AcDbVisualStyle
  3
ObjectDBX Classes
 90
4095
 91
0
280
0
281
0
  0
CLASS
  1
MATERIAL
  2
AcDbMaterial
  3
ObjectDBX Classes
 90
1153
 91
0
280
0
281
0
  0
CLASS
  1
SCALE
  2
AcDbScale
  3
ObjectDBX Classes
 90
1153
 91
0
280
0
281
0
  0
CLASS
  1
TABLESTYLE
  2
AcDbTableStyle
  3
ObjectDBX Classes
 90
4095
 91
0
280
0
281
0
  0
CLASS
  1
MLEADERSTYLE
  2
AcDbMLeaderStyle
  3
ACDB_MLEADERSTYLE_CLASS
 90
4095
 91
0
280
0
281
0
  0
CLASS
  1
DICTIONARYVAR
  2
AcDbDictionaryVar
  3
ObjectDBX Classes
 90
0
 91
0
280
0
281
0
  0
CLASS
  1
CELLSTYLEMAP
  2
AcDbCellStyleMap
  3
ObjectDBX Classes
 90
1152
 91
0
280
0
281
0
  0
CLASS
  1
MENTALRAYRENDERSETTINGS
  2
AcDbMentalRayRenderSettings
  3
SCENEOE
 90
1024
 91
0
280
0
281
0
  0
CLASS
  1
ACDBDETAILVIEWSTYLE
  2
AcDbDetailViewStyle
  3
ObjectDBX Classes
 90
1025
 91
0
280
0
281
0
  0
CLASS
  1
ACDBSECTIONVIEWSTYLE
  2
AcDbSectionViewStyle
  3
ObjectDBX Classes
 90
1025
 91
0
280
0
281
0
  0
CLASS
  1
RASTERVARIABLES
  2
AcDbRasterVariables
  3
ISM
 90
0
 91
0
280
0
281
0
  0
CLASS
  1
LAYOUT
  2
AcDbLayout
  3
ObjectDBX Classes
 90
0
 91
0
280
0
281
0
  0
CLASS
  1
ACDBPLACEHOLDER
  2
AcDbPlaceHolder
  3
ObjectDBX Classes
 90
0
 91
0
280
0
281
0
  0
ENDSEC
  0
SECTION
  2
TABLES
  0
TABLE
  2
VPORT
  5
8
330
0
100
AcDbSymbolTable
 70
1
  0
VPORT
  5
23
330
8
100
AcDbSymbolTableRecord
100
AcDbViewportTableRecord
  2
*Active
 70
0
 10
0.0
 20
0.0
 11
1.0
 21
1.0
 12
0.0
 22
0.0
 13
0.0
 23
0.0
 14
0.5
 24
0.5
 15
0.5
 25
0.5
 16
0.0
 26
0.0
 36
1.0
 17
0.0
 27
0.0
 37
0.0
 40
1000.0
 41
1.34
 42
50.0
 43
0.0
 44
0.0
 50
0.0
 51
0.0
 71
0
 72
1000
 73
1
 74
3
 75
0
 76
0
 77
0
 78
0
281
0
 65
0
146
0.0
  0
ENDTAB
  0
TABLE
  2
LTYPE
  5
2
330
0
100
AcDbSymbolTable
 70
3
  0
LTYPE
  5
24
330
2
100
AcDbSymbolTableRecord
100
AcDbLinetypeTableRecord
  2
ByBlock
 70
0
  3

 72
65
 73
0
 40
0.0
  0
LTYPE
  5
25
330
2
100
AcDbSymbolTableRecord
100
AcDbLinetypeTableRecord
  2
ByLayer
 70
0
  3

 72
65
 73
0
 40
0.0
  0
LTYPE
  5
26
330
2
100
AcDbSymbolTableRecord
100
AcDbLinetypeTableRecord
  2
Continuous
 70
0
  3

 72
65
 73
0
 40
0.0
  0
ENDTAB
  0
TABLE
  2
LAYER
  5
1
330
0
100
AcDbSymbolTable
 70
7
  0
LAYER
  5
27
330
1
100
AcDbSymbolTableRecord
100
AcDbLayerTableRecord
  2
0
 70
0
 62
7
  6
Continuous
370
-3
390
13
347
21
  0
LAYER
  5
28
330
1
100
AcDbSymbolTableRecord
100
AcDbLayerTableRecord
  2
Defpoints
 70
0
 62
7
  6
Continuous
290
0
370
-3
390
13
347
21
  0
LAYER
  5
2F
330
1
100
AcDbSymbolTableRecord
100
AcDbLayerTableRecord
  2
power11speed1
 70
0
 62
7
  6
Continuous
370
-3
390
13
347
21
  0
LAYER
  5
92
330
1
100
AcDbSymbolTableRecord
100
AcDbLayerTableRecord
  2
power22speed2
 70
0
 62
7
  6
Continuous
370
-3
390
13
347
21
  0
LAYER
  5
93
330
1
100
AcDbSymbolTableRecord
100
AcDbLayerTableRecord
  2
power33speed3
 70
0
 62
7
  6
Continuous
370
-3
390
13
347
21
  0
LAYER
  5
F6
330
1
100
AcDbSymbolTableRecord
100
AcDbLayerTableRecord
  2
power44speed4
 70
0
 62
7
  6
Continuous
370
-3
390
13
347
21
  0
LAYER
  5
159
330
1
100
AcDbSymbolTableRecord
100
AcDbLayerTableRecord
  2
power55speed5
 70
0
 62
7
  6
Continuous
370
-3
390
13
347
21
  0
ENDTAB
  0
TABLE
  2
STYLE
  5
5
330
0
100
AcDbSymbolTable
 70
1
  0
STYLE
  5
29
330
5
100
AcDbSymbolTableRecord
100
AcDbTextStyleTableRecord
  2
Standard
 70
0
 40
0.0
 41
1.0
 50
0.0
 71
0
 42
2.5
  3
txt
  4

  0
ENDTAB
  0
TABLE
  2
VIEW
  5
7
330
0
100
AcDbSymbolTable
 70
0
  0
ENDTAB
  0
TABLE
  2
UCS
  5
6
330
0
100
AcDbSymbolTable
 70
0
  0
ENDTAB
  0
TABLE
  2
APPID
  5
3
330
0
100
AcDbSymbolTable
 70
3
  0
APPID
  5
2A
330
3
100
AcDbSymbolTableRecord
100
AcDbRegAppTableRecord
  2
ACAD
 70
0
  0
APPID
  5
15E
330
3
100
AcDbSymbolTableRecord
100
AcDbRegAppTableRecord
  2
HATCHBACKGROUNDCOLOR
 70
0
  0
APPID
  5
15F
330
3
100
AcDbSymbolTableRecord
100
AcDbRegAppTableRecord
  2
EZDXF
 70
0
  0
ENDTAB
  0
TABLE
  2
DIMSTYLE
  5
4
330
0
100
AcDbSymbolTable
 70
1
100
AcDbDimStyleTable
  0
DIMSTYLE
105
2B
330
4
100
AcDbSymbolTableRecord
100
AcDbDimStyleTableRecord
  2
Standard
 70
0
 40
1.0
 41
2.5
 42
0.625
 43
3.75
 44
1.25
 45
0.0
 46
0.0
 47
0.0
 48
0.0
 49
2.5
140
2.5
141
2.5
142
0.0
143
0.03937007874
144
1.0
145
0.0
146
1.0
147
0.625
148
0.0
 69
0
 70
0
 71
0
 72
0
 73
0
 74
0
 75
0
 76
0
 77
1
 78
8
 79
3
170
0
171
3
172
1
173
0
174
0
175
0
176
0
177
0
178
0
179
2
271
2
272
2
273
2
274
3
275
0
276
0
277
2
278
44
279
0
280
0
281
0
282
0
283
0
284
8
285
0
286
0
288
0
289
3
290
0
371
-2
372
-2
  0
ENDTAB
  0
TABLE
  2
BLOCK_RECORD
  5
9
330
0
100
AcDbSymbolTable
 70
2
  0
BLOCK_RECORD
  5
17
330
9
100
AcDbSymbolTableRecord
100
AcDbBlockTableRecord
  2
*Model_Space
340
1A
 70
0
280
1
281
0
  0
BLOCK_RECORD
  5
1B
330
9
100
AcDbSymbolTableRecord
100
AcDbBlockTableRecord
  2
*Paper_Space
340
1E
 70
0
280
1
281
0
  0
ENDTAB
  0
ENDSEC
  0
SECTION
  2
BLOCKS
  0
BLOCK
  5
18
330
17
100
AcDbEntity
  8
0
100
AcDbBlockBegin
  2
*Model_Space
 70
0
 10
0.0
 20
0.0
 30
0.0
  3
*Model_Space
  1

  0
ENDBLK
  5
19
330
17
100
AcDbEntity
  8
0
100
AcDbBlockEnd
  0
BLOCK
  5
1C
330
1B
100
AcDbEntity
  8
0
100
AcDbBlockBegin
  2
*Paper_Space
 70
0
 10
0.0
 20
0.0
 30
0.0
  3
*Paper_Space
  1

  0
ENDBLK
  5
1D
330
1B
100
AcDbEntity
  8
0
100
AcDbBlockEnd
  0
ENDSEC
  0
SECTION
  2
ENTITIES
  0
LINE
  5
30
330
17
100
AcDbEntity
  8
power11speed1
100
AcDbLine
 10
3.4409
 20
4.9274
 30
0.0
 11
4.3998
 21
4.9274
 31
0.0
  0
LINE
  5
31
330
17
100
AcDbEntity
  8
power11speed1
100
AcDbLine
 10
4.431
 20
5.138
 30
0.0
 11
3.631
 21
5.138
 31
0.0
  0
LINE
  5
32
330
17
100
AcDbEntity
  8
power11speed1
100
AcDbLine
 10
3.631
 20
5.138
 30
0.0
 11
3.581
 21
5.188
 31
0.0
  0
LINE
  5
33
330
17
100
AcDbEntity
  8
power11speed1
100
AcDbLine
 10
3.581
 20
5.188
 30
0.0
 11
3.581
 21
5.988
 31
0.0
  0
LINE
  5
34
330
17
100
AcDbEntity
  8
power11speed1
100
AcDbLine
 10
3.581
 20
5.988
 30
0.0
 11
3.631
 21
6.038
 31
0.0
  0
LINE
  5
35
330
17
100
AcDbEntity
  8
power11speed1
100
AcDbLine
 10
3.631
 20
6.038
 30
0.0
 11
4.431
 21
6.038
 31
0.0
  0
LINE
  5
36
330
17
100
AcDbEntity
  8
power11speed1
100
AcDbLine
 10
4.431
 20
6.038
 30
0.0
 11
4.481
 21
5.988
 31
0.0
  0
LINE
  5
37
330
17
100
AcDbEntity
  8
power11speed1
100
AcDbLine
 10
4.481
 20
5.988
 30
0.0
 11
4.481
 21
5.746
 31
0.0
  0
LINE
  5
38
330
17
100
AcDbEntity
  8
power11speed1
100
AcDbLine
 10
4.481
 20
5.746
 30
0.0
 11
4.111
 21
5.746
 31
0.0
  0
LINE
  5
39
330
17
100
AcDbEntity
  8
power11speed1
100
AcDbLine
 10
4.111
 20
5.746
 30
0.0
 11
4.111
 21
5.416
 31
0.0
  0
LINE
  5
3A
330
17
100
AcDbEntity
  8
power11speed1
100
AcDbLine
 10
4.111
 20
5.416
 30
0.0
 11
4.481
 21
5.416
 31
0.0
  0
LINE
  5
3B
330
17
100
AcDbEntity
  8
power11speed1
100
AcDbLine
 10
4.481
 20
5.416
 30
0.0
 11
4.481
 21
5.188
 31
0.0
  0
LINE
  5
3C
330
17
100
AcDbEntity
  8
power11speed1
100
AcDbLine
 10
4.481
 20
5.188
 30
0.0
 11
4.431
 21
5.138
 31
0.0
  0
LINE
  5
3D
330
17
100
AcDbEntity
  8
power11speed1
100
AcDbLine
 10
4.476
 20
5.156
 30
0.0
 11
4.476
 21
6.02
 31
0.0
  0
LINE
  5
3E
330
17
100
AcDbEntity
  8
power11speed1
100
AcDbLine
 10
4.476
 20
6.02
 30
0.0
 11
3.6695
 21
6.02
 31
0.0
  0
LINE
  5
3F
330
17
100
AcDbEntity
  8
power11speed1
100
AcDbLine
 10
3.6695
 20
6.02
 30
0.0
 11
3.6695
 21
5.156
 31
0.0
  0
LINE
  5
40
330
17
100
AcDbEntity
  8
power11speed1
100
AcDbLine
 10
3.6695
 20
5.156
 30
0.0
 11
4.476
 21
5.156
 31
0.0
  0
LINE
  5
41
330
17
100
AcDbEntity
  8
power11speed1
100
AcDbLine
 10
4.5014
 20
5.1306
 30
0.0
 11
4.5014
 21
6.0454
 31
0.0
  0
LINE
  5
42
330
17
100
AcDbEntity
  8
power11speed1
100
AcDbLine
 10
4.5014
 20
6.0454
 30
0.0
 11
3.6441
 21
6.0454
 31
0.0
  0
LINE
  5
43
330
17
100
AcDbEntity
  8
power11speed1
100
AcDbLine
 10
3.6441
 20
6.0454
 30
0.0
 11
3.6441
 21
5.1306
 31
0.0
  0
LINE
  5
44
330
17
100
AcDbEntity
  8
power11speed1
100
AcDbLine
 10
3.6441
 20
5.1306
 30
0.0
 11
4.5014
 21
5.1306
 31
0.0
  0
LINE
  5
45
330
17
100
AcDbEntity
  8
power11speed1
100
AcDbLine
 10
4.0726
 20
5.588
 30
0.0
 11
4.0726
 21
15.6296
 31
0.0
  0
LINE
  5
46
330
17
100
AcDbEntity
  8
power11speed1
100
AcDbLine
 10
4.0726
 20
15.6296
 30
0.0
 11
12.8184
 21
24.3754
 31
0.0
  0
LINE
  5
47
330
17
100
AcDbEntity
  8
power11speed1
100
AcDbLine
 10
12.8184
 20
24.3754
 30
0.0
 11
24.003
 21
24.3754
 31
0.0
  0
LINE
  5
48
330
17
100
AcDbEntity
  8
power11speed1
100
AcDbLine
 10
24.161
 20
24.3371
 30
0.0
 11
23.831
 21
24.3371
 31
0.0
  0
LINE
  5
49
330
17
100
AcDbEntity
  8
power11speed1
100
AcDbLine
 10
23.831
 20
24.3371
 30
0.0
 11
23.831
 21
23.9671
 31
0.0
  0
LINE
  5
4A
330
17
100
AcDbEntity
  8
power11speed1
100
AcDbLine
 10
23.831
 20
23.9671
 30
0.0
 11
23.6031
 21
23.9671
 31
0.0
  0
LINE
  5
4B
330
17
100
AcDbEntity
  8
power11speed1
100
AcDbLine
 10
23.6031
 20
23.9671
 30
0.0
 11
23.5531
 21
24.0171
 31
0.0
  0
LINE
  5
4C
330
17
100
AcDbEntity
  8
power11speed1
100
AcDbLine
 10
23.5531
 20
24.0171
 30
0.0
 11
23.5531
 21
24.8171
 31
0.0
  0
LINE
  5
4D
330
17
100
AcDbEntity
  8
power11speed1
100
AcDbLine
 10
23.5531
 20
24.8171
 30
0.0
 11
23.6031
 21
24.8671
 31
0.0
  0
LINE
  5
4E
330
17
100
AcDbEntity
  8
power11speed1
100
AcDbLine
 10
23.6031
 20
24.8671
 30
0.0
 11
24.4031
 21
24.8671
 31
0.0
  0
LINE
  5
4F
330
17
100
AcDbEntity
  8
power11speed1
100
AcDbLine
 10
24.4031
 20
24.8671
 30
0.0
 11
24.4531
 21
24.8171
 31
0.0
  0
LINE
  5
50
330
17
100
AcDbEntity
  8
power11speed1
100
AcDbLine
 10
24.4531
 20
24.8171
 30
0.0
 11
24.4531
 21
24.0171
 31
0.0
  0
LINE
  5
51
330
17
100
AcDbEntity
  8
power11speed1
100
AcDbLine
 10
24.4531
 20
24.0171
 30
0.0
 11
24.4031
 21
23.9671
 31
0.0
  0
LINE
  5
52
330
17
100
AcDbEntity
  8
power11speed1
100
AcDbLine
 10
24.4031
 20
23.9671
 30
0.0
 11
24.161
 21
23.9671
 31
0.0
  0
LINE
  5
53
330
17
100
AcDbEntity
  8
power11speed1
100
AcDbLine
 10
24.161
 20
23.9671
 30
0.0
 11
24.161
 21
24.3371
 31
0.0
  0
LINE
  5
54
330
17
100
AcDbEntity
  8
power11speed1
100
AcDbLine
 10
24.4351
 20
23.9721
 30
0.0
 11
23.571
 21
23.9721
 31
0.0
  0
LINE
  5
55
330
17
100
AcDbEntity
  8
power11speed1
100
AcDbLine
 10
23.571
 20
23.9721
 30
0.0
 11
23.571
 21
24.7785
 31
0.0
  0
LINE
  5
56
330
17
100
AcDbEntity
  8
power11speed1
100
AcDbLine
 10
23.571
 20
24.7785
 30
0.0
 11
24.4351
 21
24.7785
 31
0.0
  0
LINE
  5
57
330
17
100
AcDbEntity
  8
power11speed1
100
AcDbLine
 10
24.4351
 20
24.7785
 30
0.0
 11
24.4351
 21
23.9721
 31
0.0
  0
LINE
  5
58
330
17
100
AcDbEntity
  8
power11speed1
100
AcDbLine
 10
24.4623
 20
23.9483
 30
0.0
 11
23.5438
 21
23.9483
 31
0.0
  0
LINE
  5
59
330
17
100
AcDbEntity
  8
power11speed1
100
AcDbLine
 10
23.5438
 20
23.9483
 30
0.0
 11
23.5438
 21
24.8022
 31
0.0
  0
LINE
  5
5A
330
17
100
AcDbEntity
  8
power11speed1
100
AcDbLine
 10
23.5438
 20
24.8022
 30
0.0
 11
24.4623
 21
24.8022
 31
0.0
  0
LINE
  5
5B
330
17
100
AcDbEntity
  8
power11speed1
100
AcDbLine
 10
24.4623
 20
24.8022
 30
0.0
 11
24.4623
 21
23.9483
 31
0.0
  0
LINE
  5
5C
330
17
100
AcDbEntity
  8
power11speed1
100
AcDbLine
 10
24.6637
 20
24.0483
 30
0.0
 11
24.6637
 21
25.0071
 31
0.0
  0
LINE
  5
5D
330
17
100
AcDbEntity
  8
power11speed1
100
AcDbLine
 10
24.6637
 20
25.0071
 30
0.0
 11
23.3424
 21
25.0071
 31
0.0
  0
LINE
  5
5E
330
17
100
AcDbEntity
  8
power11speed1
100
AcDbLine
 10
23.3424
 20
25.0071
 30
0.0
 11
23.3424
 21
24.0483
 31
0.0
  0
LINE
  5
5F
330
17
100
AcDbEntity
  8
power11speed1
100
AcDbLine
 10
23.5438
 20
23.2958
 30
0.0
 11
24.4623
 21
23.2958
 31
0.0
  0
LINE
  5
60
330
17
100
AcDbEntity
  8
power11speed1
100
AcDbLine
 10
24.4623
 20
23.2958
 30
0.0
 11
24.4623
 21
22.4419
 31
0.0
  0
LINE
  5
61
330
17
100
AcDbEntity
  8
power11speed1
100
AcDbLine
 10
24.4623
 20
22.4419
 30
0.0
 11
23.5438
 21
22.4419
 31
0.0
  0
LINE
  5
62
330
17
100
AcDbEntity
  8
power11speed1
100
AcDbLine
 10
23.5438
 20
22.4419
 30
0.0
 11
23.5438
 21
23.2958
 31
0.0
  0
LINE
  5
63
330
17
100
AcDbEntity
  8
power11speed1
100
AcDbLine
 10
23.571
 20
23.272
 30
0.0
 11
24.4351
 21
23.272
 31
0.0
  0
LINE
  5
64
330
17
100
AcDbEntity
  8
power11speed1
100
AcDbLine
 10
24.4351
 20
23.272
 30
0.0
 11
24.4351
 21
22.4656
 31
0.0
  0
LINE
  5
65
330
17
100
AcDbEntity
  8
power11speed1
100
AcDbLine
 10
24.4351
 20
22.4656
 30
0.0
 11
23.571
 21
22.4656
 31
0.0
  0
LINE
  5
66
330
17
100
AcDbEntity
  8
power11speed1
100
AcDbLine
 10
23.571
 20
22.4656
 30
0.0
 11
23.571
 21
23.272
 31
0.0
  0
LINE
  5
67
330
17
100
AcDbEntity
  8
power11speed1
100
AcDbLine
 10
23.603
 20
23.277
 30
0.0
 11
23.8451
 21
23.277
 31
0.0
  0
LINE
  5
68
330
17
100
AcDbEntity
  8
power11speed1
100
AcDbLine
 10
23.8451
 20
23.277
 30
0.0
 11
23.8451
 21
22.907
 31
0.0
  0
LINE
  5
69
330
17
100
AcDbEntity
  8
power11speed1
100
AcDbLine
 10
23.8451
 20
22.907
 30
0.0
 11
24.1751
 21
22.907
 31
0.0
  0
LINE
  5
6A
330
17
100
AcDbEntity
  8
power11speed1
100
AcDbLine
 10
24.1751
 20
22.907
 30
0.0
 11
24.1751
 21
23.277
 31
0.0
  0
LINE
  5
6B
330
17
100
AcDbEntity
  8
power11speed1
100
AcDbLine
 10
24.1751
 20
23.277
 30
0.0
 11
24.403
 21
23.277
 31
0.0
  0
LINE
  5
6C
330
17
100
AcDbEntity
  8
power11speed1
100
AcDbLine
 10
24.403
 20
23.277
 30
0.0
 11
24.453
 21
23.227
 31
0.0
  0
LINE
  5
6D
330
17
100
AcDbEntity
  8
power11speed1
100
AcDbLine
 10
24.453
 20
23.227
 30
0.0
 11
24.453
 21
22.427
 31
0.0
  0
LINE
  5
6E
330
17
100
AcDbEntity
  8
power11speed1
100
AcDbLine
 10
24.453
 20
22.427
 30
0.0
 11
24.403
 21
22.377
 31
0.0
  0
LINE
  5
6F
330
17
100
AcDbEntity
  8
power11speed1
100
AcDbLine
 10
24.403
 20
22.377
 30
0.0
 11
23.603
 21
22.377
 31
0.0
  0
LINE
  5
70
330
17
100
AcDbEntity
  8
power11speed1
100
AcDbLine
 10
23.603
 20
22.377
 30
0.0
 11
23.553
 21
22.427
 31
0.0
  0
LINE
  5
71
330
17
100
AcDbEntity
  8
power11speed1
100
AcDbLine
 10
23.553
 20
22.427
 30
0.0
 11
23.553
 21
23.227
 31
0.0
  0
LINE
  5
72
330
17
100
AcDbEntity
  8
power11speed1
100
AcDbLine
 10
23.553
 20
23.227
 30
0.0
 11
23.603
 21
23.277
 31
0.0
  0
LINE
  5
73
330
17
100
AcDbEntity
  8
power11speed1
100
AcDbLine
 10
23.3424
 20
23.1958
 30
0.0
 11
23.3424
 21
22.237
 31
0.0
  0
LINE
  5
74
330
17
100
AcDbEntity
  8
power11speed1
100
AcDbLine
 10
23.3424
 20
22.237
 30
0.0
 11
24.6637
 21
22.237
 31
0.0
  0
LINE
  5
75
330
17
100
AcDbEntity
  8
power11speed1
100
AcDbLine
 10
24.6637
 20
22.237
 30
0.0
 11
24.6637
 21
23.1958
 31
0.0
  0
LINE
  5
76
330
17
100
AcDbEntity
  8
power11speed1
100
AcDbLine
 10
24.003
 20
22.8687
 30
0.0
 11
15.2486
 21
22.8687
 31
0.0
  0
LINE
  5
77
330
17
100
AcDbEntity
  8
power11speed1
100
AcDbLine
 10
15.2486
 20
22.8687
 30
0.0
 11
5.5794
 21
13.1994
 31
0.0
  0
LINE
  5
78
330
17
100
AcDbEntity
  8
power11speed1
100
AcDbLine
 10
5.5794
 20
13.1994
 30
0.0
 11
5.5794
 21
5.588
 31
0.0
  0
LINE
  5
79
330
17
100
AcDbEntity
  8
power11speed1
100
AcDbLine
 10
5.541
 20
5.43
 30
0.0
 11
5.541
 21
5.76
 31
0.0
  0
LINE
  5
7A
330
17
100
AcDbEntity
  8
power11speed1
100
AcDbLine
 10
5.541
 20
5.76
 30
0.0
 11
5.171
 21
5.76
 31
0.0
  0
LINE
  5
7B
330
17
100
AcDbEntity
  8
power11speed1
100
AcDbLine
 10
5.171
 20
5.76
 30
0.0
 11
5.171
 21
5.988
 31
0.0
  0
LINE
  5
7C
330
17
100
AcDbEntity
  8
power11speed1
100
AcDbLine
 10
5.171
 20
5.988
 30
0.0
 11
5.221
 21
6.038
 31
0.0
  0
LINE
  5
7D
330
17
100
AcDbEntity
  8
power11speed1
100
AcDbLine
 10
5.221
 20
6.038
 30
0.0
 11
6.021
 21
6.038
 31
0.0
  0
LINE
  5
7E
330
17
100
AcDbEntity
  8
power11speed1
100
AcDbLine
 10
6.021
 20
6.038
 30
0.0
 11
6.071
 21
5.988
 31
0.0
  0
LINE
  5
7F
330
17
100
AcDbEntity
  8
power11speed1
100
AcDbLine
 10
6.071
 20
5.988
 30
0.0
 11
6.071
 21
5.188
 31
0.0
  0
LINE
  5
80
330
17
100
AcDbEntity
  8
power11speed1
100
AcDbLine
 10
6.071
 20
5.188
 30
0.0
 11
6.021
 21
5.138
 31
0.0
  0
LINE
  5
81
330
17
100
AcDbEntity
  8
power11speed1
100
AcDbLine
 10
6.021
 20
5.138
 30
0.0
 11
5.221
 21
5.138
 31
0.0
  0
LINE
  5
82
330
17
100
AcDbEntity
  8
power11speed1
100
AcDbLine
 10
5.221
 20
5.138
 30
0.0
 11
5.171
 21
5.188
 31
0.0
  0
LINE
  5
83
330
17
100
AcDbEntity
  8
power11speed1
100
AcDbLine
 10
5.171
 20
5.188
 30
0.0
 11
5.171
 21
5.43
 31
0.0
  0
LINE
  5
84
330
17
100
AcDbEntity
  8
power11speed1
100
AcDbLine
 10
5.171
 20
5.43
 30
0.0
 11
5.541
 21
5.43
 31
0.0
  0
LINE
  5
85
330
17
100
AcDbEntity
  8
power11speed1
100
AcDbLine
 10
5.176
 20
5.156
 30
0.0
 11
5.176
 21
6.02
 31
0.0
  0
LINE
  5
86
330
17
100
AcDbEntity
  8
power11speed1
100
AcDbLine
 10
5.176
 20
6.02
 30
0.0
 11
5.9825
 21
6.02
 31
0.0
  0
LINE
  5
87
330
17
100
AcDbEntity
  8
power11speed1
100
AcDbLine
 10
5.9825
 20
6.02
 30
0.0
 11
5.9825
 21
5.156
 31
0.0
  0
LINE
  5
88
330
17
100
AcDbEntity
  8
power11speed1
100
AcDbLine
 10
5.9825
 20
5.156
 30
0.0
 11
5.176
 21
5.156
 31
0.0
  0
LINE
  5
89
330
17
100
AcDbEntity
  8
power11speed1
100
AcDbLine
 10
5.1506
 20
5.1306
 30
0.0
 11
5.1506
 21
6.0454
 31
0.0
  0
LINE
  5
8A
330
17
100
AcDbEntity
  8
power11speed1
100
AcDbLine
 10
5.1506
 20
6.0454
 30
0.0
 11
6.0079
 21
6.0454
 31
0.0
  0
LINE
  5
8B
330
17
100
AcDbEntity
  8
power11speed1
100
AcDbLine
 10
6.0079
 20
6.0454
 30
0.0
 11
6.0079
 21
5.1306
 31
0.0
  0
LINE
  5
8C
330
17
100
AcDbEntity
  8
power11speed1
100
AcDbLine
 10
6.0079
 20
5.1306
 30
0.0
 11
5.1506
 21
5.1306
 31
0.0
  0
LINE
  5
8D
330
17
100
AcDbEntity
  8
power11speed1
100
AcDbLine
 10
5.2522
 20
4.9274
 30
0.0
 11
6.2111
 21
4.9274
 31
0.0
  0
LINE
  5
8E
330
17
100
AcDbEntity
  8
power11speed1
100
AcDbLine
 10
6.2111
 20
4.9274
 30
0.0
 11
6.2111
 21
6.2486
 31
0.0
  0
LINE
  5
8F
330
17
100
AcDbEntity
  8
power11speed1
100
AcDbLine
 10
6.2111
 20
6.2486
 30
0.0
 11
5.2522
 21
6.2486
 31
0.0
  0
LINE
  5
90
330
17
100
AcDbEntity
  8
power11speed1
100
AcDbLine
 10
4.3998
 20
6.2486
 30
0.0
 11
3.4409
 21
6.2486
 31
0.0
  0
LINE
  5
91
330
17
100
AcDbEntity
  8
power11speed1
100
AcDbLine
 10
3.4409
 20
6.2486
 30
0.0
 11
3.4409
 21
4.9274
 31
0.0
  0
LINE
  5
94
330
17
100
AcDbEntity
  8
power33speed3
100
AcDbLine
 10
7.6319
 20
4.5976
 30
0.0
 11
7.6319
 21
3.2764
 31
0.0
  0
LINE
  5
95
330
17
100
AcDbEntity
  8
power33speed3
100
AcDbLine
 10
7.6319
 20
3.2764
 30
0.0
 11
8.5908
 21
3.2764
 31
0.0
  0
LINE
  5
96
330
17
100
AcDbEntity
  8
power33speed3
100
AcDbLine
 10
8.622
 20
3.487
 30
0.0
 11
7.822
 21
3.487
 31
0.0
  0
LINE
  5
97
330
17
100
AcDbEntity
  8
power33speed3
100
AcDbLine
 10
7.822
 20
3.487
 30
0.0
 11
7.772
 21
3.537
 31
0.0
  0
LINE
  5
98
330
17
100
AcDbEntity
  8
power33speed3
100
AcDbLine
 10
7.772
 20
3.537
 30
0.0
 11
7.772
 21
4.337
 31
0.0
  0
LINE
  5
99
330
17
100
AcDbEntity
  8
power33speed3
100
AcDbLine
 10
7.772
 20
4.337
 30
0.0
 11
7.822
 21
4.387
 31
0.0
  0
LINE
  5
9A
330
17
100
AcDbEntity
  8
power33speed3
100
AcDbLine
 10
7.822
 20
4.387
 30
0.0
 11
8.622
 21
4.387
 31
0.0
  0
LINE
  5
9B
330
17
100
AcDbEntity
  8
power33speed3
100
AcDbLine
 10
8.622
 20
4.387
 30
0.0
 11
8.672
 21
4.337
 31
0.0
  0
LINE
  5
9C
330
17
100
AcDbEntity
  8
power33speed3
100
AcDbLine
 10
8.672
 20
4.337
 30
0.0
 11
8.672
 21
4.095
 31
0.0
  0
LINE
  5
9D
330
17
100
AcDbEntity
  8
power33speed3
100
AcDbLine
 10
8.672
 20
4.095
 30
0.0
 11
8.302
 21
4.095
 31
0.0
  0
LINE
  5
9E
330
17
100
AcDbEntity
  8
power33speed3
100
AcDbLine
 10
8.302
 20
4.095
 30
0.0
 11
8.302
 21
3.765
 31
0.0
  0
LINE
  5
9F
330
17
100
AcDbEntity
  8
power33speed3
100
AcDbLine
 10
8.302
 20
3.765
 30
0.0
 11
8.672
 21
3.765
 31
0.0
  0
LINE
  5
A0
330
17
100
AcDbEntity
  8
power33speed3
100
AcDbLine
 10
8.672
 20
3.765
 30
0.0
 11
8.672
 21
3.537
 31
0.0
  0
LINE
  5
A1
330
17
100
AcDbEntity
  8
power33speed3
100
AcDbLine
 10
8.672
 20
3.537
 30
0.0
 11
8.622
 21
3.487
 31
0.0
  0
LINE
  5
A2
330
17
100
AcDbEntity
  8
power33speed3
100
AcDbLine
 10
8.667
 20
3.505
 30
0.0
 11
8.667
 21
4.369
 31
0.0
  0
LINE
  5
A3
330
17
100
AcDbEntity
  8
power33speed3
100
AcDbLine
 10
8.667
 20
4.369
 30
0.0
 11
7.8605
 21
4.369
 31
0.0
  0
LINE
  5
A4
330
17
100
AcDbEntity
  8
power33speed3
100
AcDbLine
 10
7.8605
 20
4.369
 30
0.0
 11
7.8605
 21
3.505
 31
0.0
  0
LINE
  5
A5
330
17
100
AcDbEntity
  8
power33speed3
100
AcDbLine
 10
7.8605
 20
3.505
 30
0.0
 11
8.667
 21
3.505
 31
0.0
  0
LINE
  5
A6
330
17
100
AcDbEntity
  8
power33speed3
100
AcDbLine
 10
8.6924
 20
3.4796
 30
0.0
 11
8.6924
 21
4.3944
 31
0.0
  0
LINE
  5
A7
330
17
100
AcDbEntity
  8
power33speed3
100
AcDbLine
 10
8.6924
 20
4.3944
 30
0.0
 11
7.8351
 21
4.3944
 31
0.0
  0
LINE
  5
A8
330
17
100
AcDbEntity
  8
power33speed3
100
AcDbLine
 10
7.8351
 20
4.3944
 30
0.0
 11
7.8351
 21
3.4796
 31
0.0
  0
LINE
  5
A9
330
17
100
AcDbEntity
  8
power33speed3
100
AcDbLine
 10
7.8351
 20
3.4796
 30
0.0
 11
8.6924
 21
3.4796
 31
0.0
  0
LINE
  5
AA
330
17
100
AcDbEntity
  8
power33speed3
100
AcDbLine
 10
8.2636
 20
3.937
 30
0.0
 11
8.2636
 21
13.0896
 31
0.0
  0
LINE
  5
AB
330
17
100
AcDbEntity
  8
power33speed3
100
AcDbLine
 10
8.2636
 20
13.0896
 30
0.0
 11
15.2314
 21
20.0574
 31
0.0
  0
LINE
  5
AC
330
17
100
AcDbEntity
  8
power33speed3
100
AcDbLine
 10
15.2314
 20
20.0574
 30
0.0
 11
24.003
 21
20.0574
 31
0.0
  0
LINE
  5
AD
330
17
100
AcDbEntity
  8
power33speed3
100
AcDbLine
 10
24.161
 20
20.0191
 30
0.0
 11
23.831
 21
20.0191
 31
0.0
  0
LINE
  5
AE
330
17
100
AcDbEntity
  8
power33speed3
100
AcDbLine
 10
23.831
 20
20.0191
 30
0.0
 11
23.831
 21
19.649
 31
0.0
  0
LINE
  5
AF
330
17
100
AcDbEntity
  8
power33speed3
100
AcDbLine
 10
23.831
 20
19.649
 30
0.0
 11
23.6031
 21
19.649
 31
0.0
  0
LINE
  5
B0
330
17
100
AcDbEntity
  8
power33speed3
100
AcDbLine
 10
23.6031
 20
19.649
 30
0.0
 11
23.5531
 21
19.6991
 31
0.0
  0
LINE
  5
B1
330
17
100
AcDbEntity
  8
power33speed3
100
AcDbLine
 10
23.5531
 20
19.6991
 30
0.0
 11
23.5531
 21
20.4991
 31
0.0
  0
LINE
  5
B2
330
17
100
AcDbEntity
  8
power33speed3
100
AcDbLine
 10
23.5531
 20
20.4991
 30
0.0
 11
23.6031
 21
20.549
 31
0.0
  0
LINE
  5
B3
330
17
100
AcDbEntity
  8
power33speed3
100
AcDbLine
 10
23.6031
 20
20.549
 30
0.0
 11
24.4031
 21
20.549
 31
0.0
  0
LINE
  5
B4
330
17
100
AcDbEntity
  8
power33speed3
100
AcDbLine
 10
24.4031
 20
20.549
 30
0.0
 11
24.4531
 21
20.4991
 31
0.0
  0
LINE
  5
B5
330
17
100
AcDbEntity
  8
power33speed3
100
AcDbLine
 10
24.4531
 20
20.4991
 30
0.0
 11
24.4531
 21
19.6991
 31
0.0
  0
LINE
  5
B6
330
17
100
AcDbEntity
  8
power33speed3
100
AcDbLine
 10
24.4531
 20
19.6991
 30
0.0
 11
24.4031
 21
19.649
 31
0.0
  0
LINE
  5
B7
330
17
100
AcDbEntity
  8
power33speed3
100
AcDbLine
 10
24.4031
 20
19.649
 30
0.0
 11
24.161
 21
19.649
 31
0.0
  0
LINE
  5
B8
330
17
100
AcDbEntity
  8
power33speed3
100
AcDbLine
 10
24.161
 20
19.649
 30
0.0
 11
24.161
 21
20.0191
 31
0.0
  0
LINE
  5
B9
330
17
100
AcDbEntity
  8
power33speed3
100
AcDbLine
 10
24.4351
 20
19.6541
 30
0.0
 11
23.571
 21
19.6541
 31
0.0
  0
LINE
  5
BA
330
17
100
AcDbEntity
  8
power33speed3
100
AcDbLine
 10
23.571
 20
19.6541
 30
0.0
 11
23.571
 21
20.4605
 31
0.0
  0
LINE
  5
BB
330
17
100
AcDbEntity
  8
power33speed3
100
AcDbLine
 10
23.571
 20
20.4605
 30
0.0
 11
24.4351
 21
20.4605
 31
0.0
  0
LINE
  5
BC
330
17
100
AcDbEntity
  8
power33speed3
100
AcDbLine
 10
24.4351
 20
20.4605
 30
0.0
 11
24.4351
 21
19.6541
 31
0.0
  0
LINE
  5
BD
330
17
100
AcDbEntity
  8
power33speed3
100
AcDbLine
 10
24.4623
 20
19.6303
 30
0.0
 11
23.5438
 21
19.6303
 31
0.0
  0
LINE
  5
BE
330
17
100
AcDbEntity
  8
power33speed3
100
AcDbLine
 10
23.5438
 20
19.6303
 30
0.0
 11
23.5438
 21
20.4842
 31
0.0
  0
LINE
  5
BF
330
17
100
AcDbEntity
  8
power33speed3
100
AcDbLine
 10
23.5438
 20
20.4842
 30
0.0
 11
24.4623
 21
20.4842
 31
0.0
  0
LINE
  5
C0
330
17
100
AcDbEntity
  8
power33speed3
100
AcDbLine
 10
24.4623
 20
20.4842
 30
0.0
 11
24.4623
 21
19.6303
 31
0.0
  0
LINE
  5
C1
330
17
100
AcDbEntity
  8
power33speed3
100
AcDbLine
 10
24.6637
 20
19.7303
 30
0.0
 11
24.6637
 21
20.6891
 31
0.0
  0
LINE
  5
C2
330
17
100
AcDbEntity
  8
power33speed3
100
AcDbLine
 10
24.6637
 20
20.6891
 30
0.0
 11
23.3424
 21
20.6891
 31
0.0
  0
LINE
  5
C3
330
17
100
AcDbEntity
  8
power33speed3
100
AcDbLine
 10
23.3424
 20
20.6891
 30
0.0
 11
23.3424
 21
19.7303
 31
0.0
  0
LINE
  5
C4
330
17
100
AcDbEntity
  8
power33speed3
100
AcDbLine
 10
23.5438
 20
18.9777
 30
0.0
 11
24.4623
 21
18.9777
 31
0.0
  0
LINE
  5
C5
330
17
100
AcDbEntity
  8
power33speed3
100
AcDbLine
 10
24.4623
 20
18.9777
 30
0.0
 11
24.4623
 21
18.1238
 31
0.0
  0
LINE
  5
C6
330
17
100
AcDbEntity
  8
power33speed3
100
AcDbLine
 10
24.4623
 20
18.1238
 30
0.0
 11
23.5438
 21
18.1238
 31
0.0
  0
LINE
  5
C7
330
17
100
AcDbEntity
  8
power33speed3
100
AcDbLine
 10
23.5438
 20
18.1238
 30
0.0
 11
23.5438
 21
18.9777
 31
0.0
  0
LINE
  5
C8
330
17
100
AcDbEntity
  8
power33speed3
100
AcDbLine
 10
23.571
 20
18.954
 30
0.0
 11
24.4351
 21
18.954
 31
0.0
  0
LINE
  5
C9
330
17
100
AcDbEntity
  8
power33speed3
100
AcDbLine
 10
24.4351
 20
18.954
 30
0.0
 11
24.4351
 21
18.1475
 31
0.0
  0
LINE
  5
CA
330
17
100
AcDbEntity
  8
power33speed3
100
AcDbLine
 10
24.4351
 20
18.1475
 30
0.0
 11
23.571
 21
18.1475
 31
0.0
  0
LINE
  5
CB
330
17
100
AcDbEntity
  8
power33speed3
100
AcDbLine
 10
23.571
 20
18.1475
 30
0.0
 11
23.571
 21
18.954
 31
0.0
  0
LINE
  5
CC
330
17
100
AcDbEntity
  8
power33speed3
100
AcDbLine
 10
23.603
 20
18.959
 30
0.0
 11
23.8451
 21
18.959
 31
0.0
  0
LINE
  5
CD
330
17
100
AcDbEntity
  8
power33speed3
100
AcDbLine
 10
23.8451
 20
18.959
 30
0.0
 11
23.8451
 21
18.589
 31
0.0
  0
LINE
  5
CE
330
17
100
AcDbEntity
  8
power33speed3
100
AcDbLine
 10
23.8451
 20
18.589
 30
0.0
 11
24.1751
 21
18.589
 31
0.0
  0
LINE
  5
CF
330
17
100
AcDbEntity
  8
power33speed3
100
AcDbLine
 10
24.1751
 20
18.589
 30
0.0
 11
24.1751
 21
18.959
 31
0.0
  0
LINE
  5
D0
330
17
100
AcDbEntity
  8
power33speed3
100
AcDbLine
 10
24.1751
 20
18.959
 30
0.0
 11
24.403
 21
18.959
 31
0.0
  0
LINE
  5
D1
330
17
100
AcDbEntity
  8
power33speed3
100
AcDbLine
 10
24.403
 20
18.959
 30
0.0
 11
24.453
 21
18.909
 31
0.0
  0
LINE
  5
D2
330
17
100
AcDbEntity
  8
power33speed3
100
AcDbLine
 10
24.453
 20
18.909
 30
0.0
 11
24.453
 21
18.109
 31
0.0
  0
LINE
  5
D3
330
17
100
AcDbEntity
  8
power33speed3
100
AcDbLine
 10
24.453
 20
18.109
 30
0.0
 11
24.403
 21
18.059
 31
0.0
  0
LINE
  5
D4
330
17
100
AcDbEntity
  8
power33speed3
100
AcDbLine
 10
24.403
 20
18.059
 30
0.0
 11
23.603
 21
18.059
 31
0.0
  0
LINE
  5
D5
330
17
100
AcDbEntity
  8
power33speed3
100
AcDbLine
 10
23.603
 20
18.059
 30
0.0
 11
23.553
 21
18.109
 31
0.0
  0
LINE
  5
D6
330
17
100
AcDbEntity
  8
power33speed3
100
AcDbLine
 10
23.553
 20
18.109
 30
0.0
 11
23.553
 21
18.909
 31
0.0
  0
LINE
  5
D7
330
17
100
AcDbEntity
  8
power33speed3
100
AcDbLine
 10
23.553
 20
18.909
 30
0.0
 11
23.603
 21
18.959
 31
0.0
  0
LINE
  5
D8
330
17
100
AcDbEntity
  8
power33speed3
100
AcDbLine
 10
23.3424
 20
18.8778
 30
0.0
 11
23.3424
 21
17.9189
 31
0.0
  0
LINE
  5
D9
330
17
100
AcDbEntity
  8
power33speed3
100
AcDbLine
 10
23.3424
 20
17.9189
 30
0.0
 11
24.6637
 21
17.9189
 31
0.0
  0
LINE
  5
DA
330
17
100
AcDbEntity
  8
power33speed3
100
AcDbLine
 10
24.6637
 20
17.9189
 30
0.0
 11
24.6637
 21
18.8778
 31
0.0
  0
LINE
  5
DB
330
17
100
AcDbEntity
  8
power33speed3
100
AcDbLine
 10
24.003
 20
18.5506
 30
0.0
 11
16.8996
 21
18.5506
 31
0.0
  0
LINE
  5
DC
330
17
100
AcDbEntity
  8
power33speed3
100
AcDbLine
 10
16.8996
 20
18.5506
 30
0.0
 11
9.7704
 21
11.4214
 31
0.0
  0
LINE
  5
DD
330
17
100
AcDbEntity
  8
power33speed3
100
AcDbLine
 10
9.7704
 20
11.4214
 30
0.0
 11
9.7704
 21
3.937
 31
0.0
  0
LINE
  5
DE
330
17
100
AcDbEntity
  8
power33speed3
100
AcDbLine
 10
9.732
 20
3.779
 30
0.0
 11
9.732
 21
4.109
 31
0.0
  0
LINE
  5
DF
330
17
100
AcDbEntity
  8
power33speed3
100
AcDbLine
 10
9.732
 20
4.109
 30
0.0
 11
9.362
 21
4.109
 31
0.0
  0
LINE
  5
E0
330
17
100
AcDbEntity
  8
power33speed3
100
AcDbLine
 10
9.362
 20
4.109
 30
0.0
 11
9.362
 21
4.337
 31
0.0
  0
LINE
  5
E1
330
17
100
AcDbEntity
  8
power33speed3
100
AcDbLine
 10
9.362
 20
4.337
 30
0.0
 11
9.412
 21
4.387
 31
0.0
  0
LINE
  5
E2
330
17
100
AcDbEntity
  8
power33speed3
100
AcDbLine
 10
9.412
 20
4.387
 30
0.0
 11
10.212
 21
4.387
 31
0.0
  0
LINE
  5
E3
330
17
100
AcDbEntity
  8
power33speed3
100
AcDbLine
 10
10.212
 20
4.387
 30
0.0
 11
10.262
 21
4.337
 31
0.0
  0
LINE
  5
E4
330
17
100
AcDbEntity
  8
power33speed3
100
AcDbLine
 10
10.262
 20
4.337
 30
0.0
 11
10.262
 21
3.537
 31
0.0
  0
LINE
  5
E5
330
17
100
AcDbEntity
  8
power33speed3
100
AcDbLine
 10
10.262
 20
3.537
 30
0.0
 11
10.212
 21
3.487
 31
0.0
  0
LINE
  5
E6
330
17
100
AcDbEntity
  8
power33speed3
100
AcDbLine
 10
10.212
 20
3.487
 30
0.0
 11
9.412
 21
3.487
 31
0.0
  0
LINE
  5
E7
330
17
100
AcDbEntity
  8
power33speed3
100
AcDbLine
 10
9.412
 20
3.487
 30
0.0
 11
9.362
 21
3.537
 31
0.0
  0
LINE
  5
E8
330
17
100
AcDbEntity
  8
power33speed3
100
AcDbLine
 10
9.362
 20
3.537
 30
0.0
 11
9.362
 21
3.779
 31
0.0
  0
LINE
  5
E9
330
17
100
AcDbEntity
  8
power33speed3
100
AcDbLine
 10
9.362
 20
3.779
 30
0.0
 11
9.732
 21
3.779
 31
0.0
  0
LINE
  5
EA
330
17
100
AcDbEntity
  8
power33speed3
100
AcDbLine
 10
9.367
 20
3.505
 30
0.0
 11
9.367
 21
4.369
 31
0.0
  0
LINE
  5
EB
330
17
100
AcDbEntity
  8
power33speed3
100
AcDbLine
 10
9.367
 20
4.369
 30
0.0
 11
10.1735
 21
4.369
 31
0.0
  0
LINE
  5
EC
330
17
100
AcDbEntity
  8
power33speed3
100
AcDbLine
 10
10.1735
 20
4.369
 30
0.0
 11
10.1735
 21
3.505
 31
0.0
  0
LINE
  5
ED
330
17
100
AcDbEntity
  8
power33speed3
100
AcDbLine
 10
10.1735
 20
3.505
 30
0.0
 11
9.367
 21
3.505
 31
0.0
  0
LINE
  5
EE
330
17
100
AcDbEntity
  8
power33speed3
100
AcDbLine
 10
9.3416
 20
3.4796
 30
0.0
 11
9.3416
 21
4.3944
 31
0.0
  0
LINE
  5
EF
330
17
100
AcDbEntity
  8
power33speed3
100
AcDbLine
 10
9.3416
 20
4.3944
 30
0.0
 11
10.1989
 21
4.3944
 31
0.0
  0
LINE
  5
F0
330
17
100
AcDbEntity
  8
power33speed3
100
AcDbLine
 10
10.1989
 20
4.3944
 30
0.0
 11
10.1989
 21
3.4796
 31
0.0
  0
LINE
  5
F1
330
17
100
AcDbEntity
  8
power33speed3
100
AcDbLine
 10
10.1989
 20
3.4796
 30
0.0
 11
9.3416
 21
3.4796
 31
0.0
  0
LINE
  5
F2
330
17
100
AcDbEntity
  8
power33speed3
100
AcDbLine
 10
9.4432
 20
3.2764
 30
0.0
 11
10.4021
 21
3.2764
 31
0.0
  0
LINE
  5
F3
330
17
100
AcDbEntity
  8
power33speed3
100
AcDbLine
 10
10.4021
 20
3.2764
 30
0.0
 11
10.4021
 21
4.5976
 31
0.0
  0
LINE
  5
F4
330
17
100
AcDbEntity
  8
power33speed3
100
AcDbLine
 10
10.4021
 20
4.5976
 30
0.0
 11
9.4432
 21
4.5976
 31
0.0
  0
LINE
  5
F5
330
17
100
AcDbEntity
  8
power33speed3
100
AcDbLine
 10
8.5908
 20
4.5976
 30
0.0
 11
7.6319
 21
4.5976
 31
0.0
  0
LINE
  5
F7
330
17
100
AcDbEntity
  8
power44speed4
100
AcDbLine
 10
11.4419
 20
4.5976
 30
0.0
 11
11.4419
 21
3.2764
 31
0.0
  0
LINE
  5
F8
330
17
100
AcDbEntity
  8
power44speed4
100
AcDbLine
 10
11.4419
 20
3.2764
 30
0.0
 11
12.4008
 21
3.2764
 31
0.0
  0
LINE
  5
F9
330
17
100
AcDbEntity
  8
power44speed4
100
AcDbLine
 10
12.432
 20
3.487
 30
0.0
 11
11.632
 21
3.487
 31
0.0
  0
LINE
  5
FA
330
17
100
AcDbEntity
  8
power44speed4
100
AcDbLine
 10
11.632
 20
3.487
 30
0.0
 11
11.582
 21
3.537
 31
0.0
  0
LINE
  5
FB
330
17
100
AcDbEntity
  8
power44speed4
100
AcDbLine
 10
11.582
 20
3.537
 30
0.0
 11
11.582
 21
4.337
 31
0.0
  0
LINE
  5
FC
330
17
100
AcDbEntity
  8
power44speed4
100
AcDbLine
 10
11.582
 20
4.337
 30
0.0
 11
11.632
 21
4.387
 31
0.0
  0
LINE
  5
FD
330
17
100
AcDbEntity
  8
power44speed4
100
AcDbLine
 10
11.632
 20
4.387
 30
0.0
 11
12.432
 21
4.387
 31
0.0
  0
LINE
  5
FE
330
17
100
AcDbEntity
  8
power44speed4
100
AcDbLine
 10
12.432
 20
4.387
 30
0.0
 11
12.482
 21
4.337
 31
0.0
  0
LINE
  5
FF
330
17
100
AcDbEntity
  8
power44speed4
100
AcDbLine
 10
12.482
 20
4.337
 30
0.0
 11
12.482
 21
4.095
 31
0.0
  0
LINE
  5
100
330
17
100
AcDbEntity
  8
power44speed4
100
AcDbLine
 10
12.482
 20
4.095
 30
0.0
 11
12.112
 21
4.095
 31
0.0
  0
LINE
  5
101
330
17
100
AcDbEntity
  8
power44speed4
100
AcDbLine
 10
12.112
 20
4.095
 30
0.0
 11
12.112
 21
3.765
 31
0.0
  0
LINE
  5
102
330
17
100
AcDbEntity
  8
power44speed4
100
AcDbLine
 10
12.112
 20
3.765
 30
0.0
 11
12.482
 21
3.765
 31
0.0
  0
LINE
  5
103
330
17
100
AcDbEntity
  8
power44speed4
100
AcDbLine
 10
12.482
 20
3.765
 30
0.0
 11
12.482
 21
3.537
 31
0.0
  0
LINE
  5
104
330
17
100
AcDbEntity
  8
power44speed4
100
AcDbLine
 10
12.482
 20
3.537
 30
0.0
 11
12.432
 21
3.487
 31
0.0
  0
LINE
  5
105
330
17
100
AcDbEntity
  8
power44speed4
100
AcDbLine
 10
12.477
 20
3.505
 30
0.0
 11
12.477
 21
4.369
 31
0.0
  0
LINE
  5
106
330
17
100
AcDbEntity
  8
power44speed4
100
AcDbLine
 10
12.477
 20
4.369
 30
0.0
 11
11.6705
 21
4.369
 31
0.0
  0
LINE
  5
107
330
17
100
AcDbEntity
  8
power44speed4
100
AcDbLine
 10
11.6705
 20
4.369
 30
0.0
 11
11.6705
 21
3.505
 31
0.0
  0
LINE
  5
108
330
17
100
AcDbEntity
  8
power44speed4
100
AcDbLine
 10
11.6705
 20
3.505
 30
0.0
 11
12.477
 21
3.505
 31
0.0
  0
LINE
  5
109
330
17
100
AcDbEntity
  8
power44speed4
100
AcDbLine
 10
12.5024
 20
3.4796
 30
0.0
 11
12.5024
 21
4.3944
 31
0.0
  0
LINE
  5
10A
330
17
100
AcDbEntity
  8
power44speed4
100
AcDbLine
 10
12.5024
 20
4.3944
 30
0.0
 11
11.6451
 21
4.3944
 31
0.0
  0
LINE
  5
10B
330
17
100
AcDbEntity
  8
power44speed4
100
AcDbLine
 10
11.6451
 20
4.3944
 30
0.0
 11
11.6451
 21
3.4796
 31
0.0
  0
LINE
  5
10C
330
17
100
AcDbEntity
  8
power44speed4
100
AcDbLine
 10
11.6451
 20
3.4796
 30
0.0
 11
12.5024
 21
3.4796
 31
0.0
  0
LINE
  5
10D
330
17
100
AcDbEntity
  8
power44speed4
100
AcDbLine
 10
12.0736
 20
3.937
 30
0.0
 11
12.0736
 21
10.1686
 31
0.0
  0
LINE
  5
10E
330
17
100
AcDbEntity
  8
power44speed4
100
AcDbLine
 10
12.0736
 20
10.1686
 30
0.0
 11
18.1525
 21
16.2474
 31
0.0
  0
LINE
  5
10F
330
17
100
AcDbEntity
  8
power44speed4
100
AcDbLine
 10
18.1525
 20
16.2474
 30
0.0
 11
24.003
 21
16.2474
 31
0.0
  0
LINE
  5
110
330
17
100
AcDbEntity
  8
power44speed4
100
AcDbLine
 10
24.161
 20
16.209
 30
0.0
 11
23.831
 21
16.209
 31
0.0
  0
LINE
  5
111
330
17
100
AcDbEntity
  8
power44speed4
100
AcDbLine
 10
23.831
 20
16.209
 30
0.0
 11
23.831
 21
15.839
 31
0.0
  0
LINE
  5
112
330
17
100
AcDbEntity
  8
power44speed4
100
AcDbLine
 10
23.831
 20
15.839
 30
0.0
 11
23.6031
 21
15.839
 31
0.0
  0
LINE
  5
113
330
17
100
AcDbEntity
  8
power44speed4
100
AcDbLine
 10
23.6031
 20
15.839
 30
0.0
 11
23.5531
 21
15.8891
 31
0.0
  0
LINE
  5
114
330
17
100
AcDbEntity
  8
power44speed4
100
AcDbLine
 10
23.5531
 20
15.8891
 30
0.0
 11
23.5531
 21
16.6891
 31
0.0
  0
LINE
  5
115
330
17
100
AcDbEntity
  8
power44speed4
100
AcDbLine
 10
23.5531
 20
16.6891
 30
0.0
 11
23.6031
 21
16.739
 31
0.0
  0
LINE
  5
116
330
17
100
AcDbEntity
  8
power44speed4
100
AcDbLine
 10
23.6031
 20
16.739
 30
0.0
 11
24.4031
 21
16.739
 31
0.0
  0
LINE
  5
117
330
17
100
AcDbEntity
  8
power44speed4
100
AcDbLine
 10
24.4031
 20
16.739
 30
0.0
 11
24.4531
 21
16.6891
 31
0.0
  0
LINE
  5
118
330
17
100
AcDbEntity
  8
power44speed4
100
AcDbLine
 10
24.4531
 20
16.6891
 30
0.0
 11
24.4531
 21
15.8891
 31
0.0
  0
LINE
  5
119
330
17
100
AcDbEntity
  8
power44speed4
100
AcDbLine
 10
24.4531
 20
15.8891
 30
0.0
 11
24.4031
 21
15.839
 31
0.0
  0
LINE
  5
11A
330
17
100
AcDbEntity
  8
power44speed4
100
AcDbLine
 10
24.4031
 20
15.839
 30
0.0
 11
24.161
 21
15.839
 31
0.0
  0
LINE
  5
11B
330
17
100
AcDbEntity
  8
power44speed4
100
AcDbLine
 10
24.161
 20
15.839
 30
0.0
 11
24.161
 21
16.209
 31
0.0
  0
LINE
  5
11C
330
17
100
AcDbEntity
  8
power44speed4
100
AcDbLine
 10
24.4351
 20
15.844
 30
0.0
 11
23.571
 21
15.844
 31
0.0
  0
LINE
  5
11D
330
17
100
AcDbEntity
  8
power44speed4
100
AcDbLine
 10
23.571
 20
15.844
 30
0.0
 11
23.571
 21
16.6505
 31
0.0
  0
LINE
  5
11E
330
17
100
AcDbEntity
  8
power44speed4
100
AcDbLine
 10
23.571
 20
16.6505
 30
0.0
 11
24.4351
 21
16.6505
 31
0.0
  0
LINE
  5
11F
330
17
100
AcDbEntity
  8
power44speed4
100
AcDbLine
 10
24.4351
 20
16.6505
 30
0.0
 11
24.4351
 21
15.844
 31
0.0
  0
LINE
  5
120
330
17
100
AcDbEntity
  8
power44speed4
100
AcDbLine
 10
24.4623
 20
15.8203
 30
0.0
 11
23.5438
 21
15.8203
 31
0.0
  0
LINE
  5
121
330
17
100
AcDbEntity
  8
power44speed4
100
AcDbLine
 10
23.5438
 20
15.8203
 30
0.0
 11
23.5438
 21
16.6742
 31
0.0
  0
LINE
  5
122
330
17
100
AcDbEntity
  8
power44speed4
100
AcDbLine
 10
23.5438
 20
16.6742
 30
0.0
 11
24.4623
 21
16.6742
 31
0.0
  0
LINE
  5
123
330
17
100
AcDbEntity
  8
power44speed4
100
AcDbLine
 10
24.4623
 20
16.6742
 30
0.0
 11
24.4623
 21
15.8203
 31
0.0
  0
LINE
  5
124
330
17
100
AcDbEntity
  8
power44speed4
100
AcDbLine
 10
24.6637
 20
15.9202
 30
0.0
 11
24.6637
 21
16.8791
 31
0.0
  0
LINE
  5
125
330
17
100
AcDbEntity
  8
power44speed4
100
AcDbLine
 10
24.6637
 20
16.8791
 30
0.0
 11
23.3424
 21
16.8791
 31
0.0
  0
LINE
  5
126
330
17
100
AcDbEntity
  8
power44speed4
100
AcDbLine
 10
23.3424
 20
16.8791
 30
0.0
 11
23.3424
 21
15.9202
 31
0.0
  0
LINE
  5
127
330
17
100
AcDbEntity
  8
power44speed4
100
AcDbLine
 10
23.5438
 20
15.1677
 30
0.0
 11
24.4623
 21
15.1677
 31
0.0
  0
LINE
  5
128
330
17
100
AcDbEntity
  8
power44speed4
100
AcDbLine
 10
24.4623
 20
15.1677
 30
0.0
 11
24.4623
 21
14.3138
 31
0.0
  0
LINE
  5
129
330
17
100
AcDbEntity
  8
power44speed4
100
AcDbLine
 10
24.4623
 20
14.3138
 30
0.0
 11
23.5438
 21
14.3138
 31
0.0
  0
LINE
  5
12A
330
17
100
AcDbEntity
  8
power44speed4
100
AcDbLine
 10
23.5438
 20
14.3138
 30
0.0
 11
23.5438
 21
15.1677
 31
0.0
  0
LINE
  5
12B
330
17
100
AcDbEntity
  8
power44speed4
100
AcDbLine
 10
23.571
 20
15.144
 30
0.0
 11
24.4351
 21
15.144
 31
0.0
  0
LINE
  5
12C
330
17
100
AcDbEntity
  8
power44speed4
100
AcDbLine
 10
24.4351
 20
15.144
 30
0.0
 11
24.4351
 21
14.3375
 31
0.0
  0
LINE
  5
12D
330
17
100
AcDbEntity
  8
power44speed4
100
AcDbLine
 10
24.4351
 20
14.3375
 30
0.0
 11
23.571
 21
14.3375
 31
0.0
  0
LINE
  5
12E
330
17
100
AcDbEntity
  8
power44speed4
100
AcDbLine
 10
23.571
 20
14.3375
 30
0.0
 11
23.571
 21
15.144
 31
0.0
  0
LINE
  5
12F
330
17
100
AcDbEntity
  8
power44speed4
100
AcDbLine
 10
23.603
 20
15.149
 30
0.0
 11
23.8451
 21
15.149
 31
0.0
  0
LINE
  5
130
330
17
100
AcDbEntity
  8
power44speed4
100
AcDbLine
 10
23.8451
 20
15.149
 30
0.0
 11
23.8451
 21
14.779
 31
0.0
  0
LINE
  5
131
330
17
100
AcDbEntity
  8
power44speed4
100
AcDbLine
 10
23.8451
 20
14.779
 30
0.0
 11
24.1751
 21
14.779
 31
0.0
  0
LINE
  5
132
330
17
100
AcDbEntity
  8
power44speed4
100
AcDbLine
 10
24.1751
 20
14.779
 30
0.0
 11
24.1751
 21
15.149
 31
0.0
  0
LINE
  5
133
330
17
100
AcDbEntity
  8
power44speed4
100
AcDbLine
 10
24.1751
 20
15.149
 30
0.0
 11
24.403
 21
15.149
 31
0.0
  0
LINE
  5
134
330
17
100
AcDbEntity
  8
power44speed4
100
AcDbLine
 10
24.403
 20
15.149
 30
0.0
 11
24.453
 21
15.099
 31
0.0
  0
LINE
  5
135
330
17
100
AcDbEntity
  8
power44speed4
100
AcDbLine
 10
24.453
 20
15.099
 30
0.0
 11
24.453
 21
14.299
 31
0.0
  0
LINE
  5
136
330
17
100
AcDbEntity
  8
power44speed4
100
AcDbLine
 10
24.453
 20
14.299
 30
0.0
 11
24.403
 21
14.249
 31
0.0
  0
LINE
  5
137
330
17
100
AcDbEntity
  8
power44speed4
100
AcDbLine
 10
24.403
 20
14.249
 30
0.0
 11
23.603
 21
14.249
 31
0.0
  0
LINE
  5
138
330
17
100
AcDbEntity
  8
power44speed4
100
AcDbLine
 10
23.603
 20
14.249
 30
0.0
 11
23.553
 21
14.299
 31
0.0
  0
LINE
  5
139
330
17
100
AcDbEntity
  8
power44speed4
100
AcDbLine
 10
23.553
 20
14.299
 30
0.0
 11
23.553
 21
15.099
 31
0.0
  0
LINE
  5
13A
330
17
100
AcDbEntity
  8
power44speed4
100
AcDbLine
 10
23.553
 20
15.099
 30
0.0
 11
23.603
 21
15.149
 31
0.0
  0
LINE
  5
13B
330
17
100
AcDbEntity
  8
power44speed4
100
AcDbLine
 10
23.3424
 20
15.0678
 30
0.0
 11
23.3424
 21
14.1089
 31
0.0
  0
LINE
  5
13C
330
17
100
AcDbEntity
  8
power44speed4
100
AcDbLine
 10
23.3424
 20
14.1089
 30
0.0
 11
24.6637
 21
14.1089
 31
0.0
  0
LINE
  5
13D
330
17
100
AcDbEntity
  8
power44speed4
100
AcDbLine
 10
24.6637
 20
14.1089
 30
0.0
 11
24.6637
 21
15.0678
 31
0.0
  0
LINE
  5
13E
330
17
100
AcDbEntity
  8
power44speed4
100
AcDbLine
 10
24.003
 20
14.7406
 30
0.0
 11
19.3126
 21
14.7406
 31
0.0
  0
LINE
  5
13F
330
17
100
AcDbEntity
  8
power44speed4
100
AcDbLine
 10
19.3126
 20
14.7406
 30
0.0
 11
13.5804
 21
9.0084
 31
0.0
  0
LINE
  5
140
330
17
100
AcDbEntity
  8
power44speed4
100
AcDbLine
 10
13.5804
 20
9.0084
 30
0.0
 11
13.5804
 21
3.937
 31
0.0
  0
LINE
  5
141
330
17
100
AcDbEntity
  8
power44speed4
100
AcDbLine
 10
13.542
 20
3.779
 30
0.0
 11
13.542
 21
4.109
 31
0.0
  0
LINE
  5
142
330
17
100
AcDbEntity
  8
power44speed4
100
AcDbLine
 10
13.542
 20
4.109
 30
0.0
 11
13.172
 21
4.109
 31
0.0
  0
LINE
  5
143
330
17
100
AcDbEntity
  8
power44speed4
100
AcDbLine
 10
13.172
 20
4.109
 30
0.0
 11
13.172
 21
4.337
 31
0.0
  0
LINE
  5
144
330
17
100
AcDbEntity
  8
power44speed4
100
AcDbLine
 10
13.172
 20
4.337
 30
0.0
 11
13.222
 21
4.387
 31
0.0
  0
LINE
  5
145
330
17
100
AcDbEntity
  8
power44speed4
100
AcDbLine
 10
13.222
 20
4.387
 30
0.0
 11
14.022
 21
4.387
 31
0.0
  0
LINE
  5
146
330
17
100
AcDbEntity
  8
power44speed4
100
AcDbLine
 10
14.022
 20
4.387
 30
0.0
 11
14.072
 21
4.337
 31
0.0
  0
LINE
  5
147
330
17
100
AcDbEntity
  8
power44speed4
100
AcDbLine
 10
14.072
 20
4.337
 30
0.0
 11
14.072
 21
3.537
 31
0.0
  0
LINE
  5
148
330
17
100
AcDbEntity
  8
power44speed4
100
AcDbLine
 10
14.072
 20
3.537
 30
0.0
 11
14.022
 21
3.487
 31
0.0
  0
LINE
  5
149
330
17
100
AcDbEntity
  8
power44speed4
100
AcDbLine
 10
14.022
 20
3.487
 30
0.0
 11
13.222
 21
3.487
 31
0.0
  0
LINE
  5
14A
330
17
100
AcDbEntity
  8
power44speed4
100
AcDbLine
 10
13.222
 20
3.487
 30
0.0
 11
13.172
 21
3.537
 31
0.0
  0
LINE
  5
14B
330
17
100
AcDbEntity
  8
power44speed4
100
AcDbLine
 10
13.172
 20
3.537
 30
0.0
 11
13.172
 21
3.779
 31
0.0
  0
LINE
  5
14C
330
17
100
AcDbEntity
  8
power44speed4
100
AcDbLine
 10
13.172
 20
3.779
 30
0.0
 11
13.542
 21
3.779
 31
0.0
  0
LINE
  5
14D
330
17
100
AcDbEntity
  8
power44speed4
100
AcDbLine
 10
13.177
 20
3.505
 30
0.0
 11
13.177
 21
4.369
 31
0.0
  0
LINE
  5
14E
330
17
100
AcDbEntity
  8
power44speed4
100
AcDbLine
 10
13.177
 20
4.369
 30
0.0
 11
13.9835
 21
4.369
 31
0.0
  0
LINE
  5
14F
330
17
100
AcDbEntity
  8
power44speed4
100
AcDbLine
 10
13.9835
 20
4.369
 30
0.0
 11
13.9835
 21
3.505
 31
0.0
  0
LINE
  5
150
330
17
100
AcDbEntity
  8
power44speed4
100
AcDbLine
 10
13.9835
 20
3.505
 30
0.0
 11
13.177
 21
3.505
 31
0.0
  0
LINE
  5
151
330
17
100
AcDbEntity
  8
power44speed4
100
AcDbLine
 10
13.1516
 20
3.4796
 30
0.0
 11
13.1516
 21
4.3944
 31
0.0
  0
LINE
  5
152
330
17
100
AcDbEntity
  8
power44speed4
100
AcDbLine
 10
13.1516
 20
4.3944
 30
0.0
 11
14.0089
 21
4.3944
 31
0.0
  0
LINE
  5
153
330
17
100
AcDbEntity
  8
power44speed4
100
AcDbLine
 10
14.0089
 20
4.3944
 30
0.0
 11
14.0089
 21
3.4796
 31
0.0
  0
LINE
  5
154
330
17
100
AcDbEntity
  8
power44speed4
100
AcDbLine
 10
14.0089
 20
3.4796
 30
0.0
 11
13.1516
 21
3.4796
 31
0.0
  0
LINE
  5
155
330
17
100
AcDbEntity
  8
power44speed4
100
AcDbLine
 10
13.2532
 20
3.2764
 30
0.0
 11
14.2121
 21
3.2764
 31
0.0
  0
LINE
  5
156
330
17
100
AcDbEntity
  8
power44speed4
100
AcDbLine
 10
14.2121
 20
3.2764
 30
0.0
 11
14.2121
 21
4.5976
 31
0.0
  0
LINE
  5
157
330
17
100
AcDbEntity
  8
power44speed4
100
AcDbLine
 10
14.2121
 20
4.5976
 30
0.0
 11
13.2532
 21
4.5976
 31
0.0
  0
LINE
  5
158
330
17
100
AcDbEntity
  8
power44speed4
100
AcDbLine
 10
12.4008
 20
4.5976
 30
0.0
 11
11.4419
 21
4.5976
 31
0.0
  0
LINE
  5
15A
330
17
100
AcDbEntity
  8
power55speed5
100
AcDbLine
 10
2.936
 20
2.794
 30
0.0
 11
31.3691
 21
2.794
 31
0.0
  0
LINE
  5
15B
330
17
100
AcDbEntity
  8
power55speed5
100
AcDbLine
 10
31.3691
 20
2.794
 30
0.0
 11
31.3691
 21
26.1039
 31
0.0
  0
LINE
  5
15C
330
17
100
AcDbEntity
  8
power55speed5
100
AcDbLine
 10
31.3691
 20
26.1039
 30
0.0
 11
2.936
 21
26.1039
 31
0.0
  0
LINE
  5
15D
330
17
100
AcDbEntity
  8
power55speed5
100
AcDbLine
 10
2.936
 20
26.1039
 30
0.0
 11
2.936
 21
2.794
 31
0.0
  0
ENDSEC
  0
SECTION
  2
OBJECTS
  0
DICTIONARY
  5
A
330
0
100
AcDbDictionary
281
1
  3
ACAD_COLOR
350
B
  3
ACAD_GROUP
350
C
  3
ACAD_LAYOUT
350
D
  3
ACAD_MATERIAL
350
E
  3
ACAD_MLEADERSTYLE
350
F
  3
ACAD_MLINESTYLE
350
10
  3
ACAD_PLOTSETTINGS
350
11
  3
ACAD_PLOTSTYLENAME
350
12
  3
ACAD_SCALELIST
350
14
  3
ACAD_TABLESTYLE
350
15
  3
ACAD_VISUALSTYLE
350
16
  3
EZDXF_META
350
2D
  0
DICTIONARY
  5
B
330
A
100
AcDbDictionary
281
1
  0
DICTIONARY
  5
C
330
A
100
AcDbDictionary
281
1
  0
DICTIONARY
  5
D
330
A
100
AcDbDictionary
281
1
  3
Model
350
1A
  3
Layout1
350
1E
  0
DICTIONARY
  5
E
330
A
100
AcDbDictionary
281
1
  3
ByBlock
350
1F
  3
ByLayer
350
20
  3
Global
350
21
  0
DICTIONARY
  5
F
330
A
100
AcDbDictionary
281
1
  3
Standard
350
2C
  0
DICTIONARY
  5
10
330
A
100
AcDbDictionary
281
1
  3
Standard
350
22
  0
DICTIONARY
  5
11
330
A
100
AcDbDictionary
281
1
  0
ACDBDICTIONARYWDFLT
  5
12
330
A
100
AcDbDictionary
281
1
  3
Normal
350
13
100
AcDbDictionaryWithDefault
340
13
  0
ACDBPLACEHOLDER
  5
13
330
12
  0
DICTIONARY
  5
14
330
A
100
AcDbDictionary
281
1
  0
DICTIONARY
  5
15
330
A
100
AcDbDictionary
281
1
  0
DICTIONARY
  5
16
330
A
100
AcDbDictionary
281
1
  0
LAYOUT
  5
1A
330
D
100
AcDbPlotSettings
  1

  4
A3
  6

 40
7.5
 41
20.0
 42
7.5
 43
20.0
 44
420.0
 45
297.0
 46
0.0
 47
0.0
 48
0.0
 49
0.0
140
0.0
141
0.0
142
1.0
143
1.0
 70
1024
 72
1
 73
0
 74
5
  7

 75
16
 76
0
 77
2
 78
300
147
1.0
148
0.0
149
0.0
100
AcDbLayout
  1
Model
 70
1
 71
0
 10
0.0
 20
0.0
 11
420.0
 21
297.0
 12
0.0
 22
0.0
 32
0.0
 14
1e+20
 24
1e+20
 34
1e+20
 15
-1e+20
 25
-1e+20
 35
-1e+20
146
0.0
 13
0.0
 23
0.0
 33
0.0
 16
1.0
 26
0.0
 36
0.0
 17
0.0
 27
1.0
 37
0.0
 76
1
330
17
  0
LAYOUT
  5
1E
330
D
100
AcDbPlotSettings
  1

  4
A3
  6

 40
7.5
 41
20.0
 42
7.5
 43
20.0
 44
420.0
 45
297.0
 46
0.0
 47
0.0
 48
0.0
 49
0.0
140
0.0
141
0.0
142
1.0
143
1.0
 70
0
 72
1
 73
0
 74
5
  7

 75
16
 76
0
 77
2
 78
300
147
1.0
148
0.0
149
0.0
100
AcDbLayout
  1
Layout1
 70
1
 71
1
 10
0.0
 20
0.0
 11
420.0
 21
297.0
 12
0.0
 22
0.0
 32
0.0
 14
1e+20
 24
1e+20
 34
1e+20
 15
-1e+20
 25
-1e+20
 35
-1e+20
146
0.0
 13
0.0
 23
0.0
 33
0.0
 16
1.0
 26
0.0
 36
0.0
 17
0.0
 27
1.0
 37
0.0
 76
1
330
1B
  0
MATERIAL
  5
1F
102
{ACAD_REACTORS
330
E
102
}
330
E
100
AcDbMaterial
  1
ByBlock
  2

 70
0
 40
1.0
 71
1
 41
1.0
 91
-1023410177
 42
1.0
 72
1
  3

 73
1
 74
1
 75
1
 44
0.5
 73
0
 45
1.0
 46
1.0
 77
1
  4

 78
1
 79
1
170
1
 48
1.0
171
1
  6

172
1
173
1
174
1
140
1.0
141
1.0
175
1
  7

176
1
177
1
178
1
143
1.0
179
1
  8

270
1
271
1
272
1
145
1.0
146
1.0
273
1
  9

274
1
275
1
276
1
 42
1.0
 72
1
  3

 73
1
 74
1
 75
1
 94
63
  0
MATERIAL
  5
20
102
{ACAD_REACTORS
330
E
102
}
330
E
100
AcDbMaterial
  1
ByLayer
  2

 70
0
 40
1.0
 71
1
 41
1.0
 91
-1023410177
 42
1.0
 72
1
  3

 73
1
 74
1
 75
1
 44
0.5
 73
0
 45
1.0
 46
1.0
 77
1
  4

 78
1
 79
1
170
1
 48
1.0
171
1
  6

172
1
173
1
174
1
140
1.0
141
1.0
175
1
  7

176
1
177
1
178
1
143
1.0
179
1
  8

270
1
271
1
272
1
145
1.0
146
1.0
273
1
  9

274
1
275
1
276
1
 42
1.0
 72
1
  3

 73
1
 74
1
 75
1
 94
63
  0
MATERIAL
  5
21
102
{ACAD_REACTORS
330
E
102
}
330
E
100
AcDbMaterial
  1
Global
  2

 70
0
 40
1.0
 71
1
 41
1.0
 91
-1023410177
 42
1.0
 72
1
  3

 73
1
 74
1
 75
1
 44
0.5
 73
0
 45
1.0
 46
1.0
 77
1
  4

 78
1
 79
1
170
1
 48
1.0
171
1
  6

172
1
173
1
174
1
140
1.0
141
1.0
175
1
  7

176
1
177
1
178
1
143
1.0
179
1
  8

270
1
271
1
272
1
145
1.0
146
1.0
273
1
  9

274
1
275
1
276
1
 42
1.0
 72
1
  3

 73
1
 74
1
 75
1
 94
63
  0
MLINESTYLE
  5
22
102
{ACAD_REACTORS
330
10
102
}
330
10
100
AcDbMlineStyle
  2
Standard
 70
0
  3

 62
256
 51
90.0
 52
90.0
 71
2
 49
0.5
 62
256
  6
BYLAYER
 49
-0.5
 62
256
  6
BYLAYER
  0
MLEADERSTYLE
  5
2C
102
{ACAD_REACTORS
330
F
102
}
330
F
100
AcDbMLeaderStyle
179
2
170
2
171
1
172
0
 90
2
 40
0.0
 41
0.0
173
1
 91
-1056964608
 92
-2
290
1
 42
2.0
291
1
 43
8.0
  3
Standard
 44
4.0
300

342
29
174
1
175
1
176
0
178
1
 93
-1056964608
 45
4.0
292
0
297
0
 46
4.0
 94
-1056964608
 47
1.0
 49
1.0
140
1.0
294
1
141
0.0
177
0
142
1.0
295
0
296
0
143
3.75
271
0
272
9
273
9
  0
DICTIONARY
  5
2D
330
A
100
AcDbDictionary
280
1
281
1
  3
CREATED_BY_EZDXF
350
2E
  3
WRITTEN_BY_EZDXF
350
160
  0
DICTIONARYVAR
  5
2E
330
2D
100
DictionaryVariables
280
0
  1
1.4.2 @ 2025-10-15T11:21:08.252800+00:00
  0
DICTIONARYVAR
  5
160
330
2D
100
DictionaryVariables
280
0
  1
1.4.2 @ 2025-10-15T11:21:08.285257+00:00
  0
ENDSEC
  0
EOF
