  0
SECTION
  2
HEADER
  9
$ACADVER
  1
AC1027
  9
$ACADMAINTVER
 70
105
  9
$DWGCODEPAGE
  3
ANSI_1252
  9
$LASTSAVEDBY
  1
ezdxf
  9
$REQUIREDVERSIONS
160
0
  9
$INSBASE
 10
0.0
 20
0.0
 30
0.0
  9
$EXTMIN
 10
1e+20
 20
1e+20
 30
1e+20
  9
$EXTMAX
 10
-1e+20
 20
-1e+20
 30
-1e+20
  9
$LIMMIN
 10
0.0
 20
0.0
  9
$LIMMAX
 10
420.0
 20
297.0
  9
$ORTHOMODE
 70
0
  9
$REGENMODE
 70
1
  9
$FILLMODE
 70
1
  9
$QTEXTMODE
 70
0
  9
$MIRRTEXT
 70
1
  9
$LTSCALE
 40
1.0
  9
$ATTMODE
 70
1
  9
$TEXTSIZE
 40
2.5
  9
$TRACEWID
 40
1.0
  9
$TEXTSTYLE
  7
Standard
  9
$CLAYER
  8
0
  9
$CELTYPE
  6
ByLayer
  9
$CECOLOR
 62
256
  9
$CELTSCALE
 40
1.0
  9
$DISPSILH
 70
0
  9
$DIMSCALE
 40
1.0
  9
$DIMASZ
 40
2.5
  9
$DIMEXO
 40
0.625
  9
$DIMDLI
 40
3.75
  9
$DIMRND
 40
0.0
  9
$DIMDLE
 40
0.0
  9
$DIMEXE
 40
1.25
  9
$DIMTP
 40
0.0
  9
$DIMTM
 40
0.0
  9
$DIMTXT
 40
2.5
  9
$DIMCEN
 40
2.5
  9
$DIMTSZ
 40
0.0
  9
$DIMTOL
 70
0
  9
$DIMLIM
 70
0
  9
$DIMTIH
 70
0
  9
$DIMTOH
 70
0
  9
$DIMSE1
 70
0
  9
$DIMSE2
 70
0
  9
$DIMTAD
 70
1
  9
$DIMZIN
 70
8
  9
$DIMBLK
  1

  9
$DIMASO
 70
1
  9
$DIMSHO
 70
1
  9
$DIMPOST
  1

  9
$DIMAPOST
  1

  9
$DIMALT
 70
0
  9
$DIMALTD
 70
3
  9
$DIMALTF
 40
0.03937007874
  9
$DIMLFAC
 40
1.0
  9
$DIMTOFL
 70
1
  9
$DIMTVP
 40
0.0
  9
$DIMTIX
 70
0
  9
$DIMSOXD
 70
0
  9
$DIMSAH
 70
0
  9
$DIMBLK1
  1

  9
$DIMBLK2
  1

  9
$DIMSTYLE
  2
ISO-25
  9
$DIMCLRD
 70
0
  9
$DIMCLRE
 70
0
  9
$DIMCLRT
 70
0
  9
$DIMTFAC
 40
1.0
  9
$DIMGAP
 40
0.625
  9
$DIMJUST
 70
0
  9
$DIMSD1
 70
0
  9
$DIMSD2
 70
0
  9
$DIMTOLJ
 70
0
  9
$DIMTZIN
 70
8
  9
$DIMALTZ
 70
0
  9
$DIMALTTZ
 70
0
  9
$DIMUPT
 70
0
  9
$DIMDEC
 70
2
  9
$DIMTDEC
 70
2
  9
$DIMALTU
 70
2
  9
$DIMALTTD
 70
3
  9
$DIMTXSTY
  7
Standard
  9
$DIMAUNIT
 70
0
  9
$DIMADEC
 70
0
  9
$DIMALTRND
 40
0.0
  9
$DIMAZIN
 70
0
  9
$DIMDSEP
 70
44
  9
$DIMATFIT
 70
3
  9
$DIMFRAC
 70
0
  9
$DIMLDRBLK
  1

  9
$DIMLUNIT
 70
2
  9
$DIMLWD
 70
-2
  9
$DIMLWE
 70
-2
  9
$DIMTMOVE
 70
0
  9
$DIMFXL
 40
1.0
  9
$DIMFXLON
 70
0
  9
$DIMJOGANG
 40
0.785398163397
  9
$DIMTFILL
 70
0
  9
$DIMTFILLCLR
 70
0
  9
$DIMARCSYM
 70
0
  9
$DIMLTYPE
  6

  9
$DIMLTEX1
  6

  9
$DIMLTEX2
  6

  9
$DIMTXTDIRECTION
 70
0
  9
$LUNITS
 70
2
  9
$LUPREC
 70
4
  9
$SKETCHINC
 40
1.0
  9
$FILLETRAD
 40
10.0
  9
$AUNITS
 70
0
  9
$AUPREC
 70
2
  9
$MENU
  1
.
  9
$ELEVATION
 40
0.0
  9
$PELEVATION
 40
0.0
  9
$THICKNESS
 40
0.0
  9
$LIMCHECK
 70
0
  9
$CHAMFERA
 40
0.0
  9
$CHAMFERB
 40
0.0
  9
$CHAMFERC
 40
0.0
  9
$CHAMFERD
 40
0.0
  9
$SKPOLY
 70
0
  9
$TDCREATE
 40
2460957.361701389
  9
$TDUCREATE
 40
2458532.153996898
  9
$TDUPDATE
 40
2460957.361701389
  9
$TDUUPDATE
 40
2458532.1544311
  9
$TDINDWG
 40
0.0
  9
$TDUSRTIMER
 40
0.0
  9
$USRTIMER
 70
1
  9
$ANGBASE
 50
0.0
  9
$ANGDIR
 70
0
  9
$PDMODE
 70
0
  9
$PDSIZE
 40
0.0
  9
$PLINEWID
 40
0.0
  9
$SPLFRAME
 70
0
  9
$SPLINETYPE
 70
6
  9
$SPLINESEGS
 70
8
  9
$HANDSEED
  5
178
  9
$SURFTAB1
 70
6
  9
$SURFTAB2
 70
6
  9
$SURFTYPE
 70
6
  9
$SURFU
 70
6
  9
$SURFV
 70
6
  9
$UCSBASE
  2

  9
$UCSNAME
  2

  9
$UCSORG
 10
0.0
 20
0.0
 30
0.0
  9
$UCSXDIR
 10
1.0
 20
0.0
 30
0.0
  9
$UCSYDIR
 10
0.0
 20
1.0
 30
0.0
  9
$UCSORTHOREF
  2

  9
$UCSORTHOVIEW
 70
0
  9
$UCSORGTOP
 10
0.0
 20
0.0
 30
0.0
  9
$UCSORGBOTTOM
 10
0.0
 20
0.0
 30
0.0
  9
$UCSORGLEFT
 10
0.0
 20
0.0
 30
0.0
  9
$UCSORGRIGHT
 10
0.0
 20
0.0
 30
0.0
  9
$UCSORGFRONT
 10
0.0
 20
0.0
 30
0.0
  9
$UCSORGBACK
 10
0.0
 20
0.0
 30
0.0
  9
$PUCSBASE
  2

  9
$PUCSNAME
  2

  9
$PUCSORG
 10
0.0
 20
0.0
 30
0.0
  9
$PUCSXDIR
 10
1.0
 20
0.0
 30
0.0
  9
$PUCSYDIR
 10
0.0
 20
1.0
 30
0.0
  9
$PUCSORTHOREF
  2

  9
$PUCSORTHOVIEW
 70
0
  9
$PUCSORGTOP
 10
0.0
 20
0.0
 30
0.0
  9
$PUCSORGBOTTOM
 10
0.0
 20
0.0
 30
0.0
  9
$PUCSORGLEFT
 10
0.0
 20
0.0
 30
0.0
  9
$PUCSORGRIGHT
 10
0.0
 20
0.0
 30
0.0
  9
$PUCSORGFRONT
 10
0.0
 20
0.0
 30
0.0
  9
$PUCSORGBACK
 10
0.0
 20
0.0
 30
0.0
  9
$USERI1
 70
0
  9
$USERI2
 70
0
  9
$USERI3
 70
0
  9
$USERI4
 70
0
  9
$USERI5
 70
0
  9
$USERR1
 40
0.0
  9
$USERR2
 40
0.0
  9
$USERR3
 40
0.0
  9
$USERR4
 40
0.0
  9
$USERR5
 40
0.0
  9
$WORLDVIEW
 70
1
  9
$SHADEDGE
 70
3
  9
$SHADEDIF
 70
70
  9
$TILEMODE
 70
1
  9
$MAXACTVP
 70
64
  9
$PINSBASE
 10
0.0
 20
0.0
 30
0.0
  9
$PLIMCHECK
 70
0
  9
$PEXTMIN
 10
1e+20
 20
1e+20
 30
1e+20
  9
$PEXTMAX
 10
-1e+20
 20
-1e+20
 30
-1e+20
  9
$PLIMMIN
 10
0.0
 20
0.0
  9
$PLIMMAX
 10
420.0
 20
297.0
  9
$UNITMODE
 70
0
  9
$VISRETAIN
 70
1
  9
$PLINEGEN
 70
0
  9
$PSLTSCALE
 70
1
  9
$TREEDEPTH
 70
3020
  9
$CMLSTYLE
  2
Standard
  9
$CMLJUST
 70
0
  9
$CMLSCALE
 40
20.0
  9
$PROXYGRAPHICS
 70
1
  9
$MEASUREMENT
 70
1
  9
$CELWEIGHT
370
-1
  9
$ENDCAPS
280
0
  9
$JOINSTYLE
280
0
  9
$LWDISPLAY
290
0
  9
$INSUNITS
 70
6
  9
$HYPERLINKBASE
  1

  9
$STYLESHEET
  1

  9
$XEDIT
290
1
  9
$CEPSNTYPE
380
0
  9
$PSTYLEMODE
290
1
  9
$FINGERPRINTGUID
  2
{50BB993B-BE67-4DFF-AE22-1A1A897AEF9B}
  9
$VERSIONGUID
  2
{31451E0C-CE61-4098-9803-4E8A06E64F45}
  9
$EXTNAMES
290
1
  9
$PSVPSCALE
 40
0.0
  9
$OLESTARTUP
290
0
  9
$SORTENTS
280
127
  9
$INDEXCTL
280
0
  9
$HIDETEXT
280
1
  9
$XCLIPFRAME
280
1
  9
$HALOGAP
280
0
  9
$OBSCOLOR
 70
257
  9
$OBSLTYPE
280
0
  9
$INTERSECTIONDISPLAY
280
0
  9
$INTERSECTIONCOLOR
 70
257
  9
$DIMASSOC
280
2
  9
$PROJECTNAME
  1

  9
$CAMERADISPLAY
290
0
  9
$LENSLENGTH
 40
50.0
  9
$CAMERAHEIGHT
 40
0.0
  9
$STEPSPERSEC
 40
24.0
  9
$STEPSIZE
 40
100.0
  9
$3DDWFPREC
 40
2.0
  9
$PSOLWIDTH
 40
0.005
  9
$PSOLHEIGHT
 40
0.08
  9
$LOFTANG1
 40
1.570796326795
  9
$LOFTANG2
 40
1.570796326795
  9
$LOFTMAG1
 40
0.0
  9
$LOFTMAG2
 40
0.0
  9
$LOFTPARAM
 70
7
  9
$LOFTNORMALS
280
1
  9
$LATITUDE
 40
37.795
  9
$LONGITUDE
 40
-122.394
  9
$NORTHDIRECTION
 40
0.0
  9
$TIMEZONE
 70
-8000
  9
$LIGHTGLYPHDISPLAY
280
1
  9
$TILEMODELIGHTSYNCH
280
1
  9
$CMATERIAL
347
20
  9
$SOLIDHIST
280
0
  9
$SHOWHIST
280
1
  9
$DWFFRAME
280
2
  9
$DGNFRAME
280
2
  9
$REALWORLDSCALE
290
1
  9
$INTERFERECOLOR
 62
256
  9
$CSHADOW
280
0
  9
$SHADOWPLANELOCATION
 40
0.0
  0
ENDSEC
  0
SECTION
  2
CLASSES
  0
CLASS
  1
ACDBDICTIONARYWDFLT
  2
AcDbDictionaryWithDefault
  3
ObjectDBX Classes
 90
0
 91
0
280
0
281
0
  0
CLASS
  1
SUN
  2
AcDbSun
  3
SCENEOE
 90
1153
 91
0
280
0
281
0
  0
CLASS
  1
VISUALSTYLE
  2
AcDbVisualStyle
  3
ObjectDBX Classes
 90
4095
 91
0
280
0
281
0
  0
CLASS
  1
MATERIAL
  2
AcDbMaterial
  3
ObjectDBX Classes
 90
1153
 91
0
280
0
281
0
  0
CLASS
  1
SCALE
  2
AcDbScale
  3
ObjectDBX Classes
 90
1153
 91
0
280
0
281
0
  0
CLASS
  1
TABLESTYLE
  2
AcDbTableStyle
  3
ObjectDBX Classes
 90
4095
 91
0
280
0
281
0
  0
CLASS
  1
MLEADERSTYLE
  2
AcDbMLeaderStyle
  3
ACDB_MLEADERSTYLE_CLASS
 90
4095
 91
0
280
0
281
0
  0
CLASS
  1
DICTIONARYVAR
  2
AcDbDictionaryVar
  3
ObjectDBX Classes
 90
0
 91
0
280
0
281
0
  0
CLASS
  1
CELLSTYLEMAP
  2
AcDbCellStyleMap
  3
ObjectDBX Classes
 90
1152
 91
0
280
0
281
0
  0
CLASS
  1
MENTALRAYRENDERSETTINGS
  2
AcDbMentalRayRenderSettings
  3
SCENEOE
 90
1024
 91
0
280
0
281
0
  0
CLASS
  1
ACDBDETAILVIEWSTYLE
  2
AcDbDetailViewStyle
  3
ObjectDBX Classes
 90
1025
 91
0
280
0
281
0
  0
CLASS
  1
ACDBSECTIONVIEWSTYLE
  2
AcDbSectionViewStyle
  3
ObjectDBX Classes
 90
1025
 91
0
280
0
281
0
  0
CLASS
  1
RASTERVARIABLES
  2
AcDbRasterVariables
  3
ISM
 90
0
 91
0
280
0
281
0
  0
CLASS
  1
ACDBPLACEHOLDER
  2
AcDbPlaceHolder
  3
ObjectDBX Classes
 90
0
 91
0
280
0
281
0
  0
CLASS
  1
LAYOUT
  2
AcDbLayout
  3
ObjectDBX Classes
 90
0
 91
0
280
0
281
0
  0
ENDSEC
  0
SECTION
  2
TABLES
  0
TABLE
  2
VPORT
  5
8
330
0
100
AcDbSymbolTable
 70
1
  0
VPORT
  5
23
330
8
100
AcDbSymbolTableRecord
100
AcDbViewportTableRecord
  2
*Active
 70
0
 10
0.0
 20
0.0
 11
1.0
 21
1.0
 12
0.0
 22
0.0
 13
0.0
 23
0.0
 14
0.5
 24
0.5
 15
0.5
 25
0.5
 16
0.0
 26
0.0
 36
1.0
 17
0.0
 27
0.0
 37
0.0
 40
1000.0
 41
1.34
 42
50.0
 43
0.0
 44
0.0
 50
0.0
 51
0.0
 71
0
 72
1000
 73
1
 74
3
 75
0
 76
0
 77
0
 78
0
281
0
 65
0
146
0.0
  0
ENDTAB
  0
TABLE
  2
LTYPE
  5
2
330
0
100
AcDbSymbolTable
 70
3
  0
LTYPE
  5
24
330
2
100
AcDbSymbolTableRecord
100
AcDbLinetypeTableRecord
  2
ByBlock
 70
0
  3

 72
65
 73
0
 40
0.0
  0
LTYPE
  5
25
330
2
100
AcDbSymbolTableRecord
100
AcDbLinetypeTableRecord
  2
ByLayer
 70
0
  3

 72
65
 73
0
 40
0.0
  0
LTYPE
  5
26
330
2
100
AcDbSymbolTableRecord
100
AcDbLinetypeTableRecord
  2
Continuous
 70
0
  3

 72
65
 73
0
 40
0.0
  0
ENDTAB
  0
TABLE
  2
LAYER
  5
1
330
0
100
AcDbSymbolTable
 70
2
  0
LAYER
  5
27
330
1
100
AcDbSymbolTableRecord
100
AcDbLayerTableRecord
  2
0
 70
0
 62
7
  6
Continuous
370
-3
390
13
347
21
  0
LAYER
  5
28
330
1
100
AcDbSymbolTableRecord
100
AcDbLayerTableRecord
  2
Defpoints
 70
0
 62
7
  6
Continuous
290
0
370
-3
390
13
347
21
  0
ENDTAB
  0
TABLE
  2
STYLE
  5
5
330
0
100
AcDbSymbolTable
 70
1
  0
STYLE
  5
29
330
5
100
AcDbSymbolTableRecord
100
AcDbTextStyleTableRecord
  2
Standard
 70
0
 40
0.0
 41
1.0
 50
0.0
 71
0
 42
2.5
  3
txt
  4

  0
ENDTAB
  0
TABLE
  2
VIEW
  5
7
330
0
100
AcDbSymbolTable
 70
0
  0
ENDTAB
  0
TABLE
  2
UCS
  5
6
330
0
100
AcDbSymbolTable
 70
0
  0
ENDTAB
  0
TABLE
  2
APPID
  5
3
330
0
100
AcDbSymbolTable
 70
3
  0
APPID
  5
2A
330
3
100
AcDbSymbolTableRecord
100
AcDbRegAppTableRecord
  2
ACAD
 70
0
  0
APPID
  5
175
330
3
100
AcDbSymbolTableRecord
100
AcDbRegAppTableRecord
  2
HATCHBACKGROUNDCOLOR
 70
0
  0
APPID
  5
176
330
3
100
AcDbSymbolTableRecord
100
AcDbRegAppTableRecord
  2
EZDXF
 70
0
  0
ENDTAB
  0
TABLE
  2
DIMSTYLE
  5
4
330
0
100
AcDbSymbolTable
 70
1
100
AcDbDimStyleTable
  0
DIMSTYLE
105
2B
330
4
100
AcDbSymbolTableRecord
100
AcDbDimStyleTableRecord
  2
Standard
 70
0
 40
1.0
 41
2.5
 42
0.625
 43
3.75
 44
1.25
 45
0.0
 46
0.0
 47
0.0
 48
0.0
 49
2.5
140
2.5
141
2.5
142
0.0
143
0.03937007874
144
1.0
145
0.0
146
1.0
147
0.625
148
0.0
 69
0
 70
0
 71
0
 72
0
 73
0
 74
0
 75
0
 76
0
 77
1
 78
8
 79
3
170
0
171
3
172
1
173
0
174
0
175
0
176
0
177
0
178
0
179
2
271
2
272
2
273
2
274
3
275
0
276
0
277
2
278
44
279
0
280
0
281
0
282
0
283
0
284
8
285
0
286
0
288
0
289
3
290
0
371
-2
372
-2
  0
ENDTAB
  0
TABLE
  2
BLOCK_RECORD
  5
9
330
0
100
AcDbSymbolTable
 70
2
  0
BLOCK_RECORD
  5
17
330
9
100
AcDbSymbolTableRecord
100
AcDbBlockTableRecord
  2
*Model_Space
340
1A
 70
0
280
1
281
0
  0
BLOCK_RECORD
  5
1B
330
9
100
AcDbSymbolTableRecord
100
AcDbBlockTableRecord
  2
*Paper_Space
340
1E
 70
0
280
1
281
0
  0
ENDTAB
  0
ENDSEC
  0
SECTION
  2
BLOCKS
  0
BLOCK
  5
18
330
17
100
AcDbEntity
  8
0
100
AcDbBlockBegin
  2
*Model_Space
 70
0
 10
0.0
 20
0.0
 30
0.0
  3
*Model_Space
  1

  0
ENDBLK
  5
19
330
17
100
AcDbEntity
  8
0
100
AcDbBlockEnd
  0
BLOCK
  5
1C
330
1B
100
AcDbEntity
  8
0
100
AcDbBlockBegin
  2
*Paper_Space
 70
0
 10
0.0
 20
0.0
 30
0.0
  3
*Paper_Space
  1

  0
ENDBLK
  5
1D
330
1B
100
AcDbEntity
  8
0
100
AcDbBlockEnd
  0
ENDSEC
  0
SECTION
  2
ENTITIES
  0
LINE
  5
2F
330
17
100
AcDbEntity
  8
0
100
AcDbLine
 10
6.984661927183622
 20
3.577801796181191
 30
0.0
 11
6.650450259143361
 21
4.378910974757395
 31
0.0
  0
LINE
  5
30
330
17
100
AcDbEntity
  8
0
100
AcDbLine
 10
6.650450259143355
 20
4.37891097475741
 30
0.0
 11
6.432557940372888
 21
5.0890548597231735
 31
0.0
  0
LINE
  5
31
330
17
100
AcDbEntity
  8
0
100
AcDbLine
 10
6.432557940372888
 20
5.0890548597231735
 30
0.0
 11
6.2297855319467885
 21
5.803662969329071
 31
0.0
  0
LINE
  5
32
330
17
100
AcDbEntity
  8
0
100
AcDbLine
 10
6.2297855319467885
 20
5.803662969329071
 30
0.0
 11
6.042224369410668
 21
6.522413419931738
 31
0.0
  0
LINE
  5
33
330
17
100
AcDbEntity
  8
0
100
AcDbLine
 10
6.042224369410668
 20
6.522413419931738
 30
0.0
 11
5.869958936650939
 21
7.244982462037433
 31
0.0
  0
LINE
  5
34
330
17
100
AcDbEntity
  8
0
100
AcDbLine
 10
5.869958936650939
 20
7.244982462037433
 30
0.0
 11
5.713066827840365
 21
7.971044626129759
 31
0.0
  0
LINE
  5
35
330
17
100
AcDbEntity
  8
0
100
AcDbLine
 10
5.713066827840365
 20
7.971044626129759
 30
0.0
 11
5.571618712487073
 21
8.700272869272066
 31
0.0
  0
LINE
  5
36
330
17
100
AcDbEntity
  8
0
100
AcDbLine
 10
5.571618712487073
 20
8.700272869272066
 30
0.0
 11
5.445678303602563
 21
9.432338722418805
 31
0.0
  0
LINE
  5
37
330
17
100
AcDbEntity
  8
0
100
AcDbLine
 10
5.445678303602563
 20
9.432338722418805
 30
0.0
 11
5.335302329003262
 21
10.166912438368874
 31
0.0
  0
LINE
  5
38
330
17
100
AcDbEntity
  8
0
100
AcDbLine
 10
5.335302329003262
 20
10.166912438368874
 30
0.0
 11
5.240540505758396
 21
10.903663140295071
 31
0.0
  0
LINE
  5
39
330
17
100
AcDbEntity
  8
0
100
AcDbLine
 10
5.240540505758396
 20
10.903663140295071
 30
0.0
 11
5.161435517795702
 21
11.642258970782125
 31
0.0
  0
LINE
  5
3A
330
17
100
AcDbEntity
  8
0
100
AcDbLine
 10
5.161435517795702
 20
11.642258970782125
 30
0.0
 11
5.098022996675176
 21
12.382367241306497
 31
0.0
  0
LINE
  5
3B
330
17
100
AcDbEntity
  8
0
100
AcDbLine
 10
5.098022996675176
 20
12.382367241306497
 30
0.0
 11
5.050331505539425
 21
13.123654582090545
 31
0.0
  0
LINE
  5
3C
330
17
100
AcDbEntity
  8
0
100
AcDbLine
 10
5.050331505539425
 20
13.123654582090545
 30
0.0
 11
5.018382526247819
 21
13.865787092263533
 31
0.0
  0
LINE
  5
3D
330
17
100
AcDbEntity
  8
0
100
AcDbLine
 10
5.018382526247819
 20
13.865787092263533
 30
0.0
 11
5.002190449700379
 21
14.608430490261872
 31
0.0
  0
LINE
  5
3E
330
17
100
AcDbEntity
  8
0
100
AcDbLine
 10
5.002190449700379
 20
14.608430490261872
 30
0.0
 11
5.001762569355606
 21
15.351250264400827
 31
0.0
  0
LINE
  5
3F
330
17
100
AcDbEntity
  8
0
100
AcDbLine
 10
5.001762569355606
 20
15.351250264400827
 30
0.0
 11
5.017099077945268
 21
16.093911823549906
 31
0.0
  0
LINE
  5
40
330
17
100
AcDbEntity
  8
0
100
AcDbLine
 10
5.017099077945268
 20
16.093911823549906
 30
0.0
 11
5.048193067387594
 21
16.836080647843946
 31
0.0
  0
LINE
  5
41
330
17
100
AcDbEntity
  8
0
100
AcDbLine
 10
5.048193067387594
 20
16.836080647843946
 30
0.0
 11
5.095030531898871
 21
17.577422439362266
 31
0.0
  0
LINE
  5
42
330
17
100
AcDbEntity
  8
0
100
AcDbLine
 10
5.095030531898871
 20
17.577422439362266
 30
0.0
 11
5.157590374302188
 21
18.31760327270768
 31
0.0
  0
LINE
  5
43
330
17
100
AcDbEntity
  8
0
100
AcDbLine
 10
5.157590374302188
 20
18.31760327270768
 30
0.0
 11
5.235844415530259
 21
19.056289745417793
 31
0.0
  0
LINE
  5
44
330
17
100
AcDbEntity
  8
0
100
AcDbLine
 10
5.235844415530259
 20
19.056289745417793
 30
0.0
 11
5.3297574073182545
 21
19.793149128140758
 31
0.0
  0
LINE
  5
45
330
17
100
AcDbEntity
  8
0
100
AcDbLine
 10
5.3297574073182545
 20
19.793149128140758
 30
0.0
 11
5.439287048080793
 21
20.52784951450779
 31
0.0
  0
LINE
  5
46
330
17
100
AcDbEntity
  8
0
100
AcDbLine
 10
5.439287048080793
 20
20.52784951450779
 30
0.0
 11
5.564384001966033
 21
21.260059970635037
 31
0.0
  0
LINE
  5
47
330
17
100
AcDbEntity
  8
0
100
AcDbLine
 10
5.564384001966033
 20
21.260059970635037
 30
0.0
 11
5.704991921078182
 21
21.989450684187375
 31
0.0
  0
LINE
  5
48
330
17
100
AcDbEntity
  8
0
100
AcDbLine
 10
5.704991921078182
 20
21.989450684187375
 30
0.0
 11
5.861047470858516
 21
22.715693112937043
 31
0.0
  0
LINE
  5
49
330
17
100
AcDbEntity
  8
0
100
AcDbLine
 10
5.861047470858516
 20
22.715693112937043
 30
0.0
 11
6.032480358613363
 21
23.4384601327501
 31
0.0
  0
LINE
  5
4A
330
17
100
AcDbEntity
  8
0
100
AcDbLine
 10
6.032480358613363
 20
23.4384601327501
 30
0.0
 11
6.219213365176373
 21
24.157426184934344
 31
0.0
  0
LINE
  5
4B
330
17
100
AcDbEntity
  8
0
100
AcDbLine
 10
6.219213365176373
 20
24.157426184934344
 30
0.0
 11
6.421162379690571
 21
24.872267422881755
 31
0.0
  0
LINE
  5
4C
330
17
100
AcDbEntity
  8
0
100
AcDbLine
 10
6.421162379690571
 20
24.872267422881755
 30
0.0
 11
6.63823643749479
 21
25.582661857940085
 31
0.0
  0
LINE
  5
4D
330
17
100
AcDbEntity
  8
0
100
AcDbLine
 10
6.63823643749479
 20
25.582661857940085
 30
0.0
 11
6.87033776109719
 21
26.2882895044474
 31
0.0
  0
LINE
  5
4E
330
17
100
AcDbEntity
  8
0
100
AcDbLine
 10
6.87033776109719
 20
26.2882895044474
 30
0.0
 11
7.117361804217552
 21
26.988832523864417
 31
0.0
  0
LINE
  5
4F
330
17
100
AcDbEntity
  8
0
100
AcDbLine
 10
7.117361804217552
 20
26.988832523864417
 30
0.0
 11
7.379197298878459
 21
27.683975367939727
 31
0.0
  0
LINE
  5
50
330
17
100
AcDbEntity
  8
0
100
AcDbLine
 10
7.379197298878459
 20
27.683975367939727
 30
0.0
 11
7.655726305524169
 21
28.373404920843413
 31
0.0
  0
LINE
  5
51
330
17
100
AcDbEntity
  8
0
100
AcDbLine
 10
7.655726305524169
 20
28.373404920843413
 30
0.0
 11
7.946824266144546
 21
29.056810640204976
 31
0.0
  0
LINE
  5
52
330
17
100
AcDbEntity
  8
0
100
AcDbLine
 10
7.946824266144546
 20
29.056810640204976
 30
0.0
 11
8.252360060380216
 21
29.733884696992128
 31
0.0
  0
LINE
  5
53
330
17
100
AcDbEntity
  8
0
100
AcDbLine
 10
8.252360060380216
 20
29.733884696992128
 30
0.0
 11
8.572196064583625
 21
30.404322114167407
 31
0.0
  0
LINE
  5
54
330
17
100
AcDbEntity
  8
0
100
AcDbLine
 10
8.572196064583625
 20
30.404322114167407
 30
0.0
 11
8.906188213809326
 21
31.067820904060074
 31
0.0
  0
LINE
  5
55
330
17
100
AcDbEntity
  8
0
100
AcDbLine
 10
8.906188213809326
 20
31.067820904060074
 30
0.0
 11
9.254186066705763
 21
31.724082204391664
 31
0.0
  0
LINE
  5
56
330
17
100
AcDbEntity
  8
0
100
AcDbLine
 10
9.254186066705763
 20
31.724082204391664
 30
0.0
 11
9.616032873279103
 21
32.372810412893585
 31
0.0
  0
LINE
  5
57
330
17
100
AcDbEntity
  8
0
100
AcDbLine
 10
9.616032873279103
 20
32.372810412893585
 30
0.0
 11
9.991565645498738
 21
33.013713320456404
 31
0.0
  0
LINE
  5
58
330
17
100
AcDbEntity
  8
0
100
AcDbLine
 10
9.991565645498738
 20
33.013713320456404
 30
0.0
 11
10.38061523071261
 21
33.64650224275068
 31
0.0
  0
LINE
  5
59
330
17
100
AcDbEntity
  8
0
100
AcDbLine
 10
10.38061523071261
 20
33.64650224275068
 30
0.0
 11
10.783006387839265
 21
34.27089215026017
 31
0.0
  0
LINE
  5
5A
330
17
100
AcDbEntity
  8
0
100
AcDbLine
 10
10.783006387839265
 20
34.27089215026017
 30
0.0
 11
11.198557866302387
 21
34.88660179666873
 31
0.0
  0
LINE
  5
5B
330
17
100
AcDbEntity
  8
0
100
AcDbLine
 10
11.198557866302387
 20
34.88660179666873
 30
0.0
 11
11.627082487672148
 21
35.493353845543176
 31
0.0
  0
LINE
  5
5C
330
17
100
AcDbEntity
  8
0
100
AcDbLine
 10
11.627082487672148
 20
35.493353845543176
 30
0.0
 11
12.068387229976725
 21
36.09087499525501
 31
0.0
  0
LINE
  5
5D
330
17
100
AcDbEntity
  8
0
100
AcDbLine
 10
12.068387229976725
 20
36.09087499525501
 30
0.0
 11
12.522273314645908
 21
36.678896102084614
 31
0.0
  0
LINE
  5
5E
330
17
100
AcDbEntity
  8
0
100
AcDbLine
 10
12.522273314645908
 20
36.678896102084614
 30
0.0
 11
12.988536296047684
 21
37.25715230145282
 31
0.0
  0
LINE
  5
5F
330
17
100
AcDbEntity
  8
0
100
AcDbLine
 10
12.988536296047684
 20
37.25715230145282
 30
0.0
 11
13.466966153577477
 21
37.82538312722476
 31
0.0
  0
LINE
  5
60
330
17
100
AcDbEntity
  8
0
100
AcDbLine
 10
13.466966153577477
 20
37.82538312722476
 30
0.0
 11
13.957347386258501
 21
38.38333262903265
 31
0.0
  0
LINE
  5
61
330
17
100
AcDbEntity
  8
0
100
AcDbLine
 10
13.957347386258501
 20
38.38333262903265
 30
0.0
 11
14.459459109810705
 21
38.9307494875645
 31
0.0
  0
LINE
  5
62
330
17
100
AcDbEntity
  8
0
100
AcDbLine
 10
14.459459109810695
 20
38.93074948756449
 30
0.0
 11
14.558180408357565
 21
39.04439766840795
 31
0.0
  0
LINE
  5
63
330
17
100
AcDbEntity
  8
0
100
AcDbLine
 10
14.558180408357565
 20
39.04439766840795
 30
0.0
 11
14.648073910137153
 21
39.16514932319417
 31
0.0
  0
LINE
  5
64
330
17
100
AcDbEntity
  8
0
100
AcDbLine
 10
14.648073910137153
 20
39.16514932319417
 30
0.0
 11
14.728630327924497
 21
39.29232033934596
 31
0.0
  0
LINE
  5
65
330
17
100
AcDbEntity
  8
0
100
AcDbLine
 10
14.728630327924497
 20
39.29232033934596
 30
0.0
 11
14.799393273286004
 21
39.42519023570918
 31
0.0
  0
LINE
  5
66
330
17
100
AcDbEntity
  8
0
100
AcDbLine
 10
14.799393273286004
 20
39.42519023570918
 30
0.0
 11
14.85996184222572
 21
39.5630062444034
 31
0.0
  0
LINE
  5
67
330
17
100
AcDbEntity
  8
0
100
AcDbLine
 10
14.85996184222572
 20
39.5630062444034
 30
0.0
 11
14.909992886487274
 21
39.70498757559136
 31
0.0
  0
LINE
  5
68
330
17
100
AcDbEntity
  8
0
100
AcDbLine
 10
14.909992886487274
 20
39.70498757559136
 30
0.0
 11
14.949202957643472
 21
39.85032984100557
 31
0.0
  0
LINE
  5
69
330
17
100
AcDbEntity
  8
0
100
AcDbLine
 10
14.949202957643472
 20
39.85032984100557
 30
0.0
 11
14.977369912959476
 21
39.9982096111705
 31
0.0
  0
LINE
  5
6A
330
17
100
AcDbEntity
  8
0
100
AcDbLine
 10
14.977369912959476
 20
39.9982096111705
 30
0.0
 11
14.994334173931563
 21
40.14778908050196
 31
0.0
  0
LINE
  5
6B
330
17
100
AcDbEntity
  8
0
100
AcDbLine
 10
14.994334173931563
 20
40.14778908050196
 30
0.0
 11
14.99999963037131
 21
40.298220813853455
 31
0.0
  0
LINE
  5
6C
330
17
100
AcDbEntity
  8
0
100
AcDbLine
 10
14.999999630371308
 20
40.29822081065578
 30
0.0
 11
14.999999805687107
 21
44.8997988069882
 31
0.0
  0
LINE
  5
6D
330
17
100
AcDbEntity
  8
0
100
AcDbLine
 10
14.999999805687107
 20
44.8997988069882
 30
0.0
 11
15.0
 21
50.00000044703484
 31
0.0
  0
LINE
  5
6E
330
17
100
AcDbEntity
  8
0
100
AcDbLine
 10
15.0
 20
50.00000044703484
 30
0.0
 11
15.0
 21
53.00000052154064
 31
0.0
  0
LINE
  5
6F
330
17
100
AcDbEntity
  8
0
100
AcDbLine
 10
15.000000000000005
 20
53.00000052154064
 30
0.0
 11
15.02462331880973
 21
53.312869451621104
 31
0.0
  0
LINE
  5
70
330
17
100
AcDbEntity
  8
0
100
AcDbLine
 10
15.02462331880973
 20
53.312869451621104
 30
0.0
 11
15.097886967409698
 21
53.618034510290535
 31
0.0
  0
LINE
  5
71
330
17
100
AcDbEntity
  8
0
100
AcDbLine
 10
15.097886967409698
 20
53.618034510290535
 30
0.0
 11
15.21798695162327
 21
53.907981521019735
 31
0.0
  0
LINE
  5
72
330
17
100
AcDbEntity
  8
0
100
AcDbLine
 10
15.21798695162327
 20
53.907981521019735
 30
0.0
 11
15.38196601125011
 21
54.17557102612559
 31
0.0
  0
LINE
  5
73
330
17
100
AcDbEntity
  8
0
100
AcDbLine
 10
15.38196601125011
 20
54.17557102612559
 30
0.0
 11
15.585786437626911
 21
54.41421408391374
 31
0.0
  0
LINE
  5
74
330
17
100
AcDbEntity
  8
0
100
AcDbLine
 10
15.585786437626911
 20
54.41421408391374
 30
0.0
 11
15.82442949541506
 21
54.618034510290535
 31
0.0
  0
LINE
  5
75
330
17
100
AcDbEntity
  8
0
100
AcDbLine
 10
15.82442949541506
 20
54.618034510290535
 30
0.0
 11
16.092019000520914
 21
54.78201356991738
 31
0.0
  0
LINE
  5
76
330
17
100
AcDbEntity
  8
0
100
AcDbLine
 10
16.092019000520914
 20
54.78201356991738
 30
0.0
 11
16.38196601125011
 21
54.90211355413095
 31
0.0
  0
LINE
  5
77
330
17
100
AcDbEntity
  8
0
100
AcDbLine
 10
16.38196601125011
 20
54.90211355413095
 30
0.0
 11
16.687131069919545
 21
54.97537720273092
 31
0.0
  0
LINE
  5
78
330
17
100
AcDbEntity
  8
0
100
AcDbLine
 10
16.687131069919545
 20
54.97537720273092
 30
0.0
 11
17.000000000000007
 21
55.00000052154064
 31
0.0
  0
LINE
  5
79
330
17
100
AcDbEntity
  8
0
100
AcDbLine
 10
17.000000000000007
 20
55.00000052154064
 30
0.0
 11
25.0
 21
55.00000052154065
 31
0.0
  0
LINE
  5
7A
330
17
100
AcDbEntity
  8
0
100
AcDbLine
 10
25.0
 20
55.00000052154065
 30
0.0
 11
25.15643446504023
 21
54.98768886213578
 31
0.0
  0
LINE
  5
7B
330
17
100
AcDbEntity
  8
0
100
AcDbLine
 10
25.15643446504023
 20
54.98768886213578
 30
0.0
 11
25.30901699437495
 21
54.9510570378358
 31
0.0
  0
LINE
  5
7C
330
17
100
AcDbEntity
  8
0
100
AcDbLine
 10
25.30901699437495
 20
54.9510570378358
 30
0.0
 11
25.45399049973955
 21
54.89100704572901
 31
0.0
  0
LINE
  5
7D
330
17
100
AcDbEntity
  8
0
100
AcDbLine
 10
25.45399049973955
 20
54.89100704572901
 30
0.0
 11
25.587785252292477
 21
54.80901751591559
 31
0.0
  0
LINE
  5
7E
330
17
100
AcDbEntity
  8
0
100
AcDbLine
 10
25.587785252292477
 20
54.80901751591559
 30
0.0
 11
25.70710678118655
 21
54.707107302727195
 31
0.0
  0
LINE
  5
7F
330
17
100
AcDbEntity
  8
0
100
AcDbLine
 10
25.70710678118655
 20
54.707107302727195
 30
0.0
 11
25.80901699437495
 21
54.58778577383312
 31
0.0
  0
LINE
  5
80
330
17
100
AcDbEntity
  8
0
100
AcDbLine
 10
25.80901699437495
 20
54.58778577383312
 30
0.0
 11
25.891006524188374
 21
54.45399102128019
 31
0.0
  0
LINE
  5
81
330
17
100
AcDbEntity
  8
0
100
AcDbLine
 10
25.891006524188374
 20
54.45399102128019
 30
0.0
 11
25.951056516295157
 21
54.30901751591559
 31
0.0
  0
LINE
  5
82
330
17
100
AcDbEntity
  8
0
100
AcDbLine
 10
25.951056516295157
 20
54.30901751591559
 30
0.0
 11
25.98768834059514
 21
54.15643498658088
 31
0.0
  0
LINE
  5
83
330
17
100
AcDbEntity
  8
0
100
AcDbLine
 10
25.98768834059514
 20
54.15643498658088
 30
0.0
 11
26.000000000000007
 21
54.00000052154064
 31
0.0
  0
LINE
  5
84
330
17
100
AcDbEntity
  8
0
100
AcDbLine
 10
26.000000000000007
 20
54.00000052154064
 30
0.0
 11
26.0
 21
52.000000461936004
 31
0.0
  0
LINE
  5
85
330
17
100
AcDbEntity
  8
0
100
AcDbLine
 10
26.000000000000007
 20
52.000000461936004
 30
0.0
 11
25.98768834059514
 21
51.84356599689577
 31
0.0
  0
LINE
  5
86
330
17
100
AcDbEntity
  8
0
100
AcDbLine
 10
25.98768834059514
 20
51.84356599689577
 30
0.0
 11
25.951056516295157
 21
51.690983467561054
 31
0.0
  0
LINE
  5
87
330
17
100
AcDbEntity
  8
0
100
AcDbLine
 10
25.951056516295157
 20
51.690983467561054
 30
0.0
 11
25.891006524188374
 21
51.54600996219646
 31
0.0
  0
LINE
  5
88
330
17
100
AcDbEntity
  8
0
100
AcDbLine
 10
25.891006524188374
 20
51.54600996219646
 30
0.0
 11
25.80901699437495
 21
51.41221520964353
 31
0.0
  0
LINE
  5
89
330
17
100
AcDbEntity
  8
0
100
AcDbLine
 10
25.80901699437495
 20
51.41221520964353
 30
0.0
 11
25.70710678118655
 21
51.29289368074945
 31
0.0
  0
LINE
  5
8A
330
17
100
AcDbEntity
  8
0
100
AcDbLine
 10
25.70710678118655
 20
51.29289368074945
 30
0.0
 11
25.587785252292477
 21
51.190983467561054
 31
0.0
  0
LINE
  5
8B
330
17
100
AcDbEntity
  8
0
100
AcDbLine
 10
25.587785252292477
 20
51.190983467561054
 30
0.0
 11
25.45399049973955
 21
51.108993937747634
 31
0.0
  0
LINE
  5
8C
330
17
100
AcDbEntity
  8
0
100
AcDbLine
 10
25.45399049973955
 20
51.108993937747634
 30
0.0
 11
25.30901699437495
 21
51.04894394564084
 31
0.0
  0
LINE
  5
8D
330
17
100
AcDbEntity
  8
0
100
AcDbLine
 10
25.30901699437495
 20
51.04894394564084
 30
0.0
 11
25.15643446504023
 21
51.01231212134086
 31
0.0
  0
LINE
  5
8E
330
17
100
AcDbEntity
  8
0
100
AcDbLine
 10
25.15643446504023
 20
51.01231212134086
 30
0.0
 11
25.0
 21
51.000000461936
 31
0.0
  0
LINE
  5
8F
330
17
100
AcDbEntity
  8
0
100
AcDbLine
 10
25.0
 20
51.000000461936
 30
0.0
 11
20.999999716877934
 21
51.000000461936
 31
0.0
  0
LINE
  5
90
330
17
100
AcDbEntity
  8
0
100
AcDbLine
 10
20.999999716877934
 20
51.000000461936
 30
0.0
 11
20.69085544673252
 21
50.95101554617017
 31
0.0
  0
LINE
  5
91
330
17
100
AcDbEntity
  8
0
100
AcDbLine
 10
20.69085544673252
 20
50.95101554617017
 30
0.0
 11
20.411997948283023
 21
50.80886000707719
 31
0.0
  0
LINE
  5
92
330
17
100
AcDbEntity
  8
0
100
AcDbLine
 10
20.411997948283023
 20
50.80886000707719
 30
0.0
 11
20.190746782239692
 21
50.58746076755548
 31
0.0
  0
LINE
  5
93
330
17
100
AcDbEntity
  8
0
100
AcDbLine
 10
20.190746782239692
 20
50.58746076755548
 30
0.0
 11
20.04877783932285
 21
50.308508225026465
 31
0.0
  0
LINE
  5
94
330
17
100
AcDbEntity
  8
0
100
AcDbLine
 10
20.04877783932285
 20
50.308508225026465
 30
0.0
 11
19.999999761676076
 21
49.99933125163192
 31
0.0
  0
LINE
  5
95
330
17
100
AcDbEntity
  8
0
100
AcDbLine
 10
19.999999761676076
 20
49.99933125163192
 30
0.0
 11
20.04919131860272
 21
49.690219795255004
 31
0.0
  0
LINE
  5
96
330
17
100
AcDbEntity
  8
0
100
AcDbLine
 10
20.04919131860272
 20
49.690219795255004
 30
0.0
 11
20.19153323239513
 21
49.41145738510213
 31
0.0
  0
LINE
  5
97
330
17
100
AcDbEntity
  8
0
100
AcDbLine
 10
20.19153323239513
 20
49.41145738510213
 30
0.0
 11
20.413080321098054
 21
49.190354266120096
 31
0.0
  0
LINE
  5
98
330
17
100
AcDbEntity
  8
0
100
AcDbLine
 10
20.413080321098054
 20
49.190354266120096
 30
0.0
 11
20.69212770256326
 21
49.04857182491619
 31
0.0
  0
LINE
  5
99
330
17
100
AcDbEntity
  8
0
100
AcDbLine
 10
20.69212770256326
 20
49.04857182491619
 30
0.0
 11
21.00133721331526
 21
49.000000432133675
 31
0.0
  0
LINE
  5
9A
330
17
100
AcDbEntity
  8
0
100
AcDbLine
 10
20.999999716877934
 20
49.00000043213368
 30
0.0
 11
51.000000000000014
 21
49.00000043213368
 31
0.0
  0
LINE
  5
9B
330
17
100
AcDbEntity
  8
0
100
AcDbLine
 10
51.000000000000014
 20
49.00000043213369
 30
0.0
 11
51.31286893008048
 21
49.02462375094341
 31
0.0
  0
LINE
  5
9C
330
17
100
AcDbEntity
  8
0
100
AcDbLine
 10
51.31286893008048
 20
49.02462375094341
 30
0.0
 11
51.61803398874991
 21
49.09788739954338
 31
0.0
  0
LINE
  5
9D
330
17
100
AcDbEntity
  8
0
100
AcDbLine
 10
51.61803398874991
 20
49.09788739954338
 30
0.0
 11
51.90798099947911
 21
49.217987383756956
 31
0.0
  0
LINE
  5
9E
330
17
100
AcDbEntity
  8
0
100
AcDbLine
 10
51.90798099947911
 20
49.217987383756956
 30
0.0
 11
52.17557050458496
 21
49.381966443383796
 31
0.0
  0
LINE
  5
9F
330
17
100
AcDbEntity
  8
0
100
AcDbLine
 10
52.17557050458496
 20
49.381966443383796
 30
0.0
 11
52.41421356237311
 21
49.5857868697606
 31
0.0
  0
LINE
  5
A0
330
17
100
AcDbEntity
  8
0
100
AcDbLine
 10
52.41421356237311
 20
49.5857868697606
 30
0.0
 11
52.61803398874991
 21
49.82442992754874
 31
0.0
  0
LINE
  5
A1
330
17
100
AcDbEntity
  8
0
100
AcDbLine
 10
52.61803398874991
 20
49.82442992754874
 30
0.0
 11
52.78201304837675
 21
50.092019432654595
 31
0.0
  0
LINE
  5
A2
330
17
100
AcDbEntity
  8
0
100
AcDbLine
 10
52.78201304837675
 20
50.092019432654595
 30
0.0
 11
52.902113032590314
 21
50.381966443383796
 31
0.0
  0
LINE
  5
A3
330
17
100
AcDbEntity
  8
0
100
AcDbLine
 10
52.902113032590314
 20
50.381966443383796
 30
0.0
 11
52.97537668119028
 21
50.68713150205323
 31
0.0
  0
LINE
  5
A4
330
17
100
AcDbEntity
  8
0
100
AcDbLine
 10
52.97537668119028
 20
50.68713150205323
 30
0.0
 11
53.00000000000001
 21
51.00000043213369
 31
0.0
  0
LINE
  5
A5
330
17
100
AcDbEntity
  8
0
100
AcDbLine
 10
53.00000000000001
 20
51.00000043213369
 30
0.0
 11
53.00000000000001
 21
53.00000040548763
 31
0.0
  0
LINE
  5
A6
330
17
100
AcDbEntity
  8
0
100
AcDbLine
 10
53.000000000000036
 20
53.00000040548763
 30
0.0
 11
53.02462331880976
 21
53.312869335568095
 31
0.0
  0
LINE
  5
A7
330
17
100
AcDbEntity
  8
0
100
AcDbLine
 10
53.02462331880976
 20
53.312869335568095
 30
0.0
 11
53.09788696740973
 21
53.618034394237526
 31
0.0
  0
LINE
  5
A8
330
17
100
AcDbEntity
  8
0
100
AcDbLine
 10
53.09788696740973
 20
53.618034394237526
 30
0.0
 11
53.217986951623296
 21
53.90798140496672
 31
0.0
  0
LINE
  5
A9
330
17
100
AcDbEntity
  8
0
100
AcDbLine
 10
53.217986951623296
 20
53.90798140496672
 30
0.0
 11
53.381966011250135
 21
54.17557091007257
 31
0.0
  0
LINE
  5
AA
330
17
100
AcDbEntity
  8
0
100
AcDbLine
 10
53.381966011250135
 20
54.17557091007257
 30
0.0
 11
53.585786437626936
 21
54.41421396786072
 31
0.0
  0
LINE
  5
AB
330
17
100
AcDbEntity
  8
0
100
AcDbLine
 10
53.585786437626936
 20
54.41421396786072
 30
0.0
 11
53.82442949541508
 21
54.61803439423752
 31
0.0
  0
LINE
  5
AC
330
17
100
AcDbEntity
  8
0
100
AcDbLine
 10
53.82442949541508
 20
54.61803439423752
 30
0.0
 11
54.09201900052093
 21
54.78201345386436
 31
0.0
  0
LINE
  5
AD
330
17
100
AcDbEntity
  8
0
100
AcDbLine
 10
54.09201900052093
 20
54.78201345386436
 30
0.0
 11
54.38196601125013
 21
54.90211343807793
 31
0.0
  0
LINE
  5
AE
330
17
100
AcDbEntity
  8
0
100
AcDbLine
 10
54.38196601125013
 20
54.90211343807793
 30
0.0
 11
54.68713106991956
 21
54.9753770866779
 31
0.0
  0
LINE
  5
AF
330
17
100
AcDbEntity
  8
0
100
AcDbLine
 10
54.68713106991956
 20
54.9753770866779
 30
0.0
 11
55.000000000000014
 21
55.000000405487626
 31
0.0
  0
LINE
  5
B0
330
17
100
AcDbEntity
  8
0
100
AcDbLine
 10
55.000000000000014
 20
55.000000405487626
 30
0.0
 11
63.000000000000014
 21
55.00000040548761
 31
0.0
  0
LINE
  5
B1
330
17
100
AcDbEntity
  8
0
100
AcDbLine
 10
63.000000000000014
 20
55.0000004054876
 30
0.0
 11
63.15643446504024
 21
54.98768874608274
 31
0.0
  0
LINE
  5
B2
330
17
100
AcDbEntity
  8
0
100
AcDbLine
 10
63.15643446504024
 20
54.98768874608274
 30
0.0
 11
63.30901699437496
 21
54.95105692178275
 31
0.0
  0
LINE
  5
B3
330
17
100
AcDbEntity
  8
0
100
AcDbLine
 10
63.30901699437496
 20
54.95105692178275
 30
0.0
 11
63.453990499739554
 21
54.89100692967597
 31
0.0
  0
LINE
  5
B4
330
17
100
AcDbEntity
  8
0
100
AcDbLine
 10
63.453990499739554
 20
54.89100692967597
 30
0.0
 11
63.58778525229248
 21
54.80901739986255
 31
0.0
  0
LINE
  5
B5
330
17
100
AcDbEntity
  8
0
100
AcDbLine
 10
63.58778525229248
 20
54.80901739986255
 30
0.0
 11
63.707106781186546
 21
54.70710718667415
 31
0.0
  0
LINE
  5
B6
330
17
100
AcDbEntity
  8
0
100
AcDbLine
 10
63.707106781186546
 20
54.70710718667415
 30
0.0
 11
63.80901699437494
 21
54.587785657780074
 31
0.0
  0
LINE
  5
B7
330
17
100
AcDbEntity
  8
0
100
AcDbLine
 10
63.80901699437494
 20
54.587785657780074
 30
0.0
 11
63.89100652418836
 21
54.45399090522715
 31
0.0
  0
LINE
  5
B8
330
17
100
AcDbEntity
  8
0
100
AcDbLine
 10
63.89100652418836
 20
54.45399090522715
 30
0.0
 11
63.95105651629515
 21
54.309017399862554
 31
0.0
  0
LINE
  5
B9
330
17
100
AcDbEntity
  8
0
100
AcDbLine
 10
63.95105651629515
 20
54.309017399862554
 30
0.0
 11
63.987688340595135
 21
54.15643487052784
 31
0.0
  0
LINE
  5
BA
330
17
100
AcDbEntity
  8
0
100
AcDbLine
 10
63.987688340595135
 20
54.15643487052784
 30
0.0
 11
63.99999999999999
 21
54.00000040548761
 31
0.0
  0
LINE
  5
BB
330
17
100
AcDbEntity
  8
0
100
AcDbLine
 10
63.99999999999999
 20
54.00000040548761
 30
0.0
 11
64.0
 21
52.00000046193601
 31
0.0
  0
LINE
  5
BC
330
17
100
AcDbEntity
  8
0
100
AcDbLine
 10
64.00000000000001
 20
52.00000046193601
 30
0.0
 11
63.98768834059515
 21
51.84356599689578
 31
0.0
  0
LINE
  5
BD
330
17
100
AcDbEntity
  8
0
100
AcDbLine
 10
63.98768834059515
 20
51.84356599689578
 30
0.0
 11
63.95105651629517
 21
51.69098346756106
 31
0.0
  0
LINE
  5
BE
330
17
100
AcDbEntity
  8
0
100
AcDbLine
 10
63.95105651629517
 20
51.69098346756106
 30
0.0
 11
63.89100652418838
 21
51.54600996219646
 31
0.0
  0
LINE
  5
BF
330
17
100
AcDbEntity
  8
0
100
AcDbLine
 10
63.89100652418838
 20
51.54600996219646
 30
0.0
 11
63.80901699437496
 21
51.41221520964353
 31
0.0
  0
LINE
  5
C0
330
17
100
AcDbEntity
  8
0
100
AcDbLine
 10
63.80901699437496
 20
51.41221520964353
 30
0.0
 11
63.70710678118656
 21
51.29289368074945
 31
0.0
  0
LINE
  5
C1
330
17
100
AcDbEntity
  8
0
100
AcDbLine
 10
63.70710678118656
 20
51.29289368074945
 30
0.0
 11
63.587785252292484
 21
51.190983467561054
 31
0.0
  0
LINE
  5
C2
330
17
100
AcDbEntity
  8
0
100
AcDbLine
 10
63.587785252292484
 20
51.190983467561054
 30
0.0
 11
63.453990499739554
 21
51.108993937747634
 31
0.0
  0
LINE
  5
C3
330
17
100
AcDbEntity
  8
0
100
AcDbLine
 10
63.453990499739554
 20
51.108993937747634
 30
0.0
 11
63.30901699437495
 21
51.04894394564084
 31
0.0
  0
LINE
  5
C4
330
17
100
AcDbEntity
  8
0
100
AcDbLine
 10
63.30901699437495
 20
51.04894394564084
 30
0.0
 11
63.156434465040235
 21
51.01231212134086
 31
0.0
  0
LINE
  5
C5
330
17
100
AcDbEntity
  8
0
100
AcDbLine
 10
63.156434465040235
 20
51.01231212134086
 30
0.0
 11
63.0
 21
51.000000461936
 31
0.0
  0
LINE
  5
C6
330
17
100
AcDbEntity
  8
0
100
AcDbLine
 10
63.0
 20
51.000000461936
 30
0.0
 11
59.00000028312206
 21
51.000000461936
 31
0.0
  0
LINE
  5
C7
330
17
100
AcDbEntity
  8
0
100
AcDbLine
 10
59.00000028312206
 20
51.000000461936
 30
0.0
 11
58.6909814542071
 21
50.95105649791604
 31
0.0
  0
LINE
  5
C8
330
17
100
AcDbEntity
  8
0
100
AcDbLine
 10
58.6909814542071
 20
50.95105649791604
 30
0.0
 11
58.41221185056456
 21
50.80901546045521
 31
0.0
  0
LINE
  5
C9
330
17
100
AcDbEntity
  8
0
100
AcDbLine
 10
58.41221185056456
 20
50.80901546045521
 30
0.0
 11
58.190979687269234
 21
50.5877814708387
 31
0.0
  0
LINE
  5
CA
330
17
100
AcDbEntity
  8
0
100
AcDbLine
 10
58.190979687269234
 20
50.5877814708387
 30
0.0
 11
58.048940951109415
 21
50.30901069462985
 31
0.0
  0
LINE
  5
CB
330
17
100
AcDbEntity
  8
0
100
AcDbLine
 10
58.048940951109415
 20
50.30901069462985
 30
0.0
 11
57.99999953810041
 21
49.99999146168366
 31
0.0
  0
LINE
  5
CC
330
17
100
AcDbEntity
  8
0
100
AcDbLine
 10
57.99999953810041
 20
49.99999146168366
 30
0.0
 11
58.048946228107766
 21
49.690973064536685
 31
0.0
  0
LINE
  5
CD
330
17
100
AcDbEntity
  8
0
100
AcDbLine
 10
58.048946228107766
 20
49.690973064536685
 30
0.0
 11
58.190989724710825
 21
49.41220471391068
 31
0.0
  0
LINE
  5
CE
330
17
100
AcDbEntity
  8
0
100
AcDbLine
 10
58.190989724710825
 20
49.41220471391068
 30
0.0
 11
58.41222566590372
 21
49.190974502225075
 31
0.0
  0
LINE
  5
CF
330
17
100
AcDbEntity
  8
0
100
AcDbLine
 10
58.41222566590372
 20
49.190974502225075
 30
0.0
 11
58.690997695087106
 21
49.04893822522887
 31
0.0
  0
LINE
  5
D0
330
17
100
AcDbEntity
  8
0
100
AcDbLine
 10
58.690997695087106
 20
49.04893822522887
 30
0.0
 11
59.00001735975473
 21
48.999999538214645
 31
0.0
  0
LINE
  5
D1
330
17
100
AcDbEntity
  8
0
100
AcDbLine
 10
58.999982294895446
 20
48.99999953822069
 30
0.0
 11
63.000000000000014
 21
48.999999538220706
 31
0.0
  0
LINE
  5
D2
330
17
100
AcDbEntity
  8
0
100
AcDbLine
 10
63.000000000000014
 20
48.999999538220706
 30
0.0
 11
63.16887938976557
 21
48.98563626222829
 31
0.0
  0
LINE
  5
D3
330
17
100
AcDbEntity
  8
0
100
AcDbLine
 10
63.16887938976557
 20
48.98563626222829
 30
0.0
 11
63.33290745696186
 21
48.94295904164553
 31
0.0
  0
LINE
  5
D4
330
17
100
AcDbEntity
  8
0
100
AcDbLine
 10
63.33290745696186
 20
48.94295904164553
 30
0.0
 11
63.48737224078961
 21
48.873193845868045
 31
0.0
  0
LINE
  5
D5
330
17
100
AcDbEntity
  8
0
100
AcDbLine
 10
63.48737224078961
 20
48.873193845868045
 30
0.0
 11
63.62783650060635
 21
48.77834478841908
 31
0.0
  0
LINE
  5
D6
330
17
100
AcDbEntity
  8
0
100
AcDbLine
 10
63.62783650060635
 20
48.77834478841908
 30
0.0
 11
63.75026518255046
 21
48.66113655567816
 31
0.0
  0
LINE
  5
D7
330
17
100
AcDbEntity
  8
0
100
AcDbLine
 10
63.75026518255046
 20
48.66113655567816
 30
0.0
 11
63.851141332725625
 21
48.52493613603616
 31
0.0
  0
LINE
  5
D8
330
17
100
AcDbEntity
  8
0
100
AcDbLine
 10
63.851141332725625
 20
48.52493613603616
 30
0.0
 11
63.92756712715982
 21
48.37365609792827
 31
0.0
  0
LINE
  5
D9
330
17
100
AcDbEntity
  8
0
100
AcDbLine
 10
63.92756712715982
 20
48.37365609792827
 30
0.0
 11
63.97734711629625
 21
48.21164219523347
 31
0.0
  0
LINE
  5
DA
330
17
100
AcDbEntity
  8
0
100
AcDbLine
 10
63.97734711629625
 20
48.21164219523347
 30
0.0
 11
63.99905129268918
 21
48.043548528749795
 31
0.0
  0
LINE
  5
DB
330
17
100
AcDbEntity
  8
0
100
AcDbLine
 10
63.99905129268918
 20
48.043548528749795
 30
0.0
 11
63.992056170187176
 21
47.8742038499258
 31
0.0
  0
LINE
  5
DC
330
17
100
AcDbEntity
  8
0
100
AcDbLine
 10
63.99205617018717
 20
47.8742038499258
 30
0.0
 11
64.00000000000003
 21
46.35004315750636
 31
0.0
  0
LINE
  5
DD
330
17
100
AcDbEntity
  8
0
100
AcDbLine
 10
64.00000000000003
 20
46.35004315750636
 30
0.0
 11
64.02638088877615
 21
41.288414868509435
 31
0.0
  0
LINE
  5
DE
330
17
100
AcDbEntity
  8
0
100
AcDbLine
 10
64.02638088877615
 20
41.28841486850947
 30
0.0
 11
64.03336390044878
 21
41.13153182001694
 31
0.0
  0
LINE
  5
DF
330
17
100
AcDbEntity
  8
0
100
AcDbLine
 10
64.03336390044878
 20
41.13153182001694
 30
0.0
 11
64.05263421922213
 21
40.97568026188965
 31
0.0
  0
LINE
  5
E0
330
17
100
AcDbEntity
  8
0
100
AcDbLine
 10
64.05263421922213
 20
40.97568026188965
 30
0.0
 11
64.08407303850632
 21
40.821821060025265
 31
0.0
  0
LINE
  5
E1
330
17
100
AcDbEntity
  8
0
100
AcDbLine
 10
64.08407303850632
 20
40.821821060025265
 30
0.0
 11
64.12748652970141
 21
40.670902796920416
 31
0.0
  0
LINE
  5
E2
330
17
100
AcDbEntity
  8
0
100
AcDbLine
 10
64.12748652970141
 20
40.670902796920416
 30
0.0
 11
64.1826070372017
 21
40.523855923409826
 31
0.0
  0
LINE
  5
E3
330
17
100
AcDbEntity
  8
0
100
AcDbLine
 10
64.1826070372017
 20
40.523855923409826
 30
0.0
 11
64.2490947285631
 21
40.38158702219187
 31
0.0
  0
LINE
  5
E4
330
17
100
AcDbEntity
  8
0
100
AcDbLine
 10
64.2490947285631
 20
40.38158702219187
 30
0.0
 11
64.32653968965951
 21
40.244973218507525
 31
0.0
  0
LINE
  5
E5
330
17
100
AcDbEntity
  8
0
100
AcDbLine
 10
64.32653968965951
 20
40.244973218507525
 30
0.0
 11
64.41446445191153
 21
40.114856772432255
 31
0.0
  0
LINE
  5
E6
330
17
100
AcDbEntity
  8
0
100
AcDbLine
 10
64.41446445191153
 20
40.114856772432255
 30
0.0
 11
64.5123269360058
 21
39.992039886120864
 31
0.0
  0
LINE
  5
E7
330
17
100
AcDbEntity
  8
0
100
AcDbLine
 10
64.5123269360058
 20
39.992039886120864
 30
0.0
 11
64.61952379395692
 21
39.87727975801994
 31
0.0
  0
LINE
  5
E8
330
17
100
AcDbEntity
  8
0
100
AcDbLine
 10
64.61952379395692
 20
39.87727975801994
 30
0.0
 11
65.16030005086202
 21
39.33021375472463
 31
0.0
  0
LINE
  5
E9
330
17
100
AcDbEntity
  8
0
100
AcDbLine
 10
65.16030005086202
 20
39.33021375472463
 30
0.0
 11
65.68892295505407
 21
38.77139536100681
 31
0.0
  0
LINE
  5
EA
330
17
100
AcDbEntity
  8
0
100
AcDbLine
 10
65.68892295505407
 20
38.77139536100681
 30
0.0
 11
66.2051371621773
 21
38.201094506757094
 31
0.0
  0
LINE
  5
EB
330
17
100
AcDbEntity
  8
0
100
AcDbLine
 10
66.2051371621773
 20
38.201094506757094
 30
0.0
 11
66.7086933217342
 21
37.61958666831802
 31
0.0
  0
LINE
  5
EC
330
17
100
AcDbEntity
  8
0
100
AcDbLine
 10
66.7086933217342
 20
37.61958666831802
 30
0.0
 11
67.19934819753107
 21
37.02715273541868
 31
0.0
  0
LINE
  5
ED
330
17
100
AcDbEntity
  8
0
100
AcDbLine
 10
67.19934819753107
 20
37.02715273541868
 30
0.0
 11
67.67686478516993
 21
36.42407887549476
 31
0.0
  0
LINE
  5
EE
330
17
100
AcDbEntity
  8
0
100
AcDbLine
 10
67.67686478516993
 20
36.42407887549476
 30
0.0
 11
68.14101242653047
 21
35.81065639545897
 31
0.0
  0
LINE
  5
EF
330
17
100
AcDbEntity
  8
0
100
AcDbLine
 10
68.14101242653047
 20
35.81065639545897
 30
0.0
 11
68.59156692118643
 21
35.18718160098921
 31
0.0
  0
LINE
  5
F0
330
17
100
AcDbEntity
  8
0
100
AcDbLine
 10
68.59156692118643
 20
35.18718160098921
 30
0.0
 11
69.02831063470266
 21
34.55395565340189
 31
0.0
  0
LINE
  5
F1
330
17
100
AcDbEntity
  8
0
100
AcDbLine
 10
69.02831063470266
 20
34.55395565340189
 30
0.0
 11
69.45103260376055
 21
33.91128442417997
 31
0.0
  0
LINE
  5
F2
330
17
100
AcDbEntity
  8
0
100
AcDbLine
 10
69.45103260376055
 20
33.91128442417997
 30
0.0
 11
69.85952863806116
 21
33.25947834722572
 31
0.0
  0
LINE
  5
F3
330
17
100
AcDbEntity
  8
0
100
AcDbLine
 10
69.85952863806116
 20
33.25947834722572
 30
0.0
 11
70.25360141895656
 21
32.59885226890974
 31
0.0
  0
LINE
  5
F4
330
17
100
AcDbEntity
  8
0
100
AcDbLine
 10
70.25360141895656
 20
32.59885226890974
 30
0.0
 11
70.63306059476211
 21
31.929725295988476
 31
0.0
  0
LINE
  5
F5
330
17
100
AcDbEntity
  8
0
100
AcDbLine
 10
70.63306059476211
 20
31.929725295988476
 30
0.0
 11
70.99772287270332
 21
31.25242064146399
 31
0.0
  0
LINE
  5
F6
330
17
100
AcDbEntity
  8
0
100
AcDbLine
 10
70.99772287270332
 20
31.25242064146399
 30
0.0
 11
71.34741210745298
 21
30.567265468460086
 31
0.0
  0
LINE
  5
F7
330
17
100
AcDbEntity
  8
0
100
AcDbLine
 10
71.34741210745298
 20
30.567265468460086
 30
0.0
 11
71.68195938621588
 21
29.874590732190498
 31
0.0
  0
LINE
  5
F8
330
17
100
AcDbEntity
  8
0
100
AcDbLine
 10
71.68195938621588
 20
29.874590732190498
 30
0.0
 11
72.00120311031989
 21
29.174731020095287
 31
0.0
  0
LINE
  5
F9
330
17
100
AcDbEntity
  8
0
100
AcDbLine
 10
72.00120311031989
 20
29.174731020095287
 30
0.0
 11
72.30498907327417
 21
28.468024390222784
 31
0.0
  0
LINE
  5
FA
330
17
100
AcDbEntity
  8
0
100
AcDbLine
 10
72.30498907327417
 20
28.468024390222784
 30
0.0
 11
72.59317053525645
 21
27.7548122079351
 31
0.0
  0
LINE
  5
FB
330
17
100
AcDbEntity
  8
0
100
AcDbLine
 10
72.59317053525645
 20
27.7548122079351
 30
0.0
 11
72.86560829399387
 21
27.035438981016046
 31
0.0
  0
LINE
  5
FC
330
17
100
AcDbEntity
  8
0
100
AcDbLine
 10
72.86560829399387
 20
27.035438981016046
 30
0.0
 11
73.1221707520028
 21
26.31025219326118
 31
0.0
  0
LINE
  5
FD
330
17
100
AcDbEntity
  8
0
100
AcDbLine
 10
73.1221707520028
 20
26.31025219326118
 30
0.0
 11
73.36273398015527
 21
25.579602136630328
 31
0.0
  0
LINE
  5
FE
330
17
100
AcDbEntity
  8
0
100
AcDbLine
 10
73.36273398015527
 20
25.579602136630328
 30
0.0
 11
73.58718177754125
 21
24.843841742043622
 31
0.0
  0
LINE
  5
FF
330
17
100
AcDbEntity
  8
0
100
AcDbLine
 10
73.58718177754125
 20
24.843841742043622
 30
0.0
 11
73.79540572759811
 21
24.1033264089029
 31
0.0
  0
LINE
  5
100
330
17
100
AcDbEntity
  8
0
100
AcDbLine
 10
73.79540572759811
 20
24.1033264089029
 30
0.0
 11
73.98730525047966
 21
23.358413833420627
 31
0.0
  0
LINE
  5
101
330
17
100
AcDbEntity
  8
0
100
AcDbLine
 10
73.98730525047966
 20
23.358413833420627
 30
0.0
 11
74.16278765164006
 21
22.609463835839488
 31
0.0
  0
LINE
  5
102
330
17
100
AcDbEntity
  8
0
100
AcDbLine
 10
74.16278765164006
 20
22.609463835839488
 30
0.0
 11
74.3217681666086
 21
21.856838186625925
 31
0.0
  0
LINE
  5
103
330
17
100
AcDbEntity
  8
0
100
AcDbLine
 10
74.3217681666086
 20
21.856838186625925
 30
0.0
 11
74.46417000193415
 21
21.100900431721648
 31
0.0
  0
LINE
  5
104
330
17
100
AcDbEntity
  8
0
100
AcDbLine
 10
74.46417000193415
 20
21.100900431721648
 30
0.0
 11
74.58992437227916
 21
20.342015716937553
 31
0.0
  0
LINE
  5
105
330
17
100
AcDbEntity
  8
0
100
AcDbLine
 10
74.58992437227916
 20
20.342015716937553
 30
0.0
 11
74.69897053364554
 21
19.580550611574832
 31
0.0
  0
LINE
  5
106
330
17
100
AcDbEntity
  8
0
100
AcDbLine
 10
74.69897053364554
 20
19.580550611574832
 30
0.0
 11
74.79125581271626
 21
18.81687293135847
 31
0.0
  0
LINE
  5
107
330
17
100
AcDbEntity
  8
0
100
AcDbLine
 10
74.79125581271626
 20
18.81687293135847
 30
0.0
 11
74.8667356322985
 21
18.051351560768705
 31
0.0
  0
LINE
  5
108
330
17
100
AcDbEntity
  8
0
100
AcDbLine
 10
74.8667356322985
 20
18.051351560768705
 30
0.0
 11
74.9253735328561
 21
17.284356274856204
 31
0.0
  0
LINE
  5
109
330
17
100
AcDbEntity
  8
0
100
AcDbLine
 10
74.9253735328561
 20
17.284356274856204
 30
0.0
 11
74.96714119012077
 21
16.516257560627086
 31
0.0
  0
LINE
  5
10A
330
17
100
AcDbEntity
  8
0
100
AcDbLine
 10
74.96714119012077
 20
16.516257560627086
 30
0.0
 11
74.9920184287739
 21
15.747426438084041
 31
0.0
  0
LINE
  5
10B
330
17
100
AcDbEntity
  8
0
100
AcDbLine
 10
74.9920184287739
 20
15.747426438084041
 30
0.0
 11
74.99999323219187
 21
14.97823428100998
 31
0.0
  0
LINE
  5
10C
330
17
100
AcDbEntity
  8
0
100
AcDbLine
 10
74.99999323219187
 20
14.97823428100998
 30
0.0
 11
74.99106174825053
 21
14.209052637580806
 31
0.0
  0
LINE
  5
10D
330
17
100
AcDbEntity
  8
0
100
AcDbLine
 10
74.99106174825053
 20
14.209052637580806
 30
0.0
 11
74.96522829118601
 21
13.440253050893938
 31
0.0
  0
LINE
  5
10E
330
17
100
AcDbEntity
  8
0
100
AcDbLine
 10
74.96522829118601
 20
13.440253050893938
 30
0.0
 11
74.92250533951065
 21
12.672206879499308
 31
0.0
  0
LINE
  5
10F
330
17
100
AcDbEntity
  8
0
100
AcDbLine
 10
74.92250533951065
 20
12.672206879499308
 30
0.0
 11
74.86291352998552
 21
11.905285118019478
 31
0.0
  0
LINE
  5
110
330
17
100
AcDbEntity
  8
0
100
AcDbLine
 10
74.86291352998552
 20
11.905285118019478
 30
0.0
 11
74.78648164765211
 21
11.139858217945557
 31
0.0
  0
LINE
  5
111
330
17
100
AcDbEntity
  8
0
100
AcDbLine
 10
74.78648164765211
 20
11.139858217945557
 30
0.0
 11
74.693246611928
 21
10.376295908695468
 31
0.0
  0
LINE
  5
112
330
17
100
AcDbEntity
  8
0
100
AcDbLine
 10
74.693246611928
 20
10.376295908695468
 30
0.0
 11
74.58325345877348
 21
9.61496701902102
 31
0.0
  0
LINE
  5
113
330
17
100
AcDbEntity
  8
0
100
AcDbLine
 10
74.58325345877348
 20
9.61496701902102
 30
0.0
 11
74.45655531893756
 21
8.856239298849996
 31
0.0
  0
LINE
  5
114
330
17
100
AcDbEntity
  8
0
100
AcDbLine
 10
74.45655531893756
 20
8.856239298849996
 30
0.0
 11
74.31321339229376
 21
8.1004792416494
 31
0.0
  0
LINE
  5
115
330
17
100
AcDbEntity
  8
0
100
AcDbLine
 10
74.31321339229376
 20
8.1004792416494
 30
0.0
 11
74.15329691827844
 21
7.348051907395582
 31
0.0
  0
LINE
  5
116
330
17
100
AcDbEntity
  8
0
100
AcDbLine
 10
74.15329691827844
 20
7.348051907395582
 30
0.0
 11
73.97688314244543
 21
6.599320746236822
 31
0.0
  0
LINE
  5
117
330
17
100
AcDbEntity
  8
0
100
AcDbLine
 10
73.97688314244543
 20
6.599320746236822
 30
0.0
 11
73.78405727915376
 21
5.854647422933491
 31
0.0
  0
LINE
  5
118
330
17
100
AcDbEntity
  8
0
100
AcDbLine
 10
73.78405727915376
 20
5.854647422933491
 30
0.0
 11
73.57491247040588
 21
5.114391642160648
 31
0.0
  0
LINE
  5
119
330
17
100
AcDbEntity
  8
0
100
AcDbLine
 10
73.57491247040588
 20
5.114391642160648
 30
0.0
 11
73.34954974085665
 21
4.378910974757407
 31
0.0
  0
LINE
  5
11A
330
17
100
AcDbEntity
  8
0
100
AcDbLine
 10
73.34954974085665
 20
4.378910974757394
 30
0.0
 11
73.01533807281638
 21
3.577801796181189
 31
0.0
  0
LINE
  5
11B
330
17
100
AcDbEntity
  8
0
100
AcDbLine
 10
73.01533807281638
 20
3.577801796181189
 30
0.0
 11
72.54761063320443
 21
2.8465669520392116
 31
0.0
  0
LINE
  5
11C
330
17
100
AcDbEntity
  8
0
100
AcDbLine
 10
72.54761063320443
 20
2.8465669520392116
 30
0.0
 11
71.96046422854778
 21
2.2072450811853663
 31
0.0
  0
LINE
  5
11D
330
17
100
AcDbEntity
  8
0
100
AcDbLine
 10
71.96046422854778
 20
2.2072450811853663
 30
0.0
 11
71.2715948257034
 21
1.6791046634192943
 31
0.0
  0
LINE
  5
11E
330
17
100
AcDbEntity
  8
0
100
AcDbLine
 10
71.2715948257034
 20
1.6791046634192943
 30
0.0
 11
70.50176421427747
 21
1.2780632880415386
 31
0.0
  0
LINE
  5
11F
330
17
100
AcDbEntity
  8
0
100
AcDbLine
 10
70.50176421427747
 20
1.2780632880415386
 30
0.0
 11
69.67417426841456
 21
1.01620791467694
 31
0.0
  0
LINE
  5
120
330
17
100
AcDbEntity
  8
0
100
AcDbLine
 10
69.67417426841456
 20
1.01620791467694
 30
0.0
 11
68.81376766703937
 21
0.9014305851938094
 31
0.0
  0
LINE
  5
121
330
17
100
AcDbEntity
  8
0
100
AcDbLine
 10
68.81376766703937
 20
0.9014305851938094
 30
0.0
 11
67.94647614809782
 21
0.937190565973335
 31
0.0
  0
LINE
  5
122
330
17
100
AcDbEntity
  8
0
100
AcDbLine
 10
67.94647614809782
 20
0.937190565973335
 30
0.0
 11
67.09843895361335
 21
1.122410089307734
 31
0.0
  0
LINE
  5
123
330
17
100
AcDbEntity
  8
0
100
AcDbLine
 10
67.09843895361335
 20
1.122410089307734
 30
0.0
 11
66.29521502079152
 21
1.451506836170279
 31
0.0
  0
LINE
  5
124
330
17
100
AcDbEntity
  8
0
100
AcDbLine
 10
66.29521502079152
 20
1.4515068361702794
 30
0.0
 11
64.07638397490614
 21
2.5947497126062204
 31
0.0
  0
LINE
  5
125
330
17
100
AcDbEntity
  8
0
100
AcDbLine
 10
64.07638397490614
 20
2.5947497126062187
 30
0.0
 11
63.70291134365995
 21
2.8231082653418214
 31
0.0
  0
LINE
  5
126
330
17
100
AcDbEntity
  8
0
100
AcDbLine
 10
63.70291134365995
 20
2.8231082653418214
 30
0.0
 11
63.36664762608842
 21
3.1033869608262035
 31
0.0
  0
LINE
  5
127
330
17
100
AcDbEntity
  8
0
100
AcDbLine
 10
63.36664762608842
 20
3.1033869608262035
 30
0.0
 11
63.07475260287764
 21
3.42961806038942
 31
0.0
  0
LINE
  5
128
330
17
100
AcDbEntity
  8
0
100
AcDbLine
 10
63.07475260287764
 20
3.42961806038942
 30
0.0
 11
62.833441349399514
 21
3.794855399447556
 31
0.0
  0
LINE
  5
129
330
17
100
AcDbEntity
  8
0
100
AcDbLine
 10
62.833441349399514
 20
3.794855399447556
 30
0.0
 11
62.647851903336104
 21
4.191322286346481
 31
0.0
  0
LINE
  5
12A
330
17
100
AcDbEntity
  8
0
100
AcDbLine
 10
62.647851903336104
 20
4.191322286346481
 30
0.0
 11
62.52193586476207
 21
4.610577084920417
 31
0.0
  0
LINE
  5
12B
330
17
100
AcDbEntity
  8
0
100
AcDbLine
 10
62.52193586476207
 20
4.610577084920417
 30
0.0
 11
62.458374258045914
 21
5.043692955155058
 31
0.0
  0
LINE
  5
12C
330
17
100
AcDbEntity
  8
0
100
AcDbLine
 10
62.458374258045914
 20
5.043692955155058
 30
0.0
 11
62.458520447051654
 21
5.481447924888383
 31
0.0
  0
LINE
  5
12D
330
17
100
AcDbEntity
  8
0
100
AcDbLine
 10
62.458520447051654
 20
5.481447924888383
 30
0.0
 11
62.522371319099676
 21
5.914521245512219
 31
0.0
  0
LINE
  5
12E
330
17
100
AcDbEntity
  8
0
100
AcDbLine
 10
62.522371319099676
 20
5.914521245512219
 30
0.0
 11
62.64856735124239
 21
6.333691850837646
 31
0.0
  0
LINE
  5
12F
330
17
100
AcDbEntity
  8
0
100
AcDbLine
 10
62.64856735124239
 20
6.333691850837651
 30
0.0
 11
63.25120742949604
 21
8.112050154759503
 31
0.0
  0
LINE
  5
130
330
17
100
AcDbEntity
  8
0
100
AcDbLine
 10
63.25120742949604
 20
8.112050154759503
 30
0.0
 11
63.714444711637526
 21
9.931705215884977
 31
0.0
  0
LINE
  5
131
330
17
100
AcDbEntity
  8
0
100
AcDbLine
 10
63.714444711637526
 20
9.931705215884977
 30
0.0
 11
64.03550185491638
 21
11.781747278054105
 31
0.0
  0
LINE
  5
132
330
17
100
AcDbEntity
  8
0
100
AcDbLine
 10
64.03550185491638
 20
11.781747278054105
 30
0.0
 11
64.21245395871739
 21
13.651084399604352
 31
0.0
  0
LINE
  5
133
330
17
100
AcDbEntity
  8
0
100
AcDbLine
 10
64.21245395871739
 20
13.651084399604352
 30
0.0
 11
64.2442401053174
 21
15.528508955193656
 31
0.0
  0
LINE
  5
134
330
17
100
AcDbEntity
  8
0
100
AcDbLine
 10
64.2442401053174
 20
15.528508955193656
 30
0.0
 11
64.13066972062568
 21
17.402764831205882
 31
0.0
  0
LINE
  5
135
330
17
100
AcDbEntity
  8
0
100
AcDbLine
 10
64.13066972062568
 20
17.402764831205882
 30
0.0
 11
63.87242371677246
 21
19.26261491186809
 31
0.0
  0
LINE
  5
136
330
17
100
AcDbEntity
  8
0
100
AcDbLine
 10
63.87242371677246
 20
19.26261491186809
 30
0.0
 11
63.47105040969495
 21
21.096908451466113
 31
0.0
  0
LINE
  5
137
330
17
100
AcDbEntity
  8
0
100
AcDbLine
 10
63.47105040969495
 20
21.096908451466113
 30
0.0
 11
62.92895623619696
 21
22.894647928727736
 31
0.0
  0
LINE
  5
138
330
17
100
AcDbEntity
  8
0
100
AcDbLine
 10
62.92895623619696
 20
22.894647928727736
 30
0.0
 11
62.24939132613822
 21
24.64505498254757
 31
0.0
  0
LINE
  5
139
330
17
100
AcDbEntity
  8
0
100
AcDbLine
 10
62.24939132613822
 20
24.64505498254757
 30
0.0
 11
61.436430016255414
 21
26.337635033735406
 31
0.0
  0
LINE
  5
13A
330
17
100
AcDbEntity
  8
0
100
AcDbLine
 10
61.436430016255414
 20
26.337635033735406
 30
0.0
 11
60.494946422444336
 21
27.962240205347864
 31
0.0
  0
LINE
  5
13B
330
17
100
AcDbEntity
  8
0
100
AcDbLine
 10
60.494946422444336
 20
27.962240205347864
 30
0.0
 11
59.43058521695992
 21
29.509130164364063
 31
0.0
  0
LINE
  5
13C
330
17
100
AcDbEntity
  8
0
100
AcDbLine
 10
59.43058521695992
 20
29.509130164364063
 30
0.0
 11
58.24972778573955
 21
30.969030519928445
 31
0.0
  0
LINE
  5
13D
330
17
100
AcDbEntity
  8
0
100
AcDbLine
 10
58.24972778573955
 20
30.969030519928445
 30
0.0
 11
56.95945396875375
 21
32.33318842803375
 31
0.0
  0
LINE
  5
13E
330
17
100
AcDbEntity
  8
0
100
AcDbLine
 10
56.95945396875375
 20
32.33318842803375
 30
0.0
 11
55.56749961277018
 21
33.59342506926577
 31
0.0
  0
LINE
  5
13F
330
17
100
AcDbEntity
  8
0
100
AcDbLine
 10
55.56749961277018
 20
33.59342506926577
 30
0.0
 11
54.08221019102386
 21
34.74218468497912
 31
0.0
  0
LINE
  5
140
330
17
100
AcDbEntity
  8
0
100
AcDbLine
 10
54.08221019102386
 20
34.74218468497912
 30
0.0
 11
52.512490767867064
 21
35.77257987790736
 31
0.0
  0
LINE
  5
141
330
17
100
AcDbEntity
  8
0
100
AcDbLine
 10
52.512490767867064
 20
35.77257987790736
 30
0.0
 11
50.86775260838624
 21
36.67843290560724
 31
0.0
  0
LINE
  5
142
330
17
100
AcDbEntity
  8
0
100
AcDbLine
 10
50.86775260838624
 20
36.67843290560724
 30
0.0
 11
49.15785675308862
 21
37.45431271916176
 31
0.0
  0
LINE
  5
143
330
17
100
AcDbEntity
  8
0
100
AcDbLine
 10
49.15785675308862
 20
37.45431271916176
 30
0.0
 11
47.39305489595664
 21
38.09556752507659
 31
0.0
  0
LINE
  5
144
330
17
100
AcDbEntity
  8
0
100
AcDbLine
 10
47.39305489595664
 20
38.09556752507659
 30
0.0
 11
45.5839279203364
 21
38.598352675144255
 31
0.0
  0
LINE
  5
145
330
17
100
AcDbEntity
  8
0
100
AcDbLine
 10
45.5839279203364
 20
38.598352675144255
 30
0.0
 11
43.741322461168856
 21
38.95965371706265
 31
0.0
  0
LINE
  5
146
330
17
100
AcDbEntity
  8
0
100
AcDbLine
 10
43.741322461168856
 20
38.95965371706265
 30
0.0
 11
41.87628587390502
 21
39.17730446760732
 31
0.0
  0
LINE
  5
147
330
17
100
AcDbEntity
  8
0
100
AcDbLine
 10
41.87628587390502
 20
39.17730446760732
 30
0.0
 11
40.0
 21
39.250000000000014
 31
0.0
  0
LINE
  5
148
330
17
100
AcDbEntity
  8
0
100
AcDbLine
 10
40.0
 20
39.250000000000014
 30
0.0
 11
38.12371412609499
 21
39.17730446760732
 31
0.0
  0
LINE
  5
149
330
17
100
AcDbEntity
  8
0
100
AcDbLine
 10
38.12371412609499
 20
39.17730446760732
 30
0.0
 11
36.25867753883116
 21
38.95965371706265
 31
0.0
  0
LINE
  5
14A
330
17
100
AcDbEntity
  8
0
100
AcDbLine
 10
36.25867753883116
 20
38.95965371706265
 30
0.0
 11
34.4160720796636
 21
38.598352675144255
 31
0.0
  0
LINE
  5
14B
330
17
100
AcDbEntity
  8
0
100
AcDbLine
 10
34.4160720796636
 20
38.598352675144255
 30
0.0
 11
32.606945104043376
 21
38.09556752507659
 31
0.0
  0
LINE
  5
14C
330
17
100
AcDbEntity
  8
0
100
AcDbLine
 10
32.606945104043376
 20
38.09556752507659
 30
0.0
 11
30.842143246911387
 21
37.45431271916176
 31
0.0
  0
LINE
  5
14D
330
17
100
AcDbEntity
  8
0
100
AcDbLine
 10
30.842143246911387
 20
37.45431271916176
 30
0.0
 11
29.132247391613763
 21
36.67843290560724
 31
0.0
  0
LINE
  5
14E
330
17
100
AcDbEntity
  8
0
100
AcDbLine
 10
29.132247391613763
 20
36.67843290560724
 30
0.0
 11
27.487509232132943
 21
35.772579877907376
 31
0.0
  0
LINE
  5
14F
330
17
100
AcDbEntity
  8
0
100
AcDbLine
 10
27.487509232132943
 20
35.772579877907376
 30
0.0
 11
25.917789808976142
 21
34.74218468497912
 31
0.0
  0
LINE
  5
150
330
17
100
AcDbEntity
  8
0
100
AcDbLine
 10
25.917789808976142
 20
34.74218468497912
 30
0.0
 11
24.432500387229823
 21
33.59342506926578
 31
0.0
  0
LINE
  5
151
330
17
100
AcDbEntity
  8
0
100
AcDbLine
 10
24.432500387229823
 20
33.59342506926578
 30
0.0
 11
23.040546031246258
 21
32.333188428033765
 31
0.0
  0
LINE
  5
152
330
17
100
AcDbEntity
  8
0
100
AcDbLine
 10
23.040546031246258
 20
32.333188428033765
 30
0.0
 11
21.750272214260452
 21
30.969030519928456
 31
0.0
  0
LINE
  5
153
330
17
100
AcDbEntity
  8
0
100
AcDbLine
 10
21.750272214260452
 20
30.969030519928456
 30
0.0
 11
20.56941478304008
 21
29.509130164364066
 31
0.0
  0
LINE
  5
154
330
17
100
AcDbEntity
  8
0
100
AcDbLine
 10
20.56941478304008
 20
29.509130164364066
 30
0.0
 11
19.505053577555667
 21
27.962240205347868
 31
0.0
  0
LINE
  5
155
330
17
100
AcDbEntity
  8
0
100
AcDbLine
 10
19.505053577555667
 20
27.962240205347868
 30
0.0
 11
18.563569983744593
 21
26.337635033735413
 31
0.0
  0
LINE
  5
156
330
17
100
AcDbEntity
  8
0
100
AcDbLine
 10
18.563569983744593
 20
26.337635033735413
 30
0.0
 11
17.750608673861784
 21
24.645054982547585
 31
0.0
  0
LINE
  5
157
330
17
100
AcDbEntity
  8
0
100
AcDbLine
 10
17.750608673861784
 20
24.645054982547585
 30
0.0
 11
17.071043763803043
 21
22.894647928727743
 31
0.0
  0
LINE
  5
158
330
17
100
AcDbEntity
  8
0
100
AcDbLine
 10
17.071043763803043
 20
22.894647928727743
 30
0.0
 11
16.528949590305047
 21
21.09690845146612
 31
0.0
  0
LINE
  5
159
330
17
100
AcDbEntity
  8
0
100
AcDbLine
 10
16.528949590305047
 20
21.09690845146612
 30
0.0
 11
16.12757628322754
 21
19.262614911868102
 31
0.0
  0
LINE
  5
15A
330
17
100
AcDbEntity
  8
0
100
AcDbLine
 10
16.12757628322754
 20
19.262614911868102
 30
0.0
 11
15.869330279374328
 21
17.402764831205886
 31
0.0
  0
LINE
  5
15B
330
17
100
AcDbEntity
  8
0
100
AcDbLine
 10
15.869330279374328
 20
17.402764831205886
 30
0.0
 11
15.755759894682601
 21
15.528508955193665
 31
0.0
  0
LINE
  5
15C
330
17
100
AcDbEntity
  8
0
100
AcDbLine
 10
15.755759894682601
 20
15.528508955193665
 30
0.0
 11
15.787546041282603
 21
13.651084399604363
 31
0.0
  0
LINE
  5
15D
330
17
100
AcDbEntity
  8
0
100
AcDbLine
 10
15.787546041282603
 20
13.651084399604363
 30
0.0
 11
15.964498145083628
 21
11.781747278054109
 31
0.0
  0
LINE
  5
15E
330
17
100
AcDbEntity
  8
0
100
AcDbLine
 10
15.964498145083628
 20
11.781747278054109
 30
0.0
 11
16.285555288362474
 21
9.931705215884982
 31
0.0
  0
LINE
  5
15F
330
17
100
AcDbEntity
  8
0
100
AcDbLine
 10
16.285555288362474
 20
9.931705215884982
 30
0.0
 11
16.748792570503955
 21
8.112050154759512
 31
0.0
  0
LINE
  5
160
330
17
100
AcDbEntity
  8
0
100
AcDbLine
 10
16.748792570503955
 20
8.112050154759512
 30
0.0
 11
17.351432648757605
 21
6.333691850837663
 31
0.0
  0
LINE
  5
161
330
17
100
AcDbEntity
  8
0
100
AcDbLine
 10
17.351432648757612
 20
6.333691850837653
 30
0.0
 11
17.47762868090033
 21
5.914521245512226
 31
0.0
  0
LINE
  5
162
330
17
100
AcDbEntity
  8
0
100
AcDbLine
 10
17.47762868090033
 20
5.914521245512226
 30
0.0
 11
17.541479552948353
 21
5.481447924888389
 31
0.0
  0
LINE
  5
163
330
17
100
AcDbEntity
  8
0
100
AcDbLine
 10
17.541479552948353
 20
5.481447924888389
 30
0.0
 11
17.541625741954096
 21
5.0436929551550636
 31
0.0
  0
LINE
  5
164
330
17
100
AcDbEntity
  8
0
100
AcDbLine
 10
17.541625741954096
 20
5.0436929551550636
 30
0.0
 11
17.47806413523794
 21
4.610577084920422
 31
0.0
  0
LINE
  5
165
330
17
100
AcDbEntity
  8
0
100
AcDbLine
 10
17.47806413523794
 20
4.610577084920422
 30
0.0
 11
17.352148096663907
 21
4.191322286346485
 31
0.0
  0
LINE
  5
166
330
17
100
AcDbEntity
  8
0
100
AcDbLine
 10
17.352148096663907
 20
4.191322286346485
 30
0.0
 11
17.166558650600493
 21
3.7948553994475587
 31
0.0
  0
LINE
  5
167
330
17
100
AcDbEntity
  8
0
100
AcDbLine
 10
17.166558650600493
 20
3.7948553994475587
 30
0.0
 11
16.92524739712237
 21
3.4296180603894224
 31
0.0
  0
LINE
  5
168
330
17
100
AcDbEntity
  8
0
100
AcDbLine
 10
16.92524739712237
 20
3.4296180603894224
 30
0.0
 11
16.63335237391159
 21
3.103386960826204
 31
0.0
  0
LINE
  5
169
330
17
100
AcDbEntity
  8
0
100
AcDbLine
 10
16.63335237391159
 20
3.103386960826204
 30
0.0
 11
16.29708865634006
 21
2.8231082653418222
 31
0.0
  0
LINE
  5
16A
330
17
100
AcDbEntity
  8
0
100
AcDbLine
 10
16.29708865634006
 20
2.8231082653418222
 30
0.0
 11
15.923616025093873
 21
2.5947497126062187
 31
0.0
  0
LINE
  5
16B
330
17
100
AcDbEntity
  8
0
100
AcDbLine
 10
15.923616025093871
 20
2.5947497126062187
 30
0.0
 11
13.704784979208494
 21
1.4515068361702799
 31
0.0
  0
LINE
  5
16C
330
17
100
AcDbEntity
  8
0
100
AcDbLine
 10
13.704784979208497
 20
1.4515068361702834
 30
0.0
 11
12.901561046386655
 21
1.1224100893077376
 31
0.0
  0
LINE
  5
16D
330
17
100
AcDbEntity
  8
0
100
AcDbLine
 10
12.901561046386655
 20
1.1224100893077376
 30
0.0
 11
12.053523851902199
 21
0.9371905659733386
 31
0.0
  0
LINE
  5
16E
330
17
100
AcDbEntity
  8
0
100
AcDbLine
 10
12.053523851902199
 20
0.9371905659733386
 30
0.0
 11
11.186232332960646
 21
0.901430585193812
 31
0.0
  0
LINE
  5
16F
330
17
100
AcDbEntity
  8
0
100
AcDbLine
 10
11.186232332960646
 20
0.901430585193812
 30
0.0
 11
10.325825731585448
 21
1.0162079146769418
 31
0.0
  0
LINE
  5
170
330
17
100
AcDbEntity
  8
0
100
AcDbLine
 10
10.325825731585448
 20
1.0162079146769418
 30
0.0
 11
9.498235785722533
 21
1.2780632880415403
 31
0.0
  0
LINE
  5
171
330
17
100
AcDbEntity
  8
0
100
AcDbLine
 10
9.498235785722533
 20
1.2780632880415403
 30
0.0
 11
8.728405174296611
 21
1.6791046634192943
 31
0.0
  0
LINE
  5
172
330
17
100
AcDbEntity
  8
0
100
AcDbLine
 10
8.728405174296611
 20
1.6791046634192943
 30
0.0
 11
8.039535771452227
 21
2.207245081185366
 31
0.0
  0
LINE
  5
173
330
17
100
AcDbEntity
  8
0
100
AcDbLine
 10
8.039535771452227
 20
2.207245081185366
 30
0.0
 11
7.452389366795577
 21
2.846566952039213
 31
0.0
  0
LINE
  5
174
330
17
100
AcDbEntity
  8
0
100
AcDbLine
 10
7.452389366795577
 20
2.846566952039213
 30
0.0
 11
6.984661927183622
 21
3.577801796181191
 31
0.0
  0
ENDSEC
  0
SECTION
  2
OBJECTS
  0
DICTIONARY
  5
A
330
0
100
AcDbDictionary
281
1
  3
ACAD_COLOR
350
B
  3
ACAD_GROUP
350
C
  3
ACAD_LAYOUT
350
D
  3
ACAD_MATERIAL
350
E
  3
ACAD_MLEADERSTYLE
350
F
  3
ACAD_MLINESTYLE
350
10
  3
ACAD_PLOTSETTINGS
350
11
  3
ACAD_PLOTSTYLENAME
350
12
  3
ACAD_SCALELIST
350
14
  3
ACAD_TABLESTYLE
350
15
  3
ACAD_VISUALSTYLE
350
16
  3
EZDXF_META
350
2D
  0
DICTIONARY
  5
B
330
A
100
AcDbDictionary
281
1
  0
DICTIONARY
  5
C
330
A
100
AcDbDictionary
281
1
  0
DICTIONARY
  5
D
330
A
100
AcDbDictionary
281
1
  3
Model
350
1A
  3
Layout1
350
1E
  0
DICTIONARY
  5
E
330
A
100
AcDbDictionary
281
1
  3
ByBlock
350
1F
  3
ByLayer
350
20
  3
Global
350
21
  0
DICTIONARY
  5
F
330
A
100
AcDbDictionary
281
1
  3
Standard
350
2C
  0
DICTIONARY
  5
10
330
A
100
AcDbDictionary
281
1
  3
Standard
350
22
  0
DICTIONARY
  5
11
330
A
100
AcDbDictionary
281
1
  0
ACDBDICTIONARYWDFLT
  5
12
330
A
100
AcDbDictionary
281
1
  3
Normal
350
13
100
AcDbDictionaryWithDefault
340
13
  0
ACDBPLACEHOLDER
  5
13
330
12
  0
DICTIONARY
  5
14
330
A
100
AcDbDictionary
281
1
  0
DICTIONARY
  5
15
330
A
100
AcDbDictionary
281
1
  0
DICTIONARY
  5
16
330
A
100
AcDbDictionary
281
1
  0
LAYOUT
  5
1A
330
D
100
AcDbPlotSettings
  1

  4
A3
  6

 40
7.5
 41
20.0
 42
7.5
 43
20.0
 44
420.0
 45
297.0
 46
0.0
 47
0.0
 48
0.0
 49
0.0
140
0.0
141
0.0
142
1.0
143
1.0
 70
1024
 72
1
 73
0
 74
5
  7

 75
16
 76
0
 77
2
 78
300
147
1.0
148
0.0
149
0.0
100
AcDbLayout
  1
Model
 70
1
 71
0
 10
0.0
 20
0.0
 11
420.0
 21
297.0
 12
0.0
 22
0.0
 32
0.0
 14
1e+20
 24
1e+20
 34
1e+20
 15
-1e+20
 25
-1e+20
 35
-1e+20
146
0.0
 13
0.0
 23
0.0
 33
0.0
 16
1.0
 26
0.0
 36
0.0
 17
0.0
 27
1.0
 37
0.0
 76
1
330
17
  0
LAYOUT
  5
1E
330
D
100
AcDbPlotSettings
  1

  4
A3
  6

 40
7.5
 41
20.0
 42
7.5
 43
20.0
 44
420.0
 45
297.0
 46
0.0
 47
0.0
 48
0.0
 49
0.0
140
0.0
141
0.0
142
1.0
143
1.0
 70
0
 72
1
 73
0
 74
5
  7

 75
16
 76
0
 77
2
 78
300
147
1.0
148
0.0
149
0.0
100
AcDbLayout
  1
Layout1
 70
1
 71
1
 10
0.0
 20
0.0
 11
420.0
 21
297.0
 12
0.0
 22
0.0
 32
0.0
 14
1e+20
 24
1e+20
 34
1e+20
 15
-1e+20
 25
-1e+20
 35
-1e+20
146
0.0
 13
0.0
 23
0.0
 33
0.0
 16
1.0
 26
0.0
 36
0.0
 17
0.0
 27
1.0
 37
0.0
 76
1
330
1B
  0
MATERIAL
  5
1F
102
{ACAD_REACTORS
330
E
102
}
330
E
100
AcDbMaterial
  1
ByBlock
  2

 70
0
 40
1.0
 71
1
 41
1.0
 91
-1023410177
 42
1.0
 72
1
  3

 73
1
 74
1
 75
1
 44
0.5
 73
0
 45
1.0
 46
1.0
 77
1
  4

 78
1
 79
1
170
1
 48
1.0
171
1
  6

172
1
173
1
174
1
140
1.0
141
1.0
175
1
  7

176
1
177
1
178
1
143
1.0
179
1
  8

270
1
271
1
272
1
145
1.0
146
1.0
273
1
  9

274
1
275
1
276
1
 42
1.0
 72
1
  3

 73
1
 74
1
 75
1
 94
63
  0
MATERIAL
  5
20
102
{ACAD_REACTORS
330
E
102
}
330
E
100
AcDbMaterial
  1
ByLayer
  2

 70
0
 40
1.0
 71
1
 41
1.0
 91
-1023410177
 42
1.0
 72
1
  3

 73
1
 74
1
 75
1
 44
0.5
 73
0
 45
1.0
 46
1.0
 77
1
  4

 78
1
 79
1
170
1
 48
1.0
171
1
  6

172
1
173
1
174
1
140
1.0
141
1.0
175
1
  7

176
1
177
1
178
1
143
1.0
179
1
  8

270
1
271
1
272
1
145
1.0
146
1.0
273
1
  9

274
1
275
1
276
1
 42
1.0
 72
1
  3

 73
1
 74
1
 75
1
 94
63
  0
MATERIAL
  5
21
102
{ACAD_REACTORS
330
E
102
}
330
E
100
AcDbMaterial
  1
Global
  2

 70
0
 40
1.0
 71
1
 41
1.0
 91
-1023410177
 42
1.0
 72
1
  3

 73
1
 74
1
 75
1
 44
0.5
 73
0
 45
1.0
 46
1.0
 77
1
  4

 78
1
 79
1
170
1
 48
1.0
171
1
  6

172
1
173
1
174
1
140
1.0
141
1.0
175
1
  7

176
1
177
1
178
1
143
1.0
179
1
  8

270
1
271
1
272
1
145
1.0
146
1.0
273
1
  9

274
1
275
1
276
1
 42
1.0
 72
1
  3

 73
1
 74
1
 75
1
 94
63
  0
MLINESTYLE
  5
22
102
{ACAD_REACTORS
330
10
102
}
330
10
100
AcDbMlineStyle
  2
Standard
 70
0
  3

 62
256
 51
90.0
 52
90.0
 71
2
 49
0.5
 62
256
  6
BYLAYER
 49
-0.5
 62
256
  6
BYLAYER
  0
MLEADERSTYLE
  5
2C
102
{ACAD_REACTORS
330
F
102
}
330
F
100
AcDbMLeaderStyle
179
2
170
2
171
1
172
0
 90
2
 40
0.0
 41
0.0
173
1
 91
-1056964608
 92
-2
290
1
 42
2.0
291
1
 43
8.0
  3
Standard
 44
4.0
300

342
29
174
1
175
1
176
0
178
1
 93
-1056964608
 45
4.0
292
0
297
0
 46
4.0
 94
-1056964608
 47
1.0
 49
1.0
140
1.0
294
1
141
0.0
177
0
142
1.0
295
0
296
0
143
3.75
271
0
272
9
273
9
  0
DICTIONARY
  5
2D
330
A
100
AcDbDictionary
280
1
281
1
  3
CREATED_BY_EZDXF
350
2E
  3
WRITTEN_BY_EZDXF
350
177
  0
DICTIONARYVAR
  5
2E
330
2D
100
DictionaryVariables
280
0
  1
1.4.2 @ 2025-10-08T05:40:51.051457+00:00
  0
DICTIONARYVAR
  5
177
330
2D
100
DictionaryVariables
280
0
  1
1.4.2 @ 2025-10-08T05:40:51.141023+00:00
  0
ENDSEC
  0
EOF
