0
SECTION
2
HEADER
9
$INSUNITS
70
4
9
$ACADVER
1
AC1014
9
$HANDSEED
5
FFFF
0
ENDSEC
0
SECTION
2
TABLES
0
TABLE
2
VPORT
5
8
100
AcDbSymbolTable
0
ENDTAB
0
TABLE
2
LTYPE
5
5
100
AcDbSymbolTable
0
LTYPE
5
14
100
AcDbSymbolTableRecord
100
AcDbLinetypeTableRecord
2
BYBLOCK
70
0
0
LTYPE
5
15
100
AcDbSymbolTableRecord
100
AcDbLinetypeTableRecord
2
BYLAYER
70
0
0
LTYPE
5
16
100
AcDbSymbolTableRecord
100
AcDbLinetypeTableRecord
2
DASHED
70
0
3
Dashed __ __ __ __ __ __ __ __ __ __ __ __ __ _
72
65
73
2
40
0.75
49
0.5
74
0
49
-0.25
74
0
0
ENDTAB
0
TABLE
2
LAYER
5
2
100
AcDbSymbolTable
70
2
0
LAYER
5
50
100
AcDbSymbolTableRecord
100
AcDbLayerTableRecord
2
0
70
0
62
7
6
CONTINUOUS
0
ENDTAB
0
TABLE
2
STYLE
5
3
100
AcDbSymbolTable
70
1
0
STYLE
5
11
100
AcDbSymbolTableRecord
100
AcDbTextStyleTableRecord
2
STANDARD
70
0
0
ENDTAB
0
TABLE
2
VIEW
5
6
100
AcDbSymbolTable
70
0
0
ENDTAB
0
TABLE
2
UCS
5
7
100
AcDbSymbolTable
70
0
0
ENDTAB
0
TABLE
2
APPID
5
9
100
AcDbSymbolTable
70
2
0
APPID
5
12
100
AcDbSymbolTableRecord
100
AcDbRegAppTableRecord
2
ACAD
70
0
0
ENDTAB
0
TABLE
2
DIMSTYLE
5
A
100
AcDbSymbolTable
70
1
0
ENDTAB
0
TABLE
2
BLOCK_RECORD
5
1
100
AcDbSymbolTable
70
1
0
BLOCK_RECORD
5
1F
100
AcDbSymbolTableRecord
100
AcDbBlockTableRecord
2
*MODEL_SPACE
0
BLOCK_RECORD
5
1B
100
AcDbSymbolTableRecord
100
AcDbBlockTableRecord
2
*PAPER_SPACE
0
ENDTAB
0
ENDSEC
0
SECTION
2
BLOCKS
0
BLOCK
5
20
100
AcDbEntity
100
AcDbBlockBegin
2
*MODEL_SPACE
0
ENDBLK
5
21
100
AcDbEntity
100
AcDbBlockEnd
0
BLOCK
5
1C
100
AcDbEntity
100
AcDbBlockBegin
2
*PAPER_SPACE
0
ENDBLK
5
1D
100
AcDbEntity
100
AcDbBlockEnd
0
ENDSEC
0
SECTION
2
ENTITIES
0
LINE
5
100
100
AcDbEntity
8
0
100
AcDbLine
10
-25.00000037252903
20
30.000000447034836
30
0
11
-25.00000037252903
21
24.899798806988187
31
0
0
LINE
5
101
100
AcDbEntity
8
0
100
AcDbLine
10
-25.00000037252903
20
30.000000447034836
30
0
11
-25.00000037252903
21
33.000000521540642
31
0
0
LINE
5
102
100
AcDbEntity
8
0
100
AcDbLine
10
-23.00000037252903
20
35.000000521540642
30
0
11
-15.000000000000009
21
35.000000521540649
31
0
0
LINE
5
103
100
AcDbEntity
8
0
100
AcDbLine
10
-14.000000000000004
20
34.000000521540642
30
0
11
-14.000000000000002
21
32.000000461935997
31
0
0
LINE
5
104
100
AcDbEntity
8
0
100
AcDbLine
10
-19.000000283122063
20
29.000000432133675
30
0
11
11.000000000000005
21
29.000000432133675
31
0
0
LINE
5
105
100
AcDbEntity
8
0
100
AcDbLine
10
13.000000000000005
20
31.000000432133675
30
0
11
13.000000000000005
21
33.00000040548764
31
0
0
LINE
5
106
100
AcDbEntity
8
0
100
AcDbLine
10
15.000000000000007
20
35.000000405487633
30
0
11
23.000000000000011
21
35.00000040548764
31
0
0
LINE
5
107
100
AcDbEntity
8
0
100
AcDbLine
10
18.999982294895446
20
28.999999538220692
30
0
11
23.000000000000007
21
28.999999538220692
31
0
0
LINE
5
108
100
AcDbEntity
8
0
100
AcDbLine
10
19.000000283122063
20
31.000000461935997
30
0
11
22.999999999999993
21
31.000000461935997
31
0
0
LINE
5
109
100
AcDbEntity
8
0
100
AcDbLine
10
23.999999999999993
20
34.000000405487626
30
0
11
24.000000000000004
21
32.000000461936004
31
0
0
LINE
5
110
100
AcDbEntity
8
0
100
AcDbLine
10
24.000000000000004
20
27.999999538220685
30
0
11
24.000000000000004
21
25.903667693978353
31
0
0
ARC
5
111
100
AcDbEntity
8
0
100
AcDbCircle
10
19
20
30
30
0
40
1.0000004619360372
210
0
220
-0
230
1
100
AcDbArc
50
89.99998377830822
51
270.00099464022014
0
LINE
5
112
100
AcDbEntity
8
0
100
AcDbLine
10
-19.000000283122063
20
31.000000461935997
30
0
11
-15.000000000000007
21
31.000000461935997
31
0
0
ARC
5
113
100
AcDbEntity
8
0
100
AcDbCircle
10
-19
20
30
30
0
40
1.0000004619360372
210
0
220
0
230
1
100
AcDbArc
50
90.000016221691794
51
270.07661666671464
0
ARC
5
114
100
AcDbEntity
8
0
100
AcDbCircle
10
-15.000000000000009
20
34.000000521540642
30
0
40
1.0000000000000053
210
0
220
-0
230
1
100
AcDbArc
50
0
51
90
0
ARC
5
115
100
AcDbEntity
8
0
100
AcDbCircle
10
-15.000000000000007
20
32.000000461936004
30
0
40
1.0000000000000053
210
-0
220
0
230
1
100
AcDbArc
50
270
51
360
0
ARC
5
116
100
AcDbEntity
8
0
100
AcDbCircle
10
23
20
34.000000405487626
30
0
40
0.99999999999999645
210
0
220
-0
230
1
100
AcDbArc
50
0
51
89.999999999999389
0
ARC
5
117
100
AcDbEntity
8
0
100
AcDbCircle
10
22.999999999999989
20
32.000000461936004
30
0
40
1.0000000000000098
210
-0
220
0
230
1
100
AcDbArc
50
-89.999999999999801
51
0
0
ARC
5
118
100
AcDbEntity
8
0
100
AcDbCircle
10
22.999999999999993
20
27.999999538220681
30
0
40
1.0000000000000098
210
0
220
-0
230
1
100
AcDbArc
50
0
51
89.99999999999919
0
ARC
5
119
100
AcDbEntity
8
0
100
AcDbCircle
10
-26.000000372529065
20
24.899798806988201
30
0
40
1.0000000000000371
210
-0
220
0
230
1
100
AcDbArc
50
316.23825816453081
51
360
0
ARC
5
120
100
AcDbEntity
8
0
100
AcDbCircle
10
25.000000000000014
20
25.903667693978356
30
0
40
1.0000000000000098
210
0
220
0
230
1
100
AcDbArc
50
180
51
226.01703686964285
0
ARC
5
121
100
AcDbEntity
8
0
100
AcDbCircle
10
10.999999999999993
20
31.000000432133685
30
0
40
2.0000000000000107
210
-0
220
0
230
1
100
AcDbArc
50
270.00000000000034
51
360
0
ARC
5
122
100
AcDbEntity
8
0
100
AcDbCircle
10
-23.000000372529023
20
33.000000521540635
30
0
40
2.0000000000000062
210
0
220
0
230
1
100
AcDbArc
50
90.000000000000199
51
180
0
ARC
5
123
100
AcDbEntity
8
0
100
AcDbCircle
10
15.000000000000014
20
33.00000040548764
30
0
40
1.9999999999999929
210
0
220
0
230
1
100
AcDbArc
50
90.000000000000199
51
180
0
LINE
5
124
100
AcDbEntity
8
0
100
AcDbLine
10
-23.08116246169163
20
-11.927277116634677
30
0
11
-30.19234070087284
21
-15.602005095577219
31
0
0
LINE
5
125
100
AcDbEntity
8
0
100
AcDbLine
10
23.081162461691633
20
-11.927277116634681
30
0
11
30.192340700872847
21
-15.602005095577223
31
0
0
ARC
5
126
100
AcDbEntity
8
0
100
AcDbCircle
10
0
20
0
30
0
40
25
210
0
220
0
230
1
100
AcDbArc
50
-25.123601604809576
51
205.12360160480955
0
ARC
5
127
100
AcDbEntity
8
0
100
AcDbCircle
10
0
20
0
30
0
40
35
210
0
220
0
230
1
100
AcDbArc
50
136.23825816452955
51
205.64241606855893
0
ARC
5
128
100
AcDbEntity
8
0
100
AcDbCircle
10
0
20
0
30
0
40
35.000000000000007
210
0
220
0
230
1
100
AcDbArc
50
-25.642416068558937
51
46.017036869642524
0
ARC
5
129
100
AcDbEntity
8
0
100
AcDbCircle
10
-23.540243571957514
20
-11.038882759270198
30
0
40
1.0000000000000027
210
0
220
0
230
1
100
AcDbArc
50
-62.672170891218599
51
25.123601604809902
0
ARC
5
130
100
AcDbEntity
8
0
100
AcDbCircle
10
-30.651421811138725
20
-14.713610738212745
30
0
40
0.99999999999999634
210
0
220
0
230
1
100
AcDbArc
50
205.64241606855802
51
297.3278291087816
0
ARC
5
131
100
AcDbEntity
8
0
100
AcDbCircle
10
23.540243571957518
20
-11.038882759270201
30
0
40
1.0000000000000024
210
0
220
0
230
1
100
AcDbArc
50
154.87639839519113
51
242.67217089121854
0
ARC
5
132
100
AcDbEntity
8
0
100
AcDbCircle
10
30.651421811138736
20
-14.713610738212747
30
0
40
0.99999999999999867
210
0
220
0
230
1
100
AcDbArc
50
242.67217089121829
51
334.35758393144101
0
ENDSEC
0
SECTION
2
OBJECTS
0
DICTIONARY
5
C
100
AcDbDictionary
3
ACAD_GROUP
350
D
3
ACAD_MLINESTYLE
350
17
0
DICTIONARY
5
D
100
AcDbDictionary
0
DICTIONARY
5
1A
330
C
100
AcDbDictionary
0
DICTIONARY
5
17
100
AcDbDictionary
0
ENDSEC
0
EOF
