  0
SECTION
  2
HEADER
  9
$ACADVER
  1
AC1009
  9
$INSBASE
 10
0.0
 20
0.0
 30
0.0
  9
$EXTMIN
 10
0.0
 20
0.0
 30
0.0
  9
$EXTMAX
 10
0.0
 20
0.0
 30
0.0
  0
ENDSEC
  0
SECTION
  2
TABLES
  0
TABLE
  2
VPORT
 70
1
  0
VPORT
  2
*ACTIVE
 70
0
 10
0.0
 20
0.0
 11
1.0
 21
1.0
 12
-5.0
 22
1.0
 13
0.0
 23
0.0
 14
0.1
 24
0.1
 15
0.1
 25
0.1
 16
0.0
 26
0.0
 36
1.0
 17
0.0
 27
0.0
 37
0.0
 40
10.0
 41
1.0
 42
50.0
 43
0.0
 44
0.0
 50
0.0
 51
0.0
 71
0
 72
100
 73
1
 74
1
 75
0
 76
0
 77
0
 78
0
  0
ENDTAB
  0
TABLE
  2
LTYPE
 70
8
  0
LTYPE
  2
CONTINUOUS
 70
0
  3
Solid line
 72
65
 73
0
 40
0.0
  0
LTYPE
  2
DOT
 70
0
  3
. . . . . . .
 72
65
 73
2
 40
0.25
 49
0.0
 49
-0.25
  0
LTYPE
  2
DASHED
 70
0
  3
__ __ __ __ __
 72
65
 73
2
 40
0.8
 49
0.5
 49
-0.3
  0
LTYPE
  2
DASHDOT
 70
0
  3
__ . __ . __ .
 72
65
 73
4
 40
1.0
 49
0.5
 49
-0.25
 49
0.0
 49
-0.25
  0
LTYPE
  2
DIVIDE
 70
0
  3
____ . . ____ . . 
 72
65
 73
6
 40
1.25
 49
0.5
 49
-0.25
 49
0.0
 49
-0.25
 49
0.0
 49
-0.25
  0
LTYPE
  2
BORDER
 70
0
  3
__ __ . __ __ . 
 72
65
 73
6
 40
1.75
 49
0.5
 49
-0.25
 49
0.5
 49
-0.25
 49
0.0
 49
-0.25
  0
LTYPE
  2
HIDDEN
 70
0
  3
__ __ __ __ __
 72
65
 73
2
 40
0.4
 49
0.25
 49
-0.25
  0
LTYPE
  2
CENTER
 70
0
  3
____ _ ____ _ __
 72
65
 73
4
 40
2.0
 49
1.25
 49
-0.25
 49
0.25
 49
-0.25
  0
ENDTAB
  0
TABLE
  2
LAYER
 70
1
  0
LAYER
  2
PYDXF
 70
64
 62
7
  6
continuous
  0
ENDTAB
  0
TABLE
  2
STYLE
 70
1
  0
STYLE
  2
STANDARD
 70
0
 40
0
 41
1.0
 50
0.0
 71
0
 42
1
 3
ARIAL.TTF
 4

  0
ENDTAB
  0
TABLE
  2
VIEW
 70
1
  0
VIEW
  2
BF_TOPVIEW
 70
0
 40
120.0
 10
0.0
 20
0.0
 41
200.0
 11
0.0
 21
0.0
 31
1.0
 12
0.0
 22
0.0
 32
0.0
 42
50.0
 43
0.0
 44
0.0
 50
0.0
 71
0
  0
ENDTAB
  0
ENDSEC
  0
SECTION
  2
BLOCKS
  0
ENDSEC
  0
SECTION
  2
ENTITIES
  0
3DFACE
  8
0
 10
-29.90948486328125
 20
-69.64799499511719
 30
136.0
 11
-29.846681594848633
 21
-69.67530822753906
 31
136.0
 12
-28.39881706237793
 22
-70.14200592041016
 32
136.0
 13
-28.39881706237793
 23
-70.14200592041016
 33
136.0
  0
3DFACE
  8
0
 10
-28.39881706237793
 20
-70.14200592041016
 30
136.0
 11
-28.008481979370117
 21
-70.2169189453125
 31
136.0
 12
-27.499174118041992
 22
-70.2923583984375
 32
136.0
 13
-27.499174118041992
 23
-70.2923583984375
 33
136.0
  0
3DFACE
  8
0
 10
-27.499174118041992
 20
-70.2923583984375
 30
136.0
 11
-26.716672897338867
 21
-70.34886169433594
 31
136.0
 12
-26.27606201171875
 22
-70.35877990722656
 32
136.0
 13
-26.27606201171875
 23
-70.35877990722656
 33
136.0
  0
3DFACE
  8
0
 10
-26.27606201171875
 20
-70.35877990722656
 30
136.0
 11
-25.934167861938477
 21
-70.35052490234375
 31
136.0
 12
-25.450210571289062
 22
-70.29247283935547
 32
136.0
 13
-25.450210571289062
 23
-70.29247283935547
 33
136.0
  0
3DFACE
  8
0
 10
-25.450210571289062
 20
-70.29247283935547
 30
136.0
 11
-25.151662826538086
 21
-70.26219177246094
 31
136.0
 12
-24.51719856262207
 22
-70.1622543334961
 32
136.0
 13
-24.51719856262207
 23
-70.1622543334961
 33
136.0
  0
3DFACE
  8
0
 10
-24.51719856262207
 20
-70.1622543334961
 30
136.0
 11
-24.369165420532227
 21
-70.13677215576172
 31
136.0
 12
-23.7161808013916
 22
-69.99707794189453
 32
136.0
 13
-23.7161808013916
 23
-69.99707794189453
 33
136.0
  0
3DFACE
  8
0
 10
-23.7161808013916
 20
-69.99707794189453
 30
136.0
 11
-23.58665657043457
 21
-69.96469116210938
 31
136.0
 12
-23.475358963012695
 22
-69.91764068603516
 32
136.0
 13
-23.475358963012695
 23
-69.91764068603516
 33
136.0
  0
3DFACE
  8
0
 10
-23.475358963012695
 20
-69.91764068603516
 30
136.0
 11
-22.804155349731445
 21
-69.66929626464844
 31
136.0
 12
-22.132951736450195
 22
-69.40064239501953
 32
136.0
 13
-22.132951736450195
 23
-69.40064239501953
 33
136.0
  0
3DFACE
  8
0
 10
-22.132951736450195
 20
-69.40064239501953
 30
136.0
 11
-22.02165412902832
 21
-69.35266876220703
 31
136.0
 12
-21.958526611328125
 22
-69.31561279296875
 32
136.0
 13
-21.958526611328125
 23
-69.31561279296875
 33
136.0
  0
3DFACE
  8
0
 10
-21.958526611328125
 20
-69.31561279296875
 30
136.0
 11
-21.277469635009766
 21
-68.94847869873047
 31
136.0
 12
-20.456647872924805
 22
-68.42366027832031
 32
136.0
 13
-20.456647872924805
 23
-68.42366027832031
 33
136.0
  0
3DFACE
  8
0
 10
-20.456647872924805
 20
-68.42366027832031
 30
136.0
 11
-19.674144744873047
 21
-67.8460693359375
 31
136.0
 12
-19.120166778564453
 22
-67.35453796386719
 32
136.0
 13
-19.120166778564453
 23
-67.35453796386719
 33
136.0
  0
3DFACE
  8
0
 10
-19.120166778564453
 20
-67.35453796386719
 30
136.0
 11
-19.009977340698242
 21
-67.24440002441406
 31
136.0
 12
-18.45387077331543
 22
-66.66374969482422
 32
136.0
 13
-18.45387077331543
 23
-66.66374969482422
 33
136.0
  0
3DFACE
  8
0
 10
-18.373592376708984
 20
-66.5624008178711
 30
136.0
 11
-18.1104793548584
 21
-66.25096893310547
 31
136.0
 12
-17.85361099243164
 22
-65.88693237304688
 32
136.0
 13
-17.85361099243164
 23
-65.88693237304688
 33
136.0
  0
3DFACE
  8
0
 10
-19.120166778564453
 20
-67.35453796386719
 30
136.0
 11
-18.45387077331543
 21
-66.66374969482422
 31
136.0
 12
-18.373592376708984
 22
-66.5624008178711
 32
136.0
 13
-18.373592376708984
 23
-66.5624008178711
 33
136.0
  0
3DFACE
  8
0
 10
-21.958526611328125
 20
-69.31561279296875
 30
136.0
 11
-20.456647872924805
 21
-68.42366027832031
 31
136.0
 12
-19.120166778564453
 22
-67.35453796386719
 32
136.0
 13
-19.120166778564453
 23
-67.35453796386719
 33
136.0
  0
3DFACE
  8
0
 10
-23.475358963012695
 20
-69.91764068603516
 30
136.0
 11
-22.132951736450195
 21
-69.40064239501953
 31
136.0
 12
-21.958526611328125
 22
-69.31561279296875
 32
136.0
 13
-21.958526611328125
 23
-69.31561279296875
 33
136.0
  0
3DFACE
  8
0
 10
-24.51719856262207
 20
-70.1622543334961
 30
136.0
 11
-23.7161808013916
 21
-69.99707794189453
 31
136.0
 12
-23.475358963012695
 22
-69.91764068603516
 32
136.0
 13
-23.475358963012695
 23
-69.91764068603516
 33
136.0
  0
3DFACE
  8
0
 10
-26.27606201171875
 20
-70.35877990722656
 30
136.0
 11
-25.450210571289062
 21
-70.29247283935547
 31
136.0
 12
-24.51719856262207
 22
-70.1622543334961
 32
136.0
 13
-24.51719856262207
 23
-70.1622543334961
 33
136.0
  0
3DFACE
  8
0
 10
-28.39881706237793
 20
-70.14200592041016
 30
136.0
 11
-27.499174118041992
 21
-70.2923583984375
 31
136.0
 12
-26.27606201171875
 22
-70.35877990722656
 32
136.0
 13
-26.27606201171875
 23
-70.35877990722656
 33
136.0
  0
3DFACE
  8
0
 10
-31.340951919555664
 20
-68.94181060791016
 30
136.0
 11
-29.90948486328125
 21
-69.64799499511719
 31
136.0
 12
-28.39881706237793
 22
-70.14200592041016
 32
136.0
 13
-28.39881706237793
 23
-70.14200592041016
 33
136.0
  0
3DFACE
  8
0
 10
-31.476289749145508
 20
-68.86541748046875
 30
136.0
 11
-31.411691665649414
 21
-68.90409851074219
 31
136.0
 12
-31.340951919555664
 22
-68.94181060791016
 32
136.0
 13
-31.340951919555664
 23
-68.94181060791016
 33
136.0
  0
3DFACE
  8
0
 10
-32.365238189697266
 20
-68.14449310302734
 30
136.0
 11
-32.194190979003906
 21
-68.29988861083984
 31
136.0
 12
-31.476289749145508
 22
-68.86541748046875
 32
136.0
 13
-31.476289749145508
 23
-68.86541748046875
 33
136.0
  0
3DFACE
  8
0
 10
-33.11958312988281
 20
-67.36188507080078
 30
136.0
 11
-32.98453140258789
 21
-67.53471374511719
 31
136.0
 12
-32.365238189697266
 22
-68.14449310302734
 32
136.0
 13
-32.365238189697266
 23
-68.14449310302734
 33
136.0
  0
3DFACE
  8
0
 10
-33.66132354736328
 20
-66.53043365478516
 30
136.0
 11
-33.6427116394043
 21
-66.56582641601562
 31
136.0
 12
-33.11958312988281
 22
-67.36188507080078
 32
136.0
 13
-33.11958312988281
 23
-67.36188507080078
 33
136.0
  0
3DFACE
  8
0
 10
-34.01290512084961
 20
-65.78398132324219
 30
136.0
 11
-33.87104797363281
 21
-66.09290313720703
 31
136.0
 12
-33.66132354736328
 22
-66.53043365478516
 32
136.0
 13
-33.66132354736328
 23
-66.53043365478516
 33
136.0
  0
3DFACE
  8
0
 10
-34.47068786621094
 20
-64.23694610595703
 30
136.0
 11
-34.283451080322266
 21
-65.00082397460938
 31
136.0
 12
-34.11299133300781
 22
-65.48085021972656
 32
136.0
 13
-34.11299133300781
 23
-65.48085021972656
 33
136.0
  0
3DFACE
  8
0
 10
-34.11299133300781
 20
-65.48085021972656
 30
136.0
 11
-34.01290512084961
 21
-65.78398132324219
 31
136.0
 12
-33.66132354736328
 22
-66.53043365478516
 32
136.0
 13
-33.66132354736328
 23
-66.53043365478516
 33
136.0
  0
3DFACE
  8
0
 10
-33.66132354736328
 20
-66.53043365478516
 30
136.0
 11
-33.11958312988281
 21
-67.36188507080078
 31
136.0
 12
-32.365238189697266
 22
-68.14449310302734
 32
136.0
 13
-32.365238189697266
 23
-68.14449310302734
 33
136.0
  0
3DFACE
  8
0
 10
-32.365238189697266
 20
-68.14449310302734
 30
136.0
 11
-31.476289749145508
 21
-68.86541748046875
 31
136.0
 12
-31.340951919555664
 22
-68.94181060791016
 32
136.0
 13
-31.340951919555664
 23
-68.94181060791016
 33
136.0
  0
3DFACE
  8
0
 10
-31.340951919555664
 20
-68.94181060791016
 30
136.0
 11
-28.39881706237793
 21
-70.14200592041016
 31
136.0
 12
-26.27606201171875
 22
-70.35877990722656
 32
136.0
 13
-26.27606201171875
 23
-70.35877990722656
 33
136.0
  0
3DFACE
  8
0
 10
-26.27606201171875
 20
-70.35877990722656
 30
136.0
 11
-24.51719856262207
 21
-70.1622543334961
 31
136.0
 12
-23.475358963012695
 22
-69.91764068603516
 32
136.0
 13
-23.475358963012695
 23
-69.91764068603516
 33
136.0
  0
3DFACE
  8
0
 10
-23.475358963012695
 20
-69.91764068603516
 30
136.0
 11
-21.958526611328125
 21
-69.31561279296875
 31
136.0
 12
-19.120166778564453
 22
-67.35453796386719
 32
136.0
 13
-19.120166778564453
 23
-67.35453796386719
 33
136.0
  0
3DFACE
  8
0
 10
-19.120166778564453
 20
-67.35453796386719
 30
136.0
 11
-18.373592376708984
 21
-66.5624008178711
 31
136.0
 12
-17.85361099243164
 22
-65.88693237304688
 32
136.0
 13
-17.85361099243164
 23
-65.88693237304688
 33
136.0
  0
3DFACE
  8
0
 10
-17.85361099243164
 20
-65.88693237304688
 30
136.0
 11
-17.78911781311035
 21
-65.7833251953125
 31
136.0
 12
-17.416706085205078
 22
-65.11212158203125
 32
136.0
 13
-17.416706085205078
 23
-65.11212158203125
 33
136.0
  0
3DFACE
  8
0
 10
-17.361608505249023
 20
-65.00082397460938
 30
136.0
 11
-17.357519149780273
 21
-65.00082397460938
 31
136.0
 12
-17.177724838256836
 22
-64.66522216796875
 32
136.0
 13
-17.177724838256836
 23
-64.66522216796875
 33
136.0
  0
3DFACE
  8
0
 10
-17.85361099243164
 20
-65.88693237304688
 30
136.0
 11
-17.416706085205078
 21
-65.11212158203125
 31
136.0
 12
-17.361608505249023
 22
-65.00082397460938
 32
136.0
 13
-17.361608505249023
 23
-65.00082397460938
 33
136.0
  0
3DFACE
  8
0
 10
-23.475358963012695
 20
-69.91764068603516
 30
136.0
 11
-19.120166778564453
 21
-67.35453796386719
 31
136.0
 12
-17.85361099243164
 22
-65.88693237304688
 32
136.0
 13
-17.85361099243164
 23
-65.88693237304688
 33
136.0
  0
3DFACE
  8
0
 10
-31.340951919555664
 20
-68.94181060791016
 30
136.0
 11
-26.27606201171875
 21
-70.35877990722656
 31
136.0
 12
-23.475358963012695
 22
-69.91764068603516
 32
136.0
 13
-23.475358963012695
 23
-69.91764068603516
 33
136.0
  0
3DFACE
  8
0
 10
-33.66132354736328
 20
-66.53043365478516
 30
136.0
 11
-32.365238189697266
 21
-68.14449310302734
 31
136.0
 12
-31.340951919555664
 22
-68.94181060791016
 32
136.0
 13
-31.340951919555664
 23
-68.94181060791016
 33
136.0
  0
3DFACE
  8
0
 10
-34.47068786621094
 20
-64.23694610595703
 30
136.0
 11
-34.11299133300781
 21
-65.48085021972656
 31
136.0
 12
-33.66132354736328
 22
-66.53043365478516
 32
136.0
 13
-33.66132354736328
 23
-66.53043365478516
 33
136.0
  0
3DFACE
  8
0
 10
-34.613922119140625
 20
-63.616641998291016
 30
136.0
 11
-34.47473907470703
 21
-64.21832275390625
 31
136.0
 12
-34.4736328125
 22
-64.22240447998047
 32
136.0
 13
-34.4736328125
 23
-64.22240447998047
 33
136.0
  0
3DFACE
  8
0
 10
-34.4736328125
 20
-64.22240447998047
 30
136.0
 11
-34.47068786621094
 21
-64.23694610595703
 31
136.0
 12
-33.66132354736328
 22
-66.53043365478516
 32
136.0
 13
-33.66132354736328
 23
-66.53043365478516
 33
136.0
  0
3DFACE
  8
0
 10
-33.66132354736328
 20
-66.53043365478516
 30
136.0
 11
-31.340951919555664
 21
-68.94181060791016
 31
136.0
 12
-23.475358963012695
 22
-69.91764068603516
 32
136.0
 13
-23.475358963012695
 23
-69.91764068603516
 33
136.0
  0
3DFACE
  8
0
 10
-23.475358963012695
 20
-69.91764068603516
 30
136.0
 11
-17.85361099243164
 21
-65.88693237304688
 31
136.0
 12
-17.361608505249023
 22
-65.00082397460938
 32
136.0
 13
-17.361608505249023
 23
-65.00082397460938
 33
136.0
  0
3DFACE
  8
0
 10
-17.361608505249023
 20
-65.00082397460938
 30
136.0
 11
-17.177724838256836
 21
-64.66522216796875
 31
136.0
 12
-17.01523780822754
 22
-64.32962036132812
 32
136.0
 13
-17.01523780822754
 23
-64.32962036132812
 33
136.0
  0
3DFACE
  8
0
 10
-17.01523780822754
 20
-64.32962036132812
 30
136.0
 11
-16.967111587524414
 21
-64.21832275390625
 31
136.0
 12
-16.938255310058594
 22
-64.10702514648438
 32
136.0
 13
-16.938255310058594
 23
-64.10702514648438
 33
136.0
  0
3DFACE
  8
0
 10
-16.938255310058594
 20
-64.10702514648438
 30
136.0
 11
-16.696428298950195
 21
-63.43582534790039
 31
136.0
 12
-16.6726016998291
 22
-63.33292770385742
 32
136.0
 13
-16.6726016998291
 23
-63.33292770385742
 33
136.0
  0
3DFACE
  8
0
 10
-16.6726016998291
 20
-63.33292770385742
 30
136.0
 11
-16.467784881591797
 21
-62.661720275878906
 31
136.0
 12
-16.344402313232422
 22
-61.87080764770508
 32
136.0
 13
-16.344402313232422
 23
-61.87080764770508
 33
136.0
  0
3DFACE
  8
0
 10
-16.336668014526367
 20
-61.7595100402832
 30
136.0
 11
-16.209753036499023
 21
-61.088314056396484
 31
136.0
 12
-16.19813346862793
 22
-60.97701644897461
 32
136.0
 13
-16.19813346862793
 23
-60.97701644897461
 33
136.0
  0
3DFACE
  8
0
 10
-16.6726016998291
 20
-63.33292770385742
 30
136.0
 11
-16.344402313232422
 21
-61.87080764770508
 31
136.0
 12
-16.336668014526367
 22
-61.7595100402832
 32
136.0
 13
-16.336668014526367
 23
-61.7595100402832
 33
136.0
  0
3DFACE
  8
0
 10
-17.01523780822754
 20
-64.32962036132812
 30
136.0
 11
-16.938255310058594
 21
-64.10702514648438
 31
136.0
 12
-16.6726016998291
 22
-63.33292770385742
 32
136.0
 13
-16.6726016998291
 23
-63.33292770385742
 33
136.0
  0
3DFACE
  8
0
 10
-23.475358963012695
 20
-69.91764068603516
 30
136.0
 11
-17.361608505249023
 21
-65.00082397460938
 31
136.0
 12
-17.01523780822754
 22
-64.32962036132812
 32
136.0
 13
-17.01523780822754
 23
-64.32962036132812
 33
136.0
  0
3DFACE
  8
0
 10
-34.4736328125
 20
-64.22240447998047
 30
136.0
 11
-33.66132354736328
 21
-66.53043365478516
 31
136.0
 12
-23.475358963012695
 22
-69.91764068603516
 32
136.0
 13
-23.475358963012695
 23
-69.91764068603516
 33
136.0
  0
3DFACE
  8
0
 10
-34.63343811035156
 20
-63.50534439086914
 30
136.0
 11
-34.613922119140625
 21
-63.616641998291016
 31
136.0
 12
-34.4736328125
 22
-64.22240447998047
 32
136.0
 13
-34.4736328125
 23
-64.22240447998047
 33
136.0
  0
3DFACE
  8
0
 10
-34.76663589477539
 20
-62.451812744140625
 30
136.0
 11
-34.756046295166016
 21
-62.653316497802734
 31
136.0
 12
-34.64252471923828
 22
-63.411808013916016
 32
136.0
 13
-34.64252471923828
 23
-63.411808013916016
 33
136.0
  0
3DFACE
  8
0
 10
-34.64252471923828
 20
-63.411808013916016
 30
136.0
 11
-34.63343811035156
 21
-63.50534439086914
 31
136.0
 12
-34.4736328125
 22
-64.22240447998047
 32
136.0
 13
-34.4736328125
 23
-64.22240447998047
 33
136.0
  0
3DFACE
  8
0
 10
-34.4736328125
 20
-64.22240447998047
 30
136.0
 11
-23.475358963012695
 21
-69.91764068603516
 31
136.0
 12
-17.01523780822754
 22
-64.32962036132812
 32
136.0
 13
-17.01523780822754
 23
-64.32962036132812
 33
136.0
  0
3DFACE
  8
0
 10
-17.01523780822754
 20
-64.32962036132812
 30
136.0
 11
-16.6726016998291
 21
-63.33292770385742
 31
136.0
 12
-16.336668014526367
 22
-61.7595100402832
 32
136.0
 13
-16.336668014526367
 23
-61.7595100402832
 33
136.0
  0
3DFACE
  8
0
 10
-16.336668014526367
 20
-61.7595100402832
 30
136.0
 11
-16.19813346862793
 21
-60.97701644897461
 31
136.0
 12
-16.16417121887207
 22
-60.30581283569336
 32
136.0
 13
-16.16417121887207
 23
-60.30581283569336
 33
136.0
  0
3DFACE
  8
0
 10
-16.164085388183594
 20
-60.194515228271484
 30
136.0
 11
-16.143871307373047
 21
-59.5233039855957
 31
136.0
 12
-16.147171020507812
 22
-59.41200637817383
 32
136.0
 13
-16.147171020507812
 23
-59.41200637817383
 33
136.0
  0
3DFACE
  8
0
 10
-16.336668014526367
 20
-61.7595100402832
 30
136.0
 11
-16.16417121887207
 21
-60.30581283569336
 31
136.0
 12
-16.164085388183594
 22
-60.194515228271484
 32
136.0
 13
-16.164085388183594
 23
-60.194515228271484
 33
136.0
  0
3DFACE
  8
0
 10
-34.4736328125
 20
-64.22240447998047
 30
136.0
 11
-17.01523780822754
 21
-64.32962036132812
 31
136.0
 12
-16.336668014526367
 22
-61.7595100402832
 32
136.0
 13
-16.336668014526367
 23
-61.7595100402832
 33
136.0
  0
3DFACE
  8
0
 10
-34.76663589477539
 20
-62.451812744140625
 30
136.0
 11
-34.64252471923828
 21
-63.411808013916016
 31
136.0
 12
-34.4736328125
 22
-64.22240447998047
 32
136.0
 13
-34.4736328125
 23
-64.22240447998047
 33
136.0
  0
3DFACE
  8
0
 10
-34.802581787109375
 20
-61.7595100402832
 30
136.0
 11
-34.805606842041016
 21
-61.87080764770508
 31
136.0
 12
-34.76663589477539
 22
-62.451812744140625
 32
136.0
 13
-34.76663589477539
 23
-62.451812744140625
 33
136.0
  0
3DFACE
  8
0
 10
-34.82403564453125
 20
-60.99993896484375
 30
136.0
 11
-34.83140182495117
 21
-61.088314056396484
 31
136.0
 12
-34.802581787109375
 22
-61.7595100402832
 32
136.0
 13
-34.802581787109375
 23
-61.7595100402832
 33
136.0
  0
3DFACE
  8
0
 10
-34.6326789855957
 20
-59.483154296875
 30
136.0
 11
-34.7968635559082
 21
-60.30581283569336
 31
136.0
 12
-34.82403564453125
 22
-60.99993896484375
 32
136.0
 13
-34.82403564453125
 23
-60.99993896484375
 33
136.0
  0
3DFACE
  8
0
 10
-34.45507049560547
 20
-58.786441802978516
 30
136.0
 11
-34.49229431152344
 21
-58.92987060546875
 31
136.0
 12
-34.589168548583984
 22
-59.3331298828125
 32
136.0
 13
-34.589168548583984
 23
-59.3331298828125
 33
136.0
  0
3DFACE
  8
0
 10
-34.589168548583984
 20
-59.3331298828125
 30
136.0
 11
-34.6326789855957
 21
-59.483154296875
 31
136.0
 12
-34.82403564453125
 22
-60.99993896484375
 32
136.0
 13
-34.82403564453125
 23
-60.99993896484375
 33
136.0
  0
3DFACE
  8
0
 10
-34.82403564453125
 20
-60.99993896484375
 30
136.0
 11
-34.802581787109375
 21
-61.7595100402832
 31
136.0
 12
-34.76663589477539
 22
-62.451812744140625
 32
136.0
 13
-34.76663589477539
 23
-62.451812744140625
 33
136.0
  0
3DFACE
  8
0
 10
-34.76663589477539
 20
-62.451812744140625
 30
136.0
 11
-34.4736328125
 21
-64.22240447998047
 31
136.0
 12
-16.336668014526367
 22
-61.7595100402832
 32
136.0
 13
-16.336668014526367
 23
-61.7595100402832
 33
136.0
  0
3DFACE
  8
0
 10
-16.336668014526367
 20
-61.7595100402832
 30
136.0
 11
-16.164085388183594
 21
-60.194515228271484
 31
136.0
 12
-16.147171020507812
 22
-59.41200637817383
 32
136.0
 13
-16.147171020507812
 23
-59.41200637817383
 33
136.0
  0
3DFACE
  8
0
 10
-16.147171020507812
 20
-59.41200637817383
 30
136.0
 11
-16.116302490234375
 21
-58.74080276489258
 31
136.0
 12
-16.117849349975586
 22
-58.6295051574707
 32
136.0
 13
-16.117849349975586
 23
-58.6295051574707
 33
136.0
  0
3DFACE
  8
0
 10
-16.117849349975586
 20
-58.6295051574707
 30
136.0
 11
-16.167213439941406
 21
-57.95829391479492
 31
136.0
 12
-16.191701889038086
 22
-57.84699630737305
 32
136.0
 13
-16.191701889038086
 23
-57.84699630737305
 33
136.0
  0
3DFACE
  8
0
 10
-16.191701889038086
 20
-57.84699630737305
 30
136.0
 11
-16.2030086517334
 21
-57.17580032348633
 31
136.0
 12
-16.288549423217773
 22
-56.50459671020508
 32
136.0
 13
-16.288549423217773
 23
-56.50459671020508
 33
136.0
  0
3DFACE
  8
0
 10
-16.288549423217773
 20
-56.50459671020508
 30
136.0
 11
-16.312517166137695
 21
-56.3932991027832
 31
136.0
 12
-16.469371795654297
 22
-55.73602294921875
 32
136.0
 13
-16.469371795654297
 23
-55.73602294921875
 33
136.0
  0
3DFACE
  8
0
 10
-16.469371795654297
 20
-55.73602294921875
 30
136.0
 11
-16.509395599365234
 21
-55.61079025268555
 31
136.0
 12
-16.783384323120117
 22
-54.9395866394043
 32
136.0
 13
-16.783384323120117
 23
-54.9395866394043
 33
136.0
  0
3DFACE
  8
0
 10
-16.783384323120117
 20
-54.9395866394043
 30
136.0
 11
-16.824520111083984
 21
-54.82828903198242
 31
136.0
 12
-17.18830680847168
 22
-54.15708541870117
 32
136.0
 13
-17.18830680847168
 23
-54.15708541870117
 33
136.0
  0
3DFACE
  8
0
 10
-17.18830680847168
 20
-54.15708541870117
 30
136.0
 11
-17.305309295654297
 21
-53.99256134033203
 31
136.0
 12
-17.43793487548828
 22
-53.81593322753906
 32
136.0
 13
-17.43793487548828
 23
-53.81593322753906
 33
136.0
  0
3DFACE
  8
0
 10
-17.512771606445312
 20
-53.73896408081055
 30
136.0
 11
-17.872724533081055
 21
-53.31310272216797
 31
136.0
 12
-18.445650100708008
 22
-52.727630615234375
 32
136.0
 13
-18.445650100708008
 23
-52.727630615234375
 33
136.0
  0
3DFACE
  8
0
 10
-17.18830680847168
 20
-54.15708541870117
 30
136.0
 11
-17.43793487548828
 21
-53.81593322753906
 31
136.0
 12
-17.512771606445312
 22
-53.73896408081055
 32
136.0
 13
-17.512771606445312
 23
-53.73896408081055
 33
136.0
  0
3DFACE
  8
0
 10
-16.469371795654297
 20
-55.73602294921875
 30
136.0
 11
-16.783384323120117
 21
-54.9395866394043
 31
136.0
 12
-17.18830680847168
 22
-54.15708541870117
 32
136.0
 13
-17.18830680847168
 23
-54.15708541870117
 33
136.0
  0
3DFACE
  8
0
 10
-16.191701889038086
 20
-57.84699630737305
 30
136.0
 11
-16.288549423217773
 21
-56.50459671020508
 31
136.0
 12
-16.469371795654297
 22
-55.73602294921875
 32
136.0
 13
-16.469371795654297
 23
-55.73602294921875
 33
136.0
  0
3DFACE
  8
0
 10
-16.147171020507812
 20
-59.41200637817383
 30
136.0
 11
-16.117849349975586
 21
-58.6295051574707
 31
136.0
 12
-16.191701889038086
 22
-57.84699630737305
 32
136.0
 13
-16.191701889038086
 23
-57.84699630737305
 33
136.0
  0
3DFACE
  8
0
 10
-34.76663589477539
 20
-62.451812744140625
 30
136.0
 11
-16.336668014526367
 21
-61.7595100402832
 31
136.0
 12
-16.147171020507812
 22
-59.41200637817383
 32
136.0
 13
-16.147171020507812
 23
-59.41200637817383
 33
136.0
  0
3DFACE
  8
0
 10
-34.589168548583984
 20
-59.3331298828125
 30
136.0
 11
-34.82403564453125
 21
-60.99993896484375
 31
136.0
 12
-34.76663589477539
 22
-62.451812744140625
 32
136.0
 13
-34.76663589477539
 23
-62.451812744140625
 33
136.0
  0
3DFACE
  8
0
 10
-34.36367416381836
 20
-58.480873107910156
 30
136.0
 11
-34.445777893066406
 21
-58.74080276489258
 31
136.0
 12
-34.45507049560547
 22
-58.786441802978516
 32
136.0
 13
-34.45507049560547
 23
-58.786441802978516
 33
136.0
  0
3DFACE
  8
0
 10
-34.45507049560547
 20
-58.786441802978516
 30
136.0
 11
-34.589168548583984
 21
-59.3331298828125
 31
136.0
 12
-34.76663589477539
 22
-62.451812744140625
 32
136.0
 13
-34.76663589477539
 23
-62.451812744140625
 33
136.0
  0
3DFACE
  8
0
 10
-34.76663589477539
 20
-62.451812744140625
 30
136.0
 11
-16.147171020507812
 21
-59.41200637817383
 31
136.0
 12
-16.191701889038086
 22
-57.84699630737305
 32
136.0
 13
-16.191701889038086
 23
-57.84699630737305
 33
136.0
  0
3DFACE
  8
0
 10
-16.191701889038086
 20
-57.84699630737305
 30
136.0
 11
-16.469371795654297
 21
-55.73602294921875
 31
136.0
 12
-17.18830680847168
 22
-54.15708541870117
 32
136.0
 13
-17.18830680847168
 23
-54.15708541870117
 33
136.0
  0
3DFACE
  8
0
 10
-17.18830680847168
 20
-54.15708541870117
 30
136.0
 11
-17.512771606445312
 21
-53.73896408081055
 31
136.0
 12
-18.445650100708008
 22
-52.727630615234375
 32
136.0
 13
-18.445650100708008
 23
-52.727630615234375
 33
136.0
  0
3DFACE
  8
0
 10
-18.445650100708008
 20
-52.727630615234375
 30
136.0
 11
-19.104631423950195
 21
-52.17053985595703
 31
136.0
 12
-19.645549774169922
 22
-51.74357604980469
 32
136.0
 13
-19.645549774169922
 23
-51.74357604980469
 33
136.0
  0
3DFACE
  8
0
 10
-19.645549774169922
 20
-51.74357604980469
 30
136.0
 11
-20.457204818725586
 21
-51.282470703125
 31
136.0
 12
-20.56794548034668
 22
-51.22319793701172
 32
136.0
 13
-20.56794548034668
 23
-51.22319793701172
 33
136.0
  0
3DFACE
  8
0
 10
-20.56794548034668
 20
-51.22319793701172
 30
136.0
 11
-21.229860305786133
 21
-50.9650993347168
 31
136.0
 12
-22.02165412902832
 22
-50.742610931396484
 32
136.0
 13
-22.02165412902832
 23
-50.742610931396484
 33
136.0
  0
3DFACE
  8
0
 10
-22.748506546020508
 20
-50.683692932128906
 30
136.0
 11
-22.804155349731445
 21
-50.67292404174805
 31
136.0
 12
-22.914514541625977
 22
-50.66776657104492
 32
136.0
 13
-22.914514541625977
 23
-50.66776657104492
 33
136.0
  0
3DFACE
  8
0
 10
-20.56794548034668
 20
-51.22319793701172
 30
136.0
 11
-22.02165412902832
 21
-50.742610931396484
 31
136.0
 12
-22.748506546020508
 22
-50.683692932128906
 32
136.0
 13
-22.748506546020508
 23
-50.683692932128906
 33
136.0
  0
3DFACE
  8
0
 10
-18.445650100708008
 20
-52.727630615234375
 30
136.0
 11
-19.645549774169922
 21
-51.74357604980469
 31
136.0
 12
-20.56794548034668
 22
-51.22319793701172
 32
136.0
 13
-20.56794548034668
 23
-51.22319793701172
 33
136.0
  0
3DFACE
  8
0
 10
-16.191701889038086
 20
-57.84699630737305
 30
136.0
 11
-17.18830680847168
 21
-54.15708541870117
 31
136.0
 12
-18.445650100708008
 22
-52.727630615234375
 32
136.0
 13
-18.445650100708008
 23
-52.727630615234375
 33
136.0
  0
3DFACE
  8
0
 10
-34.45507049560547
 20
-58.786441802978516
 30
136.0
 11
-34.76663589477539
 21
-62.451812744140625
 31
136.0
 12
-16.191701889038086
 22
-57.84699630737305
 32
136.0
 13
-16.191701889038086
 23
-57.84699630737305
 33
136.0
  0
3DFACE
  8
0
 10
-34.187931060791016
 20
-57.95829391479492
 30
136.0
 11
-34.36367416381836
 21
-58.480873107910156
 31
136.0
 12
-34.45507049560547
 22
-58.786441802978516
 32
136.0
 13
-34.45507049560547
 23
-58.786441802978516
 33
136.0
  0
3DFACE
  8
0
 10
-33.81772994995117
 20
-57.167423248291016
 30
136.0
 11
-34.13874053955078
 21
-57.84699630737305
 31
136.0
 12
-34.187931060791016
 22
-57.95829391479492
 32
136.0
 13
-34.187931060791016
 23
-57.95829391479492
 33
136.0
  0
3DFACE
  8
0
 10
-33.34257888793945
 20
-56.28200149536133
 30
136.0
 11
-33.4184684753418
 21
-56.3932991027832
 31
136.0
 12
-33.743873596191406
 22
-57.035400390625
 32
136.0
 13
-33.743873596191406
 23
-57.035400390625
 33
136.0
  0
3DFACE
  8
0
 10
-33.743873596191406
 20
-57.035400390625
 30
136.0
 11
-33.81772994995117
 21
-57.167423248291016
 31
136.0
 12
-34.187931060791016
 22
-57.95829391479492
 32
136.0
 13
-34.187931060791016
 23
-57.95829391479492
 33
136.0
  0
3DFACE
  8
0
 10
-34.187931060791016
 20
-57.95829391479492
 30
136.0
 11
-34.45507049560547
 21
-58.786441802978516
 31
136.0
 12
-16.191701889038086
 22
-57.84699630737305
 32
136.0
 13
-16.191701889038086
 23
-57.84699630737305
 33
136.0
  0
3DFACE
  8
0
 10
-16.191701889038086
 20
-57.84699630737305
 30
136.0
 11
-18.445650100708008
 21
-52.727630615234375
 31
136.0
 12
-20.56794548034668
 22
-51.22319793701172
 32
136.0
 13
-20.56794548034668
 23
-51.22319793701172
 33
136.0
  0
3DFACE
  8
0
 10
-20.56794548034668
 20
-51.22319793701172
 30
136.0
 11
-22.748506546020508
 21
-50.683692932128906
 31
136.0
 12
-22.914514541625977
 22
-50.66776657104492
 32
136.0
 13
-22.914514541625977
 23
-50.66776657104492
 33
136.0
  0
3DFACE
  8
0
 10
-22.914514541625977
 20
-50.66776657104492
 30
136.0
 11
-23.58665657043457
 21
-50.653343200683594
 31
136.0
 12
-24.258804321289062
 22
-50.70894241333008
 32
136.0
 13
-24.258804321289062
 23
-50.70894241333008
 33
136.0
  0
3DFACE
  8
0
 10
-24.258804321289062
 20
-50.70894241333008
 30
136.0
 11
-24.369165420532227
 21
-50.71514892578125
 31
136.0
 12
-25.032333374023438
 22
-50.85454559326172
 32
136.0
 13
-25.032333374023438
 23
-50.85454559326172
 33
136.0
  0
3DFACE
  8
0
 10
-25.032333374023438
 20
-50.85454559326172
 30
136.0
 11
-25.151662826538086
 21
-50.872066497802734
 31
136.0
 12
-25.8228702545166
 22
-51.02048873901367
 32
136.0
 13
-25.8228702545166
 23
-51.02048873901367
 33
136.0
  0
3DFACE
  8
0
 10
-25.8228702545166
 20
-51.02048873901367
 30
136.0
 11
-25.934167861938477
 21
-51.0426139831543
 31
136.0
 12
-26.269771575927734
 22
-51.13592529296875
 32
136.0
 13
-26.269771575927734
 23
-51.13592529296875
 33
136.0
  0
3DFACE
  8
0
 10
-26.269771575927734
 20
-51.13592529296875
 30
136.0
 11
-26.716672897338867
 21
-51.22697448730469
 31
136.0
 12
-27.052274703979492
 22
-51.348758697509766
 32
136.0
 13
-27.052274703979492
 23
-51.348758697509766
 33
136.0
  0
3DFACE
  8
0
 10
-27.052274703979492
 20
-51.348758697509766
 30
136.0
 11
-27.499174118041992
 21
-51.4950065612793
 31
136.0
 12
-27.946073532104492
 22
-51.67623519897461
 32
136.0
 13
-27.946073532104492
 23
-51.67623519897461
 33
136.0
  0
3DFACE
  8
0
 10
-27.946073532104492
 20
-51.67623519897461
 30
136.0
 11
-28.281675338745117
 21
-51.8289909362793
 31
136.0
 12
-28.617279052734375
 22
-52.01631546020508
 32
136.0
 13
-28.617279052734375
 23
-52.01631546020508
 33
136.0
  0
3DFACE
  8
0
 10
-28.617279052734375
 20
-52.01631546020508
 30
136.0
 11
-29.064180374145508
 21
-52.23419189453125
 31
136.0
 12
-29.735383987426758
 22
-52.60652160644531
 32
136.0
 13
-29.735383987426758
 23
-52.60652160644531
 33
136.0
  0
3DFACE
  8
0
 10
-29.735383987426758
 20
-52.60652160644531
 30
136.0
 11
-29.846681594848633
 21
-52.66326141357422
 31
136.0
 12
-30.54011344909668
 22
-53.17038345336914
 32
136.0
 13
-30.54011344909668
 23
-53.17038345336914
 33
136.0
  0
3DFACE
  8
0
 10
-30.54011344909668
 20
-53.17038345336914
 30
136.0
 11
-30.651411056518555
 21
-53.2407341003418
 31
136.0
 12
-30.76270866394043
 22
-53.32459259033203
 32
136.0
 13
-30.76270866394043
 23
-53.32459259033203
 33
136.0
  0
3DFACE
  8
0
 10
-30.76270866394043
 20
-53.32459259033203
 30
136.0
 11
-31.411691665649414
 21
-53.84269332885742
 31
136.0
 12
-31.58462905883789
 22
-54.014060974121094
 32
136.0
 13
-31.58462905883789
 23
-54.014060974121094
 33
136.0
  0
3DFACE
  8
0
 10
-31.598968505859375
 20
-54.02779769897461
 30
136.0
 11
-31.654617309570312
 21
-54.074649810791016
 31
136.0
 12
-31.695926666259766
 22
-54.11414337158203
 32
136.0
 13
-31.695926666259766
 23
-54.11414337158203
 33
136.0
  0
3DFACE
  8
0
 10
-30.76270866394043
 20
-53.32459259033203
 30
136.0
 11
-31.58462905883789
 21
-54.014060974121094
 31
136.0
 12
-31.598968505859375
 22
-54.02779769897461
 32
136.0
 13
-31.598968505859375
 23
-54.02779769897461
 33
136.0
  0
3DFACE
  8
0
 10
-28.617279052734375
 20
-52.01631546020508
 30
136.0
 11
-29.735383987426758
 21
-52.60652160644531
 31
136.0
 12
-30.54011344909668
 22
-53.17038345336914
 32
136.0
 13
-30.54011344909668
 23
-53.17038345336914
 33
136.0
  0
3DFACE
  8
0
 10
-30.54011344909668
 20
-53.17038345336914
 30
136.0
 11
-30.76270866394043
 21
-53.32459259033203
 31
136.0
 12
-31.598968505859375
 22
-54.02779769897461
 32
136.0
 13
-31.598968505859375
 23
-54.02779769897461
 33
136.0
  0
3DFACE
  8
0
 10
-31.598968505859375
 20
-54.02779769897461
 30
136.0
 11
-31.695926666259766
 21
-54.11414337158203
 31
136.0
 12
-32.290000915527344
 22
-54.76454162597656
 32
136.0
 13
-32.290000915527344
 23
-54.76454162597656
 33
136.0
  0
3DFACE
  8
0
 10
-32.88302230834961
 20
-55.53559875488281
 30
136.0
 11
-32.97316360473633
 21
-55.64689636230469
 31
136.0
 12
-33.34257888793945
 22
-56.28200149536133
 32
136.0
 13
-33.34257888793945
 23
-56.28200149536133
 33
136.0
  0
3DFACE
  8
0
 10
-31.598968505859375
 20
-54.02779769897461
 30
136.0
 11
-32.290000915527344
 21
-54.76454162597656
 31
136.0
 12
-32.88302230834961
 22
-55.53559875488281
 32
136.0
 13
-32.88302230834961
 23
-55.53559875488281
 33
136.0
  0
3DFACE
  8
0
 10
-28.617279052734375
 20
-52.01631546020508
 30
136.0
 11
-30.54011344909668
 21
-53.17038345336914
 31
136.0
 12
-31.598968505859375
 22
-54.02779769897461
 32
136.0
 13
-31.598968505859375
 23
-54.02779769897461
 33
136.0
  0
3DFACE
  8
0
 10
-27.052274703979492
 20
-51.348758697509766
 30
136.0
 11
-27.946073532104492
 21
-51.67623519897461
 31
136.0
 12
-28.617279052734375
 22
-52.01631546020508
 32
136.0
 13
-28.617279052734375
 23
-52.01631546020508
 33
136.0
  0
3DFACE
  8
0
 10
-25.8228702545166
 20
-51.02048873901367
 30
136.0
 11
-26.269771575927734
 21
-51.13592529296875
 31
136.0
 12
-27.052274703979492
 22
-51.348758697509766
 32
136.0
 13
-27.052274703979492
 23
-51.348758697509766
 33
136.0
  0
3DFACE
  8
0
 10
-24.258804321289062
 20
-50.70894241333008
 30
136.0
 11
-25.032333374023438
 21
-50.85454559326172
 31
136.0
 12
-25.8228702545166
 22
-51.02048873901367
 32
136.0
 13
-25.8228702545166
 23
-51.02048873901367
 33
136.0
  0
3DFACE
  8
0
 10
-20.56794548034668
 20
-51.22319793701172
 30
136.0
 11
-22.914514541625977
 21
-50.66776657104492
 31
136.0
 12
-24.258804321289062
 22
-50.70894241333008
 32
136.0
 13
-24.258804321289062
 23
-50.70894241333008
 33
136.0
  0
3DFACE
  8
0
 10
-34.187931060791016
 20
-57.95829391479492
 30
136.0
 11
-16.191701889038086
 21
-57.84699630737305
 31
136.0
 12
-20.56794548034668
 22
-51.22319793701172
 32
136.0
 13
-20.56794548034668
 23
-51.22319793701172
 33
136.0
  0
3DFACE
  8
0
 10
-33.34257888793945
 20
-56.28200149536133
 30
136.0
 11
-33.743873596191406
 21
-57.035400390625
 31
136.0
 12
-34.187931060791016
 22
-57.95829391479492
 32
136.0
 13
-34.187931060791016
 23
-57.95829391479492
 33
136.0
  0
3DFACE
  8
0
 10
-31.598968505859375
 20
-54.02779769897461
 30
136.0
 11
-32.88302230834961
 21
-55.53559875488281
 31
136.0
 12
-33.34257888793945
 22
-56.28200149536133
 32
136.0
 13
-33.34257888793945
 23
-56.28200149536133
 33
136.0
  0
3DFACE
  8
0
 10
-27.052274703979492
 20
-51.348758697509766
 30
136.0
 11
-28.617279052734375
 21
-52.01631546020508
 31
136.0
 12
-31.598968505859375
 22
-54.02779769897461
 32
136.0
 13
-31.598968505859375
 23
-54.02779769897461
 33
136.0
  0
3DFACE
  8
0
 10
-24.258804321289062
 20
-50.70894241333008
 30
136.0
 11
-25.8228702545166
 21
-51.02048873901367
 31
136.0
 12
-27.052274703979492
 22
-51.348758697509766
 32
136.0
 13
-27.052274703979492
 23
-51.348758697509766
 33
136.0
  0
3DFACE
  8
0
 10
-34.187931060791016
 20
-57.95829391479492
 30
136.0
 11
-20.56794548034668
 21
-51.22319793701172
 31
136.0
 12
-24.258804321289062
 22
-50.70894241333008
 32
136.0
 13
-24.258804321289062
 23
-50.70894241333008
 33
136.0
  0
3DFACE
  8
0
 10
-31.598968505859375
 20
-54.02779769897461
 30
136.0
 11
-33.34257888793945
 21
-56.28200149536133
 31
136.0
 12
-34.187931060791016
 22
-57.95829391479492
 32
136.0
 13
-34.187931060791016
 23
-57.95829391479492
 33
136.0
  0
3DFACE
  8
0
 10
-24.258804321289062
 20
-50.70894241333008
 30
136.0
 11
-27.052274703979492
 21
-51.348758697509766
 31
136.0
 12
-31.598968505859375
 22
-54.02779769897461
 32
136.0
 13
-31.598968505859375
 23
-54.02779769897461
 33
136.0
  0
3DFACE
  8
0
 10
-24.258804321289062
 20
-50.70894241333008
 30
136.0
 11
-31.598968505859375
 21
-54.02779769897461
 31
136.0
 12
-34.187931060791016
 22
-57.95829391479492
 32
136.0
 13
-34.187931060791016
 23
-57.95829391479492
 33
136.0
  0
3DFACE
  8
0
 10
39.7486572265625
 20
-45.71372604370117
 30
136.0
 11
39.16399383544922
 21
-45.31748962402344
 31
136.0
 12
39.110694885253906
 22
-45.28645706176758
 32
136.0
 13
39.110694885253906
 23
-45.28645706176758
 33
136.0
  0
3DFACE
  8
0
 10
39.02888107299805
 20
-45.249534606933594
 30
136.0
 11
38.416568756103516
 21
-44.926605224609375
 31
136.0
 12
38.154144287109375
 22
-44.82572937011719
 32
136.0
 13
38.154144287109375
 23
-44.82572937011719
 33
136.0
  0
3DFACE
  8
0
 10
39.7486572265625
 20
-45.71372604370117
 30
136.0
 11
39.110694885253906
 21
-45.28645706176758
 31
136.0
 12
39.02888107299805
 22
-45.249534606933594
 32
136.0
 13
39.02888107299805
 23
-45.249534606933594
 33
136.0
  0
3DFACE
  8
0
 10
40.226104736328125
 20
-46.13402557373047
 30
136.0
 11
40.14542770385742
 21
-46.05915832519531
 31
136.0
 12
39.7486572265625
 22
-45.71372604370117
 32
136.0
 13
39.7486572265625
 23
-45.71372604370117
 33
136.0
  0
3DFACE
  8
0
 10
40.85114669799805
 20
-46.72664260864258
 30
136.0
 11
40.5
 21
-46.38193130493164
 31
136.0
 12
40.34371566772461
 22
-46.24726867675781
 32
136.0
 13
40.34371566772461
 23
-46.24726867675781
 33
136.0
  0
3DFACE
  8
0
 10
40.34371566772461
 20
-46.24726867675781
 30
136.0
 11
40.226104736328125
 21
-46.13402557373047
 31
136.0
 12
39.7486572265625
 22
-45.71372604370117
 32
136.0
 13
39.7486572265625
 23
-45.71372604370117
 33
136.0
  0
3DFACE
  8
0
 10
39.7486572265625
 20
-45.71372604370117
 30
136.0
 11
39.02888107299805
 21
-45.249534606933594
 31
136.0
 12
38.154144287109375
 22
-44.82572937011719
 32
136.0
 13
38.154144287109375
 23
-44.82572937011719
 33
136.0
  0
3DFACE
  8
0
 10
38.154144287109375
 20
-44.82572937011719
 30
136.0
 11
37.63248825073242
 21
-44.60417556762695
 31
136.0
 12
37.45426559448242
 22
-44.535160064697266
 32
136.0
 13
37.45426559448242
 23
-44.535160064697266
 33
136.0
  0
3DFACE
  8
0
 10
37.45426559448242
 20
-44.535160064697266
 30
136.0
 11
36.54684829711914
 21
-44.32700729370117
 31
136.0
 12
35.902809143066406
 22
-44.229461669921875
 32
136.0
 13
35.902809143066406
 23
-44.229461669921875
 33
136.0
  0
3DFACE
  8
0
 10
35.902809143066406
 20
-44.229461669921875
 30
136.0
 11
35.292381286621094
 21
-44.1838493347168
 31
136.0
 12
34.6784782409668
 22
-44.170875549316406
 32
136.0
 13
34.6784782409668
 23
-44.170875549316406
 33
136.0
  0
3DFACE
  8
0
 10
34.6784782409668
 20
-44.170875549316406
 30
136.0
 11
34.473411560058594
 21
-44.18165969848633
 31
136.0
 12
33.85204315185547
 22
-44.24043273925781
 32
136.0
 13
33.85204315185547
 23
-44.24043273925781
 33
136.0
  0
3DFACE
  8
0
 10
33.85204315185547
 20
-44.24043273925781
 30
136.0
 11
33.633201599121094
 21
-44.27638244628906
 31
136.0
 12
33.00792694091797
 22
-44.404232025146484
 32
136.0
 13
33.00792694091797
 23
-44.404232025146484
 33
136.0
  0
3DFACE
  8
0
 10
33.00792694091797
 20
-44.404232025146484
 30
136.0
 11
32.784297943115234
 21
-44.47968673706055
 31
136.0
 12
32.487144470214844
 22
-44.595611572265625
 32
136.0
 13
32.487144470214844
 23
-44.595611572265625
 33
136.0
  0
3DFACE
  8
0
 10
32.487144470214844
 20
-44.595611572265625
 30
136.0
 11
31.968538284301758
 21
-44.8369255065918
 31
136.0
 12
31.63273048400879
 22
-45.031463623046875
 32
136.0
 13
31.63273048400879
 23
-45.031463623046875
 33
136.0
  0
3DFACE
  8
0
 10
31.63273048400879
 20
-45.031463623046875
 30
136.0
 11
31.057531356811523
 21
-45.38040542602539
 31
136.0
 12
30.765605926513672
 22
-45.57353973388672
 32
136.0
 13
30.765605926513672
 23
-45.57353973388672
 33
136.0
  0
3DFACE
  8
0
 10
30.765605926513672
 20
-45.57353973388672
 30
136.0
 11
30.19009780883789
 21
-46.08094024658203
 31
136.0
 12
30.067611694335938
 22
-46.1998176574707
 32
136.0
 13
30.067611694335938
 23
-46.1998176574707
 33
136.0
  0
3DFACE
  8
0
 10
30.067611694335938
 20
-46.1998176574707
 30
136.0
 11
29.80674934387207
 21
-46.48723602294922
 31
136.0
 12
29.49840545654297
 22
-46.87444305419922
 32
136.0
 13
29.49840545654297
 23
-46.87444305419922
 33
136.0
  0
3DFACE
  8
0
 10
29.49840545654297
 20
-46.87444305419922
 30
136.0
 11
29.19106674194336
 21
-47.34232711791992
 31
136.0
 12
29.065235137939453
 22
-47.58069610595703
 32
136.0
 13
29.065235137939453
 23
-47.58069610595703
 33
136.0
  0
3DFACE
  8
0
 10
28.920011520385742
 20
-47.89059829711914
 30
136.0
 11
28.715503692626953
 21
-48.30635070800781
 31
136.0
 12
28.509702682495117
 22
-48.892913818359375
 32
136.0
 13
28.509702682495117
 23
-48.892913818359375
 33
136.0
  0
3DFACE
  8
0
 10
29.49840545654297
 20
-46.87444305419922
 30
136.0
 11
29.065235137939453
 21
-47.58069610595703
 31
136.0
 12
28.920011520385742
 22
-47.89059829711914
 32
136.0
 13
28.920011520385742
 23
-47.89059829711914
 33
136.0
  0
3DFACE
  8
0
 10
30.765605926513672
 20
-45.57353973388672
 30
136.0
 11
30.067611694335938
 21
-46.1998176574707
 31
136.0
 12
29.49840545654297
 22
-46.87444305419922
 32
136.0
 13
29.49840545654297
 23
-46.87444305419922
 33
136.0
  0
3DFACE
  8
0
 10
32.487144470214844
 20
-44.595611572265625
 30
136.0
 11
31.63273048400879
 21
-45.031463623046875
 31
136.0
 12
30.765605926513672
 22
-45.57353973388672
 32
136.0
 13
30.765605926513672
 23
-45.57353973388672
 33
136.0
  0
3DFACE
  8
0
 10
33.85204315185547
 20
-44.24043273925781
 30
136.0
 11
33.00792694091797
 21
-44.404232025146484
 31
136.0
 12
32.487144470214844
 22
-44.595611572265625
 32
136.0
 13
32.487144470214844
 23
-44.595611572265625
 33
136.0
  0
3DFACE
  8
0
 10
35.902809143066406
 20
-44.229461669921875
 30
136.0
 11
34.6784782409668
 21
-44.170875549316406
 31
136.0
 12
33.85204315185547
 22
-44.24043273925781
 32
136.0
 13
33.85204315185547
 23
-44.24043273925781
 33
136.0
  0
3DFACE
  8
0
 10
38.154144287109375
 20
-44.82572937011719
 30
136.0
 11
37.45426559448242
 21
-44.535160064697266
 31
136.0
 12
35.902809143066406
 22
-44.229461669921875
 32
136.0
 13
35.902809143066406
 23
-44.229461669921875
 33
136.0
  0
3DFACE
  8
0
 10
40.34371566772461
 20
-46.24726867675781
 30
136.0
 11
39.7486572265625
 21
-45.71372604370117
 31
136.0
 12
38.154144287109375
 22
-44.82572937011719
 32
136.0
 13
38.154144287109375
 23
-44.82572937011719
 33
136.0
  0
3DFACE
  8
0
 10
41.162147521972656
 20
-47.08080291748047
 30
136.0
 11
40.85114669799805
 21
-46.72664260864258
 31
136.0
 12
40.34371566772461
 22
-46.24726867675781
 32
136.0
 13
40.34371566772461
 23
-46.24726867675781
 33
136.0
  0
3DFACE
  8
0
 10
41.84654998779297
 20
-47.99506378173828
 30
136.0
 11
41.793521881103516
 21
-47.92258071899414
 31
136.0
 12
41.66636657714844
 22
-47.76359939575195
 32
136.0
 13
41.66636657714844
 23
-47.76359939575195
 33
136.0
  0
3DFACE
  8
0
 10
41.66636657714844
 20
-47.76359939575195
 30
136.0
 11
41.162147521972656
 21
-47.08080291748047
 31
136.0
 12
40.34371566772461
 22
-46.24726867675781
 32
136.0
 13
40.34371566772461
 23
-46.24726867675781
 33
136.0
  0
3DFACE
  8
0
 10
40.34371566772461
 20
-46.24726867675781
 30
136.0
 11
38.154144287109375
 21
-44.82572937011719
 31
136.0
 12
35.902809143066406
 22
-44.229461669921875
 32
136.0
 13
35.902809143066406
 23
-44.229461669921875
 33
136.0
  0
3DFACE
  8
0
 10
35.902809143066406
 20
-44.229461669921875
 30
136.0
 11
33.85204315185547
 21
-44.24043273925781
 31
136.0
 12
32.487144470214844
 22
-44.595611572265625
 32
136.0
 13
32.487144470214844
 23
-44.595611572265625
 33
136.0
  0
3DFACE
  8
0
 10
32.487144470214844
 20
-44.595611572265625
 30
136.0
 11
30.765605926513672
 21
-45.57353973388672
 31
136.0
 12
29.49840545654297
 22
-46.87444305419922
 32
136.0
 13
29.49840545654297
 23
-46.87444305419922
 33
136.0
  0
3DFACE
  8
0
 10
29.49840545654297
 20
-46.87444305419922
 30
136.0
 11
28.920011520385742
 21
-47.89059829711914
 31
136.0
 12
28.509702682495117
 22
-48.892913818359375
 32
136.0
 13
28.509702682495117
 23
-48.892913818359375
 33
136.0
  0
3DFACE
  8
0
 10
28.509702682495117
 20
-48.892913818359375
 30
136.0
 11
28.4500675201416
 21
-49.05160140991211
 31
136.0
 12
28.324527740478516
 22
-49.41078186035156
 32
136.0
 13
28.324527740478516
 23
-49.41078186035156
 33
136.0
  0
3DFACE
  8
0
 10
28.324527740478516
 20
-49.41078186035156
 30
136.0
 11
28.228839874267578
 21
-49.80712890625
 31
136.0
 12
28.128881454467773
 22
-50.30131530761719
 32
136.0
 13
28.128881454467773
 23
-50.30131530761719
 33
136.0
  0
3DFACE
  8
0
 10
28.103378295898438
 20
-50.463077545166016
 30
136.0
 11
28.07557487487793
 21
-50.57846450805664
 31
136.0
 12
27.990602493286133
 22
-51.20374298095703
 32
136.0
 13
27.990602493286133
 23
-51.20374298095703
 33
136.0
  0
3DFACE
  8
0
 10
28.324527740478516
 20
-49.41078186035156
 30
136.0
 11
28.128881454467773
 21
-50.30131530761719
 31
136.0
 12
28.103378295898438
 22
-50.463077545166016
 32
136.0
 13
28.103378295898438
 23
-50.463077545166016
 33
136.0
  0
3DFACE
  8
0
 10
29.49840545654297
 20
-46.87444305419922
 30
136.0
 11
28.509702682495117
 21
-48.892913818359375
 31
136.0
 12
28.324527740478516
 22
-49.41078186035156
 32
136.0
 13
28.324527740478516
 23
-49.41078186035156
 33
136.0
  0
3DFACE
  8
0
 10
35.902809143066406
 20
-44.229461669921875
 30
136.0
 11
32.487144470214844
 21
-44.595611572265625
 31
136.0
 12
29.49840545654297
 22
-46.87444305419922
 32
136.0
 13
29.49840545654297
 23
-46.87444305419922
 33
136.0
  0
3DFACE
  8
0
 10
41.66636657714844
 20
-47.76359939575195
 30
136.0
 11
40.34371566772461
 21
-46.24726867675781
 31
136.0
 12
35.902809143066406
 22
-44.229461669921875
 32
136.0
 13
35.902809143066406
 23
-44.229461669921875
 33
136.0
  0
3DFACE
  8
0
 10
41.95490646362305
 20
-48.156436920166016
 30
136.0
 11
41.84654998779297
 21
-47.99506378173828
 31
136.0
 12
41.66636657714844
 22
-47.76359939575195
 32
136.0
 13
41.66636657714844
 23
-47.76359939575195
 33
136.0
  0
3DFACE
  8
0
 10
42.477455139160156
 20
-49.08488845825195
 30
136.0
 11
42.122711181640625
 21
-48.4453010559082
 31
136.0
 12
41.95490646362305
 22
-48.156436920166016
 32
136.0
 13
41.95490646362305
 23
-48.156436920166016
 33
136.0
  0
3DFACE
  8
0
 10
42.85389709472656
 20
-49.9675178527832
 30
136.0
 11
42.74089813232422
 21
-49.69594192504883
 31
136.0
 12
42.626407623291016
 22
-49.44490432739258
 32
136.0
 13
42.626407623291016
 23
-49.44490432739258
 33
136.0
  0
3DFACE
  8
0
 10
42.626407623291016
 20
-49.44490432739258
 30
136.0
 11
42.477455139160156
 21
-49.08488845825195
 31
136.0
 12
41.95490646362305
 22
-48.156436920166016
 32
136.0
 13
41.95490646362305
 23
-48.156436920166016
 33
136.0
  0
3DFACE
  8
0
 10
41.95490646362305
 20
-48.156436920166016
 30
136.0
 11
41.66636657714844
 21
-47.76359939575195
 31
136.0
 12
35.902809143066406
 22
-44.229461669921875
 32
136.0
 13
35.902809143066406
 23
-44.229461669921875
 33
136.0
  0
3DFACE
  8
0
 10
35.902809143066406
 20
-44.229461669921875
 30
136.0
 11
29.49840545654297
 21
-46.87444305419922
 31
136.0
 12
28.324527740478516
 22
-49.41078186035156
 32
136.0
 13
28.324527740478516
 23
-49.41078186035156
 33
136.0
  0
3DFACE
  8
0
 10
28.324527740478516
 20
-49.41078186035156
 30
136.0
 11
28.103378295898438
 21
-50.463077545166016
 31
136.0
 12
27.990602493286133
 22
-51.20374298095703
 32
136.0
 13
27.990602493286133
 23
-51.20374298095703
 33
136.0
  0
3DFACE
  8
0
 10
27.990602493286133
 20
-51.20374298095703
 30
136.0
 11
27.96504020690918
 21
-51.359718322753906
 31
136.0
 12
27.933839797973633
 22
-52.03630447387695
 32
136.0
 13
27.933839797973633
 23
-52.03630447387695
 33
136.0
  0
3DFACE
  8
0
 10
27.933839797973633
 20
-52.03630447387695
 30
136.0
 11
27.92698860168457
 21
-52.093505859375
 31
136.0
 12
27.954593658447266
 22
-52.964691162109375
 32
136.0
 13
27.954593658447266
 23
-52.964691162109375
 33
136.0
  0
3DFACE
  8
0
 10
27.965639114379883
 20
-53.0553092956543
 30
136.0
 11
28.03238868713379
 21
-53.7962646484375
 31
136.0
 12
28.166522979736328
 22
-54.44304275512695
 32
136.0
 13
28.166522979736328
 23
-54.44304275512695
 33
136.0
  0
3DFACE
  8
0
 10
27.933839797973633
 20
-52.03630447387695
 30
136.0
 11
27.954593658447266
 21
-52.964691162109375
 31
136.0
 12
27.965639114379883
 22
-53.0553092956543
 32
136.0
 13
27.965639114379883
 23
-53.0553092956543
 33
136.0
  0
3DFACE
  8
0
 10
28.324527740478516
 20
-49.41078186035156
 30
136.0
 11
27.990602493286133
 21
-51.20374298095703
 31
136.0
 12
27.933839797973633
 22
-52.03630447387695
 32
136.0
 13
27.933839797973633
 23
-52.03630447387695
 33
136.0
  0
3DFACE
  8
0
 10
41.95490646362305
 20
-48.156436920166016
 30
136.0
 11
35.902809143066406
 21
-44.229461669921875
 31
136.0
 12
28.324527740478516
 22
-49.41078186035156
 32
136.0
 13
28.324527740478516
 23
-49.41078186035156
 33
136.0
  0
3DFACE
  8
0
 10
42.85389709472656
 20
-49.9675178527832
 30
136.0
 11
42.626407623291016
 21
-49.44490432739258
 31
136.0
 12
41.95490646362305
 22
-48.156436920166016
 32
136.0
 13
41.95490646362305
 23
-48.156436920166016
 33
136.0
  0
3DFACE
  8
0
 10
43.364192962646484
 20
-51.71192932128906
 30
136.0
 11
43.12990188598633
 21
-50.79408645629883
 31
136.0
 12
42.93772506713867
 22
-50.245391845703125
 32
136.0
 13
42.93772506713867
 23
-50.245391845703125
 33
136.0
  0
3DFACE
  8
0
 10
42.93772506713867
 20
-50.245391845703125
 30
136.0
 11
42.85389709472656
 21
-49.9675178527832
 31
136.0
 12
41.95490646362305
 22
-48.156436920166016
 32
136.0
 13
41.95490646362305
 23
-48.156436920166016
 33
136.0
  0
3DFACE
  8
0
 10
41.95490646362305
 20
-48.156436920166016
 30
136.0
 11
28.324527740478516
 21
-49.41078186035156
 31
136.0
 12
27.933839797973633
 22
-52.03630447387695
 32
136.0
 13
27.933839797973633
 23
-52.03630447387695
 33
136.0
  0
3DFACE
  8
0
 10
27.933839797973633
 20
-52.03630447387695
 30
136.0
 11
27.965639114379883
 21
-53.0553092956543
 31
136.0
 12
28.166522979736328
 22
-54.44304275512695
 32
136.0
 13
28.166522979736328
 23
-54.44304275512695
 33
136.0
  0
3DFACE
  8
0
 10
28.166522979736328
 20
-54.44304275512695
 30
136.0
 11
28.192344665527344
 21
-54.600868225097656
 31
136.0
 12
28.296518325805664
 22
-54.997894287109375
 32
136.0
 13
28.296518325805664
 23
-54.997894287109375
 33
136.0
  0
3DFACE
  8
0
 10
28.296518325805664
 20
-54.997894287109375
 30
136.0
 11
28.400516510009766
 21
-55.49577331542969
 31
136.0
 12
28.60222816467285
 22
-56.079524993896484
 32
136.0
 13
28.60222816467285
 23
-56.079524993896484
 33
136.0
  0
3DFACE
  8
0
 10
28.60222816467285
 20
-56.079524993896484
 30
136.0
 11
28.674375534057617
 21
-56.31800842285156
 31
136.0
 12
29.079862594604492
 22
-57.22203063964844
 32
136.0
 13
29.079862594604492
 23
-57.22203063964844
 33
136.0
  0
3DFACE
  8
0
 10
29.079862594604492
 20
-57.22203063964844
 30
136.0
 11
29.142650604248047
 21
-57.354522705078125
 31
136.0
 12
29.506061553955078
 22
-58.00836944580078
 32
136.0
 13
29.506061553955078
 23
-58.00836944580078
 33
136.0
  0
3DFACE
  8
0
 10
29.506061553955078
 20
-58.00836944580078
 30
136.0
 11
29.78975486755371
 21
-58.39838790893555
 31
136.0
 12
30.138628005981445
 22
-58.78186798095703
 32
136.0
 13
30.138628005981445
 23
-58.78186798095703
 33
136.0
  0
3DFACE
  8
0
 10
30.138628005981445
 20
-58.78186798095703
 30
136.0
 11
30.430740356445312
 21
-59.08955001831055
 31
136.0
 12
30.943126678466797
 22
-59.557525634765625
 32
136.0
 13
30.943126678466797
 23
-59.557525634765625
 33
136.0
  0
3DFACE
  8
0
 10
30.943126678466797
 20
-59.557525634765625
 30
136.0
 11
31.12540054321289
 21
-59.74327850341797
 31
136.0
 12
31.84674644470215
 22
-60.2860107421875
 32
136.0
 13
31.84674644470215
 23
-60.2860107421875
 33
136.0
  0
3DFACE
  8
0
 10
31.896833419799805
 20
-60.31499481201172
 30
136.0
 11
32.54168701171875
 21
-60.71337127685547
 31
136.0
 12
32.694732666015625
 22
-60.77964401245117
 32
136.0
 13
32.694732666015625
 23
-60.77964401245117
 33
136.0
  0
3DFACE
  8
0
 10
30.943126678466797
 20
-59.557525634765625
 30
136.0
 11
31.84674644470215
 21
-60.2860107421875
 31
136.0
 12
31.896833419799805
 22
-60.31499481201172
 32
136.0
 13
31.896833419799805
 23
-60.31499481201172
 33
136.0
  0
3DFACE
  8
0
 10
29.506061553955078
 20
-58.00836944580078
 30
136.0
 11
30.138628005981445
 21
-58.78186798095703
 31
136.0
 12
30.943126678466797
 22
-59.557525634765625
 32
136.0
 13
30.943126678466797
 23
-59.557525634765625
 33
136.0
  0
3DFACE
  8
0
 10
28.60222816467285
 20
-56.079524993896484
 30
136.0
 11
29.079862594604492
 21
-57.22203063964844
 31
136.0
 12
29.506061553955078
 22
-58.00836944580078
 32
136.0
 13
29.506061553955078
 23
-58.00836944580078
 33
136.0
  0
3DFACE
  8
0
 10
28.166522979736328
 20
-54.44304275512695
 30
136.0
 11
28.296518325805664
 21
-54.997894287109375
 31
136.0
 12
28.60222816467285
 22
-56.079524993896484
 32
136.0
 13
28.60222816467285
 23
-56.079524993896484
 33
136.0
  0
3DFACE
  8
0
 10
41.95490646362305
 20
-48.156436920166016
 30
136.0
 11
27.933839797973633
 21
-52.03630447387695
 31
136.0
 12
28.166522979736328
 22
-54.44304275512695
 32
136.0
 13
28.166522979736328
 23
-54.44304275512695
 33
136.0
  0
3DFACE
  8
0
 10
43.364192962646484
 20
-51.71192932128906
 30
136.0
 11
42.93772506713867
 21
-50.245391845703125
 31
136.0
 12
41.95490646362305
 22
-48.156436920166016
 32
136.0
 13
41.95490646362305
 23
-48.156436920166016
 33
136.0
  0
3DFACE
  8
0
 10
43.52634048461914
 20
-52.556575775146484
 30
136.0
 11
43.5166130065918
 21
-52.50029754638672
 31
136.0
 12
43.364192962646484
 22
-51.71192932128906
 32
136.0
 13
43.364192962646484
 23
-51.71192932128906
 33
136.0
  0
3DFACE
  8
0
 10
43.589473724365234
 20
-53.37821578979492
 30
136.0
 11
43.553714752197266
 21
-52.86272048950195
 31
136.0
 12
43.52634048461914
 22
-52.556575775146484
 32
136.0
 13
43.52634048461914
 23
-52.556575775146484
 33
136.0
  0
3DFACE
  8
0
 10
43.54661178588867
 20
-54.37052536010742
 30
136.0
 11
43.57221603393555
 21
-54.1775016784668
 31
136.0
 12
43.5721321105957
 22
-54.018558502197266
 32
136.0
 13
43.5721321105957
 23
-54.018558502197266
 33
136.0
  0
3DFACE
  8
0
 10
43.5721321105957
 20
-54.018558502197266
 30
136.0
 11
43.589473724365234
 21
-53.37821578979492
 31
136.0
 12
43.52634048461914
 22
-52.556575775146484
 32
136.0
 13
43.52634048461914
 23
-52.556575775146484
 33
136.0
  0
3DFACE
  8
0
 10
43.52634048461914
 20
-52.556575775146484
 30
136.0
 11
43.364192962646484
 21
-51.71192932128906
 31
136.0
 12
41.95490646362305
 22
-48.156436920166016
 32
136.0
 13
41.95490646362305
 23
-48.156436920166016
 33
136.0
  0
3DFACE
  8
0
 10
41.95490646362305
 20
-48.156436920166016
 30
136.0
 11
28.166522979736328
 21
-54.44304275512695
 31
136.0
 12
28.60222816467285
 22
-56.079524993896484
 32
136.0
 13
28.60222816467285
 23
-56.079524993896484
 33
136.0
  0
3DFACE
  8
0
 10
28.60222816467285
 20
-56.079524993896484
 30
136.0
 11
29.506061553955078
 21
-58.00836944580078
 31
136.0
 12
30.943126678466797
 22
-59.557525634765625
 32
136.0
 13
30.943126678466797
 23
-59.557525634765625
 33
136.0
  0
3DFACE
  8
0
 10
30.943126678466797
 20
-59.557525634765625
 30
136.0
 11
31.896833419799805
 21
-60.31499481201172
 31
136.0
 12
32.694732666015625
 22
-60.77964401245117
 32
136.0
 13
32.694732666015625
 23
-60.77964401245117
 33
136.0
  0
3DFACE
  8
0
 10
32.694732666015625
 20
-60.77964401245117
 30
136.0
 11
33.277069091796875
 21
-61.07176971435547
 31
136.0
 12
33.71584701538086
 22
-61.23208236694336
 32
136.0
 13
33.71584701538086
 23
-61.23208236694336
 33
136.0
  0
3DFACE
  8
0
 10
34.60871124267578
 20
-61.48856735229492
 30
136.0
 11
34.799076080322266
 21
-61.55045700073242
 31
136.0
 12
35.5404167175293
 22
-61.65192794799805
 32
136.0
 13
35.5404167175293
 23
-61.65192794799805
 33
136.0
  0
3DFACE
  8
0
 10
32.694732666015625
 20
-60.77964401245117
 30
136.0
 11
33.71584701538086
 21
-61.23208236694336
 31
136.0
 12
34.60871124267578
 22
-61.48856735229492
 32
136.0
 13
34.60871124267578
 23
-61.48856735229492
 33
136.0
  0
3DFACE
  8
0
 10
28.60222816467285
 20
-56.079524993896484
 30
136.0
 11
30.943126678466797
 21
-59.557525634765625
 31
136.0
 12
32.694732666015625
 22
-60.77964401245117
 32
136.0
 13
32.694732666015625
 23
-60.77964401245117
 33
136.0
  0
3DFACE
  8
0
 10
43.52634048461914
 20
-52.556575775146484
 30
136.0
 11
41.95490646362305
 21
-48.156436920166016
 31
136.0
 12
28.60222816467285
 22
-56.079524993896484
 32
136.0
 13
28.60222816467285
 23
-56.079524993896484
 33
136.0
  0
3DFACE
  8
0
 10
43.54661178588867
 20
-54.37052536010742
 30
136.0
 11
43.5721321105957
 21
-54.018558502197266
 31
136.0
 12
43.52634048461914
 22
-52.556575775146484
 32
136.0
 13
43.52634048461914
 23
-52.556575775146484
 33
136.0
  0
3DFACE
  8
0
 10
43.32463073730469
 20
-55.73752975463867
 30
136.0
 11
43.48844909667969
 21
-54.96864700317383
 31
136.0
 12
43.54661178588867
 22
-54.37052536010742
 32
136.0
 13
43.54661178588867
 23
-54.37052536010742
 33
136.0
  0
3DFACE
  8
0
 10
42.95817184448242
 20
-56.881126403808594
 30
136.0
 11
43.15080261230469
 21
-56.33671569824219
 31
136.0
 12
43.32463073730469
 22
-55.73752975463867
 32
136.0
 13
43.32463073730469
 23
-55.73752975463867
 33
136.0
  0
3DFACE
  8
0
 10
42.62799072265625
 20
-57.614768981933594
 30
136.0
 11
42.80954360961914
 21
-57.2317008972168
 31
136.0
 12
42.95817184448242
 22
-56.881126403808594
 32
136.0
 13
42.95817184448242
 23
-56.881126403808594
 33
136.0
  0
3DFACE
  8
0
 10
41.804744720458984
 20
-58.990169525146484
 30
136.0
 11
42.02583312988281
 21
-58.663421630859375
 31
136.0
 12
42.62799072265625
 22
-57.614768981933594
 32
136.0
 13
42.62799072265625
 23
-57.614768981933594
 33
136.0
  0
3DFACE
  8
0
 10
41.31491470336914
 20
-59.625396728515625
 30
136.0
 11
41.53828811645508
 21
-59.35704040527344
 31
136.0
 12
41.804744720458984
 22
-58.990169525146484
 32
136.0
 13
41.804744720458984
 23
-58.990169525146484
 33
136.0
  0
3DFACE
  8
0
 10
40.11536407470703
 20
-60.64015579223633
 30
136.0
 11
40.67787170410156
 21
-60.194602966308594
 31
136.0
 12
41.31491470336914
 22
-59.625396728515625
 32
136.0
 13
41.31491470336914
 23
-59.625396728515625
 33
136.0
  0
3DFACE
  8
0
 10
39.081111907958984
 20
-61.213775634765625
 30
136.0
 11
39.76087951660156
 21
-60.85435104370117
 31
136.0
 12
40.11536407470703
 22
-60.64015579223633
 32
136.0
 13
40.11536407470703
 23
-60.64015579223633
 33
136.0
  0
3DFACE
  8
0
 10
38.48871994018555
 20
-61.40716552734375
 30
136.0
 11
38.9201545715332
 21
-61.2780876159668
 31
136.0
 12
39.081111907958984
 22
-61.213775634765625
 32
136.0
 13
39.081111907958984
 23
-61.213775634765625
 33
136.0
  0
3DFACE
  8
0
 10
37.481483459472656
 20
-61.59352111816406
 30
136.0
 11
38.11588668823242
 21
-61.495391845703125
 31
136.0
 12
38.48871994018555
 22
-61.40716552734375
 32
136.0
 13
38.48871994018555
 23
-61.40716552734375
 33
136.0
  0
3DFACE
  8
0
 10
36.981719970703125
 20
-61.66585159301758
 30
136.0
 11
37.21685791015625
 21
-61.64204788208008
 31
136.0
 12
37.481483459472656
 22
-61.59352111816406
 32
136.0
 13
37.481483459472656
 23
-61.59352111816406
 33
136.0
  0
3DFACE
  8
0
 10
35.802223205566406
 20
-61.670536041259766
 30
136.0
 11
36.394222259521484
 21
-61.68918228149414
 31
136.0
 12
36.981719970703125
 22
-61.66585159301758
 32
136.0
 13
36.981719970703125
 23
-61.66585159301758
 33
136.0
  0
3DFACE
  8
0
 10
35.5404167175293
 20
-61.65192794799805
 30
136.0
 11
35.58796691894531
 21
-61.66016387939453
 31
136.0
 12
35.802223205566406
 22
-61.670536041259766
 32
136.0
 13
35.802223205566406
 23
-61.670536041259766
 33
136.0
  0
3DFACE
  8
0
 10
32.694732666015625
 20
-60.77964401245117
 30
136.0
 11
34.60871124267578
 21
-61.48856735229492
 31
136.0
 12
35.5404167175293
 22
-61.65192794799805
 32
136.0
 13
35.5404167175293
 23
-61.65192794799805
 33
136.0
  0
3DFACE
  8
0
 10
43.52634048461914
 20
-52.556575775146484
 30
136.0
 11
28.60222816467285
 21
-56.079524993896484
 31
136.0
 12
32.694732666015625
 22
-60.77964401245117
 32
136.0
 13
32.694732666015625
 23
-60.77964401245117
 33
136.0
  0
3DFACE
  8
0
 10
43.32463073730469
 20
-55.73752975463867
 30
136.0
 11
43.54661178588867
 21
-54.37052536010742
 31
136.0
 12
43.52634048461914
 22
-52.556575775146484
 32
136.0
 13
43.52634048461914
 23
-52.556575775146484
 33
136.0
  0
3DFACE
  8
0
 10
42.62799072265625
 20
-57.614768981933594
 30
136.0
 11
42.95817184448242
 21
-56.881126403808594
 31
136.0
 12
43.32463073730469
 22
-55.73752975463867
 32
136.0
 13
43.32463073730469
 23
-55.73752975463867
 33
136.0
  0
3DFACE
  8
0
 10
41.31491470336914
 20
-59.625396728515625
 30
136.0
 11
41.804744720458984
 21
-58.990169525146484
 31
136.0
 12
42.62799072265625
 22
-57.614768981933594
 32
136.0
 13
42.62799072265625
 23
-57.614768981933594
 33
136.0
  0
3DFACE
  8
0
 10
39.081111907958984
 20
-61.213775634765625
 30
136.0
 11
40.11536407470703
 21
-60.64015579223633
 31
136.0
 12
41.31491470336914
 22
-59.625396728515625
 32
136.0
 13
41.31491470336914
 23
-59.625396728515625
 33
136.0
  0
3DFACE
  8
0
 10
37.481483459472656
 20
-61.59352111816406
 30
136.0
 11
38.48871994018555
 21
-61.40716552734375
 31
136.0
 12
39.081111907958984
 22
-61.213775634765625
 32
136.0
 13
39.081111907958984
 23
-61.213775634765625
 33
136.0
  0
3DFACE
  8
0
 10
35.802223205566406
 20
-61.670536041259766
 30
136.0
 11
36.981719970703125
 21
-61.66585159301758
 31
136.0
 12
37.481483459472656
 22
-61.59352111816406
 32
136.0
 13
37.481483459472656
 23
-61.59352111816406
 33
136.0
  0
3DFACE
  8
0
 10
32.694732666015625
 20
-60.77964401245117
 30
136.0
 11
35.5404167175293
 21
-61.65192794799805
 31
136.0
 12
35.802223205566406
 22
-61.670536041259766
 32
136.0
 13
35.802223205566406
 23
-61.670536041259766
 33
136.0
  0
3DFACE
  8
0
 10
43.32463073730469
 20
-55.73752975463867
 30
136.0
 11
43.52634048461914
 21
-52.556575775146484
 31
136.0
 12
32.694732666015625
 22
-60.77964401245117
 32
136.0
 13
32.694732666015625
 23
-60.77964401245117
 33
136.0
  0
3DFACE
  8
0
 10
41.31491470336914
 20
-59.625396728515625
 30
136.0
 11
42.62799072265625
 21
-57.614768981933594
 31
136.0
 12
43.32463073730469
 22
-55.73752975463867
 32
136.0
 13
43.32463073730469
 23
-55.73752975463867
 33
136.0
  0
3DFACE
  8
0
 10
37.481483459472656
 20
-61.59352111816406
 30
136.0
 11
39.081111907958984
 21
-61.213775634765625
 31
136.0
 12
41.31491470336914
 22
-59.625396728515625
 32
136.0
 13
41.31491470336914
 23
-59.625396728515625
 33
136.0
  0
3DFACE
  8
0
 10
32.694732666015625
 20
-60.77964401245117
 30
136.0
 11
35.802223205566406
 21
-61.670536041259766
 31
136.0
 12
37.481483459472656
 22
-61.59352111816406
 32
136.0
 13
37.481483459472656
 23
-61.59352111816406
 33
136.0
  0
3DFACE
  8
0
 10
41.31491470336914
 20
-59.625396728515625
 30
136.0
 11
43.32463073730469
 21
-55.73752975463867
 31
136.0
 12
32.694732666015625
 22
-60.77964401245117
 32
136.0
 13
32.694732666015625
 23
-60.77964401245117
 33
136.0
  0
3DFACE
  8
0
 10
32.694732666015625
 20
-60.77964401245117
 30
136.0
 11
37.481483459472656
 21
-61.59352111816406
 31
136.0
 12
41.31491470336914
 22
-59.625396728515625
 32
136.0
 13
41.31491470336914
 23
-59.625396728515625
 33
136.0
  0
3DFACE
  8
0
 10
67.22248840332031
 20
-18.715063095092773
 30
136.0
 11
67.23025512695312
 21
-18.722129821777344
 31
136.0
 12
67.2364501953125
 22
-18.72747802734375
 32
136.0
 13
67.2364501953125
 23
-18.72747802734375
 33
136.0
  0
3DFACE
  8
0
 10
67.2364501953125
 20
-18.72747802734375
 30
136.0
 11
67.87773132324219
 21
-19.275514602661133
 31
136.0
 12
68.24388885498047
 22
-19.564212799072266
 32
136.0
 13
68.24388885498047
 23
-19.564212799072266
 33
136.0
  0
3DFACE
  8
0
 10
68.24388885498047
 20
-19.564212799072266
 30
136.0
 11
68.37799072265625
 21
-19.665672302246094
 31
136.0
 12
68.54006958007812
 22
-19.77625846862793
 32
136.0
 13
68.54006958007812
 23
-19.77625846862793
 33
136.0
  0
3DFACE
  8
0
 10
68.98350524902344
 20
-20.036008834838867
 30
136.0
 11
69.14718627929688
 21
-20.15597915649414
 31
136.0
 12
69.53990936279297
 22
-20.379352569580078
 32
136.0
 13
69.53990936279297
 23
-20.379352569580078
 33
136.0
  0
3DFACE
  8
0
 10
68.24388885498047
 20
-19.564212799072266
 30
136.0
 11
68.54006958007812
 21
-19.77625846862793
 31
136.0
 12
68.98350524902344
 22
-20.036008834838867
 32
136.0
 13
68.98350524902344
 23
-20.036008834838867
 33
136.0
  0
3DFACE
  8
0
 10
67.22248840332031
 20
-18.715063095092773
 30
136.0
 11
67.2364501953125
 21
-18.72747802734375
 31
136.0
 12
68.24388885498047
 22
-19.564212799072266
 32
136.0
 13
68.24388885498047
 23
-19.564212799072266
 33
136.0
  0
3DFACE
  8
0
 10
66.36479949951172
 20
-17.934755325317383
 30
136.0
 11
66.57096862792969
 21
-18.142568588256836
 31
136.0
 12
67.22248840332031
 22
-18.715063095092773
 32
136.0
 13
67.22248840332031
 23
-18.715063095092773
 33
136.0
  0
3DFACE
  8
0
 10
65.46878814697266
 20
-16.942516326904297
 30
136.0
 11
65.815185546875
 21
-17.358047485351562
 31
136.0
 12
66.23332214355469
 22
-17.791555404663086
 32
136.0
 13
66.23332214355469
 23
-17.791555404663086
 33
136.0
  0
3DFACE
  8
0
 10
66.23332214355469
 20
-17.791555404663086
 30
136.0
 11
66.36479949951172
 21
-17.934755325317383
 31
136.0
 12
67.22248840332031
 22
-18.715063095092773
 32
136.0
 13
67.22248840332031
 23
-18.715063095092773
 33
136.0
  0
3DFACE
  8
0
 10
67.22248840332031
 20
-18.715063095092773
 30
136.0
 11
68.24388885498047
 21
-19.564212799072266
 31
136.0
 12
68.98350524902344
 22
-20.036008834838867
 32
136.0
 13
68.98350524902344
 23
-20.036008834838867
 33
136.0
  0
3DFACE
  8
0
 10
68.98350524902344
 20
-20.036008834838867
 30
136.0
 11
69.53990936279297
 21
-20.379352569580078
 31
136.0
 12
69.68243408203125
 22
-20.43805503845215
 32
136.0
 13
69.68243408203125
 23
-20.43805503845215
 33
136.0
  0
3DFACE
  8
0
 10
69.98771667480469
 20
-20.542442321777344
 30
136.0
 11
70.17632293701172
 21
-20.63016700744629
 31
136.0
 12
70.90943908691406
 22
-20.864578247070312
 32
136.0
 13
70.90943908691406
 23
-20.864578247070312
 33
136.0
  0
3DFACE
  8
0
 10
68.98350524902344
 20
-20.036008834838867
 30
136.0
 11
69.68243408203125
 21
-20.43805503845215
 31
136.0
 12
69.98771667480469
 22
-20.542442321777344
 32
136.0
 13
69.98771667480469
 23
-20.542442321777344
 33
136.0
  0
3DFACE
  8
0
 10
66.23332214355469
 20
-17.791555404663086
 30
136.0
 11
67.22248840332031
 21
-18.715063095092773
 31
136.0
 12
68.98350524902344
 22
-20.036008834838867
 32
136.0
 13
68.98350524902344
 23
-20.036008834838867
 33
136.0
  0
3DFACE
  8
0
 10
65.19510650634766
 20
-16.58884048461914
 30
136.0
 11
65.46878814697266
 21
-16.942516326904297
 31
136.0
 12
66.23332214355469
 22
-17.791555404663086
 32
136.0
 13
66.23332214355469
 23
-17.791555404663086
 33
136.0
  0
3DFACE
  8
0
 10
64.46656799316406
 20
-15.335980415344238
 30
136.0
 11
64.70262908935547
 21
-15.819632530212402
 31
136.0
 12
64.77662658691406
 22
-15.927545547485352
 32
136.0
 13
64.77662658691406
 23
-15.927545547485352
 33
136.0
  0
3DFACE
  8
0
 10
64.77662658691406
 20
-15.927545547485352
 30
136.0
 11
65.19510650634766
 21
-16.58884048461914
 31
136.0
 12
66.23332214355469
 22
-17.791555404663086
 32
136.0
 13
66.23332214355469
 23
-17.791555404663086
 33
136.0
  0
3DFACE
  8
0
 10
66.23332214355469
 20
-17.791555404663086
 30
136.0
 11
68.98350524902344
 21
-20.036008834838867
 31
136.0
 12
69.98771667480469
 22
-20.542442321777344
 32
136.0
 13
69.98771667480469
 23
-20.542442321777344
 33
136.0
  0
3DFACE
  8
0
 10
69.98771667480469
 20
-20.542442321777344
 30
136.0
 11
70.90943908691406
 21
-20.864578247070312
 31
136.0
 12
71.41436767578125
 22
-20.979413986206055
 32
136.0
 13
71.41436767578125
 23
-20.979413986206055
 33
136.0
  0
3DFACE
  8
0
 10
71.41436767578125
 20
-20.979413986206055
 30
136.0
 11
71.55269622802734
 21
-21.015647888183594
 31
136.0
 12
71.75352478027344
 22
-21.056421279907227
 32
136.0
 13
71.75352478027344
 23
-21.056421279907227
 33
136.0
  0
3DFACE
  8
0
 10
72.07160949707031
 20
-21.099014282226562
 30
136.0
 11
72.5421142578125
 21
-21.189838409423828
 31
136.0
 12
73.48245239257812
 22
-21.28285026550293
 32
136.0
 13
73.48245239257812
 23
-21.28285026550293
 33
136.0
  0
3DFACE
  8
0
 10
71.41436767578125
 20
-20.979413986206055
 30
136.0
 11
71.75352478027344
 21
-21.056421279907227
 31
136.0
 12
72.07160949707031
 22
-21.099014282226562
 32
136.0
 13
72.07160949707031
 23
-21.099014282226562
 33
136.0
  0
3DFACE
  8
0
 10
66.23332214355469
 20
-17.791555404663086
 30
136.0
 11
69.98771667480469
 21
-20.542442321777344
 31
136.0
 12
71.41436767578125
 22
-20.979413986206055
 32
136.0
 13
71.41436767578125
 23
-20.979413986206055
 33
136.0
  0
3DFACE
  8
0
 10
64.46656799316406
 20
-15.335980415344238
 30
136.0
 11
64.77662658691406
 21
-15.927545547485352
 31
136.0
 12
66.23332214355469
 22
-17.791555404663086
 32
136.0
 13
66.23332214355469
 23
-17.791555404663086
 33
136.0
  0
3DFACE
  8
0
 10
64.06700897216797
 20
-14.35631275177002
 30
136.0
 11
64.31672668457031
 21
-15.050421714782715
 31
136.0
 12
64.46656799316406
 22
-15.335980415344238
 32
136.0
 13
64.46656799316406
 23
-15.335980415344238
 33
136.0
  0
3DFACE
  8
0
 10
63.962913513183594
 20
-14.084648132324219
 30
136.0
 11
64.03435516357422
 21
-14.281216621398926
 31
136.0
 12
64.06700897216797
 22
-14.35631275177002
 32
136.0
 13
64.06700897216797
 23
-14.35631275177002
 33
136.0
  0
3DFACE
  8
0
 10
63.57937240600586
 20
-12.711892127990723
 30
136.0
 11
63.78098678588867
 21
-13.512005805969238
 31
136.0
 12
63.962913513183594
 22
-14.084648132324219
 32
136.0
 13
63.962913513183594
 23
-14.084648132324219
 33
136.0
  0
3DFACE
  8
0
 10
63.36485290527344
 20
-11.272759437561035
 30
136.0
 11
63.5008544921875
 21
-12.304681777954102
 31
136.0
 12
63.57937240600586
 22
-12.711892127990723
 32
136.0
 13
63.57937240600586
 23
-12.711892127990723
 33
136.0
  0
3DFACE
  8
0
 10
63.34428405761719
 20
-10.388558387756348
 30
136.0
 11
63.357913970947266
 21
-11.204380989074707
 31
136.0
 12
63.36485290527344
 22
-11.272759437561035
 32
136.0
 13
63.36485290527344
 23
-11.272759437561035
 33
136.0
  0
3DFACE
  8
0
 10
63.485774993896484
 20
-8.82532787322998
 30
136.0
 11
63.42302703857422
 21
-9.240073204040527
 31
136.0
 12
63.39411163330078
 22
-9.87380313873291
 32
136.0
 13
63.39411163330078
 23
-9.87380313873291
 33
136.0
  0
3DFACE
  8
0
 10
63.39411163330078
 20
-9.87380313873291
 30
136.0
 11
63.34428405761719
 21
-10.388558387756348
 31
136.0
 12
63.36485290527344
 22
-11.272759437561035
 32
136.0
 13
63.36485290527344
 23
-11.272759437561035
 33
136.0
  0
3DFACE
  8
0
 10
63.36485290527344
 20
-11.272759437561035
 30
136.0
 11
63.57937240600586
 21
-12.711892127990723
 31
136.0
 12
63.962913513183594
 22
-14.084648132324219
 32
136.0
 13
63.962913513183594
 23
-14.084648132324219
 33
136.0
  0
3DFACE
  8
0
 10
63.962913513183594
 20
-14.084648132324219
 30
136.0
 11
64.06700897216797
 21
-14.35631275177002
 31
136.0
 12
64.46656799316406
 22
-15.335980415344238
 32
136.0
 13
64.46656799316406
 23
-15.335980415344238
 33
136.0
  0
3DFACE
  8
0
 10
64.46656799316406
 20
-15.335980415344238
 30
136.0
 11
66.23332214355469
 21
-17.791555404663086
 31
136.0
 12
71.41436767578125
 22
-20.979413986206055
 32
136.0
 13
71.41436767578125
 23
-20.979413986206055
 33
136.0
  0
3DFACE
  8
0
 10
71.41436767578125
 20
-20.979413986206055
 30
136.0
 11
72.07160949707031
 21
-21.099014282226562
 31
136.0
 12
73.48245239257812
 22
-21.28285026550293
 32
136.0
 13
73.48245239257812
 23
-21.28285026550293
 33
136.0
  0
3DFACE
  8
0
 10
73.48245239257812
 20
-21.28285026550293
 30
136.0
 11
74.11931610107422
 21
-21.29920768737793
 31
136.0
 12
74.76367950439453
 22
-21.275100708007812
 32
136.0
 13
74.76367950439453
 23
-21.275100708007812
 33
136.0
  0
3DFACE
  8
0
 10
74.76367950439453
 20
-21.275100708007812
 30
136.0
 11
76.0201187133789
 21
-21.09905433654785
 31
136.0
 12
76.48511505126953
 22
-20.974197387695312
 32
136.0
 13
76.48511505126953
 23
-20.974197387695312
 33
136.0
  0
3DFACE
  8
0
 10
76.48511505126953
 20
-20.974197387695312
 30
136.0
 11
76.64161682128906
 21
-20.925376892089844
 31
136.0
 12
76.69874572753906
 22
-20.90581703186035
 32
136.0
 13
76.69874572753906
 23
-20.90581703186035
 33
136.0
  0
3DFACE
  8
0
 10
76.84588623046875
 20
-20.847553253173828
 30
136.0
 11
77.3420181274414
 21
-20.66257667541504
 31
136.0
 12
77.38125610351562
 22
-20.64179229736328
 32
136.0
 13
77.38125610351562
 23
-20.64179229736328
 33
136.0
  0
3DFACE
  8
0
 10
76.48511505126953
 20
-20.974197387695312
 30
136.0
 11
76.69874572753906
 21
-20.90581703186035
 31
136.0
 12
76.84588623046875
 22
-20.847553253173828
 32
136.0
 13
76.84588623046875
 23
-20.847553253173828
 33
136.0
  0
3DFACE
  8
0
 10
73.48245239257812
 20
-21.28285026550293
 30
136.0
 11
74.76367950439453
 21
-21.275100708007812
 31
136.0
 12
76.48511505126953
 22
-20.974197387695312
 32
136.0
 13
76.48511505126953
 23
-20.974197387695312
 33
136.0
  0
3DFACE
  8
0
 10
64.46656799316406
 20
-15.335980415344238
 30
136.0
 11
71.41436767578125
 21
-20.979413986206055
 31
136.0
 12
73.48245239257812
 22
-21.28285026550293
 32
136.0
 13
73.48245239257812
 23
-21.28285026550293
 33
136.0
  0
3DFACE
  8
0
 10
63.36485290527344
 20
-11.272759437561035
 30
136.0
 11
63.962913513183594
 21
-14.084648132324219
 31
136.0
 12
64.46656799316406
 22
-15.335980415344238
 32
136.0
 13
64.46656799316406
 23
-15.335980415344238
 33
136.0
  0
3DFACE
  8
0
 10
63.485774993896484
 20
-8.82532787322998
 30
136.0
 11
63.39411163330078
 21
-9.87380313873291
 31
136.0
 12
63.36485290527344
 22
-11.272759437561035
 32
136.0
 13
63.36485290527344
 23
-11.272759437561035
 33
136.0
  0
3DFACE
  8
0
 10
63.688175201416016
 20
-7.984333515167236
 30
136.0
 11
63.559574127197266
 21
-8.474863052368164
 31
136.0
 12
63.485774993896484
 22
-8.82532787322998
 32
136.0
 13
63.485774993896484
 23
-8.82532787322998
 33
136.0
  0
3DFACE
  8
0
 10
64.0406265258789
 20
-6.69700288772583
 30
136.0
 11
63.79340744018555
 21
-7.465764999389648
 31
136.0
 12
63.688175201416016
 22
-7.984333515167236
 32
136.0
 13
63.688175201416016
 23
-7.984333515167236
 33
136.0
  0
3DFACE
  8
0
 10
64.10342407226562
 20
-6.5184478759765625
 30
136.0
 11
64.07221984863281
 21
-6.589130401611328
 31
136.0
 12
64.0406265258789
 22
-6.69700288772583
 32
136.0
 13
64.0406265258789
 23
-6.69700288772583
 33
136.0
  0
3DFACE
  8
0
 10
64.45855712890625
 20
-5.649100303649902
 30
136.0
 11
64.36268615722656
 21
-5.8552985191345215
 31
136.0
 12
64.10342407226562
 22
-6.5184478759765625
 32
136.0
 13
64.10342407226562
 23
-6.5184478759765625
 33
136.0
  0
3DFACE
  8
0
 10
64.73467254638672
 20
-5.050714492797852
 30
136.0
 11
64.57568359375
 21
-5.372462272644043
 31
136.0
 12
64.45855712890625
 22
-5.649100303649902
 32
136.0
 13
64.45855712890625
 23
-5.649100303649902
 33
136.0
  0
3DFACE
  8
0
 10
64.89314270019531
 20
-4.78411865234375
 30
136.0
 11
64.7917709350586
 21
-4.942721366882324
 31
136.0
 12
64.73467254638672
 22
-5.050714492797852
 32
136.0
 13
64.73467254638672
 23
-5.050714492797852
 33
136.0
  0
3DFACE
  8
0
 10
65.4674072265625
 20
-3.833012819290161
 30
136.0
 11
65.23200988769531
 21
-4.187493324279785
 31
136.0
 12
64.89314270019531
 22
-4.78411865234375
 32
136.0
 13
64.89314270019531
 23
-4.78411865234375
 33
136.0
  0
3DFACE
  8
0
 10
65.78516387939453
 20
-3.389958143234253
 30
136.0
 11
65.65184020996094
 21
-3.554234266281128
 31
136.0
 12
65.54022216796875
 22
-3.73319149017334
 32
136.0
 13
65.54022216796875
 23
-3.73319149017334
 33
136.0
  0
3DFACE
  8
0
 10
65.54022216796875
 20
-3.73319149017334
 30
136.0
 11
65.4674072265625
 21
-3.833012819290161
 31
136.0
 12
64.89314270019531
 22
-4.78411865234375
 32
136.0
 13
64.89314270019531
 23
-4.78411865234375
 33
136.0
  0
3DFACE
  8
0
 10
64.89314270019531
 20
-4.78411865234375
 30
136.0
 11
64.73467254638672
 21
-5.050714492797852
 31
136.0
 12
64.45855712890625
 22
-5.649100303649902
 32
136.0
 13
64.45855712890625
 23
-5.649100303649902
 33
136.0
  0
3DFACE
  8
0
 10
64.45855712890625
 20
-5.649100303649902
 30
136.0
 11
64.10342407226562
 21
-6.5184478759765625
 31
136.0
 12
64.0406265258789
 22
-6.69700288772583
 32
136.0
 13
64.0406265258789
 23
-6.69700288772583
 33
136.0
  0
3DFACE
  8
0
 10
64.0406265258789
 20
-6.69700288772583
 30
136.0
 11
63.688175201416016
 21
-7.984333515167236
 31
136.0
 12
63.485774993896484
 22
-8.82532787322998
 32
136.0
 13
63.485774993896484
 23
-8.82532787322998
 33
136.0
  0
3DFACE
  8
0
 10
63.485774993896484
 20
-8.82532787322998
 30
136.0
 11
63.36485290527344
 21
-11.272759437561035
 31
136.0
 12
64.46656799316406
 22
-15.335980415344238
 32
136.0
 13
64.46656799316406
 23
-15.335980415344238
 33
136.0
  0
3DFACE
  8
0
 10
64.46656799316406
 20
-15.335980415344238
 30
136.0
 11
73.48245239257812
 21
-21.28285026550293
 31
136.0
 12
76.48511505126953
 22
-20.974197387695312
 32
136.0
 13
76.48511505126953
 23
-20.974197387695312
 33
136.0
  0
3DFACE
  8
0
 10
76.48511505126953
 20
-20.974197387695312
 30
136.0
 11
76.84588623046875
 21
-20.847553253173828
 31
136.0
 12
77.38125610351562
 22
-20.64179229736328
 32
136.0
 13
77.38125610351562
 23
-20.64179229736328
 33
136.0
  0
3DFACE
  8
0
 10
77.38125610351562
 20
-20.64179229736328
 30
136.0
 11
77.94254302978516
 21
-20.357593536376953
 31
136.0
 12
78.75049591064453
 22
-19.879743576049805
 32
136.0
 13
78.75049591064453
 23
-19.879743576049805
 33
136.0
  0
3DFACE
  8
0
 10
78.75049591064453
 20
-19.879743576049805
 30
136.0
 11
78.97349548339844
 21
-19.740646362304688
 31
136.0
 12
79.18093872070312
 22
-19.592517852783203
 32
136.0
 13
79.18093872070312
 23
-19.592517852783203
 33
136.0
  0
3DFACE
  8
0
 10
79.26451110839844
 20
-19.509660720825195
 30
136.0
 11
79.53324127197266
 21
-19.304954528808594
 31
136.0
 12
80.2219467163086
 22
-18.753419876098633
 32
136.0
 13
80.2219467163086
 23
-18.753419876098633
 33
136.0
  0
3DFACE
  8
0
 10
78.75049591064453
 20
-19.879743576049805
 30
136.0
 11
79.18093872070312
 21
-19.592517852783203
 31
136.0
 12
79.26451110839844
 22
-19.509660720825195
 32
136.0
 13
79.26451110839844
 23
-19.509660720825195
 33
136.0
  0
3DFACE
  8
0
 10
76.48511505126953
 20
-20.974197387695312
 30
136.0
 11
77.38125610351562
 21
-20.64179229736328
 31
136.0
 12
78.75049591064453
 22
-19.879743576049805
 32
136.0
 13
78.75049591064453
 23
-19.879743576049805
 33
136.0
  0
3DFACE
  8
0
 10
63.485774993896484
 20
-8.82532787322998
 30
136.0
 11
64.46656799316406
 21
-15.335980415344238
 31
136.0
 12
76.48511505126953
 22
-20.974197387695312
 32
136.0
 13
76.48511505126953
 23
-20.974197387695312
 33
136.0
  0
3DFACE
  8
0
 10
64.45855712890625
 20
-5.649100303649902
 30
136.0
 11
64.0406265258789
 21
-6.69700288772583
 31
136.0
 12
63.485774993896484
 22
-8.82532787322998
 32
136.0
 13
63.485774993896484
 23
-8.82532787322998
 33
136.0
  0
3DFACE
  8
0
 10
65.54022216796875
 20
-3.73319149017334
 30
136.0
 11
64.89314270019531
 21
-4.78411865234375
 31
136.0
 12
64.45855712890625
 22
-5.649100303649902
 32
136.0
 13
64.45855712890625
 23
-5.649100303649902
 33
136.0
  0
3DFACE
  8
0
 10
66.23332977294922
 20
-2.913964033126831
 30
136.0
 11
65.78516387939453
 21
-3.389958143234253
 31
136.0
 12
65.54022216796875
 22
-3.73319149017334
 32
136.0
 13
65.54022216796875
 23
-3.73319149017334
 33
136.0
  0
3DFACE
  8
0
 10
66.31370544433594
 20
-2.8369357585906982
 30
136.0
 11
66.23332977294922
 21
-2.913964033126831
 31
136.0
 12
65.54022216796875
 22
-3.73319149017334
 32
136.0
 13
65.54022216796875
 23
-3.73319149017334
 33
136.0
  0
3DFACE
  8
0
 10
65.54022216796875
 20
-3.73319149017334
 30
136.0
 11
64.45855712890625
 21
-5.649100303649902
 31
136.0
 12
63.485774993896484
 22
-8.82532787322998
 32
136.0
 13
63.485774993896484
 23
-8.82532787322998
 33
136.0
  0
3DFACE
  8
0
 10
63.485774993896484
 20
-8.82532787322998
 30
136.0
 11
76.48511505126953
 21
-20.974197387695312
 31
136.0
 12
78.75049591064453
 22
-19.879743576049805
 32
136.0
 13
78.75049591064453
 23
-19.879743576049805
 33
136.0
  0
3DFACE
  8
0
 10
78.75049591064453
 20
-19.879743576049805
 30
136.0
 11
79.26451110839844
 21
-19.509660720825195
 31
136.0
 12
80.2219467163086
 22
-18.753419876098633
 32
136.0
 13
80.2219467163086
 23
-18.753419876098633
 33
136.0
  0
3DFACE
  8
0
 10
80.2219467163086
 20
-18.753419876098633
 30
136.0
 11
80.42810821533203
 21
-18.59532928466797
 31
136.0
 12
80.90443420410156
 22
-18.14480209350586
 32
136.0
 13
80.90443420410156
 23
-18.14480209350586
 33
136.0
  0
3DFACE
  8
0
 10
80.90443420410156
 20
-18.14480209350586
 30
136.0
 11
80.92497253417969
 21
-18.12725830078125
 31
136.0
 12
81.68645477294922
 22
-17.358047485351562
 32
136.0
 13
81.68645477294922
 23
-17.358047485351562
 33
136.0
  0
3DFACE
  8
0
 10
81.68645477294922
 20
-17.358047485351562
 30
136.0
 11
81.79519653320312
 21
-17.24132537841797
 31
136.0
 12
82.11861419677734
 22
-16.84476661682129
 32
136.0
 13
82.11861419677734
 23
-16.84476661682129
 33
136.0
  0
3DFACE
  8
0
 10
82.11861419677734
 20
-16.84476661682129
 30
136.0
 11
82.20531463623047
 21
-16.74797821044922
 31
136.0
 12
82.3329086303711
 22
-16.58884048461914
 32
136.0
 13
82.3329086303711
 23
-16.58884048461914
 33
136.0
  0
3DFACE
  8
0
 10
82.3329086303711
 20
-16.58884048461914
 30
136.0
 11
82.87528228759766
 21
-15.819632530212402
 31
136.0
 12
83.18521881103516
 22
-15.303396224975586
 32
136.0
 13
83.18521881103516
 23
-15.303396224975586
 33
136.0
  0
3DFACE
  8
0
 10
83.25772857666016
 20
-15.172764778137207
 30
136.0
 11
83.330078125
 21
-15.050421714782715
 31
136.0
 12
83.68891906738281
 22
-14.281216621398926
 32
136.0
 13
83.68891906738281
 23
-14.281216621398926
 33
136.0
  0
3DFACE
  8
0
 10
82.3329086303711
 20
-16.58884048461914
 30
136.0
 11
83.18521881103516
 21
-15.303396224975586
 31
136.0
 12
83.25772857666016
 22
-15.172764778137207
 32
136.0
 13
83.25772857666016
 23
-15.172764778137207
 33
136.0
  0
3DFACE
  8
0
 10
81.68645477294922
 20
-17.358047485351562
 30
136.0
 11
82.11861419677734
 21
-16.84476661682129
 31
136.0
 12
82.3329086303711
 22
-16.58884048461914
 32
136.0
 13
82.3329086303711
 23
-16.58884048461914
 33
136.0
  0
3DFACE
  8
0
 10
80.2219467163086
 20
-18.753419876098633
 30
136.0
 11
80.90443420410156
 21
-18.14480209350586
 31
136.0
 12
81.68645477294922
 22
-17.358047485351562
 32
136.0
 13
81.68645477294922
 23
-17.358047485351562
 33
136.0
  0
3DFACE
  8
0
 10
63.485774993896484
 20
-8.82532787322998
 30
136.0
 11
78.75049591064453
 21
-19.879743576049805
 31
136.0
 12
80.2219467163086
 22
-18.753419876098633
 32
136.0
 13
80.2219467163086
 23
-18.753419876098633
 33
136.0
  0
3DFACE
  8
0
 10
66.31370544433594
 20
-2.8369357585906982
 30
136.0
 11
65.54022216796875
 21
-3.73319149017334
 31
136.0
 12
63.485774993896484
 22
-8.82532787322998
 32
136.0
 13
63.485774993896484
 23
-8.82532787322998
 33
136.0
  0
3DFACE
  8
0
 10
67.22303009033203
 20
-1.9738798141479492
 30
136.0
 11
66.47626495361328
 21
-2.6638400554656982
 31
136.0
 12
66.40452575683594
 22
-2.7430877685546875
 32
136.0
 13
66.40452575683594
 23
-2.7430877685546875
 33
136.0
  0
3DFACE
  8
0
 10
66.40452575683594
 20
-2.7430877685546875
 30
136.0
 11
66.31370544433594
 21
-2.8369357585906982
 31
136.0
 12
63.485774993896484
 22
-8.82532787322998
 32
136.0
 13
63.485774993896484
 23
-8.82532787322998
 33
136.0
  0
3DFACE
  8
0
 10
63.485774993896484
 20
-8.82532787322998
 30
136.0
 11
80.2219467163086
 21
-18.753419876098633
 31
136.0
 12
81.68645477294922
 22
-17.358047485351562
 32
136.0
 13
81.68645477294922
 23
-17.358047485351562
 33
136.0
  0
3DFACE
  8
0
 10
81.68645477294922
 20
-17.358047485351562
 30
136.0
 11
82.3329086303711
 21
-16.58884048461914
 31
136.0
 12
83.25772857666016
 22
-15.172764778137207
 32
136.0
 13
83.25772857666016
 23
-15.172764778137207
 33
136.0
  0
3DFACE
  8
0
 10
83.25772857666016
 20
-15.172764778137207
 30
136.0
 11
83.68891906738281
 21
-14.281216621398926
 31
136.0
 12
83.99044799804688
 22
-13.512005805969238
 32
136.0
 13
83.99044799804688
 23
-13.512005805969238
 33
136.0
  0
3DFACE
  8
0
 10
84.04777526855469
 20
-13.293758392333984
 30
136.0
 11
84.20697021484375
 21
-12.799776077270508
 31
136.0
 12
84.22586059570312
 22
-12.731501579284668
 32
136.0
 13
84.22586059570312
 23
-12.731501579284668
 33
136.0
  0
3DFACE
  8
0
 10
83.25772857666016
 20
-15.172764778137207
 30
136.0
 11
83.99044799804688
 21
-13.512005805969238
 31
136.0
 12
84.04777526855469
 22
-13.293758392333984
 32
136.0
 13
84.04777526855469
 23
-13.293758392333984
 33
136.0
  0
3DFACE
  8
0
 10
63.485774993896484
 20
-8.82532787322998
 30
136.0
 11
81.68645477294922
 21
-17.358047485351562
 31
136.0
 12
83.25772857666016
 22
-15.172764778137207
 32
136.0
 13
83.25772857666016
 23
-15.172764778137207
 33
136.0
  0
3DFACE
  8
0
 10
67.22303009033203
 20
-1.9738798141479492
 30
136.0
 11
66.40452575683594
 21
-2.7430877685546875
 31
136.0
 12
63.485774993896484
 22
-8.82532787322998
 32
136.0
 13
63.485774993896484
 23
-8.82532787322998
 33
136.0
  0
3DFACE
  8
0
 10
67.69081115722656
 20
-1.6335639953613281
 30
136.0
 11
67.38236236572266
 21
-1.8483885526657104
 31
136.0
 12
67.22303009033203
 22
-1.9738798141479492
 32
136.0
 13
67.22303009033203
 23
-1.9738798141479492
 33
136.0
  0
3DFACE
  8
0
 10
67.99642181396484
 20
-1.454271912574768
 30
136.0
 11
67.8105239868164
 21
-1.55626380443573
 31
136.0
 12
67.69081115722656
 22
-1.6335639953613281
 32
136.0
 13
67.69081115722656
 23
-1.6335639953613281
 33
136.0
  0
3DFACE
  8
0
 10
68.97966003417969
 20
-0.9112023115158081
 30
136.0
 11
68.55437469482422
 21
-1.123948335647583
 31
136.0
 12
67.99642181396484
 22
-1.454271912574768
 32
136.0
 13
67.99642181396484
 23
-1.454271912574768
 33
136.0
  0
3DFACE
  8
0
 10
70.19676208496094
 20
-0.4784606695175171
 30
136.0
 11
69.64192962646484
 21
-0.6597373485565186
 31
136.0
 12
69.25180053710938
 22
-0.8150267004966736
 32
136.0
 13
69.25180053710938
 23
-0.8150267004966736
 33
136.0
  0
3DFACE
  8
0
 10
69.25180053710938
 20
-0.8150267004966736
 30
136.0
 11
68.97966003417969
 21
-0.9112023115158081
 31
136.0
 12
67.99642181396484
 22
-1.454271912574768
 32
136.0
 13
67.99642181396484
 23
-1.454271912574768
 33
136.0
  0
3DFACE
  8
0
 10
67.99642181396484
 20
-1.454271912574768
 30
136.0
 11
67.69081115722656
 21
-1.6335639953613281
 31
136.0
 12
67.22303009033203
 22
-1.9738798141479492
 32
136.0
 13
67.22303009033203
 23
-1.9738798141479492
 33
136.0
  0
3DFACE
  8
0
 10
67.22303009033203
 20
-1.9738798141479492
 30
136.0
 11
63.485774993896484
 21
-8.82532787322998
 31
136.0
 12
83.25772857666016
 22
-15.172764778137207
 32
136.0
 13
83.25772857666016
 23
-15.172764778137207
 33
136.0
  0
3DFACE
  8
0
 10
83.25772857666016
 20
-15.172764778137207
 30
136.0
 11
84.04777526855469
 21
-13.293758392333984
 31
136.0
 12
84.22586059570312
 22
-12.731501579284668
 32
136.0
 13
84.22586059570312
 23
-12.731501579284668
 33
136.0
  0
3DFACE
  8
0
 10
84.22586059570312
 20
-12.731501579284668
 30
136.0
 11
84.22968292236328
 21
-12.71635913848877
 31
136.0
 12
84.38927459716797
 22
-11.973589897155762
 32
136.0
 13
84.38927459716797
 23
-11.973589897155762
 33
136.0
  0
3DFACE
  8
0
 10
84.38927459716797
 20
-11.973589897155762
 30
136.0
 11
84.52703094482422
 21
-11.224024772644043
 31
136.0
 12
84.52937316894531
 22
-11.204380989074707
 32
136.0
 13
84.52937316894531
 23
-11.204380989074707
 33
136.0
  0
3DFACE
  8
0
 10
84.58747863769531
 20
-10.443253517150879
 30
136.0
 11
84.58882904052734
 21
-10.435172080993652
 31
136.0
 12
84.62854766845703
 22
-10.024250984191895
 32
136.0
 13
84.62854766845703
 23
-10.024250984191895
 33
136.0
  0
3DFACE
  8
0
 10
84.38927459716797
 20
-11.973589897155762
 30
136.0
 11
84.52937316894531
 21
-11.204380989074707
 31
136.0
 12
84.58747863769531
 22
-10.443253517150879
 32
136.0
 13
84.58747863769531
 23
-10.443253517150879
 33
136.0
  0
3DFACE
  8
0
 10
83.25772857666016
 20
-15.172764778137207
 30
136.0
 11
84.22586059570312
 21
-12.731501579284668
 31
136.0
 12
84.38927459716797
 22
-11.973589897155762
 32
136.0
 13
84.38927459716797
 23
-11.973589897155762
 33
136.0
  0
3DFACE
  8
0
 10
67.99642181396484
 20
-1.454271912574768
 30
136.0
 11
67.22303009033203
 21
-1.9738798141479492
 31
136.0
 12
83.25772857666016
 22
-15.172764778137207
 32
136.0
 13
83.25772857666016
 23
-15.172764778137207
 33
136.0
  0
3DFACE
  8
0
 10
70.19676208496094
 20
-0.4784606695175171
 30
136.0
 11
69.25180053710938
 21
-0.8150267004966736
 31
136.0
 12
67.99642181396484
 22
-1.454271912574768
 32
136.0
 13
67.99642181396484
 23
-1.454271912574768
 33
136.0
  0
3DFACE
  8
0
 10
71.09566497802734
 20
-0.2350974977016449
 30
136.0
 11
70.65460968017578
 21
-0.3522927165031433
 31
136.0
 12
70.34241485595703
 22
-0.44191044569015503
 32
136.0
 13
70.34241485595703
 23
-0.44191044569015503
 33
136.0
  0
3DFACE
  8
0
 10
70.34241485595703
 20
-0.44191044569015503
 30
136.0
 11
70.19676208496094
 21
-0.4784606695175171
 31
136.0
 12
67.99642181396484
 22
-1.454271912574768
 32
136.0
 13
67.99642181396484
 23
-1.454271912574768
 33
136.0
  0
3DFACE
  8
0
 10
67.99642181396484
 20
-1.454271912574768
 30
136.0
 11
83.25772857666016
 21
-15.172764778137207
 31
136.0
 12
84.38927459716797
 22
-11.973589897155762
 32
136.0
 13
84.38927459716797
 23
-11.973589897155762
 33
136.0
  0
3DFACE
  8
0
 10
84.38927459716797
 20
-11.973589897155762
 30
136.0
 11
84.58747863769531
 21
-10.443253517150879
 31
136.0
 12
84.62854766845703
 22
-10.024250984191895
 32
136.0
 13
84.62854766845703
 23
-10.024250984191895
 33
136.0
  0
3DFACE
  8
0
 10
84.62854766845703
 20
-10.024250984191895
 30
136.0
 11
84.62841796875
 21
-9.66596508026123
 31
136.0
 12
84.60429382324219
 22
-8.896754264831543
 32
136.0
 13
84.60429382324219
 23
-8.896754264831543
 33
136.0
  0
3DFACE
  8
0
 10
84.60429382324219
 20
-8.896754264831543
 30
136.0
 11
84.54000854492188
 21
-8.127547264099121
 31
136.0
 12
84.51675415039062
 22
-7.972221851348877
 32
136.0
 13
84.51675415039062
 23
-7.972221851348877
 33
136.0
  0
3DFACE
  8
0
 10
84.51675415039062
 20
-7.972221851348877
 30
136.0
 11
84.407470703125
 21
-7.358340263366699
 31
136.0
 12
84.38887786865234
 22
-7.285974025726318
 32
136.0
 13
84.38887786865234
 23
-7.285974025726318
 33
136.0
  0
3DFACE
  8
0
 10
84.38887786865234
 20
-7.285974025726318
 30
136.0
 11
84.19914245605469
 21
-6.589130401611328
 31
136.0
 12
84.0439224243164
 22
-6.190822601318359
 32
136.0
 13
84.0439224243164
 23
-6.190822601318359
 33
136.0
  0
3DFACE
  8
0
 10
84.0439224243164
 20
-6.190822601318359
 30
136.0
 11
83.90798950195312
 21
-5.81992244720459
 31
136.0
 12
83.54930114746094
 22
-5.050714492797852
 32
136.0
 13
83.54930114746094
 23
-5.050714492797852
 33
136.0
  0
3DFACE
  8
0
 10
83.54930114746094
 20
-5.050714492797852
 30
136.0
 11
83.47154998779297
 21
-4.911407947540283
 31
136.0
 12
83.10401916503906
 22
-4.281506538391113
 32
136.0
 13
83.10401916503906
 23
-4.281506538391113
 33
136.0
  0
3DFACE
  8
0
 10
83.10401916503906
 20
-4.281506538391113
 30
136.0
 11
82.93220520019531
 21
-4.031355857849121
 31
136.0
 12
82.52401733398438
 22
-3.485661268234253
 32
136.0
 13
82.52401733398438
 23
-3.485661268234253
 33
136.0
  0
3DFACE
  8
0
 10
82.52401733398438
 20
-3.485661268234253
 30
136.0
 11
82.0527114868164
 21
-2.9049036502838135
 31
136.0
 12
81.89328002929688
 22
-2.7277417182922363
 32
136.0
 13
81.89328002929688
 23
-2.7277417182922363
 33
136.0
  0
3DFACE
  8
0
 10
81.89328002929688
 20
-2.7277417182922363
 30
136.0
 11
81.17826080322266
 21
-2.065487861633301
 31
136.0
 12
81.13129425048828
 22
-2.0241615772247314
 32
136.0
 13
81.13129425048828
 23
-2.0241615772247314
 33
136.0
  0
3DFACE
  8
0
 10
81.13129425048828
 20
-2.0241615772247314
 30
136.0
 11
80.4281005859375
 21
-1.5330939292907715
 31
136.0
 12
80.22437286376953
 22
-1.403387427330017
 32
136.0
 13
80.22437286376953
 23
-1.403387427330017
 33
136.0
  0
3DFACE
  8
0
 10
80.22437286376953
 20
-1.403387427330017
 30
136.0
 11
80.13404083251953
 21
-1.3440463542938232
 31
136.0
 12
79.8807601928711
 22
-1.2046699523925781
 32
136.0
 13
79.8807601928711
 23
-1.2046699523925781
 33
136.0
  0
3DFACE
  8
0
 10
79.85729217529297
 20
-1.1929676532745361
 30
136.0
 11
79.5800552368164
 21
-1.0470032691955566
 31
136.0
 12
78.67521667480469
 22
-0.6120396852493286
 32
136.0
 13
78.67521667480469
 23
-0.6120396852493286
 33
136.0
  0
3DFACE
  8
0
 10
80.22437286376953
 20
-1.403387427330017
 30
136.0
 11
79.8807601928711
 21
-1.2046699523925781
 31
136.0
 12
79.85729217529297
 22
-1.1929676532745361
 32
136.0
 13
79.85729217529297
 23
-1.1929676532745361
 33
136.0
  0
3DFACE
  8
0
 10
81.89328002929688
 20
-2.7277417182922363
 30
136.0
 11
81.13129425048828
 21
-2.0241615772247314
 31
136.0
 12
80.22437286376953
 22
-1.403387427330017
 32
136.0
 13
80.22437286376953
 23
-1.403387427330017
 33
136.0
  0
3DFACE
  8
0
 10
83.10401916503906
 20
-4.281506538391113
 30
136.0
 11
82.52401733398438
 21
-3.485661268234253
 31
136.0
 12
81.89328002929688
 22
-2.7277417182922363
 32
136.0
 13
81.89328002929688
 23
-2.7277417182922363
 33
136.0
  0
3DFACE
  8
0
 10
84.0439224243164
 20
-6.190822601318359
 30
136.0
 11
83.54930114746094
 21
-5.050714492797852
 31
136.0
 12
83.10401916503906
 22
-4.281506538391113
 32
136.0
 13
83.10401916503906
 23
-4.281506538391113
 33
136.0
  0
3DFACE
  8
0
 10
84.51675415039062
 20
-7.972221851348877
 30
136.0
 11
84.38887786865234
 21
-7.285974025726318
 31
136.0
 12
84.0439224243164
 22
-6.190822601318359
 32
136.0
 13
84.0439224243164
 23
-6.190822601318359
 33
136.0
  0
3DFACE
  8
0
 10
84.62854766845703
 20
-10.024250984191895
 30
136.0
 11
84.60429382324219
 21
-8.896754264831543
 31
136.0
 12
84.51675415039062
 22
-7.972221851348877
 32
136.0
 13
84.51675415039062
 23
-7.972221851348877
 33
136.0
  0
3DFACE
  8
0
 10
67.99642181396484
 20
-1.454271912574768
 30
136.0
 11
84.38927459716797
 21
-11.973589897155762
 31
136.0
 12
84.62854766845703
 22
-10.024250984191895
 32
136.0
 13
84.62854766845703
 23
-10.024250984191895
 33
136.0
  0
3DFACE
  8
0
 10
71.09566497802734
 20
-0.2350974977016449
 30
136.0
 11
70.34241485595703
 21
-0.44191044569015503
 31
136.0
 12
67.99642181396484
 22
-1.454271912574768
 32
136.0
 13
67.99642181396484
 23
-1.454271912574768
 33
136.0
  0
3DFACE
  8
0
 10
72.54212188720703
 20
0.05879953131079674
 30
136.0
 11
72.1959457397461
 21
-0.0012223488884046674
 31
136.0
 12
71.84854125976562
 22
-0.08130467683076859
 32
136.0
 13
71.84854125976562
 23
-0.08130467683076859
 33
136.0
  0
3DFACE
  8
0
 10
71.84854125976562
 20
-0.08130467683076859
 30
136.0
 11
71.09566497802734
 21
-0.2350974977016449
 31
136.0
 12
67.99642181396484
 22
-1.454271912574768
 32
136.0
 13
67.99642181396484
 23
-1.454271912574768
 33
136.0
  0
3DFACE
  8
0
 10
67.99642181396484
 20
-1.454271912574768
 30
136.0
 11
84.62854766845703
 21
-10.024250984191895
 31
136.0
 12
84.51675415039062
 22
-7.972221851348877
 32
136.0
 13
84.51675415039062
 23
-7.972221851348877
 33
136.0
  0
3DFACE
  8
0
 10
84.51675415039062
 20
-7.972221851348877
 30
136.0
 11
84.0439224243164
 21
-6.190822601318359
 31
136.0
 12
83.10401916503906
 22
-4.281506538391113
 32
136.0
 13
83.10401916503906
 23
-4.281506538391113
 33
136.0
  0
3DFACE
  8
0
 10
83.10401916503906
 20
-4.281506538391113
 30
136.0
 11
81.89328002929688
 21
-2.7277417182922363
 31
136.0
 12
80.22437286376953
 22
-1.403387427330017
 32
136.0
 13
80.22437286376953
 23
-1.403387427330017
 33
136.0
  0
3DFACE
  8
0
 10
80.22437286376953
 20
-1.403387427330017
 30
136.0
 11
79.85729217529297
 21
-1.1929676532745361
 31
136.0
 12
78.67521667480469
 22
-0.6120396852493286
 32
136.0
 13
78.67521667480469
 23
-0.6120396852493286
 33
136.0
  0
3DFACE
  8
0
 10
78.67521667480469
 20
-0.6120396852493286
 30
136.0
 11
78.10884857177734
 21
-0.3723643124103546
 31
136.0
 12
78.08769226074219
 22
-0.3638423681259155
 32
136.0
 13
78.08769226074219
 23
-0.3638423681259155
 33
136.0
  0
3DFACE
  8
0
 10
77.38905334472656
 20
-0.13069728016853333
 30
136.0
 11
77.3420181274414
 21
-0.11374159902334213
 31
136.0
 12
76.98150634765625
 22
-0.013504921458661556
 32
136.0
 13
76.98150634765625
 23
-0.013504921458661556
 33
136.0
  0
3DFACE
  8
0
 10
78.67521667480469
 20
-0.6120396852493286
 30
136.0
 11
78.08769226074219
 21
-0.3638423681259155
 31
136.0
 12
77.38905334472656
 22
-0.13069728016853333
 32
136.0
 13
77.38905334472656
 23
-0.13069728016853333
 33
136.0
  0
3DFACE
  8
0
 10
83.10401916503906
 20
-4.281506538391113
 30
136.0
 11
80.22437286376953
 21
-1.403387427330017
 31
136.0
 12
78.67521667480469
 22
-0.6120396852493286
 32
136.0
 13
78.67521667480469
 23
-0.6120396852493286
 33
136.0
  0
3DFACE
  8
0
 10
67.99642181396484
 20
-1.454271912574768
 30
136.0
 11
84.51675415039062
 21
-7.972221851348877
 31
136.0
 12
83.10401916503906
 22
-4.281506538391113
 32
136.0
 13
83.10401916503906
 23
-4.281506538391113
 33
136.0
  0
3DFACE
  8
0
 10
72.54212188720703
 20
0.05879953131079674
 30
136.0
 11
71.84854125976562
 21
-0.08130467683076859
 31
136.0
 12
67.99642181396484
 22
-1.454271912574768
 32
136.0
 13
67.99642181396484
 23
-1.454271912574768
 33
136.0
  0
3DFACE
  8
0
 10
74.10917663574219
 20
0.23383434116840363
 30
136.0
 11
72.83919525146484
 21
0.1056039035320282
 31
136.0
 12
72.54212188720703
 22
0.05879953131079674
 32
136.0
 13
72.54212188720703
 23
0.05879953131079674
 33
136.0
  0
3DFACE
  8
0
 10
74.71147918701172
 20
0.2616525888442993
 30
136.0
 11
74.1183090209961
 21
0.23488958179950714
 31
136.0
 12
74.10917663574219
 22
0.23383434116840363
 32
136.0
 13
74.10917663574219
 23
0.23383434116840363
 33
136.0
  0
3DFACE
  8
0
 10
75.5399398803711
 20
0.2340070903301239
 30
136.0
 11
75.41222381591797
 21
0.2433767318725586
 31
136.0
 12
74.71147918701172
 22
0.2616525888442993
 32
136.0
 13
74.71147918701172
 23
0.2616525888442993
 33
136.0
  0
3DFACE
  8
0
 10
76.30272674560547
 20
0.11726103723049164
 30
136.0
 11
76.05548095703125
 21
0.1636079102754593
 31
136.0
 12
75.6965103149414
 22
0.20723989605903625
 32
136.0
 13
75.6965103149414
 23
0.20723989605903625
 33
136.0
  0
3DFACE
  8
0
 10
75.6965103149414
 20
0.20723989605903625
 30
136.0
 11
75.5399398803711
 21
0.2340070903301239
 31
136.0
 12
74.71147918701172
 22
0.2616525888442993
 32
136.0
 13
74.71147918701172
 23
0.2616525888442993
 33
136.0
  0
3DFACE
  8
0
 10
74.71147918701172
 20
0.2616525888442993
 30
136.0
 11
74.10917663574219
 21
0.23383434116840363
 31
136.0
 12
72.54212188720703
 22
0.05879953131079674
 32
136.0
 13
72.54212188720703
 23
0.05879953131079674
 33
136.0
  0
3DFACE
  8
0
 10
72.54212188720703
 20
0.05879953131079674
 30
136.0
 11
67.99642181396484
 21
-1.454271912574768
 31
136.0
 12
83.10401916503906
 22
-4.281506538391113
 32
136.0
 13
83.10401916503906
 23
-4.281506538391113
 33
136.0
  0
3DFACE
  8
0
 10
83.10401916503906
 20
-4.281506538391113
 30
136.0
 11
78.67521667480469
 21
-0.6120396852493286
 31
136.0
 12
77.38905334472656
 22
-0.13069728016853333
 32
136.0
 13
77.38905334472656
 23
-0.13069728016853333
 33
136.0
  0
3DFACE
  8
0
 10
77.38905334472656
 20
-0.13069728016853333
 30
136.0
 11
76.98150634765625
 21
-0.013504921458661556
 31
136.0
 12
76.69873809814453
 22
0.05726594850420952
 32
136.0
 13
76.69873809814453
 23
0.05726594850420952
 33
136.0
  0
3DFACE
  8
0
 10
76.69873809814453
 20
0.05726594850420952
 30
136.0
 11
76.30272674560547
 21
0.11726103723049164
 31
136.0
 12
75.6965103149414
 22
0.20723989605903625
 32
136.0
 13
75.6965103149414
 23
0.20723989605903625
 33
136.0
  0
3DFACE
  8
0
 10
75.6965103149414
 20
0.20723989605903625
 30
136.0
 11
74.71147918701172
 21
0.2616525888442993
 31
136.0
 12
72.54212188720703
 22
0.05879953131079674
 32
136.0
 13
72.54212188720703
 23
0.05879953131079674
 33
136.0
  0
3DFACE
  8
0
 10
72.54212188720703
 20
0.05879953131079674
 30
136.0
 11
83.10401916503906
 21
-4.281506538391113
 31
136.0
 12
77.38905334472656
 22
-0.13069728016853333
 32
136.0
 13
77.38905334472656
 23
-0.13069728016853333
 33
136.0
  0
3DFACE
  8
0
 10
77.38905334472656
 20
-0.13069728016853333
 30
136.0
 11
76.69873809814453
 21
0.05726594850420952
 31
136.0
 12
75.6965103149414
 22
0.20723989605903625
 32
136.0
 13
75.6965103149414
 23
0.20723989605903625
 33
136.0
  0
3DFACE
  8
0
 10
77.38905334472656
 20
-0.13069728016853333
 30
136.0
 11
75.6965103149414
 21
0.20723989605903625
 31
136.0
 12
72.54212188720703
 22
0.05879953131079674
 32
136.0
 13
72.54212188720703
 23
0.05879953131079674
 33
136.0
  0
3DFACE
  8
0
 10
-76.30968475341797
 20
-1.9280098676681519
 30
136.0
 11
-76.47686767578125
 21
-2.7348380088806152
 31
136.0
 12
-76.4769287109375
 22
-2.7354931831359863
 32
136.0
 13
-76.4769287109375
 23
-2.7354931831359863
 33
136.0
  0
3DFACE
  8
0
 10
-76.4769287109375
 20
-2.7354931831359863
 30
136.0
 11
-76.58444213867188
 21
-4.236458778381348
 31
136.0
 12
-76.58639526367188
 22
-4.295794486999512
 32
136.0
 13
-76.58639526367188
 23
-4.295794486999512
 33
136.0
  0
3DFACE
  8
0
 10
-76.56062316894531
 20
-5.026296138763428
 30
136.0
 11
-76.56021881103516
 21
-5.076273441314697
 31
136.0
 12
-76.30365753173828
 22
-6.544286251068115
 32
136.0
 13
-76.30365753173828
 23
-6.544286251068115
 33
136.0
  0
3DFACE
  8
0
 10
-76.4769287109375
 20
-2.7354931831359863
 30
136.0
 11
-76.58639526367188
 21
-4.295794486999512
 31
136.0
 12
-76.56062316894531
 22
-5.026296138763428
 32
136.0
 13
-76.56062316894531
 23
-5.026296138763428
 33
136.0
  0
3DFACE
  8
0
 10
-76.09256744384766
 20
-1.1738810539245605
 30
136.0
 11
-76.30968475341797
 21
-1.9280098676681519
 31
136.0
 12
-76.4769287109375
 22
-2.7354931831359863
 32
136.0
 13
-76.4769287109375
 23
-2.7354931831359863
 33
136.0
  0
3DFACE
  8
0
 10
-75.57959747314453
 20
0.06212271749973297
 30
136.0
 11
-75.94163513183594
 21
-0.7831467390060425
 31
136.0
 12
-76.09256744384766
 22
-1.1738810539245605
 32
136.0
 13
-76.09256744384766
 23
-1.1738810539245605
 33
136.0
  0
3DFACE
  8
0
 10
-75.05997467041016
 20
0.9161565899848938
 30
136.0
 11
-75.42134857177734
 21
0.38473066687583923
 31
136.0
 12
-75.57959747314453
 22
0.06212271749973297
 32
136.0
 13
-75.57959747314453
 23
0.06212271749973297
 33
136.0
  0
3DFACE
  8
0
 10
-74.83052825927734
 20
1.235814094543457
 30
136.0
 11
-74.88252258300781
 21
1.16905677318573
 31
136.0
 12
-75.05997467041016
 22
0.9161565899848938
 32
136.0
 13
-75.05997467041016
 23
0.9161565899848938
 33
136.0
  0
3DFACE
  8
0
 10
-73.4328384399414
 20
2.7396280765533447
 30
136.0
 11
-74.21994018554688
 21
1.9480323791503906
 31
136.0
 12
-74.83052825927734
 22
1.235814094543457
 32
136.0
 13
-74.83052825927734
 23
1.235814094543457
 33
136.0
  0
3DFACE
  8
0
 10
-72.47399139404297
 20
3.5401875972747803
 30
136.0
 11
-73.28547668457031
 21
2.8728110790252686
 31
136.0
 12
-73.4328384399414
 22
2.7396280765533447
 32
136.0
 13
-73.4328384399414
 23
2.7396280765533447
 33
136.0
  0
3DFACE
  8
0
 10
-71.92233276367188
 20
3.9246816635131836
 30
136.0
 11
-72.4131851196289
 21
3.5866808891296387
 31
136.0
 12
-72.47399139404297
 22
3.5401875972747803
 32
136.0
 13
-72.47399139404297
 23
3.5401875972747803
 33
136.0
  0
3DFACE
  8
0
 10
-70.84113311767578
 20
4.588614463806152
 30
136.0
 11
-71.39415740966797
 21
4.289467811584473
 31
136.0
 12
-71.76970672607422
 22
4.0265679359436035
 32
136.0
 13
-71.76970672607422
 23
4.0265679359436035
 33
136.0
  0
3DFACE
  8
0
 10
-71.76970672607422
 20
4.0265679359436035
 30
136.0
 11
-71.92233276367188
 21
3.9246816635131836
 31
136.0
 12
-72.47399139404297
 22
3.5401875972747803
 32
136.0
 13
-72.47399139404297
 23
3.5401875972747803
 33
136.0
  0
3DFACE
  8
0
 10
-72.47399139404297
 20
3.5401875972747803
 30
136.0
 11
-73.4328384399414
 21
2.7396280765533447
 31
136.0
 12
-74.83052825927734
 22
1.235814094543457
 32
136.0
 13
-74.83052825927734
 23
1.235814094543457
 33
136.0
  0
3DFACE
  8
0
 10
-74.83052825927734
 20
1.235814094543457
 30
136.0
 11
-75.05997467041016
 21
0.9161565899848938
 31
136.0
 12
-75.57959747314453
 22
0.06212271749973297
 32
136.0
 13
-75.57959747314453
 23
0.06212271749973297
 33
136.0
  0
3DFACE
  8
0
 10
-75.57959747314453
 20
0.06212271749973297
 30
136.0
 11
-76.09256744384766
 21
-1.1738810539245605
 31
136.0
 12
-76.4769287109375
 22
-2.7354931831359863
 32
136.0
 13
-76.4769287109375
 23
-2.7354931831359863
 33
136.0
  0
3DFACE
  8
0
 10
-76.4769287109375
 20
-2.7354931831359863
 30
136.0
 11
-76.56062316894531
 21
-5.026296138763428
 31
136.0
 12
-76.30365753173828
 22
-6.544286251068115
 32
136.0
 13
-76.30365753173828
 23
-6.544286251068115
 33
136.0
  0
3DFACE
  8
0
 10
-76.30365753173828
 20
-6.544286251068115
 30
136.0
 11
-76.27983093261719
 21
-6.645437717437744
 31
136.0
 12
-76.10664367675781
 22
-7.158868312835693
 32
136.0
 13
-76.10664367675781
 23
-7.158868312835693
 33
136.0
  0
3DFACE
  8
0
 10
-76.10664367675781
 20
-7.158868312835693
 30
136.0
 11
-76.03173828125
 21
-7.417708396911621
 31
136.0
 12
-75.89060974121094
 22
-7.749105930328369
 32
136.0
 13
-75.89060974121094
 23
-7.749105930328369
 33
136.0
  0
3DFACE
  8
0
 10
-75.60070037841797
 20
-8.35087776184082
 30
136.0
 11
-75.59382629394531
 21
-8.366268157958984
 31
136.0
 12
-75.26561737060547
 22
-8.95993423461914
 32
136.0
 13
-75.26561737060547
 23
-8.95993423461914
 33
136.0
  0
3DFACE
  8
0
 10
-76.10664367675781
 20
-7.158868312835693
 30
136.0
 11
-75.89060974121094
 21
-7.749105930328369
 31
136.0
 12
-75.60070037841797
 22
-8.35087776184082
 32
136.0
 13
-75.60070037841797
 23
-8.35087776184082
 33
136.0
  0
3DFACE
  8
0
 10
-76.4769287109375
 20
-2.7354931831359863
 30
136.0
 11
-76.30365753173828
 21
-6.544286251068115
 31
136.0
 12
-76.10664367675781
 22
-7.158868312835693
 32
136.0
 13
-76.10664367675781
 23
-7.158868312835693
 33
136.0
  0
3DFACE
  8
0
 10
-74.83052825927734
 20
1.235814094543457
 30
136.0
 11
-75.57959747314453
 21
0.06212271749973297
 31
136.0
 12
-76.4769287109375
 22
-2.7354931831359863
 32
136.0
 13
-76.4769287109375
 23
-2.7354931831359863
 33
136.0
  0
3DFACE
  8
0
 10
-71.76970672607422
 20
4.0265679359436035
 30
136.0
 11
-72.47399139404297
 21
3.5401875972747803
 31
136.0
 12
-74.83052825927734
 22
1.235814094543457
 32
136.0
 13
-74.83052825927734
 23
1.235814094543457
 33
136.0
  0
3DFACE
  8
0
 10
-70.29773712158203
 20
4.858175277709961
 30
136.0
 11
-70.84113311767578
 21
4.588614463806152
 31
136.0
 12
-71.76970672607422
 22
4.0265679359436035
 32
136.0
 13
-71.76970672607422
 23
4.0265679359436035
 33
136.0
  0
3DFACE
  8
0
 10
-69.24604034423828
 20
5.292993068695068
 30
136.0
 11
-69.92436981201172
 21
5.035388946533203
 31
136.0
 12
-70.29773712158203
 22
4.858175277709961
 32
136.0
 13
-70.29773712158203
 23
4.858175277709961
 33
136.0
  0
3DFACE
  8
0
 10
-68.00764465332031
 20
5.653725624084473
 30
136.0
 11
-68.57640075683594
 21
5.506511211395264
 31
136.0
 12
-69.24604034423828
 22
5.292993068695068
 32
136.0
 13
-69.24604034423828
 23
5.292993068695068
 33
136.0
  0
3DFACE
  8
0
 10
-67.5104751586914
 20
5.793050289154053
 30
136.0
 11
-67.79591369628906
 21
5.720918655395508
 31
136.0
 12
-68.00764465332031
 22
5.653725624084473
 32
136.0
 13
-68.00764465332031
 23
5.653725624084473
 33
136.0
  0
3DFACE
  8
0
 10
-66.27922821044922
 20
6.035862922668457
 30
136.0
 11
-66.77228546142578
 21
5.94989538192749
 31
136.0
 12
-67.16088104248047
 22
5.863050937652588
 32
136.0
 13
-67.16088104248047
 23
5.863050937652588
 33
136.0
  0
3DFACE
  8
0
 10
-67.16088104248047
 20
5.863050937652588
 30
136.0
 11
-67.5104751586914
 21
5.793050289154053
 31
136.0
 12
-68.00764465332031
 22
5.653725624084473
 32
136.0
 13
-68.00764465332031
 23
5.653725624084473
 33
136.0
  0
3DFACE
  8
0
 10
-68.00764465332031
 20
5.653725624084473
 30
136.0
 11
-69.24604034423828
 21
5.292993068695068
 31
136.0
 12
-70.29773712158203
 22
4.858175277709961
 32
136.0
 13
-70.29773712158203
 23
4.858175277709961
 33
136.0
  0
3DFACE
  8
0
 10
-70.29773712158203
 20
4.858175277709961
 30
136.0
 11
-71.76970672607422
 21
4.0265679359436035
 31
136.0
 12
-74.83052825927734
 22
1.235814094543457
 32
136.0
 13
-74.83052825927734
 23
1.235814094543457
 33
136.0
  0
3DFACE
  8
0
 10
-74.83052825927734
 20
1.235814094543457
 30
136.0
 11
-76.4769287109375
 21
-2.7354931831359863
 31
136.0
 12
-76.10664367675781
 22
-7.158868312835693
 32
136.0
 13
-76.10664367675781
 23
-7.158868312835693
 33
136.0
  0
3DFACE
  8
0
 10
-76.10664367675781
 20
-7.158868312835693
 30
136.0
 11
-75.60070037841797
 21
-8.35087776184082
 31
136.0
 12
-75.26561737060547
 22
-8.95993423461914
 32
136.0
 13
-75.26561737060547
 23
-8.95993423461914
 33
136.0
  0
3DFACE
  8
0
 10
-75.26561737060547
 20
-8.95993423461914
 30
136.0
 11
-74.82730102539062
 21
-9.690528869628906
 31
136.0
 12
-74.79438018798828
 22
-9.741793632507324
 32
136.0
 13
-74.79438018798828
 23
-9.741793632507324
 33
136.0
  0
3DFACE
  8
0
 10
-74.79438018798828
 20
-9.741793632507324
 30
136.0
 11
-74.76596069335938
 21
-9.787801742553711
 31
136.0
 12
-74.2468032836914
 22
-10.539621353149414
 32
136.0
 13
-74.2468032836914
 23
-10.539621353149414
 33
136.0
  0
3DFACE
  8
0
 10
-74.2468032836914
 20
-10.539621353149414
 30
136.0
 11
-74.03974151611328
 21
-10.810545921325684
 31
136.0
 12
-73.8606185913086
 22
-11.01452350616455
 32
136.0
 13
-73.8606185913086
 23
-11.01452350616455
 33
136.0
  0
3DFACE
  8
0
 10
-73.8606185913086
 20
-11.01452350616455
 30
136.0
 11
-73.72005462646484
 21
-11.194035530090332
 31
136.0
 12
-73.23307800292969
 22
-11.767470359802246
 32
136.0
 13
-73.23307800292969
 23
-11.767470359802246
 33
136.0
  0
3DFACE
  8
0
 10
-73.23307800292969
 20
-11.767470359802246
 30
136.0
 11
-72.93245697021484
 21
-12.062089920043945
 31
136.0
 12
-72.77691650390625
 22
-12.203392028808594
 32
136.0
 13
-72.77691650390625
 23
-12.203392028808594
 33
136.0
  0
3DFACE
  8
0
 10
-72.77691650390625
 20
-12.203392028808594
 30
136.0
 11
-72.36795806884766
 21
-12.549662590026855
 31
136.0
 12
-71.77384948730469
 22
-12.99250316619873
 32
136.0
 13
-71.77384948730469
 23
-12.99250316619873
 33
136.0
  0
3DFACE
  8
0
 10
-71.77384948730469
 20
-12.99250316619873
 30
136.0
 11
-71.69830322265625
 21
-13.04526424407959
 31
136.0
 12
-70.6600112915039
 22
-13.675018310546875
 32
136.0
 13
-70.6600112915039
 23
-13.675018310546875
 33
136.0
  0
3DFACE
  8
0
 10
-70.6600112915039
 20
-13.675018310546875
 30
136.0
 11
-70.13734436035156
 21
-13.954919815063477
 31
136.0
 12
-69.304443359375
 22
-14.335219383239746
 32
136.0
 13
-69.304443359375
 23
-14.335219383239746
 33
136.0
  0
3DFACE
  8
0
 10
-69.304443359375
 20
-14.335219383239746
 30
136.0
 11
-69.05840301513672
 21
-14.433043479919434
 31
136.0
 12
-67.80091094970703
 22
-14.850844383239746
 32
136.0
 13
-67.80091094970703
 23
-14.850844383239746
 33
136.0
  0
3DFACE
  8
0
 10
-67.80091094970703
 20
-14.850844383239746
 30
136.0
 11
-67.68508911132812
 21
-14.885184288024902
 31
136.0
 12
-66.4736557006836
 22
-15.215727806091309
 32
136.0
 13
-66.4736557006836
 23
-15.215727806091309
 33
136.0
  0
3DFACE
  8
0
 10
-66.4736557006836
 20
-15.215727806091309
 30
136.0
 11
-66.4443359375
 21
-15.22263240814209
 31
136.0
 12
-65.35195922851562
 22
-15.410642623901367
 32
136.0
 13
-65.35195922851562
 23
-15.410642623901367
 33
136.0
  0
3DFACE
  8
0
 10
-65.35195922851562
 20
-15.410642623901367
 30
136.0
 11
-64.68229675292969
 21
-15.479452133178711
 31
136.0
 12
-64.37255859375
 22
-15.490175247192383
 32
136.0
 13
-64.37255859375
 23
-15.490175247192383
 33
136.0
  0
3DFACE
  8
0
 10
-64.37255859375
 20
-15.490175247192383
 30
136.0
 11
-63.893524169921875
 21
-15.542549133300781
 31
136.0
 12
-63.22386932373047
 22
-15.547450065612793
 32
136.0
 13
-63.22386932373047
 23
-15.547450065612793
 33
136.0
  0
3DFACE
  8
0
 10
-63.22386932373047
 20
-15.547450065612793
 30
136.0
 11
-63.11304473876953
 21
-15.550665855407715
 31
136.0
 12
-62.44337463378906
 22
-15.53382682800293
 32
136.0
 13
-62.44337463378906
 23
-15.53382682800293
 33
136.0
  0
3DFACE
  8
0
 10
-62.44337463378906
 20
-15.53382682800293
 30
136.0
 11
-62.332550048828125
 21
-15.534625053405762
 31
136.0
 12
-61.66291427612305
 22
-15.442947387695312
 32
136.0
 13
-61.66291427612305
 23
-15.442947387695312
 33
136.0
  0
3DFACE
  8
0
 10
-61.66291427612305
 20
-15.442947387695312
 30
136.0
 11
-61.552093505859375
 21
-15.432519912719727
 31
136.0
 12
-61.4946174621582
 22
-15.424383163452148
 32
136.0
 13
-61.4946174621582
 23
-15.424383163452148
 33
136.0
  0
3DFACE
  8
0
 10
-61.4946174621582
 20
-15.424383163452148
 30
136.0
 11
-60.98613357543945
 21
-15.33907413482666
 31
136.0
 12
-60.436771392822266
 22
-15.218741416931152
 32
136.0
 13
-60.436771392822266
 23
-15.218741416931152
 33
136.0
  0
3DFACE
  8
0
 10
-60.101951599121094
 20
-15.100987434387207
 30
136.0
 11
-59.991127014160156
 21
-15.067535400390625
 31
136.0
 12
-59.210655212402344
 22
-14.810800552368164
 32
136.0
 13
-59.210655212402344
 23
-14.810800552368164
 33
136.0
  0
3DFACE
  8
0
 10
-61.4946174621582
 20
-15.424383163452148
 30
136.0
 11
-60.436771392822266
 21
-15.218741416931152
 31
136.0
 12
-60.101951599121094
 22
-15.100987434387207
 32
136.0
 13
-60.101951599121094
 23
-15.100987434387207
 33
136.0
  0
3DFACE
  8
0
 10
-63.22386932373047
 20
-15.547450065612793
 30
136.0
 11
-62.44337463378906
 21
-15.53382682800293
 31
136.0
 12
-61.66291427612305
 22
-15.442947387695312
 32
136.0
 13
-61.66291427612305
 23
-15.442947387695312
 33
136.0
  0
3DFACE
  8
0
 10
-61.66291427612305
 20
-15.442947387695312
 30
136.0
 11
-61.4946174621582
 21
-15.424383163452148
 31
136.0
 12
-60.101951599121094
 22
-15.100987434387207
 32
136.0
 13
-60.101951599121094
 23
-15.100987434387207
 33
136.0
  0
3DFACE
  8
0
 10
-60.101951599121094
 20
-15.100987434387207
 30
136.0
 11
-59.210655212402344
 21
-14.810800552368164
 31
136.0
 12
-58.728336334228516
 22
-14.628898620605469
 32
136.0
 13
-58.728336334228516
 23
-14.628898620605469
 33
136.0
  0
3DFACE
  8
0
 10
-58.43016815185547
 20
-14.522516250610352
 30
136.0
 11
-58.31874465942383
 21
-14.485980987548828
 31
136.0
 12
-58.13200378417969
 22
-14.408369064331055
 32
136.0
 13
-58.13200378417969
 23
-14.408369064331055
 33
136.0
  0
3DFACE
  8
0
 10
-60.101951599121094
 20
-15.100987434387207
 30
136.0
 11
-58.728336334228516
 21
-14.628898620605469
 31
136.0
 12
-58.43016815185547
 22
-14.522516250610352
 32
136.0
 13
-58.43016815185547
 23
-14.522516250610352
 33
136.0
  0
3DFACE
  8
0
 10
-63.22386932373047
 20
-15.547450065612793
 30
136.0
 11
-61.66291427612305
 21
-15.442947387695312
 31
136.0
 12
-60.101951599121094
 22
-15.100987434387207
 32
136.0
 13
-60.101951599121094
 23
-15.100987434387207
 33
136.0
  0
3DFACE
  8
0
 10
-65.35195922851562
 20
-15.410642623901367
 30
136.0
 11
-64.37255859375
 21
-15.490175247192383
 31
136.0
 12
-63.22386932373047
 22
-15.547450065612793
 32
136.0
 13
-63.22386932373047
 23
-15.547450065612793
 33
136.0
  0
3DFACE
  8
0
 10
-67.80091094970703
 20
-14.850844383239746
 30
136.0
 11
-66.4736557006836
 21
-15.215727806091309
 31
136.0
 12
-65.35195922851562
 22
-15.410642623901367
 32
136.0
 13
-65.35195922851562
 23
-15.410642623901367
 33
136.0
  0
3DFACE
  8
0
 10
-70.6600112915039
 20
-13.675018310546875
 30
136.0
 11
-69.304443359375
 21
-14.335219383239746
 31
136.0
 12
-67.80091094970703
 22
-14.850844383239746
 32
136.0
 13
-67.80091094970703
 23
-14.850844383239746
 33
136.0
  0
3DFACE
  8
0
 10
-72.77691650390625
 20
-12.203392028808594
 30
136.0
 11
-71.77384948730469
 21
-12.99250316619873
 31
136.0
 12
-70.6600112915039
 22
-13.675018310546875
 32
136.0
 13
-70.6600112915039
 23
-13.675018310546875
 33
136.0
  0
3DFACE
  8
0
 10
-73.8606185913086
 20
-11.01452350616455
 30
136.0
 11
-73.23307800292969
 21
-11.767470359802246
 31
136.0
 12
-72.77691650390625
 22
-12.203392028808594
 32
136.0
 13
-72.77691650390625
 23
-12.203392028808594
 33
136.0
  0
3DFACE
  8
0
 10
-74.79438018798828
 20
-9.741793632507324
 30
136.0
 11
-74.2468032836914
 21
-10.539621353149414
 31
136.0
 12
-73.8606185913086
 22
-11.01452350616455
 32
136.0
 13
-73.8606185913086
 23
-11.01452350616455
 33
136.0
  0
3DFACE
  8
0
 10
-76.10664367675781
 20
-7.158868312835693
 30
136.0
 11
-75.26561737060547
 21
-8.95993423461914
 31
136.0
 12
-74.79438018798828
 22
-9.741793632507324
 32
136.0
 13
-74.79438018798828
 23
-9.741793632507324
 33
136.0
  0
3DFACE
  8
0
 10
-70.29773712158203
 20
4.858175277709961
 30
136.0
 11
-74.83052825927734
 21
1.235814094543457
 31
136.0
 12
-76.10664367675781
 22
-7.158868312835693
 32
136.0
 13
-76.10664367675781
 23
-7.158868312835693
 33
136.0
  0
3DFACE
  8
0
 10
-67.16088104248047
 20
5.863050937652588
 30
136.0
 11
-68.00764465332031
 21
5.653725624084473
 31
136.0
 12
-70.29773712158203
 22
4.858175277709961
 32
136.0
 13
-70.29773712158203
 23
4.858175277709961
 33
136.0
  0
3DFACE
  8
0
 10
-65.9355239868164
 20
6.075499057769775
 30
136.0
 11
-66.27922821044922
 21
6.035862922668457
 31
136.0
 12
-67.16088104248047
 22
5.863050937652588
 32
136.0
 13
-67.16088104248047
 23
5.863050937652588
 33
136.0
  0
3DFACE
  8
0
 10
-65.11964416503906
 20
6.174666881561279
 30
136.0
 11
-65.45447540283203
 21
6.148129940032959
 31
136.0
 12
-65.9355239868164
 22
6.075499057769775
 32
136.0
 13
-65.9355239868164
 23
6.075499057769775
 33
136.0
  0
3DFACE
  8
0
 10
-64.56317138671875
 20
6.253654956817627
 30
136.0
 11
-64.67399597167969
 21
6.241589546203613
 31
136.0
 12
-65.11964416503906
 22
6.174666881561279
 32
136.0
 13
-65.11964416503906
 23
6.174666881561279
 33
136.0
  0
3DFACE
  8
0
 10
-63.22386932373047
 20
6.332825183868408
 30
136.0
 11
-63.893524169921875
 21
6.316332817077637
 31
136.0
 12
-64.56317138671875
 22
6.253654956817627
 32
136.0
 13
-64.56317138671875
 23
6.253654956817627
 33
136.0
  0
3DFACE
  8
0
 10
-62.44337463378906
 20
6.322849750518799
 30
136.0
 11
-63.11304473876953
 21
6.341344356536865
 31
136.0
 12
-63.22386932373047
 22
6.332825183868408
 32
136.0
 13
-63.22386932373047
 23
6.332825183868408
 33
136.0
  0
3DFACE
  8
0
 10
-61.552093505859375
 20
6.262546062469482
 30
136.0
 11
-62.332550048828125
 21
6.325423717498779
 31
136.0
 12
-62.44337463378906
 22
6.322849750518799
 32
136.0
 13
-62.44337463378906
 23
6.322849750518799
 33
136.0
  0
3DFACE
  8
0
 10
-60.101951599121094
 20
5.99191951751709
 30
136.0
 11
-60.7716064453125
 21
6.111328125
 31
136.0
 12
-60.88243103027344
 22
6.128667831420898
 32
136.0
 13
-60.88243103027344
 23
6.128667831420898
 33
136.0
  0
3DFACE
  8
0
 10
-60.88243103027344
 20
6.128667831420898
 30
136.0
 11
-61.552093505859375
 21
6.262546062469482
 31
136.0
 12
-62.44337463378906
 22
6.322849750518799
 32
136.0
 13
-62.44337463378906
 23
6.322849750518799
 33
136.0
  0
3DFACE
  8
0
 10
-62.44337463378906
 20
6.322849750518799
 30
136.0
 11
-63.22386932373047
 21
6.332825183868408
 31
136.0
 12
-64.56317138671875
 22
6.253654956817627
 32
136.0
 13
-64.56317138671875
 23
6.253654956817627
 33
136.0
  0
3DFACE
  8
0
 10
-65.11964416503906
 20
6.174666881561279
 30
136.0
 11
-65.9355239868164
 21
6.075499057769775
 31
136.0
 12
-67.16088104248047
 22
5.863050937652588
 32
136.0
 13
-67.16088104248047
 23
5.863050937652588
 33
136.0
  0
3DFACE
  8
0
 10
-62.44337463378906
 20
6.322849750518799
 30
136.0
 11
-64.56317138671875
 21
6.253654956817627
 31
136.0
 12
-65.11964416503906
 22
6.174666881561279
 32
136.0
 13
-65.11964416503906
 23
6.174666881561279
 33
136.0
  0
3DFACE
  8
0
 10
-60.101951599121094
 20
5.99191951751709
 30
136.0
 11
-60.88243103027344
 21
6.128667831420898
 31
136.0
 12
-62.44337463378906
 22
6.322849750518799
 32
136.0
 13
-62.44337463378906
 23
6.322849750518799
 33
136.0
  0
3DFACE
  8
0
 10
-59.925167083740234
 20
5.957469940185547
 30
136.0
 11
-59.991127014160156
 21
5.976804733276367
 31
136.0
 12
-60.101951599121094
 22
5.99191951751709
 32
136.0
 13
-60.101951599121094
 23
5.99191951751709
 33
136.0
  0
3DFACE
  8
0
 10
-58.540992736816406
 20
5.443188667297363
 30
136.0
 11
-59.210655212402344
 21
5.729909420013428
 31
136.0
 12
-59.925167083740234
 22
5.957469940185547
 32
136.0
 13
-59.925167083740234
 23
5.957469940185547
 33
136.0
  0
3DFACE
  8
0
 10
-58.3193473815918
 20
5.357386112213135
 30
136.0
 11
-58.43016815185547
 21
5.406745433807373
 31
136.0
 12
-58.481956481933594
 22
5.422032356262207
 32
136.0
 13
-58.481956481933594
 23
5.422032356262207
 33
136.0
  0
3DFACE
  8
0
 10
-58.540992736816406
 20
5.443188667297363
 30
136.0
 11
-59.925167083740234
 21
5.957469940185547
 31
136.0
 12
-60.101951599121094
 22
5.99191951751709
 32
136.0
 13
-60.101951599121094
 23
5.99191951751709
 33
136.0
  0
3DFACE
  8
0
 10
-58.3193473815918
 20
5.357386112213135
 30
136.0
 11
-58.481956481933594
 21
5.422032356262207
 31
136.0
 12
-58.540992736816406
 22
5.443188667297363
 32
136.0
 13
-58.540992736816406
 23
5.443188667297363
 33
136.0
  0
3DFACE
  8
0
 10
-56.71278381347656
 20
4.4002909660339355
 30
136.0
 11
-57.72765350341797
 21
5.069945812225342
 31
136.0
 12
-58.3193473815918
 22
5.357386112213135
 32
136.0
 13
-58.3193473815918
 23
5.357386112213135
 33
136.0
  0
3DFACE
  8
0
 10
-56.529048919677734
 20
4.277652740478516
 30
136.0
 11
-56.62519836425781
 21
4.3473992347717285
 31
136.0
 12
-56.71278381347656
 22
4.4002909660339355
 32
136.0
 13
-56.71278381347656
 23
4.4002909660339355
 33
136.0
  0
3DFACE
  8
0
 10
-55.62112045288086
 20
3.502110004425049
 30
136.0
 11
-55.73945617675781
 21
3.607997417449951
 31
136.0
 12
-56.529048919677734
 22
4.277652740478516
 32
136.0
 13
-56.529048919677734
 23
4.277652740478516
 33
136.0
  0
3DFACE
  8
0
 10
-54.12568283081055
 20
2.0512681007385254
 30
136.0
 11
-54.909122467041016
 21
2.8324551582336426
 31
136.0
 12
-55.3154182434082
 22
3.195566415786743
 32
136.0
 13
-55.3154182434082
 23
3.195566415786743
 33
136.0
  0
3DFACE
  8
0
 10
-55.3154182434082
 20
3.195566415786743
 30
136.0
 11
-55.62112045288086
 21
3.502110004425049
 31
136.0
 12
-56.529048919677734
 22
4.277652740478516
 32
136.0
 13
-56.529048919677734
 23
4.277652740478516
 33
136.0
  0
3DFACE
  8
0
 10
-56.529048919677734
 20
4.277652740478516
 30
136.0
 11
-56.71278381347656
 21
4.4002909660339355
 31
136.0
 12
-58.3193473815918
 22
5.357386112213135
 32
136.0
 13
-58.3193473815918
 23
5.357386112213135
 33
136.0
  0
3DFACE
  8
0
 10
-58.3193473815918
 20
5.357386112213135
 30
136.0
 11
-58.540992736816406
 21
5.443188667297363
 31
136.0
 12
-60.101951599121094
 22
5.99191951751709
 32
136.0
 13
-60.101951599121094
 23
5.99191951751709
 33
136.0
  0
3DFACE
  8
0
 10
-60.101951599121094
 20
5.99191951751709
 30
136.0
 11
-62.44337463378906
 21
6.322849750518799
 31
136.0
 12
-65.11964416503906
 22
6.174666881561279
 32
136.0
 13
-65.11964416503906
 23
6.174666881561279
 33
136.0
  0
3DFACE
  8
0
 10
-65.11964416503906
 20
6.174666881561279
 30
136.0
 11
-67.16088104248047
 21
5.863050937652588
 31
136.0
 12
-70.29773712158203
 22
4.858175277709961
 32
136.0
 13
-70.29773712158203
 23
4.858175277709961
 33
136.0
  0
3DFACE
  8
0
 10
-70.29773712158203
 20
4.858175277709961
 30
136.0
 11
-76.10664367675781
 21
-7.158868312835693
 31
136.0
 12
-74.79438018798828
 22
-9.741793632507324
 32
136.0
 13
-74.79438018798828
 23
-9.741793632507324
 33
136.0
  0
3DFACE
  8
0
 10
-74.79438018798828
 20
-9.741793632507324
 30
136.0
 11
-73.8606185913086
 21
-11.01452350616455
 31
136.0
 12
-72.77691650390625
 22
-12.203392028808594
 32
136.0
 13
-72.77691650390625
 23
-12.203392028808594
 33
136.0
  0
3DFACE
  8
0
 10
-72.77691650390625
 20
-12.203392028808594
 30
136.0
 11
-70.6600112915039
 21
-13.675018310546875
 31
136.0
 12
-67.80091094970703
 22
-14.850844383239746
 32
136.0
 13
-67.80091094970703
 23
-14.850844383239746
 33
136.0
  0
3DFACE
  8
0
 10
-67.80091094970703
 20
-14.850844383239746
 30
136.0
 11
-65.35195922851562
 21
-15.410642623901367
 31
136.0
 12
-63.22386932373047
 22
-15.547450065612793
 32
136.0
 13
-63.22386932373047
 23
-15.547450065612793
 33
136.0
  0
3DFACE
  8
0
 10
-63.22386932373047
 20
-15.547450065612793
 30
136.0
 11
-60.101951599121094
 21
-15.100987434387207
 31
136.0
 12
-58.43016815185547
 22
-14.522516250610352
 32
136.0
 13
-58.43016815185547
 23
-14.522516250610352
 33
136.0
  0
3DFACE
  8
0
 10
-58.13200378417969
 20
-14.408369064331055
 30
136.0
 11
-57.78055953979492
 21
-14.2772216796875
 31
136.0
 12
-57.649696350097656
 22
-14.217604637145996
 32
136.0
 13
-57.649696350097656
 23
-14.217604637145996
 33
136.0
  0
3DFACE
  8
0
 10
-63.22386932373047
 20
-15.547450065612793
 30
136.0
 11
-58.43016815185547
 21
-14.522516250610352
 31
136.0
 12
-58.13200378417969
 22
-14.408369064331055
 32
136.0
 13
-58.13200378417969
 23
-14.408369064331055
 33
136.0
  0
3DFACE
  8
0
 10
-72.77691650390625
 20
-12.203392028808594
 30
136.0
 11
-67.80091094970703
 21
-14.850844383239746
 31
136.0
 12
-63.22386932373047
 22
-15.547450065612793
 32
136.0
 13
-63.22386932373047
 23
-15.547450065612793
 33
136.0
  0
3DFACE
  8
0
 10
-70.29773712158203
 20
4.858175277709961
 30
136.0
 11
-74.79438018798828
 21
-9.741793632507324
 31
136.0
 12
-72.77691650390625
 22
-12.203392028808594
 32
136.0
 13
-72.77691650390625
 23
-12.203392028808594
 33
136.0
  0
3DFACE
  8
0
 10
-60.101951599121094
 20
5.99191951751709
 30
136.0
 11
-65.11964416503906
 21
6.174666881561279
 31
136.0
 12
-70.29773712158203
 22
4.858175277709961
 32
136.0
 13
-70.29773712158203
 23
4.858175277709961
 33
136.0
  0
3DFACE
  8
0
 10
-56.529048919677734
 20
4.277652740478516
 30
136.0
 11
-58.3193473815918
 21
5.357386112213135
 31
136.0
 12
-60.101951599121094
 22
5.99191951751709
 32
136.0
 13
-60.101951599121094
 23
5.99191951751709
 33
136.0
  0
3DFACE
  8
0
 10
-54.12568283081055
 20
2.0512681007385254
 30
136.0
 11
-55.3154182434082
 21
3.195566415786743
 31
136.0
 12
-56.529048919677734
 22
4.277652740478516
 32
136.0
 13
-56.529048919677734
 23
4.277652740478516
 33
136.0
  0
3DFACE
  8
0
 10
-53.30023956298828
 20
1.1675539016723633
 30
136.0
 11
-53.38187026977539
 21
1.2658653259277344
 31
136.0
 12
-53.757686614990234
 22
1.6455711126327515
 32
136.0
 13
-53.757686614990234
 23
1.6455711126327515
 33
136.0
  0
3DFACE
  8
0
 10
-53.757686614990234
 20
1.6455711126327515
 30
136.0
 11
-54.12568283081055
 21
2.0512681007385254
 31
136.0
 12
-56.529048919677734
 22
4.277652740478516
 32
136.0
 13
-56.529048919677734
 23
4.277652740478516
 33
136.0
  0
3DFACE
  8
0
 10
-56.529048919677734
 20
4.277652740478516
 30
136.0
 11
-60.101951599121094
 21
5.99191951751709
 31
136.0
 12
-70.29773712158203
 22
4.858175277709961
 32
136.0
 13
-70.29773712158203
 23
4.858175277709961
 33
136.0
  0
3DFACE
  8
0
 10
-70.29773712158203
 20
4.858175277709961
 30
136.0
 11
-72.77691650390625
 21
-12.203392028808594
 31
136.0
 12
-63.22386932373047
 22
-15.547450065612793
 32
136.0
 13
-63.22386932373047
 23
-15.547450065612793
 33
136.0
  0
3DFACE
  8
0
 10
-63.22386932373047
 20
-15.547450065612793
 30
136.0
 11
-58.13200378417969
 21
-14.408369064331055
 31
136.0
 12
-57.649696350097656
 22
-14.217604637145996
 32
136.0
 13
-57.649696350097656
 23
-14.217604637145996
 33
136.0
  0
3DFACE
  8
0
 10
-57.649696350097656
 20
-14.217604637145996
 30
136.0
 11
-56.41334533691406
 21
-13.697168350219727
 31
136.0
 12
-56.29017639160156
 22
-13.640655517578125
 32
136.0
 13
-56.29017639160156
 23
-13.640655517578125
 33
136.0
  0
3DFACE
  8
0
 10
-56.1446533203125
 20
-13.55809211730957
 30
136.0
 11
-55.41908264160156
 21
-13.199718475341797
 31
136.0
 12
-54.81241989135742
 22
-12.850600242614746
 32
136.0
 13
-54.81241989135742
 23
-12.850600242614746
 33
136.0
  0
3DFACE
  8
0
 10
-57.649696350097656
 20
-14.217604637145996
 30
136.0
 11
-56.29017639160156
 21
-13.640655517578125
 31
136.0
 12
-56.1446533203125
 22
-13.55809211730957
 32
136.0
 13
-56.1446533203125
 23
-13.55809211730957
 33
136.0
  0
3DFACE
  8
0
 10
-70.29773712158203
 20
4.858175277709961
 30
136.0
 11
-63.22386932373047
 21
-15.547450065612793
 31
136.0
 12
-57.649696350097656
 22
-14.217604637145996
 32
136.0
 13
-57.649696350097656
 23
-14.217604637145996
 33
136.0
  0
3DFACE
  8
0
 10
-53.757686614990234
 20
1.6455711126327515
 30
136.0
 11
-56.529048919677734
 21
4.277652740478516
 31
136.0
 12
-70.29773712158203
 22
4.858175277709961
 32
136.0
 13
-70.29773712158203
 23
4.858175277709961
 33
136.0
  0
3DFACE
  8
0
 10
-53.260658264160156
 20
1.108449101448059
 30
136.0
 11
-53.30023956298828
 21
1.1675539016723633
 31
136.0
 12
-53.757686614990234
 22
1.6455711126327515
 32
136.0
 13
-53.757686614990234
 23
1.6455711126327515
 33
136.0
  0
3DFACE
  8
0
 10
-52.65835952758789
 20
0.3870755434036255
 30
136.0
 11
-52.70231246948242
 21
0.4387940466403961
 31
136.0
 12
-52.966819763183594
 22
0.7353036999702454
 32
136.0
 13
-52.966819763183594
 23
0.7353036999702454
 33
136.0
  0
3DFACE
  8
0
 10
-52.966819763183594
 20
0.7353036999702454
 30
136.0
 11
-53.260658264160156
 21
1.108449101448059
 31
136.0
 12
-53.757686614990234
 22
1.6455711126327515
 32
136.0
 13
-53.757686614990234
 23
1.6455711126327515
 33
136.0
  0
3DFACE
  8
0
 10
-53.757686614990234
 20
1.6455711126327515
 30
136.0
 11
-70.29773712158203
 21
4.858175277709961
 31
136.0
 12
-57.649696350097656
 22
-14.217604637145996
 32
136.0
 13
-57.649696350097656
 23
-14.217604637145996
 33
136.0
  0
3DFACE
  8
0
 10
-57.649696350097656
 20
-14.217604637145996
 30
136.0
 11
-56.1446533203125
 21
-13.55809211730957
 31
136.0
 12
-54.81241989135742
 22
-12.850600242614746
 32
136.0
 13
-54.81241989135742
 23
-12.850600242614746
 33
136.0
  0
3DFACE
  8
0
 10
-54.81241989135742
 20
-12.850600242614746
 30
136.0
 11
-53.70426559448242
 21
-12.10472297668457
 31
136.0
 12
-53.599002838134766
 22
-12.02396297454834
 32
136.0
 13
-53.599002838134766
 23
-12.02396297454834
 33
136.0
  0
3DFACE
  8
0
 10
-53.599002838134766
 20
-12.02396297454834
 30
136.0
 11
-52.73126983642578
 21
-11.320099830627441
 31
136.0
 12
-52.611663818359375
 22
-11.20927619934082
 32
136.0
 13
-52.611663818359375
 23
-11.20927619934082
 33
136.0
  0
3DFACE
  8
0
 10
-52.611663818359375
 20
-11.20927619934082
 30
136.0
 11
-52.18634033203125
 21
-10.807045936584473
 31
136.0
 12
-51.94350814819336
 22
-10.539621353149414
 32
136.0
 13
-51.94350814819336
 23
-10.539621353149414
 33
136.0
  0
3DFACE
  8
0
 10
-51.892303466796875
 20
-10.47292709350586
 30
136.0
 11
-51.852996826171875
 21
-10.428797721862793
 31
136.0
 12
-51.285072326660156
 22
-9.759143829345703
 32
136.0
 13
-51.285072326660156
 23
-9.759143829345703
 33
136.0
  0
3DFACE
  8
0
 10
-52.611663818359375
 20
-11.20927619934082
 30
136.0
 11
-51.94350814819336
 21
-10.539621353149414
 31
136.0
 12
-51.892303466796875
 22
-10.47292709350586
 32
136.0
 13
-51.892303466796875
 23
-10.47292709350586
 33
136.0
  0
3DFACE
  8
0
 10
-54.81241989135742
 20
-12.850600242614746
 30
136.0
 11
-53.599002838134766
 21
-12.02396297454834
 31
136.0
 12
-52.611663818359375
 22
-11.20927619934082
 32
136.0
 13
-52.611663818359375
 23
-11.20927619934082
 33
136.0
  0
3DFACE
  8
0
 10
-53.757686614990234
 20
1.6455711126327515
 30
136.0
 11
-57.649696350097656
 21
-14.217604637145996
 31
136.0
 12
-54.81241989135742
 22
-12.850600242614746
 32
136.0
 13
-54.81241989135742
 23
-12.850600242614746
 33
136.0
  0
3DFACE
  8
0
 10
-52.592594146728516
 20
0.27382218837738037
 30
136.0
 11
-52.65835952758789
 21
0.3870755434036255
 31
136.0
 12
-52.966819763183594
 22
0.7353036999702454
 32
136.0
 13
-52.966819763183594
 23
0.7353036999702454
 33
136.0
  0
3DFACE
  8
0
 10
-52.966819763183594
 20
0.7353036999702454
 30
136.0
 11
-53.757686614990234
 21
1.6455711126327515
 31
136.0
 12
-54.81241989135742
 22
-12.850600242614746
 32
136.0
 13
-54.81241989135742
 23
-12.850600242614746
 33
136.0
  0
3DFACE
  8
0
 10
-54.81241989135742
 20
-12.850600242614746
 30
136.0
 11
-52.611663818359375
 21
-11.20927619934082
 31
136.0
 12
-51.892303466796875
 22
-10.47292709350586
 32
136.0
 13
-51.892303466796875
 23
-10.47292709350586
 33
136.0
  0
3DFACE
  8
0
 10
-51.892303466796875
 20
-10.47292709350586
 30
136.0
 11
-51.285072326660156
 21
-9.759143829345703
 31
136.0
 12
-50.93901062011719
 22
-9.08948802947998
 32
136.0
 13
-50.93901062011719
 23
-9.08948802947998
 33
136.0
  0
3DFACE
  8
0
 10
-50.93901062011719
 20
-9.08948802947998
 30
136.0
 11
-50.871952056884766
 21
-8.969898223876953
 31
136.0
 12
-50.82471466064453
 22
-8.867840766906738
 32
136.0
 13
-50.82471466064453
 23
-8.867840766906738
 33
136.0
  0
3DFACE
  8
0
 10
-50.82471466064453
 20
-8.867840766906738
 30
136.0
 11
-50.71795654296875
 21
-8.670370101928711
 31
136.0
 12
-50.47762680053711
 22
-8.198186874389648
 32
136.0
 13
-50.47762680053711
 23
-8.198186874389648
 33
136.0
  0
3DFACE
  8
0
 10
-50.47762680053711
 20
-8.198186874389648
 30
136.0
 11
-50.3154411315918
 21
-7.726003170013428
 31
136.0
 12
-50.07185363769531
 22
-6.637230396270752
 32
136.0
 13
-50.07185363769531
 23
-6.637230396270752
 33
136.0
  0
3DFACE
  8
0
 10
-50.01982498168945
 20
-6.0225324630737305
 30
136.0
 11
-49.98600387573242
 21
-5.856751441955566
 31
136.0
 12
-50.03062057495117
 22
-5.257452964782715
 32
136.0
 13
-50.03062057495117
 23
-5.257452964782715
 33
136.0
  0
3DFACE
  8
0
 10
-50.47762680053711
 20
-8.198186874389648
 30
136.0
 11
-50.07185363769531
 21
-6.637230396270752
 31
136.0
 12
-50.01982498168945
 22
-6.0225324630737305
 32
136.0
 13
-50.01982498168945
 23
-6.0225324630737305
 33
136.0
  0
3DFACE
  8
0
 10
-51.892303466796875
 20
-10.47292709350586
 30
136.0
 11
-50.93901062011719
 21
-9.08948802947998
 31
136.0
 12
-50.82471466064453
 22
-8.867840766906738
 32
136.0
 13
-50.82471466064453
 23
-8.867840766906738
 33
136.0
  0
3DFACE
  8
0
 10
-50.82471466064453
 20
-8.867840766906738
 30
136.0
 11
-50.47762680053711
 21
-8.198186874389648
 31
136.0
 12
-50.01982498168945
 22
-6.0225324630737305
 32
136.0
 13
-50.01982498168945
 23
-6.0225324630737305
 33
136.0
  0
3DFACE
  8
0
 10
-50.01982498168945
 20
-6.0225324630737305
 30
136.0
 11
-50.03062057495117
 21
-5.257452964782715
 31
136.0
 12
-50.07564163208008
 22
-5.076273441314697
 32
136.0
 13
-50.07564163208008
 23
-5.076273441314697
 33
136.0
  0
3DFACE
  8
0
 10
-50.115516662597656
 20
-4.517701625823975
 30
136.0
 11
-50.09116744995117
 21
-4.295794486999512
 31
136.0
 12
-50.22026062011719
 22
-3.6457226276397705
 32
136.0
 13
-50.22026062011719
 23
-3.6457226276397705
 33
136.0
  0
3DFACE
  8
0
 10
-50.01982498168945
 20
-6.0225324630737305
 30
136.0
 11
-50.07564163208008
 21
-5.076273441314697
 31
136.0
 12
-50.115516662597656
 22
-4.517701625823975
 32
136.0
 13
-50.115516662597656
 23
-4.517701625823975
 33
136.0
  0
3DFACE
  8
0
 10
-51.892303466796875
 20
-10.47292709350586
 30
136.0
 11
-50.82471466064453
 21
-8.867840766906738
 31
136.0
 12
-50.01982498168945
 22
-6.0225324630737305
 32
136.0
 13
-50.01982498168945
 23
-6.0225324630737305
 33
136.0
  0
3DFACE
  8
0
 10
-52.966819763183594
 20
0.7353036999702454
 30
136.0
 11
-54.81241989135742
 21
-12.850600242614746
 31
136.0
 12
-51.892303466796875
 22
-10.47292709350586
 32
136.0
 13
-51.892303466796875
 23
-10.47292709350586
 33
136.0
  0
3DFACE
  8
0
 10
-51.4884033203125
 20
-1.0654464960098267
 30
136.0
 11
-51.95806884765625
 21
-0.39583298563957214
 31
136.0
 12
-52.592594146728516
 22
0.27382218837738037
 32
136.0
 13
-52.592594146728516
 23
0.27382218837738037
 33
136.0
  0
3DFACE
  8
0
 10
-52.592594146728516
 20
0.27382218837738037
 30
136.0
 11
-52.966819763183594
 21
0.7353036999702454
 31
136.0
 12
-51.892303466796875
 22
-10.47292709350586
 32
136.0
 13
-51.892303466796875
 23
-10.47292709350586
 33
136.0
  0
3DFACE
  8
0
 10
-51.892303466796875
 20
-10.47292709350586
 30
136.0
 11
-50.01982498168945
 21
-6.0225324630737305
 31
136.0
 12
-50.115516662597656
 22
-4.517701625823975
 32
136.0
 13
-50.115516662597656
 23
-4.517701625823975
 33
136.0
  0
3DFACE
  8
0
 10
-50.115516662597656
 20
-4.517701625823975
 30
136.0
 11
-50.22026062011719
 21
-3.6457226276397705
 31
136.0
 12
-50.27913284301758
 22
-3.515316963195801
 32
136.0
 13
-50.27913284301758
 23
-3.515316963195801
 33
136.0
  0
3DFACE
  8
0
 10
-50.625389099121094
 20
-2.8681933879852295
 30
136.0
 11
-50.654029846191406
 21
-2.7348380088806152
 31
136.0
 12
-50.93513488769531
 22
-2.065183162689209
 32
136.0
 13
-50.93513488769531
 23
-2.065183162689209
 33
136.0
  0
3DFACE
  8
0
 10
-50.115516662597656
 20
-4.517701625823975
 30
136.0
 11
-50.27913284301758
 21
-3.515316963195801
 31
136.0
 12
-50.625389099121094
 22
-2.8681933879852295
 32
136.0
 13
-50.625389099121094
 23
-2.8681933879852295
 33
136.0
  0
3DFACE
  8
0
 10
-52.592594146728516
 20
0.27382218837738037
 30
136.0
 11
-51.892303466796875
 21
-10.47292709350586
 31
136.0
 12
-50.115516662597656
 22
-4.517701625823975
 32
136.0
 13
-50.115516662597656
 23
-4.517701625823975
 33
136.0
  0
3DFACE
  8
0
 10
-51.43196105957031
 20
-1.1634858846664429
 30
136.0
 11
-51.4884033203125
 21
-1.0654464960098267
 31
136.0
 12
-52.592594146728516
 22
0.27382218837738037
 32
136.0
 13
-52.592594146728516
 23
0.27382218837738037
 33
136.0
  0
3DFACE
  8
0
 10
-50.979671478271484
 20
-1.954359769821167
 30
136.0
 11
-51.374549865722656
 21
-1.263723373413086
 31
136.0
 12
-51.387168884277344
 22
-1.2456814050674438
 32
136.0
 13
-51.387168884277344
 23
-1.2456814050674438
 33
136.0
  0
3DFACE
  8
0
 10
-51.387168884277344
 20
-1.2456814050674438
 30
136.0
 11
-51.43196105957031
 21
-1.1634858846664429
 31
136.0
 12
-52.592594146728516
 22
0.27382218837738037
 32
136.0
 13
-52.592594146728516
 23
0.27382218837738037
 33
136.0
  0
3DFACE
  8
0
 10
-52.592594146728516
 20
0.27382218837738037
 30
136.0
 11
-50.115516662597656
 21
-4.517701625823975
 31
136.0
 12
-50.625389099121094
 22
-2.8681933879852295
 32
136.0
 13
-50.625389099121094
 23
-2.8681933879852295
 33
136.0
  0
3DFACE
  8
0
 10
-50.625389099121094
 20
-2.8681933879852295
 30
136.0
 11
-50.93513488769531
 21
-2.065183162689209
 31
136.0
 12
-50.979671478271484
 22
-1.954359769821167
 32
136.0
 13
-50.979671478271484
 23
-1.954359769821167
 33
136.0
  0
3DFACE
  8
0
 10
-50.979671478271484
 20
-1.954359769821167
 30
136.0
 11
-51.387168884277344
 21
-1.2456814050674438
 31
136.0
 12
-52.592594146728516
 22
0.27382218837738037
 32
136.0
 13
-52.592594146728516
 23
0.27382218837738037
 33
136.0
  0
3DFACE
  8
0
 10
-50.625389099121094
 20
-2.8681933879852295
 30
136.0
 11
-50.979671478271484
 21
-1.954359769821167
 31
136.0
 12
-52.592594146728516
 22
0.27382218837738037
 32
136.0
 13
-52.592594146728516
 23
0.27382218837738037
 33
136.0
  0
3DFACE
  8
0
 10
-51.628334045410156
 20
40.44667434692383
 30
136.0
 11
-51.61140441894531
 21
40.435089111328125
 31
136.0
 12
-50.595787048339844
 22
39.88359832763672
 32
136.0
 13
-50.595787048339844
 23
39.88359832763672
 33
136.0
  0
3DFACE
  8
0
 10
-49.93939208984375
 20
39.593353271484375
 30
136.0
 11
-49.82200622558594
 21
39.53489303588867
 31
136.0
 12
-49.586700439453125
 22
39.45663833618164
 32
136.0
 13
-49.586700439453125
 23
39.45663833618164
 33
136.0
  0
3DFACE
  8
0
 10
-51.628334045410156
 20
40.44667434692383
 30
136.0
 11
-50.595787048339844
 21
39.88359832763672
 31
136.0
 12
-49.93939208984375
 22
39.593353271484375
 32
136.0
 13
-49.93939208984375
 23
39.593353271484375
 33
136.0
  0
3DFACE
  8
0
 10
-52.65793228149414
 20
41.112518310546875
 30
136.0
 11
-52.361297607421875
 21
40.910850524902344
 31
136.0
 12
-51.628334045410156
 22
40.44667434692383
 32
136.0
 13
-51.628334045410156
 23
40.44667434692383
 33
136.0
  0
3DFACE
  8
0
 10
-53.372982025146484
 20
41.66090393066406
 30
136.0
 11
-53.192596435546875
 21
41.49127197265625
 31
136.0
 12
-52.65793228149414
 22
41.112518310546875
 32
136.0
 13
-52.65793228149414
 23
41.112518310546875
 33
136.0
  0
3DFACE
  8
0
 10
-54.36832046508789
 20
42.656219482421875
 30
136.0
 11
-53.7918701171875
 21
42.04011917114258
 31
136.0
 12
-53.372982025146484
 22
41.66090393066406
 32
136.0
 13
-53.372982025146484
 23
41.66090393066406
 33
136.0
  0
3DFACE
  8
0
 10
-55.274166107177734
 20
43.83216094970703
 30
136.0
 11
-54.69026565551758
 21
43.051979064941406
 31
136.0
 12
-54.36832046508789
 22
42.656219482421875
 32
136.0
 13
-54.36832046508789
 23
42.656219482421875
 33
136.0
  0
3DFACE
  8
0
 10
-55.69981384277344
 20
44.505619049072266
 30
136.0
 11
-55.4677734375
 21
44.118812561035156
 31
136.0
 12
-55.274166107177734
 22
43.83216094970703
 32
136.0
 13
-55.274166107177734
 23
43.83216094970703
 33
136.0
  0
3DFACE
  8
0
 10
-56.07376480102539
 20
45.2137565612793
 30
136.0
 11
-56.03968048095703
 21
45.14680480957031
 31
136.0
 12
-55.69981384277344
 22
44.505619049072266
 32
136.0
 13
-55.69981384277344
 23
44.505619049072266
 33
136.0
  0
3DFACE
  8
0
 10
-56.6385612487793
 20
46.62223434448242
 30
136.0
 11
-56.49736022949219
 21
46.130706787109375
 31
136.0
 12
-56.07376480102539
 22
45.2137565612793
 32
136.0
 13
-56.07376480102539
 23
45.2137565612793
 33
136.0
  0
3DFACE
  8
0
 10
-56.95186996459961
 20
47.71827697753906
 30
136.0
 11
-56.73566818237305
 21
46.93524932861328
 31
136.0
 12
-56.6385612487793
 22
46.62223434448242
 32
136.0
 13
-56.6385612487793
 23
46.62223434448242
 33
136.0
  0
3DFACE
  8
0
 10
-56.9649772644043
 20
47.78683853149414
 30
136.0
 11
-56.958580017089844
 21
47.739810943603516
 31
136.0
 12
-56.95186996459961
 22
47.71827697753906
 32
136.0
 13
-56.95186996459961
 23
47.71827697753906
 33
136.0
  0
3DFACE
  8
0
 10
-57.08100891113281
 20
49.12821578979492
 30
136.0
 11
-57.0516471862793
 21
48.54436492919922
 31
136.0
 12
-56.9649772644043
 22
47.78683853149414
 32
136.0
 13
-56.9649772644043
 23
47.78683853149414
 33
136.0
  0
3DFACE
  8
0
 10
-57.06279754638672
 20
50.03123474121094
 30
136.0
 11
-57.09727096557617
 21
49.34890365600586
 31
136.0
 12
-57.08100891113281
 22
49.12821578979492
 32
136.0
 13
-57.08100891113281
 23
49.12821578979492
 33
136.0
  0
3DFACE
  8
0
 10
-57.020263671875
 20
50.58099365234375
 30
136.0
 11
-57.06185531616211
 21
50.15346908569336
 31
136.0
 12
-57.06279754638672
 22
50.03123474121094
 32
136.0
 13
-57.06279754638672
 23
50.03123474121094
 33
136.0
  0
3DFACE
  8
0
 10
-56.84162521362305
 20
51.762569427490234
 30
136.0
 11
-56.958030700683594
 21
51.065101623535156
 31
136.0
 12
-57.020263671875
 22
50.58099365234375
 32
136.0
 13
-57.020263671875
 23
50.58099365234375
 33
136.0
  0
3DFACE
  8
0
 10
-56.45230484008789
 20
53.25104904174805
 30
136.0
 11
-56.469337463378906
 21
53.19527816772461
 31
136.0
 12
-56.84162521362305
 22
51.762569427490234
 32
136.0
 13
-56.84162521362305
 23
51.762569427490234
 33
136.0
  0
3DFACE
  8
0
 10
-56.413150787353516
 20
53.371665954589844
 30
136.0
 11
-56.43105697631836
 21
53.325008392333984
 31
136.0
 12
-56.45230484008789
 22
53.25104904174805
 32
136.0
 13
-56.45230484008789
 23
53.25104904174805
 33
136.0
  0
3DFACE
  8
0
 10
-55.746124267578125
 20
54.77367401123047
 30
136.0
 11
-56.045318603515625
 21
54.17622375488281
 31
136.0
 12
-56.413150787353516
 22
53.371665954589844
 32
136.0
 13
-56.413150787353516
 23
53.371665954589844
 33
136.0
  0
3DFACE
  8
0
 10
-55.060211181640625
 20
55.785316467285156
 30
136.0
 11
-55.62230682373047
 21
54.980770111083984
 31
136.0
 12
-55.746124267578125
 22
54.77367401123047
 32
136.0
 13
-55.746124267578125
 23
54.77367401123047
 33
136.0
  0
3DFACE
  8
0
 10
-54.68413162231445
 20
56.229000091552734
 30
136.0
 11
-55.02233123779297
 21
55.83503341674805
 31
136.0
 12
-55.060211181640625
 22
55.785316467285156
 32
136.0
 13
-55.060211181640625
 23
55.785316467285156
 33
136.0
  0
3DFACE
  8
0
 10
-53.514732360839844
 20
57.40742111206055
 30
136.0
 11
-53.52916717529297
 21
57.39441680908203
 31
136.0
 12
-54.68413162231445
 22
56.229000091552734
 32
136.0
 13
-54.68413162231445
 23
56.229000091552734
 33
136.0
  0
3DFACE
  8
0
 10
-52.908592224121094
 20
57.89070129394531
 30
136.0
 11
-53.50264358520508
 21
57.41864776611328
 31
136.0
 12
-53.514732360839844
 22
57.40742111206055
 32
136.0
 13
-53.514732360839844
 23
57.40742111206055
 33
136.0
  0
3DFACE
  8
0
 10
-51.951847076416016
 20
58.56116485595703
 30
136.0
 11
-52.20350646972656
 21
58.39963912963867
 31
136.0
 12
-52.908592224121094
 22
57.89070129394531
 32
136.0
 13
-52.908592224121094
 23
57.89070129394531
 33
136.0
  0
3DFACE
  8
0
 10
-50.980384826660156
 20
59.08272171020508
 30
136.0
 11
-51.16668701171875
 21
58.988826751708984
 31
136.0
 12
-51.37179946899414
 22
58.869388580322266
 32
136.0
 13
-51.37179946899414
 23
58.869388580322266
 33
136.0
  0
3DFACE
  8
0
 10
-51.37179946899414
 20
58.869388580322266
 30
136.0
 11
-51.951847076416016
 21
58.56116485595703
 31
136.0
 12
-52.908592224121094
 22
57.89070129394531
 32
136.0
 13
-52.908592224121094
 23
57.89070129394531
 33
136.0
  0
3DFACE
  8
0
 10
-52.908592224121094
 20
57.89070129394531
 30
136.0
 11
-53.514732360839844
 21
57.40742111206055
 31
136.0
 12
-54.68413162231445
 22
56.229000091552734
 32
136.0
 13
-54.68413162231445
 23
56.229000091552734
 33
136.0
  0
3DFACE
  8
0
 10
-54.68413162231445
 20
56.229000091552734
 30
136.0
 11
-55.060211181640625
 21
55.785316467285156
 31
136.0
 12
-55.746124267578125
 22
54.77367401123047
 32
136.0
 13
-55.746124267578125
 23
54.77367401123047
 33
136.0
  0
3DFACE
  8
0
 10
-55.746124267578125
 20
54.77367401123047
 30
136.0
 11
-56.413150787353516
 21
53.371665954589844
 31
136.0
 12
-56.45230484008789
 22
53.25104904174805
 32
136.0
 13
-56.45230484008789
 23
53.25104904174805
 33
136.0
  0
3DFACE
  8
0
 10
-56.45230484008789
 20
53.25104904174805
 30
136.0
 11
-56.84162521362305
 21
51.762569427490234
 31
136.0
 12
-57.020263671875
 22
50.58099365234375
 32
136.0
 13
-57.020263671875
 23
50.58099365234375
 33
136.0
  0
3DFACE
  8
0
 10
-57.020263671875
 20
50.58099365234375
 30
136.0
 11
-57.06279754638672
 21
50.03123474121094
 31
136.0
 12
-57.08100891113281
 22
49.12821578979492
 32
136.0
 13
-57.08100891113281
 23
49.12821578979492
 33
136.0
  0
3DFACE
  8
0
 10
-57.08100891113281
 20
49.12821578979492
 30
136.0
 11
-56.9649772644043
 21
47.78683853149414
 31
136.0
 12
-56.95186996459961
 22
47.71827697753906
 32
136.0
 13
-56.95186996459961
 23
47.71827697753906
 33
136.0
  0
3DFACE
  8
0
 10
-56.95186996459961
 20
47.71827697753906
 30
136.0
 11
-56.6385612487793
 21
46.62223434448242
 31
136.0
 12
-56.07376480102539
 22
45.2137565612793
 32
136.0
 13
-56.07376480102539
 23
45.2137565612793
 33
136.0
  0
3DFACE
  8
0
 10
-56.07376480102539
 20
45.2137565612793
 30
136.0
 11
-55.69981384277344
 21
44.505619049072266
 31
136.0
 12
-55.274166107177734
 22
43.83216094970703
 32
136.0
 13
-55.274166107177734
 23
43.83216094970703
 33
136.0
  0
3DFACE
  8
0
 10
-55.274166107177734
 20
43.83216094970703
 30
136.0
 11
-54.36832046508789
 21
42.656219482421875
 31
136.0
 12
-53.372982025146484
 22
41.66090393066406
 32
136.0
 13
-53.372982025146484
 23
41.66090393066406
 33
136.0
  0
3DFACE
  8
0
 10
-53.372982025146484
 20
41.66090393066406
 30
136.0
 11
-52.65793228149414
 21
41.112518310546875
 31
136.0
 12
-51.628334045410156
 22
40.44667434692383
 32
136.0
 13
-51.628334045410156
 23
40.44667434692383
 33
136.0
  0
3DFACE
  8
0
 10
-51.628334045410156
 20
40.44667434692383
 30
136.0
 11
-49.93939208984375
 21
39.593353271484375
 31
136.0
 12
-49.586700439453125
 22
39.45663833618164
 32
136.0
 13
-49.586700439453125
 23
39.45663833618164
 33
136.0
  0
3DFACE
  8
0
 10
-49.586700439453125
 20
39.45663833618164
 30
136.0
 11
-48.98896789550781
 21
39.270111083984375
 31
136.0
 12
-48.650360107421875
 22
39.20381164550781
 32
136.0
 13
-48.650360107421875
 23
39.20381164550781
 33
136.0
  0
3DFACE
  8
0
 10
-48.650360107421875
 20
39.20381164550781
 30
136.0
 11
-48.16667175292969
 21
39.08034896850586
 31
136.0
 12
-47.33876037597656
 22
38.969932556152344
 32
136.0
 13
-47.33876037597656
 23
38.969932556152344
 33
136.0
  0
3DFACE
  8
0
 10
-47.25868606567383
 20
38.969970703125
 30
136.0
 11
-46.520442962646484
 21
38.91801452636719
 31
136.0
 12
-45.83662414550781
 22
38.94637680053711
 32
136.0
 13
-45.83662414550781
 23
38.94637680053711
 33
136.0
  0
3DFACE
  8
0
 10
-48.650360107421875
 20
39.20381164550781
 30
136.0
 11
-47.33876037597656
 21
38.969932556152344
 31
136.0
 12
-47.25868606567383
 22
38.969970703125
 32
136.0
 13
-47.25868606567383
 23
38.969970703125
 33
136.0
  0
3DFACE
  8
0
 10
-51.628334045410156
 20
40.44667434692383
 30
136.0
 11
-49.586700439453125
 21
39.45663833618164
 31
136.0
 12
-48.650360107421875
 22
39.20381164550781
 32
136.0
 13
-48.650360107421875
 23
39.20381164550781
 33
136.0
  0
3DFACE
  8
0
 10
-55.274166107177734
 20
43.83216094970703
 30
136.0
 11
-53.372982025146484
 21
41.66090393066406
 31
136.0
 12
-51.628334045410156
 22
40.44667434692383
 32
136.0
 13
-51.628334045410156
 23
40.44667434692383
 33
136.0
  0
3DFACE
  8
0
 10
-56.95186996459961
 20
47.71827697753906
 30
136.0
 11
-56.07376480102539
 21
45.2137565612793
 31
136.0
 12
-55.274166107177734
 22
43.83216094970703
 32
136.0
 13
-55.274166107177734
 23
43.83216094970703
 33
136.0
  0
3DFACE
  8
0
 10
-57.020263671875
 20
50.58099365234375
 30
136.0
 11
-57.08100891113281
 21
49.12821578979492
 31
136.0
 12
-56.95186996459961
 22
47.71827697753906
 32
136.0
 13
-56.95186996459961
 23
47.71827697753906
 33
136.0
  0
3DFACE
  8
0
 10
-55.746124267578125
 20
54.77367401123047
 30
136.0
 11
-56.45230484008789
 21
53.25104904174805
 31
136.0
 12
-57.020263671875
 22
50.58099365234375
 32
136.0
 13
-57.020263671875
 23
50.58099365234375
 33
136.0
  0
3DFACE
  8
0
 10
-52.908592224121094
 20
57.89070129394531
 30
136.0
 11
-54.68413162231445
 21
56.229000091552734
 31
136.0
 12
-55.746124267578125
 22
54.77367401123047
 32
136.0
 13
-55.746124267578125
 23
54.77367401123047
 33
136.0
  0
3DFACE
  8
0
 10
-50.980384826660156
 20
59.08272171020508
 30
136.0
 11
-51.37179946899414
 21
58.869388580322266
 31
136.0
 12
-52.908592224121094
 22
57.89070129394531
 32
136.0
 13
-52.908592224121094
 23
57.89070129394531
 33
136.0
  0
3DFACE
  8
0
 10
-50.19103240966797
 20
59.430015563964844
 30
136.0
 11
-50.37784194946289
 21
59.36335372924805
 31
136.0
 12
-50.980384826660156
 22
59.08272171020508
 32
136.0
 13
-50.980384826660156
 23
59.08272171020508
 33
136.0
  0
3DFACE
  8
0
 10
-49.583431243896484
 20
59.672828674316406
 30
136.0
 11
-49.5844841003418
 21
59.67251968383789
 31
136.0
 12
-50.19103240966797
 22
59.430015563964844
 32
136.0
 13
-50.19103240966797
 23
59.430015563964844
 33
136.0
  0
3DFACE
  8
0
 10
-48.189212799072266
 20
59.94496536254883
 30
136.0
 11
-49.582706451416016
 21
59.67300796508789
 31
136.0
 12
-49.583431243896484
 22
59.672828674316406
 32
136.0
 13
-49.583431243896484
 23
59.672828674316406
 33
136.0
  0
3DFACE
  8
0
 10
-47.16374969482422
 20
60.01176834106445
 30
136.0
 11
-47.9754753112793
 21
59.96830368041992
 31
136.0
 12
-48.189212799072266
 22
59.94496536254883
 32
136.0
 13
-48.189212799072266
 23
59.94496536254883
 33
136.0
  0
3DFACE
  8
0
 10
-45.52712631225586
 20
59.90818405151367
 30
136.0
 11
-46.346656799316406
 21
59.977657318115234
 31
136.0
 12
-47.06942367553711
 22
60.0031852722168
 32
136.0
 13
-47.06942367553711
 23
60.0031852722168
 33
136.0
  0
3DFACE
  8
0
 10
-47.06942367553711
 20
60.0031852722168
 30
136.0
 11
-47.16374969482422
 21
60.01176834106445
 31
136.0
 12
-48.189212799072266
 22
59.94496536254883
 32
136.0
 13
-48.189212799072266
 23
59.94496536254883
 33
136.0
  0
3DFACE
  8
0
 10
-48.189212799072266
 20
59.94496536254883
 30
136.0
 11
-49.583431243896484
 21
59.672828674316406
 31
136.0
 12
-50.19103240966797
 22
59.430015563964844
 32
136.0
 13
-50.19103240966797
 23
59.430015563964844
 33
136.0
  0
3DFACE
  8
0
 10
-50.19103240966797
 20
59.430015563964844
 30
136.0
 11
-50.980384826660156
 21
59.08272171020508
 31
136.0
 12
-52.908592224121094
 22
57.89070129394531
 32
136.0
 13
-52.908592224121094
 23
57.89070129394531
 33
136.0
  0
3DFACE
  8
0
 10
-52.908592224121094
 20
57.89070129394531
 30
136.0
 11
-55.746124267578125
 21
54.77367401123047
 31
136.0
 12
-57.020263671875
 22
50.58099365234375
 32
136.0
 13
-57.020263671875
 23
50.58099365234375
 33
136.0
  0
3DFACE
  8
0
 10
-57.020263671875
 20
50.58099365234375
 30
136.0
 11
-56.95186996459961
 21
47.71827697753906
 31
136.0
 12
-55.274166107177734
 22
43.83216094970703
 32
136.0
 13
-55.274166107177734
 23
43.83216094970703
 33
136.0
  0
3DFACE
  8
0
 10
-55.274166107177734
 20
43.83216094970703
 30
136.0
 11
-51.628334045410156
 21
40.44667434692383
 31
136.0
 12
-48.650360107421875
 22
39.20381164550781
 32
136.0
 13
-48.650360107421875
 23
39.20381164550781
 33
136.0
  0
3DFACE
  8
0
 10
-48.650360107421875
 20
39.20381164550781
 30
136.0
 11
-47.25868606567383
 21
38.969970703125
 31
136.0
 12
-45.83662414550781
 22
38.94637680053711
 32
136.0
 13
-45.83662414550781
 23
38.94637680053711
 33
136.0
  0
3DFACE
  8
0
 10
-45.83662414550781
 20
38.94637680053711
 30
136.0
 11
-45.70830535888672
 21
38.95546340942383
 31
136.0
 12
-45.3812370300293
 22
39.00170135498047
 32
136.0
 13
-45.3812370300293
 23
39.00170135498047
 33
136.0
  0
3DFACE
  8
0
 10
-45.3812370300293
 20
39.00170135498047
 30
136.0
 11
-44.90080261230469
 21
39.06005859375
 31
136.0
 12
-44.702392578125
 22
39.09779357910156
 32
136.0
 13
-44.702392578125
 23
39.09779357910156
 33
136.0
  0
3DFACE
  8
0
 10
-44.702392578125
 20
39.09779357910156
 30
136.0
 11
-44.09900665283203
 21
39.24714279174805
 31
136.0
 12
-43.57797622680664
 22
39.415771484375
 32
136.0
 13
-43.57797622680664
 23
39.415771484375
 33
136.0
  0
3DFACE
  8
0
 10
-43.57797622680664
 20
39.415771484375
 30
136.0
 11
-43.30066680908203
 21
39.48426055908203
 31
136.0
 12
-42.50912857055664
 22
39.8197135925293
 32
136.0
 13
-42.50912857055664
 23
39.8197135925293
 33
136.0
  0
3DFACE
  8
0
 10
-42.1761360168457
 20
39.998779296875
 30
136.0
 11
-41.76213455200195
 21
40.206443786621094
 31
136.0
 12
-41.26009750366211
 22
40.501220703125
 32
136.0
 13
-41.26009750366211
 23
40.501220703125
 33
136.0
  0
3DFACE
  8
0
 10
-43.57797622680664
 20
39.415771484375
 30
136.0
 11
-42.50912857055664
 21
39.8197135925293
 31
136.0
 12
-42.1761360168457
 22
39.998779296875
 32
136.0
 13
-42.1761360168457
 23
39.998779296875
 33
136.0
  0
3DFACE
  8
0
 10
-45.3812370300293
 20
39.00170135498047
 30
136.0
 11
-44.702392578125
 21
39.09779357910156
 31
136.0
 12
-43.57797622680664
 22
39.415771484375
 32
136.0
 13
-43.57797622680664
 23
39.415771484375
 33
136.0
  0
3DFACE
  8
0
 10
-48.650360107421875
 20
39.20381164550781
 30
136.0
 11
-45.83662414550781
 21
38.94637680053711
 31
136.0
 12
-45.3812370300293
 22
39.00170135498047
 32
136.0
 13
-45.3812370300293
 23
39.00170135498047
 33
136.0
  0
3DFACE
  8
0
 10
-57.020263671875
 20
50.58099365234375
 30
136.0
 11
-55.274166107177734
 21
43.83216094970703
 31
136.0
 12
-48.650360107421875
 22
39.20381164550781
 32
136.0
 13
-48.650360107421875
 23
39.20381164550781
 33
136.0
  0
3DFACE
  8
0
 10
-50.19103240966797
 20
59.430015563964844
 30
136.0
 11
-52.908592224121094
 21
57.89070129394531
 31
136.0
 12
-57.020263671875
 22
50.58099365234375
 32
136.0
 13
-57.020263671875
 23
50.58099365234375
 33
136.0
  0
3DFACE
  8
0
 10
-47.06942367553711
 20
60.0031852722168
 30
136.0
 11
-48.189212799072266
 21
59.94496536254883
 31
136.0
 12
-50.19103240966797
 22
59.430015563964844
 32
136.0
 13
-50.19103240966797
 23
59.430015563964844
 33
136.0
  0
3DFACE
  8
0
 10
-44.86621856689453
 20
59.79706954956055
 30
136.0
 11
-45.52712631225586
 21
59.90818405151367
 31
136.0
 12
-47.06942367553711
 22
60.0031852722168
 32
136.0
 13
-47.06942367553711
 23
60.0031852722168
 33
136.0
  0
3DFACE
  8
0
 10
-44.62069320678711
 20
59.758785247802734
 30
136.0
 11
-44.68290710449219
 21
59.76949691772461
 31
136.0
 12
-44.86621856689453
 22
59.79706954956055
 32
136.0
 13
-44.86621856689453
 23
59.79706954956055
 33
136.0
  0
3DFACE
  8
0
 10
-43.039859771728516
 20
59.28499984741211
 30
136.0
 11
-43.45076370239258
 21
59.43571853637695
 31
136.0
 12
-44.44059371948242
 22
59.706661224365234
 32
136.0
 13
-44.44059371948242
 23
59.706661224365234
 33
136.0
  0
3DFACE
  8
0
 10
-44.44059371948242
 20
59.706661224365234
 30
136.0
 11
-44.62069320678711
 21
59.758785247802734
 31
136.0
 12
-44.86621856689453
 22
59.79706954956055
 32
136.0
 13
-44.86621856689453
 23
59.79706954956055
 33
136.0
  0
3DFACE
  8
0
 10
-44.86621856689453
 20
59.79706954956055
 30
136.0
 11
-47.06942367553711
 21
60.0031852722168
 31
136.0
 12
-50.19103240966797
 22
59.430015563964844
 32
136.0
 13
-50.19103240966797
 23
59.430015563964844
 33
136.0
  0
3DFACE
  8
0
 10
-50.19103240966797
 20
59.430015563964844
 30
136.0
 11
-57.020263671875
 21
50.58099365234375
 31
136.0
 12
-48.650360107421875
 22
39.20381164550781
 32
136.0
 13
-48.650360107421875
 23
39.20381164550781
 33
136.0
  0
3DFACE
  8
0
 10
-48.650360107421875
 20
39.20381164550781
 30
136.0
 11
-45.3812370300293
 21
39.00170135498047
 31
136.0
 12
-43.57797622680664
 22
39.415771484375
 32
136.0
 13
-43.57797622680664
 23
39.415771484375
 33
136.0
  0
3DFACE
  8
0
 10
-43.57797622680664
 20
39.415771484375
 30
136.0
 11
-42.1761360168457
 21
39.998779296875
 31
136.0
 12
-41.26009750366211
 22
40.501220703125
 32
136.0
 13
-41.26009750366211
 23
40.501220703125
 33
136.0
  0
3DFACE
  8
0
 10
-41.26009750366211
 20
40.501220703125
 30
136.0
 11
-40.94150161743164
 21
40.71425247192383
 31
136.0
 12
-40.31907653808594
 22
41.21589279174805
 32
136.0
 13
-40.31907653808594
 23
41.21589279174805
 33
136.0
  0
3DFACE
  8
0
 10
-40.31907653808594
 20
41.21589279174805
 30
136.0
 11
-40.10884094238281
 21
41.38125991821289
 31
136.0
 12
-39.375980377197266
 22
42.01131057739258
 32
136.0
 13
-39.375980377197266
 23
42.01131057739258
 33
136.0
  0
3DFACE
  8
0
 10
-39.375980377197266
 20
42.01131057739258
 30
136.0
 11
-39.30775833129883
 21
42.080345153808594
 31
136.0
 12
-38.60932159423828
 22
42.83726119995117
 32
136.0
 13
-38.60932159423828
 23
42.83726119995117
 33
136.0
  0
3DFACE
  8
0
 10
-38.60932159423828
 20
42.83726119995117
 30
136.0
 11
-38.54570770263672
 21
42.91250228881836
 31
136.0
 12
-37.94522476196289
 22
43.721561431884766
 32
136.0
 13
-37.94522476196289
 23
43.721561431884766
 33
136.0
  0
3DFACE
  8
0
 10
-37.94522476196289
 20
43.721561431884766
 30
136.0
 11
-37.61427307128906
 21
44.214324951171875
 31
136.0
 12
-37.1484375
 22
45.005775451660156
 32
136.0
 13
-37.1484375
 23
45.005775451660156
 33
136.0
  0
3DFACE
  8
0
 10
-37.1484375
 20
45.005775451660156
 30
136.0
 11
-37.05439376831055
 21
45.18598175048828
 31
136.0
 12
-36.736961364746094
 22
45.93645095825195
 32
136.0
 13
-36.736961364746094
 23
45.93645095825195
 33
136.0
  0
3DFACE
  8
0
 10
-36.736961364746094
 20
45.93645095825195
 30
136.0
 11
-36.66926956176758
 21
46.13071060180664
 31
136.0
 12
-36.47221755981445
 22
46.77735137939453
 32
136.0
 13
-36.47221755981445
 23
46.77735137939453
 33
136.0
  0
3DFACE
  8
0
 10
-36.47221755981445
 20
46.77735137939453
 30
136.0
 11
-36.455265045166016
 21
46.843082427978516
 31
136.0
 12
-36.43470764160156
 22
46.93525314331055
 32
136.0
 13
-36.43470764160156
 23
46.93525314331055
 33
136.0
  0
3DFACE
  8
0
 10
-36.43470764160156
 20
46.93525314331055
 30
136.0
 11
-36.35508346557617
 21
47.33778762817383
 31
136.0
 12
-36.2891731262207
 22
47.73981475830078
 32
136.0
 13
-36.2891731262207
 23
47.73981475830078
 33
136.0
  0
3DFACE
  8
0
 10
-36.2891731262207
 20
47.73981475830078
 30
136.0
 11
-36.25655746459961
 21
47.9948844909668
 31
136.0
 12
-36.205657958984375
 22
48.658172607421875
 32
136.0
 13
-36.205657958984375
 23
48.658172607421875
 33
136.0
  0
3DFACE
  8
0
 10
-36.205657958984375
 20
48.658172607421875
 30
136.0
 11
-36.204803466796875
 21
48.74441909790039
 31
136.0
 12
-36.2309684753418
 22
49.95740509033203
 32
136.0
 13
-36.2309684753418
 23
49.95740509033203
 33
136.0
  0
3DFACE
  8
0
 10
-36.2309684753418
 20
49.95740509033203
 30
136.0
 11
-36.3128776550293
 21
50.6515998840332
 31
136.0
 12
-36.369110107421875
 22
50.99327850341797
 32
136.0
 13
-36.369110107421875
 23
50.99327850341797
 33
136.0
  0
3DFACE
  8
0
 10
-36.369110107421875
 20
50.99327850341797
 30
136.0
 11
-36.5112419128418
 21
51.76256561279297
 31
136.0
 12
-36.6125602722168
 22
52.121402740478516
 32
136.0
 13
-36.6125602722168
 23
52.121402740478516
 33
136.0
  0
3DFACE
  8
0
 10
-36.71984100341797
 20
52.457725524902344
 30
136.0
 11
-36.75225067138672
 21
52.56711196899414
 31
136.0
 12
-36.82951354980469
 22
52.764312744140625
 32
136.0
 13
-36.82951354980469
 23
52.764312744140625
 33
136.0
  0
3DFACE
  8
0
 10
-36.369110107421875
 20
50.99327850341797
 30
136.0
 11
-36.6125602722168
 21
52.121402740478516
 31
136.0
 12
-36.71984100341797
 22
52.457725524902344
 32
136.0
 13
-36.71984100341797
 23
52.457725524902344
 33
136.0
  0
3DFACE
  8
0
 10
-36.205657958984375
 20
48.658172607421875
 30
136.0
 11
-36.2309684753418
 21
49.95740509033203
 31
136.0
 12
-36.369110107421875
 22
50.99327850341797
 32
136.0
 13
-36.369110107421875
 23
50.99327850341797
 33
136.0
  0
3DFACE
  8
0
 10
-36.43470764160156
 20
46.93525314331055
 30
136.0
 11
-36.2891731262207
 21
47.73981475830078
 31
136.0
 12
-36.205657958984375
 22
48.658172607421875
 32
136.0
 13
-36.205657958984375
 23
48.658172607421875
 33
136.0
  0
3DFACE
  8
0
 10
-36.736961364746094
 20
45.93645095825195
 30
136.0
 11
-36.47221755981445
 21
46.77735137939453
 31
136.0
 12
-36.43470764160156
 22
46.93525314331055
 32
136.0
 13
-36.43470764160156
 23
46.93525314331055
 33
136.0
  0
3DFACE
  8
0
 10
-37.94522476196289
 20
43.721561431884766
 30
136.0
 11
-37.1484375
 21
45.005775451660156
 31
136.0
 12
-36.736961364746094
 22
45.93645095825195
 32
136.0
 13
-36.736961364746094
 23
45.93645095825195
 33
136.0
  0
3DFACE
  8
0
 10
-39.375980377197266
 20
42.01131057739258
 30
136.0
 11
-38.60932159423828
 21
42.83726119995117
 31
136.0
 12
-37.94522476196289
 22
43.721561431884766
 32
136.0
 13
-37.94522476196289
 23
43.721561431884766
 33
136.0
  0
3DFACE
  8
0
 10
-41.26009750366211
 20
40.501220703125
 30
136.0
 11
-40.31907653808594
 21
41.21589279174805
 31
136.0
 12
-39.375980377197266
 22
42.01131057739258
 32
136.0
 13
-39.375980377197266
 23
42.01131057739258
 33
136.0
  0
3DFACE
  8
0
 10
-48.650360107421875
 20
39.20381164550781
 30
136.0
 11
-43.57797622680664
 21
39.415771484375
 31
136.0
 12
-41.26009750366211
 22
40.501220703125
 32
136.0
 13
-41.26009750366211
 23
40.501220703125
 33
136.0
  0
3DFACE
  8
0
 10
-44.86621856689453
 20
59.79706954956055
 30
136.0
 11
-50.19103240966797
 21
59.430015563964844
 31
136.0
 12
-48.650360107421875
 22
39.20381164550781
 32
136.0
 13
-48.650360107421875
 23
39.20381164550781
 33
136.0
  0
3DFACE
  8
0
 10
-43.039859771728516
 20
59.28499984741211
 30
136.0
 11
-44.44059371948242
 21
59.706661224365234
 31
136.0
 12
-44.86621856689453
 22
59.79706954956055
 32
136.0
 13
-44.86621856689453
 23
59.79706954956055
 33
136.0
  0
3DFACE
  8
0
 10
-42.162899017333984
 20
58.90959167480469
 30
136.0
 11
-42.22845458984375
 21
58.941043853759766
 31
136.0
 12
-43.039859771728516
 22
59.28499984741211
 32
136.0
 13
-43.039859771728516
 23
59.28499984741211
 33
136.0
  0
3DFACE
  8
0
 10
-40.92219924926758
 20
58.20702362060547
 30
136.0
 11
-41.320465087890625
 21
58.48064422607422
 31
136.0
 12
-42.162899017333984
 22
58.90959167480469
 32
136.0
 13
-42.162899017333984
 23
58.90959167480469
 33
136.0
  0
3DFACE
  8
0
 10
-40.04441452026367
 20
57.55596923828125
 30
136.0
 11
-40.69948959350586
 21
58.06414031982422
 31
136.0
 12
-40.92219924926758
 22
58.20702362060547
 32
136.0
 13
-40.92219924926758
 23
58.20702362060547
 33
136.0
  0
3DFACE
  8
0
 10
-38.7773551940918
 20
56.246315002441406
 30
136.0
 11
-39.606998443603516
 21
57.146568298339844
 31
136.0
 12
-39.66313552856445
 22
57.1953239440918
 32
136.0
 13
-39.66313552856445
 23
57.1953239440918
 33
136.0
  0
3DFACE
  8
0
 10
-39.66313552856445
 20
57.1953239440918
 30
136.0
 11
-40.04441452026367
 21
57.55596923828125
 31
136.0
 12
-40.92219924926758
 22
58.20702362060547
 32
136.0
 13
-40.92219924926758
 23
58.20702362060547
 33
136.0
  0
3DFACE
  8
0
 10
-40.92219924926758
 20
58.20702362060547
 30
136.0
 11
-42.162899017333984
 21
58.90959167480469
 31
136.0
 12
-43.039859771728516
 22
59.28499984741211
 32
136.0
 13
-43.039859771728516
 23
59.28499984741211
 33
136.0
  0
3DFACE
  8
0
 10
-43.039859771728516
 20
59.28499984741211
 30
136.0
 11
-44.86621856689453
 21
59.79706954956055
 31
136.0
 12
-48.650360107421875
 22
39.20381164550781
 32
136.0
 13
-48.650360107421875
 23
39.20381164550781
 33
136.0
  0
3DFACE
  8
0
 10
-48.650360107421875
 20
39.20381164550781
 30
136.0
 11
-41.26009750366211
 21
40.501220703125
 31
136.0
 12
-39.375980377197266
 22
42.01131057739258
 32
136.0
 13
-39.375980377197266
 23
42.01131057739258
 33
136.0
  0
3DFACE
  8
0
 10
-39.375980377197266
 20
42.01131057739258
 30
136.0
 11
-37.94522476196289
 21
43.721561431884766
 31
136.0
 12
-36.736961364746094
 22
45.93645095825195
 32
136.0
 13
-36.736961364746094
 23
45.93645095825195
 33
136.0
  0
3DFACE
  8
0
 10
-36.736961364746094
 20
45.93645095825195
 30
136.0
 11
-36.43470764160156
 21
46.93525314331055
 31
136.0
 12
-36.205657958984375
 22
48.658172607421875
 32
136.0
 13
-36.205657958984375
 23
48.658172607421875
 33
136.0
  0
3DFACE
  8
0
 10
-36.205657958984375
 20
48.658172607421875
 30
136.0
 11
-36.369110107421875
 21
50.99327850341797
 31
136.0
 12
-36.71984100341797
 22
52.457725524902344
 32
136.0
 13
-36.71984100341797
 23
52.457725524902344
 33
136.0
  0
3DFACE
  8
0
 10
-36.82951354980469
 20
52.764312744140625
 30
136.0
 11
-37.02568817138672
 21
53.342506408691406
 31
136.0
 12
-37.14418411254883
 22
53.63359832763672
 32
136.0
 13
-37.14418411254883
 23
53.63359832763672
 33
136.0
  0
3DFACE
  8
0
 10
-36.205657958984375
 20
48.658172607421875
 30
136.0
 11
-36.71984100341797
 21
52.457725524902344
 31
136.0
 12
-36.82951354980469
 22
52.764312744140625
 32
136.0
 13
-36.82951354980469
 23
52.764312744140625
 33
136.0
  0
3DFACE
  8
0
 10
-39.375980377197266
 20
42.01131057739258
 30
136.0
 11
-36.736961364746094
 21
45.93645095825195
 31
136.0
 12
-36.205657958984375
 22
48.658172607421875
 32
136.0
 13
-36.205657958984375
 23
48.658172607421875
 33
136.0
  0
3DFACE
  8
0
 10
-43.039859771728516
 20
59.28499984741211
 30
136.0
 11
-48.650360107421875
 21
39.20381164550781
 31
136.0
 12
-39.375980377197266
 22
42.01131057739258
 32
136.0
 13
-39.375980377197266
 23
42.01131057739258
 33
136.0
  0
3DFACE
  8
0
 10
-39.66313552856445
 20
57.1953239440918
 30
136.0
 11
-40.92219924926758
 21
58.20702362060547
 31
136.0
 12
-43.039859771728516
 22
59.28499984741211
 32
136.0
 13
-43.039859771728516
 23
59.28499984741211
 33
136.0
  0
3DFACE
  8
0
 10
-38.76675796508789
 20
56.23345947265625
 30
136.0
 11
-38.7773551940918
 21
56.246315002441406
 31
136.0
 12
-39.66313552856445
 22
57.1953239440918
 32
136.0
 13
-39.66313552856445
 23
57.1953239440918
 33
136.0
  0
3DFACE
  8
0
 10
-38.74454116821289
 20
56.201908111572266
 30
136.0
 11
-38.75592803955078
 21
56.218448638916016
 31
136.0
 12
-38.76675796508789
 22
56.23345947265625
 32
136.0
 13
-38.76675796508789
 23
56.23345947265625
 33
136.0
  0
3DFACE
  8
0
 10
-38.02170181274414
 20
55.209869384765625
 30
136.0
 11
-38.415306091308594
 21
55.78532028198242
 31
136.0
 12
-38.74454116821289
 22
56.201908111572266
 32
136.0
 13
-38.74454116821289
 23
56.201908111572266
 33
136.0
  0
3DFACE
  8
0
 10
-37.54766082763672
 20
54.41364288330078
 30
136.0
 11
-37.861080169677734
 21
54.96676254272461
 31
136.0
 12
-38.02170181274414
 22
55.209869384765625
 32
136.0
 13
-38.02170181274414
 23
55.209869384765625
 33
136.0
  0
3DFACE
  8
0
 10
-37.14418411254883
 20
53.63359832763672
 30
136.0
 11
-37.420265197753906
 21
54.17621994018555
 31
136.0
 12
-37.54766082763672
 22
54.41364288330078
 32
136.0
 13
-37.54766082763672
 23
54.41364288330078
 33
136.0
  0
3DFACE
  8
0
 10
-36.205657958984375
 20
48.658172607421875
 30
136.0
 11
-36.82951354980469
 21
52.764312744140625
 31
136.0
 12
-37.14418411254883
 22
53.63359832763672
 32
136.0
 13
-37.14418411254883
 23
53.63359832763672
 33
136.0
  0
3DFACE
  8
0
 10
-43.039859771728516
 20
59.28499984741211
 30
136.0
 11
-39.375980377197266
 21
42.01131057739258
 31
136.0
 12
-36.205657958984375
 22
48.658172607421875
 32
136.0
 13
-36.205657958984375
 23
48.658172607421875
 33
136.0
  0
3DFACE
  8
0
 10
-38.76675796508789
 20
56.23345947265625
 30
136.0
 11
-39.66313552856445
 21
57.1953239440918
 31
136.0
 12
-43.039859771728516
 22
59.28499984741211
 32
136.0
 13
-43.039859771728516
 23
59.28499984741211
 33
136.0
  0
3DFACE
  8
0
 10
-37.54766082763672
 20
54.41364288330078
 30
136.0
 11
-38.02170181274414
 21
55.209869384765625
 31
136.0
 12
-38.74454116821289
 22
56.201908111572266
 32
136.0
 13
-38.74454116821289
 23
56.201908111572266
 33
136.0
  0
3DFACE
  8
0
 10
-38.74454116821289
 20
56.201908111572266
 30
136.0
 11
-38.76675796508789
 21
56.23345947265625
 31
136.0
 12
-43.039859771728516
 22
59.28499984741211
 32
136.0
 13
-43.039859771728516
 23
59.28499984741211
 33
136.0
  0
3DFACE
  8
0
 10
-43.039859771728516
 20
59.28499984741211
 30
136.0
 11
-36.205657958984375
 21
48.658172607421875
 31
136.0
 12
-37.14418411254883
 22
53.63359832763672
 32
136.0
 13
-37.14418411254883
 23
53.63359832763672
 33
136.0
  0
3DFACE
  8
0
 10
-37.14418411254883
 20
53.63359832763672
 30
136.0
 11
-37.54766082763672
 21
54.41364288330078
 31
136.0
 12
-38.74454116821289
 22
56.201908111572266
 32
136.0
 13
-38.74454116821289
 23
56.201908111572266
 33
136.0
  0
3DFACE
  8
0
 10
-37.14418411254883
 20
53.63359832763672
 30
136.0
 11
-38.74454116821289
 21
56.201908111572266
 31
136.0
 12
-43.039859771728516
 22
59.28499984741211
 32
136.0
 13
-43.039859771728516
 23
59.28499984741211
 33
136.0
  0
3DFACE
  8
0
 10
42.5615119934082
 20
58.630062103271484
 30
136.0
 11
42.56536102294922
 21
58.63762664794922
 31
136.0
 12
42.57590866088867
 22
58.66212463378906
 32
136.0
 13
42.57590866088867
 23
58.66212463378906
 33
136.0
  0
3DFACE
  8
0
 10
42.57590866088867
 20
58.66212463378906
 30
136.0
 11
42.88505935668945
 21
59.41719055175781
 31
136.0
 12
42.970252990722656
 22
59.732086181640625
 32
136.0
 13
42.970252990722656
 23
59.732086181640625
 33
136.0
  0
3DFACE
  8
0
 10
42.970252990722656
 20
59.732086181640625
 30
136.0
 11
43.11873245239258
 21
60.20433807373047
 31
136.0
 12
43.18860626220703
 22
60.47159957885742
 32
136.0
 13
43.18860626220703
 23
60.47159957885742
 33
136.0
  0
3DFACE
  8
0
 10
43.18860626220703
 20
60.47159957885742
 30
136.0
 11
43.302452087402344
 21
60.99147033691406
 31
136.0
 12
43.359073638916016
 22
61.437984466552734
 32
136.0
 13
43.359073638916016
 23
61.437984466552734
 33
136.0
  0
3DFACE
  8
0
 10
43.359073638916016
 20
61.437984466552734
 30
136.0
 11
43.39572525024414
 21
61.77861022949219
 31
136.0
 12
43.39618682861328
 22
61.845951080322266
 32
136.0
 13
43.39618682861328
 23
61.845951080322266
 33
136.0
  0
3DFACE
  8
0
 10
43.39618682861328
 20
61.845951080322266
 30
136.0
 11
43.425533294677734
 21
62.56575012207031
 31
136.0
 12
43.4171028137207
 22
62.6905403137207
 32
136.0
 13
43.4171028137207
 23
62.6905403137207
 33
136.0
  0
3DFACE
  8
0
 10
43.4171028137207
 20
62.6905403137207
 30
136.0
 11
43.40650939941406
 21
63.35288619995117
 31
136.0
 12
43.38451385498047
 22
63.6912841796875
 32
136.0
 13
43.38451385498047
 23
63.6912841796875
 33
136.0
  0
3DFACE
  8
0
 10
43.38451385498047
 20
63.6912841796875
 30
136.0
 11
43.3288459777832
 21
64.14002227783203
 31
136.0
 12
43.203914642333984
 22
64.7713851928711
 32
136.0
 13
43.203914642333984
 23
64.7713851928711
 33
136.0
  0
3DFACE
  8
0
 10
43.203914642333984
 20
64.7713851928711
 30
136.0
 11
43.17951583862305
 21
64.92716217041016
 31
136.0
 12
43.02592468261719
 22
65.57469177246094
 32
136.0
 13
43.02592468261719
 23
65.57469177246094
 33
136.0
  0
3DFACE
  8
0
 10
43.02592468261719
 20
65.57469177246094
 30
136.0
 11
42.99903869628906
 21
65.71429443359375
 31
136.0
 12
42.844444274902344
 22
66.30200958251953
 32
136.0
 13
42.844444274902344
 23
66.30200958251953
 33
136.0
  0
3DFACE
  8
0
 10
42.844444274902344
 20
66.30200958251953
 30
136.0
 11
42.78512191772461
 21
66.50371551513672
 31
136.0
 12
42.755306243896484
 22
66.56948852539062
 32
136.0
 13
42.755306243896484
 23
66.56948852539062
 33
136.0
  0
3DFACE
  8
0
 10
42.755306243896484
 20
66.56948852539062
 30
136.0
 11
42.45153045654297
 21
67.28858184814453
 31
136.0
 12
42.2872314453125
 22
67.61225891113281
 32
136.0
 13
42.2872314453125
 23
67.61225891113281
 33
136.0
  0
3DFACE
  8
0
 10
42.2872314453125
 20
67.61225891113281
 30
136.0
 11
42.057273864746094
 21
68.04808807373047
 31
136.0
 12
42.049171447753906
 22
68.06230926513672
 32
136.0
 13
42.049171447753906
 23
68.06230926513672
 33
136.0
  0
3DFACE
  8
0
 10
41.98994827270508
 20
68.15251159667969
 30
136.0
 11
41.5390625
 21
68.86286163330078
 31
136.0
 12
41.33344650268555
 22
69.12491607666016
 32
136.0
 13
41.33344650268555
 23
69.12491607666016
 33
136.0
  0
3DFACE
  8
0
 10
42.2872314453125
 20
67.61225891113281
 30
136.0
 11
42.049171447753906
 21
68.06230926513672
 31
136.0
 12
41.98994827270508
 22
68.15251159667969
 32
136.0
 13
41.98994827270508
 23
68.15251159667969
 33
136.0
  0
3DFACE
  8
0
 10
42.844444274902344
 20
66.30200958251953
 30
136.0
 11
42.755306243896484
 21
66.56948852539062
 31
136.0
 12
42.2872314453125
 22
67.61225891113281
 32
136.0
 13
42.2872314453125
 23
67.61225891113281
 33
136.0
  0
3DFACE
  8
0
 10
43.203914642333984
 20
64.7713851928711
 30
136.0
 11
43.02592468261719
 21
65.57469177246094
 31
136.0
 12
42.844444274902344
 22
66.30200958251953
 32
136.0
 13
42.844444274902344
 23
66.30200958251953
 33
136.0
  0
3DFACE
  8
0
 10
43.4171028137207
 20
62.6905403137207
 30
136.0
 11
43.38451385498047
 21
63.6912841796875
 31
136.0
 12
43.203914642333984
 22
64.7713851928711
 32
136.0
 13
43.203914642333984
 23
64.7713851928711
 33
136.0
  0
3DFACE
  8
0
 10
43.359073638916016
 20
61.437984466552734
 30
136.0
 11
43.39618682861328
 21
61.845951080322266
 31
136.0
 12
43.4171028137207
 22
62.6905403137207
 32
136.0
 13
43.4171028137207
 23
62.6905403137207
 33
136.0
  0
3DFACE
  8
0
 10
42.970252990722656
 20
59.732086181640625
 30
136.0
 11
43.18860626220703
 21
60.47159957885742
 31
136.0
 12
43.359073638916016
 22
61.437984466552734
 32
136.0
 13
43.359073638916016
 23
61.437984466552734
 33
136.0
  0
3DFACE
  8
0
 10
42.5615119934082
 20
58.630062103271484
 30
136.0
 11
42.57590866088867
 21
58.66212463378906
 31
136.0
 12
42.970252990722656
 22
59.732086181640625
 32
136.0
 13
42.970252990722656
 23
59.732086181640625
 33
136.0
  0
3DFACE
  8
0
 10
41.91865158081055
 20
57.49211502075195
 30
136.0
 11
42.14873123168945
 21
57.87308883666992
 31
136.0
 12
42.55428695678711
 22
58.61732482910156
 32
136.0
 13
42.55428695678711
 23
58.61732482910156
 33
136.0
  0
3DFACE
  8
0
 10
42.55428695678711
 20
58.61732482910156
 30
136.0
 11
42.5615119934082
 21
58.630062103271484
 31
136.0
 12
42.970252990722656
 22
59.732086181640625
 32
136.0
 13
42.970252990722656
 23
59.732086181640625
 33
136.0
  0
3DFACE
  8
0
 10
42.970252990722656
 20
59.732086181640625
 30
136.0
 11
43.359073638916016
 21
61.437984466552734
 31
136.0
 12
43.4171028137207
 22
62.6905403137207
 32
136.0
 13
43.4171028137207
 23
62.6905403137207
 33
136.0
  0
3DFACE
  8
0
 10
43.4171028137207
 20
62.6905403137207
 30
136.0
 11
43.203914642333984
 21
64.7713851928711
 31
136.0
 12
42.844444274902344
 22
66.30200958251953
 32
136.0
 13
42.844444274902344
 23
66.30200958251953
 33
136.0
  0
3DFACE
  8
0
 10
42.844444274902344
 20
66.30200958251953
 30
136.0
 11
42.2872314453125
 21
67.61225891113281
 31
136.0
 12
41.98994827270508
 22
68.15251159667969
 32
136.0
 13
41.98994827270508
 23
68.15251159667969
 33
136.0
  0
3DFACE
  8
0
 10
41.98994827270508
 20
68.15251159667969
 30
136.0
 11
41.33344650268555
 21
69.12491607666016
 31
136.0
 12
40.87804412841797
 22
69.65632629394531
 32
136.0
 13
40.87804412841797
 23
69.65632629394531
 33
136.0
  0
3DFACE
  8
0
 10
40.87804412841797
 20
69.65632629394531
 30
136.0
 11
40.57503128051758
 21
69.97124481201172
 31
136.0
 12
40.02922058105469
 22
70.44164276123047
 32
136.0
 13
40.02922058105469
 23
70.44164276123047
 33
136.0
  0
3DFACE
  8
0
 10
40.02922058105469
 20
70.44164276123047
 30
136.0
 11
39.8155632019043
 21
70.60678100585938
 31
136.0
 12
39.38032150268555
 22
70.88397216796875
 32
136.0
 13
39.38032150268555
 23
70.88397216796875
 33
136.0
  0
3DFACE
  8
0
 10
39.38032150268555
 20
70.88397216796875
 30
136.0
 11
39.048519134521484
 21
71.08808135986328
 31
136.0
 12
38.77634048461914
 22
71.2242660522461
 32
136.0
 13
38.77634048461914
 23
71.2242660522461
 33
136.0
  0
3DFACE
  8
0
 10
38.77634048461914
 20
71.2242660522461
 30
136.0
 11
38.432884216308594
 21
71.38406372070312
 31
136.0
 12
38.275455474853516
 22
71.44673156738281
 32
136.0
 13
38.275455474853516
 23
71.44673156738281
 33
136.0
  0
3DFACE
  8
0
 10
38.1370849609375
 20
71.48986053466797
 30
136.0
 11
37.49892044067383
 21
71.73440551757812
 31
136.0
 12
36.71776580810547
 22
71.9282455444336
 32
136.0
 13
36.71776580810547
 23
71.9282455444336
 33
136.0
  0
3DFACE
  8
0
 10
38.77634048461914
 20
71.2242660522461
 30
136.0
 11
38.275455474853516
 21
71.44673156738281
 31
136.0
 12
38.1370849609375
 22
71.48986053466797
 32
136.0
 13
38.1370849609375
 23
71.48986053466797
 33
136.0
  0
3DFACE
  8
0
 10
40.02922058105469
 20
70.44164276123047
 30
136.0
 11
39.38032150268555
 21
70.88397216796875
 31
136.0
 12
38.77634048461914
 22
71.2242660522461
 32
136.0
 13
38.77634048461914
 23
71.2242660522461
 33
136.0
  0
3DFACE
  8
0
 10
41.98994827270508
 20
68.15251159667969
 30
136.0
 11
40.87804412841797
 21
69.65632629394531
 31
136.0
 12
40.02922058105469
 22
70.44164276123047
 32
136.0
 13
40.02922058105469
 23
70.44164276123047
 33
136.0
  0
3DFACE
  8
0
 10
43.4171028137207
 20
62.6905403137207
 30
136.0
 11
42.844444274902344
 21
66.30200958251953
 31
136.0
 12
41.98994827270508
 22
68.15251159667969
 32
136.0
 13
41.98994827270508
 23
68.15251159667969
 33
136.0
  0
3DFACE
  8
0
 10
42.55428695678711
 20
58.61732482910156
 30
136.0
 11
42.970252990722656
 21
59.732086181640625
 31
136.0
 12
43.4171028137207
 22
62.6905403137207
 32
136.0
 13
43.4171028137207
 23
62.6905403137207
 33
136.0
  0
3DFACE
  8
0
 10
41.45680236816406
 20
56.851985931396484
 30
136.0
 11
41.91865158081055
 21
57.49211502075195
 31
136.0
 12
42.55428695678711
 22
58.61732482910156
 32
136.0
 13
42.55428695678711
 23
58.61732482910156
 33
136.0
  0
3DFACE
  8
0
 10
40.965755462646484
 20
56.26864242553711
 30
136.0
 11
41.018497467041016
 21
56.32481002807617
 31
136.0
 12
41.45680236816406
 22
56.851985931396484
 32
136.0
 13
41.45680236816406
 23
56.851985931396484
 33
136.0
  0
3DFACE
  8
0
 10
39.75286102294922
 20
55.10287857055664
 30
136.0
 11
40.41915512084961
 21
55.70798873901367
 31
136.0
 12
40.965755462646484
 22
56.26864242553711
 32
136.0
 13
40.965755462646484
 23
56.26864242553711
 33
136.0
  0
3DFACE
  8
0
 10
38.52183151245117
 20
54.19865036010742
 30
136.0
 11
39.027034759521484
 21
54.54500961303711
 31
136.0
 12
39.211395263671875
 22
54.694400787353516
 32
136.0
 13
39.211395263671875
 23
54.694400787353516
 33
136.0
  0
3DFACE
  8
0
 10
39.211395263671875
 20
54.694400787353516
 30
136.0
 11
39.75286102294922
 21
55.10287857055664
 31
136.0
 12
40.965755462646484
 22
56.26864242553711
 32
136.0
 13
40.965755462646484
 23
56.26864242553711
 33
136.0
  0
3DFACE
  8
0
 10
40.965755462646484
 20
56.26864242553711
 30
136.0
 11
41.45680236816406
 21
56.851985931396484
 31
136.0
 12
42.55428695678711
 22
58.61732482910156
 32
136.0
 13
42.55428695678711
 23
58.61732482910156
 33
136.0
  0
3DFACE
  8
0
 10
42.55428695678711
 20
58.61732482910156
 30
136.0
 11
43.4171028137207
 21
62.6905403137207
 31
136.0
 12
41.98994827270508
 22
68.15251159667969
 32
136.0
 13
41.98994827270508
 23
68.15251159667969
 33
136.0
  0
3DFACE
  8
0
 10
41.98994827270508
 20
68.15251159667969
 30
136.0
 11
40.02922058105469
 21
70.44164276123047
 31
136.0
 12
38.77634048461914
 22
71.2242660522461
 32
136.0
 13
38.77634048461914
 23
71.2242660522461
 33
136.0
  0
3DFACE
  8
0
 10
38.77634048461914
 20
71.2242660522461
 30
136.0
 11
38.1370849609375
 21
71.48986053466797
 31
136.0
 12
36.71776580810547
 22
71.9282455444336
 32
136.0
 13
36.71776580810547
 23
71.9282455444336
 33
136.0
  0
3DFACE
  8
0
 10
36.648746490478516
 20
71.93585205078125
 30
136.0
 11
35.9327278137207
 21
72.04322814941406
 31
136.0
 12
35.14545440673828
 22
72.11203002929688
 32
136.0
 13
35.14545440673828
 23
72.11203002929688
 33
136.0
  0
3DFACE
  8
0
 10
38.77634048461914
 20
71.2242660522461
 30
136.0
 11
36.71776580810547
 21
71.9282455444336
 31
136.0
 12
36.648746490478516
 22
71.93585205078125
 32
136.0
 13
36.648746490478516
 23
71.93585205078125
 33
136.0
  0
3DFACE
  8
0
 10
42.55428695678711
 20
58.61732482910156
 30
136.0
 11
41.98994827270508
 21
68.15251159667969
 31
136.0
 12
38.77634048461914
 22
71.2242660522461
 32
136.0
 13
38.77634048461914
 23
71.2242660522461
 33
136.0
  0
3DFACE
  8
0
 10
39.211395263671875
 20
54.694400787353516
 30
136.0
 11
40.965755462646484
 21
56.26864242553711
 31
136.0
 12
42.55428695678711
 22
58.61732482910156
 32
136.0
 13
42.55428695678711
 23
58.61732482910156
 33
136.0
  0
3DFACE
  8
0
 10
38.216712951660156
 20
54.03208541870117
 30
136.0
 11
38.52183151245117
 21
54.19865036010742
 31
136.0
 12
39.211395263671875
 22
54.694400787353516
 32
136.0
 13
39.211395263671875
 23
54.694400787353516
 33
136.0
  0
3DFACE
  8
0
 10
37.0345344543457
 20
53.54029846191406
 30
136.0
 11
37.402442932128906
 21
53.663795471191406
 31
136.0
 12
38.216712951660156
 22
54.03208541870117
 32
136.0
 13
38.216712951660156
 23
54.03208541870117
 33
136.0
  0
3DFACE
  8
0
 10
36.41993713378906
 20
53.37961959838867
 30
136.0
 11
36.59916687011719
 21
53.40675735473633
 31
136.0
 12
37.0345344543457
 22
53.54029846191406
 32
136.0
 13
37.0345344543457
 23
53.54029846191406
 33
136.0
  0
3DFACE
  8
0
 10
35.35676193237305
 20
53.20127487182617
 30
136.0
 11
35.80088424682617
 21
53.25166320800781
 31
136.0
 12
36.41993713378906
 22
53.37961959838867
 32
136.0
 13
36.41993713378906
 23
53.37961959838867
 33
136.0
  0
3DFACE
  8
0
 10
34.2117805480957
 20
53.093563079833984
 30
136.0
 11
35.00521469116211
 21
53.14997100830078
 31
136.0
 12
35.35676193237305
 22
53.20127487182617
 32
136.0
 13
35.35676193237305
 23
53.20127487182617
 33
136.0
  0
3DFACE
  8
0
 10
33.42341995239258
 20
53.14047622680664
 30
136.0
 11
34.18442153930664
 21
53.093040466308594
 31
136.0
 12
34.2117805480957
 22
53.093563079833984
 32
136.0
 13
34.2117805480957
 23
53.093563079833984
 33
136.0
  0
3DFACE
  8
0
 10
32.63723373413086
 20
53.23195266723633
 30
136.0
 11
32.845699310302734
 21
53.20283889770508
 31
136.0
 12
33.42341995239258
 22
53.14047622680664
 32
136.0
 13
33.42341995239258
 23
53.14047622680664
 33
136.0
  0
3DFACE
  8
0
 10
31.448060989379883
 20
53.51913070678711
 30
136.0
 11
31.855121612548828
 21
53.40620040893555
 31
136.0
 12
32.443519592285156
 22
53.278377532958984
 32
136.0
 13
32.443519592285156
 23
53.278377532958984
 33
136.0
  0
3DFACE
  8
0
 10
32.443519592285156
 20
53.278377532958984
 30
136.0
 11
32.63723373413086
 21
53.23195266723633
 31
136.0
 12
33.42341995239258
 22
53.14047622680664
 32
136.0
 13
33.42341995239258
 23
53.14047622680664
 33
136.0
  0
3DFACE
  8
0
 10
33.42341995239258
 20
53.14047622680664
 30
136.0
 11
34.2117805480957
 21
53.093563079833984
 31
136.0
 12
35.35676193237305
 22
53.20127487182617
 32
136.0
 13
35.35676193237305
 23
53.20127487182617
 33
136.0
  0
3DFACE
  8
0
 10
35.35676193237305
 20
53.20127487182617
 30
136.0
 11
36.41993713378906
 21
53.37961959838867
 31
136.0
 12
37.0345344543457
 22
53.54029846191406
 32
136.0
 13
37.0345344543457
 23
53.54029846191406
 33
136.0
  0
3DFACE
  8
0
 10
37.0345344543457
 20
53.54029846191406
 30
136.0
 11
38.216712951660156
 21
54.03208541870117
 31
136.0
 12
39.211395263671875
 22
54.694400787353516
 32
136.0
 13
39.211395263671875
 23
54.694400787353516
 33
136.0
  0
3DFACE
  8
0
 10
39.211395263671875
 20
54.694400787353516
 30
136.0
 11
42.55428695678711
 21
58.61732482910156
 31
136.0
 12
38.77634048461914
 22
71.2242660522461
 32
136.0
 13
38.77634048461914
 23
71.2242660522461
 33
136.0
  0
3DFACE
  8
0
 10
38.77634048461914
 20
71.2242660522461
 30
136.0
 11
36.648746490478516
 21
71.93585205078125
 31
136.0
 12
35.14545440673828
 22
72.11203002929688
 32
136.0
 13
35.14545440673828
 23
72.11203002929688
 33
136.0
  0
3DFACE
  8
0
 10
35.14545440673828
 20
72.11203002929688
 30
136.0
 11
35.05401611328125
 21
72.11360168457031
 31
136.0
 12
34.35426712036133
 22
72.09721374511719
 32
136.0
 13
34.35426712036133
 23
72.09721374511719
 33
136.0
  0
3DFACE
  8
0
 10
34.35426712036133
 20
72.09721374511719
 30
136.0
 11
34.35405349731445
 21
72.09720611572266
 31
136.0
 12
34.353675842285156
 22
72.09715270996094
 32
136.0
 13
34.353675842285156
 23
72.09715270996094
 33
136.0
  0
3DFACE
  8
0
 10
34.353675842285156
 20
72.09715270996094
 30
136.0
 11
33.5585823059082
 21
71.99935913085938
 31
136.0
 12
32.760746002197266
 22
71.85340118408203
 32
136.0
 13
32.760746002197266
 23
71.85340118408203
 33
136.0
  0
3DFACE
  8
0
 10
32.61207962036133
 20
71.81038665771484
 30
136.0
 11
32.562068939208984
 21
71.7984619140625
 31
136.0
 12
31.95823097229004
 22
71.61198425292969
 32
136.0
 13
31.95823097229004
 23
71.61198425292969
 33
136.0
  0
3DFACE
  8
0
 10
34.353675842285156
 20
72.09715270996094
 30
136.0
 11
32.760746002197266
 21
71.85340118408203
 31
136.0
 12
32.61207962036133
 22
71.81038665771484
 32
136.0
 13
32.61207962036133
 23
71.81038665771484
 33
136.0
  0
3DFACE
  8
0
 10
35.14545440673828
 20
72.11203002929688
 30
136.0
 11
34.35426712036133
 21
72.09721374511719
 31
136.0
 12
34.353675842285156
 22
72.09715270996094
 32
136.0
 13
34.353675842285156
 23
72.09715270996094
 33
136.0
  0
3DFACE
  8
0
 10
39.211395263671875
 20
54.694400787353516
 30
136.0
 11
38.77634048461914
 21
71.2242660522461
 31
136.0
 12
35.14545440673828
 22
72.11203002929688
 32
136.0
 13
35.14545440673828
 23
72.11203002929688
 33
136.0
  0
3DFACE
  8
0
 10
35.35676193237305
 20
53.20127487182617
 30
136.0
 11
37.0345344543457
 21
53.54029846191406
 31
136.0
 12
39.211395263671875
 22
54.694400787353516
 32
136.0
 13
39.211395263671875
 23
54.694400787353516
 33
136.0
  0
3DFACE
  8
0
 10
32.443519592285156
 20
53.278377532958984
 30
136.0
 11
33.42341995239258
 21
53.14047622680664
 31
136.0
 12
35.35676193237305
 22
53.20127487182617
 32
136.0
 13
35.35676193237305
 23
53.20127487182617
 33
136.0
  0
3DFACE
  8
0
 10
31.076698303222656
 20
53.65549850463867
 30
136.0
 11
31.448060989379883
 21
53.51913070678711
 31
136.0
 12
32.443519592285156
 22
53.278377532958984
 32
136.0
 13
32.443519592285156
 23
53.278377532958984
 33
136.0
  0
3DFACE
  8
0
 10
30.61992645263672
 20
53.867000579833984
 30
136.0
 11
30.899763107299805
 21
53.729366302490234
 31
136.0
 12
31.076698303222656
 22
53.65549850463867
 32
136.0
 13
31.076698303222656
 23
53.65549850463867
 33
136.0
  0
3DFACE
  8
0
 10
29.84928321838379
 20
54.33723831176758
 30
136.0
 11
30.304668426513672
 21
54.03522491455078
 31
136.0
 12
30.61992645263672
 22
53.867000579833984
 32
136.0
 13
30.61992645263672
 23
53.867000579833984
 33
136.0
  0
3DFACE
  8
0
 10
29.403942108154297
 20
54.641632080078125
 30
136.0
 11
29.538585662841797
 21
54.53608703613281
 31
136.0
 12
29.84928321838379
 22
54.33723831176758
 32
136.0
 13
29.84928321838379
 23
54.33723831176758
 33
136.0
  0
3DFACE
  8
0
 10
28.472944259643555
 20
55.48150634765625
 30
136.0
 11
28.778648376464844
 21
55.161930084228516
 31
136.0
 12
29.403942108154297
 22
54.641632080078125
 32
136.0
 13
29.403942108154297
 23
54.641632080078125
 33
136.0
  0
3DFACE
  8
0
 10
27.838029861450195
 20
56.23318099975586
 30
136.0
 11
28.082378387451172
 21
55.915714263916016
 31
136.0
 12
28.472944259643555
 22
55.48150634765625
 32
136.0
 13
28.472944259643555
 23
55.48150634765625
 33
136.0
  0
3DFACE
  8
0
 10
27.796573638916016
 20
56.281646728515625
 30
136.0
 11
27.806991577148438
 21
56.268646240234375
 31
136.0
 12
27.838029861450195
 22
56.23318099975586
 32
136.0
 13
27.838029861450195
 23
56.23318099975586
 33
136.0
  0
3DFACE
  8
0
 10
27.300554275512695
 20
57.055782318115234
 30
136.0
 11
27.305591583251953
 21
57.04695510864258
 31
136.0
 12
27.796573638916016
 22
56.281646728515625
 32
136.0
 13
27.796573638916016
 23
56.281646728515625
 33
136.0
  0
3DFACE
  8
0
 10
26.47059440612793
 20
58.63005828857422
 30
136.0
 11
26.545427322387695
 21
58.449771881103516
 31
136.0
 12
27.295326232910156
 22
57.066383361816406
 32
136.0
 13
27.295326232910156
 23
57.066383361816406
 33
136.0
  0
3DFACE
  8
0
 10
27.295326232910156
 20
57.066383361816406
 30
136.0
 11
27.300554275512695
 21
57.055782318115234
 31
136.0
 12
27.796573638916016
 22
56.281646728515625
 32
136.0
 13
27.796573638916016
 23
56.281646728515625
 33
136.0
  0
3DFACE
  8
0
 10
27.838029861450195
 20
56.23318099975586
 30
136.0
 11
28.472944259643555
 21
55.48150634765625
 31
136.0
 12
29.403942108154297
 22
54.641632080078125
 32
136.0
 13
29.403942108154297
 23
54.641632080078125
 33
136.0
  0
3DFACE
  8
0
 10
27.295326232910156
 20
57.066383361816406
 30
136.0
 11
27.796573638916016
 21
56.281646728515625
 31
136.0
 12
27.838029861450195
 22
56.23318099975586
 32
136.0
 13
27.838029861450195
 23
56.23318099975586
 33
136.0
  0
3DFACE
  8
0
 10
25.97890853881836
 20
59.93149948120117
 30
136.0
 11
26.47059440612793
 21
58.63005828857422
 31
136.0
 12
27.295326232910156
 22
57.066383361816406
 32
136.0
 13
27.295326232910156
 23
57.066383361816406
 33
136.0
  0
3DFACE
  8
0
 10
25.749670028686523
 20
60.744712829589844
 30
136.0
 11
25.787395477294922
 21
60.55025100708008
 31
136.0
 12
25.876047134399414
 22
60.28587341308594
 32
136.0
 13
25.876047134399414
 23
60.28587341308594
 33
136.0
  0
3DFACE
  8
0
 10
25.876047134399414
 20
60.28587341308594
 30
136.0
 11
25.97890853881836
 21
59.93149948120117
 31
136.0
 12
27.295326232910156
 22
57.066383361816406
 32
136.0
 13
27.295326232910156
 23
57.066383361816406
 33
136.0
  0
3DFACE
  8
0
 10
27.295326232910156
 20
57.066383361816406
 30
136.0
 11
27.838029861450195
 21
56.23318099975586
 31
136.0
 12
29.403942108154297
 22
54.641632080078125
 32
136.0
 13
29.403942108154297
 23
54.641632080078125
 33
136.0
  0
3DFACE
  8
0
 10
29.403942108154297
 20
54.641632080078125
 30
136.0
 11
29.84928321838379
 21
54.33723831176758
 31
136.0
 12
30.61992645263672
 22
53.867000579833984
 32
136.0
 13
30.61992645263672
 23
53.867000579833984
 33
136.0
  0
3DFACE
  8
0
 10
30.61992645263672
 20
53.867000579833984
 30
136.0
 11
31.076698303222656
 21
53.65549850463867
 31
136.0
 12
32.443519592285156
 22
53.278377532958984
 32
136.0
 13
32.443519592285156
 23
53.278377532958984
 33
136.0
  0
3DFACE
  8
0
 10
32.443519592285156
 20
53.278377532958984
 30
136.0
 11
35.35676193237305
 21
53.20127487182617
 31
136.0
 12
39.211395263671875
 22
54.694400787353516
 32
136.0
 13
39.211395263671875
 23
54.694400787353516
 33
136.0
  0
3DFACE
  8
0
 10
39.211395263671875
 20
54.694400787353516
 30
136.0
 11
35.14545440673828
 21
72.11203002929688
 31
136.0
 12
34.353675842285156
 22
72.09715270996094
 32
136.0
 13
34.353675842285156
 23
72.09715270996094
 33
136.0
  0
3DFACE
  8
0
 10
34.353675842285156
 20
72.09715270996094
 30
136.0
 11
32.61207962036133
 21
71.81038665771484
 31
136.0
 12
31.95823097229004
 22
71.61198425292969
 32
136.0
 13
31.95823097229004
 23
71.61198425292969
 33
136.0
  0
3DFACE
  8
0
 10
31.95823097229004
 20
71.61198425292969
 30
136.0
 11
31.246826171875
 21
71.31572723388672
 31
136.0
 12
31.144224166870117
 22
71.2665786743164
 32
136.0
 13
31.144224166870117
 23
71.2665786743164
 33
136.0
  0
3DFACE
  8
0
 10
31.144224166870117
 20
71.2665786743164
 30
136.0
 11
30.34266471862793
 21
70.79264831542969
 31
136.0
 12
29.85112953186035
 22
70.41634368896484
 32
136.0
 13
29.85112953186035
 23
70.41634368896484
 33
136.0
  0
3DFACE
  8
0
 10
29.85112953186035
 20
70.41634368896484
 30
136.0
 11
29.570581436157227
 21
70.21783447265625
 31
136.0
 12
28.965585708618164
 22
69.73832702636719
 32
136.0
 13
28.965585708618164
 23
69.73832702636719
 33
136.0
  0
3DFACE
  8
0
 10
28.96236228942871
 20
69.72689819335938
 30
136.0
 11
28.58701515197754
 21
69.36990356445312
 31
136.0
 12
28.398862838745117
 22
69.18108367919922
 32
136.0
 13
28.398862838745117
 23
69.18108367919922
 33
136.0
  0
3DFACE
  8
0
 10
29.85112953186035
 20
70.41634368896484
 30
136.0
 11
28.965585708618164
 21
69.73832702636719
 31
136.0
 12
28.96236228942871
 22
69.72689819335938
 32
136.0
 13
28.96236228942871
 23
69.72689819335938
 33
136.0
  0
3DFACE
  8
0
 10
31.95823097229004
 20
71.61198425292969
 30
136.0
 11
31.144224166870117
 21
71.2665786743164
 31
136.0
 12
29.85112953186035
 22
70.41634368896484
 32
136.0
 13
29.85112953186035
 23
70.41634368896484
 33
136.0
  0
3DFACE
  8
0
 10
39.211395263671875
 20
54.694400787353516
 30
136.0
 11
34.353675842285156
 21
72.09715270996094
 31
136.0
 12
31.95823097229004
 22
71.61198425292969
 32
136.0
 13
31.95823097229004
 23
71.61198425292969
 33
136.0
  0
3DFACE
  8
0
 10
30.61992645263672
 20
53.867000579833984
 30
136.0
 11
32.443519592285156
 21
53.278377532958984
 31
136.0
 12
39.211395263671875
 22
54.694400787353516
 32
136.0
 13
39.211395263671875
 23
54.694400787353516
 33
136.0
  0
3DFACE
  8
0
 10
27.295326232910156
 20
57.066383361816406
 30
136.0
 11
29.403942108154297
 21
54.641632080078125
 31
136.0
 12
30.61992645263672
 22
53.867000579833984
 32
136.0
 13
30.61992645263672
 23
53.867000579833984
 33
136.0
  0
3DFACE
  8
0
 10
25.749670028686523
 20
60.744712829589844
 30
136.0
 11
25.876047134399414
 21
60.28587341308594
 31
136.0
 12
27.295326232910156
 22
57.066383361816406
 32
136.0
 13
27.295326232910156
 23
57.066383361816406
 33
136.0
  0
3DFACE
  8
0
 10
25.572145462036133
 20
61.92515182495117
 30
136.0
 11
25.633342742919922
 21
61.26178741455078
 31
136.0
 12
25.749670028686523
 22
60.744712829589844
 32
136.0
 13
25.749670028686523
 23
60.744712829589844
 33
136.0
  0
3DFACE
  8
0
 10
25.54629898071289
 20
62.58164978027344
 30
136.0
 11
25.54631805419922
 21
62.57444381713867
 31
136.0
 12
25.572145462036133
 22
61.92515182495117
 32
136.0
 13
25.572145462036133
 23
61.92515182495117
 33
136.0
  0
3DFACE
  8
0
 10
25.654991149902344
 20
63.79059600830078
 30
136.0
 11
25.579811096191406
 21
63.226688385009766
 31
136.0
 12
25.54629898071289
 22
62.58164978027344
 32
136.0
 13
25.54629898071289
 23
62.58164978027344
 33
136.0
  0
3DFACE
  8
0
 10
25.797327041625977
 20
64.50440216064453
 30
136.0
 11
25.678462982177734
 21
63.918304443359375
 31
136.0
 12
25.654991149902344
 22
63.79059600830078
 32
136.0
 13
25.654991149902344
 23
63.79059600830078
 33
136.0
  0
3DFACE
  8
0
 10
25.966962814331055
 20
65.16349792480469
 30
136.0
 11
25.924060821533203
 21
65.03608703613281
 31
136.0
 12
25.797327041625977
 22
64.50440216064453
 32
136.0
 13
25.797327041625977
 23
64.50440216064453
 33
136.0
  0
3DFACE
  8
0
 10
26.258771896362305
 20
65.91938018798828
 30
136.0
 11
26.126413345336914
 21
65.59064483642578
 31
136.0
 12
25.966962814331055
 22
65.16349792480469
 32
136.0
 13
25.966962814331055
 23
65.16349792480469
 33
136.0
  0
3DFACE
  8
0
 10
26.717147827148438
 20
66.9157485961914
 30
136.0
 11
26.35439109802246
 21
66.17047119140625
 31
136.0
 12
26.258771896362305
 22
65.91938018798828
 32
136.0
 13
26.258771896362305
 23
65.91938018798828
 33
136.0
  0
3DFACE
  8
0
 10
26.93903923034668
 20
67.28901672363281
 30
136.0
 11
26.87515640258789
 21
67.1904067993164
 31
136.0
 12
26.717147827148438
 22
66.9157485961914
 32
136.0
 13
26.717147827148438
 23
66.9157485961914
 33
136.0
  0
3DFACE
  8
0
 10
27.427581787109375
 20
68.07571411132812
 30
136.0
 11
27.058483123779297
 21
67.50165557861328
 31
136.0
 12
26.93903923034668
 22
67.28901672363281
 32
136.0
 13
26.93903923034668
 23
67.28901672363281
 33
136.0
  0
3DFACE
  8
0
 10
27.85533332824707
 20
68.591796875
 30
136.0
 11
27.43159294128418
 21
68.08126831054688
 31
136.0
 12
27.427581787109375
 22
68.07571411132812
 32
136.0
 13
27.427581787109375
 23
68.07571411132812
 33
136.0
  0
3DFACE
  8
0
 10
28.96236228942871
 20
69.72689819335938
 30
136.0
 11
28.398862838745117
 21
69.18108367919922
 31
136.0
 12
27.85533332824707
 22
68.591796875
 32
136.0
 13
27.85533332824707
 23
68.591796875
 33
136.0
  0
3DFACE
  8
0
 10
31.95823097229004
 20
71.61198425292969
 30
136.0
 11
29.85112953186035
 21
70.41634368896484
 31
136.0
 12
28.96236228942871
 22
69.72689819335938
 32
136.0
 13
28.96236228942871
 23
69.72689819335938
 33
136.0
  0
3DFACE
  8
0
 10
30.61992645263672
 20
53.867000579833984
 30
136.0
 11
39.211395263671875
 21
54.694400787353516
 31
136.0
 12
31.95823097229004
 22
71.61198425292969
 32
136.0
 13
31.95823097229004
 23
71.61198425292969
 33
136.0
  0
3DFACE
  8
0
 10
25.749670028686523
 20
60.744712829589844
 30
136.0
 11
27.295326232910156
 21
57.066383361816406
 31
136.0
 12
30.61992645263672
 22
53.867000579833984
 32
136.0
 13
30.61992645263672
 23
53.867000579833984
 33
136.0
  0
3DFACE
  8
0
 10
25.54629898071289
 20
62.58164978027344
 30
136.0
 11
25.572145462036133
 21
61.92515182495117
 31
136.0
 12
25.749670028686523
 22
60.744712829589844
 32
136.0
 13
25.749670028686523
 23
60.744712829589844
 33
136.0
  0
3DFACE
  8
0
 10
25.797327041625977
 20
64.50440216064453
 30
136.0
 11
25.654991149902344
 21
63.79059600830078
 31
136.0
 12
25.54629898071289
 22
62.58164978027344
 32
136.0
 13
25.54629898071289
 23
62.58164978027344
 33
136.0
  0
3DFACE
  8
0
 10
26.258771896362305
 20
65.91938018798828
 30
136.0
 11
25.966962814331055
 21
65.16349792480469
 31
136.0
 12
25.797327041625977
 22
64.50440216064453
 32
136.0
 13
25.797327041625977
 23
64.50440216064453
 33
136.0
  0
3DFACE
  8
0
 10
26.93903923034668
 20
67.28901672363281
 30
136.0
 11
26.717147827148438
 21
66.9157485961914
 31
136.0
 12
26.258771896362305
 22
65.91938018798828
 32
136.0
 13
26.258771896362305
 23
65.91938018798828
 33
136.0
  0
3DFACE
  8
0
 10
27.85533332824707
 20
68.591796875
 30
136.0
 11
27.427581787109375
 21
68.07571411132812
 31
136.0
 12
26.93903923034668
 22
67.28901672363281
 32
136.0
 13
26.93903923034668
 23
67.28901672363281
 33
136.0
  0
3DFACE
  8
0
 10
31.95823097229004
 20
71.61198425292969
 30
136.0
 11
28.96236228942871
 21
69.72689819335938
 31
136.0
 12
27.85533332824707
 22
68.591796875
 32
136.0
 13
27.85533332824707
 23
68.591796875
 33
136.0
  0
3DFACE
  8
0
 10
25.749670028686523
 20
60.744712829589844
 30
136.0
 11
30.61992645263672
 21
53.867000579833984
 31
136.0
 12
31.95823097229004
 22
71.61198425292969
 32
136.0
 13
31.95823097229004
 23
71.61198425292969
 33
136.0
  0
3DFACE
  8
0
 10
25.797327041625977
 20
64.50440216064453
 30
136.0
 11
25.54629898071289
 21
62.58164978027344
 31
136.0
 12
25.749670028686523
 22
60.744712829589844
 32
136.0
 13
25.749670028686523
 23
60.744712829589844
 33
136.0
  0
3DFACE
  8
0
 10
26.93903923034668
 20
67.28901672363281
 30
136.0
 11
26.258771896362305
 21
65.91938018798828
 31
136.0
 12
25.797327041625977
 22
64.50440216064453
 32
136.0
 13
25.797327041625977
 23
64.50440216064453
 33
136.0
  0
3DFACE
  8
0
 10
31.95823097229004
 20
71.61198425292969
 30
136.0
 11
27.85533332824707
 21
68.591796875
 31
136.0
 12
26.93903923034668
 22
67.28901672363281
 32
136.0
 13
26.93903923034668
 23
67.28901672363281
 33
136.0
  0
3DFACE
  8
0
 10
25.797327041625977
 20
64.50440216064453
 30
136.0
 11
25.749670028686523
 21
60.744712829589844
 31
136.0
 12
31.95823097229004
 22
71.61198425292969
 32
136.0
 13
31.95823097229004
 23
71.61198425292969
 33
136.0
  0
3DFACE
  8
0
 10
31.95823097229004
 20
71.61198425292969
 30
136.0
 11
26.93903923034668
 21
67.28901672363281
 31
136.0
 12
25.797327041625977
 22
64.50440216064453
 32
136.0
 13
25.797327041625977
 23
64.50440216064453
 33
136.0
  0
ENDSEC
  0
EOF
