  0
SECTION
  2
HEADER
  9
$ACADVER
  1
AC1009
  9
$INSBASE
 10
0.0
 20
0.0
 30
0.0
  9
$EXTMIN
 10
0.0
 20
0.0
 30
0.0
  9
$EXTMAX
 10
0.0
 20
0.0
 30
0.0
  0
ENDSEC
  0
SECTION
  2
TABLES
  0
TABLE
  2
VPORT
 70
1
  0
VPORT
  2
*ACTIVE
 70
0
 10
0.0
 20
0.0
 11
1.0
 21
1.0
 12
-5.0
 22
1.0
 13
0.0
 23
0.0
 14
0.1
 24
0.1
 15
0.1
 25
0.1
 16
0.0
 26
0.0
 36
1.0
 17
0.0
 27
0.0
 37
0.0
 40
10.0
 41
1.0
 42
50.0
 43
0.0
 44
0.0
 50
0.0
 51
0.0
 71
0
 72
100
 73
1
 74
1
 75
0
 76
0
 77
0
 78
0
  0
ENDTAB
  0
TABLE
  2
LTYPE
 70
8
  0
LTYPE
  2
CONTINUOUS
 70
0
  3
Solid line
 72
65
 73
0
 40
0.0
  0
LTYPE
  2
DOT
 70
0
  3
. . . . . . .
 72
65
 73
2
 40
0.25
 49
0.0
 49
-0.25
  0
LTYPE
  2
DASHED
 70
0
  3
__ __ __ __ __
 72
65
 73
2
 40
0.8
 49
0.5
 49
-0.3
  0
LTYPE
  2
DASHDOT
 70
0
  3
__ . __ . __ .
 72
65
 73
4
 40
1.0
 49
0.5
 49
-0.25
 49
0.0
 49
-0.25
  0
LTYPE
  2
DIVIDE
 70
0
  3
____ . . ____ . . 
 72
65
 73
6
 40
1.25
 49
0.5
 49
-0.25
 49
0.0
 49
-0.25
 49
0.0
 49
-0.25
  0
LTYPE
  2
BORDER
 70
0
  3
__ __ . __ __ . 
 72
65
 73
6
 40
1.75
 49
0.5
 49
-0.25
 49
0.5
 49
-0.25
 49
0.0
 49
-0.25
  0
LTYPE
  2
HIDDEN
 70
0
  3
__ __ __ __ __
 72
65
 73
2
 40
0.4
 49
0.25
 49
-0.25
  0
LTYPE
  2
CENTER
 70
0
  3
____ _ ____ _ __
 72
65
 73
4
 40
2.0
 49
1.25
 49
-0.25
 49
0.25
 49
-0.25
  0
ENDTAB
  0
TABLE
  2
LAYER
 70
1
  0
LAYER
  2
PYDXF
 70
64
 62
7
  6
continuous
  0
ENDTAB
  0
TABLE
  2
STYLE
 70
1
  0
STYLE
  2
STANDARD
 70
0
 40
0
 41
1.0
 50
0.0
 71
0
 42
1
 3
ARIAL.TTF
 4

  0
ENDTAB
  0
TABLE
  2
VIEW
 70
1
  0
VIEW
  2
BF_TOPVIEW
 70
0
 40
120.0
 10
0.0
 20
0.0
 41
200.0
 11
0.0
 21
0.0
 31
1.0
 12
0.0
 22
0.0
 32
0.0
 42
50.0
 43
0.0
 44
0.0
 50
0.0
 71
0
  0
ENDTAB
  0
ENDSEC
  0
SECTION
  2
BLOCKS
  0
ENDSEC
  0
SECTION
  2
ENTITIES
  0
3DFACE
  8
0
 10
-31.819997787475586
 20
-66.27925872802734
 30
138.0
 11
-30.629182815551758
 21
-67.29670715332031
 31
138.0
 12
-30.55175018310547
 22
-67.34440612792969
 32
138.0
 13
-30.55175018310547
 23
-67.34440612792969
 33
138.0
  0
3DFACE
  8
0
 10
-30.55175018310547
 20
-67.34440612792969
 30
138.0
 11
-29.846681594848633
 21
-67.73197937011719
 31
138.0
 12
-29.139488220214844
 22
-68.05171966552734
 32
138.0
 13
-29.139488220214844
 23
-68.05171966552734
 33
138.0
  0
3DFACE
  8
0
 10
-29.139488220214844
 20
-68.05171966552734
 30
138.0
 11
-28.970800399780273
 21
-68.11717224121094
 31
138.0
 12
-28.281675338745117
 22
-68.32084655761719
 32
138.0
 13
-28.281675338745117
 23
-68.32084655761719
 33
138.0
  0
3DFACE
  8
0
 10
-28.281675338745117
 20
-68.32084655761719
 30
138.0
 11
-27.499174118041992
 21
-68.51611328125
 31
138.0
 12
-27.172727584838867
 22
-68.58223724365234
 32
138.0
 13
-27.172727584838867
 23
-68.58223724365234
 33
138.0
  0
3DFACE
  8
0
 10
-27.172727584838867
 20
-68.58223724365234
 30
138.0
 11
-26.51542091369629
 21
-68.68826293945312
 31
138.0
 12
-25.934167861938477
 22
-68.7237319946289
 32
138.0
 13
-25.934167861938477
 23
-68.7237319946289
 33
138.0
  0
3DFACE
  8
0
 10
-25.71176528930664
 20
-68.7164535522461
 30
138.0
 11
-25.151662826538086
 21
-68.71028137207031
 31
138.0
 12
-24.883512496948242
 22
-68.69116973876953
 32
138.0
 13
-24.883512496948242
 23
-68.69116973876953
 33
138.0
  0
3DFACE
  8
0
 10
-27.172727584838867
 20
-68.58223724365234
 30
138.0
 11
-25.934167861938477
 21
-68.7237319946289
 31
138.0
 12
-25.71176528930664
 22
-68.7164535522461
 32
138.0
 13
-25.71176528930664
 23
-68.7164535522461
 33
138.0
  0
3DFACE
  8
0
 10
-29.139488220214844
 20
-68.05171966552734
 30
138.0
 11
-28.281675338745117
 21
-68.32084655761719
 31
138.0
 12
-27.172727584838867
 22
-68.58223724365234
 32
138.0
 13
-27.172727584838867
 23
-68.58223724365234
 33
138.0
  0
3DFACE
  8
0
 10
-31.819997787475586
 20
-66.27925872802734
 30
138.0
 11
-30.55175018310547
 21
-67.34440612792969
 31
138.0
 12
-29.139488220214844
 22
-68.05171966552734
 32
138.0
 13
-29.139488220214844
 23
-68.05171966552734
 33
138.0
  0
3DFACE
  8
0
 10
-32.243656158447266
 20
-65.7833251953125
 30
138.0
 11
-32.194190979003906
 21
-65.85331726074219
 31
138.0
 12
-31.819997787475586
 22
-66.27925872802734
 32
138.0
 13
-31.819997787475586
 23
-66.27925872802734
 33
138.0
  0
3DFACE
  8
0
 10
-32.84585189819336
 20
-64.67366027832031
 30
138.0
 11
-32.42365264892578
 21
-65.48381805419922
 31
138.0
 12
-32.243656158447266
 22
-65.7833251953125
 32
138.0
 13
-32.243656158447266
 23
-65.7833251953125
 33
138.0
  0
3DFACE
  8
0
 10
-33.18726348876953
 20
-63.73276901245117
 30
138.0
 11
-33.03596496582031
 21
-64.21832275390625
 31
138.0
 12
-32.84585189819336
 22
-64.67366027832031
 32
138.0
 13
-32.84585189819336
 23
-64.67366027832031
 33
138.0
  0
3DFACE
  8
0
 10
-33.37094497680664
 20
-63.02444076538086
 30
138.0
 11
-33.35494613647461
 21
-63.11212158203125
 31
138.0
 12
-33.18726348876953
 22
-63.73276901245117
 32
138.0
 13
-33.18726348876953
 23
-63.73276901245117
 33
138.0
  0
3DFACE
  8
0
 10
-33.512420654296875
 20
-62.329612731933594
 30
138.0
 11
-33.49302291870117
 21
-62.44762420654297
 31
138.0
 12
-33.37094497680664
 22
-63.02444076538086
 32
138.0
 13
-33.37094497680664
 23
-63.02444076538086
 33
138.0
  0
3DFACE
  8
0
 10
-33.615333557128906
 20
-61.36725616455078
 30
138.0
 11
-33.56914138793945
 21
-61.89215850830078
 31
138.0
 12
-33.512420654296875
 22
-62.329612731933594
 32
138.0
 13
-33.512420654296875
 23
-62.329612731933594
 33
138.0
  0
3DFACE
  8
0
 10
-33.646114349365234
 20
-60.58745574951172
 30
138.0
 11
-33.651268005371094
 21
-61.088314056396484
 31
138.0
 12
-33.615333557128906
 22
-61.36725616455078
 32
138.0
 13
-33.615333557128906
 23
-61.36725616455078
 33
138.0
  0
3DFACE
  8
0
 10
-33.64259719848633
 20
-60.024166107177734
 30
138.0
 11
-33.64896774291992
 21
-60.16837692260742
 31
138.0
 12
-33.646114349365234
 22
-60.58745574951172
 32
138.0
 13
-33.646114349365234
 23
-60.58745574951172
 33
138.0
  0
3DFACE
  8
0
 10
-33.528907775878906
 20
-59.06450271606445
 30
138.0
 11
-33.63246536254883
 21
-59.5233039855957
 31
138.0
 12
-33.64259719848633
 22
-60.024166107177734
 32
138.0
 13
-33.64259719848633
 23
-60.024166107177734
 33
138.0
  0
3DFACE
  8
0
 10
-33.306968688964844
 20
-57.95829391479492
 30
138.0
 11
-33.49131774902344
 21
-58.74080276489258
 31
138.0
 12
-33.528907775878906
 22
-59.06450271606445
 32
138.0
 13
-33.528907775878906
 23
-59.06450271606445
 33
138.0
  0
3DFACE
  8
0
 10
-33.03324890136719
 20
-57.17580032348633
 30
138.0
 11
-33.173580169677734
 21
-57.55199432373047
 31
138.0
 12
-33.306968688964844
 22
-57.95829391479492
 32
138.0
 13
-33.306968688964844
 23
-57.95829391479492
 33
138.0
  0
3DFACE
  8
0
 10
-32.956295013427734
 20
-57.00898742675781
 30
138.0
 11
-33.03324890136719
 21
-57.17580032348633
 31
138.0
 12
-33.306968688964844
 22
-57.95829391479492
 32
138.0
 13
-33.306968688964844
 23
-57.95829391479492
 33
138.0
  0
3DFACE
  8
0
 10
-33.306968688964844
 20
-57.95829391479492
 30
138.0
 11
-33.528907775878906
 21
-59.06450271606445
 31
138.0
 12
-33.64259719848633
 22
-60.024166107177734
 32
138.0
 13
-33.64259719848633
 23
-60.024166107177734
 33
138.0
  0
3DFACE
  8
0
 10
-33.64259719848633
 20
-60.024166107177734
 30
138.0
 11
-33.646114349365234
 21
-60.58745574951172
 31
138.0
 12
-33.615333557128906
 22
-61.36725616455078
 32
138.0
 13
-33.615333557128906
 23
-61.36725616455078
 33
138.0
  0
3DFACE
  8
0
 10
-33.615333557128906
 20
-61.36725616455078
 30
138.0
 11
-33.512420654296875
 21
-62.329612731933594
 31
138.0
 12
-33.37094497680664
 22
-63.02444076538086
 32
138.0
 13
-33.37094497680664
 23
-63.02444076538086
 33
138.0
  0
3DFACE
  8
0
 10
-33.37094497680664
 20
-63.02444076538086
 30
138.0
 11
-33.18726348876953
 21
-63.73276901245117
 31
138.0
 12
-32.84585189819336
 22
-64.67366027832031
 32
138.0
 13
-32.84585189819336
 23
-64.67366027832031
 33
138.0
  0
3DFACE
  8
0
 10
-32.84585189819336
 20
-64.67366027832031
 30
138.0
 11
-32.243656158447266
 21
-65.7833251953125
 31
138.0
 12
-31.819997787475586
 22
-66.27925872802734
 32
138.0
 13
-31.819997787475586
 23
-66.27925872802734
 33
138.0
  0
3DFACE
  8
0
 10
-31.819997787475586
 20
-66.27925872802734
 30
138.0
 11
-29.139488220214844
 21
-68.05171966552734
 31
138.0
 12
-27.172727584838867
 22
-68.58223724365234
 32
138.0
 13
-27.172727584838867
 23
-68.58223724365234
 33
138.0
  0
3DFACE
  8
0
 10
-27.172727584838867
 20
-68.58223724365234
 30
138.0
 11
-25.71176528930664
 21
-68.7164535522461
 31
138.0
 12
-24.883512496948242
 22
-68.69116973876953
 32
138.0
 13
-24.883512496948242
 23
-68.69116973876953
 33
138.0
  0
3DFACE
  8
0
 10
-24.883512496948242
 20
-68.69116973876953
 30
138.0
 11
-24.369165420532227
 21
-68.66647338867188
 31
138.0
 12
-23.933942794799805
 22
-68.54948425292969
 32
138.0
 13
-23.933942794799805
 23
-68.54948425292969
 33
138.0
  0
3DFACE
  8
0
 10
-23.933942794799805
 20
-68.54948425292969
 30
138.0
 11
-23.57834815979004
 21
-68.48657989501953
 31
138.0
 12
-23.119691848754883
 22
-68.36248016357422
 32
138.0
 13
-23.119691848754883
 23
-68.36248016357422
 33
138.0
  0
3DFACE
  8
0
 10
-23.119691848754883
 20
-68.36248016357422
 30
138.0
 11
-22.804155349731445
 21
-68.29420471191406
 31
138.0
 12
-22.43294334411621
 22
-68.13831329345703
 32
138.0
 13
-22.43294334411621
 23
-68.13831329345703
 33
138.0
  0
3DFACE
  8
0
 10
-22.43294334411621
 20
-68.13831329345703
 30
138.0
 11
-21.980751037597656
 21
-67.9682388305664
 31
138.0
 12
-21.680978775024414
 22
-67.81707000732422
 32
138.0
 13
-21.680978775024414
 23
-67.81707000732422
 33
138.0
  0
3DFACE
  8
0
 10
-21.680978775024414
 20
-67.81707000732422
 30
138.0
 11
-21.278770446777344
 21
-67.63365173339844
 31
138.0
 12
-21.06296157836914
 22
-67.49864959716797
 32
138.0
 13
-21.06296157836914
 23
-67.49864959716797
 33
138.0
  0
3DFACE
  8
0
 10
-21.06296157836914
 20
-67.49864959716797
 30
138.0
 11
-20.456647872924805
 21
-67.18791198730469
 31
138.0
 12
-19.9039306640625
 22
-66.77749633789062
 32
138.0
 13
-19.9039306640625
 23
-66.77749633789062
 33
138.0
  0
3DFACE
  8
0
 10
-19.9039306640625
 20
-66.77749633789062
 30
138.0
 11
-19.580230712890625
 21
-66.55772399902344
 31
138.0
 12
-19.254968643188477
 22
-66.28475189208984
 32
138.0
 13
-19.254968643188477
 23
-66.28475189208984
 33
138.0
  0
3DFACE
  8
0
 10
-19.254968643188477
 20
-66.28475189208984
 30
138.0
 11
-18.90097427368164
 21
-65.99800109863281
 31
138.0
 12
-18.564361572265625
 22
-65.67481231689453
 32
138.0
 13
-18.564361572265625
 23
-65.67481231689453
 33
138.0
  0
3DFACE
  8
0
 10
-18.564361572265625
 20
-65.67481231689453
 30
138.0
 11
-18.11400604248047
 21
-65.21708679199219
 31
138.0
 12
-17.924531936645508
 22
-64.9902572631836
 32
138.0
 13
-17.924531936645508
 23
-64.9902572631836
 33
138.0
  0
3DFACE
  8
0
 10
-17.924531936645508
 20
-64.9902572631836
 30
138.0
 11
-17.5924129486084
 21
-64.5507583618164
 31
138.0
 12
-17.279268264770508
 22
-64.09195709228516
 32
138.0
 13
-17.279268264770508
 23
-64.09195709228516
 33
138.0
  0
3DFACE
  8
0
 10
-17.279268264770508
 20
-64.09195709228516
 30
138.0
 11
-17.158294677734375
 21
-63.894622802734375
 31
138.0
 12
-16.75111961364746
 22
-63.06074142456055
 32
138.0
 13
-16.75111961364746
 23
-63.06074142456055
 33
138.0
  0
3DFACE
  8
0
 10
-16.75111961364746
 20
-63.06074142456055
 30
138.0
 11
-16.564729690551758
 21
-62.60193634033203
 31
138.0
 12
-16.461124420166016
 22
-62.329612731933594
 32
138.0
 13
-16.461124420166016
 23
-62.329612731933594
 33
138.0
  0
3DFACE
  8
0
 10
-16.461124420166016
 20
-62.329612731933594
 30
138.0
 11
-16.324134826660156
 21
-61.87080764770508
 31
138.0
 12
-16.21478271484375
 22
-61.412010192871094
 32
138.0
 13
-16.21478271484375
 23
-61.412010192871094
 33
138.0
  0
3DFACE
  8
0
 10
-16.21478271484375
 20
-61.412010192871094
 30
138.0
 11
-16.122831344604492
 21
-61.088314056396484
 31
138.0
 12
-16.057374954223633
 22
-60.629512786865234
 32
138.0
 13
-16.057374954223633
 23
-60.629512786865234
 33
138.0
  0
3DFACE
  8
0
 10
-16.057374954223633
 20
-60.629512786865234
 30
138.0
 11
-16.00218391418457
 21
-60.30581283569336
 31
138.0
 12
-15.950041770935059
 22
-59.847007751464844
 32
138.0
 13
-15.950041770935059
 23
-59.847007751464844
 33
138.0
  0
3DFACE
  8
0
 10
-15.950041770935059
 20
-59.847007751464844
 30
138.0
 11
-15.898219108581543
 21
-59.5233039855957
 31
138.0
 12
-15.863160133361816
 22
-59.06450271606445
 32
138.0
 13
-15.863160133361816
 23
-59.06450271606445
 33
138.0
  0
3DFACE
  8
0
 10
-15.863160133361816
 20
-59.06450271606445
 30
138.0
 11
-15.824918746948242
 21
-58.70344924926758
 31
138.0
 12
-15.80547046661377
 22
-58.24464416503906
 32
138.0
 13
-15.80547046661377
 23
-58.24464416503906
 33
138.0
  0
3DFACE
  8
0
 10
-15.80547046661377
 20
-58.24464416503906
 30
138.0
 11
-15.77171516418457
 21
-57.95829391479492
 31
138.0
 12
-15.74687671661377
 22
-57.49949645996094
 32
138.0
 13
-15.74687671661377
 23
-57.49949645996094
 33
138.0
  0
3DFACE
  8
0
 10
-15.746465682983398
 20
-56.54656982421875
 30
138.0
 11
-15.736562728881836
 21
-56.3932991027832
 31
138.0
 12
-15.864047050476074
 22
-55.61998748779297
 32
138.0
 13
-15.864047050476074
 23
-55.61998748779297
 33
138.0
  0
3DFACE
  8
0
 10
-15.80547046661377
 20
-58.24464416503906
 30
138.0
 11
-15.74687671661377
 21
-57.49949645996094
 31
138.0
 12
-15.746465682983398
 22
-56.54656982421875
 32
138.0
 13
-15.746465682983398
 23
-56.54656982421875
 33
138.0
  0
3DFACE
  8
0
 10
-15.950041770935059
 20
-59.847007751464844
 30
138.0
 11
-15.863160133361816
 21
-59.06450271606445
 31
138.0
 12
-15.80547046661377
 22
-58.24464416503906
 32
138.0
 13
-15.80547046661377
 23
-58.24464416503906
 33
138.0
  0
3DFACE
  8
0
 10
-16.21478271484375
 20
-61.412010192871094
 30
138.0
 11
-16.057374954223633
 21
-60.629512786865234
 31
138.0
 12
-15.950041770935059
 22
-59.847007751464844
 32
138.0
 13
-15.950041770935059
 23
-59.847007751464844
 33
138.0
  0
3DFACE
  8
0
 10
-16.75111961364746
 20
-63.06074142456055
 30
138.0
 11
-16.461124420166016
 21
-62.329612731933594
 31
138.0
 12
-16.21478271484375
 22
-61.412010192871094
 32
138.0
 13
-16.21478271484375
 23
-61.412010192871094
 33
138.0
  0
3DFACE
  8
0
 10
-17.924531936645508
 20
-64.9902572631836
 30
138.0
 11
-17.279268264770508
 21
-64.09195709228516
 31
138.0
 12
-16.75111961364746
 22
-63.06074142456055
 32
138.0
 13
-16.75111961364746
 23
-63.06074142456055
 33
138.0
  0
3DFACE
  8
0
 10
-19.254968643188477
 20
-66.28475189208984
 30
138.0
 11
-18.564361572265625
 21
-65.67481231689453
 31
138.0
 12
-17.924531936645508
 22
-64.9902572631836
 32
138.0
 13
-17.924531936645508
 23
-64.9902572631836
 33
138.0
  0
3DFACE
  8
0
 10
-21.06296157836914
 20
-67.49864959716797
 30
138.0
 11
-19.9039306640625
 21
-66.77749633789062
 31
138.0
 12
-19.254968643188477
 22
-66.28475189208984
 32
138.0
 13
-19.254968643188477
 23
-66.28475189208984
 33
138.0
  0
3DFACE
  8
0
 10
-22.43294334411621
 20
-68.13831329345703
 30
138.0
 11
-21.680978775024414
 21
-67.81707000732422
 31
138.0
 12
-21.06296157836914
 22
-67.49864959716797
 32
138.0
 13
-21.06296157836914
 23
-67.49864959716797
 33
138.0
  0
3DFACE
  8
0
 10
-23.933942794799805
 20
-68.54948425292969
 30
138.0
 11
-23.119691848754883
 21
-68.36248016357422
 31
138.0
 12
-22.43294334411621
 22
-68.13831329345703
 32
138.0
 13
-22.43294334411621
 23
-68.13831329345703
 33
138.0
  0
3DFACE
  8
0
 10
-27.172727584838867
 20
-68.58223724365234
 30
138.0
 11
-24.883512496948242
 21
-68.69116973876953
 31
138.0
 12
-23.933942794799805
 22
-68.54948425292969
 32
138.0
 13
-23.933942794799805
 23
-68.54948425292969
 33
138.0
  0
3DFACE
  8
0
 10
-32.84585189819336
 20
-64.67366027832031
 30
138.0
 11
-31.819997787475586
 21
-66.27925872802734
 31
138.0
 12
-27.172727584838867
 22
-68.58223724365234
 32
138.0
 13
-27.172727584838867
 23
-68.58223724365234
 33
138.0
  0
3DFACE
  8
0
 10
-33.615333557128906
 20
-61.36725616455078
 30
138.0
 11
-33.37094497680664
 21
-63.02444076538086
 31
138.0
 12
-32.84585189819336
 22
-64.67366027832031
 32
138.0
 13
-32.84585189819336
 23
-64.67366027832031
 33
138.0
  0
3DFACE
  8
0
 10
-33.306968688964844
 20
-57.95829391479492
 30
138.0
 11
-33.64259719848633
 21
-60.024166107177734
 31
138.0
 12
-33.615333557128906
 22
-61.36725616455078
 32
138.0
 13
-33.615333557128906
 23
-61.36725616455078
 33
138.0
  0
3DFACE
  8
0
 10
-32.86578369140625
 20
-56.79960250854492
 30
138.0
 11
-32.956295013427734
 21
-57.00898742675781
 31
138.0
 12
-33.306968688964844
 22
-57.95829391479492
 32
138.0
 13
-33.306968688964844
 23
-57.95829391479492
 33
138.0
  0
3DFACE
  8
0
 10
-32.49412536621094
 20
-55.93449401855469
 30
138.0
 11
-32.70421600341797
 21
-56.3932991027832
 31
138.0
 12
-32.86578369140625
 22
-56.79960250854492
 32
138.0
 13
-32.86578369140625
 23
-56.79960250854492
 33
138.0
  0
3DFACE
  8
0
 10
-32.16801071166992
 20
-55.28709030151367
 30
138.0
 11
-32.34638214111328
 21
-55.61079025268555
 31
138.0
 12
-32.40608215332031
 22
-55.760040283203125
 32
138.0
 13
-32.40608215332031
 23
-55.760040283203125
 33
138.0
  0
3DFACE
  8
0
 10
-32.40608215332031
 20
-55.760040283203125
 30
138.0
 11
-32.49412536621094
 21
-55.93449401855469
 31
138.0
 12
-32.86578369140625
 22
-56.79960250854492
 32
138.0
 13
-32.86578369140625
 23
-56.79960250854492
 33
138.0
  0
3DFACE
  8
0
 10
-32.86578369140625
 20
-56.79960250854492
 30
138.0
 11
-33.306968688964844
 21
-57.95829391479492
 31
138.0
 12
-33.615333557128906
 22
-61.36725616455078
 32
138.0
 13
-33.615333557128906
 23
-61.36725616455078
 33
138.0
  0
3DFACE
  8
0
 10
-33.615333557128906
 20
-61.36725616455078
 30
138.0
 11
-32.84585189819336
 21
-64.67366027832031
 31
138.0
 12
-27.172727584838867
 22
-68.58223724365234
 32
138.0
 13
-27.172727584838867
 23
-68.58223724365234
 33
138.0
  0
3DFACE
  8
0
 10
-27.172727584838867
 20
-68.58223724365234
 30
138.0
 11
-23.933942794799805
 21
-68.54948425292969
 31
138.0
 12
-22.43294334411621
 22
-68.13831329345703
 32
138.0
 13
-22.43294334411621
 23
-68.13831329345703
 33
138.0
  0
3DFACE
  8
0
 10
-22.43294334411621
 20
-68.13831329345703
 30
138.0
 11
-21.06296157836914
 21
-67.49864959716797
 31
138.0
 12
-19.254968643188477
 22
-66.28475189208984
 32
138.0
 13
-19.254968643188477
 23
-66.28475189208984
 33
138.0
  0
3DFACE
  8
0
 10
-19.254968643188477
 20
-66.28475189208984
 30
138.0
 11
-17.924531936645508
 21
-64.9902572631836
 31
138.0
 12
-16.75111961364746
 22
-63.06074142456055
 32
138.0
 13
-16.75111961364746
 23
-63.06074142456055
 33
138.0
  0
3DFACE
  8
0
 10
-16.75111961364746
 20
-63.06074142456055
 30
138.0
 11
-16.21478271484375
 21
-61.412010192871094
 31
138.0
 12
-15.950041770935059
 22
-59.847007751464844
 32
138.0
 13
-15.950041770935059
 23
-59.847007751464844
 33
138.0
  0
3DFACE
  8
0
 10
-15.950041770935059
 20
-59.847007751464844
 30
138.0
 11
-15.80547046661377
 21
-58.24464416503906
 31
138.0
 12
-15.746465682983398
 22
-56.54656982421875
 32
138.0
 13
-15.746465682983398
 23
-56.54656982421875
 33
138.0
  0
3DFACE
  8
0
 10
-15.746465682983398
 20
-56.54656982421875
 30
138.0
 11
-15.864047050476074
 21
-55.61998748779297
 31
138.0
 12
-15.951179504394531
 22
-55.16118621826172
 32
138.0
 13
-15.951179504394531
 23
-55.16118621826172
 33
138.0
  0
3DFACE
  8
0
 10
-15.951179504394531
 20
-55.16118621826172
 30
138.0
 11
-15.958355903625488
 21
-54.82828903198242
 31
138.0
 12
-16.100975036621094
 22
-54.36948776245117
 32
138.0
 13
-16.100975036621094
 23
-54.36948776245117
 33
138.0
  0
3DFACE
  8
0
 10
-16.100975036621094
 20
-54.36948776245117
 30
138.0
 11
-16.195087432861328
 21
-54.0457878112793
 31
138.0
 12
-16.318689346313477
 22
-53.722084045410156
 32
138.0
 13
-16.318689346313477
 23
-53.722084045410156
 33
138.0
  0
3DFACE
  8
0
 10
-16.318689346313477
 20
-53.722084045410156
 30
138.0
 11
-16.532930374145508
 21
-53.26327896118164
 31
138.0
 12
-16.544132232666016
 22
-53.24415588378906
 32
138.0
 13
-16.544132232666016
 23
-53.24415588378906
 33
138.0
  0
3DFACE
  8
0
 10
-16.544132232666016
 20
-53.24415588378906
 30
138.0
 11
-17.000957489013672
 21
-52.694244384765625
 31
138.0
 12
-17.309627532958984
 22
-52.34513473510742
 32
138.0
 13
-17.309627532958984
 23
-52.34513473510742
 33
138.0
  0
3DFACE
  8
0
 10
-17.309627532958984
 20
-52.34513473510742
 30
138.0
 11
-17.6873779296875
 21
-51.97338104248047
 31
138.0
 12
-18.148208618164062
 22
-51.5360221862793
 32
138.0
 13
-18.148208618164062
 23
-51.5360221862793
 33
138.0
  0
3DFACE
  8
0
 10
-18.566356658935547
 20
-51.21450424194336
 30
138.0
 11
-18.89748764038086
 21
-50.94871139526367
 31
138.0
 12
-19.350444793701172
 22
-50.6274299621582
 32
138.0
 13
-19.350444793701172
 23
-50.6274299621582
 33
138.0
  0
3DFACE
  8
0
 10
-17.309627532958984
 20
-52.34513473510742
 30
138.0
 11
-18.148208618164062
 21
-51.5360221862793
 31
138.0
 12
-18.566356658935547
 22
-51.21450424194336
 32
138.0
 13
-18.566356658935547
 23
-51.21450424194336
 33
138.0
  0
3DFACE
  8
0
 10
-16.318689346313477
 20
-53.722084045410156
 30
138.0
 11
-16.544132232666016
 21
-53.24415588378906
 31
138.0
 12
-17.309627532958984
 22
-52.34513473510742
 32
138.0
 13
-17.309627532958984
 23
-52.34513473510742
 33
138.0
  0
3DFACE
  8
0
 10
-15.951179504394531
 20
-55.16118621826172
 30
138.0
 11
-16.100975036621094
 21
-54.36948776245117
 31
138.0
 12
-16.318689346313477
 22
-53.722084045410156
 32
138.0
 13
-16.318689346313477
 23
-53.722084045410156
 33
138.0
  0
3DFACE
  8
0
 10
-15.950041770935059
 20
-59.847007751464844
 30
138.0
 11
-15.746465682983398
 21
-56.54656982421875
 31
138.0
 12
-15.951179504394531
 22
-55.16118621826172
 32
138.0
 13
-15.951179504394531
 23
-55.16118621826172
 33
138.0
  0
3DFACE
  8
0
 10
-19.254968643188477
 20
-66.28475189208984
 30
138.0
 11
-16.75111961364746
 21
-63.06074142456055
 31
138.0
 12
-15.950041770935059
 22
-59.847007751464844
 32
138.0
 13
-15.950041770935059
 23
-59.847007751464844
 33
138.0
  0
3DFACE
  8
0
 10
-27.172727584838867
 20
-68.58223724365234
 30
138.0
 11
-22.43294334411621
 21
-68.13831329345703
 31
138.0
 12
-19.254968643188477
 22
-66.28475189208984
 32
138.0
 13
-19.254968643188477
 23
-66.28475189208984
 33
138.0
  0
3DFACE
  8
0
 10
-32.86578369140625
 20
-56.79960250854492
 30
138.0
 11
-33.615333557128906
 21
-61.36725616455078
 31
138.0
 12
-27.172727584838867
 22
-68.58223724365234
 32
138.0
 13
-27.172727584838867
 23
-68.58223724365234
 33
138.0
  0
3DFACE
  8
0
 10
-32.16801071166992
 20
-55.28709030151367
 30
138.0
 11
-32.40608215332031
 21
-55.760040283203125
 31
138.0
 12
-32.86578369140625
 22
-56.79960250854492
 32
138.0
 13
-32.86578369140625
 23
-56.79960250854492
 33
138.0
  0
3DFACE
  8
0
 10
-31.559249877929688
 20
-54.408267974853516
 30
138.0
 11
-31.8660831451416
 21
-54.82828903198242
 31
138.0
 12
-32.16801071166992
 22
-55.28709030151367
 32
138.0
 13
-32.16801071166992
 23
-55.28709030151367
 33
138.0
  0
3DFACE
  8
0
 10
-31.131179809570312
 20
-53.816383361816406
 30
138.0
 11
-31.346967697143555
 21
-54.05291748046875
 31
138.0
 12
-31.559249877929688
 22
-54.408267974853516
 32
138.0
 13
-31.559249877929688
 23
-54.408267974853516
 33
138.0
  0
3DFACE
  8
0
 10
-30.405601501464844
 20
-53.08069610595703
 30
138.0
 11
-30.660625457763672
 21
-53.264183044433594
 31
138.0
 12
-31.131179809570312
 22
-53.816383361816406
 32
138.0
 13
-31.131179809570312
 23
-53.816383361816406
 33
138.0
  0
3DFACE
  8
0
 10
-29.85658073425293
 20
-52.47106170654297
 30
138.0
 11
-30.172605514526367
 21
-52.80823516845703
 31
138.0
 12
-30.405601501464844
 22
-53.08069610595703
 32
138.0
 13
-30.405601501464844
 23
-53.08069610595703
 33
138.0
  0
3DFACE
  8
0
 10
-28.605377197265625
 20
-51.65998458862305
 30
138.0
 11
-29.064180374145508
 21
-51.93462371826172
 31
138.0
 12
-29.398677825927734
 22
-52.179569244384766
 32
138.0
 13
-29.398677825927734
 23
-52.179569244384766
 33
138.0
  0
3DFACE
  8
0
 10
-29.398677825927734
 20
-52.179569244384766
 30
138.0
 11
-29.85658073425293
 21
-52.47106170654297
 31
138.0
 12
-30.405601501464844
 22
-53.08069610595703
 32
138.0
 13
-30.405601501464844
 23
-53.08069610595703
 33
138.0
  0
3DFACE
  8
0
 10
-30.405601501464844
 20
-53.08069610595703
 30
138.0
 11
-31.131179809570312
 21
-53.816383361816406
 31
138.0
 12
-31.559249877929688
 22
-54.408267974853516
 32
138.0
 13
-31.559249877929688
 23
-54.408267974853516
 33
138.0
  0
3DFACE
  8
0
 10
-31.559249877929688
 20
-54.408267974853516
 30
138.0
 11
-32.16801071166992
 21
-55.28709030151367
 31
138.0
 12
-32.86578369140625
 22
-56.79960250854492
 32
138.0
 13
-32.86578369140625
 23
-56.79960250854492
 33
138.0
  0
3DFACE
  8
0
 10
-32.86578369140625
 20
-56.79960250854492
 30
138.0
 11
-27.172727584838867
 21
-68.58223724365234
 31
138.0
 12
-19.254968643188477
 22
-66.28475189208984
 32
138.0
 13
-19.254968643188477
 23
-66.28475189208984
 33
138.0
  0
3DFACE
  8
0
 10
-19.254968643188477
 20
-66.28475189208984
 30
138.0
 11
-15.950041770935059
 21
-59.847007751464844
 31
138.0
 12
-15.951179504394531
 22
-55.16118621826172
 32
138.0
 13
-15.951179504394531
 23
-55.16118621826172
 33
138.0
  0
3DFACE
  8
0
 10
-15.951179504394531
 20
-55.16118621826172
 30
138.0
 11
-16.318689346313477
 21
-53.722084045410156
 31
138.0
 12
-17.309627532958984
 22
-52.34513473510742
 32
138.0
 13
-17.309627532958984
 23
-52.34513473510742
 33
138.0
  0
3DFACE
  8
0
 10
-17.309627532958984
 20
-52.34513473510742
 30
138.0
 11
-18.566356658935547
 21
-51.21450424194336
 31
138.0
 12
-19.350444793701172
 22
-50.6274299621582
 32
138.0
 13
-19.350444793701172
 23
-50.6274299621582
 33
138.0
  0
3DFACE
  8
0
 10
-19.350444793701172
 20
-50.6274299621582
 30
138.0
 11
-19.71665382385254
 21
-50.45075607299805
 31
138.0
 12
-20.456647872924805
 22
-50.10874557495117
 32
138.0
 13
-20.456647872924805
 23
-50.10874557495117
 33
138.0
  0
3DFACE
  8
0
 10
-20.456647872924805
 20
-50.10874557495117
 30
138.0
 11
-20.915449142456055
 21
-49.98885726928711
 31
138.0
 12
-21.23914909362793
 22
-49.927860260009766
 32
138.0
 13
-21.23914909362793
 23
-49.927860260009766
 33
138.0
  0
3DFACE
  8
0
 10
-21.23914909362793
 20
-49.927860260009766
 30
138.0
 11
-21.481040954589844
 21
-49.89018630981445
 31
138.0
 12
-22.02165412902832
 22
-49.818321228027344
 32
138.0
 13
-22.02165412902832
 23
-49.818321228027344
 33
138.0
  0
3DFACE
  8
0
 10
-22.345354080200195
 20
-49.821678161621094
 30
138.0
 11
-22.804155349731445
 21
-49.79744338989258
 31
138.0
 12
-23.58665657043457
 22
-49.85079574584961
 32
138.0
 13
-23.58665657043457
 23
-49.85079574584961
 33
138.0
  0
3DFACE
  8
0
 10
-21.23914909362793
 20
-49.927860260009766
 30
138.0
 11
-22.02165412902832
 21
-49.818321228027344
 31
138.0
 12
-22.345354080200195
 22
-49.821678161621094
 32
138.0
 13
-22.345354080200195
 23
-49.821678161621094
 33
138.0
  0
3DFACE
  8
0
 10
-19.350444793701172
 20
-50.6274299621582
 30
138.0
 11
-20.456647872924805
 21
-50.10874557495117
 31
138.0
 12
-21.23914909362793
 22
-49.927860260009766
 32
138.0
 13
-21.23914909362793
 23
-49.927860260009766
 33
138.0
  0
3DFACE
  8
0
 10
-15.951179504394531
 20
-55.16118621826172
 30
138.0
 11
-17.309627532958984
 21
-52.34513473510742
 31
138.0
 12
-19.350444793701172
 22
-50.6274299621582
 32
138.0
 13
-19.350444793701172
 23
-50.6274299621582
 33
138.0
  0
3DFACE
  8
0
 10
-32.86578369140625
 20
-56.79960250854492
 30
138.0
 11
-19.254968643188477
 21
-66.28475189208984
 31
138.0
 12
-15.951179504394531
 22
-55.16118621826172
 32
138.0
 13
-15.951179504394531
 23
-55.16118621826172
 33
138.0
  0
3DFACE
  8
0
 10
-30.405601501464844
 20
-53.08069610595703
 30
138.0
 11
-31.559249877929688
 21
-54.408267974853516
 31
138.0
 12
-32.86578369140625
 22
-56.79960250854492
 32
138.0
 13
-32.86578369140625
 23
-56.79960250854492
 33
138.0
  0
3DFACE
  8
0
 10
-28.605377197265625
 20
-51.65998458862305
 30
138.0
 11
-29.398677825927734
 21
-52.179569244384766
 31
138.0
 12
-30.405601501464844
 22
-53.08069610595703
 32
138.0
 13
-30.405601501464844
 23
-53.08069610595703
 33
138.0
  0
3DFACE
  8
0
 10
-27.66102409362793
 20
-51.124446868896484
 30
138.0
 11
-28.281675338745117
 21
-51.446136474609375
 31
138.0
 12
-28.605377197265625
 22
-51.65998458862305
 32
138.0
 13
-28.605377197265625
 23
-51.65998458862305
 33
138.0
  0
3DFACE
  8
0
 10
-27.175474166870117
 20
-50.891624450683594
 30
138.0
 11
-27.499174118041992
 21
-51.02810287475586
 31
138.0
 12
-27.66102409362793
 22
-51.124446868896484
 32
138.0
 13
-27.66102409362793
 23
-51.124446868896484
 33
138.0
  0
3DFACE
  8
0
 10
-26.257869720458984
 20
-50.54255676269531
 30
138.0
 11
-26.716672897338867
 21
-50.68778991699219
 31
138.0
 12
-27.175474166870117
 22
-50.891624450683594
 32
138.0
 13
-27.175474166870117
 23
-50.891624450683594
 33
138.0
  0
3DFACE
  8
0
 10
-25.151662826538086
 20
-50.183475494384766
 30
138.0
 11
-25.934167861938477
 21
-50.41128921508789
 31
138.0
 12
-26.257869720458984
 22
-50.54255676269531
 32
138.0
 13
-26.257869720458984
 23
-50.54255676269531
 33
138.0
  0
3DFACE
  8
0
 10
-24.703678131103516
 20
-50.090126037597656
 30
138.0
 11
-24.902549743652344
 21
-50.131202697753906
 31
138.0
 12
-25.05278205871582
 22
-50.164756774902344
 32
138.0
 13
-25.05278205871582
 23
-50.164756774902344
 33
138.0
  0
3DFACE
  8
0
 10
-25.05278205871582
 20
-50.164756774902344
 30
138.0
 11
-25.151662826538086
 21
-50.183475494384766
 31
138.0
 12
-26.257869720458984
 22
-50.54255676269531
 32
138.0
 13
-26.257869720458984
 23
-50.54255676269531
 33
138.0
  0
3DFACE
  8
0
 10
-26.257869720458984
 20
-50.54255676269531
 30
138.0
 11
-27.175474166870117
 21
-50.891624450683594
 31
138.0
 12
-27.66102409362793
 22
-51.124446868896484
 32
138.0
 13
-27.66102409362793
 23
-51.124446868896484
 33
138.0
  0
3DFACE
  8
0
 10
-27.66102409362793
 20
-51.124446868896484
 30
138.0
 11
-28.605377197265625
 21
-51.65998458862305
 31
138.0
 12
-30.405601501464844
 22
-53.08069610595703
 32
138.0
 13
-30.405601501464844
 23
-53.08069610595703
 33
138.0
  0
3DFACE
  8
0
 10
-30.405601501464844
 20
-53.08069610595703
 30
138.0
 11
-32.86578369140625
 21
-56.79960250854492
 31
138.0
 12
-15.951179504394531
 22
-55.16118621826172
 32
138.0
 13
-15.951179504394531
 23
-55.16118621826172
 33
138.0
  0
3DFACE
  8
0
 10
-15.951179504394531
 20
-55.16118621826172
 30
138.0
 11
-19.350444793701172
 21
-50.6274299621582
 31
138.0
 12
-21.23914909362793
 22
-49.927860260009766
 32
138.0
 13
-21.23914909362793
 23
-49.927860260009766
 33
138.0
  0
3DFACE
  8
0
 10
-21.23914909362793
 20
-49.927860260009766
 30
138.0
 11
-22.345354080200195
 21
-49.821678161621094
 31
138.0
 12
-23.58665657043457
 22
-49.85079574584961
 32
138.0
 13
-23.58665657043457
 23
-49.85079574584961
 33
138.0
  0
3DFACE
  8
0
 10
-23.58665657043457
 20
-49.85079574584961
 30
138.0
 11
-23.997350692749023
 21
-49.91639709472656
 31
138.0
 12
-24.369165420532227
 22
-49.98286437988281
 32
138.0
 13
-24.369165420532227
 23
-49.98286437988281
 33
138.0
  0
3DFACE
  8
0
 10
-24.703678131103516
 20
-50.090126037597656
 30
138.0
 11
-25.05278205871582
 21
-50.164756774902344
 31
138.0
 12
-26.257869720458984
 22
-50.54255676269531
 32
138.0
 13
-26.257869720458984
 23
-50.54255676269531
 33
138.0
  0
3DFACE
  8
0
 10
-23.58665657043457
 20
-49.85079574584961
 30
138.0
 11
-24.369165420532227
 21
-49.98286437988281
 31
138.0
 12
-24.703678131103516
 22
-50.090126037597656
 32
138.0
 13
-24.703678131103516
 23
-50.090126037597656
 33
138.0
  0
3DFACE
  8
0
 10
-15.951179504394531
 20
-55.16118621826172
 30
138.0
 11
-21.23914909362793
 21
-49.927860260009766
 31
138.0
 12
-23.58665657043457
 22
-49.85079574584961
 32
138.0
 13
-23.58665657043457
 23
-49.85079574584961
 33
138.0
  0
3DFACE
  8
0
 10
-27.66102409362793
 20
-51.124446868896484
 30
138.0
 11
-30.405601501464844
 21
-53.08069610595703
 31
138.0
 12
-15.951179504394531
 22
-55.16118621826172
 32
138.0
 13
-15.951179504394531
 23
-55.16118621826172
 33
138.0
  0
3DFACE
  8
0
 10
-24.703678131103516
 20
-50.090126037597656
 30
138.0
 11
-26.257869720458984
 21
-50.54255676269531
 31
138.0
 12
-27.66102409362793
 22
-51.124446868896484
 32
138.0
 13
-27.66102409362793
 23
-51.124446868896484
 33
138.0
  0
3DFACE
  8
0
 10
-15.951179504394531
 20
-55.16118621826172
 30
138.0
 11
-23.58665657043457
 21
-49.85079574584961
 31
138.0
 12
-24.703678131103516
 22
-50.090126037597656
 32
138.0
 13
-24.703678131103516
 23
-50.090126037597656
 33
138.0
  0
3DFACE
  8
0
 10
-15.951179504394531
 20
-55.16118621826172
 30
138.0
 11
-24.703678131103516
 21
-50.090126037597656
 31
138.0
 12
-27.66102409362793
 22
-51.124446868896484
 32
138.0
 13
-27.66102409362793
 23
-51.124446868896484
 33
138.0
  0
3DFACE
  8
0
 10
37.383453369140625
 20
-44.24559783935547
 30
138.0
 11
37.3366584777832
 21
-44.222293853759766
 31
138.0
 12
37.303157806396484
 22
-44.20792770385742
 32
138.0
 13
37.303157806396484
 23
-44.20792770385742
 33
138.0
  0
3DFACE
  8
0
 10
37.303157806396484
 20
-44.20792770385742
 30
138.0
 11
37.26532745361328
 21
-44.19309997558594
 31
138.0
 12
36.71192169189453
 22
-43.98517990112305
 32
138.0
 13
36.71192169189453
 23
-43.98517990112305
 33
138.0
  0
3DFACE
  8
0
 10
36.218231201171875
 20
-43.87767028808594
 30
138.0
 11
35.73393249511719
 21
-43.75804138183594
 31
138.0
 12
35.35390090942383
 22
-43.69621276855469
 32
138.0
 13
35.35390090942383
 23
-43.69621276855469
 33
138.0
  0
3DFACE
  8
0
 10
37.303157806396484
 20
-44.20792770385742
 30
138.0
 11
36.71192169189453
 21
-43.98517990112305
 31
138.0
 12
36.218231201171875
 22
-43.87767028808594
 32
138.0
 13
36.218231201171875
 23
-43.87767028808594
 33
138.0
  0
3DFACE
  8
0
 10
38.002071380615234
 20
-44.54515838623047
 30
138.0
 11
37.95145797729492
 21
-44.51168441772461
 31
138.0
 12
37.383453369140625
 22
-44.24559783935547
 32
138.0
 13
37.383453369140625
 23
-44.24559783935547
 33
138.0
  0
3DFACE
  8
0
 10
37.383453369140625
 20
-44.24559783935547
 30
138.0
 11
37.303157806396484
 21
-44.20792770385742
 31
138.0
 12
36.218231201171875
 22
-43.87767028808594
 32
138.0
 13
36.218231201171875
 23
-43.87767028808594
 33
138.0
  0
3DFACE
  8
0
 10
36.218231201171875
 20
-43.87767028808594
 30
138.0
 11
35.35390090942383
 21
-43.69621276855469
 31
138.0
 12
34.94547653198242
 22
-43.64628219604492
 32
138.0
 13
34.94547653198242
 23
-43.64628219604492
 33
138.0
  0
3DFACE
  8
0
 10
34.94547653198242
 20
-43.64628219604492
 30
138.0
 11
34.70895767211914
 21
-43.63275146484375
 31
138.0
 12
33.986019134521484
 22
-43.642738342285156
 32
138.0
 13
33.986019134521484
 23
-43.642738342285156
 33
138.0
  0
3DFACE
  8
0
 10
33.986019134521484
 20
-43.642738342285156
 30
138.0
 11
33.30813217163086
 21
-43.70369338989258
 31
138.0
 12
33.28322982788086
 22
-43.70747756958008
 32
138.0
 13
33.28322982788086
 23
-43.70747756958008
 33
138.0
  0
3DFACE
  8
0
 10
33.28322982788086
 20
-43.70747756958008
 30
138.0
 11
32.511253356933594
 21
-43.85748291015625
 31
138.0
 12
32.45930862426758
 22
-43.8725700378418
 32
138.0
 13
32.45930862426758
 23
-43.8725700378418
 33
138.0
  0
3DFACE
  8
0
 10
32.45930862426758
 20
-43.8725700378418
 30
138.0
 11
31.566783905029297
 21
-44.23570251464844
 31
138.0
 12
31.503944396972656
 22
-44.267147064208984
 32
138.0
 13
31.503944396972656
 23
-44.267147064208984
 33
138.0
  0
3DFACE
  8
0
 10
31.38976287841797
 20
-44.33396911621094
 30
138.0
 11
30.714685440063477
 21
-44.70805358886719
 31
138.0
 12
30.479413986206055
 22
-44.875953674316406
 32
138.0
 13
30.479413986206055
 23
-44.875953674316406
 33
138.0
  0
3DFACE
  8
0
 10
32.45930862426758
 20
-43.8725700378418
 30
138.0
 11
31.503944396972656
 21
-44.267147064208984
 31
138.0
 12
31.38976287841797
 22
-44.33396911621094
 32
138.0
 13
31.38976287841797
 23
-44.33396911621094
 33
138.0
  0
3DFACE
  8
0
 10
33.986019134521484
 20
-43.642738342285156
 30
138.0
 11
33.28322982788086
 21
-43.70747756958008
 31
138.0
 12
32.45930862426758
 22
-43.8725700378418
 32
138.0
 13
32.45930862426758
 23
-43.8725700378418
 33
138.0
  0
3DFACE
  8
0
 10
36.218231201171875
 20
-43.87767028808594
 30
138.0
 11
34.94547653198242
 21
-43.64628219604492
 31
138.0
 12
33.986019134521484
 22
-43.642738342285156
 32
138.0
 13
33.986019134521484
 23
-43.642738342285156
 33
138.0
  0
3DFACE
  8
0
 10
38.002071380615234
 20
-44.54515838623047
 30
138.0
 11
37.383453369140625
 21
-44.24559783935547
 31
138.0
 12
36.218231201171875
 22
-43.87767028808594
 32
138.0
 13
36.218231201171875
 23
-43.87767028808594
 33
138.0
  0
3DFACE
  8
0
 10
39.1148796081543
 20
-45.40501022338867
 30
138.0
 11
38.395999908447266
 21
-44.822998046875
 31
138.0
 12
38.002071380615234
 22
-44.54515838623047
 32
138.0
 13
38.002071380615234
 23
-44.54515838623047
 33
138.0
  0
3DFACE
  8
0
 10
40.129913330078125
 20
-46.44423294067383
 30
138.0
 11
39.66453552246094
 21
-45.913360595703125
 31
138.0
 12
39.1148796081543
 22
-45.40501022338867
 32
138.0
 13
39.1148796081543
 23
-45.40501022338867
 33
138.0
  0
3DFACE
  8
0
 10
40.8287467956543
 20
-47.40475845336914
 30
138.0
 11
40.71150588989258
 21
-47.219444274902344
 31
138.0
 12
40.68413162231445
 22
-47.18488311767578
 32
138.0
 13
40.68413162231445
 23
-47.18488311767578
 33
138.0
  0
3DFACE
  8
0
 10
40.68413162231445
 20
-47.18488311767578
 30
138.0
 11
40.129913330078125
 21
-46.44423294067383
 31
138.0
 12
39.1148796081543
 22
-45.40501022338867
 32
138.0
 13
39.1148796081543
 23
-45.40501022338867
 33
138.0
  0
3DFACE
  8
0
 10
39.1148796081543
 20
-45.40501022338867
 30
138.0
 11
38.002071380615234
 21
-44.54515838623047
 31
138.0
 12
36.218231201171875
 22
-43.87767028808594
 32
138.0
 13
36.218231201171875
 23
-43.87767028808594
 33
138.0
  0
3DFACE
  8
0
 10
36.218231201171875
 20
-43.87767028808594
 30
138.0
 11
33.986019134521484
 21
-43.642738342285156
 31
138.0
 12
32.45930862426758
 22
-43.8725700378418
 32
138.0
 13
32.45930862426758
 23
-43.8725700378418
 33
138.0
  0
3DFACE
  8
0
 10
32.45930862426758
 20
-43.8725700378418
 30
138.0
 11
31.38976287841797
 21
-44.33396911621094
 31
138.0
 12
30.479413986206055
 22
-44.875953674316406
 32
138.0
 13
30.479413986206055
 23
-44.875953674316406
 33
138.0
  0
3DFACE
  8
0
 10
30.479413986206055
 20
-44.875953674316406
 30
138.0
 11
30.36648941040039
 21
-44.962791442871094
 31
138.0
 12
30.26034164428711
 22
-45.05500411987305
 32
138.0
 13
30.26034164428711
 23
-45.05500411987305
 33
138.0
  0
3DFACE
  8
0
 10
30.26034164428711
 20
-45.05500411987305
 30
138.0
 11
29.71336555480957
 21
-45.50482177734375
 31
138.0
 12
29.51414680480957
 22
-45.70611572265625
 32
138.0
 13
29.51414680480957
 23
-45.70611572265625
 33
138.0
  0
3DFACE
  8
0
 10
29.51414680480957
 20
-45.70611572265625
 30
138.0
 11
29.148216247558594
 21
-46.174495697021484
 31
138.0
 12
28.833032608032227
 22
-46.68318176269531
 32
138.0
 13
28.833032608032227
 23
-46.68318176269531
 33
138.0
  0
3DFACE
  8
0
 10
28.833032608032227
 20
-46.68318176269531
 30
138.0
 11
28.696998596191406
 21
-46.88494110107422
 31
138.0
 12
28.604175567626953
 22
-47.07529067993164
 32
138.0
 13
28.604175567626953
 23
-47.07529067993164
 33
138.0
  0
3DFACE
  8
0
 10
28.604175567626953
 20
-47.07529067993164
 30
138.0
 11
28.35316276550293
 21
-47.609466552734375
 31
138.0
 12
28.247690200805664
 22
-47.88908767700195
 32
138.0
 13
28.247690200805664
 23
-47.88908767700195
 33
138.0
  0
3DFACE
  8
0
 10
28.247690200805664
 20
-47.88908767700195
 30
138.0
 11
28.098773956298828
 21
-48.357295989990234
 31
138.0
 12
28.07355499267578
 22
-48.458709716796875
 32
138.0
 13
28.07355499267578
 23
-48.458709716796875
 33
138.0
  0
3DFACE
  8
0
 10
28.07355499267578
 20
-48.458709716796875
 30
138.0
 11
27.782548904418945
 21
-49.86178207397461
 31
138.0
 12
27.777116775512695
 22
-49.89643478393555
 32
138.0
 13
27.777116775512695
 23
-49.89643478393555
 33
138.0
  0
3DFACE
  8
0
 10
27.775665283203125
 20
-49.917236328125
 30
138.0
 11
27.695789337158203
 21
-50.68062973022461
 31
138.0
 12
27.687177658081055
 22
-50.88068389892578
 32
138.0
 13
27.687177658081055
 23
-50.88068389892578
 33
138.0
  0
3DFACE
  8
0
 10
28.07355499267578
 20
-48.458709716796875
 30
138.0
 11
27.777116775512695
 21
-49.89643478393555
 31
138.0
 12
27.775665283203125
 22
-49.917236328125
 32
138.0
 13
27.775665283203125
 23
-49.917236328125
 33
138.0
  0
3DFACE
  8
0
 10
28.604175567626953
 20
-47.07529067993164
 30
138.0
 11
28.247690200805664
 21
-47.88908767700195
 31
138.0
 12
28.07355499267578
 22
-48.458709716796875
 32
138.0
 13
28.07355499267578
 23
-48.458709716796875
 33
138.0
  0
3DFACE
  8
0
 10
29.51414680480957
 20
-45.70611572265625
 30
138.0
 11
28.833032608032227
 21
-46.68318176269531
 31
138.0
 12
28.604175567626953
 22
-47.07529067993164
 32
138.0
 13
28.604175567626953
 23
-47.07529067993164
 33
138.0
  0
3DFACE
  8
0
 10
30.479413986206055
 20
-44.875953674316406
 30
138.0
 11
30.26034164428711
 21
-45.05500411987305
 31
138.0
 12
29.51414680480957
 22
-45.70611572265625
 32
138.0
 13
29.51414680480957
 23
-45.70611572265625
 33
138.0
  0
3DFACE
  8
0
 10
36.218231201171875
 20
-43.87767028808594
 30
138.0
 11
32.45930862426758
 21
-43.8725700378418
 31
138.0
 12
30.479413986206055
 22
-44.875953674316406
 32
138.0
 13
30.479413986206055
 23
-44.875953674316406
 33
138.0
  0
3DFACE
  8
0
 10
40.68413162231445
 20
-47.18488311767578
 30
138.0
 11
39.1148796081543
 21
-45.40501022338867
 31
138.0
 12
36.218231201171875
 22
-43.87767028808594
 32
138.0
 13
36.218231201171875
 23
-43.87767028808594
 33
138.0
  0
3DFACE
  8
0
 10
41.30298614501953
 20
-48.17991638183594
 30
138.0
 11
40.8287467956543
 21
-47.40475845336914
 31
138.0
 12
40.68413162231445
 22
-47.18488311767578
 32
138.0
 13
40.68413162231445
 23
-47.18488311767578
 33
138.0
  0
3DFACE
  8
0
 10
41.7797737121582
 20
-49.11701202392578
 30
138.0
 11
41.61845779418945
 21
-48.765045166015625
 31
138.0
 12
41.37614440917969
 22
-48.319480895996094
 32
138.0
 13
41.37614440917969
 23
-48.319480895996094
 33
138.0
  0
3DFACE
  8
0
 10
41.37614440917969
 20
-48.319480895996094
 30
138.0
 11
41.30298614501953
 21
-48.17991638183594
 31
138.0
 12
40.68413162231445
 22
-47.18488311767578
 32
138.0
 13
40.68413162231445
 23
-47.18488311767578
 33
138.0
  0
3DFACE
  8
0
 10
40.68413162231445
 20
-47.18488311767578
 30
138.0
 11
36.218231201171875
 21
-43.87767028808594
 31
138.0
 12
30.479413986206055
 22
-44.875953674316406
 32
138.0
 13
30.479413986206055
 23
-44.875953674316406
 33
138.0
  0
3DFACE
  8
0
 10
30.479413986206055
 20
-44.875953674316406
 30
138.0
 11
29.51414680480957
 21
-45.70611572265625
 31
138.0
 12
28.604175567626953
 22
-47.07529067993164
 32
138.0
 13
28.604175567626953
 23
-47.07529067993164
 33
138.0
  0
3DFACE
  8
0
 10
28.604175567626953
 20
-47.07529067993164
 30
138.0
 11
28.07355499267578
 21
-48.458709716796875
 31
138.0
 12
27.775665283203125
 22
-49.917236328125
 32
138.0
 13
27.775665283203125
 23
-49.917236328125
 33
138.0
  0
3DFACE
  8
0
 10
27.775665283203125
 20
-49.917236328125
 30
138.0
 11
27.687177658081055
 21
-50.88068389892578
 31
138.0
 12
27.647541046142578
 22
-51.480228424072266
 32
138.0
 13
27.647541046142578
 23
-51.480228424072266
 33
138.0
  0
3DFACE
  8
0
 10
27.666173934936523
 20
-51.755714416503906
 30
138.0
 11
27.67832374572754
 21
-52.29434585571289
 31
138.0
 12
27.73610496520996
 22
-52.71803665161133
 32
138.0
 13
27.73610496520996
 23
-52.71803665161133
 33
138.0
  0
3DFACE
  8
0
 10
27.775665283203125
 20
-49.917236328125
 30
138.0
 11
27.647541046142578
 21
-51.480228424072266
 31
138.0
 12
27.666173934936523
 22
-51.755714416503906
 32
138.0
 13
27.666173934936523
 23
-51.755714416503906
 33
138.0
  0
3DFACE
  8
0
 10
30.479413986206055
 20
-44.875953674316406
 30
138.0
 11
28.604175567626953
 21
-47.07529067993164
 31
138.0
 12
27.775665283203125
 22
-49.917236328125
 32
138.0
 13
27.775665283203125
 23
-49.917236328125
 33
138.0
  0
3DFACE
  8
0
 10
41.37614440917969
 20
-48.319480895996094
 30
138.0
 11
40.68413162231445
 21
-47.18488311767578
 31
138.0
 12
30.479413986206055
 22
-44.875953674316406
 32
138.0
 13
30.479413986206055
 23
-44.875953674316406
 33
138.0
  0
3DFACE
  8
0
 10
41.88526916503906
 20
-49.42350769042969
 30
138.0
 11
41.7797737121582
 21
-49.11701202392578
 31
138.0
 12
41.37614440917969
 22
-48.319480895996094
 32
138.0
 13
41.37614440917969
 23
-48.319480895996094
 33
138.0
  0
3DFACE
  8
0
 10
42.092308044433594
 20
-49.99662399291992
 30
138.0
 11
41.99930191040039
 21
-49.72937774658203
 31
138.0
 12
41.88526916503906
 22
-49.42350769042969
 32
138.0
 13
41.88526916503906
 23
-49.42350769042969
 33
138.0
  0
3DFACE
  8
0
 10
42.32723617553711
 20
-50.87239456176758
 30
138.0
 11
42.32417678833008
 21
-50.85749816894531
 31
138.0
 12
42.317447662353516
 22
-50.83660888671875
 32
138.0
 13
42.317447662353516
 23
-50.83660888671875
 33
138.0
  0
3DFACE
  8
0
 10
42.317447662353516
 20
-50.83660888671875
 30
138.0
 11
42.092308044433594
 21
-49.99662399291992
 31
138.0
 12
41.88526916503906
 22
-49.42350769042969
 32
138.0
 13
41.88526916503906
 23
-49.42350769042969
 33
138.0
  0
3DFACE
  8
0
 10
41.88526916503906
 20
-49.42350769042969
 30
138.0
 11
41.37614440917969
 21
-48.319480895996094
 31
138.0
 12
30.479413986206055
 22
-44.875953674316406
 32
138.0
 13
30.479413986206055
 23
-44.875953674316406
 33
138.0
  0
3DFACE
  8
0
 10
30.479413986206055
 20
-44.875953674316406
 30
138.0
 11
27.775665283203125
 21
-49.917236328125
 31
138.0
 12
27.666173934936523
 22
-51.755714416503906
 32
138.0
 13
27.666173934936523
 23
-51.755714416503906
 33
138.0
  0
3DFACE
  8
0
 10
27.666173934936523
 20
-51.755714416503906
 30
138.0
 11
27.73610496520996
 21
-52.71803665161133
 31
138.0
 12
27.776714324951172
 22
-53.12418746948242
 32
138.0
 13
27.776714324951172
 23
-53.12418746948242
 33
138.0
  0
3DFACE
  8
0
 10
27.891490936279297
 20
-53.66952133178711
 30
138.0
 11
27.93413543701172
 21
-53.922489166259766
 31
138.0
 12
28.177413940429688
 22
-54.831260681152344
 32
138.0
 13
28.177413940429688
 23
-54.831260681152344
 33
138.0
  0
3DFACE
  8
0
 10
27.666173934936523
 20
-51.755714416503906
 30
138.0
 11
27.776714324951172
 21
-53.12418746948242
 31
138.0
 12
27.891490936279297
 22
-53.66952133178711
 32
138.0
 13
27.891490936279297
 23
-53.66952133178711
 33
138.0
  0
3DFACE
  8
0
 10
41.88526916503906
 20
-49.42350769042969
 30
138.0
 11
30.479413986206055
 21
-44.875953674316406
 31
138.0
 12
27.666173934936523
 22
-51.755714416503906
 32
138.0
 13
27.666173934936523
 23
-51.755714416503906
 33
138.0
  0
3DFACE
  8
0
 10
42.32723617553711
 20
-50.87239456176758
 30
138.0
 11
42.317447662353516
 21
-50.83660888671875
 31
138.0
 12
41.88526916503906
 22
-49.42350769042969
 32
138.0
 13
41.88526916503906
 23
-49.42350769042969
 33
138.0
  0
3DFACE
  8
0
 10
42.57627868652344
 20
-52.53002166748047
 30
138.0
 11
42.50544738769531
 21
-51.70659637451172
 31
138.0
 12
42.32723617553711
 22
-50.87239456176758
 32
138.0
 13
42.32723617553711
 23
-50.87239456176758
 33
138.0
  0
3DFACE
  8
0
 10
42.54507827758789
 20
-53.696678161621094
 30
138.0
 11
42.585235595703125
 21
-53.33906936645508
 31
138.0
 12
42.573429107666016
 22
-52.803184509277344
 32
138.0
 13
42.573429107666016
 23
-52.803184509277344
 33
138.0
  0
3DFACE
  8
0
 10
42.573429107666016
 20
-52.803184509277344
 30
138.0
 11
42.57627868652344
 21
-52.53002166748047
 31
138.0
 12
42.32723617553711
 22
-50.87239456176758
 32
138.0
 13
42.32723617553711
 23
-50.87239456176758
 33
138.0
  0
3DFACE
  8
0
 10
42.32723617553711
 20
-50.87239456176758
 30
138.0
 11
41.88526916503906
 21
-49.42350769042969
 31
138.0
 12
27.666173934936523
 22
-51.755714416503906
 32
138.0
 13
27.666173934936523
 23
-51.755714416503906
 33
138.0
  0
3DFACE
  8
0
 10
27.666173934936523
 20
-51.755714416503906
 30
138.0
 11
27.891490936279297
 21
-53.66952133178711
 31
138.0
 12
28.177413940429688
 22
-54.831260681152344
 32
138.0
 13
28.177413940429688
 23
-54.831260681152344
 33
138.0
  0
3DFACE
  8
0
 10
28.177413940429688
 20
-54.831260681152344
 30
138.0
 11
28.267229080200195
 21
-55.08557891845703
 31
138.0
 12
28.36500358581543
 22
-55.34996032714844
 32
138.0
 13
28.36500358581543
 23
-55.34996032714844
 33
138.0
  0
3DFACE
  8
0
 10
28.420438766479492
 20
-55.45691680908203
 30
138.0
 11
28.95682144165039
 21
-56.57720184326172
 31
138.0
 12
29.248872756958008
 22
-56.98357009887695
 32
138.0
 13
29.248872756958008
 23
-56.98357009887695
 33
138.0
  0
3DFACE
  8
0
 10
28.177413940429688
 20
-54.831260681152344
 30
138.0
 11
28.36500358581543
 21
-55.34996032714844
 31
138.0
 12
28.420438766479492
 22
-55.45691680908203
 32
138.0
 13
28.420438766479492
 23
-55.45691680908203
 33
138.0
  0
3DFACE
  8
0
 10
42.32723617553711
 20
-50.87239456176758
 30
138.0
 11
27.666173934936523
 21
-51.755714416503906
 31
138.0
 12
28.177413940429688
 22
-54.831260681152344
 32
138.0
 13
28.177413940429688
 23
-54.831260681152344
 33
138.0
  0
3DFACE
  8
0
 10
42.54507827758789
 20
-53.696678161621094
 30
138.0
 11
42.573429107666016
 21
-52.803184509277344
 31
138.0
 12
42.32723617553711
 22
-50.87239456176758
 32
138.0
 13
42.32723617553711
 23
-50.87239456176758
 33
138.0
  0
3DFACE
  8
0
 10
42.35685729980469
 20
-54.65779495239258
 30
138.0
 11
42.50320053100586
 21
-54.1269645690918
 31
138.0
 12
42.54507827758789
 22
-53.696678161621094
 32
138.0
 13
42.54507827758789
 23
-53.696678161621094
 33
138.0
  0
3DFACE
  8
0
 10
42.125389099121094
 20
-55.50243377685547
 30
138.0
 11
42.310237884521484
 21
-54.88905715942383
 31
138.0
 12
42.35685729980469
 22
-54.65779495239258
 32
138.0
 13
42.35685729980469
 23
-54.65779495239258
 33
138.0
  0
3DFACE
  8
0
 10
41.78540802001953
 20
-56.3809700012207
 30
138.0
 11
42.08748245239258
 21
-55.64422607421875
 31
138.0
 12
42.125389099121094
 22
-55.50243377685547
 32
138.0
 13
42.125389099121094
 23
-55.50243377685547
 33
138.0
  0
3DFACE
  8
0
 10
41.40086364746094
 20
-57.098533630371094
 30
138.0
 11
41.6645622253418
 21
-56.6323356628418
 31
138.0
 12
41.78540802001953
 22
-56.3809700012207
 32
138.0
 13
41.78540802001953
 23
-56.3809700012207
 33
138.0
  0
3DFACE
  8
0
 10
40.77107620239258
 20
-58.03209686279297
 30
138.0
 11
40.94086456298828
 21
-57.807762145996094
 31
138.0
 12
41.04825973510742
 22
-57.63132858276367
 32
138.0
 13
41.04825973510742
 23
-57.63132858276367
 33
138.0
  0
3DFACE
  8
0
 10
41.04825973510742
 20
-57.63132858276367
 30
138.0
 11
41.40086364746094
 21
-57.098533630371094
 31
138.0
 12
41.78540802001953
 22
-56.3809700012207
 32
138.0
 13
41.78540802001953
 23
-56.3809700012207
 33
138.0
  0
3DFACE
  8
0
 10
41.78540802001953
 20
-56.3809700012207
 30
138.0
 11
42.125389099121094
 21
-55.50243377685547
 31
138.0
 12
42.35685729980469
 22
-54.65779495239258
 32
138.0
 13
42.35685729980469
 23
-54.65779495239258
 33
138.0
  0
3DFACE
  8
0
 10
42.35685729980469
 20
-54.65779495239258
 30
138.0
 11
42.54507827758789
 21
-53.696678161621094
 31
138.0
 12
42.32723617553711
 22
-50.87239456176758
 32
138.0
 13
42.32723617553711
 23
-50.87239456176758
 33
138.0
  0
3DFACE
  8
0
 10
42.32723617553711
 20
-50.87239456176758
 30
138.0
 11
28.177413940429688
 21
-54.831260681152344
 31
138.0
 12
28.420438766479492
 22
-55.45691680908203
 32
138.0
 13
28.420438766479492
 23
-55.45691680908203
 33
138.0
  0
3DFACE
  8
0
 10
28.420438766479492
 20
-55.45691680908203
 30
138.0
 11
29.248872756958008
 21
-56.98357009887695
 31
138.0
 12
29.55332374572754
 22
-57.45595169067383
 32
138.0
 13
29.55332374572754
 23
-57.45595169067383
 33
138.0
  0
3DFACE
  8
0
 10
29.55332374572754
 20
-57.45595169067383
 30
138.0
 11
29.681739807128906
 21
-57.601871490478516
 31
138.0
 12
30.0953426361084
 22
-58.03884506225586
 32
138.0
 13
30.0953426361084
 23
-58.03884506225586
 33
138.0
  0
3DFACE
  8
0
 10
30.0953426361084
 20
-58.03884506225586
 30
138.0
 11
30.197978973388672
 21
-58.159793853759766
 31
138.0
 12
30.22176742553711
 22
-58.1844596862793
 32
138.0
 13
30.22176742553711
 23
-58.1844596862793
 33
138.0
  0
3DFACE
  8
0
 10
30.22176742553711
 20
-58.1844596862793
 30
138.0
 11
30.584096908569336
 21
-58.496337890625
 31
138.0
 12
30.884397506713867
 22
-58.74577713012695
 32
138.0
 13
30.884397506713867
 23
-58.74577713012695
 33
138.0
  0
3DFACE
  8
0
 10
30.962854385375977
 20
-58.7919921875
 30
138.0
 11
31.597705841064453
 21
-59.206825256347656
 31
138.0
 12
31.878896713256836
 22
-59.357215881347656
 32
138.0
 13
31.878896713256836
 23
-59.357215881347656
 33
138.0
  0
3DFACE
  8
0
 10
30.22176742553711
 20
-58.1844596862793
 30
138.0
 11
30.884397506713867
 21
-58.74577713012695
 31
138.0
 12
30.962854385375977
 22
-58.7919921875
 32
138.0
 13
30.962854385375977
 23
-58.7919921875
 33
138.0
  0
3DFACE
  8
0
 10
28.420438766479492
 20
-55.45691680908203
 30
138.0
 11
29.55332374572754
 21
-57.45595169067383
 31
138.0
 12
30.0953426361084
 22
-58.03884506225586
 32
138.0
 13
30.0953426361084
 23
-58.03884506225586
 33
138.0
  0
3DFACE
  8
0
 10
30.0953426361084
 20
-58.03884506225586
 30
138.0
 11
30.22176742553711
 21
-58.1844596862793
 31
138.0
 12
30.962854385375977
 22
-58.7919921875
 32
138.0
 13
30.962854385375977
 23
-58.7919921875
 33
138.0
  0
3DFACE
  8
0
 10
30.962854385375977
 20
-58.7919921875
 30
138.0
 11
31.878896713256836
 21
-59.357215881347656
 31
138.0
 12
32.31255340576172
 22
-59.62166213989258
 32
138.0
 13
32.31255340576172
 23
-59.62166213989258
 33
138.0
  0
3DFACE
  8
0
 10
32.51161575317383
 20
-59.692630767822266
 30
138.0
 11
33.0629768371582
 21
-59.94919204711914
 31
138.0
 12
33.7228889465332
 22
-60.13395309448242
 32
138.0
 13
33.7228889465332
 23
-60.13395309448242
 33
138.0
  0
3DFACE
  8
0
 10
30.962854385375977
 20
-58.7919921875
 30
138.0
 11
32.31255340576172
 21
-59.62166213989258
 31
138.0
 12
32.51161575317383
 22
-59.692630767822266
 32
138.0
 13
32.51161575317383
 23
-59.692630767822266
 33
138.0
  0
3DFACE
  8
0
 10
28.420438766479492
 20
-55.45691680908203
 30
138.0
 11
30.0953426361084
 21
-58.03884506225586
 31
138.0
 12
30.962854385375977
 22
-58.7919921875
 32
138.0
 13
30.962854385375977
 23
-58.7919921875
 33
138.0
  0
3DFACE
  8
0
 10
42.35685729980469
 20
-54.65779495239258
 30
138.0
 11
42.32723617553711
 21
-50.87239456176758
 31
138.0
 12
28.420438766479492
 22
-55.45691680908203
 32
138.0
 13
28.420438766479492
 23
-55.45691680908203
 33
138.0
  0
3DFACE
  8
0
 10
41.04825973510742
 20
-57.63132858276367
 30
138.0
 11
41.78540802001953
 21
-56.3809700012207
 31
138.0
 12
42.35685729980469
 22
-54.65779495239258
 32
138.0
 13
42.35685729980469
 23
-54.65779495239258
 33
138.0
  0
3DFACE
  8
0
 10
40.40372848510742
 20
-58.480628967285156
 30
138.0
 11
40.77107620239258
 21
-58.03209686279297
 31
138.0
 12
41.04825973510742
 22
-57.63132858276367
 32
138.0
 13
41.04825973510742
 23
-57.63132858276367
 33
138.0
  0
3DFACE
  8
0
 10
39.633975982666016
 20
-59.19447708129883
 30
138.0
 11
39.720664978027344
 21
-59.12879180908203
 31
138.0
 12
39.87619400024414
 22
-58.97429656982422
 32
138.0
 13
39.87619400024414
 23
-58.97429656982422
 33
138.0
  0
3DFACE
  8
0
 10
39.87619400024414
 20
-58.97429656982422
 30
138.0
 11
40.40372848510742
 21
-58.480628967285156
 31
138.0
 12
41.04825973510742
 22
-57.63132858276367
 32
138.0
 13
41.04825973510742
 23
-57.63132858276367
 33
138.0
  0
3DFACE
  8
0
 10
41.04825973510742
 20
-57.63132858276367
 30
138.0
 11
42.35685729980469
 21
-54.65779495239258
 31
138.0
 12
28.420438766479492
 22
-55.45691680908203
 32
138.0
 13
28.420438766479492
 23
-55.45691680908203
 33
138.0
  0
3DFACE
  8
0
 10
28.420438766479492
 20
-55.45691680908203
 30
138.0
 11
30.962854385375977
 21
-58.7919921875
 31
138.0
 12
32.51161575317383
 22
-59.692630767822266
 32
138.0
 13
32.51161575317383
 23
-59.692630767822266
 33
138.0
  0
3DFACE
  8
0
 10
32.51161575317383
 20
-59.692630767822266
 30
138.0
 11
33.7228889465332
 21
-60.13395309448242
 31
138.0
 12
33.8278694152832
 22
-60.17046356201172
 32
138.0
 13
33.8278694152832
 23
-60.17046356201172
 33
138.0
  0
3DFACE
  8
0
 10
33.8278694152832
 20
-60.17046356201172
 30
138.0
 11
34.56922912597656
 21
-60.31111526489258
 31
138.0
 12
35.264427185058594
 22
-60.384246826171875
 32
138.0
 13
35.264427185058594
 23
-60.384246826171875
 33
138.0
  0
3DFACE
  8
0
 10
35.264427185058594
 20
-60.384246826171875
 30
138.0
 11
35.405677795410156
 21
-60.3897590637207
 31
138.0
 12
36.085384368896484
 22
-60.35985565185547
 32
138.0
 13
36.085384368896484
 23
-60.35985565185547
 33
138.0
  0
3DFACE
  8
0
 10
36.228233337402344
 20
-60.34302520751953
 30
138.0
 11
36.66664123535156
 21
-60.33141326904297
 31
138.0
 12
37.05608367919922
 22
-60.271644592285156
 32
138.0
 13
37.05608367919922
 23
-60.271644592285156
 33
138.0
  0
3DFACE
  8
0
 10
35.264427185058594
 20
-60.384246826171875
 30
138.0
 11
36.085384368896484
 21
-60.35985565185547
 31
138.0
 12
36.228233337402344
 22
-60.34302520751953
 32
138.0
 13
36.228233337402344
 23
-60.34302520751953
 33
138.0
  0
3DFACE
  8
0
 10
32.51161575317383
 20
-59.692630767822266
 30
138.0
 11
33.8278694152832
 21
-60.17046356201172
 31
138.0
 12
35.264427185058594
 22
-60.384246826171875
 32
138.0
 13
35.264427185058594
 23
-60.384246826171875
 33
138.0
  0
3DFACE
  8
0
 10
41.04825973510742
 20
-57.63132858276367
 30
138.0
 11
28.420438766479492
 21
-55.45691680908203
 31
138.0
 12
32.51161575317383
 22
-59.692630767822266
 32
138.0
 13
32.51161575317383
 23
-59.692630767822266
 33
138.0
  0
3DFACE
  8
0
 10
39.633975982666016
 20
-59.19447708129883
 30
138.0
 11
39.87619400024414
 21
-58.97429656982422
 31
138.0
 12
41.04825973510742
 22
-57.63132858276367
 32
138.0
 13
41.04825973510742
 23
-57.63132858276367
 33
138.0
  0
3DFACE
  8
0
 10
38.7955322265625
 20
-59.74250793457031
 30
138.0
 11
38.8227424621582
 21
-59.72699737548828
 31
138.0
 12
39.633975982666016
 22
-59.19447708129883
 32
138.0
 13
39.633975982666016
 23
-59.19447708129883
 33
138.0
  0
3DFACE
  8
0
 10
37.49973678588867
 20
-60.15009689331055
 30
138.0
 11
37.915557861328125
 21
-60.05328369140625
 31
138.0
 12
38.73868179321289
 22
-59.75965118408203
 32
138.0
 13
38.73868179321289
 23
-59.75965118408203
 33
138.0
  0
3DFACE
  8
0
 10
38.73868179321289
 20
-59.75965118408203
 30
138.0
 11
38.7955322265625
 21
-59.74250793457031
 31
138.0
 12
39.633975982666016
 22
-59.19447708129883
 32
138.0
 13
39.633975982666016
 23
-59.19447708129883
 33
138.0
  0
3DFACE
  8
0
 10
39.633975982666016
 20
-59.19447708129883
 30
138.0
 11
41.04825973510742
 21
-57.63132858276367
 31
138.0
 12
32.51161575317383
 22
-59.692630767822266
 32
138.0
 13
32.51161575317383
 23
-59.692630767822266
 33
138.0
  0
3DFACE
  8
0
 10
32.51161575317383
 20
-59.692630767822266
 30
138.0
 11
35.264427185058594
 21
-60.384246826171875
 31
138.0
 12
36.228233337402344
 22
-60.34302520751953
 32
138.0
 13
36.228233337402344
 23
-60.34302520751953
 33
138.0
  0
3DFACE
  8
0
 10
36.228233337402344
 20
-60.34302520751953
 30
138.0
 11
37.05608367919922
 21
-60.271644592285156
 31
138.0
 12
37.49973678588867
 22
-60.15009689331055
 32
138.0
 13
37.49973678588867
 23
-60.15009689331055
 33
138.0
  0
3DFACE
  8
0
 10
37.49973678588867
 20
-60.15009689331055
 30
138.0
 11
38.73868179321289
 21
-59.75965118408203
 31
138.0
 12
39.633975982666016
 22
-59.19447708129883
 32
138.0
 13
39.633975982666016
 23
-59.19447708129883
 33
138.0
  0
3DFACE
  8
0
 10
39.633975982666016
 20
-59.19447708129883
 30
138.0
 11
32.51161575317383
 21
-59.692630767822266
 31
138.0
 12
36.228233337402344
 22
-60.34302520751953
 32
138.0
 13
36.228233337402344
 23
-60.34302520751953
 33
138.0
  0
3DFACE
  8
0
 10
36.228233337402344
 20
-60.34302520751953
 30
138.0
 11
37.49973678588867
 21
-60.15009689331055
 31
138.0
 12
39.633975982666016
 22
-59.19447708129883
 32
138.0
 13
39.633975982666016
 23
-59.19447708129883
 33
138.0
  0
3DFACE
  8
0
 10
80.02227020263672
 20
-2.397731065750122
 30
138.0
 11
79.36685180664062
 21
-1.9315918684005737
 31
138.0
 12
79.35823822021484
 22
-1.9259334802627563
 32
138.0
 13
79.35823822021484
 23
-1.9259334802627563
 33
138.0
  0
3DFACE
  8
0
 10
79.35823822021484
 20
-1.9259334802627563
 30
138.0
 11
79.35455322265625
 21
-1.9239046573638916
 31
138.0
 12
78.25957489013672
 22
-1.3388526439666748
 32
138.0
 13
78.25957489013672
 23
-1.3388526439666748
 33
138.0
  0
3DFACE
  8
0
 10
78.25957489013672
 20
-1.3388526439666748
 30
138.0
 11
77.99772644042969
 21
-1.2124409675598145
 31
138.0
 12
77.7256088256836
 22
-1.0976612567901611
 32
138.0
 13
77.7256088256836
 23
-1.0976612567901611
 33
138.0
  0
3DFACE
  8
0
 10
77.7256088256836
 20
-1.0976612567901611
 30
138.0
 11
77.36573028564453
 21
-0.9543243050575256
 31
138.0
 12
76.93701171875
 22
-0.7981966137886047
 32
138.0
 13
76.93701171875
 23
-0.7981966137886047
 33
138.0
  0
3DFACE
  8
0
 10
76.25800323486328
 20
-0.5852028727531433
 30
138.0
 11
76.0792007446289
 21
-0.5252407789230347
 31
138.0
 12
75.75601959228516
 22
-0.4268626570701599
 32
138.0
 13
75.75601959228516
 23
-0.4268626570701599
 33
138.0
  0
3DFACE
  8
0
 10
77.7256088256836
 20
-1.0976612567901611
 30
138.0
 11
76.93701171875
 21
-0.7981966137886047
 31
138.0
 12
76.25800323486328
 22
-0.5852028727531433
 32
138.0
 13
76.25800323486328
 23
-0.5852028727531433
 33
138.0
  0
3DFACE
  8
0
 10
79.35823822021484
 20
-1.9259334802627563
 30
138.0
 11
78.25957489013672
 21
-1.3388526439666748
 31
138.0
 12
77.7256088256836
 22
-1.0976612567901611
 32
138.0
 13
77.7256088256836
 23
-1.0976612567901611
 33
138.0
  0
3DFACE
  8
0
 10
80.49031066894531
 20
-2.7624711990356445
 30
138.0
 11
80.02227020263672
 21
-2.397731065750122
 31
138.0
 12
79.35823822021484
 22
-1.9259334802627563
 32
138.0
 13
79.35823822021484
 23
-1.9259334802627563
 33
138.0
  0
3DFACE
  8
0
 10
81.22406768798828
 20
-3.519310712814331
 30
138.0
 11
80.86582946777344
 21
-3.133131265640259
 31
138.0
 12
80.49031066894531
 22
-2.7624711990356445
 32
138.0
 13
80.49031066894531
 23
-2.7624711990356445
 33
138.0
  0
3DFACE
  8
0
 10
81.8243637084961
 20
-4.281506538391113
 30
138.0
 11
81.65388488769531
 21
-4.052016735076904
 31
138.0
 12
81.22406768798828
 22
-3.519310712814331
 32
138.0
 13
81.22406768798828
 23
-3.519310712814331
 33
138.0
  0
3DFACE
  8
0
 10
82.30381774902344
 20
-5.050714492797852
 30
138.0
 11
82.09622955322266
 21
-4.709684371948242
 31
138.0
 12
81.8243637084961
 22
-4.281506538391113
 32
138.0
 13
81.8243637084961
 23
-4.281506538391113
 33
138.0
  0
3DFACE
  8
0
 10
82.88050842285156
 20
-6.156820774078369
 30
138.0
 11
82.71582794189453
 21
-5.81992244720459
 31
138.0
 12
82.54180145263672
 22
-5.505055904388428
 32
138.0
 13
82.54180145263672
 23
-5.505055904388428
 33
138.0
  0
3DFACE
  8
0
 10
82.54180145263672
 20
-5.505055904388428
 30
138.0
 11
82.30381774902344
 21
-5.050714492797852
 31
138.0
 12
81.8243637084961
 22
-4.281506538391113
 32
138.0
 13
81.8243637084961
 23
-4.281506538391113
 33
138.0
  0
3DFACE
  8
0
 10
81.8243637084961
 20
-4.281506538391113
 30
138.0
 11
81.22406768798828
 21
-3.519310712814331
 31
138.0
 12
80.49031066894531
 22
-2.7624711990356445
 32
138.0
 13
80.49031066894531
 23
-2.7624711990356445
 33
138.0
  0
3DFACE
  8
0
 10
80.49031066894531
 20
-2.7624711990356445
 30
138.0
 11
79.35823822021484
 21
-1.9259334802627563
 31
138.0
 12
77.7256088256836
 22
-1.0976612567901611
 32
138.0
 13
77.7256088256836
 23
-1.0976612567901611
 33
138.0
  0
3DFACE
  8
0
 10
77.7256088256836
 20
-1.0976612567901611
 30
138.0
 11
76.25800323486328
 21
-0.5852028727531433
 31
138.0
 12
75.75601959228516
 22
-0.4268626570701599
 32
138.0
 13
75.75601959228516
 23
-0.4268626570701599
 33
138.0
  0
3DFACE
  8
0
 10
75.75601959228516
 20
-0.4268626570701599
 30
138.0
 11
75.50542449951172
 21
-0.3571956753730774
 31
138.0
 12
75.35980987548828
 22
-0.33121585845947266
 32
138.0
 13
75.35980987548828
 23
-0.33121585845947266
 33
138.0
  0
3DFACE
  8
0
 10
75.35980987548828
 20
-0.33121585845947266
 30
138.0
 11
74.7927017211914
 21
-0.2383778840303421
 31
138.0
 12
74.57120513916016
 22
-0.2230842262506485
 32
138.0
 13
74.57120513916016
 23
-0.2230842262506485
 33
138.0
  0
3DFACE
  8
0
 10
74.57120513916016
 20
-0.2230842262506485
 30
138.0
 11
74.14942932128906
 21
-0.18722034990787506
 31
138.0
 12
73.92201232910156
 22
-0.17665010690689087
 32
138.0
 13
73.92201232910156
 23
-0.17665010690689087
 33
138.0
  0
3DFACE
  8
0
 10
73.92201232910156
 20
-0.17665010690689087
 30
138.0
 11
73.50618743896484
 21
-0.16962850093841553
 31
138.0
 12
72.9940185546875
 22
-0.18879877030849457
 32
138.0
 13
72.9940185546875
 23
-0.18879877030849457
 33
138.0
  0
3DFACE
  8
0
 10
72.9940185546875
 20
-0.18879877030849457
 30
138.0
 11
72.86292266845703
 21
-0.1960572451353073
 31
138.0
 12
72.21966552734375
 22
-0.2649247646331787
 32
138.0
 13
72.21966552734375
 23
-0.2649247646331787
 33
138.0
  0
3DFACE
  8
0
 10
72.21966552734375
 20
-0.2649247646331787
 30
138.0
 11
71.60465240478516
 21
-0.3787044882774353
 31
138.0
 12
71.12689971923828
 22
-0.48271289467811584
 32
138.0
 13
71.12689971923828
 23
-0.48271289467811584
 33
138.0
  0
3DFACE
  8
0
 10
71.12689971923828
 20
-0.48271289467811584
 30
138.0
 11
70.05687713623047
 21
-0.7409607768058777
 31
138.0
 12
69.64664459228516
 22
-0.8574247360229492
 32
138.0
 13
69.64664459228516
 23
-0.8574247360229492
 33
138.0
  0
3DFACE
  8
0
 10
69.64664459228516
 20
-0.8574247360229492
 30
138.0
 11
69.05101013183594
 21
-1.0522997379302979
 31
138.0
 12
69.01160430908203
 22
-1.0666289329528809
 32
138.0
 13
69.01160430908203
 23
-1.0666289329528809
 33
138.0
  0
3DFACE
  8
0
 10
69.01160430908203
 20
-1.0666289329528809
 30
138.0
 11
68.5074234008789
 21
-1.269409418106079
 31
138.0
 12
68.43914031982422
 22
-1.3014025688171387
 32
138.0
 13
68.43914031982422
 23
-1.3014025688171387
 33
138.0
  0
3DFACE
  8
0
 10
68.43914031982422
 20
-1.3014025688171387
 30
138.0
 11
67.71687316894531
 21
-1.6269373893737793
 31
138.0
 12
67.44136810302734
 22
-1.799689531326294
 32
138.0
 13
67.44136810302734
 23
-1.799689531326294
 33
138.0
  0
3DFACE
  8
0
 10
67.44136810302734
 20
-1.799689531326294
 30
138.0
 11
67.19300079345703
 21
-1.9494584798812866
 31
138.0
 12
66.83501434326172
 22
-2.185076951980591
 32
138.0
 13
66.83501434326172
 23
-2.185076951980591
 33
138.0
  0
3DFACE
  8
0
 10
66.83501434326172
 20
-2.185076951980591
 30
138.0
 11
66.68521881103516
 21
-2.2898287773132324
 31
138.0
 12
66.43309783935547
 22
-2.477285146713257
 32
138.0
 13
66.43309783935547
 23
-2.477285146713257
 33
138.0
  0
3DFACE
  8
0
 10
66.43309783935547
 20
-2.477285146713257
 30
138.0
 11
66.1948471069336
 21
-2.6715338230133057
 31
138.0
 12
65.89743041992188
 22
-2.9471821784973145
 32
138.0
 13
65.89743041992188
 23
-2.9471821784973145
 33
138.0
  0
3DFACE
  8
0
 10
65.89743041992188
 20
-2.9471821784973145
 30
138.0
 11
65.78710174560547
 21
-3.0459585189819336
 31
138.0
 12
65.10725402832031
 22
-3.780789375305176
 32
138.0
 13
65.10725402832031
 23
-3.780789375305176
 33
138.0
  0
3DFACE
  8
0
 10
65.10725402832031
 20
-3.780789375305176
 30
138.0
 11
64.70463562011719
 21
-4.274787902832031
 31
138.0
 12
64.21070861816406
 22
-5.050714492797852
 32
138.0
 13
64.21070861816406
 23
-5.050714492797852
 33
138.0
  0
3DFACE
  8
0
 10
64.20455932617188
 20
-5.063600063323975
 30
138.0
 11
63.76449966430664
 21
-5.940174579620361
 31
138.0
 12
63.557464599609375
 22
-6.4669904708862305
 32
138.0
 13
63.557464599609375
 23
-6.4669904708862305
 33
138.0
  0
3DFACE
  8
0
 10
65.10725402832031
 20
-3.780789375305176
 30
138.0
 11
64.21070861816406
 21
-5.050714492797852
 31
138.0
 12
64.20455932617188
 22
-5.063600063323975
 32
138.0
 13
64.20455932617188
 23
-5.063600063323975
 33
138.0
  0
3DFACE
  8
0
 10
66.43309783935547
 20
-2.477285146713257
 30
138.0
 11
65.89743041992188
 21
-2.9471821784973145
 31
138.0
 12
65.10725402832031
 22
-3.780789375305176
 32
138.0
 13
65.10725402832031
 23
-3.780789375305176
 33
138.0
  0
3DFACE
  8
0
 10
67.44136810302734
 20
-1.799689531326294
 30
138.0
 11
66.83501434326172
 21
-2.185076951980591
 31
138.0
 12
66.43309783935547
 22
-2.477285146713257
 32
138.0
 13
66.43309783935547
 23
-2.477285146713257
 33
138.0
  0
3DFACE
  8
0
 10
69.01160430908203
 20
-1.0666289329528809
 30
138.0
 11
68.43914031982422
 21
-1.3014025688171387
 31
138.0
 12
67.44136810302734
 22
-1.799689531326294
 32
138.0
 13
67.44136810302734
 23
-1.799689531326294
 33
138.0
  0
3DFACE
  8
0
 10
71.12689971923828
 20
-0.48271289467811584
 30
138.0
 11
69.64664459228516
 21
-0.8574247360229492
 31
138.0
 12
69.01160430908203
 22
-1.0666289329528809
 32
138.0
 13
69.01160430908203
 23
-1.0666289329528809
 33
138.0
  0
3DFACE
  8
0
 10
72.9940185546875
 20
-0.18879877030849457
 30
138.0
 11
72.21966552734375
 21
-0.2649247646331787
 31
138.0
 12
71.12689971923828
 22
-0.48271289467811584
 32
138.0
 13
71.12689971923828
 23
-0.48271289467811584
 33
138.0
  0
3DFACE
  8
0
 10
74.57120513916016
 20
-0.2230842262506485
 30
138.0
 11
73.92201232910156
 21
-0.17665010690689087
 31
138.0
 12
72.9940185546875
 22
-0.18879877030849457
 32
138.0
 13
72.9940185546875
 23
-0.18879877030849457
 33
138.0
  0
3DFACE
  8
0
 10
75.75601959228516
 20
-0.4268626570701599
 30
138.0
 11
75.35980987548828
 21
-0.33121585845947266
 31
138.0
 12
74.57120513916016
 22
-0.2230842262506485
 32
138.0
 13
74.57120513916016
 23
-0.2230842262506485
 33
138.0
  0
3DFACE
  8
0
 10
80.49031066894531
 20
-2.7624711990356445
 30
138.0
 11
77.7256088256836
 21
-1.0976612567901611
 31
138.0
 12
75.75601959228516
 22
-0.4268626570701599
 32
138.0
 13
75.75601959228516
 23
-0.4268626570701599
 33
138.0
  0
3DFACE
  8
0
 10
82.54180145263672
 20
-5.505055904388428
 30
138.0
 11
81.8243637084961
 21
-4.281506538391113
 31
138.0
 12
80.49031066894531
 22
-2.7624711990356445
 32
138.0
 13
80.49031066894531
 23
-2.7624711990356445
 33
138.0
  0
3DFACE
  8
0
 10
83.05751037597656
 20
-6.589130401611328
 30
138.0
 11
82.88050842285156
 21
-6.156820774078369
 31
138.0
 12
82.54180145263672
 22
-5.505055904388428
 32
138.0
 13
82.54180145263672
 23
-5.505055904388428
 33
138.0
  0
3DFACE
  8
0
 10
83.35614013671875
 20
-7.632598400115967
 30
138.0
 11
83.29944610595703
 21
-7.358340263366699
 31
138.0
 12
83.05751037597656
 22
-6.589130401611328
 32
138.0
 13
83.05751037597656
 23
-6.589130401611328
 33
138.0
  0
3DFACE
  8
0
 10
83.51893615722656
 20
-8.896754264831543
 30
138.0
 11
83.4465103149414
 21
-8.127547264099121
 31
138.0
 12
83.35614013671875
 22
-7.632598400115967
 32
138.0
 13
83.35614013671875
 23
-7.632598400115967
 33
138.0
  0
3DFACE
  8
0
 10
83.53511810302734
 20
-9.66596508026123
 30
138.0
 11
83.53081512451172
 21
-9.329524040222168
 31
138.0
 12
83.51893615722656
 22
-8.896754264831543
 32
138.0
 13
83.51893615722656
 23
-8.896754264831543
 33
138.0
  0
3DFACE
  8
0
 10
83.50285339355469
 20
-10.463496208190918
 30
138.0
 11
83.50664520263672
 21
-10.435172080993652
 31
138.0
 12
83.53511810302734
 22
-9.66596508026123
 32
138.0
 13
83.53511810302734
 23
-9.66596508026123
 33
138.0
  0
3DFACE
  8
0
 10
83.40666961669922
 20
-11.38897705078125
 30
138.0
 11
83.43924713134766
 21
-11.204380989074707
 31
138.0
 12
83.50285339355469
 22
-10.463496208190918
 32
138.0
 13
83.50285339355469
 23
-10.463496208190918
 33
138.0
  0
3DFACE
  8
0
 10
83.09757232666016
 20
-12.741878509521484
 30
138.0
 11
83.2923355102539
 21
-11.973589897155762
 31
138.0
 12
83.40666961669922
 22
-11.38897705078125
 32
138.0
 13
83.40666961669922
 23
-11.38897705078125
 33
138.0
  0
3DFACE
  8
0
 10
82.62085723876953
 20
-14.149910926818848
 30
138.0
 11
82.87216186523438
 21
-13.512005805969238
 31
138.0
 12
83.0093994140625
 22
-13.029382705688477
 32
138.0
 13
83.0093994140625
 23
-13.029382705688477
 33
138.0
  0
3DFACE
  8
0
 10
83.0093994140625
 20
-13.029382705688477
 30
138.0
 11
83.09757232666016
 21
-12.741878509521484
 31
138.0
 12
83.40666961669922
 22
-11.38897705078125
 32
138.0
 13
83.40666961669922
 23
-11.38897705078125
 33
138.0
  0
3DFACE
  8
0
 10
83.40666961669922
 20
-11.38897705078125
 30
138.0
 11
83.50285339355469
 21
-10.463496208190918
 31
138.0
 12
83.53511810302734
 22
-9.66596508026123
 32
138.0
 13
83.53511810302734
 23
-9.66596508026123
 33
138.0
  0
3DFACE
  8
0
 10
83.53511810302734
 20
-9.66596508026123
 30
138.0
 11
83.51893615722656
 21
-8.896754264831543
 31
138.0
 12
83.35614013671875
 22
-7.632598400115967
 32
138.0
 13
83.35614013671875
 23
-7.632598400115967
 33
138.0
  0
3DFACE
  8
0
 10
83.35614013671875
 20
-7.632598400115967
 30
138.0
 11
83.05751037597656
 21
-6.589130401611328
 31
138.0
 12
82.54180145263672
 22
-5.505055904388428
 32
138.0
 13
82.54180145263672
 23
-5.505055904388428
 33
138.0
  0
3DFACE
  8
0
 10
82.54180145263672
 20
-5.505055904388428
 30
138.0
 11
80.49031066894531
 21
-2.7624711990356445
 31
138.0
 12
75.75601959228516
 22
-0.4268626570701599
 32
138.0
 13
75.75601959228516
 23
-0.4268626570701599
 33
138.0
  0
3DFACE
  8
0
 10
75.75601959228516
 20
-0.4268626570701599
 30
138.0
 11
74.57120513916016
 21
-0.2230842262506485
 31
138.0
 12
72.9940185546875
 22
-0.18879877030849457
 32
138.0
 13
72.9940185546875
 23
-0.18879877030849457
 33
138.0
  0
3DFACE
  8
0
 10
72.9940185546875
 20
-0.18879877030849457
 30
138.0
 11
71.12689971923828
 21
-0.48271289467811584
 31
138.0
 12
69.01160430908203
 22
-1.0666289329528809
 32
138.0
 13
69.01160430908203
 23
-1.0666289329528809
 33
138.0
  0
3DFACE
  8
0
 10
69.01160430908203
 20
-1.0666289329528809
 30
138.0
 11
67.44136810302734
 21
-1.799689531326294
 31
138.0
 12
66.43309783935547
 22
-2.477285146713257
 32
138.0
 13
66.43309783935547
 23
-2.477285146713257
 33
138.0
  0
3DFACE
  8
0
 10
66.43309783935547
 20
-2.477285146713257
 30
138.0
 11
65.10725402832031
 21
-3.780789375305176
 31
138.0
 12
64.20455932617188
 22
-5.063600063323975
 32
138.0
 13
64.20455932617188
 23
-5.063600063323975
 33
138.0
  0
3DFACE
  8
0
 10
64.20455932617188
 20
-5.063600063323975
 30
138.0
 11
63.557464599609375
 21
-6.4669904708862305
 31
138.0
 12
63.504486083984375
 22
-6.589130401611328
 32
138.0
 13
63.504486083984375
 23
-6.589130401611328
 33
138.0
  0
3DFACE
  8
0
 10
63.504486083984375
 20
-6.589130401611328
 30
138.0
 11
63.23872756958008
 21
-7.358340263366699
 31
138.0
 12
63.17597961425781
 22
-7.592660903930664
 32
138.0
 13
63.17597961425781
 23
-7.592660903930664
 33
138.0
  0
3DFACE
  8
0
 10
63.114036560058594
 20
-7.840627670288086
 30
138.0
 11
63.019779205322266
 21
-8.127547264099121
 31
138.0
 12
62.902034759521484
 22
-8.641845703125
 32
138.0
 13
62.902034759521484
 23
-8.641845703125
 33
138.0
  0
3DFACE
  8
0
 10
63.504486083984375
 20
-6.589130401611328
 30
138.0
 11
63.17597961425781
 21
-7.592660903930664
 31
138.0
 12
63.114036560058594
 22
-7.840627670288086
 32
138.0
 13
63.114036560058594
 23
-7.840627670288086
 33
138.0
  0
3DFACE
  8
0
 10
66.43309783935547
 20
-2.477285146713257
 30
138.0
 11
64.20455932617188
 21
-5.063600063323975
 31
138.0
 12
63.504486083984375
 22
-6.589130401611328
 32
138.0
 13
63.504486083984375
 23
-6.589130401611328
 33
138.0
  0
3DFACE
  8
0
 10
72.9940185546875
 20
-0.18879877030849457
 30
138.0
 11
69.01160430908203
 21
-1.0666289329528809
 31
138.0
 12
66.43309783935547
 22
-2.477285146713257
 32
138.0
 13
66.43309783935547
 23
-2.477285146713257
 33
138.0
  0
3DFACE
  8
0
 10
82.54180145263672
 20
-5.505055904388428
 30
138.0
 11
75.75601959228516
 21
-0.4268626570701599
 31
138.0
 12
72.9940185546875
 22
-0.18879877030849457
 32
138.0
 13
72.9940185546875
 23
-0.18879877030849457
 33
138.0
  0
3DFACE
  8
0
 10
83.53511810302734
 20
-9.66596508026123
 30
138.0
 11
83.35614013671875
 21
-7.632598400115967
 31
138.0
 12
82.54180145263672
 22
-5.505055904388428
 32
138.0
 13
82.54180145263672
 23
-5.505055904388428
 33
138.0
  0
3DFACE
  8
0
 10
83.0093994140625
 20
-13.029382705688477
 30
138.0
 11
83.40666961669922
 21
-11.38897705078125
 31
138.0
 12
83.53511810302734
 22
-9.66596508026123
 32
138.0
 13
83.53511810302734
 23
-9.66596508026123
 33
138.0
  0
3DFACE
  8
0
 10
82.5645523071289
 20
-14.281216621398926
 30
138.0
 11
82.62085723876953
 21
-14.149910926818848
 31
138.0
 12
83.0093994140625
 22
-13.029382705688477
 32
138.0
 13
83.0093994140625
 23
-13.029382705688477
 33
138.0
  0
3DFACE
  8
0
 10
82.32550048828125
 20
-14.756831169128418
 30
138.0
 11
82.5263671875
 21
-14.363567352294922
 31
138.0
 12
82.5645523071289
 22
-14.281216621398926
 32
138.0
 13
82.5645523071289
 23
-14.281216621398926
 33
138.0
  0
3DFACE
  8
0
 10
81.87019348144531
 20
-15.568171501159668
 30
138.0
 11
82.16722869873047
 21
-15.050421714782715
 31
138.0
 12
82.32550048828125
 22
-14.756831169128418
 32
138.0
 13
82.32550048828125
 23
-14.756831169128418
 33
138.0
  0
3DFACE
  8
0
 10
81.62773132324219
 20
-15.944282531738281
 30
138.0
 11
81.77056121826172
 21
-15.727757453918457
 31
138.0
 12
81.87019348144531
 22
-15.568171501159668
 32
138.0
 13
81.87019348144531
 23
-15.568171501159668
 33
138.0
  0
3DFACE
  8
0
 10
80.81364440917969
 20
-16.960346221923828
 30
138.0
 11
81.16966247558594
 21
-16.56740379333496
 31
138.0
 12
81.62773132324219
 22
-15.944282531738281
 32
138.0
 13
81.62773132324219
 23
-15.944282531738281
 33
138.0
  0
3DFACE
  8
0
 10
79.72650146484375
 20
-18.05916404724121
 30
138.0
 11
80.6555404663086
 21
-17.146648406982422
 31
138.0
 12
80.81364440917969
 22
-16.960346221923828
 32
138.0
 13
80.81364440917969
 23
-16.960346221923828
 33
138.0
  0
3DFACE
  8
0
 10
78.95410919189453
 20
-18.71845817565918
 30
138.0
 11
79.15762329101562
 21
-18.570199966430664
 31
138.0
 12
79.69145965576172
 22
-18.088054656982422
 32
138.0
 13
79.69145965576172
 23
-18.088054656982422
 33
138.0
  0
3DFACE
  8
0
 10
79.69145965576172
 20
-18.088054656982422
 30
138.0
 11
79.72650146484375
 21
-18.05916404724121
 31
138.0
 12
80.81364440917969
 22
-16.960346221923828
 32
138.0
 13
80.81364440917969
 23
-16.960346221923828
 33
138.0
  0
3DFACE
  8
0
 10
80.81364440917969
 20
-16.960346221923828
 30
138.0
 11
81.62773132324219
 21
-15.944282531738281
 31
138.0
 12
81.87019348144531
 22
-15.568171501159668
 32
138.0
 13
81.87019348144531
 23
-15.568171501159668
 33
138.0
  0
3DFACE
  8
0
 10
81.87019348144531
 20
-15.568171501159668
 30
138.0
 11
82.32550048828125
 21
-14.756831169128418
 31
138.0
 12
82.5645523071289
 22
-14.281216621398926
 32
138.0
 13
82.5645523071289
 23
-14.281216621398926
 33
138.0
  0
3DFACE
  8
0
 10
82.5645523071289
 20
-14.281216621398926
 30
138.0
 11
83.0093994140625
 21
-13.029382705688477
 31
138.0
 12
83.53511810302734
 22
-9.66596508026123
 32
138.0
 13
83.53511810302734
 23
-9.66596508026123
 33
138.0
  0
3DFACE
  8
0
 10
83.53511810302734
 20
-9.66596508026123
 30
138.0
 11
82.54180145263672
 21
-5.505055904388428
 31
138.0
 12
72.9940185546875
 22
-0.18879877030849457
 32
138.0
 13
72.9940185546875
 23
-0.18879877030849457
 33
138.0
  0
3DFACE
  8
0
 10
72.9940185546875
 20
-0.18879877030849457
 30
138.0
 11
66.43309783935547
 21
-2.477285146713257
 31
138.0
 12
63.504486083984375
 22
-6.589130401611328
 32
138.0
 13
63.504486083984375
 23
-6.589130401611328
 33
138.0
  0
3DFACE
  8
0
 10
63.504486083984375
 20
-6.589130401611328
 30
138.0
 11
63.114036560058594
 21
-7.840627670288086
 31
138.0
 12
62.902034759521484
 22
-8.641845703125
 32
138.0
 13
62.902034759521484
 23
-8.641845703125
 33
138.0
  0
3DFACE
  8
0
 10
62.902034759521484
 20
-8.641845703125
 30
138.0
 11
62.85377883911133
 21
-8.896754264831543
 31
138.0
 12
62.73427963256836
 22
-9.66596508026123
 32
138.0
 13
62.73427963256836
 23
-9.66596508026123
 33
138.0
  0
3DFACE
  8
0
 10
62.73427963256836
 20
-9.66596508026123
 30
138.0
 11
62.6777458190918
 21
-10.435172080993652
 31
138.0
 12
62.733394622802734
 22
-11.304354667663574
 32
138.0
 13
62.733394622802734
 23
-11.304354667663574
 33
138.0
  0
3DFACE
  8
0
 10
62.733394622802734
 20
-11.304354667663574
 30
138.0
 11
62.74664306640625
 21
-11.410330772399902
 31
138.0
 12
62.799781799316406
 22
-11.68912410736084
 32
138.0
 13
62.799781799316406
 23
-11.68912410736084
 33
138.0
  0
3DFACE
  8
0
 10
62.799781799316406
 20
-11.68912410736084
 30
138.0
 11
62.954776763916016
 21
-12.742796897888184
 31
138.0
 12
63.032936096191406
 22
-13.01184368133545
 32
138.0
 13
63.032936096191406
 23
-13.01184368133545
 33
138.0
  0
3DFACE
  8
0
 10
63.032936096191406
 20
-13.01184368133545
 30
138.0
 11
63.167781829833984
 21
-13.512005805969238
 31
138.0
 12
63.33436584472656
 22
-13.945737838745117
 32
138.0
 13
63.33436584472656
 23
-13.945737838745117
 33
138.0
  0
3DFACE
  8
0
 10
63.33436584472656
 20
-13.945737838745117
 30
138.0
 11
63.44892501831055
 21
-14.281216621398926
 31
138.0
 12
63.66252517700195
 22
-14.7916841506958
 32
138.0
 13
63.66252517700195
 23
-14.7916841506958
 33
138.0
  0
3DFACE
  8
0
 10
63.66252517700195
 20
-14.7916841506958
 30
138.0
 11
63.729679107666016
 21
-14.968693733215332
 31
138.0
 12
63.76264572143555
 22
-15.050421714782715
 32
138.0
 13
63.76264572143555
 23
-15.050421714782715
 33
138.0
  0
3DFACE
  8
0
 10
63.76264572143555
 20
-15.050421714782715
 30
138.0
 11
64.17897033691406
 21
-15.819632530212402
 31
138.0
 12
64.18476104736328
 22
-15.827430725097656
 32
138.0
 13
64.18476104736328
 23
-15.827430725097656
 33
138.0
  0
3DFACE
  8
0
 10
64.18476104736328
 20
-15.827430725097656
 30
138.0
 11
64.72158813476562
 21
-16.597244262695312
 31
138.0
 12
65.05998229980469
 22
-17.00916862487793
 32
138.0
 13
65.05998229980469
 23
-17.00916862487793
 33
138.0
  0
3DFACE
  8
0
 10
65.05998229980469
 20
-17.00916862487793
 30
138.0
 11
65.39094543457031
 21
-17.367443084716797
 31
138.0
 12
65.89739227294922
 22
-17.862104415893555
 32
138.0
 13
65.89739227294922
 23
-17.862104415893555
 33
138.0
  0
3DFACE
  8
0
 10
65.89739227294922
 20
-17.862104415893555
 30
138.0
 11
66.03754425048828
 21
-18.007173538208008
 31
138.0
 12
66.42170715332031
 22
-18.378437042236328
 32
138.0
 13
66.42170715332031
 23
-18.378437042236328
 33
138.0
  0
3DFACE
  8
0
 10
66.42170715332031
 20
-18.378437042236328
 30
138.0
 11
67.47382354736328
 21
-19.258174896240234
 31
138.0
 12
67.66000366210938
 22
-19.399065017700195
 32
138.0
 13
67.66000366210938
 23
-19.399065017700195
 33
138.0
  0
3DFACE
  8
0
 10
67.66000366210938
 20
-19.399065017700195
 30
138.0
 11
68.04510498046875
 21
-19.665672302246094
 31
138.0
 12
68.3601303100586
 22
-19.86091423034668
 32
138.0
 13
68.3601303100586
 23
-19.86091423034668
 33
138.0
  0
3DFACE
  8
0
 10
68.3601303100586
 20
-19.86091423034668
 30
138.0
 11
69.00337982177734
 21
-20.198902130126953
 31
138.0
 12
69.05101013183594
 22
-20.221736907958984
 32
138.0
 13
69.05101013183594
 23
-20.221736907958984
 33
138.0
  0
3DFACE
  8
0
 10
69.05101013183594
 20
-20.221736907958984
 30
138.0
 11
69.37066650390625
 21
-20.364126205444336
 31
138.0
 12
69.57946014404297
 22
-20.43830108642578
 32
138.0
 13
69.57946014404297
 23
-20.43830108642578
 33
138.0
  0
3DFACE
  8
0
 10
69.83175659179688
 20
-20.51443099975586
 30
138.0
 11
70.2898941040039
 21
-20.661108016967773
 31
138.0
 12
70.62821960449219
 22
-20.738771438598633
 32
138.0
 13
70.62821960449219
 23
-20.738771438598633
 33
138.0
  0
3DFACE
  8
0
 10
69.05101013183594
 20
-20.221736907958984
 30
138.0
 11
69.57946014404297
 21
-20.43830108642578
 31
138.0
 12
69.83175659179688
 22
-20.51443099975586
 32
138.0
 13
69.83175659179688
 23
-20.51443099975586
 33
138.0
  0
3DFACE
  8
0
 10
67.66000366210938
 20
-19.399065017700195
 30
138.0
 11
68.3601303100586
 21
-19.86091423034668
 31
138.0
 12
69.05101013183594
 22
-20.221736907958984
 32
138.0
 13
69.05101013183594
 23
-20.221736907958984
 33
138.0
  0
3DFACE
  8
0
 10
65.89739227294922
 20
-17.862104415893555
 30
138.0
 11
66.42170715332031
 21
-18.378437042236328
 31
138.0
 12
67.66000366210938
 22
-19.399065017700195
 32
138.0
 13
67.66000366210938
 23
-19.399065017700195
 33
138.0
  0
3DFACE
  8
0
 10
64.18476104736328
 20
-15.827430725097656
 30
138.0
 11
65.05998229980469
 21
-17.00916862487793
 31
138.0
 12
65.89739227294922
 22
-17.862104415893555
 32
138.0
 13
65.89739227294922
 23
-17.862104415893555
 33
138.0
  0
3DFACE
  8
0
 10
63.66252517700195
 20
-14.7916841506958
 30
138.0
 11
63.76264572143555
 21
-15.050421714782715
 31
138.0
 12
64.18476104736328
 22
-15.827430725097656
 32
138.0
 13
64.18476104736328
 23
-15.827430725097656
 33
138.0
  0
3DFACE
  8
0
 10
63.032936096191406
 20
-13.01184368133545
 30
138.0
 11
63.33436584472656
 21
-13.945737838745117
 31
138.0
 12
63.66252517700195
 22
-14.7916841506958
 32
138.0
 13
63.66252517700195
 23
-14.7916841506958
 33
138.0
  0
3DFACE
  8
0
 10
62.733394622802734
 20
-11.304354667663574
 30
138.0
 11
62.799781799316406
 21
-11.68912410736084
 31
138.0
 12
63.032936096191406
 22
-13.01184368133545
 32
138.0
 13
63.032936096191406
 23
-13.01184368133545
 33
138.0
  0
3DFACE
  8
0
 10
62.902034759521484
 20
-8.641845703125
 30
138.0
 11
62.73427963256836
 21
-9.66596508026123
 31
138.0
 12
62.733394622802734
 22
-11.304354667663574
 32
138.0
 13
62.733394622802734
 23
-11.304354667663574
 33
138.0
  0
3DFACE
  8
0
 10
72.9940185546875
 20
-0.18879877030849457
 30
138.0
 11
63.504486083984375
 21
-6.589130401611328
 31
138.0
 12
62.902034759521484
 22
-8.641845703125
 32
138.0
 13
62.902034759521484
 23
-8.641845703125
 33
138.0
  0
3DFACE
  8
0
 10
82.5645523071289
 20
-14.281216621398926
 30
138.0
 11
83.53511810302734
 21
-9.66596508026123
 31
138.0
 12
72.9940185546875
 22
-0.18879877030849457
 32
138.0
 13
72.9940185546875
 23
-0.18879877030849457
 33
138.0
  0
3DFACE
  8
0
 10
80.81364440917969
 20
-16.960346221923828
 30
138.0
 11
81.87019348144531
 21
-15.568171501159668
 31
138.0
 12
82.5645523071289
 22
-14.281216621398926
 32
138.0
 13
82.5645523071289
 23
-14.281216621398926
 33
138.0
  0
3DFACE
  8
0
 10
78.95410919189453
 20
-18.71845817565918
 30
138.0
 11
79.69145965576172
 21
-18.088054656982422
 31
138.0
 12
80.81364440917969
 22
-16.960346221923828
 32
138.0
 13
80.81364440917969
 23
-16.960346221923828
 33
138.0
  0
3DFACE
  8
0
 10
77.64115905761719
 20
-19.721654891967773
 30
138.0
 11
77.82630920410156
 21
-19.604949951171875
 31
138.0
 12
77.93765258789062
 22
-19.497629165649414
 32
138.0
 13
77.93765258789062
 23
-19.497629165649414
 33
138.0
  0
3DFACE
  8
0
 10
77.93765258789062
 20
-19.497629165649414
 30
138.0
 11
78.95410919189453
 21
-18.71845817565918
 31
138.0
 12
80.81364440917969
 22
-16.960346221923828
 32
138.0
 13
80.81364440917969
 23
-16.960346221923828
 33
138.0
  0
3DFACE
  8
0
 10
80.81364440917969
 20
-16.960346221923828
 30
138.0
 11
82.5645523071289
 21
-14.281216621398926
 31
138.0
 12
72.9940185546875
 22
-0.18879877030849457
 32
138.0
 13
72.9940185546875
 23
-0.18879877030849457
 33
138.0
  0
3DFACE
  8
0
 10
72.9940185546875
 20
-0.18879877030849457
 30
138.0
 11
62.902034759521484
 21
-8.641845703125
 31
138.0
 12
62.733394622802734
 22
-11.304354667663574
 32
138.0
 13
62.733394622802734
 23
-11.304354667663574
 33
138.0
  0
3DFACE
  8
0
 10
62.733394622802734
 20
-11.304354667663574
 30
138.0
 11
63.032936096191406
 21
-13.01184368133545
 31
138.0
 12
63.66252517700195
 22
-14.7916841506958
 32
138.0
 13
63.66252517700195
 23
-14.7916841506958
 33
138.0
  0
3DFACE
  8
0
 10
63.66252517700195
 20
-14.7916841506958
 30
138.0
 11
64.18476104736328
 21
-15.827430725097656
 31
138.0
 12
65.89739227294922
 22
-17.862104415893555
 32
138.0
 13
65.89739227294922
 23
-17.862104415893555
 33
138.0
  0
3DFACE
  8
0
 10
65.89739227294922
 20
-17.862104415893555
 30
138.0
 11
67.66000366210938
 21
-19.399065017700195
 31
138.0
 12
69.05101013183594
 22
-20.221736907958984
 32
138.0
 13
69.05101013183594
 23
-20.221736907958984
 33
138.0
  0
3DFACE
  8
0
 10
69.05101013183594
 20
-20.221736907958984
 30
138.0
 11
69.83175659179688
 21
-20.51443099975586
 31
138.0
 12
70.62821960449219
 22
-20.738771438598633
 32
138.0
 13
70.62821960449219
 23
-20.738771438598633
 33
138.0
  0
3DFACE
  8
0
 10
70.62821960449219
 20
-20.738771438598633
 30
138.0
 11
70.93315124511719
 21
-20.797822952270508
 31
138.0
 12
71.30172729492188
 22
-20.853544235229492
 32
138.0
 13
71.30172729492188
 23
-20.853544235229492
 33
138.0
  0
3DFACE
  8
0
 10
71.30172729492188
 20
-20.853544235229492
 30
138.0
 11
72.21968841552734
 21
-20.955394744873047
 31
138.0
 12
73.12935638427734
 22
-20.993682861328125
 32
138.0
 13
73.12935638427734
 23
-20.993682861328125
 33
138.0
  0
3DFACE
  8
0
 10
73.12935638427734
 20
-20.993682861328125
 30
138.0
 11
73.490478515625
 21
-20.996448516845703
 31
138.0
 12
73.8736572265625
 22
-20.976558685302734
 32
138.0
 13
73.8736572265625
 23
-20.976558685302734
 33
138.0
  0
3DFACE
  8
0
 10
73.8736572265625
 20
-20.976558685302734
 30
138.0
 11
74.57121276855469
 21
-20.891021728515625
 31
138.0
 12
74.7927017211914
 22
-20.859453201293945
 32
138.0
 13
74.7927017211914
 23
-20.859453201293945
 33
138.0
  0
3DFACE
  8
0
 10
74.94525146484375
 20
-20.825199127197266
 30
138.0
 11
75.43594360351562
 21
-20.739137649536133
 31
138.0
 12
76.08023834228516
 22
-20.544950485229492
 32
138.0
 13
76.08023834228516
 23
-20.544950485229492
 33
138.0
  0
3DFACE
  8
0
 10
73.8736572265625
 20
-20.976558685302734
 30
138.0
 11
74.7927017211914
 21
-20.859453201293945
 31
138.0
 12
74.94525146484375
 22
-20.825199127197266
 32
138.0
 13
74.94525146484375
 23
-20.825199127197266
 33
138.0
  0
3DFACE
  8
0
 10
71.30172729492188
 20
-20.853544235229492
 30
138.0
 11
73.12935638427734
 21
-20.993682861328125
 31
138.0
 12
73.8736572265625
 22
-20.976558685302734
 32
138.0
 13
73.8736572265625
 23
-20.976558685302734
 33
138.0
  0
3DFACE
  8
0
 10
69.05101013183594
 20
-20.221736907958984
 30
138.0
 11
70.62821960449219
 21
-20.738771438598633
 31
138.0
 12
71.30172729492188
 22
-20.853544235229492
 32
138.0
 13
71.30172729492188
 23
-20.853544235229492
 33
138.0
  0
3DFACE
  8
0
 10
63.66252517700195
 20
-14.7916841506958
 30
138.0
 11
65.89739227294922
 21
-17.862104415893555
 31
138.0
 12
69.05101013183594
 22
-20.221736907958984
 32
138.0
 13
69.05101013183594
 23
-20.221736907958984
 33
138.0
  0
3DFACE
  8
0
 10
72.9940185546875
 20
-0.18879877030849457
 30
138.0
 11
62.733394622802734
 21
-11.304354667663574
 31
138.0
 12
63.66252517700195
 22
-14.7916841506958
 32
138.0
 13
63.66252517700195
 23
-14.7916841506958
 33
138.0
  0
3DFACE
  8
0
 10
77.93765258789062
 20
-19.497629165649414
 30
138.0
 11
80.81364440917969
 21
-16.960346221923828
 31
138.0
 12
72.9940185546875
 22
-0.18879877030849457
 32
138.0
 13
72.9940185546875
 23
-0.18879877030849457
 33
138.0
  0
3DFACE
  8
0
 10
77.36573028564453
 20
-19.918033599853516
 30
138.0
 11
77.64115905761719
 21
-19.721654891967773
 31
138.0
 12
77.93765258789062
 22
-19.497629165649414
 32
138.0
 13
77.93765258789062
 23
-19.497629165649414
 33
138.0
  0
3DFACE
  8
0
 10
76.72246551513672
 20
-20.248001098632812
 30
138.0
 11
76.93701171875
 21
-20.142688751220703
 31
138.0
 12
77.36573028564453
 22
-19.918033599853516
 32
138.0
 13
77.36573028564453
 23
-19.918033599853516
 33
138.0
  0
3DFACE
  8
0
 10
76.08023834228516
 20
-20.544950485229492
 30
138.0
 11
76.14839935302734
 21
-20.515146255493164
 31
138.0
 12
76.72246551513672
 22
-20.248001098632812
 32
138.0
 13
76.72246551513672
 23
-20.248001098632812
 33
138.0
  0
3DFACE
  8
0
 10
73.8736572265625
 20
-20.976558685302734
 30
138.0
 11
74.94525146484375
 21
-20.825199127197266
 31
138.0
 12
76.08023834228516
 22
-20.544950485229492
 32
138.0
 13
76.08023834228516
 23
-20.544950485229492
 33
138.0
  0
3DFACE
  8
0
 10
69.05101013183594
 20
-20.221736907958984
 30
138.0
 11
71.30172729492188
 21
-20.853544235229492
 31
138.0
 12
73.8736572265625
 22
-20.976558685302734
 32
138.0
 13
73.8736572265625
 23
-20.976558685302734
 33
138.0
  0
3DFACE
  8
0
 10
72.9940185546875
 20
-0.18879877030849457
 30
138.0
 11
63.66252517700195
 21
-14.7916841506958
 31
138.0
 12
69.05101013183594
 22
-20.221736907958984
 32
138.0
 13
69.05101013183594
 23
-20.221736907958984
 33
138.0
  0
3DFACE
  8
0
 10
77.36573028564453
 20
-19.918033599853516
 30
138.0
 11
77.93765258789062
 21
-19.497629165649414
 31
138.0
 12
72.9940185546875
 22
-0.18879877030849457
 32
138.0
 13
72.9940185546875
 23
-0.18879877030849457
 33
138.0
  0
3DFACE
  8
0
 10
76.08023834228516
 20
-20.544950485229492
 30
138.0
 11
76.72246551513672
 21
-20.248001098632812
 31
138.0
 12
77.36573028564453
 22
-19.918033599853516
 32
138.0
 13
77.36573028564453
 23
-19.918033599853516
 33
138.0
  0
3DFACE
  8
0
 10
69.05101013183594
 20
-20.221736907958984
 30
138.0
 11
73.8736572265625
 21
-20.976558685302734
 31
138.0
 12
76.08023834228516
 22
-20.544950485229492
 32
138.0
 13
76.08023834228516
 23
-20.544950485229492
 33
138.0
  0
3DFACE
  8
0
 10
77.36573028564453
 20
-19.918033599853516
 30
138.0
 11
72.9940185546875
 21
-0.18879877030849457
 31
138.0
 12
69.05101013183594
 22
-20.221736907958984
 32
138.0
 13
69.05101013183594
 23
-20.221736907958984
 33
138.0
  0
3DFACE
  8
0
 10
69.05101013183594
 20
-20.221736907958984
 30
138.0
 11
76.08023834228516
 21
-20.544950485229492
 31
138.0
 12
77.36573028564453
 22
-19.918033599853516
 32
138.0
 13
77.36573028564453
 23
-19.918033599853516
 33
138.0
  0
3DFACE
  8
0
 10
-68.20195770263672
 20
4.735841274261475
 30
138.0
 11
-69.16761779785156
 21
4.299799919128418
 31
138.0
 12
-69.26224517822266
 22
4.25115442276001
 32
138.0
 13
-69.26224517822266
 23
4.25115442276001
 33
138.0
  0
3DFACE
  8
0
 10
-69.26224517822266
 20
4.25115442276001
 30
138.0
 11
-69.35686492919922
 21
4.195316791534424
 31
138.0
 12
-69.8642807006836
 22
3.8841404914855957
 32
138.0
 13
-69.8642807006836
 23
3.8841404914855957
 33
138.0
  0
3DFACE
  8
0
 10
-69.8642807006836
 20
3.8841404914855957
 30
138.0
 11
-70.45155334472656
 21
3.541785955429077
 31
138.0
 12
-70.91783142089844
 22
3.183466911315918
 32
138.0
 13
-70.91783142089844
 23
3.183466911315918
 33
138.0
  0
3DFACE
  8
0
 10
-70.91783142089844
 20
3.183466911315918
 30
138.0
 11
-71.55310821533203
 21
2.728510856628418
 31
138.0
 12
-71.69830322265625
 22
2.6069674491882324
 32
138.0
 13
-71.69830322265625
 23
2.6069674491882324
 33
138.0
  0
3DFACE
  8
0
 10
-71.69830322265625
 20
2.6069674491882324
 30
138.0
 11
-71.87664794921875
 21
2.4446706771850586
 31
138.0
 12
-72.40436553955078
 22
1.9480323791503906
 32
138.0
 13
-72.40436553955078
 23
1.9480323791503906
 33
138.0
  0
3DFACE
  8
0
 10
-72.84062957763672
 20
1.3981772661209106
 30
138.0
 11
-73.0417251586914
 21
1.1675539016723633
 31
138.0
 12
-73.19412994384766
 22
0.9339446425437927
 32
138.0
 13
-73.19412994384766
 23
0.9339446425437927
 33
138.0
  0
3DFACE
  8
0
 10
-71.69830322265625
 20
2.6069674491882324
 30
138.0
 11
-72.40436553955078
 21
1.9480323791503906
 31
138.0
 12
-72.84062957763672
 22
1.3981772661209106
 32
138.0
 13
-72.84062957763672
 23
1.3981772661209106
 33
138.0
  0
3DFACE
  8
0
 10
-69.8642807006836
 20
3.8841404914855957
 30
138.0
 11
-70.91783142089844
 21
3.183466911315918
 31
138.0
 12
-71.69830322265625
 22
2.6069674491882324
 32
138.0
 13
-71.69830322265625
 23
2.6069674491882324
 33
138.0
  0
3DFACE
  8
0
 10
-68.20195770263672
 20
4.735841274261475
 30
138.0
 11
-69.26224517822266
 21
4.25115442276001
 31
138.0
 12
-69.8642807006836
 22
3.8841404914855957
 32
138.0
 13
-69.8642807006836
 23
3.8841404914855957
 33
138.0
  0
3DFACE
  8
0
 10
-67.03775024414062
 20
5.20009183883667
 30
138.0
 11
-67.30308532714844
 21
5.1179585456848145
 31
138.0
 12
-67.79591369628906
 22
4.900562286376953
 32
138.0
 13
-67.79591369628906
 23
4.900562286376953
 33
138.0
  0
3DFACE
  8
0
 10
-67.79591369628906
 20
4.900562286376953
 30
138.0
 11
-68.20195770263672
 21
4.735841274261475
 31
138.0
 12
-69.8642807006836
 22
3.8841404914855957
 32
138.0
 13
-69.8642807006836
 23
3.8841404914855957
 33
138.0
  0
3DFACE
  8
0
 10
-69.8642807006836
 20
3.8841404914855957
 30
138.0
 11
-71.69830322265625
 21
2.6069674491882324
 31
138.0
 12
-72.84062957763672
 22
1.3981772661209106
 32
138.0
 13
-72.84062957763672
 23
1.3981772661209106
 33
138.0
  0
3DFACE
  8
0
 10
-72.84062957763672
 20
1.3981772661209106
 30
138.0
 11
-73.19412994384766
 21
0.9339446425437927
 31
138.0
 12
-73.5524673461914
 22
0.4171365201473236
 32
138.0
 13
-73.5524673461914
 23
0.4171365201473236
 33
138.0
  0
3DFACE
  8
0
 10
-73.5524673461914
 20
0.4171365201473236
 30
138.0
 11
-73.96527862548828
 21
-0.39340299367904663
 31
138.0
 12
-74.2078857421875
 22
-0.9530424475669861
 32
138.0
 13
-74.2078857421875
 23
-0.9530424475669861
 33
138.0
  0
3DFACE
  8
0
 10
-74.2078857421875
 20
-0.9530424475669861
 30
138.0
 11
-74.29196166992188
 21
-1.1566792726516724
 31
138.0
 12
-74.53479766845703
 22
-1.954359769821167
 32
138.0
 13
-74.53479766845703
 23
-1.954359769821167
 33
138.0
  0
3DFACE
  8
0
 10
-74.53479766845703
 20
-1.954359769821167
 30
138.0
 11
-74.68707275390625
 21
-2.7348380088806152
 31
138.0
 12
-74.75930786132812
 22
-3.37890887260437
 32
138.0
 13
-74.75930786132812
 23
-3.37890887260437
 33
138.0
  0
3DFACE
  8
0
 10
-74.75930786132812
 20
-3.37890887260437
 30
138.0
 11
-74.77989959716797
 21
-3.6517248153686523
 31
138.0
 12
-74.79740905761719
 22
-4.295794486999512
 32
138.0
 13
-74.79740905761719
 23
-4.295794486999512
 33
138.0
  0
3DFACE
  8
0
 10
-74.79740905761719
 20
-4.295794486999512
 30
138.0
 11
-74.6586685180664
 21
-5.856751441955566
 31
138.0
 12
-74.64793395996094
 22
-5.9000983238220215
 32
138.0
 13
-74.64793395996094
 23
-5.9000983238220215
 33
138.0
  0
3DFACE
  8
0
 10
-74.64793395996094
 20
-5.9000983238220215
 30
138.0
 11
-74.43083953857422
 21
-6.637230396270752
 31
138.0
 12
-74.27760314941406
 22
-7.104640960693359
 32
138.0
 13
-74.27760314941406
 23
-7.104640960693359
 33
138.0
  0
3DFACE
  8
0
 10
-74.27760314941406
 20
-7.104640960693359
 30
138.0
 11
-74.16718292236328
 21
-7.417708396911621
 31
138.0
 12
-73.82232666015625
 22
-8.198186874389648
 32
138.0
 13
-73.82232666015625
 23
-8.198186874389648
 33
138.0
  0
3DFACE
  8
0
 10
-73.82232666015625
 20
-8.198186874389648
 30
138.0
 11
-73.56401062011719
 21
-8.69398307800293
 31
138.0
 12
-73.42024230957031
 22
-8.95402717590332
 32
138.0
 13
-73.42024230957031
 23
-8.95402717590332
 33
138.0
  0
3DFACE
  8
0
 10
-73.42024230957031
 20
-8.95402717590332
 30
138.0
 11
-72.68321990966797
 21
-10.03503704071045
 31
138.0
 12
-72.30130004882812
 22
-10.539621353149414
 32
138.0
 13
-72.30130004882812
 23
-10.539621353149414
 33
138.0
  0
3DFACE
  8
0
 10
-72.30130004882812
 20
-10.539621353149414
 30
138.0
 11
-72.02565002441406
 21
-10.866966247558594
 31
138.0
 12
-71.58160400390625
 22
-11.320099830627441
 32
138.0
 13
-71.58160400390625
 23
-11.320099830627441
 33
138.0
  0
3DFACE
  8
0
 10
-71.58160400390625
 20
-11.320099830627441
 30
138.0
 11
-71.48857116699219
 21
-11.404340744018555
 31
138.0
 12
-70.66504669189453
 22
-12.100580215454102
 32
138.0
 13
-70.66504669189453
 23
-12.100580215454102
 33
138.0
  0
3DFACE
  8
0
 10
-70.66504669189453
 20
-12.100580215454102
 30
138.0
 11
-70.48763275146484
 21
-12.233637809753418
 31
138.0
 12
-70.38700866699219
 22
-12.29932689666748
 32
138.0
 13
-70.38700866699219
 23
-12.29932689666748
 33
138.0
  0
3DFACE
  8
0
 10
-69.65072631835938
 20
-12.732410430908203
 30
138.0
 11
-69.4518814086914
 21
-12.853641510009766
 31
138.0
 12
-69.25777435302734
 22
-12.961165428161621
 32
138.0
 13
-69.25777435302734
 23
-12.961165428161621
 33
138.0
  0
3DFACE
  8
0
 10
-70.66504669189453
 20
-12.100580215454102
 30
138.0
 11
-70.38700866699219
 21
-12.29932689666748
 31
138.0
 12
-69.65072631835938
 22
-12.732410430908203
 32
138.0
 13
-69.65072631835938
 23
-12.732410430908203
 33
138.0
  0
3DFACE
  8
0
 10
-72.30130004882812
 20
-10.539621353149414
 30
138.0
 11
-71.58160400390625
 21
-11.320099830627441
 31
138.0
 12
-70.66504669189453
 22
-12.100580215454102
 32
138.0
 13
-70.66504669189453
 23
-12.100580215454102
 33
138.0
  0
3DFACE
  8
0
 10
-73.82232666015625
 20
-8.198186874389648
 30
138.0
 11
-73.42024230957031
 21
-8.95402717590332
 31
138.0
 12
-72.30130004882812
 22
-10.539621353149414
 32
138.0
 13
-72.30130004882812
 23
-10.539621353149414
 33
138.0
  0
3DFACE
  8
0
 10
-74.64793395996094
 20
-5.9000983238220215
 30
138.0
 11
-74.27760314941406
 21
-7.104640960693359
 31
138.0
 12
-73.82232666015625
 22
-8.198186874389648
 32
138.0
 13
-73.82232666015625
 23
-8.198186874389648
 33
138.0
  0
3DFACE
  8
0
 10
-74.75930786132812
 20
-3.37890887260437
 30
138.0
 11
-74.79740905761719
 21
-4.295794486999512
 31
138.0
 12
-74.64793395996094
 22
-5.9000983238220215
 32
138.0
 13
-74.64793395996094
 23
-5.9000983238220215
 33
138.0
  0
3DFACE
  8
0
 10
-74.2078857421875
 20
-0.9530424475669861
 30
138.0
 11
-74.53479766845703
 21
-1.954359769821167
 31
138.0
 12
-74.75930786132812
 22
-3.37890887260437
 32
138.0
 13
-74.75930786132812
 23
-3.37890887260437
 33
138.0
  0
3DFACE
  8
0
 10
-72.84062957763672
 20
1.3981772661209106
 30
138.0
 11
-73.5524673461914
 21
0.4171365201473236
 31
138.0
 12
-74.2078857421875
 22
-0.9530424475669861
 32
138.0
 13
-74.2078857421875
 23
-0.9530424475669861
 33
138.0
  0
3DFACE
  8
0
 10
-67.79591369628906
 20
4.900562286376953
 30
138.0
 11
-69.8642807006836
 21
3.8841404914855957
 31
138.0
 12
-72.84062957763672
 22
1.3981772661209106
 32
138.0
 13
-72.84062957763672
 23
1.3981772661209106
 33
138.0
  0
3DFACE
  8
0
 10
-66.77240753173828
 20
5.264256477355957
 30
138.0
 11
-67.03775024414062
 21
5.20009183883667
 31
138.0
 12
-67.79591369628906
 22
4.900562286376953
 32
138.0
 13
-67.79591369628906
 23
4.900562286376953
 33
138.0
  0
3DFACE
  8
0
 10
-66.03426361083984
 20
5.470474720001221
 30
138.0
 11
-66.2349624633789
 21
5.428789138793945
 31
138.0
 12
-66.77240753173828
 22
5.264256477355957
 32
138.0
 13
-66.77240753173828
 23
5.264256477355957
 33
138.0
  0
3DFACE
  8
0
 10
-64.67399597167969
 20
5.793974876403809
 30
138.0
 11
-64.87469482421875
 21
5.751304626464844
 31
138.0
 12
-66.03426361083984
 22
5.470474720001221
 32
138.0
 13
-66.03426361083984
 23
5.470474720001221
 33
138.0
  0
3DFACE
  8
0
 10
-64.44337463378906
 20
5.823168754577637
 30
138.0
 11
-64.67399597167969
 21
5.793974876403809
 31
138.0
 12
-66.03426361083984
 22
5.470474720001221
 32
138.0
 13
-66.03426361083984
 23
5.470474720001221
 33
138.0
  0
3DFACE
  8
0
 10
-66.03426361083984
 20
5.470474720001221
 30
138.0
 11
-66.77240753173828
 21
5.264256477355957
 31
138.0
 12
-67.79591369628906
 22
4.900562286376953
 32
138.0
 13
-67.79591369628906
 23
4.900562286376953
 33
138.0
  0
3DFACE
  8
0
 10
-67.79591369628906
 20
4.900562286376953
 30
138.0
 11
-72.84062957763672
 21
1.3981772661209106
 31
138.0
 12
-74.2078857421875
 22
-0.9530424475669861
 32
138.0
 13
-74.2078857421875
 23
-0.9530424475669861
 33
138.0
  0
3DFACE
  8
0
 10
-74.2078857421875
 20
-0.9530424475669861
 30
138.0
 11
-74.75930786132812
 21
-3.37890887260437
 31
138.0
 12
-74.64793395996094
 22
-5.9000983238220215
 32
138.0
 13
-74.64793395996094
 23
-5.9000983238220215
 33
138.0
  0
3DFACE
  8
0
 10
-74.64793395996094
 20
-5.9000983238220215
 30
138.0
 11
-73.82232666015625
 21
-8.198186874389648
 31
138.0
 12
-72.30130004882812
 22
-10.539621353149414
 32
138.0
 13
-72.30130004882812
 23
-10.539621353149414
 33
138.0
  0
3DFACE
  8
0
 10
-72.30130004882812
 20
-10.539621353149414
 30
138.0
 11
-70.66504669189453
 21
-12.100580215454102
 31
138.0
 12
-69.65072631835938
 22
-12.732410430908203
 32
138.0
 13
-69.65072631835938
 23
-12.732410430908203
 33
138.0
  0
3DFACE
  8
0
 10
-69.65072631835938
 20
-12.732410430908203
 30
138.0
 11
-69.25777435302734
 21
-12.961165428161621
 31
138.0
 12
-68.02735900878906
 22
-13.530183792114258
 32
138.0
 13
-68.02735900878906
 23
-13.530183792114258
 33
138.0
  0
3DFACE
  8
0
 10
-68.02735900878906
 20
-13.530183792114258
 30
138.0
 11
-67.72990417480469
 21
-13.661728858947754
 31
138.0
 12
-67.32440185546875
 22
-13.826035499572754
 32
138.0
 13
-67.32440185546875
 23
-13.826035499572754
 33
138.0
  0
3DFACE
  8
0
 10
-67.32440185546875
 20
-13.826035499572754
 30
138.0
 11
-65.3363265991211
 21
-14.447071075439453
 31
138.0
 12
-64.67399597167969
 22
-14.602439880371094
 32
138.0
 13
-64.67399597167969
 23
-14.602439880371094
 33
138.0
  0
3DFACE
  8
0
 10
-64.67399597167969
 20
-14.602439880371094
 30
138.0
 11
-63.893524169921875
 21
-14.737393379211426
 31
138.0
 12
-63.74251937866211
 22
-14.754250526428223
 32
138.0
 13
-63.74251937866211
 23
-14.754250526428223
 33
138.0
  0
3DFACE
  8
0
 10
-63.74251937866211
 20
-14.754250526428223
 30
138.0
 11
-63.11304473876953
 21
-14.835700988769531
 31
138.0
 12
-62.882415771484375
 22
-14.838776588439941
 32
138.0
 13
-62.882415771484375
 23
-14.838776588439941
 33
138.0
  0
3DFACE
  8
0
 10
-62.882415771484375
 20
-14.838776588439941
 30
138.0
 11
-62.332550048828125
 21
-14.875985145568848
 31
138.0
 12
-61.782711029052734
 22
-14.887171745300293
 32
138.0
 13
-61.782711029052734
 23
-14.887171745300293
 33
138.0
  0
3DFACE
  8
0
 10
-61.782711029052734
 20
-14.887171745300293
 30
138.0
 11
-61.552093505859375
 21
-14.882068634033203
 31
138.0
 12
-61.321468353271484
 22
-14.855569839477539
 32
138.0
 13
-61.321468353271484
 23
-14.855569839477539
 33
138.0
  0
3DFACE
  8
0
 10
-61.321468353271484
 20
-14.855569839477539
 30
138.0
 11
-60.7716064453125
 21
-14.824006080627441
 31
138.0
 12
-60.54098129272461
 22
-14.766167640686035
 32
138.0
 13
-60.54098129272461
 23
-14.766167640686035
 33
138.0
  0
3DFACE
  8
0
 10
-60.54098129272461
 20
-14.766167640686035
 30
138.0
 11
-59.991127014160156
 21
-14.687132835388184
 31
138.0
 12
-59.73606491088867
 22
-14.600944519042969
 32
138.0
 13
-59.73606491088867
 23
-14.600944519042969
 33
138.0
  0
3DFACE
  8
0
 10
-59.73606491088867
 20
-14.600944519042969
 30
138.0
 11
-59.182769775390625
 21
-14.451836585998535
 31
138.0
 12
-58.43016815185547
 22
-14.152565956115723
 32
138.0
 13
-58.43016815185547
 23
-14.152565956115723
 33
138.0
  0
3DFACE
  8
0
 10
-58.15745544433594
 20
-14.017864227294922
 30
138.0
 11
-57.60760498046875
 21
-13.783797264099121
 31
138.0
 12
-56.86920928955078
 22
-13.392359733581543
 32
138.0
 13
-56.86920928955078
 23
-13.392359733581543
 33
138.0
  0
3DFACE
  8
0
 10
-59.73606491088867
 20
-14.600944519042969
 30
138.0
 11
-58.43016815185547
 21
-14.152565956115723
 31
138.0
 12
-58.15745544433594
 22
-14.017864227294922
 32
138.0
 13
-58.15745544433594
 23
-14.017864227294922
 33
138.0
  0
3DFACE
  8
0
 10
-61.321468353271484
 20
-14.855569839477539
 30
138.0
 11
-60.54098129272461
 21
-14.766167640686035
 31
138.0
 12
-59.73606491088867
 22
-14.600944519042969
 32
138.0
 13
-59.73606491088867
 23
-14.600944519042969
 33
138.0
  0
3DFACE
  8
0
 10
-62.882415771484375
 20
-14.838776588439941
 30
138.0
 11
-61.782711029052734
 21
-14.887171745300293
 31
138.0
 12
-61.321468353271484
 22
-14.855569839477539
 32
138.0
 13
-61.321468353271484
 23
-14.855569839477539
 33
138.0
  0
3DFACE
  8
0
 10
-64.67399597167969
 20
-14.602439880371094
 30
138.0
 11
-63.74251937866211
 21
-14.754250526428223
 31
138.0
 12
-62.882415771484375
 22
-14.838776588439941
 32
138.0
 13
-62.882415771484375
 23
-14.838776588439941
 33
138.0
  0
3DFACE
  8
0
 10
-68.02735900878906
 20
-13.530183792114258
 30
138.0
 11
-67.32440185546875
 21
-13.826035499572754
 31
138.0
 12
-64.67399597167969
 22
-14.602439880371094
 32
138.0
 13
-64.67399597167969
 23
-14.602439880371094
 33
138.0
  0
3DFACE
  8
0
 10
-72.30130004882812
 20
-10.539621353149414
 30
138.0
 11
-69.65072631835938
 21
-12.732410430908203
 31
138.0
 12
-68.02735900878906
 22
-13.530183792114258
 32
138.0
 13
-68.02735900878906
 23
-13.530183792114258
 33
138.0
  0
3DFACE
  8
0
 10
-74.2078857421875
 20
-0.9530424475669861
 30
138.0
 11
-74.64793395996094
 21
-5.9000983238220215
 31
138.0
 12
-72.30130004882812
 22
-10.539621353149414
 32
138.0
 13
-72.30130004882812
 23
-10.539621353149414
 33
138.0
  0
3DFACE
  8
0
 10
-66.03426361083984
 20
5.470474720001221
 30
138.0
 11
-67.79591369628906
 21
4.900562286376953
 31
138.0
 12
-74.2078857421875
 22
-0.9530424475669861
 32
138.0
 13
-74.2078857421875
 23
-0.9530424475669861
 33
138.0
  0
3DFACE
  8
0
 10
-63.87670135498047
 20
5.906432628631592
 30
138.0
 11
-64.44337463378906
 21
5.823168754577637
 31
138.0
 12
-66.03426361083984
 22
5.470474720001221
 32
138.0
 13
-66.03426361083984
 23
5.470474720001221
 33
138.0
  0
3DFACE
  8
0
 10
-63.11304473876953
 20
6.011697769165039
 30
138.0
 11
-63.34366989135742
 21
5.993656158447266
 31
138.0
 12
-63.87670135498047
 22
5.906432628631592
 32
138.0
 13
-63.87670135498047
 23
5.906432628631592
 33
138.0
  0
3DFACE
  8
0
 10
-62.101932525634766
 20
6.044656753540039
 30
138.0
 11
-62.332550048828125
 21
6.040743827819824
 31
138.0
 12
-63.11304473876953
 22
6.011697769165039
 32
138.0
 13
-63.11304473876953
 23
6.011697769165039
 33
138.0
  0
3DFACE
  8
0
 10
-61.321468353271484
 20
6.065242290496826
 30
138.0
 11
-61.552093505859375
 21
6.080465316772461
 31
138.0
 12
-62.101932525634766
 22
6.044656753540039
 32
138.0
 13
-62.101932525634766
 23
6.044656753540039
 33
138.0
  0
3DFACE
  8
0
 10
-60.54098129272461
 20
6.01812219619751
 30
138.0
 11
-60.7716064453125
 21
6.048076152801514
 31
138.0
 12
-61.321468353271484
 22
6.065242290496826
 32
138.0
 13
-61.321468353271484
 23
6.065242290496826
 33
138.0
  0
3DFACE
  8
0
 10
-59.210655212402344
 20
5.869873046875
 30
138.0
 11
-59.44127655029297
 21
5.917759418487549
 31
138.0
 12
-60.54098129272461
 22
6.01812219619751
 32
138.0
 13
-60.54098129272461
 23
6.01812219619751
 33
138.0
  0
3DFACE
  8
0
 10
-58.199546813964844
 20
5.532595634460449
 30
138.0
 11
-58.43016815185547
 21
5.613575458526611
 31
138.0
 12
-58.69831466674805
 22
5.696603298187256
 32
138.0
 13
-58.69831466674805
 23
5.696603298187256
 33
138.0
  0
3DFACE
  8
0
 10
-58.69831466674805
 20
5.696603298187256
 30
138.0
 11
-59.210655212402344
 21
5.869873046875
 31
138.0
 12
-60.54098129272461
 22
6.01812219619751
 32
138.0
 13
-60.54098129272461
 23
6.01812219619751
 33
138.0
  0
3DFACE
  8
0
 10
-60.54098129272461
 20
6.01812219619751
 30
138.0
 11
-61.321468353271484
 21
6.065242290496826
 31
138.0
 12
-62.101932525634766
 22
6.044656753540039
 32
138.0
 13
-62.101932525634766
 23
6.044656753540039
 33
138.0
  0
3DFACE
  8
0
 10
-62.101932525634766
 20
6.044656753540039
 30
138.0
 11
-63.11304473876953
 21
6.011697769165039
 31
138.0
 12
-63.87670135498047
 22
5.906432628631592
 32
138.0
 13
-63.87670135498047
 23
5.906432628631592
 33
138.0
  0
3DFACE
  8
0
 10
-63.87670135498047
 20
5.906432628631592
 30
138.0
 11
-66.03426361083984
 21
5.470474720001221
 31
138.0
 12
-74.2078857421875
 22
-0.9530424475669861
 32
138.0
 13
-74.2078857421875
 23
-0.9530424475669861
 33
138.0
  0
3DFACE
  8
0
 10
-74.2078857421875
 20
-0.9530424475669861
 30
138.0
 11
-72.30130004882812
 21
-10.539621353149414
 31
138.0
 12
-68.02735900878906
 22
-13.530183792114258
 32
138.0
 13
-68.02735900878906
 23
-13.530183792114258
 33
138.0
  0
3DFACE
  8
0
 10
-68.02735900878906
 20
-13.530183792114258
 30
138.0
 11
-64.67399597167969
 21
-14.602439880371094
 31
138.0
 12
-62.882415771484375
 22
-14.838776588439941
 32
138.0
 13
-62.882415771484375
 23
-14.838776588439941
 33
138.0
  0
3DFACE
  8
0
 10
-62.882415771484375
 20
-14.838776588439941
 30
138.0
 11
-61.321468353271484
 21
-14.855569839477539
 31
138.0
 12
-59.73606491088867
 22
-14.600944519042969
 32
138.0
 13
-59.73606491088867
 23
-14.600944519042969
 33
138.0
  0
3DFACE
  8
0
 10
-59.73606491088867
 20
-14.600944519042969
 30
138.0
 11
-58.15745544433594
 21
-14.017864227294922
 31
138.0
 12
-56.86920928955078
 22
-13.392359733581543
 32
138.0
 13
-56.86920928955078
 23
-13.392359733581543
 33
138.0
  0
3DFACE
  8
0
 10
-56.6367301940918
 20
-13.24216079711914
 30
138.0
 11
-56.08687973022461
 21
-12.956963539123535
 31
138.0
 12
-55.85811233520508
 22
-12.819734573364258
 32
138.0
 13
-55.85811233520508
 23
-12.819734573364258
 33
138.0
  0
3DFACE
  8
0
 10
-59.73606491088867
 20
-14.600944519042969
 30
138.0
 11
-56.86920928955078
 21
-13.392359733581543
 31
138.0
 12
-56.6367301940918
 22
-13.24216079711914
 32
138.0
 13
-56.6367301940918
 23
-13.24216079711914
 33
138.0
  0
3DFACE
  8
0
 10
-68.02735900878906
 20
-13.530183792114258
 30
138.0
 11
-62.882415771484375
 21
-14.838776588439941
 31
138.0
 12
-59.73606491088867
 22
-14.600944519042969
 32
138.0
 13
-59.73606491088867
 23
-14.600944519042969
 33
138.0
  0
3DFACE
  8
0
 10
-63.87670135498047
 20
5.906432628631592
 30
138.0
 11
-74.2078857421875
 21
-0.9530424475669861
 31
138.0
 12
-68.02735900878906
 22
-13.530183792114258
 32
138.0
 13
-68.02735900878906
 23
-13.530183792114258
 33
138.0
  0
3DFACE
  8
0
 10
-60.54098129272461
 20
6.01812219619751
 30
138.0
 11
-62.101932525634766
 21
6.044656753540039
 31
138.0
 12
-63.87670135498047
 22
5.906432628631592
 32
138.0
 13
-63.87670135498047
 23
5.906432628631592
 33
138.0
  0
3DFACE
  8
0
 10
-58.199546813964844
 20
5.532595634460449
 30
138.0
 11
-58.69831466674805
 21
5.696603298187256
 31
138.0
 12
-60.54098129272461
 22
6.01812219619751
 32
138.0
 13
-60.54098129272461
 23
6.01812219619751
 33
138.0
  0
3DFACE
  8
0
 10
-57.489349365234375
 20
5.298610687255859
 30
138.0
 11
-57.649696350097656
 21
5.373636722564697
 31
138.0
 12
-58.199546813964844
 22
5.532595634460449
 32
138.0
 13
-58.199546813964844
 23
5.532595634460449
 33
138.0
  0
3DFACE
  8
0
 10
-56.61434555053711
 20
4.856318950653076
 30
138.0
 11
-56.94249725341797
 21
5.0684356689453125
 31
138.0
 12
-57.489349365234375
 22
5.298610687255859
 32
138.0
 13
-57.489349365234375
 23
5.298610687255859
 33
138.0
  0
3DFACE
  8
0
 10
-55.628273010253906
 20
4.314538478851318
 30
138.0
 11
-56.061485290527344
 21
4.579747200012207
 31
138.0
 12
-56.61434555053711
 22
4.856318950653076
 32
138.0
 13
-56.61434555053711
 23
4.856318950653076
 33
138.0
  0
3DFACE
  8
0
 10
-54.667388916015625
 20
3.5021183490753174
 30
138.0
 11
-55.3527717590332
 21
4.105949878692627
 31
138.0
 12
-55.628273010253906
 22
4.314538478851318
 32
138.0
 13
-55.628273010253906
 23
4.314538478851318
 33
138.0
  0
3DFACE
  8
0
 10
-53.76721954345703
 20
2.589433193206787
 30
138.0
 11
-53.887752532958984
 21
2.718024969100952
 31
138.0
 12
-54.67206573486328
 22
3.492567300796509
 32
138.0
 13
-54.67206573486328
 23
3.492567300796509
 33
138.0
  0
3DFACE
  8
0
 10
-54.67206573486328
 20
3.492567300796509
 30
138.0
 11
-54.667388916015625
 21
3.5021183490753174
 31
138.0
 12
-55.628273010253906
 22
4.314538478851318
 32
138.0
 13
-55.628273010253906
 23
4.314538478851318
 33
138.0
  0
3DFACE
  8
0
 10
-55.628273010253906
 20
4.314538478851318
 30
138.0
 11
-56.61434555053711
 21
4.856318950653076
 31
138.0
 12
-57.489349365234375
 22
5.298610687255859
 32
138.0
 13
-57.489349365234375
 23
5.298610687255859
 33
138.0
  0
3DFACE
  8
0
 10
-57.489349365234375
 20
5.298610687255859
 30
138.0
 11
-58.199546813964844
 21
5.532595634460449
 31
138.0
 12
-60.54098129272461
 22
6.01812219619751
 32
138.0
 13
-60.54098129272461
 23
6.01812219619751
 33
138.0
  0
3DFACE
  8
0
 10
-60.54098129272461
 20
6.01812219619751
 30
138.0
 11
-63.87670135498047
 21
5.906432628631592
 31
138.0
 12
-68.02735900878906
 22
-13.530183792114258
 32
138.0
 13
-68.02735900878906
 23
-13.530183792114258
 33
138.0
  0
3DFACE
  8
0
 10
-68.02735900878906
 20
-13.530183792114258
 30
138.0
 11
-59.73606491088867
 21
-14.600944519042969
 31
138.0
 12
-56.6367301940918
 22
-13.24216079711914
 32
138.0
 13
-56.6367301940918
 23
-13.24216079711914
 33
138.0
  0
3DFACE
  8
0
 10
-56.6367301940918
 20
-13.24216079711914
 30
138.0
 11
-55.85811233520508
 21
-12.819734573364258
 31
138.0
 12
-55.308258056640625
 22
-12.42461109161377
 32
138.0
 13
-55.308258056640625
 23
-12.42461109161377
 33
138.0
  0
3DFACE
  8
0
 10
-55.308258056640625
 20
-12.42461109161377
 30
138.0
 11
-54.63343811035156
 21
-11.960552215576172
 31
138.0
 12
-54.00847625732422
 22
-11.462026596069336
 32
138.0
 13
-54.00847625732422
 23
-11.462026596069336
 33
138.0
  0
3DFACE
  8
0
 10
-54.00847625732422
 20
-11.462026596069336
 30
138.0
 11
-53.79845428466797
 21
-11.275521278381348
 31
138.0
 12
-53.24118423461914
 22
-10.725927352905273
 32
138.0
 13
-53.24118423461914
 23
-10.725927352905273
 33
138.0
  0
3DFACE
  8
0
 10
-53.24118423461914
 20
-10.725927352905273
 30
138.0
 11
-53.001747131347656
 21
-10.499104499816895
 31
138.0
 12
-52.34156036376953
 22
-9.759143829345703
 32
138.0
 13
-52.34156036376953
 23
-9.759143829345703
 33
138.0
  0
3DFACE
  8
0
 10
-52.34156036376953
 20
-9.759143829345703
 30
138.0
 11
-51.9782600402832
 21
-9.209287643432617
 31
138.0
 12
-51.83927917480469
 22
-8.97866439819336
 32
138.0
 13
-51.83927917480469
 23
-8.97866439819336
 33
138.0
  0
3DFACE
  8
0
 10
-51.728126525878906
 20
-8.748041152954102
 30
138.0
 11
-51.44059753417969
 21
-8.189671516418457
 31
138.0
 12
-51.40913009643555
 22
-8.047889709472656
 32
138.0
 13
-51.40913009643555
 23
-8.047889709472656
 33
138.0
  0
3DFACE
  8
0
 10
-52.34156036376953
 20
-9.759143829345703
 30
138.0
 11
-51.83927917480469
 21
-8.97866439819336
 31
138.0
 12
-51.728126525878906
 22
-8.748041152954102
 32
138.0
 13
-51.728126525878906
 23
-8.748041152954102
 33
138.0
  0
3DFACE
  8
0
 10
-54.00847625732422
 20
-11.462026596069336
 30
138.0
 11
-53.24118423461914
 21
-10.725927352905273
 31
138.0
 12
-52.34156036376953
 22
-9.759143829345703
 32
138.0
 13
-52.34156036376953
 23
-9.759143829345703
 33
138.0
  0
3DFACE
  8
0
 10
-56.6367301940918
 20
-13.24216079711914
 30
138.0
 11
-55.308258056640625
 21
-12.42461109161377
 31
138.0
 12
-54.00847625732422
 22
-11.462026596069336
 32
138.0
 13
-54.00847625732422
 23
-11.462026596069336
 33
138.0
  0
3DFACE
  8
0
 10
-60.54098129272461
 20
6.01812219619751
 30
138.0
 11
-68.02735900878906
 21
-13.530183792114258
 31
138.0
 12
-56.6367301940918
 22
-13.24216079711914
 32
138.0
 13
-56.6367301940918
 23
-13.24216079711914
 33
138.0
  0
3DFACE
  8
0
 10
-55.628273010253906
 20
4.314538478851318
 30
138.0
 11
-57.489349365234375
 21
5.298610687255859
 31
138.0
 12
-60.54098129272461
 22
6.01812219619751
 32
138.0
 13
-60.54098129272461
 23
6.01812219619751
 33
138.0
  0
3DFACE
  8
0
 10
-53.76721954345703
 20
2.589433193206787
 30
138.0
 11
-54.67206573486328
 21
3.492567300796509
 31
138.0
 12
-55.628273010253906
 22
4.314538478851318
 32
138.0
 13
-55.628273010253906
 23
4.314538478851318
 33
138.0
  0
3DFACE
  8
0
 10
-53.00675582885742
 20
1.665086030960083
 30
138.0
 11
-53.1688346862793
 21
1.899126410484314
 31
138.0
 12
-53.68854904174805
 22
2.4890024662017822
 32
138.0
 13
-53.68854904174805
 23
2.4890024662017822
 33
138.0
  0
3DFACE
  8
0
 10
-53.68854904174805
 20
2.4890024662017822
 30
138.0
 11
-53.76721954345703
 21
2.589433193206787
 31
138.0
 12
-55.628273010253906
 22
4.314538478851318
 32
138.0
 13
-55.628273010253906
 23
4.314538478851318
 33
138.0
  0
3DFACE
  8
0
 10
-55.628273010253906
 20
4.314538478851318
 30
138.0
 11
-60.54098129272461
 21
6.01812219619751
 31
138.0
 12
-56.6367301940918
 22
-13.24216079711914
 32
138.0
 13
-56.6367301940918
 23
-13.24216079711914
 33
138.0
  0
3DFACE
  8
0
 10
-56.6367301940918
 20
-13.24216079711914
 30
138.0
 11
-54.00847625732422
 21
-11.462026596069336
 31
138.0
 12
-52.34156036376953
 22
-9.759143829345703
 32
138.0
 13
-52.34156036376953
 23
-9.759143829345703
 33
138.0
  0
3DFACE
  8
0
 10
-52.34156036376953
 20
-9.759143829345703
 30
138.0
 11
-51.728126525878906
 21
-8.748041152954102
 31
138.0
 12
-51.40913009643555
 22
-8.047889709472656
 32
138.0
 13
-51.40913009643555
 23
-8.047889709472656
 33
138.0
  0
3DFACE
  8
0
 10
-51.40913009643555
 20
-8.047889709472656
 30
138.0
 11
-51.18357467651367
 21
-7.506549835205078
 31
138.0
 12
-51.15956497192383
 22
-7.417708396911621
 32
138.0
 13
-51.15956497192383
 23
-7.417708396911621
 33
138.0
  0
3DFACE
  8
0
 10
-51.15956497192383
 20
-7.417708396911621
 30
138.0
 11
-51.079219818115234
 21
-7.187085151672363
 31
138.0
 12
-50.90613555908203
 22
-6.637230396270752
 32
138.0
 13
-50.90613555908203
 23
-6.637230396270752
 33
138.0
  0
3DFACE
  8
0
 10
-50.8850212097168
 20
-6.406607151031494
 30
138.0
 11
-50.74934005737305
 21
-5.626128196716309
 31
138.0
 12
-50.69635772705078
 22
-5.076273441314697
 32
138.0
 13
-50.69635772705078
 23
-5.076273441314697
 33
138.0
  0
3DFACE
  8
0
 10
-51.15956497192383
 20
-7.417708396911621
 30
138.0
 11
-50.90613555908203
 21
-6.637230396270752
 31
138.0
 12
-50.8850212097168
 22
-6.406607151031494
 32
138.0
 13
-50.8850212097168
 23
-6.406607151031494
 33
138.0
  0
3DFACE
  8
0
 10
-52.34156036376953
 20
-9.759143829345703
 30
138.0
 11
-51.40913009643555
 21
-8.047889709472656
 31
138.0
 12
-51.15956497192383
 22
-7.417708396911621
 32
138.0
 13
-51.15956497192383
 23
-7.417708396911621
 33
138.0
  0
3DFACE
  8
0
 10
-55.628273010253906
 20
4.314538478851318
 30
138.0
 11
-56.6367301940918
 21
-13.24216079711914
 31
138.0
 12
-52.34156036376953
 22
-9.759143829345703
 32
138.0
 13
-52.34156036376953
 23
-9.759143829345703
 33
138.0
  0
3DFACE
  8
0
 10
-53.00675582885742
 20
1.665086030960083
 30
138.0
 11
-53.68854904174805
 21
2.4890024662017822
 31
138.0
 12
-55.628273010253906
 22
4.314538478851318
 32
138.0
 13
-55.628273010253906
 23
4.314538478851318
 33
138.0
  0
3DFACE
  8
0
 10
-52.39490509033203
 20
0.7959581017494202
 30
138.0
 11
-52.62779235839844
 21
1.1641368865966797
 31
138.0
 12
-53.00675582885742
 22
1.665086030960083
 32
138.0
 13
-53.00675582885742
 23
1.665086030960083
 33
138.0
  0
3DFACE
  8
0
 10
-51.98936080932617
 20
0.1564522087574005
 30
138.0
 11
-52.332252502441406
 21
0.7063072919845581
 31
138.0
 12
-52.39490509033203
 22
0.7959581017494202
 32
138.0
 13
-52.39490509033203
 23
0.7959581017494202
 33
138.0
  0
3DFACE
  8
0
 10
-51.638221740722656
 20
-0.6240261793136597
 30
138.0
 11
-51.7347412109375
 21
-0.39340299367904663
 31
138.0
 12
-51.98936080932617
 22
0.1564522087574005
 32
138.0
 13
-51.98936080932617
 23
0.1564522087574005
 33
138.0
  0
3DFACE
  8
0
 10
-51.310726165771484
 20
-1.3914769887924194
 30
138.0
 11
-51.388343811035156
 21
-1.1738810539245605
 31
138.0
 12
-51.638221740722656
 22
-0.6240261793136597
 32
138.0
 13
-51.638221740722656
 23
-0.6240261793136597
 33
138.0
  0
3DFACE
  8
0
 10
-50.93209457397461
 20
-2.491187334060669
 30
138.0
 11
-51.0555419921875
 21
-1.9413323402404785
 31
138.0
 12
-51.310726165771484
 22
-1.3914769887924194
 32
138.0
 13
-51.310726165771484
 23
-1.3914769887924194
 33
138.0
  0
3DFACE
  8
0
 10
-50.80259704589844
 20
-3.284693479537964
 30
138.0
 11
-50.84649658203125
 21
-2.7348380088806152
 31
138.0
 12
-50.93209457397461
 22
-2.491187334060669
 32
138.0
 13
-50.93209457397461
 23
-2.491187334060669
 33
138.0
  0
3DFACE
  8
0
 10
-50.7150764465332
 20
-4.059080123901367
 30
138.0
 11
-50.74715805053711
 21
-3.515316963195801
 31
138.0
 12
-50.80259704589844
 22
-3.284693479537964
 32
138.0
 13
-50.80259704589844
 23
-3.284693479537964
 33
138.0
  0
3DFACE
  8
0
 10
-50.70726013183594
 20
-4.842305660247803
 30
138.0
 11
-50.7095947265625
 21
-4.295794486999512
 31
138.0
 12
-50.7150764465332
 22
-4.059080123901367
 32
138.0
 13
-50.7150764465332
 23
-4.059080123901367
 33
138.0
  0
3DFACE
  8
0
 10
-50.8850212097168
 20
-6.406607151031494
 30
138.0
 11
-50.69635772705078
 21
-5.076273441314697
 31
138.0
 12
-50.70726013183594
 22
-4.842305660247803
 32
138.0
 13
-50.70726013183594
 23
-4.842305660247803
 33
138.0
  0
3DFACE
  8
0
 10
-52.34156036376953
 20
-9.759143829345703
 30
138.0
 11
-51.15956497192383
 21
-7.417708396911621
 31
138.0
 12
-50.8850212097168
 22
-6.406607151031494
 32
138.0
 13
-50.8850212097168
 23
-6.406607151031494
 33
138.0
  0
3DFACE
  8
0
 10
-53.00675582885742
 20
1.665086030960083
 30
138.0
 11
-55.628273010253906
 21
4.314538478851318
 31
138.0
 12
-52.34156036376953
 22
-9.759143829345703
 32
138.0
 13
-52.34156036376953
 23
-9.759143829345703
 33
138.0
  0
3DFACE
  8
0
 10
-51.98936080932617
 20
0.1564522087574005
 30
138.0
 11
-52.39490509033203
 21
0.7959581017494202
 31
138.0
 12
-53.00675582885742
 22
1.665086030960083
 32
138.0
 13
-53.00675582885742
 23
1.665086030960083
 33
138.0
  0
3DFACE
  8
0
 10
-51.310726165771484
 20
-1.3914769887924194
 30
138.0
 11
-51.638221740722656
 21
-0.6240261793136597
 31
138.0
 12
-51.98936080932617
 22
0.1564522087574005
 32
138.0
 13
-51.98936080932617
 23
0.1564522087574005
 33
138.0
  0
3DFACE
  8
0
 10
-50.80259704589844
 20
-3.284693479537964
 30
138.0
 11
-50.93209457397461
 21
-2.491187334060669
 31
138.0
 12
-51.310726165771484
 22
-1.3914769887924194
 32
138.0
 13
-51.310726165771484
 23
-1.3914769887924194
 33
138.0
  0
3DFACE
  8
0
 10
-50.70726013183594
 20
-4.842305660247803
 30
138.0
 11
-50.7150764465332
 21
-4.059080123901367
 31
138.0
 12
-50.80259704589844
 22
-3.284693479537964
 32
138.0
 13
-50.80259704589844
 23
-3.284693479537964
 33
138.0
  0
3DFACE
  8
0
 10
-52.34156036376953
 20
-9.759143829345703
 30
138.0
 11
-50.8850212097168
 21
-6.406607151031494
 31
138.0
 12
-50.70726013183594
 22
-4.842305660247803
 32
138.0
 13
-50.70726013183594
 23
-4.842305660247803
 33
138.0
  0
3DFACE
  8
0
 10
-51.98936080932617
 20
0.1564522087574005
 30
138.0
 11
-53.00675582885742
 21
1.665086030960083
 31
138.0
 12
-52.34156036376953
 22
-9.759143829345703
 32
138.0
 13
-52.34156036376953
 23
-9.759143829345703
 33
138.0
  0
3DFACE
  8
0
 10
-50.80259704589844
 20
-3.284693479537964
 30
138.0
 11
-51.310726165771484
 21
-1.3914769887924194
 31
138.0
 12
-51.98936080932617
 22
0.1564522087574005
 32
138.0
 13
-51.98936080932617
 23
0.1564522087574005
 33
138.0
  0
3DFACE
  8
0
 10
-52.34156036376953
 20
-9.759143829345703
 30
138.0
 11
-50.70726013183594
 21
-4.842305660247803
 31
138.0
 12
-50.80259704589844
 22
-3.284693479537964
 32
138.0
 13
-50.80259704589844
 23
-3.284693479537964
 33
138.0
  0
3DFACE
  8
0
 10
-52.34156036376953
 20
-9.759143829345703
 30
138.0
 11
-50.80259704589844
 21
-3.284693479537964
 31
138.0
 12
-51.98936080932617
 22
0.1564522087574005
 32
138.0
 13
-51.98936080932617
 23
0.1564522087574005
 33
138.0
  0
3DFACE
  8
0
 10
-41.87860107421875
 20
57.847389221191406
 30
138.0
 11
-41.880672454833984
 21
57.84852600097656
 31
138.0
 12
-42.720272064208984
 22
58.20835494995117
 32
138.0
 13
-42.720272064208984
 23
58.20835494995117
 33
138.0
  0
3DFACE
  8
0
 10
-43.181209564208984
 20
58.35618591308594
 30
138.0
 11
-43.55434036254883
 21
58.488285064697266
 31
138.0
 12
-44.382259368896484
 22
58.67899703979492
 32
138.0
 13
-44.382259368896484
 23
58.67899703979492
 33
138.0
  0
3DFACE
  8
0
 10
-41.87860107421875
 20
57.847389221191406
 30
138.0
 11
-42.720272064208984
 21
58.20835494995117
 31
138.0
 12
-43.181209564208984
 22
58.35618591308594
 32
138.0
 13
-43.181209564208984
 23
58.35618591308594
 33
138.0
  0
3DFACE
  8
0
 10
-40.13945388793945
 20
56.85457229614258
 30
138.0
 11
-40.98659133911133
 21
57.40251541137695
 31
138.0
 12
-41.87860107421875
 22
57.847389221191406
 32
138.0
 13
-41.87860107421875
 23
57.847389221191406
 33
138.0
  0
3DFACE
  8
0
 10
-39.362281799316406
 20
56.22401809692383
 30
138.0
 11
-39.75811767578125
 21
56.56819152832031
 31
138.0
 12
-40.13945388793945
 22
56.85457229614258
 32
138.0
 13
-40.13945388793945
 23
56.85457229614258
 33
138.0
  0
3DFACE
  8
0
 10
-38.52135467529297
 20
55.35926055908203
 30
138.0
 11
-39.106082916259766
 21
55.986480712890625
 31
138.0
 12
-39.362281799316406
 22
56.22401809692383
 32
138.0
 13
-39.362281799316406
 23
56.22401809692383
 33
138.0
  0
3DFACE
  8
0
 10
-37.42351531982422
 20
53.87858200073242
 30
138.0
 11
-38.50814437866211
 21
55.342830657958984
 31
138.0
 12
-38.52135467529297
 22
55.35926055908203
 32
138.0
 13
-38.52135467529297
 23
55.35926055908203
 33
138.0
  0
3DFACE
  8
0
 10
-36.60850143432617
 20
52.23530960083008
 30
138.0
 11
-37.038021087646484
 21
53.185733795166016
 31
138.0
 12
-37.42351531982422
 22
53.87858200073242
 32
138.0
 13
-37.42351531982422
 23
53.87858200073242
 33
138.0
  0
3DFACE
  8
0
 10
-36.12815475463867
 20
50.63890838623047
 30
138.0
 11
-36.31476974487305
 21
51.38984298706055
 31
138.0
 12
-36.38094711303711
 22
51.570560455322266
 32
138.0
 13
-36.38094711303711
 23
51.570560455322266
 33
138.0
  0
3DFACE
  8
0
 10
-36.38094711303711
 20
51.570560455322266
 30
138.0
 11
-36.60850143432617
 21
52.23530960083008
 31
138.0
 12
-37.42351531982422
 22
53.87858200073242
 32
138.0
 13
-37.42351531982422
 23
53.87858200073242
 33
138.0
  0
3DFACE
  8
0
 10
-37.42351531982422
 20
53.87858200073242
 30
138.0
 11
-38.52135467529297
 21
55.35926055908203
 31
138.0
 12
-39.362281799316406
 22
56.22401809692383
 32
138.0
 13
-39.362281799316406
 23
56.22401809692383
 33
138.0
  0
3DFACE
  8
0
 10
-39.362281799316406
 20
56.22401809692383
 30
138.0
 11
-40.13945388793945
 21
56.85457229614258
 31
138.0
 12
-41.87860107421875
 22
57.847389221191406
 32
138.0
 13
-41.87860107421875
 23
57.847389221191406
 33
138.0
  0
3DFACE
  8
0
 10
-41.87860107421875
 20
57.847389221191406
 30
138.0
 11
-43.181209564208984
 21
58.35618591308594
 31
138.0
 12
-44.382259368896484
 22
58.67899703979492
 32
138.0
 13
-44.382259368896484
 23
58.67899703979492
 33
138.0
  0
3DFACE
  8
0
 10
-44.43852233886719
 20
58.685150146484375
 30
138.0
 11
-45.20539093017578
 21
58.80054473876953
 31
138.0
 12
-45.72549819946289
 22
58.829376220703125
 32
138.0
 13
-45.72549819946289
 23
58.829376220703125
 33
138.0
  0
3DFACE
  8
0
 10
-41.87860107421875
 20
57.847389221191406
 30
138.0
 11
-44.382259368896484
 21
58.67899703979492
 31
138.0
 12
-44.43852233886719
 22
58.685150146484375
 32
138.0
 13
-44.43852233886719
 23
58.685150146484375
 33
138.0
  0
3DFACE
  8
0
 10
-37.42351531982422
 20
53.87858200073242
 30
138.0
 11
-39.362281799316406
 21
56.22401809692383
 31
138.0
 12
-41.87860107421875
 22
57.847389221191406
 32
138.0
 13
-41.87860107421875
 23
57.847389221191406
 33
138.0
  0
3DFACE
  8
0
 10
-36.12815475463867
 20
50.63890838623047
 30
138.0
 11
-36.38094711303711
 21
51.570560455322266
 31
138.0
 12
-37.42351531982422
 22
53.87858200073242
 32
138.0
 13
-37.42351531982422
 23
53.87858200073242
 33
138.0
  0
3DFACE
  8
0
 10
-35.971923828125
 20
49.834346771240234
 30
138.0
 11
-36.0272331237793
 21
50.152217864990234
 31
138.0
 12
-36.12815475463867
 22
50.63890838623047
 32
138.0
 13
-36.12815475463867
 23
50.63890838623047
 33
138.0
  0
3DFACE
  8
0
 10
-35.86977005004883
 20
49.029808044433594
 30
138.0
 11
-35.911800384521484
 21
49.5317497253418
 31
138.0
 12
-35.971923828125
 22
49.834346771240234
 32
138.0
 13
-35.971923828125
 23
49.834346771240234
 33
138.0
  0
3DFACE
  8
0
 10
-35.81943130493164
 20
48.225257873535156
 30
138.0
 11
-35.8193244934082
 21
48.242305755615234
 31
138.0
 12
-35.86977005004883
 22
49.029808044433594
 32
138.0
 13
-35.86977005004883
 23
49.029808044433594
 33
138.0
  0
3DFACE
  8
0
 10
-35.935264587402344
 20
46.91542053222656
 30
138.0
 11
-35.837528228759766
 21
47.79508590698242
 31
138.0
 12
-35.81943130493164
 22
48.225257873535156
 32
138.0
 13
-35.81943130493164
 23
48.225257873535156
 33
138.0
  0
3DFACE
  8
0
 10
-36.00679016113281
 20
46.24324035644531
 30
138.0
 11
-35.9376106262207
 21
46.616153717041016
 31
138.0
 12
-35.935264587402344
 22
46.91542053222656
 32
138.0
 13
-35.935264587402344
 23
46.91542053222656
 33
138.0
  0
3DFACE
  8
0
 10
-36.390647888183594
 20
45.00704574584961
 30
138.0
 11
-36.15348815917969
 21
45.713260650634766
 31
138.0
 12
-36.00679016113281
 22
46.24324035644531
 32
138.0
 13
-36.00679016113281
 23
46.24324035644531
 33
138.0
  0
3DFACE
  8
0
 10
-36.84307098388672
 20
43.994384765625
 30
138.0
 11
-36.739471435546875
 21
44.193702697753906
 31
138.0
 12
-36.65107727050781
 22
44.41434097290039
 32
138.0
 13
-36.65107727050781
 23
44.41434097290039
 33
138.0
  0
3DFACE
  8
0
 10
-36.65107727050781
 20
44.41434097290039
 30
138.0
 11
-36.390647888183594
 21
45.00704574584961
 31
138.0
 12
-36.00679016113281
 22
46.24324035644531
 32
138.0
 13
-36.00679016113281
 23
46.24324035644531
 33
138.0
  0
3DFACE
  8
0
 10
-36.00679016113281
 20
46.24324035644531
 30
138.0
 11
-35.935264587402344
 21
46.91542053222656
 31
138.0
 12
-35.81943130493164
 22
48.225257873535156
 32
138.0
 13
-35.81943130493164
 23
48.225257873535156
 33
138.0
  0
3DFACE
  8
0
 10
-35.81943130493164
 20
48.225257873535156
 30
138.0
 11
-35.86977005004883
 21
49.029808044433594
 31
138.0
 12
-35.971923828125
 22
49.834346771240234
 32
138.0
 13
-35.971923828125
 23
49.834346771240234
 33
138.0
  0
3DFACE
  8
0
 10
-35.971923828125
 20
49.834346771240234
 30
138.0
 11
-36.12815475463867
 21
50.63890838623047
 31
138.0
 12
-37.42351531982422
 22
53.87858200073242
 32
138.0
 13
-37.42351531982422
 23
53.87858200073242
 33
138.0
  0
3DFACE
  8
0
 10
-37.42351531982422
 20
53.87858200073242
 30
138.0
 11
-41.87860107421875
 21
57.847389221191406
 31
138.0
 12
-44.43852233886719
 22
58.685150146484375
 32
138.0
 13
-44.43852233886719
 23
58.685150146484375
 33
138.0
  0
3DFACE
  8
0
 10
-44.43852233886719
 20
58.685150146484375
 30
138.0
 11
-45.72549819946289
 21
58.829376220703125
 31
138.0
 12
-46.04764175415039
 22
58.85468673706055
 32
138.0
 13
-46.04764175415039
 23
58.85468673706055
 33
138.0
  0
3DFACE
  8
0
 10
-46.04764175415039
 20
58.85468673706055
 30
138.0
 11
-46.225093841552734
 21
58.85907745361328
 31
138.0
 12
-46.838722229003906
 22
58.85651397705078
 32
138.0
 13
-46.838722229003906
 23
58.85651397705078
 33
138.0
  0
3DFACE
  8
0
 10
-46.838722229003906
 20
58.85651397705078
 30
138.0
 11
-47.05720138549805
 21
58.839473724365234
 31
138.0
 12
-47.647422790527344
 22
58.769378662109375
 32
138.0
 13
-47.647422790527344
 23
58.769378662109375
 33
138.0
  0
3DFACE
  8
0
 10
-47.890377044677734
 20
58.71245574951172
 30
138.0
 11
-48.45249938964844
 21
58.629669189453125
 31
138.0
 12
-48.99558639526367
 22
58.474761962890625
 32
138.0
 13
-48.99558639526367
 23
58.474761962890625
 33
138.0
  0
3DFACE
  8
0
 10
-46.838722229003906
 20
58.85651397705078
 30
138.0
 11
-47.647422790527344
 21
58.769378662109375
 31
138.0
 12
-47.890377044677734
 22
58.71245574951172
 32
138.0
 13
-47.890377044677734
 23
58.71245574951172
 33
138.0
  0
3DFACE
  8
0
 10
-44.43852233886719
 20
58.685150146484375
 30
138.0
 11
-46.04764175415039
 21
58.85468673706055
 31
138.0
 12
-46.838722229003906
 22
58.85651397705078
 32
138.0
 13
-46.838722229003906
 23
58.85651397705078
 33
138.0
  0
3DFACE
  8
0
 10
-35.971923828125
 20
49.834346771240234
 30
138.0
 11
-37.42351531982422
 21
53.87858200073242
 31
138.0
 12
-44.43852233886719
 22
58.685150146484375
 32
138.0
 13
-44.43852233886719
 23
58.685150146484375
 33
138.0
  0
3DFACE
  8
0
 10
-36.00679016113281
 20
46.24324035644531
 30
138.0
 11
-35.81943130493164
 21
48.225257873535156
 31
138.0
 12
-35.971923828125
 22
49.834346771240234
 32
138.0
 13
-35.971923828125
 23
49.834346771240234
 33
138.0
  0
3DFACE
  8
0
 10
-36.84307098388672
 20
43.994384765625
 30
138.0
 11
-36.65107727050781
 21
44.41434097290039
 31
138.0
 12
-36.00679016113281
 22
46.24324035644531
 32
138.0
 13
-36.00679016113281
 23
46.24324035644531
 33
138.0
  0
3DFACE
  8
0
 10
-37.581085205078125
 20
42.79294967651367
 30
138.0
 11
-37.17869186401367
 21
43.397945404052734
 31
138.0
 12
-36.84307098388672
 22
43.994384765625
 32
138.0
 13
-36.84307098388672
 23
43.994384765625
 33
138.0
  0
3DFACE
  8
0
 10
-38.33235549926758
 20
41.874839782714844
 30
138.0
 11
-37.65241622924805
 21
42.70096206665039
 31
138.0
 12
-37.581085205078125
 22
42.79294967651367
 32
138.0
 13
-37.581085205078125
 23
42.79294967651367
 33
138.0
  0
3DFACE
  8
0
 10
-39.0951042175293
 20
41.122703552246094
 30
138.0
 11
-38.41087341308594
 21
41.78884506225586
 31
138.0
 12
-38.33235549926758
 22
41.874839782714844
 32
138.0
 13
-38.33235549926758
 23
41.874839782714844
 33
138.0
  0
3DFACE
  8
0
 10
-39.86414337158203
 20
40.461936950683594
 30
138.0
 11
-39.24650192260742
 21
40.98429870605469
 31
138.0
 12
-39.0951042175293
 22
41.122703552246094
 32
138.0
 13
-39.0951042175293
 23
41.122703552246094
 33
138.0
  0
3DFACE
  8
0
 10
-41.42155075073242
 20
39.41941833496094
 30
138.0
 11
-40.6406135559082
 21
39.908206939697266
 31
138.0
 12
-40.2251091003418
 22
40.22657775878906
 32
138.0
 13
-40.2251091003418
 23
40.22657775878906
 33
138.0
  0
3DFACE
  8
0
 10
-40.2251091003418
 20
40.22657775878906
 30
138.0
 11
-39.86414337158203
 21
40.461936950683594
 31
138.0
 12
-39.0951042175293
 22
41.122703552246094
 32
138.0
 13
-39.0951042175293
 23
41.122703552246094
 33
138.0
  0
3DFACE
  8
0
 10
-39.0951042175293
 20
41.122703552246094
 30
138.0
 11
-38.33235549926758
 21
41.874839782714844
 31
138.0
 12
-37.581085205078125
 22
42.79294967651367
 32
138.0
 13
-37.581085205078125
 23
42.79294967651367
 33
138.0
  0
3DFACE
  8
0
 10
-37.581085205078125
 20
42.79294967651367
 30
138.0
 11
-36.84307098388672
 21
43.994384765625
 31
138.0
 12
-36.00679016113281
 22
46.24324035644531
 32
138.0
 13
-36.00679016113281
 23
46.24324035644531
 33
138.0
  0
3DFACE
  8
0
 10
-36.00679016113281
 20
46.24324035644531
 30
138.0
 11
-35.971923828125
 21
49.834346771240234
 31
138.0
 12
-44.43852233886719
 22
58.685150146484375
 32
138.0
 13
-44.43852233886719
 23
58.685150146484375
 33
138.0
  0
3DFACE
  8
0
 10
-44.43852233886719
 20
58.685150146484375
 30
138.0
 11
-46.838722229003906
 21
58.85651397705078
 31
138.0
 12
-47.890377044677734
 22
58.71245574951172
 32
138.0
 13
-47.890377044677734
 23
58.71245574951172
 33
138.0
  0
3DFACE
  8
0
 10
-47.890377044677734
 20
58.71245574951172
 30
138.0
 11
-48.99558639526367
 21
58.474761962890625
 31
138.0
 12
-49.250999450683594
 22
58.39494323730469
 32
138.0
 13
-49.250999450683594
 23
58.39494323730469
 33
138.0
  0
3DFACE
  8
0
 10
-49.922882080078125
 20
58.08742904663086
 30
138.0
 11
-50.12059783935547
 21
58.00834274291992
 31
138.0
 12
-50.8294563293457
 22
57.657196044921875
 32
138.0
 13
-50.8294563293457
 23
57.657196044921875
 33
138.0
  0
3DFACE
  8
0
 10
-47.890377044677734
 20
58.71245574951172
 30
138.0
 11
-49.250999450683594
 21
58.39494323730469
 31
138.0
 12
-49.922882080078125
 22
58.08742904663086
 32
138.0
 13
-49.922882080078125
 23
58.08742904663086
 33
138.0
  0
3DFACE
  8
0
 10
-36.00679016113281
 20
46.24324035644531
 30
138.0
 11
-44.43852233886719
 21
58.685150146484375
 31
138.0
 12
-47.890377044677734
 22
58.71245574951172
 32
138.0
 13
-47.890377044677734
 23
58.71245574951172
 33
138.0
  0
3DFACE
  8
0
 10
-39.0951042175293
 20
41.122703552246094
 30
138.0
 11
-37.581085205078125
 21
42.79294967651367
 31
138.0
 12
-36.00679016113281
 22
46.24324035644531
 32
138.0
 13
-36.00679016113281
 23
46.24324035644531
 33
138.0
  0
3DFACE
  8
0
 10
-41.42155075073242
 20
39.41941833496094
 30
138.0
 11
-40.2251091003418
 21
40.22657775878906
 31
138.0
 12
-39.0951042175293
 22
41.122703552246094
 32
138.0
 13
-39.0951042175293
 23
41.122703552246094
 33
138.0
  0
3DFACE
  8
0
 10
-42.21042251586914
 20
39.04535675048828
 30
138.0
 11
-41.49537658691406
 21
39.38006591796875
 31
138.0
 12
-41.42155075073242
 22
39.41941833496094
 32
138.0
 13
-41.42155075073242
 23
39.41941833496094
 33
138.0
  0
3DFACE
  8
0
 10
-43.004459381103516
 20
38.7459716796875
 30
138.0
 11
-42.509071350097656
 21
38.91826248168945
 31
138.0
 12
-42.21042251586914
 22
39.04535675048828
 32
138.0
 13
-42.21042251586914
 23
39.04535675048828
 33
138.0
  0
3DFACE
  8
0
 10
-43.80667495727539
 20
38.56486511230469
 30
138.0
 11
-43.7169189453125
 21
38.58348083496094
 31
138.0
 12
-43.004459381103516
 22
38.7459716796875
 32
138.0
 13
-43.004459381103516
 23
38.7459716796875
 33
138.0
  0
3DFACE
  8
0
 10
-44.931549072265625
 20
38.42140579223633
 30
138.0
 11
-44.61301803588867
 21
38.44365692138672
 31
138.0
 12
-43.82489776611328
 22
38.56331253051758
 32
138.0
 13
-43.82489776611328
 23
38.56331253051758
 33
138.0
  0
3DFACE
  8
0
 10
-43.82489776611328
 20
38.56331253051758
 30
138.0
 11
-43.80667495727539
 21
38.56486511230469
 31
138.0
 12
-43.004459381103516
 22
38.7459716796875
 32
138.0
 13
-43.004459381103516
 23
38.7459716796875
 33
138.0
  0
3DFACE
  8
0
 10
-43.004459381103516
 20
38.7459716796875
 30
138.0
 11
-42.21042251586914
 21
39.04535675048828
 31
138.0
 12
-41.42155075073242
 22
39.41941833496094
 32
138.0
 13
-41.42155075073242
 23
39.41941833496094
 33
138.0
  0
3DFACE
  8
0
 10
-41.42155075073242
 20
39.41941833496094
 30
138.0
 11
-39.0951042175293
 21
41.122703552246094
 31
138.0
 12
-36.00679016113281
 22
46.24324035644531
 32
138.0
 13
-36.00679016113281
 23
46.24324035644531
 33
138.0
  0
3DFACE
  8
0
 10
-36.00679016113281
 20
46.24324035644531
 30
138.0
 11
-47.890377044677734
 21
58.71245574951172
 31
138.0
 12
-49.922882080078125
 22
58.08742904663086
 32
138.0
 13
-49.922882080078125
 23
58.08742904663086
 33
138.0
  0
3DFACE
  8
0
 10
-49.922882080078125
 20
58.08742904663086
 30
138.0
 11
-50.8294563293457
 21
57.657196044921875
 31
138.0
 12
-51.18482971191406
 22
57.44099807739258
 32
138.0
 13
-51.18482971191406
 23
57.44099807739258
 33
138.0
  0
3DFACE
  8
0
 10
-51.18482971191406
 20
57.44099807739258
 30
138.0
 11
-52.381935119628906
 21
56.543418884277344
 31
138.0
 12
-52.658897399902344
 22
56.30614471435547
 32
138.0
 13
-52.658897399902344
 23
56.30614471435547
 33
138.0
  0
3DFACE
  8
0
 10
-52.658897399902344
 20
56.30614471435547
 30
138.0
 11
-53.148277282714844
 21
55.843475341796875
 31
138.0
 12
-53.457366943359375
 22
55.533592224121094
 32
138.0
 13
-53.457366943359375
 23
55.533592224121094
 33
138.0
  0
3DFACE
  8
0
 10
-53.457366943359375
 20
55.533592224121094
 30
138.0
 11
-53.90629196166992
 21
55.02278518676758
 31
138.0
 12
-54.20471954345703
 22
54.66166687011719
 32
138.0
 13
-54.20471954345703
 23
54.66166687011719
 33
138.0
  0
3DFACE
  8
0
 10
-54.20471954345703
 20
54.66166687011719
 30
138.0
 11
-54.65376663208008
 21
54.04999923706055
 31
138.0
 12
-54.77143096923828
 22
53.857120513916016
 32
138.0
 13
-54.77143096923828
 23
53.857120513916016
 33
138.0
  0
3DFACE
  8
0
 10
-54.77143096923828
 20
53.857120513916016
 30
138.0
 11
-54.98430252075195
 21
53.46488571166992
 31
138.0
 12
-55.47421646118164
 22
52.368431091308594
 32
138.0
 13
-55.47421646118164
 23
52.368431091308594
 33
138.0
  0
3DFACE
  8
0
 10
-55.47421646118164
 20
52.368431091308594
 30
138.0
 11
-55.514556884765625
 21
52.248008728027344
 31
138.0
 12
-55.59230041503906
 22
51.98479080200195
 32
138.0
 13
-55.59230041503906
 23
51.98479080200195
 33
138.0
  0
3DFACE
  8
0
 10
-55.59230041503906
 20
51.98479080200195
 30
138.0
 11
-55.76857376098633
 21
51.443458557128906
 31
138.0
 12
-55.93331527709961
 22
50.66266632080078
 32
138.0
 13
-55.93331527709961
 23
50.66266632080078
 33
138.0
  0
3DFACE
  8
0
 10
-55.93331527709961
 20
50.66266632080078
 30
138.0
 11
-55.93892288208008
 21
50.63890838623047
 31
138.0
 12
-55.9492301940918
 22
50.574745178222656
 32
138.0
 13
-55.9492301940918
 23
50.574745178222656
 33
138.0
  0
3DFACE
  8
0
 10
-55.9492301940918
 20
50.574745178222656
 30
138.0
 11
-56.0556755065918
 21
49.8343505859375
 31
138.0
 12
-56.0675048828125
 22
49.61850357055664
 32
138.0
 13
-56.0675048828125
 23
49.61850357055664
 33
138.0
  0
3DFACE
  8
0
 10
-56.0675048828125
 20
49.61850357055664
 30
138.0
 11
-56.11735534667969
 21
49.02981185913086
 31
138.0
 12
-56.11561965942383
 22
48.56660842895508
 32
138.0
 13
-56.11561965942383
 23
48.56660842895508
 33
138.0
  0
3DFACE
  8
0
 10
-56.11561965942383
 20
48.56660842895508
 30
138.0
 11
-56.12250900268555
 21
48.22525405883789
 31
138.0
 12
-56.02726364135742
 22
47.43743133544922
 32
138.0
 13
-56.02726364135742
 23
47.43743133544922
 33
138.0
  0
3DFACE
  8
0
 10
-56.02726364135742
 20
47.43743133544922
 30
138.0
 11
-56.025718688964844
 21
47.420692443847656
 31
138.0
 12
-55.93883514404297
 22
46.7918586730957
 32
138.0
 13
-55.93883514404297
 23
46.7918586730957
 33
138.0
  0
3DFACE
  8
0
 10
-55.81110763549805
 20
46.323883056640625
 30
138.0
 11
-55.68228530883789
 21
45.81160354614258
 31
138.0
 12
-55.41218948364258
 22
45.099090576171875
 32
138.0
 13
-55.41218948364258
 23
45.099090576171875
 33
138.0
  0
3DFACE
  8
0
 10
-56.02726364135742
 20
47.43743133544922
 30
138.0
 11
-55.93883514404297
 21
46.7918586730957
 31
138.0
 12
-55.81110763549805
 22
46.323883056640625
 32
138.0
 13
-55.81110763549805
 23
46.323883056640625
 33
138.0
  0
3DFACE
  8
0
 10
-56.0675048828125
 20
49.61850357055664
 30
138.0
 11
-56.11561965942383
 21
48.56660842895508
 31
138.0
 12
-56.02726364135742
 22
47.43743133544922
 32
138.0
 13
-56.02726364135742
 23
47.43743133544922
 33
138.0
  0
3DFACE
  8
0
 10
-55.93331527709961
 20
50.66266632080078
 30
138.0
 11
-55.9492301940918
 21
50.574745178222656
 31
138.0
 12
-56.0675048828125
 22
49.61850357055664
 32
138.0
 13
-56.0675048828125
 23
49.61850357055664
 33
138.0
  0
3DFACE
  8
0
 10
-55.47421646118164
 20
52.368431091308594
 30
138.0
 11
-55.59230041503906
 21
51.98479080200195
 31
138.0
 12
-55.93331527709961
 22
50.66266632080078
 32
138.0
 13
-55.93331527709961
 23
50.66266632080078
 33
138.0
  0
3DFACE
  8
0
 10
-54.20471954345703
 20
54.66166687011719
 30
138.0
 11
-54.77143096923828
 21
53.857120513916016
 31
138.0
 12
-55.47421646118164
 22
52.368431091308594
 32
138.0
 13
-55.47421646118164
 23
52.368431091308594
 33
138.0
  0
3DFACE
  8
0
 10
-52.658897399902344
 20
56.30614471435547
 30
138.0
 11
-53.457366943359375
 21
55.533592224121094
 31
138.0
 12
-54.20471954345703
 22
54.66166687011719
 32
138.0
 13
-54.20471954345703
 23
54.66166687011719
 33
138.0
  0
3DFACE
  8
0
 10
-49.922882080078125
 20
58.08742904663086
 30
138.0
 11
-51.18482971191406
 21
57.44099807739258
 31
138.0
 12
-52.658897399902344
 22
56.30614471435547
 32
138.0
 13
-52.658897399902344
 23
56.30614471435547
 33
138.0
  0
3DFACE
  8
0
 10
-41.42155075073242
 20
39.41941833496094
 30
138.0
 11
-36.00679016113281
 21
46.24324035644531
 31
138.0
 12
-49.922882080078125
 22
58.08742904663086
 32
138.0
 13
-49.922882080078125
 23
58.08742904663086
 33
138.0
  0
3DFACE
  8
0
 10
-43.82489776611328
 20
38.56331253051758
 30
138.0
 11
-43.004459381103516
 21
38.7459716796875
 31
138.0
 12
-41.42155075073242
 22
39.41941833496094
 32
138.0
 13
-41.42155075073242
 23
39.41941833496094
 33
138.0
  0
3DFACE
  8
0
 10
-45.422706604003906
 20
38.370758056640625
 30
138.0
 11
-44.931549072265625
 21
38.42140579223633
 31
138.0
 12
-43.82489776611328
 22
38.56331253051758
 32
138.0
 13
-43.82489776611328
 23
38.56331253051758
 33
138.0
  0
3DFACE
  8
0
 10
-46.58929443359375
 20
38.394859313964844
 30
138.0
 11
-46.23736572265625
 21
38.369651794433594
 31
138.0
 12
-46.06659698486328
 22
38.37555694580078
 32
138.0
 13
-46.06659698486328
 23
38.37555694580078
 33
138.0
  0
3DFACE
  8
0
 10
-46.06659698486328
 20
38.37555694580078
 30
138.0
 11
-45.422706604003906
 21
38.370758056640625
 31
138.0
 12
-43.82489776611328
 22
38.56331253051758
 32
138.0
 13
-43.82489776611328
 23
38.56331253051758
 33
138.0
  0
3DFACE
  8
0
 10
-43.82489776611328
 20
38.56331253051758
 30
138.0
 11
-41.42155075073242
 21
39.41941833496094
 31
138.0
 12
-49.922882080078125
 22
58.08742904663086
 32
138.0
 13
-49.922882080078125
 23
58.08742904663086
 33
138.0
  0
3DFACE
  8
0
 10
-49.922882080078125
 20
58.08742904663086
 30
138.0
 11
-52.658897399902344
 21
56.30614471435547
 31
138.0
 12
-54.20471954345703
 22
54.66166687011719
 32
138.0
 13
-54.20471954345703
 23
54.66166687011719
 33
138.0
  0
3DFACE
  8
0
 10
-54.20471954345703
 20
54.66166687011719
 30
138.0
 11
-55.47421646118164
 21
52.368431091308594
 31
138.0
 12
-55.93331527709961
 22
50.66266632080078
 32
138.0
 13
-55.93331527709961
 23
50.66266632080078
 33
138.0
  0
3DFACE
  8
0
 10
-55.93331527709961
 20
50.66266632080078
 30
138.0
 11
-56.0675048828125
 21
49.61850357055664
 31
138.0
 12
-56.02726364135742
 22
47.43743133544922
 32
138.0
 13
-56.02726364135742
 23
47.43743133544922
 33
138.0
  0
3DFACE
  8
0
 10
-56.02726364135742
 20
47.43743133544922
 30
138.0
 11
-55.81110763549805
 21
46.323883056640625
 31
138.0
 12
-55.41218948364258
 22
45.099090576171875
 32
138.0
 13
-55.41218948364258
 23
45.099090576171875
 33
138.0
  0
3DFACE
  8
0
 10
-55.41218948364258
 20
45.099090576171875
 30
138.0
 11
-55.38188934326172
 21
45.00704574584961
 31
138.0
 12
-55.30411148071289
 22
44.83818817138672
 32
138.0
 13
-55.30411148071289
 23
44.83818817138672
 33
138.0
  0
3DFACE
  8
0
 10
-55.30411148071289
 20
44.83818817138672
 30
138.0
 11
-54.96622848510742
 21
44.1509895324707
 31
138.0
 12
-54.6944465637207
 22
43.73390579223633
 32
138.0
 13
-54.6944465637207
 23
43.73390579223633
 33
138.0
  0
3DFACE
  8
0
 10
-54.6944465637207
 20
43.73390579223633
 30
138.0
 11
-54.49661636352539
 21
43.39794158935547
 31
138.0
 12
-53.92213821411133
 22
42.57160186767578
 32
138.0
 13
-53.92213821411133
 23
42.57160186767578
 33
138.0
  0
3DFACE
  8
0
 10
-53.71186065673828
 20
42.33632278442383
 30
138.0
 11
-53.19629669189453
 21
41.725135803222656
 31
138.0
 12
-52.97172164916992
 22
41.50217056274414
 32
138.0
 13
-52.97172164916992
 23
41.50217056274414
 33
138.0
  0
3DFACE
  8
0
 10
-54.6944465637207
 20
43.73390579223633
 30
138.0
 11
-53.92213821411133
 21
42.57160186767578
 31
138.0
 12
-53.71186065673828
 22
42.33632278442383
 32
138.0
 13
-53.71186065673828
 23
42.33632278442383
 33
138.0
  0
3DFACE
  8
0
 10
-55.41218948364258
 20
45.099090576171875
 30
138.0
 11
-55.30411148071289
 21
44.83818817138672
 31
138.0
 12
-54.6944465637207
 22
43.73390579223633
 32
138.0
 13
-54.6944465637207
 23
43.73390579223633
 33
138.0
  0
3DFACE
  8
0
 10
-55.93331527709961
 20
50.66266632080078
 30
138.0
 11
-56.02726364135742
 21
47.43743133544922
 31
138.0
 12
-55.41218948364258
 22
45.099090576171875
 32
138.0
 13
-55.41218948364258
 23
45.099090576171875
 33
138.0
  0
3DFACE
  8
0
 10
-49.922882080078125
 20
58.08742904663086
 30
138.0
 11
-54.20471954345703
 21
54.66166687011719
 31
138.0
 12
-55.93331527709961
 22
50.66266632080078
 32
138.0
 13
-55.93331527709961
 23
50.66266632080078
 33
138.0
  0
3DFACE
  8
0
 10
-46.06659698486328
 20
38.37555694580078
 30
138.0
 11
-43.82489776611328
 21
38.56331253051758
 31
138.0
 12
-49.922882080078125
 22
58.08742904663086
 32
138.0
 13
-49.922882080078125
 23
58.08742904663086
 33
138.0
  0
3DFACE
  8
0
 10
-47.056907653808594
 20
38.439422607421875
 30
138.0
 11
-46.58929443359375
 21
38.394859313964844
 31
138.0
 12
-46.06659698486328
 22
38.37555694580078
 32
138.0
 13
-46.06659698486328
 23
38.37555694580078
 33
138.0
  0
3DFACE
  8
0
 10
-48.712493896484375
 20
38.817317962646484
 30
138.0
 11
-48.05982208251953
 21
38.64540481567383
 31
138.0
 12
-47.44453048706055
 22
38.526371002197266
 32
138.0
 13
-47.44453048706055
 23
38.526371002197266
 33
138.0
  0
3DFACE
  8
0
 10
-47.44453048706055
 20
38.526371002197266
 30
138.0
 11
-47.056907653808594
 21
38.439422607421875
 31
138.0
 12
-46.06659698486328
 22
38.37555694580078
 32
138.0
 13
-46.06659698486328
 23
38.37555694580078
 33
138.0
  0
3DFACE
  8
0
 10
-46.06659698486328
 20
38.37555694580078
 30
138.0
 11
-49.922882080078125
 21
58.08742904663086
 31
138.0
 12
-55.93331527709961
 22
50.66266632080078
 32
138.0
 13
-55.93331527709961
 23
50.66266632080078
 33
138.0
  0
3DFACE
  8
0
 10
-55.93331527709961
 20
50.66266632080078
 30
138.0
 11
-55.41218948364258
 21
45.099090576171875
 31
138.0
 12
-54.6944465637207
 22
43.73390579223633
 32
138.0
 13
-54.6944465637207
 23
43.73390579223633
 33
138.0
  0
3DFACE
  8
0
 10
-54.6944465637207
 20
43.73390579223633
 30
138.0
 11
-53.71186065673828
 21
42.33632278442383
 31
138.0
 12
-52.97172164916992
 22
41.50217056274414
 32
138.0
 13
-52.97172164916992
 23
41.50217056274414
 33
138.0
  0
3DFACE
  8
0
 10
-52.97172164916992
 20
41.50217056274414
 30
138.0
 11
-52.65105438232422
 21
41.22620391845703
 31
138.0
 12
-52.235050201416016
 22
40.88957977294922
 32
138.0
 13
-52.235050201416016
 23
40.88957977294922
 33
138.0
  0
3DFACE
  8
0
 10
-51.714744567871094
 20
40.514312744140625
 30
138.0
 11
-51.259864807128906
 21
40.170108795166016
 31
138.0
 12
-50.87570571899414
 22
39.919898986816406
 32
138.0
 13
-50.87570571899414
 23
39.919898986816406
 33
138.0
  0
3DFACE
  8
0
 10
-52.97172164916992
 20
41.50217056274414
 30
138.0
 11
-52.235050201416016
 21
40.88957977294922
 31
138.0
 12
-51.714744567871094
 22
40.514312744140625
 32
138.0
 13
-51.714744567871094
 23
40.514312744140625
 33
138.0
  0
3DFACE
  8
0
 10
-55.93331527709961
 20
50.66266632080078
 30
138.0
 11
-54.6944465637207
 21
43.73390579223633
 31
138.0
 12
-52.97172164916992
 22
41.50217056274414
 32
138.0
 13
-52.97172164916992
 23
41.50217056274414
 33
138.0
  0
3DFACE
  8
0
 10
-47.44453048706055
 20
38.526371002197266
 30
138.0
 11
-46.06659698486328
 21
38.37555694580078
 31
138.0
 12
-55.93331527709961
 22
50.66266632080078
 32
138.0
 13
-55.93331527709961
 23
50.66266632080078
 33
138.0
  0
3DFACE
  8
0
 10
-48.95399856567383
 20
38.911067962646484
 30
138.0
 11
-48.712493896484375
 21
38.817317962646484
 31
138.0
 12
-47.44453048706055
 22
38.526371002197266
 32
138.0
 13
-47.44453048706055
 23
38.526371002197266
 33
138.0
  0
3DFACE
  8
0
 10
-49.97026824951172
 20
39.39295196533203
 30
138.0
 11
-49.552310943603516
 21
39.1802864074707
 31
138.0
 12
-48.95399856567383
 22
38.911067962646484
 32
138.0
 13
-48.95399856567383
 23
38.911067962646484
 33
138.0
  0
3DFACE
  8
0
 10
-50.87570571899414
 20
39.919898986816406
 30
138.0
 11
-50.39802169799805
 21
39.628456115722656
 31
138.0
 12
-49.97026824951172
 22
39.39295196533203
 32
138.0
 13
-49.97026824951172
 23
39.39295196533203
 33
138.0
  0
3DFACE
  8
0
 10
-52.97172164916992
 20
41.50217056274414
 30
138.0
 11
-51.714744567871094
 21
40.514312744140625
 31
138.0
 12
-50.87570571899414
 22
39.919898986816406
 32
138.0
 13
-50.87570571899414
 23
39.919898986816406
 33
138.0
  0
3DFACE
  8
0
 10
-47.44453048706055
 20
38.526371002197266
 30
138.0
 11
-55.93331527709961
 21
50.66266632080078
 31
138.0
 12
-52.97172164916992
 22
41.50217056274414
 32
138.0
 13
-52.97172164916992
 23
41.50217056274414
 33
138.0
  0
3DFACE
  8
0
 10
-49.97026824951172
 20
39.39295196533203
 30
138.0
 11
-48.95399856567383
 21
38.911067962646484
 31
138.0
 12
-47.44453048706055
 22
38.526371002197266
 32
138.0
 13
-47.44453048706055
 23
38.526371002197266
 33
138.0
  0
3DFACE
  8
0
 10
-52.97172164916992
 20
41.50217056274414
 30
138.0
 11
-50.87570571899414
 21
39.919898986816406
 31
138.0
 12
-49.97026824951172
 22
39.39295196533203
 32
138.0
 13
-49.97026824951172
 23
39.39295196533203
 33
138.0
  0
3DFACE
  8
0
 10
-52.97172164916992
 20
41.50217056274414
 30
138.0
 11
-49.97026824951172
 21
39.39295196533203
 31
138.0
 12
-47.44453048706055
 22
38.526371002197266
 32
138.0
 13
-47.44453048706055
 23
38.526371002197266
 33
138.0
  0
3DFACE
  8
0
 10
42.59745788574219
 20
60.63138961791992
 30
138.0
 11
42.59751510620117
 21
60.63199234008789
 31
138.0
 12
42.59750747680664
 22
60.63285827636719
 32
138.0
 13
42.59750747680664
 23
60.63285827636719
 33
138.0
  0
3DFACE
  8
0
 10
42.59750747680664
 20
60.63285827636719
 30
138.0
 11
42.629024505615234
 21
61.85642623901367
 31
138.0
 12
42.593711853027344
 22
62.56543731689453
 32
138.0
 13
42.593711853027344
 23
62.56543731689453
 33
138.0
  0
3DFACE
  8
0
 10
42.593711853027344
 20
62.56543731689453
 30
138.0
 11
42.51747512817383
 21
63.20823669433594
 31
138.0
 12
42.49571990966797
 22
63.36275100708008
 32
138.0
 13
42.49571990966797
 23
63.36275100708008
 33
138.0
  0
3DFACE
  8
0
 10
42.49571990966797
 20
63.36275100708008
 30
138.0
 11
42.43336486816406
 21
63.685569763183594
 31
138.0
 12
42.24538040161133
 22
64.51966857910156
 32
138.0
 13
42.24538040161133
 23
64.51966857910156
 33
138.0
  0
3DFACE
  8
0
 10
42.24538040161133
 20
64.51966857910156
 30
138.0
 11
42.24037170410156
 21
64.540771484375
 31
138.0
 12
41.9815673828125
 22
65.35482025146484
 32
138.0
 13
41.9815673828125
 23
65.35482025146484
 33
138.0
  0
3DFACE
  8
0
 10
41.9815673828125
 20
65.35482025146484
 30
138.0
 11
41.71891784667969
 21
66.03862762451172
 31
138.0
 12
41.66974639892578
 22
66.14775085449219
 32
138.0
 13
41.66974639892578
 23
66.14775085449219
 33
138.0
  0
3DFACE
  8
0
 10
41.60535430908203
 20
66.26367950439453
 30
138.0
 11
41.30641174316406
 21
66.85069274902344
 31
138.0
 12
40.91379928588867
 22
67.51838684082031
 32
138.0
 13
40.91379928588867
 23
67.51838684082031
 33
138.0
  0
3DFACE
  8
0
 10
41.9815673828125
 20
65.35482025146484
 30
138.0
 11
41.66974639892578
 21
66.14775085449219
 31
138.0
 12
41.60535430908203
 22
66.26367950439453
 32
138.0
 13
41.60535430908203
 23
66.26367950439453
 33
138.0
  0
3DFACE
  8
0
 10
42.49571990966797
 20
63.36275100708008
 30
138.0
 11
42.24538040161133
 21
64.51966857910156
 31
138.0
 12
41.9815673828125
 22
65.35482025146484
 32
138.0
 13
41.9815673828125
 23
65.35482025146484
 33
138.0
  0
3DFACE
  8
0
 10
42.59750747680664
 20
60.63285827636719
 30
138.0
 11
42.593711853027344
 21
62.56543731689453
 31
138.0
 12
42.49571990966797
 22
63.36275100708008
 32
138.0
 13
42.49571990966797
 23
63.36275100708008
 33
138.0
  0
3DFACE
  8
0
 10
42.59711456298828
 20
60.62886428833008
 30
138.0
 11
42.59745788574219
 21
60.63138961791992
 31
138.0
 12
42.59750747680664
 22
60.63285827636719
 32
138.0
 13
42.59750747680664
 23
60.63285827636719
 33
138.0
  0
3DFACE
  8
0
 10
42.371849060058594
 20
59.369346618652344
 30
138.0
 11
42.47752380371094
 21
59.8448486328125
 31
138.0
 12
42.59711456298828
 22
60.62886428833008
 32
138.0
 13
42.59711456298828
 23
60.62886428833008
 33
138.0
  0
3DFACE
  8
0
 10
42.10015869140625
 20
58.48670196533203
 30
138.0
 11
42.294315338134766
 21
59.0487174987793
 31
138.0
 12
42.371849060058594
 22
59.369346618652344
 32
138.0
 13
42.371849060058594
 23
59.369346618652344
 33
138.0
  0
3DFACE
  8
0
 10
41.819488525390625
 20
57.72074508666992
 30
138.0
 11
42.04345703125
 21
58.27056884765625
 31
138.0
 12
42.10015869140625
 22
58.48670196533203
 32
138.0
 13
42.10015869140625
 23
58.48670196533203
 33
138.0
  0
3DFACE
  8
0
 10
41.4730339050293
 20
56.99440383911133
 30
138.0
 11
41.72412872314453
 21
57.502655029296875
 31
138.0
 12
41.819488525390625
 22
57.72074508666992
 32
138.0
 13
41.819488525390625
 23
57.72074508666992
 33
138.0
  0
3DFACE
  8
0
 10
40.986385345458984
 20
56.25642013549805
 30
138.0
 11
41.28606033325195
 21
56.6963005065918
 31
138.0
 12
41.4730339050293
 22
56.99440383911133
 32
138.0
 13
41.4730339050293
 23
56.99440383911133
 33
138.0
  0
3DFACE
  8
0
 10
40.401084899902344
 20
55.53205490112305
 30
138.0
 11
40.72713851928711
 21
55.909156799316406
 31
138.0
 12
40.986385345458984
 22
56.25642013549805
 32
138.0
 13
40.986385345458984
 23
56.25642013549805
 33
138.0
  0
3DFACE
  8
0
 10
39.871463775634766
 20
54.98804473876953
 30
138.0
 11
40.023284912109375
 21
55.12202453613281
 31
138.0
 12
40.401084899902344
 22
55.53205490112305
 32
138.0
 13
40.401084899902344
 23
55.53205490112305
 33
138.0
  0
3DFACE
  8
0
 10
38.65810012817383
 20
53.924076080322266
 30
138.0
 11
39.404335021972656
 21
54.527122497558594
 31
138.0
 12
39.871463775634766
 22
54.98804473876953
 32
138.0
 13
39.871463775634766
 23
54.98804473876953
 33
138.0
  0
3DFACE
  8
0
 10
37.84584045410156
 20
53.3732795715332
 30
138.0
 11
38.54011535644531
 21
53.84025192260742
 31
138.0
 12
38.65810012817383
 22
53.924076080322266
 32
138.0
 13
38.65810012817383
 23
53.924076080322266
 33
138.0
  0
3DFACE
  8
0
 10
36.35734558105469
 20
52.72224426269531
 30
138.0
 11
37.03026580810547
 21
52.96736526489258
 31
138.0
 12
37.84584045410156
 22
53.3732795715332
 32
138.0
 13
37.84584045410156
 23
53.3732795715332
 33
138.0
  0
3DFACE
  8
0
 10
36.29049301147461
 20
52.697418212890625
 30
138.0
 11
36.31631088256836
 21
52.70453643798828
 31
138.0
 12
36.35734558105469
 22
52.72224426269531
 32
138.0
 13
36.35734558105469
 23
52.72224426269531
 33
138.0
  0
3DFACE
  8
0
 10
35.43231201171875
 20
52.49646759033203
 30
138.0
 11
36.208900451660156
 21
52.676456451416016
 31
138.0
 12
36.29049301147461
 22
52.697418212890625
 32
138.0
 13
36.29049301147461
 23
52.697418212890625
 33
138.0
  0
3DFACE
  8
0
 10
34.074832916259766
 20
52.38750076293945
 30
138.0
 11
34.6365852355957
 21
52.39334487915039
 31
138.0
 12
35.30583190917969
 22
52.485721588134766
 32
138.0
 13
35.30583190917969
 23
52.485721588134766
 33
138.0
  0
3DFACE
  8
0
 10
35.30583190917969
 20
52.485721588134766
 30
138.0
 11
35.43231201171875
 21
52.49646759033203
 31
138.0
 12
36.29049301147461
 22
52.697418212890625
 32
138.0
 13
36.29049301147461
 23
52.697418212890625
 33
138.0
  0
3DFACE
  8
0
 10
36.29049301147461
 20
52.697418212890625
 30
138.0
 11
36.35734558105469
 21
52.72224426269531
 31
138.0
 12
37.84584045410156
 22
53.3732795715332
 32
138.0
 13
37.84584045410156
 23
53.3732795715332
 33
138.0
  0
3DFACE
  8
0
 10
37.84584045410156
 20
53.3732795715332
 30
138.0
 11
38.65810012817383
 21
53.924076080322266
 31
138.0
 12
39.871463775634766
 22
54.98804473876953
 32
138.0
 13
39.871463775634766
 23
54.98804473876953
 33
138.0
  0
3DFACE
  8
0
 10
39.871463775634766
 20
54.98804473876953
 30
138.0
 11
40.401084899902344
 21
55.53205490112305
 31
138.0
 12
40.986385345458984
 22
56.25642013549805
 32
138.0
 13
40.986385345458984
 23
56.25642013549805
 33
138.0
  0
3DFACE
  8
0
 10
40.986385345458984
 20
56.25642013549805
 30
138.0
 11
41.4730339050293
 21
56.99440383911133
 31
138.0
 12
41.819488525390625
 22
57.72074508666992
 32
138.0
 13
41.819488525390625
 23
57.72074508666992
 33
138.0
  0
3DFACE
  8
0
 10
41.819488525390625
 20
57.72074508666992
 30
138.0
 11
42.10015869140625
 21
58.48670196533203
 31
138.0
 12
42.371849060058594
 22
59.369346618652344
 32
138.0
 13
42.371849060058594
 23
59.369346618652344
 33
138.0
  0
3DFACE
  8
0
 10
42.371849060058594
 20
59.369346618652344
 30
138.0
 11
42.59711456298828
 21
60.62886428833008
 31
138.0
 12
42.59750747680664
 22
60.63285827636719
 32
138.0
 13
42.59750747680664
 23
60.63285827636719
 33
138.0
  0
3DFACE
  8
0
 10
42.59750747680664
 20
60.63285827636719
 30
138.0
 11
42.49571990966797
 21
63.36275100708008
 31
138.0
 12
41.9815673828125
 22
65.35482025146484
 32
138.0
 13
41.9815673828125
 23
65.35482025146484
 33
138.0
  0
3DFACE
  8
0
 10
41.9815673828125
 20
65.35482025146484
 30
138.0
 11
41.60535430908203
 21
66.26367950439453
 31
138.0
 12
40.91379928588867
 22
67.51838684082031
 32
138.0
 13
40.91379928588867
 23
67.51838684082031
 33
138.0
  0
3DFACE
  8
0
 10
40.91379928588867
 20
67.51838684082031
 30
138.0
 11
40.762393951416016
 21
67.71623229980469
 31
138.0
 12
40.16735076904297
 22
68.41922760009766
 32
138.0
 13
40.16735076904297
 23
68.41922760009766
 33
138.0
  0
3DFACE
  8
0
 10
40.16735076904297
 20
68.41922760009766
 30
138.0
 11
40.078826904296875
 21
68.50336456298828
 31
138.0
 12
39.408935546875
 22
69.07614135742188
 32
138.0
 13
39.408935546875
 23
69.07614135742188
 33
138.0
  0
3DFACE
  8
0
 10
39.408935546875
 20
69.07614135742188
 30
138.0
 11
39.12286376953125
 21
69.29051208496094
 31
138.0
 12
38.6441650390625
 22
69.6038818359375
 32
138.0
 13
38.6441650390625
 23
69.6038818359375
 33
138.0
  0
3DFACE
  8
0
 10
38.6441650390625
 20
69.6038818359375
 30
138.0
 11
38.425411224365234
 21
69.71673583984375
 31
138.0
 12
37.8714485168457
 22
69.96939849853516
 32
138.0
 13
37.8714485168457
 23
69.96939849853516
 33
138.0
  0
3DFACE
  8
0
 10
37.8714485168457
 20
69.96939849853516
 30
138.0
 11
37.2457275390625
 21
70.22914123535156
 31
138.0
 12
37.09609603881836
 22
70.28120422363281
 32
138.0
 13
37.09609603881836
 23
70.28120422363281
 33
138.0
  0
3DFACE
  8
0
 10
37.09609603881836
 20
70.28120422363281
 30
138.0
 11
36.6029167175293
 21
70.40962982177734
 31
138.0
 12
36.31480407714844
 22
70.47245025634766
 32
138.0
 13
36.31480407714844
 23
70.47245025634766
 33
138.0
  0
3DFACE
  8
0
 10
36.31480407714844
 20
70.47245025634766
 30
138.0
 11
35.84979248046875
 21
70.56375885009766
 31
138.0
 12
35.53080368041992
 22
70.60820007324219
 32
138.0
 13
35.53080368041992
 23
70.60820007324219
 33
138.0
  0
3DFACE
  8
0
 10
35.53080368041992
 20
70.60820007324219
 30
138.0
 11
35.229923248291016
 21
70.63532257080078
 31
138.0
 12
34.7431640625
 22
70.66980743408203
 32
138.0
 13
34.7431640625
 23
70.66980743408203
 33
138.0
  0
3DFACE
  8
0
 10
34.7431640625
 20
70.66980743408203
 30
138.0
 11
34.54320526123047
 21
70.6759033203125
 31
138.0
 12
34.32503128051758
 22
70.66333770751953
 32
138.0
 13
34.32503128051758
 23
70.66333770751953
 33
138.0
  0
3DFACE
  8
0
 10
34.32503128051758
 20
70.66333770751953
 30
138.0
 11
33.15597915649414
 21
70.55076599121094
 31
138.0
 12
32.684852600097656
 22
70.44947052001953
 32
138.0
 13
32.684852600097656
 23
70.44947052001953
 33
138.0
  0
3DFACE
  8
0
 10
31.832956314086914
 20
70.18950653076172
 30
138.0
 11
31.553037643432617
 21
70.11062622070312
 31
138.0
 12
31.01128387451172
 22
69.85636138916016
 32
138.0
 13
31.01128387451172
 23
69.85636138916016
 33
138.0
  0
3DFACE
  8
0
 10
34.32503128051758
 20
70.66333770751953
 30
138.0
 11
32.684852600097656
 21
70.44947052001953
 31
138.0
 12
31.832956314086914
 22
70.18950653076172
 32
138.0
 13
31.832956314086914
 23
70.18950653076172
 33
138.0
  0
3DFACE
  8
0
 10
35.53080368041992
 20
70.60820007324219
 30
138.0
 11
34.7431640625
 21
70.66980743408203
 31
138.0
 12
34.32503128051758
 22
70.66333770751953
 32
138.0
 13
34.32503128051758
 23
70.66333770751953
 33
138.0
  0
3DFACE
  8
0
 10
37.09609603881836
 20
70.28120422363281
 30
138.0
 11
36.31480407714844
 21
70.47245025634766
 31
138.0
 12
35.53080368041992
 22
70.60820007324219
 32
138.0
 13
35.53080368041992
 23
70.60820007324219
 33
138.0
  0
3DFACE
  8
0
 10
38.6441650390625
 20
69.6038818359375
 30
138.0
 11
37.8714485168457
 21
69.96939849853516
 31
138.0
 12
37.09609603881836
 22
70.28120422363281
 32
138.0
 13
37.09609603881836
 23
70.28120422363281
 33
138.0
  0
3DFACE
  8
0
 10
40.16735076904297
 20
68.41922760009766
 30
138.0
 11
39.408935546875
 21
69.07614135742188
 31
138.0
 12
38.6441650390625
 22
69.6038818359375
 32
138.0
 13
38.6441650390625
 23
69.6038818359375
 33
138.0
  0
3DFACE
  8
0
 10
41.9815673828125
 20
65.35482025146484
 30
138.0
 11
40.91379928588867
 21
67.51838684082031
 31
138.0
 12
40.16735076904297
 22
68.41922760009766
 32
138.0
 13
40.16735076904297
 23
68.41922760009766
 33
138.0
  0
3DFACE
  8
0
 10
42.371849060058594
 20
59.369346618652344
 30
138.0
 11
42.59750747680664
 21
60.63285827636719
 31
138.0
 12
41.9815673828125
 22
65.35482025146484
 32
138.0
 13
41.9815673828125
 23
65.35482025146484
 33
138.0
  0
3DFACE
  8
0
 10
40.986385345458984
 20
56.25642013549805
 30
138.0
 11
41.819488525390625
 21
57.72074508666992
 31
138.0
 12
42.371849060058594
 22
59.369346618652344
 32
138.0
 13
42.371849060058594
 23
59.369346618652344
 33
138.0
  0
3DFACE
  8
0
 10
37.84584045410156
 20
53.3732795715332
 30
138.0
 11
39.871463775634766
 21
54.98804473876953
 31
138.0
 12
40.986385345458984
 22
56.25642013549805
 32
138.0
 13
40.986385345458984
 23
56.25642013549805
 33
138.0
  0
3DFACE
  8
0
 10
35.30583190917969
 20
52.485721588134766
 30
138.0
 11
36.29049301147461
 21
52.697418212890625
 31
138.0
 12
37.84584045410156
 22
53.3732795715332
 32
138.0
 13
37.84584045410156
 23
53.3732795715332
 33
138.0
  0
3DFACE
  8
0
 10
33.845096588134766
 20
52.376625061035156
 30
138.0
 11
34.074832916259766
 21
52.38750076293945
 31
138.0
 12
35.30583190917969
 22
52.485721588134766
 32
138.0
 13
35.30583190917969
 23
52.485721588134766
 33
138.0
  0
3DFACE
  8
0
 10
32.410247802734375
 20
52.48539733886719
 30
138.0
 11
33.417877197265625
 21
52.38394546508789
 31
138.0
 12
33.68233871459961
 22
52.38401412963867
 32
138.0
 13
33.68233871459961
 23
52.38401412963867
 33
138.0
  0
3DFACE
  8
0
 10
33.68233871459961
 20
52.38401412963867
 30
138.0
 11
33.845096588134766
 21
52.376625061035156
 31
138.0
 12
35.30583190917969
 22
52.485721588134766
 32
138.0
 13
35.30583190917969
 23
52.485721588134766
 33
138.0
  0
3DFACE
  8
0
 10
35.30583190917969
 20
52.485721588134766
 30
138.0
 11
37.84584045410156
 21
53.3732795715332
 31
138.0
 12
40.986385345458984
 22
56.25642013549805
 32
138.0
 13
40.986385345458984
 23
56.25642013549805
 33
138.0
  0
3DFACE
  8
0
 10
40.986385345458984
 20
56.25642013549805
 30
138.0
 11
42.371849060058594
 21
59.369346618652344
 31
138.0
 12
41.9815673828125
 22
65.35482025146484
 32
138.0
 13
41.9815673828125
 23
65.35482025146484
 33
138.0
  0
3DFACE
  8
0
 10
41.9815673828125
 20
65.35482025146484
 30
138.0
 11
40.16735076904297
 21
68.41922760009766
 31
138.0
 12
38.6441650390625
 22
69.6038818359375
 32
138.0
 13
38.6441650390625
 23
69.6038818359375
 33
138.0
  0
3DFACE
  8
0
 10
38.6441650390625
 20
69.6038818359375
 30
138.0
 11
37.09609603881836
 21
70.28120422363281
 31
138.0
 12
35.53080368041992
 22
70.60820007324219
 32
138.0
 13
35.53080368041992
 23
70.60820007324219
 33
138.0
  0
3DFACE
  8
0
 10
35.53080368041992
 20
70.60820007324219
 30
138.0
 11
34.32503128051758
 21
70.66333770751953
 31
138.0
 12
31.832956314086914
 22
70.18950653076172
 32
138.0
 13
31.832956314086914
 23
70.18950653076172
 33
138.0
  0
3DFACE
  8
0
 10
31.832956314086914
 20
70.18950653076172
 30
138.0
 11
31.01128387451172
 21
69.85636138916016
 31
138.0
 12
30.743404388427734
 22
69.72441101074219
 32
138.0
 13
30.743404388427734
 23
69.72441101074219
 33
138.0
  0
3DFACE
  8
0
 10
30.743404388427734
 20
69.72441101074219
 30
138.0
 11
29.92920684814453
 21
69.24506378173828
 31
138.0
 12
29.869609832763672
 22
69.20601654052734
 32
138.0
 13
29.869609832763672
 23
69.20601654052734
 33
138.0
  0
3DFACE
  8
0
 10
29.869609832763672
 20
69.20601654052734
 30
138.0
 11
29.485498428344727
 21
68.93824005126953
 31
138.0
 12
29.412471771240234
 22
68.87301635742188
 32
138.0
 13
29.412471771240234
 23
68.87301635742188
 33
138.0
  0
3DFACE
  8
0
 10
29.412471771240234
 20
68.87301635742188
 30
138.0
 11
28.935243606567383
 21
68.4735336303711
 31
138.0
 12
28.530532836914062
 22
68.10824584960938
 32
138.0
 13
28.530532836914062
 23
68.10824584960938
 33
138.0
  0
3DFACE
  8
0
 10
28.530532836914062
 20
68.10824584960938
 30
138.0
 11
28.13161849975586
 21
67.70872497558594
 31
138.0
 12
27.682159423828125
 22
67.16171264648438
 32
138.0
 13
27.682159423828125
 23
67.16171264648438
 33
138.0
  0
3DFACE
  8
0
 10
27.682159423828125
 20
67.16171264648438
 30
138.0
 11
27.4752197265625
 21
66.93794250488281
 31
138.0
 12
27.432035446166992
 22
66.88488006591797
 32
138.0
 13
27.432035446166992
 23
66.88488006591797
 33
138.0
  0
3DFACE
  8
0
 10
27.432035446166992
 20
66.88488006591797
 30
138.0
 11
27.406705856323242
 21
66.84883880615234
 31
138.0
 12
27.129531860351562
 22
66.42975616455078
 32
138.0
 13
27.129531860351562
 23
66.42975616455078
 33
138.0
  0
3DFACE
  8
0
 10
27.129531860351562
 20
66.42975616455078
 30
138.0
 11
26.807966232299805
 21
65.86762237548828
 31
138.0
 12
26.437326431274414
 22
65.1468276977539
 32
138.0
 13
26.437326431274414
 23
65.1468276977539
 33
138.0
  0
3DFACE
  8
0
 10
26.437326431274414
 20
65.1468276977539
 30
138.0
 11
26.40000343322754
 21
65.06797790527344
 31
138.0
 12
26.1474666595459
 22
64.36177062988281
 32
138.0
 13
26.1474666595459
 23
64.36177062988281
 33
138.0
  0
3DFACE
  8
0
 10
26.128252029418945
 20
64.2851791381836
 30
138.0
 11
25.96739387512207
 21
63.794830322265625
 31
138.0
 12
25.864948272705078
 22
63.3747673034668
 32
138.0
 13
25.864948272705078
 23
63.3747673034668
 33
138.0
  0
3DFACE
  8
0
 10
26.437326431274414
 20
65.1468276977539
 30
138.0
 11
26.1474666595459
 21
64.36177062988281
 31
138.0
 12
26.128252029418945
 22
64.2851791381836
 32
138.0
 13
26.128252029418945
 23
64.2851791381836
 33
138.0
  0
3DFACE
  8
0
 10
27.432035446166992
 20
66.88488006591797
 30
138.0
 11
27.129531860351562
 21
66.42975616455078
 31
138.0
 12
26.437326431274414
 22
65.1468276977539
 32
138.0
 13
26.437326431274414
 23
65.1468276977539
 33
138.0
  0
3DFACE
  8
0
 10
29.412471771240234
 20
68.87301635742188
 30
138.0
 11
28.530532836914062
 21
68.10824584960938
 31
138.0
 12
27.682159423828125
 22
67.16171264648438
 32
138.0
 13
27.682159423828125
 23
67.16171264648438
 33
138.0
  0
3DFACE
  8
0
 10
27.682159423828125
 20
67.16171264648438
 30
138.0
 11
27.432035446166992
 21
66.88488006591797
 31
138.0
 12
26.437326431274414
 22
65.1468276977539
 32
138.0
 13
26.437326431274414
 23
65.1468276977539
 33
138.0
  0
3DFACE
  8
0
 10
26.437326431274414
 20
65.1468276977539
 30
138.0
 11
26.128252029418945
 21
64.2851791381836
 31
138.0
 12
25.864948272705078
 22
63.3747673034668
 32
138.0
 13
25.864948272705078
 23
63.3747673034668
 33
138.0
  0
3DFACE
  8
0
 10
25.864948272705078
 20
63.3747673034668
 30
138.0
 11
25.824222564697266
 21
63.224815368652344
 31
138.0
 12
25.777122497558594
 22
62.993404388427734
 32
138.0
 13
25.777122497558594
 23
62.993404388427734
 33
138.0
  0
3DFACE
  8
0
 10
25.72258186340332
 20
62.61031723022461
 30
138.0
 11
25.647254943847656
 21
62.20627212524414
 31
138.0
 12
25.607181549072266
 22
61.53676986694336
 32
138.0
 13
25.607181549072266
 23
61.53676986694336
 33
138.0
  0
3DFACE
  8
0
 10
25.864948272705078
 20
63.3747673034668
 30
138.0
 11
25.777122497558594
 21
62.993404388427734
 31
138.0
 12
25.72258186340332
 22
62.61031723022461
 32
138.0
 13
25.72258186340332
 23
62.61031723022461
 33
138.0
  0
3DFACE
  8
0
 10
27.682159423828125
 20
67.16171264648438
 30
138.0
 11
26.437326431274414
 21
65.1468276977539
 31
138.0
 12
25.864948272705078
 22
63.3747673034668
 32
138.0
 13
25.864948272705078
 23
63.3747673034668
 33
138.0
  0
3DFACE
  8
0
 10
29.869609832763672
 20
69.20601654052734
 30
138.0
 11
29.412471771240234
 21
68.87301635742188
 31
138.0
 12
27.682159423828125
 22
67.16171264648438
 32
138.0
 13
27.682159423828125
 23
67.16171264648438
 33
138.0
  0
3DFACE
  8
0
 10
31.832956314086914
 20
70.18950653076172
 30
138.0
 11
30.743404388427734
 21
69.72441101074219
 31
138.0
 12
29.869609832763672
 22
69.20601654052734
 32
138.0
 13
29.869609832763672
 23
69.20601654052734
 33
138.0
  0
3DFACE
  8
0
 10
38.6441650390625
 20
69.6038818359375
 30
138.0
 11
35.53080368041992
 21
70.60820007324219
 31
138.0
 12
31.832956314086914
 22
70.18950653076172
 32
138.0
 13
31.832956314086914
 23
70.18950653076172
 33
138.0
  0
3DFACE
  8
0
 10
40.986385345458984
 20
56.25642013549805
 30
138.0
 11
41.9815673828125
 21
65.35482025146484
 31
138.0
 12
38.6441650390625
 22
69.6038818359375
 32
138.0
 13
38.6441650390625
 23
69.6038818359375
 33
138.0
  0
3DFACE
  8
0
 10
33.68233871459961
 20
52.38401412963867
 30
138.0
 11
35.30583190917969
 21
52.485721588134766
 31
138.0
 12
40.986385345458984
 22
56.25642013549805
 32
138.0
 13
40.986385345458984
 23
56.25642013549805
 33
138.0
  0
3DFACE
  8
0
 10
32.26991653442383
 20
52.50203323364258
 30
138.0
 11
32.410247802734375
 21
52.48539733886719
 31
138.0
 12
33.68233871459961
 22
52.38401412963867
 32
138.0
 13
33.68233871459961
 23
52.38401412963867
 33
138.0
  0
3DFACE
  8
0
 10
30.70899200439453
 20
52.91778564453125
 30
138.0
 11
31.794763565063477
 21
52.5919075012207
 31
138.0
 12
32.26991653442383
 22
52.50203323364258
 32
138.0
 13
32.26991653442383
 23
52.50203323364258
 33
138.0
  0
3DFACE
  8
0
 10
29.936986923217773
 20
53.297969818115234
 30
138.0
 11
30.42205047607422
 21
53.0391731262207
 31
138.0
 12
30.70899200439453
 22
52.91778564453125
 32
138.0
 13
30.70899200439453
 23
52.91778564453125
 33
138.0
  0
3DFACE
  8
0
 10
29.171016693115234
 20
53.801002502441406
 30
138.0
 11
29.717117309570312
 21
53.43379211425781
 31
138.0
 12
29.936986923217773
 22
53.297969818115234
 32
138.0
 13
29.936986923217773
 23
53.297969818115234
 33
138.0
  0
3DFACE
  8
0
 10
28.4127254486084
 20
54.460453033447266
 30
138.0
 11
28.54843521118164
 21
54.33488464355469
 31
138.0
 12
29.171016693115234
 22
53.801002502441406
 32
138.0
 13
29.171016693115234
 23
53.801002502441406
 33
138.0
  0
3DFACE
  8
0
 10
27.842363357543945
 20
55.12202835083008
 30
138.0
 11
28.192182540893555
 21
54.710418701171875
 31
138.0
 12
28.4127254486084
 22
54.460453033447266
 32
138.0
 13
28.4127254486084
 23
54.460453033447266
 33
138.0
  0
3DFACE
  8
0
 10
27.519033432006836
 20
55.604305267333984
 30
138.0
 11
27.666492462158203
 21
55.365604400634766
 31
138.0
 12
27.842363357543945
 22
55.12202835083008
 32
138.0
 13
27.842363357543945
 23
55.12202835083008
 33
138.0
  0
3DFACE
  8
0
 10
27.005754470825195
 20
56.46610641479492
 30
138.0
 11
27.317853927612305
 21
55.905677795410156
 31
138.0
 12
27.519033432006836
 22
55.604305267333984
 32
138.0
 13
27.519033432006836
 23
55.604305267333984
 33
138.0
  0
3DFACE
  8
0
 10
26.86493682861328
 20
56.71971893310547
 30
138.0
 11
26.932172775268555
 21
56.5908088684082
 31
138.0
 12
27.005754470825195
 22
56.46610641479492
 32
138.0
 13
27.005754470825195
 23
56.46610641479492
 33
138.0
  0
3DFACE
  8
0
 10
26.5382137298584
 20
57.451751708984375
 30
138.0
 11
26.63758659362793
 21
57.2050666809082
 31
138.0
 12
26.86493682861328
 22
56.71971893310547
 32
138.0
 13
26.86493682861328
 23
56.71971893310547
 33
138.0
  0
3DFACE
  8
0
 10
26.178544998168945
 20
58.342506408691406
 30
138.0
 11
26.28638458251953
 21
58.03986740112305
 31
138.0
 12
26.5382137298584
 22
57.451751708984375
 32
138.0
 13
26.5382137298584
 23
57.451751708984375
 33
138.0
  0
3DFACE
  8
0
 10
26.09009552001953
 20
58.61970138549805
 30
138.0
 11
26.128253936767578
 21
58.47440719604492
 31
138.0
 12
26.178544998168945
 22
58.342506408691406
 32
138.0
 13
26.178544998168945
 23
58.342506408691406
 33
138.0
  0
3DFACE
  8
0
 10
25.768274307250977
 20
59.8448486328125
 30
138.0
 11
25.86663818359375
 21
59.30754089355469
 31
138.0
 12
26.09009552001953
 22
58.61970138549805
 32
138.0
 13
26.09009552001953
 23
58.61970138549805
 33
138.0
  0
3DFACE
  8
0
 10
25.627466201782227
 20
60.758827209472656
 30
138.0
 11
25.64790916442871
 21
60.631988525390625
 31
138.0
 12
25.67962074279785
 22
60.463626861572266
 32
138.0
 13
25.67962074279785
 23
60.463626861572266
 33
138.0
  0
3DFACE
  8
0
 10
25.67962074279785
 20
60.463626861572266
 30
138.0
 11
25.768274307250977
 21
59.8448486328125
 31
138.0
 12
26.09009552001953
 22
58.61970138549805
 32
138.0
 13
26.09009552001953
 23
58.61970138549805
 33
138.0
  0
3DFACE
  8
0
 10
26.09009552001953
 20
58.61970138549805
 30
138.0
 11
26.178544998168945
 21
58.342506408691406
 31
138.0
 12
26.5382137298584
 22
57.451751708984375
 32
138.0
 13
26.5382137298584
 23
57.451751708984375
 33
138.0
  0
3DFACE
  8
0
 10
26.5382137298584
 20
57.451751708984375
 30
138.0
 11
26.86493682861328
 21
56.71971893310547
 31
138.0
 12
27.005754470825195
 22
56.46610641479492
 32
138.0
 13
27.005754470825195
 23
56.46610641479492
 33
138.0
  0
3DFACE
  8
0
 10
27.005754470825195
 20
56.46610641479492
 30
138.0
 11
27.519033432006836
 21
55.604305267333984
 31
138.0
 12
27.842363357543945
 22
55.12202835083008
 32
138.0
 13
27.842363357543945
 23
55.12202835083008
 33
138.0
  0
3DFACE
  8
0
 10
27.842363357543945
 20
55.12202835083008
 30
138.0
 11
28.4127254486084
 21
54.460453033447266
 31
138.0
 12
29.171016693115234
 22
53.801002502441406
 32
138.0
 13
29.171016693115234
 23
53.801002502441406
 33
138.0
  0
3DFACE
  8
0
 10
29.171016693115234
 20
53.801002502441406
 30
138.0
 11
29.936986923217773
 21
53.297969818115234
 31
138.0
 12
30.70899200439453
 22
52.91778564453125
 32
138.0
 13
30.70899200439453
 23
52.91778564453125
 33
138.0
  0
3DFACE
  8
0
 10
30.70899200439453
 20
52.91778564453125
 30
138.0
 11
32.26991653442383
 21
52.50203323364258
 31
138.0
 12
33.68233871459961
 22
52.38401412963867
 32
138.0
 13
33.68233871459961
 23
52.38401412963867
 33
138.0
  0
3DFACE
  8
0
 10
33.68233871459961
 20
52.38401412963867
 30
138.0
 11
40.986385345458984
 21
56.25642013549805
 31
138.0
 12
38.6441650390625
 22
69.6038818359375
 32
138.0
 13
38.6441650390625
 23
69.6038818359375
 33
138.0
  0
3DFACE
  8
0
 10
38.6441650390625
 20
69.6038818359375
 30
138.0
 11
31.832956314086914
 21
70.18950653076172
 31
138.0
 12
29.869609832763672
 22
69.20601654052734
 32
138.0
 13
29.869609832763672
 23
69.20601654052734
 33
138.0
  0
3DFACE
  8
0
 10
29.869609832763672
 20
69.20601654052734
 30
138.0
 11
27.682159423828125
 21
67.16171264648438
 31
138.0
 12
25.864948272705078
 22
63.3747673034668
 32
138.0
 13
25.864948272705078
 23
63.3747673034668
 33
138.0
  0
3DFACE
  8
0
 10
25.864948272705078
 20
63.3747673034668
 30
138.0
 11
25.72258186340332
 21
62.61031723022461
 31
138.0
 12
25.607181549072266
 22
61.53676986694336
 32
138.0
 13
25.607181549072266
 23
61.53676986694336
 33
138.0
  0
3DFACE
  8
0
 10
25.607181549072266
 20
61.53676986694336
 30
138.0
 11
25.59560203552246
 21
61.41912841796875
 31
138.0
 12
25.627466201782227
 22
60.758827209472656
 32
138.0
 13
25.627466201782227
 23
60.758827209472656
 33
138.0
  0
3DFACE
  8
0
 10
25.627466201782227
 20
60.758827209472656
 30
138.0
 11
25.67962074279785
 21
60.463626861572266
 31
138.0
 12
26.09009552001953
 22
58.61970138549805
 32
138.0
 13
26.09009552001953
 23
58.61970138549805
 33
138.0
  0
3DFACE
  8
0
 10
26.09009552001953
 20
58.61970138549805
 30
138.0
 11
26.5382137298584
 21
57.451751708984375
 31
138.0
 12
27.005754470825195
 22
56.46610641479492
 32
138.0
 13
27.005754470825195
 23
56.46610641479492
 33
138.0
  0
3DFACE
  8
0
 10
27.005754470825195
 20
56.46610641479492
 30
138.0
 11
27.842363357543945
 21
55.12202835083008
 31
138.0
 12
29.171016693115234
 22
53.801002502441406
 32
138.0
 13
29.171016693115234
 23
53.801002502441406
 33
138.0
  0
3DFACE
  8
0
 10
29.171016693115234
 20
53.801002502441406
 30
138.0
 11
30.70899200439453
 21
52.91778564453125
 31
138.0
 12
33.68233871459961
 22
52.38401412963867
 32
138.0
 13
33.68233871459961
 23
52.38401412963867
 33
138.0
  0
3DFACE
  8
0
 10
33.68233871459961
 20
52.38401412963867
 30
138.0
 11
38.6441650390625
 21
69.6038818359375
 31
138.0
 12
29.869609832763672
 22
69.20601654052734
 32
138.0
 13
29.869609832763672
 23
69.20601654052734
 33
138.0
  0
3DFACE
  8
0
 10
29.869609832763672
 20
69.20601654052734
 30
138.0
 11
25.864948272705078
 21
63.3747673034668
 31
138.0
 12
25.607181549072266
 22
61.53676986694336
 32
138.0
 13
25.607181549072266
 23
61.53676986694336
 33
138.0
  0
3DFACE
  8
0
 10
25.607181549072266
 20
61.53676986694336
 30
138.0
 11
25.627466201782227
 21
60.758827209472656
 31
138.0
 12
26.09009552001953
 22
58.61970138549805
 32
138.0
 13
26.09009552001953
 23
58.61970138549805
 33
138.0
  0
3DFACE
  8
0
 10
26.09009552001953
 20
58.61970138549805
 30
138.0
 11
27.005754470825195
 21
56.46610641479492
 31
138.0
 12
29.171016693115234
 22
53.801002502441406
 32
138.0
 13
29.171016693115234
 23
53.801002502441406
 33
138.0
  0
3DFACE
  8
0
 10
29.171016693115234
 20
53.801002502441406
 30
138.0
 11
33.68233871459961
 21
52.38401412963867
 31
138.0
 12
29.869609832763672
 22
69.20601654052734
 32
138.0
 13
29.869609832763672
 23
69.20601654052734
 33
138.0
  0
3DFACE
  8
0
 10
29.869609832763672
 20
69.20601654052734
 30
138.0
 11
25.607181549072266
 21
61.53676986694336
 31
138.0
 12
26.09009552001953
 22
58.61970138549805
 32
138.0
 13
26.09009552001953
 23
58.61970138549805
 33
138.0
  0
3DFACE
  8
0
 10
29.869609832763672
 20
69.20601654052734
 30
138.0
 11
26.09009552001953
 21
58.61970138549805
 31
138.0
 12
29.171016693115234
 22
53.801002502441406
 32
138.0
 13
29.171016693115234
 23
53.801002502441406
 33
138.0
  0
ENDSEC
  0
EOF
