  0
SECTION
  2
HEADER
  9
$ACADVER
  1
AC1009
  9
$INSBASE
 10
0.0
 20
0.0
 30
0.0
  9
$EXTMIN
 10
0.0
 20
0.0
 30
0.0
  9
$EXTMAX
 10
0.0
 20
0.0
 30
0.0
  0
ENDSEC
  0
SECTION
  2
TABLES
  0
TABLE
  2
VPORT
 70
1
  0
VPORT
  2
*ACTIVE
 70
0
 10
0.0
 20
0.0
 11
1.0
 21
1.0
 12
-5.0
 22
1.0
 13
0.0
 23
0.0
 14
0.1
 24
0.1
 15
0.1
 25
0.1
 16
0.0
 26
0.0
 36
1.0
 17
0.0
 27
0.0
 37
0.0
 40
10.0
 41
1.0
 42
50.0
 43
0.0
 44
0.0
 50
0.0
 51
0.0
 71
0
 72
100
 73
1
 74
1
 75
0
 76
0
 77
0
 78
0
  0
ENDTAB
  0
TABLE
  2
LTYPE
 70
8
  0
LTYPE
  2
CONTINUOUS
 70
0
  3
Solid line
 72
65
 73
0
 40
0.0
  0
LTYPE
  2
DOT
 70
0
  3
. . . . . . .
 72
65
 73
2
 40
0.25
 49
0.0
 49
-0.25
  0
LTYPE
  2
DASHED
 70
0
  3
__ __ __ __ __
 72
65
 73
2
 40
0.8
 49
0.5
 49
-0.3
  0
LTYPE
  2
DASHDOT
 70
0
  3
__ . __ . __ .
 72
65
 73
4
 40
1.0
 49
0.5
 49
-0.25
 49
0.0
 49
-0.25
  0
LTYPE
  2
DIVIDE
 70
0
  3
____ . . ____ . . 
 72
65
 73
6
 40
1.25
 49
0.5
 49
-0.25
 49
0.0
 49
-0.25
 49
0.0
 49
-0.25
  0
LTYPE
  2
BORDER
 70
0
  3
__ __ . __ __ . 
 72
65
 73
6
 40
1.75
 49
0.5
 49
-0.25
 49
0.5
 49
-0.25
 49
0.0
 49
-0.25
  0
LTYPE
  2
HIDDEN
 70
0
  3
__ __ __ __ __
 72
65
 73
2
 40
0.4
 49
0.25
 49
-0.25
  0
LTYPE
  2
CENTER
 70
0
  3
____ _ ____ _ __
 72
65
 73
4
 40
2.0
 49
1.25
 49
-0.25
 49
0.25
 49
-0.25
  0
ENDTAB
  0
TABLE
  2
LAYER
 70
1
  0
LAYER
  2
PYDXF
 70
64
 62
7
  6
continuous
  0
ENDTAB
  0
TABLE
  2
STYLE
 70
1
  0
STYLE
  2
STANDARD
 70
0
 40
0
 41
1.0
 50
0.0
 71
0
 42
1
 3
ARIAL.TTF
 4

  0
ENDTAB
  0
TABLE
  2
VIEW
 70
1
  0
VIEW
  2
BF_TOPVIEW
 70
0
 40
120.0
 10
0.0
 20
0.0
 41
200.0
 11
0.0
 21
0.0
 31
1.0
 12
0.0
 22
0.0
 32
0.0
 42
50.0
 43
0.0
 44
0.0
 50
0.0
 71
0
  0
ENDTAB
  0
ENDSEC
  0
SECTION
  2
BLOCKS
  0
ENDSEC
  0
SECTION
  2
ENTITIES
  0
3DFACE
  8
0
 10
-18.12587547302246
 20
-64.0580062866211
 30
140.0
 11
-18.109140396118164
 21
-64.04157257080078
 31
140.0
 12
-18.102556228637695
 22
-64.0342025756836
 32
140.0
 13
-18.102556228637695
 23
-64.0342025756836
 33
140.0
  0
3DFACE
  8
0
 10
-18.102556228637695
 20
-64.0342025756836
 30
140.0
 11
-17.5876522064209
 21
-63.43582534790039
 31
140.0
 12
-17.292564392089844
 22
-63.041805267333984
 32
140.0
 13
-17.292564392089844
 23
-63.041805267333984
 33
140.0
  0
3DFACE
  8
0
 10
-17.292564392089844
 20
-63.041805267333984
 30
140.0
 11
-17.049304962158203
 21
-62.677120208740234
 31
140.0
 12
-16.581314086914062
 22
-61.841033935546875
 32
140.0
 13
-16.581314086914062
 23
-61.841033935546875
 33
140.0
  0
3DFACE
  8
0
 10
-16.570707321166992
 20
-61.817230224609375
 30
140.0
 11
-16.24275779724121
 21
-61.112117767333984
 31
140.0
 12
-16.23326301574707
 22
-61.088314056396484
 32
140.0
 13
-16.23326301574707
 23
-61.088314056396484
 33
140.0
  0
3DFACE
  8
0
 10
-17.292564392089844
 20
-63.041805267333984
 30
140.0
 11
-16.581314086914062
 21
-61.841033935546875
 31
140.0
 12
-16.570707321166992
 22
-61.817230224609375
 32
140.0
 13
-16.570707321166992
 23
-61.817230224609375
 33
140.0
  0
3DFACE
  8
0
 10
-18.12587547302246
 20
-64.0580062866211
 30
140.0
 11
-18.102556228637695
 21
-64.0342025756836
 31
140.0
 12
-17.292564392089844
 22
-63.041805267333984
 32
140.0
 13
-17.292564392089844
 23
-63.041805267333984
 33
140.0
  0
3DFACE
  8
0
 10
-19.274965286254883
 20
-65.02570343017578
 30
140.0
 11
-19.258024215698242
 21
-65.01190948486328
 31
140.0
 12
-18.12587547302246
 22
-64.0580062866211
 32
140.0
 13
-18.12587547302246
 23
-64.0580062866211
 33
140.0
  0
3DFACE
  8
0
 10
-20.430519104003906
 20
-65.81954956054688
 30
140.0
 11
-19.660921096801758
 21
-65.29721069335938
 31
140.0
 12
-19.274965286254883
 22
-65.02570343017578
 32
140.0
 13
-19.274965286254883
 23
-65.02570343017578
 33
140.0
  0
3DFACE
  8
0
 10
-22.053428649902344
 20
-66.53954315185547
 30
140.0
 11
-21.23914909362793
 21
-66.21041107177734
 31
140.0
 12
-20.430519104003906
 22
-65.81954956054688
 32
140.0
 13
-20.430519104003906
 23
-65.81954956054688
 33
140.0
  0
3DFACE
  8
0
 10
-22.780351638793945
 20
-66.8033676147461
 30
140.0
 11
-22.061965942382812
 21
-66.54348754882812
 31
140.0
 12
-22.053428649902344
 22
-66.53954315185547
 32
140.0
 13
-22.053428649902344
 23
-66.53954315185547
 33
140.0
  0
3DFACE
  8
0
 10
-23.56354331970215
 20
-66.93844604492188
 30
140.0
 11
-22.804744720458984
 21
-66.81055450439453
 31
140.0
 12
-22.780351638793945
 22
-66.8033676147461
 32
140.0
 13
-22.780351638793945
 23
-66.8033676147461
 33
140.0
  0
3DFACE
  8
0
 10
-24.369165420532227
 20
-67.01776885986328
 30
140.0
 11
-23.58665657043457
 21
-66.94510650634766
 31
140.0
 12
-23.56354331970215
 22
-66.93844604492188
 32
140.0
 13
-23.56354331970215
 23
-66.93844604492188
 33
140.0
  0
3DFACE
  8
0
 10
-25.151662826538086
 20
-67.01788330078125
 30
140.0
 11
-24.392969131469727
 21
-67.01847076416016
 31
140.0
 12
-24.369165420532227
 22
-67.01776885986328
 32
140.0
 13
-24.369165420532227
 23
-67.01776885986328
 33
140.0
  0
3DFACE
  8
0
 10
-25.964723587036133
 20
-66.98112487792969
 30
140.0
 11
-25.934167861938477
 21
-66.98661804199219
 31
140.0
 12
-25.151662826538086
 22
-67.01788330078125
 32
140.0
 13
-25.151662826538086
 23
-67.01788330078125
 33
140.0
  0
3DFACE
  8
0
 10
-27.56770133972168
 20
-66.60933685302734
 30
140.0
 11
-27.52853012084961
 21
-66.61921691894531
 31
140.0
 12
-27.472362518310547
 22
-66.63086700439453
 32
140.0
 13
-27.472362518310547
 23
-66.63086700439453
 33
140.0
  0
3DFACE
  8
0
 10
-27.472362518310547
 20
-66.63086700439453
 30
140.0
 11
-25.964723587036133
 21
-66.98112487792969
 31
140.0
 12
-25.151662826538086
 22
-67.01788330078125
 32
140.0
 13
-25.151662826538086
 23
-67.01788330078125
 33
140.0
  0
3DFACE
  8
0
 10
-25.151662826538086
 20
-67.01788330078125
 30
140.0
 11
-24.369165420532227
 21
-67.01776885986328
 31
140.0
 12
-23.56354331970215
 22
-66.93844604492188
 32
140.0
 13
-23.56354331970215
 23
-66.93844604492188
 33
140.0
  0
3DFACE
  8
0
 10
-23.56354331970215
 20
-66.93844604492188
 30
140.0
 11
-22.780351638793945
 21
-66.8033676147461
 31
140.0
 12
-22.053428649902344
 22
-66.53954315185547
 32
140.0
 13
-22.053428649902344
 23
-66.53954315185547
 33
140.0
  0
3DFACE
  8
0
 10
-22.053428649902344
 20
-66.53954315185547
 30
140.0
 11
-20.430519104003906
 21
-65.81954956054688
 31
140.0
 12
-19.274965286254883
 22
-65.02570343017578
 32
140.0
 13
-19.274965286254883
 23
-65.02570343017578
 33
140.0
  0
3DFACE
  8
0
 10
-19.274965286254883
 20
-65.02570343017578
 30
140.0
 11
-18.12587547302246
 21
-64.0580062866211
 31
140.0
 12
-17.292564392089844
 22
-63.041805267333984
 32
140.0
 13
-17.292564392089844
 23
-63.041805267333984
 33
140.0
  0
3DFACE
  8
0
 10
-17.292564392089844
 20
-63.041805267333984
 30
140.0
 11
-16.570707321166992
 21
-61.817230224609375
 31
140.0
 12
-16.23326301574707
 22
-61.088314056396484
 32
140.0
 13
-16.23326301574707
 23
-61.088314056396484
 33
140.0
  0
3DFACE
  8
0
 10
-16.22779083251953
 20
-61.064510345458984
 30
140.0
 11
-16.020776748657227
 21
-60.30581283569336
 31
140.0
 12
-16.016725540161133
 22
-60.28200912475586
 32
140.0
 13
-16.016725540161133
 23
-60.28200912475586
 33
140.0
  0
3DFACE
  8
0
 10
-17.292564392089844
 20
-63.041805267333984
 30
140.0
 11
-16.23326301574707
 21
-61.088314056396484
 31
140.0
 12
-16.22779083251953
 22
-61.064510345458984
 32
140.0
 13
-16.22779083251953
 23
-61.064510345458984
 33
140.0
  0
3DFACE
  8
0
 10
-22.053428649902344
 20
-66.53954315185547
 30
140.0
 11
-19.274965286254883
 21
-65.02570343017578
 31
140.0
 12
-17.292564392089844
 22
-63.041805267333984
 32
140.0
 13
-17.292564392089844
 23
-63.041805267333984
 33
140.0
  0
3DFACE
  8
0
 10
-25.151662826538086
 20
-67.01788330078125
 30
140.0
 11
-23.56354331970215
 21
-66.93844604492188
 31
140.0
 12
-22.053428649902344
 22
-66.53954315185547
 32
140.0
 13
-22.053428649902344
 23
-66.53954315185547
 33
140.0
  0
3DFACE
  8
0
 10
-27.56770133972168
 20
-66.60933685302734
 30
140.0
 11
-27.472362518310547
 21
-66.63086700439453
 31
140.0
 12
-25.151662826538086
 22
-67.01788330078125
 32
140.0
 13
-25.151662826538086
 23
-67.01788330078125
 33
140.0
  0
3DFACE
  8
0
 10
-28.315134048461914
 20
-66.37174987792969
 30
140.0
 11
-28.281675338745117
 21
-66.38700103759766
 31
140.0
 12
-27.56770133972168
 22
-66.60933685302734
 32
140.0
 13
-27.56770133972168
 23
-66.60933685302734
 33
140.0
  0
3DFACE
  8
0
 10
-29.767812728881836
 20
-65.58203887939453
 30
140.0
 11
-29.14922332763672
 21
-65.93782806396484
 31
140.0
 12
-28.315134048461914
 22
-66.37174987792969
 32
140.0
 13
-28.315134048461914
 23
-66.37174987792969
 33
140.0
  0
3DFACE
  8
0
 10
-30.602367401123047
 20
-64.9097671508789
 30
140.0
 11
-29.846681594848633
 21
-65.5285873413086
 31
140.0
 12
-29.767812728881836
 22
-65.58203887939453
 32
140.0
 13
-29.767812728881836
 23
-65.58203887939453
 33
140.0
  0
3DFACE
  8
0
 10
-31.17717742919922
 20
-64.21832275390625
 30
140.0
 11
-30.629182815551758
 21
-64.88145446777344
 31
140.0
 12
-30.602367401123047
 22
-64.9097671508789
 32
140.0
 13
-30.602367401123047
 23
-64.9097671508789
 33
140.0
  0
3DFACE
  8
0
 10
-31.43768310546875
 20
-63.810237884521484
 30
140.0
 11
-31.411691665649414
 21
-63.862884521484375
 31
140.0
 12
-31.17717742919922
 22
-64.21832275390625
 32
140.0
 13
-31.17717742919922
 23
-64.21832275390625
 33
140.0
  0
3DFACE
  8
0
 10
-31.88296890258789
 20
-62.79576110839844
 30
140.0
 11
-31.645111083984375
 21
-63.43752670288086
 31
140.0
 12
-31.43768310546875
 22
-63.810237884521484
 32
140.0
 13
-31.43768310546875
 23
-63.810237884521484
 33
140.0
  0
3DFACE
  8
0
 10
-32.199256896972656
 20
-61.87080764770508
 30
140.0
 11
-32.188880920410156
 21
-61.9045295715332
 31
140.0
 12
-31.88296890258789
 22
-62.79576110839844
 32
140.0
 13
-31.88296890258789
 23
-62.79576110839844
 33
140.0
  0
3DFACE
  8
0
 10
-32.34502410888672
 20
-61.088314056396484
 30
140.0
 11
-32.341102600097656
 21
-61.112117767333984
 31
140.0
 12
-32.199256896972656
 22
-61.87080764770508
 32
140.0
 13
-32.199256896972656
 23
-61.87080764770508
 33
140.0
  0
3DFACE
  8
0
 10
-32.44768524169922
 20
-60.28289794921875
 30
140.0
 11
-32.447662353515625
 21
-60.30581283569336
 31
140.0
 12
-32.34659194946289
 22
-61.06541061401367
 32
140.0
 13
-32.34659194946289
 23
-61.06541061401367
 33
140.0
  0
3DFACE
  8
0
 10
-32.34659194946289
 20
-61.06541061401367
 30
140.0
 11
-32.34502410888672
 21
-61.088314056396484
 31
140.0
 12
-32.199256896972656
 22
-61.87080764770508
 32
140.0
 13
-32.199256896972656
 23
-61.87080764770508
 33
140.0
  0
3DFACE
  8
0
 10
-32.199256896972656
 20
-61.87080764770508
 30
140.0
 11
-31.88296890258789
 21
-62.79576110839844
 31
140.0
 12
-31.43768310546875
 22
-63.810237884521484
 32
140.0
 13
-31.43768310546875
 23
-63.810237884521484
 33
140.0
  0
3DFACE
  8
0
 10
-31.43768310546875
 20
-63.810237884521484
 30
140.0
 11
-31.17717742919922
 21
-64.21832275390625
 31
140.0
 12
-30.602367401123047
 22
-64.9097671508789
 32
140.0
 13
-30.602367401123047
 23
-64.9097671508789
 33
140.0
  0
3DFACE
  8
0
 10
-30.602367401123047
 20
-64.9097671508789
 30
140.0
 11
-29.767812728881836
 21
-65.58203887939453
 31
140.0
 12
-28.315134048461914
 22
-66.37174987792969
 32
140.0
 13
-28.315134048461914
 23
-66.37174987792969
 33
140.0
  0
3DFACE
  8
0
 10
-28.315134048461914
 20
-66.37174987792969
 30
140.0
 11
-27.56770133972168
 21
-66.60933685302734
 31
140.0
 12
-25.151662826538086
 22
-67.01788330078125
 32
140.0
 13
-25.151662826538086
 23
-67.01788330078125
 33
140.0
  0
3DFACE
  8
0
 10
-25.151662826538086
 20
-67.01788330078125
 30
140.0
 11
-22.053428649902344
 21
-66.53954315185547
 31
140.0
 12
-17.292564392089844
 22
-63.041805267333984
 32
140.0
 13
-17.292564392089844
 23
-63.041805267333984
 33
140.0
  0
3DFACE
  8
0
 10
-17.292564392089844
 20
-63.041805267333984
 30
140.0
 11
-16.22779083251953
 21
-61.064510345458984
 31
140.0
 12
-16.016725540161133
 22
-60.28200912475586
 32
140.0
 13
-16.016725540161133
 23
-60.28200912475586
 33
140.0
  0
3DFACE
  8
0
 10
-16.016725540161133
 20
-60.28200912475586
 30
140.0
 11
-15.835384368896484
 21
-59.5233039855957
 31
140.0
 12
-15.83247184753418
 22
-59.504093170166016
 32
140.0
 13
-15.83247184753418
 23
-59.504093170166016
 33
140.0
  0
3DFACE
  8
0
 10
-15.83247184753418
 20
-59.504093170166016
 30
140.0
 11
-15.675329208374023
 21
-58.74539566040039
 31
140.0
 12
-15.671795845031738
 22
-58.71699905395508
 32
140.0
 13
-15.671795845031738
 23
-58.71699905395508
 33
140.0
  0
3DFACE
  8
0
 10
-15.671795845031738
 20
-58.71699905395508
 30
140.0
 11
-15.566167831420898
 21
-57.95829391479492
 31
140.0
 12
-15.564221382141113
 22
-57.93449020385742
 32
140.0
 13
-15.564221382141113
 23
-57.93449020385742
 33
140.0
  0
3DFACE
  8
0
 10
-15.564221382141113
 20
-57.93449020385742
 30
140.0
 11
-15.480011940002441
 21
-57.17580032348633
 31
140.0
 12
-15.47981071472168
 22
-57.15199661254883
 32
140.0
 13
-15.47981071472168
 23
-57.15199661254883
 33
140.0
  0
3DFACE
  8
0
 10
-15.47981071472168
 20
-57.15199661254883
 30
140.0
 11
-15.407086372375488
 21
-56.3932991027832
 31
140.0
 12
-15.407367706298828
 22
-56.3694953918457
 32
140.0
 13
-15.407367706298828
 23
-56.3694953918457
 33
140.0
  0
3DFACE
  8
0
 10
-15.407367706298828
 20
-56.3694953918457
 30
140.0
 11
-15.44619369506836
 21
-55.61079025268555
 31
140.0
 12
-15.448840141296387
 22
-55.58698654174805
 32
140.0
 13
-15.448840141296387
 23
-55.58698654174805
 33
140.0
  0
3DFACE
  8
0
 10
-15.448840141296387
 20
-55.58698654174805
 30
140.0
 11
-15.460349082946777
 21
-54.82828903198242
 31
140.0
 12
-15.58273696899414
 22
-54.0695915222168
 32
140.0
 13
-15.58273696899414
 23
-54.0695915222168
 33
140.0
  0
3DFACE
  8
0
 10
-15.58273696899414
 20
-54.0695915222168
 30
140.0
 11
-15.587347030639648
 21
-54.0457878112793
 31
140.0
 12
-15.77504825592041
 22
-53.28835678100586
 32
140.0
 13
-15.77504825592041
 23
-53.28835678100586
 33
140.0
  0
3DFACE
  8
0
 10
-15.78807258605957
 20
-53.26455307006836
 30
140.0
 11
-16.10262680053711
 21
-52.47863006591797
 31
140.0
 12
-16.545148849487305
 22
-51.76366424560547
 32
140.0
 13
-16.545148849487305
 23
-51.76366424560547
 33
140.0
  0
3DFACE
  8
0
 10
-15.58273696899414
 20
-54.0695915222168
 30
140.0
 11
-15.77504825592041
 21
-53.28835678100586
 31
140.0
 12
-15.78807258605957
 22
-53.26455307006836
 32
140.0
 13
-15.78807258605957
 23
-53.26455307006836
 33
140.0
  0
3DFACE
  8
0
 10
-15.407367706298828
 20
-56.3694953918457
 30
140.0
 11
-15.448840141296387
 21
-55.58698654174805
 31
140.0
 12
-15.58273696899414
 22
-54.0695915222168
 32
140.0
 13
-15.58273696899414
 23
-54.0695915222168
 33
140.0
  0
3DFACE
  8
0
 10
-15.564221382141113
 20
-57.93449020385742
 30
140.0
 11
-15.47981071472168
 21
-57.15199661254883
 31
140.0
 12
-15.407367706298828
 22
-56.3694953918457
 32
140.0
 13
-15.407367706298828
 23
-56.3694953918457
 33
140.0
  0
3DFACE
  8
0
 10
-15.83247184753418
 20
-59.504093170166016
 30
140.0
 11
-15.671795845031738
 21
-58.71699905395508
 31
140.0
 12
-15.564221382141113
 22
-57.93449020385742
 32
140.0
 13
-15.564221382141113
 23
-57.93449020385742
 33
140.0
  0
3DFACE
  8
0
 10
-17.292564392089844
 20
-63.041805267333984
 30
140.0
 11
-16.016725540161133
 21
-60.28200912475586
 31
140.0
 12
-15.83247184753418
 22
-59.504093170166016
 32
140.0
 13
-15.83247184753418
 23
-59.504093170166016
 33
140.0
  0
3DFACE
  8
0
 10
-28.315134048461914
 20
-66.37174987792969
 30
140.0
 11
-25.151662826538086
 21
-67.01788330078125
 31
140.0
 12
-17.292564392089844
 22
-63.041805267333984
 32
140.0
 13
-17.292564392089844
 23
-63.041805267333984
 33
140.0
  0
3DFACE
  8
0
 10
-31.43768310546875
 20
-63.810237884521484
 30
140.0
 11
-30.602367401123047
 21
-64.9097671508789
 31
140.0
 12
-28.315134048461914
 22
-66.37174987792969
 32
140.0
 13
-28.315134048461914
 23
-66.37174987792969
 33
140.0
  0
3DFACE
  8
0
 10
-32.34659194946289
 20
-61.06541061401367
 30
140.0
 11
-32.199256896972656
 21
-61.87080764770508
 31
140.0
 12
-31.43768310546875
 22
-63.810237884521484
 32
140.0
 13
-31.43768310546875
 23
-63.810237884521484
 33
140.0
  0
3DFACE
  8
0
 10
-32.49732208251953
 20
-59.5233039855957
 30
140.0
 11
-32.44768524169922
 21
-60.28289794921875
 31
140.0
 12
-32.34659194946289
 22
-61.06541061401367
 32
140.0
 13
-32.34659194946289
 23
-61.06541061401367
 33
140.0
  0
3DFACE
  8
0
 10
-32.46162796020508
 20
-58.71699905395508
 30
140.0
 11
-32.46553421020508
 21
-58.74080276489258
 31
140.0
 12
-32.49505615234375
 22
-59.4995002746582
 32
140.0
 13
-32.49505615234375
 23
-59.4995002746582
 33
140.0
  0
3DFACE
  8
0
 10
-32.49505615234375
 20
-59.4995002746582
 30
140.0
 11
-32.49732208251953
 21
-59.5233039855957
 31
140.0
 12
-32.34659194946289
 22
-61.06541061401367
 32
140.0
 13
-32.34659194946289
 23
-61.06541061401367
 33
140.0
  0
3DFACE
  8
0
 10
-32.34659194946289
 20
-61.06541061401367
 30
140.0
 11
-31.43768310546875
 21
-63.810237884521484
 31
140.0
 12
-28.315134048461914
 22
-66.37174987792969
 32
140.0
 13
-28.315134048461914
 23
-66.37174987792969
 33
140.0
  0
3DFACE
  8
0
 10
-28.315134048461914
 20
-66.37174987792969
 30
140.0
 11
-17.292564392089844
 21
-63.041805267333984
 31
140.0
 12
-15.83247184753418
 22
-59.504093170166016
 32
140.0
 13
-15.83247184753418
 23
-59.504093170166016
 33
140.0
  0
3DFACE
  8
0
 10
-15.83247184753418
 20
-59.504093170166016
 30
140.0
 11
-15.564221382141113
 21
-57.93449020385742
 31
140.0
 12
-15.407367706298828
 22
-56.3694953918457
 32
140.0
 13
-15.407367706298828
 23
-56.3694953918457
 33
140.0
  0
3DFACE
  8
0
 10
-15.407367706298828
 20
-56.3694953918457
 30
140.0
 11
-15.58273696899414
 21
-54.0695915222168
 31
140.0
 12
-15.78807258605957
 22
-53.26455307006836
 32
140.0
 13
-15.78807258605957
 23
-53.26455307006836
 33
140.0
  0
3DFACE
  8
0
 10
-15.78807258605957
 20
-53.26455307006836
 30
140.0
 11
-16.545148849487305
 21
-51.76366424560547
 31
140.0
 12
-16.553007125854492
 22
-51.75138854980469
 32
140.0
 13
-16.553007125854492
 23
-51.75138854980469
 33
140.0
  0
3DFACE
  8
0
 10
-16.553007125854492
 20
-51.75138854980469
 30
140.0
 11
-16.583782196044922
 21
-51.70998764038086
 31
140.0
 12
-17.31648063659668
 22
-50.797996520996094
 32
140.0
 13
-17.31648063659668
 23
-50.797996520996094
 33
140.0
  0
3DFACE
  8
0
 10
-17.31648063659668
 20
-50.797996520996094
 30
140.0
 11
-17.326637268066406
 21
-50.78630447387695
 31
140.0
 12
-18.11831283569336
 22
-50.16753387451172
 32
140.0
 13
-18.11831283569336
 23
-50.16753387451172
 33
140.0
  0
3DFACE
  8
0
 10
-18.11831283569336
 20
-50.16753387451172
 30
140.0
 11
-18.158239364624023
 21
-50.13859176635742
 31
140.0
 12
-18.891525268554688
 22
-49.63357162475586
 32
140.0
 13
-18.891525268554688
 23
-49.63357162475586
 33
140.0
  0
3DFACE
  8
0
 10
-18.891525268554688
 20
-49.63357162475586
 30
140.0
 11
-18.91544532775879
 21
-49.62136459350586
 31
140.0
 12
-19.6607666015625
 22
-49.31262969970703
 32
140.0
 13
-19.6607666015625
 23
-49.31262969970703
 33
140.0
  0
3DFACE
  8
0
 10
-19.6607666015625
 20
-49.31262969970703
 30
140.0
 11
-19.674144744873047
 21
-49.30734634399414
 31
140.0
 12
-19.69989013671875
 22
-49.30067443847656
 32
140.0
 13
-19.69989013671875
 23
-49.30067443847656
 33
140.0
  0
3DFACE
  8
0
 10
-19.69989013671875
 20
-49.30067443847656
 30
140.0
 11
-20.456647872924805
 21
-49.03959655761719
 31
140.0
 12
-21.23914909362793
 22
-48.896602630615234
 32
140.0
 13
-21.23914909362793
 23
-48.896602630615234
 33
140.0
  0
3DFACE
  8
0
 10
-21.99785041809082
 20
-48.88725280761719
 30
140.0
 11
-22.02165412902832
 21
-48.8847541809082
 31
140.0
 12
-22.804155349731445
 22
-48.93192672729492
 32
140.0
 13
-22.804155349731445
 23
-48.93192672729492
 33
140.0
  0
3DFACE
  8
0
 10
-19.69989013671875
 20
-49.30067443847656
 30
140.0
 11
-21.23914909362793
 21
-48.896602630615234
 31
140.0
 12
-21.99785041809082
 22
-48.88725280761719
 32
140.0
 13
-21.99785041809082
 23
-48.88725280761719
 33
140.0
  0
3DFACE
  8
0
 10
-18.891525268554688
 20
-49.63357162475586
 30
140.0
 11
-19.6607666015625
 21
-49.31262969970703
 31
140.0
 12
-19.69989013671875
 22
-49.30067443847656
 32
140.0
 13
-19.69989013671875
 23
-49.30067443847656
 33
140.0
  0
3DFACE
  8
0
 10
-17.31648063659668
 20
-50.797996520996094
 30
140.0
 11
-18.11831283569336
 21
-50.16753387451172
 31
140.0
 12
-18.891525268554688
 22
-49.63357162475586
 32
140.0
 13
-18.891525268554688
 23
-49.63357162475586
 33
140.0
  0
3DFACE
  8
0
 10
-15.78807258605957
 20
-53.26455307006836
 30
140.0
 11
-16.553007125854492
 21
-51.75138854980469
 31
140.0
 12
-17.31648063659668
 22
-50.797996520996094
 32
140.0
 13
-17.31648063659668
 23
-50.797996520996094
 33
140.0
  0
3DFACE
  8
0
 10
-15.83247184753418
 20
-59.504093170166016
 30
140.0
 11
-15.407367706298828
 21
-56.3694953918457
 31
140.0
 12
-15.78807258605957
 22
-53.26455307006836
 32
140.0
 13
-15.78807258605957
 23
-53.26455307006836
 33
140.0
  0
3DFACE
  8
0
 10
-32.34659194946289
 20
-61.06541061401367
 30
140.0
 11
-28.315134048461914
 21
-66.37174987792969
 31
140.0
 12
-15.83247184753418
 22
-59.504093170166016
 32
140.0
 13
-15.83247184753418
 23
-59.504093170166016
 33
140.0
  0
3DFACE
  8
0
 10
-32.46162796020508
 20
-58.71699905395508
 30
140.0
 11
-32.49505615234375
 21
-59.4995002746582
 31
140.0
 12
-32.34659194946289
 22
-61.06541061401367
 32
140.0
 13
-32.34659194946289
 23
-61.06541061401367
 33
140.0
  0
3DFACE
  8
0
 10
-32.375118255615234
 20
-57.93449020385742
 30
140.0
 11
-32.38180923461914
 21
-57.95829391479492
 31
140.0
 12
-32.46162796020508
 22
-58.71699905395508
 32
140.0
 13
-32.46162796020508
 23
-58.71699905395508
 33
140.0
  0
3DFACE
  8
0
 10
-31.954608917236328
 20
-56.39228820800781
 30
140.0
 11
-32.213661193847656
 21
-57.16559600830078
 31
140.0
 12
-32.375118255615234
 22
-57.93449020385742
 32
140.0
 13
-32.375118255615234
 23
-57.93449020385742
 33
140.0
  0
3DFACE
  8
0
 10
-31.676483154296875
 20
-55.58698654174805
 30
140.0
 11
-31.687625885009766
 21
-55.61079025268555
 31
140.0
 12
-31.945396423339844
 22
-56.3694953918457
 32
140.0
 13
-31.945396423339844
 23
-56.3694953918457
 33
140.0
  0
3DFACE
  8
0
 10
-31.945396423339844
 20
-56.3694953918457
 30
140.0
 11
-31.954608917236328
 21
-56.39228820800781
 31
140.0
 12
-32.375118255615234
 22
-57.93449020385742
 32
140.0
 13
-32.375118255615234
 23
-57.93449020385742
 33
140.0
  0
3DFACE
  8
0
 10
-32.375118255615234
 20
-57.93449020385742
 30
140.0
 11
-32.46162796020508
 21
-58.71699905395508
 31
140.0
 12
-32.34659194946289
 22
-61.06541061401367
 32
140.0
 13
-32.34659194946289
 23
-61.06541061401367
 33
140.0
  0
3DFACE
  8
0
 10
-32.34659194946289
 20
-61.06541061401367
 30
140.0
 11
-15.83247184753418
 21
-59.504093170166016
 31
140.0
 12
-15.78807258605957
 22
-53.26455307006836
 32
140.0
 13
-15.78807258605957
 23
-53.26455307006836
 33
140.0
  0
3DFACE
  8
0
 10
-15.78807258605957
 20
-53.26455307006836
 30
140.0
 11
-17.31648063659668
 21
-50.797996520996094
 31
140.0
 12
-18.891525268554688
 22
-49.63357162475586
 32
140.0
 13
-18.891525268554688
 23
-49.63357162475586
 33
140.0
  0
3DFACE
  8
0
 10
-18.891525268554688
 20
-49.63357162475586
 30
140.0
 11
-19.69989013671875
 21
-49.30067443847656
 31
140.0
 12
-21.99785041809082
 22
-48.88725280761719
 32
140.0
 13
-21.99785041809082
 23
-48.88725280761719
 33
140.0
  0
3DFACE
  8
0
 10
-21.99785041809082
 20
-48.88725280761719
 30
140.0
 11
-22.804155349731445
 21
-48.93192672729492
 31
140.0
 12
-23.56526756286621
 22
-49.05756759643555
 32
140.0
 13
-23.56526756286621
 23
-49.05756759643555
 33
140.0
  0
3DFACE
  8
0
 10
-23.56526756286621
 20
-49.05756759643555
 30
140.0
 11
-23.58665657043457
 21
-49.059165954589844
 31
140.0
 12
-24.345361709594727
 22
-49.21059036254883
 32
140.0
 13
-24.345361709594727
 23
-49.21059036254883
 33
140.0
  0
3DFACE
  8
0
 10
-24.345361709594727
 20
-49.21059036254883
 30
140.0
 11
-24.369165420532227
 21
-49.2164421081543
 31
140.0
 12
-25.127859115600586
 22
-49.467891693115234
 32
140.0
 13
-25.127859115600586
 23
-49.467891693115234
 33
140.0
  0
3DFACE
  8
0
 10
-25.127859115600586
 20
-49.467891693115234
 30
140.0
 11
-25.151662826538086
 21
-49.47397232055664
 31
140.0
 12
-25.910364151000977
 22
-49.76020431518555
 32
140.0
 13
-25.910364151000977
 23
-49.76020431518555
 33
140.0
  0
3DFACE
  8
0
 10
-25.910364151000977
 20
-49.76020431518555
 30
140.0
 11
-25.934167861938477
 21
-49.76877975463867
 31
140.0
 12
-26.697343826293945
 22
-50.1212272644043
 32
140.0
 13
-26.697343826293945
 23
-50.1212272644043
 33
140.0
  0
3DFACE
  8
0
 10
-26.697343826293945
 20
-50.1212272644043
 30
140.0
 11
-26.716672897338867
 21
-50.12939453125
 31
140.0
 12
-27.475370407104492
 22
-50.53023147583008
 32
140.0
 13
-27.475370407104492
 23
-50.53023147583008
 33
140.0
  0
3DFACE
  8
0
 10
-27.475370407104492
 20
-50.53023147583008
 30
140.0
 11
-27.499174118041992
 21
-50.54127883911133
 31
140.0
 12
-28.257871627807617
 22
-51.016483306884766
 32
140.0
 13
-28.257871627807617
 23
-51.016483306884766
 33
140.0
  0
3DFACE
  8
0
 10
-28.257871627807617
 20
-51.016483306884766
 30
140.0
 11
-28.281675338745117
 21
-51.0306510925293
 31
140.0
 12
-29.067270278930664
 22
-51.654747009277344
 32
140.0
 13
-29.067270278930664
 23
-51.654747009277344
 33
140.0
  0
3DFACE
  8
0
 10
-29.067270278930664
 20
-51.654747009277344
 30
140.0
 11
-29.090614318847656
 21
-51.670875549316406
 31
140.0
 12
-29.840805053710938
 22
-52.4355354309082
 32
140.0
 13
-29.840805053710938
 23
-52.4355354309082
 33
140.0
  0
3DFACE
  8
0
 10
-29.840805053710938
 20
-52.4355354309082
 30
140.0
 11
-29.865949630737305
 21
-52.45809555053711
 31
140.0
 12
-30.434837341308594
 22
-53.238555908203125
 32
140.0
 13
-30.434837341308594
 23
-53.238555908203125
 33
140.0
  0
3DFACE
  8
0
 10
-30.434837341308594
 20
-53.238555908203125
 30
140.0
 11
-30.456857681274414
 21
-53.264434814453125
 31
140.0
 12
-30.934839248657227
 22
-54.02313995361328
 32
140.0
 13
-30.934839248657227
 23
-54.02313995361328
 33
140.0
  0
3DFACE
  8
0
 10
-30.934839248657227
 20
-54.02313995361328
 30
140.0
 11
-30.950227737426758
 21
-54.0457878112793
 31
140.0
 12
-31.32883644104004
 22
-54.80448532104492
 32
140.0
 13
-31.32883644104004
 23
-54.80448532104492
 33
140.0
  0
3DFACE
  8
0
 10
-31.32883644104004
 20
-54.80448532104492
 30
140.0
 11
-31.3427677154541
 21
-54.82828903198242
 31
140.0
 12
-31.676483154296875
 22
-55.58698654174805
 32
140.0
 13
-31.676483154296875
 23
-55.58698654174805
 33
140.0
  0
3DFACE
  8
0
 10
-31.676483154296875
 20
-55.58698654174805
 30
140.0
 11
-31.945396423339844
 21
-56.3694953918457
 31
140.0
 12
-32.375118255615234
 22
-57.93449020385742
 32
140.0
 13
-32.375118255615234
 23
-57.93449020385742
 33
140.0
  0
3DFACE
  8
0
 10
-32.375118255615234
 20
-57.93449020385742
 30
140.0
 11
-32.34659194946289
 21
-61.06541061401367
 31
140.0
 12
-15.78807258605957
 22
-53.26455307006836
 32
140.0
 13
-15.78807258605957
 23
-53.26455307006836
 33
140.0
  0
3DFACE
  8
0
 10
-15.78807258605957
 20
-53.26455307006836
 30
140.0
 11
-18.891525268554688
 21
-49.63357162475586
 31
140.0
 12
-21.99785041809082
 22
-48.88725280761719
 32
140.0
 13
-21.99785041809082
 23
-48.88725280761719
 33
140.0
  0
3DFACE
  8
0
 10
-21.99785041809082
 20
-48.88725280761719
 30
140.0
 11
-23.56526756286621
 21
-49.05756759643555
 31
140.0
 12
-24.345361709594727
 22
-49.21059036254883
 32
140.0
 13
-24.345361709594727
 23
-49.21059036254883
 33
140.0
  0
3DFACE
  8
0
 10
-24.345361709594727
 20
-49.21059036254883
 30
140.0
 11
-25.127859115600586
 21
-49.467891693115234
 31
140.0
 12
-25.910364151000977
 22
-49.76020431518555
 32
140.0
 13
-25.910364151000977
 23
-49.76020431518555
 33
140.0
  0
3DFACE
  8
0
 10
-25.910364151000977
 20
-49.76020431518555
 30
140.0
 11
-26.697343826293945
 21
-50.1212272644043
 31
140.0
 12
-27.475370407104492
 22
-50.53023147583008
 32
140.0
 13
-27.475370407104492
 23
-50.53023147583008
 33
140.0
  0
3DFACE
  8
0
 10
-27.475370407104492
 20
-50.53023147583008
 30
140.0
 11
-28.257871627807617
 21
-51.016483306884766
 31
140.0
 12
-29.067270278930664
 22
-51.654747009277344
 32
140.0
 13
-29.067270278930664
 23
-51.654747009277344
 33
140.0
  0
3DFACE
  8
0
 10
-29.067270278930664
 20
-51.654747009277344
 30
140.0
 11
-29.840805053710938
 21
-52.4355354309082
 31
140.0
 12
-30.434837341308594
 22
-53.238555908203125
 32
140.0
 13
-30.434837341308594
 23
-53.238555908203125
 33
140.0
  0
3DFACE
  8
0
 10
-30.434837341308594
 20
-53.238555908203125
 30
140.0
 11
-30.934839248657227
 21
-54.02313995361328
 31
140.0
 12
-31.32883644104004
 22
-54.80448532104492
 32
140.0
 13
-31.32883644104004
 23
-54.80448532104492
 33
140.0
  0
3DFACE
  8
0
 10
-31.32883644104004
 20
-54.80448532104492
 30
140.0
 11
-31.676483154296875
 21
-55.58698654174805
 31
140.0
 12
-32.375118255615234
 22
-57.93449020385742
 32
140.0
 13
-32.375118255615234
 23
-57.93449020385742
 33
140.0
  0
3DFACE
  8
0
 10
-32.375118255615234
 20
-57.93449020385742
 30
140.0
 11
-15.78807258605957
 21
-53.26455307006836
 31
140.0
 12
-21.99785041809082
 22
-48.88725280761719
 32
140.0
 13
-21.99785041809082
 23
-48.88725280761719
 33
140.0
  0
3DFACE
  8
0
 10
-21.99785041809082
 20
-48.88725280761719
 30
140.0
 11
-24.345361709594727
 21
-49.21059036254883
 31
140.0
 12
-25.910364151000977
 22
-49.76020431518555
 32
140.0
 13
-25.910364151000977
 23
-49.76020431518555
 33
140.0
  0
3DFACE
  8
0
 10
-25.910364151000977
 20
-49.76020431518555
 30
140.0
 11
-27.475370407104492
 21
-50.53023147583008
 31
140.0
 12
-29.067270278930664
 22
-51.654747009277344
 32
140.0
 13
-29.067270278930664
 23
-51.654747009277344
 33
140.0
  0
3DFACE
  8
0
 10
-29.067270278930664
 20
-51.654747009277344
 30
140.0
 11
-30.434837341308594
 21
-53.238555908203125
 31
140.0
 12
-31.32883644104004
 22
-54.80448532104492
 32
140.0
 13
-31.32883644104004
 23
-54.80448532104492
 33
140.0
  0
3DFACE
  8
0
 10
-31.32883644104004
 20
-54.80448532104492
 30
140.0
 11
-32.375118255615234
 21
-57.93449020385742
 31
140.0
 12
-21.99785041809082
 22
-48.88725280761719
 32
140.0
 13
-21.99785041809082
 23
-48.88725280761719
 33
140.0
  0
3DFACE
  8
0
 10
-21.99785041809082
 20
-48.88725280761719
 30
140.0
 11
-25.910364151000977
 21
-49.76020431518555
 31
140.0
 12
-29.067270278930664
 22
-51.654747009277344
 32
140.0
 13
-29.067270278930664
 23
-51.654747009277344
 33
140.0
  0
3DFACE
  8
0
 10
-21.99785041809082
 20
-48.88725280761719
 30
140.0
 11
-29.067270278930664
 21
-51.654747009277344
 31
140.0
 12
-31.32883644104004
 22
-54.80448532104492
 32
140.0
 13
-31.32883644104004
 23
-54.80448532104492
 33
140.0
  0
3DFACE
  8
0
 10
28.277372360229492
 20
-46.17225646972656
 30
140.0
 11
28.27717399597168
 21
-46.17266082763672
 31
140.0
 12
27.979040145874023
 22
-46.839141845703125
 32
140.0
 13
27.979040145874023
 23
-46.839141845703125
 33
140.0
  0
3DFACE
  8
0
 10
27.979040145874023
 20
-46.839141845703125
 30
140.0
 11
27.954936981201172
 21
-46.90425109863281
 31
140.0
 12
27.944856643676758
 22
-46.945655822753906
 32
140.0
 13
27.944856643676758
 23
-46.945655822753906
 33
140.0
  0
3DFACE
  8
0
 10
27.934545516967773
 20
-46.982627868652344
 30
140.0
 11
27.7148494720459
 21
-47.655399322509766
 31
140.0
 12
27.684452056884766
 22
-47.80305099487305
 32
140.0
 13
27.684452056884766
 23
-47.80305099487305
 33
140.0
  0
3DFACE
  8
0
 10
27.979040145874023
 20
-46.839141845703125
 30
140.0
 11
27.944856643676758
 21
-46.945655822753906
 31
140.0
 12
27.934545516967773
 22
-46.982627868652344
 32
140.0
 13
27.934545516967773
 23
-46.982627868652344
 33
140.0
  0
3DFACE
  8
0
 10
28.72646141052246
 20
-45.469696044921875
 30
140.0
 11
28.277372360229492
 21
-46.17225646972656
 31
140.0
 12
27.979040145874023
 22
-46.839141845703125
 32
140.0
 13
27.979040145874023
 23
-46.839141845703125
 33
140.0
  0
3DFACE
  8
0
 10
29.333654403686523
 20
-44.74549102783203
 30
140.0
 11
29.309391021728516
 21
-44.76785659790039
 31
140.0
 12
28.72646141052246
 22
-45.469696044921875
 32
140.0
 13
28.72646141052246
 23
-45.469696044921875
 33
140.0
  0
3DFACE
  8
0
 10
30.2976131439209
 20
-44.037994384765625
 30
140.0
 11
30.188228607177734
 21
-44.10536575317383
 31
140.0
 12
29.333654403686523
 22
-44.74549102783203
 32
140.0
 13
29.333654403686523
 23
-44.74549102783203
 33
140.0
  0
3DFACE
  8
0
 10
31.24899673461914
 20
-43.5390739440918
 30
140.0
 11
31.11063575744629
 21
-43.59363555908203
 31
140.0
 12
30.2976131439209
 22
-44.037994384765625
 32
140.0
 13
30.2976131439209
 23
-44.037994384765625
 33
140.0
  0
3DFACE
  8
0
 10
32.136173248291016
 20
-43.25679016113281
 30
140.0
 11
31.924358367919922
 21
-43.312679290771484
 31
140.0
 12
31.24899673461914
 22
-43.5390739440918
 32
140.0
 13
31.24899673461914
 23
-43.5390739440918
 33
140.0
  0
3DFACE
  8
0
 10
32.98720169067383
 20
-43.1093635559082
 30
140.0
 11
32.606815338134766
 21
-43.14680862426758
 31
140.0
 12
32.136173248291016
 22
-43.25679016113281
 32
140.0
 13
32.136173248291016
 23
-43.25679016113281
 33
140.0
  0
3DFACE
  8
0
 10
34.79507827758789
 20
-43.143104553222656
 30
140.0
 11
33.80057907104492
 21
-43.073638916015625
 31
140.0
 12
33.27629852294922
 22
-43.10224533081055
 32
140.0
 13
33.27629852294922
 23
-43.10224533081055
 33
140.0
  0
3DFACE
  8
0
 10
33.27629852294922
 20
-43.10224533081055
 30
140.0
 11
32.98720169067383
 21
-43.1093635559082
 31
140.0
 12
32.136173248291016
 22
-43.25679016113281
 32
140.0
 13
32.136173248291016
 23
-43.25679016113281
 33
140.0
  0
3DFACE
  8
0
 10
32.136173248291016
 20
-43.25679016113281
 30
140.0
 11
31.24899673461914
 21
-43.5390739440918
 31
140.0
 12
30.2976131439209
 22
-44.037994384765625
 32
140.0
 13
30.2976131439209
 23
-44.037994384765625
 33
140.0
  0
3DFACE
  8
0
 10
30.2976131439209
 20
-44.037994384765625
 30
140.0
 11
29.333654403686523
 21
-44.74549102783203
 31
140.0
 12
28.72646141052246
 22
-45.469696044921875
 32
140.0
 13
28.72646141052246
 23
-45.469696044921875
 33
140.0
  0
3DFACE
  8
0
 10
28.72646141052246
 20
-45.469696044921875
 30
140.0
 11
27.979040145874023
 21
-46.839141845703125
 31
140.0
 12
27.934545516967773
 22
-46.982627868652344
 32
140.0
 13
27.934545516967773
 23
-46.982627868652344
 33
140.0
  0
3DFACE
  8
0
 10
27.934545516967773
 20
-46.982627868652344
 30
140.0
 11
27.684452056884766
 21
-47.80305099487305
 31
140.0
 12
27.525314331054688
 22
-48.418296813964844
 32
140.0
 13
27.525314331054688
 23
-48.418296813964844
 33
140.0
  0
3DFACE
  8
0
 10
27.525314331054688
 20
-48.418296813964844
 30
140.0
 11
27.366901397705078
 21
-49.57239532470703
 31
140.0
 12
27.350839614868164
 22
-49.77165985107422
 32
140.0
 13
27.350839614868164
 23
-49.77165985107422
 33
140.0
  0
3DFACE
  8
0
 10
27.350839614868164
 20
-49.77165985107422
 30
140.0
 11
27.32866859436035
 21
-49.98649597167969
 31
140.0
 12
27.327451705932617
 22
-50.50893783569336
 32
140.0
 13
27.327451705932617
 23
-50.50893783569336
 33
140.0
  0
3DFACE
  8
0
 10
27.327451705932617
 20
-50.50893783569336
 30
140.0
 11
27.308847427368164
 21
-50.788856506347656
 31
140.0
 12
27.353641510009766
 22
-51.381656646728516
 32
140.0
 13
27.353641510009766
 23
-51.381656646728516
 33
140.0
  0
3DFACE
  8
0
 10
27.353641510009766
 20
-51.381656646728516
 30
140.0
 11
27.360889434814453
 21
-51.60791015625
 31
140.0
 12
27.45330047607422
 22
-52.35715866088867
 32
140.0
 13
27.45330047607422
 23
-52.35715866088867
 33
140.0
  0
3DFACE
  8
0
 10
27.45330047607422
 20
-52.35715866088867
 30
140.0
 11
27.460779190063477
 21
-52.438087463378906
 31
140.0
 12
27.55110740661621
 22
-52.839088439941406
 32
140.0
 13
27.55110740661621
 23
-52.839088439941406
 33
140.0
  0
3DFACE
  8
0
 10
27.55110740661621
 20
-52.839088439941406
 30
140.0
 11
27.629961013793945
 21
-53.1660270690918
 31
140.0
 12
27.65655517578125
 22
-53.245540618896484
 32
140.0
 13
27.65655517578125
 23
-53.245540618896484
 33
140.0
  0
3DFACE
  8
0
 10
27.65655517578125
 20
-53.245540618896484
 30
140.0
 11
27.939451217651367
 21
-54.163299560546875
 31
140.0
 12
28.001998901367188
 22
-54.300048828125
 32
140.0
 13
28.001998901367188
 23
-54.300048828125
 33
140.0
  0
3DFACE
  8
0
 10
28.001998901367188
 20
-54.300048828125
 30
140.0
 11
28.222932815551758
 21
-54.83839797973633
 31
140.0
 12
28.334627151489258
 22
-55.0621337890625
 32
140.0
 13
28.334627151489258
 23
-55.0621337890625
 33
140.0
  0
3DFACE
  8
0
 10
28.537086486816406
 20
-55.4206657409668
 30
140.0
 11
28.705507278442383
 21
-55.74692916870117
 31
140.0
 12
28.88137435913086
 22
-55.9962043762207
 32
140.0
 13
28.88137435913086
 23
-55.9962043762207
 33
140.0
  0
3DFACE
  8
0
 10
28.001998901367188
 20
-54.300048828125
 30
140.0
 11
28.334627151489258
 21
-55.0621337890625
 31
140.0
 12
28.537086486816406
 22
-55.4206657409668
 32
140.0
 13
28.537086486816406
 23
-55.4206657409668
 33
140.0
  0
3DFACE
  8
0
 10
27.55110740661621
 20
-52.839088439941406
 30
140.0
 11
27.65655517578125
 21
-53.245540618896484
 31
140.0
 12
28.001998901367188
 22
-54.300048828125
 32
140.0
 13
28.001998901367188
 23
-54.300048828125
 33
140.0
  0
3DFACE
  8
0
 10
27.353641510009766
 20
-51.381656646728516
 30
140.0
 11
27.45330047607422
 21
-52.35715866088867
 31
140.0
 12
27.55110740661621
 22
-52.839088439941406
 32
140.0
 13
27.55110740661621
 23
-52.839088439941406
 33
140.0
  0
3DFACE
  8
0
 10
27.350839614868164
 20
-49.77165985107422
 30
140.0
 11
27.327451705932617
 21
-50.50893783569336
 31
140.0
 12
27.353641510009766
 22
-51.381656646728516
 32
140.0
 13
27.353641510009766
 23
-51.381656646728516
 33
140.0
  0
3DFACE
  8
0
 10
27.934545516967773
 20
-46.982627868652344
 30
140.0
 11
27.525314331054688
 21
-48.418296813964844
 31
140.0
 12
27.350839614868164
 22
-49.77165985107422
 32
140.0
 13
27.350839614868164
 23
-49.77165985107422
 33
140.0
  0
3DFACE
  8
0
 10
30.2976131439209
 20
-44.037994384765625
 30
140.0
 11
28.72646141052246
 21
-45.469696044921875
 31
140.0
 12
27.934545516967773
 22
-46.982627868652344
 32
140.0
 13
27.934545516967773
 23
-46.982627868652344
 33
140.0
  0
3DFACE
  8
0
 10
33.27629852294922
 20
-43.10224533081055
 30
140.0
 11
32.136173248291016
 21
-43.25679016113281
 31
140.0
 12
30.2976131439209
 22
-44.037994384765625
 32
140.0
 13
30.2976131439209
 23
-44.037994384765625
 33
140.0
  0
3DFACE
  8
0
 10
35.379966735839844
 20
-43.285606384277344
 30
140.0
 11
34.79507827758789
 21
-43.143104553222656
 31
140.0
 12
33.27629852294922
 22
-43.10224533081055
 32
140.0
 13
33.27629852294922
 23
-43.10224533081055
 33
140.0
  0
3DFACE
  8
0
 10
36.15608215332031
 20
-43.4547119140625
 30
140.0
 11
36.11564254760742
 21
-43.436824798583984
 31
140.0
 12
35.379966735839844
 22
-43.285606384277344
 32
140.0
 13
35.379966735839844
 23
-43.285606384277344
 33
140.0
  0
3DFACE
  8
0
 10
36.88544464111328
 20
-43.841094970703125
 30
140.0
 11
36.7281494140625
 21
-43.74123001098633
 31
140.0
 12
36.15608215332031
 22
-43.4547119140625
 32
140.0
 13
36.15608215332031
 23
-43.4547119140625
 33
140.0
  0
3DFACE
  8
0
 10
38.28121566772461
 20
-44.906517028808594
 30
140.0
 11
37.86880111694336
 21
-44.549346923828125
 31
140.0
 12
36.88544464111328
 22
-43.841094970703125
 32
140.0
 13
36.88544464111328
 23
-43.841094970703125
 33
140.0
  0
3DFACE
  8
0
 10
38.93654251098633
 20
-45.62928009033203
 30
140.0
 11
38.43888473510742
 21
-45.05049133300781
 31
140.0
 12
38.28121566772461
 22
-44.906517028808594
 32
140.0
 13
38.28121566772461
 23
-44.906517028808594
 33
140.0
  0
3DFACE
  8
0
 10
39.486759185791016
 20
-46.30088424682617
 30
140.0
 11
38.9642219543457
 21
-45.65971755981445
 31
140.0
 12
38.93654251098633
 22
-45.62928009033203
 32
140.0
 13
38.93654251098633
 23
-45.62928009033203
 33
140.0
  0
3DFACE
  8
0
 10
40.1210823059082
 20
-47.254234313964844
 30
140.0
 11
39.57851028442383
 21
-46.42967987060547
 31
140.0
 12
39.52936935424805
 22
-46.36195373535156
 32
140.0
 13
39.52936935424805
 23
-46.36195373535156
 33
140.0
  0
3DFACE
  8
0
 10
39.52936935424805
 20
-46.36195373535156
 30
140.0
 11
39.486759185791016
 21
-46.30088424682617
 31
140.0
 12
38.93654251098633
 22
-45.62928009033203
 32
140.0
 13
38.93654251098633
 23
-45.62928009033203
 33
140.0
  0
3DFACE
  8
0
 10
38.93654251098633
 20
-45.62928009033203
 30
140.0
 11
38.28121566772461
 21
-44.906517028808594
 31
140.0
 12
36.88544464111328
 22
-43.841094970703125
 32
140.0
 13
36.88544464111328
 23
-43.841094970703125
 33
140.0
  0
3DFACE
  8
0
 10
36.88544464111328
 20
-43.841094970703125
 30
140.0
 11
36.15608215332031
 21
-43.4547119140625
 31
140.0
 12
35.379966735839844
 22
-43.285606384277344
 32
140.0
 13
35.379966735839844
 23
-43.285606384277344
 33
140.0
  0
3DFACE
  8
0
 10
35.379966735839844
 20
-43.285606384277344
 30
140.0
 11
33.27629852294922
 21
-43.10224533081055
 31
140.0
 12
30.2976131439209
 22
-44.037994384765625
 32
140.0
 13
30.2976131439209
 23
-44.037994384765625
 33
140.0
  0
3DFACE
  8
0
 10
30.2976131439209
 20
-44.037994384765625
 30
140.0
 11
27.934545516967773
 21
-46.982627868652344
 31
140.0
 12
27.350839614868164
 22
-49.77165985107422
 32
140.0
 13
27.350839614868164
 23
-49.77165985107422
 33
140.0
  0
3DFACE
  8
0
 10
27.350839614868164
 20
-49.77165985107422
 30
140.0
 11
27.353641510009766
 21
-51.381656646728516
 31
140.0
 12
27.55110740661621
 22
-52.839088439941406
 32
140.0
 13
27.55110740661621
 23
-52.839088439941406
 33
140.0
  0
3DFACE
  8
0
 10
27.55110740661621
 20
-52.839088439941406
 30
140.0
 11
28.001998901367188
 21
-54.300048828125
 31
140.0
 12
28.537086486816406
 22
-55.4206657409668
 32
140.0
 13
28.537086486816406
 23
-55.4206657409668
 33
140.0
  0
3DFACE
  8
0
 10
28.537086486816406
 20
-55.4206657409668
 30
140.0
 11
28.88137435913086
 21
-55.9962043762207
 31
140.0
 12
29.24666404724121
 22
-56.4682731628418
 32
140.0
 13
29.24666404724121
 23
-56.4682731628418
 33
140.0
  0
3DFACE
  8
0
 10
29.24666404724121
 20
-56.4682731628418
 30
140.0
 11
29.282424926757812
 21
-56.52105712890625
 31
140.0
 12
29.29488182067871
 22
-56.5367431640625
 32
140.0
 13
29.29488182067871
 23
-56.5367431640625
 33
140.0
  0
3DFACE
  8
0
 10
29.29488182067871
 20
-56.5367431640625
 30
140.0
 11
29.464269638061523
 21
-56.70878601074219
 31
140.0
 12
29.95132064819336
 22
-57.18855285644531
 32
140.0
 13
29.95132064819336
 23
-57.18855285644531
 33
140.0
  0
3DFACE
  8
0
 10
30.104381561279297
 20
-57.30281066894531
 30
140.0
 11
30.644622802734375
 21
-57.742584228515625
 31
140.0
 12
31.002098083496094
 22
-57.94612503051758
 32
140.0
 13
31.002098083496094
 23
-57.94612503051758
 33
140.0
  0
3DFACE
  8
0
 10
29.29488182067871
 20
-56.5367431640625
 30
140.0
 11
29.95132064819336
 21
-57.18855285644531
 31
140.0
 12
30.104381561279297
 22
-57.30281066894531
 32
140.0
 13
30.104381561279297
 23
-57.30281066894531
 33
140.0
  0
3DFACE
  8
0
 10
28.537086486816406
 20
-55.4206657409668
 30
140.0
 11
29.24666404724121
 21
-56.4682731628418
 31
140.0
 12
29.29488182067871
 22
-56.5367431640625
 32
140.0
 13
29.29488182067871
 23
-56.5367431640625
 33
140.0
  0
3DFACE
  8
0
 10
27.350839614868164
 20
-49.77165985107422
 30
140.0
 11
27.55110740661621
 21
-52.839088439941406
 31
140.0
 12
28.537086486816406
 22
-55.4206657409668
 32
140.0
 13
28.537086486816406
 23
-55.4206657409668
 33
140.0
  0
3DFACE
  8
0
 10
35.379966735839844
 20
-43.285606384277344
 30
140.0
 11
30.2976131439209
 21
-44.037994384765625
 31
140.0
 12
27.350839614868164
 22
-49.77165985107422
 32
140.0
 13
27.350839614868164
 23
-49.77165985107422
 33
140.0
  0
3DFACE
  8
0
 10
38.93654251098633
 20
-45.62928009033203
 30
140.0
 11
36.88544464111328
 21
-43.841094970703125
 31
140.0
 12
35.379966735839844
 22
-43.285606384277344
 32
140.0
 13
35.379966735839844
 23
-43.285606384277344
 33
140.0
  0
3DFACE
  8
0
 10
40.1210823059082
 20
-47.254234313964844
 30
140.0
 11
39.52936935424805
 21
-46.36195373535156
 31
140.0
 12
38.93654251098633
 22
-45.62928009033203
 32
140.0
 13
38.93654251098633
 23
-45.62928009033203
 33
140.0
  0
3DFACE
  8
0
 10
40.37062072753906
 20
-47.6855354309082
 30
140.0
 11
40.16151809692383
 21
-47.32119369506836
 31
140.0
 12
40.1210823059082
 22
-47.254234313964844
 32
140.0
 13
40.1210823059082
 23
-47.254234313964844
 33
140.0
  0
3DFACE
  8
0
 10
40.98939895629883
 20
-49.12758255004883
 30
140.0
 11
40.59973907470703
 21
-48.18046188354492
 31
140.0
 12
40.37062072753906
 22
-47.6855354309082
 32
140.0
 13
40.37062072753906
 23
-47.6855354309082
 33
140.0
  0
3DFACE
  8
0
 10
41.24990463256836
 20
-50.0673942565918
 30
140.0
 11
41.235755920410156
 21
-49.97583770751953
 31
140.0
 12
41.214088439941406
 22
-49.90388870239258
 32
140.0
 13
41.214088439941406
 23
-49.90388870239258
 33
140.0
  0
3DFACE
  8
0
 10
41.214088439941406
 20
-49.90388870239258
 30
140.0
 11
40.98939895629883
 21
-49.12758255004883
 31
140.0
 12
40.37062072753906
 22
-47.6855354309082
 32
140.0
 13
40.37062072753906
 23
-47.6855354309082
 33
140.0
  0
3DFACE
  8
0
 10
40.37062072753906
 20
-47.6855354309082
 30
140.0
 11
40.1210823059082
 21
-47.254234313964844
 31
140.0
 12
38.93654251098633
 22
-45.62928009033203
 32
140.0
 13
38.93654251098633
 23
-45.62928009033203
 33
140.0
  0
3DFACE
  8
0
 10
38.93654251098633
 20
-45.62928009033203
 30
140.0
 11
35.379966735839844
 21
-43.285606384277344
 31
140.0
 12
27.350839614868164
 22
-49.77165985107422
 32
140.0
 13
27.350839614868164
 23
-49.77165985107422
 33
140.0
  0
3DFACE
  8
0
 10
27.350839614868164
 20
-49.77165985107422
 30
140.0
 11
28.537086486816406
 21
-55.4206657409668
 31
140.0
 12
29.29488182067871
 22
-56.5367431640625
 32
140.0
 13
29.29488182067871
 23
-56.5367431640625
 33
140.0
  0
3DFACE
  8
0
 10
29.29488182067871
 20
-56.5367431640625
 30
140.0
 11
30.104381561279297
 21
-57.30281066894531
 31
140.0
 12
31.002098083496094
 22
-57.94612503051758
 32
140.0
 13
31.002098083496094
 23
-57.94612503051758
 33
140.0
  0
3DFACE
  8
0
 10
31.002098083496094
 20
-57.94612503051758
 30
140.0
 11
31.362838745117188
 21
-58.1807746887207
 31
140.0
 12
31.87416648864746
 22
-58.40470504760742
 32
140.0
 13
31.87416648864746
 23
-58.40470504760742
 33
140.0
  0
3DFACE
  8
0
 10
32.10416793823242
 20
-58.51158142089844
 30
140.0
 11
32.255855560302734
 21
-58.58470153808594
 31
140.0
 12
32.85746765136719
 22
-58.78672409057617
 32
140.0
 13
32.85746765136719
 23
-58.78672409057617
 33
140.0
  0
3DFACE
  8
0
 10
31.002098083496094
 20
-57.94612503051758
 30
140.0
 11
31.87416648864746
 21
-58.40470504760742
 31
140.0
 12
32.10416793823242
 22
-58.51158142089844
 32
140.0
 13
32.10416793823242
 23
-58.51158142089844
 33
140.0
  0
3DFACE
  8
0
 10
27.350839614868164
 20
-49.77165985107422
 30
140.0
 11
29.29488182067871
 21
-56.5367431640625
 31
140.0
 12
31.002098083496094
 22
-57.94612503051758
 32
140.0
 13
31.002098083496094
 23
-57.94612503051758
 33
140.0
  0
3DFACE
  8
0
 10
40.37062072753906
 20
-47.6855354309082
 30
140.0
 11
38.93654251098633
 21
-45.62928009033203
 31
140.0
 12
27.350839614868164
 22
-49.77165985107422
 32
140.0
 13
27.350839614868164
 23
-49.77165985107422
 33
140.0
  0
3DFACE
  8
0
 10
41.24990463256836
 20
-50.0673942565918
 30
140.0
 11
41.214088439941406
 21
-49.90388870239258
 31
140.0
 12
40.37062072753906
 22
-47.6855354309082
 32
140.0
 13
40.37062072753906
 23
-47.6855354309082
 33
140.0
  0
3DFACE
  8
0
 10
41.45505142211914
 20
-51.327022552490234
 30
140.0
 11
41.41019821166992
 21
-50.839332580566406
 31
140.0
 12
41.24990463256836
 22
-50.0673942565918
 32
140.0
 13
41.24990463256836
 23
-50.0673942565918
 33
140.0
  0
3DFACE
  8
0
 10
41.485870361328125
 20
-52.03351974487305
 30
140.0
 11
41.49435043334961
 21
-51.64958190917969
 31
140.0
 12
41.45505142211914
 22
-51.327022552490234
 32
140.0
 13
41.45505142211914
 23
-51.327022552490234
 33
140.0
  0
3DFACE
  8
0
 10
41.433834075927734
 20
-53.05450439453125
 30
140.0
 11
41.50859451293945
 21
-52.47612380981445
 31
140.0
 12
41.485870361328125
 22
-52.03351974487305
 32
140.0
 13
41.485870361328125
 23
-52.03351974487305
 33
140.0
  0
3DFACE
  8
0
 10
41.2559700012207
 20
-53.89126205444336
 30
140.0
 11
41.41127395629883
 21
-53.26046371459961
 31
140.0
 12
41.433834075927734
 22
-53.05450439453125
 32
140.0
 13
41.433834075927734
 23
-53.05450439453125
 33
140.0
  0
3DFACE
  8
0
 10
41.20232391357422
 20
-54.13241958618164
 30
140.0
 11
41.23244094848633
 21
-54.025848388671875
 31
140.0
 12
41.2559700012207
 22
-53.89126205444336
 32
140.0
 13
41.2559700012207
 23
-53.89126205444336
 33
140.0
  0
3DFACE
  8
0
 10
40.94673156738281
 20
-54.882057189941406
 30
140.0
 11
40.98920822143555
 21
-54.77626037597656
 31
140.0
 12
41.20232391357422
 22
-54.13241958618164
 32
140.0
 13
41.20232391357422
 23
-54.13241958618164
 33
140.0
  0
3DFACE
  8
0
 10
39.77748107910156
 20
-56.890106201171875
 30
140.0
 11
40.23850631713867
 21
-56.215660095214844
 31
140.0
 12
40.94673156738281
 22
-54.882057189941406
 32
140.0
 13
40.94673156738281
 23
-54.882057189941406
 33
140.0
  0
3DFACE
  8
0
 10
39.74213790893555
 20
-56.93610382080078
 30
140.0
 11
39.76306915283203
 21
-56.91209411621094
 31
140.0
 12
39.77748107910156
 22
-56.890106201171875
 32
140.0
 13
39.77748107910156
 23
-56.890106201171875
 33
140.0
  0
3DFACE
  8
0
 10
38.73575210571289
 20
-57.89982223510742
 30
140.0
 11
39.116886138916016
 21
-57.568824768066406
 31
140.0
 12
39.74213790893555
 22
-56.93610382080078
 32
140.0
 13
39.74213790893555
 23
-56.93610382080078
 33
140.0
  0
3DFACE
  8
0
 10
37.80336380004883
 20
-58.457096099853516
 30
140.0
 11
38.31650161743164
 21
-58.1897087097168
 31
140.0
 12
38.73575210571289
 22
-57.89982223510742
 32
140.0
 13
38.73575210571289
 23
-57.89982223510742
 33
140.0
  0
3DFACE
  8
0
 10
36.87495040893555
 20
-58.83085632324219
 30
140.0
 11
37.21709060668945
 21
-58.71709060668945
 31
140.0
 12
37.80336380004883
 22
-58.457096099853516
 32
140.0
 13
37.80336380004883
 23
-58.457096099853516
 33
140.0
  0
3DFACE
  8
0
 10
35.24436569213867
 20
-59.07884216308594
 30
140.0
 11
36.06258010864258
 21
-58.99529266357422
 31
140.0
 12
36.534854888916016
 22
-58.89215087890625
 32
140.0
 13
36.534854888916016
 23
-58.89215087890625
 33
140.0
  0
3DFACE
  8
0
 10
36.534854888916016
 20
-58.89215087890625
 30
140.0
 11
36.87495040893555
 21
-58.83085632324219
 31
140.0
 12
37.80336380004883
 22
-58.457096099853516
 32
140.0
 13
37.80336380004883
 23
-58.457096099853516
 33
140.0
  0
3DFACE
  8
0
 10
37.80336380004883
 20
-58.457096099853516
 30
140.0
 11
38.73575210571289
 21
-57.89982223510742
 31
140.0
 12
39.74213790893555
 22
-56.93610382080078
 32
140.0
 13
39.74213790893555
 23
-56.93610382080078
 33
140.0
  0
3DFACE
  8
0
 10
39.74213790893555
 20
-56.93610382080078
 30
140.0
 11
39.77748107910156
 21
-56.890106201171875
 31
140.0
 12
40.94673156738281
 22
-54.882057189941406
 32
140.0
 13
40.94673156738281
 23
-54.882057189941406
 33
140.0
  0
3DFACE
  8
0
 10
40.94673156738281
 20
-54.882057189941406
 30
140.0
 11
41.20232391357422
 21
-54.13241958618164
 31
140.0
 12
41.2559700012207
 22
-53.89126205444336
 32
140.0
 13
41.2559700012207
 23
-53.89126205444336
 33
140.0
  0
3DFACE
  8
0
 10
41.2559700012207
 20
-53.89126205444336
 30
140.0
 11
41.433834075927734
 21
-53.05450439453125
 31
140.0
 12
41.485870361328125
 22
-52.03351974487305
 32
140.0
 13
41.485870361328125
 23
-52.03351974487305
 33
140.0
  0
3DFACE
  8
0
 10
41.485870361328125
 20
-52.03351974487305
 30
140.0
 11
41.45505142211914
 21
-51.327022552490234
 31
140.0
 12
41.24990463256836
 22
-50.0673942565918
 32
140.0
 13
41.24990463256836
 23
-50.0673942565918
 33
140.0
  0
3DFACE
  8
0
 10
41.24990463256836
 20
-50.0673942565918
 30
140.0
 11
40.37062072753906
 21
-47.6855354309082
 31
140.0
 12
27.350839614868164
 22
-49.77165985107422
 32
140.0
 13
27.350839614868164
 23
-49.77165985107422
 33
140.0
  0
3DFACE
  8
0
 10
27.350839614868164
 20
-49.77165985107422
 30
140.0
 11
31.002098083496094
 21
-57.94612503051758
 31
140.0
 12
32.10416793823242
 22
-58.51158142089844
 32
140.0
 13
32.10416793823242
 23
-58.51158142089844
 33
140.0
  0
3DFACE
  8
0
 10
32.10416793823242
 20
-58.51158142089844
 30
140.0
 11
32.85746765136719
 21
-58.78672409057617
 31
140.0
 12
33.44783020019531
 22
-58.911861419677734
 32
140.0
 13
33.44783020019531
 23
-58.911861419677734
 33
140.0
  0
3DFACE
  8
0
 10
33.44783020019531
 20
-58.911861419677734
 30
140.0
 11
34.21159744262695
 21
-59.012020111083984
 31
140.0
 12
34.430946350097656
 22
-59.02616882324219
 32
140.0
 13
34.430946350097656
 23
-59.02616882324219
 33
140.0
  0
3DFACE
  8
0
 10
34.430946350097656
 20
-59.02616882324219
 30
140.0
 11
34.658687591552734
 21
-59.04429626464844
 31
140.0
 12
35.20004653930664
 22
-59.0791015625
 32
140.0
 13
35.20004653930664
 23
-59.0791015625
 33
140.0
  0
3DFACE
  8
0
 10
35.20004653930664
 20
-59.0791015625
 30
140.0
 11
35.23176574707031
 21
-59.080440521240234
 31
140.0
 12
35.24436569213867
 22
-59.07884216308594
 32
140.0
 13
35.24436569213867
 23
-59.07884216308594
 33
140.0
  0
3DFACE
  8
0
 10
35.24436569213867
 20
-59.07884216308594
 30
140.0
 11
36.534854888916016
 21
-58.89215087890625
 31
140.0
 12
37.80336380004883
 22
-58.457096099853516
 32
140.0
 13
37.80336380004883
 23
-58.457096099853516
 33
140.0
  0
3DFACE
  8
0
 10
37.80336380004883
 20
-58.457096099853516
 30
140.0
 11
39.74213790893555
 21
-56.93610382080078
 31
140.0
 12
40.94673156738281
 22
-54.882057189941406
 32
140.0
 13
40.94673156738281
 23
-54.882057189941406
 33
140.0
  0
3DFACE
  8
0
 10
40.94673156738281
 20
-54.882057189941406
 30
140.0
 11
41.2559700012207
 21
-53.89126205444336
 31
140.0
 12
41.485870361328125
 22
-52.03351974487305
 32
140.0
 13
41.485870361328125
 23
-52.03351974487305
 33
140.0
  0
3DFACE
  8
0
 10
41.485870361328125
 20
-52.03351974487305
 30
140.0
 11
41.24990463256836
 21
-50.0673942565918
 31
140.0
 12
27.350839614868164
 22
-49.77165985107422
 32
140.0
 13
27.350839614868164
 23
-49.77165985107422
 33
140.0
  0
3DFACE
  8
0
 10
27.350839614868164
 20
-49.77165985107422
 30
140.0
 11
32.10416793823242
 21
-58.51158142089844
 31
140.0
 12
33.44783020019531
 22
-58.911861419677734
 32
140.0
 13
33.44783020019531
 23
-58.911861419677734
 33
140.0
  0
3DFACE
  8
0
 10
33.44783020019531
 20
-58.911861419677734
 30
140.0
 11
34.430946350097656
 21
-59.02616882324219
 31
140.0
 12
35.20004653930664
 22
-59.0791015625
 32
140.0
 13
35.20004653930664
 23
-59.0791015625
 33
140.0
  0
3DFACE
  8
0
 10
35.20004653930664
 20
-59.0791015625
 30
140.0
 11
35.24436569213867
 21
-59.07884216308594
 31
140.0
 12
37.80336380004883
 22
-58.457096099853516
 32
140.0
 13
37.80336380004883
 23
-58.457096099853516
 33
140.0
  0
3DFACE
  8
0
 10
37.80336380004883
 20
-58.457096099853516
 30
140.0
 11
40.94673156738281
 21
-54.882057189941406
 31
140.0
 12
41.485870361328125
 22
-52.03351974487305
 32
140.0
 13
41.485870361328125
 23
-52.03351974487305
 33
140.0
  0
3DFACE
  8
0
 10
41.485870361328125
 20
-52.03351974487305
 30
140.0
 11
27.350839614868164
 21
-49.77165985107422
 31
140.0
 12
33.44783020019531
 22
-58.911861419677734
 32
140.0
 13
33.44783020019531
 23
-58.911861419677734
 33
140.0
  0
3DFACE
  8
0
 10
33.44783020019531
 20
-58.911861419677734
 30
140.0
 11
35.20004653930664
 21
-59.0791015625
 31
140.0
 12
37.80336380004883
 22
-58.457096099853516
 32
140.0
 13
37.80336380004883
 23
-58.457096099853516
 33
140.0
  0
3DFACE
  8
0
 10
33.44783020019531
 20
-58.911861419677734
 30
140.0
 11
37.80336380004883
 21
-58.457096099853516
 31
140.0
 12
41.485870361328125
 22
-52.03351974487305
 32
140.0
 13
41.485870361328125
 23
-52.03351974487305
 33
140.0
  0
3DFACE
  8
0
 10
76.41918182373047
 20
-19.51846694946289
 30
140.0
 11
77.32350158691406
 21
-18.859237670898438
 31
140.0
 12
77.34545135498047
 22
-18.84252166748047
 32
140.0
 13
77.34545135498047
 23
-18.84252166748047
 33
140.0
  0
3DFACE
  8
0
 10
77.34545135498047
 20
-18.84252166748047
 30
140.0
 11
78.18074035644531
 21
-18.186634063720703
 31
140.0
 12
78.67292785644531
 22
-17.737199783325195
 32
140.0
 13
78.67292785644531
 23
-17.737199783325195
 33
140.0
  0
3DFACE
  8
0
 10
78.67292785644531
 20
-17.737199783325195
 30
140.0
 11
79.09142303466797
 21
-17.33837127685547
 31
140.0
 12
79.31916046142578
 22
-17.072757720947266
 32
140.0
 13
79.31916046142578
 23
-17.072757720947266
 33
140.0
  0
3DFACE
  8
0
 10
79.31916046142578
 20
-17.072757720947266
 30
140.0
 11
79.8277816772461
 21
-16.564613342285156
 31
140.0
 12
80.07823181152344
 22
-16.260896682739258
 32
140.0
 13
80.07823181152344
 23
-16.260896682739258
 33
140.0
  0
3DFACE
  8
0
 10
80.07823181152344
 20
-16.260896682739258
 30
140.0
 11
80.204345703125
 21
-16.096500396728516
 31
140.0
 12
80.59062194824219
 22
-15.555699348449707
 32
140.0
 13
80.59062194824219
 23
-15.555699348449707
 33
140.0
  0
3DFACE
  8
0
 10
80.80282592773438
 20
-15.203779220581055
 30
140.0
 11
80.90505981445312
 21
-15.050421714782715
 31
140.0
 12
81.27960968017578
 22
-14.342899322509766
 32
140.0
 13
81.27960968017578
 23
-14.342899322509766
 33
140.0
  0
3DFACE
  8
0
 10
80.07823181152344
 20
-16.260896682739258
 30
140.0
 11
80.59062194824219
 21
-15.555699348449707
 31
140.0
 12
80.80282592773438
 22
-15.203779220581055
 32
140.0
 13
80.80282592773438
 23
-15.203779220581055
 33
140.0
  0
3DFACE
  8
0
 10
78.67292785644531
 20
-17.737199783325195
 30
140.0
 11
79.31916046142578
 21
-17.072757720947266
 31
140.0
 12
80.07823181152344
 22
-16.260896682739258
 32
140.0
 13
80.07823181152344
 23
-16.260896682739258
 33
140.0
  0
3DFACE
  8
0
 10
76.41918182373047
 20
-19.51846694946289
 30
140.0
 11
77.34545135498047
 21
-18.84252166748047
 31
140.0
 12
78.67292785644531
 22
-17.737199783325195
 32
140.0
 13
78.67292785644531
 23
-17.737199783325195
 33
140.0
  0
3DFACE
  8
0
 10
75.8414306640625
 20
-19.86968421936035
 30
140.0
 11
76.19853210449219
 21
-19.68533706665039
 31
140.0
 12
76.41918182373047
 22
-19.51846694946289
 32
140.0
 13
76.41918182373047
 23
-19.51846694946289
 33
140.0
  0
3DFACE
  8
0
 10
74.74205780029297
 20
-20.314472198486328
 30
140.0
 11
75.45967864990234
 21
-20.03815460205078
 31
140.0
 12
75.8414306640625
 22
-19.86968421936035
 32
140.0
 13
75.8414306640625
 23
-19.86968421936035
 33
140.0
  0
3DFACE
  8
0
 10
73.52991485595703
 20
-20.588489532470703
 30
140.0
 11
74.24038696289062
 21
-20.462953567504883
 31
140.0
 12
74.74205780029297
 22
-20.314472198486328
 32
140.0
 13
74.74205780029297
 23
-20.314472198486328
 33
140.0
  0
3DFACE
  8
0
 10
72.88665771484375
 20
-20.643842697143555
 30
140.0
 11
73.47783660888672
 21
-20.5949764251709
 31
140.0
 12
73.52991485595703
 22
-20.588489532470703
 32
140.0
 13
73.52991485595703
 23
-20.588489532470703
 33
140.0
  0
3DFACE
  8
0
 10
71.95832061767578
 20
-20.667739868164062
 30
140.0
 11
72.65730285644531
 21
-20.656259536743164
 31
140.0
 12
72.88665771484375
 22
-20.643842697143555
 32
140.0
 13
72.88665771484375
 23
-20.643842697143555
 33
140.0
  0
3DFACE
  8
0
 10
70.96511840820312
 20
-20.60931396484375
 30
140.0
 11
71.0801010131836
 21
-20.622190475463867
 31
140.0
 12
71.95832061767578
 22
-20.667739868164062
 32
140.0
 13
71.95832061767578
 23
-20.667739868164062
 33
140.0
  0
3DFACE
  8
0
 10
70.29151153564453
 20
-20.508512496948242
 30
140.0
 11
70.31362915039062
 21
-20.512434005737305
 31
140.0
 12
70.96511840820312
 22
-20.60931396484375
 32
140.0
 13
70.96511840820312
 23
-20.60931396484375
 33
140.0
  0
3DFACE
  8
0
 10
69.50289916992188
 20
-20.347583770751953
 30
140.0
 11
69.57642364501953
 21
-20.368486404418945
 31
140.0
 12
70.27230834960938
 22
-20.504119873046875
 32
140.0
 13
70.27230834960938
 23
-20.504119873046875
 33
140.0
  0
3DFACE
  8
0
 10
70.27230834960938
 20
-20.504119873046875
 30
140.0
 11
70.29151153564453
 21
-20.508512496948242
 31
140.0
 12
70.96511840820312
 22
-20.60931396484375
 32
140.0
 13
70.96511840820312
 23
-20.60931396484375
 33
140.0
  0
3DFACE
  8
0
 10
70.96511840820312
 20
-20.60931396484375
 30
140.0
 11
71.95832061767578
 21
-20.667739868164062
 31
140.0
 12
72.88665771484375
 22
-20.643842697143555
 32
140.0
 13
72.88665771484375
 23
-20.643842697143555
 33
140.0
  0
3DFACE
  8
0
 10
72.88665771484375
 20
-20.643842697143555
 30
140.0
 11
73.52991485595703
 21
-20.588489532470703
 31
140.0
 12
74.74205780029297
 22
-20.314472198486328
 32
140.0
 13
74.74205780029297
 23
-20.314472198486328
 33
140.0
  0
3DFACE
  8
0
 10
74.74205780029297
 20
-20.314472198486328
 30
140.0
 11
75.8414306640625
 21
-19.86968421936035
 31
140.0
 12
76.41918182373047
 22
-19.51846694946289
 32
140.0
 13
76.41918182373047
 23
-19.51846694946289
 33
140.0
  0
3DFACE
  8
0
 10
76.41918182373047
 20
-19.51846694946289
 30
140.0
 11
78.67292785644531
 21
-17.737199783325195
 31
140.0
 12
80.07823181152344
 22
-16.260896682739258
 32
140.0
 13
80.07823181152344
 23
-16.260896682739258
 33
140.0
  0
3DFACE
  8
0
 10
80.07823181152344
 20
-16.260896682739258
 30
140.0
 11
80.80282592773438
 21
-15.203779220581055
 31
140.0
 12
81.27960968017578
 22
-14.342899322509766
 32
140.0
 13
81.27960968017578
 23
-14.342899322509766
 33
140.0
  0
3DFACE
  8
0
 10
81.27960968017578
 20
-14.342899322509766
 30
140.0
 11
81.63055419921875
 21
-13.512005805969238
 31
140.0
 12
82.01200866699219
 22
-12.267544746398926
 32
140.0
 13
82.01200866699219
 23
-12.267544746398926
 33
140.0
  0
3DFACE
  8
0
 10
82.01200866699219
 20
-12.267544746398926
 30
140.0
 11
82.09310150146484
 21
-11.973589897155762
 31
140.0
 12
82.22941589355469
 22
-11.204380989074707
 32
140.0
 13
82.22941589355469
 23
-11.204380989074707
 33
140.0
  0
3DFACE
  8
0
 10
82.22941589355469
 20
-11.204380989074707
 30
140.0
 11
82.28364562988281
 21
-10.747333526611328
 31
140.0
 12
82.31620788574219
 22
-10.435172080993652
 32
140.0
 13
82.31620788574219
 23
-10.435172080993652
 33
140.0
  0
3DFACE
  8
0
 10
82.31620788574219
 20
-10.435172080993652
 30
140.0
 11
82.34093475341797
 21
-10.081146240234375
 31
140.0
 12
82.36324310302734
 22
-9.66596508026123
 32
140.0
 13
82.36324310302734
 23
-9.66596508026123
 33
140.0
  0
3DFACE
  8
0
 10
82.35409545898438
 20
-9.192940711975098
 30
140.0
 11
82.35417938232422
 21
-8.896754264831543
 31
140.0
 12
82.29167175292969
 22
-8.4927396774292
 32
140.0
 13
82.29167175292969
 23
-8.4927396774292
 33
140.0
  0
3DFACE
  8
0
 10
82.31620788574219
 20
-10.435172080993652
 30
140.0
 11
82.36324310302734
 21
-9.66596508026123
 31
140.0
 12
82.35409545898438
 22
-9.192940711975098
 32
140.0
 13
82.35409545898438
 23
-9.192940711975098
 33
140.0
  0
3DFACE
  8
0
 10
82.01200866699219
 20
-12.267544746398926
 30
140.0
 11
82.22941589355469
 21
-11.204380989074707
 31
140.0
 12
82.31620788574219
 22
-10.435172080993652
 32
140.0
 13
82.31620788574219
 23
-10.435172080993652
 33
140.0
  0
3DFACE
  8
0
 10
80.07823181152344
 20
-16.260896682739258
 30
140.0
 11
81.27960968017578
 21
-14.342899322509766
 31
140.0
 12
82.01200866699219
 22
-12.267544746398926
 32
140.0
 13
82.01200866699219
 23
-12.267544746398926
 33
140.0
  0
3DFACE
  8
0
 10
74.74205780029297
 20
-20.314472198486328
 30
140.0
 11
76.41918182373047
 21
-19.51846694946289
 31
140.0
 12
80.07823181152344
 22
-16.260896682739258
 32
140.0
 13
80.07823181152344
 23
-16.260896682739258
 33
140.0
  0
3DFACE
  8
0
 10
70.96511840820312
 20
-20.60931396484375
 30
140.0
 11
72.88665771484375
 21
-20.643842697143555
 31
140.0
 12
74.74205780029297
 22
-20.314472198486328
 32
140.0
 13
74.74205780029297
 23
-20.314472198486328
 33
140.0
  0
3DFACE
  8
0
 10
69.50289916992188
 20
-20.347583770751953
 30
140.0
 11
70.27230834960938
 21
-20.504119873046875
 31
140.0
 12
70.96511840820312
 22
-20.60931396484375
 32
140.0
 13
70.96511840820312
 23
-20.60931396484375
 33
140.0
  0
3DFACE
  8
0
 10
68.38386535644531
 20
-19.9615535736084
 30
140.0
 11
69.02710723876953
 21
-20.19952392578125
 31
140.0
 12
69.50289916992188
 22
-20.347583770751953
 32
140.0
 13
69.50289916992188
 23
-20.347583770751953
 33
140.0
  0
3DFACE
  8
0
 10
67.81844329833984
 20
-19.68305206298828
 30
140.0
 11
67.91143798828125
 21
-19.734355926513672
 31
140.0
 12
68.38386535644531
 22
-19.9615535736084
 32
140.0
 13
68.38386535644531
 23
-19.9615535736084
 33
140.0
  0
3DFACE
  8
0
 10
67.1371078491211
 20
-19.237184524536133
 30
140.0
 11
67.69107818603516
 21
-19.607839584350586
 31
140.0
 12
67.81844329833984
 22
-19.68305206298828
 32
140.0
 13
67.81844329833984
 23
-19.68305206298828
 33
140.0
  0
3DFACE
  8
0
 10
66.56063079833984
 20
-18.810544967651367
 30
140.0
 11
67.09542846679688
 21
-19.21084213256836
 31
140.0
 12
67.1371078491211
 22
-19.237184524536133
 32
140.0
 13
67.1371078491211
 23
-19.237184524536133
 33
140.0
  0
3DFACE
  8
0
 10
65.55831909179688
 20
-17.996374130249023
 30
140.0
 11
65.80936431884766
 21
-18.222793579101562
 31
140.0
 12
66.48504638671875
 22
-18.746530532836914
 32
140.0
 13
66.48504638671875
 23
-18.746530532836914
 33
140.0
  0
3DFACE
  8
0
 10
66.48504638671875
 20
-18.746530532836914
 30
140.0
 11
66.56063079833984
 21
-18.810544967651367
 31
140.0
 12
67.1371078491211
 22
-19.237184524536133
 32
140.0
 13
67.1371078491211
 23
-19.237184524536133
 33
140.0
  0
3DFACE
  8
0
 10
67.1371078491211
 20
-19.237184524536133
 30
140.0
 11
67.81844329833984
 21
-19.68305206298828
 31
140.0
 12
68.38386535644531
 22
-19.9615535736084
 32
140.0
 13
68.38386535644531
 23
-19.9615535736084
 33
140.0
  0
3DFACE
  8
0
 10
68.38386535644531
 20
-19.9615535736084
 30
140.0
 11
69.50289916992188
 21
-20.347583770751953
 31
140.0
 12
70.96511840820312
 22
-20.60931396484375
 32
140.0
 13
70.96511840820312
 23
-20.60931396484375
 33
140.0
  0
3DFACE
  8
0
 10
70.96511840820312
 20
-20.60931396484375
 30
140.0
 11
74.74205780029297
 21
-20.314472198486328
 31
140.0
 12
80.07823181152344
 22
-16.260896682739258
 32
140.0
 13
80.07823181152344
 23
-16.260896682739258
 33
140.0
  0
3DFACE
  8
0
 10
80.07823181152344
 20
-16.260896682739258
 30
140.0
 11
82.01200866699219
 21
-12.267544746398926
 31
140.0
 12
82.31620788574219
 22
-10.435172080993652
 32
140.0
 13
82.31620788574219
 23
-10.435172080993652
 33
140.0
  0
3DFACE
  8
0
 10
82.31620788574219
 20
-10.435172080993652
 30
140.0
 11
82.35409545898438
 21
-9.192940711975098
 31
140.0
 12
82.29167175292969
 22
-8.4927396774292
 32
140.0
 13
82.29167175292969
 23
-8.4927396774292
 33
140.0
  0
3DFACE
  8
0
 10
82.29167175292969
 20
-8.4927396774292
 30
140.0
 11
82.2529525756836
 21
-8.127547264099121
 31
140.0
 12
82.18096160888672
 22
-7.872372627258301
 32
140.0
 13
82.18096160888672
 23
-7.872372627258301
 33
140.0
  0
3DFACE
  8
0
 10
82.18096160888672
 20
-7.872372627258301
 30
140.0
 11
82.05655670166016
 21
-7.358340263366699
 31
140.0
 12
81.94316101074219
 22
-7.064377307891846
 32
140.0
 13
81.94316101074219
 23
-7.064377307891846
 33
140.0
  0
3DFACE
  8
0
 10
81.94316101074219
 20
-7.064377307891846
 30
140.0
 11
81.77002716064453
 21
-6.589130401611328
 31
140.0
 12
81.49789428710938
 22
-5.990534782409668
 32
140.0
 13
81.49789428710938
 23
-5.990534782409668
 33
140.0
  0
3DFACE
  8
0
 10
81.49789428710938
 20
-5.990534782409668
 30
140.0
 11
81.40455627441406
 21
-5.808263778686523
 31
140.0
 12
80.94999694824219
 22
-5.050714492797852
 32
140.0
 13
80.94999694824219
 23
-5.050714492797852
 33
140.0
  0
3DFACE
  8
0
 10
80.94999694824219
 20
-5.050714492797852
 30
140.0
 11
80.38217163085938
 21
-4.281506538391113
 31
140.0
 12
79.7308120727539
 22
-3.512295722961426
 32
140.0
 13
79.7308120727539
 23
-3.512295722961426
 33
140.0
  0
3DFACE
  8
0
 10
79.7308120727539
 20
-3.512295722961426
 30
140.0
 11
79.34007263183594
 21
-3.1475167274475098
 31
140.0
 12
79.08879852294922
 22
-2.9335405826568604
 32
140.0
 13
79.08879852294922
 23
-2.9335405826568604
 33
140.0
  0
3DFACE
  8
0
 10
79.08879852294922
 20
-2.9335405826568604
 30
140.0
 11
78.8443374633789
 21
-2.7392215728759766
 31
140.0
 12
78.4401626586914
 22
-2.468839406967163
 32
140.0
 13
78.4401626586914
 23
-2.468839406967163
 33
140.0
  0
3DFACE
  8
0
 10
78.4401626586914
 20
-2.468839406967163
 30
140.0
 11
77.50123596191406
 21
-1.9249536991119385
 31
140.0
 12
77.45812225341797
 22
-1.9025894403457642
 32
140.0
 13
77.45812225341797
 23
-1.9025894403457642
 33
140.0
  0
3DFACE
  8
0
 10
76.84668731689453
 20
-1.6541674137115479
 30
140.0
 11
76.74166107177734
 21
-1.6074583530426025
 31
140.0
 12
76.68064880371094
 22
-1.5826328992843628
 32
140.0
 13
76.68064880371094
 23
-1.5826328992843628
 33
140.0
  0
3DFACE
  8
0
 10
78.4401626586914
 20
-2.468839406967163
 30
140.0
 11
77.45812225341797
 21
-1.9025894403457642
 31
140.0
 12
76.84668731689453
 22
-1.6541674137115479
 32
140.0
 13
76.84668731689453
 23
-1.6541674137115479
 33
140.0
  0
3DFACE
  8
0
 10
79.7308120727539
 20
-3.512295722961426
 30
140.0
 11
79.08879852294922
 21
-2.9335405826568604
 31
140.0
 12
78.4401626586914
 22
-2.468839406967163
 32
140.0
 13
78.4401626586914
 23
-2.468839406967163
 33
140.0
  0
3DFACE
  8
0
 10
81.49789428710938
 20
-5.990534782409668
 30
140.0
 11
80.94999694824219
 21
-5.050714492797852
 31
140.0
 12
79.7308120727539
 22
-3.512295722961426
 32
140.0
 13
79.7308120727539
 23
-3.512295722961426
 33
140.0
  0
3DFACE
  8
0
 10
82.18096160888672
 20
-7.872372627258301
 30
140.0
 11
81.94316101074219
 21
-7.064377307891846
 31
140.0
 12
81.49789428710938
 22
-5.990534782409668
 32
140.0
 13
81.49789428710938
 23
-5.990534782409668
 33
140.0
  0
3DFACE
  8
0
 10
82.31620788574219
 20
-10.435172080993652
 30
140.0
 11
82.29167175292969
 21
-8.4927396774292
 31
140.0
 12
82.18096160888672
 22
-7.872372627258301
 32
140.0
 13
82.18096160888672
 23
-7.872372627258301
 33
140.0
  0
3DFACE
  8
0
 10
70.96511840820312
 20
-20.60931396484375
 30
140.0
 11
80.07823181152344
 21
-16.260896682739258
 31
140.0
 12
82.31620788574219
 22
-10.435172080993652
 32
140.0
 13
82.31620788574219
 23
-10.435172080993652
 33
140.0
  0
3DFACE
  8
0
 10
67.1371078491211
 20
-19.237184524536133
 30
140.0
 11
68.38386535644531
 21
-19.9615535736084
 31
140.0
 12
70.96511840820312
 22
-20.60931396484375
 32
140.0
 13
70.96511840820312
 23
-20.60931396484375
 33
140.0
  0
3DFACE
  8
0
 10
65.55831909179688
 20
-17.996374130249023
 30
140.0
 11
66.48504638671875
 21
-18.746530532836914
 31
140.0
 12
67.1371078491211
 22
-19.237184524536133
 32
140.0
 13
67.1371078491211
 23
-19.237184524536133
 33
140.0
  0
3DFACE
  8
0
 10
64.19886016845703
 20
-16.592300415039062
 30
140.0
 11
64.89865112304688
 21
-17.36210823059082
 31
140.0
 12
65.55831909179688
 22
-17.996374130249023
 32
140.0
 13
65.55831909179688
 23
-17.996374130249023
 33
140.0
  0
3DFACE
  8
0
 10
63.18833923339844
 20
-15.102753639221191
 30
140.0
 11
63.59986114501953
 21
-15.819632530212402
 31
140.0
 12
64.12688446044922
 22
-16.49602508544922
 32
140.0
 13
64.12688446044922
 23
-16.49602508544922
 33
140.0
  0
3DFACE
  8
0
 10
64.12688446044922
 20
-16.49602508544922
 30
140.0
 11
64.19886016845703
 21
-16.592300415039062
 31
140.0
 12
65.55831909179688
 22
-17.996374130249023
 32
140.0
 13
65.55831909179688
 23
-17.996374130249023
 33
140.0
  0
3DFACE
  8
0
 10
65.55831909179688
 20
-17.996374130249023
 30
140.0
 11
67.1371078491211
 21
-19.237184524536133
 31
140.0
 12
70.96511840820312
 22
-20.60931396484375
 32
140.0
 13
70.96511840820312
 23
-20.60931396484375
 33
140.0
  0
3DFACE
  8
0
 10
70.96511840820312
 20
-20.60931396484375
 30
140.0
 11
82.31620788574219
 21
-10.435172080993652
 31
140.0
 12
82.18096160888672
 22
-7.872372627258301
 32
140.0
 13
82.18096160888672
 23
-7.872372627258301
 33
140.0
  0
3DFACE
  8
0
 10
82.18096160888672
 20
-7.872372627258301
 30
140.0
 11
81.49789428710938
 21
-5.990534782409668
 31
140.0
 12
79.7308120727539
 22
-3.512295722961426
 32
140.0
 13
79.7308120727539
 23
-3.512295722961426
 33
140.0
  0
3DFACE
  8
0
 10
79.7308120727539
 20
-3.512295722961426
 30
140.0
 11
78.4401626586914
 21
-2.468839406967163
 31
140.0
 12
76.84668731689453
 22
-1.6541674137115479
 32
140.0
 13
76.84668731689453
 23
-1.6541674137115479
 33
140.0
  0
3DFACE
  8
0
 10
76.68064880371094
 20
-1.5826328992843628
 30
140.0
 11
76.47547149658203
 21
-1.479622721672058
 31
140.0
 12
75.81169891357422
 22
-1.2424362897872925
 32
140.0
 13
75.81169891357422
 23
-1.2424362897872925
 33
140.0
  0
3DFACE
  8
0
 10
79.7308120727539
 20
-3.512295722961426
 30
140.0
 11
76.84668731689453
 21
-1.6541674137115479
 31
140.0
 12
76.68064880371094
 22
-1.5826328992843628
 32
140.0
 13
76.68064880371094
 23
-1.5826328992843628
 33
140.0
  0
3DFACE
  8
0
 10
70.96511840820312
 20
-20.60931396484375
 30
140.0
 11
82.18096160888672
 21
-7.872372627258301
 31
140.0
 12
79.7308120727539
 22
-3.512295722961426
 32
140.0
 13
79.7308120727539
 23
-3.512295722961426
 33
140.0
  0
3DFACE
  8
0
 10
64.12688446044922
 20
-16.49602508544922
 30
140.0
 11
65.55831909179688
 21
-17.996374130249023
 31
140.0
 12
70.96511840820312
 22
-20.60931396484375
 32
140.0
 13
70.96511840820312
 23
-20.60931396484375
 33
140.0
  0
3DFACE
  8
0
 10
63.15922164916992
 20
-15.04478931427002
 30
140.0
 11
63.18833923339844
 21
-15.102753639221191
 31
140.0
 12
64.12688446044922
 22
-16.49602508544922
 32
140.0
 13
64.12688446044922
 23
-16.49602508544922
 33
140.0
  0
3DFACE
  8
0
 10
62.79165267944336
 20
-14.210761070251465
 30
140.0
 11
62.81436538696289
 21
-14.281216621398926
 31
140.0
 12
63.15922164916992
 22
-15.04478931427002
 32
140.0
 13
63.15922164916992
 23
-15.04478931427002
 33
140.0
  0
3DFACE
  8
0
 10
62.282230377197266
 20
-12.742796897888184
 30
140.0
 11
62.516815185546875
 21
-13.521438598632812
 31
140.0
 12
62.79165267944336
 22
-14.210761070251465
 32
140.0
 13
62.79165267944336
 23
-14.210761070251465
 33
140.0
  0
3DFACE
  8
0
 10
62.051395416259766
 20
-11.36544418334961
 30
140.0
 11
62.11334991455078
 21
-11.973589897155762
 31
140.0
 12
62.27317428588867
 22
-12.696813583374023
 32
140.0
 13
62.27317428588867
 23
-12.696813583374023
 33
140.0
  0
3DFACE
  8
0
 10
62.27317428588867
 20
-12.696813583374023
 30
140.0
 11
62.282230377197266
 21
-12.742796897888184
 31
140.0
 12
62.79165267944336
 22
-14.210761070251465
 32
140.0
 13
62.79165267944336
 23
-14.210761070251465
 33
140.0
  0
3DFACE
  8
0
 10
62.79165267944336
 20
-14.210761070251465
 30
140.0
 11
63.15922164916992
 21
-15.04478931427002
 31
140.0
 12
64.12688446044922
 22
-16.49602508544922
 32
140.0
 13
64.12688446044922
 23
-16.49602508544922
 33
140.0
  0
3DFACE
  8
0
 10
64.12688446044922
 20
-16.49602508544922
 30
140.0
 11
70.96511840820312
 21
-20.60931396484375
 31
140.0
 12
79.7308120727539
 22
-3.512295722961426
 32
140.0
 13
79.7308120727539
 23
-3.512295722961426
 33
140.0
  0
3DFACE
  8
0
 10
79.7308120727539
 20
-3.512295722961426
 30
140.0
 11
76.68064880371094
 21
-1.5826328992843628
 31
140.0
 12
75.81169891357422
 22
-1.2424362897872925
 32
140.0
 13
75.81169891357422
 23
-1.2424362897872925
 33
140.0
  0
3DFACE
  8
0
 10
75.81169891357422
 20
-1.2424362897872925
 30
140.0
 11
75.46165466308594
 21
-1.1086236238479614
 31
140.0
 12
75.02310180664062
 22
-0.9860444068908691
 32
140.0
 13
75.02310180664062
 23
-0.9860444068908691
 33
140.0
  0
3DFACE
  8
0
 10
75.02310180664062
 20
-0.9860444068908691
 30
140.0
 11
74.23451232910156
 21
-0.7886458039283752
 31
140.0
 12
74.17317199707031
 22
-0.7749875783920288
 32
140.0
 13
74.17317199707031
 23
-0.7749875783920288
 33
140.0
  0
3DFACE
  8
0
 10
74.17317199707031
 20
-0.7749875783920288
 30
140.0
 11
73.52991485595703
 21
-0.6773939728736877
 31
140.0
 12
73.44591522216797
 22
-0.6721135973930359
 32
140.0
 13
73.44591522216797
 23
-0.6721135973930359
 33
140.0
  0
3DFACE
  8
0
 10
73.44591522216797
 20
-0.6721135973930359
 30
140.0
 11
72.88666534423828
 21
-0.617835283279419
 31
140.0
 12
72.4293441772461
 22
-0.625565230846405
 32
140.0
 13
72.4293441772461
 23
-0.625565230846405
 33
140.0
  0
3DFACE
  8
0
 10
72.4293441772461
 20
-0.625565230846405
 30
140.0
 11
72.24340057373047
 21
-0.621597945690155
 31
140.0
 12
71.60013580322266
 22
-0.6669509410858154
 32
140.0
 13
71.60013580322266
 23
-0.6669509410858154
 33
140.0
  0
3DFACE
  8
0
 10
71.28002166748047
 20
-0.710257351398468
 30
140.0
 11
70.95689392089844
 21
-0.746159017086029
 31
140.0
 12
70.34380340576172
 22
-0.8593114018440247
 32
140.0
 13
70.34380340576172
 23
-0.8593114018440247
 33
140.0
  0
3DFACE
  8
0
 10
72.4293441772461
 20
-0.625565230846405
 30
140.0
 11
71.60013580322266
 21
-0.6669509410858154
 31
140.0
 12
71.28002166748047
 22
-0.710257351398468
 32
140.0
 13
71.28002166748047
 23
-0.710257351398468
 33
140.0
  0
3DFACE
  8
0
 10
74.17317199707031
 20
-0.7749875783920288
 30
140.0
 11
73.44591522216797
 21
-0.6721135973930359
 31
140.0
 12
72.4293441772461
 22
-0.625565230846405
 32
140.0
 13
72.4293441772461
 23
-0.625565230846405
 33
140.0
  0
3DFACE
  8
0
 10
75.81169891357422
 20
-1.2424362897872925
 30
140.0
 11
75.02310180664062
 21
-0.9860444068908691
 31
140.0
 12
74.17317199707031
 22
-0.7749875783920288
 32
140.0
 13
74.17317199707031
 23
-0.7749875783920288
 33
140.0
  0
3DFACE
  8
0
 10
64.12688446044922
 20
-16.49602508544922
 30
140.0
 11
79.7308120727539
 21
-3.512295722961426
 31
140.0
 12
75.81169891357422
 22
-1.2424362897872925
 32
140.0
 13
75.81169891357422
 23
-1.2424362897872925
 33
140.0
  0
3DFACE
  8
0
 10
62.27317428588867
 20
-12.696813583374023
 30
140.0
 11
62.79165267944336
 21
-14.210761070251465
 31
140.0
 12
64.12688446044922
 22
-16.49602508544922
 32
140.0
 13
64.12688446044922
 23
-16.49602508544922
 33
140.0
  0
3DFACE
  8
0
 10
61.981868743896484
 20
-10.820721626281738
 30
140.0
 11
62.051395416259766
 21
-11.36544418334961
 31
140.0
 12
62.27317428588867
 22
-12.696813583374023
 32
140.0
 13
62.27317428588867
 23
-12.696813583374023
 33
140.0
  0
3DFACE
  8
0
 10
61.97906494140625
 20
-10.144758224487305
 30
140.0
 11
61.96440887451172
 21
-10.435172080993652
 31
140.0
 12
61.981868743896484
 22
-10.820721626281738
 32
140.0
 13
61.981868743896484
 23
-10.820721626281738
 33
140.0
  0
3DFACE
  8
0
 10
62.28339767456055
 20
-8.406817436218262
 30
140.0
 11
62.10572052001953
 21
-9.161837577819824
 31
140.0
 12
61.97906494140625
 22
-10.144758224487305
 32
140.0
 13
61.97906494140625
 23
-10.144758224487305
 33
140.0
  0
3DFACE
  8
0
 10
62.48448181152344
 20
-7.702770233154297
 30
140.0
 11
62.3349609375
 21
-8.127547264099121
 31
140.0
 12
62.28339767456055
 22
-8.406817436218262
 32
140.0
 13
62.28339767456055
 23
-8.406817436218262
 33
140.0
  0
3DFACE
  8
0
 10
62.85342788696289
 20
-6.589130401611328
 30
140.0
 11
62.805416107177734
 21
-6.723149299621582
 31
140.0
 12
62.48448181152344
 22
-7.702770233154297
 32
140.0
 13
62.48448181152344
 23
-7.702770233154297
 33
140.0
  0
3DFACE
  8
0
 10
63.198028564453125
 20
-5.81992244720459
 30
140.0
 11
62.903316497802734
 21
-6.472819805145264
 31
140.0
 12
62.85342788696289
 22
-6.589130401611328
 32
140.0
 13
62.85342788696289
 23
-6.589130401611328
 33
140.0
  0
3DFACE
  8
0
 10
63.70610427856445
 20
-4.981383800506592
 30
140.0
 11
63.65211868286133
 21
-5.050756931304932
 31
140.0
 12
63.198028564453125
 22
-5.81992244720459
 32
140.0
 13
63.198028564453125
 23
-5.81992244720459
 33
140.0
  0
3DFACE
  8
0
 10
64.35212707519531
 20
-4.133827209472656
 30
140.0
 11
64.20931243896484
 21
-4.268714904785156
 31
140.0
 12
63.70610427856445
 22
-4.981383800506592
 32
140.0
 13
63.70610427856445
 23
-4.981383800506592
 33
140.0
  0
3DFACE
  8
0
 10
64.9218978881836
 20
-3.4928295612335205
 30
140.0
 11
64.7352294921875
 21
-3.6973772048950195
 31
140.0
 12
64.70856475830078
 22
-3.771902084350586
 32
140.0
 13
64.70856475830078
 23
-3.771902084350586
 33
140.0
  0
3DFACE
  8
0
 10
64.70856475830078
 20
-3.771902084350586
 30
140.0
 11
64.35212707519531
 21
-4.133827209472656
 31
140.0
 12
63.70610427856445
 22
-4.981383800506592
 32
140.0
 13
63.70610427856445
 23
-4.981383800506592
 33
140.0
  0
3DFACE
  8
0
 10
63.70610427856445
 20
-4.981383800506592
 30
140.0
 11
63.198028564453125
 21
-5.81992244720459
 31
140.0
 12
62.85342788696289
 22
-6.589130401611328
 32
140.0
 13
62.85342788696289
 23
-6.589130401611328
 33
140.0
  0
3DFACE
  8
0
 10
62.85342788696289
 20
-6.589130401611328
 30
140.0
 11
62.48448181152344
 21
-7.702770233154297
 31
140.0
 12
62.28339767456055
 22
-8.406817436218262
 32
140.0
 13
62.28339767456055
 23
-8.406817436218262
 33
140.0
  0
3DFACE
  8
0
 10
62.28339767456055
 20
-8.406817436218262
 30
140.0
 11
61.97906494140625
 21
-10.144758224487305
 31
140.0
 12
61.981868743896484
 22
-10.820721626281738
 32
140.0
 13
61.981868743896484
 23
-10.820721626281738
 33
140.0
  0
3DFACE
  8
0
 10
61.981868743896484
 20
-10.820721626281738
 30
140.0
 11
62.27317428588867
 21
-12.696813583374023
 31
140.0
 12
64.12688446044922
 22
-16.49602508544922
 32
140.0
 13
64.12688446044922
 23
-16.49602508544922
 33
140.0
  0
3DFACE
  8
0
 10
64.12688446044922
 20
-16.49602508544922
 30
140.0
 11
75.81169891357422
 21
-1.2424362897872925
 31
140.0
 12
74.17317199707031
 22
-0.7749875783920288
 32
140.0
 13
74.17317199707031
 23
-0.7749875783920288
 33
140.0
  0
3DFACE
  8
0
 10
74.17317199707031
 20
-0.7749875783920288
 30
140.0
 11
72.4293441772461
 21
-0.625565230846405
 31
140.0
 12
71.28002166748047
 22
-0.710257351398468
 32
140.0
 13
71.28002166748047
 23
-0.710257351398468
 33
140.0
  0
3DFACE
  8
0
 10
71.28002166748047
 20
-0.710257351398468
 30
140.0
 11
70.34380340576172
 21
-0.8593114018440247
 31
140.0
 12
69.89783477783203
 22
-0.9623148441314697
 32
140.0
 13
69.89783477783203
 23
-0.9623148441314697
 33
140.0
  0
3DFACE
  8
0
 10
69.89783477783203
 20
-0.9623148441314697
 30
140.0
 11
69.30061340332031
 21
-1.1147589683532715
 31
140.0
 12
68.84966278076172
 22
-1.2449994087219238
 32
140.0
 13
68.84966278076172
 23
-1.2449994087219238
 33
140.0
  0
3DFACE
  8
0
 10
68.28114318847656
 20
-1.4607006311416626
 30
140.0
 11
67.82376098632812
 21
-1.625535488128662
 31
140.0
 12
67.6886215209961
 22
-1.6837592124938965
 32
140.0
 13
67.6886215209961
 23
-1.6837592124938965
 33
140.0
  0
3DFACE
  8
0
 10
69.89783477783203
 20
-0.9623148441314697
 30
140.0
 11
68.84966278076172
 21
-1.2449994087219238
 31
140.0
 12
68.28114318847656
 22
-1.4607006311416626
 32
140.0
 13
68.28114318847656
 23
-1.4607006311416626
 33
140.0
  0
3DFACE
  8
0
 10
74.17317199707031
 20
-0.7749875783920288
 30
140.0
 11
71.28002166748047
 21
-0.710257351398468
 31
140.0
 12
69.89783477783203
 22
-0.9623148441314697
 32
140.0
 13
69.89783477783203
 23
-0.9623148441314697
 33
140.0
  0
3DFACE
  8
0
 10
61.981868743896484
 20
-10.820721626281738
 30
140.0
 11
64.12688446044922
 21
-16.49602508544922
 31
140.0
 12
74.17317199707031
 22
-0.7749875783920288
 32
140.0
 13
74.17317199707031
 23
-0.7749875783920288
 33
140.0
  0
3DFACE
  8
0
 10
62.85342788696289
 20
-6.589130401611328
 30
140.0
 11
62.28339767456055
 21
-8.406817436218262
 31
140.0
 12
61.981868743896484
 22
-10.820721626281738
 32
140.0
 13
61.981868743896484
 23
-10.820721626281738
 33
140.0
  0
3DFACE
  8
0
 10
64.70856475830078
 20
-3.771902084350586
 30
140.0
 11
63.70610427856445
 21
-4.981383800506592
 31
140.0
 12
62.85342788696289
 22
-6.589130401611328
 32
140.0
 13
62.85342788696289
 23
-6.589130401611328
 33
140.0
  0
3DFACE
  8
0
 10
64.98954772949219
 20
-3.4231936931610107
 30
140.0
 11
64.9218978881836
 21
-3.4928295612335205
 31
140.0
 12
64.70856475830078
 22
-3.771902084350586
 32
140.0
 13
64.70856475830078
 23
-3.771902084350586
 33
140.0
  0
3DFACE
  8
0
 10
65.90209197998047
 20
-2.6808910369873047
 30
140.0
 11
65.16756439208984
 21
-3.26375150680542
 31
140.0
 12
64.98954772949219
 22
-3.4231936931610107
 32
140.0
 13
64.98954772949219
 23
-3.4231936931610107
 33
140.0
  0
3DFACE
  8
0
 10
66.46324920654297
 20
-2.310696601867676
 30
140.0
 11
66.34852600097656
 21
-2.3827643394470215
 31
140.0
 12
65.90209197998047
 22
-2.6808910369873047
 32
140.0
 13
65.90209197998047
 23
-2.6808910369873047
 33
140.0
  0
3DFACE
  8
0
 10
67.6886215209961
 20
-1.6837592124938965
 30
140.0
 11
67.12055969238281
 21
-1.9418073892593384
 31
140.0
 12
67.02918243408203
 22
-1.9987049102783203
 32
140.0
 13
67.02918243408203
 23
-1.9987049102783203
 33
140.0
  0
3DFACE
  8
0
 10
67.02918243408203
 20
-1.9987049102783203
 30
140.0
 11
66.46324920654297
 21
-2.310696601867676
 31
140.0
 12
65.90209197998047
 22
-2.6808910369873047
 32
140.0
 13
65.90209197998047
 23
-2.6808910369873047
 33
140.0
  0
3DFACE
  8
0
 10
65.90209197998047
 20
-2.6808910369873047
 30
140.0
 11
64.98954772949219
 21
-3.4231936931610107
 31
140.0
 12
64.70856475830078
 22
-3.771902084350586
 32
140.0
 13
64.70856475830078
 23
-3.771902084350586
 33
140.0
  0
3DFACE
  8
0
 10
64.70856475830078
 20
-3.771902084350586
 30
140.0
 11
62.85342788696289
 21
-6.589130401611328
 31
140.0
 12
61.981868743896484
 22
-10.820721626281738
 32
140.0
 13
61.981868743896484
 23
-10.820721626281738
 33
140.0
  0
3DFACE
  8
0
 10
61.981868743896484
 20
-10.820721626281738
 30
140.0
 11
74.17317199707031
 21
-0.7749875783920288
 31
140.0
 12
69.89783477783203
 22
-0.9623148441314697
 32
140.0
 13
69.89783477783203
 23
-0.9623148441314697
 33
140.0
  0
3DFACE
  8
0
 10
69.89783477783203
 20
-0.9623148441314697
 30
140.0
 11
68.28114318847656
 21
-1.4607006311416626
 31
140.0
 12
67.6886215209961
 22
-1.6837592124938965
 32
140.0
 13
67.6886215209961
 23
-1.6837592124938965
 33
140.0
  0
3DFACE
  8
0
 10
67.6886215209961
 20
-1.6837592124938965
 30
140.0
 11
67.02918243408203
 21
-1.9987049102783203
 31
140.0
 12
65.90209197998047
 22
-2.6808910369873047
 32
140.0
 13
65.90209197998047
 23
-2.6808910369873047
 33
140.0
  0
3DFACE
  8
0
 10
65.90209197998047
 20
-2.6808910369873047
 30
140.0
 11
64.70856475830078
 21
-3.771902084350586
 31
140.0
 12
61.981868743896484
 22
-10.820721626281738
 32
140.0
 13
61.981868743896484
 23
-10.820721626281738
 33
140.0
  0
3DFACE
  8
0
 10
61.981868743896484
 20
-10.820721626281738
 30
140.0
 11
69.89783477783203
 21
-0.9623148441314697
 31
140.0
 12
67.6886215209961
 22
-1.6837592124938965
 32
140.0
 13
67.6886215209961
 23
-1.6837592124938965
 33
140.0
  0
3DFACE
  8
0
 10
67.6886215209961
 20
-1.6837592124938965
 30
140.0
 11
65.90209197998047
 21
-2.6808910369873047
 31
140.0
 12
61.981868743896484
 22
-10.820721626281738
 32
140.0
 13
61.981868743896484
 23
-10.820721626281738
 33
140.0
  0
3DFACE
  8
0
 10
-72.81086730957031
 20
-5.076273441314697
 30
140.0
 11
-72.66681671142578
 21
-5.856751441955566
 31
140.0
 12
-72.35320281982422
 22
-6.901174068450928
 32
140.0
 13
-72.35320281982422
 23
-6.901174068450928
 33
140.0
  0
3DFACE
  8
0
 10
-72.35320281982422
 20
-6.901174068450928
 30
140.0
 11
-72.16819763183594
 21
-7.417708396911621
 31
140.0
 12
-71.75108337402344
 22
-8.198186874389648
 32
140.0
 13
-71.75108337402344
 23
-8.198186874389648
 33
140.0
  0
3DFACE
  8
0
 10
-71.75108337402344
 20
-8.198186874389648
 30
140.0
 11
-70.95574951171875
 21
-9.505783081054688
 31
140.0
 12
-70.75359344482422
 22
-9.783555030822754
 32
140.0
 13
-70.75359344482422
 23
-9.783555030822754
 33
140.0
  0
3DFACE
  8
0
 10
-70.75359344482422
 20
-9.783555030822754
 30
140.0
 11
-70.10504150390625
 21
-10.541230201721191
 31
140.0
 12
-69.36454772949219
 22
-11.242464065551758
 32
140.0
 13
-69.36454772949219
 23
-11.242464065551758
 33
140.0
  0
3DFACE
  8
0
 10
-69.36454772949219
 20
-11.242464065551758
 30
140.0
 11
-69.19830322265625
 21
-11.383356094360352
 31
140.0
 12
-68.0853042602539
 22
-12.102947235107422
 32
140.0
 13
-68.0853042602539
 23
-12.102947235107422
 33
140.0
  0
3DFACE
  8
0
 10
-68.0853042602539
 20
-12.102947235107422
 30
140.0
 11
-67.79591369628906
 21
-12.25895881652832
 31
140.0
 12
-66.49299621582031
 22
-12.884298324584961
 32
140.0
 13
-66.49299621582031
 23
-12.884298324584961
 33
140.0
  0
3DFACE
  8
0
 10
-66.49299621582031
 20
-12.884298324584961
 30
140.0
 11
-66.04932403564453
 21
-13.054106712341309
 31
140.0
 12
-65.24604034423828
 22
-13.310544967651367
 32
140.0
 13
-65.24604034423828
 23
-13.310544967651367
 33
140.0
  0
3DFACE
  8
0
 10
-65.24604034423828
 20
-13.310544967651367
 30
140.0
 11
-64.67839813232422
 21
-13.537513732910156
 31
140.0
 12
-64.59571838378906
 22
-13.568912506103516
 32
140.0
 13
-64.59571838378906
 23
-13.568912506103516
 33
140.0
  0
3DFACE
  8
0
 10
-64.59571838378906
 20
-13.568912506103516
 30
140.0
 11
-64.4767837524414
 21
-13.609575271606445
 31
140.0
 12
-64.27194213867188
 22
-13.663018226623535
 32
140.0
 13
-64.27194213867188
 23
-13.663018226623535
 33
140.0
  0
3DFACE
  8
0
 10
-64.27194213867188
 20
-13.663018226623535
 30
140.0
 11
-62.332550048828125
 21
-14.095053672790527
 31
140.0
 12
-61.82456970214844
 22
-14.169530868530273
 32
140.0
 13
-61.82456970214844
 23
-14.169530868530273
 33
140.0
  0
3DFACE
  8
0
 10
-61.82456970214844
 20
-14.169530868530273
 30
140.0
 11
-61.552093505859375
 21
-14.225385665893555
 31
140.0
 12
-61.1065788269043
 22
-14.248964309692383
 32
140.0
 13
-61.1065788269043
 23
-14.248964309692383
 33
140.0
  0
3DFACE
  8
0
 10
-61.1065788269043
 20
-14.248964309692383
 30
140.0
 11
-60.7716064453125
 21
-14.29185676574707
 31
140.0
 12
-60.19955825805664
 22
-14.291738510131836
 32
140.0
 13
-60.19955825805664
 23
-14.291738510131836
 33
140.0
  0
3DFACE
  8
0
 10
-60.19955825805664
 20
-14.291738510131836
 30
140.0
 11
-59.991127014160156
 21
-14.300148010253906
 31
140.0
 12
-59.41908645629883
 22
-14.226424217224121
 32
140.0
 13
-59.41908645629883
 23
-14.226424217224121
 33
140.0
  0
3DFACE
  8
0
 10
-59.41908645629883
 20
-14.226424217224121
 30
140.0
 11
-59.210655212402344
 21
-14.225775718688965
 31
140.0
 12
-58.63860321044922
 22
-14.079726219177246
 32
140.0
 13
-58.63860321044922
 23
-14.079726219177246
 33
140.0
  0
3DFACE
  8
0
 10
-58.63860321044922
 20
-14.079726219177246
 30
140.0
 11
-58.43016815185547
 21
-14.042871475219727
 31
140.0
 12
-57.85812759399414
 22
-13.875332832336426
 32
140.0
 13
-57.85812759399414
 23
-13.875332832336426
 33
140.0
  0
3DFACE
  8
0
 10
-57.85812759399414
 20
-13.875332832336426
 30
140.0
 11
-57.649696350097656
 21
-13.836557388305664
 31
140.0
 12
-57.301612854003906
 22
-13.708663940429688
 32
140.0
 13
-57.301612854003906
 23
-13.708663940429688
 33
140.0
  0
3DFACE
  8
0
 10
-57.07764434814453
 20
-13.619246482849121
 30
140.0
 11
-56.86920928955078
 21
-13.542044639587402
 31
140.0
 12
-56.29716873168945
 22
-13.274859428405762
 32
140.0
 13
-56.29716873168945
 23
-13.274859428405762
 33
140.0
  0
3DFACE
  8
0
 10
-57.85812759399414
 20
-13.875332832336426
 30
140.0
 11
-57.301612854003906
 21
-13.708663940429688
 31
140.0
 12
-57.07764434814453
 22
-13.619246482849121
 32
140.0
 13
-57.07764434814453
 23
-13.619246482849121
 33
140.0
  0
3DFACE
  8
0
 10
-59.41908645629883
 20
-14.226424217224121
 30
140.0
 11
-58.63860321044922
 21
-14.079726219177246
 31
140.0
 12
-57.85812759399414
 22
-13.875332832336426
 32
140.0
 13
-57.85812759399414
 23
-13.875332832336426
 33
140.0
  0
3DFACE
  8
0
 10
-61.1065788269043
 20
-14.248964309692383
 30
140.0
 11
-60.19955825805664
 21
-14.291738510131836
 31
140.0
 12
-59.41908645629883
 22
-14.226424217224121
 32
140.0
 13
-59.41908645629883
 23
-14.226424217224121
 33
140.0
  0
3DFACE
  8
0
 10
-64.27194213867188
 20
-13.663018226623535
 30
140.0
 11
-61.82456970214844
 21
-14.169530868530273
 31
140.0
 12
-61.1065788269043
 22
-14.248964309692383
 32
140.0
 13
-61.1065788269043
 23
-14.248964309692383
 33
140.0
  0
3DFACE
  8
0
 10
-65.24604034423828
 20
-13.310544967651367
 30
140.0
 11
-64.59571838378906
 21
-13.568912506103516
 31
140.0
 12
-64.27194213867188
 22
-13.663018226623535
 32
140.0
 13
-64.27194213867188
 23
-13.663018226623535
 33
140.0
  0
3DFACE
  8
0
 10
-68.0853042602539
 20
-12.102947235107422
 30
140.0
 11
-66.49299621582031
 21
-12.884298324584961
 31
140.0
 12
-65.24604034423828
 22
-13.310544967651367
 32
140.0
 13
-65.24604034423828
 23
-13.310544967651367
 33
140.0
  0
3DFACE
  8
0
 10
-70.75359344482422
 20
-9.783555030822754
 30
140.0
 11
-69.36454772949219
 21
-11.242464065551758
 31
140.0
 12
-68.0853042602539
 22
-12.102947235107422
 32
140.0
 13
-68.0853042602539
 23
-12.102947235107422
 33
140.0
  0
3DFACE
  8
0
 10
-72.35320281982422
 20
-6.901174068450928
 30
140.0
 11
-71.75108337402344
 21
-8.198186874389648
 31
140.0
 12
-70.75359344482422
 22
-9.783555030822754
 32
140.0
 13
-70.75359344482422
 23
-9.783555030822754
 33
140.0
  0
3DFACE
  8
0
 10
-72.8158950805664
 20
-4.913432598114014
 30
140.0
 11
-72.81086730957031
 21
-5.076273441314697
 31
140.0
 12
-72.35320281982422
 22
-6.901174068450928
 32
140.0
 13
-72.35320281982422
 23
-6.901174068450928
 33
140.0
  0
3DFACE
  8
0
 10
-72.85606384277344
 20
-4.027914524078369
 30
140.0
 11
-72.84427642822266
 21
-4.295794486999512
 31
140.0
 12
-72.8173828125
 22
-4.750646591186523
 32
140.0
 13
-72.8173828125
 23
-4.750646591186523
 33
140.0
  0
3DFACE
  8
0
 10
-72.8173828125
 20
-4.750646591186523
 30
140.0
 11
-72.8158950805664
 21
-4.913432598114014
 31
140.0
 12
-72.35320281982422
 22
-6.901174068450928
 32
140.0
 13
-72.35320281982422
 23
-6.901174068450928
 33
140.0
  0
3DFACE
  8
0
 10
-72.35320281982422
 20
-6.901174068450928
 30
140.0
 11
-70.75359344482422
 21
-9.783555030822754
 31
140.0
 12
-68.0853042602539
 22
-12.102947235107422
 32
140.0
 13
-68.0853042602539
 23
-12.102947235107422
 33
140.0
  0
3DFACE
  8
0
 10
-68.0853042602539
 20
-12.102947235107422
 30
140.0
 11
-65.24604034423828
 21
-13.310544967651367
 31
140.0
 12
-64.27194213867188
 22
-13.663018226623535
 32
140.0
 13
-64.27194213867188
 23
-13.663018226623535
 33
140.0
  0
3DFACE
  8
0
 10
-64.27194213867188
 20
-13.663018226623535
 30
140.0
 11
-61.1065788269043
 21
-14.248964309692383
 31
140.0
 12
-59.41908645629883
 22
-14.226424217224121
 32
140.0
 13
-59.41908645629883
 23
-14.226424217224121
 33
140.0
  0
3DFACE
  8
0
 10
-59.41908645629883
 20
-14.226424217224121
 30
140.0
 11
-57.85812759399414
 21
-13.875332832336426
 31
140.0
 12
-57.07764434814453
 22
-13.619246482849121
 32
140.0
 13
-57.07764434814453
 23
-13.619246482849121
 33
140.0
  0
3DFACE
  8
0
 10
-56.29716873168945
 20
-13.274859428405762
 30
140.0
 11
-56.08873748779297
 21
-13.196907043457031
 31
140.0
 12
-55.87742614746094
 22
-13.09804630279541
 32
140.0
 13
-55.87742614746094
 23
-13.09804630279541
 33
140.0
  0
3DFACE
  8
0
 10
-59.41908645629883
 20
-14.226424217224121
 30
140.0
 11
-57.07764434814453
 21
-13.619246482849121
 31
140.0
 12
-56.29716873168945
 22
-13.274859428405762
 32
140.0
 13
-56.29716873168945
 23
-13.274859428405762
 33
140.0
  0
3DFACE
  8
0
 10
-68.0853042602539
 20
-12.102947235107422
 30
140.0
 11
-64.27194213867188
 21
-13.663018226623535
 31
140.0
 12
-59.41908645629883
 22
-14.226424217224121
 32
140.0
 13
-59.41908645629883
 23
-14.226424217224121
 33
140.0
  0
3DFACE
  8
0
 10
-72.8173828125
 20
-4.750646591186523
 30
140.0
 11
-72.35320281982422
 21
-6.901174068450928
 31
140.0
 12
-68.0853042602539
 22
-12.102947235107422
 32
140.0
 13
-68.0853042602539
 23
-12.102947235107422
 33
140.0
  0
3DFACE
  8
0
 10
-72.84342193603516
 20
-3.515316963195801
 30
140.0
 11
-72.85606384277344
 21
-4.027914524078369
 31
140.0
 12
-72.8173828125
 22
-4.750646591186523
 32
140.0
 13
-72.8173828125
 23
-4.750646591186523
 33
140.0
  0
3DFACE
  8
0
 10
-72.60978698730469
 20
-2.1174161434173584
 30
140.0
 11
-72.77916717529297
 21
-3.0354692935943604
 31
140.0
 12
-72.84342193603516
 22
-3.515316963195801
 32
140.0
 13
-72.84342193603516
 23
-3.515316963195801
 33
140.0
  0
3DFACE
  8
0
 10
-72.48438262939453
 20
-1.6671111583709717
 30
140.0
 11
-72.57012939453125
 21
-1.954359769821167
 31
140.0
 12
-72.60978698730469
 22
-2.1174161434173584
 32
140.0
 13
-72.60978698730469
 23
-2.1174161434173584
 33
140.0
  0
3DFACE
  8
0
 10
-72.02107238769531
 20
-0.39340299367904663
 30
140.0
 11
-72.27153015136719
 21
-1.0264015197753906
 31
140.0
 12
-72.48438262939453
 22
-1.6671111583709717
 32
140.0
 13
-72.48438262939453
 23
-1.6671111583709717
 33
140.0
  0
3DFACE
  8
0
 10
-71.62997436523438
 20
0.3870755434036255
 30
140.0
 11
-71.68199157714844
 21
0.30204516649246216
 31
140.0
 12
-72.02107238769531
 22
-0.39340299367904663
 32
140.0
 13
-72.02107238769531
 23
-0.39340299367904663
 33
140.0
  0
3DFACE
  8
0
 10
-70.81689453125
 20
1.443625569343567
 30
140.0
 11
-71.06615447998047
 21
1.1675539016723633
 31
140.0
 12
-71.62997436523438
 22
0.3870755434036255
 32
140.0
 13
-71.62997436523438
 23
0.3870755434036255
 33
140.0
  0
3DFACE
  8
0
 10
-70.0484390258789
 20
2.1923069953918457
 30
140.0
 11
-70.34578704833984
 21
1.9480323791503906
 31
140.0
 12
-70.81689453125
 22
1.443625569343567
 32
140.0
 13
-70.81689453125
 23
1.443625569343567
 33
140.0
  0
3DFACE
  8
0
 10
-69.30702209472656
 20
2.7701284885406494
 30
140.0
 11
-69.40889739990234
 21
2.6969845294952393
 31
140.0
 12
-69.52092742919922
 22
2.6050360202789307
 32
140.0
 13
-69.52092742919922
 23
2.6050360202789307
 33
140.0
  0
3DFACE
  8
0
 10
-69.52092742919922
 20
2.6050360202789307
 30
140.0
 11
-70.0484390258789
 21
2.1923069953918457
 31
140.0
 12
-70.81689453125
 22
1.443625569343567
 32
140.0
 13
-70.81689453125
 23
1.443625569343567
 33
140.0
  0
3DFACE
  8
0
 10
-70.81689453125
 20
1.443625569343567
 30
140.0
 11
-71.62997436523438
 21
0.3870755434036255
 31
140.0
 12
-72.02107238769531
 22
-0.39340299367904663
 32
140.0
 13
-72.02107238769531
 23
-0.39340299367904663
 33
140.0
  0
3DFACE
  8
0
 10
-72.02107238769531
 20
-0.39340299367904663
 30
140.0
 11
-72.48438262939453
 21
-1.6671111583709717
 31
140.0
 12
-72.60978698730469
 22
-2.1174161434173584
 32
140.0
 13
-72.60978698730469
 23
-2.1174161434173584
 33
140.0
  0
3DFACE
  8
0
 10
-72.60978698730469
 20
-2.1174161434173584
 30
140.0
 11
-72.84342193603516
 21
-3.515316963195801
 31
140.0
 12
-72.8173828125
 22
-4.750646591186523
 32
140.0
 13
-72.8173828125
 23
-4.750646591186523
 33
140.0
  0
3DFACE
  8
0
 10
-72.8173828125
 20
-4.750646591186523
 30
140.0
 11
-68.0853042602539
 21
-12.102947235107422
 31
140.0
 12
-59.41908645629883
 22
-14.226424217224121
 32
140.0
 13
-59.41908645629883
 23
-14.226424217224121
 33
140.0
  0
3DFACE
  8
0
 10
-59.41908645629883
 20
-14.226424217224121
 30
140.0
 11
-56.29716873168945
 21
-13.274859428405762
 31
140.0
 12
-55.87742614746094
 22
-13.09804630279541
 32
140.0
 13
-55.87742614746094
 23
-13.09804630279541
 33
140.0
  0
3DFACE
  8
0
 10
-55.87742614746094
 20
-13.09804630279541
 30
140.0
 11
-55.47693634033203
 21
-12.884724617004395
 31
140.0
 12
-55.30143356323242
 22
-12.78339958190918
 32
140.0
 13
-55.30143356323242
 23
-12.78339958190918
 33
140.0
  0
3DFACE
  8
0
 10
-55.30143356323242
 20
-12.78339958190918
 30
140.0
 11
-54.33717346191406
 21
-12.274312973022461
 31
140.0
 12
-53.75481033325195
 22
-11.861554145812988
 32
140.0
 13
-53.75481033325195
 23
-11.861554145812988
 33
140.0
  0
3DFACE
  8
0
 10
-53.75481033325195
 20
-11.861554145812988
 30
140.0
 11
-53.511722564697266
 21
-11.678590774536133
 31
140.0
 12
-52.8030891418457
 22
-11.083520889282227
 32
140.0
 13
-52.8030891418457
 23
-11.083520889282227
 33
140.0
  0
3DFACE
  8
0
 10
-52.32023239135742
 20
-10.65027904510498
 30
140.0
 11
-52.21150207519531
 21
-10.563316345214844
 31
140.0
 12
-52.1574821472168
 22
-10.509998321533203
 32
140.0
 13
-52.1574821472168
 23
-10.509998321533203
 33
140.0
  0
3DFACE
  8
0
 10
-53.75481033325195
 20
-11.861554145812988
 30
140.0
 11
-52.8030891418457
 21
-11.083520889282227
 31
140.0
 12
-52.32023239135742
 22
-10.65027904510498
 32
140.0
 13
-52.32023239135742
 23
-10.65027904510498
 33
140.0
  0
3DFACE
  8
0
 10
-55.87742614746094
 20
-13.09804630279541
 30
140.0
 11
-55.30143356323242
 21
-12.78339958190918
 31
140.0
 12
-53.75481033325195
 22
-11.861554145812988
 32
140.0
 13
-53.75481033325195
 23
-11.861554145812988
 33
140.0
  0
3DFACE
  8
0
 10
-72.8173828125
 20
-4.750646591186523
 30
140.0
 11
-59.41908645629883
 21
-14.226424217224121
 31
140.0
 12
-55.87742614746094
 22
-13.09804630279541
 32
140.0
 13
-55.87742614746094
 23
-13.09804630279541
 33
140.0
  0
3DFACE
  8
0
 10
-72.02107238769531
 20
-0.39340299367904663
 30
140.0
 11
-72.60978698730469
 21
-2.1174161434173584
 31
140.0
 12
-72.8173828125
 22
-4.750646591186523
 32
140.0
 13
-72.8173828125
 23
-4.750646591186523
 33
140.0
  0
3DFACE
  8
0
 10
-69.52092742919922
 20
2.6050360202789307
 30
140.0
 11
-70.81689453125
 21
1.443625569343567
 31
140.0
 12
-72.02107238769531
 22
-0.39340299367904663
 32
140.0
 13
-72.02107238769531
 23
-0.39340299367904663
 33
140.0
  0
3DFACE
  8
0
 10
-68.54426574707031
 20
3.276113510131836
 30
140.0
 11
-69.30702209472656
 21
2.7701284885406494
 31
140.0
 12
-69.52092742919922
 22
2.6050360202789307
 32
140.0
 13
-69.52092742919922
 23
2.6050360202789307
 33
140.0
  0
3DFACE
  8
0
 10
-67.21590423583984
 20
4.032832145690918
 30
140.0
 11
-68.2040023803711
 21
3.4933559894561768
 31
140.0
 12
-68.54426574707031
 22
3.276113510131836
 32
140.0
 13
-68.54426574707031
 23
3.276113510131836
 33
140.0
  0
3DFACE
  8
0
 10
-66.66041564941406
 20
4.306468963623047
 30
140.0
 11
-66.8070068359375
 21
4.241779327392578
 31
140.0
 12
-67.21590423583984
 22
4.032832145690918
 32
140.0
 13
-67.21590423583984
 23
4.032832145690918
 33
140.0
  0
3DFACE
  8
0
 10
-64.82020568847656
 20
5.004356861114502
 30
140.0
 11
-66.17324829101562
 21
4.505049705505371
 31
140.0
 12
-66.66041564941406
 22
4.306468963623047
 32
140.0
 13
-66.66041564941406
 23
4.306468963623047
 33
140.0
  0
3DFACE
  8
0
 10
-63.68509292602539
 20
5.315016746520996
 30
140.0
 11
-64.51921081542969
 21
5.0987067222595215
 31
140.0
 12
-64.82020568847656
 22
5.004356861114502
 32
140.0
 13
-64.82020568847656
 23
5.004356861114502
 33
140.0
  0
3DFACE
  8
0
 10
-62.54098892211914
 20
5.5329203605651855
 30
140.0
 11
-63.11304473876953
 21
5.4530348777771
 31
140.0
 12
-63.68509292602539
 22
5.315016746520996
 32
140.0
 13
-63.68509292602539
 23
5.315016746520996
 33
140.0
  0
3DFACE
  8
0
 10
-61.760520935058594
 20
5.640541076660156
 30
140.0
 11
-62.332550048828125
 21
5.573591709136963
 31
140.0
 12
-62.54098892211914
 22
5.5329203605651855
 32
140.0
 13
-62.54098892211914
 23
5.5329203605651855
 33
140.0
  0
3DFACE
  8
0
 10
-60.98004150390625
 20
5.694219589233398
 30
140.0
 11
-61.552093505859375
 21
5.669063091278076
 31
140.0
 12
-61.760520935058594
 22
5.640541076660156
 32
140.0
 13
-61.760520935058594
 23
5.640541076660156
 33
140.0
  0
3DFACE
  8
0
 10
-60.19955825805664
 20
5.702584743499756
 30
140.0
 11
-60.7716064453125
 21
5.711819648742676
 31
140.0
 12
-60.98004150390625
 22
5.694219589233398
 32
140.0
 13
-60.98004150390625
 23
5.694219589233398
 33
140.0
  0
3DFACE
  8
0
 10
-59.41908645629883
 20
5.663570404052734
 30
140.0
 11
-59.991127014160156
 21
5.70869779586792
 31
140.0
 12
-60.19955825805664
 22
5.702584743499756
 32
140.0
 13
-60.19955825805664
 23
5.702584743499756
 33
140.0
  0
3DFACE
  8
0
 10
-58.63860321044922
 20
5.573897361755371
 30
140.0
 11
-59.210655212402344
 21
5.657832622528076
 31
140.0
 12
-59.41908645629883
 22
5.663570404052734
 32
140.0
 13
-59.41908645629883
 23
5.663570404052734
 33
140.0
  0
3DFACE
  8
0
 10
-57.85812759399414
 20
5.455885410308838
 30
140.0
 11
-58.43016815185547
 21
5.556474685668945
 31
140.0
 12
-58.63860321044922
 22
5.573897361755371
 32
140.0
 13
-58.63860321044922
 23
5.573897361755371
 33
140.0
  0
3DFACE
  8
0
 10
-57.07764434814453
 20
5.290311813354492
 30
140.0
 11
-57.649696350097656
 21
5.426427841186523
 31
140.0
 12
-57.85812759399414
 22
5.455885410308838
 32
140.0
 13
-57.85812759399414
 23
5.455885410308838
 33
140.0
  0
3DFACE
  8
0
 10
-56.49711227416992
 20
5.120642185211182
 30
140.0
 11
-56.86920928955078
 21
5.253266334533691
 31
140.0
 12
-57.07764434814453
 22
5.290311813354492
 32
140.0
 13
-57.07764434814453
 23
5.290311813354492
 33
140.0
  0
3DFACE
  8
0
 10
-56.098304748535156
 20
4.988426685333252
 30
140.0
 11
-56.298248291015625
 21
5.067019939422607
 31
140.0
 12
-56.49711227416992
 22
5.120642185211182
 32
140.0
 13
-56.49711227416992
 23
5.120642185211182
 33
140.0
  0
3DFACE
  8
0
 10
-55.08175277709961
 20
4.549082279205322
 30
140.0
 11
-55.308258056640625
 21
4.660264015197754
 31
140.0
 12
-55.52626037597656
 22
4.745645523071289
 32
140.0
 13
-55.52626037597656
 23
4.745645523071289
 33
140.0
  0
3DFACE
  8
0
 10
-55.52626037597656
 20
4.745645523071289
 30
140.0
 11
-56.098304748535156
 21
4.988426685333252
 31
140.0
 12
-56.49711227416992
 22
5.120642185211182
 32
140.0
 13
-56.49711227416992
 23
5.120642185211182
 33
140.0
  0
3DFACE
  8
0
 10
-56.49711227416992
 20
5.120642185211182
 30
140.0
 11
-57.07764434814453
 21
5.290311813354492
 31
140.0
 12
-57.85812759399414
 22
5.455885410308838
 32
140.0
 13
-57.85812759399414
 23
5.455885410308838
 33
140.0
  0
3DFACE
  8
0
 10
-57.85812759399414
 20
5.455885410308838
 30
140.0
 11
-58.63860321044922
 21
5.573897361755371
 31
140.0
 12
-59.41908645629883
 22
5.663570404052734
 32
140.0
 13
-59.41908645629883
 23
5.663570404052734
 33
140.0
  0
3DFACE
  8
0
 10
-59.41908645629883
 20
5.663570404052734
 30
140.0
 11
-60.19955825805664
 21
5.702584743499756
 31
140.0
 12
-60.98004150390625
 22
5.694219589233398
 32
140.0
 13
-60.98004150390625
 23
5.694219589233398
 33
140.0
  0
3DFACE
  8
0
 10
-60.98004150390625
 20
5.694219589233398
 30
140.0
 11
-61.760520935058594
 21
5.640541076660156
 31
140.0
 12
-62.54098892211914
 22
5.5329203605651855
 32
140.0
 13
-62.54098892211914
 23
5.5329203605651855
 33
140.0
  0
3DFACE
  8
0
 10
-62.54098892211914
 20
5.5329203605651855
 30
140.0
 11
-63.68509292602539
 21
5.315016746520996
 31
140.0
 12
-64.82020568847656
 22
5.004356861114502
 32
140.0
 13
-64.82020568847656
 23
5.004356861114502
 33
140.0
  0
3DFACE
  8
0
 10
-64.82020568847656
 20
5.004356861114502
 30
140.0
 11
-66.66041564941406
 21
4.306468963623047
 31
140.0
 12
-67.21590423583984
 22
4.032832145690918
 32
140.0
 13
-67.21590423583984
 23
4.032832145690918
 33
140.0
  0
3DFACE
  8
0
 10
-67.21590423583984
 20
4.032832145690918
 30
140.0
 11
-68.54426574707031
 21
3.276113510131836
 31
140.0
 12
-69.52092742919922
 22
2.6050360202789307
 32
140.0
 13
-69.52092742919922
 23
2.6050360202789307
 33
140.0
  0
3DFACE
  8
0
 10
-69.52092742919922
 20
2.6050360202789307
 30
140.0
 11
-72.02107238769531
 21
-0.39340299367904663
 31
140.0
 12
-72.8173828125
 22
-4.750646591186523
 32
140.0
 13
-72.8173828125
 23
-4.750646591186523
 33
140.0
  0
3DFACE
  8
0
 10
-72.8173828125
 20
-4.750646591186523
 30
140.0
 11
-55.87742614746094
 21
-13.09804630279541
 31
140.0
 12
-53.75481033325195
 22
-11.861554145812988
 32
140.0
 13
-53.75481033325195
 23
-11.861554145812988
 33
140.0
  0
3DFACE
  8
0
 10
-53.75481033325195
 20
-11.861554145812988
 30
140.0
 11
-52.32023239135742
 21
-10.65027904510498
 31
140.0
 12
-52.1574821472168
 22
-10.509998321533203
 32
140.0
 13
-52.1574821472168
 23
-10.509998321533203
 33
140.0
  0
3DFACE
  8
0
 10
-52.1574821472168
 20
-10.509998321533203
 30
140.0
 11
-51.4222412109375
 21
-9.759143829345703
 31
140.0
 12
-51.308353424072266
 22
-9.619829177856445
 32
140.0
 13
-51.308353424072266
 23
-9.619829177856445
 33
140.0
  0
3DFACE
  8
0
 10
-51.308353424072266
 20
-9.619829177856445
 30
140.0
 11
-50.82604217529297
 21
-8.97866439819336
 31
140.0
 12
-50.355674743652344
 22
-8.198186874389648
 32
140.0
 13
-50.355674743652344
 23
-8.198186874389648
 33
140.0
  0
3DFACE
  8
0
 10
-50.088661193847656
 20
-7.62614107131958
 30
140.0
 11
-49.97011184692383
 21
-7.417708396911621
 31
140.0
 12
-49.84490966796875
 22
-7.040165424346924
 32
140.0
 13
-49.84490966796875
 23
-7.040165424346924
 33
140.0
  0
3DFACE
  8
0
 10
-51.308353424072266
 20
-9.619829177856445
 30
140.0
 11
-50.355674743652344
 21
-8.198186874389648
 31
140.0
 12
-50.088661193847656
 22
-7.62614107131958
 32
140.0
 13
-50.088661193847656
 23
-7.62614107131958
 33
140.0
  0
3DFACE
  8
0
 10
-53.75481033325195
 20
-11.861554145812988
 30
140.0
 11
-52.1574821472168
 21
-10.509998321533203
 31
140.0
 12
-51.308353424072266
 22
-9.619829177856445
 32
140.0
 13
-51.308353424072266
 23
-9.619829177856445
 33
140.0
  0
3DFACE
  8
0
 10
-69.52092742919922
 20
2.6050360202789307
 30
140.0
 11
-72.8173828125
 21
-4.750646591186523
 31
140.0
 12
-53.75481033325195
 22
-11.861554145812988
 32
140.0
 13
-53.75481033325195
 23
-11.861554145812988
 33
140.0
  0
3DFACE
  8
0
 10
-64.82020568847656
 20
5.004356861114502
 30
140.0
 11
-67.21590423583984
 21
4.032832145690918
 31
140.0
 12
-69.52092742919922
 22
2.6050360202789307
 32
140.0
 13
-69.52092742919922
 23
2.6050360202789307
 33
140.0
  0
3DFACE
  8
0
 10
-60.98004150390625
 20
5.694219589233398
 30
140.0
 11
-62.54098892211914
 21
5.5329203605651855
 31
140.0
 12
-64.82020568847656
 22
5.004356861114502
 32
140.0
 13
-64.82020568847656
 23
5.004356861114502
 33
140.0
  0
3DFACE
  8
0
 10
-57.85812759399414
 20
5.455885410308838
 30
140.0
 11
-59.41908645629883
 21
5.663570404052734
 31
140.0
 12
-60.98004150390625
 22
5.694219589233398
 32
140.0
 13
-60.98004150390625
 23
5.694219589233398
 33
140.0
  0
3DFACE
  8
0
 10
-55.52626037597656
 20
4.745645523071289
 30
140.0
 11
-56.49711227416992
 21
5.120642185211182
 31
140.0
 12
-57.85812759399414
 22
5.455885410308838
 32
140.0
 13
-57.85812759399414
 23
5.455885410308838
 33
140.0
  0
3DFACE
  8
0
 10
-54.56513977050781
 20
4.25994348526001
 30
140.0
 11
-55.08175277709961
 21
4.549082279205322
 31
140.0
 12
-55.52626037597656
 22
4.745645523071289
 32
140.0
 13
-55.52626037597656
 23
4.745645523071289
 33
140.0
  0
3DFACE
  8
0
 10
-53.49747848510742
 20
3.5388917922973633
 30
140.0
 11
-54.374778747558594
 21
4.147789001464844
 31
140.0
 12
-54.56513977050781
 22
4.25994348526001
 32
140.0
 13
-54.56513977050781
 23
4.25994348526001
 33
140.0
  0
3DFACE
  8
0
 10
-52.18097686767578
 20
2.3851265907287598
 30
140.0
 11
-52.644813537597656
 21
2.8286590576171875
 31
140.0
 12
-52.884193420410156
 22
3.0135185718536377
 32
140.0
 13
-52.884193420410156
 23
3.0135185718536377
 33
140.0
  0
3DFACE
  8
0
 10
-52.884193420410156
 20
3.0135185718536377
 30
140.0
 11
-53.49747848510742
 21
3.5388917922973633
 31
140.0
 12
-54.56513977050781
 22
4.25994348526001
 32
140.0
 13
-54.56513977050781
 23
4.25994348526001
 33
140.0
  0
3DFACE
  8
0
 10
-54.56513977050781
 20
4.25994348526001
 30
140.0
 11
-55.52626037597656
 21
4.745645523071289
 31
140.0
 12
-57.85812759399414
 22
5.455885410308838
 32
140.0
 13
-57.85812759399414
 23
5.455885410308838
 33
140.0
  0
3DFACE
  8
0
 10
-57.85812759399414
 20
5.455885410308838
 30
140.0
 11
-60.98004150390625
 21
5.694219589233398
 31
140.0
 12
-64.82020568847656
 22
5.004356861114502
 32
140.0
 13
-64.82020568847656
 23
5.004356861114502
 33
140.0
  0
3DFACE
  8
0
 10
-64.82020568847656
 20
5.004356861114502
 30
140.0
 11
-69.52092742919922
 21
2.6050360202789307
 31
140.0
 12
-53.75481033325195
 22
-11.861554145812988
 32
140.0
 13
-53.75481033325195
 23
-11.861554145812988
 33
140.0
  0
3DFACE
  8
0
 10
-53.75481033325195
 20
-11.861554145812988
 30
140.0
 11
-51.308353424072266
 21
-9.619829177856445
 31
140.0
 12
-50.088661193847656
 22
-7.62614107131958
 32
140.0
 13
-50.088661193847656
 23
-7.62614107131958
 33
140.0
  0
3DFACE
  8
0
 10
-50.088661193847656
 20
-7.62614107131958
 30
140.0
 11
-49.84490966796875
 21
-7.040165424346924
 31
140.0
 12
-49.78200149536133
 22
-6.8201117515563965
 32
140.0
 13
-49.78200149536133
 23
-6.8201117515563965
 33
140.0
  0
3DFACE
  8
0
 10
-49.78200149536133
 20
-6.8201117515563965
 30
140.0
 11
-49.71113204956055
 21
-6.637230396270752
 31
140.0
 12
-49.54392623901367
 22
-6.1186065673828125
 32
140.0
 13
-49.54392623901367
 23
-6.1186065673828125
 33
140.0
  0
3DFACE
  8
0
 10
-49.54392623901367
 20
-6.1186065673828125
 30
140.0
 11
-49.485294342041016
 21
-5.841066360473633
 31
140.0
 12
-49.419097900390625
 22
-5.267950534820557
 32
140.0
 13
-49.419097900390625
 23
-5.267950534820557
 33
140.0
  0
3DFACE
  8
0
 10
-49.419097900390625
 20
-5.267950534820557
 30
140.0
 11
-49.37190246582031
 21
-5.076273441314697
 31
140.0
 12
-49.262969970703125
 22
-4.295794486999512
 32
140.0
 13
-49.262969970703125
 23
-4.295794486999512
 33
140.0
  0
3DFACE
  8
0
 10
-49.29218673706055
 20
-3.778280258178711
 30
140.0
 11
-49.298770904541016
 21
-3.515316963195801
 31
140.0
 12
-49.321712493896484
 22
-3.274442434310913
 32
140.0
 13
-49.321712493896484
 23
-3.274442434310913
 33
140.0
  0
3DFACE
  8
0
 10
-49.419097900390625
 20
-5.267950534820557
 30
140.0
 11
-49.262969970703125
 21
-4.295794486999512
 31
140.0
 12
-49.29218673706055
 22
-3.778280258178711
 32
140.0
 13
-49.29218673706055
 23
-3.778280258178711
 33
140.0
  0
3DFACE
  8
0
 10
-49.78200149536133
 20
-6.8201117515563965
 30
140.0
 11
-49.54392623901367
 21
-6.1186065673828125
 31
140.0
 12
-49.419097900390625
 22
-5.267950534820557
 32
140.0
 13
-49.419097900390625
 23
-5.267950534820557
 33
140.0
  0
3DFACE
  8
0
 10
-53.75481033325195
 20
-11.861554145812988
 30
140.0
 11
-50.088661193847656
 21
-7.62614107131958
 31
140.0
 12
-49.78200149536133
 22
-6.8201117515563965
 32
140.0
 13
-49.78200149536133
 23
-6.8201117515563965
 33
140.0
  0
3DFACE
  8
0
 10
-57.85812759399414
 20
5.455885410308838
 30
140.0
 11
-64.82020568847656
 21
5.004356861114502
 31
140.0
 12
-53.75481033325195
 22
-11.861554145812988
 32
140.0
 13
-53.75481033325195
 23
-11.861554145812988
 33
140.0
  0
3DFACE
  8
0
 10
-52.884193420410156
 20
3.0135185718536377
 30
140.0
 11
-54.56513977050781
 21
4.25994348526001
 31
140.0
 12
-57.85812759399414
 22
5.455885410308838
 32
140.0
 13
-57.85812759399414
 23
5.455885410308838
 33
140.0
  0
3DFACE
  8
0
 10
-51.72529983520508
 20
1.9480323791503906
 30
140.0
 11
-51.940608978271484
 21
2.172482967376709
 31
140.0
 12
-52.18097686767578
 22
2.3851265907287598
 32
140.0
 13
-52.18097686767578
 23
2.3851265907287598
 33
140.0
  0
3DFACE
  8
0
 10
-52.18097686767578
 20
2.3851265907287598
 30
140.0
 11
-52.884193420410156
 21
3.0135185718536377
 31
140.0
 12
-57.85812759399414
 22
5.455885410308838
 32
140.0
 13
-57.85812759399414
 23
5.455885410308838
 33
140.0
  0
3DFACE
  8
0
 10
-57.85812759399414
 20
5.455885410308838
 30
140.0
 11
-53.75481033325195
 21
-11.861554145812988
 31
140.0
 12
-49.78200149536133
 22
-6.8201117515563965
 32
140.0
 13
-49.78200149536133
 23
-6.8201117515563965
 33
140.0
  0
3DFACE
  8
0
 10
-49.78200149536133
 20
-6.8201117515563965
 30
140.0
 11
-49.419097900390625
 21
-5.267950534820557
 31
140.0
 12
-49.29218673706055
 22
-3.778280258178711
 32
140.0
 13
-49.29218673706055
 23
-3.778280258178711
 33
140.0
  0
3DFACE
  8
0
 10
-49.29218673706055
 20
-3.778280258178711
 30
140.0
 11
-49.321712493896484
 21
-3.274442434310913
 31
140.0
 12
-49.35788345336914
 22
-2.7348380088806152
 32
140.0
 13
-49.35788345336914
 23
-2.7348380088806152
 33
140.0
  0
3DFACE
  8
0
 10
-49.35788345336914
 20
-2.7348380088806152
 30
140.0
 11
-49.44559860229492
 21
-2.337763786315918
 31
140.0
 12
-49.53921127319336
 22
-1.9561935663223267
 32
140.0
 13
-49.53921127319336
 23
-1.9561935663223267
 33
140.0
  0
3DFACE
  8
0
 10
-49.79800033569336
 20
-1.2211846113204956
 30
140.0
 11
-49.81289291381836
 21
-1.1738810539245605
 31
140.0
 12
-49.82179260253906
 22
-1.1522656679153442
 32
140.0
 13
-49.82179260253906
 23
-1.1522656679153442
 33
140.0
  0
3DFACE
  8
0
 10
-49.35788345336914
 20
-2.7348380088806152
 30
140.0
 11
-49.53921127319336
 21
-1.9561935663223267
 31
140.0
 12
-49.79800033569336
 22
-1.2211846113204956
 32
140.0
 13
-49.79800033569336
 23
-1.2211846113204956
 33
140.0
  0
3DFACE
  8
0
 10
-49.78200149536133
 20
-6.8201117515563965
 30
140.0
 11
-49.29218673706055
 21
-3.778280258178711
 31
140.0
 12
-49.35788345336914
 22
-2.7348380088806152
 32
140.0
 13
-49.35788345336914
 23
-2.7348380088806152
 33
140.0
  0
3DFACE
  8
0
 10
-52.18097686767578
 20
2.3851265907287598
 30
140.0
 11
-57.85812759399414
 21
5.455885410308838
 31
140.0
 12
-49.78200149536133
 22
-6.8201117515563965
 32
140.0
 13
-49.78200149536133
 23
-6.8201117515563965
 33
140.0
  0
3DFACE
  8
0
 10
-51.363407135009766
 20
1.431481122970581
 30
140.0
 11
-51.72529983520508
 21
1.9480323791503906
 31
140.0
 12
-52.18097686767578
 22
2.3851265907287598
 32
140.0
 13
-52.18097686767578
 23
2.3851265907287598
 33
140.0
  0
3DFACE
  8
0
 10
-50.58306121826172
 20
0.3870755434036255
 30
140.0
 11
-50.73088455200195
 21
0.5884667634963989
 31
140.0
 12
-50.89706039428711
 22
0.8039410710334778
 32
140.0
 13
-50.89706039428711
 23
0.8039410710334778
 33
140.0
  0
3DFACE
  8
0
 10
-50.89706039428711
 20
0.8039410710334778
 30
140.0
 11
-51.363407135009766
 21
1.431481122970581
 31
140.0
 12
-52.18097686767578
 22
2.3851265907287598
 32
140.0
 13
-52.18097686767578
 23
2.3851265907287598
 33
140.0
  0
3DFACE
  8
0
 10
-52.18097686767578
 20
2.3851265907287598
 30
140.0
 11
-49.78200149536133
 21
-6.8201117515563965
 31
140.0
 12
-49.35788345336914
 22
-2.7348380088806152
 32
140.0
 13
-49.35788345336914
 23
-2.7348380088806152
 33
140.0
  0
3DFACE
  8
0
 10
-49.35788345336914
 20
-2.7348380088806152
 30
140.0
 11
-49.79800033569336
 21
-1.2211846113204956
 31
140.0
 12
-49.82179260253906
 22
-1.1522656679153442
 32
140.0
 13
-49.82179260253906
 23
-1.1522656679153442
 33
140.0
  0
3DFACE
  8
0
 10
-49.82179260253906
 20
-1.1522656679153442
 30
140.0
 11
-50.45195007324219
 21
0.14663584530353546
 31
140.0
 12
-50.58306121826172
 22
0.3870755434036255
 32
140.0
 13
-50.58306121826172
 23
0.3870755434036255
 33
140.0
  0
3DFACE
  8
0
 10
-50.58306121826172
 20
0.3870755434036255
 30
140.0
 11
-50.89706039428711
 21
0.8039410710334778
 31
140.0
 12
-52.18097686767578
 22
2.3851265907287598
 32
140.0
 13
-52.18097686767578
 23
2.3851265907287598
 33
140.0
  0
3DFACE
  8
0
 10
-52.18097686767578
 20
2.3851265907287598
 30
140.0
 11
-49.35788345336914
 21
-2.7348380088806152
 31
140.0
 12
-49.82179260253906
 22
-1.1522656679153442
 32
140.0
 13
-49.82179260253906
 23
-1.1522656679153442
 33
140.0
  0
3DFACE
  8
0
 10
-49.82179260253906
 20
-1.1522656679153442
 30
140.0
 11
-50.58306121826172
 21
0.3870755434036255
 31
140.0
 12
-52.18097686767578
 22
2.3851265907287598
 32
140.0
 13
-52.18097686767578
 23
2.3851265907287598
 33
140.0
  0
3DFACE
  8
0
 10
-55.097999572753906
 20
47.12334442138672
 30
140.0
 11
-55.09591293334961
 21
47.10160446166992
 31
140.0
 12
-55.08979034423828
 22
47.06702423095703
 32
140.0
 13
-55.08979034423828
 23
47.06702423095703
 33
140.0
  0
3DFACE
  8
0
 10
-55.08979034423828
 20
47.06702423095703
 30
140.0
 11
-55.011173248291016
 21
46.29705047607422
 31
140.0
 12
-54.92699432373047
 22
45.95326614379883
 32
140.0
 13
-54.92699432373047
 23
45.95326614379883
 33
140.0
  0
3DFACE
  8
0
 10
-54.92699432373047
 20
45.95326614379883
 30
140.0
 11
-54.83841323852539
 21
45.49249267578125
 31
140.0
 12
-54.57380676269531
 22
44.63528823852539
 32
140.0
 13
-54.57380676269531
 23
44.63528823852539
 33
140.0
  0
3DFACE
  8
0
 10
-54.57380676269531
 20
44.63528823852539
 30
140.0
 11
-54.55967712402344
 21
44.59613037109375
 31
140.0
 12
-54.046607971191406
 22
43.48396682739258
 32
140.0
 13
-54.046607971191406
 23
43.48396682739258
 33
140.0
  0
3DFACE
  8
0
 10
-54.046607971191406
 20
43.48396682739258
 30
140.0
 11
-53.836368560791016
 21
43.09873962402344
 31
140.0
 12
-53.3969612121582
 22
42.4218864440918
 32
140.0
 13
-53.3969612121582
 23
42.4218864440918
 33
140.0
  0
3DFACE
  8
0
 10
-53.3969612121582
 20
42.4218864440918
 30
140.0
 11
-53.32579040527344
 21
42.318878173828125
 31
140.0
 12
-53.29338073730469
 22
42.2756462097168
 32
140.0
 13
-53.29338073730469
 23
42.2756462097168
 33
140.0
  0
3DFACE
  8
0
 10
-53.19105911254883
 20
42.146820068359375
 30
140.0
 11
-52.69694519042969
 21
41.50343704223633
 31
140.0
 12
-52.44021987915039
 22
41.20759963989258
 32
140.0
 13
-52.44021987915039
 23
41.20759963989258
 33
140.0
  0
3DFACE
  8
0
 10
-53.3969612121582
 20
42.4218864440918
 30
140.0
 11
-53.29338073730469
 21
42.2756462097168
 31
140.0
 12
-53.19105911254883
 22
42.146820068359375
 32
140.0
 13
-53.19105911254883
 23
42.146820068359375
 33
140.0
  0
3DFACE
  8
0
 10
-54.57380676269531
 20
44.63528823852539
 30
140.0
 11
-54.046607971191406
 21
43.48396682739258
 31
140.0
 12
-53.3969612121582
 22
42.4218864440918
 32
140.0
 13
-53.3969612121582
 23
42.4218864440918
 33
140.0
  0
3DFACE
  8
0
 10
-55.08979034423828
 20
47.06702423095703
 30
140.0
 11
-54.92699432373047
 21
45.95326614379883
 31
140.0
 12
-54.57380676269531
 22
44.63528823852539
 32
140.0
 13
-54.57380676269531
 23
44.63528823852539
 33
140.0
  0
3DFACE
  8
0
 10
-55.102333068847656
 20
47.2113037109375
 30
140.0
 11
-55.097999572753906
 21
47.12334442138672
 31
140.0
 12
-55.08979034423828
 22
47.06702423095703
 32
140.0
 13
-55.08979034423828
 23
47.06702423095703
 33
140.0
  0
3DFACE
  8
0
 10
-55.07393264770508
 20
48.71070098876953
 30
140.0
 11
-55.122928619384766
 21
47.90614318847656
 31
140.0
 12
-55.102333068847656
 22
47.2113037109375
 32
140.0
 13
-55.102333068847656
 23
47.2113037109375
 33
140.0
  0
3DFACE
  8
0
 10
-54.8812141418457
 20
50.09865951538086
 30
140.0
 11
-54.97937774658203
 21
49.515254974365234
 31
140.0
 12
-55.001468658447266
 22
49.242393493652344
 32
140.0
 13
-55.001468658447266
 23
49.242393493652344
 33
140.0
  0
3DFACE
  8
0
 10
-55.001468658447266
 20
49.242393493652344
 30
140.0
 11
-55.07393264770508
 21
48.71070098876953
 31
140.0
 12
-55.102333068847656
 22
47.2113037109375
 32
140.0
 13
-55.102333068847656
 23
47.2113037109375
 33
140.0
  0
3DFACE
  8
0
 10
-55.102333068847656
 20
47.2113037109375
 30
140.0
 11
-55.08979034423828
 21
47.06702423095703
 31
140.0
 12
-54.57380676269531
 22
44.63528823852539
 32
140.0
 13
-54.57380676269531
 23
44.63528823852539
 33
140.0
  0
3DFACE
  8
0
 10
-54.57380676269531
 20
44.63528823852539
 30
140.0
 11
-53.3969612121582
 21
42.4218864440918
 31
140.0
 12
-53.19105911254883
 22
42.146820068359375
 32
140.0
 13
-53.19105911254883
 23
42.146820068359375
 33
140.0
  0
3DFACE
  8
0
 10
-53.19105911254883
 20
42.146820068359375
 30
140.0
 11
-52.44021987915039
 21
41.20759963989258
 31
140.0
 12
-52.18345642089844
 22
40.983951568603516
 32
140.0
 13
-52.18345642089844
 23
40.983951568603516
 33
140.0
  0
3DFACE
  8
0
 10
-51.45393371582031
 20
40.368377685546875
 30
140.0
 11
-51.28582763671875
 21
40.219173431396484
 31
140.0
 12
-50.714298248291016
 22
39.75531768798828
 32
140.0
 13
-50.714298248291016
 23
39.75531768798828
 33
140.0
  0
3DFACE
  8
0
 10
-53.19105911254883
 20
42.146820068359375
 30
140.0
 11
-52.18345642089844
 21
40.983951568603516
 31
140.0
 12
-51.45393371582031
 22
40.368377685546875
 32
140.0
 13
-51.45393371582031
 23
40.368377685546875
 33
140.0
  0
3DFACE
  8
0
 10
-55.102333068847656
 20
47.2113037109375
 30
140.0
 11
-54.57380676269531
 21
44.63528823852539
 31
140.0
 12
-53.19105911254883
 22
42.146820068359375
 32
140.0
 13
-53.19105911254883
 23
42.146820068359375
 33
140.0
  0
3DFACE
  8
0
 10
-54.8812141418457
 20
50.09865951538086
 30
140.0
 11
-55.001468658447266
 21
49.242393493652344
 31
140.0
 12
-55.102333068847656
 22
47.2113037109375
 32
140.0
 13
-55.102333068847656
 23
47.2113037109375
 33
140.0
  0
3DFACE
  8
0
 10
-54.76074981689453
 20
50.574764251708984
 30
140.0
 11
-54.83134841918945
 21
50.319801330566406
 31
140.0
 12
-54.8812141418457
 22
50.09865951538086
 32
140.0
 13
-54.8812141418457
 23
50.09865951538086
 33
140.0
  0
3DFACE
  8
0
 10
-54.26219940185547
 20
51.95755386352539
 30
140.0
 11
-54.518436431884766
 21
51.299739837646484
 31
140.0
 12
-54.76074981689453
 22
50.574764251708984
 32
140.0
 13
-54.76074981689453
 23
50.574764251708984
 33
140.0
  0
3DFACE
  8
0
 10
-54.19355392456055
 20
52.07760238647461
 30
140.0
 11
-54.2486686706543
 21
51.98283004760742
 31
140.0
 12
-54.26219940185547
 22
51.95755386352539
 32
140.0
 13
-54.26219940185547
 23
51.95755386352539
 33
140.0
  0
3DFACE
  8
0
 10
-53.52982711791992
 20
53.17884826660156
 30
140.0
 11
-53.825103759765625
 21
52.73345947265625
 31
140.0
 12
-54.19355392456055
 22
52.07760238647461
 32
140.0
 13
-54.19355392456055
 23
52.07760238647461
 33
140.0
  0
3DFACE
  8
0
 10
-52.785945892333984
 20
54.14861297607422
 30
140.0
 11
-53.2675666809082
 21
53.534976959228516
 31
140.0
 12
-53.52982711791992
 22
53.17884826660156
 32
140.0
 13
-53.52982711791992
 23
53.17884826660156
 33
140.0
  0
3DFACE
  8
0
 10
-52.61457443237305
 20
54.342559814453125
 30
140.0
 11
-52.6977424621582
 21
54.25382995605469
 31
140.0
 12
-52.785945892333984
 22
54.14861297607422
 32
140.0
 13
-52.785945892333984
 23
54.14861297607422
 33
140.0
  0
3DFACE
  8
0
 10
-52.02490234375
 20
54.92509078979492
 30
140.0
 11
-52.312904357910156
 21
54.646018981933594
 31
140.0
 12
-52.61457443237305
 22
54.342559814453125
 32
140.0
 13
-52.61457443237305
 23
54.342559814453125
 33
140.0
  0
3DFACE
  8
0
 10
-50.76234817504883
 20
55.969600677490234
 30
140.0
 11
-51.25679397583008
 21
55.599761962890625
 31
140.0
 12
-52.02490234375
 22
54.92509078979492
 32
140.0
 13
-52.02490234375
 23
54.92509078979492
 33
140.0
  0
3DFACE
  8
0
 10
-49.646461486816406
 20
56.70000076293945
 30
140.0
 11
-49.701873779296875
 21
56.666561126708984
 31
140.0
 12
-50.76234817504883
 22
55.969600677490234
 32
140.0
 13
-50.76234817504883
 23
55.969600677490234
 33
140.0
  0
3DFACE
  8
0
 10
-48.516990661621094
 20
57.180301666259766
 30
140.0
 11
-48.91093444824219
 21
57.02223587036133
 31
140.0
 12
-49.646461486816406
 22
56.70000076293945
 32
140.0
 13
-49.646461486816406
 23
56.70000076293945
 33
140.0
  0
3DFACE
  8
0
 10
-47.44685363769531
 20
57.46798324584961
 30
140.0
 11
-48.11587142944336
 21
57.306724548339844
 31
140.0
 12
-48.516990661621094
 22
57.180301666259766
 32
140.0
 13
-48.516990661621094
 23
57.180301666259766
 33
140.0
  0
3DFACE
  8
0
 10
-47.23435974121094
 20
57.52433776855469
 30
140.0
 11
-47.31513595581055
 21
57.50920867919922
 31
140.0
 12
-47.44685363769531
 22
57.46798324584961
 32
140.0
 13
-47.44685363769531
 23
57.46798324584961
 33
140.0
  0
3DFACE
  8
0
 10
-45.876853942871094
 20
57.68456268310547
 30
140.0
 11
-47.17655563354492
 21
57.53272247314453
 31
140.0
 12
-47.23435974121094
 22
57.52433776855469
 32
140.0
 13
-47.23435974121094
 23
57.52433776855469
 33
140.0
  0
3DFACE
  8
0
 10
-44.0841178894043
 20
57.53623962402344
 30
140.0
 11
-44.879398345947266
 21
57.63141632080078
 31
140.0
 12
-45.876853942871094
 22
57.68456268310547
 32
140.0
 13
-45.876853942871094
 23
57.68456268310547
 33
140.0
  0
3DFACE
  8
0
 10
-44.0078239440918
 20
57.522605895996094
 30
140.0
 11
-44.066978454589844
 21
57.534793853759766
 31
140.0
 12
-44.0841178894043
 22
57.53623962402344
 32
140.0
 13
-44.0841178894043
 23
57.53623962402344
 33
140.0
  0
3DFACE
  8
0
 10
-42.55335235595703
 20
57.16315460205078
 30
140.0
 11
-42.8255500793457
 21
57.253604888916016
 31
140.0
 12
-44.0078239440918
 22
57.522605895996094
 32
140.0
 13
-44.0078239440918
 23
57.522605895996094
 33
140.0
  0
3DFACE
  8
0
 10
-41.56528854370117
 20
56.796199798583984
 30
140.0
 11
-41.61910629272461
 21
56.82006072998047
 31
140.0
 12
-42.55335235595703
 22
57.16315460205078
 32
140.0
 13
-42.55335235595703
 23
57.16315460205078
 33
140.0
  0
3DFACE
  8
0
 10
-40.01165771484375
 20
55.91651153564453
 30
140.0
 11
-40.78318786621094
 21
56.38591384887695
 31
140.0
 12
-41.56528854370117
 22
56.796199798583984
 32
140.0
 13
-41.56528854370117
 23
56.796199798583984
 33
140.0
  0
3DFACE
  8
0
 10
-39.244441986083984
 20
55.353759765625
 30
140.0
 11
-39.866817474365234
 21
55.834468841552734
 31
140.0
 12
-40.01165771484375
 22
55.91651153564453
 32
140.0
 13
-40.01165771484375
 23
55.91651153564453
 33
140.0
  0
3DFACE
  8
0
 10
-38.6838264465332
 20
54.866756439208984
 30
140.0
 11
-38.99760437011719
 21
55.15633773803711
 31
140.0
 12
-39.244441986083984
 22
55.353759765625
 32
140.0
 13
-39.244441986083984
 23
55.353759765625
 33
140.0
  0
3DFACE
  8
0
 10
-37.61188507080078
 20
53.63383865356445
 30
140.0
 11
-38.17497253417969
 21
54.32807159423828
 31
140.0
 12
-38.6838264465332
 22
54.866756439208984
 32
140.0
 13
-38.6838264465332
 23
54.866756439208984
 33
140.0
  0
3DFACE
  8
0
 10
-37.00209045410156
 20
52.76599884033203
 30
140.0
 11
-37.234683990478516
 21
53.11544418334961
 31
140.0
 12
-37.61188507080078
 22
53.63383865356445
 32
140.0
 13
-37.61188507080078
 23
53.63383865356445
 33
140.0
  0
3DFACE
  8
0
 10
-36.88690948486328
 20
52.5713005065918
 30
140.0
 11
-36.94504165649414
 21
52.68571472167969
 31
140.0
 12
-37.00209045410156
 22
52.76599884033203
 32
140.0
 13
-37.00209045410156
 23
52.76599884033203
 33
140.0
  0
3DFACE
  8
0
 10
-36.28290557861328
 20
51.37259292602539
 30
140.0
 11
-36.430728912353516
 21
51.72825241088867
 31
140.0
 12
-36.550594329833984
 22
51.92890930175781
 32
140.0
 13
-36.550594329833984
 23
51.92890930175781
 33
140.0
  0
3DFACE
  8
0
 10
-36.550594329833984
 20
51.92890930175781
 30
140.0
 11
-36.88690948486328
 21
52.5713005065918
 31
140.0
 12
-37.00209045410156
 22
52.76599884033203
 32
140.0
 13
-37.00209045410156
 23
52.76599884033203
 33
140.0
  0
3DFACE
  8
0
 10
-37.00209045410156
 20
52.76599884033203
 30
140.0
 11
-37.61188507080078
 21
53.63383865356445
 31
140.0
 12
-38.6838264465332
 22
54.866756439208984
 32
140.0
 13
-38.6838264465332
 23
54.866756439208984
 33
140.0
  0
3DFACE
  8
0
 10
-38.6838264465332
 20
54.866756439208984
 30
140.0
 11
-39.244441986083984
 21
55.353759765625
 31
140.0
 12
-40.01165771484375
 22
55.91651153564453
 32
140.0
 13
-40.01165771484375
 23
55.91651153564453
 33
140.0
  0
3DFACE
  8
0
 10
-40.01165771484375
 20
55.91651153564453
 30
140.0
 11
-41.56528854370117
 21
56.796199798583984
 31
140.0
 12
-42.55335235595703
 22
57.16315460205078
 32
140.0
 13
-42.55335235595703
 23
57.16315460205078
 33
140.0
  0
3DFACE
  8
0
 10
-42.55335235595703
 20
57.16315460205078
 30
140.0
 11
-44.0078239440918
 21
57.522605895996094
 31
140.0
 12
-44.0841178894043
 22
57.53623962402344
 32
140.0
 13
-44.0841178894043
 23
57.53623962402344
 33
140.0
  0
3DFACE
  8
0
 10
-44.0841178894043
 20
57.53623962402344
 30
140.0
 11
-45.876853942871094
 21
57.68456268310547
 31
140.0
 12
-47.23435974121094
 22
57.52433776855469
 32
140.0
 13
-47.23435974121094
 23
57.52433776855469
 33
140.0
  0
3DFACE
  8
0
 10
-47.23435974121094
 20
57.52433776855469
 30
140.0
 11
-47.44685363769531
 21
57.46798324584961
 31
140.0
 12
-48.516990661621094
 22
57.180301666259766
 32
140.0
 13
-48.516990661621094
 23
57.180301666259766
 33
140.0
  0
3DFACE
  8
0
 10
-48.516990661621094
 20
57.180301666259766
 30
140.0
 11
-49.646461486816406
 21
56.70000076293945
 31
140.0
 12
-50.76234817504883
 22
55.969600677490234
 32
140.0
 13
-50.76234817504883
 23
55.969600677490234
 33
140.0
  0
3DFACE
  8
0
 10
-50.76234817504883
 20
55.969600677490234
 30
140.0
 11
-52.02490234375
 21
54.92509078979492
 31
140.0
 12
-52.61457443237305
 22
54.342559814453125
 32
140.0
 13
-52.61457443237305
 23
54.342559814453125
 33
140.0
  0
3DFACE
  8
0
 10
-52.61457443237305
 20
54.342559814453125
 30
140.0
 11
-52.785945892333984
 21
54.14861297607422
 31
140.0
 12
-53.52982711791992
 22
53.17884826660156
 32
140.0
 13
-53.52982711791992
 23
53.17884826660156
 33
140.0
  0
3DFACE
  8
0
 10
-53.52982711791992
 20
53.17884826660156
 30
140.0
 11
-54.19355392456055
 21
52.07760238647461
 31
140.0
 12
-54.26219940185547
 22
51.95755386352539
 32
140.0
 13
-54.26219940185547
 23
51.95755386352539
 33
140.0
  0
3DFACE
  8
0
 10
-54.26219940185547
 20
51.95755386352539
 30
140.0
 11
-54.76074981689453
 21
50.574764251708984
 31
140.0
 12
-54.8812141418457
 22
50.09865951538086
 32
140.0
 13
-54.8812141418457
 23
50.09865951538086
 33
140.0
  0
3DFACE
  8
0
 10
-54.8812141418457
 20
50.09865951538086
 30
140.0
 11
-55.102333068847656
 21
47.2113037109375
 31
140.0
 12
-53.19105911254883
 22
42.146820068359375
 32
140.0
 13
-53.19105911254883
 23
42.146820068359375
 33
140.0
  0
3DFACE
  8
0
 10
-53.19105911254883
 20
42.146820068359375
 30
140.0
 11
-51.45393371582031
 21
40.368377685546875
 31
140.0
 12
-50.714298248291016
 22
39.75531768798828
 32
140.0
 13
-50.714298248291016
 23
39.75531768798828
 33
140.0
  0
3DFACE
  8
0
 10
-50.714298248291016
 20
39.75531768798828
 30
140.0
 11
-50.13433074951172
 21
39.36078643798828
 31
140.0
 12
-49.585205078125
 22
39.02483367919922
 32
140.0
 13
-49.585205078125
 23
39.02483367919922
 33
140.0
  0
3DFACE
  8
0
 10
-49.585205078125
 20
39.02483367919922
 30
140.0
 11
-49.284786224365234
 21
38.85696792602539
 31
140.0
 12
-48.53243637084961
 22
38.47858428955078
 32
140.0
 13
-48.53243637084961
 23
38.47858428955078
 33
140.0
  0
3DFACE
  8
0
 10
-48.53243637084961
 20
38.47858428955078
 30
140.0
 11
-48.4400749206543
 21
38.42721176147461
 31
140.0
 12
-48.404212951660156
 22
38.4109001159668
 32
140.0
 13
-48.404212951660156
 23
38.4109001159668
 33
140.0
  0
3DFACE
  8
0
 10
-48.404212951660156
 20
38.4109001159668
 30
140.0
 11
-48.31295394897461
 21
38.375885009765625
 31
140.0
 12
-47.60408401489258
 22
38.11557388305664
 32
140.0
 13
-47.60408401489258
 23
38.11557388305664
 33
140.0
  0
3DFACE
  8
0
 10
-47.181968688964844
 20
38.01951217651367
 30
140.0
 11
-46.775577545166016
 21
37.91628646850586
 31
140.0
 12
-45.99697494506836
 22
37.79906463623047
 32
140.0
 13
-45.99697494506836
 23
37.79906463623047
 33
140.0
  0
3DFACE
  8
0
 10
-48.404212951660156
 20
38.4109001159668
 30
140.0
 11
-47.60408401489258
 21
38.11557388305664
 31
140.0
 12
-47.181968688964844
 22
38.01951217651367
 32
140.0
 13
-47.181968688964844
 23
38.01951217651367
 33
140.0
  0
3DFACE
  8
0
 10
-50.714298248291016
 20
39.75531768798828
 30
140.0
 11
-49.585205078125
 21
39.02483367919922
 31
140.0
 12
-48.53243637084961
 22
38.47858428955078
 32
140.0
 13
-48.53243637084961
 23
38.47858428955078
 33
140.0
  0
3DFACE
  8
0
 10
-48.53243637084961
 20
38.47858428955078
 30
140.0
 11
-48.404212951660156
 21
38.4109001159668
 31
140.0
 12
-47.181968688964844
 22
38.01951217651367
 32
140.0
 13
-47.181968688964844
 23
38.01951217651367
 33
140.0
  0
3DFACE
  8
0
 10
-47.181968688964844
 20
38.01951217651367
 30
140.0
 11
-45.99697494506836
 21
37.79906463623047
 31
140.0
 12
-45.95241928100586
 22
37.79441452026367
 32
140.0
 13
-45.95241928100586
 23
37.79441452026367
 33
140.0
  0
3DFACE
  8
0
 10
-45.9318733215332
 20
37.79320526123047
 30
140.0
 11
-45.133514404296875
 21
37.733978271484375
 31
140.0
 12
-44.31996154785156
 22
37.750946044921875
 32
140.0
 13
-44.31996154785156
 23
37.750946044921875
 33
140.0
  0
3DFACE
  8
0
 10
-47.181968688964844
 20
38.01951217651367
 30
140.0
 11
-45.95241928100586
 21
37.79441452026367
 31
140.0
 12
-45.9318733215332
 22
37.79320526123047
 32
140.0
 13
-45.9318733215332
 23
37.79320526123047
 33
140.0
  0
3DFACE
  8
0
 10
-50.714298248291016
 20
39.75531768798828
 30
140.0
 11
-48.53243637084961
 21
38.47858428955078
 31
140.0
 12
-47.181968688964844
 22
38.01951217651367
 32
140.0
 13
-47.181968688964844
 23
38.01951217651367
 33
140.0
  0
3DFACE
  8
0
 10
-54.8812141418457
 20
50.09865951538086
 30
140.0
 11
-53.19105911254883
 21
42.146820068359375
 31
140.0
 12
-50.714298248291016
 22
39.75531768798828
 32
140.0
 13
-50.714298248291016
 23
39.75531768798828
 33
140.0
  0
3DFACE
  8
0
 10
-53.52982711791992
 20
53.17884826660156
 30
140.0
 11
-54.26219940185547
 21
51.95755386352539
 31
140.0
 12
-54.8812141418457
 22
50.09865951538086
 32
140.0
 13
-54.8812141418457
 23
50.09865951538086
 33
140.0
  0
3DFACE
  8
0
 10
-50.76234817504883
 20
55.969600677490234
 30
140.0
 11
-52.61457443237305
 21
54.342559814453125
 31
140.0
 12
-53.52982711791992
 22
53.17884826660156
 32
140.0
 13
-53.52982711791992
 23
53.17884826660156
 33
140.0
  0
3DFACE
  8
0
 10
-47.23435974121094
 20
57.52433776855469
 30
140.0
 11
-48.516990661621094
 21
57.180301666259766
 31
140.0
 12
-50.76234817504883
 22
55.969600677490234
 32
140.0
 13
-50.76234817504883
 23
55.969600677490234
 33
140.0
  0
3DFACE
  8
0
 10
-42.55335235595703
 20
57.16315460205078
 30
140.0
 11
-44.0841178894043
 21
57.53623962402344
 31
140.0
 12
-47.23435974121094
 22
57.52433776855469
 32
140.0
 13
-47.23435974121094
 23
57.52433776855469
 33
140.0
  0
3DFACE
  8
0
 10
-38.6838264465332
 20
54.866756439208984
 30
140.0
 11
-40.01165771484375
 21
55.91651153564453
 31
140.0
 12
-42.55335235595703
 22
57.16315460205078
 32
140.0
 13
-42.55335235595703
 23
57.16315460205078
 33
140.0
  0
3DFACE
  8
0
 10
-36.550594329833984
 20
51.92890930175781
 30
140.0
 11
-37.00209045410156
 21
52.76599884033203
 31
140.0
 12
-38.6838264465332
 22
54.866756439208984
 32
140.0
 13
-38.6838264465332
 23
54.866756439208984
 33
140.0
  0
3DFACE
  8
0
 10
-36.191322326660156
 20
51.17696762084961
 30
140.0
 11
-36.28290557861328
 21
51.37259292602539
 31
140.0
 12
-36.550594329833984
 22
51.92890930175781
 32
140.0
 13
-36.550594329833984
 23
51.92890930175781
 33
140.0
  0
3DFACE
  8
0
 10
-35.724796295166016
 20
49.71280288696289
 30
140.0
 11
-36.109344482421875
 21
50.976051330566406
 31
140.0
 12
-36.191322326660156
 22
51.17696762084961
 32
140.0
 13
-36.191322326660156
 23
51.17696762084961
 33
140.0
  0
3DFACE
  8
0
 10
-35.58098220825195
 20
49.05701446533203
 30
140.0
 11
-35.677581787109375
 21
49.51525115966797
 31
140.0
 12
-35.724796295166016
 22
49.71280288696289
 32
140.0
 13
-35.724796295166016
 23
49.71280288696289
 33
140.0
  0
3DFACE
  8
0
 10
-35.45834732055664
 20
48.028507232666016
 30
140.0
 11
-35.528404235839844
 21
48.64951705932617
 31
140.0
 12
-35.58098220825195
 22
49.05701446533203
 32
140.0
 13
-35.58098220825195
 23
49.05701446533203
 33
140.0
  0
3DFACE
  8
0
 10
-35.43194580078125
 20
47.823883056640625
 30
140.0
 11
-35.43800735473633
 21
47.90614700317383
 31
140.0
 12
-35.45834732055664
 22
48.028507232666016
 32
140.0
 13
-35.45834732055664
 23
48.028507232666016
 33
140.0
  0
3DFACE
  8
0
 10
-35.41121292114258
 20
47.101600646972656
 30
140.0
 11
-35.408164978027344
 21
47.274559020996094
 31
140.0
 12
-35.43194580078125
 22
47.823883056640625
 32
140.0
 13
-35.43194580078125
 23
47.823883056640625
 33
140.0
  0
3DFACE
  8
0
 10
-35.47582244873047
 20
46.29705047607422
 30
140.0
 11
-35.43735122680664
 21
46.57754135131836
 31
140.0
 12
-35.41121292114258
 22
47.101600646972656
 32
140.0
 13
-35.41121292114258
 23
47.101600646972656
 33
140.0
  0
3DFACE
  8
0
 10
-35.62752151489258
 20
45.16775894165039
 30
140.0
 11
-35.517608642578125
 21
45.87616729736328
 31
140.0
 12
-35.47582244873047
 22
46.29705047607422
 32
140.0
 13
-35.47582244873047
 23
46.29705047607422
 33
140.0
  0
3DFACE
  8
0
 10
-36.044864654541016
 20
43.883392333984375
 30
140.0
 11
-35.80466842651367
 21
44.584957122802734
 31
140.0
 12
-35.62752151489258
 22
45.16775894165039
 32
140.0
 13
-35.62752151489258
 23
45.16775894165039
 33
140.0
  0
3DFACE
  8
0
 10
-36.51556396484375
 20
42.876033782958984
 30
140.0
 11
-36.430503845214844
 21
43.0356559753418
 31
140.0
 12
-36.33617401123047
 22
43.25986099243164
 32
140.0
 13
-36.33617401123047
 23
43.25986099243164
 33
140.0
  0
3DFACE
  8
0
 10
-36.33617401123047
 20
43.25986099243164
 30
140.0
 11
-36.044864654541016
 21
43.883392333984375
 31
140.0
 12
-35.62752151489258
 22
45.16775894165039
 32
140.0
 13
-35.62752151489258
 23
45.16775894165039
 33
140.0
  0
3DFACE
  8
0
 10
-35.62752151489258
 20
45.16775894165039
 30
140.0
 11
-35.47582244873047
 21
46.29705047607422
 31
140.0
 12
-35.41121292114258
 22
47.101600646972656
 32
140.0
 13
-35.41121292114258
 23
47.101600646972656
 33
140.0
  0
3DFACE
  8
0
 10
-35.41121292114258
 20
47.101600646972656
 30
140.0
 11
-35.43194580078125
 21
47.823883056640625
 31
140.0
 12
-35.45834732055664
 22
48.028507232666016
 32
140.0
 13
-35.45834732055664
 23
48.028507232666016
 33
140.0
  0
3DFACE
  8
0
 10
-35.45834732055664
 20
48.028507232666016
 30
140.0
 11
-35.58098220825195
 21
49.05701446533203
 31
140.0
 12
-35.724796295166016
 22
49.71280288696289
 32
140.0
 13
-35.724796295166016
 23
49.71280288696289
 33
140.0
  0
3DFACE
  8
0
 10
-35.724796295166016
 20
49.71280288696289
 30
140.0
 11
-36.191322326660156
 21
51.17696762084961
 31
140.0
 12
-36.550594329833984
 22
51.92890930175781
 32
140.0
 13
-36.550594329833984
 23
51.92890930175781
 33
140.0
  0
3DFACE
  8
0
 10
-36.550594329833984
 20
51.92890930175781
 30
140.0
 11
-38.6838264465332
 21
54.866756439208984
 31
140.0
 12
-42.55335235595703
 22
57.16315460205078
 32
140.0
 13
-42.55335235595703
 23
57.16315460205078
 33
140.0
  0
3DFACE
  8
0
 10
-42.55335235595703
 20
57.16315460205078
 30
140.0
 11
-47.23435974121094
 21
57.52433776855469
 31
140.0
 12
-50.76234817504883
 22
55.969600677490234
 32
140.0
 13
-50.76234817504883
 23
55.969600677490234
 33
140.0
  0
3DFACE
  8
0
 10
-50.76234817504883
 20
55.969600677490234
 30
140.0
 11
-53.52982711791992
 21
53.17884826660156
 31
140.0
 12
-54.8812141418457
 22
50.09865951538086
 32
140.0
 13
-54.8812141418457
 23
50.09865951538086
 33
140.0
  0
3DFACE
  8
0
 10
-54.8812141418457
 20
50.09865951538086
 30
140.0
 11
-50.714298248291016
 21
39.75531768798828
 31
140.0
 12
-47.181968688964844
 22
38.01951217651367
 32
140.0
 13
-47.181968688964844
 23
38.01951217651367
 33
140.0
  0
3DFACE
  8
0
 10
-47.181968688964844
 20
38.01951217651367
 30
140.0
 11
-45.9318733215332
 21
37.79320526123047
 31
140.0
 12
-44.31996154785156
 22
37.750946044921875
 32
140.0
 13
-44.31996154785156
 23
37.750946044921875
 33
140.0
  0
3DFACE
  8
0
 10
-43.64337158203125
 20
37.838741302490234
 30
140.0
 11
-43.51148986816406
 21
37.841552734375
 31
140.0
 12
-42.7064323425293
 22
37.981502532958984
 32
140.0
 13
-42.7064323425293
 23
37.981502532958984
 33
140.0
  0
3DFACE
  8
0
 10
-47.181968688964844
 20
38.01951217651367
 30
140.0
 11
-44.31996154785156
 21
37.750946044921875
 31
140.0
 12
-43.64337158203125
 22
37.838741302490234
 32
140.0
 13
-43.64337158203125
 23
37.838741302490234
 33
140.0
  0
3DFACE
  8
0
 10
-50.76234817504883
 20
55.969600677490234
 30
140.0
 11
-54.8812141418457
 21
50.09865951538086
 31
140.0
 12
-47.181968688964844
 22
38.01951217651367
 32
140.0
 13
-47.181968688964844
 23
38.01951217651367
 33
140.0
  0
3DFACE
  8
0
 10
-36.550594329833984
 20
51.92890930175781
 30
140.0
 11
-42.55335235595703
 21
57.16315460205078
 31
140.0
 12
-50.76234817504883
 22
55.969600677490234
 32
140.0
 13
-50.76234817504883
 23
55.969600677490234
 33
140.0
  0
3DFACE
  8
0
 10
-35.45834732055664
 20
48.028507232666016
 30
140.0
 11
-35.724796295166016
 21
49.71280288696289
 31
140.0
 12
-36.550594329833984
 22
51.92890930175781
 32
140.0
 13
-36.550594329833984
 23
51.92890930175781
 33
140.0
  0
3DFACE
  8
0
 10
-35.62752151489258
 20
45.16775894165039
 30
140.0
 11
-35.41121292114258
 21
47.101600646972656
 31
140.0
 12
-35.45834732055664
 22
48.028507232666016
 32
140.0
 13
-35.45834732055664
 23
48.028507232666016
 33
140.0
  0
3DFACE
  8
0
 10
-36.51556396484375
 20
42.876033782958984
 30
140.0
 11
-36.33617401123047
 21
43.25986099243164
 31
140.0
 12
-35.62752151489258
 22
45.16775894165039
 32
140.0
 13
-35.62752151489258
 23
45.16775894165039
 33
140.0
  0
3DFACE
  8
0
 10
-37.30575942993164
 20
41.68672561645508
 30
140.0
 11
-36.87393569946289
 21
42.27428436279297
 31
140.0
 12
-36.51556396484375
 22
42.876033782958984
 32
140.0
 13
-36.51556396484375
 23
42.876033782958984
 33
140.0
  0
3DFACE
  8
0
 10
-38.01821517944336
 20
40.87705612182617
 30
140.0
 11
-37.43415069580078
 21
41.52546310424805
 31
140.0
 12
-37.30575942993164
 22
41.68672561645508
 32
140.0
 13
-37.30575942993164
 23
41.68672561645508
 33
140.0
  0
3DFACE
  8
0
 10
-38.90389633178711
 20
40.0705680847168
 30
140.0
 11
-38.78369903564453
 21
40.16465759277344
 31
140.0
 12
-38.01821517944336
 22
40.87705612182617
 32
140.0
 13
-38.01821517944336
 23
40.87705612182617
 33
140.0
  0
3DFACE
  8
0
 10
-40.131324768066406
 20
39.14736557006836
 30
140.0
 11
-39.555442810058594
 21
39.54277420043945
 31
140.0
 12
-38.90389633178711
 22
40.0705680847168
 32
140.0
 13
-38.90389633178711
 23
40.0705680847168
 33
140.0
  0
3DFACE
  8
0
 10
-40.552772521972656
 20
38.910003662109375
 30
140.0
 11
-40.33436584472656
 21
39.024898529052734
 31
140.0
 12
-40.131324768066406
 22
39.14736557006836
 32
140.0
 13
-40.131324768066406
 23
39.14736557006836
 33
140.0
  0
3DFACE
  8
0
 10
-41.39630889892578
 20
38.44765853881836
 30
140.0
 11
-41.11870193481445
 21
38.58506774902344
 31
140.0
 12
-40.552772521972656
 22
38.910003662109375
 32
140.0
 13
-40.552772521972656
 23
38.910003662109375
 33
140.0
  0
3DFACE
  8
0
 10
-41.9098014831543
 20
38.24321365356445
 30
140.0
 11
-41.903770446777344
 21
38.24528884887695
 31
140.0
 12
-41.891143798828125
 22
38.25054931640625
 32
140.0
 13
-41.891143798828125
 23
38.25054931640625
 33
140.0
  0
3DFACE
  8
0
 10
-41.891143798828125
 20
38.25054931640625
 30
140.0
 11
-41.39630889892578
 21
38.44765853881836
 31
140.0
 12
-40.552772521972656
 22
38.910003662109375
 32
140.0
 13
-40.552772521972656
 23
38.910003662109375
 33
140.0
  0
3DFACE
  8
0
 10
-40.552772521972656
 20
38.910003662109375
 30
140.0
 11
-40.131324768066406
 21
39.14736557006836
 31
140.0
 12
-38.90389633178711
 22
40.0705680847168
 32
140.0
 13
-38.90389633178711
 23
40.0705680847168
 33
140.0
  0
3DFACE
  8
0
 10
-38.90389633178711
 20
40.0705680847168
 30
140.0
 11
-38.01821517944336
 21
40.87705612182617
 31
140.0
 12
-37.30575942993164
 22
41.68672561645508
 32
140.0
 13
-37.30575942993164
 23
41.68672561645508
 33
140.0
  0
3DFACE
  8
0
 10
-37.30575942993164
 20
41.68672561645508
 30
140.0
 11
-36.51556396484375
 21
42.876033782958984
 31
140.0
 12
-35.62752151489258
 22
45.16775894165039
 32
140.0
 13
-35.62752151489258
 23
45.16775894165039
 33
140.0
  0
3DFACE
  8
0
 10
-35.62752151489258
 20
45.16775894165039
 30
140.0
 11
-35.45834732055664
 21
48.028507232666016
 31
140.0
 12
-36.550594329833984
 22
51.92890930175781
 32
140.0
 13
-36.550594329833984
 23
51.92890930175781
 33
140.0
  0
3DFACE
  8
0
 10
-36.550594329833984
 20
51.92890930175781
 30
140.0
 11
-50.76234817504883
 21
55.969600677490234
 31
140.0
 12
-47.181968688964844
 22
38.01951217651367
 32
140.0
 13
-47.181968688964844
 23
38.01951217651367
 33
140.0
  0
3DFACE
  8
0
 10
-47.181968688964844
 20
38.01951217651367
 30
140.0
 11
-43.64337158203125
 21
37.838741302490234
 31
140.0
 12
-42.7064323425293
 22
37.981502532958984
 32
140.0
 13
-42.7064323425293
 23
37.981502532958984
 33
140.0
  0
3DFACE
  8
0
 10
-42.7064323425293
 20
37.981502532958984
 30
140.0
 11
-41.9098014831543
 21
38.24321365356445
 31
140.0
 12
-41.891143798828125
 22
38.25054931640625
 32
140.0
 13
-41.891143798828125
 23
38.25054931640625
 33
140.0
  0
3DFACE
  8
0
 10
-41.891143798828125
 20
38.25054931640625
 30
140.0
 11
-40.552772521972656
 21
38.910003662109375
 31
140.0
 12
-38.90389633178711
 22
40.0705680847168
 32
140.0
 13
-38.90389633178711
 23
40.0705680847168
 33
140.0
  0
3DFACE
  8
0
 10
-38.90389633178711
 20
40.0705680847168
 30
140.0
 11
-37.30575942993164
 21
41.68672561645508
 31
140.0
 12
-35.62752151489258
 22
45.16775894165039
 32
140.0
 13
-35.62752151489258
 23
45.16775894165039
 33
140.0
  0
3DFACE
  8
0
 10
-35.62752151489258
 20
45.16775894165039
 30
140.0
 11
-36.550594329833984
 21
51.92890930175781
 31
140.0
 12
-47.181968688964844
 22
38.01951217651367
 32
140.0
 13
-47.181968688964844
 23
38.01951217651367
 33
140.0
  0
3DFACE
  8
0
 10
-47.181968688964844
 20
38.01951217651367
 30
140.0
 11
-42.7064323425293
 21
37.981502532958984
 31
140.0
 12
-41.891143798828125
 22
38.25054931640625
 32
140.0
 13
-41.891143798828125
 23
38.25054931640625
 33
140.0
  0
3DFACE
  8
0
 10
-41.891143798828125
 20
38.25054931640625
 30
140.0
 11
-38.90389633178711
 21
40.0705680847168
 31
140.0
 12
-35.62752151489258
 22
45.16775894165039
 32
140.0
 13
-35.62752151489258
 23
45.16775894165039
 33
140.0
  0
3DFACE
  8
0
 10
-47.181968688964844
 20
38.01951217651367
 30
140.0
 11
-41.891143798828125
 21
38.25054931640625
 31
140.0
 12
-35.62752151489258
 22
45.16775894165039
 32
140.0
 13
-35.62752151489258
 23
45.16775894165039
 33
140.0
  0
3DFACE
  8
0
 10
27.40420913696289
 20
65.57064819335938
 30
140.0
 11
27.017560958862305
 21
64.99234008789062
 31
140.0
 12
26.692777633666992
 22
64.34757232666016
 32
140.0
 13
26.692777633666992
 23
64.34757232666016
 33
140.0
  0
3DFACE
  8
0
 10
26.692777633666992
 20
64.34757232666016
 30
140.0
 11
26.44135284423828
 21
63.80237579345703
 31
140.0
 12
26.243398666381836
 22
63.30495071411133
 32
140.0
 13
26.243398666381836
 23
63.30495071411133
 33
140.0
  0
3DFACE
  8
0
 10
26.020145416259766
 20
62.71491241455078
 30
140.0
 11
25.98729705810547
 21
62.633846282958984
 31
140.0
 12
25.975467681884766
 22
62.60248947143555
 32
140.0
 13
25.975467681884766
 23
62.60248947143555
 33
140.0
  0
3DFACE
  8
0
 10
26.692777633666992
 20
64.34757232666016
 30
140.0
 11
26.243398666381836
 21
63.30495071411133
 31
140.0
 12
26.020145416259766
 22
62.71491241455078
 32
140.0
 13
26.020145416259766
 23
62.71491241455078
 33
140.0
  0
3DFACE
  8
0
 10
27.47690773010254
 20
65.65887451171875
 30
140.0
 11
27.40420913696289
 21
65.57064819335938
 31
140.0
 12
26.692777633666992
 22
64.34757232666016
 32
140.0
 13
26.692777633666992
 23
64.34757232666016
 33
140.0
  0
3DFACE
  8
0
 10
28.371543884277344
 20
66.68653106689453
 30
140.0
 11
27.809146881103516
 21
66.11567687988281
 31
140.0
 12
27.47690773010254
 22
65.65887451171875
 32
140.0
 13
27.47690773010254
 23
65.65887451171875
 33
140.0
  0
3DFACE
  8
0
 10
29.15159034729004
 20
67.35675811767578
 30
140.0
 11
28.92561149597168
 21
67.17593383789062
 31
140.0
 12
28.615453720092773
 22
66.88597869873047
 32
140.0
 13
28.615453720092773
 23
66.88597869873047
 33
140.0
  0
3DFACE
  8
0
 10
28.615453720092773
 20
66.88597869873047
 30
140.0
 11
28.371543884277344
 21
66.68653106689453
 31
140.0
 12
27.47690773010254
 22
65.65887451171875
 32
140.0
 13
27.47690773010254
 23
65.65887451171875
 33
140.0
  0
3DFACE
  8
0
 10
27.47690773010254
 20
65.65887451171875
 30
140.0
 11
26.692777633666992
 21
64.34757232666016
 31
140.0
 12
26.020145416259766
 22
62.71491241455078
 32
140.0
 13
26.020145416259766
 23
62.71491241455078
 33
140.0
  0
3DFACE
  8
0
 10
26.020145416259766
 20
62.71491241455078
 30
140.0
 11
25.975467681884766
 21
62.60248947143555
 31
140.0
 12
25.972064971923828
 22
62.59014129638672
 32
140.0
 13
25.972064971923828
 23
62.59014129638672
 33
140.0
  0
3DFACE
  8
0
 10
25.972064971923828
 20
62.59014129638672
 30
140.0
 11
25.821386337280273
 21
61.9677619934082
 31
140.0
 12
25.80327033996582
 22
61.846778869628906
 32
140.0
 13
25.80327033996582
 23
61.846778869628906
 33
140.0
  0
3DFACE
  8
0
 10
25.80327033996582
 20
61.846778869628906
 30
140.0
 11
25.705354690551758
 21
61.33869934082031
 31
140.0
 12
25.671262741088867
 22
61.05963897705078
 32
140.0
 13
25.671262741088867
 23
61.05963897705078
 33
140.0
  0
3DFACE
  8
0
 10
25.671262741088867
 20
61.05963897705078
 30
140.0
 11
25.648900985717773
 21
60.69810485839844
 31
140.0
 12
25.650981903076172
 22
60.50514221191406
 32
140.0
 13
25.650981903076172
 23
60.50514221191406
 33
140.0
  0
3DFACE
  8
0
 10
25.650981903076172
 20
60.50514221191406
 30
140.0
 11
25.632286071777344
 21
60.049808502197266
 31
140.0
 12
25.65182113647461
 22
59.4853630065918
 32
140.0
 13
25.65182113647461
 23
59.4853630065918
 33
140.0
  0
3DFACE
  8
0
 10
25.65182113647461
 20
59.4853630065918
 30
140.0
 11
25.65670394897461
 21
59.3935661315918
 31
140.0
 12
25.756385803222656
 22
58.735443115234375
 32
140.0
 13
25.756385803222656
 23
58.735443115234375
 33
140.0
  0
3DFACE
  8
0
 10
25.756385803222656
 20
58.735443115234375
 30
140.0
 11
25.771757125854492
 21
58.66530227661133
 31
140.0
 12
25.88518524169922
 22
58.207374572753906
 32
140.0
 13
25.88518524169922
 23
58.207374572753906
 33
140.0
  0
3DFACE
  8
0
 10
25.986480712890625
 20
57.911094665527344
 30
140.0
 11
26.083423614501953
 21
57.51881408691406
 31
140.0
 12
26.140731811523438
 22
57.325904846191406
 32
140.0
 13
26.140731811523438
 23
57.325904846191406
 33
140.0
  0
3DFACE
  8
0
 10
25.756385803222656
 20
58.735443115234375
 30
140.0
 11
25.88518524169922
 21
58.207374572753906
 31
140.0
 12
25.986480712890625
 22
57.911094665527344
 32
140.0
 13
25.986480712890625
 23
57.911094665527344
 33
140.0
  0
3DFACE
  8
0
 10
25.650981903076172
 20
60.50514221191406
 30
140.0
 11
25.65182113647461
 21
59.4853630065918
 31
140.0
 12
25.756385803222656
 22
58.735443115234375
 32
140.0
 13
25.756385803222656
 23
58.735443115234375
 33
140.0
  0
3DFACE
  8
0
 10
25.80327033996582
 20
61.846778869628906
 30
140.0
 11
25.671262741088867
 21
61.05963897705078
 31
140.0
 12
25.650981903076172
 22
60.50514221191406
 32
140.0
 13
25.650981903076172
 23
60.50514221191406
 33
140.0
  0
3DFACE
  8
0
 10
26.020145416259766
 20
62.71491241455078
 30
140.0
 11
25.972064971923828
 21
62.59014129638672
 31
140.0
 12
25.80327033996582
 22
61.846778869628906
 32
140.0
 13
25.80327033996582
 23
61.846778869628906
 33
140.0
  0
3DFACE
  8
0
 10
28.615453720092773
 20
66.88597869873047
 30
140.0
 11
27.47690773010254
 21
65.65887451171875
 31
140.0
 12
26.020145416259766
 22
62.71491241455078
 32
140.0
 13
26.020145416259766
 23
62.71491241455078
 33
140.0
  0
3DFACE
  8
0
 10
29.518329620361328
 20
67.6278305053711
 30
140.0
 11
29.15159034729004
 21
67.35675811767578
 31
140.0
 12
28.615453720092773
 22
66.88597869873047
 32
140.0
 13
28.615453720092773
 23
66.88597869873047
 33
140.0
  0
3DFACE
  8
0
 10
30.3964900970459
 20
68.17060852050781
 30
140.0
 11
29.760732650756836
 21
67.78759002685547
 31
140.0
 12
29.518329620361328
 22
67.6278305053711
 32
140.0
 13
29.518329620361328
 23
67.6278305053711
 33
140.0
  0
3DFACE
  8
0
 10
31.14485740661621
 20
68.54837036132812
 30
140.0
 11
30.499300003051758
 21
68.22457885742188
 31
140.0
 12
30.3964900970459
 22
68.17060852050781
 32
140.0
 13
30.3964900970459
 23
68.17060852050781
 33
140.0
  0
3DFACE
  8
0
 10
31.949748992919922
 20
68.83817291259766
 30
140.0
 11
31.515071868896484
 21
68.69127655029297
 31
140.0
 12
31.14485740661621
 22
68.54837036132812
 32
140.0
 13
31.14485740661621
 23
68.54837036132812
 33
140.0
  0
3DFACE
  8
0
 10
32.907222747802734
 20
69.0407485961914
 30
140.0
 11
32.74907302856445
 21
69.01441955566406
 31
140.0
 12
32.610164642333984
 22
68.97586059570312
 32
140.0
 13
32.610164642333984
 23
68.97586059570312
 33
140.0
  0
3DFACE
  8
0
 10
32.610164642333984
 20
68.97586059570312
 30
140.0
 11
31.949748992919922
 21
68.83817291259766
 31
140.0
 12
31.14485740661621
 22
68.54837036132812
 32
140.0
 13
31.14485740661621
 23
68.54837036132812
 33
140.0
  0
3DFACE
  8
0
 10
31.14485740661621
 20
68.54837036132812
 30
140.0
 11
30.3964900970459
 21
68.17060852050781
 31
140.0
 12
29.518329620361328
 22
67.6278305053711
 32
140.0
 13
29.518329620361328
 23
67.6278305053711
 33
140.0
  0
3DFACE
  8
0
 10
29.518329620361328
 20
67.6278305053711
 30
140.0
 11
28.615453720092773
 21
66.88597869873047
 31
140.0
 12
26.020145416259766
 22
62.71491241455078
 32
140.0
 13
26.020145416259766
 23
62.71491241455078
 33
140.0
  0
3DFACE
  8
0
 10
26.020145416259766
 20
62.71491241455078
 30
140.0
 11
25.80327033996582
 21
61.846778869628906
 31
140.0
 12
25.650981903076172
 22
60.50514221191406
 32
140.0
 13
25.650981903076172
 23
60.50514221191406
 33
140.0
  0
3DFACE
  8
0
 10
25.650981903076172
 20
60.50514221191406
 30
140.0
 11
25.756385803222656
 21
58.735443115234375
 31
140.0
 12
25.986480712890625
 22
57.911094665527344
 32
140.0
 13
25.986480712890625
 23
57.911094665527344
 33
140.0
  0
3DFACE
  8
0
 10
25.986480712890625
 20
57.911094665527344
 30
140.0
 11
26.140731811523438
 21
57.325904846191406
 31
140.0
 12
26.557214736938477
 22
56.26226043701172
 32
140.0
 13
26.557214736938477
 23
56.26226043701172
 33
140.0
  0
3DFACE
  8
0
 10
26.557214736938477
 20
56.26226043701172
 30
140.0
 11
26.699914932250977
 21
55.96387481689453
 31
140.0
 12
27.139986038208008
 22
55.10335159301758
 32
140.0
 13
27.139986038208008
 23
55.10335159301758
 33
140.0
  0
3DFACE
  8
0
 10
27.139986038208008
 20
55.10335159301758
 30
140.0
 11
27.43592071533203
 21
54.625389099121094
 31
140.0
 12
28.05828285217285
 22
53.81509780883789
 32
140.0
 13
28.05828285217285
 23
53.81509780883789
 33
140.0
  0
3DFACE
  8
0
 10
28.05828285217285
 20
53.81509780883789
 30
140.0
 11
28.586057662963867
 21
53.23992156982422
 31
140.0
 12
28.801353454589844
 22
53.023311614990234
 32
140.0
 13
28.801353454589844
 23
53.023311614990234
 33
140.0
  0
3DFACE
  8
0
 10
29.14812660217285
 20
52.806793212890625
 30
140.0
 11
29.5666446685791
 21
52.50641632080078
 31
140.0
 12
30.339391708374023
 22
52.141334533691406
 32
140.0
 13
30.339391708374023
 23
52.141334533691406
 33
140.0
  0
3DFACE
  8
0
 10
28.05828285217285
 20
53.81509780883789
 30
140.0
 11
28.801353454589844
 21
53.023311614990234
 31
140.0
 12
29.14812660217285
 22
52.806793212890625
 32
140.0
 13
29.14812660217285
 23
52.806793212890625
 33
140.0
  0
3DFACE
  8
0
 10
26.557214736938477
 20
56.26226043701172
 30
140.0
 11
27.139986038208008
 21
55.10335159301758
 31
140.0
 12
28.05828285217285
 22
53.81509780883789
 32
140.0
 13
28.05828285217285
 23
53.81509780883789
 33
140.0
  0
3DFACE
  8
0
 10
25.650981903076172
 20
60.50514221191406
 30
140.0
 11
25.986480712890625
 21
57.911094665527344
 31
140.0
 12
26.557214736938477
 22
56.26226043701172
 32
140.0
 13
26.557214736938477
 23
56.26226043701172
 33
140.0
  0
3DFACE
  8
0
 10
29.518329620361328
 20
67.6278305053711
 30
140.0
 11
26.020145416259766
 21
62.71491241455078
 31
140.0
 12
25.650981903076172
 22
60.50514221191406
 32
140.0
 13
25.650981903076172
 23
60.50514221191406
 33
140.0
  0
3DFACE
  8
0
 10
32.610164642333984
 20
68.97586059570312
 30
140.0
 11
31.14485740661621
 21
68.54837036132812
 31
140.0
 12
29.518329620361328
 22
67.6278305053711
 32
140.0
 13
29.518329620361328
 23
67.6278305053711
 33
140.0
  0
3DFACE
  8
0
 10
33.54518127441406
 20
69.12528228759766
 30
140.0
 11
32.907222747802734
 21
69.0407485961914
 31
140.0
 12
32.610164642333984
 22
68.97586059570312
 32
140.0
 13
32.610164642333984
 23
68.97586059570312
 33
140.0
  0
3DFACE
  8
0
 10
34.33653259277344
 20
69.13929748535156
 30
140.0
 11
33.679718017578125
 21
69.12984466552734
 31
140.0
 12
33.54518127441406
 22
69.12528228759766
 32
140.0
 13
33.54518127441406
 23
69.12528228759766
 33
140.0
  0
3DFACE
  8
0
 10
35.73272705078125
 20
68.96631622314453
 30
140.0
 11
35.12327194213867
 21
69.05921936035156
 31
140.0
 12
34.791603088378906
 22
69.08741760253906
 32
140.0
 13
34.791603088378906
 23
69.08741760253906
 33
140.0
  0
3DFACE
  8
0
 10
34.791603088378906
 20
69.08741760253906
 30
140.0
 11
34.33653259277344
 21
69.13929748535156
 31
140.0
 12
33.54518127441406
 22
69.12528228759766
 32
140.0
 13
33.54518127441406
 23
69.12528228759766
 33
140.0
  0
3DFACE
  8
0
 10
33.54518127441406
 20
69.12528228759766
 30
140.0
 11
32.610164642333984
 21
68.97586059570312
 31
140.0
 12
29.518329620361328
 22
67.6278305053711
 32
140.0
 13
29.518329620361328
 23
67.6278305053711
 33
140.0
  0
3DFACE
  8
0
 10
29.518329620361328
 20
67.6278305053711
 30
140.0
 11
25.650981903076172
 21
60.50514221191406
 31
140.0
 12
26.557214736938477
 22
56.26226043701172
 32
140.0
 13
26.557214736938477
 23
56.26226043701172
 33
140.0
  0
3DFACE
  8
0
 10
26.557214736938477
 20
56.26226043701172
 30
140.0
 11
28.05828285217285
 21
53.81509780883789
 31
140.0
 12
29.14812660217285
 22
52.806793212890625
 32
140.0
 13
29.14812660217285
 23
52.806793212890625
 33
140.0
  0
3DFACE
  8
0
 10
29.14812660217285
 20
52.806793212890625
 30
140.0
 11
30.339391708374023
 21
52.141334533691406
 31
140.0
 12
30.66275978088379
 22
52.016441345214844
 32
140.0
 13
30.66275978088379
 23
52.016441345214844
 33
140.0
  0
3DFACE
  8
0
 10
31.10613441467285
 20
51.89662170410156
 30
140.0
 11
31.31071662902832
 21
51.8374137878418
 31
140.0
 12
31.899864196777344
 22
51.71632766723633
 32
140.0
 13
31.899864196777344
 23
51.71632766723633
 33
140.0
  0
3DFACE
  8
0
 10
29.14812660217285
 20
52.806793212890625
 30
140.0
 11
30.66275978088379
 21
52.016441345214844
 31
140.0
 12
31.10613441467285
 22
51.89662170410156
 32
140.0
 13
31.10613441467285
 23
51.89662170410156
 33
140.0
  0
3DFACE
  8
0
 10
29.518329620361328
 20
67.6278305053711
 30
140.0
 11
26.557214736938477
 21
56.26226043701172
 31
140.0
 12
29.14812660217285
 22
52.806793212890625
 32
140.0
 13
29.14812660217285
 23
52.806793212890625
 33
140.0
  0
3DFACE
  8
0
 10
34.791603088378906
 20
69.08741760253906
 30
140.0
 11
33.54518127441406
 21
69.12528228759766
 31
140.0
 12
29.518329620361328
 22
67.6278305053711
 32
140.0
 13
29.518329620361328
 23
67.6278305053711
 33
140.0
  0
3DFACE
  8
0
 10
36.55815887451172
 20
68.7680435180664
 30
140.0
 11
35.90845489501953
 21
68.94754791259766
 31
140.0
 12
35.73272705078125
 22
68.96631622314453
 32
140.0
 13
35.73272705078125
 23
68.96631622314453
 33
140.0
  0
3DFACE
  8
0
 10
35.73272705078125
 20
68.96631622314453
 30
140.0
 11
34.791603088378906
 21
69.08741760253906
 31
140.0
 12
29.518329620361328
 22
67.6278305053711
 32
140.0
 13
29.518329620361328
 23
67.6278305053711
 33
140.0
  0
3DFACE
  8
0
 10
29.518329620361328
 20
67.6278305053711
 30
140.0
 11
29.14812660217285
 21
52.806793212890625
 31
140.0
 12
31.10613441467285
 22
51.89662170410156
 32
140.0
 13
31.10613441467285
 23
51.89662170410156
 33
140.0
  0
3DFACE
  8
0
 10
31.10613441467285
 20
51.89662170410156
 30
140.0
 11
31.899864196777344
 21
51.71632766723633
 31
140.0
 12
31.973915100097656
 22
51.70322799682617
 32
140.0
 13
31.973915100097656
 23
51.70322799682617
 33
140.0
  0
3DFACE
  8
0
 10
31.973915100097656
 20
51.70322799682617
 30
140.0
 11
32.686729431152344
 21
51.639007568359375
 31
140.0
 12
33.32095718383789
 22
51.59952926635742
 32
140.0
 13
33.32095718383789
 23
51.59952926635742
 33
140.0
  0
3DFACE
  8
0
 10
33.32095718383789
 20
51.59952926635742
 30
140.0
 11
33.475223541259766
 21
51.59478759765625
 31
140.0
 12
33.88391876220703
 22
51.61409378051758
 32
140.0
 13
33.88391876220703
 23
51.61409378051758
 33
140.0
  0
3DFACE
  8
0
 10
33.88391876220703
 20
51.61409378051758
 30
140.0
 11
34.26727294921875
 21
51.62274169921875
 31
140.0
 12
34.3803825378418
 22
51.633819580078125
 32
140.0
 13
34.3803825378418
 23
51.633819580078125
 33
140.0
  0
3DFACE
  8
0
 10
34.3803825378418
 20
51.633819580078125
 30
140.0
 11
35.064109802246094
 21
51.74843978881836
 31
140.0
 12
35.50616455078125
 22
51.843719482421875
 32
140.0
 13
35.50616455078125
 23
51.843719482421875
 33
140.0
  0
3DFACE
  8
0
 10
35.50616455078125
 20
51.843719482421875
 30
140.0
 11
35.863670349121094
 21
51.92982482910156
 31
140.0
 12
36.37034225463867
 22
52.10923385620117
 32
140.0
 13
36.37034225463867
 23
52.10923385620117
 33
140.0
  0
3DFACE
  8
0
 10
36.37034225463867
 20
52.10923385620117
 30
140.0
 11
36.67058563232422
 21
52.24435043334961
 31
140.0
 12
37.244232177734375
 22
52.52887725830078
 32
140.0
 13
37.244232177734375
 23
52.52887725830078
 33
140.0
  0
3DFACE
  8
0
 10
37.244232177734375
 20
52.52887725830078
 30
140.0
 11
37.48102951049805
 21
52.663394927978516
 31
140.0
 12
37.799476623535156
 22
52.881107330322266
 32
140.0
 13
37.799476623535156
 23
52.881107330322266
 33
140.0
  0
3DFACE
  8
0
 10
37.799476623535156
 20
52.881107330322266
 30
140.0
 11
38.119991302490234
 21
53.107032775878906
 31
140.0
 12
38.261741638183594
 22
53.219390869140625
 32
140.0
 13
38.261741638183594
 23
53.219390869140625
 33
140.0
  0
3DFACE
  8
0
 10
38.261741638183594
 20
53.219390869140625
 30
140.0
 11
38.73617172241211
 21
53.60667037963867
 31
140.0
 12
39.26824951171875
 22
54.11685562133789
 32
140.0
 13
39.26824951171875
 23
54.11685562133789
 33
140.0
  0
3DFACE
  8
0
 10
39.63405227661133
 20
54.517059326171875
 30
140.0
 11
39.8406867980957
 21
54.735267639160156
 31
140.0
 12
39.90794372558594
 22
54.8313102722168
 32
140.0
 13
39.90794372558594
 23
54.8313102722168
 33
140.0
  0
3DFACE
  8
0
 10
38.261741638183594
 20
53.219390869140625
 30
140.0
 11
39.26824951171875
 21
54.11685562133789
 31
140.0
 12
39.63405227661133
 22
54.517059326171875
 32
140.0
 13
39.63405227661133
 23
54.517059326171875
 33
140.0
  0
3DFACE
  8
0
 10
37.244232177734375
 20
52.52887725830078
 30
140.0
 11
37.799476623535156
 21
52.881107330322266
 31
140.0
 12
38.261741638183594
 22
53.219390869140625
 32
140.0
 13
38.261741638183594
 23
53.219390869140625
 33
140.0
  0
3DFACE
  8
0
 10
35.50616455078125
 20
51.843719482421875
 30
140.0
 11
36.37034225463867
 21
52.10923385620117
 31
140.0
 12
37.244232177734375
 22
52.52887725830078
 32
140.0
 13
37.244232177734375
 23
52.52887725830078
 33
140.0
  0
3DFACE
  8
0
 10
33.88391876220703
 20
51.61409378051758
 30
140.0
 11
34.3803825378418
 21
51.633819580078125
 31
140.0
 12
35.50616455078125
 22
51.843719482421875
 32
140.0
 13
35.50616455078125
 23
51.843719482421875
 33
140.0
  0
3DFACE
  8
0
 10
31.973915100097656
 20
51.70322799682617
 30
140.0
 11
33.32095718383789
 21
51.59952926635742
 31
140.0
 12
33.88391876220703
 22
51.61409378051758
 32
140.0
 13
33.88391876220703
 23
51.61409378051758
 33
140.0
  0
3DFACE
  8
0
 10
29.518329620361328
 20
67.6278305053711
 30
140.0
 11
31.10613441467285
 21
51.89662170410156
 31
140.0
 12
31.973915100097656
 22
51.70322799682617
 32
140.0
 13
31.973915100097656
 23
51.70322799682617
 33
140.0
  0
3DFACE
  8
0
 10
36.55815887451172
 20
68.7680435180664
 30
140.0
 11
35.73272705078125
 21
68.96631622314453
 31
140.0
 12
29.518329620361328
 22
67.6278305053711
 32
140.0
 13
29.518329620361328
 23
67.6278305053711
 33
140.0
  0
3DFACE
  8
0
 10
36.87004470825195
 20
68.66944122314453
 30
140.0
 11
36.68866729736328
 21
68.734619140625
 31
140.0
 12
36.55815887451172
 22
68.7680435180664
 32
140.0
 13
36.55815887451172
 23
68.7680435180664
 33
140.0
  0
3DFACE
  8
0
 10
37.98418426513672
 20
68.14388275146484
 30
140.0
 11
37.46343231201172
 21
68.41032409667969
 31
140.0
 12
36.87004470825195
 22
68.66944122314453
 32
140.0
 13
36.87004470825195
 23
68.66944122314453
 33
140.0
  0
3DFACE
  8
0
 10
38.997798919677734
 20
67.45394897460938
 30
140.0
 11
38.263214111328125
 21
67.99383544921875
 31
140.0
 12
37.98418426513672
 22
68.14388275146484
 32
140.0
 13
37.98418426513672
 23
68.14388275146484
 33
140.0
  0
3DFACE
  8
0
 10
39.75362014770508
 20
66.7440185546875
 30
140.0
 11
39.129695892333984
 21
67.33636474609375
 31
140.0
 12
38.997798919677734
 22
67.45394897460938
 32
140.0
 13
38.997798919677734
 23
67.45394897460938
 33
140.0
  0
3DFACE
  8
0
 10
40.444358825683594
 20
65.782470703125
 30
140.0
 11
39.89543151855469
 21
66.5696029663086
 31
140.0
 12
39.75362014770508
 22
66.7440185546875
 32
140.0
 13
39.75362014770508
 23
66.7440185546875
 33
140.0
  0
3DFACE
  8
0
 10
40.86134719848633
 20
64.99533081054688
 30
140.0
 11
40.49325942993164
 21
65.70464324951172
 31
140.0
 12
40.444358825683594
 22
65.782470703125
 32
140.0
 13
40.444358825683594
 23
65.782470703125
 33
140.0
  0
3DFACE
  8
0
 10
41.21219253540039
 20
64.20567321777344
 30
140.0
 11
41.20616912841797
 21
64.22463989257812
 31
140.0
 12
40.86134719848633
 22
64.99533081054688
 32
140.0
 13
40.86134719848633
 23
64.99533081054688
 33
140.0
  0
3DFACE
  8
0
 10
41.47233581542969
 20
63.19135665893555
 30
140.0
 11
41.43055725097656
 21
63.421051025390625
 31
140.0
 12
41.21219253540039
 22
64.20567321777344
 32
140.0
 13
41.21219253540039
 23
64.20567321777344
 33
140.0
  0
3DFACE
  8
0
 10
41.73735809326172
 20
61.84677505493164
 30
140.0
 11
41.609130859375
 21
62.6339225769043
 31
140.0
 12
41.47233581542969
 22
63.19135665893555
 32
140.0
 13
41.47233581542969
 23
63.19135665893555
 33
140.0
  0
3DFACE
  8
0
 10
41.767005920410156
 20
61.64672088623047
 30
140.0
 11
41.75461959838867
 21
61.75446701049805
 31
140.0
 12
41.73735809326172
 22
61.84677505493164
 32
140.0
 13
41.73735809326172
 23
61.84677505493164
 33
140.0
  0
3DFACE
  8
0
 10
41.815670013427734
 20
61.05964660644531
 30
140.0
 11
41.78306579589844
 21
61.48587417602539
 31
140.0
 12
41.767005920410156
 22
61.64672088623047
 32
140.0
 13
41.767005920410156
 23
61.64672088623047
 33
140.0
  0
3DFACE
  8
0
 10
41.78385925292969
 20
59.4853630065918
 30
140.0
 11
41.80991744995117
 21
60.272499084472656
 31
140.0
 12
41.805931091308594
 22
60.352535247802734
 32
140.0
 13
41.805931091308594
 23
60.352535247802734
 33
140.0
  0
3DFACE
  8
0
 10
41.805931091308594
 20
60.352535247802734
 30
140.0
 11
41.815670013427734
 21
61.05964660644531
 31
140.0
 12
41.767005920410156
 22
61.64672088623047
 32
140.0
 13
41.767005920410156
 23
61.64672088623047
 33
140.0
  0
3DFACE
  8
0
 10
41.767005920410156
 20
61.64672088623047
 30
140.0
 11
41.73735809326172
 21
61.84677505493164
 31
140.0
 12
41.47233581542969
 22
63.19135665893555
 32
140.0
 13
41.47233581542969
 23
63.19135665893555
 33
140.0
  0
3DFACE
  8
0
 10
41.47233581542969
 20
63.19135665893555
 30
140.0
 11
41.21219253540039
 21
64.20567321777344
 31
140.0
 12
40.86134719848633
 22
64.99533081054688
 32
140.0
 13
40.86134719848633
 23
64.99533081054688
 33
140.0
  0
3DFACE
  8
0
 10
40.86134719848633
 20
64.99533081054688
 30
140.0
 11
40.444358825683594
 21
65.782470703125
 31
140.0
 12
39.75362014770508
 22
66.7440185546875
 32
140.0
 13
39.75362014770508
 23
66.7440185546875
 33
140.0
  0
3DFACE
  8
0
 10
39.75362014770508
 20
66.7440185546875
 30
140.0
 11
38.997798919677734
 21
67.45394897460938
 31
140.0
 12
37.98418426513672
 22
68.14388275146484
 32
140.0
 13
37.98418426513672
 23
68.14388275146484
 33
140.0
  0
3DFACE
  8
0
 10
37.98418426513672
 20
68.14388275146484
 30
140.0
 11
36.87004470825195
 21
68.66944122314453
 31
140.0
 12
36.55815887451172
 22
68.7680435180664
 32
140.0
 13
36.55815887451172
 23
68.7680435180664
 33
140.0
  0
3DFACE
  8
0
 10
36.55815887451172
 20
68.7680435180664
 30
140.0
 11
29.518329620361328
 21
67.6278305053711
 31
140.0
 12
31.973915100097656
 22
51.70322799682617
 32
140.0
 13
31.973915100097656
 23
51.70322799682617
 33
140.0
  0
3DFACE
  8
0
 10
31.973915100097656
 20
51.70322799682617
 30
140.0
 11
33.88391876220703
 21
51.61409378051758
 31
140.0
 12
35.50616455078125
 22
51.843719482421875
 32
140.0
 13
35.50616455078125
 23
51.843719482421875
 33
140.0
  0
3DFACE
  8
0
 10
35.50616455078125
 20
51.843719482421875
 30
140.0
 11
37.244232177734375
 21
52.52887725830078
 31
140.0
 12
38.261741638183594
 22
53.219390869140625
 32
140.0
 13
38.261741638183594
 23
53.219390869140625
 33
140.0
  0
3DFACE
  8
0
 10
38.261741638183594
 20
53.219390869140625
 30
140.0
 11
39.63405227661133
 21
54.517059326171875
 31
140.0
 12
39.90794372558594
 22
54.8313102722168
 32
140.0
 13
39.90794372558594
 23
54.8313102722168
 33
140.0
  0
3DFACE
  8
0
 10
40.005088806152344
 20
54.974327087402344
 30
140.0
 11
40.5504035949707
 21
55.74311065673828
 31
140.0
 12
40.84148025512695
 22
56.26999282836914
 32
140.0
 13
40.84148025512695
 23
56.26999282836914
 33
140.0
  0
3DFACE
  8
0
 10
38.261741638183594
 20
53.219390869140625
 30
140.0
 11
39.90794372558594
 21
54.8313102722168
 31
140.0
 12
40.005088806152344
 22
54.974327087402344
 32
140.0
 13
40.005088806152344
 23
54.974327087402344
 33
140.0
  0
3DFACE
  8
0
 10
31.973915100097656
 20
51.70322799682617
 30
140.0
 11
35.50616455078125
 21
51.843719482421875
 31
140.0
 12
38.261741638183594
 22
53.219390869140625
 32
140.0
 13
38.261741638183594
 23
53.219390869140625
 33
140.0
  0
3DFACE
  8
0
 10
37.98418426513672
 20
68.14388275146484
 30
140.0
 11
36.55815887451172
 21
68.7680435180664
 31
140.0
 12
31.973915100097656
 22
51.70322799682617
 32
140.0
 13
31.973915100097656
 23
51.70322799682617
 33
140.0
  0
3DFACE
  8
0
 10
40.86134719848633
 20
64.99533081054688
 30
140.0
 11
39.75362014770508
 21
66.7440185546875
 31
140.0
 12
37.98418426513672
 22
68.14388275146484
 32
140.0
 13
37.98418426513672
 23
68.14388275146484
 33
140.0
  0
3DFACE
  8
0
 10
41.767005920410156
 20
61.64672088623047
 30
140.0
 11
41.47233581542969
 21
63.19135665893555
 31
140.0
 12
40.86134719848633
 22
64.99533081054688
 32
140.0
 13
40.86134719848633
 23
64.99533081054688
 33
140.0
  0
3DFACE
  8
0
 10
41.78385925292969
 20
59.4853630065918
 30
140.0
 11
41.805931091308594
 21
60.352535247802734
 31
140.0
 12
41.767005920410156
 22
61.64672088623047
 32
140.0
 13
41.767005920410156
 23
61.64672088623047
 33
140.0
  0
3DFACE
  8
0
 10
41.654823303222656
 20
58.6982307434082
 30
140.0
 11
41.69728088378906
 21
58.89640426635742
 31
140.0
 12
41.78385925292969
 22
59.4853630065918
 32
140.0
 13
41.78385925292969
 23
59.4853630065918
 33
140.0
  0
3DFACE
  8
0
 10
41.376155853271484
 20
57.60246658325195
 30
140.0
 11
41.458961486816406
 21
57.911094665527344
 31
140.0
 12
41.57112121582031
 22
58.407745361328125
 32
140.0
 13
41.57112121582031
 23
58.407745361328125
 33
140.0
  0
3DFACE
  8
0
 10
41.57112121582031
 20
58.407745361328125
 30
140.0
 11
41.654823303222656
 21
58.6982307434082
 31
140.0
 12
41.78385925292969
 22
59.4853630065918
 32
140.0
 13
41.78385925292969
 23
59.4853630065918
 33
140.0
  0
3DFACE
  8
0
 10
41.78385925292969
 20
59.4853630065918
 30
140.0
 11
41.767005920410156
 21
61.64672088623047
 31
140.0
 12
40.86134719848633
 22
64.99533081054688
 32
140.0
 13
40.86134719848633
 23
64.99533081054688
 33
140.0
  0
3DFACE
  8
0
 10
40.86134719848633
 20
64.99533081054688
 30
140.0
 11
37.98418426513672
 21
68.14388275146484
 31
140.0
 12
31.973915100097656
 22
51.70322799682617
 32
140.0
 13
31.973915100097656
 23
51.70322799682617
 33
140.0
  0
3DFACE
  8
0
 10
31.973915100097656
 20
51.70322799682617
 30
140.0
 11
38.261741638183594
 21
53.219390869140625
 31
140.0
 12
40.005088806152344
 22
54.974327087402344
 32
140.0
 13
40.005088806152344
 23
54.974327087402344
 33
140.0
  0
3DFACE
  8
0
 10
40.005088806152344
 20
54.974327087402344
 30
140.0
 11
40.84148025512695
 21
56.26999282836914
 31
140.0
 12
40.88440704345703
 22
56.336814880371094
 32
140.0
 13
40.88440704345703
 23
56.336814880371094
 33
140.0
  0
3DFACE
  8
0
 10
40.88440704345703
 20
56.336814880371094
 30
140.0
 11
40.93458938598633
 21
56.437896728515625
 31
140.0
 12
41.07479476928711
 22
56.766056060791016
 32
140.0
 13
41.07479476928711
 23
56.766056060791016
 33
140.0
  0
3DFACE
  8
0
 10
41.07479476928711
 20
56.766056060791016
 30
140.0
 11
41.219886779785156
 21
57.12395095825195
 31
140.0
 12
41.376155853271484
 22
57.60246658325195
 32
140.0
 13
41.376155853271484
 23
57.60246658325195
 33
140.0
  0
3DFACE
  8
0
 10
41.376155853271484
 20
57.60246658325195
 30
140.0
 11
41.57112121582031
 21
58.407745361328125
 31
140.0
 12
41.78385925292969
 22
59.4853630065918
 32
140.0
 13
41.78385925292969
 23
59.4853630065918
 33
140.0
  0
3DFACE
  8
0
 10
41.78385925292969
 20
59.4853630065918
 30
140.0
 11
40.86134719848633
 21
64.99533081054688
 31
140.0
 12
31.973915100097656
 22
51.70322799682617
 32
140.0
 13
31.973915100097656
 23
51.70322799682617
 33
140.0
  0
3DFACE
  8
0
 10
31.973915100097656
 20
51.70322799682617
 30
140.0
 11
40.005088806152344
 21
54.974327087402344
 31
140.0
 12
40.88440704345703
 22
56.336814880371094
 32
140.0
 13
40.88440704345703
 23
56.336814880371094
 33
140.0
  0
3DFACE
  8
0
 10
40.88440704345703
 20
56.336814880371094
 30
140.0
 11
41.07479476928711
 21
56.766056060791016
 31
140.0
 12
41.376155853271484
 22
57.60246658325195
 32
140.0
 13
41.376155853271484
 23
57.60246658325195
 33
140.0
  0
3DFACE
  8
0
 10
41.376155853271484
 20
57.60246658325195
 30
140.0
 11
41.78385925292969
 21
59.4853630065918
 31
140.0
 12
31.973915100097656
 22
51.70322799682617
 32
140.0
 13
31.973915100097656
 23
51.70322799682617
 33
140.0
  0
3DFACE
  8
0
 10
31.973915100097656
 20
51.70322799682617
 30
140.0
 11
40.88440704345703
 21
56.336814880371094
 31
140.0
 12
41.376155853271484
 22
57.60246658325195
 32
140.0
 13
41.376155853271484
 23
57.60246658325195
 33
140.0
  0
ENDSEC
  0
EOF
