  0
SECTION
  2
HEADER
  9
$ACADVER
  1
AC1009
  9
$INSBASE
 10
0.0
 20
0.0
 30
0.0
  9
$EXTMIN
 10
0.0
 20
0.0
 30
0.0
  9
$EXTMAX
 10
0.0
 20
0.0
 30
0.0
  0
ENDSEC
  0
SECTION
  2
TABLES
  0
TABLE
  2
VPORT
 70
1
  0
VPORT
  2
*ACTIVE
 70
0
 10
0.0
 20
0.0
 11
1.0
 21
1.0
 12
-5.0
 22
1.0
 13
0.0
 23
0.0
 14
0.1
 24
0.1
 15
0.1
 25
0.1
 16
0.0
 26
0.0
 36
1.0
 17
0.0
 27
0.0
 37
0.0
 40
10.0
 41
1.0
 42
50.0
 43
0.0
 44
0.0
 50
0.0
 51
0.0
 71
0
 72
100
 73
1
 74
1
 75
0
 76
0
 77
0
 78
0
  0
ENDTAB
  0
TABLE
  2
LTYPE
 70
8
  0
LTYPE
  2
CONTINUOUS
 70
0
  3
Solid line
 72
65
 73
0
 40
0.0
  0
LTYPE
  2
DOT
 70
0
  3
. . . . . . .
 72
65
 73
2
 40
0.25
 49
0.0
 49
-0.25
  0
LTYPE
  2
DASHED
 70
0
  3
__ __ __ __ __
 72
65
 73
2
 40
0.8
 49
0.5
 49
-0.3
  0
LTYPE
  2
DASHDOT
 70
0
  3
__ . __ . __ .
 72
65
 73
4
 40
1.0
 49
0.5
 49
-0.25
 49
0.0
 49
-0.25
  0
LTYPE
  2
DIVIDE
 70
0
  3
____ . . ____ . . 
 72
65
 73
6
 40
1.25
 49
0.5
 49
-0.25
 49
0.0
 49
-0.25
 49
0.0
 49
-0.25
  0
LTYPE
  2
BORDER
 70
0
  3
__ __ . __ __ . 
 72
65
 73
6
 40
1.75
 49
0.5
 49
-0.25
 49
0.5
 49
-0.25
 49
0.0
 49
-0.25
  0
LTYPE
  2
HIDDEN
 70
0
  3
__ __ __ __ __
 72
65
 73
2
 40
0.4
 49
0.25
 49
-0.25
  0
LTYPE
  2
CENTER
 70
0
  3
____ _ ____ _ __
 72
65
 73
4
 40
2.0
 49
1.25
 49
-0.25
 49
0.25
 49
-0.25
  0
ENDTAB
  0
TABLE
  2
LAYER
 70
1
  0
LAYER
  2
PYDXF
 70
64
 62
7
  6
continuous
  0
ENDTAB
  0
TABLE
  2
STYLE
 70
1
  0
STYLE
  2
STANDARD
 70
0
 40
0
 41
1.0
 50
0.0
 71
0
 42
1
 3
ARIAL.TTF
 4

  0
ENDTAB
  0
TABLE
  2
VIEW
 70
1
  0
VIEW
  2
BF_TOPVIEW
 70
0
 40
120.0
 10
0.0
 20
0.0
 41
200.0
 11
0.0
 21
0.0
 31
1.0
 12
0.0
 22
0.0
 32
0.0
 42
50.0
 43
0.0
 44
0.0
 50
0.0
 71
0
  0
ENDTAB
  0
ENDSEC
  0
SECTION
  2
BLOCKS
  0
ENDSEC
  0
SECTION
  2
ENTITIES
  0
3DFACE
  8
0
 10
-30.80609893798828
 20
-61.088314056396484
 30
142.0
 11
-30.602977752685547
 21
-61.60969924926758
 31
142.0
 12
-30.478313446044922
 22
-61.87080764770508
 32
142.0
 13
-30.478313446044922
 23
-61.87080764770508
 33
142.0
  0
3DFACE
  8
0
 10
-30.410236358642578
 20
-61.988128662109375
 30
142.0
 11
-30.15923500061035
 21
-62.4351806640625
 31
142.0
 12
-30.018966674804688
 22
-62.653316497802734
 32
142.0
 13
-30.018966674804688
 23
-62.653316497802734
 33
142.0
  0
3DFACE
  8
0
 10
-30.80609893798828
 20
-61.088314056396484
 30
142.0
 11
-30.478313446044922
 21
-61.87080764770508
 31
142.0
 12
-30.410236358642578
 22
-61.988128662109375
 32
142.0
 13
-30.410236358642578
 23
-61.988128662109375
 33
142.0
  0
3DFACE
  8
0
 10
-30.958309173583984
 20
-60.601898193359375
 30
142.0
 11
-30.93401336669922
 21
-60.709068298339844
 31
142.0
 12
-30.80609893798828
 22
-61.088314056396484
 32
142.0
 13
-30.80609893798828
 23
-61.088314056396484
 33
142.0
  0
3DFACE
  8
0
 10
-31.149465560913086
 20
-59.5233039855957
 30
142.0
 11
-31.020170211791992
 21
-60.305274963378906
 31
142.0
 12
-30.958309173583984
 22
-60.601898193359375
 32
142.0
 13
-30.958309173583984
 23
-60.601898193359375
 33
142.0
  0
3DFACE
  8
0
 10
-31.265872955322266
 20
-58.30839538574219
 30
142.0
 11
-31.251888275146484
 21
-58.74080276489258
 31
142.0
 12
-31.2048397064209
 22
-58.986446380615234
 32
142.0
 13
-31.2048397064209
 23
-58.986446380615234
 33
142.0
  0
3DFACE
  8
0
 10
-31.2048397064209
 20
-58.986446380615234
 30
142.0
 11
-31.149465560913086
 21
-59.5233039855957
 31
142.0
 12
-30.958309173583984
 22
-60.601898193359375
 32
142.0
 13
-30.958309173583984
 23
-60.601898193359375
 33
142.0
  0
3DFACE
  8
0
 10
-30.958309173583984
 20
-60.601898193359375
 30
142.0
 11
-30.80609893798828
 21
-61.088314056396484
 31
142.0
 12
-30.410236358642578
 22
-61.988128662109375
 32
142.0
 13
-30.410236358642578
 23
-61.988128662109375
 33
142.0
  0
3DFACE
  8
0
 10
-30.410236358642578
 20
-61.988128662109375
 30
142.0
 11
-30.018966674804688
 21
-62.653316497802734
 31
142.0
 12
-29.850936889648438
 22
-62.88444519042969
 32
142.0
 13
-29.850936889648438
 23
-62.88444519042969
 33
142.0
  0
3DFACE
  8
0
 10
-29.850936889648438
 20
-62.88444519042969
 30
142.0
 11
-29.298702239990234
 21
-63.440608978271484
 31
142.0
 12
-29.04164695739746
 22
-63.64204406738281
 32
142.0
 13
-29.04164695739746
 23
-63.64204406738281
 33
142.0
  0
3DFACE
  8
0
 10
-29.04164695739746
 20
-63.64204406738281
 30
142.0
 11
-28.688852310180664
 21
-63.87644958496094
 31
142.0
 12
-28.281675338745117
 22
-64.13417053222656
 32
142.0
 13
-28.281675338745117
 23
-64.13417053222656
 33
142.0
  0
3DFACE
  8
0
 10
-27.485933303833008
 20
-64.48748779296875
 30
142.0
 11
-27.0621337890625
 21
-64.71800231933594
 31
142.0
 12
-26.716672897338867
 22
-64.8583755493164
 32
142.0
 13
-26.716672897338867
 23
-64.8583755493164
 33
142.0
  0
3DFACE
  8
0
 10
-29.04164695739746
 20
-63.64204406738281
 30
142.0
 11
-28.281675338745117
 21
-64.13417053222656
 31
142.0
 12
-27.485933303833008
 22
-64.48748779296875
 32
142.0
 13
-27.485933303833008
 23
-64.48748779296875
 33
142.0
  0
3DFACE
  8
0
 10
-30.410236358642578
 20
-61.988128662109375
 30
142.0
 11
-29.850936889648438
 21
-62.88444519042969
 31
142.0
 12
-29.04164695739746
 22
-63.64204406738281
 32
142.0
 13
-29.04164695739746
 23
-63.64204406738281
 33
142.0
  0
3DFACE
  8
0
 10
-31.2048397064209
 20
-58.986446380615234
 30
142.0
 11
-30.958309173583984
 21
-60.601898193359375
 31
142.0
 12
-30.410236358642578
 22
-61.988128662109375
 32
142.0
 13
-30.410236358642578
 23
-61.988128662109375
 33
142.0
  0
3DFACE
  8
0
 10
-31.28953742980957
 20
-57.95829391479492
 30
142.0
 11
-31.265872955322266
 21
-58.30839538574219
 31
142.0
 12
-31.2048397064209
 22
-58.986446380615234
 32
142.0
 13
-31.2048397064209
 23
-58.986446380615234
 33
142.0
  0
3DFACE
  8
0
 10
-31.173809051513672
 20
-56.85518264770508
 30
142.0
 11
-31.224609375
 21
-57.16824722290039
 31
142.0
 12
-31.23067855834961
 22
-57.57408905029297
 32
142.0
 13
-31.23067855834961
 23
-57.57408905029297
 33
142.0
  0
3DFACE
  8
0
 10
-31.23067855834961
 20
-57.57408905029297
 30
142.0
 11
-31.28953742980957
 21
-57.95829391479492
 31
142.0
 12
-31.2048397064209
 22
-58.986446380615234
 32
142.0
 13
-31.2048397064209
 23
-58.986446380615234
 33
142.0
  0
3DFACE
  8
0
 10
-31.2048397064209
 20
-58.986446380615234
 30
142.0
 11
-30.410236358642578
 21
-61.988128662109375
 31
142.0
 12
-29.04164695739746
 22
-63.64204406738281
 32
142.0
 13
-29.04164695739746
 23
-63.64204406738281
 33
142.0
  0
3DFACE
  8
0
 10
-29.04164695739746
 20
-63.64204406738281
 30
142.0
 11
-27.485933303833008
 21
-64.48748779296875
 31
142.0
 12
-26.716672897338867
 22
-64.8583755493164
 32
142.0
 13
-26.716672897338867
 23
-64.8583755493164
 33
142.0
  0
3DFACE
  8
0
 10
-26.716672897338867
 20
-64.8583755493164
 30
142.0
 11
-26.383407592773438
 21
-64.93997192382812
 31
142.0
 12
-26.017099380493164
 22
-65.014892578125
 32
142.0
 13
-26.017099380493164
 23
-65.014892578125
 33
142.0
  0
3DFACE
  8
0
 10
-26.017099380493164
 20
-65.014892578125
 30
142.0
 11
-25.934167861938477
 21
-65.03469848632812
 31
142.0
 12
-25.89426612854004
 22
-65.04072570800781
 32
142.0
 13
-25.89426612854004
 23
-65.04072570800781
 33
142.0
  0
3DFACE
  8
0
 10
-25.89426612854004
 20
-65.04072570800781
 30
142.0
 11
-25.151662826538086
 21
-65.19583892822266
 31
142.0
 12
-24.85146141052246
 22
-65.23631286621094
 32
142.0
 13
-24.85146141052246
 23
-65.23631286621094
 33
142.0
  0
3DFACE
  8
0
 10
-24.85146141052246
 20
-65.23631286621094
 30
142.0
 11
-24.369165420532227
 21
-65.27996826171875
 31
142.0
 12
-24.06093978881836
 22
-65.25089263916016
 32
142.0
 13
-24.06093978881836
 23
-65.25089263916016
 33
142.0
  0
3DFACE
  8
0
 10
-24.06093978881836
 20
-65.25089263916016
 30
142.0
 11
-23.58665657043457
 21
-65.26968383789062
 31
142.0
 12
-23.234010696411133
 22
-65.20756530761719
 32
142.0
 13
-23.234010696411133
 23
-65.20756530761719
 33
142.0
  0
3DFACE
  8
0
 10
-23.234010696411133
 20
-65.20756530761719
 30
142.0
 11
-22.804155349731445
 21
-65.15650177001953
 31
142.0
 12
-22.02165412902832
 22
-64.92864227294922
 32
142.0
 13
-22.02165412902832
 23
-64.92864227294922
 33
142.0
  0
3DFACE
  8
0
 10
-21.677722930908203
 20
-64.78652954101562
 30
142.0
 11
-21.260412216186523
 21
-64.64889526367188
 31
142.0
 12
-20.82219123840332
 22
-64.46978759765625
 32
142.0
 13
-20.82219123840332
 23
-64.46978759765625
 33
142.0
  0
3DFACE
  8
0
 10
-23.234010696411133
 20
-65.20756530761719
 30
142.0
 11
-22.02165412902832
 21
-64.92864227294922
 31
142.0
 12
-21.677722930908203
 22
-64.78652954101562
 32
142.0
 13
-21.677722930908203
 23
-64.78652954101562
 33
142.0
  0
3DFACE
  8
0
 10
-24.85146141052246
 20
-65.23631286621094
 30
142.0
 11
-24.06093978881836
 21
-65.25089263916016
 31
142.0
 12
-23.234010696411133
 22
-65.20756530761719
 32
142.0
 13
-23.234010696411133
 23
-65.20756530761719
 33
142.0
  0
3DFACE
  8
0
 10
-26.017099380493164
 20
-65.014892578125
 30
142.0
 11
-25.89426612854004
 21
-65.04072570800781
 31
142.0
 12
-24.85146141052246
 22
-65.23631286621094
 32
142.0
 13
-24.85146141052246
 23
-65.23631286621094
 33
142.0
  0
3DFACE
  8
0
 10
-29.04164695739746
 20
-63.64204406738281
 30
142.0
 11
-26.716672897338867
 21
-64.8583755493164
 31
142.0
 12
-26.017099380493164
 22
-65.014892578125
 32
142.0
 13
-26.017099380493164
 23
-65.014892578125
 33
142.0
  0
3DFACE
  8
0
 10
-31.23067855834961
 20
-57.57408905029297
 30
142.0
 11
-31.2048397064209
 21
-58.986446380615234
 31
142.0
 12
-29.04164695739746
 22
-63.64204406738281
 32
142.0
 13
-29.04164695739746
 23
-63.64204406738281
 33
142.0
  0
3DFACE
  8
0
 10
-31.119796752929688
 20
-56.3932991027832
 30
142.0
 11
-31.173809051513672
 21
-56.85518264770508
 31
142.0
 12
-31.23067855834961
 22
-57.57408905029297
 32
142.0
 13
-31.23067855834961
 23
-57.57408905029297
 33
142.0
  0
3DFACE
  8
0
 10
-30.696826934814453
 20
-54.82828903198242
 30
142.0
 11
-30.93733024597168
 21
-55.61079025268555
 31
142.0
 12
-31.024301528930664
 22
-56.02197265625
 32
142.0
 13
-31.024301528930664
 23
-56.02197265625
 33
142.0
  0
3DFACE
  8
0
 10
-31.024301528930664
 20
-56.02197265625
 30
142.0
 11
-31.119796752929688
 21
-56.3932991027832
 31
142.0
 12
-31.23067855834961
 22
-57.57408905029297
 32
142.0
 13
-31.23067855834961
 23
-57.57408905029297
 33
142.0
  0
3DFACE
  8
0
 10
-31.23067855834961
 20
-57.57408905029297
 30
142.0
 11
-29.04164695739746
 21
-63.64204406738281
 31
142.0
 12
-26.017099380493164
 22
-65.014892578125
 32
142.0
 13
-26.017099380493164
 23
-65.014892578125
 33
142.0
  0
3DFACE
  8
0
 10
-26.017099380493164
 20
-65.014892578125
 30
142.0
 11
-24.85146141052246
 21
-65.23631286621094
 31
142.0
 12
-23.234010696411133
 22
-65.20756530761719
 32
142.0
 13
-23.234010696411133
 23
-65.20756530761719
 33
142.0
  0
3DFACE
  8
0
 10
-23.234010696411133
 20
-65.20756530761719
 30
142.0
 11
-21.677722930908203
 21
-64.78652954101562
 31
142.0
 12
-20.82219123840332
 22
-64.46978759765625
 32
142.0
 13
-20.82219123840332
 23
-64.46978759765625
 33
142.0
  0
3DFACE
  8
0
 10
-20.82219123840332
 20
-64.46978759765625
 30
142.0
 11
-20.456647872924805
 21
-64.27731323242188
 31
142.0
 12
-19.6633358001709
 22
-63.79875946044922
 32
142.0
 13
-19.6633358001709
 23
-63.79875946044922
 33
142.0
  0
3DFACE
  8
0
 10
-19.253372192382812
 20
-63.52590560913086
 30
142.0
 11
-18.89164161682129
 21
-63.2937126159668
 31
142.0
 12
-18.52031898498535
 22
-62.97259521484375
 32
142.0
 13
-18.52031898498535
 23
-62.97259521484375
 33
142.0
  0
3DFACE
  8
0
 10
-20.82219123840332
 20
-64.46978759765625
 30
142.0
 11
-19.6633358001709
 21
-63.79875946044922
 31
142.0
 12
-19.253372192382812
 22
-63.52590560913086
 32
142.0
 13
-19.253372192382812
 23
-63.52590560913086
 33
142.0
  0
3DFACE
  8
0
 10
-26.017099380493164
 20
-65.014892578125
 30
142.0
 11
-23.234010696411133
 21
-65.20756530761719
 31
142.0
 12
-20.82219123840332
 22
-64.46978759765625
 32
142.0
 13
-20.82219123840332
 23
-64.46978759765625
 33
142.0
  0
3DFACE
  8
0
 10
-31.024301528930664
 20
-56.02197265625
 30
142.0
 11
-31.23067855834961
 21
-57.57408905029297
 31
142.0
 12
-26.017099380493164
 22
-65.014892578125
 32
142.0
 13
-26.017099380493164
 23
-65.014892578125
 33
142.0
  0
3DFACE
  8
0
 10
-30.626293182373047
 20
-54.68397521972656
 30
142.0
 11
-30.696826934814453
 21
-54.82828903198242
 31
142.0
 12
-31.024301528930664
 22
-56.02197265625
 32
142.0
 13
-31.024301528930664
 23
-56.02197265625
 33
142.0
  0
3DFACE
  8
0
 10
-30.083877563476562
 20
-53.26327896118164
 30
142.0
 11
-30.40559196472168
 21
-54.0457878112793
 31
142.0
 12
-30.562957763671875
 22
-54.51816940307617
 32
142.0
 13
-30.562957763671875
 23
-54.51816940307617
 33
142.0
  0
3DFACE
  8
0
 10
-30.562957763671875
 20
-54.51816940307617
 30
142.0
 11
-30.626293182373047
 21
-54.68397521972656
 31
142.0
 12
-31.024301528930664
 22
-56.02197265625
 32
142.0
 13
-31.024301528930664
 23
-56.02197265625
 33
142.0
  0
3DFACE
  8
0
 10
-31.024301528930664
 20
-56.02197265625
 30
142.0
 11
-26.017099380493164
 21
-65.014892578125
 31
142.0
 12
-20.82219123840332
 22
-64.46978759765625
 32
142.0
 13
-20.82219123840332
 23
-64.46978759765625
 33
142.0
  0
3DFACE
  8
0
 10
-20.82219123840332
 20
-64.46978759765625
 30
142.0
 11
-19.253372192382812
 21
-63.52590560913086
 31
142.0
 12
-18.52031898498535
 22
-62.97259521484375
 32
142.0
 13
-18.52031898498535
 23
-62.97259521484375
 33
142.0
  0
3DFACE
  8
0
 10
-18.52031898498535
 20
-62.97259521484375
 30
142.0
 11
-18.109140396118164
 21
-62.62711715698242
 31
142.0
 12
-18.02561378479004
 22
-62.54358673095703
 32
142.0
 13
-18.02561378479004
 23
-62.54358673095703
 33
142.0
  0
3DFACE
  8
0
 10
-17.904199600219727
 20
-62.41455841064453
 30
142.0
 11
-17.703983306884766
 21
-62.216976165771484
 31
142.0
 12
-17.2793025970459
 22
-61.72397232055664
 32
142.0
 13
-17.2793025970459
 23
-61.72397232055664
 33
142.0
  0
3DFACE
  8
0
 10
-18.52031898498535
 20
-62.97259521484375
 30
142.0
 11
-18.02561378479004
 21
-62.54358673095703
 31
142.0
 12
-17.904199600219727
 22
-62.41455841064453
 32
142.0
 13
-17.904199600219727
 23
-62.41455841064453
 33
142.0
  0
3DFACE
  8
0
 10
-31.024301528930664
 20
-56.02197265625
 30
142.0
 11
-20.82219123840332
 21
-64.46978759765625
 31
142.0
 12
-18.52031898498535
 22
-62.97259521484375
 32
142.0
 13
-18.52031898498535
 23
-62.97259521484375
 33
142.0
  0
3DFACE
  8
0
 10
-30.083877563476562
 20
-53.26327896118164
 30
142.0
 11
-30.562957763671875
 21
-54.51816940307617
 31
142.0
 12
-31.024301528930664
 22
-56.02197265625
 32
142.0
 13
-31.024301528930664
 23
-56.02197265625
 33
142.0
  0
3DFACE
  8
0
 10
-29.392913818359375
 20
-52.109458923339844
 30
142.0
 11
-29.674041748046875
 21
-52.53204345703125
 31
142.0
 12
-29.886709213256836
 22
-52.94322204589844
 32
142.0
 13
-29.886709213256836
 23
-52.94322204589844
 33
142.0
  0
3DFACE
  8
0
 10
-29.886709213256836
 20
-52.94322204589844
 30
142.0
 11
-30.083877563476562
 21
-53.26327896118164
 31
142.0
 12
-31.024301528930664
 22
-56.02197265625
 32
142.0
 13
-31.024301528930664
 23
-56.02197265625
 33
142.0
  0
3DFACE
  8
0
 10
-31.024301528930664
 20
-56.02197265625
 30
142.0
 11
-18.52031898498535
 21
-62.97259521484375
 31
142.0
 12
-17.904199600219727
 22
-62.41455841064453
 32
142.0
 13
-17.904199600219727
 23
-62.41455841064453
 33
142.0
  0
3DFACE
  8
0
 10
-17.904199600219727
 20
-62.41455841064453
 30
142.0
 11
-17.2793025970459
 21
-61.72397232055664
 31
142.0
 12
-17.12257957458496
 22
-61.52730941772461
 32
142.0
 13
-17.12257957458496
 23
-61.52730941772461
 33
142.0
  0
3DFACE
  8
0
 10
-17.12257957458496
 20
-61.52730941772461
 30
142.0
 11
-16.50623321533203
 21
-60.63522720336914
 31
142.0
 12
-16.362648010253906
 22
-60.30581283569336
 32
142.0
 13
-16.362648010253906
 23
-60.30581283569336
 33
142.0
  0
3DFACE
  8
0
 10
-16.220762252807617
 20
-59.934486389160156
 30
142.0
 11
-16.03968048095703
 21
-59.5233039855957
 31
142.0
 12
-15.873929023742676
 22
-59.0591926574707
 32
142.0
 13
-15.873929023742676
 23
-59.0591926574707
 33
142.0
  0
3DFACE
  8
0
 10
-17.12257957458496
 20
-61.52730941772461
 30
142.0
 11
-16.362648010253906
 21
-60.30581283569336
 31
142.0
 12
-16.220762252807617
 22
-59.934486389160156
 32
142.0
 13
-16.220762252807617
 23
-59.934486389160156
 33
142.0
  0
3DFACE
  8
0
 10
-31.024301528930664
 20
-56.02197265625
 30
142.0
 11
-17.904199600219727
 21
-62.41455841064453
 31
142.0
 12
-17.12257957458496
 22
-61.52730941772461
 32
142.0
 13
-17.12257957458496
 23
-61.52730941772461
 33
142.0
  0
3DFACE
  8
0
 10
-29.392913818359375
 20
-52.109458923339844
 30
142.0
 11
-29.886709213256836
 21
-52.94322204589844
 31
142.0
 12
-31.024301528930664
 22
-56.02197265625
 32
142.0
 13
-31.024301528930664
 23
-56.02197265625
 33
142.0
  0
3DFACE
  8
0
 10
-28.840166091918945
 20
-51.28710174560547
 30
142.0
 11
-29.13536834716797
 21
-51.680538177490234
 31
142.0
 12
-29.392913818359375
 22
-52.109458923339844
 32
142.0
 13
-29.392913818359375
 23
-52.109458923339844
 33
142.0
  0
3DFACE
  8
0
 10
-27.880279541015625
 20
-50.39612579345703
 30
142.0
 11
-28.281675338745117
 21
-50.68876647949219
 31
142.0
 12
-28.41059684753418
 22
-50.83008575439453
 32
142.0
 13
-28.41059684753418
 23
-50.83008575439453
 33
142.0
  0
3DFACE
  8
0
 10
-28.41059684753418
 20
-50.83008575439453
 30
142.0
 11
-28.840166091918945
 21
-51.28710174560547
 31
142.0
 12
-29.392913818359375
 22
-52.109458923339844
 32
142.0
 13
-29.392913818359375
 23
-52.109458923339844
 33
142.0
  0
3DFACE
  8
0
 10
-29.392913818359375
 20
-52.109458923339844
 30
142.0
 11
-31.024301528930664
 21
-56.02197265625
 31
142.0
 12
-17.12257957458496
 22
-61.52730941772461
 32
142.0
 13
-17.12257957458496
 23
-61.52730941772461
 33
142.0
  0
3DFACE
  8
0
 10
-17.12257957458496
 20
-61.52730941772461
 30
142.0
 11
-16.220762252807617
 21
-59.934486389160156
 31
142.0
 12
-15.873929023742676
 22
-59.0591926574707
 32
142.0
 13
-15.873929023742676
 23
-59.0591926574707
 33
142.0
  0
3DFACE
  8
0
 10
-15.873929023742676
 20
-59.0591926574707
 30
142.0
 11
-15.752643585205078
 21
-58.687870025634766
 31
142.0
 12
-15.645256996154785
 22
-58.329620361328125
 32
142.0
 13
-15.645256996154785
 23
-58.329620361328125
 33
142.0
  0
3DFACE
  8
0
 10
-15.645256996154785
 20
-58.329620361328125
 30
142.0
 11
-15.560958862304688
 21
-57.95829391479492
 31
142.0
 12
-15.496673583984375
 22
-57.58697509765625
 32
142.0
 13
-15.496673583984375
 23
-57.58697509765625
 33
142.0
  0
3DFACE
  8
0
 10
-15.496673583984375
 20
-57.58697509765625
 30
142.0
 11
-15.418888092041016
 21
-57.17580032348633
 31
142.0
 12
-15.385072708129883
 22
-56.80447769165039
 32
142.0
 13
-15.385072708129883
 23
-56.80447769165039
 33
142.0
  0
3DFACE
  8
0
 10
-15.385072708129883
 20
-56.80447769165039
 30
142.0
 11
-15.29603099822998
 21
-56.3932991027832
 31
142.0
 12
-15.212854385375977
 22
-55.61079025268555
 32
142.0
 13
-15.212854385375977
 23
-55.61079025268555
 33
142.0
  0
3DFACE
  8
0
 10
-15.202927589416504
 20
-55.23946762084961
 30
142.0
 11
-15.172184944152832
 21
-54.82828903198242
 31
142.0
 12
-15.186972618103027
 22
-54.456966400146484
 32
142.0
 13
-15.186972618103027
 23
-54.456966400146484
 33
142.0
  0
3DFACE
  8
0
 10
-15.385072708129883
 20
-56.80447769165039
 30
142.0
 11
-15.212854385375977
 21
-55.61079025268555
 31
142.0
 12
-15.202927589416504
 22
-55.23946762084961
 32
142.0
 13
-15.202927589416504
 23
-55.23946762084961
 33
142.0
  0
3DFACE
  8
0
 10
-15.645256996154785
 20
-58.329620361328125
 30
142.0
 11
-15.496673583984375
 21
-57.58697509765625
 31
142.0
 12
-15.385072708129883
 22
-56.80447769165039
 32
142.0
 13
-15.385072708129883
 23
-56.80447769165039
 33
142.0
  0
3DFACE
  8
0
 10
-17.12257957458496
 20
-61.52730941772461
 30
142.0
 11
-15.873929023742676
 21
-59.0591926574707
 31
142.0
 12
-15.645256996154785
 22
-58.329620361328125
 32
142.0
 13
-15.645256996154785
 23
-58.329620361328125
 33
142.0
  0
3DFACE
  8
0
 10
-28.41059684753418
 20
-50.83008575439453
 30
142.0
 11
-29.392913818359375
 21
-52.109458923339844
 31
142.0
 12
-17.12257957458496
 22
-61.52730941772461
 32
142.0
 13
-17.12257957458496
 23
-61.52730941772461
 33
142.0
  0
3DFACE
  8
0
 10
-26.716672897338867
 20
-49.554420471191406
 30
142.0
 11
-27.48612403869629
 21
-50.04902267456055
 31
142.0
 12
-27.880279541015625
 22
-50.39612579345703
 32
142.0
 13
-27.880279541015625
 23
-50.39612579345703
 33
142.0
  0
3DFACE
  8
0
 10
-27.880279541015625
 20
-50.39612579345703
 30
142.0
 11
-28.41059684753418
 21
-50.83008575439453
 31
142.0
 12
-17.12257957458496
 22
-61.52730941772461
 32
142.0
 13
-17.12257957458496
 23
-61.52730941772461
 33
142.0
  0
3DFACE
  8
0
 10
-17.12257957458496
 20
-61.52730941772461
 30
142.0
 11
-15.645256996154785
 21
-58.329620361328125
 31
142.0
 12
-15.385072708129883
 22
-56.80447769165039
 32
142.0
 13
-15.385072708129883
 23
-56.80447769165039
 33
142.0
  0
3DFACE
  8
0
 10
-15.385072708129883
 20
-56.80447769165039
 30
142.0
 11
-15.202927589416504
 21
-55.23946762084961
 31
142.0
 12
-15.186972618103027
 22
-54.456966400146484
 32
142.0
 13
-15.186972618103027
 23
-54.456966400146484
 33
142.0
  0
3DFACE
  8
0
 10
-15.186972618103027
 20
-54.456966400146484
 30
142.0
 11
-15.181702613830566
 21
-54.0457878112793
 31
142.0
 12
-15.21097469329834
 22
-53.26327896118164
 32
142.0
 13
-15.21097469329834
 23
-53.26327896118164
 33
142.0
  0
3DFACE
  8
0
 10
-15.318434715270996
 20
-52.8919563293457
 30
142.0
 11
-15.393296241760254
 21
-52.480777740478516
 31
142.0
 12
-15.532633781433105
 22
-52.069602966308594
 32
142.0
 13
-15.532633781433105
 23
-52.069602966308594
 33
142.0
  0
3DFACE
  8
0
 10
-15.186972618103027
 20
-54.456966400146484
 30
142.0
 11
-15.21097469329834
 21
-53.26327896118164
 31
142.0
 12
-15.318434715270996
 22
-52.8919563293457
 32
142.0
 13
-15.318434715270996
 23
-52.8919563293457
 33
142.0
  0
3DFACE
  8
0
 10
-17.12257957458496
 20
-61.52730941772461
 30
142.0
 11
-15.385072708129883
 21
-56.80447769165039
 31
142.0
 12
-15.186972618103027
 22
-54.456966400146484
 32
142.0
 13
-15.186972618103027
 23
-54.456966400146484
 33
142.0
  0
3DFACE
  8
0
 10
-26.716672897338867
 20
-49.554420471191406
 30
142.0
 11
-27.880279541015625
 21
-50.39612579345703
 31
142.0
 12
-17.12257957458496
 22
-61.52730941772461
 32
142.0
 13
-17.12257957458496
 23
-61.52730941772461
 33
142.0
  0
3DFACE
  8
0
 10
-25.748510360717773
 20
-49.07624816894531
 30
142.0
 11
-25.934167861938477
 21
-49.147945404052734
 31
142.0
 12
-26.531015396118164
 22
-49.4698371887207
 32
142.0
 13
-26.531015396118164
 23
-49.4698371887207
 33
142.0
  0
3DFACE
  8
0
 10
-26.531015396118164
 20
-49.4698371887207
 30
142.0
 11
-26.716672897338867
 21
-49.554420471191406
 31
142.0
 12
-17.12257957458496
 22
-61.52730941772461
 32
142.0
 13
-17.12257957458496
 23
-61.52730941772461
 33
142.0
  0
3DFACE
  8
0
 10
-17.12257957458496
 20
-61.52730941772461
 30
142.0
 11
-15.186972618103027
 21
-54.456966400146484
 31
142.0
 12
-15.318434715270996
 22
-52.8919563293457
 32
142.0
 13
-15.318434715270996
 23
-52.8919563293457
 33
142.0
  0
3DFACE
  8
0
 10
-15.318434715270996
 20
-52.8919563293457
 30
142.0
 11
-15.532633781433105
 21
-52.069602966308594
 31
142.0
 12
-15.668728828430176
 22
-51.73249816894531
 32
142.0
 13
-15.668728828430176
 23
-51.73249816894531
 33
142.0
  0
3DFACE
  8
0
 10
-15.668728828430176
 20
-51.73249816894531
 30
142.0
 11
-15.852120399475098
 21
-51.321311950683594
 31
142.0
 12
-16.068445205688477
 22
-50.915775299072266
 32
142.0
 13
-16.068445205688477
 23
-50.915775299072266
 33
142.0
  0
3DFACE
  8
0
 10
-16.068445205688477
 20
-50.915775299072266
 30
142.0
 11
-16.544132232666016
 21
-50.2217903137207
 31
142.0
 12
-17.326637268066406
 22
-49.4206657409668
 32
142.0
 13
-17.326637268066406
 23
-49.4206657409668
 33
142.0
  0
3DFACE
  8
0
 10
-17.618396759033203
 20
-49.19434356689453
 30
142.0
 11
-18.097597122192383
 21
-48.80255126953125
 31
142.0
 12
-18.502187728881836
 22
-48.58910369873047
 32
142.0
 13
-18.502187728881836
 23
-48.58910369873047
 33
142.0
  0
3DFACE
  8
0
 10
-16.068445205688477
 20
-50.915775299072266
 30
142.0
 11
-17.326637268066406
 21
-49.4206657409668
 31
142.0
 12
-17.618396759033203
 22
-49.19434356689453
 32
142.0
 13
-17.618396759033203
 23
-49.19434356689453
 33
142.0
  0
3DFACE
  8
0
 10
-15.318434715270996
 20
-52.8919563293457
 30
142.0
 11
-15.668728828430176
 21
-51.73249816894531
 31
142.0
 12
-16.068445205688477
 22
-50.915775299072266
 32
142.0
 13
-16.068445205688477
 23
-50.915775299072266
 33
142.0
  0
3DFACE
  8
0
 10
-26.531015396118164
 20
-49.4698371887207
 30
142.0
 11
-17.12257957458496
 21
-61.52730941772461
 31
142.0
 12
-15.318434715270996
 22
-52.8919563293457
 32
142.0
 13
-15.318434715270996
 23
-52.8919563293457
 33
142.0
  0
3DFACE
  8
0
 10
-25.151662826538086
 20
-48.78919982910156
 30
142.0
 11
-25.748510360717773
 21
-49.07624816894531
 31
142.0
 12
-26.531015396118164
 22
-49.4698371887207
 32
142.0
 13
-26.531015396118164
 23
-49.4698371887207
 33
142.0
  0
3DFACE
  8
0
 10
-23.58665657043457
 20
-48.23701477050781
 30
142.0
 11
-24.369165420532227
 21
-48.5058479309082
 31
142.0
 12
-24.55358123779297
 22
-48.5789680480957
 32
142.0
 13
-24.55358123779297
 23
-48.5789680480957
 33
142.0
  0
3DFACE
  8
0
 10
-24.55358123779297
 20
-48.5789680480957
 30
142.0
 11
-25.151662826538086
 21
-48.78919982910156
 31
142.0
 12
-26.531015396118164
 22
-49.4698371887207
 32
142.0
 13
-26.531015396118164
 23
-49.4698371887207
 33
142.0
  0
3DFACE
  8
0
 10
-26.531015396118164
 20
-49.4698371887207
 30
142.0
 11
-15.318434715270996
 21
-52.8919563293457
 31
142.0
 12
-16.068445205688477
 22
-50.915775299072266
 32
142.0
 13
-16.068445205688477
 23
-50.915775299072266
 33
142.0
  0
3DFACE
  8
0
 10
-16.068445205688477
 20
-50.915775299072266
 30
142.0
 11
-17.618396759033203
 21
-49.19434356689453
 31
142.0
 12
-18.502187728881836
 22
-48.58910369873047
 32
142.0
 13
-18.502187728881836
 23
-48.58910369873047
 33
142.0
  0
3DFACE
  8
0
 10
-18.502187728881836
 20
-48.58910369873047
 30
142.0
 11
-18.89164161682129
 21
-48.39188003540039
 31
142.0
 12
-19.262964248657227
 22
-48.24309158325195
 32
142.0
 13
-19.262964248657227
 23
-48.24309158325195
 33
142.0
  0
3DFACE
  8
0
 10
-19.262964248657227
 20
-48.24309158325195
 30
142.0
 11
-19.674144744873047
 21
-48.10193634033203
 31
142.0
 12
-20.081544876098633
 22
-48.01056671142578
 32
142.0
 13
-20.081544876098633
 23
-48.01056671142578
 33
142.0
  0
3DFACE
  8
0
 10
-20.081544876098633
 20
-48.01056671142578
 30
142.0
 11
-20.456647872924805
 21
-47.936954498291016
 31
142.0
 12
-20.913692474365234
 22
-47.92316818237305
 32
142.0
 13
-20.913692474365234
 23
-47.92316818237305
 33
142.0
  0
3DFACE
  8
0
 10
-20.913692474365234
 20
-47.92316818237305
 30
142.0
 11
-21.23914909362793
 21
-47.8891716003418
 31
142.0
 12
-21.564607620239258
 22
-47.9014892578125
 32
142.0
 13
-21.564607620239258
 23
-47.9014892578125
 33
142.0
  0
3DFACE
  8
0
 10
-21.564607620239258
 20
-47.9014892578125
 30
142.0
 11
-22.02165412902832
 21
-47.9060173034668
 31
142.0
 12
-22.3797607421875
 22
-47.992889404296875
 32
142.0
 13
-22.3797607421875
 23
-47.992889404296875
 33
142.0
  0
3DFACE
  8
0
 10
-22.3797607421875
 20
-47.992889404296875
 30
142.0
 11
-22.804155349731445
 21
-48.04005813598633
 31
142.0
 12
-23.58665657043457
 22
-48.23701477050781
 32
142.0
 13
-23.58665657043457
 23
-48.23701477050781
 33
142.0
  0
3DFACE
  8
0
 10
-23.58665657043457
 20
-48.23701477050781
 30
142.0
 11
-24.55358123779297
 21
-48.5789680480957
 31
142.0
 12
-26.531015396118164
 22
-49.4698371887207
 32
142.0
 13
-26.531015396118164
 23
-49.4698371887207
 33
142.0
  0
3DFACE
  8
0
 10
-26.531015396118164
 20
-49.4698371887207
 30
142.0
 11
-16.068445205688477
 21
-50.915775299072266
 31
142.0
 12
-18.502187728881836
 22
-48.58910369873047
 32
142.0
 13
-18.502187728881836
 23
-48.58910369873047
 33
142.0
  0
3DFACE
  8
0
 10
-18.502187728881836
 20
-48.58910369873047
 30
142.0
 11
-19.262964248657227
 21
-48.24309158325195
 31
142.0
 12
-20.081544876098633
 22
-48.01056671142578
 32
142.0
 13
-20.081544876098633
 23
-48.01056671142578
 33
142.0
  0
3DFACE
  8
0
 10
-20.081544876098633
 20
-48.01056671142578
 30
142.0
 11
-20.913692474365234
 21
-47.92316818237305
 31
142.0
 12
-21.564607620239258
 22
-47.9014892578125
 32
142.0
 13
-21.564607620239258
 23
-47.9014892578125
 33
142.0
  0
3DFACE
  8
0
 10
-21.564607620239258
 20
-47.9014892578125
 30
142.0
 11
-22.3797607421875
 21
-47.992889404296875
 31
142.0
 12
-23.58665657043457
 22
-48.23701477050781
 32
142.0
 13
-23.58665657043457
 23
-48.23701477050781
 33
142.0
  0
3DFACE
  8
0
 10
-23.58665657043457
 20
-48.23701477050781
 30
142.0
 11
-26.531015396118164
 21
-49.4698371887207
 31
142.0
 12
-18.502187728881836
 22
-48.58910369873047
 32
142.0
 13
-18.502187728881836
 23
-48.58910369873047
 33
142.0
  0
3DFACE
  8
0
 10
-18.502187728881836
 20
-48.58910369873047
 30
142.0
 11
-20.081544876098633
 21
-48.01056671142578
 31
142.0
 12
-21.564607620239258
 22
-47.9014892578125
 32
142.0
 13
-21.564607620239258
 23
-47.9014892578125
 33
142.0
  0
3DFACE
  8
0
 10
-18.502187728881836
 20
-48.58910369873047
 30
142.0
 11
-21.564607620239258
 21
-47.9014892578125
 31
142.0
 12
-23.58665657043457
 22
-48.23701477050781
 32
142.0
 13
-23.58665657043457
 23
-48.23701477050781
 33
142.0
  0
3DFACE
  8
0
 10
28.393661499023438
 20
-54.72507858276367
 30
142.0
 11
28.398788452148438
 21
-54.73406219482422
 31
142.0
 12
28.404409408569336
 22
-54.74354934692383
 32
142.0
 13
28.404409408569336
 23
-54.74354934692383
 33
142.0
  0
3DFACE
  8
0
 10
28.404409408569336
 20
-54.74354934692383
 30
142.0
 11
28.446123123168945
 21
-54.80556869506836
 31
142.0
 12
28.85177993774414
 22
-55.376075744628906
 32
142.0
 13
28.85177993774414
 23
-55.376075744628906
 33
142.0
  0
3DFACE
  8
0
 10
28.85177993774414
 20
-55.376075744628906
 30
142.0
 11
29.029634475708008
 21
-55.584449768066406
 31
142.0
 12
29.2404842376709
 22
-55.75654983520508
 32
142.0
 13
29.2404842376709
 23
-55.75654983520508
 33
142.0
  0
3DFACE
  8
0
 10
29.2404842376709
 20
-55.75654983520508
 30
142.0
 11
29.742876052856445
 21
-56.198001861572266
 31
142.0
 12
30.17106819152832
 22
-56.48890686035156
 32
142.0
 13
30.17106819152832
 23
-56.48890686035156
 33
142.0
  0
3DFACE
  8
0
 10
30.17106819152832
 20
-56.48890686035156
 30
142.0
 11
30.415966033935547
 21
-56.68769073486328
 31
142.0
 12
30.60498809814453
 22
-56.804378509521484
 32
142.0
 13
30.60498809814453
 23
-56.804378509521484
 33
142.0
  0
3DFACE
  8
0
 10
30.60498809814453
 20
-56.804378509521484
 30
142.0
 11
31.142345428466797
 21
-57.08796310424805
 31
142.0
 12
31.5956974029541
 22
-57.27039337158203
 32
142.0
 13
31.5956974029541
 23
-57.27039337158203
 33
142.0
  0
3DFACE
  8
0
 10
31.5956974029541
 20
-57.27039337158203
 30
142.0
 11
31.891801834106445
 21
-57.380950927734375
 31
142.0
 12
31.957395553588867
 22
-57.394344329833984
 32
142.0
 13
31.957395553588867
 23
-57.394344329833984
 33
142.0
  0
3DFACE
  8
0
 10
31.957395553588867
 20
-57.394344329833984
 30
142.0
 11
32.66056823730469
 21
-57.5842399597168
 31
142.0
 12
33.14366149902344
 22
-57.6521110534668
 32
142.0
 13
33.14366149902344
 23
-57.6521110534668
 33
142.0
  0
3DFACE
  8
0
 10
33.52342224121094
 20
-57.67115783691406
 30
142.0
 11
33.89823532104492
 21
-57.69658660888672
 31
142.0
 12
34.481842041015625
 22
-57.686546325683594
 32
142.0
 13
34.481842041015625
 23
-57.686546325683594
 33
142.0
  0
3DFACE
  8
0
 10
31.957395553588867
 20
-57.394344329833984
 30
142.0
 11
33.14366149902344
 21
-57.6521110534668
 31
142.0
 12
33.52342224121094
 22
-57.67115783691406
 32
142.0
 13
33.52342224121094
 23
-57.67115783691406
 33
142.0
  0
3DFACE
  8
0
 10
30.60498809814453
 20
-56.804378509521484
 30
142.0
 11
31.5956974029541
 21
-57.27039337158203
 31
142.0
 12
31.957395553588867
 22
-57.394344329833984
 32
142.0
 13
31.957395553588867
 23
-57.394344329833984
 33
142.0
  0
3DFACE
  8
0
 10
29.2404842376709
 20
-55.75654983520508
 30
142.0
 11
30.17106819152832
 21
-56.48890686035156
 31
142.0
 12
30.60498809814453
 22
-56.804378509521484
 32
142.0
 13
30.60498809814453
 23
-56.804378509521484
 33
142.0
  0
3DFACE
  8
0
 10
28.404409408569336
 20
-54.74354934692383
 30
142.0
 11
28.85177993774414
 21
-55.376075744628906
 31
142.0
 12
29.2404842376709
 22
-55.75654983520508
 32
142.0
 13
29.2404842376709
 23
-55.75654983520508
 33
142.0
  0
3DFACE
  8
0
 10
27.84739112854004
 20
-53.759761810302734
 30
142.0
 11
28.20451545715332
 21
-54.419246673583984
 31
142.0
 12
28.393661499023438
 22
-54.72507858276367
 32
142.0
 13
28.393661499023438
 23
-54.72507858276367
 33
142.0
  0
3DFACE
  8
0
 10
28.393661499023438
 20
-54.72507858276367
 30
142.0
 11
28.404409408569336
 21
-54.74354934692383
 31
142.0
 12
29.2404842376709
 22
-55.75654983520508
 32
142.0
 13
29.2404842376709
 23
-55.75654983520508
 33
142.0
  0
3DFACE
  8
0
 10
29.2404842376709
 20
-55.75654983520508
 30
142.0
 11
30.60498809814453
 21
-56.804378509521484
 31
142.0
 12
31.957395553588867
 22
-57.394344329833984
 32
142.0
 13
31.957395553588867
 23
-57.394344329833984
 33
142.0
  0
3DFACE
  8
0
 10
31.957395553588867
 20
-57.394344329833984
 30
142.0
 11
33.52342224121094
 21
-57.67115783691406
 31
142.0
 12
34.481842041015625
 22
-57.686546325683594
 32
142.0
 13
34.481842041015625
 23
-57.686546325683594
 33
142.0
  0
3DFACE
  8
0
 10
34.481842041015625
 20
-57.686546325683594
 30
142.0
 11
35.085838317871094
 21
-57.64101791381836
 31
142.0
 12
35.21441650390625
 22
-57.62533187866211
 32
142.0
 13
35.21441650390625
 23
-57.62533187866211
 33
142.0
  0
3DFACE
  8
0
 10
35.21441650390625
 20
-57.62533187866211
 30
142.0
 11
35.31037521362305
 21
-57.604129791259766
 31
142.0
 12
35.941856384277344
 22
-57.4387321472168
 32
142.0
 13
35.941856384277344
 23
-57.4387321472168
 33
142.0
  0
3DFACE
  8
0
 10
35.941856384277344
 20
-57.4387321472168
 30
142.0
 11
36.79014587402344
 21
-57.163490295410156
 31
142.0
 12
36.80595397949219
 22
-57.15713882446289
 32
142.0
 13
36.80595397949219
 23
-57.15713882446289
 33
142.0
  0
3DFACE
  8
0
 10
36.80595397949219
 20
-57.15713882446289
 30
142.0
 11
36.81635284423828
 21
-57.15055847167969
 31
142.0
 12
37.70521545410156
 22
-56.55782699584961
 32
142.0
 13
37.70521545410156
 23
-56.55782699584961
 33
142.0
  0
3DFACE
  8
0
 10
37.70521545410156
 20
-56.55782699584961
 30
142.0
 11
37.747894287109375
 21
-56.522159576416016
 31
142.0
 12
38.353878021240234
 22
-55.97183609008789
 32
142.0
 13
38.353878021240234
 23
-55.97183609008789
 33
142.0
  0
3DFACE
  8
0
 10
38.353878021240234
 20
-55.97183609008789
 30
142.0
 11
38.75428771972656
 21
-55.50598907470703
 31
142.0
 12
38.92440414428711
 22
-55.29750442504883
 32
142.0
 13
38.92440414428711
 23
-55.29750442504883
 33
142.0
  0
3DFACE
  8
0
 10
38.92440414428711
 20
-55.29750442504883
 30
142.0
 11
39.22507095336914
 21
-54.84650802612305
 31
142.0
 12
39.364925384521484
 22
-54.592960357666016
 32
142.0
 13
39.364925384521484
 23
-54.592960357666016
 33
142.0
  0
3DFACE
  8
0
 10
39.364925384521484
 20
-54.592960357666016
 30
142.0
 11
39.7269401550293
 21
-53.87016677856445
 31
142.0
 12
40.007545471191406
 22
-53.13539505004883
 32
142.0
 13
40.007545471191406
 23
-53.13539505004883
 33
142.0
  0
3DFACE
  8
0
 10
40.007545471191406
 20
-53.13539505004883
 30
142.0
 11
40.01067352294922
 21
-53.1291618347168
 31
142.0
 12
40.20377731323242
 22
-52.367088317871094
 32
142.0
 13
40.20377731323242
 23
-52.367088317871094
 33
142.0
  0
3DFACE
  8
0
 10
40.20750427246094
 20
-52.31291961669922
 30
142.0
 11
40.30827331542969
 21
-51.58443832397461
 31
142.0
 12
40.318336486816406
 22
-51.088748931884766
 32
142.0
 13
40.318336486816406
 23
-51.088748931884766
 33
142.0
  0
3DFACE
  8
0
 10
40.007545471191406
 20
-53.13539505004883
 30
142.0
 11
40.20377731323242
 21
-52.367088317871094
 31
142.0
 12
40.20750427246094
 22
-52.31291961669922
 32
142.0
 13
40.20750427246094
 23
-52.31291961669922
 33
142.0
  0
3DFACE
  8
0
 10
38.92440414428711
 20
-55.29750442504883
 30
142.0
 11
39.364925384521484
 21
-54.592960357666016
 31
142.0
 12
40.007545471191406
 22
-53.13539505004883
 32
142.0
 13
40.007545471191406
 23
-53.13539505004883
 33
142.0
  0
3DFACE
  8
0
 10
37.70521545410156
 20
-56.55782699584961
 30
142.0
 11
38.353878021240234
 21
-55.97183609008789
 31
142.0
 12
38.92440414428711
 22
-55.29750442504883
 32
142.0
 13
38.92440414428711
 23
-55.29750442504883
 33
142.0
  0
3DFACE
  8
0
 10
35.941856384277344
 20
-57.4387321472168
 30
142.0
 11
36.80595397949219
 21
-57.15713882446289
 31
142.0
 12
37.70521545410156
 22
-56.55782699584961
 32
142.0
 13
37.70521545410156
 23
-56.55782699584961
 33
142.0
  0
3DFACE
  8
0
 10
34.481842041015625
 20
-57.686546325683594
 30
142.0
 11
35.21441650390625
 21
-57.62533187866211
 31
142.0
 12
35.941856384277344
 22
-57.4387321472168
 32
142.0
 13
35.941856384277344
 23
-57.4387321472168
 33
142.0
  0
3DFACE
  8
0
 10
29.2404842376709
 20
-55.75654983520508
 30
142.0
 11
31.957395553588867
 21
-57.394344329833984
 31
142.0
 12
34.481842041015625
 22
-57.686546325683594
 32
142.0
 13
34.481842041015625
 23
-57.686546325683594
 33
142.0
  0
3DFACE
  8
0
 10
27.84739112854004
 20
-53.759761810302734
 30
142.0
 11
28.393661499023438
 21
-54.72507858276367
 31
142.0
 12
29.2404842376709
 22
-55.75654983520508
 32
142.0
 13
29.2404842376709
 23
-55.75654983520508
 33
142.0
  0
3DFACE
  8
0
 10
27.603422164916992
 20
-53.119529724121094
 30
142.0
 11
27.74794578552246
 21
-53.524131774902344
 31
142.0
 12
27.84739112854004
 22
-53.759761810302734
 32
142.0
 13
27.84739112854004
 23
-53.759761810302734
 33
142.0
  0
3DFACE
  8
0
 10
27.219039916992188
 20
-51.99361801147461
 30
142.0
 11
27.383451461791992
 21
-52.584632873535156
 31
142.0
 12
27.603422164916992
 22
-53.119529724121094
 32
142.0
 13
27.603422164916992
 23
-53.119529724121094
 33
142.0
  0
3DFACE
  8
0
 10
27.027132034301758
 20
-51.00135803222656
 30
142.0
 11
27.145353317260742
 21
-51.75211715698242
 31
142.0
 12
27.219039916992188
 22
-51.99361801147461
 32
142.0
 13
27.219039916992188
 23
-51.99361801147461
 33
142.0
  0
3DFACE
  8
0
 10
26.9298038482666
 20
-50.1112060546875
 30
142.0
 11
27.008594512939453
 21
-50.912113189697266
 31
142.0
 12
27.027132034301758
 22
-51.00135803222656
 32
142.0
 13
27.027132034301758
 23
-51.00135803222656
 33
142.0
  0
3DFACE
  8
0
 10
26.92620849609375
 20
-49.990440368652344
 30
142.0
 11
26.926803588867188
 21
-50.08739471435547
 31
142.0
 12
26.9298038482666
 22
-50.1112060546875
 32
142.0
 13
26.9298038482666
 23
-50.1112060546875
 33
142.0
  0
3DFACE
  8
0
 10
26.952606201171875
 20
-49.119876861572266
 30
142.0
 11
26.93368148803711
 21
-49.28202819824219
 31
142.0
 12
26.92620849609375
 22
-49.990440368652344
 32
142.0
 13
26.92620849609375
 23
-49.990440368652344
 33
142.0
  0
3DFACE
  8
0
 10
27.10770034790039
 20
-47.70856475830078
 30
142.0
 11
26.986156463623047
 21
-48.48727035522461
 31
142.0
 12
26.952606201171875
 22
-49.119876861572266
 32
142.0
 13
26.952606201171875
 23
-49.119876861572266
 33
142.0
  0
3DFACE
  8
0
 10
27.40079689025879
 20
-46.57292175292969
 30
142.0
 11
27.279481887817383
 21
-46.9415397644043
 31
142.0
 12
27.10770034790039
 22
-47.70856475830078
 32
142.0
 13
27.10770034790039
 23
-47.70856475830078
 33
142.0
  0
3DFACE
  8
0
 10
27.6247501373291
 20
-45.858734130859375
 30
142.0
 11
27.496501922607422
 21
-46.185035705566406
 31
142.0
 12
27.40079689025879
 22
-46.57292175292969
 32
142.0
 13
27.40079689025879
 23
-46.57292175292969
 33
142.0
  0
3DFACE
  8
0
 10
27.90980339050293
 20
-45.28990936279297
 30
142.0
 11
27.79705238342285
 21
-45.5045280456543
 31
142.0
 12
27.6247501373291
 22
-45.858734130859375
 32
142.0
 13
27.6247501373291
 23
-45.858734130859375
 33
142.0
  0
3DFACE
  8
0
 10
28.24286460876465
 20
-44.744632720947266
 30
142.0
 11
28.041088104248047
 21
-45.06717300415039
 31
142.0
 12
27.90980339050293
 22
-45.28990936279297
 32
142.0
 13
27.90980339050293
 23
-45.28990936279297
 33
142.0
  0
3DFACE
  8
0
 10
28.84619903564453
 20
-44.063446044921875
 30
142.0
 11
28.394775390625
 21
-44.557796478271484
 31
142.0
 12
28.24286460876465
 22
-44.744632720947266
 32
142.0
 13
28.24286460876465
 23
-44.744632720947266
 33
142.0
  0
3DFACE
  8
0
 10
29.622905731201172
 20
-43.42601013183594
 30
142.0
 11
29.10349464416504
 21
-43.84064865112305
 31
142.0
 12
28.84619903564453
 22
-44.063446044921875
 32
142.0
 13
28.84619903564453
 23
-44.063446044921875
 33
142.0
  0
3DFACE
  8
0
 10
30.64630889892578
 20
-42.92551803588867
 30
142.0
 11
30.087371826171875
 21
-43.168548583984375
 31
142.0
 12
29.622905731201172
 22
-43.42601013183594
 32
142.0
 13
29.622905731201172
 23
-43.42601013183594
 33
142.0
  0
3DFACE
  8
0
 10
31.354639053344727
 20
-42.71125030517578
 30
142.0
 11
30.961483001708984
 21
-42.82259750366211
 31
142.0
 12
30.64630889892578
 22
-42.92551803588867
 32
142.0
 13
30.64630889892578
 23
-42.92551803588867
 33
142.0
  0
3DFACE
  8
0
 10
32.653167724609375
 20
-42.512603759765625
 30
142.0
 11
31.818180084228516
 21
-42.617156982421875
 31
142.0
 12
31.354639053344727
 22
-42.71125030517578
 32
142.0
 13
31.354639053344727
 23
-42.71125030517578
 33
142.0
  0
3DFACE
  8
0
 10
34.210147857666016
 20
-42.59182357788086
 30
142.0
 11
33.465572357177734
 21
-42.51305389404297
 31
142.0
 12
32.998111724853516
 22
-42.516273498535156
 32
142.0
 13
32.998111724853516
 23
-42.516273498535156
 33
142.0
  0
3DFACE
  8
0
 10
32.998111724853516
 20
-42.516273498535156
 30
142.0
 11
32.653167724609375
 21
-42.512603759765625
 31
142.0
 12
31.354639053344727
 22
-42.71125030517578
 32
142.0
 13
31.354639053344727
 23
-42.71125030517578
 33
142.0
  0
3DFACE
  8
0
 10
31.354639053344727
 20
-42.71125030517578
 30
142.0
 11
30.64630889892578
 21
-42.92551803588867
 31
142.0
 12
29.622905731201172
 22
-43.42601013183594
 32
142.0
 13
29.622905731201172
 23
-43.42601013183594
 33
142.0
  0
3DFACE
  8
0
 10
29.622905731201172
 20
-43.42601013183594
 30
142.0
 11
28.84619903564453
 21
-44.063446044921875
 31
142.0
 12
28.24286460876465
 22
-44.744632720947266
 32
142.0
 13
28.24286460876465
 23
-44.744632720947266
 33
142.0
  0
3DFACE
  8
0
 10
28.24286460876465
 20
-44.744632720947266
 30
142.0
 11
27.90980339050293
 21
-45.28990936279297
 31
142.0
 12
27.6247501373291
 22
-45.858734130859375
 32
142.0
 13
27.6247501373291
 23
-45.858734130859375
 33
142.0
  0
3DFACE
  8
0
 10
27.6247501373291
 20
-45.858734130859375
 30
142.0
 11
27.40079689025879
 21
-46.57292175292969
 31
142.0
 12
27.10770034790039
 22
-47.70856475830078
 32
142.0
 13
27.10770034790039
 23
-47.70856475830078
 33
142.0
  0
3DFACE
  8
0
 10
27.10770034790039
 20
-47.70856475830078
 30
142.0
 11
26.952606201171875
 21
-49.119876861572266
 31
142.0
 12
26.92620849609375
 22
-49.990440368652344
 32
142.0
 13
26.92620849609375
 23
-49.990440368652344
 33
142.0
  0
3DFACE
  8
0
 10
26.92620849609375
 20
-49.990440368652344
 30
142.0
 11
26.9298038482666
 21
-50.1112060546875
 31
142.0
 12
27.027132034301758
 22
-51.00135803222656
 32
142.0
 13
27.027132034301758
 23
-51.00135803222656
 33
142.0
  0
3DFACE
  8
0
 10
27.027132034301758
 20
-51.00135803222656
 30
142.0
 11
27.219039916992188
 21
-51.99361801147461
 31
142.0
 12
27.603422164916992
 22
-53.119529724121094
 32
142.0
 13
27.603422164916992
 23
-53.119529724121094
 33
142.0
  0
3DFACE
  8
0
 10
27.603422164916992
 20
-53.119529724121094
 30
142.0
 11
27.84739112854004
 21
-53.759761810302734
 31
142.0
 12
29.2404842376709
 22
-55.75654983520508
 32
142.0
 13
29.2404842376709
 23
-55.75654983520508
 33
142.0
  0
3DFACE
  8
0
 10
29.2404842376709
 20
-55.75654983520508
 30
142.0
 11
34.481842041015625
 21
-57.686546325683594
 31
142.0
 12
35.941856384277344
 22
-57.4387321472168
 32
142.0
 13
35.941856384277344
 23
-57.4387321472168
 33
142.0
  0
3DFACE
  8
0
 10
35.941856384277344
 20
-57.4387321472168
 30
142.0
 11
37.70521545410156
 21
-56.55782699584961
 31
142.0
 12
38.92440414428711
 22
-55.29750442504883
 32
142.0
 13
38.92440414428711
 23
-55.29750442504883
 33
142.0
  0
3DFACE
  8
0
 10
38.92440414428711
 20
-55.29750442504883
 30
142.0
 11
40.007545471191406
 21
-53.13539505004883
 31
142.0
 12
40.20750427246094
 22
-52.31291961669922
 32
142.0
 13
40.20750427246094
 23
-52.31291961669922
 33
142.0
  0
3DFACE
  8
0
 10
40.20750427246094
 20
-52.31291961669922
 30
142.0
 11
40.318336486816406
 21
-51.088748931884766
 31
142.0
 12
40.30073165893555
 22
-50.77571487426758
 32
142.0
 13
40.30073165893555
 23
-50.77571487426758
 33
142.0
  0
3DFACE
  8
0
 10
40.30073165893555
 20
-50.77571487426758
 30
142.0
 11
40.26433181762695
 21
-50.34197998046875
 31
142.0
 12
40.218849182128906
 22
-49.94972610473633
 32
142.0
 13
40.218849182128906
 23
-49.94972610473633
 33
142.0
  0
3DFACE
  8
0
 10
40.110618591308594
 20
-49.36213684082031
 30
142.0
 11
40.06536102294922
 21
-49.094383239746094
 31
142.0
 12
40.0092658996582
 22
-48.88842010498047
 32
142.0
 13
40.0092658996582
 23
-48.88842010498047
 33
142.0
  0
3DFACE
  8
0
 10
40.30073165893555
 20
-50.77571487426758
 30
142.0
 11
40.218849182128906
 21
-49.94972610473633
 31
142.0
 12
40.110618591308594
 22
-49.36213684082031
 32
142.0
 13
40.110618591308594
 23
-49.36213684082031
 33
142.0
  0
3DFACE
  8
0
 10
38.92440414428711
 20
-55.29750442504883
 30
142.0
 11
40.20750427246094
 21
-52.31291961669922
 31
142.0
 12
40.30073165893555
 22
-50.77571487426758
 32
142.0
 13
40.30073165893555
 23
-50.77571487426758
 33
142.0
  0
3DFACE
  8
0
 10
29.2404842376709
 20
-55.75654983520508
 30
142.0
 11
35.941856384277344
 21
-57.4387321472168
 31
142.0
 12
38.92440414428711
 22
-55.29750442504883
 32
142.0
 13
38.92440414428711
 23
-55.29750442504883
 33
142.0
  0
3DFACE
  8
0
 10
27.027132034301758
 20
-51.00135803222656
 30
142.0
 11
27.603422164916992
 21
-53.119529724121094
 31
142.0
 12
29.2404842376709
 22
-55.75654983520508
 32
142.0
 13
29.2404842376709
 23
-55.75654983520508
 33
142.0
  0
3DFACE
  8
0
 10
27.10770034790039
 20
-47.70856475830078
 30
142.0
 11
26.92620849609375
 21
-49.990440368652344
 31
142.0
 12
27.027132034301758
 22
-51.00135803222656
 32
142.0
 13
27.027132034301758
 23
-51.00135803222656
 33
142.0
  0
3DFACE
  8
0
 10
28.24286460876465
 20
-44.744632720947266
 30
142.0
 11
27.6247501373291
 21
-45.858734130859375
 31
142.0
 12
27.10770034790039
 22
-47.70856475830078
 32
142.0
 13
27.10770034790039
 23
-47.70856475830078
 33
142.0
  0
3DFACE
  8
0
 10
31.354639053344727
 20
-42.71125030517578
 30
142.0
 11
29.622905731201172
 21
-43.42601013183594
 31
142.0
 12
28.24286460876465
 22
-44.744632720947266
 32
142.0
 13
28.24286460876465
 23
-44.744632720947266
 33
142.0
  0
3DFACE
  8
0
 10
34.210147857666016
 20
-42.59182357788086
 30
142.0
 11
32.998111724853516
 21
-42.516273498535156
 31
142.0
 12
31.354639053344727
 22
-42.71125030517578
 32
142.0
 13
31.354639053344727
 23
-42.71125030517578
 33
142.0
  0
3DFACE
  8
0
 10
34.8705940246582
 20
-42.738182067871094
 30
142.0
 11
34.25950241088867
 21
-42.59937286376953
 31
142.0
 12
34.210147857666016
 22
-42.59182357788086
 32
142.0
 13
34.210147857666016
 23
-42.59182357788086
 33
142.0
  0
3DFACE
  8
0
 10
35.77316665649414
 20
-43.116798400878906
 30
142.0
 11
35.50415802001953
 21
-42.9731559753418
 31
142.0
 12
34.8705940246582
 22
-42.738182067871094
 32
142.0
 13
34.8705940246582
 23
-42.738182067871094
 33
142.0
  0
3DFACE
  8
0
 10
36.3172721862793
 20
-43.49736404418945
 30
142.0
 11
35.92526626586914
 21
-43.20977020263672
 31
142.0
 12
35.77316665649414
 22
-43.116798400878906
 32
142.0
 13
35.77316665649414
 23
-43.116798400878906
 33
142.0
  0
3DFACE
  8
0
 10
36.675193786621094
 20
-43.74025344848633
 30
142.0
 11
36.48086929321289
 21
-43.603878021240234
 31
142.0
 12
36.3172721862793
 22
-43.49736404418945
 32
142.0
 13
36.3172721862793
 23
-43.49736404418945
 33
142.0
  0
3DFACE
  8
0
 10
37.20656967163086
 20
-44.24314498901367
 30
142.0
 11
37.19767761230469
 21
-44.233211517333984
 31
142.0
 12
36.675193786621094
 22
-43.74025344848633
 32
142.0
 13
36.675193786621094
 23
-43.74025344848633
 33
142.0
  0
3DFACE
  8
0
 10
37.82322311401367
 20
-44.917579650878906
 30
142.0
 11
37.482513427734375
 21
-44.5378532409668
 31
142.0
 12
37.20656967163086
 22
-44.24314498901367
 32
142.0
 13
37.20656967163086
 23
-44.24314498901367
 33
142.0
  0
3DFACE
  8
0
 10
38.24325180053711
 20
-45.460330963134766
 30
142.0
 11
38.18701934814453
 21
-45.38066864013672
 31
142.0
 12
37.82322311401367
 22
-44.917579650878906
 32
142.0
 13
37.82322311401367
 23
-44.917579650878906
 33
142.0
  0
3DFACE
  8
0
 10
38.91672897338867
 20
-46.408164978027344
 30
142.0
 11
38.781707763671875
 21
-46.180171966552734
 31
142.0
 12
38.24325180053711
 22
-45.460330963134766
 32
142.0
 13
38.24325180053711
 23
-45.460330963134766
 33
142.0
  0
3DFACE
  8
0
 10
39.63491439819336
 20
-47.83073043823242
 30
142.0
 11
39.236637115478516
 21
-46.971099853515625
 31
142.0
 12
38.91672897338867
 22
-46.408164978027344
 32
142.0
 13
38.91672897338867
 23
-46.408164978027344
 33
142.0
  0
3DFACE
  8
0
 10
39.802730560302734
 20
-48.23906707763672
 30
142.0
 11
39.72175979614258
 21
-48.03679656982422
 31
142.0
 12
39.63491439819336
 22
-47.83073043823242
 32
142.0
 13
39.63491439819336
 23
-47.83073043823242
 33
142.0
  0
3DFACE
  8
0
 10
40.110618591308594
 20
-49.36213684082031
 30
142.0
 11
40.0092658996582
 21
-48.88842010498047
 31
142.0
 12
39.802730560302734
 22
-48.23906707763672
 32
142.0
 13
39.802730560302734
 23
-48.23906707763672
 33
142.0
  0
3DFACE
  8
0
 10
38.92440414428711
 20
-55.29750442504883
 30
142.0
 11
40.30073165893555
 21
-50.77571487426758
 31
142.0
 12
40.110618591308594
 22
-49.36213684082031
 32
142.0
 13
40.110618591308594
 23
-49.36213684082031
 33
142.0
  0
3DFACE
  8
0
 10
27.027132034301758
 20
-51.00135803222656
 30
142.0
 11
29.2404842376709
 21
-55.75654983520508
 31
142.0
 12
38.92440414428711
 22
-55.29750442504883
 32
142.0
 13
38.92440414428711
 23
-55.29750442504883
 33
142.0
  0
3DFACE
  8
0
 10
28.24286460876465
 20
-44.744632720947266
 30
142.0
 11
27.10770034790039
 21
-47.70856475830078
 31
142.0
 12
27.027132034301758
 22
-51.00135803222656
 32
142.0
 13
27.027132034301758
 23
-51.00135803222656
 33
142.0
  0
3DFACE
  8
0
 10
34.210147857666016
 20
-42.59182357788086
 30
142.0
 11
31.354639053344727
 21
-42.71125030517578
 31
142.0
 12
28.24286460876465
 22
-44.744632720947266
 32
142.0
 13
28.24286460876465
 23
-44.744632720947266
 33
142.0
  0
3DFACE
  8
0
 10
35.77316665649414
 20
-43.116798400878906
 30
142.0
 11
34.8705940246582
 21
-42.738182067871094
 31
142.0
 12
34.210147857666016
 22
-42.59182357788086
 32
142.0
 13
34.210147857666016
 23
-42.59182357788086
 33
142.0
  0
3DFACE
  8
0
 10
37.20656967163086
 20
-44.24314498901367
 30
142.0
 11
36.675193786621094
 21
-43.74025344848633
 31
142.0
 12
36.3172721862793
 22
-43.49736404418945
 32
142.0
 13
36.3172721862793
 23
-43.49736404418945
 33
142.0
  0
3DFACE
  8
0
 10
36.3172721862793
 20
-43.49736404418945
 30
142.0
 11
35.77316665649414
 21
-43.116798400878906
 31
142.0
 12
34.210147857666016
 22
-42.59182357788086
 32
142.0
 13
34.210147857666016
 23
-42.59182357788086
 33
142.0
  0
3DFACE
  8
0
 10
34.210147857666016
 20
-42.59182357788086
 30
142.0
 11
28.24286460876465
 21
-44.744632720947266
 31
142.0
 12
27.027132034301758
 22
-51.00135803222656
 32
142.0
 13
27.027132034301758
 23
-51.00135803222656
 33
142.0
  0
3DFACE
  8
0
 10
27.027132034301758
 20
-51.00135803222656
 30
142.0
 11
38.92440414428711
 21
-55.29750442504883
 31
142.0
 12
40.110618591308594
 22
-49.36213684082031
 32
142.0
 13
40.110618591308594
 23
-49.36213684082031
 33
142.0
  0
3DFACE
  8
0
 10
40.110618591308594
 20
-49.36213684082031
 30
142.0
 11
39.802730560302734
 21
-48.23906707763672
 31
142.0
 12
39.63491439819336
 22
-47.83073043823242
 32
142.0
 13
39.63491439819336
 23
-47.83073043823242
 33
142.0
  0
3DFACE
  8
0
 10
39.63491439819336
 20
-47.83073043823242
 30
142.0
 11
38.91672897338867
 21
-46.408164978027344
 31
142.0
 12
38.24325180053711
 22
-45.460330963134766
 32
142.0
 13
38.24325180053711
 23
-45.460330963134766
 33
142.0
  0
3DFACE
  8
0
 10
38.24325180053711
 20
-45.460330963134766
 30
142.0
 11
37.82322311401367
 21
-44.917579650878906
 31
142.0
 12
37.20656967163086
 22
-44.24314498901367
 32
142.0
 13
37.20656967163086
 23
-44.24314498901367
 33
142.0
  0
3DFACE
  8
0
 10
37.20656967163086
 20
-44.24314498901367
 30
142.0
 11
36.3172721862793
 21
-43.49736404418945
 31
142.0
 12
34.210147857666016
 22
-42.59182357788086
 32
142.0
 13
34.210147857666016
 23
-42.59182357788086
 33
142.0
  0
3DFACE
  8
0
 10
34.210147857666016
 20
-42.59182357788086
 30
142.0
 11
27.027132034301758
 21
-51.00135803222656
 31
142.0
 12
40.110618591308594
 22
-49.36213684082031
 32
142.0
 13
40.110618591308594
 23
-49.36213684082031
 33
142.0
  0
3DFACE
  8
0
 10
40.110618591308594
 20
-49.36213684082031
 30
142.0
 11
39.63491439819336
 21
-47.83073043823242
 31
142.0
 12
38.24325180053711
 22
-45.460330963134766
 32
142.0
 13
38.24325180053711
 23
-45.460330963134766
 33
142.0
  0
3DFACE
  8
0
 10
38.24325180053711
 20
-45.460330963134766
 30
142.0
 11
37.20656967163086
 21
-44.24314498901367
 31
142.0
 12
34.210147857666016
 22
-42.59182357788086
 32
142.0
 13
34.210147857666016
 23
-42.59182357788086
 33
142.0
  0
3DFACE
  8
0
 10
40.110618591308594
 20
-49.36213684082031
 30
142.0
 11
38.24325180053711
 21
-45.460330963134766
 31
142.0
 12
34.210147857666016
 22
-42.59182357788086
 32
142.0
 13
34.210147857666016
 23
-42.59182357788086
 33
142.0
  0
3DFACE
  8
0
 10
61.552791595458984
 20
-12.742012977600098
 30
142.0
 11
61.5529670715332
 21
-12.742796897888184
 31
142.0
 12
61.553199768066406
 22
-12.743542671203613
 32
142.0
 13
61.553199768066406
 23
-12.743542671203613
 33
142.0
  0
3DFACE
  8
0
 10
61.553199768066406
 20
-12.743542671203613
 30
142.0
 11
61.80298614501953
 21
-13.512005805969238
 31
142.0
 12
62.04995346069336
 22
-14.15292739868164
 32
142.0
 13
62.04995346069336
 23
-14.15292739868164
 33
142.0
  0
3DFACE
  8
0
 10
62.04995346069336
 20
-14.15292739868164
 30
142.0
 11
62.12113952636719
 21
-14.310081481933594
 31
142.0
 12
62.47549057006836
 22
-15.050421714782715
 32
142.0
 13
62.47549057006836
 23
-15.050421714782715
 33
142.0
  0
3DFACE
  8
0
 10
62.75494384765625
 20
-15.486424446105957
 30
142.0
 11
62.95589065551758
 21
-15.819632530212402
 31
142.0
 12
63.07813262939453
 22
-15.975298881530762
 32
142.0
 13
63.07813262939453
 23
-15.975298881530762
 33
142.0
  0
3DFACE
  8
0
 10
62.04995346069336
 20
-14.15292739868164
 30
142.0
 11
62.47549057006836
 21
-15.050421714782715
 31
142.0
 12
62.75494384765625
 22
-15.486424446105957
 32
142.0
 13
62.75494384765625
 23
-15.486424446105957
 33
142.0
  0
3DFACE
  8
0
 10
61.552791595458984
 20
-12.742012977600098
 30
142.0
 11
61.553199768066406
 21
-12.743542671203613
 31
142.0
 12
62.04995346069336
 22
-14.15292739868164
 32
142.0
 13
62.04995346069336
 23
-14.15292739868164
 33
142.0
  0
3DFACE
  8
0
 10
61.245487213134766
 20
-11.204380989074707
 30
142.0
 11
61.346717834472656
 21
-11.973589897155762
 31
142.0
 12
61.552791595458984
 22
-12.742012977600098
 32
142.0
 13
61.552791595458984
 23
-12.742012977600098
 33
142.0
  0
3DFACE
  8
0
 10
61.2426643371582
 20
-9.66596508026123
 30
142.0
 11
61.2032470703125
 21
-10.435172080993652
 31
142.0
 12
61.245487213134766
 22
-11.204380989074707
 32
142.0
 13
61.245487213134766
 23
-11.204380989074707
 33
142.0
  0
3DFACE
  8
0
 10
61.61368179321289
 20
-8.127547264099121
 30
142.0
 11
61.3875732421875
 21
-8.896754264831543
 31
142.0
 12
61.372894287109375
 22
-8.986104011535645
 32
142.0
 13
61.372894287109375
 23
-8.986104011535645
 33
142.0
  0
3DFACE
  8
0
 10
61.372894287109375
 20
-8.986104011535645
 30
142.0
 11
61.2426643371582
 21
-9.66596508026123
 31
142.0
 12
61.245487213134766
 22
-11.204380989074707
 32
142.0
 13
61.245487213134766
 23
-11.204380989074707
 33
142.0
  0
3DFACE
  8
0
 10
61.245487213134766
 20
-11.204380989074707
 30
142.0
 11
61.552791595458984
 21
-12.742012977600098
 31
142.0
 12
62.04995346069336
 22
-14.15292739868164
 32
142.0
 13
62.04995346069336
 23
-14.15292739868164
 33
142.0
  0
3DFACE
  8
0
 10
62.04995346069336
 20
-14.15292739868164
 30
142.0
 11
62.75494384765625
 21
-15.486424446105957
 31
142.0
 12
63.07813262939453
 22
-15.975298881530762
 32
142.0
 13
63.07813262939453
 23
-15.975298881530762
 33
142.0
  0
3DFACE
  8
0
 10
63.07813262939453
 20
-15.975298881530762
 30
142.0
 11
63.54056167602539
 21
-16.546096801757812
 31
142.0
 12
63.65592956542969
 22
-16.672006607055664
 32
142.0
 13
63.65592956542969
 23
-16.672006607055664
 33
142.0
  0
3DFACE
  8
0
 10
63.65592956542969
 20
-16.672006607055664
 30
142.0
 11
64.39252471923828
 21
-17.40833854675293
 31
142.0
 12
64.44954681396484
 22
-17.462459564208984
 32
142.0
 13
64.44954681396484
 23
-17.462459564208984
 33
142.0
  0
3DFACE
  8
0
 10
64.44954681396484
 20
-17.462459564208984
 30
142.0
 11
65.2121810913086
 21
-18.114620208740234
 31
142.0
 12
65.21822357177734
 22
-18.119159698486328
 32
142.0
 13
65.21822357177734
 23
-18.119159698486328
 33
142.0
  0
3DFACE
  8
0
 10
65.21822357177734
 20
-18.119159698486328
 30
142.0
 11
65.22320556640625
 21
-18.123262405395508
 31
142.0
 12
65.41909790039062
 22
-18.25841522216797
 32
142.0
 13
65.41909790039062
 23
-18.25841522216797
 33
142.0
  0
3DFACE
  8
0
 10
65.41909790039062
 20
-18.25841522216797
 30
142.0
 11
65.83456420898438
 21
-18.562833786010742
 31
142.0
 12
66.09033966064453
 22
-18.7379093170166
 32
142.0
 13
66.09033966064453
 23
-18.7379093170166
 33
142.0
  0
3DFACE
  8
0
 10
66.09033966064453
 20
-18.7379093170166
 30
142.0
 11
66.24674987792969
 21
-18.83851432800293
 31
142.0
 12
66.6114730834961
 22
-19.047374725341797
 32
142.0
 13
66.6114730834961
 23
-19.047374725341797
 33
142.0
  0
3DFACE
  8
0
 10
66.6114730834961
 20
-19.047374725341797
 30
142.0
 11
66.8004150390625
 21
-19.174570083618164
 31
142.0
 12
66.97702026367188
 22
-19.269197463989258
 32
142.0
 13
66.97702026367188
 23
-19.269197463989258
 33
142.0
  0
3DFACE
  8
0
 10
66.97702026367188
 20
-19.269197463989258
 30
142.0
 11
67.07011413574219
 21
-19.324752807617188
 31
142.0
 12
67.8397216796875
 22
-19.665672302246094
 32
142.0
 13
67.8397216796875
 23
-19.665672302246094
 33
142.0
  0
3DFACE
  8
0
 10
67.8397216796875
 20
-19.665672302246094
 30
142.0
 11
67.91414642333984
 21
-19.699981689453125
 31
142.0
 12
68.37761688232422
 22
-19.882678985595703
 32
142.0
 13
68.37761688232422
 23
-19.882678985595703
 33
142.0
  0
3DFACE
  8
0
 10
68.37761688232422
 20
-19.882678985595703
 30
142.0
 11
68.40760040283203
 21
-19.892751693725586
 31
142.0
 12
69.05084228515625
 22
-20.042341232299805
 32
142.0
 13
69.05084228515625
 23
-20.042341232299805
 33
142.0
  0
3DFACE
  8
0
 10
69.05084228515625
 20
-20.042341232299805
 30
142.0
 11
69.69409942626953
 21
-20.178186416625977
 31
142.0
 12
69.77237701416016
 22
-20.187664031982422
 32
142.0
 13
69.77237701416016
 23
-20.187664031982422
 33
142.0
  0
3DFACE
  8
0
 10
69.77237701416016
 20
-20.187664031982422
 30
142.0
 11
69.85572052001953
 21
-20.1954402923584
 31
142.0
 12
70.74340057373047
 22
-20.260456085205078
 32
142.0
 13
70.74340057373047
 23
-20.260456085205078
 33
142.0
  0
3DFACE
  8
0
 10
70.74340057373047
 20
-20.260456085205078
 30
142.0
 11
70.9702377319336
 21
-20.272506713867188
 31
142.0
 12
71.53199768066406
 22
-20.26145362854004
 32
142.0
 13
71.53199768066406
 23
-20.26145362854004
 33
142.0
  0
3DFACE
  8
0
 10
71.53199768066406
 20
-20.26145362854004
 30
142.0
 11
72.24713897705078
 21
-20.21394157409668
 31
142.0
 12
72.2911376953125
 22
-20.208810806274414
 32
142.0
 13
72.2911376953125
 23
-20.208810806274414
 33
142.0
  0
3DFACE
  8
0
 10
72.2911376953125
 20
-20.208810806274414
 30
142.0
 11
72.32058715820312
 21
-20.20429039001465
 31
142.0
 12
72.63817596435547
 22
-20.144489288330078
 32
142.0
 13
72.63817596435547
 23
-20.144489288330078
 33
142.0
  0
3DFACE
  8
0
 10
73.10919189453125
 20
-20.032899856567383
 30
142.0
 11
73.55364227294922
 21
-19.936819076538086
 31
142.0
 12
74.1400375366211
 22
-19.72410774230957
 32
142.0
 13
74.1400375366211
 23
-19.72410774230957
 33
142.0
  0
3DFACE
  8
0
 10
72.2911376953125
 20
-20.208810806274414
 30
142.0
 11
72.63817596435547
 21
-20.144489288330078
 31
142.0
 12
73.10919189453125
 22
-20.032899856567383
 32
142.0
 13
73.10919189453125
 23
-20.032899856567383
 33
142.0
  0
3DFACE
  8
0
 10
70.74340057373047
 20
-20.260456085205078
 30
142.0
 11
71.53199768066406
 21
-20.26145362854004
 31
142.0
 12
72.2911376953125
 22
-20.208810806274414
 32
142.0
 13
72.2911376953125
 23
-20.208810806274414
 33
142.0
  0
3DFACE
  8
0
 10
69.05084228515625
 20
-20.042341232299805
 30
142.0
 11
69.77237701416016
 21
-20.187664031982422
 31
142.0
 12
70.74340057373047
 22
-20.260456085205078
 32
142.0
 13
70.74340057373047
 23
-20.260456085205078
 33
142.0
  0
3DFACE
  8
0
 10
67.8397216796875
 20
-19.665672302246094
 30
142.0
 11
68.37761688232422
 21
-19.882678985595703
 31
142.0
 12
69.05084228515625
 22
-20.042341232299805
 32
142.0
 13
69.05084228515625
 23
-20.042341232299805
 33
142.0
  0
3DFACE
  8
0
 10
66.6114730834961
 20
-19.047374725341797
 30
142.0
 11
66.97702026367188
 21
-19.269197463989258
 31
142.0
 12
67.8397216796875
 22
-19.665672302246094
 32
142.0
 13
67.8397216796875
 23
-19.665672302246094
 33
142.0
  0
3DFACE
  8
0
 10
65.41909790039062
 20
-18.25841522216797
 30
142.0
 11
66.09033966064453
 21
-18.7379093170166
 31
142.0
 12
66.6114730834961
 22
-19.047374725341797
 32
142.0
 13
66.6114730834961
 23
-19.047374725341797
 33
142.0
  0
3DFACE
  8
0
 10
64.44954681396484
 20
-17.462459564208984
 30
142.0
 11
65.21822357177734
 21
-18.119159698486328
 31
142.0
 12
65.41909790039062
 22
-18.25841522216797
 32
142.0
 13
65.41909790039062
 23
-18.25841522216797
 33
142.0
  0
3DFACE
  8
0
 10
63.07813262939453
 20
-15.975298881530762
 30
142.0
 11
63.65592956542969
 21
-16.672006607055664
 31
142.0
 12
64.44954681396484
 22
-17.462459564208984
 32
142.0
 13
64.44954681396484
 23
-17.462459564208984
 33
142.0
  0
3DFACE
  8
0
 10
61.245487213134766
 20
-11.204380989074707
 30
142.0
 11
62.04995346069336
 21
-14.15292739868164
 31
142.0
 12
63.07813262939453
 22
-15.975298881530762
 32
142.0
 13
63.07813262939453
 23
-15.975298881530762
 33
142.0
  0
3DFACE
  8
0
 10
61.61368179321289
 20
-8.127547264099121
 30
142.0
 11
61.372894287109375
 21
-8.986104011535645
 31
142.0
 12
61.245487213134766
 22
-11.204380989074707
 32
142.0
 13
61.245487213134766
 23
-11.204380989074707
 33
142.0
  0
3DFACE
  8
0
 10
62.12685012817383
 20
-6.589130401611328
 30
142.0
 11
61.83940887451172
 21
-7.36013650894165
 31
142.0
 12
61.617454528808594
 22
-8.115422248840332
 32
142.0
 13
61.617454528808594
 23
-8.115422248840332
 33
142.0
  0
3DFACE
  8
0
 10
61.617454528808594
 20
-8.115422248840332
 30
142.0
 11
61.61368179321289
 21
-8.127547264099121
 31
142.0
 12
61.245487213134766
 22
-11.204380989074707
 32
142.0
 13
61.245487213134766
 23
-11.204380989074707
 33
142.0
  0
3DFACE
  8
0
 10
61.245487213134766
 20
-11.204380989074707
 30
142.0
 11
63.07813262939453
 21
-15.975298881530762
 31
142.0
 12
64.44954681396484
 22
-17.462459564208984
 32
142.0
 13
64.44954681396484
 23
-17.462459564208984
 33
142.0
  0
3DFACE
  8
0
 10
64.44954681396484
 20
-17.462459564208984
 30
142.0
 11
65.41909790039062
 21
-18.25841522216797
 31
142.0
 12
66.6114730834961
 22
-19.047374725341797
 32
142.0
 13
66.6114730834961
 23
-19.047374725341797
 33
142.0
  0
3DFACE
  8
0
 10
66.6114730834961
 20
-19.047374725341797
 30
142.0
 11
67.8397216796875
 21
-19.665672302246094
 31
142.0
 12
69.05084228515625
 22
-20.042341232299805
 32
142.0
 13
69.05084228515625
 23
-20.042341232299805
 33
142.0
  0
3DFACE
  8
0
 10
69.05084228515625
 20
-20.042341232299805
 30
142.0
 11
70.74340057373047
 21
-20.260456085205078
 31
142.0
 12
72.2911376953125
 22
-20.208810806274414
 32
142.0
 13
72.2911376953125
 23
-20.208810806274414
 33
142.0
  0
3DFACE
  8
0
 10
72.2911376953125
 20
-20.208810806274414
 30
142.0
 11
73.10919189453125
 21
-20.032899856567383
 31
142.0
 12
74.1400375366211
 22
-19.72410774230957
 32
142.0
 13
74.1400375366211
 23
-19.72410774230957
 33
142.0
  0
3DFACE
  8
0
 10
74.1400375366211
 20
-19.72410774230957
 30
142.0
 11
74.33098602294922
 21
-19.66205406188965
 31
142.0
 12
74.6864013671875
 22
-19.49664878845215
 32
142.0
 13
74.6864013671875
 23
-19.49664878845215
 33
142.0
  0
3DFACE
  8
0
 10
74.6864013671875
 20
-19.49664878845215
 30
142.0
 11
74.81858825683594
 21
-19.426471710205078
 31
142.0
 12
75.55731201171875
 22
-18.9887638092041
 32
142.0
 13
75.55731201171875
 23
-18.9887638092041
 33
142.0
  0
3DFACE
  8
0
 10
75.55731201171875
 20
-18.9887638092041
 30
142.0
 11
75.61608123779297
 21
-18.947572708129883
 31
142.0
 12
76.70635223388672
 22
-18.131372451782227
 32
142.0
 13
76.70635223388672
 23
-18.131372451782227
 33
142.0
  0
3DFACE
  8
0
 10
76.70635223388672
 20
-18.131372451782227
 30
142.0
 11
76.77375793457031
 21
-18.07756805419922
 31
142.0
 12
77.05219268798828
 22
-17.835172653198242
 32
142.0
 13
77.05219268798828
 23
-17.835172653198242
 33
142.0
  0
3DFACE
  8
0
 10
77.28411102294922
 20
-17.622331619262695
 30
142.0
 11
77.49069213867188
 21
-17.43899917602539
 31
142.0
 12
77.69340515136719
 22
-17.234981536865234
 32
142.0
 13
77.69340515136719
 23
-17.234981536865234
 33
142.0
  0
3DFACE
  8
0
 10
76.70635223388672
 20
-18.131372451782227
 30
142.0
 11
77.05219268798828
 21
-17.835172653198242
 31
142.0
 12
77.28411102294922
 22
-17.622331619262695
 32
142.0
 13
77.28411102294922
 23
-17.622331619262695
 33
142.0
  0
3DFACE
  8
0
 10
74.6864013671875
 20
-19.49664878845215
 30
142.0
 11
75.55731201171875
 21
-18.9887638092041
 31
142.0
 12
76.70635223388672
 22
-18.131372451782227
 32
142.0
 13
76.70635223388672
 23
-18.131372451782227
 33
142.0
  0
3DFACE
  8
0
 10
72.2911376953125
 20
-20.208810806274414
 30
142.0
 11
74.1400375366211
 21
-19.72410774230957
 31
142.0
 12
74.6864013671875
 22
-19.49664878845215
 32
142.0
 13
74.6864013671875
 23
-19.49664878845215
 33
142.0
  0
3DFACE
  8
0
 10
66.6114730834961
 20
-19.047374725341797
 30
142.0
 11
69.05084228515625
 21
-20.042341232299805
 31
142.0
 12
72.2911376953125
 22
-20.208810806274414
 32
142.0
 13
72.2911376953125
 23
-20.208810806274414
 33
142.0
  0
3DFACE
  8
0
 10
61.245487213134766
 20
-11.204380989074707
 30
142.0
 11
64.44954681396484
 21
-17.462459564208984
 31
142.0
 12
66.6114730834961
 22
-19.047374725341797
 32
142.0
 13
66.6114730834961
 23
-19.047374725341797
 33
142.0
  0
3DFACE
  8
0
 10
62.12685012817383
 20
-6.589130401611328
 30
142.0
 11
61.617454528808594
 21
-8.115422248840332
 31
142.0
 12
61.245487213134766
 22
-11.204380989074707
 32
142.0
 13
61.245487213134766
 23
-11.204380989074707
 33
142.0
  0
3DFACE
  8
0
 10
62.76968765258789
 20
-5.386207580566406
 30
142.0
 11
62.50505065917969
 21
-5.823899745941162
 31
142.0
 12
62.12685012817383
 22
-6.589130401611328
 32
142.0
 13
62.12685012817383
 23
-6.589130401611328
 33
142.0
  0
3DFACE
  8
0
 10
63.60002899169922
 20
-4.2949018478393555
 30
142.0
 11
62.96158218383789
 21
-5.050802707672119
 31
142.0
 12
62.76968765258789
 22
-5.386207580566406
 32
142.0
 13
62.76968765258789
 23
-5.386207580566406
 33
142.0
  0
3DFACE
  8
0
 10
64.2930679321289
 20
-3.661600351333618
 30
142.0
 11
63.73609924316406
 21
-4.156464099884033
 31
142.0
 12
63.60002899169922
 22
-4.2949018478393555
 32
142.0
 13
63.60002899169922
 23
-4.2949018478393555
 33
142.0
  0
3DFACE
  8
0
 10
64.52820587158203
 20
-3.440918207168579
 30
142.0
 11
64.41124725341797
 21
-3.537904977798462
 31
142.0
 12
64.2930679321289
 22
-3.661600351333618
 32
142.0
 13
64.2930679321289
 23
-3.661600351333618
 33
142.0
  0
3DFACE
  8
0
 10
65.21198272705078
 20
-2.9071524143218994
 30
142.0
 11
65.1913070678711
 21
-2.9212162494659424
 31
142.0
 12
64.52820587158203
 22
-3.440918207168579
 32
142.0
 13
64.52820587158203
 23
-3.440918207168579
 33
142.0
  0
3DFACE
  8
0
 10
66.5811996459961
 20
-2.152174711227417
 30
142.0
 11
65.8635025024414
 21
-2.5035736560821533
 31
142.0
 12
65.21198272705078
 22
-2.9071524143218994
 32
142.0
 13
65.21198272705078
 23
-2.9071524143218994
 33
142.0
  0
3DFACE
  8
0
 10
67.35936737060547
 20
-1.8149521350860596
 30
142.0
 11
67.13269805908203
 21
-1.896226406097412
 31
142.0
 12
66.5811996459961
 22
-2.152174711227417
 32
142.0
 13
66.5811996459961
 23
-2.152174711227417
 33
142.0
  0
3DFACE
  8
0
 10
69.25772857666016
 20
-1.2722846269607544
 30
142.0
 11
68.37761688232422
 21
-1.4770381450653076
 31
142.0
 12
67.35936737060547
 22
-1.8149521350860596
 32
142.0
 13
67.35936737060547
 23
-1.8149521350860596
 33
142.0
  0
3DFACE
  8
0
 10
70.39369201660156
 20
-1.0763919353485107
 30
142.0
 11
70.05693054199219
 21
-1.1177735328674316
 31
142.0
 12
69.45924377441406
 22
-1.2382889986038208
 32
142.0
 13
69.45924377441406
 23
-1.2382889986038208
 33
142.0
  0
3DFACE
  8
0
 10
69.45924377441406
 20
-1.2382889986038208
 30
142.0
 11
69.25772857666016
 21
-1.2722846269607544
 31
142.0
 12
67.35936737060547
 22
-1.8149521350860596
 32
142.0
 13
67.35936737060547
 23
-1.8149521350860596
 33
142.0
  0
3DFACE
  8
0
 10
67.35936737060547
 20
-1.8149521350860596
 30
142.0
 11
66.5811996459961
 21
-2.152174711227417
 31
142.0
 12
65.21198272705078
 22
-2.9071524143218994
 32
142.0
 13
65.21198272705078
 23
-2.9071524143218994
 33
142.0
  0
3DFACE
  8
0
 10
65.21198272705078
 20
-2.9071524143218994
 30
142.0
 11
64.52820587158203
 21
-3.440918207168579
 31
142.0
 12
64.2930679321289
 22
-3.661600351333618
 32
142.0
 13
64.2930679321289
 23
-3.661600351333618
 33
142.0
  0
3DFACE
  8
0
 10
64.2930679321289
 20
-3.661600351333618
 30
142.0
 11
63.60002899169922
 21
-4.2949018478393555
 31
142.0
 12
62.76968765258789
 22
-5.386207580566406
 32
142.0
 13
62.76968765258789
 23
-5.386207580566406
 33
142.0
  0
3DFACE
  8
0
 10
62.76968765258789
 20
-5.386207580566406
 30
142.0
 11
62.12685012817383
 21
-6.589130401611328
 31
142.0
 12
61.245487213134766
 22
-11.204380989074707
 32
142.0
 13
61.245487213134766
 23
-11.204380989074707
 33
142.0
  0
3DFACE
  8
0
 10
61.245487213134766
 20
-11.204380989074707
 30
142.0
 11
66.6114730834961
 21
-19.047374725341797
 31
142.0
 12
72.2911376953125
 22
-20.208810806274414
 32
142.0
 13
72.2911376953125
 23
-20.208810806274414
 33
142.0
  0
3DFACE
  8
0
 10
72.2911376953125
 20
-20.208810806274414
 30
142.0
 11
74.6864013671875
 21
-19.49664878845215
 31
142.0
 12
76.70635223388672
 22
-18.131372451782227
 32
142.0
 13
76.70635223388672
 23
-18.131372451782227
 33
142.0
  0
3DFACE
  8
0
 10
76.70635223388672
 20
-18.131372451782227
 30
142.0
 11
77.28411102294922
 21
-17.622331619262695
 31
142.0
 12
77.69340515136719
 22
-17.234981536865234
 32
142.0
 13
77.69340515136719
 23
-17.234981536865234
 33
142.0
  0
3DFACE
  8
0
 10
77.9520492553711
 20
-16.96479606628418
 30
142.0
 11
78.19551849365234
 21
-16.72327995300293
 31
142.0
 12
78.58538055419922
 22
-16.277793884277344
 32
142.0
 13
78.58538055419922
 23
-16.277793884277344
 33
142.0
  0
3DFACE
  8
0
 10
76.70635223388672
 20
-18.131372451782227
 30
142.0
 11
77.69340515136719
 21
-17.234981536865234
 31
142.0
 12
77.9520492553711
 22
-16.96479606628418
 32
142.0
 13
77.9520492553711
 23
-16.96479606628418
 33
142.0
  0
3DFACE
  8
0
 10
61.245487213134766
 20
-11.204380989074707
 30
142.0
 11
72.2911376953125
 21
-20.208810806274414
 31
142.0
 12
76.70635223388672
 22
-18.131372451782227
 32
142.0
 13
76.70635223388672
 23
-18.131372451782227
 33
142.0
  0
3DFACE
  8
0
 10
64.2930679321289
 20
-3.661600351333618
 30
142.0
 11
62.76968765258789
 21
-5.386207580566406
 31
142.0
 12
61.245487213134766
 22
-11.204380989074707
 32
142.0
 13
61.245487213134766
 23
-11.204380989074707
 33
142.0
  0
3DFACE
  8
0
 10
67.35936737060547
 20
-1.8149521350860596
 30
142.0
 11
65.21198272705078
 21
-2.9071524143218994
 31
142.0
 12
64.2930679321289
 22
-3.661600351333618
 32
142.0
 13
64.2930679321289
 23
-3.661600351333618
 33
142.0
  0
3DFACE
  8
0
 10
70.39369201660156
 20
-1.0763919353485107
 30
142.0
 11
69.45924377441406
 21
-1.2382889986038208
 31
142.0
 12
67.35936737060547
 22
-1.8149521350860596
 32
142.0
 13
67.35936737060547
 23
-1.8149521350860596
 33
142.0
  0
3DFACE
  8
0
 10
71.14398193359375
 20
-1.0400687456130981
 30
142.0
 11
70.98060607910156
 21
-1.0365829467773438
 31
142.0
 12
70.74340057373047
 22
-1.0548889636993408
 32
142.0
 13
70.74340057373047
 23
-1.0548889636993408
 33
142.0
  0
3DFACE
  8
0
 10
70.74340057373047
 20
-1.0548889636993408
 30
142.0
 11
70.39369201660156
 21
-1.0763919353485107
 31
142.0
 12
67.35936737060547
 22
-1.8149521350860596
 32
142.0
 13
67.35936737060547
 23
-1.8149521350860596
 33
142.0
  0
3DFACE
  8
0
 10
67.35936737060547
 20
-1.8149521350860596
 30
142.0
 11
64.2930679321289
 21
-3.661600351333618
 31
142.0
 12
61.245487213134766
 22
-11.204380989074707
 32
142.0
 13
61.245487213134766
 23
-11.204380989074707
 33
142.0
  0
3DFACE
  8
0
 10
61.245487213134766
 20
-11.204380989074707
 30
142.0
 11
76.70635223388672
 21
-18.131372451782227
 31
142.0
 12
77.9520492553711
 22
-16.96479606628418
 32
142.0
 13
77.9520492553711
 23
-16.96479606628418
 33
142.0
  0
3DFACE
  8
0
 10
77.9520492553711
 20
-16.96479606628418
 30
142.0
 11
78.58538055419922
 21
-16.277793884277344
 31
142.0
 12
78.95973205566406
 22
-15.833224296569824
 32
142.0
 13
78.95973205566406
 23
-15.833224296569824
 33
142.0
  0
3DFACE
  8
0
 10
78.95973205566406
 20
-15.833224296569824
 30
142.0
 11
79.45532989501953
 21
-15.115157127380371
 31
142.0
 12
79.4600830078125
 22
-15.107674598693848
 32
142.0
 13
79.4600830078125
 23
-15.107674598693848
 33
142.0
  0
3DFACE
  8
0
 10
79.4600830078125
 20
-15.107674598693848
 30
142.0
 11
79.95526885986328
 21
-14.279500961303711
 31
142.0
 12
80.2646713256836
 22
-13.512005805969238
 32
142.0
 13
80.2646713256836
 23
-13.512005805969238
 33
142.0
  0
3DFACE
  8
0
 10
80.41739654541016
 20
-13.069520950317383
 30
142.0
 11
80.5423355102539
 21
-12.742796897888184
 31
142.0
 12
80.64622497558594
 22
-12.421082496643066
 32
142.0
 13
80.64622497558594
 23
-12.421082496643066
 33
142.0
  0
3DFACE
  8
0
 10
79.4600830078125
 20
-15.107674598693848
 30
142.0
 11
80.2646713256836
 21
-13.512005805969238
 31
142.0
 12
80.41739654541016
 22
-13.069520950317383
 32
142.0
 13
80.41739654541016
 23
-13.069520950317383
 33
142.0
  0
3DFACE
  8
0
 10
77.9520492553711
 20
-16.96479606628418
 30
142.0
 11
78.95973205566406
 21
-15.833224296569824
 31
142.0
 12
79.4600830078125
 22
-15.107674598693848
 32
142.0
 13
79.4600830078125
 23
-15.107674598693848
 33
142.0
  0
3DFACE
  8
0
 10
67.35936737060547
 20
-1.8149521350860596
 30
142.0
 11
61.245487213134766
 21
-11.204380989074707
 31
142.0
 12
77.9520492553711
 22
-16.96479606628418
 32
142.0
 13
77.9520492553711
 23
-16.96479606628418
 33
142.0
  0
3DFACE
  8
0
 10
71.14398193359375
 20
-1.0400687456130981
 30
142.0
 11
70.74340057373047
 21
-1.0548889636993408
 31
142.0
 12
67.35936737060547
 22
-1.8149521350860596
 32
142.0
 13
67.35936737060547
 23
-1.8149521350860596
 33
142.0
  0
3DFACE
  8
0
 10
72.0304183959961
 20
-1.0652408599853516
 30
142.0
 11
71.62385559082031
 21
-1.0379220247268677
 31
142.0
 12
71.14398193359375
 22
-1.0400687456130981
 32
142.0
 13
71.14398193359375
 23
-1.0400687456130981
 33
142.0
  0
3DFACE
  8
0
 10
72.79351043701172
 20
-1.1637766361236572
 30
142.0
 11
72.32058715820312
 21
-1.0897818803787231
 31
142.0
 12
72.0304183959961
 22
-1.0652408599853516
 32
142.0
 13
72.0304183959961
 23
-1.0652408599853516
 33
142.0
  0
3DFACE
  8
0
 10
73.89781188964844
 20
-1.4169905185699463
 30
142.0
 11
73.55364227294922
 21
-1.3284993171691895
 31
142.0
 12
72.79351043701172
 22
-1.1637766361236572
 32
142.0
 13
72.79351043701172
 23
-1.1637766361236572
 33
142.0
  0
3DFACE
  8
0
 10
75.51081085205078
 20
-1.949834942817688
 30
142.0
 11
74.6864013671875
 21
-1.6588983535766602
 31
142.0
 12
73.89781188964844
 22
-1.4169905185699463
 32
142.0
 13
73.89781188964844
 23
-1.4169905185699463
 33
142.0
  0
3DFACE
  8
0
 10
76.69468688964844
 20
-2.5184032917022705
 30
142.0
 11
75.53296661376953
 21
-1.9587677717208862
 31
142.0
 12
75.51081085205078
 22
-1.949834942817688
 32
142.0
 13
75.51081085205078
 23
-1.949834942817688
 33
142.0
  0
3DFACE
  8
0
 10
78.08502197265625
 20
-3.512295722961426
 30
142.0
 11
77.07418823242188
 21
-2.7429113388061523
 31
142.0
 12
76.69468688964844
 22
-2.5184032917022705
 32
142.0
 13
76.69468688964844
 23
-2.5184032917022705
 33
142.0
  0
3DFACE
  8
0
 10
78.80029296875
 20
-4.208721160888672
 30
142.0
 11
78.67205810546875
 21
-4.071750640869141
 31
142.0
 12
78.08502197265625
 22
-3.512295722961426
 32
142.0
 13
78.08502197265625
 23
-3.512295722961426
 33
142.0
  0
3DFACE
  8
0
 10
79.8451156616211
 20
-5.59194278717041
 30
142.0
 11
79.5101318359375
 21
-5.049004554748535
 31
142.0
 12
78.80029296875
 22
-4.208721160888672
 32
142.0
 13
78.80029296875
 23
-4.208721160888672
 33
142.0
  0
3DFACE
  8
0
 10
80.21952819824219
 20
-6.209905624389648
 30
142.0
 11
79.98495483398438
 21
-5.806447982788086
 31
142.0
 12
79.8451156616211
 22
-5.59194278717041
 32
142.0
 13
79.8451156616211
 23
-5.59194278717041
 33
142.0
  0
3DFACE
  8
0
 10
80.70254516601562
 20
-7.296382904052734
 30
142.0
 11
80.4206771850586
 21
-6.589130401611328
 31
142.0
 12
80.21952819824219
 22
-6.209905624389648
 32
142.0
 13
80.21952819824219
 23
-6.209905624389648
 33
142.0
  0
3DFACE
  8
0
 10
80.96189880371094
 20
-8.127547264099121
 30
142.0
 11
80.9463882446289
 21
-8.07451343536377
 31
142.0
 12
80.70254516601562
 22
-7.296382904052734
 32
142.0
 13
80.70254516601562
 23
-7.296382904052734
 33
142.0
  0
3DFACE
  8
0
 10
81.06536865234375
 20
-8.896754264831543
 30
142.0
 11
81.0614013671875
 21
-8.856053352355957
 31
142.0
 12
80.96189880371094
 22
-8.127547264099121
 32
142.0
 13
80.96189880371094
 23
-8.127547264099121
 33
142.0
  0
3DFACE
  8
0
 10
81.09123229980469
 20
-9.66596508026123
 30
142.0
 11
81.09027099609375
 21
-9.615982055664062
 31
142.0
 12
81.06536865234375
 22
-8.896754264831543
 32
142.0
 13
81.06536865234375
 23
-8.896754264831543
 33
142.0
  0
3DFACE
  8
0
 10
81.03787994384766
 20
-10.468212127685547
 30
142.0
 11
81.04171752929688
 21
-10.435172080993652
 31
142.0
 12
81.09123229980469
 22
-9.66596508026123
 32
142.0
 13
81.09123229980469
 23
-9.66596508026123
 33
142.0
  0
3DFACE
  8
0
 10
80.83287048339844
 20
-11.742551803588867
 30
142.0
 11
80.93218994140625
 21
-11.204380989074707
 31
142.0
 12
81.03787994384766
 22
-10.468212127685547
 32
142.0
 13
81.03787994384766
 23
-10.468212127685547
 33
142.0
  0
3DFACE
  8
0
 10
80.64622497558594
 20
-12.421082496643066
 30
142.0
 11
80.77848052978516
 21
-11.973589897155762
 31
142.0
 12
80.83287048339844
 22
-11.742551803588867
 32
142.0
 13
80.83287048339844
 23
-11.742551803588867
 33
142.0
  0
3DFACE
  8
0
 10
79.4600830078125
 20
-15.107674598693848
 30
142.0
 11
80.41739654541016
 21
-13.069520950317383
 31
142.0
 12
80.64622497558594
 22
-12.421082496643066
 32
142.0
 13
80.64622497558594
 23
-12.421082496643066
 33
142.0
  0
3DFACE
  8
0
 10
67.35936737060547
 20
-1.8149521350860596
 30
142.0
 11
77.9520492553711
 21
-16.96479606628418
 31
142.0
 12
79.4600830078125
 22
-15.107674598693848
 32
142.0
 13
79.4600830078125
 23
-15.107674598693848
 33
142.0
  0
3DFACE
  8
0
 10
72.0304183959961
 20
-1.0652408599853516
 30
142.0
 11
71.14398193359375
 21
-1.0400687456130981
 31
142.0
 12
67.35936737060547
 22
-1.8149521350860596
 32
142.0
 13
67.35936737060547
 23
-1.8149521350860596
 33
142.0
  0
3DFACE
  8
0
 10
73.89781188964844
 20
-1.4169905185699463
 30
142.0
 11
72.79351043701172
 21
-1.1637766361236572
 31
142.0
 12
72.0304183959961
 22
-1.0652408599853516
 32
142.0
 13
72.0304183959961
 23
-1.0652408599853516
 33
142.0
  0
3DFACE
  8
0
 10
76.69468688964844
 20
-2.5184032917022705
 30
142.0
 11
75.51081085205078
 21
-1.949834942817688
 31
142.0
 12
73.89781188964844
 22
-1.4169905185699463
 32
142.0
 13
73.89781188964844
 23
-1.4169905185699463
 33
142.0
  0
3DFACE
  8
0
 10
78.80029296875
 20
-4.208721160888672
 30
142.0
 11
78.08502197265625
 21
-3.512295722961426
 31
142.0
 12
76.69468688964844
 22
-2.5184032917022705
 32
142.0
 13
76.69468688964844
 23
-2.5184032917022705
 33
142.0
  0
3DFACE
  8
0
 10
80.21952819824219
 20
-6.209905624389648
 30
142.0
 11
79.8451156616211
 21
-5.59194278717041
 31
142.0
 12
78.80029296875
 22
-4.208721160888672
 32
142.0
 13
78.80029296875
 23
-4.208721160888672
 33
142.0
  0
3DFACE
  8
0
 10
80.96189880371094
 20
-8.127547264099121
 30
142.0
 11
80.70254516601562
 21
-7.296382904052734
 31
142.0
 12
80.21952819824219
 22
-6.209905624389648
 32
142.0
 13
80.21952819824219
 23
-6.209905624389648
 33
142.0
  0
3DFACE
  8
0
 10
81.09123229980469
 20
-9.66596508026123
 30
142.0
 11
81.06536865234375
 21
-8.896754264831543
 31
142.0
 12
80.96189880371094
 22
-8.127547264099121
 32
142.0
 13
80.96189880371094
 23
-8.127547264099121
 33
142.0
  0
3DFACE
  8
0
 10
80.83287048339844
 20
-11.742551803588867
 30
142.0
 11
81.03787994384766
 21
-10.468212127685547
 31
142.0
 12
81.09123229980469
 22
-9.66596508026123
 32
142.0
 13
81.09123229980469
 23
-9.66596508026123
 33
142.0
  0
3DFACE
  8
0
 10
79.4600830078125
 20
-15.107674598693848
 30
142.0
 11
80.64622497558594
 21
-12.421082496643066
 31
142.0
 12
80.83287048339844
 22
-11.742551803588867
 32
142.0
 13
80.83287048339844
 23
-11.742551803588867
 33
142.0
  0
3DFACE
  8
0
 10
72.0304183959961
 20
-1.0652408599853516
 30
142.0
 11
67.35936737060547
 21
-1.8149521350860596
 31
142.0
 12
79.4600830078125
 22
-15.107674598693848
 32
142.0
 13
79.4600830078125
 23
-15.107674598693848
 33
142.0
  0
3DFACE
  8
0
 10
76.69468688964844
 20
-2.5184032917022705
 30
142.0
 11
73.89781188964844
 21
-1.4169905185699463
 31
142.0
 12
72.0304183959961
 22
-1.0652408599853516
 32
142.0
 13
72.0304183959961
 23
-1.0652408599853516
 33
142.0
  0
3DFACE
  8
0
 10
80.21952819824219
 20
-6.209905624389648
 30
142.0
 11
78.80029296875
 21
-4.208721160888672
 31
142.0
 12
76.69468688964844
 22
-2.5184032917022705
 32
142.0
 13
76.69468688964844
 23
-2.5184032917022705
 33
142.0
  0
3DFACE
  8
0
 10
81.09123229980469
 20
-9.66596508026123
 30
142.0
 11
80.96189880371094
 21
-8.127547264099121
 31
142.0
 12
80.21952819824219
 22
-6.209905624389648
 32
142.0
 13
80.21952819824219
 23
-6.209905624389648
 33
142.0
  0
3DFACE
  8
0
 10
79.4600830078125
 20
-15.107674598693848
 30
142.0
 11
80.83287048339844
 21
-11.742551803588867
 31
142.0
 12
81.09123229980469
 22
-9.66596508026123
 32
142.0
 13
81.09123229980469
 23
-9.66596508026123
 33
142.0
  0
3DFACE
  8
0
 10
76.69468688964844
 20
-2.5184032917022705
 30
142.0
 11
72.0304183959961
 21
-1.0652408599853516
 31
142.0
 12
79.4600830078125
 22
-15.107674598693848
 32
142.0
 13
79.4600830078125
 23
-15.107674598693848
 33
142.0
  0
3DFACE
  8
0
 10
81.09123229980469
 20
-9.66596508026123
 30
142.0
 11
80.21952819824219
 21
-6.209905624389648
 31
142.0
 12
76.69468688964844
 22
-2.5184032917022705
 32
142.0
 13
76.69468688964844
 23
-2.5184032917022705
 33
142.0
  0
3DFACE
  8
0
 10
79.4600830078125
 20
-15.107674598693848
 30
142.0
 11
81.09123229980469
 21
-9.66596508026123
 31
142.0
 12
76.69468688964844
 22
-2.5184032917022705
 32
142.0
 13
76.69468688964844
 23
-2.5184032917022705
 33
142.0
  0
3DFACE
  8
0
 10
-51.166934967041016
 20
2.7151288986206055
 30
142.0
 11
-51.53886032104492
 21
2.9964840412139893
 31
142.0
 12
-51.623695373535156
 22
3.053908348083496
 32
142.0
 13
-51.623695373535156
 23
3.053908348083496
 33
142.0
  0
3DFACE
  8
0
 10
-51.623695373535156
 20
3.053908348083496
 30
142.0
 11
-52.153953552246094
 21
3.398132801055908
 31
142.0
 12
-52.33098602294922
 22
3.508989095687866
 32
142.0
 13
-52.33098602294922
 23
3.508989095687866
 33
142.0
  0
3DFACE
  8
0
 10
-52.477684020996094
 20
3.5794191360473633
 30
142.0
 11
-53.151817321777344
 21
3.9622504711151123
 31
142.0
 12
-53.60214614868164
 22
4.185902118682861
 32
142.0
 13
-53.60214614868164
 23
4.185902118682861
 33
142.0
  0
3DFACE
  8
0
 10
-51.623695373535156
 20
3.053908348083496
 30
142.0
 11
-52.33098602294922
 21
3.508989095687866
 31
142.0
 12
-52.477684020996094
 22
3.5794191360473633
 32
142.0
 13
-52.477684020996094
 23
3.5794191360473633
 33
142.0
  0
3DFACE
  8
0
 10
-50.77445602416992
 20
2.4045493602752686
 30
142.0
 11
-51.166934967041016
 21
2.7151288986206055
 31
142.0
 12
-51.623695373535156
 22
3.053908348083496
 32
142.0
 13
-51.623695373535156
 23
3.053908348083496
 33
142.0
  0
3DFACE
  8
0
 10
-49.232669830322266
 20
0.865595281124115
 30
142.0
 11
-50.2061653137207
 21
1.9435455799102783
 31
142.0
 12
-50.62969207763672
 22
2.2746663093566895
 32
142.0
 13
-50.62969207763672
 23
2.2746663093566895
 33
142.0
  0
3DFACE
  8
0
 10
-50.62969207763672
 20
2.2746663093566895
 30
142.0
 11
-50.77445602416992
 21
2.4045493602752686
 31
142.0
 12
-51.623695373535156
 22
3.053908348083496
 32
142.0
 13
-51.623695373535156
 23
3.053908348083496
 33
142.0
  0
3DFACE
  8
0
 10
-51.623695373535156
 20
3.053908348083496
 30
142.0
 11
-52.477684020996094
 21
3.5794191360473633
 31
142.0
 12
-53.60214614868164
 22
4.185902118682861
 32
142.0
 13
-53.60214614868164
 23
4.185902118682861
 33
142.0
  0
3DFACE
  8
0
 10
-53.60214614868164
 20
4.185902118682861
 30
142.0
 11
-53.88555145263672
 21
4.304375648498535
 31
142.0
 12
-54.44678497314453
 22
4.520218849182129
 32
142.0
 13
-54.44678497314453
 23
4.520218849182129
 33
142.0
  0
3DFACE
  8
0
 10
-54.44678497314453
 20
4.520218849182129
 30
142.0
 11
-54.52778625488281
 21
4.556707859039307
 31
142.0
 12
-55.17525863647461
 22
4.7202372550964355
 32
142.0
 13
-55.17525863647461
 23
4.7202372550964355
 33
142.0
  0
3DFACE
  8
0
 10
-55.17525863647461
 20
4.7202372550964355
 30
142.0
 11
-55.308258056640625
 21
4.772750377655029
 31
142.0
 12
-55.95573806762695
 22
4.970839500427246
 32
142.0
 13
-55.95573806762695
 23
4.970839500427246
 33
142.0
  0
3DFACE
  8
0
 10
-55.95573806762695
 20
4.970839500427246
 30
142.0
 11
-56.08943176269531
 21
5.01469087600708
 31
142.0
 12
-56.73690414428711
 22
5.144471168518066
 32
142.0
 13
-56.73690414428711
 23
5.144471168518066
 33
142.0
  0
3DFACE
  8
0
 10
-56.73690414428711
 20
5.144471168518066
 30
142.0
 11
-56.86920928955078
 21
5.169010639190674
 31
142.0
 12
-57.51669692993164
 22
5.219970703125
 32
142.0
 13
-57.51669692993164
 23
5.219970703125
 33
142.0
  0
3DFACE
  8
0
 10
-57.51669692993164
 20
5.219970703125
 30
142.0
 11
-57.649696350097656
 21
5.241624355316162
 31
142.0
 12
-58.43016815185547
 22
5.287651062011719
 32
142.0
 13
-58.43016815185547
 23
5.287651062011719
 33
142.0
  0
3DFACE
  8
0
 10
-59.07765579223633
 20
5.285102367401123
 30
142.0
 11
-59.210655212402344
 21
5.293097972869873
 31
142.0
 12
-59.85812759399414
 22
5.245733737945557
 32
142.0
 13
-59.85812759399414
 23
5.245733737945557
 33
142.0
  0
3DFACE
  8
0
 10
-57.51669692993164
 20
5.219970703125
 30
142.0
 11
-58.43016815185547
 21
5.287651062011719
 31
142.0
 12
-59.07765579223633
 22
5.285102367401123
 32
142.0
 13
-59.07765579223633
 23
5.285102367401123
 33
142.0
  0
3DFACE
  8
0
 10
-55.95573806762695
 20
4.970839500427246
 30
142.0
 11
-56.73690414428711
 21
5.144471168518066
 31
142.0
 12
-57.51669692993164
 22
5.219970703125
 32
142.0
 13
-57.51669692993164
 23
5.219970703125
 33
142.0
  0
3DFACE
  8
0
 10
-53.60214614868164
 20
4.185902118682861
 30
142.0
 11
-54.44678497314453
 21
4.520218849182129
 31
142.0
 12
-55.17525863647461
 22
4.7202372550964355
 32
142.0
 13
-55.17525863647461
 23
4.7202372550964355
 33
142.0
  0
3DFACE
  8
0
 10
-55.17525863647461
 20
4.7202372550964355
 30
142.0
 11
-55.95573806762695
 21
4.970839500427246
 31
142.0
 12
-57.51669692993164
 22
5.219970703125
 32
142.0
 13
-57.51669692993164
 23
5.219970703125
 33
142.0
  0
3DFACE
  8
0
 10
-57.51669692993164
 20
5.219970703125
 30
142.0
 11
-59.07765579223633
 21
5.285102367401123
 31
142.0
 12
-59.85812759399414
 22
5.245733737945557
 32
142.0
 13
-59.85812759399414
 23
5.245733737945557
 33
142.0
  0
3DFACE
  8
0
 10
-59.85812759399414
 20
5.245733737945557
 30
142.0
 11
-59.991127014160156
 21
5.245628356933594
 31
142.0
 12
-60.720367431640625
 22
5.147028923034668
 32
142.0
 13
-60.720367431640625
 23
5.147028923034668
 33
142.0
  0
3DFACE
  8
0
 10
-60.720367431640625
 20
5.147028923034668
 30
142.0
 11
-60.85336685180664
 21
5.134450435638428
 31
142.0
 12
-60.98637008666992
 22
5.116563320159912
 32
142.0
 13
-60.98637008666992
 23
5.116563320159912
 33
142.0
  0
3DFACE
  8
0
 10
-60.98637008666992
 20
5.116563320159912
 30
142.0
 11
-61.552093505859375
 21
5.004645824432373
 31
142.0
 12
-61.69554901123047
 22
4.974067687988281
 32
142.0
 13
-61.69554901123047
 23
4.974067687988281
 33
142.0
  0
3DFACE
  8
0
 10
-62.337982177734375
 20
4.798122882843018
 30
142.0
 11
-62.465553283691406
 21
4.767565727233887
 31
142.0
 12
-63.11304473876953
 22
4.562284469604492
 32
142.0
 13
-63.11304473876953
 23
4.562284469604492
 33
142.0
  0
3DFACE
  8
0
 10
-60.98637008666992
 20
5.116563320159912
 30
142.0
 11
-61.69554901123047
 21
4.974067687988281
 31
142.0
 12
-62.337982177734375
 22
4.798122882843018
 32
142.0
 13
-62.337982177734375
 23
4.798122882843018
 33
142.0
  0
3DFACE
  8
0
 10
-59.85812759399414
 20
5.245733737945557
 30
142.0
 11
-60.720367431640625
 21
5.147028923034668
 31
142.0
 12
-60.98637008666992
 22
5.116563320159912
 32
142.0
 13
-60.98637008666992
 23
5.116563320159912
 33
142.0
  0
3DFACE
  8
0
 10
-55.17525863647461
 20
4.7202372550964355
 30
142.0
 11
-57.51669692993164
 21
5.219970703125
 31
142.0
 12
-59.85812759399414
 22
5.245733737945557
 32
142.0
 13
-59.85812759399414
 23
5.245733737945557
 33
142.0
  0
3DFACE
  8
0
 10
-51.623695373535156
 20
3.053908348083496
 30
142.0
 11
-53.60214614868164
 21
4.185902118682861
 31
142.0
 12
-55.17525863647461
 22
4.7202372550964355
 32
142.0
 13
-55.17525863647461
 23
4.7202372550964355
 33
142.0
  0
3DFACE
  8
0
 10
-49.232669830322266
 20
0.865595281124115
 30
142.0
 11
-50.62969207763672
 21
2.2746663093566895
 31
142.0
 12
-51.623695373535156
 22
3.053908348083496
 32
142.0
 13
-51.623695373535156
 23
3.053908348083496
 33
142.0
  0
3DFACE
  8
0
 10
-48.8775749206543
 20
0.3870755434036255
 30
142.0
 11
-49.064422607421875
 21
0.6485300660133362
 31
142.0
 12
-49.232669830322266
 22
0.865595281124115
 32
142.0
 13
-49.232669830322266
 23
0.865595281124115
 33
142.0
  0
3DFACE
  8
0
 10
-48.122474670410156
 20
-1.1738810539245605
 30
142.0
 11
-48.45637130737305
 21
-0.39340299367904663
 31
142.0
 12
-48.65282440185547
 22
-0.036717288196086884
 32
142.0
 13
-48.65282440185547
 23
-0.036717288196086884
 33
142.0
  0
3DFACE
  8
0
 10
-48.65282440185547
 20
-0.036717288196086884
 30
142.0
 11
-48.8775749206543
 21
0.3870755434036255
 31
142.0
 12
-49.232669830322266
 22
0.865595281124115
 32
142.0
 13
-49.232669830322266
 23
0.865595281124115
 33
142.0
  0
3DFACE
  8
0
 10
-49.232669830322266
 20
0.865595281124115
 30
142.0
 11
-51.623695373535156
 21
3.053908348083496
 31
142.0
 12
-55.17525863647461
 22
4.7202372550964355
 32
142.0
 13
-55.17525863647461
 23
4.7202372550964355
 33
142.0
  0
3DFACE
  8
0
 10
-55.17525863647461
 20
4.7202372550964355
 30
142.0
 11
-59.85812759399414
 21
5.245733737945557
 31
142.0
 12
-60.98637008666992
 22
5.116563320159912
 32
142.0
 13
-60.98637008666992
 23
5.116563320159912
 33
142.0
  0
3DFACE
  8
0
 10
-60.98637008666992
 20
5.116563320159912
 30
142.0
 11
-62.337982177734375
 21
4.798122882843018
 31
142.0
 12
-63.11304473876953
 22
4.562284469604492
 32
142.0
 13
-63.11304473876953
 23
4.562284469604492
 33
142.0
  0
3DFACE
  8
0
 10
-63.11304473876953
 20
4.562284469604492
 30
142.0
 11
-64.67399597167969
 21
3.9320273399353027
 31
142.0
 12
-65.32479095458984
 22
3.6149322986602783
 32
142.0
 13
-65.32479095458984
 23
3.6149322986602783
 33
142.0
  0
3DFACE
  8
0
 10
-65.32479095458984
 20
3.6149322986602783
 30
142.0
 11
-65.5575180053711
 21
3.506333351135254
 31
142.0
 12
-66.89144134521484
 22
2.7427690029144287
 32
142.0
 13
-66.89144134521484
 23
2.7427690029144287
 33
142.0
  0
3DFACE
  8
0
 10
-66.89144134521484
 20
2.7427690029144287
 30
142.0
 11
-66.91519165039062
 21
2.728165864944458
 31
142.0
 12
-67.82228088378906
 22
2.097133159637451
 32
142.0
 13
-67.82228088378906
 23
2.097133159637451
 33
142.0
  0
3DFACE
  8
0
 10
-67.82228088378906
 20
2.097133159637451
 30
142.0
 11
-67.99031066894531
 21
1.9681649208068848
 31
142.0
 12
-68.77600860595703
 22
1.1983014345169067
 32
142.0
 13
-68.77600860595703
 23
1.1983014345169067
 33
142.0
  0
3DFACE
  8
0
 10
-68.77600860595703
 20
1.1983014345169067
 30
142.0
 11
-69.40997314453125
 21
0.38844233751296997
 31
142.0
 12
-69.5079116821289
 22
0.1982160359621048
 32
142.0
 13
-69.5079116821289
 23
0.1982160359621048
 33
142.0
  0
3DFACE
  8
0
 10
-69.5079116821289
 20
0.1982160359621048
 30
142.0
 11
-69.84962463378906
 21
-0.39340299367904663
 31
142.0
 12
-70.10016632080078
 22
-1.0228767395019531
 32
142.0
 13
-70.10016632080078
 23
-1.0228767395019531
 33
142.0
  0
3DFACE
  8
0
 10
-70.10016632080078
 20
-1.0228767395019531
 30
142.0
 11
-70.22270202636719
 21
-1.298474669456482
 31
142.0
 12
-70.45203399658203
 22
-1.954359769821167
 32
142.0
 13
-70.45203399658203
 23
-1.954359769821167
 33
142.0
  0
3DFACE
  8
0
 10
-70.52037811279297
 20
-2.337390899658203
 30
142.0
 11
-70.60984802246094
 21
-2.7348380088806152
 31
142.0
 12
-70.62870025634766
 22
-3.023969888687134
 32
142.0
 13
-70.62870025634766
 23
-3.023969888687134
 33
142.0
  0
3DFACE
  8
0
 10
-70.10016632080078
 20
-1.0228767395019531
 30
142.0
 11
-70.45203399658203
 21
-1.954359769821167
 31
142.0
 12
-70.52037811279297
 22
-2.337390899658203
 32
142.0
 13
-70.52037811279297
 23
-2.337390899658203
 33
142.0
  0
3DFACE
  8
0
 10
-68.77600860595703
 20
1.1983014345169067
 30
142.0
 11
-69.5079116821289
 21
0.1982160359621048
 31
142.0
 12
-70.10016632080078
 22
-1.0228767395019531
 32
142.0
 13
-70.10016632080078
 23
-1.0228767395019531
 33
142.0
  0
3DFACE
  8
0
 10
-66.89144134521484
 20
2.7427690029144287
 30
142.0
 11
-67.82228088378906
 21
2.097133159637451
 31
142.0
 12
-68.77600860595703
 22
1.1983014345169067
 32
142.0
 13
-68.77600860595703
 23
1.1983014345169067
 33
142.0
  0
3DFACE
  8
0
 10
-63.11304473876953
 20
4.562284469604492
 30
142.0
 11
-65.32479095458984
 21
3.6149322986602783
 31
142.0
 12
-66.89144134521484
 22
2.7427690029144287
 32
142.0
 13
-66.89144134521484
 23
2.7427690029144287
 33
142.0
  0
3DFACE
  8
0
 10
-55.17525863647461
 20
4.7202372550964355
 30
142.0
 11
-60.98637008666992
 21
5.116563320159912
 31
142.0
 12
-63.11304473876953
 22
4.562284469604492
 32
142.0
 13
-63.11304473876953
 23
4.562284469604492
 33
142.0
  0
3DFACE
  8
0
 10
-48.65282440185547
 20
-0.036717288196086884
 30
142.0
 11
-49.232669830322266
 21
0.865595281124115
 31
142.0
 12
-55.17525863647461
 22
4.7202372550964355
 32
142.0
 13
-55.17525863647461
 23
4.7202372550964355
 33
142.0
  0
3DFACE
  8
0
 10
-48.085113525390625
 20
-1.3021881580352783
 30
142.0
 11
-48.122474670410156
 21
-1.1738810539245605
 31
142.0
 12
-48.65282440185547
 22
-0.036717288196086884
 32
142.0
 13
-48.65282440185547
 23
-0.036717288196086884
 33
142.0
  0
3DFACE
  8
0
 10
-47.905487060546875
 20
-2.083486318588257
 30
142.0
 11
-47.93190002441406
 21
-1.954359769821167
 31
142.0
 12
-48.085113525390625
 22
-1.3021881580352783
 32
142.0
 13
-48.085113525390625
 23
-1.3021881580352783
 33
142.0
  0
3DFACE
  8
0
 10
-47.701271057128906
 20
-3.3453192710876465
 30
142.0
 11
-47.757320404052734
 21
-2.7348380088806152
 31
142.0
 12
-47.905487060546875
 22
-2.083486318588257
 32
142.0
 13
-47.905487060546875
 23
-2.083486318588257
 33
142.0
  0
3DFACE
  8
0
 10
-47.7203369140625
 20
-4.295794486999512
 30
142.0
 11
-47.68162536621094
 21
-3.515316963195801
 31
142.0
 12
-47.701271057128906
 22
-3.3453192710876465
 32
142.0
 13
-47.701271057128906
 23
-3.3453192710876465
 33
142.0
  0
3DFACE
  8
0
 10
-47.87370681762695
 20
-5.209272861480713
 30
142.0
 11
-47.84281539916992
 21
-5.060977935791016
 31
142.0
 12
-47.828758239746094
 22
-4.951835632324219
 32
142.0
 13
-47.828758239746094
 23
-4.951835632324219
 33
142.0
  0
3DFACE
  8
0
 10
-47.828758239746094
 20
-4.951835632324219
 30
142.0
 11
-47.7203369140625
 21
-4.295794486999512
 31
142.0
 12
-47.701271057128906
 22
-3.3453192710876465
 32
142.0
 13
-47.701271057128906
 23
-3.3453192710876465
 33
142.0
  0
3DFACE
  8
0
 10
-47.701271057128906
 20
-3.3453192710876465
 30
142.0
 11
-47.905487060546875
 21
-2.083486318588257
 31
142.0
 12
-48.085113525390625
 22
-1.3021881580352783
 32
142.0
 13
-48.085113525390625
 23
-1.3021881580352783
 33
142.0
  0
3DFACE
  8
0
 10
-48.085113525390625
 20
-1.3021881580352783
 30
142.0
 11
-48.65282440185547
 21
-0.036717288196086884
 31
142.0
 12
-55.17525863647461
 22
4.7202372550964355
 32
142.0
 13
-55.17525863647461
 23
4.7202372550964355
 33
142.0
  0
3DFACE
  8
0
 10
-55.17525863647461
 20
4.7202372550964355
 30
142.0
 11
-63.11304473876953
 21
4.562284469604492
 31
142.0
 12
-66.89144134521484
 22
2.7427690029144287
 32
142.0
 13
-66.89144134521484
 23
2.7427690029144287
 33
142.0
  0
3DFACE
  8
0
 10
-66.89144134521484
 20
2.7427690029144287
 30
142.0
 11
-68.77600860595703
 21
1.1983014345169067
 31
142.0
 12
-70.10016632080078
 22
-1.0228767395019531
 32
142.0
 13
-70.10016632080078
 23
-1.0228767395019531
 33
142.0
  0
3DFACE
  8
0
 10
-70.10016632080078
 20
-1.0228767395019531
 30
142.0
 11
-70.52037811279297
 21
-2.337390899658203
 31
142.0
 12
-70.62870025634766
 22
-3.023969888687134
 32
142.0
 13
-70.62870025634766
 23
-3.023969888687134
 33
142.0
  0
3DFACE
  8
0
 10
-70.62870025634766
 20
-3.023969888687134
 30
142.0
 11
-70.69551086425781
 21
-3.515316963195801
 31
142.0
 12
-70.69654083251953
 22
-3.7366042137145996
 32
142.0
 13
-70.69654083251953
 23
-3.7366042137145996
 33
142.0
  0
3DFACE
  8
0
 10
-70.69654083251953
 20
-3.7366042137145996
 30
142.0
 11
-70.689453125
 21
-4.295794486999512
 31
142.0
 12
-70.6772689819336
 22
-4.565756320953369
 32
142.0
 13
-70.6772689819336
 23
-4.565756320953369
 33
142.0
  0
3DFACE
  8
0
 10
-70.64769744873047
 20
-4.806140899658203
 30
142.0
 11
-70.62705993652344
 21
-5.076273441314697
 31
142.0
 12
-70.48310089111328
 22
-5.541951656341553
 32
142.0
 13
-70.48310089111328
 23
-5.541951656341553
 33
142.0
  0
3DFACE
  8
0
 10
-70.69654083251953
 20
-3.7366042137145996
 30
142.0
 11
-70.6772689819336
 21
-4.565756320953369
 31
142.0
 12
-70.64769744873047
 22
-4.806140899658203
 32
142.0
 13
-70.64769744873047
 23
-4.806140899658203
 33
142.0
  0
3DFACE
  8
0
 10
-70.10016632080078
 20
-1.0228767395019531
 30
142.0
 11
-70.62870025634766
 21
-3.023969888687134
 31
142.0
 12
-70.69654083251953
 22
-3.7366042137145996
 32
142.0
 13
-70.69654083251953
 23
-3.7366042137145996
 33
142.0
  0
3DFACE
  8
0
 10
-55.17525863647461
 20
4.7202372550964355
 30
142.0
 11
-66.89144134521484
 21
2.7427690029144287
 31
142.0
 12
-70.10016632080078
 22
-1.0228767395019531
 32
142.0
 13
-70.10016632080078
 23
-1.0228767395019531
 33
142.0
  0
3DFACE
  8
0
 10
-47.701271057128906
 20
-3.3453192710876465
 30
142.0
 11
-48.085113525390625
 21
-1.3021881580352783
 31
142.0
 12
-55.17525863647461
 22
4.7202372550964355
 32
142.0
 13
-55.17525863647461
 23
4.7202372550964355
 33
142.0
  0
3DFACE
  8
0
 10
-47.87370681762695
 20
-5.209272861480713
 30
142.0
 11
-47.828758239746094
 21
-4.951835632324219
 31
142.0
 12
-47.701271057128906
 22
-3.3453192710876465
 32
142.0
 13
-47.701271057128906
 23
-3.3453192710876465
 33
142.0
  0
3DFACE
  8
0
 10
-48.268226623535156
 20
-6.637230396270752
 30
142.0
 11
-48.02976989746094
 21
-5.856751441955566
 31
142.0
 12
-47.87370681762695
 22
-5.209272861480713
 32
142.0
 13
-47.87370681762695
 23
-5.209272861480713
 33
142.0
  0
3DFACE
  8
0
 10
-49.086631774902344
 20
-8.221076965332031
 30
142.0
 11
-48.64747619628906
 21
-7.420417308807373
 31
142.0
 12
-48.59174346923828
 22
-7.2847089767456055
 32
142.0
 13
-48.59174346923828
 23
-7.2847089767456055
 33
142.0
  0
3DFACE
  8
0
 10
-48.59174346923828
 20
-7.2847089767456055
 30
142.0
 11
-48.268226623535156
 21
-6.637230396270752
 31
142.0
 12
-47.87370681762695
 22
-5.209272861480713
 32
142.0
 13
-47.87370681762695
 23
-5.209272861480713
 33
142.0
  0
3DFACE
  8
0
 10
-47.87370681762695
 20
-5.209272861480713
 30
142.0
 11
-47.701271057128906
 21
-3.3453192710876465
 31
142.0
 12
-55.17525863647461
 22
4.7202372550964355
 32
142.0
 13
-55.17525863647461
 23
4.7202372550964355
 33
142.0
  0
3DFACE
  8
0
 10
-55.17525863647461
 20
4.7202372550964355
 30
142.0
 11
-70.10016632080078
 21
-1.0228767395019531
 31
142.0
 12
-70.69654083251953
 22
-3.7366042137145996
 32
142.0
 13
-70.69654083251953
 23
-3.7366042137145996
 33
142.0
  0
3DFACE
  8
0
 10
-70.69654083251953
 20
-3.7366042137145996
 30
142.0
 11
-70.64769744873047
 21
-4.806140899658203
 31
142.0
 12
-70.48310089111328
 22
-5.541951656341553
 32
142.0
 13
-70.48310089111328
 23
-5.541951656341553
 33
142.0
  0
3DFACE
  8
0
 10
-70.41787719726562
 20
-5.856751441955566
 30
142.0
 11
-70.31829833984375
 21
-6.456276893615723
 31
142.0
 12
-70.26168060302734
 22
-6.641993999481201
 32
142.0
 13
-70.26168060302734
 23
-6.641993999481201
 33
142.0
  0
3DFACE
  8
0
 10
-70.69654083251953
 20
-3.7366042137145996
 30
142.0
 11
-70.48310089111328
 21
-5.541951656341553
 31
142.0
 12
-70.41787719726562
 22
-5.856751441955566
 32
142.0
 13
-70.41787719726562
 23
-5.856751441955566
 33
142.0
  0
3DFACE
  8
0
 10
-47.87370681762695
 20
-5.209272861480713
 30
142.0
 11
-55.17525863647461
 21
4.7202372550964355
 31
142.0
 12
-70.69654083251953
 22
-3.7366042137145996
 32
142.0
 13
-70.69654083251953
 23
-3.7366042137145996
 33
142.0
  0
3DFACE
  8
0
 10
-49.086631774902344
 20
-8.221076965332031
 30
142.0
 11
-48.59174346923828
 21
-7.2847089767456055
 31
142.0
 12
-47.87370681762695
 22
-5.209272861480713
 32
142.0
 13
-47.87370681762695
 23
-5.209272861480713
 33
142.0
  0
3DFACE
  8
0
 10
-50.305992126464844
 20
-9.761707305908203
 30
142.0
 11
-49.62852478027344
 21
-8.97866439819336
 31
142.0
 12
-49.538291931152344
 22
-8.845664978027344
 32
142.0
 13
-49.538291931152344
 23
-8.845664978027344
 33
142.0
  0
3DFACE
  8
0
 10
-49.538291931152344
 20
-8.845664978027344
 30
142.0
 11
-49.086631774902344
 21
-8.221076965332031
 31
142.0
 12
-47.87370681762695
 22
-5.209272861480713
 32
142.0
 13
-47.87370681762695
 23
-5.209272861480713
 33
142.0
  0
3DFACE
  8
0
 10
-47.87370681762695
 20
-5.209272861480713
 30
142.0
 11
-70.69654083251953
 21
-3.7366042137145996
 31
142.0
 12
-70.41787719726562
 22
-5.856751441955566
 32
142.0
 13
-70.41787719726562
 23
-5.856751441955566
 33
142.0
  0
3DFACE
  8
0
 10
-70.41787719726562
 20
-5.856751441955566
 30
142.0
 11
-70.26168060302734
 21
-6.641993999481201
 31
142.0
 12
-69.9894027709961
 22
-7.245309352874756
 32
142.0
 13
-69.9894027709961
 23
-7.245309352874756
 33
142.0
  0
3DFACE
  8
0
 10
-69.9894027709961
 20
-7.245309352874756
 30
142.0
 11
-69.92146301269531
 21
-7.387833595275879
 31
142.0
 12
-69.90505981445312
 22
-7.420973300933838
 32
142.0
 13
-69.90505981445312
 23
-7.420973300933838
 33
142.0
  0
3DFACE
  8
0
 10
-69.90505981445312
 20
-7.420973300933838
 30
142.0
 11
-69.48904418945312
 21
-8.197670936584473
 31
142.0
 12
-69.08478546142578
 22
-8.845154762268066
 32
142.0
 13
-69.08478546142578
 23
-8.845154762268066
 33
142.0
  0
3DFACE
  8
0
 10
-69.08478546142578
 20
-8.845154762268066
 30
142.0
 11
-68.99826049804688
 21
-8.97866439819336
 31
142.0
 12
-68.91716003417969
 22
-9.091068267822266
 32
142.0
 13
-68.91716003417969
 23
-9.091068267822266
 33
142.0
  0
3DFACE
  8
0
 10
-68.91716003417969
 20
-9.091068267822266
 30
142.0
 11
-68.02072143554688
 21
-10.137015342712402
 31
142.0
 12
-67.91523742675781
 22
-10.249432563781738
 32
142.0
 13
-67.91523742675781
 23
-10.249432563781738
 33
142.0
  0
3DFACE
  8
0
 10
-67.91523742675781
 20
-10.249432563781738
 30
142.0
 11
-67.61920928955078
 21
-10.534235000610352
 31
142.0
 12
-67.44241333007812
 22
-10.67262077331543
 32
142.0
 13
-67.44241333007812
 23
-10.67262077331543
 33
142.0
  0
3DFACE
  8
0
 10
-67.44241333007812
 20
-10.67262077331543
 30
142.0
 11
-66.50160217285156
 21
-11.353351593017578
 31
142.0
 12
-66.3341064453125
 22
-11.456550598144531
 32
142.0
 13
-66.3341064453125
 23
-11.456550598144531
 33
142.0
  0
3DFACE
  8
0
 10
-66.3341064453125
 20
-11.456550598144531
 30
142.0
 11
-66.22438049316406
 21
-11.520513534545898
 31
142.0
 12
-65.5586929321289
 22
-11.87129020690918
 32
142.0
 13
-65.5586929321289
 23
-11.87129020690918
 33
142.0
  0
3DFACE
  8
0
 10
-65.5586929321289
 20
-11.87129020690918
 30
142.0
 11
-65.09971618652344
 21
-12.097692489624023
 31
142.0
 12
-64.93505096435547
 22
-12.169456481933594
 32
142.0
 13
-64.93505096435547
 23
-12.169456481933594
 33
142.0
  0
3DFACE
  8
0
 10
-63.6416015625
 20
-12.665595054626465
 30
142.0
 11
-63.35770797729492
 21
-12.78010368347168
 31
142.0
 12
-63.08057403564453
 22
-12.881058692932129
 32
142.0
 13
-63.08057403564453
 23
-12.881058692932129
 33
142.0
  0
3DFACE
  8
0
 10
-65.5586929321289
 20
-11.87129020690918
 30
142.0
 11
-64.93505096435547
 21
-12.169456481933594
 31
142.0
 12
-63.6416015625
 22
-12.665595054626465
 32
142.0
 13
-63.6416015625
 23
-12.665595054626465
 33
142.0
  0
3DFACE
  8
0
 10
-67.44241333007812
 20
-10.67262077331543
 30
142.0
 11
-66.3341064453125
 21
-11.456550598144531
 31
142.0
 12
-65.5586929321289
 22
-11.87129020690918
 32
142.0
 13
-65.5586929321289
 23
-11.87129020690918
 33
142.0
  0
3DFACE
  8
0
 10
-68.91716003417969
 20
-9.091068267822266
 30
142.0
 11
-67.91523742675781
 21
-10.249432563781738
 31
142.0
 12
-67.44241333007812
 22
-10.67262077331543
 32
142.0
 13
-67.44241333007812
 23
-10.67262077331543
 33
142.0
  0
3DFACE
  8
0
 10
-69.90505981445312
 20
-7.420973300933838
 30
142.0
 11
-69.08478546142578
 21
-8.845154762268066
 31
142.0
 12
-68.91716003417969
 22
-9.091068267822266
 32
142.0
 13
-68.91716003417969
 23
-9.091068267822266
 33
142.0
  0
3DFACE
  8
0
 10
-70.41787719726562
 20
-5.856751441955566
 30
142.0
 11
-69.9894027709961
 21
-7.245309352874756
 31
142.0
 12
-69.90505981445312
 22
-7.420973300933838
 32
142.0
 13
-69.90505981445312
 23
-7.420973300933838
 33
142.0
  0
3DFACE
  8
0
 10
-49.538291931152344
 20
-8.845664978027344
 30
142.0
 11
-47.87370681762695
 21
-5.209272861480713
 31
142.0
 12
-70.41787719726562
 22
-5.856751441955566
 32
142.0
 13
-70.41787719726562
 23
-5.856751441955566
 33
142.0
  0
3DFACE
  8
0
 10
-50.91739273071289
 20
-10.358723640441895
 30
142.0
 11
-50.305992126464844
 21
-9.761707305908203
 31
142.0
 12
-49.538291931152344
 22
-8.845664978027344
 32
142.0
 13
-49.538291931152344
 23
-8.845664978027344
 33
142.0
  0
3DFACE
  8
0
 10
-51.40776824951172
 20
-10.78720760345459
 30
142.0
 11
-51.09883117675781
 21
-10.539621353149414
 31
142.0
 12
-50.91739273071289
 22
-10.358723640441895
 32
142.0
 13
-50.91739273071289
 23
-10.358723640441895
 33
142.0
  0
3DFACE
  8
0
 10
-52.05149459838867
 20
-11.280098915100098
 30
142.0
 11
-51.91859436035156
 21
-11.18334674835205
 31
142.0
 12
-51.40776824951172
 22
-10.78720760345459
 32
142.0
 13
-51.40776824951172
 23
-10.78720760345459
 33
142.0
  0
3DFACE
  8
0
 10
-52.319339752197266
 20
-11.488750457763672
 30
142.0
 11
-52.20274353027344
 21
-11.404858589172363
 31
142.0
 12
-52.05149459838867
 22
-11.280098915100098
 32
142.0
 13
-52.05149459838867
 23
-11.280098915100098
 33
142.0
  0
3DFACE
  8
0
 10
-53.74729919433594
 20
-12.335944175720215
 30
142.0
 11
-53.22547912597656
 21
-12.048148155212402
 31
142.0
 12
-53.09247970581055
 22
-11.961991310119629
 32
142.0
 13
-53.09247970581055
 23
-11.961991310119629
 33
142.0
  0
3DFACE
  8
0
 10
-53.09247970581055
 20
-11.961991310119629
 30
142.0
 11
-52.319339752197266
 21
-11.488750457763672
 31
142.0
 12
-52.05149459838867
 22
-11.280098915100098
 32
142.0
 13
-52.05149459838867
 23
-11.280098915100098
 33
142.0
  0
3DFACE
  8
0
 10
-52.05149459838867
 20
-11.280098915100098
 30
142.0
 11
-51.40776824951172
 21
-10.78720760345459
 31
142.0
 12
-50.91739273071289
 22
-10.358723640441895
 32
142.0
 13
-50.91739273071289
 23
-10.358723640441895
 33
142.0
  0
3DFACE
  8
0
 10
-50.91739273071289
 20
-10.358723640441895
 30
142.0
 11
-49.538291931152344
 21
-8.845664978027344
 31
142.0
 12
-70.41787719726562
 22
-5.856751441955566
 32
142.0
 13
-70.41787719726562
 23
-5.856751441955566
 33
142.0
  0
3DFACE
  8
0
 10
-70.41787719726562
 20
-5.856751441955566
 30
142.0
 11
-69.90505981445312
 21
-7.420973300933838
 31
142.0
 12
-68.91716003417969
 22
-9.091068267822266
 32
142.0
 13
-68.91716003417969
 23
-9.091068267822266
 33
142.0
  0
3DFACE
  8
0
 10
-68.91716003417969
 20
-9.091068267822266
 30
142.0
 11
-67.44241333007812
 21
-10.67262077331543
 31
142.0
 12
-65.5586929321289
 22
-11.87129020690918
 32
142.0
 13
-65.5586929321289
 23
-11.87129020690918
 33
142.0
  0
3DFACE
  8
0
 10
-65.5586929321289
 20
-11.87129020690918
 30
142.0
 11
-63.6416015625
 21
-12.665595054626465
 31
142.0
 12
-63.08057403564453
 22
-12.881058692932129
 32
142.0
 13
-63.08057403564453
 23
-12.881058692932129
 33
142.0
  0
3DFACE
  8
0
 10
-63.08057403564453
 20
-12.881058692932129
 30
142.0
 11
-62.465553283691406
 21
-13.087301254272461
 31
142.0
 12
-62.332550048828125
 22
-13.1250581741333
 32
142.0
 13
-62.332550048828125
 23
-13.1250581741333
 33
142.0
  0
3DFACE
  8
0
 10
-61.874603271484375
 20
-13.23249340057373
 30
142.0
 11
-61.323116302490234
 21
-13.384978294372559
 31
142.0
 12
-60.09689712524414
 22
-13.630846977233887
 32
142.0
 13
-60.09689712524414
 23
-13.630846977233887
 33
142.0
  0
3DFACE
  8
0
 10
-63.08057403564453
 20
-12.881058692932129
 30
142.0
 11
-62.332550048828125
 21
-13.1250581741333
 31
142.0
 12
-61.874603271484375
 22
-13.23249340057373
 32
142.0
 13
-61.874603271484375
 23
-13.23249340057373
 33
142.0
  0
3DFACE
  8
0
 10
-68.91716003417969
 20
-9.091068267822266
 30
142.0
 11
-65.5586929321289
 21
-11.87129020690918
 31
142.0
 12
-63.08057403564453
 22
-12.881058692932129
 32
142.0
 13
-63.08057403564453
 23
-12.881058692932129
 33
142.0
  0
3DFACE
  8
0
 10
-50.91739273071289
 20
-10.358723640441895
 30
142.0
 11
-70.41787719726562
 21
-5.856751441955566
 31
142.0
 12
-68.91716003417969
 22
-9.091068267822266
 32
142.0
 13
-68.91716003417969
 23
-9.091068267822266
 33
142.0
  0
3DFACE
  8
0
 10
-53.09247970581055
 20
-11.961991310119629
 30
142.0
 11
-52.05149459838867
 21
-11.280098915100098
 31
142.0
 12
-50.91739273071289
 22
-10.358723640441895
 32
142.0
 13
-50.91739273071289
 23
-10.358723640441895
 33
142.0
  0
3DFACE
  8
0
 10
-54.3947868347168
 20
-12.614236831665039
 30
142.0
 11
-53.74729919433594
 21
-12.335944175720215
 31
142.0
 12
-53.09247970581055
 22
-11.961991310119629
 32
142.0
 13
-53.09247970581055
 23
-11.961991310119629
 33
142.0
  0
3DFACE
  8
0
 10
-55.17525863647461
 20
-12.945342063903809
 30
142.0
 11
-54.52778625488281
 21
-12.680663108825684
 31
142.0
 12
-54.3947868347168
 22
-12.614236831665039
 32
142.0
 13
-54.3947868347168
 23
-12.614236831665039
 33
142.0
  0
3DFACE
  8
0
 10
-55.95573806762695
 20
-13.184731483459473
 30
142.0
 11
-55.308258056640625
 21
-13.00353717803955
 31
142.0
 12
-55.17525863647461
 22
-12.945342063903809
 32
142.0
 13
-55.17525863647461
 23
-12.945342063903809
 33
142.0
  0
3DFACE
  8
0
 10
-56.736209869384766
 20
-13.421257972717285
 30
142.0
 11
-56.08873748779297
 21
-13.234135627746582
 31
142.0
 12
-55.95573806762695
 22
-13.184731483459473
 32
142.0
 13
-55.95573806762695
 23
-13.184731483459473
 33
142.0
  0
3DFACE
  8
0
 10
-57.51669692993164
 20
-13.566299438476562
 30
142.0
 11
-56.86920928955078
 21
-13.465446472167969
 31
142.0
 12
-56.736209869384766
 22
-13.421257972717285
 32
142.0
 13
-56.736209869384766
 23
-13.421257972717285
 33
142.0
  0
3DFACE
  8
0
 10
-58.27091979980469
 20
-13.659770011901855
 30
142.0
 11
-57.615169525146484
 21
-13.589592933654785
 31
142.0
 12
-57.51669692993164
 22
-13.566299438476562
 32
142.0
 13
-57.51669692993164
 23
-13.566299438476562
 33
142.0
  0
3DFACE
  8
0
 10
-59.08712387084961
 20
-13.697572708129883
 30
142.0
 11
-58.43016815185547
 21
-13.690848350524902
 31
142.0
 12
-58.27091979980469
 22
-13.659770011901855
 32
142.0
 13
-58.27091979980469
 23
-13.659770011901855
 33
142.0
  0
3DFACE
  8
0
 10
-59.36811447143555
 20
-13.703283309936523
 30
142.0
 11
-59.227622985839844
 21
-13.707755088806152
 31
142.0
 12
-59.08712387084961
 22
-13.697572708129883
 32
142.0
 13
-59.08712387084961
 23
-13.697572708129883
 33
142.0
  0
3DFACE
  8
0
 10
-60.09689712524414
 20
-13.630846977233887
 30
142.0
 11
-59.991127014160156
 21
-13.644683837890625
 31
142.0
 12
-59.36811447143555
 22
-13.703283309936523
 32
142.0
 13
-59.36811447143555
 23
-13.703283309936523
 33
142.0
  0
3DFACE
  8
0
 10
-63.08057403564453
 20
-12.881058692932129
 30
142.0
 11
-61.874603271484375
 21
-13.23249340057373
 31
142.0
 12
-60.09689712524414
 22
-13.630846977233887
 32
142.0
 13
-60.09689712524414
 23
-13.630846977233887
 33
142.0
  0
3DFACE
  8
0
 10
-50.91739273071289
 20
-10.358723640441895
 30
142.0
 11
-68.91716003417969
 21
-9.091068267822266
 31
142.0
 12
-63.08057403564453
 22
-12.881058692932129
 32
142.0
 13
-63.08057403564453
 23
-12.881058692932129
 33
142.0
  0
3DFACE
  8
0
 10
-54.3947868347168
 20
-12.614236831665039
 30
142.0
 11
-53.09247970581055
 21
-11.961991310119629
 31
142.0
 12
-50.91739273071289
 22
-10.358723640441895
 32
142.0
 13
-50.91739273071289
 23
-10.358723640441895
 33
142.0
  0
3DFACE
  8
0
 10
-55.95573806762695
 20
-13.184731483459473
 30
142.0
 11
-55.17525863647461
 21
-12.945342063903809
 31
142.0
 12
-54.3947868347168
 22
-12.614236831665039
 32
142.0
 13
-54.3947868347168
 23
-12.614236831665039
 33
142.0
  0
3DFACE
  8
0
 10
-57.51669692993164
 20
-13.566299438476562
 30
142.0
 11
-56.736209869384766
 21
-13.421257972717285
 31
142.0
 12
-55.95573806762695
 22
-13.184731483459473
 32
142.0
 13
-55.95573806762695
 23
-13.184731483459473
 33
142.0
  0
3DFACE
  8
0
 10
-59.08712387084961
 20
-13.697572708129883
 30
142.0
 11
-58.27091979980469
 21
-13.659770011901855
 31
142.0
 12
-57.51669692993164
 22
-13.566299438476562
 32
142.0
 13
-57.51669692993164
 23
-13.566299438476562
 33
142.0
  0
3DFACE
  8
0
 10
-60.09689712524414
 20
-13.630846977233887
 30
142.0
 11
-59.36811447143555
 21
-13.703283309936523
 31
142.0
 12
-59.08712387084961
 22
-13.697572708129883
 32
142.0
 13
-59.08712387084961
 23
-13.697572708129883
 33
142.0
  0
3DFACE
  8
0
 10
-50.91739273071289
 20
-10.358723640441895
 30
142.0
 11
-63.08057403564453
 21
-12.881058692932129
 31
142.0
 12
-60.09689712524414
 22
-13.630846977233887
 32
142.0
 13
-60.09689712524414
 23
-13.630846977233887
 33
142.0
  0
3DFACE
  8
0
 10
-55.95573806762695
 20
-13.184731483459473
 30
142.0
 11
-54.3947868347168
 21
-12.614236831665039
 31
142.0
 12
-50.91739273071289
 22
-10.358723640441895
 32
142.0
 13
-50.91739273071289
 23
-10.358723640441895
 33
142.0
  0
3DFACE
  8
0
 10
-59.08712387084961
 20
-13.697572708129883
 30
142.0
 11
-57.51669692993164
 21
-13.566299438476562
 31
142.0
 12
-55.95573806762695
 22
-13.184731483459473
 32
142.0
 13
-55.95573806762695
 23
-13.184731483459473
 33
142.0
  0
3DFACE
  8
0
 10
-50.91739273071289
 20
-10.358723640441895
 30
142.0
 11
-60.09689712524414
 21
-13.630846977233887
 31
142.0
 12
-59.08712387084961
 22
-13.697572708129883
 32
142.0
 13
-59.08712387084961
 23
-13.697572708129883
 33
142.0
  0
3DFACE
  8
0
 10
-59.08712387084961
 20
-13.697572708129883
 30
142.0
 11
-55.95573806762695
 21
-13.184731483459473
 31
142.0
 12
-50.91739273071289
 22
-10.358723640441895
 32
142.0
 13
-50.91739273071289
 23
-10.358723640441895
 33
142.0
  0
3DFACE
  8
0
 10
-53.68646240234375
 20
49.818538665771484
 30
142.0
 11
-53.84633255004883
 21
49.19615173339844
 31
142.0
 12
-53.8511848449707
 22
49.165714263916016
 32
142.0
 13
-53.8511848449707
 23
49.165714263916016
 33
142.0
  0
3DFACE
  8
0
 10
-53.8511848449707
 20
49.165714263916016
 30
142.0
 11
-54.00740051269531
 21
48.3915901184082
 31
142.0
 12
-54.0391731262207
 22
48.03114700317383
 32
142.0
 13
-54.0391731262207
 23
48.03114700317383
 33
142.0
  0
3DFACE
  8
0
 10
-54.0391731262207
 20
48.03114700317383
 30
142.0
 11
-54.093448638916016
 21
47.5870475769043
 31
142.0
 12
-54.10933303833008
 22
47.292659759521484
 32
142.0
 13
-54.10933303833008
 23
47.292659759521484
 33
142.0
  0
3DFACE
  8
0
 10
-54.10933303833008
 20
47.292659759521484
 30
142.0
 11
-54.09128952026367
 21
46.26826477050781
 31
142.0
 12
-54.05296325683594
 22
45.92660140991211
 32
142.0
 13
-54.05296325683594
 23
45.92660140991211
 33
142.0
  0
3DFACE
  8
0
 10
-53.98341369628906
 20
45.51028823852539
 30
142.0
 11
-53.94843292236328
 21
45.16184616088867
 31
142.0
 12
-53.77706527709961
 22
44.45098876953125
 32
142.0
 13
-53.77706527709961
 23
44.45098876953125
 33
142.0
  0
3DFACE
  8
0
 10
-54.10933303833008
 20
47.292659759521484
 30
142.0
 11
-54.05296325683594
 21
45.92660140991211
 31
142.0
 12
-53.98341369628906
 22
45.51028823852539
 32
142.0
 13
-53.98341369628906
 23
45.51028823852539
 33
142.0
  0
3DFACE
  8
0
 10
-53.8511848449707
 20
49.165714263916016
 30
142.0
 11
-54.0391731262207
 21
48.03114700317383
 31
142.0
 12
-54.10933303833008
 22
47.292659759521484
 32
142.0
 13
-54.10933303833008
 23
47.292659759521484
 33
142.0
  0
3DFACE
  8
0
 10
-53.6225471496582
 20
50.00069808959961
 30
142.0
 11
-53.68646240234375
 21
49.818538665771484
 31
142.0
 12
-53.8511848449707
 22
49.165714263916016
 32
142.0
 13
-53.8511848449707
 23
49.165714263916016
 33
142.0
  0
3DFACE
  8
0
 10
-53.11664962768555
 20
51.146087646484375
 30
142.0
 11
-53.311702728271484
 21
50.757972717285156
 31
142.0
 12
-53.450984954833984
 22
50.389007568359375
 32
142.0
 13
-53.450984954833984
 23
50.389007568359375
 33
142.0
  0
3DFACE
  8
0
 10
-53.450984954833984
 20
50.389007568359375
 30
142.0
 11
-53.6225471496582
 21
50.00069808959961
 31
142.0
 12
-53.8511848449707
 22
49.165714263916016
 32
142.0
 13
-53.8511848449707
 23
49.165714263916016
 33
142.0
  0
3DFACE
  8
0
 10
-53.8511848449707
 20
49.165714263916016
 30
142.0
 11
-54.10933303833008
 21
47.292659759521484
 31
142.0
 12
-53.98341369628906
 22
45.51028823852539
 32
142.0
 13
-53.98341369628906
 23
45.51028823852539
 33
142.0
  0
3DFACE
  8
0
 10
-53.98341369628906
 20
45.51028823852539
 30
142.0
 11
-53.77706527709961
 21
44.45098876953125
 31
142.0
 12
-53.75971221923828
 22
44.368839263916016
 32
142.0
 13
-53.75971221923828
 23
44.368839263916016
 33
142.0
  0
3DFACE
  8
0
 10
-53.75971221923828
 20
44.368839263916016
 30
142.0
 11
-53.6906623840332
 21
44.13374710083008
 31
142.0
 12
-53.4976806640625
 22
43.56428527832031
 32
142.0
 13
-53.4976806640625
 23
43.56428527832031
 33
142.0
  0
3DFACE
  8
0
 10
-53.4976806640625
 20
43.56428527832031
 30
142.0
 11
-53.10539245605469
 21
42.75973129272461
 31
142.0
 12
-52.65880584716797
 22
42.00727844238281
 32
142.0
 13
-52.65880584716797
 23
42.00727844238281
 33
142.0
  0
3DFACE
  8
0
 10
-52.65880584716797
 20
42.00727844238281
 30
142.0
 11
-52.58277893066406
 21
41.88877868652344
 31
142.0
 12
-52.55462646484375
 22
41.849449157714844
 32
142.0
 13
-52.55462646484375
 23
41.849449157714844
 33
142.0
  0
3DFACE
  8
0
 10
-52.518348693847656
 20
41.804203033447266
 30
142.0
 11
-52.040836334228516
 21
41.15062713623047
 31
142.0
 12
-51.704959869384766
 22
40.79142761230469
 32
142.0
 13
-51.704959869384766
 23
40.79142761230469
 33
142.0
  0
3DFACE
  8
0
 10
-52.65880584716797
 20
42.00727844238281
 30
142.0
 11
-52.55462646484375
 21
41.849449157714844
 31
142.0
 12
-52.518348693847656
 22
41.804203033447266
 32
142.0
 13
-52.518348693847656
 23
41.804203033447266
 33
142.0
  0
3DFACE
  8
0
 10
-53.75971221923828
 20
44.368839263916016
 30
142.0
 11
-53.4976806640625
 21
43.56428527832031
 31
142.0
 12
-52.65880584716797
 22
42.00727844238281
 32
142.0
 13
-52.65880584716797
 23
42.00727844238281
 33
142.0
  0
3DFACE
  8
0
 10
-53.8511848449707
 20
49.165714263916016
 30
142.0
 11
-53.98341369628906
 21
45.51028823852539
 31
142.0
 12
-53.75971221923828
 22
44.368839263916016
 32
142.0
 13
-53.75971221923828
 23
44.368839263916016
 33
142.0
  0
3DFACE
  8
0
 10
-53.11664962768555
 20
51.146087646484375
 30
142.0
 11
-53.450984954833984
 21
50.389007568359375
 31
142.0
 12
-53.8511848449707
 22
49.165714263916016
 32
142.0
 13
-53.8511848449707
 23
49.165714263916016
 33
142.0
  0
3DFACE
  8
0
 10
-52.31922912597656
 20
52.35073471069336
 30
142.0
 11
-52.85006332397461
 21
51.60980224609375
 31
142.0
 12
-53.11664962768555
 22
51.146087646484375
 32
142.0
 13
-53.11664962768555
 23
51.146087646484375
 33
142.0
  0
3DFACE
  8
0
 10
-52.253501892089844
 20
52.44283676147461
 30
142.0
 11
-52.276222229003906
 21
52.41435241699219
 31
142.0
 12
-52.31922912597656
 22
52.35073471069336
 32
142.0
 13
-52.31922912597656
 23
52.35073471069336
 33
142.0
  0
3DFACE
  8
0
 10
-51.28654479980469
 20
53.51686477661133
 30
142.0
 11
-51.572898864746094
 21
53.218910217285156
 31
142.0
 12
-52.253501892089844
 22
52.44283676147461
 32
142.0
 13
-52.253501892089844
 23
52.44283676147461
 33
142.0
  0
3DFACE
  8
0
 10
-50.895835876464844
 20
53.9246826171875
 30
142.0
 11
-50.97483825683594
 21
53.85191345214844
 31
142.0
 12
-51.28654479980469
 22
53.51686477661133
 32
142.0
 13
-51.28654479980469
 23
53.51686477661133
 33
142.0
  0
3DFACE
  8
0
 10
-49.58389663696289
 20
54.988426208496094
 30
142.0
 11
-50.32608413696289
 21
54.41411209106445
 31
142.0
 12
-50.895835876464844
 22
53.9246826171875
 32
142.0
 13
-50.895835876464844
 23
53.9246826171875
 33
142.0
  0
3DFACE
  8
0
 10
-48.006954193115234
 20
55.86549377441406
 30
142.0
 11
-48.56690216064453
 21
55.592041015625
 31
142.0
 12
-48.6413688659668
 22
55.54539489746094
 32
142.0
 13
-48.6413688659668
 23
55.54539489746094
 33
142.0
  0
3DFACE
  8
0
 10
-48.6413688659668
 20
55.54539489746094
 30
142.0
 11
-49.58389663696289
 21
54.988426208496094
 31
142.0
 12
-50.895835876464844
 22
53.9246826171875
 32
142.0
 13
-50.895835876464844
 23
53.9246826171875
 33
142.0
  0
3DFACE
  8
0
 10
-50.895835876464844
 20
53.9246826171875
 30
142.0
 11
-51.28654479980469
 21
53.51686477661133
 31
142.0
 12
-52.253501892089844
 22
52.44283676147461
 32
142.0
 13
-52.253501892089844
 23
52.44283676147461
 33
142.0
  0
3DFACE
  8
0
 10
-52.253501892089844
 20
52.44283676147461
 30
142.0
 11
-52.31922912597656
 21
52.35073471069336
 31
142.0
 12
-53.11664962768555
 22
51.146087646484375
 32
142.0
 13
-53.11664962768555
 23
51.146087646484375
 33
142.0
  0
3DFACE
  8
0
 10
-53.11664962768555
 20
51.146087646484375
 30
142.0
 11
-53.8511848449707
 21
49.165714263916016
 31
142.0
 12
-53.75971221923828
 22
44.368839263916016
 32
142.0
 13
-53.75971221923828
 23
44.368839263916016
 33
142.0
  0
3DFACE
  8
0
 10
-53.75971221923828
 20
44.368839263916016
 30
142.0
 11
-52.65880584716797
 21
42.00727844238281
 31
142.0
 12
-52.518348693847656
 22
41.804203033447266
 32
142.0
 13
-52.518348693847656
 23
41.804203033447266
 33
142.0
  0
3DFACE
  8
0
 10
-52.518348693847656
 20
41.804203033447266
 30
142.0
 11
-51.704959869384766
 21
40.79142761230469
 31
142.0
 12
-51.52214431762695
 22
40.58244705200195
 32
142.0
 13
-51.52214431762695
 23
40.58244705200195
 33
142.0
  0
3DFACE
  8
0
 10
-51.52214431762695
 20
40.58244705200195
 30
142.0
 11
-51.47822570800781
 21
40.53539276123047
 31
142.0
 12
-50.737064361572266
 22
39.829620361328125
 32
142.0
 13
-50.737064361572266
 23
39.829620361328125
 33
142.0
  0
3DFACE
  8
0
 10
-50.737064361572266
 20
39.829620361328125
 30
142.0
 11
-50.470157623291016
 21
39.602935791015625
 31
142.0
 12
-50.10352325439453
 22
39.30683135986328
 32
142.0
 13
-50.10352325439453
 23
39.30683135986328
 33
142.0
  0
3DFACE
  8
0
 10
-50.10352325439453
 20
39.30683135986328
 30
142.0
 11
-49.77890396118164
 21
39.05475997924805
 31
142.0
 12
-49.58647537231445
 22
38.91607666015625
 32
142.0
 13
-49.58647537231445
 23
38.91607666015625
 33
142.0
  0
3DFACE
  8
0
 10
-49.58647537231445
 20
38.91607666015625
 30
142.0
 11
-49.01688766479492
 21
38.528297424316406
 31
142.0
 12
-48.53016662597656
 22
38.247230529785156
 32
142.0
 13
-48.53016662597656
 23
38.247230529785156
 33
142.0
  0
3DFACE
  8
0
 10
-48.53016662597656
 20
38.247230529785156
 30
142.0
 11
-48.16959762573242
 21
38.02946090698242
 31
142.0
 12
-47.68815612792969
 22
37.82036209106445
 32
142.0
 13
-47.68815612792969
 23
37.82036209106445
 33
142.0
  0
3DFACE
  8
0
 10
-47.68815612792969
 20
37.82036209106445
 30
142.0
 11
-47.328487396240234
 21
37.67559051513672
 31
142.0
 12
-47.10636520385742
 22
37.6182746887207
 32
142.0
 13
-47.10636520385742
 23
37.6182746887207
 33
142.0
  0
3DFACE
  8
0
 10
-47.10636520385742
 20
37.6182746887207
 30
142.0
 11
-46.49550247192383
 21
37.411441802978516
 31
142.0
 12
-45.66886901855469
 22
37.23923873901367
 32
142.0
 13
-45.66886901855469
 23
37.23923873901367
 33
142.0
  0
3DFACE
  8
0
 10
-45.57948684692383
 20
37.23408508300781
 30
142.0
 11
-44.905582427978516
 21
37.14854431152344
 31
142.0
 12
-44.60481643676758
 22
37.13523483276367
 32
142.0
 13
-44.60481643676758
 23
37.13523483276367
 33
142.0
  0
3DFACE
  8
0
 10
-47.10636520385742
 20
37.6182746887207
 30
142.0
 11
-45.66886901855469
 21
37.23923873901367
 31
142.0
 12
-45.57948684692383
 22
37.23408508300781
 32
142.0
 13
-45.57948684692383
 23
37.23408508300781
 33
142.0
  0
3DFACE
  8
0
 10
-48.53016662597656
 20
38.247230529785156
 30
142.0
 11
-47.68815612792969
 21
37.82036209106445
 31
142.0
 12
-47.10636520385742
 22
37.6182746887207
 32
142.0
 13
-47.10636520385742
 23
37.6182746887207
 33
142.0
  0
3DFACE
  8
0
 10
-50.10352325439453
 20
39.30683135986328
 30
142.0
 11
-49.58647537231445
 21
38.91607666015625
 31
142.0
 12
-48.53016662597656
 22
38.247230529785156
 32
142.0
 13
-48.53016662597656
 23
38.247230529785156
 33
142.0
  0
3DFACE
  8
0
 10
-51.52214431762695
 20
40.58244705200195
 30
142.0
 11
-50.737064361572266
 21
39.829620361328125
 31
142.0
 12
-50.10352325439453
 22
39.30683135986328
 32
142.0
 13
-50.10352325439453
 23
39.30683135986328
 33
142.0
  0
3DFACE
  8
0
 10
-53.75971221923828
 20
44.368839263916016
 30
142.0
 11
-52.518348693847656
 21
41.804203033447266
 31
142.0
 12
-51.52214431762695
 22
40.58244705200195
 32
142.0
 13
-51.52214431762695
 23
40.58244705200195
 33
142.0
  0
3DFACE
  8
0
 10
-52.253501892089844
 20
52.44283676147461
 30
142.0
 11
-53.11664962768555
 21
51.146087646484375
 31
142.0
 12
-53.75971221923828
 22
44.368839263916016
 32
142.0
 13
-53.75971221923828
 23
44.368839263916016
 33
142.0
  0
3DFACE
  8
0
 10
-48.6413688659668
 20
55.54539489746094
 30
142.0
 11
-50.895835876464844
 21
53.9246826171875
 31
142.0
 12
-52.253501892089844
 22
52.44283676147461
 32
142.0
 13
-52.253501892089844
 23
52.44283676147461
 33
142.0
  0
3DFACE
  8
0
 10
-47.77671813964844
 20
55.947261810302734
 30
142.0
 11
-48.006954193115234
 21
55.86549377441406
 31
142.0
 12
-48.6413688659668
 22
55.54539489746094
 32
142.0
 13
-48.6413688659668
 23
55.54539489746094
 33
142.0
  0
3DFACE
  8
0
 10
-46.97887420654297
 20
56.19145584106445
 30
142.0
 11
-47.509620666503906
 21
56.03520202636719
 31
142.0
 12
-47.77671813964844
 22
55.947261810302734
 32
142.0
 13
-47.77671813964844
 23
55.947261810302734
 33
142.0
  0
3DFACE
  8
0
 10
-46.212867736816406
 20
56.364280700683594
 30
142.0
 11
-46.885555267333984
 21
56.21710968017578
 31
142.0
 12
-46.97887420654297
 22
56.19145584106445
 32
142.0
 13
-46.97887420654297
 23
56.19145584106445
 33
142.0
  0
3DFACE
  8
0
 10
-45.36402130126953
 20
56.40277099609375
 30
142.0
 11
-46.17646026611328
 21
56.36955642700195
 31
142.0
 12
-46.212867736816406
 22
56.364280700683594
 32
142.0
 13
-46.212867736816406
 23
56.364280700683594
 33
142.0
  0
3DFACE
  8
0
 10
-44.548858642578125
 20
56.396514892578125
 30
142.0
 11
-45.33140563964844
 21
56.40476608276367
 31
142.0
 12
-45.36402130126953
 22
56.40277099609375
 32
142.0
 13
-45.36402130126953
 23
56.40277099609375
 33
142.0
  0
3DFACE
  8
0
 10
-43.73133087158203
 20
56.323795318603516
 30
142.0
 11
-44.45077133178711
 21
56.39128875732422
 31
142.0
 12
-44.548858642578125
 22
56.396514892578125
 32
142.0
 13
-44.548858642578125
 23
56.396514892578125
 33
142.0
  0
3DFACE
  8
0
 10
-43.6415901184082
 20
56.31175231933594
 30
142.0
 11
-43.68505096435547
 21
56.31836700439453
 31
142.0
 12
-43.73133087158203
 22
56.323795318603516
 32
142.0
 13
-43.73133087158203
 23
56.323795318603516
 33
142.0
  0
3DFACE
  8
0
 10
-42.091190338134766
 20
55.9556770324707
 30
142.0
 11
-42.904296875
 21
56.177894592285156
 31
142.0
 12
-43.6415901184082
 22
56.31175231933594
 32
142.0
 13
-43.6415901184082
 23
56.31175231933594
 33
142.0
  0
3DFACE
  8
0
 10
-41.254119873046875
 20
55.67311477661133
 30
142.0
 11
-41.53789520263672
 21
55.77616500854492
 31
142.0
 12
-42.091190338134766
 22
55.9556770324707
 32
142.0
 13
-42.091190338134766
 23
55.9556770324707
 33
142.0
  0
3DFACE
  8
0
 10
-39.521080017089844
 20
54.7491455078125
 30
142.0
 11
-39.58384323120117
 21
54.79204559326172
 31
142.0
 12
-41.05551528930664
 22
55.56449508666992
 32
142.0
 13
-41.05551528930664
 23
55.56449508666992
 33
142.0
  0
3DFACE
  8
0
 10
-41.05551528930664
 20
55.56449508666992
 30
142.0
 11
-41.254119873046875
 21
55.67311477661133
 31
142.0
 12
-42.091190338134766
 22
55.9556770324707
 32
142.0
 13
-42.091190338134766
 23
55.9556770324707
 33
142.0
  0
3DFACE
  8
0
 10
-42.091190338134766
 20
55.9556770324707
 30
142.0
 11
-43.6415901184082
 21
56.31175231933594
 31
142.0
 12
-43.73133087158203
 22
56.323795318603516
 32
142.0
 13
-43.73133087158203
 23
56.323795318603516
 33
142.0
  0
3DFACE
  8
0
 10
-43.73133087158203
 20
56.323795318603516
 30
142.0
 11
-44.548858642578125
 21
56.396514892578125
 31
142.0
 12
-45.36402130126953
 22
56.40277099609375
 32
142.0
 13
-45.36402130126953
 23
56.40277099609375
 33
142.0
  0
3DFACE
  8
0
 10
-45.36402130126953
 20
56.40277099609375
 30
142.0
 11
-46.212867736816406
 21
56.364280700683594
 31
142.0
 12
-46.97887420654297
 22
56.19145584106445
 32
142.0
 13
-46.97887420654297
 23
56.19145584106445
 33
142.0
  0
3DFACE
  8
0
 10
-46.97887420654297
 20
56.19145584106445
 30
142.0
 11
-47.77671813964844
 21
55.947261810302734
 31
142.0
 12
-48.6413688659668
 22
55.54539489746094
 32
142.0
 13
-48.6413688659668
 23
55.54539489746094
 33
142.0
  0
3DFACE
  8
0
 10
-48.6413688659668
 20
55.54539489746094
 30
142.0
 11
-52.253501892089844
 21
52.44283676147461
 31
142.0
 12
-53.75971221923828
 22
44.368839263916016
 32
142.0
 13
-53.75971221923828
 23
44.368839263916016
 33
142.0
  0
3DFACE
  8
0
 10
-53.75971221923828
 20
44.368839263916016
 30
142.0
 11
-51.52214431762695
 21
40.58244705200195
 31
142.0
 12
-50.10352325439453
 22
39.30683135986328
 32
142.0
 13
-50.10352325439453
 23
39.30683135986328
 33
142.0
  0
3DFACE
  8
0
 10
-50.10352325439453
 20
39.30683135986328
 30
142.0
 11
-48.53016662597656
 21
38.247230529785156
 31
142.0
 12
-47.10636520385742
 22
37.6182746887207
 32
142.0
 13
-47.10636520385742
 23
37.6182746887207
 33
142.0
  0
3DFACE
  8
0
 10
-47.10636520385742
 20
37.6182746887207
 30
142.0
 11
-45.57948684692383
 21
37.23408508300781
 31
142.0
 12
-44.60481643676758
 22
37.13523483276367
 32
142.0
 13
-44.60481643676758
 23
37.13523483276367
 33
142.0
  0
3DFACE
  8
0
 10
-44.60481643676758
 20
37.13523483276367
 30
142.0
 11
-44.029319763183594
 21
37.09326171875
 31
142.0
 12
-43.337013244628906
 22
37.13145065307617
 32
142.0
 13
-43.337013244628906
 23
37.13145065307617
 33
142.0
  0
3DFACE
  8
0
 10
-43.337013244628906
 20
37.13145065307617
 30
142.0
 11
-43.217437744140625
 21
37.13454055786133
 31
142.0
 12
-42.40872573852539
 22
37.22144317626953
 32
142.0
 13
-42.40872573852539
 23
37.22144317626953
 33
142.0
  0
3DFACE
  8
0
 10
-42.300682067871094
 20
37.255950927734375
 30
142.0
 11
-41.60708999633789
 21
37.410823822021484
 31
142.0
 12
-41.17991256713867
 22
37.53116989135742
 32
142.0
 13
-41.17991256713867
 23
37.53116989135742
 33
142.0
  0
3DFACE
  8
0
 10
-43.337013244628906
 20
37.13145065307617
 30
142.0
 11
-42.40872573852539
 21
37.22144317626953
 31
142.0
 12
-42.300682067871094
 22
37.255950927734375
 32
142.0
 13
-42.300682067871094
 23
37.255950927734375
 33
142.0
  0
3DFACE
  8
0
 10
-47.10636520385742
 20
37.6182746887207
 30
142.0
 11
-44.60481643676758
 21
37.13523483276367
 31
142.0
 12
-43.337013244628906
 22
37.13145065307617
 32
142.0
 13
-43.337013244628906
 23
37.13145065307617
 33
142.0
  0
3DFACE
  8
0
 10
-53.75971221923828
 20
44.368839263916016
 30
142.0
 11
-50.10352325439453
 21
39.30683135986328
 31
142.0
 12
-47.10636520385742
 22
37.6182746887207
 32
142.0
 13
-47.10636520385742
 23
37.6182746887207
 33
142.0
  0
3DFACE
  8
0
 10
-46.97887420654297
 20
56.19145584106445
 30
142.0
 11
-48.6413688659668
 21
55.54539489746094
 31
142.0
 12
-53.75971221923828
 22
44.368839263916016
 32
142.0
 13
-53.75971221923828
 23
44.368839263916016
 33
142.0
  0
3DFACE
  8
0
 10
-43.73133087158203
 20
56.323795318603516
 30
142.0
 11
-45.36402130126953
 21
56.40277099609375
 31
142.0
 12
-46.97887420654297
 22
56.19145584106445
 32
142.0
 13
-46.97887420654297
 23
56.19145584106445
 33
142.0
  0
3DFACE
  8
0
 10
-41.05551528930664
 20
55.56449508666992
 30
142.0
 11
-42.091190338134766
 21
55.9556770324707
 31
142.0
 12
-43.73133087158203
 22
56.323795318603516
 32
142.0
 13
-43.73133087158203
 23
56.323795318603516
 33
142.0
  0
3DFACE
  8
0
 10
-38.72841262817383
 20
54.135929107666016
 30
142.0
 11
-39.521080017089844
 21
54.7491455078125
 31
142.0
 12
-41.05551528930664
 22
55.56449508666992
 32
142.0
 13
-41.05551528930664
 23
55.56449508666992
 33
142.0
  0
3DFACE
  8
0
 10
-37.844200134277344
 20
53.27544021606445
 30
142.0
 11
-37.95051193237305
 21
53.38217544555664
 31
142.0
 12
-38.72841262817383
 22
54.135929107666016
 32
142.0
 13
-38.72841262817383
 23
54.135929107666016
 33
142.0
  0
3DFACE
  8
0
 10
-36.53123092651367
 20
51.62223815917969
 30
142.0
 11
-37.164817810058594
 21
52.50308609008789
 31
142.0
 12
-37.80531692504883
 22
53.22859191894531
 32
142.0
 13
-37.80531692504883
 23
53.22859191894531
 33
142.0
  0
3DFACE
  8
0
 10
-37.80531692504883
 20
53.22859191894531
 30
142.0
 11
-37.844200134277344
 21
53.27544021606445
 31
142.0
 12
-38.72841262817383
 22
54.135929107666016
 32
142.0
 13
-38.72841262817383
 23
54.135929107666016
 33
142.0
  0
3DFACE
  8
0
 10
-38.72841262817383
 20
54.135929107666016
 30
142.0
 11
-41.05551528930664
 21
55.56449508666992
 31
142.0
 12
-43.73133087158203
 22
56.323795318603516
 32
142.0
 13
-43.73133087158203
 23
56.323795318603516
 33
142.0
  0
3DFACE
  8
0
 10
-43.73133087158203
 20
56.323795318603516
 30
142.0
 11
-46.97887420654297
 21
56.19145584106445
 31
142.0
 12
-53.75971221923828
 22
44.368839263916016
 32
142.0
 13
-53.75971221923828
 23
44.368839263916016
 33
142.0
  0
3DFACE
  8
0
 10
-53.75971221923828
 20
44.368839263916016
 30
142.0
 11
-47.10636520385742
 21
37.6182746887207
 31
142.0
 12
-43.337013244628906
 22
37.13145065307617
 32
142.0
 13
-43.337013244628906
 23
37.13145065307617
 33
142.0
  0
3DFACE
  8
0
 10
-43.337013244628906
 20
37.13145065307617
 30
142.0
 11
-42.300682067871094
 21
37.255950927734375
 31
142.0
 12
-41.17991256713867
 22
37.53116989135742
 32
142.0
 13
-41.17991256713867
 23
37.53116989135742
 33
142.0
  0
3DFACE
  8
0
 10
-41.17991256713867
 20
37.53116989135742
 30
142.0
 11
-40.81048583984375
 21
37.67313766479492
 31
142.0
 12
-40.206722259521484
 22
37.959259033203125
 32
142.0
 13
-40.206722259521484
 23
37.959259033203125
 33
142.0
  0
3DFACE
  8
0
 10
-40.206722259521484
 20
37.959259033203125
 30
142.0
 11
-40.02277755737305
 21
38.06396484375
 31
142.0
 12
-39.2177848815918
 22
38.58500289916992
 32
142.0
 13
-39.2177848815918
 23
38.58500289916992
 33
142.0
  0
3DFACE
  8
0
 10
-39.2177848815918
 20
38.58500289916992
 30
142.0
 11
-39.00613021850586
 21
38.7346305847168
 31
142.0
 12
-38.4687614440918
 22
39.15543746948242
 32
142.0
 13
-38.4687614440918
 23
39.15543746948242
 33
142.0
  0
3DFACE
  8
0
 10
-38.4687614440918
 20
39.15543746948242
 30
142.0
 11
-37.98740005493164
 21
39.56184387207031
 31
142.0
 12
-37.6995964050293
 22
39.81465148925781
 32
142.0
 13
-37.6995964050293
 23
39.81465148925781
 33
142.0
  0
3DFACE
  8
0
 10
-37.6995964050293
 20
39.81465148925781
 30
142.0
 11
-37.140472412109375
 21
40.38447189331055
 31
142.0
 12
-36.97297286987305
 22
40.57484436035156
 32
142.0
 13
-36.97297286987305
 23
40.57484436035156
 33
142.0
  0
3DFACE
  8
0
 10
-36.97297286987305
 20
40.57484436035156
 30
142.0
 11
-36.52469253540039
 21
41.15062713623047
 31
142.0
 12
-36.195255279541016
 22
41.62479019165039
 32
142.0
 13
-36.195255279541016
 23
41.62479019165039
 33
142.0
  0
3DFACE
  8
0
 10
-36.195255279541016
 20
41.62479019165039
 30
142.0
 11
-36.007083892822266
 21
41.9551887512207
 31
142.0
 12
-35.815608978271484
 22
42.38175582885742
 32
142.0
 13
-35.815608978271484
 23
42.38175582885742
 33
142.0
  0
3DFACE
  8
0
 10
-35.638858795166016
 20
42.75973129272461
 30
142.0
 11
-35.589271545410156
 21
42.860347747802734
 31
142.0
 12
-35.216651916503906
 22
44.07073211669922
 32
142.0
 13
-35.216651916503906
 23
44.07073211669922
 33
142.0
  0
3DFACE
  8
0
 10
-36.195255279541016
 20
41.62479019165039
 30
142.0
 11
-35.815608978271484
 21
42.38175582885742
 31
142.0
 12
-35.638858795166016
 22
42.75973129272461
 32
142.0
 13
-35.638858795166016
 23
42.75973129272461
 33
142.0
  0
3DFACE
  8
0
 10
-37.6995964050293
 20
39.81465148925781
 30
142.0
 11
-36.97297286987305
 21
40.57484436035156
 31
142.0
 12
-36.195255279541016
 22
41.62479019165039
 32
142.0
 13
-36.195255279541016
 23
41.62479019165039
 33
142.0
  0
3DFACE
  8
0
 10
-39.2177848815918
 20
38.58500289916992
 30
142.0
 11
-38.4687614440918
 21
39.15543746948242
 31
142.0
 12
-37.6995964050293
 22
39.81465148925781
 32
142.0
 13
-37.6995964050293
 23
39.81465148925781
 33
142.0
  0
3DFACE
  8
0
 10
-41.17991256713867
 20
37.53116989135742
 30
142.0
 11
-40.206722259521484
 21
37.959259033203125
 31
142.0
 12
-39.2177848815918
 22
38.58500289916992
 32
142.0
 13
-39.2177848815918
 23
38.58500289916992
 33
142.0
  0
3DFACE
  8
0
 10
-53.75971221923828
 20
44.368839263916016
 30
142.0
 11
-43.337013244628906
 21
37.13145065307617
 31
142.0
 12
-41.17991256713867
 22
37.53116989135742
 32
142.0
 13
-41.17991256713867
 23
37.53116989135742
 33
142.0
  0
3DFACE
  8
0
 10
-38.72841262817383
 20
54.135929107666016
 30
142.0
 11
-43.73133087158203
 21
56.323795318603516
 31
142.0
 12
-53.75971221923828
 22
44.368839263916016
 32
142.0
 13
-53.75971221923828
 23
44.368839263916016
 33
142.0
  0
3DFACE
  8
0
 10
-36.53123092651367
 20
51.62223815917969
 30
142.0
 11
-37.80531692504883
 21
53.22859191894531
 31
142.0
 12
-38.72841262817383
 22
54.135929107666016
 32
142.0
 13
-38.72841262817383
 23
54.135929107666016
 33
142.0
  0
3DFACE
  8
0
 10
-35.843475341796875
 20
50.26354217529297
 30
142.0
 11
-36.196044921875
 21
51.02912902832031
 31
142.0
 12
-36.53123092651367
 22
51.62223815917969
 32
142.0
 13
-36.53123092651367
 23
51.62223815917969
 33
142.0
  0
3DFACE
  8
0
 10
-35.65940475463867
 20
49.87030029296875
 30
142.0
 11
-35.71310043334961
 21
50.00069808959961
 31
142.0
 12
-35.843475341796875
 22
50.26354217529297
 32
142.0
 13
-35.843475341796875
 23
50.26354217529297
 33
142.0
  0
3DFACE
  8
0
 10
-35.274593353271484
 20
48.68767547607422
 30
142.0
 11
-35.54417037963867
 21
49.532073974609375
 31
142.0
 12
-35.65940475463867
 22
49.87030029296875
 32
142.0
 13
-35.65940475463867
 23
49.87030029296875
 33
142.0
  0
3DFACE
  8
0
 10
-35.076446533203125
 20
47.602725982666016
 30
142.0
 11
-35.21229553222656
 21
48.3915901184082
 31
142.0
 12
-35.274593353271484
 22
48.68767547607422
 32
142.0
 13
-35.274593353271484
 23
48.68767547607422
 33
142.0
  0
3DFACE
  8
0
 10
-35.072235107421875
 20
47.579036712646484
 30
142.0
 11
-35.073429107666016
 21
47.5870475769043
 31
142.0
 12
-35.076446533203125
 22
47.602725982666016
 32
142.0
 13
-35.076446533203125
 23
47.602725982666016
 33
142.0
  0
3DFACE
  8
0
 10
-34.99055862426758
 20
46.78249740600586
 30
142.0
 11
-34.990848541259766
 21
46.824371337890625
 31
142.0
 12
-35.072235107421875
 22
47.579036712646484
 32
142.0
 13
-35.072235107421875
 23
47.579036712646484
 33
142.0
  0
3DFACE
  8
0
 10
-34.99983215332031
 20
45.6546630859375
 30
142.0
 11
-34.973026275634766
 21
46.1220703125
 31
142.0
 12
-34.99055862426758
 22
46.78249740600586
 32
142.0
 13
-34.99055862426758
 23
46.78249740600586
 33
142.0
  0
3DFACE
  8
0
 10
-35.020782470703125
 20
45.34429931640625
 30
142.0
 11
-35.004539489746094
 21
45.506038665771484
 31
142.0
 12
-34.99983215332031
 22
45.6546630859375
 32
142.0
 13
-34.99983215332031
 23
45.6546630859375
 33
142.0
  0
3DFACE
  8
0
 10
-35.216651916503906
 20
44.07073211669922
 30
142.0
 11
-35.10045623779297
 21
44.67535400390625
 31
142.0
 12
-35.04452133178711
 22
45.17338562011719
 32
142.0
 13
-35.04452133178711
 23
45.17338562011719
 33
142.0
  0
3DFACE
  8
0
 10
-35.04452133178711
 20
45.17338562011719
 30
142.0
 11
-35.020782470703125
 21
45.34429931640625
 31
142.0
 12
-34.99983215332031
 22
45.6546630859375
 32
142.0
 13
-34.99983215332031
 23
45.6546630859375
 33
142.0
  0
3DFACE
  8
0
 10
-34.99983215332031
 20
45.6546630859375
 30
142.0
 11
-34.99055862426758
 21
46.78249740600586
 31
142.0
 12
-35.072235107421875
 22
47.579036712646484
 32
142.0
 13
-35.072235107421875
 23
47.579036712646484
 33
142.0
  0
3DFACE
  8
0
 10
-35.072235107421875
 20
47.579036712646484
 30
142.0
 11
-35.076446533203125
 21
47.602725982666016
 31
142.0
 12
-35.274593353271484
 22
48.68767547607422
 32
142.0
 13
-35.274593353271484
 23
48.68767547607422
 33
142.0
  0
3DFACE
  8
0
 10
-35.274593353271484
 20
48.68767547607422
 30
142.0
 11
-35.65940475463867
 21
49.87030029296875
 31
142.0
 12
-35.843475341796875
 22
50.26354217529297
 32
142.0
 13
-35.843475341796875
 23
50.26354217529297
 33
142.0
  0
3DFACE
  8
0
 10
-35.843475341796875
 20
50.26354217529297
 30
142.0
 11
-36.53123092651367
 21
51.62223815917969
 31
142.0
 12
-38.72841262817383
 22
54.135929107666016
 32
142.0
 13
-38.72841262817383
 23
54.135929107666016
 33
142.0
  0
3DFACE
  8
0
 10
-38.72841262817383
 20
54.135929107666016
 30
142.0
 11
-53.75971221923828
 21
44.368839263916016
 31
142.0
 12
-41.17991256713867
 22
37.53116989135742
 32
142.0
 13
-41.17991256713867
 23
37.53116989135742
 33
142.0
  0
3DFACE
  8
0
 10
-41.17991256713867
 20
37.53116989135742
 30
142.0
 11
-39.2177848815918
 21
38.58500289916992
 31
142.0
 12
-37.6995964050293
 22
39.81465148925781
 32
142.0
 13
-37.6995964050293
 23
39.81465148925781
 33
142.0
  0
3DFACE
  8
0
 10
-37.6995964050293
 20
39.81465148925781
 30
142.0
 11
-36.195255279541016
 21
41.62479019165039
 31
142.0
 12
-35.638858795166016
 22
42.75973129272461
 32
142.0
 13
-35.638858795166016
 23
42.75973129272461
 33
142.0
  0
3DFACE
  8
0
 10
-35.638858795166016
 20
42.75973129272461
 30
142.0
 11
-35.216651916503906
 21
44.07073211669922
 31
142.0
 12
-35.04452133178711
 22
45.17338562011719
 32
142.0
 13
-35.04452133178711
 23
45.17338562011719
 33
142.0
  0
3DFACE
  8
0
 10
-35.04452133178711
 20
45.17338562011719
 30
142.0
 11
-34.99983215332031
 21
45.6546630859375
 31
142.0
 12
-35.072235107421875
 22
47.579036712646484
 32
142.0
 13
-35.072235107421875
 23
47.579036712646484
 33
142.0
  0
3DFACE
  8
0
 10
-35.072235107421875
 20
47.579036712646484
 30
142.0
 11
-35.274593353271484
 21
48.68767547607422
 31
142.0
 12
-35.843475341796875
 22
50.26354217529297
 32
142.0
 13
-35.843475341796875
 23
50.26354217529297
 33
142.0
  0
3DFACE
  8
0
 10
-35.843475341796875
 20
50.26354217529297
 30
142.0
 11
-38.72841262817383
 21
54.135929107666016
 31
142.0
 12
-41.17991256713867
 22
37.53116989135742
 32
142.0
 13
-41.17991256713867
 23
37.53116989135742
 33
142.0
  0
3DFACE
  8
0
 10
-41.17991256713867
 20
37.53116989135742
 30
142.0
 11
-37.6995964050293
 21
39.81465148925781
 31
142.0
 12
-35.638858795166016
 22
42.75973129272461
 32
142.0
 13
-35.638858795166016
 23
42.75973129272461
 33
142.0
  0
3DFACE
  8
0
 10
-35.638858795166016
 20
42.75973129272461
 30
142.0
 11
-35.04452133178711
 21
45.17338562011719
 31
142.0
 12
-35.072235107421875
 22
47.579036712646484
 32
142.0
 13
-35.072235107421875
 23
47.579036712646484
 33
142.0
  0
3DFACE
  8
0
 10
-35.072235107421875
 20
47.579036712646484
 30
142.0
 11
-35.843475341796875
 21
50.26354217529297
 31
142.0
 12
-41.17991256713867
 22
37.53116989135742
 32
142.0
 13
-41.17991256713867
 23
37.53116989135742
 33
142.0
  0
3DFACE
  8
0
 10
-41.17991256713867
 20
37.53116989135742
 30
142.0
 11
-35.638858795166016
 21
42.75973129272461
 31
142.0
 12
-35.072235107421875
 22
47.579036712646484
 32
142.0
 13
-35.072235107421875
 23
47.579036712646484
 33
142.0
  0
3DFACE
  8
0
 10
29.091686248779297
 20
65.88684844970703
 30
142.0
 11
28.481218338012695
 21
65.40632629394531
 31
142.0
 12
27.94110107421875
 22
64.86067962646484
 32
142.0
 13
27.94110107421875
 23
64.86067962646484
 33
142.0
  0
3DFACE
  8
0
 10
27.94110107421875
 20
64.86067962646484
 30
142.0
 11
27.459760665893555
 21
64.28837585449219
 31
142.0
 12
27.1734619140625
 22
63.8521728515625
 32
142.0
 13
27.1734619140625
 23
63.8521728515625
 33
142.0
  0
3DFACE
  8
0
 10
27.1734619140625
 20
63.8521728515625
 30
142.0
 11
27.082427978515625
 21
63.723751068115234
 31
142.0
 12
26.734060287475586
 22
63.139644622802734
 32
142.0
 13
26.734060287475586
 23
63.139644622802734
 33
142.0
  0
3DFACE
  8
0
 10
26.718952178955078
 20
63.10588836669922
 30
142.0
 11
26.69685935974121
 21
63.06131362915039
 31
142.0
 12
26.578563690185547
 22
62.80891418457031
 32
142.0
 13
26.578563690185547
 23
62.80891418457031
 33
142.0
  0
3DFACE
  8
0
 10
27.1734619140625
 20
63.8521728515625
 30
142.0
 11
26.734060287475586
 21
63.139644622802734
 31
142.0
 12
26.718952178955078
 22
63.10588836669922
 32
142.0
 13
26.718952178955078
 23
63.10588836669922
 33
142.0
  0
3DFACE
  8
0
 10
29.091686248779297
 20
65.88684844970703
 30
142.0
 11
27.94110107421875
 21
64.86067962646484
 31
142.0
 12
27.1734619140625
 22
63.8521728515625
 32
142.0
 13
27.1734619140625
 23
63.8521728515625
 33
142.0
  0
3DFACE
  8
0
 10
30.52584457397461
 20
66.80726623535156
 30
142.0
 11
29.920440673828125
 21
66.46387481689453
 31
142.0
 12
29.278871536254883
 22
66.00584411621094
 32
142.0
 13
29.278871536254883
 23
66.00584411621094
 33
142.0
  0
3DFACE
  8
0
 10
29.278871536254883
 20
66.00584411621094
 30
142.0
 11
29.091686248779297
 21
65.88684844970703
 31
142.0
 12
27.1734619140625
 22
63.8521728515625
 32
142.0
 13
27.1734619140625
 23
63.8521728515625
 33
142.0
  0
3DFACE
  8
0
 10
27.1734619140625
 20
63.8521728515625
 30
142.0
 11
26.718952178955078
 21
63.10588836669922
 31
142.0
 12
26.578563690185547
 22
62.80891418457031
 32
142.0
 13
26.578563690185547
 23
62.80891418457031
 33
142.0
  0
3DFACE
  8
0
 10
26.578563690185547
 20
62.80891418457031
 30
142.0
 11
26.45926856994629
 21
62.53843688964844
 31
142.0
 12
26.328224182128906
 22
62.211204528808594
 32
142.0
 13
26.328224182128906
 23
62.211204528808594
 33
142.0
  0
3DFACE
  8
0
 10
26.328224182128906
 20
62.211204528808594
 30
142.0
 11
26.177095413208008
 21
61.81057357788086
 31
142.0
 12
26.087989807128906
 22
61.487300872802734
 32
142.0
 13
26.087989807128906
 23
61.487300872802734
 33
142.0
  0
3DFACE
  8
0
 10
26.087989807128906
 20
61.487300872802734
 30
142.0
 11
26.034921646118164
 21
61.320369720458984
 31
142.0
 12
25.85634422302246
 22
60.703399658203125
 32
142.0
 13
25.85634422302246
 23
60.703399658203125
 33
142.0
  0
3DFACE
  8
0
 10
25.85634422302246
 20
60.703399658203125
 30
142.0
 11
25.856054306030273
 21
60.701961517333984
 31
142.0
 12
25.7414493560791
 22
60.07411193847656
 32
142.0
 13
25.7414493560791
 23
60.07411193847656
 33
142.0
  0
3DFACE
  8
0
 10
25.70982551574707
 20
59.65788650512695
 30
142.0
 11
25.646404266357422
 21
59.12588119506836
 31
142.0
 12
25.644330978393555
 22
58.758426666259766
 32
142.0
 13
25.644330978393555
 23
58.758426666259766
 33
142.0
  0
3DFACE
  8
0
 10
25.85634422302246
 20
60.703399658203125
 30
142.0
 11
25.7414493560791
 21
60.07411193847656
 31
142.0
 12
25.70982551574707
 22
59.65788650512695
 32
142.0
 13
25.70982551574707
 23
59.65788650512695
 33
142.0
  0
3DFACE
  8
0
 10
26.328224182128906
 20
62.211204528808594
 30
142.0
 11
26.087989807128906
 21
61.487300872802734
 31
142.0
 12
25.85634422302246
 22
60.703399658203125
 32
142.0
 13
25.85634422302246
 23
60.703399658203125
 33
142.0
  0
3DFACE
  8
0
 10
27.1734619140625
 20
63.8521728515625
 30
142.0
 11
26.578563690185547
 21
62.80891418457031
 31
142.0
 12
26.328224182128906
 22
62.211204528808594
 32
142.0
 13
26.328224182128906
 23
62.211204528808594
 33
142.0
  0
3DFACE
  8
0
 10
30.52584457397461
 20
66.80726623535156
 30
142.0
 11
29.278871536254883
 21
66.00584411621094
 31
142.0
 12
27.1734619140625
 22
63.8521728515625
 32
142.0
 13
27.1734619140625
 23
63.8521728515625
 33
142.0
  0
3DFACE
  8
0
 10
31.53874397277832
 20
67.21842193603516
 30
142.0
 11
30.733325958251953
 21
66.91791534423828
 31
142.0
 12
30.52584457397461
 22
66.80726623535156
 32
142.0
 13
30.52584457397461
 23
66.80726623535156
 33
142.0
  0
3DFACE
  8
0
 10
32.77662658691406
 20
67.52531433105469
 30
142.0
 11
32.340999603271484
 21
67.45446014404297
 31
142.0
 12
31.53874397277832
 22
67.21842193603516
 32
142.0
 13
31.53874397277832
 23
67.21842193603516
 33
142.0
  0
3DFACE
  8
0
 10
34.414180755615234
 20
67.51846313476562
 30
142.0
 11
33.1368522644043
 21
67.56006622314453
 31
142.0
 12
32.77662658691406
 22
67.52531433105469
 32
142.0
 13
32.77662658691406
 23
67.52531433105469
 33
142.0
  0
3DFACE
  8
0
 10
35.071311950683594
 20
67.41032409667969
 30
142.0
 11
34.714229583740234
 21
67.4794692993164
 31
142.0
 12
34.472530364990234
 22
67.50927734375
 32
142.0
 13
34.472530364990234
 23
67.50927734375
 33
142.0
  0
3DFACE
  8
0
 10
34.472530364990234
 20
67.50927734375
 30
142.0
 11
34.414180755615234
 21
67.51846313476562
 31
142.0
 12
32.77662658691406
 22
67.52531433105469
 32
142.0
 13
32.77662658691406
 23
67.52531433105469
 33
142.0
  0
3DFACE
  8
0
 10
32.77662658691406
 20
67.52531433105469
 30
142.0
 11
31.53874397277832
 21
67.21842193603516
 31
142.0
 12
30.52584457397461
 22
66.80726623535156
 32
142.0
 13
30.52584457397461
 23
66.80726623535156
 33
142.0
  0
3DFACE
  8
0
 10
30.52584457397461
 20
66.80726623535156
 30
142.0
 11
27.1734619140625
 21
63.8521728515625
 31
142.0
 12
26.328224182128906
 22
62.211204528808594
 32
142.0
 13
26.328224182128906
 23
62.211204528808594
 33
142.0
  0
3DFACE
  8
0
 10
26.328224182128906
 20
62.211204528808594
 30
142.0
 11
25.85634422302246
 21
60.703399658203125
 31
142.0
 12
25.70982551574707
 22
59.65788650512695
 32
142.0
 13
25.70982551574707
 23
59.65788650512695
 33
142.0
  0
3DFACE
  8
0
 10
25.70982551574707
 20
59.65788650512695
 30
142.0
 11
25.644330978393555
 21
58.758426666259766
 31
142.0
 12
25.683269500732422
 22
58.2249870300293
 32
142.0
 13
25.683269500732422
 23
58.2249870300293
 33
142.0
  0
3DFACE
  8
0
 10
25.683269500732422
 20
58.2249870300293
 30
142.0
 11
25.69974136352539
 21
58.07002258300781
 31
142.0
 12
25.798006057739258
 22
57.48405838012695
 32
142.0
 13
25.798006057739258
 23
57.48405838012695
 33
142.0
  0
3DFACE
  8
0
 10
25.798006057739258
 20
57.48405838012695
 30
142.0
 11
25.965625762939453
 21
56.770626068115234
 31
142.0
 12
26.194711685180664
 22
55.99948501586914
 32
142.0
 13
26.194711685180664
 23
55.99948501586914
 33
142.0
  0
3DFACE
  8
0
 10
26.194711685180664
 20
55.99948501586914
 30
142.0
 11
26.20339584350586
 21
55.97733688354492
 31
142.0
 12
26.3391056060791
 22
55.66029357910156
 32
142.0
 13
26.3391056060791
 23
55.66029357910156
 33
142.0
  0
3DFACE
  8
0
 10
26.533000946044922
 20
55.257572174072266
 30
142.0
 11
26.70464324951172
 21
54.83815002441406
 31
142.0
 12
26.969083786010742
 22
54.274837493896484
 32
142.0
 13
26.969083786010742
 23
54.274837493896484
 33
142.0
  0
3DFACE
  8
0
 10
26.194711685180664
 20
55.99948501586914
 30
142.0
 11
26.3391056060791
 21
55.66029357910156
 31
142.0
 12
26.533000946044922
 22
55.257572174072266
 32
142.0
 13
26.533000946044922
 23
55.257572174072266
 33
142.0
  0
3DFACE
  8
0
 10
25.683269500732422
 20
58.2249870300293
 30
142.0
 11
25.798006057739258
 21
57.48405838012695
 31
142.0
 12
26.194711685180664
 22
55.99948501586914
 32
142.0
 13
26.194711685180664
 23
55.99948501586914
 33
142.0
  0
3DFACE
  8
0
 10
26.328224182128906
 20
62.211204528808594
 30
142.0
 11
25.70982551574707
 21
59.65788650512695
 31
142.0
 12
25.683269500732422
 22
58.2249870300293
 32
142.0
 13
25.683269500732422
 23
58.2249870300293
 33
142.0
  0
3DFACE
  8
0
 10
32.77662658691406
 20
67.52531433105469
 30
142.0
 11
30.52584457397461
 21
66.80726623535156
 31
142.0
 12
26.328224182128906
 22
62.211204528808594
 32
142.0
 13
26.328224182128906
 23
62.211204528808594
 33
142.0
  0
3DFACE
  8
0
 10
35.071311950683594
 20
67.41032409667969
 30
142.0
 11
34.472530364990234
 21
67.50927734375
 31
142.0
 12
32.77662658691406
 22
67.52531433105469
 32
142.0
 13
32.77662658691406
 23
67.52531433105469
 33
142.0
  0
3DFACE
  8
0
 10
35.782501220703125
 20
67.26300048828125
 30
142.0
 11
35.498050689697266
 21
67.3399887084961
 31
142.0
 12
35.071311950683594
 22
67.41032409667969
 32
142.0
 13
35.071311950683594
 23
67.41032409667969
 33
142.0
  0
3DFACE
  8
0
 10
36.97751235961914
 20
66.81598663330078
 30
142.0
 11
36.276344299316406
 21
67.08776092529297
 31
142.0
 12
35.782501220703125
 22
67.26300048828125
 32
142.0
 13
35.782501220703125
 23
67.26300048828125
 33
142.0
  0
3DFACE
  8
0
 10
37.82059860229492
 20
66.33250427246094
 30
142.0
 11
37.05204391479492
 21
66.78305053710938
 31
142.0
 12
36.97751235961914
 22
66.81598663330078
 32
142.0
 13
36.97751235961914
 23
66.81598663330078
 33
142.0
  0
3DFACE
  8
0
 10
38.58219528198242
 20
65.74038696289062
 30
142.0
 11
37.99211502075195
 21
66.21012878417969
 31
142.0
 12
37.82059860229492
 22
66.33250427246094
 32
142.0
 13
37.82059860229492
 23
66.33250427246094
 33
142.0
  0
3DFACE
  8
0
 10
39.33210372924805
 20
64.91014099121094
 30
142.0
 11
38.89365768432617
 21
65.42298126220703
 31
142.0
 12
38.58219528198242
 22
65.74038696289062
 32
142.0
 13
38.58219528198242
 23
65.74038696289062
 33
142.0
  0
3DFACE
  8
0
 10
39.60268783569336
 20
64.530517578125
 30
142.0
 11
39.52998352050781
 21
64.63585662841797
 31
142.0
 12
39.33210372924805
 22
64.91014099121094
 32
142.0
 13
39.33210372924805
 23
64.91014099121094
 33
142.0
  0
3DFACE
  8
0
 10
40.04301834106445
 20
63.74659729003906
 30
142.0
 11
39.99085235595703
 21
63.84871292114258
 31
142.0
 12
39.60268783569336
 22
64.530517578125
 32
142.0
 13
39.60268783569336
 23
64.530517578125
 33
142.0
  0
3DFACE
  8
0
 10
40.48259353637695
 20
62.5899658203125
 30
142.0
 11
40.341896057128906
 21
63.06157684326172
 31
142.0
 12
40.04301834106445
 22
63.74659729003906
 32
142.0
 13
40.04301834106445
 23
63.74659729003906
 33
142.0
  0
3DFACE
  8
0
 10
40.78168869018555
 20
61.54781723022461
 30
142.0
 11
40.63347625732422
 21
62.13151550292969
 31
142.0
 12
40.48259353637695
 22
62.5899658203125
 32
142.0
 13
40.48259353637695
 23
62.5899658203125
 33
142.0
  0
3DFACE
  8
0
 10
40.79951477050781
 20
61.4168701171875
 30
142.0
 11
40.79335021972656
 21
61.4872932434082
 31
142.0
 12
40.78168869018555
 22
61.54781723022461
 32
142.0
 13
40.78168869018555
 23
61.54781723022461
 33
142.0
  0
3DFACE
  8
0
 10
40.97366714477539
 20
59.913021087646484
 30
142.0
 11
40.947898864746094
 21
60.31392288208008
 31
142.0
 12
40.79951477050781
 22
61.4168701171875
 32
142.0
 13
40.79951477050781
 23
61.4168701171875
 33
142.0
  0
3DFACE
  8
0
 10
40.98044967651367
 20
58.86243438720703
 30
142.0
 11
40.99072265625
 21
59.05043029785156
 31
142.0
 12
40.97366714477539
 22
59.913021087646484
 32
142.0
 13
40.97366714477539
 23
59.913021087646484
 33
142.0
  0
3DFACE
  8
0
 10
40.80008316040039
 20
57.509944915771484
 30
142.0
 11
40.94186019897461
 21
58.338748931884766
 31
142.0
 12
40.98044967651367
 22
58.86243438720703
 32
142.0
 13
40.98044967651367
 23
58.86243438720703
 33
142.0
  0
3DFACE
  8
0
 10
40.40386962890625
 20
56.0427131652832
 30
142.0
 11
40.63862991333008
 21
56.76446533203125
 31
142.0
 12
40.69155502319336
 22
57.06456756591797
 32
142.0
 13
40.69155502319336
 23
57.06456756591797
 33
142.0
  0
3DFACE
  8
0
 10
40.69155502319336
 20
57.06456756591797
 30
142.0
 11
40.80008316040039
 21
57.509944915771484
 31
142.0
 12
40.98044967651367
 22
58.86243438720703
 32
142.0
 13
40.98044967651367
 23
58.86243438720703
 33
142.0
  0
3DFACE
  8
0
 10
40.98044967651367
 20
58.86243438720703
 30
142.0
 11
40.97366714477539
 21
59.913021087646484
 31
142.0
 12
40.79951477050781
 22
61.4168701171875
 32
142.0
 13
40.79951477050781
 23
61.4168701171875
 33
142.0
  0
3DFACE
  8
0
 10
40.79951477050781
 20
61.4168701171875
 30
142.0
 11
40.78168869018555
 21
61.54781723022461
 31
142.0
 12
40.48259353637695
 22
62.5899658203125
 32
142.0
 13
40.48259353637695
 23
62.5899658203125
 33
142.0
  0
3DFACE
  8
0
 10
40.48259353637695
 20
62.5899658203125
 30
142.0
 11
40.04301834106445
 21
63.74659729003906
 31
142.0
 12
39.60268783569336
 22
64.530517578125
 32
142.0
 13
39.60268783569336
 23
64.530517578125
 33
142.0
  0
3DFACE
  8
0
 10
39.60268783569336
 20
64.530517578125
 30
142.0
 11
39.33210372924805
 21
64.91014099121094
 31
142.0
 12
38.58219528198242
 22
65.74038696289062
 32
142.0
 13
38.58219528198242
 23
65.74038696289062
 33
142.0
  0
3DFACE
  8
0
 10
38.58219528198242
 20
65.74038696289062
 30
142.0
 11
37.82059860229492
 21
66.33250427246094
 31
142.0
 12
36.97751235961914
 22
66.81598663330078
 32
142.0
 13
36.97751235961914
 23
66.81598663330078
 33
142.0
  0
3DFACE
  8
0
 10
36.97751235961914
 20
66.81598663330078
 30
142.0
 11
35.782501220703125
 21
67.26300048828125
 31
142.0
 12
35.071311950683594
 22
67.41032409667969
 32
142.0
 13
35.071311950683594
 23
67.41032409667969
 33
142.0
  0
3DFACE
  8
0
 10
35.071311950683594
 20
67.41032409667969
 30
142.0
 11
32.77662658691406
 21
67.52531433105469
 31
142.0
 12
26.328224182128906
 22
62.211204528808594
 32
142.0
 13
26.328224182128906
 23
62.211204528808594
 33
142.0
  0
3DFACE
  8
0
 10
26.328224182128906
 20
62.211204528808594
 30
142.0
 11
25.683269500732422
 21
58.2249870300293
 31
142.0
 12
26.194711685180664
 22
55.99948501586914
 32
142.0
 13
26.194711685180664
 23
55.99948501586914
 33
142.0
  0
3DFACE
  8
0
 10
26.533000946044922
 20
55.257572174072266
 30
142.0
 11
26.969083786010742
 21
54.274837493896484
 31
142.0
 12
27.256134033203125
 22
53.7895393371582
 32
142.0
 13
27.256134033203125
 23
53.7895393371582
 33
142.0
  0
3DFACE
  8
0
 10
26.328224182128906
 20
62.211204528808594
 30
142.0
 11
26.194711685180664
 21
55.99948501586914
 31
142.0
 12
26.533000946044922
 22
55.257572174072266
 32
142.0
 13
26.533000946044922
 23
55.257572174072266
 33
142.0
  0
3DFACE
  8
0
 10
36.97751235961914
 20
66.81598663330078
 30
142.0
 11
35.071311950683594
 21
67.41032409667969
 31
142.0
 12
26.328224182128906
 22
62.211204528808594
 32
142.0
 13
26.328224182128906
 23
62.211204528808594
 33
142.0
  0
3DFACE
  8
0
 10
39.60268783569336
 20
64.530517578125
 30
142.0
 11
38.58219528198242
 21
65.74038696289062
 31
142.0
 12
36.97751235961914
 22
66.81598663330078
 32
142.0
 13
36.97751235961914
 23
66.81598663330078
 33
142.0
  0
3DFACE
  8
0
 10
40.79951477050781
 20
61.4168701171875
 30
142.0
 11
40.48259353637695
 21
62.5899658203125
 31
142.0
 12
39.60268783569336
 22
64.530517578125
 32
142.0
 13
39.60268783569336
 23
64.530517578125
 33
142.0
  0
3DFACE
  8
0
 10
40.69155502319336
 20
57.06456756591797
 30
142.0
 11
40.98044967651367
 21
58.86243438720703
 31
142.0
 12
40.79951477050781
 22
61.4168701171875
 32
142.0
 13
40.79951477050781
 23
61.4168701171875
 33
142.0
  0
3DFACE
  8
0
 10
40.37222671508789
 20
55.940608978271484
 30
142.0
 11
40.385982513427734
 21
55.97733688354492
 31
142.0
 12
40.40386962890625
 22
56.0427131652832
 32
142.0
 13
40.40386962890625
 23
56.0427131652832
 33
142.0
  0
3DFACE
  8
0
 10
40.40386962890625
 20
56.0427131652832
 30
142.0
 11
40.69155502319336
 21
57.06456756591797
 31
142.0
 12
40.79951477050781
 22
61.4168701171875
 32
142.0
 13
40.79951477050781
 23
61.4168701171875
 33
142.0
  0
3DFACE
  8
0
 10
40.79951477050781
 20
61.4168701171875
 30
142.0
 11
39.60268783569336
 21
64.530517578125
 31
142.0
 12
36.97751235961914
 22
66.81598663330078
 32
142.0
 13
36.97751235961914
 23
66.81598663330078
 33
142.0
  0
3DFACE
  8
0
 10
36.97751235961914
 20
66.81598663330078
 30
142.0
 11
26.328224182128906
 21
62.211204528808594
 31
142.0
 12
26.533000946044922
 22
55.257572174072266
 32
142.0
 13
26.533000946044922
 23
55.257572174072266
 33
142.0
  0
3DFACE
  8
0
 10
26.533000946044922
 20
55.257572174072266
 30
142.0
 11
27.256134033203125
 21
53.7895393371582
 31
142.0
 12
27.821407318115234
 22
52.93579864501953
 32
142.0
 13
27.821407318115234
 23
52.93579864501953
 33
142.0
  0
3DFACE
  8
0
 10
27.84713363647461
 20
52.909912109375
 30
142.0
 11
28.431997299194336
 21
52.29012680053711
 31
142.0
 12
28.70657730102539
 22
52.054622650146484
 32
142.0
 13
28.70657730102539
 23
52.054622650146484
 33
142.0
  0
3DFACE
  8
0
 10
26.533000946044922
 20
55.257572174072266
 30
142.0
 11
27.821407318115234
 21
52.93579864501953
 31
142.0
 12
27.84713363647461
 22
52.909912109375
 32
142.0
 13
27.84713363647461
 23
52.909912109375
 33
142.0
  0
3DFACE
  8
0
 10
40.79951477050781
 20
61.4168701171875
 30
142.0
 11
36.97751235961914
 21
66.81598663330078
 31
142.0
 12
26.533000946044922
 22
55.257572174072266
 32
142.0
 13
26.533000946044922
 23
55.257572174072266
 33
142.0
  0
3DFACE
  8
0
 10
40.37222671508789
 20
55.940608978271484
 30
142.0
 11
40.40386962890625
 21
56.0427131652832
 31
142.0
 12
40.79951477050781
 22
61.4168701171875
 32
142.0
 13
40.79951477050781
 23
61.4168701171875
 33
142.0
  0
3DFACE
  8
0
 10
40.03046417236328
 20
55.190181732177734
 30
142.0
 11
40.32203674316406
 21
55.82054901123047
 31
142.0
 12
40.37222671508789
 22
55.940608978271484
 32
142.0
 13
40.37222671508789
 23
55.940608978271484
 33
142.0
  0
3DFACE
  8
0
 10
39.722015380859375
 20
54.62715530395508
 30
142.0
 11
39.79307556152344
 21
54.7496223449707
 31
142.0
 12
40.03046417236328
 22
55.190181732177734
 32
142.0
 13
40.03046417236328
 23
55.190181732177734
 33
142.0
  0
3DFACE
  8
0
 10
39.019596099853516
 20
53.64595413208008
 30
142.0
 11
39.554931640625
 21
54.385005950927734
 31
142.0
 12
39.722015380859375
 22
54.62715530395508
 32
142.0
 13
39.722015380859375
 23
54.62715530395508
 33
142.0
  0
3DFACE
  8
0
 10
38.95979690551758
 20
53.56878662109375
 30
142.0
 11
38.99503707885742
 21
53.6109504699707
 31
142.0
 12
39.019596099853516
 22
53.64595413208008
 32
142.0
 13
39.019596099853516
 23
53.64595413208008
 33
142.0
  0
3DFACE
  8
0
 10
38.35456466674805
 20
52.96219253540039
 30
142.0
 11
38.774810791015625
 21
53.359886169433594
 31
142.0
 12
38.95979690551758
 22
53.56878662109375
 32
142.0
 13
38.95979690551758
 23
53.56878662109375
 33
142.0
  0
3DFACE
  8
0
 10
37.171630859375
 20
52.00941467285156
 30
142.0
 11
37.81622314453125
 21
52.48149108886719
 31
142.0
 12
38.06547546386719
 22
52.70796585083008
 32
142.0
 13
38.06547546386719
 23
52.70796585083008
 33
142.0
  0
3DFACE
  8
0
 10
38.06547546386719
 20
52.70796585083008
 30
142.0
 11
38.35456466674805
 21
52.96219253540039
 31
142.0
 12
38.95979690551758
 22
53.56878662109375
 32
142.0
 13
38.95979690551758
 23
53.56878662109375
 33
142.0
  0
3DFACE
  8
0
 10
38.95979690551758
 20
53.56878662109375
 30
142.0
 11
39.019596099853516
 21
53.64595413208008
 31
142.0
 12
39.722015380859375
 22
54.62715530395508
 32
142.0
 13
39.722015380859375
 23
54.62715530395508
 33
142.0
  0
3DFACE
  8
0
 10
39.722015380859375
 20
54.62715530395508
 30
142.0
 11
40.03046417236328
 21
55.190181732177734
 31
142.0
 12
40.37222671508789
 22
55.940608978271484
 32
142.0
 13
40.37222671508789
 23
55.940608978271484
 33
142.0
  0
3DFACE
  8
0
 10
40.37222671508789
 20
55.940608978271484
 30
142.0
 11
40.79951477050781
 21
61.4168701171875
 31
142.0
 12
26.533000946044922
 22
55.257572174072266
 32
142.0
 13
26.533000946044922
 23
55.257572174072266
 33
142.0
  0
3DFACE
  8
0
 10
26.533000946044922
 20
55.257572174072266
 30
142.0
 11
27.84713363647461
 21
52.909912109375
 31
142.0
 12
28.70657730102539
 22
52.054622650146484
 32
142.0
 13
28.70657730102539
 23
52.054622650146484
 33
142.0
  0
3DFACE
  8
0
 10
28.70657730102539
 20
52.054622650146484
 30
142.0
 11
29.19466209411621
 21
51.68156814575195
 31
142.0
 12
29.771440505981445
 22
51.428497314453125
 32
142.0
 13
29.771440505981445
 23
51.428497314453125
 33
142.0
  0
3DFACE
  8
0
 10
29.771440505981445
 20
51.428497314453125
 30
142.0
 11
29.967876434326172
 21
51.3260383605957
 31
142.0
 12
30.74444007873535
 22
51.03878402709961
 32
142.0
 13
30.74444007873535
 23
51.03878402709961
 33
142.0
  0
3DFACE
  8
0
 10
30.74444007873535
 20
51.03878402709961
 30
142.0
 11
30.83489418029785
 21
51.016929626464844
 31
142.0
 12
31.5279598236084
 22
50.89309310913086
 32
142.0
 13
31.5279598236084
 23
50.89309310913086
 33
142.0
  0
3DFACE
  8
0
 10
31.63003921508789
 20
50.88974380493164
 30
142.0
 11
32.60304641723633
 21
50.79904556274414
 31
142.0
 12
32.78506088256836
 22
50.7961540222168
 32
142.0
 13
32.78506088256836
 23
50.7961540222168
 33
142.0
  0
3DFACE
  8
0
 10
30.74444007873535
 20
51.03878402709961
 30
142.0
 11
31.5279598236084
 21
50.89309310913086
 31
142.0
 12
31.63003921508789
 22
50.88974380493164
 32
142.0
 13
31.63003921508789
 23
50.88974380493164
 33
142.0
  0
3DFACE
  8
0
 10
28.70657730102539
 20
52.054622650146484
 30
142.0
 11
29.771440505981445
 21
51.428497314453125
 31
142.0
 12
30.74444007873535
 22
51.03878402709961
 32
142.0
 13
30.74444007873535
 23
51.03878402709961
 33
142.0
  0
3DFACE
  8
0
 10
40.37222671508789
 20
55.940608978271484
 30
142.0
 11
26.533000946044922
 21
55.257572174072266
 31
142.0
 12
28.70657730102539
 22
52.054622650146484
 32
142.0
 13
28.70657730102539
 23
52.054622650146484
 33
142.0
  0
3DFACE
  8
0
 10
38.95979690551758
 20
53.56878662109375
 30
142.0
 11
39.722015380859375
 21
54.62715530395508
 31
142.0
 12
40.37222671508789
 22
55.940608978271484
 32
142.0
 13
40.37222671508789
 23
55.940608978271484
 33
142.0
  0
3DFACE
  8
0
 10
37.171630859375
 20
52.00941467285156
 30
142.0
 11
38.06547546386719
 21
52.70796585083008
 31
142.0
 12
38.95979690551758
 22
53.56878662109375
 32
142.0
 13
38.95979690551758
 23
53.56878662109375
 33
142.0
  0
3DFACE
  8
0
 10
37.0511360168457
 20
51.93048858642578
 30
142.0
 11
37.15279006958008
 21
51.9945068359375
 31
142.0
 12
37.171630859375
 22
52.00941467285156
 32
142.0
 13
37.171630859375
 23
52.00941467285156
 33
142.0
  0
3DFACE
  8
0
 10
35.90309524536133
 20
51.31118392944336
 30
142.0
 11
36.30046463012695
 21
51.473690032958984
 31
142.0
 12
37.0511360168457
 22
51.93048858642578
 32
142.0
 13
37.0511360168457
 23
51.93048858642578
 33
142.0
  0
3DFACE
  8
0
 10
35.307594299316406
 20
51.06795120239258
 30
142.0
 11
35.501705169677734
 21
51.13024139404297
 31
142.0
 12
35.90309524536133
 22
51.31118392944336
 32
142.0
 13
35.90309524536133
 23
51.31118392944336
 33
142.0
  0
3DFACE
  8
0
 10
34.65908432006836
 20
50.91364288330078
 30
142.0
 11
34.69194412231445
 21
50.91973876953125
 31
142.0
 12
35.307594299316406
 22
51.06795120239258
 32
142.0
 13
35.307594299316406
 23
51.06795120239258
 33
142.0
  0
3DFACE
  8
0
 10
33.414066314697266
 20
50.78197479248047
 30
142.0
 11
33.89665985107422
 21
50.825897216796875
 31
142.0
 12
34.65908432006836
 22
50.91364288330078
 32
142.0
 13
34.65908432006836
 23
50.91364288330078
 33
142.0
  0
3DFACE
  8
0
 10
32.78506088256836
 20
50.7961540222168
 30
142.0
 11
33.10376739501953
 21
50.78053283691406
 31
142.0
 12
33.414066314697266
 22
50.78197479248047
 32
142.0
 13
33.414066314697266
 23
50.78197479248047
 33
142.0
  0
3DFACE
  8
0
 10
30.74444007873535
 20
51.03878402709961
 30
142.0
 11
31.63003921508789
 21
50.88974380493164
 31
142.0
 12
32.78506088256836
 22
50.7961540222168
 32
142.0
 13
32.78506088256836
 23
50.7961540222168
 33
142.0
  0
3DFACE
  8
0
 10
40.37222671508789
 20
55.940608978271484
 30
142.0
 11
28.70657730102539
 21
52.054622650146484
 31
142.0
 12
30.74444007873535
 22
51.03878402709961
 32
142.0
 13
30.74444007873535
 23
51.03878402709961
 33
142.0
  0
3DFACE
  8
0
 10
37.171630859375
 20
52.00941467285156
 30
142.0
 11
38.95979690551758
 21
53.56878662109375
 31
142.0
 12
40.37222671508789
 22
55.940608978271484
 32
142.0
 13
40.37222671508789
 23
55.940608978271484
 33
142.0
  0
3DFACE
  8
0
 10
35.90309524536133
 20
51.31118392944336
 30
142.0
 11
37.0511360168457
 21
51.93048858642578
 31
142.0
 12
37.171630859375
 22
52.00941467285156
 32
142.0
 13
37.171630859375
 23
52.00941467285156
 33
142.0
  0
3DFACE
  8
0
 10
34.65908432006836
 20
50.91364288330078
 30
142.0
 11
35.307594299316406
 21
51.06795120239258
 31
142.0
 12
35.90309524536133
 22
51.31118392944336
 32
142.0
 13
35.90309524536133
 23
51.31118392944336
 33
142.0
  0
3DFACE
  8
0
 10
32.78506088256836
 20
50.7961540222168
 30
142.0
 11
33.414066314697266
 21
50.78197479248047
 31
142.0
 12
34.65908432006836
 22
50.91364288330078
 32
142.0
 13
34.65908432006836
 23
50.91364288330078
 33
142.0
  0
3DFACE
  8
0
 10
40.37222671508789
 20
55.940608978271484
 30
142.0
 11
30.74444007873535
 21
51.03878402709961
 31
142.0
 12
32.78506088256836
 22
50.7961540222168
 32
142.0
 13
32.78506088256836
 23
50.7961540222168
 33
142.0
  0
3DFACE
  8
0
 10
35.90309524536133
 20
51.31118392944336
 30
142.0
 11
37.171630859375
 21
52.00941467285156
 31
142.0
 12
40.37222671508789
 22
55.940608978271484
 32
142.0
 13
40.37222671508789
 23
55.940608978271484
 33
142.0
  0
3DFACE
  8
0
 10
32.78506088256836
 20
50.7961540222168
 30
142.0
 11
34.65908432006836
 21
50.91364288330078
 31
142.0
 12
35.90309524536133
 22
51.31118392944336
 32
142.0
 13
35.90309524536133
 23
51.31118392944336
 33
142.0
  0
3DFACE
  8
0
 10
32.78506088256836
 20
50.7961540222168
 30
142.0
 11
35.90309524536133
 21
51.31118392944336
 31
142.0
 12
40.37222671508789
 22
55.940608978271484
 32
142.0
 13
40.37222671508789
 23
55.940608978271484
 33
142.0
  0
ENDSEC
  0
EOF
