  0
SECTION
  2
HEADER
  9
$ACADVER
  1
AC1009
  9
$INSBASE
 10
0.0
 20
0.0
 30
0.0
  9
$EXTMIN
 10
0.0
 20
0.0
 30
0.0
  9
$EXTMAX
 10
0.0
 20
0.0
 30
0.0
  0
ENDSEC
  0
SECTION
  2
TABLES
  0
TABLE
  2
VPORT
 70
1
  0
VPORT
  2
*ACTIVE
 70
0
 10
0.0
 20
0.0
 11
1.0
 21
1.0
 12
-5.0
 22
1.0
 13
0.0
 23
0.0
 14
0.1
 24
0.1
 15
0.1
 25
0.1
 16
0.0
 26
0.0
 36
1.0
 17
0.0
 27
0.0
 37
0.0
 40
10.0
 41
1.0
 42
50.0
 43
0.0
 44
0.0
 50
0.0
 51
0.0
 71
0
 72
100
 73
1
 74
1
 75
0
 76
0
 77
0
 78
0
  0
ENDTAB
  0
TABLE
  2
LTYPE
 70
8
  0
LTYPE
  2
CONTINUOUS
 70
0
  3
Solid line
 72
65
 73
0
 40
0.0
  0
LTYPE
  2
DOT
 70
0
  3
. . . . . . .
 72
65
 73
2
 40
0.25
 49
0.0
 49
-0.25
  0
LTYPE
  2
DASHED
 70
0
  3
__ __ __ __ __
 72
65
 73
2
 40
0.8
 49
0.5
 49
-0.3
  0
LTYPE
  2
DASHDOT
 70
0
  3
__ . __ . __ .
 72
65
 73
4
 40
1.0
 49
0.5
 49
-0.25
 49
0.0
 49
-0.25
  0
LTYPE
  2
DIVIDE
 70
0
  3
____ . . ____ . . 
 72
65
 73
6
 40
1.25
 49
0.5
 49
-0.25
 49
0.0
 49
-0.25
 49
0.0
 49
-0.25
  0
LTYPE
  2
BORDER
 70
0
  3
__ __ . __ __ . 
 72
65
 73
6
 40
1.75
 49
0.5
 49
-0.25
 49
0.5
 49
-0.25
 49
0.0
 49
-0.25
  0
LTYPE
  2
HIDDEN
 70
0
  3
__ __ __ __ __
 72
65
 73
2
 40
0.4
 49
0.25
 49
-0.25
  0
LTYPE
  2
CENTER
 70
0
  3
____ _ ____ _ __
 72
65
 73
4
 40
2.0
 49
1.25
 49
-0.25
 49
0.25
 49
-0.25
  0
ENDTAB
  0
TABLE
  2
LAYER
 70
1
  0
LAYER
  2
PYDXF
 70
64
 62
7
  6
continuous
  0
ENDTAB
  0
TABLE
  2
STYLE
 70
1
  0
STYLE
  2
STANDARD
 70
0
 40
0
 41
1.0
 50
0.0
 71
0
 42
1
 3
ARIAL.TTF
 4

  0
ENDTAB
  0
TABLE
  2
VIEW
 70
1
  0
VIEW
  2
BF_TOPVIEW
 70
0
 40
120.0
 10
0.0
 20
0.0
 41
200.0
 11
0.0
 21
0.0
 31
1.0
 12
0.0
 22
0.0
 32
0.0
 42
50.0
 43
0.0
 44
0.0
 50
0.0
 71
0
  0
ENDTAB
  0
ENDSEC
  0
SECTION
  2
BLOCKS
  0
ENDSEC
  0
SECTION
  2
ENTITIES
  0
3DFACE
  8
0
 10
-14.965510368347168
 20
-54.10944747924805
 30
144.0
 11
-14.953422546386719
 21
-54.0457878112793
 31
144.0
 12
-14.947952270507812
 22
-53.98212814331055
 32
144.0
 13
-14.947952270507812
 23
-53.98212814331055
 33
144.0
  0
3DFACE
  8
0
 10
-14.95688533782959
 20
-52.577213287353516
 30
144.0
 11
-14.953359603881836
 21
-52.480777740478516
 31
144.0
 12
-14.963227272033691
 22
-52.384342193603516
 32
144.0
 13
-14.963227272033691
 23
-52.384342193603516
 33
144.0
  0
3DFACE
  8
0
 10
-14.965510368347168
 20
-54.10944747924805
 30
144.0
 11
-14.947952270507812
 21
-53.98212814331055
 31
144.0
 12
-14.95688533782959
 22
-52.577213287353516
 32
144.0
 13
-14.95688533782959
 23
-52.577213287353516
 33
144.0
  0
3DFACE
  8
0
 10
-15.080785751342773
 20
-54.89194869995117
 30
144.0
 11
-15.065016746520996
 21
-54.82828903198242
 31
144.0
 12
-14.965510368347168
 22
-54.10944747924805
 32
144.0
 13
-14.965510368347168
 23
-54.10944747924805
 33
144.0
  0
3DFACE
  8
0
 10
-15.353080749511719
 20
-56.3932991027832
 30
144.0
 11
-15.17467975616455
 21
-55.61079025268555
 31
144.0
 12
-15.080785751342773
 22
-54.89194869995117
 32
144.0
 13
-15.080785751342773
 23
-54.89194869995117
 33
144.0
  0
3DFACE
  8
0
 10
-15.897777557373047
 20
-57.95829391479492
 30
144.0
 11
-15.586199760437012
 21
-57.17727279663086
 31
144.0
 12
-15.378713607788086
 22
-56.458431243896484
 32
144.0
 13
-15.378713607788086
 23
-56.458431243896484
 33
144.0
  0
3DFACE
  8
0
 10
-15.378713607788086
 20
-56.458431243896484
 30
144.0
 11
-15.353080749511719
 21
-56.3932991027832
 31
144.0
 12
-15.080785751342773
 22
-54.89194869995117
 32
144.0
 13
-15.080785751342773
 23
-54.89194869995117
 33
144.0
  0
3DFACE
  8
0
 10
-15.080785751342773
 20
-54.89194869995117
 30
144.0
 11
-14.965510368347168
 21
-54.10944747924805
 31
144.0
 12
-14.95688533782959
 22
-52.577213287353516
 32
144.0
 13
-14.95688533782959
 23
-52.577213287353516
 33
144.0
  0
3DFACE
  8
0
 10
-14.95688533782959
 20
-52.577213287353516
 30
144.0
 11
-14.963227272033691
 21
-52.384342193603516
 31
144.0
 12
-15.069546699523926
 22
-51.69828414916992
 32
144.0
 13
-15.069546699523926
 23
-51.69828414916992
 33
144.0
  0
3DFACE
  8
0
 10
-15.069546699523926
 20
-51.69828414916992
 30
144.0
 11
-15.082419395446777
 21
-51.63462448120117
 31
144.0
 12
-15.286808967590332
 22
-50.915775299072266
 32
144.0
 13
-15.286808967590332
 23
-50.915775299072266
 33
144.0
  0
3DFACE
  8
0
 10
-15.642614364624023
 20
-50.20256805419922
 30
144.0
 11
-15.681119918823242
 21
-50.104549407958984
 31
144.0
 12
-15.728559494018555
 22
-50.003395080566406
 32
144.0
 13
-15.728559494018555
 23
-50.003395080566406
 33
144.0
  0
3DFACE
  8
0
 10
-15.069546699523926
 20
-51.69828414916992
 30
144.0
 11
-15.286808967590332
 21
-50.915775299072266
 31
144.0
 12
-15.642614364624023
 22
-50.20256805419922
 32
144.0
 13
-15.642614364624023
 23
-50.20256805419922
 33
144.0
  0
3DFACE
  8
0
 10
-15.080785751342773
 20
-54.89194869995117
 30
144.0
 11
-14.95688533782959
 21
-52.577213287353516
 31
144.0
 12
-15.069546699523926
 22
-51.69828414916992
 32
144.0
 13
-15.069546699523926
 23
-51.69828414916992
 33
144.0
  0
3DFACE
  8
0
 10
-15.897777557373047
 20
-57.95829391479492
 30
144.0
 11
-15.378713607788086
 21
-56.458431243896484
 31
144.0
 12
-15.080785751342773
 22
-54.89194869995117
 32
144.0
 13
-15.080785751342773
 23
-54.89194869995117
 33
144.0
  0
3DFACE
  8
0
 10
-16.20648956298828
 20
-58.67714309692383
 30
144.0
 11
-16.0320987701416
 21
-58.317718505859375
 31
144.0
 12
-15.897777557373047
 22
-57.95829391479492
 32
144.0
 13
-15.897777557373047
 23
-57.95829391479492
 33
144.0
  0
3DFACE
  8
0
 10
-16.695058822631836
 20
-59.54071807861328
 30
144.0
 11
-16.631534576416016
 21
-59.45939254760742
 31
144.0
 12
-16.24521255493164
 22
-58.74070358276367
 32
144.0
 13
-16.24521255493164
 23
-58.74070358276367
 33
144.0
  0
3DFACE
  8
0
 10
-16.24521255493164
 20
-58.74070358276367
 30
144.0
 11
-16.20648956298828
 21
-58.67714309692383
 31
144.0
 12
-15.897777557373047
 22
-57.95829391479492
 32
144.0
 13
-15.897777557373047
 23
-57.95829391479492
 33
144.0
  0
3DFACE
  8
0
 10
-15.897777557373047
 20
-57.95829391479492
 30
144.0
 11
-15.080785751342773
 21
-54.89194869995117
 31
144.0
 12
-15.069546699523926
 22
-51.69828414916992
 32
144.0
 13
-15.069546699523926
 23
-51.69828414916992
 33
144.0
  0
3DFACE
  8
0
 10
-15.069546699523926
 20
-51.69828414916992
 30
144.0
 11
-15.642614364624023
 21
-50.20256805419922
 31
144.0
 12
-15.728559494018555
 22
-50.003395080566406
 32
144.0
 13
-15.728559494018555
 23
-50.003395080566406
 33
144.0
  0
3DFACE
  8
0
 10
-15.728559494018555
 20
-50.003395080566406
 30
144.0
 11
-16.11553192138672
 21
-49.34709548950195
 31
144.0
 12
-16.544509887695312
 22
-48.718536376953125
 32
144.0
 13
-16.544509887695312
 23
-48.718536376953125
 33
144.0
  0
3DFACE
  8
0
 10
-16.544509887695312
 20
-48.718536376953125
 30
144.0
 11
-17.32695198059082
 21
-47.92491149902344
 31
144.0
 12
-17.378103256225586
 22
-47.888572692871094
 32
144.0
 13
-17.378103256225586
 23
-47.888572692871094
 33
144.0
  0
3DFACE
  8
0
 10
-17.378103256225586
 20
-47.888572692871094
 30
144.0
 11
-18.045480728149414
 21
-47.453426361083984
 31
144.0
 12
-18.109140396118164
 22
-47.41448211669922
 32
144.0
 13
-18.109140396118164
 23
-47.41448211669922
 33
144.0
  0
3DFACE
  8
0
 10
-18.109140396118164
 20
-47.41448211669922
 30
144.0
 11
-18.89164161682129
 21
-47.081748962402344
 31
144.0
 12
-19.56532096862793
 22
-46.91358184814453
 32
144.0
 13
-19.56532096862793
 23
-46.91358184814453
 33
144.0
  0
3DFACE
  8
0
 10
-19.56532096862793
 20
-46.91358184814453
 30
144.0
 11
-19.674144744873047
 21
-46.894168853759766
 31
144.0
 12
-19.782968521118164
 22
-46.893272399902344
 32
144.0
 13
-19.782968521118164
 23
-46.893272399902344
 33
144.0
  0
3DFACE
  8
0
 10
-19.782968521118164
 20
-46.893272399902344
 30
144.0
 11
-20.456647872924805
 21
-46.809715270996094
 31
144.0
 12
-20.520307540893555
 22
-46.81704330444336
 32
144.0
 13
-20.520307540893555
 23
-46.81704330444336
 33
144.0
  0
3DFACE
  8
0
 10
-20.520307540893555
 20
-46.81704330444336
 30
144.0
 11
-21.23914909362793
 21
-46.81776809692383
 31
144.0
 12
-21.95799446105957
 22
-46.93001937866211
 32
144.0
 13
-21.95799446105957
 23
-46.93001937866211
 33
144.0
  0
3DFACE
  8
0
 10
-21.95799446105957
 20
-46.93001937866211
 30
144.0
 11
-22.02165412902832
 21
-46.94109344482422
 31
144.0
 12
-22.053483963012695
 22
-46.95179748535156
 32
144.0
 13
-22.053483963012695
 23
-46.95179748535156
 33
144.0
  0
3DFACE
  8
0
 10
-21.95799446105957
 20
-46.93001937866211
 30
144.0
 11
-22.053483963012695
 21
-46.95179748535156
 31
144.0
 12
-22.08531379699707
 22
-46.96363067626953
 32
144.0
 13
-22.08531379699707
 23
-46.96363067626953
 33
144.0
  0
3DFACE
  8
0
 10
-19.782968521118164
 20
-46.893272399902344
 30
144.0
 11
-20.520307540893555
 21
-46.81704330444336
 31
144.0
 12
-21.95799446105957
 22
-46.93001937866211
 32
144.0
 13
-21.95799446105957
 23
-46.93001937866211
 33
144.0
  0
3DFACE
  8
0
 10
-18.109140396118164
 20
-47.41448211669922
 30
144.0
 11
-19.56532096862793
 21
-46.91358184814453
 31
144.0
 12
-19.782968521118164
 22
-46.893272399902344
 32
144.0
 13
-19.782968521118164
 23
-46.893272399902344
 33
144.0
  0
3DFACE
  8
0
 10
-16.544509887695312
 20
-48.718536376953125
 30
144.0
 11
-17.378103256225586
 21
-47.888572692871094
 31
144.0
 12
-18.109140396118164
 22
-47.41448211669922
 32
144.0
 13
-18.109140396118164
 23
-47.41448211669922
 33
144.0
  0
3DFACE
  8
0
 10
-15.069546699523926
 20
-51.69828414916992
 30
144.0
 11
-15.728559494018555
 21
-50.003395080566406
 31
144.0
 12
-16.544509887695312
 22
-48.718536376953125
 32
144.0
 13
-16.544509887695312
 23
-48.718536376953125
 33
144.0
  0
3DFACE
  8
0
 10
-16.24521255493164
 20
-58.74070358276367
 30
144.0
 11
-15.897777557373047
 21
-57.95829391479492
 31
144.0
 12
-15.069546699523926
 22
-51.69828414916992
 32
144.0
 13
-15.069546699523926
 23
-51.69828414916992
 33
144.0
  0
3DFACE
  8
0
 10
-17.326637268066406
 20
-60.309783935546875
 30
144.0
 11
-16.695058822631836
 21
-59.54071807861328
 31
144.0
 12
-16.24521255493164
 22
-58.74070358276367
 32
144.0
 13
-16.24521255493164
 23
-58.74070358276367
 33
144.0
  0
3DFACE
  8
0
 10
-18.8914737701416
 20
-61.690635681152344
 30
144.0
 11
-18.09684944152832
 21
-61.04899978637695
 31
144.0
 12
-17.354543685913086
 22
-60.335636138916016
 32
144.0
 13
-17.354543685913086
 23
-60.335636138916016
 33
144.0
  0
3DFACE
  8
0
 10
-17.354543685913086
 20
-60.335636138916016
 30
144.0
 11
-17.326637268066406
 21
-60.309783935546875
 31
144.0
 12
-16.24521255493164
 22
-58.74070358276367
 32
144.0
 13
-16.24521255493164
 23
-58.74070358276367
 33
144.0
  0
3DFACE
  8
0
 10
-16.24521255493164
 20
-58.74070358276367
 30
144.0
 11
-15.069546699523926
 21
-51.69828414916992
 31
144.0
 12
-16.544509887695312
 22
-48.718536376953125
 32
144.0
 13
-16.544509887695312
 23
-48.718536376953125
 33
144.0
  0
3DFACE
  8
0
 10
-16.544509887695312
 20
-48.718536376953125
 30
144.0
 11
-18.109140396118164
 21
-47.41448211669922
 31
144.0
 12
-19.782968521118164
 22
-46.893272399902344
 32
144.0
 13
-19.782968521118164
 23
-46.893272399902344
 33
144.0
  0
3DFACE
  8
0
 10
-19.782968521118164
 20
-46.893272399902344
 30
144.0
 11
-21.95799446105957
 21
-46.93001937866211
 31
144.0
 12
-22.08531379699707
 22
-46.96363067626953
 32
144.0
 13
-22.08531379699707
 23
-46.96363067626953
 33
144.0
  0
3DFACE
  8
0
 10
-22.14897346496582
 20
-46.98466873168945
 30
144.0
 11
-22.867815017700195
 21
-47.20940399169922
 31
144.0
 12
-23.58665657043457
 22
-47.4505729675293
 32
144.0
 13
-23.58665657043457
 23
-47.4505729675293
 33
144.0
  0
3DFACE
  8
0
 10
-19.782968521118164
 20
-46.893272399902344
 30
144.0
 11
-22.08531379699707
 21
-46.96363067626953
 31
144.0
 12
-22.14897346496582
 22
-46.98466873168945
 32
144.0
 13
-22.14897346496582
 23
-46.98466873168945
 33
144.0
  0
3DFACE
  8
0
 10
-16.24521255493164
 20
-58.74070358276367
 30
144.0
 11
-16.544509887695312
 21
-48.718536376953125
 31
144.0
 12
-19.782968521118164
 22
-46.893272399902344
 32
144.0
 13
-19.782968521118164
 23
-46.893272399902344
 33
144.0
  0
3DFACE
  8
0
 10
-18.8914737701416
 20
-61.690635681152344
 30
144.0
 11
-17.354543685913086
 21
-60.335636138916016
 31
144.0
 12
-16.24521255493164
 22
-58.74070358276367
 32
144.0
 13
-16.24521255493164
 23
-58.74070358276367
 33
144.0
  0
3DFACE
  8
0
 10
-19.801464080810547
 20
-62.259090423583984
 30
144.0
 11
-19.674144744873047
 21
-62.19260787963867
 31
144.0
 12
-19.016990661621094
 22
-61.759925842285156
 32
144.0
 13
-19.016990661621094
 23
-61.759925842285156
 33
144.0
  0
3DFACE
  8
0
 10
-19.016990661621094
 20
-61.759925842285156
 30
144.0
 11
-18.8914737701416
 21
-61.690635681152344
 31
144.0
 12
-16.24521255493164
 22
-58.74070358276367
 32
144.0
 13
-16.24521255493164
 23
-58.74070358276367
 33
144.0
  0
3DFACE
  8
0
 10
-16.24521255493164
 20
-58.74070358276367
 30
144.0
 11
-19.782968521118164
 21
-46.893272399902344
 31
144.0
 12
-22.14897346496582
 22
-46.98466873168945
 32
144.0
 13
-22.14897346496582
 23
-46.98466873168945
 33
144.0
  0
3DFACE
  8
0
 10
-22.14897346496582
 20
-46.98466873168945
 30
144.0
 11
-23.58665657043457
 21
-47.4505729675293
 31
144.0
 12
-24.343812942504883
 22
-47.798336029052734
 32
144.0
 13
-24.343812942504883
 23
-47.798336029052734
 33
144.0
  0
3DFACE
  8
0
 10
-24.366586685180664
 20
-47.80982971191406
 30
144.0
 11
-25.151662826538086
 21
-48.138790130615234
 31
144.0
 12
-25.215322494506836
 22
-48.17490005493164
 32
144.0
 13
-25.215322494506836
 23
-48.17490005493164
 33
144.0
  0
3DFACE
  8
0
 10
-22.14897346496582
 20
-46.98466873168945
 30
144.0
 11
-24.343812942504883
 21
-47.798336029052734
 31
144.0
 12
-24.366586685180664
 22
-47.80982971191406
 32
144.0
 13
-24.366586685180664
 23
-47.80982971191406
 33
144.0
  0
3DFACE
  8
0
 10
-19.016990661621094
 20
-61.759925842285156
 30
144.0
 11
-16.24521255493164
 21
-58.74070358276367
 31
144.0
 12
-22.14897346496582
 22
-46.98466873168945
 32
144.0
 13
-22.14897346496582
 23
-46.98466873168945
 33
144.0
  0
3DFACE
  8
0
 10
-21.23914909362793
 20
-62.976314544677734
 30
144.0
 11
-19.801464080810547
 21
-62.259090423583984
 31
144.0
 12
-19.016990661621094
 22
-61.759925842285156
 32
144.0
 13
-19.016990661621094
 23
-61.759925842285156
 33
144.0
  0
3DFACE
  8
0
 10
-22.02165412902832
 20
-63.249107360839844
 30
144.0
 11
-21.65730857849121
 21
-63.129024505615234
 31
144.0
 12
-21.23914909362793
 22
-62.976314544677734
 32
144.0
 13
-21.23914909362793
 23
-62.976314544677734
 33
144.0
  0
3DFACE
  8
0
 10
-22.84064483642578
 20
-63.430362701416016
 30
144.0
 11
-22.804155349731445
 21
-63.433170318603516
 31
144.0
 12
-22.02165412902832
 22
-63.249107360839844
 32
144.0
 13
-22.02165412902832
 23
-63.249107360839844
 33
144.0
  0
3DFACE
  8
0
 10
-24.369165420532227
 20
-63.33955001831055
 30
144.0
 11
-24.299659729003906
 21
-63.34880447387695
 31
144.0
 12
-22.84064483642578
 22
-63.430362701416016
 32
144.0
 13
-22.84064483642578
 23
-63.430362701416016
 33
144.0
  0
3DFACE
  8
0
 10
-25.442916870117188
 20
-63.08517837524414
 30
144.0
 11
-25.151662826538086
 21
-63.17328643798828
 31
144.0
 12
-24.459882736206055
 22
-63.31633377075195
 32
144.0
 13
-24.459882736206055
 23
-63.31633377075195
 33
144.0
  0
3DFACE
  8
0
 10
-24.459882736206055
 20
-63.31633377075195
 30
144.0
 11
-24.369165420532227
 21
-63.33955001831055
 31
144.0
 12
-22.84064483642578
 22
-63.430362701416016
 32
144.0
 13
-22.84064483642578
 23
-63.430362701416016
 33
144.0
  0
3DFACE
  8
0
 10
-22.84064483642578
 20
-63.430362701416016
 30
144.0
 11
-22.02165412902832
 21
-63.249107360839844
 31
144.0
 12
-21.23914909362793
 22
-62.976314544677734
 32
144.0
 13
-21.23914909362793
 23
-62.976314544677734
 33
144.0
  0
3DFACE
  8
0
 10
-21.23914909362793
 20
-62.976314544677734
 30
144.0
 11
-19.016990661621094
 21
-61.759925842285156
 31
144.0
 12
-22.14897346496582
 22
-46.98466873168945
 32
144.0
 13
-22.14897346496582
 23
-46.98466873168945
 33
144.0
  0
3DFACE
  8
0
 10
-22.14897346496582
 20
-46.98466873168945
 30
144.0
 11
-24.366586685180664
 21
-47.80982971191406
 31
144.0
 12
-25.215322494506836
 22
-48.17490005493164
 32
144.0
 13
-25.215322494506836
 23
-48.17490005493164
 33
144.0
  0
3DFACE
  8
0
 10
-25.215322494506836
 20
-48.17490005493164
 30
144.0
 11
-25.934167861938477
 21
-48.56088638305664
 31
144.0
 12
-25.98016357421875
 22
-48.596435546875
 32
144.0
 13
-25.98016357421875
 23
-48.596435546875
 33
144.0
  0
3DFACE
  8
0
 10
-25.98016357421875
 20
-48.596435546875
 30
144.0
 11
-26.716672897338867
 21
-49.063907623291016
 31
144.0
 12
-26.748693466186523
 22
-49.0944709777832
 32
144.0
 13
-26.748693466186523
 23
-49.0944709777832
 33
144.0
  0
3DFACE
  8
0
 10
-26.748693466186523
 20
-49.0944709777832
 30
144.0
 11
-27.04646873474121
 21
-49.350772857666016
 31
144.0
 12
-27.4675350189209
 22
-49.75863265991211
 32
144.0
 13
-27.4675350189209
 23
-49.75863265991211
 33
144.0
  0
3DFACE
  8
0
 10
-27.4675350189209
 20
-49.75863265991211
 30
144.0
 11
-27.499174118041992
 21
-49.79270553588867
 31
144.0
 12
-27.52254295349121
 22
-49.822288513183594
 32
144.0
 13
-27.52254295349121
 23
-49.822288513183594
 33
144.0
  0
3DFACE
  8
0
 10
-27.52254295349121
 20
-49.822288513183594
 30
144.0
 11
-27.7921085357666
 21
-50.13326644897461
 31
144.0
 12
-27.83322525024414
 22
-50.20227813720703
 32
144.0
 13
-27.83322525024414
 23
-50.20227813720703
 33
144.0
  0
3DFACE
  8
0
 10
-27.83322525024414
 20
-50.20227813720703
 30
144.0
 11
-28.400733947753906
 21
-50.91724395751953
 31
144.0
 12
-28.83445167541504
 22
-51.69828414916992
 32
144.0
 13
-28.83445167541504
 23
-51.69828414916992
 33
144.0
  0
3DFACE
  8
0
 10
-28.85736656188965
 20
-51.76194381713867
 30
144.0
 11
-29.200401306152344
 21
-52.480777740478516
 31
144.0
 12
-29.469409942626953
 22
-53.26327896118164
 32
144.0
 13
-29.469409942626953
 23
-53.26327896118164
 33
144.0
  0
3DFACE
  8
0
 10
-27.83322525024414
 20
-50.20227813720703
 30
144.0
 11
-28.83445167541504
 21
-51.69828414916992
 31
144.0
 12
-28.85736656188965
 22
-51.76194381713867
 32
144.0
 13
-28.85736656188965
 23
-51.76194381713867
 33
144.0
  0
3DFACE
  8
0
 10
-27.4675350189209
 20
-49.75863265991211
 30
144.0
 11
-27.52254295349121
 21
-49.822288513183594
 31
144.0
 12
-27.83322525024414
 22
-50.20227813720703
 32
144.0
 13
-27.83322525024414
 23
-50.20227813720703
 33
144.0
  0
3DFACE
  8
0
 10
-25.98016357421875
 20
-48.596435546875
 30
144.0
 11
-26.748693466186523
 21
-49.0944709777832
 31
144.0
 12
-27.4675350189209
 22
-49.75863265991211
 32
144.0
 13
-27.4675350189209
 23
-49.75863265991211
 33
144.0
  0
3DFACE
  8
0
 10
-22.14897346496582
 20
-46.98466873168945
 30
144.0
 11
-25.215322494506836
 21
-48.17490005493164
 31
144.0
 12
-25.98016357421875
 22
-48.596435546875
 32
144.0
 13
-25.98016357421875
 23
-48.596435546875
 33
144.0
  0
3DFACE
  8
0
 10
-22.84064483642578
 20
-63.430362701416016
 30
144.0
 11
-21.23914909362793
 21
-62.976314544677734
 31
144.0
 12
-22.14897346496582
 22
-46.98466873168945
 32
144.0
 13
-22.14897346496582
 23
-46.98466873168945
 33
144.0
  0
3DFACE
  8
0
 10
-25.442916870117188
 20
-63.08517837524414
 30
144.0
 11
-24.459882736206055
 21
-63.31633377075195
 31
144.0
 12
-22.84064483642578
 22
-63.430362701416016
 32
144.0
 13
-22.84064483642578
 23
-63.430362701416016
 33
144.0
  0
3DFACE
  8
0
 10
-26.587677001953125
 20
-62.666282653808594
 30
144.0
 11
-25.934167861938477
 21
-62.9455680847168
 31
144.0
 12
-25.442916870117188
 22
-63.08517837524414
 32
144.0
 13
-25.442916870117188
 23
-63.08517837524414
 33
144.0
  0
3DFACE
  8
0
 10
-26.716672897338867
 20
-62.60676574707031
 30
144.0
 11
-26.66550636291504
 21
-62.63124465942383
 31
144.0
 12
-26.587677001953125
 22
-62.666282653808594
 32
144.0
 13
-26.587677001953125
 23
-62.666282653808594
 33
144.0
  0
3DFACE
  8
0
 10
-27.93255043029785
 20
-61.80335998535156
 30
144.0
 11
-27.499174118041992
 21
-62.161075592041016
 31
144.0
 12
-26.716672897338867
 22
-62.60676574707031
 32
144.0
 13
-26.716672897338867
 23
-62.60676574707031
 33
144.0
  0
3DFACE
  8
0
 10
-28.235076904296875
 20
-61.5091552734375
 30
144.0
 11
-28.079030990600586
 21
-61.66609191894531
 31
144.0
 12
-27.93255043029785
 22
-61.80335998535156
 32
144.0
 13
-27.93255043029785
 23
-61.80335998535156
 33
144.0
  0
3DFACE
  8
0
 10
-29.117389678955078
 20
-60.42231750488281
 30
144.0
 11
-28.68889045715332
 21
-61.03875732421875
 31
144.0
 12
-28.235076904296875
 22
-61.5091552734375
 32
144.0
 13
-28.235076904296875
 23
-61.5091552734375
 33
144.0
  0
3DFACE
  8
0
 10
-29.276227951049805
 20
-60.20509719848633
 30
144.0
 11
-29.130958557128906
 21
-60.406497955322266
 31
144.0
 12
-29.12009048461914
 22
-60.41654586791992
 32
144.0
 13
-29.12009048461914
 23
-60.41654586791992
 33
144.0
  0
3DFACE
  8
0
 10
-29.12009048461914
 20
-60.41654586791992
 30
144.0
 11
-29.117389678955078
 21
-60.42231750488281
 31
144.0
 12
-28.235076904296875
 22
-61.5091552734375
 32
144.0
 13
-28.235076904296875
 23
-61.5091552734375
 33
144.0
  0
3DFACE
  8
0
 10
-28.235076904296875
 20
-61.5091552734375
 30
144.0
 11
-27.93255043029785
 21
-61.80335998535156
 31
144.0
 12
-26.716672897338867
 22
-62.60676574707031
 32
144.0
 13
-26.716672897338867
 23
-62.60676574707031
 33
144.0
  0
3DFACE
  8
0
 10
-26.716672897338867
 20
-62.60676574707031
 30
144.0
 11
-26.587677001953125
 21
-62.666282653808594
 31
144.0
 12
-25.442916870117188
 22
-63.08517837524414
 32
144.0
 13
-25.442916870117188
 23
-63.08517837524414
 33
144.0
  0
3DFACE
  8
0
 10
-25.442916870117188
 20
-63.08517837524414
 30
144.0
 11
-22.84064483642578
 21
-63.430362701416016
 31
144.0
 12
-22.14897346496582
 22
-46.98466873168945
 32
144.0
 13
-22.14897346496582
 23
-46.98466873168945
 33
144.0
  0
3DFACE
  8
0
 10
-22.14897346496582
 20
-46.98466873168945
 30
144.0
 11
-25.98016357421875
 21
-48.596435546875
 31
144.0
 12
-27.4675350189209
 22
-49.75863265991211
 32
144.0
 13
-27.4675350189209
 23
-49.75863265991211
 33
144.0
  0
3DFACE
  8
0
 10
-27.4675350189209
 20
-49.75863265991211
 30
144.0
 11
-27.83322525024414
 21
-50.20227813720703
 31
144.0
 12
-28.85736656188965
 22
-51.76194381713867
 32
144.0
 13
-28.85736656188965
 23
-51.76194381713867
 33
144.0
  0
3DFACE
  8
0
 10
-28.85736656188965
 20
-51.76194381713867
 30
144.0
 11
-29.469409942626953
 21
-53.26327896118164
 31
144.0
 12
-29.48604965209961
 22
-53.32693862915039
 32
144.0
 13
-29.48604965209961
 23
-53.32693862915039
 33
144.0
  0
3DFACE
  8
0
 10
-29.48604965209961
 20
-53.32693862915039
 30
144.0
 11
-29.702482223510742
 21
-54.0457878112793
 31
144.0
 12
-29.71406364440918
 22
-54.10944747924805
 32
144.0
 13
-29.71406364440918
 23
-54.10944747924805
 33
144.0
  0
3DFACE
  8
0
 10
-29.71406364440918
 20
-54.10944747924805
 30
144.0
 11
-29.9305419921875
 21
-54.82828903198242
 31
144.0
 12
-30.00521469116211
 22
-55.5471305847168
 32
144.0
 13
-30.00521469116211
 23
-55.5471305847168
 33
144.0
  0
3DFACE
  8
0
 10
-30.009756088256836
 20
-55.61079025268555
 30
144.0
 11
-30.08502960205078
 21
-56.258506774902344
 31
144.0
 12
-30.09345054626465
 22
-56.3932991027832
 32
144.0
 13
-30.09345054626465
 23
-56.3932991027832
 33
144.0
  0
3DFACE
  8
0
 10
-29.71406364440918
 20
-54.10944747924805
 30
144.0
 11
-30.00521469116211
 21
-55.5471305847168
 31
144.0
 12
-30.009756088256836
 22
-55.61079025268555
 32
144.0
 13
-30.009756088256836
 23
-55.61079025268555
 33
144.0
  0
3DFACE
  8
0
 10
-28.85736656188965
 20
-51.76194381713867
 30
144.0
 11
-29.48604965209961
 21
-53.32693862915039
 31
144.0
 12
-29.71406364440918
 22
-54.10944747924805
 32
144.0
 13
-29.71406364440918
 23
-54.10944747924805
 33
144.0
  0
3DFACE
  8
0
 10
-22.14897346496582
 20
-46.98466873168945
 30
144.0
 11
-27.4675350189209
 21
-49.75863265991211
 31
144.0
 12
-28.85736656188965
 22
-51.76194381713867
 32
144.0
 13
-28.85736656188965
 23
-51.76194381713867
 33
144.0
  0
3DFACE
  8
0
 10
-26.716672897338867
 20
-62.60676574707031
 30
144.0
 11
-25.442916870117188
 21
-63.08517837524414
 31
144.0
 12
-22.14897346496582
 22
-46.98466873168945
 32
144.0
 13
-22.14897346496582
 23
-46.98466873168945
 33
144.0
  0
3DFACE
  8
0
 10
-29.12009048461914
 20
-60.41654586791992
 30
144.0
 11
-28.235076904296875
 21
-61.5091552734375
 31
144.0
 12
-26.716672897338867
 22
-62.60676574707031
 32
144.0
 13
-26.716672897338867
 23
-62.60676574707031
 33
144.0
  0
3DFACE
  8
0
 10
-29.54713249206543
 20
-59.50035858154297
 30
144.0
 11
-29.276227951049805
 21
-60.20509719848633
 31
144.0
 12
-29.12009048461914
 22
-60.41654586791992
 32
144.0
 13
-29.12009048461914
 23
-60.41654586791992
 33
144.0
  0
3DFACE
  8
0
 10
-29.849855422973633
 20
-58.514442443847656
 30
144.0
 11
-29.796178817749023
 21
-58.75469970703125
 31
144.0
 12
-29.762428283691406
 22
-58.83579635620117
 32
144.0
 13
-29.762428283691406
 23
-58.83579635620117
 33
144.0
  0
3DFACE
  8
0
 10
-29.762428283691406
 20
-58.83579635620117
 30
144.0
 11
-29.54713249206543
 21
-59.50035858154297
 31
144.0
 12
-29.12009048461914
 22
-60.41654586791992
 32
144.0
 13
-29.12009048461914
 23
-60.41654586791992
 33
144.0
  0
3DFACE
  8
0
 10
-29.12009048461914
 20
-60.41654586791992
 30
144.0
 11
-26.716672897338867
 21
-62.60676574707031
 31
144.0
 12
-22.14897346496582
 22
-46.98466873168945
 32
144.0
 13
-22.14897346496582
 23
-46.98466873168945
 33
144.0
  0
3DFACE
  8
0
 10
-22.14897346496582
 20
-46.98466873168945
 30
144.0
 11
-28.85736656188965
 21
-51.76194381713867
 31
144.0
 12
-29.71406364440918
 22
-54.10944747924805
 32
144.0
 13
-29.71406364440918
 23
-54.10944747924805
 33
144.0
  0
3DFACE
  8
0
 10
-29.71406364440918
 20
-54.10944747924805
 30
144.0
 11
-30.009756088256836
 21
-55.61079025268555
 31
144.0
 12
-30.09345054626465
 22
-56.3932991027832
 32
144.0
 13
-30.09345054626465
 23
-56.3932991027832
 33
144.0
  0
3DFACE
  8
0
 10
-30.09345054626465
 20
-56.3932991027832
 30
144.0
 11
-30.042194366455078
 21
-57.17580032348633
 31
144.0
 12
-29.954240798950195
 22
-57.8471794128418
 32
144.0
 13
-29.954240798950195
 23
-57.8471794128418
 33
144.0
  0
3DFACE
  8
0
 10
-29.954240798950195
 20
-57.8471794128418
 30
144.0
 11
-29.955656051635742
 21
-57.95829391479492
 31
144.0
 12
-29.849855422973633
 22
-58.514442443847656
 32
144.0
 13
-29.849855422973633
 23
-58.514442443847656
 33
144.0
  0
3DFACE
  8
0
 10
-29.849855422973633
 20
-58.514442443847656
 30
144.0
 11
-29.762428283691406
 21
-58.83579635620117
 31
144.0
 12
-29.12009048461914
 22
-60.41654586791992
 32
144.0
 13
-29.12009048461914
 23
-60.41654586791992
 33
144.0
  0
3DFACE
  8
0
 10
-29.12009048461914
 20
-60.41654586791992
 30
144.0
 11
-22.14897346496582
 21
-46.98466873168945
 31
144.0
 12
-29.71406364440918
 22
-54.10944747924805
 32
144.0
 13
-29.71406364440918
 23
-54.10944747924805
 33
144.0
  0
3DFACE
  8
0
 10
-29.71406364440918
 20
-54.10944747924805
 30
144.0
 11
-30.09345054626465
 21
-56.3932991027832
 31
144.0
 12
-29.954240798950195
 22
-57.8471794128418
 32
144.0
 13
-29.954240798950195
 23
-57.8471794128418
 33
144.0
  0
3DFACE
  8
0
 10
-29.954240798950195
 20
-57.8471794128418
 30
144.0
 11
-29.849855422973633
 21
-58.514442443847656
 31
144.0
 12
-29.12009048461914
 22
-60.41654586791992
 32
144.0
 13
-29.12009048461914
 23
-60.41654586791992
 33
144.0
  0
3DFACE
  8
0
 10
-29.71406364440918
 20
-54.10944747924805
 30
144.0
 11
-29.954240798950195
 21
-57.8471794128418
 31
144.0
 12
-29.12009048461914
 22
-60.41654586791992
 32
144.0
 13
-29.12009048461914
 23
-60.41654586791992
 33
144.0
  0
3DFACE
  8
0
 10
35.872467041015625
 20
-55.64356231689453
 30
144.0
 11
35.8770751953125
 21
-55.64113998413086
 31
144.0
 12
36.770503997802734
 22
-55.0224494934082
 32
144.0
 13
36.770503997802734
 23
-55.0224494934082
 33
144.0
  0
3DFACE
  8
0
 10
36.770503997802734
 20
-55.0224494934082
 30
144.0
 11
36.899898529052734
 21
-54.90907669067383
 31
144.0
 12
37.47630310058594
 22
-54.348209381103516
 32
144.0
 13
37.47630310058594
 23
-54.348209381103516
 33
144.0
  0
3DFACE
  8
0
 10
37.47630310058594
 20
-54.348209381103516
 30
144.0
 11
37.876380920410156
 21
-53.813228607177734
 31
144.0
 12
37.98297119140625
 22
-53.6590461730957
 32
144.0
 13
37.98297119140625
 23
-53.6590461730957
 33
144.0
  0
3DFACE
  8
0
 10
37.98297119140625
 20
-53.6590461730957
 30
144.0
 11
38.270809173583984
 21
-53.15541458129883
 31
144.0
 12
38.373321533203125
 22
-52.942832946777344
 32
144.0
 13
38.373321533203125
 23
-52.942832946777344
 33
144.0
  0
3DFACE
  8
0
 10
38.478660583496094
 20
-52.635555267333984
 30
144.0
 11
38.65483474731445
 21
-52.20131301879883
 31
144.0
 12
38.76192855834961
 22
-51.868446350097656
 32
144.0
 13
38.76192855834961
 23
-51.868446350097656
 33
144.0
  0
3DFACE
  8
0
 10
37.98297119140625
 20
-53.6590461730957
 30
144.0
 11
38.373321533203125
 21
-52.942832946777344
 31
144.0
 12
38.478660583496094
 22
-52.635555267333984
 32
144.0
 13
38.478660583496094
 23
-52.635555267333984
 33
144.0
  0
3DFACE
  8
0
 10
36.770503997802734
 20
-55.0224494934082
 30
144.0
 11
37.47630310058594
 21
-54.348209381103516
 31
144.0
 12
37.98297119140625
 22
-53.6590461730957
 32
144.0
 13
37.98297119140625
 23
-53.6590461730957
 33
144.0
  0
3DFACE
  8
0
 10
34.984657287597656
 20
-55.99363327026367
 30
144.0
 11
35.872467041015625
 21
-55.64356231689453
 31
144.0
 12
36.770503997802734
 22
-55.0224494934082
 32
144.0
 13
36.770503997802734
 23
-55.0224494934082
 33
144.0
  0
3DFACE
  8
0
 10
34.224605560302734
 20
-56.21621322631836
 30
144.0
 11
34.79999923706055
 21
-56.052547454833984
 31
144.0
 12
34.984657287597656
 22
-55.99363327026367
 32
144.0
 13
34.984657287597656
 23
-55.99363327026367
 33
144.0
  0
3DFACE
  8
0
 10
33.905250549316406
 20
-56.23542022705078
 30
144.0
 11
34.1211051940918
 21
-56.23093795776367
 31
144.0
 12
34.224605560302734
 22
-56.21621322631836
 32
144.0
 13
34.224605560302734
 23
-56.21621322631836
 33
144.0
  0
3DFACE
  8
0
 10
32.705894470214844
 20
-56.253780364990234
 30
144.0
 11
33.29978942871094
 21
-56.271949768066406
 31
144.0
 12
33.905250549316406
 22
-56.23542022705078
 32
144.0
 13
33.905250549316406
 23
-56.23542022705078
 33
144.0
  0
3DFACE
  8
0
 10
31.987539291381836
 20
-56.150970458984375
 30
144.0
 11
32.4886474609375
 21
-56.2656135559082
 31
144.0
 12
32.705894470214844
 22
-56.253780364990234
 32
144.0
 13
32.705894470214844
 23
-56.253780364990234
 33
144.0
  0
3DFACE
  8
0
 10
31.090900421142578
 20
-55.91842269897461
 30
144.0
 11
31.709453582763672
 21
-56.110862731933594
 31
144.0
 12
31.987539291381836
 22
-56.150970458984375
 32
144.0
 13
31.987539291381836
 23
-56.150970458984375
 33
144.0
  0
3DFACE
  8
0
 10
30.351980209350586
 20
-55.62342834472656
 30
144.0
 11
30.94586944580078
 21
-55.88351058959961
 31
144.0
 12
31.090900421142578
 22
-55.91842269897461
 32
144.0
 13
31.090900421142578
 23
-55.91842269897461
 33
144.0
  0
3DFACE
  8
0
 10
30.16888999938965
 20
-55.5300178527832
 30
144.0
 11
30.204195022583008
 21
-55.55429458618164
 31
144.0
 12
30.351980209350586
 22
-55.62342834472656
 32
144.0
 13
30.351980209350586
 23
-55.62342834472656
 33
144.0
  0
3DFACE
  8
0
 10
29.288000106811523
 20
-54.93852233886719
 30
144.0
 11
29.484760284423828
 21
-55.121761322021484
 31
144.0
 12
30.16888999938965
 22
-55.5300178527832
 32
144.0
 13
30.16888999938965
 23
-55.5300178527832
 33
144.0
  0
3DFACE
  8
0
 10
28.36965560913086
 20
-54.0291748046875
 30
144.0
 11
28.82302474975586
 21
-54.54838943481445
 31
144.0
 12
29.288000106811523
 22
-54.93852233886719
 32
144.0
 13
29.288000106811523
 23
-54.93852233886719
 33
144.0
  0
3DFACE
  8
0
 10
27.993656158447266
 20
-53.593414306640625
 30
144.0
 11
28.163414001464844
 21
-53.8187370300293
 31
144.0
 12
28.36965560913086
 22
-54.0291748046875
 32
144.0
 13
28.36965560913086
 23
-54.0291748046875
 33
144.0
  0
3DFACE
  8
0
 10
27.540420532226562
 20
-52.7747688293457
 30
144.0
 11
27.563867568969727
 21
-52.82305908203125
 31
144.0
 12
27.993656158447266
 22
-53.593414306640625
 32
144.0
 13
27.993656158447266
 23
-53.593414306640625
 33
144.0
  0
3DFACE
  8
0
 10
26.94497299194336
 20
-51.37073516845703
 30
144.0
 11
27.159177780151367
 21
-51.94965362548828
 31
144.0
 12
27.540420532226562
 22
-52.7747688293457
 32
144.0
 13
27.540420532226562
 23
-52.7747688293457
 33
144.0
  0
3DFACE
  8
0
 10
26.7664852142334
 20
-50.65028381347656
 30
144.0
 11
26.85247230529785
 21
-51.07139587402344
 31
144.0
 12
26.94497299194336
 22
-51.37073516845703
 32
144.0
 13
26.94497299194336
 23
-51.37073516845703
 33
144.0
  0
3DFACE
  8
0
 10
26.58363914489746
 20
-49.674217224121094
 30
144.0
 11
26.6464900970459
 21
-50.19340133666992
 31
144.0
 12
26.7664852142334
 22
-50.65028381347656
 32
144.0
 13
26.7664852142334
 23
-50.65028381347656
 33
144.0
  0
3DFACE
  8
0
 10
26.48751449584961
 20
-48.66395568847656
 30
144.0
 11
26.52863121032715
 21
-49.382179260253906
 31
144.0
 12
26.58363914489746
 22
-49.674217224121094
 32
144.0
 13
26.58363914489746
 23
-49.674217224121094
 33
144.0
  0
3DFACE
  8
0
 10
26.519935607910156
 20
-47.76624298095703
 30
144.0
 11
26.479337692260742
 21
-48.56376647949219
 31
144.0
 12
26.48751449584961
 22
-48.66395568847656
 32
144.0
 13
26.48751449584961
 23
-48.66395568847656
 33
144.0
  0
3DFACE
  8
0
 10
26.6484432220459
 20
-46.8726921081543
 30
144.0
 11
26.629146575927734
 21
-46.98466873168945
 31
144.0
 12
26.52349853515625
 22
-47.748619079589844
 32
144.0
 13
26.52349853515625
 23
-47.748619079589844
 33
144.0
  0
3DFACE
  8
0
 10
26.52349853515625
 20
-47.748619079589844
 30
144.0
 11
26.519935607910156
 21
-47.76624298095703
 31
144.0
 12
26.48751449584961
 22
-48.66395568847656
 32
144.0
 13
26.48751449584961
 23
-48.66395568847656
 33
144.0
  0
3DFACE
  8
0
 10
26.48751449584961
 20
-48.66395568847656
 30
144.0
 11
26.58363914489746
 21
-49.674217224121094
 31
144.0
 12
26.7664852142334
 22
-50.65028381347656
 32
144.0
 13
26.7664852142334
 23
-50.65028381347656
 33
144.0
  0
3DFACE
  8
0
 10
26.7664852142334
 20
-50.65028381347656
 30
144.0
 11
26.94497299194336
 21
-51.37073516845703
 31
144.0
 12
27.540420532226562
 22
-52.7747688293457
 32
144.0
 13
27.540420532226562
 23
-52.7747688293457
 33
144.0
  0
3DFACE
  8
0
 10
27.540420532226562
 20
-52.7747688293457
 30
144.0
 11
27.993656158447266
 21
-53.593414306640625
 31
144.0
 12
28.36965560913086
 22
-54.0291748046875
 32
144.0
 13
28.36965560913086
 23
-54.0291748046875
 33
144.0
  0
3DFACE
  8
0
 10
28.36965560913086
 20
-54.0291748046875
 30
144.0
 11
29.288000106811523
 21
-54.93852233886719
 31
144.0
 12
30.16888999938965
 22
-55.5300178527832
 32
144.0
 13
30.16888999938965
 23
-55.5300178527832
 33
144.0
  0
3DFACE
  8
0
 10
30.16888999938965
 20
-55.5300178527832
 30
144.0
 11
30.351980209350586
 21
-55.62342834472656
 31
144.0
 12
31.090900421142578
 22
-55.91842269897461
 32
144.0
 13
31.090900421142578
 23
-55.91842269897461
 33
144.0
  0
3DFACE
  8
0
 10
31.090900421142578
 20
-55.91842269897461
 30
144.0
 11
31.987539291381836
 21
-56.150970458984375
 31
144.0
 12
32.705894470214844
 22
-56.253780364990234
 32
144.0
 13
32.705894470214844
 23
-56.253780364990234
 33
144.0
  0
3DFACE
  8
0
 10
32.705894470214844
 20
-56.253780364990234
 30
144.0
 11
33.905250549316406
 21
-56.23542022705078
 31
144.0
 12
34.224605560302734
 22
-56.21621322631836
 32
144.0
 13
34.224605560302734
 23
-56.21621322631836
 33
144.0
  0
3DFACE
  8
0
 10
34.224605560302734
 20
-56.21621322631836
 30
144.0
 11
34.984657287597656
 21
-55.99363327026367
 31
144.0
 12
36.770503997802734
 22
-55.0224494934082
 32
144.0
 13
36.770503997802734
 23
-55.0224494934082
 33
144.0
  0
3DFACE
  8
0
 10
36.770503997802734
 20
-55.0224494934082
 30
144.0
 11
37.98297119140625
 21
-53.6590461730957
 31
144.0
 12
38.478660583496094
 22
-52.635555267333984
 32
144.0
 13
38.478660583496094
 23
-52.635555267333984
 33
144.0
  0
3DFACE
  8
0
 10
38.478660583496094
 20
-52.635555267333984
 30
144.0
 11
38.76192855834961
 21
-51.868446350097656
 31
144.0
 12
38.879432678222656
 22
-51.44657516479492
 32
144.0
 13
38.879432678222656
 23
-51.44657516479492
 33
144.0
  0
3DFACE
  8
0
 10
38.879432678222656
 20
-51.44657516479492
 30
144.0
 11
38.95355987548828
 21
-51.04978942871094
 31
144.0
 12
38.99932861328125
 22
-50.6674919128418
 32
144.0
 13
38.99932861328125
 23
-50.6674919128418
 33
144.0
  0
3DFACE
  8
0
 10
38.999053955078125
 20
-50.3886604309082
 30
144.0
 11
39.02259063720703
 21
-49.852787017822266
 31
144.0
 12
38.9844856262207
 22
-49.52836990356445
 32
144.0
 13
38.9844856262207
 23
-49.52836990356445
 33
144.0
  0
3DFACE
  8
0
 10
38.879432678222656
 20
-51.44657516479492
 30
144.0
 11
38.99932861328125
 21
-50.6674919128418
 31
144.0
 12
38.999053955078125
 22
-50.3886604309082
 32
144.0
 13
38.999053955078125
 23
-50.3886604309082
 33
144.0
  0
3DFACE
  8
0
 10
36.770503997802734
 20
-55.0224494934082
 30
144.0
 11
38.478660583496094
 21
-52.635555267333984
 31
144.0
 12
38.879432678222656
 22
-51.44657516479492
 32
144.0
 13
38.879432678222656
 23
-51.44657516479492
 33
144.0
  0
3DFACE
  8
0
 10
32.705894470214844
 20
-56.253780364990234
 30
144.0
 11
34.224605560302734
 21
-56.21621322631836
 31
144.0
 12
36.770503997802734
 22
-55.0224494934082
 32
144.0
 13
36.770503997802734
 23
-55.0224494934082
 33
144.0
  0
3DFACE
  8
0
 10
30.16888999938965
 20
-55.5300178527832
 30
144.0
 11
31.090900421142578
 21
-55.91842269897461
 31
144.0
 12
32.705894470214844
 22
-56.253780364990234
 32
144.0
 13
32.705894470214844
 23
-56.253780364990234
 33
144.0
  0
3DFACE
  8
0
 10
27.540420532226562
 20
-52.7747688293457
 30
144.0
 11
28.36965560913086
 21
-54.0291748046875
 31
144.0
 12
30.16888999938965
 22
-55.5300178527832
 32
144.0
 13
30.16888999938965
 23
-55.5300178527832
 33
144.0
  0
3DFACE
  8
0
 10
26.48751449584961
 20
-48.66395568847656
 30
144.0
 11
26.7664852142334
 21
-50.65028381347656
 31
144.0
 12
27.540420532226562
 22
-52.7747688293457
 32
144.0
 13
27.540420532226562
 23
-52.7747688293457
 33
144.0
  0
3DFACE
  8
0
 10
26.6484432220459
 20
-46.8726921081543
 30
144.0
 11
26.52349853515625
 21
-47.748619079589844
 31
144.0
 12
26.48751449584961
 22
-48.66395568847656
 32
144.0
 13
26.48751449584961
 23
-48.66395568847656
 33
144.0
  0
3DFACE
  8
0
 10
26.857288360595703
 20
-46.03398132324219
 30
144.0
 11
26.78750228881836
 21
-46.21452713012695
 31
144.0
 12
26.6484432220459
 22
-46.8726921081543
 32
144.0
 13
26.6484432220459
 23
-46.8726921081543
 33
144.0
  0
3DFACE
  8
0
 10
27.12576675415039
 20
-45.152462005615234
 30
144.0
 11
26.989322662353516
 21
-45.45448303222656
 31
144.0
 12
26.857288360595703
 22
-46.03398132324219
 32
144.0
 13
26.857288360595703
 23
-46.03398132324219
 33
144.0
  0
3DFACE
  8
0
 10
27.536396026611328
 20
-44.289817810058594
 30
144.0
 11
27.30715560913086
 21
-44.72141647338867
 31
144.0
 12
27.12576675415039
 22
-45.152462005615234
 32
144.0
 13
27.12576675415039
 23
-45.152462005615234
 33
144.0
  0
3DFACE
  8
0
 10
28.02254295349121
 20
-43.634117126464844
 30
144.0
 11
27.717735290527344
 21
-44.00990676879883
 31
144.0
 12
27.536396026611328
 22
-44.289817810058594
 32
144.0
 13
27.536396026611328
 23
-44.289817810058594
 33
144.0
  0
3DFACE
  8
0
 10
28.84110450744629
 20
-42.90083312988281
 30
144.0
 11
28.306659698486328
 21
-43.338680267333984
 31
144.0
 12
28.02254295349121
 22
-43.634117126464844
 32
144.0
 13
28.02254295349121
 23
-43.634117126464844
 33
144.0
  0
3DFACE
  8
0
 10
29.78008460998535
 20
-42.39219665527344
 30
144.0
 11
29.1581974029541
 21
-42.68553161621094
 31
144.0
 12
28.84110450744629
 22
-42.90083312988281
 32
144.0
 13
28.84110450744629
 23
-42.90083312988281
 33
144.0
  0
3DFACE
  8
0
 10
30.785242080688477
 20
-42.07673263549805
 30
144.0
 11
30.08241081237793
 21
-42.27410888671875
 31
144.0
 12
29.78008460998535
 22
-42.39219665527344
 32
144.0
 13
29.78008460998535
 23
-42.39219665527344
 33
144.0
  0
3DFACE
  8
0
 10
32.326663970947266
 20
-41.912513732910156
 30
144.0
 11
31.534198760986328
 21
-41.963199615478516
 31
144.0
 12
30.785242080688477
 22
-42.07673263549805
 32
144.0
 13
30.785242080688477
 23
-42.07673263549805
 33
144.0
  0
3DFACE
  8
0
 10
33.31247329711914
 20
-41.98773193359375
 30
144.0
 11
32.3492546081543
 21
-41.91267776489258
 31
144.0
 12
32.326663970947266
 22
-41.912513732910156
 32
144.0
 13
32.326663970947266
 23
-41.912513732910156
 33
144.0
  0
3DFACE
  8
0
 10
33.61463165283203
 20
-42.03595733642578
 30
144.0
 11
33.397403717041016
 21
-41.999515533447266
 31
144.0
 12
33.31247329711914
 22
-41.98773193359375
 32
144.0
 13
33.31247329711914
 23
-41.98773193359375
 33
144.0
  0
3DFACE
  8
0
 10
34.33488082885742
 20
-42.309349060058594
 30
144.0
 11
33.910926818847656
 21
-42.10184860229492
 31
144.0
 12
33.61463165283203
 22
-42.03595733642578
 32
144.0
 13
33.61463165283203
 23
-42.03595733642578
 33
144.0
  0
3DFACE
  8
0
 10
35.217288970947266
 20
-42.801673889160156
 30
144.0
 11
34.674461364746094
 21
-42.40909194946289
 31
144.0
 12
34.33488082885742
 22
-42.309349060058594
 32
144.0
 13
34.33488082885742
 23
-42.309349060058594
 33
144.0
  0
3DFACE
  8
0
 10
35.46088409423828
 20
-42.95991897583008
 30
144.0
 11
35.366695404052734
 21
-42.888397216796875
 31
144.0
 12
35.217288970947266
 22
-42.801673889160156
 32
144.0
 13
35.217288970947266
 23
-42.801673889160156
 33
144.0
  0
3DFACE
  8
0
 10
36.086795806884766
 20
-43.52516174316406
 30
144.0
 11
36.08226776123047
 21
-43.52052688598633
 31
144.0
 12
35.46088409423828
 22
-42.95991897583008
 32
144.0
 13
35.46088409423828
 23
-42.95991897583008
 33
144.0
  0
3DFACE
  8
0
 10
36.72827911376953
 20
-44.228309631347656
 30
144.0
 11
36.51923370361328
 21
-43.98386764526367
 31
144.0
 12
36.086795806884766
 22
-43.52516174316406
 32
144.0
 13
36.086795806884766
 23
-43.52516174316406
 33
144.0
  0
3DFACE
  8
0
 10
37.213775634765625
 20
-44.874969482421875
 30
144.0
 11
36.95840072631836
 21
-44.51757049560547
 31
144.0
 12
36.72827911376953
 22
-44.228309631347656
 32
144.0
 13
36.72827911376953
 23
-44.228309631347656
 33
144.0
  0
3DFACE
  8
0
 10
37.54738998413086
 20
-45.31427001953125
 30
144.0
 11
37.343788146972656
 21
-45.028324127197266
 31
144.0
 12
37.213775634765625
 22
-44.874969482421875
 32
144.0
 13
37.213775634765625
 23
-44.874969482421875
 33
144.0
  0
3DFACE
  8
0
 10
38.516258239746094
 20
-47.21181106567383
 30
144.0
 11
38.03069305419922
 21
-46.10960388183594
 31
144.0
 12
37.54738998413086
 22
-45.31427001953125
 32
144.0
 13
37.54738998413086
 23
-45.31427001953125
 33
144.0
  0
3DFACE
  8
0
 10
38.60699462890625
 20
-47.518707275390625
 30
144.0
 11
38.56169128417969
 21
-47.33790588378906
 31
144.0
 12
38.516258239746094
 22
-47.21181106567383
 32
144.0
 13
38.516258239746094
 23
-47.21181106567383
 33
144.0
  0
3DFACE
  8
0
 10
38.88579177856445
 20
-48.710472106933594
 30
144.0
 11
38.81755065917969
 21
-48.204341888427734
 31
144.0
 12
38.60699462890625
 22
-47.518707275390625
 32
144.0
 13
38.60699462890625
 23
-47.518707275390625
 33
144.0
  0
3DFACE
  8
0
 10
38.9844856262207
 20
-49.52836990356445
 30
144.0
 11
38.946197509765625
 21
-49.04121398925781
 31
144.0
 12
38.88579177856445
 22
-48.710472106933594
 32
144.0
 13
38.88579177856445
 23
-48.710472106933594
 33
144.0
  0
3DFACE
  8
0
 10
38.879432678222656
 20
-51.44657516479492
 30
144.0
 11
38.999053955078125
 21
-50.3886604309082
 31
144.0
 12
38.9844856262207
 22
-49.52836990356445
 32
144.0
 13
38.9844856262207
 23
-49.52836990356445
 33
144.0
  0
3DFACE
  8
0
 10
32.705894470214844
 20
-56.253780364990234
 30
144.0
 11
36.770503997802734
 21
-55.0224494934082
 31
144.0
 12
38.879432678222656
 22
-51.44657516479492
 32
144.0
 13
38.879432678222656
 23
-51.44657516479492
 33
144.0
  0
3DFACE
  8
0
 10
27.540420532226562
 20
-52.7747688293457
 30
144.0
 11
30.16888999938965
 21
-55.5300178527832
 31
144.0
 12
32.705894470214844
 22
-56.253780364990234
 32
144.0
 13
32.705894470214844
 23
-56.253780364990234
 33
144.0
  0
3DFACE
  8
0
 10
26.6484432220459
 20
-46.8726921081543
 30
144.0
 11
26.48751449584961
 21
-48.66395568847656
 31
144.0
 12
27.540420532226562
 22
-52.7747688293457
 32
144.0
 13
27.540420532226562
 23
-52.7747688293457
 33
144.0
  0
3DFACE
  8
0
 10
27.12576675415039
 20
-45.152462005615234
 30
144.0
 11
26.857288360595703
 21
-46.03398132324219
 31
144.0
 12
26.6484432220459
 22
-46.8726921081543
 32
144.0
 13
26.6484432220459
 23
-46.8726921081543
 33
144.0
  0
3DFACE
  8
0
 10
28.02254295349121
 20
-43.634117126464844
 30
144.0
 11
27.536396026611328
 21
-44.289817810058594
 31
144.0
 12
27.12576675415039
 22
-45.152462005615234
 32
144.0
 13
27.12576675415039
 23
-45.152462005615234
 33
144.0
  0
3DFACE
  8
0
 10
29.78008460998535
 20
-42.39219665527344
 30
144.0
 11
28.84110450744629
 21
-42.90083312988281
 31
144.0
 12
28.02254295349121
 22
-43.634117126464844
 32
144.0
 13
28.02254295349121
 23
-43.634117126464844
 33
144.0
  0
3DFACE
  8
0
 10
32.326663970947266
 20
-41.912513732910156
 30
144.0
 11
30.785242080688477
 21
-42.07673263549805
 31
144.0
 12
29.78008460998535
 22
-42.39219665527344
 32
144.0
 13
29.78008460998535
 23
-42.39219665527344
 33
144.0
  0
3DFACE
  8
0
 10
33.61463165283203
 20
-42.03595733642578
 30
144.0
 11
33.31247329711914
 21
-41.98773193359375
 31
144.0
 12
32.326663970947266
 22
-41.912513732910156
 32
144.0
 13
32.326663970947266
 23
-41.912513732910156
 33
144.0
  0
3DFACE
  8
0
 10
35.217288970947266
 20
-42.801673889160156
 30
144.0
 11
34.33488082885742
 21
-42.309349060058594
 31
144.0
 12
33.61463165283203
 22
-42.03595733642578
 32
144.0
 13
33.61463165283203
 23
-42.03595733642578
 33
144.0
  0
3DFACE
  8
0
 10
36.086795806884766
 20
-43.52516174316406
 30
144.0
 11
35.46088409423828
 21
-42.95991897583008
 31
144.0
 12
35.217288970947266
 22
-42.801673889160156
 32
144.0
 13
35.217288970947266
 23
-42.801673889160156
 33
144.0
  0
3DFACE
  8
0
 10
37.213775634765625
 20
-44.874969482421875
 30
144.0
 11
36.72827911376953
 21
-44.228309631347656
 31
144.0
 12
36.086795806884766
 22
-43.52516174316406
 32
144.0
 13
36.086795806884766
 23
-43.52516174316406
 33
144.0
  0
3DFACE
  8
0
 10
38.516258239746094
 20
-47.21181106567383
 30
144.0
 11
37.54738998413086
 21
-45.31427001953125
 31
144.0
 12
37.213775634765625
 22
-44.874969482421875
 32
144.0
 13
37.213775634765625
 23
-44.874969482421875
 33
144.0
  0
3DFACE
  8
0
 10
38.88579177856445
 20
-48.710472106933594
 30
144.0
 11
38.60699462890625
 21
-47.518707275390625
 31
144.0
 12
38.516258239746094
 22
-47.21181106567383
 32
144.0
 13
38.516258239746094
 23
-47.21181106567383
 33
144.0
  0
3DFACE
  8
0
 10
38.879432678222656
 20
-51.44657516479492
 30
144.0
 11
38.9844856262207
 21
-49.52836990356445
 31
144.0
 12
38.88579177856445
 22
-48.710472106933594
 32
144.0
 13
38.88579177856445
 23
-48.710472106933594
 33
144.0
  0
3DFACE
  8
0
 10
27.540420532226562
 20
-52.7747688293457
 30
144.0
 11
32.705894470214844
 21
-56.253780364990234
 31
144.0
 12
38.879432678222656
 22
-51.44657516479492
 32
144.0
 13
38.879432678222656
 23
-51.44657516479492
 33
144.0
  0
3DFACE
  8
0
 10
27.12576675415039
 20
-45.152462005615234
 30
144.0
 11
26.6484432220459
 21
-46.8726921081543
 31
144.0
 12
27.540420532226562
 22
-52.7747688293457
 32
144.0
 13
27.540420532226562
 23
-52.7747688293457
 33
144.0
  0
3DFACE
  8
0
 10
29.78008460998535
 20
-42.39219665527344
 30
144.0
 11
28.02254295349121
 21
-43.634117126464844
 31
144.0
 12
27.12576675415039
 22
-45.152462005615234
 32
144.0
 13
27.12576675415039
 23
-45.152462005615234
 33
144.0
  0
3DFACE
  8
0
 10
33.61463165283203
 20
-42.03595733642578
 30
144.0
 11
32.326663970947266
 21
-41.912513732910156
 31
144.0
 12
29.78008460998535
 22
-42.39219665527344
 32
144.0
 13
29.78008460998535
 23
-42.39219665527344
 33
144.0
  0
3DFACE
  8
0
 10
36.086795806884766
 20
-43.52516174316406
 30
144.0
 11
35.217288970947266
 21
-42.801673889160156
 31
144.0
 12
33.61463165283203
 22
-42.03595733642578
 32
144.0
 13
33.61463165283203
 23
-42.03595733642578
 33
144.0
  0
3DFACE
  8
0
 10
38.516258239746094
 20
-47.21181106567383
 30
144.0
 11
37.213775634765625
 21
-44.874969482421875
 31
144.0
 12
36.086795806884766
 22
-43.52516174316406
 32
144.0
 13
36.086795806884766
 23
-43.52516174316406
 33
144.0
  0
3DFACE
  8
0
 10
38.879432678222656
 20
-51.44657516479492
 30
144.0
 11
38.88579177856445
 21
-48.710472106933594
 31
144.0
 12
38.516258239746094
 22
-47.21181106567383
 32
144.0
 13
38.516258239746094
 23
-47.21181106567383
 33
144.0
  0
3DFACE
  8
0
 10
27.12576675415039
 20
-45.152462005615234
 30
144.0
 11
27.540420532226562
 21
-52.7747688293457
 31
144.0
 12
38.879432678222656
 22
-51.44657516479492
 32
144.0
 13
38.879432678222656
 23
-51.44657516479492
 33
144.0
  0
3DFACE
  8
0
 10
33.61463165283203
 20
-42.03595733642578
 30
144.0
 11
29.78008460998535
 21
-42.39219665527344
 31
144.0
 12
27.12576675415039
 22
-45.152462005615234
 32
144.0
 13
27.12576675415039
 23
-45.152462005615234
 33
144.0
  0
3DFACE
  8
0
 10
38.516258239746094
 20
-47.21181106567383
 30
144.0
 11
36.086795806884766
 21
-43.52516174316406
 31
144.0
 12
33.61463165283203
 22
-42.03595733642578
 32
144.0
 13
33.61463165283203
 23
-42.03595733642578
 33
144.0
  0
3DFACE
  8
0
 10
27.12576675415039
 20
-45.152462005615234
 30
144.0
 11
38.879432678222656
 21
-51.44657516479492
 31
144.0
 12
38.516258239746094
 22
-47.21181106567383
 32
144.0
 13
38.516258239746094
 23
-47.21181106567383
 33
144.0
  0
3DFACE
  8
0
 10
38.516258239746094
 20
-47.21181106567383
 30
144.0
 11
33.61463165283203
 21
-42.03595733642578
 31
144.0
 12
27.12576675415039
 22
-45.152462005615234
 32
144.0
 13
27.12576675415039
 23
-45.152462005615234
 33
144.0
  0
3DFACE
  8
0
 10
73.67471313476562
 20
-18.895709991455078
 30
144.0
 11
73.68156433105469
 21
-18.89204216003418
 31
144.0
 12
73.68977355957031
 22
-18.886659622192383
 32
144.0
 13
73.68977355957031
 23
-18.886659622192383
 33
144.0
  0
3DFACE
  8
0
 10
73.68977355957031
 20
-18.886659622192383
 30
144.0
 11
74.32595825195312
 21
-18.5212459564209
 31
144.0
 12
74.75948333740234
 22
-18.224140167236328
 32
144.0
 13
74.75948333740234
 23
-18.224140167236328
 33
144.0
  0
3DFACE
  8
0
 10
74.75948333740234
 20
-18.224140167236328
 30
144.0
 11
75.4134750366211
 21
-17.736068725585938
 31
144.0
 12
75.57540130615234
 22
-17.61103630065918
 32
144.0
 13
75.57540130615234
 23
-17.61103630065918
 33
144.0
  0
3DFACE
  8
0
 10
76.54641723632812
 20
-16.71959686279297
 30
144.0
 11
76.56703186035156
 21
-16.702577590942383
 31
144.0
 12
76.6883773803711
 22
-16.592121124267578
 32
144.0
 13
76.6883773803711
 23
-16.592121124267578
 33
144.0
  0
3DFACE
  8
0
 10
74.75948333740234
 20
-18.224140167236328
 30
144.0
 11
75.57540130615234
 21
-17.61103630065918
 31
144.0
 12
76.54641723632812
 22
-16.71959686279297
 32
144.0
 13
76.54641723632812
 23
-16.71959686279297
 33
144.0
  0
3DFACE
  8
0
 10
73.67471313476562
 20
-18.895709991455078
 30
144.0
 11
73.68977355957031
 21
-18.886659622192383
 31
144.0
 12
74.75948333740234
 22
-18.224140167236328
 32
144.0
 13
74.75948333740234
 23
-18.224140167236328
 33
144.0
  0
3DFACE
  8
0
 10
72.9837417602539
 20
-19.2198486328125
 30
144.0
 11
73.1866455078125
 21
-19.131223678588867
 31
144.0
 12
73.67471313476562
 22
-18.895709991455078
 32
144.0
 13
73.67471313476562
 23
-18.895709991455078
 33
144.0
  0
3DFACE
  8
0
 10
72.26554107666016
 20
-19.478897094726562
 30
144.0
 11
72.50800323486328
 21
-19.3974552154541
 31
144.0
 12
72.9837417602539
 22
-19.2198486328125
 32
144.0
 13
72.9837417602539
 23
-19.2198486328125
 33
144.0
  0
3DFACE
  8
0
 10
71.36265563964844
 20
-19.682649612426758
 30
144.0
 11
71.98389434814453
 21
-19.551382064819336
 31
144.0
 12
72.26554107666016
 22
-19.478897094726562
 32
144.0
 13
72.26554107666016
 23
-19.478897094726562
 33
144.0
  0
3DFACE
  8
0
 10
70.36109161376953
 20
-19.7982120513916
 30
144.0
 11
70.40669250488281
 21
-19.794872283935547
 31
144.0
 12
71.36265563964844
 22
-19.682649612426758
 32
144.0
 13
71.36265563964844
 23
-19.682649612426758
 33
144.0
  0
3DFACE
  8
0
 10
69.656005859375
 20
-19.804317474365234
 30
144.0
 11
69.71783447265625
 21
-19.808700561523438
 31
144.0
 12
70.36109161376953
 22
-19.7982120513916
 32
144.0
 13
70.36109161376953
 23
-19.7982120513916
 33
144.0
  0
3DFACE
  8
0
 10
68.82950592041016
 20
-19.72178840637207
 30
144.0
 11
69.02449035644531
 21
-19.745389938354492
 31
144.0
 12
69.656005859375
 22
-19.804317474365234
 32
144.0
 13
69.656005859375
 23
-19.804317474365234
 33
144.0
  0
3DFACE
  8
0
 10
67.967041015625
 20
-19.562808990478516
 30
144.0
 11
68.1927719116211
 21
-19.612913131713867
 31
144.0
 12
68.58063507080078
 22
-19.669754028320312
 32
144.0
 13
68.58063507080078
 23
-19.669754028320312
 33
144.0
  0
3DFACE
  8
0
 10
68.58063507080078
 20
-19.669754028320312
 30
144.0
 11
68.82950592041016
 21
-19.72178840637207
 31
144.0
 12
69.656005859375
 22
-19.804317474365234
 32
144.0
 13
69.656005859375
 23
-19.804317474365234
 33
144.0
  0
3DFACE
  8
0
 10
69.656005859375
 20
-19.804317474365234
 30
144.0
 11
70.36109161376953
 21
-19.7982120513916
 31
144.0
 12
71.36265563964844
 22
-19.682649612426758
 32
144.0
 13
71.36265563964844
 23
-19.682649612426758
 33
144.0
  0
3DFACE
  8
0
 10
71.36265563964844
 20
-19.682649612426758
 30
144.0
 11
72.26554107666016
 21
-19.478897094726562
 31
144.0
 12
72.9837417602539
 22
-19.2198486328125
 32
144.0
 13
72.9837417602539
 23
-19.2198486328125
 33
144.0
  0
3DFACE
  8
0
 10
72.9837417602539
 20
-19.2198486328125
 30
144.0
 11
73.67471313476562
 21
-18.895709991455078
 31
144.0
 12
74.75948333740234
 22
-18.224140167236328
 32
144.0
 13
74.75948333740234
 23
-18.224140167236328
 33
144.0
  0
3DFACE
  8
0
 10
74.75948333740234
 20
-18.224140167236328
 30
144.0
 11
76.54641723632812
 21
-16.71959686279297
 31
144.0
 12
76.6883773803711
 22
-16.592121124267578
 32
144.0
 13
76.6883773803711
 23
-16.592121124267578
 33
144.0
  0
3DFACE
  8
0
 10
76.6883773803711
 20
-16.592121124267578
 30
144.0
 11
76.75248718261719
 21
-16.529598236083984
 31
144.0
 12
77.40972900390625
 22
-15.755510330200195
 32
144.0
 13
77.40972900390625
 23
-15.755510330200195
 33
144.0
  0
3DFACE
  8
0
 10
77.46220397949219
 20
-15.684974670410156
 30
144.0
 11
77.98385620117188
 21
-15.020292282104492
 31
144.0
 12
78.11383056640625
 22
-14.820466041564941
 32
144.0
 13
78.11383056640625
 23
-14.820466041564941
 33
144.0
  0
3DFACE
  8
0
 10
76.6883773803711
 20
-16.592121124267578
 30
144.0
 11
77.40972900390625
 21
-15.755510330200195
 31
144.0
 12
77.46220397949219
 22
-15.684974670410156
 32
144.0
 13
77.46220397949219
 23
-15.684974670410156
 33
144.0
  0
3DFACE
  8
0
 10
72.9837417602539
 20
-19.2198486328125
 30
144.0
 11
74.75948333740234
 21
-18.224140167236328
 31
144.0
 12
76.6883773803711
 22
-16.592121124267578
 32
144.0
 13
76.6883773803711
 23
-16.592121124267578
 33
144.0
  0
3DFACE
  8
0
 10
69.656005859375
 20
-19.804317474365234
 30
144.0
 11
71.36265563964844
 21
-19.682649612426758
 31
144.0
 12
72.9837417602539
 22
-19.2198486328125
 32
144.0
 13
72.9837417602539
 23
-19.2198486328125
 33
144.0
  0
3DFACE
  8
0
 10
67.967041015625
 20
-19.562808990478516
 30
144.0
 11
68.58063507080078
 21
-19.669754028320312
 31
144.0
 12
69.656005859375
 22
-19.804317474365234
 32
144.0
 13
69.656005859375
 23
-19.804317474365234
 33
144.0
  0
3DFACE
  8
0
 10
67.14480590820312
 20
-19.329679489135742
 30
144.0
 11
67.19309997558594
 21
-19.346399307250977
 31
144.0
 12
67.967041015625
 22
-19.562808990478516
 32
144.0
 13
67.967041015625
 23
-19.562808990478516
 33
144.0
  0
3DFACE
  8
0
 10
66.46369934082031
 20
-19.069032669067383
 30
144.0
 11
66.50154113769531
 21
-19.086469650268555
 31
144.0
 12
67.14480590820312
 22
-19.329679489135742
 32
144.0
 13
67.14480590820312
 23
-19.329679489135742
 33
144.0
  0
3DFACE
  8
0
 10
64.09790802001953
 20
-17.62978172302246
 30
144.0
 11
65.21503448486328
 21
-18.412565231323242
 31
144.0
 12
66.46369934082031
 22
-19.069032669067383
 32
144.0
 13
66.46369934082031
 23
-19.069032669067383
 33
144.0
  0
3DFACE
  8
0
 10
63.93883514404297
 20
-17.519668579101562
 30
144.0
 11
64.00460815429688
 21
-17.567644119262695
 31
144.0
 12
64.09790802001953
 22
-17.62978172302246
 32
144.0
 13
64.09790802001953
 23
-17.62978172302246
 33
144.0
  0
3DFACE
  8
0
 10
62.93593215942383
 20
-16.5875301361084
 30
144.0
 11
63.642539978027344
 21
-17.255834579467773
 31
144.0
 12
63.93883514404297
 22
-17.519668579101562
 32
144.0
 13
63.93883514404297
 23
-17.519668579101562
 33
144.0
  0
3DFACE
  8
0
 10
62.24738311767578
 20
-15.800426483154297
 30
144.0
 11
62.64532470703125
 21
-16.277481079101562
 31
144.0
 12
62.93593215942383
 22
-16.5875301361084
 32
144.0
 13
62.93593215942383
 23
-16.5875301361084
 33
144.0
  0
3DFACE
  8
0
 10
61.7362174987793
 20
-15.050421714782715
 30
144.0
 11
61.850337982177734
 21
-15.224735260009766
 31
144.0
 12
62.24738311767578
 22
-15.800426483154297
 32
144.0
 13
62.24738311767578
 23
-15.800426483154297
 33
144.0
  0
3DFACE
  8
0
 10
60.989341735839844
 20
-13.512005805969238
 30
144.0
 11
61.362693786621094
 21
-14.334419250488281
 31
144.0
 12
61.43110656738281
 22
-14.459869384765625
 32
144.0
 13
61.43110656738281
 23
-14.459869384765625
 33
144.0
  0
3DFACE
  8
0
 10
61.43110656738281
 20
-14.459869384765625
 30
144.0
 11
61.7362174987793
 21
-15.050421714782715
 31
144.0
 12
62.24738311767578
 22
-15.800426483154297
 32
144.0
 13
62.24738311767578
 23
-15.800426483154297
 33
144.0
  0
3DFACE
  8
0
 10
62.24738311767578
 20
-15.800426483154297
 30
144.0
 11
62.93593215942383
 21
-16.5875301361084
 31
144.0
 12
63.93883514404297
 22
-17.519668579101562
 32
144.0
 13
63.93883514404297
 23
-17.519668579101562
 33
144.0
  0
3DFACE
  8
0
 10
63.93883514404297
 20
-17.519668579101562
 30
144.0
 11
64.09790802001953
 21
-17.62978172302246
 31
144.0
 12
66.46369934082031
 22
-19.069032669067383
 32
144.0
 13
66.46369934082031
 23
-19.069032669067383
 33
144.0
  0
3DFACE
  8
0
 10
66.46369934082031
 20
-19.069032669067383
 30
144.0
 11
67.14480590820312
 21
-19.329679489135742
 31
144.0
 12
67.967041015625
 22
-19.562808990478516
 32
144.0
 13
67.967041015625
 23
-19.562808990478516
 33
144.0
  0
3DFACE
  8
0
 10
67.967041015625
 20
-19.562808990478516
 30
144.0
 11
69.656005859375
 21
-19.804317474365234
 31
144.0
 12
72.9837417602539
 22
-19.2198486328125
 32
144.0
 13
72.9837417602539
 23
-19.2198486328125
 33
144.0
  0
3DFACE
  8
0
 10
72.9837417602539
 20
-19.2198486328125
 30
144.0
 11
76.6883773803711
 21
-16.592121124267578
 31
144.0
 12
77.46220397949219
 22
-15.684974670410156
 32
144.0
 13
77.46220397949219
 23
-15.684974670410156
 33
144.0
  0
3DFACE
  8
0
 10
77.46220397949219
 20
-15.684974670410156
 30
144.0
 11
78.11383056640625
 21
-14.820466041564941
 31
144.0
 12
78.4228286743164
 22
-14.281216621398926
 32
144.0
 13
78.4228286743164
 23
-14.281216621398926
 33
144.0
  0
3DFACE
  8
0
 10
78.4228286743164
 20
-14.281216621398926
 30
144.0
 11
78.49092864990234
 21
-14.140077590942383
 31
144.0
 12
78.7657470703125
 22
-13.542950630187988
 32
144.0
 13
78.7657470703125
 23
-13.542950630187988
 33
144.0
  0
3DFACE
  8
0
 10
78.7657470703125
 20
-13.542950630187988
 30
144.0
 11
78.97825622558594
 21
-13.037322044372559
 31
144.0
 12
79.0945816040039
 22
-12.742796897888184
 32
144.0
 13
79.0945816040039
 23
-12.742796897888184
 33
144.0
  0
3DFACE
  8
0
 10
79.0945816040039
 20
-12.742796897888184
 30
144.0
 11
79.1675033569336
 21
-12.526853561401367
 31
144.0
 12
79.32057189941406
 22
-11.973589897155762
 32
144.0
 13
79.32057189941406
 23
-11.973589897155762
 33
144.0
  0
3DFACE
  8
0
 10
79.37156677246094
 20
-11.692398071289062
 30
144.0
 11
79.55956268310547
 21
-10.839754104614258
 31
144.0
 12
79.62261962890625
 22
-10.435172080993652
 32
144.0
 13
79.62261962890625
 23
-10.435172080993652
 33
144.0
  0
3DFACE
  8
0
 10
79.0945816040039
 20
-12.742796897888184
 30
144.0
 11
79.32057189941406
 21
-11.973589897155762
 31
144.0
 12
79.37156677246094
 22
-11.692398071289062
 32
144.0
 13
79.37156677246094
 23
-11.692398071289062
 33
144.0
  0
3DFACE
  8
0
 10
78.4228286743164
 20
-14.281216621398926
 30
144.0
 11
78.7657470703125
 21
-13.542950630187988
 31
144.0
 12
79.0945816040039
 22
-12.742796897888184
 32
144.0
 13
79.0945816040039
 23
-12.742796897888184
 33
144.0
  0
3DFACE
  8
0
 10
72.9837417602539
 20
-19.2198486328125
 30
144.0
 11
77.46220397949219
 21
-15.684974670410156
 31
144.0
 12
78.4228286743164
 22
-14.281216621398926
 32
144.0
 13
78.4228286743164
 23
-14.281216621398926
 33
144.0
  0
3DFACE
  8
0
 10
66.46369934082031
 20
-19.069032669067383
 30
144.0
 11
67.967041015625
 21
-19.562808990478516
 31
144.0
 12
72.9837417602539
 22
-19.2198486328125
 32
144.0
 13
72.9837417602539
 23
-19.2198486328125
 33
144.0
  0
3DFACE
  8
0
 10
62.24738311767578
 20
-15.800426483154297
 30
144.0
 11
63.93883514404297
 21
-17.519668579101562
 31
144.0
 12
66.46369934082031
 22
-19.069032669067383
 32
144.0
 13
66.46369934082031
 23
-19.069032669067383
 33
144.0
  0
3DFACE
  8
0
 10
60.989341735839844
 20
-13.512005805969238
 30
144.0
 11
61.43110656738281
 21
-14.459869384765625
 31
144.0
 12
62.24738311767578
 22
-15.800426483154297
 32
144.0
 13
62.24738311767578
 23
-15.800426483154297
 33
144.0
  0
3DFACE
  8
0
 10
60.576717376708984
 20
-12.140531539916992
 30
144.0
 11
60.73367691040039
 21
-12.742796897888184
 31
144.0
 12
60.989341735839844
 22
-13.512005805969238
 32
144.0
 13
60.989341735839844
 23
-13.512005805969238
 33
144.0
  0
3DFACE
  8
0
 10
60.40843200683594
 20
-11.395094871520996
 30
144.0
 11
60.519309997558594
 21
-11.973589897155762
 31
144.0
 12
60.576717376708984
 22
-12.140531539916992
 32
144.0
 13
60.576717376708984
 23
-12.140531539916992
 33
144.0
  0
3DFACE
  8
0
 10
60.362327575683594
 20
-10.435172080993652
 30
144.0
 11
60.376304626464844
 21
-11.204380989074707
 31
144.0
 12
60.40843200683594
 22
-11.395094871520996
 32
144.0
 13
60.40843200683594
 23
-11.395094871520996
 33
144.0
  0
3DFACE
  8
0
 10
60.55315017700195
 20
-8.845708847045898
 30
144.0
 11
60.39457702636719
 21
-9.66596508026123
 31
144.0
 12
60.362327575683594
 22
-10.435172080993652
 32
144.0
 13
60.362327575683594
 23
-10.435172080993652
 33
144.0
  0
3DFACE
  8
0
 10
60.909095764160156
 20
-7.6084513664245605
 30
144.0
 11
60.73112487792969
 21
-8.127547264099121
 31
144.0
 12
60.61586380004883
 22
-8.626194953918457
 32
144.0
 13
60.61586380004883
 23
-8.626194953918457
 33
144.0
  0
3DFACE
  8
0
 10
60.61586380004883
 20
-8.626194953918457
 30
144.0
 11
60.55315017700195
 21
-8.845708847045898
 31
144.0
 12
60.362327575683594
 22
-10.435172080993652
 32
144.0
 13
60.362327575683594
 23
-10.435172080993652
 33
144.0
  0
3DFACE
  8
0
 10
60.362327575683594
 20
-10.435172080993652
 30
144.0
 11
60.40843200683594
 21
-11.395094871520996
 31
144.0
 12
60.576717376708984
 22
-12.140531539916992
 32
144.0
 13
60.576717376708984
 23
-12.140531539916992
 33
144.0
  0
3DFACE
  8
0
 10
60.576717376708984
 20
-12.140531539916992
 30
144.0
 11
60.989341735839844
 21
-13.512005805969238
 31
144.0
 12
62.24738311767578
 22
-15.800426483154297
 32
144.0
 13
62.24738311767578
 23
-15.800426483154297
 33
144.0
  0
3DFACE
  8
0
 10
62.24738311767578
 20
-15.800426483154297
 30
144.0
 11
66.46369934082031
 21
-19.069032669067383
 31
144.0
 12
72.9837417602539
 22
-19.2198486328125
 32
144.0
 13
72.9837417602539
 23
-19.2198486328125
 33
144.0
  0
3DFACE
  8
0
 10
72.9837417602539
 20
-19.2198486328125
 30
144.0
 11
78.4228286743164
 21
-14.281216621398926
 31
144.0
 12
79.0945816040039
 22
-12.742796897888184
 32
144.0
 13
79.0945816040039
 23
-12.742796897888184
 33
144.0
  0
3DFACE
  8
0
 10
79.0945816040039
 20
-12.742796897888184
 30
144.0
 11
79.37156677246094
 21
-11.692398071289062
 31
144.0
 12
79.62261962890625
 22
-10.435172080993652
 32
144.0
 13
79.62261962890625
 23
-10.435172080993652
 33
144.0
  0
3DFACE
  8
0
 10
79.63885498046875
 20
-9.945115089416504
 30
144.0
 11
79.664306640625
 21
-9.66596508026123
 31
144.0
 12
79.60447692871094
 22
-8.896754264831543
 32
144.0
 13
79.60447692871094
 23
-8.896754264831543
 33
144.0
  0
3DFACE
  8
0
 10
79.0945816040039
 20
-12.742796897888184
 30
144.0
 11
79.62261962890625
 21
-10.435172080993652
 31
144.0
 12
79.63885498046875
 22
-9.945115089416504
 32
144.0
 13
79.63885498046875
 23
-9.945115089416504
 33
144.0
  0
3DFACE
  8
0
 10
62.24738311767578
 20
-15.800426483154297
 30
144.0
 11
72.9837417602539
 21
-19.2198486328125
 31
144.0
 12
79.0945816040039
 22
-12.742796897888184
 32
144.0
 13
79.0945816040039
 23
-12.742796897888184
 33
144.0
  0
3DFACE
  8
0
 10
60.362327575683594
 20
-10.435172080993652
 30
144.0
 11
60.576717376708984
 21
-12.140531539916992
 31
144.0
 12
62.24738311767578
 22
-15.800426483154297
 32
144.0
 13
62.24738311767578
 23
-15.800426483154297
 33
144.0
  0
3DFACE
  8
0
 10
60.909095764160156
 20
-7.6084513664245605
 30
144.0
 11
60.61586380004883
 21
-8.626194953918457
 31
144.0
 12
60.362327575683594
 22
-10.435172080993652
 32
144.0
 13
60.362327575683594
 23
-10.435172080993652
 33
144.0
  0
3DFACE
  8
0
 10
61.15729904174805
 20
-6.965114593505859
 30
144.0
 11
60.984981536865234
 21
-7.365548133850098
 31
144.0
 12
60.909095764160156
 22
-7.6084513664245605
 32
144.0
 13
60.909095764160156
 23
-7.6084513664245605
 33
144.0
  0
3DFACE
  8
0
 10
61.5689697265625
 20
-6.133063793182373
 30
144.0
 11
61.29914093017578
 21
-6.598728179931641
 31
144.0
 12
61.15729904174805
 22
-6.965114593505859
 32
144.0
 13
61.15729904174805
 23
-6.965114593505859
 33
144.0
  0
3DFACE
  8
0
 10
61.94772720336914
 20
-5.506087303161621
 30
144.0
 11
61.7234001159668
 21
-5.823064804077148
 31
144.0
 12
61.5689697265625
 22
-6.133063793182373
 32
144.0
 13
61.5689697265625
 23
-6.133063793182373
 33
144.0
  0
3DFACE
  8
0
 10
62.2911262512207
 20
-5.033210754394531
 30
144.0
 11
62.052032470703125
 21
-5.3403520584106445
 31
144.0
 12
61.94772720336914
 22
-5.506087303161621
 32
144.0
 13
61.94772720336914
 23
-5.506087303161621
 33
144.0
  0
3DFACE
  8
0
 10
62.88518142700195
 20
-4.356349945068359
 30
144.0
 11
62.559513092041016
 21
-4.719664096832275
 31
144.0
 12
62.42736053466797
 22
-4.8763837814331055
 32
144.0
 13
62.42736053466797
 23
-4.8763837814331055
 33
144.0
  0
3DFACE
  8
0
 10
62.42736053466797
 20
-4.8763837814331055
 30
144.0
 11
62.2911262512207
 21
-5.033210754394531
 31
144.0
 12
61.94772720336914
 22
-5.506087303161621
 32
144.0
 13
61.94772720336914
 23
-5.506087303161621
 33
144.0
  0
3DFACE
  8
0
 10
61.94772720336914
 20
-5.506087303161621
 30
144.0
 11
61.5689697265625
 21
-6.133063793182373
 31
144.0
 12
61.15729904174805
 22
-6.965114593505859
 32
144.0
 13
61.15729904174805
 23
-6.965114593505859
 33
144.0
  0
3DFACE
  8
0
 10
61.15729904174805
 20
-6.965114593505859
 30
144.0
 11
60.909095764160156
 21
-7.6084513664245605
 31
144.0
 12
60.362327575683594
 22
-10.435172080993652
 32
144.0
 13
60.362327575683594
 23
-10.435172080993652
 33
144.0
  0
3DFACE
  8
0
 10
60.362327575683594
 20
-10.435172080993652
 30
144.0
 11
62.24738311767578
 21
-15.800426483154297
 31
144.0
 12
79.0945816040039
 22
-12.742796897888184
 32
144.0
 13
79.0945816040039
 23
-12.742796897888184
 33
144.0
  0
3DFACE
  8
0
 10
79.0945816040039
 20
-12.742796897888184
 30
144.0
 11
79.63885498046875
 21
-9.945115089416504
 31
144.0
 12
79.60447692871094
 22
-8.896754264831543
 32
144.0
 13
79.60447692871094
 23
-8.896754264831543
 33
144.0
  0
3DFACE
  8
0
 10
79.60447692871094
 20
-8.896754264831543
 30
144.0
 11
79.49869537353516
 21
-8.127547264099121
 31
144.0
 12
79.30802154541016
 22
-7.584128379821777
 32
144.0
 13
79.30802154541016
 23
-7.584128379821777
 33
144.0
  0
3DFACE
  8
0
 10
79.30802154541016
 20
-7.584128379821777
 30
144.0
 11
79.2388687133789
 21
-7.358340263366699
 31
144.0
 12
78.87284088134766
 22
-6.562995910644531
 32
144.0
 13
78.87284088134766
 23
-6.562995910644531
 33
144.0
  0
3DFACE
  8
0
 10
78.66099548339844
 20
-6.218277454376221
 30
144.0
 11
78.44160461425781
 21
-5.81992244720459
 31
144.0
 12
77.90402221679688
 22
-5.048511981964111
 32
144.0
 13
77.90402221679688
 23
-5.048511981964111
 33
144.0
  0
3DFACE
  8
0
 10
79.30802154541016
 20
-7.584128379821777
 30
144.0
 11
78.87284088134766
 21
-6.562995910644531
 31
144.0
 12
78.66099548339844
 22
-6.218277454376221
 32
144.0
 13
78.66099548339844
 23
-6.218277454376221
 33
144.0
  0
3DFACE
  8
0
 10
79.0945816040039
 20
-12.742796897888184
 30
144.0
 11
79.60447692871094
 21
-8.896754264831543
 31
144.0
 12
79.30802154541016
 22
-7.584128379821777
 32
144.0
 13
79.30802154541016
 23
-7.584128379821777
 33
144.0
  0
3DFACE
  8
0
 10
61.15729904174805
 20
-6.965114593505859
 30
144.0
 11
60.362327575683594
 21
-10.435172080993652
 31
144.0
 12
79.0945816040039
 22
-12.742796897888184
 32
144.0
 13
79.0945816040039
 23
-12.742796897888184
 33
144.0
  0
3DFACE
  8
0
 10
62.42736053466797
 20
-4.8763837814331055
 30
144.0
 11
61.94772720336914
 21
-5.506087303161621
 31
144.0
 12
61.15729904174805
 22
-6.965114593505859
 32
144.0
 13
61.15729904174805
 23
-6.965114593505859
 33
144.0
  0
3DFACE
  8
0
 10
63.27852249145508
 20
-3.971426010131836
 30
144.0
 11
62.946651458740234
 21
-4.284554481506348
 31
144.0
 12
62.88518142700195
 22
-4.356349945068359
 32
144.0
 13
62.88518142700195
 23
-4.356349945068359
 33
144.0
  0
3DFACE
  8
0
 10
62.88518142700195
 20
-4.356349945068359
 30
144.0
 11
62.42736053466797
 21
-4.8763837814331055
 31
144.0
 12
61.15729904174805
 22
-6.965114593505859
 32
144.0
 13
61.15729904174805
 23
-6.965114593505859
 33
144.0
  0
3DFACE
  8
0
 10
61.15729904174805
 20
-6.965114593505859
 30
144.0
 11
79.0945816040039
 21
-12.742796897888184
 31
144.0
 12
79.30802154541016
 22
-7.584128379821777
 32
144.0
 13
79.30802154541016
 23
-7.584128379821777
 33
144.0
  0
3DFACE
  8
0
 10
79.30802154541016
 20
-7.584128379821777
 30
144.0
 11
78.66099548339844
 21
-6.218277454376221
 31
144.0
 12
77.90402221679688
 22
-5.048511981964111
 32
144.0
 13
77.90402221679688
 23
-5.048511981964111
 33
144.0
  0
3DFACE
  8
0
 10
77.90402221679688
 20
-5.048511981964111
 30
144.0
 11
77.72509002685547
 21
-4.835124969482422
 31
144.0
 12
77.41525268554688
 22
-4.482635974884033
 32
144.0
 13
77.41525268554688
 23
-4.482635974884033
 33
144.0
  0
3DFACE
  8
0
 10
77.41525268554688
 20
-4.482635974884033
 30
144.0
 11
77.22343444824219
 21
-4.27667236328125
 31
144.0
 12
76.94001770019531
 22
-4.033516883850098
 32
144.0
 13
76.94001770019531
 23
-4.033516883850098
 33
144.0
  0
3DFACE
  8
0
 10
76.94001770019531
 20
-4.033516883850098
 30
144.0
 11
76.32877349853516
 21
-3.490269184112549
 31
144.0
 12
76.18140411376953
 22
-3.3857481479644775
 32
144.0
 13
76.18140411376953
 23
-3.3857481479644775
 33
144.0
  0
3DFACE
  8
0
 10
76.18140411376953
 20
-3.3857481479644775
 30
144.0
 11
75.53484344482422
 21
-2.9833014011383057
 31
144.0
 12
75.1093521118164
 22
-2.742351770401001
 32
144.0
 13
75.1093521118164
 23
-2.742351770401001
 33
144.0
  0
3DFACE
  8
0
 10
75.1093521118164
 20
-2.742351770401001
 30
144.0
 11
74.22064208984375
 21
-2.3450605869293213
 31
144.0
 12
74.13175201416016
 22
-2.310027599334717
 32
144.0
 13
74.13175201416016
 23
-2.310027599334717
 33
144.0
  0
3DFACE
  8
0
 10
73.77819061279297
 20
-2.182220458984375
 30
144.0
 11
73.13088989257812
 21
-1.9340041875839233
 31
144.0
 12
72.98218536376953
 22
-1.8904668092727661
 32
144.0
 13
72.98218536376953
 23
-1.8904668092727661
 33
144.0
  0
3DFACE
  8
0
 10
75.1093521118164
 20
-2.742351770401001
 30
144.0
 11
74.13175201416016
 21
-2.310027599334717
 31
144.0
 12
73.77819061279297
 22
-2.182220458984375
 32
144.0
 13
73.77819061279297
 23
-2.182220458984375
 33
144.0
  0
3DFACE
  8
0
 10
76.94001770019531
 20
-4.033516883850098
 30
144.0
 11
76.18140411376953
 21
-3.3857481479644775
 31
144.0
 12
75.1093521118164
 22
-2.742351770401001
 32
144.0
 13
75.1093521118164
 23
-2.742351770401001
 33
144.0
  0
3DFACE
  8
0
 10
77.90402221679688
 20
-5.048511981964111
 30
144.0
 11
77.41525268554688
 21
-4.482635974884033
 31
144.0
 12
76.94001770019531
 22
-4.033516883850098
 32
144.0
 13
76.94001770019531
 23
-4.033516883850098
 33
144.0
  0
3DFACE
  8
0
 10
61.15729904174805
 20
-6.965114593505859
 30
144.0
 11
79.30802154541016
 21
-7.584128379821777
 31
144.0
 12
77.90402221679688
 22
-5.048511981964111
 32
144.0
 13
77.90402221679688
 23
-5.048511981964111
 33
144.0
  0
3DFACE
  8
0
 10
63.27852249145508
 20
-3.971426010131836
 30
144.0
 11
62.88518142700195
 21
-4.356349945068359
 31
144.0
 12
61.15729904174805
 22
-6.965114593505859
 32
144.0
 13
61.15729904174805
 23
-6.965114593505859
 33
144.0
  0
3DFACE
  8
0
 10
63.860687255859375
 20
-3.490825891494751
 30
144.0
 11
63.287078857421875
 21
-3.9638333320617676
 31
144.0
 12
63.27852249145508
 22
-3.971426010131836
 32
144.0
 13
63.27852249145508
 23
-3.971426010131836
 33
144.0
  0
3DFACE
  8
0
 10
64.87830352783203
 20
-2.808272123336792
 30
144.0
 11
64.57176971435547
 21
-2.9835174083709717
 31
144.0
 12
64.03876495361328
 22
-3.3699796199798584
 32
144.0
 13
64.03876495361328
 23
-3.3699796199798584
 33
144.0
  0
3DFACE
  8
0
 10
64.03876495361328
 20
-3.3699796199798584
 30
144.0
 11
63.860687255859375
 21
-3.490825891494751
 31
144.0
 12
63.27852249145508
 22
-3.971426010131836
 32
144.0
 13
63.27852249145508
 23
-3.971426010131836
 33
144.0
  0
3DFACE
  8
0
 10
63.27852249145508
 20
-3.971426010131836
 30
144.0
 11
61.15729904174805
 21
-6.965114593505859
 31
144.0
 12
77.90402221679688
 22
-5.048511981964111
 32
144.0
 13
77.90402221679688
 23
-5.048511981964111
 33
144.0
  0
3DFACE
  8
0
 10
77.90402221679688
 20
-5.048511981964111
 30
144.0
 11
76.94001770019531
 21
-4.033516883850098
 31
144.0
 12
75.1093521118164
 22
-2.742351770401001
 32
144.0
 13
75.1093521118164
 23
-2.742351770401001
 33
144.0
  0
3DFACE
  8
0
 10
75.1093521118164
 20
-2.742351770401001
 30
144.0
 11
73.77819061279297
 21
-2.182220458984375
 31
144.0
 12
72.98218536376953
 22
-1.8904668092727661
 32
144.0
 13
72.98218536376953
 23
-1.8904668092727661
 33
144.0
  0
3DFACE
  8
0
 10
72.98218536376953
 20
-1.8904668092727661
 30
144.0
 11
72.29086303710938
 21
-1.7097285985946655
 31
144.0
 12
71.98389434814453
 22
-1.6501010656356812
 32
144.0
 13
71.98389434814453
 23
-1.6501010656356812
 33
144.0
  0
3DFACE
  8
0
 10
71.98389434814453
 20
-1.6501010656356812
 30
144.0
 11
71.6476058959961
 21
-1.5783230066299438
 31
144.0
 12
71.1952896118164
 22
-1.506606101989746
 32
144.0
 13
71.1952896118164
 23
-1.506606101989746
 33
144.0
  0
3DFACE
  8
0
 10
71.1952896118164
 20
-1.506606101989746
 30
144.0
 11
71.00434112548828
 21
-1.472834587097168
 31
144.0
 12
70.40669250488281
 22
-1.426193118095398
 32
144.0
 13
70.40669250488281
 23
-1.426193118095398
 33
144.0
  0
3DFACE
  8
0
 10
70.40669250488281
 20
-1.426193118095398
 30
144.0
 11
70.34406280517578
 21
-1.422836422920227
 31
144.0
 12
69.71783447265625
 22
-1.407130241394043
 32
144.0
 13
69.71783447265625
 23
-1.407130241394043
 33
144.0
  0
3DFACE
  8
0
 10
69.71783447265625
 20
-1.407130241394043
 30
144.0
 11
69.0745849609375
 21
-1.4536007642745972
 31
144.0
 12
68.82950592041016
 22
-1.4909894466400146
 32
144.0
 13
68.82950592041016
 23
-1.4909894466400146
 33
144.0
  0
3DFACE
  8
0
 10
68.82950592041016
 20
-1.4909894466400146
 30
144.0
 11
68.43132019042969
 21
-1.5388538837432861
 31
144.0
 12
67.94480895996094
 22
-1.6409541368484497
 32
144.0
 13
67.94480895996094
 23
-1.6409541368484497
 33
144.0
  0
3DFACE
  8
0
 10
67.94480895996094
 20
-1.6409541368484497
 30
144.0
 11
67.78805541992188
 21
-1.6767725944519043
 31
144.0
 12
66.46369934082031
 22
-2.0896670818328857
 32
144.0
 13
66.46369934082031
 23
-2.0896670818328857
 33
144.0
  0
3DFACE
  8
0
 10
66.46369934082031
 20
-2.0896670818328857
 30
144.0
 11
65.85828399658203
 21
-2.3330821990966797
 31
144.0
 12
65.013671875
 22
-2.734431266784668
 32
144.0
 13
65.013671875
 23
-2.734431266784668
 33
144.0
  0
3DFACE
  8
0
 10
65.013671875
 20
-2.734431266784668
 30
144.0
 11
64.87830352783203
 21
-2.808272123336792
 31
144.0
 12
64.03876495361328
 22
-3.3699796199798584
 32
144.0
 13
64.03876495361328
 23
-3.3699796199798584
 33
144.0
  0
3DFACE
  8
0
 10
64.03876495361328
 20
-3.3699796199798584
 30
144.0
 11
63.27852249145508
 21
-3.971426010131836
 31
144.0
 12
77.90402221679688
 22
-5.048511981964111
 32
144.0
 13
77.90402221679688
 23
-5.048511981964111
 33
144.0
  0
3DFACE
  8
0
 10
77.90402221679688
 20
-5.048511981964111
 30
144.0
 11
75.1093521118164
 21
-2.742351770401001
 31
144.0
 12
72.98218536376953
 22
-1.8904668092727661
 32
144.0
 13
72.98218536376953
 23
-1.8904668092727661
 33
144.0
  0
3DFACE
  8
0
 10
72.98218536376953
 20
-1.8904668092727661
 30
144.0
 11
71.98389434814453
 21
-1.6501010656356812
 31
144.0
 12
71.1952896118164
 22
-1.506606101989746
 32
144.0
 13
71.1952896118164
 23
-1.506606101989746
 33
144.0
  0
3DFACE
  8
0
 10
71.1952896118164
 20
-1.506606101989746
 30
144.0
 11
70.40669250488281
 21
-1.426193118095398
 31
144.0
 12
69.71783447265625
 22
-1.407130241394043
 32
144.0
 13
69.71783447265625
 23
-1.407130241394043
 33
144.0
  0
3DFACE
  8
0
 10
69.71783447265625
 20
-1.407130241394043
 30
144.0
 11
68.82950592041016
 21
-1.4909894466400146
 31
144.0
 12
67.94480895996094
 22
-1.6409541368484497
 32
144.0
 13
67.94480895996094
 23
-1.6409541368484497
 33
144.0
  0
3DFACE
  8
0
 10
67.94480895996094
 20
-1.6409541368484497
 30
144.0
 11
66.46369934082031
 21
-2.0896670818328857
 31
144.0
 12
65.013671875
 22
-2.734431266784668
 32
144.0
 13
65.013671875
 23
-2.734431266784668
 33
144.0
  0
3DFACE
  8
0
 10
65.013671875
 20
-2.734431266784668
 30
144.0
 11
64.03876495361328
 21
-3.3699796199798584
 31
144.0
 12
77.90402221679688
 22
-5.048511981964111
 32
144.0
 13
77.90402221679688
 23
-5.048511981964111
 33
144.0
  0
3DFACE
  8
0
 10
77.90402221679688
 20
-5.048511981964111
 30
144.0
 11
72.98218536376953
 21
-1.8904668092727661
 31
144.0
 12
71.1952896118164
 22
-1.506606101989746
 32
144.0
 13
71.1952896118164
 23
-1.506606101989746
 33
144.0
  0
3DFACE
  8
0
 10
71.1952896118164
 20
-1.506606101989746
 30
144.0
 11
69.71783447265625
 21
-1.407130241394043
 31
144.0
 12
67.94480895996094
 22
-1.6409541368484497
 32
144.0
 13
67.94480895996094
 23
-1.6409541368484497
 33
144.0
  0
3DFACE
  8
0
 10
67.94480895996094
 20
-1.6409541368484497
 30
144.0
 11
65.013671875
 21
-2.734431266784668
 31
144.0
 12
77.90402221679688
 22
-5.048511981964111
 32
144.0
 13
77.90402221679688
 23
-5.048511981964111
 33
144.0
  0
3DFACE
  8
0
 10
77.90402221679688
 20
-5.048511981964111
 30
144.0
 11
71.1952896118164
 21
-1.506606101989746
 31
144.0
 12
67.94480895996094
 22
-1.6409541368484497
 32
144.0
 13
67.94480895996094
 23
-1.6409541368484497
 33
144.0
  0
3DFACE
  8
0
 10
-64.20707702636719
 20
2.728510856628418
 30
144.0
 11
-65.41445922851562
 21
1.9485738277435303
 31
144.0
 12
-66.2349624633789
 22
1.2588143348693848
 32
144.0
 13
-66.2349624633789
 23
1.2588143348693848
 33
144.0
  0
3DFACE
  8
0
 10
-66.2349624633789
 20
1.2588143348693848
 30
144.0
 11
-66.33465576171875
 21
1.1675539016723633
 31
144.0
 12
-66.97811889648438
 22
0.4031200706958771
 32
144.0
 13
-66.97811889648438
 23
0.4031200706958771
 33
144.0
  0
3DFACE
  8
0
 10
-66.97811889648438
 20
0.4031200706958771
 30
144.0
 11
-67.18927001953125
 21
0.08103664219379425
 31
144.0
 12
-67.45791625976562
 22
-0.3580530881881714
 32
144.0
 13
-67.45791625976562
 23
-0.3580530881881714
 33
144.0
  0
3DFACE
  8
0
 10
-67.45791625976562
 20
-0.3580530881881714
 30
144.0
 11
-67.60892486572266
 21
-0.6640917658805847
 31
144.0
 12
-67.71941375732422
 22
-0.9029937982559204
 32
144.0
 13
-67.71941375732422
 23
-0.9029937982559204
 33
144.0
  0
3DFACE
  8
0
 10
-67.71941375732422
 20
-0.9029937982559204
 30
144.0
 11
-67.99807739257812
 21
-1.6264058351516724
 31
144.0
 12
-68.10025787353516
 22
-1.954359769821167
 32
144.0
 13
-68.10025787353516
 23
-1.954359769821167
 33
144.0
  0
3DFACE
  8
0
 10
-68.21536254882812
 20
-2.429812431335449
 30
144.0
 11
-68.29447174072266
 21
-2.7348380088806152
 31
144.0
 12
-68.30720520019531
 22
-2.9962306022644043
 32
144.0
 13
-68.30720520019531
 23
-2.9962306022644043
 33
144.0
  0
3DFACE
  8
0
 10
-67.71941375732422
 20
-0.9029937982559204
 30
144.0
 11
-68.10025787353516
 21
-1.954359769821167
 31
144.0
 12
-68.21536254882812
 22
-2.429812431335449
 32
144.0
 13
-68.21536254882812
 23
-2.429812431335449
 33
144.0
  0
3DFACE
  8
0
 10
-66.97811889648438
 20
0.4031200706958771
 30
144.0
 11
-67.45791625976562
 21
-0.3580530881881714
 31
144.0
 12
-67.71941375732422
 22
-0.9029937982559204
 32
144.0
 13
-67.71941375732422
 23
-0.9029937982559204
 33
144.0
  0
3DFACE
  8
0
 10
-64.20707702636719
 20
2.728510856628418
 30
144.0
 11
-66.2349624633789
 21
1.2588143348693848
 31
144.0
 12
-66.97811889648438
 22
0.4031200706958771
 32
144.0
 13
-66.97811889648438
 23
0.4031200706958771
 33
144.0
  0
3DFACE
  8
0
 10
-62.49135208129883
 20
3.5711121559143066
 30
144.0
 11
-62.630950927734375
 21
3.5074117183685303
 31
144.0
 12
-64.20707702636719
 22
2.728510856628418
 32
144.0
 13
-64.20707702636719
 23
2.728510856628418
 33
144.0
  0
3DFACE
  8
0
 10
-60.7716064453125
 20
4.235611438751221
 30
144.0
 11
-61.793174743652344
 21
3.8657009601593018
 31
144.0
 12
-62.49135208129883
 22
3.5711121559143066
 32
144.0
 13
-62.49135208129883
 23
3.5711121559143066
 33
144.0
  0
3DFACE
  8
0
 10
-59.210655212402344
 20
4.643436431884766
 30
144.0
 11
-59.685089111328125
 21
4.557388782501221
 31
144.0
 12
-60.29716491699219
 22
4.366021156311035
 32
144.0
 13
-60.29716491699219
 23
4.366021156311035
 33
144.0
  0
3DFACE
  8
0
 10
-60.29716491699219
 20
4.366021156311035
 30
144.0
 11
-60.7716064453125
 21
4.235611438751221
 31
144.0
 12
-62.49135208129883
 22
3.5711121559143066
 32
144.0
 13
-62.49135208129883
 23
3.5711121559143066
 33
144.0
  0
3DFACE
  8
0
 10
-62.49135208129883
 20
3.5711121559143066
 30
144.0
 11
-64.20707702636719
 21
2.728510856628418
 31
144.0
 12
-66.97811889648438
 22
0.4031200706958771
 32
144.0
 13
-66.97811889648438
 23
0.4031200706958771
 33
144.0
  0
3DFACE
  8
0
 10
-66.97811889648438
 20
0.4031200706958771
 30
144.0
 11
-67.71941375732422
 21
-0.9029937982559204
 31
144.0
 12
-68.21536254882812
 22
-2.429812431335449
 32
144.0
 13
-68.21536254882812
 23
-2.429812431335449
 33
144.0
  0
3DFACE
  8
0
 10
-68.21536254882812
 20
-2.429812431335449
 30
144.0
 11
-68.30720520019531
 21
-2.9962306022644043
 31
144.0
 12
-68.36628723144531
 22
-3.515316963195801
 32
144.0
 13
-68.36628723144531
 23
-3.515316963195801
 33
144.0
  0
3DFACE
  8
0
 10
-68.3634033203125
 20
-3.7812225818634033
 30
144.0
 11
-68.3687973022461
 21
-4.295794486999512
 31
144.0
 12
-68.34214782714844
 22
-4.569445610046387
 32
144.0
 13
-68.34214782714844
 23
-4.569445610046387
 33
144.0
  0
3DFACE
  8
0
 10
-68.21536254882812
 20
-2.429812431335449
 30
144.0
 11
-68.36628723144531
 21
-3.515316963195801
 31
144.0
 12
-68.3634033203125
 22
-3.7812225818634033
 32
144.0
 13
-68.3634033203125
 23
-3.7812225818634033
 33
144.0
  0
3DFACE
  8
0
 10
-62.49135208129883
 20
3.5711121559143066
 30
144.0
 11
-66.97811889648438
 21
0.4031200706958771
 31
144.0
 12
-68.21536254882812
 22
-2.429812431335449
 32
144.0
 13
-68.21536254882812
 23
-2.429812431335449
 33
144.0
  0
3DFACE
  8
0
 10
-59.210655212402344
 20
4.643436431884766
 30
144.0
 11
-60.29716491699219
 21
4.366021156311035
 31
144.0
 12
-62.49135208129883
 22
3.5711121559143066
 32
144.0
 13
-62.49135208129883
 23
3.5711121559143066
 33
144.0
  0
3DFACE
  8
0
 10
-57.95573425292969
 20
4.7739715576171875
 30
144.0
 11
-58.43016815185547
 21
4.747432231903076
 31
144.0
 12
-58.736209869384766
 22
4.691404342651367
 32
144.0
 13
-58.736209869384766
 23
4.691404342651367
 33
144.0
  0
3DFACE
  8
0
 10
-58.736209869384766
 20
4.691404342651367
 30
144.0
 11
-59.210655212402344
 21
4.643436431884766
 31
144.0
 12
-62.49135208129883
 22
3.5711121559143066
 32
144.0
 13
-62.49135208129883
 23
3.5711121559143066
 33
144.0
  0
3DFACE
  8
0
 10
-62.49135208129883
 20
3.5711121559143066
 30
144.0
 11
-68.21536254882812
 21
-2.429812431335449
 31
144.0
 12
-68.3634033203125
 22
-3.7812225818634033
 32
144.0
 13
-68.3634033203125
 23
-3.7812225818634033
 33
144.0
  0
3DFACE
  8
0
 10
-68.3634033203125
 20
-3.7812225818634033
 30
144.0
 11
-68.34214782714844
 21
-4.569445610046387
 31
144.0
 12
-68.23058319091797
 22
-5.092042922973633
 32
144.0
 13
-68.23058319091797
 23
-5.092042922973633
 33
144.0
  0
3DFACE
  8
0
 10
-68.23058319091797
 20
-5.092042922973633
 30
144.0
 11
-68.09800720214844
 21
-5.856751441955566
 31
144.0
 12
-67.97515106201172
 22
-6.2110819816589355
 32
144.0
 13
-67.97515106201172
 23
-6.2110819816589355
 33
144.0
  0
3DFACE
  8
0
 10
-67.97515106201172
 20
-6.2110819816589355
 30
144.0
 11
-67.8006362915039
 21
-6.637230396270752
 31
144.0
 12
-67.5710678100586
 22
-7.173219680786133
 32
144.0
 13
-67.5710678100586
 23
-7.173219680786133
 33
144.0
  0
3DFACE
  8
0
 10
-67.5710678100586
 20
-7.173219680786133
 30
144.0
 11
-67.44319915771484
 21
-7.452269077301025
 31
144.0
 12
-67.27461242675781
 22
-7.739500045776367
 32
144.0
 13
-67.27461242675781
 23
-7.739500045776367
 33
144.0
  0
3DFACE
  8
0
 10
-67.27461242675781
 20
-7.739500045776367
 30
144.0
 11
-66.50374603271484
 21
-8.87160873413086
 31
144.0
 12
-66.42180633544922
 22
-8.97866439819336
 32
144.0
 13
-66.42180633544922
 23
-8.97866439819336
 33
144.0
  0
3DFACE
  8
0
 10
-66.42180633544922
 20
-8.97866439819336
 30
144.0
 11
-65.90231323242188
 21
-9.5449857711792
 31
144.0
 12
-65.45447540283203
 22
-9.935110092163086
 32
144.0
 13
-65.45447540283203
 23
-9.935110092163086
 33
144.0
  0
3DFACE
  8
0
 10
-65.45447540283203
 20
-9.935110092163086
 30
144.0
 11
-65.1484375
 21
-10.210299491882324
 31
144.0
 12
-64.85489654541016
 22
-10.40785026550293
 32
144.0
 13
-64.85489654541016
 23
-10.40785026550293
 33
144.0
  0
3DFACE
  8
0
 10
-64.85489654541016
 20
-10.40785026550293
 30
144.0
 11
-64.6747055053711
 21
-10.542434692382812
 31
144.0
 12
-63.92988586425781
 22
-11.03625202178955
 32
144.0
 13
-63.92988586425781
 23
-11.03625202178955
 33
144.0
  0
3DFACE
  8
0
 10
-63.92988586425781
 20
-11.03625202178955
 30
144.0
 11
-63.63401794433594
 21
-11.216215133666992
 31
144.0
 12
-63.32511520385742
 22
-11.3687162399292
 32
144.0
 13
-63.32511520385742
 23
-11.3687162399292
 33
144.0
  0
3DFACE
  8
0
 10
-63.32511520385742
 20
-11.3687162399292
 30
144.0
 11
-62.293846130371094
 21
-11.818307876586914
 31
144.0
 12
-61.83628845214844
 22
-12.002025604248047
 32
144.0
 13
-61.83628845214844
 23
-12.002025604248047
 33
144.0
  0
3DFACE
  8
0
 10
-61.83628845214844
 20
-12.002025604248047
 30
144.0
 11
-61.249568939208984
 21
-12.261581420898438
 31
144.0
 12
-60.77320098876953
 22
-12.420882225036621
 32
144.0
 13
-60.77320098876953
 23
-12.420882225036621
 33
144.0
  0
3DFACE
  8
0
 10
-60.30970764160156
 20
-12.558122634887695
 30
144.0
 11
-59.991127014160156
 21
-12.67259693145752
 31
144.0
 12
-59.67226791381836
 22
-12.752644538879395
 32
144.0
 13
-59.67226791381836
 23
-12.752644538879395
 33
144.0
  0
3DFACE
  8
0
 10
-61.83628845214844
 20
-12.002025604248047
 30
144.0
 11
-60.77320098876953
 21
-12.420882225036621
 31
144.0
 12
-60.30970764160156
 22
-12.558122634887695
 32
144.0
 13
-60.30970764160156
 23
-12.558122634887695
 33
144.0
  0
3DFACE
  8
0
 10
-63.92988586425781
 20
-11.03625202178955
 30
144.0
 11
-63.32511520385742
 21
-11.3687162399292
 31
144.0
 12
-61.83628845214844
 22
-12.002025604248047
 32
144.0
 13
-61.83628845214844
 23
-12.002025604248047
 33
144.0
  0
3DFACE
  8
0
 10
-65.45447540283203
 20
-9.935110092163086
 30
144.0
 11
-64.85489654541016
 21
-10.40785026550293
 31
144.0
 12
-63.92988586425781
 22
-11.03625202178955
 32
144.0
 13
-63.92988586425781
 23
-11.03625202178955
 33
144.0
  0
3DFACE
  8
0
 10
-67.27461242675781
 20
-7.739500045776367
 30
144.0
 11
-66.42180633544922
 21
-8.97866439819336
 31
144.0
 12
-65.45447540283203
 22
-9.935110092163086
 32
144.0
 13
-65.45447540283203
 23
-9.935110092163086
 33
144.0
  0
3DFACE
  8
0
 10
-67.97515106201172
 20
-6.2110819816589355
 30
144.0
 11
-67.5710678100586
 21
-7.173219680786133
 31
144.0
 12
-67.27461242675781
 22
-7.739500045776367
 32
144.0
 13
-67.27461242675781
 23
-7.739500045776367
 33
144.0
  0
3DFACE
  8
0
 10
-68.3634033203125
 20
-3.7812225818634033
 30
144.0
 11
-68.23058319091797
 21
-5.092042922973633
 31
144.0
 12
-67.97515106201172
 22
-6.2110819816589355
 32
144.0
 13
-67.97515106201172
 23
-6.2110819816589355
 33
144.0
  0
3DFACE
  8
0
 10
-58.736209869384766
 20
4.691404342651367
 30
144.0
 11
-62.49135208129883
 21
3.5711121559143066
 31
144.0
 12
-68.3634033203125
 22
-3.7812225818634033
 32
144.0
 13
-68.3634033203125
 23
-3.7812225818634033
 33
144.0
  0
3DFACE
  8
0
 10
-57.17525100708008
 20
4.800022125244141
 30
144.0
 11
-57.649696350097656
 21
4.809462070465088
 31
144.0
 12
-57.95573425292969
 22
4.7739715576171875
 32
144.0
 13
-57.95573425292969
 23
4.7739715576171875
 33
144.0
  0
3DFACE
  8
0
 10
-57.95573425292969
 20
4.7739715576171875
 30
144.0
 11
-58.736209869384766
 21
4.691404342651367
 31
144.0
 12
-68.3634033203125
 22
-3.7812225818634033
 32
144.0
 13
-68.3634033203125
 23
-3.7812225818634033
 33
144.0
  0
3DFACE
  8
0
 10
-68.3634033203125
 20
-3.7812225818634033
 30
144.0
 11
-67.97515106201172
 21
-6.2110819816589355
 31
144.0
 12
-67.27461242675781
 22
-7.739500045776367
 32
144.0
 13
-67.27461242675781
 23
-7.739500045776367
 33
144.0
  0
3DFACE
  8
0
 10
-67.27461242675781
 20
-7.739500045776367
 30
144.0
 11
-65.45447540283203
 21
-9.935110092163086
 31
144.0
 12
-63.92988586425781
 22
-11.03625202178955
 32
144.0
 13
-63.92988586425781
 23
-11.03625202178955
 33
144.0
  0
3DFACE
  8
0
 10
-63.92988586425781
 20
-11.03625202178955
 30
144.0
 11
-61.83628845214844
 21
-12.002025604248047
 31
144.0
 12
-60.30970764160156
 22
-12.558122634887695
 32
144.0
 13
-60.30970764160156
 23
-12.558122634887695
 33
144.0
  0
3DFACE
  8
0
 10
-60.30970764160156
 20
-12.558122634887695
 30
144.0
 11
-59.67226791381836
 21
-12.752644538879395
 31
144.0
 12
-58.71245574951172
 22
-12.92380428314209
 32
144.0
 13
-58.71245574951172
 23
-12.92380428314209
 33
144.0
  0
3DFACE
  8
0
 10
-58.71245574951172
 20
-12.92380428314209
 30
144.0
 11
-58.43016815185547
 21
-12.962742805480957
 31
144.0
 12
-58.14788818359375
 22
-12.966911315917969
 32
144.0
 13
-58.14788818359375
 23
-12.966911315917969
 33
144.0
  0
3DFACE
  8
0
 10
-58.14788818359375
 20
-12.966911315917969
 30
144.0
 11
-57.649696350097656
 21
-13.00412654876709
 31
144.0
 12
-57.2049560546875
 22
-12.987460136413574
 32
144.0
 13
-57.2049560546875
 23
-12.987460136413574
 33
144.0
  0
3DFACE
  8
0
 10
-57.2049560546875
 20
-12.987460136413574
 30
144.0
 11
-56.86920928955078
 21
-12.981276512145996
 31
144.0
 12
-56.43640899658203
 22
-12.929593086242676
 32
144.0
 13
-56.43640899658203
 23
-12.929593086242676
 33
144.0
  0
3DFACE
  8
0
 10
-56.43640899658203
 20
-12.929593086242676
 30
144.0
 11
-56.08873748779297
 21
-12.906582832336426
 31
144.0
 12
-55.614295959472656
 22
-12.798079490661621
 32
144.0
 13
-55.614295959472656
 23
-12.798079490661621
 33
144.0
  0
3DFACE
  8
0
 10
-55.614295959472656
 20
-12.798079490661621
 30
144.0
 11
-55.308258056640625
 21
-12.748420715332031
 31
144.0
 12
-54.833824157714844
 22
-12.611958503723145
 32
144.0
 13
-54.833824157714844
 23
-12.611958503723145
 33
144.0
  0
3DFACE
  8
0
 10
-54.833824157714844
 20
-12.611958503723145
 30
144.0
 11
-54.52778625488281
 21
-12.548973083496094
 31
144.0
 12
-54.053340911865234
 22
-12.407791137695312
 32
144.0
 13
-54.053340911865234
 23
-12.407791137695312
 33
144.0
  0
3DFACE
  8
0
 10
-54.053340911865234
 20
-12.407791137695312
 30
144.0
 11
-53.74729919433594
 21
-12.33309268951416
 31
144.0
 12
-53.303077697753906
 22
-12.162236213684082
 32
144.0
 13
-53.303077697753906
 23
-12.162236213684082
 33
144.0
  0
3DFACE
  8
0
 10
-53.303077697753906
 20
-12.162236213684082
 30
144.0
 11
-52.997039794921875
 21
-12.052011489868164
 31
144.0
 12
-52.49237823486328
 22
-11.815638542175293
 32
144.0
 13
-52.49237823486328
 23
-11.815638542175293
 33
144.0
  0
3DFACE
  8
0
 10
-52.49237823486328
 20
-11.815638542175293
 30
144.0
 11
-52.18634033203125
 21
-11.708074569702148
 31
144.0
 12
-51.862674713134766
 22
-11.554816246032715
 32
144.0
 13
-51.862674713134766
 23
-11.554816246032715
 33
144.0
  0
3DFACE
  8
0
 10
-51.862674713134766
 20
-11.554816246032715
 30
144.0
 11
-51.41809844970703
 21
-11.311124801635742
 31
144.0
 12
-51.12968826293945
 22
-11.143082618713379
 32
144.0
 13
-51.12968826293945
 23
-11.143082618713379
 33
144.0
  0
3DFACE
  8
0
 10
-51.12968826293945
 20
-11.143082618713379
 30
144.0
 11
-50.625389099121094
 21
-10.827011108398438
 31
144.0
 12
-50.35760498046875
 22
-10.651040077209473
 32
144.0
 13
-50.35760498046875
 23
-10.651040077209473
 33
144.0
  0
3DFACE
  8
0
 10
-50.35760498046875
 20
-10.651040077209473
 30
144.0
 11
-50.17012023925781
 21
-10.511000633239746
 31
144.0
 12
-49.8831672668457
 22
-10.254090309143066
 32
144.0
 13
-49.8831672668457
 23
-10.254090309143066
 33
144.0
  0
3DFACE
  8
0
 10
-49.8831672668457
 20
-10.254090309143066
 30
144.0
 11
-49.53447723388672
 21
-9.980659484863281
 31
144.0
 12
-49.300933837890625
 22
-9.763132095336914
 32
144.0
 13
-49.300933837890625
 23
-9.763132095336914
 33
144.0
  0
3DFACE
  8
0
 10
-49.300933837890625
 20
-9.763132095336914
 30
144.0
 11
-48.83521270751953
 21
-9.288691520690918
 31
144.0
 12
-48.53889846801758
 22
-8.976531982421875
 32
144.0
 13
-48.53889846801758
 23
-8.976531982421875
 33
144.0
  0
3DFACE
  8
0
 10
-48.53889846801758
 20
-8.976531982421875
 30
144.0
 11
-48.28130340576172
 21
-8.672625541687012
 31
144.0
 12
-47.89183807373047
 22
-8.198186874389648
 32
144.0
 13
-47.89183807373047
 23
-8.198186874389648
 33
144.0
  0
3DFACE
  8
0
 10
-47.561553955078125
 20
-7.662111759185791
 30
144.0
 11
-47.36579513549805
 21
-7.388790130615234
 31
144.0
 12
-46.99660110473633
 22
-6.637230396270752
 32
144.0
 13
-46.99660110473633
 23
-6.637230396270752
 33
144.0
  0
3DFACE
  8
0
 10
-48.53889846801758
 20
-8.976531982421875
 30
144.0
 11
-47.89183807373047
 21
-8.198186874389648
 31
144.0
 12
-47.561553955078125
 22
-7.662111759185791
 32
144.0
 13
-47.561553955078125
 23
-7.662111759185791
 33
144.0
  0
3DFACE
  8
0
 10
-49.8831672668457
 20
-10.254090309143066
 30
144.0
 11
-49.300933837890625
 21
-9.763132095336914
 31
144.0
 12
-48.53889846801758
 22
-8.976531982421875
 32
144.0
 13
-48.53889846801758
 23
-8.976531982421875
 33
144.0
  0
3DFACE
  8
0
 10
-51.12968826293945
 20
-11.143082618713379
 30
144.0
 11
-50.35760498046875
 21
-10.651040077209473
 31
144.0
 12
-49.8831672668457
 22
-10.254090309143066
 32
144.0
 13
-49.8831672668457
 23
-10.254090309143066
 33
144.0
  0
3DFACE
  8
0
 10
-52.49237823486328
 20
-11.815638542175293
 30
144.0
 11
-51.862674713134766
 21
-11.554816246032715
 31
144.0
 12
-51.12968826293945
 22
-11.143082618713379
 32
144.0
 13
-51.12968826293945
 23
-11.143082618713379
 33
144.0
  0
3DFACE
  8
0
 10
-54.053340911865234
 20
-12.407791137695312
 30
144.0
 11
-53.303077697753906
 21
-12.162236213684082
 31
144.0
 12
-52.49237823486328
 22
-11.815638542175293
 32
144.0
 13
-52.49237823486328
 23
-11.815638542175293
 33
144.0
  0
3DFACE
  8
0
 10
-55.614295959472656
 20
-12.798079490661621
 30
144.0
 11
-54.833824157714844
 21
-12.611958503723145
 31
144.0
 12
-54.053340911865234
 22
-12.407791137695312
 32
144.0
 13
-54.053340911865234
 23
-12.407791137695312
 33
144.0
  0
3DFACE
  8
0
 10
-57.2049560546875
 20
-12.987460136413574
 30
144.0
 11
-56.43640899658203
 21
-12.929593086242676
 31
144.0
 12
-55.614295959472656
 22
-12.798079490661621
 32
144.0
 13
-55.614295959472656
 23
-12.798079490661621
 33
144.0
  0
3DFACE
  8
0
 10
-58.71245574951172
 20
-12.92380428314209
 30
144.0
 11
-58.14788818359375
 21
-12.966911315917969
 31
144.0
 12
-57.2049560546875
 22
-12.987460136413574
 32
144.0
 13
-57.2049560546875
 23
-12.987460136413574
 33
144.0
  0
3DFACE
  8
0
 10
-63.92988586425781
 20
-11.03625202178955
 30
144.0
 11
-60.30970764160156
 21
-12.558122634887695
 31
144.0
 12
-58.71245574951172
 22
-12.92380428314209
 32
144.0
 13
-58.71245574951172
 23
-12.92380428314209
 33
144.0
  0
3DFACE
  8
0
 10
-68.3634033203125
 20
-3.7812225818634033
 30
144.0
 11
-67.27461242675781
 21
-7.739500045776367
 31
144.0
 12
-63.92988586425781
 22
-11.03625202178955
 32
144.0
 13
-63.92988586425781
 23
-11.03625202178955
 33
144.0
  0
3DFACE
  8
0
 10
-57.17525100708008
 20
4.800022125244141
 30
144.0
 11
-57.95573425292969
 21
4.7739715576171875
 31
144.0
 12
-68.3634033203125
 22
-3.7812225818634033
 32
144.0
 13
-68.3634033203125
 23
-3.7812225818634033
 33
144.0
  0
3DFACE
  8
0
 10
-56.394775390625
 20
4.776760578155518
 30
144.0
 11
-56.86920928955078
 21
4.815824508666992
 31
144.0
 12
-57.17525100708008
 22
4.800022125244141
 32
144.0
 13
-57.17525100708008
 23
4.800022125244141
 33
144.0
  0
3DFACE
  8
0
 10
-55.614295959472656
 20
4.720849514007568
 30
144.0
 11
-56.08873748779297
 21
4.768383026123047
 31
144.0
 12
-56.394775390625
 22
4.776760578155518
 32
144.0
 13
-56.394775390625
 23
4.776760578155518
 33
144.0
  0
3DFACE
  8
0
 10
-54.833824157714844
 20
4.620821475982666
 30
144.0
 11
-55.308258056640625
 21
4.707867622375488
 31
144.0
 12
-55.614295959472656
 22
4.720849514007568
 32
144.0
 13
-55.614295959472656
 23
4.720849514007568
 33
144.0
  0
3DFACE
  8
0
 10
-54.053340911865234
 20
4.479626178741455
 30
144.0
 11
-54.52778625488281
 21
4.579717636108398
 31
144.0
 12
-54.833824157714844
 22
4.620821475982666
 32
144.0
 13
-54.833824157714844
 23
4.620821475982666
 33
144.0
  0
3DFACE
  8
0
 10
-53.507415771484375
 20
4.353322505950928
 30
144.0
 11
-53.74729919433594
 21
4.439615726470947
 31
144.0
 12
-54.053340911865234
 22
4.479626178741455
 32
144.0
 13
-54.053340911865234
 23
4.479626178741455
 33
144.0
  0
3DFACE
  8
0
 10
-53.069332122802734
 20
4.1913743019104
 30
144.0
 11
-53.30388641357422
 21
4.289467811584473
 31
144.0
 12
-53.507415771484375
 22
4.353322505950928
 32
144.0
 13
-53.507415771484375
 23
4.353322505950928
 33
144.0
  0
3DFACE
  8
0
 10
-51.88030242919922
 20
3.7707009315490723
 30
144.0
 11
-52.18634033203125
 21
3.890789031982422
 31
144.0
 12
-52.59489059448242
 22
4.020814418792725
 32
144.0
 13
-52.59489059448242
 23
4.020814418792725
 33
144.0
  0
3DFACE
  8
0
 10
-53.069332122802734
 20
4.1913743019104
 30
144.0
 11
-53.507415771484375
 21
4.353322505950928
 31
144.0
 12
-54.053340911865234
 22
4.479626178741455
 32
144.0
 13
-54.053340911865234
 23
4.479626178741455
 33
144.0
  0
3DFACE
  8
0
 10
-51.43415451049805
 20
3.548039436340332
 30
144.0
 11
-51.88030242919922
 21
3.7707009315490723
 31
144.0
 12
-52.59489059448242
 22
4.020814418792725
 32
144.0
 13
-52.59489059448242
 23
4.020814418792725
 33
144.0
  0
3DFACE
  8
0
 10
-52.59489059448242
 20
4.020814418792725
 30
144.0
 11
-53.069332122802734
 21
4.1913743019104
 31
144.0
 12
-54.053340911865234
 22
4.479626178741455
 32
144.0
 13
-54.053340911865234
 23
4.479626178741455
 33
144.0
  0
3DFACE
  8
0
 10
-54.053340911865234
 20
4.479626178741455
 30
144.0
 11
-54.833824157714844
 21
4.620821475982666
 31
144.0
 12
-55.614295959472656
 22
4.720849514007568
 32
144.0
 13
-55.614295959472656
 23
4.720849514007568
 33
144.0
  0
3DFACE
  8
0
 10
-55.614295959472656
 20
4.720849514007568
 30
144.0
 11
-56.394775390625
 21
4.776760578155518
 31
144.0
 12
-57.17525100708008
 22
4.800022125244141
 32
144.0
 13
-57.17525100708008
 23
4.800022125244141
 33
144.0
  0
3DFACE
  8
0
 10
-57.17525100708008
 20
4.800022125244141
 30
144.0
 11
-68.3634033203125
 21
-3.7812225818634033
 31
144.0
 12
-63.92988586425781
 22
-11.03625202178955
 32
144.0
 13
-63.92988586425781
 23
-11.03625202178955
 33
144.0
  0
3DFACE
  8
0
 10
-63.92988586425781
 20
-11.03625202178955
 30
144.0
 11
-58.71245574951172
 21
-12.92380428314209
 31
144.0
 12
-57.2049560546875
 22
-12.987460136413574
 32
144.0
 13
-57.2049560546875
 23
-12.987460136413574
 33
144.0
  0
3DFACE
  8
0
 10
-57.2049560546875
 20
-12.987460136413574
 30
144.0
 11
-55.614295959472656
 21
-12.798079490661621
 31
144.0
 12
-54.053340911865234
 22
-12.407791137695312
 32
144.0
 13
-54.053340911865234
 23
-12.407791137695312
 33
144.0
  0
3DFACE
  8
0
 10
-54.053340911865234
 20
-12.407791137695312
 30
144.0
 11
-52.49237823486328
 21
-11.815638542175293
 31
144.0
 12
-51.12968826293945
 22
-11.143082618713379
 32
144.0
 13
-51.12968826293945
 23
-11.143082618713379
 33
144.0
  0
3DFACE
  8
0
 10
-51.12968826293945
 20
-11.143082618713379
 30
144.0
 11
-49.8831672668457
 21
-10.254090309143066
 31
144.0
 12
-48.53889846801758
 22
-8.976531982421875
 32
144.0
 13
-48.53889846801758
 23
-8.976531982421875
 33
144.0
  0
3DFACE
  8
0
 10
-48.53889846801758
 20
-8.976531982421875
 30
144.0
 11
-47.561553955078125
 21
-7.662111759185791
 31
144.0
 12
-46.99660110473633
 22
-6.637230396270752
 32
144.0
 13
-46.99660110473633
 23
-6.637230396270752
 33
144.0
  0
3DFACE
  8
0
 10
-46.99660110473633
 20
-6.637230396270752
 30
144.0
 11
-46.64717483520508
 21
-5.856751441955566
 31
144.0
 12
-46.550655364990234
 22
-5.402796268463135
 32
144.0
 13
-46.550655364990234
 23
-5.402796268463135
 33
144.0
  0
3DFACE
  8
0
 10
-46.50737762451172
 20
-5.243130683898926
 30
144.0
 11
-46.456573486328125
 21
-5.076273441314697
 31
144.0
 12
-46.32270431518555
 22
-4.295794486999512
 32
144.0
 13
-46.32270431518555
 23
-4.295794486999512
 33
144.0
  0
3DFACE
  8
0
 10
-46.99660110473633
 20
-6.637230396270752
 30
144.0
 11
-46.550655364990234
 21
-5.402796268463135
 31
144.0
 12
-46.50737762451172
 22
-5.243130683898926
 32
144.0
 13
-46.50737762451172
 23
-5.243130683898926
 33
144.0
  0
3DFACE
  8
0
 10
-51.12968826293945
 20
-11.143082618713379
 30
144.0
 11
-48.53889846801758
 21
-8.976531982421875
 31
144.0
 12
-46.99660110473633
 22
-6.637230396270752
 32
144.0
 13
-46.99660110473633
 23
-6.637230396270752
 33
144.0
  0
3DFACE
  8
0
 10
-57.2049560546875
 20
-12.987460136413574
 30
144.0
 11
-54.053340911865234
 21
-12.407791137695312
 31
144.0
 12
-51.12968826293945
 22
-11.143082618713379
 32
144.0
 13
-51.12968826293945
 23
-11.143082618713379
 33
144.0
  0
3DFACE
  8
0
 10
-57.17525100708008
 20
4.800022125244141
 30
144.0
 11
-63.92988586425781
 21
-11.03625202178955
 31
144.0
 12
-57.2049560546875
 22
-12.987460136413574
 32
144.0
 13
-57.2049560546875
 23
-12.987460136413574
 33
144.0
  0
3DFACE
  8
0
 10
-54.053340911865234
 20
4.479626178741455
 30
144.0
 11
-55.614295959472656
 21
4.720849514007568
 31
144.0
 12
-57.17525100708008
 22
4.800022125244141
 32
144.0
 13
-57.17525100708008
 23
4.800022125244141
 33
144.0
  0
3DFACE
  8
0
 10
-51.43415451049805
 20
3.548039436340332
 30
144.0
 11
-52.59489059448242
 21
4.020814418792725
 31
144.0
 12
-54.053340911865234
 22
4.479626178741455
 32
144.0
 13
-54.053340911865234
 23
4.479626178741455
 33
144.0
  0
3DFACE
  8
0
 10
-50.8124885559082
 20
3.22477126121521
 30
144.0
 11
-51.31521987915039
 21
3.4921140670776367
 31
144.0
 12
-51.43415451049805
 22
3.548039436340332
 32
144.0
 13
-51.43415451049805
 23
3.548039436340332
 33
144.0
  0
3DFACE
  8
0
 10
-49.97007751464844
 20
2.748100519180298
 30
144.0
 11
-50.28825378417969
 21
2.9383223056793213
 31
144.0
 12
-50.8124885559082
 22
3.22477126121521
 32
144.0
 13
-50.8124885559082
 23
3.22477126121521
 33
144.0
  0
3DFACE
  8
0
 10
-48.76449203491211
 20
1.8538528680801392
 30
144.0
 11
-49.695133209228516
 21
2.564293384552002
 31
144.0
 12
-49.97007751464844
 22
2.748100519180298
 32
144.0
 13
-49.97007751464844
 23
2.748100519180298
 33
144.0
  0
3DFACE
  8
0
 10
-48.02161407470703
 20
1.178341269493103
 30
144.0
 11
-48.26237106323242
 21
1.4015388488769531
 31
144.0
 12
-48.76449203491211
 22
1.8538528680801392
 32
144.0
 13
-48.76449203491211
 23
1.8538528680801392
 33
144.0
  0
3DFACE
  8
0
 10
-47.19254684448242
 20
0.08103664219379425
 30
144.0
 11
-47.364295959472656
 21
0.3870755434036255
 31
144.0
 12
-47.62436294555664
 22
0.6931143999099731
 32
144.0
 13
-47.62436294555664
 23
0.6931143999099731
 33
144.0
  0
3DFACE
  8
0
 10
-47.62436294555664
 20
0.6931143999099731
 30
144.0
 11
-48.02161407470703
 21
1.178341269493103
 31
144.0
 12
-48.76449203491211
 22
1.8538528680801392
 32
144.0
 13
-48.76449203491211
 23
1.8538528680801392
 33
144.0
  0
3DFACE
  8
0
 10
-48.76449203491211
 20
1.8538528680801392
 30
144.0
 11
-49.97007751464844
 21
2.748100519180298
 31
144.0
 12
-50.8124885559082
 22
3.22477126121521
 32
144.0
 13
-50.8124885559082
 23
3.22477126121521
 33
144.0
  0
3DFACE
  8
0
 10
-50.8124885559082
 20
3.22477126121521
 30
144.0
 11
-51.43415451049805
 21
3.548039436340332
 31
144.0
 12
-54.053340911865234
 22
4.479626178741455
 32
144.0
 13
-54.053340911865234
 23
4.479626178741455
 33
144.0
  0
3DFACE
  8
0
 10
-54.053340911865234
 20
4.479626178741455
 30
144.0
 11
-57.17525100708008
 21
4.800022125244141
 31
144.0
 12
-57.2049560546875
 22
-12.987460136413574
 32
144.0
 13
-57.2049560546875
 23
-12.987460136413574
 33
144.0
  0
3DFACE
  8
0
 10
-57.2049560546875
 20
-12.987460136413574
 30
144.0
 11
-51.12968826293945
 21
-11.143082618713379
 31
144.0
 12
-46.99660110473633
 22
-6.637230396270752
 32
144.0
 13
-46.99660110473633
 23
-6.637230396270752
 33
144.0
  0
3DFACE
  8
0
 10
-46.99660110473633
 20
-6.637230396270752
 30
144.0
 11
-46.50737762451172
 21
-5.243130683898926
 31
144.0
 12
-46.32270431518555
 22
-4.295794486999512
 32
144.0
 13
-46.32270431518555
 23
-4.295794486999512
 33
144.0
  0
3DFACE
  8
0
 10
-46.32270431518555
 20
-4.295794486999512
 30
144.0
 11
-46.26581954956055
 21
-3.515316963195801
 31
144.0
 12
-46.27994155883789
 22
-3.278096914291382
 32
144.0
 13
-46.27994155883789
 23
-3.278096914291382
 33
144.0
  0
3DFACE
  8
0
 10
-46.27994155883789
 20
-3.278096914291382
 30
144.0
 11
-46.28547286987305
 21
-2.7348380088806152
 31
144.0
 12
-46.35330581665039
 22
-2.296147108078003
 32
144.0
 13
-46.35330581665039
 23
-2.296147108078003
 33
144.0
  0
3DFACE
  8
0
 10
-46.35330581665039
 20
-2.296147108078003
 30
144.0
 11
-46.41542434692383
 21
-1.954359769821167
 31
144.0
 12
-46.48036575317383
 22
-1.6843351125717163
 32
144.0
 13
-46.48036575317383
 23
-1.6843351125717163
 33
144.0
  0
3DFACE
  8
0
 10
-46.48036575317383
 20
-1.6843351125717163
 30
144.0
 11
-46.61825180053711
 21
-1.1738810539245605
 31
144.0
 12
-46.939334869384766
 22
-0.39340299367904663
 32
144.0
 13
-46.939334869384766
 23
-0.39340299367904663
 33
144.0
  0
3DFACE
  8
0
 10
-46.939334869384766
 20
-0.39340299367904663
 30
144.0
 11
-47.19254684448242
 21
0.08103664219379425
 31
144.0
 12
-47.62436294555664
 22
0.6931143999099731
 32
144.0
 13
-47.62436294555664
 23
0.6931143999099731
 33
144.0
  0
3DFACE
  8
0
 10
-47.62436294555664
 20
0.6931143999099731
 30
144.0
 11
-48.76449203491211
 21
1.8538528680801392
 31
144.0
 12
-50.8124885559082
 22
3.22477126121521
 32
144.0
 13
-50.8124885559082
 23
3.22477126121521
 33
144.0
  0
3DFACE
  8
0
 10
-50.8124885559082
 20
3.22477126121521
 30
144.0
 11
-54.053340911865234
 21
4.479626178741455
 31
144.0
 12
-57.2049560546875
 22
-12.987460136413574
 32
144.0
 13
-57.2049560546875
 23
-12.987460136413574
 33
144.0
  0
3DFACE
  8
0
 10
-57.2049560546875
 20
-12.987460136413574
 30
144.0
 11
-46.99660110473633
 21
-6.637230396270752
 31
144.0
 12
-46.32270431518555
 22
-4.295794486999512
 32
144.0
 13
-46.32270431518555
 23
-4.295794486999512
 33
144.0
  0
3DFACE
  8
0
 10
-46.32270431518555
 20
-4.295794486999512
 30
144.0
 11
-46.27994155883789
 21
-3.278096914291382
 31
144.0
 12
-46.35330581665039
 22
-2.296147108078003
 32
144.0
 13
-46.35330581665039
 23
-2.296147108078003
 33
144.0
  0
3DFACE
  8
0
 10
-46.35330581665039
 20
-2.296147108078003
 30
144.0
 11
-46.48036575317383
 21
-1.6843351125717163
 31
144.0
 12
-46.939334869384766
 22
-0.39340299367904663
 32
144.0
 13
-46.939334869384766
 23
-0.39340299367904663
 33
144.0
  0
3DFACE
  8
0
 10
-46.939334869384766
 20
-0.39340299367904663
 30
144.0
 11
-47.62436294555664
 21
0.6931143999099731
 31
144.0
 12
-50.8124885559082
 22
3.22477126121521
 32
144.0
 13
-50.8124885559082
 23
3.22477126121521
 33
144.0
  0
3DFACE
  8
0
 10
-50.8124885559082
 20
3.22477126121521
 30
144.0
 11
-57.2049560546875
 21
-12.987460136413574
 31
144.0
 12
-46.32270431518555
 22
-4.295794486999512
 32
144.0
 13
-46.32270431518555
 23
-4.295794486999512
 33
144.0
  0
3DFACE
  8
0
 10
-46.32270431518555
 20
-4.295794486999512
 30
144.0
 11
-46.35330581665039
 21
-2.296147108078003
 31
144.0
 12
-46.939334869384766
 22
-0.39340299367904663
 32
144.0
 13
-46.939334869384766
 23
-0.39340299367904663
 33
144.0
  0
3DFACE
  8
0
 10
-46.32270431518555
 20
-4.295794486999512
 30
144.0
 11
-46.939334869384766
 21
-0.39340299367904663
 31
144.0
 12
-50.8124885559082
 22
3.22477126121521
 32
144.0
 13
-50.8124885559082
 23
3.22477126121521
 33
144.0
  0
3DFACE
  8
0
 10
-38.393287658691406
 20
53.055152893066406
 30
144.0
 11
-39.33946228027344
 21
53.70975875854492
 31
144.0
 12
-39.37083435058594
 22
53.730037689208984
 32
144.0
 13
-39.37083435058594
 23
53.730037689208984
 33
144.0
  0
3DFACE
  8
0
 10
-39.37083435058594
 20
53.730037689208984
 30
144.0
 11
-40.07341003417969
 21
54.1305046081543
 31
144.0
 12
-41.031349182128906
 22
54.52037811279297
 32
144.0
 13
-41.031349182128906
 23
54.52037811279297
 33
144.0
  0
3DFACE
  8
0
 10
-41.053504943847656
 20
54.5265007019043
 30
144.0
 11
-41.746334075927734
 21
54.759273529052734
 31
144.0
 12
-42.11186981201172
 22
54.86440658569336
 32
144.0
 13
-42.11186981201172
 23
54.86440658569336
 33
144.0
  0
3DFACE
  8
0
 10
-39.37083435058594
 20
53.730037689208984
 30
144.0
 11
-41.031349182128906
 21
54.52037811279297
 31
144.0
 12
-41.053504943847656
 22
54.5265007019043
 32
144.0
 13
-41.053504943847656
 23
54.5265007019043
 33
144.0
  0
3DFACE
  8
0
 10
-37.654930114746094
 20
52.407833099365234
 30
144.0
 11
-38.393287658691406
 21
53.055152893066406
 31
144.0
 12
-39.37083435058594
 22
53.730037689208984
 32
144.0
 13
-39.37083435058594
 23
53.730037689208984
 33
144.0
  0
3DFACE
  8
0
 10
-37.030128479003906
 20
51.73024368286133
 30
144.0
 11
-37.44875717163086
 21
52.203651428222656
 31
144.0
 12
-37.654930114746094
 22
52.407833099365234
 32
144.0
 13
-37.654930114746094
 23
52.407833099365234
 33
144.0
  0
3DFACE
  8
0
 10
-36.21397399902344
 20
50.688087463378906
 30
144.0
 11
-36.64044952392578
 21
51.25761413574219
 31
144.0
 12
-37.030128479003906
 22
51.73024368286133
 32
144.0
 13
-37.030128479003906
 23
51.73024368286133
 33
144.0
  0
3DFACE
  8
0
 10
-36.08079528808594
 20
50.486141204833984
 30
144.0
 11
-36.12250518798828
 21
50.5577392578125
 31
144.0
 12
-36.21397399902344
 22
50.688087463378906
 32
144.0
 13
-36.21397399902344
 23
50.688087463378906
 33
144.0
  0
3DFACE
  8
0
 10
-35.46146774291992
 20
49.43622970581055
 30
144.0
 11
-35.79713821411133
 21
50.04879379272461
 31
144.0
 12
-36.08079528808594
 22
50.486141204833984
 32
144.0
 13
-36.08079528808594
 23
50.486141204833984
 33
144.0
  0
3DFACE
  8
0
 10
-34.99065399169922
 20
48.21176528930664
 30
144.0
 11
-35.226783752441406
 21
48.87703323364258
 31
144.0
 12
-35.46146774291992
 22
49.43622970581055
 32
144.0
 13
-35.46146774291992
 23
49.43622970581055
 33
144.0
  0
3DFACE
  8
0
 10
-34.892662048339844
 20
47.81166458129883
 30
144.0
 11
-34.9534797668457
 21
48.07249069213867
 31
144.0
 12
-34.99065399169922
 22
48.21176528930664
 32
144.0
 13
-34.99065399169922
 23
48.21176528930664
 33
144.0
  0
3DFACE
  8
0
 10
-34.573890686035156
 20
46.35060501098633
 30
144.0
 11
-34.71990203857422
 21
47.267940521240234
 31
144.0
 12
-34.892662048339844
 22
47.81166458129883
 32
144.0
 13
-34.892662048339844
 23
47.81166458129883
 33
144.0
  0
3DFACE
  8
0
 10
-34.50212860107422
 20
45.53123474121094
 30
144.0
 11
-34.50714874267578
 21
45.630897521972656
 31
144.0
 12
-34.510128021240234
 22
45.65882873535156
 32
144.0
 13
-34.510128021240234
 23
45.65882873535156
 33
144.0
  0
3DFACE
  8
0
 10
-34.510128021240234
 20
45.65882873535156
 30
144.0
 11
-34.573890686035156
 21
46.35060501098633
 31
144.0
 12
-34.892662048339844
 22
47.81166458129883
 32
144.0
 13
-34.892662048339844
 23
47.81166458129883
 33
144.0
  0
3DFACE
  8
0
 10
-34.892662048339844
 20
47.81166458129883
 30
144.0
 11
-34.99065399169922
 21
48.21176528930664
 31
144.0
 12
-35.46146774291992
 22
49.43622970581055
 32
144.0
 13
-35.46146774291992
 23
49.43622970581055
 33
144.0
  0
3DFACE
  8
0
 10
-35.46146774291992
 20
49.43622970581055
 30
144.0
 11
-36.08079528808594
 21
50.486141204833984
 31
144.0
 12
-36.21397399902344
 22
50.688087463378906
 32
144.0
 13
-36.21397399902344
 23
50.688087463378906
 33
144.0
  0
3DFACE
  8
0
 10
-36.21397399902344
 20
50.688087463378906
 30
144.0
 11
-37.030128479003906
 21
51.73024368286133
 31
144.0
 12
-37.654930114746094
 22
52.407833099365234
 32
144.0
 13
-37.654930114746094
 23
52.407833099365234
 33
144.0
  0
3DFACE
  8
0
 10
-37.654930114746094
 20
52.407833099365234
 30
144.0
 11
-39.37083435058594
 21
53.730037689208984
 31
144.0
 12
-41.053504943847656
 22
54.5265007019043
 32
144.0
 13
-41.053504943847656
 23
54.5265007019043
 33
144.0
  0
3DFACE
  8
0
 10
-41.053504943847656
 20
54.5265007019043
 30
144.0
 11
-42.11186981201172
 21
54.86440658569336
 31
144.0
 12
-42.57513427734375
 22
54.96298599243164
 32
144.0
 13
-42.57513427734375
 23
54.96298599243164
 33
144.0
  0
3DFACE
  8
0
 10
-43.19590377807617
 20
55.04470443725586
 30
144.0
 11
-43.397804260253906
 21
55.07779312133789
 31
144.0
 12
-43.77765655517578
 22
55.10884475708008
 32
144.0
 13
-43.77765655517578
 23
55.10884475708008
 33
144.0
  0
3DFACE
  8
0
 10
-41.053504943847656
 20
54.5265007019043
 30
144.0
 11
-42.57513427734375
 21
54.96298599243164
 31
144.0
 12
-43.19590377807617
 22
55.04470443725586
 32
144.0
 13
-43.19590377807617
 23
55.04470443725586
 33
144.0
  0
3DFACE
  8
0
 10
-36.21397399902344
 20
50.688087463378906
 30
144.0
 11
-37.654930114746094
 21
52.407833099365234
 31
144.0
 12
-41.053504943847656
 22
54.5265007019043
 32
144.0
 13
-41.053504943847656
 23
54.5265007019043
 33
144.0
  0
3DFACE
  8
0
 10
-34.892662048339844
 20
47.81166458129883
 30
144.0
 11
-35.46146774291992
 21
49.43622970581055
 31
144.0
 12
-36.21397399902344
 22
50.688087463378906
 32
144.0
 13
-36.21397399902344
 23
50.688087463378906
 33
144.0
  0
3DFACE
  8
0
 10
-34.50212860107422
 20
45.53123474121094
 30
144.0
 11
-34.510128021240234
 21
45.65882873535156
 31
144.0
 12
-34.892662048339844
 22
47.81166458129883
 32
144.0
 13
-34.892662048339844
 23
47.81166458129883
 33
144.0
  0
3DFACE
  8
0
 10
-34.502811431884766
 20
44.73136520385742
 30
144.0
 11
-34.49399948120117
 21
44.854286193847656
 31
144.0
 12
-34.50212860107422
 22
45.53123474121094
 32
144.0
 13
-34.50212860107422
 23
45.53123474121094
 33
144.0
  0
3DFACE
  8
0
 10
-34.6436882019043
 20
43.69151306152344
 30
144.0
 11
-34.58678436279297
 21
44.04972839355469
 31
144.0
 12
-34.502811431884766
 22
44.73136520385742
 32
144.0
 13
-34.502811431884766
 23
44.73136520385742
 33
144.0
  0
3DFACE
  8
0
 10
-34.88463592529297
 20
42.58647155761719
 30
144.0
 11
-34.724586486816406
 21
43.24517822265625
 31
144.0
 12
-34.6436882019043
 22
43.69151306152344
 32
144.0
 13
-34.6436882019043
 23
43.69151306152344
 33
144.0
  0
3DFACE
  8
0
 10
-35.164119720458984
 20
41.76411819458008
 30
144.0
 11
-34.918514251708984
 21
42.42776870727539
 31
144.0
 12
-34.88463592529297
 22
42.58647155761719
 32
144.0
 13
-34.88463592529297
 23
42.58647155761719
 33
144.0
  0
3DFACE
  8
0
 10
-35.57543182373047
 20
40.90519714355469
 30
144.0
 11
-35.19621276855469
 21
41.68946075439453
 31
144.0
 12
-35.164119720458984
 22
41.76411819458008
 32
144.0
 13
-35.164119720458984
 23
41.76411819458008
 33
144.0
  0
3DFACE
  8
0
 10
-35.88922882080078
 20
40.3962287902832
 30
144.0
 11
-35.61808776855469
 21
40.831520080566406
 31
144.0
 12
-35.57543182373047
 22
40.90519714355469
 32
144.0
 13
-35.57543182373047
 23
40.90519714355469
 33
144.0
  0
3DFACE
  8
0
 10
-36.615169525146484
 20
39.45995330810547
 30
144.0
 11
-36.11612319946289
 21
40.06592559814453
 31
144.0
 12
-35.88922882080078
 22
40.3962287902832
 32
144.0
 13
-35.88922882080078
 23
40.3962287902832
 33
144.0
  0
3DFACE
  8
0
 10
-37.378143310546875
 20
38.711116790771484
 30
144.0
 11
-36.8490104675293
 21
39.2224235534668
 31
144.0
 12
-36.615169525146484
 22
39.45995330810547
 32
144.0
 13
-36.615169525146484
 23
39.45995330810547
 33
144.0
  0
3DFACE
  8
0
 10
-38.15019607543945
 20
38.09375
 30
144.0
 11
-37.75324249267578
 21
38.40207290649414
 31
144.0
 12
-37.378143310546875
 22
38.711116790771484
 32
144.0
 13
-37.378143310546875
 23
38.711116790771484
 33
144.0
  0
3DFACE
  8
0
 10
-39.01338577270508
 20
37.51119613647461
 30
144.0
 11
-38.84991455078125
 21
37.613319396972656
 31
144.0
 12
-38.15019607543945
 22
38.09375
 32
144.0
 13
-38.15019607543945
 23
38.09375
 33
144.0
  0
3DFACE
  8
0
 10
-40.120323181152344
 20
36.90605545043945
 30
144.0
 11
-39.71104431152344
 21
37.101158142089844
 31
144.0
 12
-39.15928268432617
 22
37.42918395996094
 32
144.0
 13
-39.15928268432617
 23
37.42918395996094
 33
144.0
  0
3DFACE
  8
0
 10
-39.15928268432617
 20
37.42918395996094
 30
144.0
 11
-39.01338577270508
 21
37.51119613647461
 31
144.0
 12
-38.15019607543945
 22
38.09375
 32
144.0
 13
-38.15019607543945
 23
38.09375
 33
144.0
  0
3DFACE
  8
0
 10
-38.15019607543945
 20
38.09375
 30
144.0
 11
-37.378143310546875
 21
38.711116790771484
 31
144.0
 12
-36.615169525146484
 22
39.45995330810547
 32
144.0
 13
-36.615169525146484
 23
39.45995330810547
 33
144.0
  0
3DFACE
  8
0
 10
-36.615169525146484
 20
39.45995330810547
 30
144.0
 11
-35.88922882080078
 21
40.3962287902832
 31
144.0
 12
-35.57543182373047
 22
40.90519714355469
 32
144.0
 13
-35.57543182373047
 23
40.90519714355469
 33
144.0
  0
3DFACE
  8
0
 10
-35.57543182373047
 20
40.90519714355469
 30
144.0
 11
-35.164119720458984
 21
41.76411819458008
 31
144.0
 12
-34.88463592529297
 22
42.58647155761719
 32
144.0
 13
-34.88463592529297
 23
42.58647155761719
 33
144.0
  0
3DFACE
  8
0
 10
-34.88463592529297
 20
42.58647155761719
 30
144.0
 11
-34.6436882019043
 21
43.69151306152344
 31
144.0
 12
-34.502811431884766
 22
44.73136520385742
 32
144.0
 13
-34.502811431884766
 23
44.73136520385742
 33
144.0
  0
3DFACE
  8
0
 10
-34.502811431884766
 20
44.73136520385742
 30
144.0
 11
-34.50212860107422
 21
45.53123474121094
 31
144.0
 12
-34.892662048339844
 22
47.81166458129883
 32
144.0
 13
-34.892662048339844
 23
47.81166458129883
 33
144.0
  0
3DFACE
  8
0
 10
-34.892662048339844
 20
47.81166458129883
 30
144.0
 11
-36.21397399902344
 21
50.688087463378906
 31
144.0
 12
-41.053504943847656
 22
54.5265007019043
 32
144.0
 13
-41.053504943847656
 23
54.5265007019043
 33
144.0
  0
3DFACE
  8
0
 10
-41.053504943847656
 20
54.5265007019043
 30
144.0
 11
-43.19590377807617
 21
55.04470443725586
 31
144.0
 12
-43.77765655517578
 22
55.10884475708008
 32
144.0
 13
-43.77765655517578
 23
55.10884475708008
 33
144.0
  0
3DFACE
  8
0
 10
-43.77765655517578
 20
55.10884475708008
 30
144.0
 11
-44.0820426940918
 21
55.126258850097656
 31
144.0
 12
-44.2159423828125
 22
55.12704849243164
 32
144.0
 13
-44.2159423828125
 23
55.12704849243164
 33
144.0
  0
3DFACE
  8
0
 10
-44.2159423828125
 20
55.12704849243164
 30
144.0
 11
-44.781898498535156
 21
55.102901458740234
 31
144.0
 12
-45.02737808227539
 22
55.07957077026367
 32
144.0
 13
-45.02737808227539
 23
55.07957077026367
 33
144.0
  0
3DFACE
  8
0
 10
-45.39894104003906
 20
55.01337814331055
 30
144.0
 11
-45.83473587036133
 21
54.97285079956055
 31
144.0
 12
-46.179996490478516
 22
54.892608642578125
 32
144.0
 13
-46.179996490478516
 23
54.892608642578125
 33
144.0
  0
3DFACE
  8
0
 10
-44.2159423828125
 20
55.12704849243164
 30
144.0
 11
-45.02737808227539
 21
55.07957077026367
 31
144.0
 12
-45.39894104003906
 22
55.01337814331055
 32
144.0
 13
-45.39894104003906
 23
55.01337814331055
 33
144.0
  0
3DFACE
  8
0
 10
-41.053504943847656
 20
54.5265007019043
 30
144.0
 11
-43.77765655517578
 21
55.10884475708008
 31
144.0
 12
-44.2159423828125
 22
55.12704849243164
 32
144.0
 13
-44.2159423828125
 23
55.12704849243164
 33
144.0
  0
3DFACE
  8
0
 10
-34.502811431884766
 20
44.73136520385742
 30
144.0
 11
-34.892662048339844
 21
47.81166458129883
 31
144.0
 12
-41.053504943847656
 22
54.5265007019043
 32
144.0
 13
-41.053504943847656
 23
54.5265007019043
 33
144.0
  0
3DFACE
  8
0
 10
-35.57543182373047
 20
40.90519714355469
 30
144.0
 11
-34.88463592529297
 21
42.58647155761719
 31
144.0
 12
-34.502811431884766
 22
44.73136520385742
 32
144.0
 13
-34.502811431884766
 23
44.73136520385742
 33
144.0
  0
3DFACE
  8
0
 10
-38.15019607543945
 20
38.09375
 30
144.0
 11
-36.615169525146484
 21
39.45995330810547
 31
144.0
 12
-35.57543182373047
 22
40.90519714355469
 32
144.0
 13
-35.57543182373047
 23
40.90519714355469
 33
144.0
  0
3DFACE
  8
0
 10
-40.120323181152344
 20
36.90605545043945
 30
144.0
 11
-39.15928268432617
 21
37.42918395996094
 31
144.0
 12
-38.15019607543945
 22
38.09375
 32
144.0
 13
-38.15019607543945
 23
38.09375
 33
144.0
  0
3DFACE
  8
0
 10
-40.665897369384766
 20
36.717952728271484
 30
144.0
 11
-40.50188064575195
 21
36.755470275878906
 31
144.0
 12
-40.120323181152344
 22
36.90605545043945
 32
144.0
 13
-40.120323181152344
 23
36.90605545043945
 33
144.0
  0
3DFACE
  8
0
 10
-42.073570251464844
 20
36.41170120239258
 30
144.0
 11
-41.30259323120117
 21
36.552764892578125
 31
144.0
 12
-40.665897369384766
 22
36.717952728271484
 32
144.0
 13
-40.665897369384766
 23
36.717952728271484
 33
144.0
  0
3DFACE
  8
0
 10
-42.20034408569336
 20
36.39841079711914
 30
144.0
 11
-42.10708236694336
 21
36.4044189453125
 31
144.0
 12
-42.073570251464844
 22
36.41170120239258
 32
144.0
 13
-42.073570251464844
 23
36.41170120239258
 33
144.0
  0
3DFACE
  8
0
 10
-43.21991729736328
 20
36.39766311645508
 30
144.0
 11
-42.92044448852539
 21
36.38479995727539
 31
144.0
 12
-42.20034408569336
 22
36.39841079711914
 32
144.0
 13
-42.20034408569336
 23
36.39841079711914
 33
144.0
  0
3DFACE
  8
0
 10
-44.41734313964844
 20
36.50189971923828
 30
144.0
 11
-43.736854553222656
 21
36.4091796875
 31
144.0
 12
-43.21991729736328
 22
36.39766311645508
 32
144.0
 13
-43.21991729736328
 23
36.39766311645508
 33
144.0
  0
3DFACE
  8
0
 10
-45.40699768066406
 20
36.68816375732422
 30
144.0
 11
-44.558876037597656
 21
36.514644622802734
 31
144.0
 12
-44.41734313964844
 22
36.50189971923828
 32
144.0
 13
-44.41734313964844
 23
36.50189971923828
 33
144.0
  0
3DFACE
  8
0
 10
-47.032264709472656
 20
37.22054672241211
 30
144.0
 11
-46.22215270996094
 21
36.90058135986328
 31
144.0
 12
-45.754417419433594
 22
36.78996276855469
 32
144.0
 13
-45.754417419433594
 23
36.78996276855469
 33
144.0
  0
3DFACE
  8
0
 10
-45.754417419433594
 20
36.78996276855469
 30
144.0
 11
-45.40699768066406
 21
36.68816375732422
 31
144.0
 12
-44.41734313964844
 22
36.50189971923828
 32
144.0
 13
-44.41734313964844
 23
36.50189971923828
 33
144.0
  0
3DFACE
  8
0
 10
-44.41734313964844
 20
36.50189971923828
 30
144.0
 11
-43.21991729736328
 21
36.39766311645508
 31
144.0
 12
-42.20034408569336
 22
36.39841079711914
 32
144.0
 13
-42.20034408569336
 23
36.39841079711914
 33
144.0
  0
3DFACE
  8
0
 10
-42.20034408569336
 20
36.39841079711914
 30
144.0
 11
-42.073570251464844
 21
36.41170120239258
 31
144.0
 12
-40.665897369384766
 22
36.717952728271484
 32
144.0
 13
-40.665897369384766
 23
36.717952728271484
 33
144.0
  0
3DFACE
  8
0
 10
-40.665897369384766
 20
36.717952728271484
 30
144.0
 11
-40.120323181152344
 21
36.90605545043945
 31
144.0
 12
-38.15019607543945
 22
38.09375
 32
144.0
 13
-38.15019607543945
 23
38.09375
 33
144.0
  0
3DFACE
  8
0
 10
-38.15019607543945
 20
38.09375
 30
144.0
 11
-35.57543182373047
 21
40.90519714355469
 31
144.0
 12
-34.502811431884766
 22
44.73136520385742
 32
144.0
 13
-34.502811431884766
 23
44.73136520385742
 33
144.0
  0
3DFACE
  8
0
 10
-34.502811431884766
 20
44.73136520385742
 30
144.0
 11
-41.053504943847656
 21
54.5265007019043
 31
144.0
 12
-44.2159423828125
 22
55.12704849243164
 32
144.0
 13
-44.2159423828125
 23
55.12704849243164
 33
144.0
  0
3DFACE
  8
0
 10
-44.2159423828125
 20
55.12704849243164
 30
144.0
 11
-45.39894104003906
 21
55.01337814331055
 31
144.0
 12
-46.179996490478516
 22
54.892608642578125
 32
144.0
 13
-46.179996490478516
 23
54.892608642578125
 33
144.0
  0
3DFACE
  8
0
 10
-46.179996490478516
 20
54.892608642578125
 30
144.0
 11
-46.63550567626953
 21
54.77090072631836
 31
144.0
 12
-47.245296478271484
 22
54.5436897277832
 32
144.0
 13
-47.245296478271484
 23
54.5436897277832
 33
144.0
  0
3DFACE
  8
0
 10
-47.245296478271484
 20
54.5436897277832
 30
144.0
 11
-47.429176330566406
 21
54.46620178222656
 31
144.0
 12
-47.60054397583008
 22
54.368408203125
 32
144.0
 13
-47.60054397583008
 23
54.368408203125
 33
144.0
  0
3DFACE
  8
0
 10
-47.60054397583008
 20
54.368408203125
 30
144.0
 11
-48.21424102783203
 21
54.03705596923828
 31
144.0
 12
-48.454105377197266
 22
53.89447784423828
 32
144.0
 13
-48.454105377197266
 23
53.89447784423828
 33
144.0
  0
3DFACE
  8
0
 10
-48.454105377197266
 20
53.89447784423828
 30
144.0
 11
-48.751190185546875
 21
53.704345703125
 31
144.0
 12
-48.99382019042969
 22
53.52863311767578
 32
144.0
 13
-48.99382019042969
 23
53.52863311767578
 33
144.0
  0
3DFACE
  8
0
 10
-49.31999588012695
 20
53.22162628173828
 30
144.0
 11
-49.76095962524414
 21
52.84001159667969
 31
144.0
 12
-50.525718688964844
 22
52.11713409423828
 32
144.0
 13
-50.525718688964844
 23
52.11713409423828
 33
144.0
  0
3DFACE
  8
0
 10
-48.454105377197266
 20
53.89447784423828
 30
144.0
 11
-48.99382019042969
 21
53.52863311767578
 31
144.0
 12
-49.31999588012695
 22
53.22162628173828
 32
144.0
 13
-49.31999588012695
 23
53.22162628173828
 33
144.0
  0
3DFACE
  8
0
 10
-47.245296478271484
 20
54.5436897277832
 30
144.0
 11
-47.60054397583008
 21
54.368408203125
 31
144.0
 12
-48.454105377197266
 22
53.89447784423828
 32
144.0
 13
-48.454105377197266
 23
53.89447784423828
 33
144.0
  0
3DFACE
  8
0
 10
-44.2159423828125
 20
55.12704849243164
 30
144.0
 11
-46.179996490478516
 21
54.892608642578125
 31
144.0
 12
-47.245296478271484
 22
54.5436897277832
 32
144.0
 13
-47.245296478271484
 23
54.5436897277832
 33
144.0
  0
3DFACE
  8
0
 10
-38.15019607543945
 20
38.09375
 30
144.0
 11
-34.502811431884766
 21
44.73136520385742
 31
144.0
 12
-44.2159423828125
 22
55.12704849243164
 32
144.0
 13
-44.2159423828125
 23
55.12704849243164
 33
144.0
  0
3DFACE
  8
0
 10
-42.20034408569336
 20
36.39841079711914
 30
144.0
 11
-40.665897369384766
 21
36.717952728271484
 31
144.0
 12
-38.15019607543945
 22
38.09375
 32
144.0
 13
-38.15019607543945
 23
38.09375
 33
144.0
  0
3DFACE
  8
0
 10
-45.754417419433594
 20
36.78996276855469
 30
144.0
 11
-44.41734313964844
 21
36.50189971923828
 31
144.0
 12
-42.20034408569336
 22
36.39841079711914
 32
144.0
 13
-42.20034408569336
 23
36.39841079711914
 33
144.0
  0
3DFACE
  8
0
 10
-47.05234146118164
 20
37.22755813598633
 30
144.0
 11
-47.032264709472656
 21
37.22054672241211
 31
144.0
 12
-45.754417419433594
 22
36.78996276855469
 32
144.0
 13
-45.754417419433594
 23
36.78996276855469
 33
144.0
  0
3DFACE
  8
0
 10
-47.83241653442383
 20
37.655452728271484
 30
144.0
 11
-47.08135986328125
 21
37.24261474609375
 31
144.0
 12
-47.05234146118164
 22
37.22755813598633
 32
144.0
 13
-47.05234146118164
 23
37.22755813598633
 33
144.0
  0
3DFACE
  8
0
 10
-48.92514419555664
 20
38.40598678588867
 30
144.0
 11
-48.84569549560547
 21
38.344642639160156
 31
144.0
 12
-48.7338981628418
 22
38.272071838378906
 32
144.0
 13
-48.7338981628418
 23
38.272071838378906
 33
144.0
  0
3DFACE
  8
0
 10
-48.7338981628418
 20
38.272071838378906
 30
144.0
 11
-47.83241653442383
 21
37.655452728271484
 31
144.0
 12
-47.05234146118164
 22
37.22755813598633
 32
144.0
 13
-47.05234146118164
 23
37.22755813598633
 33
144.0
  0
3DFACE
  8
0
 10
-47.05234146118164
 20
37.22755813598633
 30
144.0
 11
-45.754417419433594
 21
36.78996276855469
 31
144.0
 12
-42.20034408569336
 22
36.39841079711914
 32
144.0
 13
-42.20034408569336
 23
36.39841079711914
 33
144.0
  0
3DFACE
  8
0
 10
-42.20034408569336
 20
36.39841079711914
 30
144.0
 11
-38.15019607543945
 21
38.09375
 31
144.0
 12
-44.2159423828125
 22
55.12704849243164
 32
144.0
 13
-44.2159423828125
 23
55.12704849243164
 33
144.0
  0
3DFACE
  8
0
 10
-44.2159423828125
 20
55.12704849243164
 30
144.0
 11
-47.245296478271484
 21
54.5436897277832
 31
144.0
 12
-48.454105377197266
 22
53.89447784423828
 32
144.0
 13
-48.454105377197266
 23
53.89447784423828
 33
144.0
  0
3DFACE
  8
0
 10
-48.454105377197266
 20
53.89447784423828
 30
144.0
 11
-49.31999588012695
 21
53.22162628173828
 31
144.0
 12
-50.525718688964844
 22
52.11713409423828
 32
144.0
 13
-50.525718688964844
 23
52.11713409423828
 33
144.0
  0
3DFACE
  8
0
 10
-50.525718688964844
 20
52.11713409423828
 30
144.0
 11
-50.54700469970703
 21
52.09524154663086
 31
144.0
 12
-50.89731979370117
 22
51.69020080566406
 32
144.0
 13
-50.89731979370117
 23
51.69020080566406
 33
144.0
  0
3DFACE
  8
0
 10
-50.89731979370117
 20
51.69020080566406
 30
144.0
 11
-51.22471618652344
 21
51.28693771362305
 31
144.0
 12
-51.58493423461914
 22
50.82920455932617
 32
144.0
 13
-51.58493423461914
 23
50.82920455932617
 33
144.0
  0
3DFACE
  8
0
 10
-51.58493423461914
 20
50.82920455932617
 30
144.0
 11
-52.01971435546875
 21
50.157413482666016
 31
144.0
 12
-52.27755355834961
 22
49.70214080810547
 32
144.0
 13
-52.27755355834961
 23
49.70214080810547
 33
144.0
  0
3DFACE
  8
0
 10
-52.27755355834961
 20
49.70214080810547
 30
144.0
 11
-52.44346237182617
 21
49.36701583862305
 31
144.0
 12
-52.62810134887695
 22
48.869754791259766
 32
144.0
 13
-52.62810134887695
 23
48.869754791259766
 33
144.0
  0
3DFACE
  8
0
 10
-52.62810134887695
 20
48.869754791259766
 30
144.0
 11
-52.77520751953125
 21
48.41939163208008
 31
144.0
 12
-52.83578872680664
 22
48.206947326660156
 32
144.0
 13
-52.83578872680664
 23
48.206947326660156
 33
144.0
  0
3DFACE
  8
0
 10
-53.01289367675781
 20
47.267940521240234
 30
144.0
 11
-53.01793670654297
 21
47.24330139160156
 31
144.0
 12
-53.020320892333984
 22
47.222618103027344
 32
144.0
 13
-53.020320892333984
 23
47.222618103027344
 33
144.0
  0
3DFACE
  8
0
 10
-52.62810134887695
 20
48.869754791259766
 30
144.0
 11
-52.83578872680664
 21
48.206947326660156
 31
144.0
 12
-53.01289367675781
 22
47.267940521240234
 32
144.0
 13
-53.01289367675781
 23
47.267940521240234
 33
144.0
  0
3DFACE
  8
0
 10
-51.58493423461914
 20
50.82920455932617
 30
144.0
 11
-52.27755355834961
 21
49.70214080810547
 31
144.0
 12
-52.62810134887695
 22
48.869754791259766
 32
144.0
 13
-52.62810134887695
 23
48.869754791259766
 33
144.0
  0
3DFACE
  8
0
 10
-50.525718688964844
 20
52.11713409423828
 30
144.0
 11
-50.89731979370117
 21
51.69020080566406
 31
144.0
 12
-51.58493423461914
 22
50.82920455932617
 32
144.0
 13
-51.58493423461914
 23
50.82920455932617
 33
144.0
  0
3DFACE
  8
0
 10
-44.2159423828125
 20
55.12704849243164
 30
144.0
 11
-48.454105377197266
 21
53.89447784423828
 31
144.0
 12
-50.525718688964844
 22
52.11713409423828
 32
144.0
 13
-50.525718688964844
 23
52.11713409423828
 33
144.0
  0
3DFACE
  8
0
 10
-47.05234146118164
 20
37.22755813598633
 30
144.0
 11
-42.20034408569336
 21
36.39841079711914
 31
144.0
 12
-44.2159423828125
 22
55.12704849243164
 32
144.0
 13
-44.2159423828125
 23
55.12704849243164
 33
144.0
  0
3DFACE
  8
0
 10
-48.92514419555664
 20
38.40598678588867
 30
144.0
 11
-48.7338981628418
 21
38.272071838378906
 31
144.0
 12
-47.05234146118164
 22
37.22755813598633
 32
144.0
 13
-47.05234146118164
 23
37.22755813598633
 33
144.0
  0
3DFACE
  8
0
 10
-50.43456268310547
 20
39.72805404663086
 30
144.0
 11
-49.75955581665039
 21
39.0999870300293
 31
144.0
 12
-48.92514419555664
 22
38.40598678588867
 32
144.0
 13
-48.92514419555664
 23
38.40598678588867
 33
144.0
  0
3DFACE
  8
0
 10
-50.51076889038086
 20
39.79733657836914
 30
144.0
 11
-50.487274169921875
 21
39.774017333984375
 31
144.0
 12
-50.43456268310547
 22
39.72805404663086
 32
144.0
 13
-50.43456268310547
 23
39.72805404663086
 33
144.0
  0
3DFACE
  8
0
 10
-51.382484436035156
 20
40.79545974731445
 30
144.0
 11
-50.55082702636719
 21
39.840335845947266
 31
144.0
 12
-50.51076889038086
 22
39.79733657836914
 32
144.0
 13
-50.51076889038086
 23
39.79733657836914
 33
144.0
  0
3DFACE
  8
0
 10
-51.875083923339844
 20
41.50373840332031
 30
144.0
 11
-51.54854965209961
 21
41.01025390625
 31
144.0
 12
-51.382484436035156
 22
40.79545974731445
 32
144.0
 13
-51.382484436035156
 23
40.79545974731445
 33
144.0
  0
3DFACE
  8
0
 10
-51.98160171508789
 20
41.6722412109375
 30
144.0
 11
-51.96076583862305
 21
41.62928771972656
 31
144.0
 12
-51.875083923339844
 22
41.50373840332031
 32
144.0
 13
-51.875083923339844
 23
41.50373840332031
 33
144.0
  0
3DFACE
  8
0
 10
-52.561279296875
 20
42.93981170654297
 30
144.0
 11
-52.3726692199707
 21
42.44062805175781
 31
144.0
 12
-51.98160171508789
 22
41.6722412109375
 32
144.0
 13
-51.98160171508789
 23
41.6722412109375
 33
144.0
  0
3DFACE
  8
0
 10
-52.84611511230469
 20
43.8969612121582
 30
144.0
 11
-52.69122314453125
 21
43.24517822265625
 31
144.0
 12
-52.561279296875
 22
42.93981170654297
 32
144.0
 13
-52.561279296875
 23
42.93981170654297
 33
144.0
  0
3DFACE
  8
0
 10
-52.887752532958984
 20
44.11183166503906
 30
144.0
 11
-52.87926483154297
 21
44.04973220825195
 31
144.0
 12
-52.84611511230469
 22
43.8969612121582
 32
144.0
 13
-52.84611511230469
 23
43.8969612121582
 33
144.0
  0
3DFACE
  8
0
 10
-53.05722427368164
 20
45.2294921875
 30
144.0
 11
-53.0473747253418
 21
44.85771179199219
 31
144.0
 12
-52.887752532958984
 22
44.11183166503906
 32
144.0
 13
-52.887752532958984
 23
44.11183166503906
 33
144.0
  0
3DFACE
  8
0
 10
-53.10807800292969
 20
46.463382720947266
 30
144.0
 11
-53.1014289855957
 21
45.9185905456543
 31
144.0
 12
-53.05722427368164
 22
45.2294921875
 32
144.0
 13
-53.05722427368164
 23
45.2294921875
 33
144.0
  0
3DFACE
  8
0
 10
-53.020320892333984
 20
47.222618103027344
 30
144.0
 11
-53.094032287597656
 21
46.65135192871094
 31
144.0
 12
-53.10807800292969
 22
46.463382720947266
 32
144.0
 13
-53.10807800292969
 23
46.463382720947266
 33
144.0
  0
3DFACE
  8
0
 10
-52.62810134887695
 20
48.869754791259766
 30
144.0
 11
-53.01289367675781
 21
47.267940521240234
 31
144.0
 12
-53.020320892333984
 22
47.222618103027344
 32
144.0
 13
-53.020320892333984
 23
47.222618103027344
 33
144.0
  0
3DFACE
  8
0
 10
-50.525718688964844
 20
52.11713409423828
 30
144.0
 11
-51.58493423461914
 21
50.82920455932617
 31
144.0
 12
-52.62810134887695
 22
48.869754791259766
 32
144.0
 13
-52.62810134887695
 23
48.869754791259766
 33
144.0
  0
3DFACE
  8
0
 10
-47.05234146118164
 20
37.22755813598633
 30
144.0
 11
-44.2159423828125
 21
55.12704849243164
 31
144.0
 12
-50.525718688964844
 22
52.11713409423828
 32
144.0
 13
-50.525718688964844
 23
52.11713409423828
 33
144.0
  0
3DFACE
  8
0
 10
-50.43456268310547
 20
39.72805404663086
 30
144.0
 11
-48.92514419555664
 21
38.40598678588867
 31
144.0
 12
-47.05234146118164
 22
37.22755813598633
 32
144.0
 13
-47.05234146118164
 23
37.22755813598633
 33
144.0
  0
3DFACE
  8
0
 10
-51.382484436035156
 20
40.79545974731445
 30
144.0
 11
-50.51076889038086
 21
39.79733657836914
 31
144.0
 12
-50.43456268310547
 22
39.72805404663086
 32
144.0
 13
-50.43456268310547
 23
39.72805404663086
 33
144.0
  0
3DFACE
  8
0
 10
-51.98160171508789
 20
41.6722412109375
 30
144.0
 11
-51.875083923339844
 21
41.50373840332031
 31
144.0
 12
-51.382484436035156
 22
40.79545974731445
 32
144.0
 13
-51.382484436035156
 23
40.79545974731445
 33
144.0
  0
3DFACE
  8
0
 10
-52.84611511230469
 20
43.8969612121582
 30
144.0
 11
-52.561279296875
 21
42.93981170654297
 31
144.0
 12
-51.98160171508789
 22
41.6722412109375
 32
144.0
 13
-51.98160171508789
 23
41.6722412109375
 33
144.0
  0
3DFACE
  8
0
 10
-53.05722427368164
 20
45.2294921875
 30
144.0
 11
-52.887752532958984
 21
44.11183166503906
 31
144.0
 12
-52.84611511230469
 22
43.8969612121582
 32
144.0
 13
-52.84611511230469
 23
43.8969612121582
 33
144.0
  0
3DFACE
  8
0
 10
-53.020320892333984
 20
47.222618103027344
 30
144.0
 11
-53.10807800292969
 21
46.463382720947266
 31
144.0
 12
-53.05722427368164
 22
45.2294921875
 32
144.0
 13
-53.05722427368164
 23
45.2294921875
 33
144.0
  0
3DFACE
  8
0
 10
-50.525718688964844
 20
52.11713409423828
 30
144.0
 11
-52.62810134887695
 21
48.869754791259766
 31
144.0
 12
-53.020320892333984
 22
47.222618103027344
 32
144.0
 13
-53.020320892333984
 23
47.222618103027344
 33
144.0
  0
3DFACE
  8
0
 10
-50.43456268310547
 20
39.72805404663086
 30
144.0
 11
-47.05234146118164
 21
37.22755813598633
 31
144.0
 12
-50.525718688964844
 22
52.11713409423828
 32
144.0
 13
-50.525718688964844
 23
52.11713409423828
 33
144.0
  0
3DFACE
  8
0
 10
-51.98160171508789
 20
41.6722412109375
 30
144.0
 11
-51.382484436035156
 21
40.79545974731445
 31
144.0
 12
-50.43456268310547
 22
39.72805404663086
 32
144.0
 13
-50.43456268310547
 23
39.72805404663086
 33
144.0
  0
3DFACE
  8
0
 10
-53.05722427368164
 20
45.2294921875
 30
144.0
 11
-52.84611511230469
 21
43.8969612121582
 31
144.0
 12
-51.98160171508789
 22
41.6722412109375
 32
144.0
 13
-51.98160171508789
 23
41.6722412109375
 33
144.0
  0
3DFACE
  8
0
 10
-50.525718688964844
 20
52.11713409423828
 30
144.0
 11
-53.020320892333984
 21
47.222618103027344
 31
144.0
 12
-53.05722427368164
 22
45.2294921875
 32
144.0
 13
-53.05722427368164
 23
45.2294921875
 33
144.0
  0
3DFACE
  8
0
 10
-51.98160171508789
 20
41.6722412109375
 30
144.0
 11
-50.43456268310547
 21
39.72805404663086
 31
144.0
 12
-50.525718688964844
 22
52.11713409423828
 32
144.0
 13
-50.525718688964844
 23
52.11713409423828
 33
144.0
  0
3DFACE
  8
0
 10
-50.525718688964844
 20
52.11713409423828
 30
144.0
 11
-53.05722427368164
 21
45.2294921875
 31
144.0
 12
-51.98160171508789
 22
41.6722412109375
 32
144.0
 13
-51.98160171508789
 23
41.6722412109375
 33
144.0
  0
3DFACE
  8
0
 10
27.281837463378906
 20
52.4703369140625
 30
144.0
 11
27.29646110534668
 21
52.44257354736328
 31
144.0
 12
27.31744384765625
 22
52.40674591064453
 32
144.0
 13
27.31744384765625
 23
52.40674591064453
 33
144.0
  0
3DFACE
  8
0
 10
27.31744384765625
 20
52.40674591064453
 30
144.0
 11
27.832584381103516
 21
51.682159423828125
 31
144.0
 12
28.058813095092773
 22
51.4025993347168
 32
144.0
 13
28.058813095092773
 23
51.4025993347168
 33
144.0
  0
3DFACE
  8
0
 10
28.058813095092773
 20
51.4025993347168
 30
144.0
 11
28.638813018798828
 21
50.895023345947266
 31
144.0
 12
28.817588806152344
 22
50.753047943115234
 32
144.0
 13
28.817588806152344
 23
50.753047943115234
 33
144.0
  0
3DFACE
  8
0
 10
29.054719924926758
 20
50.65411376953125
 30
144.0
 11
29.59134864807129
 21
50.40861511230469
 31
144.0
 12
29.806386947631836
 22
50.33216094970703
 32
144.0
 13
29.806386947631836
 23
50.33216094970703
 33
144.0
  0
3DFACE
  8
0
 10
28.058813095092773
 20
51.4025993347168
 30
144.0
 11
28.817588806152344
 21
50.753047943115234
 31
144.0
 12
29.054719924926758
 22
50.65411376953125
 32
144.0
 13
29.054719924926758
 23
50.65411376953125
 33
144.0
  0
3DFACE
  8
0
 10
27.281837463378906
 20
52.4703369140625
 30
144.0
 11
27.31744384765625
 21
52.40674591064453
 31
144.0
 12
28.058813095092773
 22
51.4025993347168
 32
144.0
 13
28.058813095092773
 23
51.4025993347168
 33
144.0
  0
3DFACE
  8
0
 10
26.222068786621094
 20
54.814598083496094
 30
144.0
 11
26.54029655456543
 21
53.9776611328125
 31
144.0
 12
27.281837463378906
 22
52.4703369140625
 32
144.0
 13
27.281837463378906
 23
52.4703369140625
 33
144.0
  0
3DFACE
  8
0
 10
26.217700958251953
 20
54.83012008666992
 30
144.0
 11
26.2202091217041
 21
54.82080841064453
 31
144.0
 12
26.222068786621094
 22
54.814598083496094
 32
144.0
 13
26.222068786621094
 23
54.814598083496094
 33
144.0
  0
3DFACE
  8
0
 10
25.908096313476562
 20
55.91008377075195
 30
144.0
 11
26.005809783935547
 21
55.490230560302734
 31
144.0
 12
26.11762237548828
 22
55.1740608215332
 32
144.0
 13
26.11762237548828
 23
55.1740608215332
 33
144.0
  0
3DFACE
  8
0
 10
26.217700958251953
 20
54.83012008666992
 30
144.0
 11
26.222068786621094
 21
54.814598083496094
 31
144.0
 12
27.281837463378906
 22
52.4703369140625
 32
144.0
 13
27.281837463378906
 23
52.4703369140625
 33
144.0
  0
3DFACE
  8
0
 10
25.908096313476562
 20
55.91008377075195
 30
144.0
 11
26.11762237548828
 21
55.1740608215332
 31
144.0
 12
26.217700958251953
 22
54.83012008666992
 32
144.0
 13
26.217700958251953
 23
54.83012008666992
 33
144.0
  0
3DFACE
  8
0
 10
25.899364471435547
 20
55.948326110839844
 30
144.0
 11
25.903989791870117
 21
55.926273345947266
 31
144.0
 12
25.908096313476562
 22
55.91008377075195
 32
144.0
 13
25.908096313476562
 23
55.91008377075195
 33
144.0
  0
3DFACE
  8
0
 10
25.740013122558594
 20
56.724998474121094
 30
144.0
 11
25.796567916870117
 21
56.40498733520508
 31
144.0
 12
25.899364471435547
 22
55.948326110839844
 32
144.0
 13
25.899364471435547
 23
55.948326110839844
 33
144.0
  0
3DFACE
  8
0
 10
25.72287368774414
 20
57.0134391784668
 30
144.0
 11
25.719324111938477
 21
56.866233825683594
 31
144.0
 12
25.740013122558594
 22
56.724998474121094
 32
144.0
 13
25.740013122558594
 23
56.724998474121094
 33
144.0
  0
3DFACE
  8
0
 10
25.705127716064453
 20
57.97925567626953
 30
144.0
 11
25.693294525146484
 21
57.52278518676758
 31
144.0
 12
25.72287368774414
 22
57.0134391784668
 32
144.0
 13
25.72287368774414
 23
57.0134391784668
 33
144.0
  0
3DFACE
  8
0
 10
25.778047561645508
 20
58.80942153930664
 30
144.0
 11
25.704776763916016
 21
58.17207336425781
 31
144.0
 12
25.705127716064453
 22
57.97925567626953
 32
144.0
 13
25.705127716064453
 23
57.97925567626953
 33
144.0
  0
3DFACE
  8
0
 10
25.89883041381836
 20
59.43756103515625
 30
144.0
 11
25.83243751525879
 21
59.140647888183594
 31
144.0
 12
25.778047561645508
 22
58.80942153930664
 32
144.0
 13
25.778047561645508
 23
58.80942153930664
 33
144.0
  0
3DFACE
  8
0
 10
26.068330764770508
 20
60.021034240722656
 30
144.0
 11
25.930679321289062
 21
59.55352783203125
 31
144.0
 12
25.89883041381836
 22
59.43756103515625
 32
144.0
 13
25.89883041381836
 23
59.43756103515625
 33
144.0
  0
3DFACE
  8
0
 10
26.28350830078125
 20
60.66617202758789
 30
144.0
 11
26.236448287963867
 21
60.523746490478516
 31
144.0
 12
26.169153213500977
 22
60.30498123168945
 32
144.0
 13
26.169153213500977
 23
60.30498123168945
 33
144.0
  0
3DFACE
  8
0
 10
26.169153213500977
 20
60.30498123168945
 30
144.0
 11
26.068330764770508
 21
60.021034240722656
 31
144.0
 12
25.89883041381836
 22
59.43756103515625
 32
144.0
 13
25.89883041381836
 23
59.43756103515625
 33
144.0
  0
3DFACE
  8
0
 10
25.89883041381836
 20
59.43756103515625
 30
144.0
 11
25.778047561645508
 21
58.80942153930664
 31
144.0
 12
25.705127716064453
 22
57.97925567626953
 32
144.0
 13
25.705127716064453
 23
57.97925567626953
 33
144.0
  0
3DFACE
  8
0
 10
25.705127716064453
 20
57.97925567626953
 30
144.0
 11
25.72287368774414
 21
57.0134391784668
 31
144.0
 12
25.740013122558594
 22
56.724998474121094
 32
144.0
 13
25.740013122558594
 23
56.724998474121094
 33
144.0
  0
3DFACE
  8
0
 10
25.740013122558594
 20
56.724998474121094
 30
144.0
 11
25.899364471435547
 21
55.948326110839844
 31
144.0
 12
25.908096313476562
 22
55.91008377075195
 32
144.0
 13
25.908096313476562
 23
55.91008377075195
 33
144.0
  0
3DFACE
  8
0
 10
25.908096313476562
 20
55.91008377075195
 30
144.0
 11
26.217700958251953
 21
54.83012008666992
 31
144.0
 12
27.281837463378906
 22
52.4703369140625
 32
144.0
 13
27.281837463378906
 23
52.4703369140625
 33
144.0
  0
3DFACE
  8
0
 10
27.281837463378906
 20
52.4703369140625
 30
144.0
 11
28.058813095092773
 21
51.4025993347168
 31
144.0
 12
29.054719924926758
 22
50.65411376953125
 32
144.0
 13
29.054719924926758
 23
50.65411376953125
 33
144.0
  0
3DFACE
  8
0
 10
29.054719924926758
 20
50.65411376953125
 30
144.0
 11
29.806386947631836
 21
50.33216094970703
 31
144.0
 12
30.368877410888672
 22
50.15929412841797
 32
144.0
 13
30.368877410888672
 23
50.15929412841797
 33
144.0
  0
3DFACE
  8
0
 10
30.368877410888672
 20
50.15929412841797
 30
144.0
 11
30.38524055480957
 21
50.15470504760742
 31
144.0
 12
31.0471134185791
 22
50.03641891479492
 32
144.0
 13
31.0471134185791
 23
50.03641891479492
 33
144.0
  0
3DFACE
  8
0
 10
31.153791427612305
 20
50.023773193359375
 30
144.0
 11
31.719974517822266
 21
49.93875503540039
 31
144.0
 12
31.93927574157715
 22
49.918113708496094
 32
144.0
 13
31.93927574157715
 23
49.918113708496094
 33
144.0
  0
3DFACE
  8
0
 10
30.368877410888672
 20
50.15929412841797
 30
144.0
 11
31.0471134185791
 21
50.03641891479492
 31
144.0
 12
31.153791427612305
 22
50.023773193359375
 32
144.0
 13
31.153791427612305
 23
50.023773193359375
 33
144.0
  0
3DFACE
  8
0
 10
27.281837463378906
 20
52.4703369140625
 30
144.0
 11
29.054719924926758
 21
50.65411376953125
 31
144.0
 12
30.368877410888672
 22
50.15929412841797
 32
144.0
 13
30.368877410888672
 23
50.15929412841797
 33
144.0
  0
3DFACE
  8
0
 10
25.740013122558594
 20
56.724998474121094
 30
144.0
 11
25.908096313476562
 21
55.91008377075195
 31
144.0
 12
27.281837463378906
 22
52.4703369140625
 32
144.0
 13
27.281837463378906
 23
52.4703369140625
 33
144.0
  0
3DFACE
  8
0
 10
25.89883041381836
 20
59.43756103515625
 30
144.0
 11
25.705127716064453
 21
57.97925567626953
 31
144.0
 12
25.740013122558594
 22
56.724998474121094
 32
144.0
 13
25.740013122558594
 23
56.724998474121094
 33
144.0
  0
3DFACE
  8
0
 10
26.28350830078125
 20
60.66617202758789
 30
144.0
 11
26.169153213500977
 21
60.30498123168945
 31
144.0
 12
25.89883041381836
 22
59.43756103515625
 32
144.0
 13
25.89883041381836
 23
59.43756103515625
 33
144.0
  0
3DFACE
  8
0
 10
26.894514083862305
 20
61.98741149902344
 30
144.0
 11
26.328868865966797
 21
60.778079986572266
 31
144.0
 12
26.28350830078125
 22
60.66617202758789
 32
144.0
 13
26.28350830078125
 23
60.66617202758789
 33
144.0
  0
3DFACE
  8
0
 10
27.621076583862305
 20
63.065093994140625
 30
144.0
 11
27.155202865600586
 21
62.42506408691406
 31
144.0
 12
26.894514083862305
 22
61.98741149902344
 32
144.0
 13
26.894514083862305
 23
61.98741149902344
 33
144.0
  0
3DFACE
  8
0
 10
28.305221557617188
 20
63.793975830078125
 30
144.0
 11
27.993677139282227
 21
63.48763656616211
 31
144.0
 12
27.621076583862305
 22
63.065093994140625
 32
144.0
 13
27.621076583862305
 23
63.065093994140625
 33
144.0
  0
3DFACE
  8
0
 10
29.461706161499023
 20
64.67384338378906
 30
144.0
 11
28.67491340637207
 21
64.14154052734375
 31
144.0
 12
28.305221557617188
 22
63.793975830078125
 32
144.0
 13
28.305221557617188
 23
63.793975830078125
 33
144.0
  0
3DFACE
  8
0
 10
30.498592376708984
 20
65.28218078613281
 30
144.0
 11
30.317617416381836
 21
65.20242309570312
 31
144.0
 12
29.777156829833984
 22
64.86187744140625
 32
144.0
 13
29.777156829833984
 23
64.86187744140625
 33
144.0
  0
3DFACE
  8
0
 10
29.777156829833984
 20
64.86187744140625
 30
144.0
 11
29.461706161499023
 21
64.67384338378906
 31
144.0
 12
28.305221557617188
 22
63.793975830078125
 32
144.0
 13
28.305221557617188
 23
63.793975830078125
 33
144.0
  0
3DFACE
  8
0
 10
28.305221557617188
 20
63.793975830078125
 30
144.0
 11
27.621076583862305
 21
63.065093994140625
 31
144.0
 12
26.894514083862305
 22
61.98741149902344
 32
144.0
 13
26.894514083862305
 23
61.98741149902344
 33
144.0
  0
3DFACE
  8
0
 10
26.894514083862305
 20
61.98741149902344
 30
144.0
 11
26.28350830078125
 21
60.66617202758789
 31
144.0
 12
25.89883041381836
 22
59.43756103515625
 32
144.0
 13
25.89883041381836
 23
59.43756103515625
 33
144.0
  0
3DFACE
  8
0
 10
25.89883041381836
 20
59.43756103515625
 30
144.0
 11
25.740013122558594
 21
56.724998474121094
 31
144.0
 12
27.281837463378906
 22
52.4703369140625
 32
144.0
 13
27.281837463378906
 23
52.4703369140625
 33
144.0
  0
3DFACE
  8
0
 10
27.281837463378906
 20
52.4703369140625
 30
144.0
 11
30.368877410888672
 21
50.15929412841797
 31
144.0
 12
31.153791427612305
 22
50.023773193359375
 32
144.0
 13
31.153791427612305
 23
50.023773193359375
 33
144.0
  0
3DFACE
  8
0
 10
31.153791427612305
 20
50.023773193359375
 30
144.0
 11
31.93927574157715
 21
49.918113708496094
 31
144.0
 12
32.42507553100586
 22
49.90666580200195
 32
144.0
 13
32.42507553100586
 23
49.90666580200195
 33
144.0
  0
3DFACE
  8
0
 10
32.7299690246582
 20
49.91853332519531
 30
144.0
 11
32.94840621948242
 21
49.92099380493164
 31
144.0
 12
33.52167892456055
 22
49.93994903564453
 32
144.0
 13
33.52167892456055
 23
49.93994903564453
 33
144.0
  0
3DFACE
  8
0
 10
31.153791427612305
 20
50.023773193359375
 30
144.0
 11
32.42507553100586
 21
49.90666580200195
 31
144.0
 12
32.7299690246582
 22
49.91853332519531
 32
144.0
 13
32.7299690246582
 23
49.91853332519531
 33
144.0
  0
3DFACE
  8
0
 10
25.89883041381836
 20
59.43756103515625
 30
144.0
 11
27.281837463378906
 21
52.4703369140625
 31
144.0
 12
31.153791427612305
 22
50.023773193359375
 32
144.0
 13
31.153791427612305
 23
50.023773193359375
 33
144.0
  0
3DFACE
  8
0
 10
28.305221557617188
 20
63.793975830078125
 30
144.0
 11
26.894514083862305
 21
61.98741149902344
 31
144.0
 12
25.89883041381836
 22
59.43756103515625
 32
144.0
 13
25.89883041381836
 23
59.43756103515625
 33
144.0
  0
3DFACE
  8
0
 10
30.498592376708984
 20
65.28218078613281
 30
144.0
 11
29.777156829833984
 21
64.86187744140625
 31
144.0
 12
28.305221557617188
 22
63.793975830078125
 32
144.0
 13
28.305221557617188
 23
63.793975830078125
 33
144.0
  0
3DFACE
  8
0
 10
31.83957290649414
 20
65.75808715820312
 30
144.0
 11
31.124513626098633
 21
65.53292846679688
 31
144.0
 12
30.498592376708984
 22
65.28218078613281
 32
144.0
 13
30.498592376708984
 23
65.28218078613281
 33
144.0
  0
3DFACE
  8
0
 10
31.927343368530273
 20
65.78070831298828
 30
144.0
 11
31.890188217163086
 21
65.77242279052734
 31
144.0
 12
31.83957290649414
 22
65.75808715820312
 32
144.0
 13
31.83957290649414
 23
65.75808715820312
 33
144.0
  0
3DFACE
  8
0
 10
32.797603607177734
 20
65.88709259033203
 30
144.0
 11
32.721107482910156
 21
65.88086700439453
 31
144.0
 12
31.927343368530273
 22
65.78070831298828
 32
144.0
 13
31.927343368530273
 23
65.78070831298828
 33
144.0
  0
3DFACE
  8
0
 10
34.28056716918945
 20
65.82818603515625
 30
144.0
 11
33.17194366455078
 21
65.8963394165039
 31
144.0
 12
32.797603607177734
 22
65.88709259033203
 32
144.0
 13
32.797603607177734
 23
65.88709259033203
 33
144.0
  0
3DFACE
  8
0
 10
35.08428192138672
 20
65.66410064697266
 30
144.0
 11
34.30153274536133
 21
65.82511138916016
 31
144.0
 12
34.28056716918945
 22
65.82818603515625
 32
144.0
 13
34.28056716918945
 23
65.82818603515625
 33
144.0
  0
3DFACE
  8
0
 10
36.6363525390625
 20
65.06769561767578
 30
144.0
 11
35.775699615478516
 21
65.43768310546875
 31
144.0
 12
35.28703689575195
 22
65.58971405029297
 32
144.0
 13
35.28703689575195
 23
65.58971405029297
 33
144.0
  0
3DFACE
  8
0
 10
35.28703689575195
 20
65.58971405029297
 30
144.0
 11
35.08428192138672
 21
65.66410064697266
 31
144.0
 12
34.28056716918945
 22
65.82818603515625
 32
144.0
 13
34.28056716918945
 23
65.82818603515625
 33
144.0
  0
3DFACE
  8
0
 10
34.28056716918945
 20
65.82818603515625
 30
144.0
 11
32.797603607177734
 21
65.88709259033203
 31
144.0
 12
31.927343368530273
 22
65.78070831298828
 32
144.0
 13
31.927343368530273
 23
65.78070831298828
 33
144.0
  0
3DFACE
  8
0
 10
31.927343368530273
 20
65.78070831298828
 30
144.0
 11
31.83957290649414
 21
65.75808715820312
 31
144.0
 12
30.498592376708984
 22
65.28218078613281
 32
144.0
 13
30.498592376708984
 23
65.28218078613281
 33
144.0
  0
3DFACE
  8
0
 10
30.498592376708984
 20
65.28218078613281
 30
144.0
 11
28.305221557617188
 21
63.793975830078125
 31
144.0
 12
25.89883041381836
 22
59.43756103515625
 32
144.0
 13
25.89883041381836
 23
59.43756103515625
 33
144.0
  0
3DFACE
  8
0
 10
25.89883041381836
 20
59.43756103515625
 30
144.0
 11
31.153791427612305
 21
50.023773193359375
 31
144.0
 12
32.7299690246582
 22
49.91853332519531
 32
144.0
 13
32.7299690246582
 23
49.91853332519531
 33
144.0
  0
3DFACE
  8
0
 10
32.7299690246582
 20
49.91853332519531
 30
144.0
 11
33.52167892456055
 21
49.93994903564453
 31
144.0
 12
33.913448333740234
 22
50.01099395751953
 32
144.0
 13
33.913448333740234
 23
50.01099395751953
 33
144.0
  0
3DFACE
  8
0
 10
33.913448333740234
 20
50.01099395751953
 30
144.0
 11
34.31974792480469
 21
50.09076690673828
 31
144.0
 12
34.45924377441406
 22
50.134132385253906
 32
144.0
 13
34.45924377441406
 23
50.134132385253906
 33
144.0
  0
3DFACE
  8
0
 10
34.45924377441406
 20
50.134132385253906
 30
144.0
 11
35.12480163574219
 21
50.31498718261719
 31
144.0
 12
35.423095703125
 22
50.43780517578125
 32
144.0
 13
35.423095703125
 23
50.43780517578125
 33
144.0
  0
3DFACE
  8
0
 10
35.423095703125
 20
50.43780517578125
 30
144.0
 11
35.919281005859375
 21
50.704551696777344
 31
144.0
 12
36.324256896972656
 22
50.95598220825195
 32
144.0
 13
36.324256896972656
 23
50.95598220825195
 33
144.0
  0
3DFACE
  8
0
 10
36.324256896972656
 20
50.95598220825195
 30
144.0
 11
36.731021881103516
 21
51.22452163696289
 31
144.0
 12
37.037174224853516
 22
51.480995178222656
 32
144.0
 13
37.037174224853516
 23
51.480995178222656
 33
144.0
  0
3DFACE
  8
0
 10
37.037174224853516
 20
51.480995178222656
 30
144.0
 11
37.4017333984375
 21
51.77027893066406
 31
144.0
 12
37.57172775268555
 22
51.909568786621094
 32
144.0
 13
37.57172775268555
 23
51.909568786621094
 33
144.0
  0
3DFACE
  8
0
 10
38.070194244384766
 20
52.4271240234375
 30
144.0
 11
38.1366081237793
 21
52.489662170410156
 31
144.0
 12
38.228309631347656
 22
52.5992317199707
 32
144.0
 13
38.228309631347656
 23
52.5992317199707
 33
144.0
  0
3DFACE
  8
0
 10
37.037174224853516
 20
51.480995178222656
 30
144.0
 11
37.57172775268555
 21
51.909568786621094
 31
144.0
 12
38.070194244384766
 22
52.4271240234375
 32
144.0
 13
38.070194244384766
 23
52.4271240234375
 33
144.0
  0
3DFACE
  8
0
 10
35.423095703125
 20
50.43780517578125
 30
144.0
 11
36.324256896972656
 21
50.95598220825195
 31
144.0
 12
37.037174224853516
 22
51.480995178222656
 32
144.0
 13
37.037174224853516
 23
51.480995178222656
 33
144.0
  0
3DFACE
  8
0
 10
33.913448333740234
 20
50.01099395751953
 30
144.0
 11
34.45924377441406
 21
50.134132385253906
 31
144.0
 12
35.423095703125
 22
50.43780517578125
 32
144.0
 13
35.423095703125
 23
50.43780517578125
 33
144.0
  0
3DFACE
  8
0
 10
25.89883041381836
 20
59.43756103515625
 30
144.0
 11
32.7299690246582
 21
49.91853332519531
 31
144.0
 12
33.913448333740234
 22
50.01099395751953
 32
144.0
 13
33.913448333740234
 23
50.01099395751953
 33
144.0
  0
3DFACE
  8
0
 10
31.927343368530273
 20
65.78070831298828
 30
144.0
 11
30.498592376708984
 21
65.28218078613281
 31
144.0
 12
25.89883041381836
 22
59.43756103515625
 32
144.0
 13
25.89883041381836
 23
59.43756103515625
 33
144.0
  0
3DFACE
  8
0
 10
35.28703689575195
 20
65.58971405029297
 30
144.0
 11
34.28056716918945
 21
65.82818603515625
 31
144.0
 12
31.927343368530273
 22
65.78070831298828
 32
144.0
 13
31.927343368530273
 23
65.78070831298828
 33
144.0
  0
3DFACE
  8
0
 10
36.80026626586914
 20
64.97772216796875
 30
144.0
 11
36.6363525390625
 21
65.06769561767578
 31
144.0
 12
35.28703689575195
 22
65.58971405029297
 32
144.0
 13
35.28703689575195
 23
65.58971405029297
 33
144.0
  0
3DFACE
  8
0
 10
37.74047088623047
 20
64.2763671875
 30
144.0
 11
37.40308380126953
 21
64.58024597167969
 31
144.0
 12
36.80026626586914
 22
64.97772216796875
 32
144.0
 13
36.80026626586914
 23
64.97772216796875
 33
144.0
  0
3DFACE
  8
0
 10
38.46961212158203
 20
63.48923110961914
 30
144.0
 11
38.15830612182617
 21
63.858009338378906
 31
144.0
 12
37.74047088623047
 22
64.2763671875
 32
144.0
 13
37.74047088623047
 23
64.2763671875
 33
144.0
  0
3DFACE
  8
0
 10
39.00271987915039
 20
62.695640563964844
 30
144.0
 11
38.900753021240234
 21
62.87583923339844
 31
144.0
 12
38.46961212158203
 22
63.48923110961914
 32
144.0
 13
38.46961212158203
 23
63.48923110961914
 33
144.0
  0
3DFACE
  8
0
 10
39.57592010498047
 20
61.4991455078125
 30
144.0
 11
39.39794158935547
 21
61.91495132446289
 31
144.0
 12
39.11829376220703
 22
62.45994567871094
 32
144.0
 13
39.11829376220703
 23
62.45994567871094
 33
144.0
  0
3DFACE
  8
0
 10
39.11829376220703
 20
62.45994567871094
 30
144.0
 11
39.00271987915039
 21
62.695640563964844
 31
144.0
 12
38.46961212158203
 22
63.48923110961914
 32
144.0
 13
38.46961212158203
 23
63.48923110961914
 33
144.0
  0
3DFACE
  8
0
 10
38.46961212158203
 20
63.48923110961914
 30
144.0
 11
37.74047088623047
 21
64.2763671875
 31
144.0
 12
36.80026626586914
 22
64.97772216796875
 32
144.0
 13
36.80026626586914
 23
64.97772216796875
 33
144.0
  0
3DFACE
  8
0
 10
36.80026626586914
 20
64.97772216796875
 30
144.0
 11
35.28703689575195
 21
65.58971405029297
 31
144.0
 12
31.927343368530273
 22
65.78070831298828
 32
144.0
 13
31.927343368530273
 23
65.78070831298828
 33
144.0
  0
3DFACE
  8
0
 10
31.927343368530273
 20
65.78070831298828
 30
144.0
 11
25.89883041381836
 21
59.43756103515625
 31
144.0
 12
33.913448333740234
 22
50.01099395751953
 32
144.0
 13
33.913448333740234
 23
50.01099395751953
 33
144.0
  0
3DFACE
  8
0
 10
33.913448333740234
 20
50.01099395751953
 30
144.0
 11
35.423095703125
 21
50.43780517578125
 31
144.0
 12
37.037174224853516
 22
51.480995178222656
 32
144.0
 13
37.037174224853516
 23
51.480995178222656
 33
144.0
  0
3DFACE
  8
0
 10
37.037174224853516
 20
51.480995178222656
 30
144.0
 11
38.070194244384766
 21
52.4271240234375
 31
144.0
 12
38.228309631347656
 22
52.5992317199707
 32
144.0
 13
38.228309631347656
 23
52.5992317199707
 33
144.0
  0
3DFACE
  8
0
 10
38.228309631347656
 20
52.5992317199707
 30
144.0
 11
38.74448013305664
 21
53.25642776489258
 31
144.0
 12
38.9338493347168
 22
53.6374397277832
 32
144.0
 13
38.9338493347168
 23
53.6374397277832
 33
144.0
  0
3DFACE
  8
0
 10
38.9338493347168
 20
53.6374397277832
 30
144.0
 11
39.170989990234375
 21
54.019493103027344
 31
144.0
 12
39.5034294128418
 22
54.79605484008789
 32
144.0
 13
39.5034294128418
 23
54.79605484008789
 33
144.0
  0
3DFACE
  8
0
 10
39.5034294128418
 20
54.79605484008789
 30
144.0
 11
39.51955032348633
 21
54.83070373535156
 31
144.0
 12
39.54623794555664
 22
54.900875091552734
 32
144.0
 13
39.54623794555664
 23
54.900875091552734
 33
144.0
  0
3DFACE
  8
0
 10
39.54623794555664
 20
54.900875091552734
 30
144.0
 11
39.78893280029297
 21
55.61784744262695
 31
144.0
 12
39.96776580810547
 22
56.395668029785156
 32
144.0
 13
39.96776580810547
 23
56.395668029785156
 33
144.0
  0
3DFACE
  8
0
 10
40.03665542602539
 20
56.93239212036133
 30
144.0
 11
40.08494186401367
 21
57.19212341308594
 31
144.0
 12
40.104496002197266
 22
57.34084701538086
 32
144.0
 13
40.104496002197266
 23
57.34084701538086
 33
144.0
  0
3DFACE
  8
0
 10
39.54623794555664
 20
54.900875091552734
 30
144.0
 11
39.96776580810547
 21
56.395668029785156
 31
144.0
 12
40.03665542602539
 22
56.93239212036133
 32
144.0
 13
40.03665542602539
 23
56.93239212036133
 33
144.0
  0
3DFACE
  8
0
 10
38.9338493347168
 20
53.6374397277832
 30
144.0
 11
39.5034294128418
 21
54.79605484008789
 31
144.0
 12
39.54623794555664
 22
54.900875091552734
 32
144.0
 13
39.54623794555664
 23
54.900875091552734
 33
144.0
  0
3DFACE
  8
0
 10
37.037174224853516
 20
51.480995178222656
 30
144.0
 11
38.228309631347656
 21
52.5992317199707
 31
144.0
 12
38.9338493347168
 22
53.6374397277832
 32
144.0
 13
38.9338493347168
 23
53.6374397277832
 33
144.0
  0
3DFACE
  8
0
 10
31.927343368530273
 20
65.78070831298828
 30
144.0
 11
33.913448333740234
 21
50.01099395751953
 31
144.0
 12
37.037174224853516
 22
51.480995178222656
 32
144.0
 13
37.037174224853516
 23
51.480995178222656
 33
144.0
  0
3DFACE
  8
0
 10
38.46961212158203
 20
63.48923110961914
 30
144.0
 11
36.80026626586914
 21
64.97772216796875
 31
144.0
 12
31.927343368530273
 22
65.78070831298828
 32
144.0
 13
31.927343368530273
 23
65.78070831298828
 33
144.0
  0
3DFACE
  8
0
 10
39.57592010498047
 20
61.4991455078125
 30
144.0
 11
39.11829376220703
 21
62.45994567871094
 31
144.0
 12
38.46961212158203
 22
63.48923110961914
 32
144.0
 13
38.46961212158203
 23
63.48923110961914
 33
144.0
  0
3DFACE
  8
0
 10
39.85401916503906
 20
60.63107681274414
 30
144.0
 11
39.650291442871094
 21
61.28993606567383
 31
144.0
 12
39.57592010498047
 22
61.4991455078125
 32
144.0
 13
39.57592010498047
 23
61.4991455078125
 33
144.0
  0
3DFACE
  8
0
 10
40.07960510253906
 20
59.312782287597656
 30
144.0
 11
39.97718048095703
 21
59.975765228271484
 31
144.0
 12
39.898319244384766
 22
60.34067153930664
 32
144.0
 13
39.898319244384766
 23
60.34067153930664
 33
144.0
  0
3DFACE
  8
0
 10
39.898319244384766
 20
60.34067153930664
 30
144.0
 11
39.85401916503906
 21
60.63107681274414
 31
144.0
 12
39.57592010498047
 22
61.4991455078125
 32
144.0
 13
39.57592010498047
 23
61.4991455078125
 33
144.0
  0
3DFACE
  8
0
 10
39.57592010498047
 20
61.4991455078125
 30
144.0
 11
38.46961212158203
 21
63.48923110961914
 31
144.0
 12
31.927343368530273
 22
65.78070831298828
 32
144.0
 13
31.927343368530273
 23
65.78070831298828
 33
144.0
  0
3DFACE
  8
0
 10
31.927343368530273
 20
65.78070831298828
 30
144.0
 11
37.037174224853516
 21
51.480995178222656
 31
144.0
 12
38.9338493347168
 22
53.6374397277832
 32
144.0
 13
38.9338493347168
 23
53.6374397277832
 33
144.0
  0
3DFACE
  8
0
 10
38.9338493347168
 20
53.6374397277832
 30
144.0
 11
39.54623794555664
 21
54.900875091552734
 31
144.0
 12
40.03665542602539
 22
56.93239212036133
 32
144.0
 13
40.03665542602539
 23
56.93239212036133
 33
144.0
  0
3DFACE
  8
0
 10
40.03665542602539
 20
56.93239212036133
 30
144.0
 11
40.104496002197266
 21
57.34084701538086
 31
144.0
 12
40.13402557373047
 22
57.98665237426758
 32
144.0
 13
40.13402557373047
 23
57.98665237426758
 33
144.0
  0
3DFACE
  8
0
 10
40.13402557373047
 20
57.98665237426758
 30
144.0
 11
40.07960510253906
 21
59.312782287597656
 31
144.0
 12
39.898319244384766
 22
60.34067153930664
 32
144.0
 13
39.898319244384766
 23
60.34067153930664
 33
144.0
  0
3DFACE
  8
0
 10
39.898319244384766
 20
60.34067153930664
 30
144.0
 11
39.57592010498047
 21
61.4991455078125
 31
144.0
 12
31.927343368530273
 22
65.78070831298828
 32
144.0
 13
31.927343368530273
 23
65.78070831298828
 33
144.0
  0
3DFACE
  8
0
 10
31.927343368530273
 20
65.78070831298828
 30
144.0
 11
38.9338493347168
 21
53.6374397277832
 31
144.0
 12
40.03665542602539
 22
56.93239212036133
 32
144.0
 13
40.03665542602539
 23
56.93239212036133
 33
144.0
  0
3DFACE
  8
0
 10
40.03665542602539
 20
56.93239212036133
 30
144.0
 11
40.13402557373047
 21
57.98665237426758
 31
144.0
 12
39.898319244384766
 22
60.34067153930664
 32
144.0
 13
39.898319244384766
 23
60.34067153930664
 33
144.0
  0
3DFACE
  8
0
 10
40.03665542602539
 20
56.93239212036133
 30
144.0
 11
39.898319244384766
 21
60.34067153930664
 31
144.0
 12
31.927343368530273
 22
65.78070831298828
 32
144.0
 13
31.927343368530273
 23
65.78070831298828
 33
144.0
  0
ENDSEC
  0
EOF
