  0
SECTION
  2
HEADER
  9
$ACADVER
  1
AC1009
  9
$INSBASE
 10
0.0
 20
0.0
 30
0.0
  9
$EXTMIN
 10
0.0
 20
0.0
 30
0.0
  9
$EXTMAX
 10
0.0
 20
0.0
 30
0.0
  0
ENDSEC
  0
SECTION
  2
TABLES
  0
TABLE
  2
VPORT
 70
1
  0
VPORT
  2
*ACTIVE
 70
0
 10
0.0
 20
0.0
 11
1.0
 21
1.0
 12
-5.0
 22
1.0
 13
0.0
 23
0.0
 14
0.1
 24
0.1
 15
0.1
 25
0.1
 16
0.0
 26
0.0
 36
1.0
 17
0.0
 27
0.0
 37
0.0
 40
10.0
 41
1.0
 42
50.0
 43
0.0
 44
0.0
 50
0.0
 51
0.0
 71
0
 72
100
 73
1
 74
1
 75
0
 76
0
 77
0
 78
0
  0
ENDTAB
  0
TABLE
  2
LTYPE
 70
8
  0
LTYPE
  2
CONTINUOUS
 70
0
  3
Solid line
 72
65
 73
0
 40
0.0
  0
LTYPE
  2
DOT
 70
0
  3
. . . . . . .
 72
65
 73
2
 40
0.25
 49
0.0
 49
-0.25
  0
LTYPE
  2
DASHED
 70
0
  3
__ __ __ __ __
 72
65
 73
2
 40
0.8
 49
0.5
 49
-0.3
  0
LTYPE
  2
DASHDOT
 70
0
  3
__ . __ . __ .
 72
65
 73
4
 40
1.0
 49
0.5
 49
-0.25
 49
0.0
 49
-0.25
  0
LTYPE
  2
DIVIDE
 70
0
  3
____ . . ____ . . 
 72
65
 73
6
 40
1.25
 49
0.5
 49
-0.25
 49
0.0
 49
-0.25
 49
0.0
 49
-0.25
  0
LTYPE
  2
BORDER
 70
0
  3
__ __ . __ __ . 
 72
65
 73
6
 40
1.75
 49
0.5
 49
-0.25
 49
0.5
 49
-0.25
 49
0.0
 49
-0.25
  0
LTYPE
  2
HIDDEN
 70
0
  3
__ __ __ __ __
 72
65
 73
2
 40
0.4
 49
0.25
 49
-0.25
  0
LTYPE
  2
CENTER
 70
0
  3
____ _ ____ _ __
 72
65
 73
4
 40
2.0
 49
1.25
 49
-0.25
 49
0.25
 49
-0.25
  0
ENDTAB
  0
TABLE
  2
LAYER
 70
1
  0
LAYER
  2
PYDXF
 70
64
 62
7
  6
continuous
  0
ENDTAB
  0
TABLE
  2
STYLE
 70
1
  0
STYLE
  2
STANDARD
 70
0
 40
0
 41
1.0
 50
0.0
 71
0
 42
1
 3
ARIAL.TTF
 4

  0
ENDTAB
  0
TABLE
  2
VIEW
 70
1
  0
VIEW
  2
BF_TOPVIEW
 70
0
 40
120.0
 10
0.0
 20
0.0
 41
200.0
 11
0.0
 21
0.0
 31
1.0
 12
0.0
 22
0.0
 32
0.0
 42
50.0
 43
0.0
 44
0.0
 50
0.0
 71
0
  0
ENDTAB
  0
ENDSEC
  0
SECTION
  2
BLOCKS
  0
ENDSEC
  0
SECTION
  2
ENTITIES
  0
3DFACE
  8
0
 10
-28.446365356445312
 20
-57.462135314941406
 30
146.0
 11
-28.281713485717773
 21
-57.92173767089844
 31
146.0
 12
-28.26658821105957
 22
-57.95829391479492
 32
146.0
 13
-28.26658821105957
 23
-57.95829391479492
 33
146.0
  0
3DFACE
  8
0
 10
-28.26658821105957
 20
-57.95829391479492
 30
146.0
 11
-27.80385398864746
 21
-58.736392974853516
 31
146.0
 12
-27.58589744567871
 22
-59.07688903808594
 32
146.0
 13
-27.58589744567871
 23
-59.07688903808594
 33
146.0
  0
3DFACE
  8
0
 10
-27.58589744567871
 20
-59.07688903808594
 30
146.0
 11
-26.97138023376465
 21
-59.777217864990234
 31
146.0
 12
-26.725008010864258
 22
-60.02204132080078
 32
146.0
 13
-26.725008010864258
 23
-60.02204132080078
 33
146.0
  0
3DFACE
  8
0
 10
-26.725008010864258
 20
-60.02204132080078
 30
146.0
 11
-26.367420196533203
 21
-60.27165985107422
 31
146.0
 12
-25.940610885620117
 22
-60.512264251708984
 32
146.0
 13
-25.940610885620117
 23
-60.512264251708984
 33
146.0
  0
3DFACE
  8
0
 10
-25.940610885620117
 20
-60.512264251708984
 30
146.0
 11
-25.46196174621582
 21
-60.74767303466797
 31
146.0
 12
-25.151662826538086
 22
-60.89466094970703
 32
146.0
 13
-25.151662826538086
 23
-60.89466094970703
 33
146.0
  0
3DFACE
  8
0
 10
-25.151662826538086
 20
-60.89466094970703
 30
146.0
 11
-24.777565002441406
 21
-61.020938873291016
 31
146.0
 12
-24.369165420532227
 22
-61.1461181640625
 32
146.0
 13
-24.369165420532227
 23
-61.1461181640625
 33
146.0
  0
3DFACE
  8
0
 10
-24.173355102539062
 20
-61.179134368896484
 30
146.0
 11
-23.587297439575195
 21
-61.3065185546875
 31
146.0
 12
-23.330028533935547
 22
-61.315284729003906
 32
146.0
 13
-23.330028533935547
 23
-61.315284729003906
 33
146.0
  0
3DFACE
  8
0
 10
-25.151662826538086
 20
-60.89466094970703
 30
146.0
 11
-24.369165420532227
 21
-61.1461181640625
 31
146.0
 12
-24.173355102539062
 22
-61.179134368896484
 32
146.0
 13
-24.173355102539062
 23
-61.179134368896484
 33
146.0
  0
3DFACE
  8
0
 10
-26.725008010864258
 20
-60.02204132080078
 30
146.0
 11
-25.940610885620117
 21
-60.512264251708984
 31
146.0
 12
-25.151662826538086
 22
-60.89466094970703
 32
146.0
 13
-25.151662826538086
 23
-60.89466094970703
 33
146.0
  0
3DFACE
  8
0
 10
-28.26658821105957
 20
-57.95829391479492
 30
146.0
 11
-27.58589744567871
 21
-59.07688903808594
 31
146.0
 12
-26.725008010864258
 22
-60.02204132080078
 32
146.0
 13
-26.725008010864258
 23
-60.02204132080078
 33
146.0
  0
3DFACE
  8
0
 10
-28.515108108520508
 20
-57.17724609375
 30
146.0
 11
-28.446365356445312
 21
-57.462135314941406
 31
146.0
 12
-28.26658821105957
 22
-57.95829391479492
 32
146.0
 13
-28.26658821105957
 23
-57.95829391479492
 33
146.0
  0
3DFACE
  8
0
 10
-28.801237106323242
 20
-55.30802917480469
 30
146.0
 11
-28.805479049682617
 21
-55.61079025268555
 31
146.0
 12
-28.602996826171875
 22
-56.56367492675781
 32
146.0
 13
-28.602996826171875
 23
-56.56367492675781
 33
146.0
  0
3DFACE
  8
0
 10
-28.602996826171875
 20
-56.56367492675781
 30
146.0
 11
-28.515108108520508
 21
-57.17724609375
 31
146.0
 12
-28.26658821105957
 22
-57.95829391479492
 32
146.0
 13
-28.26658821105957
 23
-57.95829391479492
 33
146.0
  0
3DFACE
  8
0
 10
-28.26658821105957
 20
-57.95829391479492
 30
146.0
 11
-26.725008010864258
 21
-60.02204132080078
 31
146.0
 12
-25.151662826538086
 22
-60.89466094970703
 32
146.0
 13
-25.151662826538086
 23
-60.89466094970703
 33
146.0
  0
3DFACE
  8
0
 10
-25.151662826538086
 20
-60.89466094970703
 30
146.0
 11
-24.173355102539062
 21
-61.179134368896484
 31
146.0
 12
-23.330028533935547
 22
-61.315284729003906
 32
146.0
 13
-23.330028533935547
 23
-61.315284729003906
 33
146.0
  0
3DFACE
  8
0
 10
-23.330028533935547
 20
-61.315284729003906
 30
146.0
 11
-22.804155349731445
 21
-61.3671760559082
 31
146.0
 12
-22.292722702026367
 22
-61.34709930419922
 32
146.0
 13
-22.292722702026367
 23
-61.34709930419922
 33
146.0
  0
3DFACE
  8
0
 10
-22.292722702026367
 20
-61.34709930419922
 30
146.0
 11
-22.02165412902832
 21
-61.326263427734375
 31
146.0
 12
-21.798072814941406
 22
-61.25334930419922
 32
146.0
 13
-21.798072814941406
 23
-61.25334930419922
 33
146.0
  0
3DFACE
  8
0
 10
-21.798072814941406
 20
-61.25334930419922
 30
146.0
 11
-21.23914909362793
 21
-61.10234832763672
 31
146.0
 12
-21.02773094177246
 22
-61.015113830566406
 32
146.0
 13
-21.02773094177246
 23
-61.015113830566406
 33
146.0
  0
3DFACE
  8
0
 10
-21.02773094177246
 20
-61.015113830566406
 30
146.0
 11
-20.456647872924805
 21
-60.80268478393555
 31
146.0
 12
-19.674144744873047
 22
-60.40937042236328
 32
146.0
 13
-19.674144744873047
 23
-60.40937042236328
 33
146.0
  0
3DFACE
  8
0
 10
-19.674144744873047
 20
-60.40937042236328
 30
146.0
 11
-18.831806182861328
 21
-59.85415267944336
 31
146.0
 12
-18.47256088256836
 22
-59.60038757324219
 32
146.0
 13
-18.47256088256836
 23
-59.60038757324219
 33
146.0
  0
3DFACE
  8
0
 10
-18.47256088256836
 20
-59.60038757324219
 30
146.0
 11
-18.109140396118164
 21
-59.334144592285156
 31
146.0
 12
-17.790924072265625
 22
-59.035404205322266
 32
146.0
 13
-17.790924072265625
 23
-59.035404205322266
 33
146.0
  0
3DFACE
  8
0
 10
-17.790924072265625
 20
-59.035404205322266
 30
146.0
 11
-17.326637268066406
 21
-58.62534713745117
 31
146.0
 12
-17.218219757080078
 22
-58.5087890625
 32
146.0
 13
-17.218219757080078
 23
-58.5087890625
 33
146.0
  0
3DFACE
  8
0
 10
-17.218219757080078
 20
-58.5087890625
 30
146.0
 11
-16.981203079223633
 21
-58.24214172363281
 31
146.0
 12
-16.783222198486328
 22
-57.99753189086914
 32
146.0
 13
-16.783222198486328
 23
-57.99753189086914
 33
146.0
  0
3DFACE
  8
0
 10
-16.783222198486328
 20
-57.99753189086914
 30
146.0
 11
-16.544132232666016
 21
-57.73085021972656
 31
146.0
 12
-16.406015396118164
 22
-57.5418586730957
 32
146.0
 13
-16.406015396118164
 23
-57.5418586730957
 33
146.0
  0
3DFACE
  8
0
 10
-16.406015396118164
 20
-57.5418586730957
 30
146.0
 11
-15.909272193908691
 21
-56.67714309692383
 31
146.0
 12
-15.767626762390137
 22
-56.3932991027832
 32
146.0
 13
-15.767626762390137
 23
-56.3932991027832
 33
146.0
  0
3DFACE
  8
0
 10
-15.767626762390137
 20
-56.3932991027832
 30
146.0
 11
-15.567800521850586
 21
-55.89463806152344
 31
146.0
 12
-15.478310585021973
 22
-55.61079025268555
 32
146.0
 13
-15.478310585021973
 23
-55.61079025268555
 33
146.0
  0
3DFACE
  8
0
 10
-15.478310585021973
 20
-55.61079025268555
 30
146.0
 11
-15.044285774230957
 21
-54.32963180541992
 31
146.0
 12
-14.991281509399414
 22
-54.0457878112793
 32
146.0
 13
-14.991281509399414
 23
-54.0457878112793
 33
146.0
  0
3DFACE
  8
0
 10
-14.991281509399414
 20
-54.0457878112793
 30
146.0
 11
-14.882231712341309
 21
-53.54712677001953
 31
146.0
 12
-14.828871726989746
 22
-53.26327896118164
 32
146.0
 13
-14.828871726989746
 23
-53.26327896118164
 33
146.0
  0
3DFACE
  8
0
 10
-14.806341171264648
 20
-52.979434967041016
 30
146.0
 11
-14.721259117126465
 21
-52.480777740478516
 31
146.0
 12
-14.725478172302246
 22
-52.196937561035156
 32
146.0
 13
-14.725478172302246
 23
-52.196937561035156
 33
146.0
  0
3DFACE
  8
0
 10
-14.991281509399414
 20
-54.0457878112793
 30
146.0
 11
-14.828871726989746
 21
-53.26327896118164
 31
146.0
 12
-14.806341171264648
 22
-52.979434967041016
 32
146.0
 13
-14.806341171264648
 23
-52.979434967041016
 33
146.0
  0
3DFACE
  8
0
 10
-15.767626762390137
 20
-56.3932991027832
 30
146.0
 11
-15.478310585021973
 21
-55.61079025268555
 31
146.0
 12
-14.991281509399414
 22
-54.0457878112793
 32
146.0
 13
-14.991281509399414
 23
-54.0457878112793
 33
146.0
  0
3DFACE
  8
0
 10
-16.783222198486328
 20
-57.99753189086914
 30
146.0
 11
-16.406015396118164
 21
-57.5418586730957
 31
146.0
 12
-15.767626762390137
 22
-56.3932991027832
 32
146.0
 13
-15.767626762390137
 23
-56.3932991027832
 33
146.0
  0
3DFACE
  8
0
 10
-17.790924072265625
 20
-59.035404205322266
 30
146.0
 11
-17.218219757080078
 21
-58.5087890625
 31
146.0
 12
-16.783222198486328
 22
-57.99753189086914
 32
146.0
 13
-16.783222198486328
 23
-57.99753189086914
 33
146.0
  0
3DFACE
  8
0
 10
-19.674144744873047
 20
-60.40937042236328
 30
146.0
 11
-18.47256088256836
 21
-59.60038757324219
 31
146.0
 12
-17.790924072265625
 22
-59.035404205322266
 32
146.0
 13
-17.790924072265625
 23
-59.035404205322266
 33
146.0
  0
3DFACE
  8
0
 10
-21.798072814941406
 20
-61.25334930419922
 30
146.0
 11
-21.02773094177246
 21
-61.015113830566406
 31
146.0
 12
-19.674144744873047
 22
-60.40937042236328
 32
146.0
 13
-19.674144744873047
 23
-60.40937042236328
 33
146.0
  0
3DFACE
  8
0
 10
-23.330028533935547
 20
-61.315284729003906
 30
146.0
 11
-22.292722702026367
 21
-61.34709930419922
 31
146.0
 12
-21.798072814941406
 22
-61.25334930419922
 32
146.0
 13
-21.798072814941406
 23
-61.25334930419922
 33
146.0
  0
3DFACE
  8
0
 10
-28.26658821105957
 20
-57.95829391479492
 30
146.0
 11
-25.151662826538086
 21
-60.89466094970703
 31
146.0
 12
-23.330028533935547
 22
-61.315284729003906
 32
146.0
 13
-23.330028533935547
 23
-61.315284729003906
 33
146.0
  0
3DFACE
  8
0
 10
-28.801237106323242
 20
-55.30802917480469
 30
146.0
 11
-28.602996826171875
 21
-56.56367492675781
 31
146.0
 12
-28.26658821105957
 22
-57.95829391479492
 32
146.0
 13
-28.26658821105957
 23
-57.95829391479492
 33
146.0
  0
3DFACE
  8
0
 10
-28.77965545654297
 20
-54.56019973754883
 30
146.0
 11
-28.818103790283203
 21
-54.82828903198242
 31
146.0
 12
-28.801237106323242
 22
-55.30802917480469
 32
146.0
 13
-28.801237106323242
 23
-55.30802917480469
 33
146.0
  0
3DFACE
  8
0
 10
-28.73581886291504
 20
-53.761940002441406
 30
146.0
 11
-28.776470184326172
 21
-54.0457878112793
 31
146.0
 12
-28.77965545654297
 22
-54.56019973754883
 32
146.0
 13
-28.77965545654297
 23
-54.56019973754883
 33
146.0
  0
3DFACE
  8
0
 10
-28.497703552246094
 20
-52.480777740478516
 30
146.0
 11
-28.675540924072266
 21
-53.26327896118164
 31
146.0
 12
-28.73581886291504
 22
-53.761940002441406
 32
146.0
 13
-28.73581886291504
 23
-53.761940002441406
 33
146.0
  0
3DFACE
  8
0
 10
-28.13531494140625
 20
-51.41443634033203
 30
146.0
 11
-28.25939178466797
 21
-51.69828414916992
 31
146.0
 12
-28.367311477661133
 22
-52.141685485839844
 32
146.0
 13
-28.367311477661133
 23
-52.141685485839844
 33
146.0
  0
3DFACE
  8
0
 10
-28.367311477661133
 20
-52.141685485839844
 30
146.0
 11
-28.497703552246094
 21
-52.480777740478516
 31
146.0
 12
-28.73581886291504
 22
-53.761940002441406
 32
146.0
 13
-28.73581886291504
 23
-53.761940002441406
 33
146.0
  0
3DFACE
  8
0
 10
-28.73581886291504
 20
-53.761940002441406
 30
146.0
 11
-28.77965545654297
 21
-54.56019973754883
 31
146.0
 12
-28.801237106323242
 22
-55.30802917480469
 32
146.0
 13
-28.801237106323242
 23
-55.30802917480469
 33
146.0
  0
3DFACE
  8
0
 10
-28.801237106323242
 20
-55.30802917480469
 30
146.0
 11
-28.26658821105957
 21
-57.95829391479492
 31
146.0
 12
-23.330028533935547
 22
-61.315284729003906
 32
146.0
 13
-23.330028533935547
 23
-61.315284729003906
 33
146.0
  0
3DFACE
  8
0
 10
-23.330028533935547
 20
-61.315284729003906
 30
146.0
 11
-21.798072814941406
 21
-61.25334930419922
 31
146.0
 12
-19.674144744873047
 22
-60.40937042236328
 32
146.0
 13
-19.674144744873047
 23
-60.40937042236328
 33
146.0
  0
3DFACE
  8
0
 10
-19.674144744873047
 20
-60.40937042236328
 30
146.0
 11
-17.790924072265625
 21
-59.035404205322266
 31
146.0
 12
-16.783222198486328
 22
-57.99753189086914
 32
146.0
 13
-16.783222198486328
 23
-57.99753189086914
 33
146.0
  0
3DFACE
  8
0
 10
-16.783222198486328
 20
-57.99753189086914
 30
146.0
 11
-15.767626762390137
 21
-56.3932991027832
 31
146.0
 12
-14.991281509399414
 22
-54.0457878112793
 32
146.0
 13
-14.991281509399414
 23
-54.0457878112793
 33
146.0
  0
3DFACE
  8
0
 10
-14.991281509399414
 20
-54.0457878112793
 30
146.0
 11
-14.806341171264648
 21
-52.979434967041016
 31
146.0
 12
-14.725478172302246
 22
-52.196937561035156
 32
146.0
 13
-14.725478172302246
 23
-52.196937561035156
 33
146.0
  0
3DFACE
  8
0
 10
-14.725478172302246
 20
-52.196937561035156
 30
146.0
 11
-14.696654319763184
 21
-51.69828414916992
 31
146.0
 12
-14.734386444091797
 22
-51.41443634033203
 32
146.0
 13
-14.734386444091797
 23
-51.41443634033203
 33
146.0
  0
3DFACE
  8
0
 10
-14.734386444091797
 20
-51.41443634033203
 30
146.0
 11
-14.738405227661133
 21
-50.915775299072266
 31
146.0
 12
-14.813640594482422
 22
-50.4171142578125
 32
146.0
 13
-14.813640594482422
 23
-50.4171142578125
 33
146.0
  0
3DFACE
  8
0
 10
-14.813640594482422
 20
-50.4171142578125
 30
146.0
 11
-14.898816108703613
 21
-50.13326644897461
 31
146.0
 12
-15.048911094665527
 22
-49.712554931640625
 32
146.0
 13
-15.048911094665527
 23
-49.712554931640625
 33
146.0
  0
3DFACE
  8
0
 10
-15.048911094665527
 20
-49.712554931640625
 30
146.0
 11
-15.140185356140137
 21
-49.428714752197266
 31
146.0
 12
-15.39018440246582
 22
-48.85211181640625
 32
146.0
 13
-15.39018440246582
 23
-48.85211181640625
 33
146.0
  0
3DFACE
  8
0
 10
-15.39018440246582
 20
-48.85211181640625
 30
146.0
 11
-15.47597599029541
 21
-48.70684051513672
 31
146.0
 12
-15.569687843322754
 22
-48.56826400756836
 32
146.0
 13
-15.569687843322754
 23
-48.56826400756836
 33
146.0
  0
3DFACE
  8
0
 10
-15.569687843322754
 20
-48.56826400756836
 30
146.0
 11
-15.876852989196777
 21
-47.96794891357422
 31
146.0
 12
-15.9771728515625
 22
-47.80074691772461
 32
146.0
 13
-15.9771728515625
 23
-47.80074691772461
 33
146.0
  0
3DFACE
  8
0
 10
-15.9771728515625
 20
-47.80074691772461
 30
146.0
 11
-16.321208953857422
 21
-47.287105560302734
 31
146.0
 12
-16.480602264404297
 22
-47.10014343261719
 32
146.0
 13
-16.480602264404297
 23
-47.10014343261719
 33
146.0
  0
3DFACE
  8
0
 10
-16.480602264404297
 20
-47.10014343261719
 30
146.0
 11
-16.544132232666016
 21
-47.02285385131836
 31
146.0
 12
-16.729488372802734
 22
-46.853267669677734
 32
146.0
 13
-16.729488372802734
 23
-46.853267669677734
 33
146.0
  0
3DFACE
  8
0
 10
-16.729488372802734
 20
-46.853267669677734
 30
146.0
 11
-17.326637268066406
 21
-46.33528518676758
 31
146.0
 12
-17.62053871154785
 22
-46.19423294067383
 32
146.0
 13
-17.62053871154785
 23
-46.19423294067383
 33
146.0
  0
3DFACE
  8
0
 10
-17.62053871154785
 20
-46.19423294067383
 30
146.0
 11
-18.39298439025879
 21
-45.847930908203125
 31
146.0
 12
-18.89164161682129
 22
-45.69860076904297
 32
146.0
 13
-18.89164161682129
 23
-45.69860076904297
 33
146.0
  0
3DFACE
  8
0
 10
-19.36109733581543
 20
-45.68537521362305
 30
146.0
 11
-19.674144744873047
 21
-45.65044403076172
 31
146.0
 12
-20.09959602355957
 22
-45.699031829833984
 32
146.0
 13
-20.09959602355957
 23
-45.699031829833984
 33
146.0
  0
3DFACE
  8
0
 10
-17.62053871154785
 20
-46.19423294067383
 30
146.0
 11
-18.89164161682129
 21
-45.69860076904297
 31
146.0
 12
-19.36109733581543
 22
-45.68537521362305
 32
146.0
 13
-19.36109733581543
 23
-45.68537521362305
 33
146.0
  0
3DFACE
  8
0
 10
-16.480602264404297
 20
-47.10014343261719
 30
146.0
 11
-16.729488372802734
 21
-46.853267669677734
 31
146.0
 12
-17.62053871154785
 22
-46.19423294067383
 32
146.0
 13
-17.62053871154785
 23
-46.19423294067383
 33
146.0
  0
3DFACE
  8
0
 10
-15.569687843322754
 20
-48.56826400756836
 30
146.0
 11
-15.9771728515625
 21
-47.80074691772461
 31
146.0
 12
-16.480602264404297
 22
-47.10014343261719
 32
146.0
 13
-16.480602264404297
 23
-47.10014343261719
 33
146.0
  0
3DFACE
  8
0
 10
-15.048911094665527
 20
-49.712554931640625
 30
146.0
 11
-15.39018440246582
 21
-48.85211181640625
 31
146.0
 12
-15.569687843322754
 22
-48.56826400756836
 32
146.0
 13
-15.569687843322754
 23
-48.56826400756836
 33
146.0
  0
3DFACE
  8
0
 10
-14.734386444091797
 20
-51.41443634033203
 30
146.0
 11
-14.813640594482422
 21
-50.4171142578125
 31
146.0
 12
-15.048911094665527
 22
-49.712554931640625
 32
146.0
 13
-15.048911094665527
 23
-49.712554931640625
 33
146.0
  0
3DFACE
  8
0
 10
-14.991281509399414
 20
-54.0457878112793
 30
146.0
 11
-14.725478172302246
 21
-52.196937561035156
 31
146.0
 12
-14.734386444091797
 22
-51.41443634033203
 32
146.0
 13
-14.734386444091797
 23
-51.41443634033203
 33
146.0
  0
3DFACE
  8
0
 10
-19.674144744873047
 20
-60.40937042236328
 30
146.0
 11
-16.783222198486328
 21
-57.99753189086914
 31
146.0
 12
-14.991281509399414
 22
-54.0457878112793
 32
146.0
 13
-14.991281509399414
 23
-54.0457878112793
 33
146.0
  0
3DFACE
  8
0
 10
-28.801237106323242
 20
-55.30802917480469
 30
146.0
 11
-23.330028533935547
 21
-61.315284729003906
 31
146.0
 12
-19.674144744873047
 22
-60.40937042236328
 32
146.0
 13
-19.674144744873047
 23
-60.40937042236328
 33
146.0
  0
3DFACE
  8
0
 10
-28.367311477661133
 20
-52.141685485839844
 30
146.0
 11
-28.73581886291504
 21
-53.761940002441406
 31
146.0
 12
-28.801237106323242
 22
-55.30802917480469
 32
146.0
 13
-28.801237106323242
 23
-55.30802917480469
 33
146.0
  0
3DFACE
  8
0
 10
-27.95598793029785
 20
-50.915775299072266
 30
146.0
 11
-28.13531494140625
 21
-51.41443634033203
 31
146.0
 12
-28.367311477661133
 22
-52.141685485839844
 32
146.0
 13
-28.367311477661133
 23
-52.141685485839844
 33
146.0
  0
3DFACE
  8
0
 10
-27.505184173583984
 20
-50.042198181152344
 30
146.0
 11
-27.562917709350586
 21
-50.123294830322266
 31
146.0
 12
-27.802553176879883
 22
-50.631927490234375
 32
146.0
 13
-27.802553176879883
 23
-50.631927490234375
 33
146.0
  0
3DFACE
  8
0
 10
-27.802553176879883
 20
-50.631927490234375
 30
146.0
 11
-27.95598793029785
 21
-50.915775299072266
 31
146.0
 12
-28.367311477661133
 22
-52.141685485839844
 32
146.0
 13
-28.367311477661133
 23
-52.141685485839844
 33
146.0
  0
3DFACE
  8
0
 10
-28.367311477661133
 20
-52.141685485839844
 30
146.0
 11
-28.801237106323242
 21
-55.30802917480469
 31
146.0
 12
-19.674144744873047
 22
-60.40937042236328
 32
146.0
 13
-19.674144744873047
 23
-60.40937042236328
 33
146.0
  0
3DFACE
  8
0
 10
-19.674144744873047
 20
-60.40937042236328
 30
146.0
 11
-14.991281509399414
 21
-54.0457878112793
 31
146.0
 12
-14.734386444091797
 22
-51.41443634033203
 32
146.0
 13
-14.734386444091797
 23
-51.41443634033203
 33
146.0
  0
3DFACE
  8
0
 10
-14.734386444091797
 20
-51.41443634033203
 30
146.0
 11
-15.048911094665527
 21
-49.712554931640625
 31
146.0
 12
-15.569687843322754
 22
-48.56826400756836
 32
146.0
 13
-15.569687843322754
 23
-48.56826400756836
 33
146.0
  0
3DFACE
  8
0
 10
-15.569687843322754
 20
-48.56826400756836
 30
146.0
 11
-16.480602264404297
 21
-47.10014343261719
 31
146.0
 12
-17.62053871154785
 22
-46.19423294067383
 32
146.0
 13
-17.62053871154785
 23
-46.19423294067383
 33
146.0
  0
3DFACE
  8
0
 10
-17.62053871154785
 20
-46.19423294067383
 30
146.0
 11
-19.36109733581543
 21
-45.68537521362305
 31
146.0
 12
-20.09959602355957
 22
-45.699031829833984
 32
146.0
 13
-20.09959602355957
 23
-45.699031829833984
 33
146.0
  0
3DFACE
  8
0
 10
-20.09959602355957
 20
-45.699031829833984
 30
146.0
 11
-20.456647872924805
 21
-45.723636627197266
 31
146.0
 12
-20.955305099487305
 22
-45.82182312011719
 32
146.0
 13
-20.955305099487305
 23
-45.82182312011719
 33
146.0
  0
3DFACE
  8
0
 10
-20.955305099487305
 20
-45.82182312011719
 30
146.0
 11
-21.23914909362793
 21
-45.8625602722168
 31
146.0
 12
-22.02165412902832
 22
-46.10206604003906
 32
146.0
 13
-22.02165412902832
 23
-46.10206604003906
 33
146.0
  0
3DFACE
  8
0
 10
-22.410423278808594
 20
-46.26643753051758
 30
146.0
 11
-22.804155349731445
 21
-46.401607513427734
 31
146.0
 12
-23.302812576293945
 22
-46.61357116699219
 32
146.0
 13
-23.302812576293945
 23
-46.61357116699219
 33
146.0
  0
3DFACE
  8
0
 10
-20.955305099487305
 20
-45.82182312011719
 30
146.0
 11
-22.02165412902832
 21
-46.10206604003906
 31
146.0
 12
-22.410423278808594
 22
-46.26643753051758
 32
146.0
 13
-22.410423278808594
 23
-46.26643753051758
 33
146.0
  0
3DFACE
  8
0
 10
-17.62053871154785
 20
-46.19423294067383
 30
146.0
 11
-20.09959602355957
 21
-45.699031829833984
 31
146.0
 12
-20.955305099487305
 22
-45.82182312011719
 32
146.0
 13
-20.955305099487305
 23
-45.82182312011719
 33
146.0
  0
3DFACE
  8
0
 10
-14.734386444091797
 20
-51.41443634033203
 30
146.0
 11
-15.569687843322754
 21
-48.56826400756836
 31
146.0
 12
-17.62053871154785
 22
-46.19423294067383
 32
146.0
 13
-17.62053871154785
 23
-46.19423294067383
 33
146.0
  0
3DFACE
  8
0
 10
-28.367311477661133
 20
-52.141685485839844
 30
146.0
 11
-19.674144744873047
 21
-60.40937042236328
 31
146.0
 12
-14.734386444091797
 22
-51.41443634033203
 32
146.0
 13
-14.734386444091797
 23
-51.41443634033203
 33
146.0
  0
3DFACE
  8
0
 10
-27.505184173583984
 20
-50.042198181152344
 30
146.0
 11
-27.802553176879883
 21
-50.631927490234375
 31
146.0
 12
-28.367311477661133
 22
-52.141685485839844
 32
146.0
 13
-28.367311477661133
 23
-52.141685485839844
 33
146.0
  0
3DFACE
  8
0
 10
-27.086917877197266
 20
-49.350772857666016
 30
146.0
 11
-27.21893882751465
 21
-49.55352020263672
 31
146.0
 12
-27.505184173583984
 22
-50.042198181152344
 32
146.0
 13
-27.505184173583984
 23
-50.042198181152344
 33
146.0
  0
3DFACE
  8
0
 10
-26.54067611694336
 20
-48.67512893676758
 30
146.0
 11
-26.716672897338867
 21
-48.8768310546875
 31
146.0
 12
-26.935094833374023
 22
-49.17379379272461
 32
146.0
 13
-26.935094833374023
 23
-49.17379379272461
 33
146.0
  0
3DFACE
  8
0
 10
-26.935094833374023
 20
-49.17379379272461
 30
146.0
 11
-27.086917877197266
 21
-49.350772857666016
 31
146.0
 12
-27.505184173583984
 22
-50.042198181152344
 32
146.0
 13
-27.505184173583984
 23
-50.042198181152344
 33
146.0
  0
3DFACE
  8
0
 10
-27.505184173583984
 20
-50.042198181152344
 30
146.0
 11
-28.367311477661133
 21
-52.141685485839844
 31
146.0
 12
-14.734386444091797
 22
-51.41443634033203
 32
146.0
 13
-14.734386444091797
 23
-51.41443634033203
 33
146.0
  0
3DFACE
  8
0
 10
-14.734386444091797
 20
-51.41443634033203
 30
146.0
 11
-17.62053871154785
 21
-46.19423294067383
 31
146.0
 12
-20.955305099487305
 22
-45.82182312011719
 32
146.0
 13
-20.955305099487305
 23
-45.82182312011719
 33
146.0
  0
3DFACE
  8
0
 10
-20.955305099487305
 20
-45.82182312011719
 30
146.0
 11
-22.410423278808594
 21
-46.26643753051758
 31
146.0
 12
-23.302812576293945
 22
-46.61357116699219
 32
146.0
 13
-23.302812576293945
 23
-46.61357116699219
 33
146.0
  0
3DFACE
  8
0
 10
-23.302812576293945
 20
-46.61357116699219
 30
146.0
 11
-23.58665657043457
 21
-46.742767333984375
 31
146.0
 12
-24.046527862548828
 22
-47.00191116333008
 32
146.0
 13
-24.046527862548828
 23
-47.00191116333008
 33
146.0
  0
3DFACE
  8
0
 10
-24.046527862548828
 20
-47.00191116333008
 30
146.0
 11
-24.330373764038086
 21
-47.122291564941406
 31
146.0
 12
-25.151662826538086
 22
-47.559837341308594
 32
146.0
 13
-25.151662826538086
 23
-47.559837341308594
 33
146.0
  0
3DFACE
  8
0
 10
-25.151662826538086
 20
-47.559837341308594
 30
146.0
 11
-25.728452682495117
 21
-47.93159866333008
 31
146.0
 12
-25.934167861938477
 22
-48.093849182128906
 32
146.0
 13
-25.934167861938477
 23
-48.093849182128906
 33
146.0
  0
3DFACE
  8
0
 10
-26.2568302154541
 20
-48.43025588989258
 30
146.0
 11
-26.422800064086914
 21
-48.56826400756836
 31
146.0
 12
-26.54067611694336
 22
-48.67512893676758
 32
146.0
 13
-26.54067611694336
 23
-48.67512893676758
 33
146.0
  0
3DFACE
  8
0
 10
-25.151662826538086
 20
-47.559837341308594
 30
146.0
 11
-25.934167861938477
 21
-48.093849182128906
 31
146.0
 12
-26.2568302154541
 22
-48.43025588989258
 32
146.0
 13
-26.2568302154541
 23
-48.43025588989258
 33
146.0
  0
3DFACE
  8
0
 10
-20.955305099487305
 20
-45.82182312011719
 30
146.0
 11
-23.302812576293945
 21
-46.61357116699219
 31
146.0
 12
-24.046527862548828
 22
-47.00191116333008
 32
146.0
 13
-24.046527862548828
 23
-47.00191116333008
 33
146.0
  0
3DFACE
  8
0
 10
-24.046527862548828
 20
-47.00191116333008
 30
146.0
 11
-25.151662826538086
 21
-47.559837341308594
 31
146.0
 12
-26.2568302154541
 22
-48.43025588989258
 32
146.0
 13
-26.2568302154541
 23
-48.43025588989258
 33
146.0
  0
3DFACE
  8
0
 10
-26.2568302154541
 20
-48.43025588989258
 30
146.0
 11
-26.54067611694336
 21
-48.67512893676758
 31
146.0
 12
-26.935094833374023
 22
-49.17379379272461
 32
146.0
 13
-26.935094833374023
 23
-49.17379379272461
 33
146.0
  0
3DFACE
  8
0
 10
-26.935094833374023
 20
-49.17379379272461
 30
146.0
 11
-27.505184173583984
 21
-50.042198181152344
 31
146.0
 12
-14.734386444091797
 22
-51.41443634033203
 32
146.0
 13
-14.734386444091797
 23
-51.41443634033203
 33
146.0
  0
3DFACE
  8
0
 10
-14.734386444091797
 20
-51.41443634033203
 30
146.0
 11
-20.955305099487305
 21
-45.82182312011719
 31
146.0
 12
-24.046527862548828
 22
-47.00191116333008
 32
146.0
 13
-24.046527862548828
 23
-47.00191116333008
 33
146.0
  0
3DFACE
  8
0
 10
-24.046527862548828
 20
-47.00191116333008
 30
146.0
 11
-26.2568302154541
 21
-48.43025588989258
 31
146.0
 12
-26.935094833374023
 22
-49.17379379272461
 32
146.0
 13
-26.935094833374023
 23
-49.17379379272461
 33
146.0
  0
3DFACE
  8
0
 10
-14.734386444091797
 20
-51.41443634033203
 30
146.0
 11
-24.046527862548828
 21
-47.00191116333008
 31
146.0
 12
-26.935094833374023
 22
-49.17379379272461
 32
146.0
 13
-26.935094833374023
 23
-49.17379379272461
 33
146.0
  0
3DFACE
  8
0
 10
37.662574768066406
 20
-48.93711471557617
 30
146.0
 11
37.66248321533203
 21
-48.91398620605469
 31
146.0
 12
37.611061096191406
 22
-48.1181755065918
 32
146.0
 13
37.611061096191406
 23
-48.1181755065918
 33
146.0
  0
3DFACE
  8
0
 10
37.611061096191406
 20
-48.1181755065918
 30
146.0
 11
37.548072814941406
 21
-47.63651657104492
 31
146.0
 12
37.48788070678711
 22
-47.2825813293457
 32
146.0
 13
37.48788070678711
 23
-47.2825813293457
 33
146.0
  0
3DFACE
  8
0
 10
37.36066436767578
 20
-46.69577407836914
 30
146.0
 11
37.31098937988281
 21
-46.43449783325195
 31
146.0
 12
37.2863655090332
 22
-46.355247497558594
 32
146.0
 13
37.2863655090332
 23
-46.355247497558594
 33
146.0
  0
3DFACE
  8
0
 10
37.611061096191406
 20
-48.1181755065918
 30
146.0
 11
37.48788070678711
 21
-47.2825813293457
 31
146.0
 12
37.36066436767578
 22
-46.69577407836914
 32
146.0
 13
37.36066436767578
 23
-46.69577407836914
 33
146.0
  0
3DFACE
  8
0
 10
37.568058013916016
 20
-49.72209167480469
 30
146.0
 11
37.662574768066406
 21
-48.93711471557617
 31
146.0
 12
37.611061096191406
 22
-48.1181755065918
 32
146.0
 13
37.611061096191406
 23
-48.1181755065918
 33
146.0
  0
3DFACE
  8
0
 10
37.43226623535156
 20
-50.558109283447266
 30
146.0
 11
37.44611358642578
 21
-50.50071334838867
 31
146.0
 12
37.568058013916016
 22
-49.72209167480469
 32
146.0
 13
37.568058013916016
 23
-49.72209167480469
 33
146.0
  0
3DFACE
  8
0
 10
37.15806198120117
 20
-51.28158187866211
 30
146.0
 11
37.175933837890625
 21
-51.24485397338867
 31
146.0
 12
37.43226623535156
 22
-50.558109283447266
 32
146.0
 13
37.43226623535156
 23
-50.558109283447266
 33
146.0
  0
3DFACE
  8
0
 10
36.73113250732422
 20
-52.183040618896484
 30
146.0
 11
36.85917282104492
 21
-51.978172302246094
 31
146.0
 12
37.15806198120117
 22
-51.28158187866211
 32
146.0
 13
37.15806198120117
 23
-51.28158187866211
 33
146.0
  0
3DFACE
  8
0
 10
35.999107360839844
 20
-53.18634033203125
 30
146.0
 11
36.439910888671875
 21
-52.68766403198242
 31
146.0
 12
36.73113250732422
 22
-52.183040618896484
 32
146.0
 13
36.73113250732422
 23
-52.183040618896484
 33
146.0
  0
3DFACE
  8
0
 10
35.25016403198242
 20
-53.81015396118164
 30
146.0
 11
35.79482650756836
 21
-53.382198333740234
 31
146.0
 12
35.999107360839844
 22
-53.18634033203125
 32
146.0
 13
35.999107360839844
 23
-53.18634033203125
 33
146.0
  0
3DFACE
  8
0
 10
34.95067596435547
 20
-54.033897399902344
 30
146.0
 11
35.045997619628906
 21
-53.97753143310547
 31
146.0
 12
35.25016403198242
 22
-53.81015396118164
 32
146.0
 13
35.25016403198242
 23
-53.81015396118164
 33
146.0
  0
3DFACE
  8
0
 10
33.7941780090332
 20
-54.50765609741211
 30
146.0
 11
33.90599822998047
 21
-54.47284698486328
 31
146.0
 12
34.95067596435547
 22
-54.033897399902344
 32
146.0
 13
34.95067596435547
 23
-54.033897399902344
 33
146.0
  0
3DFACE
  8
0
 10
32.80709457397461
 20
-54.69139862060547
 30
146.0
 11
33.189910888671875
 21
-54.66494369506836
 31
146.0
 12
33.7941780090332
 22
-54.50765609741211
 32
146.0
 13
33.7941780090332
 23
-54.50765609741211
 33
146.0
  0
3DFACE
  8
0
 10
31.78026008605957
 20
-54.710506439208984
 30
146.0
 11
32.35931396484375
 21
-54.74909973144531
 31
146.0
 12
32.80709457397461
 22
-54.69139862060547
 32
146.0
 13
32.80709457397461
 23
-54.69139862060547
 33
146.0
  0
3DFACE
  8
0
 10
30.86040496826172
 20
-54.57625198364258
 30
146.0
 11
31.55624771118164
 21
-54.70527648925781
 31
146.0
 12
31.78026008605957
 22
-54.710506439208984
 32
146.0
 13
31.78026008605957
 23
-54.710506439208984
 33
146.0
  0
3DFACE
  8
0
 10
30.21666145324707
 20
-54.36574935913086
 30
146.0
 11
30.77404022216797
 21
-54.564449310302734
 31
146.0
 12
30.86040496826172
 22
-54.57625198364258
 32
146.0
 13
30.86040496826172
 23
-54.57625198364258
 33
146.0
  0
3DFACE
  8
0
 10
29.306846618652344
 20
-53.96418762207031
 30
146.0
 11
30.016311645507812
 21
-54.309898376464844
 31
146.0
 12
30.21666145324707
 22
-54.36574935913086
 32
146.0
 13
30.21666145324707
 23
-54.36574935913086
 33
146.0
  0
3DFACE
  8
0
 10
29.184846878051758
 20
-53.88971710205078
 30
146.0
 11
29.280546188354492
 21
-53.9532585144043
 31
146.0
 12
29.306846618652344
 22
-53.96418762207031
 32
146.0
 13
29.306846618652344
 23
-53.96418762207031
 33
146.0
  0
3DFACE
  8
0
 10
28.472929000854492
 20
-53.34141540527344
 30
146.0
 11
28.576618194580078
 21
-53.448604583740234
 31
146.0
 12
29.184846878051758
 22
-53.88971710205078
 32
146.0
 13
29.184846878051758
 23
-53.88971710205078
 33
146.0
  0
3DFACE
  8
0
 10
27.909395217895508
 20
-52.77339553833008
 30
146.0
 11
27.986236572265625
 21
-52.87062072753906
 31
146.0
 12
28.472929000854492
 22
-53.34141540527344
 32
146.0
 13
28.472929000854492
 23
-53.34141540527344
 33
146.0
  0
3DFACE
  8
0
 10
27.408267974853516
 20
-52.05986022949219
 30
146.0
 11
27.524070739746094
 21
-52.22880935668945
 31
146.0
 12
27.686981201171875
 22
-52.43741989135742
 32
146.0
 13
27.686981201171875
 23
-52.43741989135742
 33
146.0
  0
3DFACE
  8
0
 10
27.686981201171875
 20
-52.43741989135742
 30
146.0
 11
27.909395217895508
 21
-52.77339553833008
 31
146.0
 12
28.472929000854492
 22
-53.34141540527344
 32
146.0
 13
28.472929000854492
 23
-53.34141540527344
 33
146.0
  0
3DFACE
  8
0
 10
28.472929000854492
 20
-53.34141540527344
 30
146.0
 11
29.184846878051758
 21
-53.88971710205078
 31
146.0
 12
29.306846618652344
 22
-53.96418762207031
 32
146.0
 13
29.306846618652344
 23
-53.96418762207031
 33
146.0
  0
3DFACE
  8
0
 10
29.306846618652344
 20
-53.96418762207031
 30
146.0
 11
30.21666145324707
 21
-54.36574935913086
 31
146.0
 12
30.86040496826172
 22
-54.57625198364258
 32
146.0
 13
30.86040496826172
 23
-54.57625198364258
 33
146.0
  0
3DFACE
  8
0
 10
30.86040496826172
 20
-54.57625198364258
 30
146.0
 11
31.78026008605957
 21
-54.710506439208984
 31
146.0
 12
32.80709457397461
 22
-54.69139862060547
 32
146.0
 13
32.80709457397461
 23
-54.69139862060547
 33
146.0
  0
3DFACE
  8
0
 10
32.80709457397461
 20
-54.69139862060547
 30
146.0
 11
33.7941780090332
 21
-54.50765609741211
 31
146.0
 12
34.95067596435547
 22
-54.033897399902344
 32
146.0
 13
34.95067596435547
 23
-54.033897399902344
 33
146.0
  0
3DFACE
  8
0
 10
34.95067596435547
 20
-54.033897399902344
 30
146.0
 11
35.25016403198242
 21
-53.81015396118164
 31
146.0
 12
35.999107360839844
 22
-53.18634033203125
 32
146.0
 13
35.999107360839844
 23
-53.18634033203125
 33
146.0
  0
3DFACE
  8
0
 10
35.999107360839844
 20
-53.18634033203125
 30
146.0
 11
36.73113250732422
 21
-52.183040618896484
 31
146.0
 12
37.15806198120117
 22
-51.28158187866211
 32
146.0
 13
37.15806198120117
 23
-51.28158187866211
 33
146.0
  0
3DFACE
  8
0
 10
37.15806198120117
 20
-51.28158187866211
 30
146.0
 11
37.43226623535156
 21
-50.558109283447266
 31
146.0
 12
37.568058013916016
 22
-49.72209167480469
 32
146.0
 13
37.568058013916016
 23
-49.72209167480469
 33
146.0
  0
3DFACE
  8
0
 10
37.568058013916016
 20
-49.72209167480469
 30
146.0
 11
37.611061096191406
 21
-48.1181755065918
 31
146.0
 12
37.36066436767578
 22
-46.69577407836914
 32
146.0
 13
37.36066436767578
 23
-46.69577407836914
 33
146.0
  0
3DFACE
  8
0
 10
37.36066436767578
 20
-46.69577407836914
 30
146.0
 11
37.2863655090332
 21
-46.355247497558594
 31
146.0
 12
37.152591705322266
 22
-46.04130172729492
 32
146.0
 13
37.152591705322266
 23
-46.04130172729492
 33
146.0
  0
3DFACE
  8
0
 10
37.152591705322266
 20
-46.04130172729492
 30
146.0
 11
36.8226203918457
 21
-45.333065032958984
 31
146.0
 12
36.80802536010742
 22
-45.30461502075195
 32
146.0
 13
36.80802536010742
 23
-45.30461502075195
 33
146.0
  0
3DFACE
  8
0
 10
36.80802536010742
 20
-45.30461502075195
 30
146.0
 11
36.39075469970703
 21
-44.5765380859375
 31
146.0
 12
36.2706184387207
 22
-44.41289520263672
 32
146.0
 13
36.2706184387207
 23
-44.41289520263672
 33
146.0
  0
3DFACE
  8
0
 10
36.2706184387207
 20
-44.41289520263672
 30
146.0
 11
35.85111999511719
 21
-43.81907653808594
 31
146.0
 12
35.69929122924805
 22
-43.643218994140625
 32
146.0
 13
35.69929122924805
 23
-43.643218994140625
 33
146.0
  0
3DFACE
  8
0
 10
35.69929122924805
 20
-43.643218994140625
 30
146.0
 11
35.5904541015625
 21
-43.49806213378906
 31
146.0
 12
35.34271240234375
 22
-43.19369125366211
 32
146.0
 13
35.34271240234375
 23
-43.19369125366211
 33
146.0
  0
3DFACE
  8
0
 10
35.34271240234375
 20
-43.19369125366211
 30
146.0
 11
34.457115173339844
 21
-42.33641815185547
 31
146.0
 12
34.25568389892578
 22
-42.15639877319336
 32
146.0
 13
34.25568389892578
 23
-42.15639877319336
 33
146.0
  0
3DFACE
  8
0
 10
34.25568389892578
 20
-42.15639877319336
 30
146.0
 11
33.66133499145508
 21
-41.76552963256836
 31
146.0
 12
33.53894805908203
 22
-41.713096618652344
 32
146.0
 13
33.53894805908203
 23
-41.713096618652344
 33
146.0
  0
3DFACE
  8
0
 10
33.35570526123047
 20
-41.661441802978516
 30
146.0
 11
32.805885314941406
 21
-41.44072723388672
 31
146.0
 12
32.36042785644531
 22
-41.35068893432617
 32
146.0
 13
32.36042785644531
 23
-41.35068893432617
 33
146.0
  0
3DFACE
  8
0
 10
34.25568389892578
 20
-42.15639877319336
 30
146.0
 11
33.53894805908203
 21
-41.713096618652344
 31
146.0
 12
33.35570526123047
 22
-41.661441802978516
 32
146.0
 13
33.35570526123047
 23
-41.661441802978516
 33
146.0
  0
3DFACE
  8
0
 10
35.69929122924805
 20
-43.643218994140625
 30
146.0
 11
35.34271240234375
 21
-43.19369125366211
 31
146.0
 12
34.25568389892578
 22
-42.15639877319336
 32
146.0
 13
34.25568389892578
 23
-42.15639877319336
 33
146.0
  0
3DFACE
  8
0
 10
36.80802536010742
 20
-45.30461502075195
 30
146.0
 11
36.2706184387207
 21
-44.41289520263672
 31
146.0
 12
35.69929122924805
 22
-43.643218994140625
 32
146.0
 13
35.69929122924805
 23
-43.643218994140625
 33
146.0
  0
3DFACE
  8
0
 10
37.36066436767578
 20
-46.69577407836914
 30
146.0
 11
37.152591705322266
 21
-46.04130172729492
 31
146.0
 12
36.80802536010742
 22
-45.30461502075195
 32
146.0
 13
36.80802536010742
 23
-45.30461502075195
 33
146.0
  0
3DFACE
  8
0
 10
37.15806198120117
 20
-51.28158187866211
 30
146.0
 11
37.568058013916016
 21
-49.72209167480469
 31
146.0
 12
37.36066436767578
 22
-46.69577407836914
 32
146.0
 13
37.36066436767578
 23
-46.69577407836914
 33
146.0
  0
3DFACE
  8
0
 10
34.95067596435547
 20
-54.033897399902344
 30
146.0
 11
35.999107360839844
 21
-53.18634033203125
 31
146.0
 12
37.15806198120117
 22
-51.28158187866211
 32
146.0
 13
37.15806198120117
 23
-51.28158187866211
 33
146.0
  0
3DFACE
  8
0
 10
30.86040496826172
 20
-54.57625198364258
 30
146.0
 11
32.80709457397461
 21
-54.69139862060547
 31
146.0
 12
34.95067596435547
 22
-54.033897399902344
 32
146.0
 13
34.95067596435547
 23
-54.033897399902344
 33
146.0
  0
3DFACE
  8
0
 10
28.472929000854492
 20
-53.34141540527344
 30
146.0
 11
29.306846618652344
 21
-53.96418762207031
 31
146.0
 12
30.86040496826172
 22
-54.57625198364258
 32
146.0
 13
30.86040496826172
 23
-54.57625198364258
 33
146.0
  0
3DFACE
  8
0
 10
27.408267974853516
 20
-52.05986022949219
 30
146.0
 11
27.686981201171875
 21
-52.43741989135742
 31
146.0
 12
28.472929000854492
 22
-53.34141540527344
 32
146.0
 13
28.472929000854492
 23
-53.34141540527344
 33
146.0
  0
3DFACE
  8
0
 10
26.926607131958008
 20
-51.18038558959961
 30
146.0
 11
26.985553741455078
 21
-51.296653747558594
 31
146.0
 12
27.041292190551758
 22
-51.385555267333984
 32
146.0
 13
27.041292190551758
 23
-51.385555267333984
 33
146.0
  0
3DFACE
  8
0
 10
27.041292190551758
 20
-51.385555267333984
 30
146.0
 11
27.408267974853516
 21
-52.05986022949219
 31
146.0
 12
28.472929000854492
 22
-53.34141540527344
 32
146.0
 13
28.472929000854492
 23
-53.34141540527344
 33
146.0
  0
3DFACE
  8
0
 10
28.472929000854492
 20
-53.34141540527344
 30
146.0
 11
30.86040496826172
 21
-54.57625198364258
 31
146.0
 12
34.95067596435547
 22
-54.033897399902344
 32
146.0
 13
34.95067596435547
 23
-54.033897399902344
 33
146.0
  0
3DFACE
  8
0
 10
34.95067596435547
 20
-54.033897399902344
 30
146.0
 11
37.15806198120117
 21
-51.28158187866211
 31
146.0
 12
37.36066436767578
 22
-46.69577407836914
 32
146.0
 13
37.36066436767578
 23
-46.69577407836914
 33
146.0
  0
3DFACE
  8
0
 10
37.36066436767578
 20
-46.69577407836914
 30
146.0
 11
36.80802536010742
 21
-45.30461502075195
 31
146.0
 12
35.69929122924805
 22
-43.643218994140625
 32
146.0
 13
35.69929122924805
 23
-43.643218994140625
 33
146.0
  0
3DFACE
  8
0
 10
35.69929122924805
 20
-43.643218994140625
 30
146.0
 11
34.25568389892578
 21
-42.15639877319336
 31
146.0
 12
33.35570526123047
 22
-41.661441802978516
 32
146.0
 13
33.35570526123047
 23
-41.661441802978516
 33
146.0
  0
3DFACE
  8
0
 10
33.35570526123047
 20
-41.661441802978516
 30
146.0
 11
32.36042785644531
 21
-41.35068893432617
 31
146.0
 12
31.997177124023438
 22
-41.32631301879883
 32
146.0
 13
31.997177124023438
 23
-41.32631301879883
 33
146.0
  0
3DFACE
  8
0
 10
31.997177124023438
 20
-41.32631301879883
 30
146.0
 11
31.697973251342773
 21
-41.299930572509766
 31
146.0
 12
31.192821502685547
 22
-41.288448333740234
 32
146.0
 13
31.192821502685547
 23
-41.288448333740234
 33
146.0
  0
3DFACE
  8
0
 10
31.192821502685547
 20
-41.288448333740234
 30
146.0
 11
30.815839767456055
 21
-41.32355880737305
 31
146.0
 12
30.171751022338867
 22
-41.41502380371094
 32
146.0
 13
30.171751022338867
 23
-41.41502380371094
 33
146.0
  0
3DFACE
  8
0
 10
29.835758209228516
 20
-41.51142120361328
 30
146.0
 11
29.617942810058594
 21
-41.56523132324219
 31
146.0
 12
29.4984073638916
 22
-41.60279083251953
 32
146.0
 13
29.4984073638916
 23
-41.60279083251953
 33
146.0
  0
3DFACE
  8
0
 10
31.192821502685547
 20
-41.288448333740234
 30
146.0
 11
30.171751022338867
 21
-41.41502380371094
 31
146.0
 12
29.835758209228516
 22
-41.51142120361328
 32
146.0
 13
29.835758209228516
 23
-41.51142120361328
 33
146.0
  0
3DFACE
  8
0
 10
33.35570526123047
 20
-41.661441802978516
 30
146.0
 11
31.997177124023438
 21
-41.32631301879883
 31
146.0
 12
31.192821502685547
 22
-41.288448333740234
 32
146.0
 13
31.192821502685547
 23
-41.288448333740234
 33
146.0
  0
3DFACE
  8
0
 10
37.36066436767578
 20
-46.69577407836914
 30
146.0
 11
35.69929122924805
 21
-43.643218994140625
 31
146.0
 12
33.35570526123047
 22
-41.661441802978516
 32
146.0
 13
33.35570526123047
 23
-41.661441802978516
 33
146.0
  0
3DFACE
  8
0
 10
28.472929000854492
 20
-53.34141540527344
 30
146.0
 11
34.95067596435547
 21
-54.033897399902344
 31
146.0
 12
37.36066436767578
 22
-46.69577407836914
 32
146.0
 13
37.36066436767578
 23
-46.69577407836914
 33
146.0
  0
3DFACE
  8
0
 10
26.926607131958008
 20
-51.18038558959961
 30
146.0
 11
27.041292190551758
 21
-51.385555267333984
 31
146.0
 12
28.472929000854492
 22
-53.34141540527344
 32
146.0
 13
28.472929000854492
 23
-53.34141540527344
 33
146.0
  0
3DFACE
  8
0
 10
26.603363037109375
 20
-50.40083694458008
 30
146.0
 11
26.61940574645996
 21
-50.44659423828125
 31
146.0
 12
26.926607131958008
 22
-51.18038558959961
 32
146.0
 13
26.926607131958008
 23
-51.18038558959961
 33
146.0
  0
3DFACE
  8
0
 10
26.24986457824707
 20
-49.1822395324707
 30
146.0
 11
26.300518035888672
 21
-49.455806732177734
 31
146.0
 12
26.584434509277344
 22
-50.33407974243164
 32
146.0
 13
26.584434509277344
 23
-50.33407974243164
 33
146.0
  0
3DFACE
  8
0
 10
26.584434509277344
 20
-50.33407974243164
 30
146.0
 11
26.603363037109375
 21
-50.40083694458008
 31
146.0
 12
26.926607131958008
 22
-51.18038558959961
 32
146.0
 13
26.926607131958008
 23
-51.18038558959961
 33
146.0
  0
3DFACE
  8
0
 10
26.926607131958008
 20
-51.18038558959961
 30
146.0
 11
28.472929000854492
 21
-53.34141540527344
 31
146.0
 12
37.36066436767578
 22
-46.69577407836914
 32
146.0
 13
37.36066436767578
 23
-46.69577407836914
 33
146.0
  0
3DFACE
  8
0
 10
37.36066436767578
 20
-46.69577407836914
 30
146.0
 11
33.35570526123047
 21
-41.661441802978516
 31
146.0
 12
31.192821502685547
 22
-41.288448333740234
 32
146.0
 13
31.192821502685547
 23
-41.288448333740234
 33
146.0
  0
3DFACE
  8
0
 10
31.192821502685547
 20
-41.288448333740234
 30
146.0
 11
29.835758209228516
 21
-41.51142120361328
 31
146.0
 12
29.4984073638916
 22
-41.60279083251953
 32
146.0
 13
29.4984073638916
 23
-41.60279083251953
 33
146.0
  0
3DFACE
  8
0
 10
29.4984073638916
 20
-41.60279083251953
 30
146.0
 11
28.631786346435547
 21
-41.957740783691406
 31
146.0
 12
28.583057403564453
 22
-41.98750305175781
 32
146.0
 13
28.583057403564453
 23
-41.98750305175781
 33
146.0
  0
3DFACE
  8
0
 10
28.583057403564453
 20
-41.98750305175781
 30
146.0
 11
27.747283935546875
 21
-42.545772552490234
 31
146.0
 12
27.645706176757812
 22
-42.64906311035156
 32
146.0
 13
27.645706176757812
 23
-42.64906311035156
 33
146.0
  0
3DFACE
  8
0
 10
27.645706176757812
 20
-42.64906311035156
 30
146.0
 11
27.121042251586914
 21
-43.258544921875
 31
146.0
 12
27.056930541992188
 22
-43.348411560058594
 32
146.0
 13
27.056930541992188
 23
-43.348411560058594
 33
146.0
  0
3DFACE
  8
0
 10
27.056930541992188
 20
-43.348411560058594
 30
146.0
 11
26.71399688720703
 21
-43.97087097167969
 31
146.0
 12
26.4482364654541
 22
-44.675235748291016
 32
146.0
 13
26.4482364654541
 23
-44.675235748291016
 33
146.0
  0
3DFACE
  8
0
 10
26.4482364654541
 20
-44.675235748291016
 30
146.0
 11
26.429935455322266
 21
-44.711795806884766
 31
146.0
 12
26.21531105041504
 22
-45.4476318359375
 32
146.0
 13
26.21531105041504
 23
-45.4476318359375
 33
146.0
  0
3DFACE
  8
0
 10
26.21531105041504
 20
-45.4476318359375
 30
146.0
 11
26.080320358276367
 21
-46.193267822265625
 31
146.0
 12
26.07399559020996
 22
-46.24296569824219
 32
146.0
 13
26.07399559020996
 23
-46.24296569824219
 33
146.0
  0
3DFACE
  8
0
 10
26.07399559020996
 20
-46.24296569824219
 30
146.0
 11
26.00924301147461
 21
-47.03487014770508
 31
146.0
 12
26.02254295349121
 22
-47.29097366333008
 32
146.0
 13
26.02254295349121
 23
-47.29097366333008
 33
146.0
  0
3DFACE
  8
0
 10
26.02254295349121
 20
-47.29097366333008
 30
146.0
 11
26.015487670898438
 21
-47.843284606933594
 31
146.0
 12
26.078800201416016
 22
-48.24723815917969
 32
146.0
 13
26.078800201416016
 23
-48.24723815917969
 33
146.0
  0
3DFACE
  8
0
 10
26.078800201416016
 20
-48.24723815917969
 30
146.0
 11
26.114578247070312
 21
-48.67329025268555
 31
146.0
 12
26.24986457824707
 22
-49.1822395324707
 32
146.0
 13
26.24986457824707
 23
-49.1822395324707
 33
146.0
  0
3DFACE
  8
0
 10
26.24986457824707
 20
-49.1822395324707
 30
146.0
 11
26.584434509277344
 21
-50.33407974243164
 31
146.0
 12
26.926607131958008
 22
-51.18038558959961
 32
146.0
 13
26.926607131958008
 23
-51.18038558959961
 33
146.0
  0
3DFACE
  8
0
 10
26.926607131958008
 20
-51.18038558959961
 30
146.0
 11
37.36066436767578
 21
-46.69577407836914
 31
146.0
 12
31.192821502685547
 22
-41.288448333740234
 32
146.0
 13
31.192821502685547
 23
-41.288448333740234
 33
146.0
  0
3DFACE
  8
0
 10
31.192821502685547
 20
-41.288448333740234
 30
146.0
 11
29.4984073638916
 21
-41.60279083251953
 31
146.0
 12
28.583057403564453
 22
-41.98750305175781
 32
146.0
 13
28.583057403564453
 23
-41.98750305175781
 33
146.0
  0
3DFACE
  8
0
 10
28.583057403564453
 20
-41.98750305175781
 30
146.0
 11
27.645706176757812
 21
-42.64906311035156
 31
146.0
 12
27.056930541992188
 22
-43.348411560058594
 32
146.0
 13
27.056930541992188
 23
-43.348411560058594
 33
146.0
  0
3DFACE
  8
0
 10
27.056930541992188
 20
-43.348411560058594
 30
146.0
 11
26.4482364654541
 21
-44.675235748291016
 31
146.0
 12
26.21531105041504
 22
-45.4476318359375
 32
146.0
 13
26.21531105041504
 23
-45.4476318359375
 33
146.0
  0
3DFACE
  8
0
 10
26.21531105041504
 20
-45.4476318359375
 30
146.0
 11
26.07399559020996
 21
-46.24296569824219
 31
146.0
 12
26.02254295349121
 22
-47.29097366333008
 32
146.0
 13
26.02254295349121
 23
-47.29097366333008
 33
146.0
  0
3DFACE
  8
0
 10
26.02254295349121
 20
-47.29097366333008
 30
146.0
 11
26.078800201416016
 21
-48.24723815917969
 31
146.0
 12
26.24986457824707
 22
-49.1822395324707
 32
146.0
 13
26.24986457824707
 23
-49.1822395324707
 33
146.0
  0
3DFACE
  8
0
 10
26.24986457824707
 20
-49.1822395324707
 30
146.0
 11
26.926607131958008
 21
-51.18038558959961
 31
146.0
 12
31.192821502685547
 22
-41.288448333740234
 32
146.0
 13
31.192821502685547
 23
-41.288448333740234
 33
146.0
  0
3DFACE
  8
0
 10
31.192821502685547
 20
-41.288448333740234
 30
146.0
 11
28.583057403564453
 21
-41.98750305175781
 31
146.0
 12
27.056930541992188
 22
-43.348411560058594
 32
146.0
 13
27.056930541992188
 23
-43.348411560058594
 33
146.0
  0
3DFACE
  8
0
 10
27.056930541992188
 20
-43.348411560058594
 30
146.0
 11
26.21531105041504
 21
-45.4476318359375
 31
146.0
 12
26.02254295349121
 22
-47.29097366333008
 32
146.0
 13
26.02254295349121
 23
-47.29097366333008
 33
146.0
  0
3DFACE
  8
0
 10
26.02254295349121
 20
-47.29097366333008
 30
146.0
 11
26.24986457824707
 21
-49.1822395324707
 31
146.0
 12
31.192821502685547
 22
-41.288448333740234
 32
146.0
 13
31.192821502685547
 23
-41.288448333740234
 33
146.0
  0
3DFACE
  8
0
 10
31.192821502685547
 20
-41.288448333740234
 30
146.0
 11
27.056930541992188
 21
-43.348411560058594
 31
146.0
 12
26.02254295349121
 22
-47.29097366333008
 32
146.0
 13
26.02254295349121
 23
-47.29097366333008
 33
146.0
  0
3DFACE
  8
0
 10
60.446285247802734
 20
-6.5815629959106445
 30
146.0
 11
60.44151306152344
 21
-6.589130401611328
 31
146.0
 12
60.43233108520508
 22
-6.609827041625977
 32
146.0
 13
60.43233108520508
 23
-6.609827041625977
 33
146.0
  0
3DFACE
  8
0
 10
60.43233108520508
 20
-6.609827041625977
 30
146.0
 11
60.085166931152344
 21
-7.358340263366699
 31
146.0
 12
59.98724365234375
 22
-7.6732282638549805
 32
146.0
 13
59.98724365234375
 23
-7.6732282638549805
 33
146.0
  0
3DFACE
  8
0
 10
59.98724365234375
 20
-7.6732282638549805
 30
146.0
 11
59.908103942871094
 21
-7.897157669067383
 31
146.0
 12
59.831050872802734
 22
-8.127547264099121
 32
146.0
 13
59.831050872802734
 23
-8.127547264099121
 33
146.0
  0
3DFACE
  8
0
 10
59.831050872802734
 20
-8.127547264099121
 30
146.0
 11
59.67644500732422
 21
-8.72386360168457
 31
146.0
 12
59.63972854614258
 22
-8.896754264831543
 32
146.0
 13
59.63972854614258
 23
-8.896754264831543
 33
146.0
  0
3DFACE
  8
0
 10
59.58207702636719
 20
-9.277046203613281
 30
146.0
 11
59.51689147949219
 21
-9.66596508026123
 31
146.0
 12
59.508506774902344
 22
-10.038671493530273
 32
146.0
 13
59.508506774902344
 23
-10.038671493530273
 33
146.0
  0
3DFACE
  8
0
 10
59.831050872802734
 20
-8.127547264099121
 30
146.0
 11
59.63972854614258
 21
-8.896754264831543
 31
146.0
 12
59.58207702636719
 22
-9.277046203613281
 32
146.0
 13
59.58207702636719
 23
-9.277046203613281
 33
146.0
  0
3DFACE
  8
0
 10
60.43233108520508
 20
-6.609827041625977
 30
146.0
 11
59.98724365234375
 21
-7.6732282638549805
 31
146.0
 12
59.831050872802734
 22
-8.127547264099121
 32
146.0
 13
59.831050872802734
 23
-8.127547264099121
 33
146.0
  0
3DFACE
  8
0
 10
60.81697082519531
 20
-5.928054332733154
 30
146.0
 11
60.446285247802734
 21
-6.5815629959106445
 31
146.0
 12
60.43233108520508
 22
-6.609827041625977
 32
146.0
 13
60.43233108520508
 23
-6.609827041625977
 33
146.0
  0
3DFACE
  8
0
 10
60.876007080078125
 20
-5.81992244720459
 30
146.0
 11
60.84536361694336
 21
-5.872506141662598
 31
146.0
 12
60.81697082519531
 22
-5.928054332733154
 32
146.0
 13
60.81697082519531
 23
-5.928054332733154
 33
146.0
  0
3DFACE
  8
0
 10
61.450531005859375
 20
-5.049349308013916
 30
146.0
 11
61.44036865234375
 21
-5.061939239501953
 31
146.0
 12
60.876007080078125
 22
-5.81992244720459
 32
146.0
 13
60.876007080078125
 23
-5.81992244720459
 33
146.0
  0
3DFACE
  8
0
 10
62.18401336669922
 20
-4.2947258949279785
 30
146.0
 11
62.135276794433594
 21
-4.336028575897217
 31
146.0
 12
61.450531005859375
 22
-5.049349308013916
 32
146.0
 13
61.450531005859375
 23
-5.049349308013916
 33
146.0
  0
3DFACE
  8
0
 10
63.13955307006836
 20
-3.512295722961426
 30
146.0
 11
62.28776931762695
 21
-4.200787544250488
 31
146.0
 12
62.18401336669922
 22
-4.2947258949279785
 32
146.0
 13
62.18401336669922
 23
-4.2947258949279785
 33
146.0
  0
3DFACE
  8
0
 10
63.76121139526367
 20
-3.104966878890991
 30
146.0
 11
63.21481704711914
 21
-3.4560418128967285
 31
146.0
 12
63.13955307006836
 22
-3.512295722961426
 32
146.0
 13
63.13955307006836
 23
-3.512295722961426
 33
146.0
  0
3DFACE
  8
0
 10
64.36660766601562
 20
-2.7965056896209717
 30
146.0
 11
63.979644775390625
 21
-2.9817521572113037
 31
146.0
 12
63.76121139526367
 22
-3.104966878890991
 32
146.0
 13
63.76121139526367
 23
-3.104966878890991
 33
146.0
  0
3DFACE
  8
0
 10
65.23876953125
 20
-2.3983535766601562
 30
146.0
 11
64.92925262451172
 21
-2.5312182903289795
 31
146.0
 12
64.62496185302734
 22
-2.6851329803466797
 32
146.0
 13
64.62496185302734
 23
-2.6851329803466797
 33
146.0
  0
3DFACE
  8
0
 10
64.62496185302734
 20
-2.6851329803466797
 30
146.0
 11
64.36660766601562
 21
-2.7965056896209717
 31
146.0
 12
63.76121139526367
 22
-3.104966878890991
 32
146.0
 13
63.76121139526367
 23
-3.104966878890991
 33
146.0
  0
3DFACE
  8
0
 10
63.76121139526367
 20
-3.104966878890991
 30
146.0
 11
63.13955307006836
 21
-3.512295722961426
 31
146.0
 12
62.18401336669922
 22
-4.2947258949279785
 32
146.0
 13
62.18401336669922
 23
-4.2947258949279785
 33
146.0
  0
3DFACE
  8
0
 10
62.18401336669922
 20
-4.2947258949279785
 30
146.0
 11
61.450531005859375
 21
-5.049349308013916
 31
146.0
 12
60.876007080078125
 22
-5.81992244720459
 32
146.0
 13
60.876007080078125
 23
-5.81992244720459
 33
146.0
  0
3DFACE
  8
0
 10
60.81697082519531
 20
-5.928054332733154
 30
146.0
 11
60.43233108520508
 21
-6.609827041625977
 31
146.0
 12
59.831050872802734
 22
-8.127547264099121
 32
146.0
 13
59.831050872802734
 23
-8.127547264099121
 33
146.0
  0
3DFACE
  8
0
 10
62.18401336669922
 20
-4.2947258949279785
 30
146.0
 11
60.876007080078125
 21
-5.81992244720459
 31
146.0
 12
60.81697082519531
 22
-5.928054332733154
 32
146.0
 13
60.81697082519531
 23
-5.928054332733154
 33
146.0
  0
3DFACE
  8
0
 10
64.62496185302734
 20
-2.6851329803466797
 30
146.0
 11
63.76121139526367
 21
-3.104966878890991
 31
146.0
 12
62.18401336669922
 22
-4.2947258949279785
 32
146.0
 13
62.18401336669922
 23
-4.2947258949279785
 33
146.0
  0
3DFACE
  8
0
 10
65.71329498291016
 20
-2.2320234775543213
 30
146.0
 11
65.23876953125
 21
-2.3983535766601562
 31
146.0
 12
64.62496185302734
 22
-2.6851329803466797
 32
146.0
 13
64.62496185302734
 23
-2.6851329803466797
 33
146.0
  0
3DFACE
  8
0
 10
65.95298767089844
 20
-2.1492743492126465
 30
146.0
 11
65.88201904296875
 21
-2.1656460762023926
 31
146.0
 12
65.71329498291016
 22
-2.2320234775543213
 32
146.0
 13
65.71329498291016
 23
-2.2320234775543213
 33
146.0
  0
3DFACE
  8
0
 10
66.3109130859375
 20
-2.057562828063965
 30
146.0
 11
66.12699890136719
 21
-2.0962157249450684
 31
146.0
 12
65.95298767089844
 22
-2.1492743492126465
 32
146.0
 13
65.95298767089844
 23
-2.1492743492126465
 33
146.0
  0
3DFACE
  8
0
 10
66.94743347167969
 20
-1.900166630744934
 30
146.0
 11
66.602783203125
 21
-1.9738798141479492
 31
146.0
 12
66.3109130859375
 22
-2.057562828063965
 32
146.0
 13
66.3109130859375
 23
-2.057562828063965
 33
146.0
  0
3DFACE
  8
0
 10
67.81178283691406
 20
-1.760075330734253
 30
146.0
 11
67.49610137939453
 21
-1.8082228899002075
 31
146.0
 12
66.94743347167969
 22
-1.900166630744934
 32
146.0
 13
66.94743347167969
 23
-1.900166630744934
 33
146.0
  0
3DFACE
  8
0
 10
68.55258178710938
 20
-1.72869873046875
 30
146.0
 11
68.45506286621094
 21
-1.721940040588379
 31
146.0
 12
68.42906951904297
 22
-1.724634051322937
 32
146.0
 13
68.42906951904297
 23
-1.724634051322937
 33
146.0
  0
3DFACE
  8
0
 10
68.42906951904297
 20
-1.724634051322937
 30
146.0
 11
67.81178283691406
 21
-1.760075330734253
 31
146.0
 12
66.94743347167969
 22
-1.900166630744934
 32
146.0
 13
66.94743347167969
 23
-1.900166630744934
 33
146.0
  0
3DFACE
  8
0
 10
66.94743347167969
 20
-1.900166630744934
 30
146.0
 11
66.3109130859375
 21
-2.057562828063965
 31
146.0
 12
65.95298767089844
 22
-2.1492743492126465
 32
146.0
 13
65.95298767089844
 23
-2.1492743492126465
 33
146.0
  0
3DFACE
  8
0
 10
65.95298767089844
 20
-2.1492743492126465
 30
146.0
 11
65.71329498291016
 21
-2.2320234775543213
 31
146.0
 12
64.62496185302734
 22
-2.6851329803466797
 32
146.0
 13
64.62496185302734
 23
-2.6851329803466797
 33
146.0
  0
3DFACE
  8
0
 10
64.62496185302734
 20
-2.6851329803466797
 30
146.0
 11
62.18401336669922
 21
-4.2947258949279785
 31
146.0
 12
60.81697082519531
 22
-5.928054332733154
 32
146.0
 13
60.81697082519531
 23
-5.928054332733154
 33
146.0
  0
3DFACE
  8
0
 10
60.81697082519531
 20
-5.928054332733154
 30
146.0
 11
59.831050872802734
 21
-8.127547264099121
 31
146.0
 12
59.58207702636719
 22
-9.277046203613281
 32
146.0
 13
59.58207702636719
 23
-9.277046203613281
 33
146.0
  0
3DFACE
  8
0
 10
59.58207702636719
 20
-9.277046203613281
 30
146.0
 11
59.508506774902344
 21
-10.038671493530273
 31
146.0
 12
59.4859504699707
 22
-10.435172080993652
 32
146.0
 13
59.4859504699707
 23
-10.435172080993652
 33
146.0
  0
3DFACE
  8
0
 10
59.4859504699707
 20
-10.435172080993652
 30
146.0
 11
59.49138641357422
 21
-10.600168228149414
 31
146.0
 12
59.53586196899414
 22
-11.204380989074707
 32
146.0
 13
59.53586196899414
 23
-11.204380989074707
 33
146.0
  0
3DFACE
  8
0
 10
59.61053466796875
 20
-11.634319305419922
 30
146.0
 11
59.664405822753906
 21
-11.973589897155762
 31
146.0
 12
59.77326583862305
 22
-12.338666915893555
 32
146.0
 13
59.77326583862305
 23
-12.338666915893555
 33
146.0
  0
3DFACE
  8
0
 10
59.4859504699707
 20
-10.435172080993652
 30
146.0
 11
59.53586196899414
 21
-11.204380989074707
 31
146.0
 12
59.61053466796875
 22
-11.634319305419922
 32
146.0
 13
59.61053466796875
 23
-11.634319305419922
 33
146.0
  0
3DFACE
  8
0
 10
60.81697082519531
 20
-5.928054332733154
 30
146.0
 11
59.58207702636719
 21
-9.277046203613281
 31
146.0
 12
59.4859504699707
 22
-10.435172080993652
 32
146.0
 13
59.4859504699707
 23
-10.435172080993652
 33
146.0
  0
3DFACE
  8
0
 10
65.95298767089844
 20
-2.1492743492126465
 30
146.0
 11
64.62496185302734
 21
-2.6851329803466797
 31
146.0
 12
60.81697082519531
 22
-5.928054332733154
 32
146.0
 13
60.81697082519531
 23
-5.928054332733154
 33
146.0
  0
3DFACE
  8
0
 10
68.42906951904297
 20
-1.724634051322937
 30
146.0
 11
66.94743347167969
 21
-1.900166630744934
 31
146.0
 12
65.95298767089844
 22
-2.1492743492126465
 32
146.0
 13
65.95298767089844
 23
-2.1492743492126465
 33
146.0
  0
3DFACE
  8
0
 10
69.7415542602539
 20
-1.7920992374420166
 30
146.0
 11
68.55258178710938
 21
-1.72869873046875
 31
146.0
 12
68.42906951904297
 22
-1.724634051322937
 32
146.0
 13
68.42906951904297
 23
-1.724634051322937
 33
146.0
  0
3DFACE
  8
0
 10
70.85858154296875
 20
-1.9909040927886963
 30
146.0
 11
70.39787292480469
 21
-1.8914909362792969
 31
146.0
 12
70.2528305053711
 22
-1.8735243082046509
 32
146.0
 13
70.2528305053711
 23
-1.8735243082046509
 33
146.0
  0
3DFACE
  8
0
 10
70.2528305053711
 20
-1.8735243082046509
 30
146.0
 11
69.7415542602539
 21
-1.7920992374420166
 31
146.0
 12
68.42906951904297
 22
-1.724634051322937
 32
146.0
 13
68.42906951904297
 23
-1.724634051322937
 33
146.0
  0
3DFACE
  8
0
 10
68.42906951904297
 20
-1.724634051322937
 30
146.0
 11
65.95298767089844
 21
-2.1492743492126465
 31
146.0
 12
60.81697082519531
 22
-5.928054332733154
 32
146.0
 13
60.81697082519531
 23
-5.928054332733154
 33
146.0
  0
3DFACE
  8
0
 10
60.81697082519531
 20
-5.928054332733154
 30
146.0
 11
59.4859504699707
 21
-10.435172080993652
 31
146.0
 12
59.61053466796875
 22
-11.634319305419922
 32
146.0
 13
59.61053466796875
 23
-11.634319305419922
 33
146.0
  0
3DFACE
  8
0
 10
59.61053466796875
 20
-11.634319305419922
 30
146.0
 11
59.77326583862305
 21
-12.338666915893555
 31
146.0
 12
59.90201950073242
 22
-12.742796897888184
 32
146.0
 13
59.90201950073242
 23
-12.742796897888184
 33
146.0
  0
3DFACE
  8
0
 10
60.13361358642578
 20
-13.37043285369873
 30
146.0
 11
60.18607711791992
 21
-13.534052848815918
 31
146.0
 12
60.51253890991211
 22
-14.24685001373291
 32
146.0
 13
60.51253890991211
 23
-14.24685001373291
 33
146.0
  0
3DFACE
  8
0
 10
59.61053466796875
 20
-11.634319305419922
 30
146.0
 11
59.90201950073242
 21
-12.742796897888184
 31
146.0
 12
60.13361358642578
 22
-13.37043285369873
 32
146.0
 13
60.13361358642578
 23
-13.37043285369873
 33
146.0
  0
3DFACE
  8
0
 10
68.42906951904297
 20
-1.724634051322937
 30
146.0
 11
60.81697082519531
 21
-5.928054332733154
 31
146.0
 12
59.61053466796875
 22
-11.634319305419922
 32
146.0
 13
59.61053466796875
 23
-11.634319305419922
 33
146.0
  0
3DFACE
  8
0
 10
70.85858154296875
 20
-1.9909040927886963
 30
146.0
 11
70.2528305053711
 21
-1.8735243082046509
 31
146.0
 12
68.42906951904297
 22
-1.724634051322937
 32
146.0
 13
68.42906951904297
 23
-1.724634051322937
 33
146.0
  0
3DFACE
  8
0
 10
71.65667724609375
 20
-2.256182909011841
 30
146.0
 11
70.95874786376953
 21
-2.015254020690918
 31
146.0
 12
70.85858154296875
 22
-1.9909040927886963
 32
146.0
 13
70.85858154296875
 23
-1.9909040927886963
 33
146.0
  0
3DFACE
  8
0
 10
72.31458282470703
 20
-2.46401309967041
 30
146.0
 11
71.67131805419922
 21
-2.2605953216552734
 31
146.0
 12
71.65667724609375
 22
-2.256182909011841
 32
146.0
 13
71.65667724609375
 23
-2.256182909011841
 33
146.0
  0
3DFACE
  8
0
 10
73.30398559570312
 20
-2.900224447250366
 30
146.0
 11
73.03963470458984
 21
-2.759190320968628
 31
146.0
 12
72.31458282470703
 22
-2.46401309967041
 32
146.0
 13
72.31458282470703
 23
-2.46401309967041
 33
146.0
  0
3DFACE
  8
0
 10
74.38330841064453
 20
-3.506643056869507
 30
146.0
 11
73.51203918457031
 21
-3.005128860473633
 31
146.0
 12
73.30398559570312
 22
-2.900224447250366
 32
146.0
 13
73.30398559570312
 23
-2.900224447250366
 33
146.0
  0
3DFACE
  8
0
 10
75.5901870727539
 20
-4.450399398803711
 30
146.0
 11
75.45069885253906
 21
-4.312345504760742
 31
146.0
 12
74.38330841064453
 22
-3.506643056869507
 32
146.0
 13
74.38330841064453
 23
-3.506643056869507
 33
146.0
  0
3DFACE
  8
0
 10
76.43890380859375
 20
-5.396969795227051
 30
146.0
 11
76.14151763916016
 21
-5.042021751403809
 31
146.0
 12
75.5901870727539
 22
-4.450399398803711
 32
146.0
 13
75.5901870727539
 23
-4.450399398803711
 33
146.0
  0
3DFACE
  8
0
 10
77.03824615478516
 20
-6.300705432891846
 30
146.0
 11
76.74335479736328
 21
-5.817254543304443
 31
146.0
 12
76.43890380859375
 22
-5.396969795227051
 32
146.0
 13
76.43890380859375
 23
-5.396969795227051
 33
146.0
  0
3DFACE
  8
0
 10
77.32193756103516
 20
-6.796508312225342
 30
146.0
 11
77.22077178955078
 21
-6.589130401611328
 31
146.0
 12
77.03824615478516
 22
-6.300705432891846
 32
146.0
 13
77.03824615478516
 23
-6.300705432891846
 33
146.0
  0
3DFACE
  8
0
 10
77.824462890625
 20
-8.042196273803711
 30
146.0
 11
77.57279205322266
 21
-7.350095272064209
 31
146.0
 12
77.32193756103516
 22
-6.796508312225342
 32
146.0
 13
77.32193756103516
 23
-6.796508312225342
 33
146.0
  0
3DFACE
  8
0
 10
77.86603546142578
 20
-8.205162048339844
 30
146.0
 11
77.85269927978516
 21
-8.127547264099121
 31
146.0
 12
77.824462890625
 22
-8.042196273803711
 32
146.0
 13
77.824462890625
 23
-8.042196273803711
 33
146.0
  0
3DFACE
  8
0
 10
78.0455551147461
 20
-9.66596508026123
 30
146.0
 11
78.00283813476562
 21
-8.896754264831543
 31
146.0
 12
77.86603546142578
 22
-8.205162048339844
 32
146.0
 13
77.86603546142578
 23
-8.205162048339844
 33
146.0
  0
3DFACE
  8
0
 10
78.02823638916016
 20
-10.435172080993652
 30
146.0
 11
78.03453826904297
 21
-10.281915664672852
 31
146.0
 12
78.0455551147461
 22
-9.66596508026123
 32
146.0
 13
78.0455551147461
 23
-9.66596508026123
 33
146.0
  0
3DFACE
  8
0
 10
77.72596740722656
 20
-11.973589897155762
 30
146.0
 11
77.9056625366211
 21
-11.204380989074707
 31
146.0
 12
78.02823638916016
 22
-10.435172080993652
 32
146.0
 13
78.02823638916016
 23
-10.435172080993652
 33
146.0
  0
3DFACE
  8
0
 10
77.15181732177734
 20
-13.504419326782227
 30
146.0
 11
77.45597839355469
 21
-12.742796897888184
 31
146.0
 12
77.72596740722656
 22
-11.973589897155762
 32
146.0
 13
77.72596740722656
 23
-11.973589897155762
 33
146.0
  0
3DFACE
  8
0
 10
76.71392059326172
 20
-14.282408714294434
 30
146.0
 11
77.14340209960938
 21
-13.520477294921875
 31
146.0
 12
77.15181732177734
 22
-13.504419326782227
 32
146.0
 13
77.15181732177734
 23
-13.504419326782227
 33
146.0
  0
3DFACE
  8
0
 10
76.17930603027344
 20
-15.075465202331543
 30
146.0
 11
76.36450958251953
 21
-14.80783748626709
 31
146.0
 12
76.71392059326172
 22
-14.282408714294434
 32
146.0
 13
76.71392059326172
 23
-14.282408714294434
 33
146.0
  0
3DFACE
  8
0
 10
74.8401107788086
 20
-16.62147331237793
 30
146.0
 11
75.63288879394531
 21
-15.815529823303223
 31
146.0
 12
76.17930603027344
 22
-15.075465202331543
 32
146.0
 13
76.17930603027344
 23
-15.075465202331543
 33
146.0
  0
3DFACE
  8
0
 10
73.94439697265625
 20
-17.381019592285156
 30
146.0
 11
74.23551940917969
 21
-17.160554885864258
 31
146.0
 12
74.78634643554688
 22
-16.667972564697266
 32
146.0
 13
74.78634643554688
 23
-16.667972564697266
 33
146.0
  0
3DFACE
  8
0
 10
74.78634643554688
 20
-16.667972564697266
 30
146.0
 11
74.8401107788086
 21
-16.62147331237793
 31
146.0
 12
76.17930603027344
 22
-15.075465202331543
 32
146.0
 13
76.17930603027344
 23
-15.075465202331543
 33
146.0
  0
3DFACE
  8
0
 10
76.17930603027344
 20
-15.075465202331543
 30
146.0
 11
76.71392059326172
 21
-14.282408714294434
 31
146.0
 12
77.15181732177734
 22
-13.504419326782227
 32
146.0
 13
77.15181732177734
 23
-13.504419326782227
 33
146.0
  0
3DFACE
  8
0
 10
77.15181732177734
 20
-13.504419326782227
 30
146.0
 11
77.72596740722656
 21
-11.973589897155762
 31
146.0
 12
78.02823638916016
 22
-10.435172080993652
 32
146.0
 13
78.02823638916016
 23
-10.435172080993652
 33
146.0
  0
3DFACE
  8
0
 10
78.02823638916016
 20
-10.435172080993652
 30
146.0
 11
78.0455551147461
 21
-9.66596508026123
 31
146.0
 12
77.86603546142578
 22
-8.205162048339844
 32
146.0
 13
77.86603546142578
 23
-8.205162048339844
 33
146.0
  0
3DFACE
  8
0
 10
77.86603546142578
 20
-8.205162048339844
 30
146.0
 11
77.824462890625
 21
-8.042196273803711
 31
146.0
 12
77.32193756103516
 22
-6.796508312225342
 32
146.0
 13
77.32193756103516
 23
-6.796508312225342
 33
146.0
  0
3DFACE
  8
0
 10
77.32193756103516
 20
-6.796508312225342
 30
146.0
 11
77.03824615478516
 21
-6.300705432891846
 31
146.0
 12
76.43890380859375
 22
-5.396969795227051
 32
146.0
 13
76.43890380859375
 23
-5.396969795227051
 33
146.0
  0
3DFACE
  8
0
 10
76.43890380859375
 20
-5.396969795227051
 30
146.0
 11
75.5901870727539
 21
-4.450399398803711
 31
146.0
 12
74.38330841064453
 22
-3.506643056869507
 32
146.0
 13
74.38330841064453
 23
-3.506643056869507
 33
146.0
  0
3DFACE
  8
0
 10
74.38330841064453
 20
-3.506643056869507
 30
146.0
 11
73.30398559570312
 21
-2.900224447250366
 31
146.0
 12
72.31458282470703
 22
-2.46401309967041
 32
146.0
 13
72.31458282470703
 23
-2.46401309967041
 33
146.0
  0
3DFACE
  8
0
 10
71.65667724609375
 20
-2.256182909011841
 30
146.0
 11
70.85858154296875
 21
-1.9909040927886963
 31
146.0
 12
68.42906951904297
 22
-1.724634051322937
 32
146.0
 13
68.42906951904297
 23
-1.724634051322937
 33
146.0
  0
3DFACE
  8
0
 10
74.38330841064453
 20
-3.506643056869507
 30
146.0
 11
72.31458282470703
 21
-2.46401309967041
 31
146.0
 12
71.65667724609375
 22
-2.256182909011841
 32
146.0
 13
71.65667724609375
 23
-2.256182909011841
 33
146.0
  0
3DFACE
  8
0
 10
77.32193756103516
 20
-6.796508312225342
 30
146.0
 11
76.43890380859375
 21
-5.396969795227051
 31
146.0
 12
74.38330841064453
 22
-3.506643056869507
 32
146.0
 13
74.38330841064453
 23
-3.506643056869507
 33
146.0
  0
3DFACE
  8
0
 10
78.02823638916016
 20
-10.435172080993652
 30
146.0
 11
77.86603546142578
 21
-8.205162048339844
 31
146.0
 12
77.32193756103516
 22
-6.796508312225342
 32
146.0
 13
77.32193756103516
 23
-6.796508312225342
 33
146.0
  0
3DFACE
  8
0
 10
76.17930603027344
 20
-15.075465202331543
 30
146.0
 11
77.15181732177734
 21
-13.504419326782227
 31
146.0
 12
78.02823638916016
 22
-10.435172080993652
 32
146.0
 13
78.02823638916016
 23
-10.435172080993652
 33
146.0
  0
3DFACE
  8
0
 10
73.94439697265625
 20
-17.381019592285156
 30
146.0
 11
74.78634643554688
 21
-16.667972564697266
 31
146.0
 12
76.17930603027344
 22
-15.075465202331543
 32
146.0
 13
76.17930603027344
 23
-15.075465202331543
 33
146.0
  0
3DFACE
  8
0
 10
72.99012756347656
 20
-18.067481994628906
 30
146.0
 11
73.28060150146484
 21
-17.873550415039062
 31
146.0
 12
73.94439697265625
 22
-17.381019592285156
 32
146.0
 13
73.94439697265625
 23
-17.381019592285156
 33
146.0
  0
3DFACE
  8
0
 10
71.71593475341797
 20
-18.670862197875977
 30
146.0
 11
72.30902099609375
 21
-18.430028915405273
 31
146.0
 12
72.43860626220703
 22
-18.357847213745117
 32
146.0
 13
72.43860626220703
 23
-18.357847213745117
 33
146.0
  0
3DFACE
  8
0
 10
72.43860626220703
 20
-18.357847213745117
 30
146.0
 11
72.99012756347656
 21
-18.067481994628906
 31
146.0
 12
73.94439697265625
 22
-17.381019592285156
 32
146.0
 13
73.94439697265625
 23
-17.381019592285156
 33
146.0
  0
3DFACE
  8
0
 10
73.94439697265625
 20
-17.381019592285156
 30
146.0
 11
76.17930603027344
 21
-15.075465202331543
 31
146.0
 12
78.02823638916016
 22
-10.435172080993652
 32
146.0
 13
78.02823638916016
 23
-10.435172080993652
 33
146.0
  0
3DFACE
  8
0
 10
78.02823638916016
 20
-10.435172080993652
 30
146.0
 11
77.32193756103516
 21
-6.796508312225342
 31
146.0
 12
74.38330841064453
 22
-3.506643056869507
 32
146.0
 13
74.38330841064453
 23
-3.506643056869507
 33
146.0
  0
3DFACE
  8
0
 10
74.38330841064453
 20
-3.506643056869507
 30
146.0
 11
71.65667724609375
 21
-2.256182909011841
 31
146.0
 12
68.42906951904297
 22
-1.724634051322937
 32
146.0
 13
68.42906951904297
 23
-1.724634051322937
 33
146.0
  0
3DFACE
  8
0
 10
68.42906951904297
 20
-1.724634051322937
 30
146.0
 11
59.61053466796875
 21
-11.634319305419922
 31
146.0
 12
60.13361358642578
 22
-13.37043285369873
 32
146.0
 13
60.13361358642578
 23
-13.37043285369873
 33
146.0
  0
3DFACE
  8
0
 10
60.13361358642578
 20
-13.37043285369873
 30
146.0
 11
60.51253890991211
 21
-14.24685001373291
 31
146.0
 12
60.52237319946289
 22
-14.266939163208008
 32
146.0
 13
60.52237319946289
 23
-14.266939163208008
 33
146.0
  0
3DFACE
  8
0
 10
60.52237319946289
 20
-14.266939163208008
 30
146.0
 11
60.529197692871094
 21
-14.28205680847168
 31
146.0
 12
60.54539108276367
 22
-14.311748504638672
 32
146.0
 13
60.54539108276367
 23
-14.311748504638672
 33
146.0
  0
3DFACE
  8
0
 10
60.54539108276367
 20
-14.311748504638672
 30
146.0
 11
60.959232330322266
 21
-15.042346954345703
 31
146.0
 12
61.491371154785156
 22
-15.780760765075684
 32
146.0
 13
61.491371154785156
 23
-15.780760765075684
 33
146.0
  0
3DFACE
  8
0
 10
61.491371154785156
 20
-15.780760765075684
 30
146.0
 11
62.1527214050293
 21
-16.497020721435547
 31
146.0
 12
62.23944091796875
 22
-16.576934814453125
 32
146.0
 13
62.23944091796875
 23
-16.576934814453125
 33
146.0
  0
3DFACE
  8
0
 10
62.23944091796875
 20
-16.576934814453125
 30
146.0
 11
62.31589126586914
 21
-16.64951515197754
 31
146.0
 12
62.665748596191406
 22
-16.948657989501953
 32
146.0
 13
62.665748596191406
 23
-16.948657989501953
 33
146.0
  0
3DFACE
  8
0
 10
62.665748596191406
 20
-16.948657989501953
 30
146.0
 11
62.98929214477539
 21
-17.18285369873047
 31
146.0
 12
63.4586296081543
 22
-17.504959106445312
 32
146.0
 13
63.4586296081543
 23
-17.504959106445312
 33
146.0
  0
3DFACE
  8
0
 10
63.4586296081543
 20
-17.504959106445312
 30
146.0
 11
63.76121139526367
 21
-17.729961395263672
 31
146.0
 12
63.9522590637207
 22
-17.855266571044922
 32
146.0
 13
63.9522590637207
 23
-17.855266571044922
 33
146.0
  0
3DFACE
  8
0
 10
64.35978698730469
 20
-18.085725784301758
 30
146.0
 11
64.5498046875
 21
-18.199729919433594
 31
146.0
 12
64.5664291381836
 22
-18.208145141601562
 32
146.0
 13
64.5664291381836
 23
-18.208145141601562
 33
146.0
  0
3DFACE
  8
0
 10
63.4586296081543
 20
-17.504959106445312
 30
146.0
 11
63.9522590637207
 21
-17.855266571044922
 31
146.0
 12
64.35978698730469
 22
-18.085725784301758
 32
146.0
 13
64.35978698730469
 23
-18.085725784301758
 33
146.0
  0
3DFACE
  8
0
 10
62.23944091796875
 20
-16.576934814453125
 30
146.0
 11
62.665748596191406
 21
-16.948657989501953
 31
146.0
 12
63.4586296081543
 22
-17.504959106445312
 32
146.0
 13
63.4586296081543
 23
-17.504959106445312
 33
146.0
  0
3DFACE
  8
0
 10
60.54539108276367
 20
-14.311748504638672
 30
146.0
 11
61.491371154785156
 21
-15.780760765075684
 31
146.0
 12
62.23944091796875
 22
-16.576934814453125
 32
146.0
 13
62.23944091796875
 23
-16.576934814453125
 33
146.0
  0
3DFACE
  8
0
 10
60.13361358642578
 20
-13.37043285369873
 30
146.0
 11
60.52237319946289
 21
-14.266939163208008
 31
146.0
 12
60.54539108276367
 22
-14.311748504638672
 32
146.0
 13
60.54539108276367
 23
-14.311748504638672
 33
146.0
  0
3DFACE
  8
0
 10
74.38330841064453
 20
-3.506643056869507
 30
146.0
 11
68.42906951904297
 21
-1.724634051322937
 31
146.0
 12
60.13361358642578
 22
-13.37043285369873
 32
146.0
 13
60.13361358642578
 23
-13.37043285369873
 33
146.0
  0
3DFACE
  8
0
 10
73.94439697265625
 20
-17.381019592285156
 30
146.0
 11
78.02823638916016
 21
-10.435172080993652
 31
146.0
 12
74.38330841064453
 22
-3.506643056869507
 32
146.0
 13
74.38330841064453
 23
-3.506643056869507
 33
146.0
  0
3DFACE
  8
0
 10
71.71593475341797
 20
-18.670862197875977
 30
146.0
 11
72.43860626220703
 21
-18.357847213745117
 31
146.0
 12
73.94439697265625
 22
-17.381019592285156
 32
146.0
 13
73.94439697265625
 23
-17.381019592285156
 33
146.0
  0
3DFACE
  8
0
 10
71.0300521850586
 20
-18.907207489013672
 30
146.0
 11
71.0561294555664
 21
-18.90035057067871
 31
146.0
 12
71.69729614257812
 22
-18.676557540893555
 32
146.0
 13
71.69729614257812
 23
-18.676557540893555
 33
146.0
  0
3DFACE
  8
0
 10
71.69729614257812
 20
-18.676557540893555
 30
146.0
 11
71.71593475341797
 21
-18.670862197875977
 31
146.0
 12
73.94439697265625
 22
-17.381019592285156
 32
146.0
 13
73.94439697265625
 23
-17.381019592285156
 33
146.0
  0
3DFACE
  8
0
 10
73.94439697265625
 20
-17.381019592285156
 30
146.0
 11
74.38330841064453
 21
-3.506643056869507
 31
146.0
 12
60.13361358642578
 22
-13.37043285369873
 32
146.0
 13
60.13361358642578
 23
-13.37043285369873
 33
146.0
  0
3DFACE
  8
0
 10
60.13361358642578
 20
-13.37043285369873
 30
146.0
 11
60.54539108276367
 21
-14.311748504638672
 31
146.0
 12
62.23944091796875
 22
-16.576934814453125
 32
146.0
 13
62.23944091796875
 23
-16.576934814453125
 33
146.0
  0
3DFACE
  8
0
 10
62.23944091796875
 20
-16.576934814453125
 30
146.0
 11
63.4586296081543
 21
-17.504959106445312
 31
146.0
 12
64.35978698730469
 22
-18.085725784301758
 32
146.0
 13
64.35978698730469
 23
-18.085725784301758
 33
146.0
  0
3DFACE
  8
0
 10
64.35978698730469
 20
-18.085725784301758
 30
146.0
 11
64.5664291381836
 21
-18.208145141601562
 31
146.0
 12
64.59551239013672
 22
-18.22381019592285
 32
146.0
 13
64.59551239013672
 23
-18.22381019592285
 33
146.0
  0
3DFACE
  8
0
 10
64.59551239013672
 20
-18.22381019592285
 30
146.0
 11
65.23876953125
 21
-18.5360164642334
 31
146.0
 12
65.3384017944336
 22
-18.571075439453125
 32
146.0
 13
65.3384017944336
 23
-18.571075439453125
 33
146.0
  0
3DFACE
  8
0
 10
65.3384017944336
 20
-18.571075439453125
 30
146.0
 11
65.91487121582031
 21
-18.786861419677734
 31
146.0
 12
66.20813751220703
 22
-18.872949600219727
 32
146.0
 13
66.20813751220703
 23
-18.872949600219727
 33
146.0
  0
3DFACE
  8
0
 10
66.55303192138672
 20
-18.960601806640625
 30
146.0
 11
66.91560363769531
 21
-19.07079315185547
 31
146.0
 12
67.16854095458984
 22
-19.124122619628906
 32
146.0
 13
67.16854095458984
 23
-19.124122619628906
 33
146.0
  0
3DFACE
  8
0
 10
65.3384017944336
 20
-18.571075439453125
 30
146.0
 11
66.20813751220703
 21
-18.872949600219727
 31
146.0
 12
66.55303192138672
 22
-18.960601806640625
 32
146.0
 13
66.55303192138672
 23
-18.960601806640625
 33
146.0
  0
3DFACE
  8
0
 10
64.35978698730469
 20
-18.085725784301758
 30
146.0
 11
64.59551239013672
 21
-18.22381019592285
 31
146.0
 12
65.3384017944336
 22
-18.571075439453125
 32
146.0
 13
65.3384017944336
 23
-18.571075439453125
 33
146.0
  0
3DFACE
  8
0
 10
60.13361358642578
 20
-13.37043285369873
 30
146.0
 11
62.23944091796875
 21
-16.576934814453125
 31
146.0
 12
64.35978698730469
 22
-18.085725784301758
 32
146.0
 13
64.35978698730469
 23
-18.085725784301758
 33
146.0
  0
3DFACE
  8
0
 10
71.69729614257812
 20
-18.676557540893555
 30
146.0
 11
73.94439697265625
 21
-17.381019592285156
 31
146.0
 12
60.13361358642578
 22
-13.37043285369873
 32
146.0
 13
60.13361358642578
 23
-13.37043285369873
 33
146.0
  0
3DFACE
  8
0
 10
70.45303344726562
 20
-19.081844329833984
 30
146.0
 11
71.0300521850586
 21
-18.907207489013672
 31
146.0
 12
71.69729614257812
 22
-18.676557540893555
 32
146.0
 13
71.69729614257812
 23
-18.676557540893555
 33
146.0
  0
3DFACE
  8
0
 10
69.70612335205078
 20
-19.21933937072754
 30
146.0
 11
69.91339874267578
 21
-19.18834686279297
 31
146.0
 12
70.45303344726562
 22
-19.081844329833984
 32
146.0
 13
70.45303344726562
 23
-19.081844329833984
 33
146.0
  0
3DFACE
  8
0
 10
68.97222137451172
 20
-19.261890411376953
 30
146.0
 11
69.28141021728516
 21
-19.248838424682617
 31
146.0
 12
69.53483581542969
 22
-19.229591369628906
 32
146.0
 13
69.53483581542969
 23
-19.229591369628906
 33
146.0
  0
3DFACE
  8
0
 10
69.53483581542969
 20
-19.229591369628906
 30
146.0
 11
69.70612335205078
 21
-19.21933937072754
 31
146.0
 12
70.45303344726562
 22
-19.081844329833984
 32
146.0
 13
70.45303344726562
 23
-19.081844329833984
 33
146.0
  0
3DFACE
  8
0
 10
70.45303344726562
 20
-19.081844329833984
 30
146.0
 11
71.69729614257812
 21
-18.676557540893555
 31
146.0
 12
60.13361358642578
 22
-13.37043285369873
 32
146.0
 13
60.13361358642578
 23
-13.37043285369873
 33
146.0
  0
3DFACE
  8
0
 10
60.13361358642578
 20
-13.37043285369873
 30
146.0
 11
64.35978698730469
 21
-18.085725784301758
 31
146.0
 12
65.3384017944336
 22
-18.571075439453125
 32
146.0
 13
65.3384017944336
 23
-18.571075439453125
 33
146.0
  0
3DFACE
  8
0
 10
65.3384017944336
 20
-18.571075439453125
 30
146.0
 11
66.55303192138672
 21
-18.960601806640625
 31
146.0
 12
67.16854095458984
 22
-19.124122619628906
 32
146.0
 13
67.16854095458984
 23
-19.124122619628906
 33
146.0
  0
3DFACE
  8
0
 10
67.16854095458984
 20
-19.124122619628906
 30
146.0
 11
67.83760070800781
 21
-19.214500427246094
 31
146.0
 12
68.45506286621094
 22
-19.275653839111328
 32
146.0
 13
68.45506286621094
 23
-19.275653839111328
 33
146.0
  0
3DFACE
  8
0
 10
68.45506286621094
 20
-19.275653839111328
 30
146.0
 11
68.97222137451172
 21
-19.261890411376953
 31
146.0
 12
69.53483581542969
 22
-19.229591369628906
 32
146.0
 13
69.53483581542969
 23
-19.229591369628906
 33
146.0
  0
3DFACE
  8
0
 10
69.53483581542969
 20
-19.229591369628906
 30
146.0
 11
70.45303344726562
 21
-19.081844329833984
 31
146.0
 12
60.13361358642578
 22
-13.37043285369873
 32
146.0
 13
60.13361358642578
 23
-13.37043285369873
 33
146.0
  0
3DFACE
  8
0
 10
60.13361358642578
 20
-13.37043285369873
 30
146.0
 11
65.3384017944336
 21
-18.571075439453125
 31
146.0
 12
67.16854095458984
 22
-19.124122619628906
 32
146.0
 13
67.16854095458984
 23
-19.124122619628906
 33
146.0
  0
3DFACE
  8
0
 10
67.16854095458984
 20
-19.124122619628906
 30
146.0
 11
68.45506286621094
 21
-19.275653839111328
 31
146.0
 12
69.53483581542969
 22
-19.229591369628906
 32
146.0
 13
69.53483581542969
 23
-19.229591369628906
 33
146.0
  0
3DFACE
  8
0
 10
60.13361358642578
 20
-13.37043285369873
 30
146.0
 11
67.16854095458984
 21
-19.124122619628906
 31
146.0
 12
69.53483581542969
 22
-19.229591369628906
 32
146.0
 13
69.53483581542969
 23
-19.229591369628906
 33
146.0
  0
3DFACE
  8
0
 10
-45.13865280151367
 20
-1.1770331859588623
 30
146.0
 11
-45.13947296142578
 21
-1.1738810539245605
 31
146.0
 12
-45.14054489135742
 22
-1.170932650566101
 32
146.0
 13
-45.14054489135742
 23
-1.170932650566101
 33
146.0
  0
3DFACE
  8
0
 10
-45.14054489135742
 20
-1.170932650566101
 30
146.0
 11
-45.45398712158203
 21
-0.4118035137653351
 31
146.0
 12
-45.95005798339844
 22
0.39402708411216736
 32
146.0
 13
-45.95005798339844
 23
0.39402708411216736
 33
146.0
  0
3DFACE
  8
0
 10
-45.95005798339844
 20
0.39402708411216736
 30
146.0
 11
-45.95953369140625
 21
0.4059813320636749
 31
146.0
 12
-46.659244537353516
 22
1.1947659254074097
 32
146.0
 13
-46.659244537353516
 23
1.1947659254074097
 33
146.0
  0
3DFACE
  8
0
 10
-46.66398239135742
 20
1.1984444856643677
 30
146.0
 11
-47.50347137451172
 21
1.888481616973877
 31
146.0
 12
-47.57069778442383
 22
1.940459966659546
 32
146.0
 13
-47.57069778442383
 23
1.940459966659546
 33
146.0
  0
3DFACE
  8
0
 10
-45.95005798339844
 20
0.39402708411216736
 30
146.0
 11
-46.659244537353516
 21
1.1947659254074097
 31
146.0
 12
-46.66398239135742
 22
1.1984444856643677
 32
146.0
 13
-46.66398239135742
 23
1.1984444856643677
 33
146.0
  0
3DFACE
  8
0
 10
-45.13865280151367
 20
-1.1770331859588623
 30
146.0
 11
-45.14054489135742
 21
-1.170932650566101
 31
146.0
 12
-45.95005798339844
 22
0.39402708411216736
 32
146.0
 13
-45.95005798339844
 23
0.39402708411216736
 33
146.0
  0
3DFACE
  8
0
 10
-44.868343353271484
 20
-2.7348380088806152
 30
146.0
 11
-44.970123291015625
 21
-1.954359769821167
 31
146.0
 12
-44.9917106628418
 22
-1.8719338178634644
 32
146.0
 13
-44.9917106628418
 23
-1.8719338178634644
 33
146.0
  0
3DFACE
  8
0
 10
-44.9917106628418
 20
-1.8719338178634644
 30
146.0
 11
-45.13865280151367
 21
-1.1770331859588623
 31
146.0
 12
-45.95005798339844
 22
0.39402708411216736
 32
146.0
 13
-45.95005798339844
 23
0.39402708411216736
 33
146.0
  0
3DFACE
  8
0
 10
-45.95005798339844
 20
0.39402708411216736
 30
146.0
 11
-46.66398239135742
 21
1.1984444856643677
 31
146.0
 12
-47.57069778442383
 22
1.940459966659546
 32
146.0
 13
-47.57069778442383
 23
1.940459966659546
 33
146.0
  0
3DFACE
  8
0
 10
-47.57069778442383
 20
1.940459966659546
 30
146.0
 11
-48.31934356689453
 21
2.4204506874084473
 31
146.0
 12
-48.96125411987305
 22
2.7790963649749756
 32
146.0
 13
-48.96125411987305
 23
2.7790963649749756
 33
146.0
  0
3DFACE
  8
0
 10
-48.96125411987305
 20
2.7790963649749756
 30
146.0
 11
-48.97470474243164
 21
2.786931276321411
 31
146.0
 12
-48.99665451049805
 22
2.7985148429870605
 32
146.0
 13
-48.99665451049805
 23
2.7985148429870605
 33
146.0
  0
3DFACE
  8
0
 10
-49.84490966796875
 20
3.2116858959198
 30
146.0
 11
-49.88291931152344
 21
3.2318499088287354
 31
146.0
 12
-50.58341598510742
 22
3.5247602462768555
 32
146.0
 13
-50.58341598510742
 23
3.5247602462768555
 33
146.0
  0
3DFACE
  8
0
 10
-48.96125411987305
 20
2.7790963649749756
 30
146.0
 11
-48.99665451049805
 21
2.7985148429870605
 31
146.0
 12
-49.84490966796875
 22
3.2116858959198
 32
146.0
 13
-49.84490966796875
 23
3.2116858959198
 33
146.0
  0
3DFACE
  8
0
 10
-45.95005798339844
 20
0.39402708411216736
 30
146.0
 11
-47.57069778442383
 21
1.940459966659546
 31
146.0
 12
-48.96125411987305
 22
2.7790963649749756
 32
146.0
 13
-48.96125411987305
 23
2.7790963649749756
 33
146.0
  0
3DFACE
  8
0
 10
-44.868343353271484
 20
-2.7348380088806152
 30
146.0
 11
-44.9917106628418
 21
-1.8719338178634644
 31
146.0
 12
-45.95005798339844
 22
0.39402708411216736
 32
146.0
 13
-45.95005798339844
 23
0.39402708411216736
 33
146.0
  0
3DFACE
  8
0
 10
-44.85502624511719
 20
-3.515316963195801
 30
146.0
 11
-44.849971771240234
 21
-3.428351879119873
 31
146.0
 12
-44.868343353271484
 22
-2.7348380088806152
 32
146.0
 13
-44.868343353271484
 23
-2.7348380088806152
 33
146.0
  0
3DFACE
  8
0
 10
-44.896644592285156
 20
-4.295794486999512
 30
146.0
 11
-44.876190185546875
 21
-4.029033660888672
 31
146.0
 12
-44.85502624511719
 22
-3.515316963195801
 32
146.0
 13
-44.85502624511719
 23
-3.515316963195801
 33
146.0
  0
3DFACE
  8
0
 10
-45.03024673461914
 20
-5.058178424835205
 30
146.0
 11
-45.021018981933594
 21
-5.010641574859619
 31
146.0
 12
-44.944190979003906
 22
-4.530918121337891
 32
146.0
 13
-44.944190979003906
 23
-4.530918121337891
 33
146.0
  0
3DFACE
  8
0
 10
-44.944190979003906
 20
-4.530918121337891
 30
146.0
 11
-44.896644592285156
 21
-4.295794486999512
 31
146.0
 12
-44.85502624511719
 22
-3.515316963195801
 32
146.0
 13
-44.85502624511719
 23
-3.515316963195801
 33
146.0
  0
3DFACE
  8
0
 10
-44.85502624511719
 20
-3.515316963195801
 30
146.0
 11
-44.868343353271484
 21
-2.7348380088806152
 31
146.0
 12
-45.95005798339844
 22
0.39402708411216736
 32
146.0
 13
-45.95005798339844
 23
0.39402708411216736
 33
146.0
  0
3DFACE
  8
0
 10
-45.95005798339844
 20
0.39402708411216736
 30
146.0
 11
-48.96125411987305
 21
2.7790963649749756
 31
146.0
 12
-49.84490966796875
 22
3.2116858959198
 32
146.0
 13
-49.84490966796875
 23
3.2116858959198
 33
146.0
  0
3DFACE
  8
0
 10
-49.84490966796875
 20
3.2116858959198
 30
146.0
 11
-50.58341598510742
 21
3.5247602462768555
 31
146.0
 12
-51.405860900878906
 22
3.818150281906128
 32
146.0
 13
-51.405860900878906
 23
3.818150281906128
 33
146.0
  0
3DFACE
  8
0
 10
-52.15093994140625
 20
4.014015197753906
 30
146.0
 11
-52.18634033203125
 21
4.026018142700195
 31
146.0
 12
-52.931419372558594
 22
4.171245574951172
 32
146.0
 13
-52.931419372558594
 23
4.171245574951172
 33
146.0
  0
3DFACE
  8
0
 10
-49.84490966796875
 20
3.2116858959198
 30
146.0
 11
-51.405860900878906
 21
3.818150281906128
 31
146.0
 12
-52.15093994140625
 22
4.014015197753906
 32
146.0
 13
-52.15093994140625
 23
4.014015197753906
 33
146.0
  0
3DFACE
  8
0
 10
-44.85502624511719
 20
-3.515316963195801
 30
146.0
 11
-45.95005798339844
 21
0.39402708411216736
 31
146.0
 12
-49.84490966796875
 22
3.2116858959198
 32
146.0
 13
-49.84490966796875
 23
3.2116858959198
 33
146.0
  0
3DFACE
  8
0
 10
-45.03024673461914
 20
-5.058178424835205
 30
146.0
 11
-44.944190979003906
 21
-4.530918121337891
 31
146.0
 12
-44.85502624511719
 22
-3.515316963195801
 32
146.0
 13
-44.85502624511719
 23
-3.515316963195801
 33
146.0
  0
3DFACE
  8
0
 10
-45.262874603271484
 20
-5.856751441955566
 30
146.0
 11
-45.03326416015625
 21
-5.076273441314697
 31
146.0
 12
-45.03024673461914
 22
-5.058178424835205
 32
146.0
 13
-45.03024673461914
 23
-5.058178424835205
 33
146.0
  0
3DFACE
  8
0
 10
-46.10295867919922
 20
-7.374622821807861
 30
146.0
 11
-45.648963928222656
 21
-6.637230396270752
 31
146.0
 12
-45.634124755859375
 22
-6.6018290519714355
 32
146.0
 13
-45.634124755859375
 23
-6.6018290519714355
 33
146.0
  0
3DFACE
  8
0
 10
-45.634124755859375
 20
-6.6018290519714355
 30
146.0
 11
-45.262874603271484
 21
-5.856751441955566
 31
146.0
 12
-45.03024673461914
 22
-5.058178424835205
 32
146.0
 13
-45.03024673461914
 23
-5.058178424835205
 33
146.0
  0
3DFACE
  8
0
 10
-45.03024673461914
 20
-5.058178424835205
 30
146.0
 11
-44.85502624511719
 21
-3.515316963195801
 31
146.0
 12
-49.84490966796875
 22
3.2116858959198
 32
146.0
 13
-49.84490966796875
 23
3.2116858959198
 33
146.0
  0
3DFACE
  8
0
 10
-49.84490966796875
 20
3.2116858959198
 30
146.0
 11
-52.15093994140625
 21
4.014015197753906
 31
146.0
 12
-52.931419372558594
 22
4.171245574951172
 32
146.0
 13
-52.931419372558594
 23
4.171245574951172
 33
146.0
  0
3DFACE
  8
0
 10
-52.966819763183594
 20
4.1789655685424805
 30
146.0
 11
-52.98480224609375
 21
4.18378210067749
 31
146.0
 12
-53.71403503417969
 22
4.2959513664245605
 32
146.0
 13
-53.71403503417969
 23
4.2959513664245605
 33
146.0
  0
3DFACE
  8
0
 10
-49.84490966796875
 20
3.2116858959198
 30
146.0
 11
-52.931419372558594
 21
4.171245574951172
 31
146.0
 12
-52.966819763183594
 22
4.1789655685424805
 32
146.0
 13
-52.966819763183594
 23
4.1789655685424805
 33
146.0
  0
3DFACE
  8
0
 10
-45.634124755859375
 20
-6.6018290519714355
 30
146.0
 11
-45.03024673461914
 21
-5.058178424835205
 31
146.0
 12
-49.84490966796875
 22
3.2116858959198
 32
146.0
 13
-49.84490966796875
 23
3.2116858959198
 33
146.0
  0
3DFACE
  8
0
 10
-46.134666442871094
 20
-7.426764011383057
 30
146.0
 11
-46.12834548950195
 21
-7.417708396911621
 31
146.0
 12
-46.10295867919922
 22
-7.374622821807861
 32
146.0
 13
-46.10295867919922
 23
-7.374622821807861
 33
146.0
  0
3DFACE
  8
0
 10
-46.10295867919922
 20
-7.374622821807861
 30
146.0
 11
-45.634124755859375
 21
-6.6018290519714355
 31
146.0
 12
-49.84490966796875
 22
3.2116858959198
 32
146.0
 13
-49.84490966796875
 23
3.2116858959198
 33
146.0
  0
3DFACE
  8
0
 10
-49.84490966796875
 20
3.2116858959198
 30
146.0
 11
-52.966819763183594
 21
4.1789655685424805
 31
146.0
 12
-53.71403503417969
 22
4.2959513664245605
 32
146.0
 13
-53.71403503417969
 23
4.2959513664245605
 33
146.0
  0
3DFACE
  8
0
 10
-53.71403503417969
 20
4.2959513664245605
 30
146.0
 11
-53.74729919433594
 21
4.3044915199279785
 31
146.0
 12
-54.49238586425781
 22
4.366883754730225
 32
146.0
 13
-54.49238586425781
 23
4.366883754730225
 33
146.0
  0
3DFACE
  8
0
 10
-54.49238586425781
 20
4.366883754730225
 30
146.0
 11
-54.52778625488281
 21
4.3713154792785645
 31
146.0
 12
-55.272857666015625
 22
4.3744306564331055
 32
146.0
 13
-55.272857666015625
 23
4.3744306564331055
 33
146.0
  0
3DFACE
  8
0
 10
-55.272857666015625
 20
4.3744306564331055
 30
146.0
 11
-55.308258056640625
 21
4.376524448394775
 31
146.0
 12
-56.033443450927734
 22
4.313661098480225
 32
146.0
 13
-56.033443450927734
 23
4.313661098480225
 33
146.0
  0
3DFACE
  8
0
 10
-56.033443450927734
 20
4.313661098480225
 30
146.0
 11
-56.08873748779297
 21
4.314683437347412
 31
146.0
 12
-56.1440315246582
 22
4.311295509338379
 32
146.0
 13
-56.1440315246582
 23
4.311295509338379
 33
146.0
  0
3DFACE
  8
0
 10
-56.1440315246582
 20
4.311295509338379
 30
146.0
 11
-56.3162956237793
 21
4.294816493988037
 31
146.0
 12
-56.86920928955078
 22
4.231157302856445
 32
146.0
 13
-56.86920928955078
 23
4.231157302856445
 33
146.0
  0
3DFACE
  8
0
 10
-56.98247528076172
 20
4.183605194091797
 30
146.0
 11
-58.427284240722656
 21
3.8251185417175293
 31
146.0
 12
-59.17361068725586
 22
3.542942762374878
 32
146.0
 13
-59.17361068725586
 23
3.542942762374878
 33
146.0
  0
3DFACE
  8
0
 10
-56.1440315246582
 20
4.311295509338379
 30
146.0
 11
-56.86920928955078
 21
4.231157302856445
 31
146.0
 12
-56.98247528076172
 22
4.183605194091797
 32
146.0
 13
-56.98247528076172
 23
4.183605194091797
 33
146.0
  0
3DFACE
  8
0
 10
-54.49238586425781
 20
4.366883754730225
 30
146.0
 11
-55.272857666015625
 21
4.3744306564331055
 31
146.0
 12
-56.033443450927734
 22
4.313661098480225
 32
146.0
 13
-56.033443450927734
 23
4.313661098480225
 33
146.0
  0
3DFACE
  8
0
 10
-56.033443450927734
 20
4.313661098480225
 30
146.0
 11
-56.1440315246582
 21
4.311295509338379
 31
146.0
 12
-56.98247528076172
 22
4.183605194091797
 32
146.0
 13
-56.98247528076172
 23
4.183605194091797
 33
146.0
  0
3DFACE
  8
0
 10
-59.17361068725586
 20
3.542942762374878
 30
146.0
 11
-59.211753845214844
 21
3.5336384773254395
 31
146.0
 12
-59.28413772583008
 22
3.5093889236450195
 32
146.0
 13
-59.28413772583008
 23
3.5093889236450195
 33
146.0
  0
3DFACE
  8
0
 10
-56.033443450927734
 20
4.313661098480225
 30
146.0
 11
-56.98247528076172
 21
4.183605194091797
 31
146.0
 12
-59.17361068725586
 22
3.542942762374878
 32
146.0
 13
-59.17361068725586
 23
3.542942762374878
 33
146.0
  0
3DFACE
  8
0
 10
-53.71403503417969
 20
4.2959513664245605
 30
146.0
 11
-54.49238586425781
 21
4.366883754730225
 31
146.0
 12
-56.033443450927734
 22
4.313661098480225
 32
146.0
 13
-56.033443450927734
 23
4.313661098480225
 33
146.0
  0
3DFACE
  8
0
 10
-46.10295867919922
 20
-7.374622821807861
 30
146.0
 11
-49.84490966796875
 21
3.2116858959198
 31
146.0
 12
-53.71403503417969
 22
4.2959513664245605
 32
146.0
 13
-53.71403503417969
 23
4.2959513664245605
 33
146.0
  0
3DFACE
  8
0
 10
-46.7376708984375
 20
-8.11115550994873
 30
146.0
 11
-46.134666442871094
 21
-7.426764011383057
 31
146.0
 12
-46.10295867919922
 22
-7.374622821807861
 32
146.0
 13
-46.10295867919922
 23
-7.374622821807861
 33
146.0
  0
3DFACE
  8
0
 10
-47.51699447631836
 20
-8.979467391967773
 30
146.0
 11
-46.788421630859375
 21
-8.179874420166016
 31
146.0
 12
-46.7376708984375
 22
-8.11115550994873
 32
146.0
 13
-46.7376708984375
 23
-8.11115550994873
 33
146.0
  0
3DFACE
  8
0
 10
-48.35492706298828
 20
-9.684074401855469
 30
146.0
 11
-47.535301208496094
 21
-8.996830940246582
 31
146.0
 12
-47.51699447631836
 22
-8.979467391967773
 32
146.0
 13
-47.51699447631836
 23
-8.979467391967773
 33
146.0
  0
3DFACE
  8
0
 10
-48.39032745361328
 20
-9.713379859924316
 30
146.0
 11
-48.37458038330078
 21
-9.701207160949707
 31
146.0
 12
-48.35492706298828
 22
-9.684074401855469
 32
146.0
 13
-48.35492706298828
 23
-9.684074401855469
 33
146.0
  0
3DFACE
  8
0
 10
-49.56591796875
 20
-10.516392707824707
 30
146.0
 11
-49.064422607421875
 21
-10.214046478271484
 31
146.0
 12
-48.39032745361328
 22
-9.713379859924316
 32
146.0
 13
-48.39032745361328
 23
-9.713379859924316
 33
146.0
  0
3DFACE
  8
0
 10
-49.84363555908203
 20
-10.678149223327637
 30
146.0
 11
-49.60004425048828
 21
-10.540470123291016
 31
146.0
 12
-49.56591796875
 22
-10.516392707824707
 32
146.0
 13
-49.56591796875
 23
-10.516392707824707
 33
146.0
  0
3DFACE
  8
0
 10
-51.401954650878906
 20
-11.40878963470459
 30
146.0
 11
-50.625389099121094
 21
-11.040942192077637
 31
146.0
 12
-50.588714599609375
 22
-11.019332885742188
 32
146.0
 13
-50.588714599609375
 23
-11.019332885742188
 33
146.0
  0
3DFACE
  8
0
 10
-50.588714599609375
 20
-11.019332885742188
 30
146.0
 11
-49.84363555908203
 21
-10.678149223327637
 31
146.0
 12
-49.56591796875
 22
-10.516392707824707
 32
146.0
 13
-49.56591796875
 23
-10.516392707824707
 33
146.0
  0
3DFACE
  8
0
 10
-49.56591796875
 20
-10.516392707824707
 30
146.0
 11
-48.39032745361328
 21
-9.713379859924316
 31
146.0
 12
-48.35492706298828
 22
-9.684074401855469
 32
146.0
 13
-48.35492706298828
 23
-9.684074401855469
 33
146.0
  0
3DFACE
  8
0
 10
-48.35492706298828
 20
-9.684074401855469
 30
146.0
 11
-47.51699447631836
 21
-8.979467391967773
 31
146.0
 12
-46.7376708984375
 22
-8.11115550994873
 32
146.0
 13
-46.7376708984375
 23
-8.11115550994873
 33
146.0
  0
3DFACE
  8
0
 10
-46.7376708984375
 20
-8.11115550994873
 30
146.0
 11
-46.10295867919922
 21
-7.374622821807861
 31
146.0
 12
-53.71403503417969
 22
4.2959513664245605
 32
146.0
 13
-53.71403503417969
 23
4.2959513664245605
 33
146.0
  0
3DFACE
  8
0
 10
-53.71403503417969
 20
4.2959513664245605
 30
146.0
 11
-56.033443450927734
 21
4.313661098480225
 31
146.0
 12
-59.17361068725586
 22
3.542942762374878
 32
146.0
 13
-59.17361068725586
 23
3.542942762374878
 33
146.0
  0
3DFACE
  8
0
 10
-59.17361068725586
 20
3.542942762374878
 30
146.0
 11
-59.28413772583008
 21
3.5093889236450195
 31
146.0
 12
-59.96770095825195
 22
3.2366533279418945
 32
146.0
 13
-59.96770095825195
 23
3.2366533279418945
 33
146.0
  0
3DFACE
  8
0
 10
-60.32416534423828
 20
3.058539628982544
 30
146.0
 11
-60.836551666259766
 21
2.850055694580078
 31
146.0
 12
-61.014705657958984
 22
2.7710187435150146
 32
146.0
 13
-61.014705657958984
 23
2.7710187435150146
 33
146.0
  0
3DFACE
  8
0
 10
-59.17361068725586
 20
3.542942762374878
 30
146.0
 11
-59.96770095825195
 21
3.2366533279418945
 31
146.0
 12
-60.32416534423828
 22
3.058539628982544
 32
146.0
 13
-60.32416534423828
 23
3.058539628982544
 33
146.0
  0
3DFACE
  8
0
 10
-46.7376708984375
 20
-8.11115550994873
 30
146.0
 11
-53.71403503417969
 21
4.2959513664245605
 31
146.0
 12
-59.17361068725586
 22
3.542942762374878
 32
146.0
 13
-59.17361068725586
 23
3.542942762374878
 33
146.0
  0
3DFACE
  8
0
 10
-49.56591796875
 20
-10.516392707824707
 30
146.0
 11
-48.35492706298828
 21
-9.684074401855469
 31
146.0
 12
-46.7376708984375
 22
-8.11115550994873
 32
146.0
 13
-46.7376708984375
 23
-8.11115550994873
 33
146.0
  0
3DFACE
  8
0
 10
-51.401954650878906
 20
-11.40878963470459
 30
146.0
 11
-50.588714599609375
 21
-11.019332885742188
 31
146.0
 12
-49.56591796875
 22
-10.516392707824707
 32
146.0
 13
-49.56591796875
 23
-10.516392707824707
 33
146.0
  0
3DFACE
  8
0
 10
-52.931419372558594
 20
-11.837675094604492
 30
146.0
 11
-52.18634033203125
 21
-11.624733924865723
 31
146.0
 12
-52.14703369140625
 22
-11.60888385772705
 32
146.0
 13
-52.14703369140625
 23
-11.60888385772705
 33
146.0
  0
3DFACE
  8
0
 10
-52.14703369140625
 20
-11.60888385772705
 30
146.0
 11
-51.401954650878906
 21
-11.40878963470459
 31
146.0
 12
-49.56591796875
 22
-10.516392707824707
 32
146.0
 13
-49.56591796875
 23
-10.516392707824707
 33
146.0
  0
3DFACE
  8
0
 10
-49.56591796875
 20
-10.516392707824707
 30
146.0
 11
-46.7376708984375
 21
-8.11115550994873
 31
146.0
 12
-59.17361068725586
 22
3.542942762374878
 32
146.0
 13
-59.17361068725586
 23
3.542942762374878
 33
146.0
  0
3DFACE
  8
0
 10
-60.32416534423828
 20
3.058539628982544
 30
146.0
 11
-61.014705657958984
 21
2.7710187435150146
 31
146.0
 12
-61.48585891723633
 22
2.5357558727264404
 32
146.0
 13
-61.48585891723633
 23
2.5357558727264404
 33
146.0
  0
3DFACE
  8
0
 10
-49.56591796875
 20
-10.516392707824707
 30
146.0
 11
-59.17361068725586
 21
3.542942762374878
 31
146.0
 12
-60.32416534423828
 22
3.058539628982544
 32
146.0
 13
-60.32416534423828
 23
3.058539628982544
 33
146.0
  0
3DFACE
  8
0
 10
-52.931419372558594
 20
-11.837675094604492
 30
146.0
 11
-52.14703369140625
 21
-11.60888385772705
 31
146.0
 12
-49.56591796875
 22
-10.516392707824707
 32
146.0
 13
-49.56591796875
 23
-10.516392707824707
 33
146.0
  0
3DFACE
  8
0
 10
-53.71189880371094
 20
-11.994302749633789
 30
146.0
 11
-52.966819763183594
 21
-11.849030494689941
 31
146.0
 12
-52.931419372558594
 22
-11.837675094604492
 32
146.0
 13
-52.931419372558594
 23
-11.837675094604492
 33
146.0
  0
3DFACE
  8
0
 10
-54.490177154541016
 20
-12.105033874511719
 30
146.0
 11
-53.74729919433594
 21
-12.004219055175781
 31
146.0
 12
-53.71189880371094
 22
-11.994302749633789
 32
146.0
 13
-53.71189880371094
 23
-11.994302749633789
 33
146.0
  0
3DFACE
  8
0
 10
-55.18690490722656
 20
-12.176084518432617
 30
146.0
 11
-54.52778625488281
 21
-12.113885879516602
 31
146.0
 12
-54.490177154541016
 22
-12.105033874511719
 32
146.0
 13
-54.490177154541016
 23
-12.105033874511719
 33
146.0
  0
3DFACE
  8
0
 10
-55.96677780151367
 20
-12.198826789855957
 30
146.0
 11
-55.308258056640625
 21
-12.19035816192627
 31
146.0
 12
-55.18690490722656
 22
-12.176084518432617
 32
146.0
 13
-55.18690490722656
 23
-12.176084518432617
 33
146.0
  0
3DFACE
  8
0
 10
-56.8594970703125
 20
-12.122698783874512
 30
146.0
 11
-56.08873748779297
 21
-12.208269119262695
 31
146.0
 12
-55.96677780151367
 22
-12.198826789855957
 32
146.0
 13
-55.96677780151367
 23
-12.198826789855957
 33
146.0
  0
3DFACE
  8
0
 10
-56.9302978515625
 20
-12.119782447814941
 30
146.0
 11
-56.8948974609375
 21
-12.122891426086426
 31
146.0
 12
-56.8594970703125
 22
-12.122698783874512
 32
146.0
 13
-56.8594970703125
 23
-12.122698783874512
 33
146.0
  0
3DFACE
  8
0
 10
-57.62089157104492
 20
-12.018418312072754
 30
146.0
 11
-57.60456085205078
 21
-12.023895263671875
 31
146.0
 12
-56.9302978515625
 22
-12.119782447814941
 32
146.0
 13
-56.9302978515625
 23
-12.119782447814941
 33
146.0
  0
3DFACE
  8
0
 10
-58.4658088684082
 20
-11.828296661376953
 30
146.0
 11
-58.43016815185547
 21
-11.838140487670898
 31
146.0
 12
-57.62089157104492
 22
-12.018418312072754
 32
146.0
 13
-57.62089157104492
 23
-12.018418312072754
 33
146.0
  0
3DFACE
  8
0
 10
-59.61859893798828
 20
-11.37690544128418
 30
146.0
 11
-58.500972747802734
 21
-11.815851211547852
 31
146.0
 12
-58.4658088684082
 22
-11.828296661376953
 32
146.0
 13
-58.4658088684082
 23
-11.828296661376953
 33
146.0
  0
3DFACE
  8
0
 10
-61.45492935180664
 20
-10.507757186889648
 30
146.0
 11
-59.9499397277832
 21
-11.229360580444336
 31
146.0
 12
-59.61859893798828
 22
-11.37690544128418
 32
146.0
 13
-59.61859893798828
 23
-11.37690544128418
 33
146.0
  0
3DFACE
  8
0
 10
-62.40095138549805
 20
-9.833439826965332
 30
146.0
 11
-62.35761260986328
 21
-9.865941047668457
 31
146.0
 12
-61.45492935180664
 22
-10.507757186889648
 32
146.0
 13
-61.45492935180664
 23
-10.507757186889648
 33
146.0
  0
3DFACE
  8
0
 10
-63.11304473876953
 20
-9.345881462097168
 30
146.0
 11
-62.5025520324707
 21
-9.773942947387695
 31
146.0
 12
-62.40095138549805
 22
-9.833439826965332
 32
146.0
 13
-62.40095138549805
 23
-9.833439826965332
 33
146.0
  0
3DFACE
  8
0
 10
-63.520774841308594
 20
-8.976070404052734
 30
146.0
 11
-63.313270568847656
 21
-9.176339149475098
 31
146.0
 12
-63.11304473876953
 22
-9.345881462097168
 32
146.0
 13
-63.11304473876953
 23
-9.345881462097168
 33
146.0
  0
3DFACE
  8
0
 10
-64.69642639160156
 20
-7.525691509246826
 30
146.0
 11
-64.12886810302734
 21
-8.251286506652832
 31
146.0
 12
-63.520774841308594
 22
-8.976070404052734
 32
146.0
 13
-63.520774841308594
 23
-8.976070404052734
 33
146.0
  0
3DFACE
  8
0
 10
-64.87992858886719
 20
-7.184953689575195
 30
146.0
 11
-64.7588119506836
 21
-7.434123992919922
 31
146.0
 12
-64.69642639160156
 22
-7.525691509246826
 32
146.0
 13
-64.69642639160156
 23
-7.525691509246826
 33
146.0
  0
3DFACE
  8
0
 10
-65.44733428955078
 20
-5.856751441955566
 30
146.0
 11
-65.13616943359375
 21
-6.637230396270752
 31
146.0
 12
-64.87992858886719
 22
-7.184953689575195
 32
146.0
 13
-64.87992858886719
 23
-7.184953689575195
 33
146.0
  0
3DFACE
  8
0
 10
-65.781982421875
 20
-4.295794486999512
 30
146.0
 11
-65.66223907470703
 21
-5.076273441314697
 31
146.0
 12
-65.44733428955078
 22
-5.856751441955566
 32
146.0
 13
-65.44733428955078
 23
-5.856751441955566
 33
146.0
  0
3DFACE
  8
0
 10
-65.82207489013672
 20
-3.5467512607574463
 30
146.0
 11
-65.82315063476562
 21
-3.5941531658172607
 31
146.0
 12
-65.781982421875
 22
-4.295794486999512
 32
146.0
 13
-65.781982421875
 23
-4.295794486999512
 33
146.0
  0
3DFACE
  8
0
 10
-65.81547546386719
 20
-3.449556589126587
 30
146.0
 11
-65.8229751586914
 21
-3.515316963195801
 31
146.0
 12
-65.82207489013672
 22
-3.5467512607574463
 32
146.0
 13
-65.82207489013672
 23
-3.5467512607574463
 33
146.0
  0
3DFACE
  8
0
 10
-65.53248596191406
 20
-1.954359769821167
 30
146.0
 11
-65.71527099609375
 21
-2.7348380088806152
 31
146.0
 12
-65.81547546386719
 22
-3.449556589126587
 32
146.0
 13
-65.81547546386719
 23
-3.449556589126587
 33
146.0
  0
3DFACE
  8
0
 10
-65.10587310791016
 20
-0.9272764325141907
 30
146.0
 11
-65.2325210571289
 21
-1.1712809801101685
 31
146.0
 12
-65.53248596191406
 22
-1.954359769821167
 32
146.0
 13
-65.53248596191406
 23
-1.954359769821167
 33
146.0
  0
3DFACE
  8
0
 10
-64.45207214355469
 20
0.16514772176742554
 30
146.0
 11
-64.80647277832031
 21
-0.39340299367904663
 31
146.0
 12
-65.10587310791016
 22
-0.9272764325141907
 32
146.0
 13
-65.10587310791016
 23
-0.9272764325141907
 33
146.0
  0
3DFACE
  8
0
 10
-63.54706573486328
 20
1.1617443561553955
 30
146.0
 11
-64.3001480102539
 21
0.3870755434036255
 31
146.0
 12
-64.45207214355469
 22
0.16514772176742554
 32
146.0
 13
-64.45207214355469
 23
0.16514772176742554
 33
146.0
  0
3DFACE
  8
0
 10
-62.49943542480469
 20
1.9689961671829224
 30
146.0
 11
-63.20132064819336
 21
1.4401744604110718
 31
146.0
 12
-63.54706573486328
 22
1.1617443561553955
 32
146.0
 13
-63.54706573486328
 23
1.1617443561553955
 33
146.0
  0
3DFACE
  8
0
 10
-61.48585891723633
 20
2.5357558727264404
 30
146.0
 11
-62.36661148071289
 21
2.046502113342285
 31
146.0
 12
-62.49943542480469
 22
1.9689961671829224
 32
146.0
 13
-62.49943542480469
 23
1.9689961671829224
 33
146.0
  0
3DFACE
  8
0
 10
-49.56591796875
 20
-10.516392707824707
 30
146.0
 11
-60.32416534423828
 21
3.058539628982544
 31
146.0
 12
-61.48585891723633
 22
2.5357558727264404
 32
146.0
 13
-61.48585891723633
 23
2.5357558727264404
 33
146.0
  0
3DFACE
  8
0
 10
-53.71189880371094
 20
-11.994302749633789
 30
146.0
 11
-52.931419372558594
 21
-11.837675094604492
 31
146.0
 12
-49.56591796875
 22
-10.516392707824707
 32
146.0
 13
-49.56591796875
 23
-10.516392707824707
 33
146.0
  0
3DFACE
  8
0
 10
-55.18690490722656
 20
-12.176084518432617
 30
146.0
 11
-54.490177154541016
 21
-12.105033874511719
 31
146.0
 12
-53.71189880371094
 22
-11.994302749633789
 32
146.0
 13
-53.71189880371094
 23
-11.994302749633789
 33
146.0
  0
3DFACE
  8
0
 10
-56.8594970703125
 20
-12.122698783874512
 30
146.0
 11
-55.96677780151367
 21
-12.198826789855957
 31
146.0
 12
-55.18690490722656
 22
-12.176084518432617
 32
146.0
 13
-55.18690490722656
 23
-12.176084518432617
 33
146.0
  0
3DFACE
  8
0
 10
-57.62089157104492
 20
-12.018418312072754
 30
146.0
 11
-56.9302978515625
 21
-12.119782447814941
 31
146.0
 12
-56.8594970703125
 22
-12.122698783874512
 32
146.0
 13
-56.8594970703125
 23
-12.122698783874512
 33
146.0
  0
3DFACE
  8
0
 10
-59.61859893798828
 20
-11.37690544128418
 30
146.0
 11
-58.4658088684082
 21
-11.828296661376953
 31
146.0
 12
-57.62089157104492
 22
-12.018418312072754
 32
146.0
 13
-57.62089157104492
 23
-12.018418312072754
 33
146.0
  0
3DFACE
  8
0
 10
-62.40095138549805
 20
-9.833439826965332
 30
146.0
 11
-61.45492935180664
 21
-10.507757186889648
 31
146.0
 12
-59.61859893798828
 22
-11.37690544128418
 32
146.0
 13
-59.61859893798828
 23
-11.37690544128418
 33
146.0
  0
3DFACE
  8
0
 10
-63.520774841308594
 20
-8.976070404052734
 30
146.0
 11
-63.11304473876953
 21
-9.345881462097168
 31
146.0
 12
-62.40095138549805
 22
-9.833439826965332
 32
146.0
 13
-62.40095138549805
 23
-9.833439826965332
 33
146.0
  0
3DFACE
  8
0
 10
-64.87992858886719
 20
-7.184953689575195
 30
146.0
 11
-64.69642639160156
 21
-7.525691509246826
 31
146.0
 12
-63.520774841308594
 22
-8.976070404052734
 32
146.0
 13
-63.520774841308594
 23
-8.976070404052734
 33
146.0
  0
3DFACE
  8
0
 10
-65.781982421875
 20
-4.295794486999512
 30
146.0
 11
-65.44733428955078
 21
-5.856751441955566
 31
146.0
 12
-64.87992858886719
 22
-7.184953689575195
 32
146.0
 13
-64.87992858886719
 23
-7.184953689575195
 33
146.0
  0
3DFACE
  8
0
 10
-65.81547546386719
 20
-3.449556589126587
 30
146.0
 11
-65.82207489013672
 21
-3.5467512607574463
 31
146.0
 12
-65.781982421875
 22
-4.295794486999512
 32
146.0
 13
-65.781982421875
 23
-4.295794486999512
 33
146.0
  0
3DFACE
  8
0
 10
-65.10587310791016
 20
-0.9272764325141907
 30
146.0
 11
-65.53248596191406
 21
-1.954359769821167
 31
146.0
 12
-65.81547546386719
 22
-3.449556589126587
 32
146.0
 13
-65.81547546386719
 23
-3.449556589126587
 33
146.0
  0
3DFACE
  8
0
 10
-63.54706573486328
 20
1.1617443561553955
 30
146.0
 11
-64.45207214355469
 21
0.16514772176742554
 31
146.0
 12
-65.10587310791016
 22
-0.9272764325141907
 32
146.0
 13
-65.10587310791016
 23
-0.9272764325141907
 33
146.0
  0
3DFACE
  8
0
 10
-61.48585891723633
 20
2.5357558727264404
 30
146.0
 11
-62.49943542480469
 21
1.9689961671829224
 31
146.0
 12
-63.54706573486328
 22
1.1617443561553955
 32
146.0
 13
-63.54706573486328
 23
1.1617443561553955
 33
146.0
  0
3DFACE
  8
0
 10
-53.71189880371094
 20
-11.994302749633789
 30
146.0
 11
-49.56591796875
 21
-10.516392707824707
 31
146.0
 12
-61.48585891723633
 22
2.5357558727264404
 32
146.0
 13
-61.48585891723633
 23
2.5357558727264404
 33
146.0
  0
3DFACE
  8
0
 10
-56.8594970703125
 20
-12.122698783874512
 30
146.0
 11
-55.18690490722656
 21
-12.176084518432617
 31
146.0
 12
-53.71189880371094
 22
-11.994302749633789
 32
146.0
 13
-53.71189880371094
 23
-11.994302749633789
 33
146.0
  0
3DFACE
  8
0
 10
-59.61859893798828
 20
-11.37690544128418
 30
146.0
 11
-57.62089157104492
 21
-12.018418312072754
 31
146.0
 12
-56.8594970703125
 22
-12.122698783874512
 32
146.0
 13
-56.8594970703125
 23
-12.122698783874512
 33
146.0
  0
3DFACE
  8
0
 10
-63.520774841308594
 20
-8.976070404052734
 30
146.0
 11
-62.40095138549805
 21
-9.833439826965332
 31
146.0
 12
-59.61859893798828
 22
-11.37690544128418
 32
146.0
 13
-59.61859893798828
 23
-11.37690544128418
 33
146.0
  0
3DFACE
  8
0
 10
-65.781982421875
 20
-4.295794486999512
 30
146.0
 11
-64.87992858886719
 21
-7.184953689575195
 31
146.0
 12
-63.520774841308594
 22
-8.976070404052734
 32
146.0
 13
-63.520774841308594
 23
-8.976070404052734
 33
146.0
  0
3DFACE
  8
0
 10
-65.10587310791016
 20
-0.9272764325141907
 30
146.0
 11
-65.81547546386719
 21
-3.449556589126587
 31
146.0
 12
-65.781982421875
 22
-4.295794486999512
 32
146.0
 13
-65.781982421875
 23
-4.295794486999512
 33
146.0
  0
3DFACE
  8
0
 10
-61.48585891723633
 20
2.5357558727264404
 30
146.0
 11
-63.54706573486328
 21
1.1617443561553955
 31
146.0
 12
-65.10587310791016
 22
-0.9272764325141907
 32
146.0
 13
-65.10587310791016
 23
-0.9272764325141907
 33
146.0
  0
3DFACE
  8
0
 10
-56.8594970703125
 20
-12.122698783874512
 30
146.0
 11
-53.71189880371094
 21
-11.994302749633789
 31
146.0
 12
-61.48585891723633
 22
2.5357558727264404
 32
146.0
 13
-61.48585891723633
 23
2.5357558727264404
 33
146.0
  0
3DFACE
  8
0
 10
-63.520774841308594
 20
-8.976070404052734
 30
146.0
 11
-59.61859893798828
 21
-11.37690544128418
 31
146.0
 12
-56.8594970703125
 22
-12.122698783874512
 32
146.0
 13
-56.8594970703125
 23
-12.122698783874512
 33
146.0
  0
3DFACE
  8
0
 10
-65.10587310791016
 20
-0.9272764325141907
 30
146.0
 11
-65.781982421875
 21
-4.295794486999512
 31
146.0
 12
-63.520774841308594
 22
-8.976070404052734
 32
146.0
 13
-63.520774841308594
 23
-8.976070404052734
 33
146.0
  0
3DFACE
  8
0
 10
-56.8594970703125
 20
-12.122698783874512
 30
146.0
 11
-61.48585891723633
 21
2.5357558727264404
 31
146.0
 12
-65.10587310791016
 22
-0.9272764325141907
 32
146.0
 13
-65.10587310791016
 23
-0.9272764325141907
 33
146.0
  0
3DFACE
  8
0
 10
-65.10587310791016
 20
-0.9272764325141907
 30
146.0
 11
-63.520774841308594
 21
-8.976070404052734
 31
146.0
 12
-56.8594970703125
 22
-12.122698783874512
 32
146.0
 13
-56.8594970703125
 23
-12.122698783874512
 33
146.0
  0
3DFACE
  8
0
 10
-34.71186447143555
 20
47.73182678222656
 30
146.0
 11
-34.71812438964844
 21
47.75339126586914
 31
146.0
 12
-34.72295379638672
 22
47.765602111816406
 32
146.0
 13
-34.72295379638672
 23
47.765602111816406
 33
146.0
  0
3DFACE
  8
0
 10
-34.72295379638672
 20
47.765602111816406
 30
146.0
 11
-34.9874153137207
 21
48.338687896728516
 31
146.0
 12
-35.10838317871094
 22
48.55793762207031
 32
146.0
 13
-35.10838317871094
 23
48.55793762207031
 33
146.0
  0
3DFACE
  8
0
 10
-35.26570510864258
 20
48.80168151855469
 30
146.0
 11
-35.467124938964844
 21
49.16518783569336
 31
146.0
 12
-35.70077133178711
 22
49.51072311401367
 32
146.0
 13
-35.70077133178711
 23
49.51072311401367
 33
146.0
  0
3DFACE
  8
0
 10
-34.72295379638672
 20
47.765602111816406
 30
146.0
 11
-35.10838317871094
 21
48.55793762207031
 31
146.0
 12
-35.26570510864258
 22
48.80168151855469
 32
146.0
 13
-35.26570510864258
 23
48.80168151855469
 33
146.0
  0
3DFACE
  8
0
 10
-34.32703399658203
 20
46.537776947021484
 30
146.0
 11
-34.429656982421875
 21
46.948829650878906
 31
146.0
 12
-34.71186447143555
 22
47.73182678222656
 32
146.0
 13
-34.71186447143555
 23
47.73182678222656
 33
146.0
  0
3DFACE
  8
0
 10
-34.71186447143555
 20
47.73182678222656
 30
146.0
 11
-34.72295379638672
 21
47.765602111816406
 31
146.0
 12
-35.26570510864258
 22
48.80168151855469
 32
146.0
 13
-35.26570510864258
 23
48.80168151855469
 33
146.0
  0
3DFACE
  8
0
 10
-35.26570510864258
 20
48.80168151855469
 30
146.0
 11
-35.70077133178711
 21
49.51072311401367
 31
146.0
 12
-36.157222747802734
 22
50.086891174316406
 32
146.0
 13
-36.157222747802734
 23
50.086891174316406
 33
146.0
  0
3DFACE
  8
0
 10
-36.157222747802734
 20
50.086891174316406
 30
146.0
 11
-36.26484680175781
 21
50.2176628112793
 31
146.0
 12
-36.68876647949219
 22
50.70353698730469
 32
146.0
 13
-36.68876647949219
 23
50.70353698730469
 33
146.0
  0
3DFACE
  8
0
 10
-36.68876647949219
 20
50.70353698730469
 30
146.0
 11
-37.180931091308594
 21
51.192108154296875
 31
146.0
 12
-37.217342376708984
 22
51.226287841796875
 32
146.0
 13
-37.217342376708984
 23
51.226287841796875
 33
146.0
  0
3DFACE
  8
0
 10
-37.217342376708984
 20
51.226287841796875
 30
146.0
 11
-37.403011322021484
 21
51.38912582397461
 31
146.0
 12
-38.06053161621094
 22
51.914615631103516
 32
146.0
 13
-38.06053161621094
 23
51.914615631103516
 33
146.0
  0
3DFACE
  8
0
 10
-38.06053161621094
 20
51.914615631103516
 30
146.0
 11
-38.6107063293457
 21
52.271995544433594
 31
146.0
 12
-38.89710235595703
 22
52.44649124145508
 32
146.0
 13
-38.89710235595703
 23
52.44649124145508
 33
146.0
  0
3DFACE
  8
0
 10
-38.89710235595703
 20
52.44649124145508
 30
146.0
 11
-39.19723892211914
 21
52.61410140991211
 31
146.0
 12
-39.995826721191406
 22
53.00830078125
 32
146.0
 13
-39.995826721191406
 23
53.00830078125
 33
146.0
  0
3DFACE
  8
0
 10
-39.995826721191406
 20
53.00830078125
 30
146.0
 11
-40.37751007080078
 21
53.15664291381836
 31
146.0
 12
-40.73786926269531
 22
53.2832145690918
 32
146.0
 13
-40.73786926269531
 23
53.2832145690918
 33
146.0
  0
3DFACE
  8
0
 10
-40.73786926269531
 20
53.2832145690918
 30
146.0
 11
-41.4135856628418
 21
53.49245834350586
 31
146.0
 12
-41.47976303100586
 22
53.50933837890625
 32
146.0
 13
-41.47976303100586
 23
53.50933837890625
 33
146.0
  0
3DFACE
  8
0
 10
-41.47976303100586
 20
53.50933837890625
 30
146.0
 11
-42.2396125793457
 21
53.6558837890625
 31
146.0
 12
-42.59184646606445
 22
53.702083587646484
 32
146.0
 13
-42.59184646606445
 23
53.702083587646484
 33
146.0
  0
3DFACE
  8
0
 10
-43.83462142944336
 20
53.749977111816406
 30
146.0
 11
-43.84733200073242
 21
53.75068664550781
 31
146.0
 12
-43.87561798095703
 22
53.750640869140625
 32
146.0
 13
-43.87561798095703
 23
53.750640869140625
 33
146.0
  0
3DFACE
  8
0
 10
-41.47976303100586
 20
53.50933837890625
 30
146.0
 11
-42.59184646606445
 21
53.702083587646484
 31
146.0
 12
-43.83462142944336
 22
53.749977111816406
 32
146.0
 13
-43.83462142944336
 23
53.749977111816406
 33
146.0
  0
3DFACE
  8
0
 10
-39.995826721191406
 20
53.00830078125
 30
146.0
 11
-40.73786926269531
 21
53.2832145690918
 31
146.0
 12
-41.47976303100586
 22
53.50933837890625
 32
146.0
 13
-41.47976303100586
 23
53.50933837890625
 33
146.0
  0
3DFACE
  8
0
 10
-38.06053161621094
 20
51.914615631103516
 30
146.0
 11
-38.89710235595703
 21
52.44649124145508
 31
146.0
 12
-39.995826721191406
 22
53.00830078125
 32
146.0
 13
-39.995826721191406
 23
53.00830078125
 33
146.0
  0
3DFACE
  8
0
 10
-36.68876647949219
 20
50.70353698730469
 30
146.0
 11
-37.217342376708984
 21
51.226287841796875
 31
146.0
 12
-38.06053161621094
 22
51.914615631103516
 32
146.0
 13
-38.06053161621094
 23
51.914615631103516
 33
146.0
  0
3DFACE
  8
0
 10
-35.26570510864258
 20
48.80168151855469
 30
146.0
 11
-36.157222747802734
 21
50.086891174316406
 31
146.0
 12
-36.68876647949219
 22
50.70353698730469
 32
146.0
 13
-36.68876647949219
 23
50.70353698730469
 33
146.0
  0
3DFACE
  8
0
 10
-34.32703399658203
 20
46.537776947021484
 30
146.0
 11
-34.71186447143555
 21
47.73182678222656
 31
146.0
 12
-35.26570510864258
 22
48.80168151855469
 32
146.0
 13
-35.26570510864258
 23
48.80168151855469
 33
146.0
  0
3DFACE
  8
0
 10
-34.16816711425781
 20
45.93674850463867
 30
146.0
 11
-34.21126937866211
 21
46.14427947998047
 31
146.0
 12
-34.32703399658203
 22
46.537776947021484
 32
146.0
 13
-34.32703399658203
 23
46.537776947021484
 33
146.0
  0
3DFACE
  8
0
 10
-34.045658111572266
 20
45.06196975708008
 30
146.0
 11
-34.070579528808594
 21
45.307106018066406
 31
146.0
 12
-34.076168060302734
 22
45.33972930908203
 32
146.0
 13
-34.076168060302734
 23
45.33972930908203
 33
146.0
  0
3DFACE
  8
0
 10
-34.076168060302734
 20
45.33972930908203
 30
146.0
 11
-34.16816711425781
 21
45.93674850463867
 31
146.0
 12
-34.32703399658203
 22
46.537776947021484
 32
146.0
 13
-34.32703399658203
 23
46.537776947021484
 33
146.0
  0
3DFACE
  8
0
 10
-34.32703399658203
 20
46.537776947021484
 30
146.0
 11
-35.26570510864258
 21
48.80168151855469
 31
146.0
 12
-36.68876647949219
 22
50.70353698730469
 32
146.0
 13
-36.68876647949219
 23
50.70353698730469
 33
146.0
  0
3DFACE
  8
0
 10
-36.68876647949219
 20
50.70353698730469
 30
146.0
 11
-38.06053161621094
 21
51.914615631103516
 31
146.0
 12
-39.995826721191406
 22
53.00830078125
 32
146.0
 13
-39.995826721191406
 23
53.00830078125
 33
146.0
  0
3DFACE
  8
0
 10
-39.995826721191406
 20
53.00830078125
 30
146.0
 11
-41.47976303100586
 21
53.50933837890625
 31
146.0
 12
-43.83462142944336
 22
53.749977111816406
 32
146.0
 13
-43.83462142944336
 23
53.749977111816406
 33
146.0
  0
3DFACE
  8
0
 10
-43.83462142944336
 20
53.749977111816406
 30
146.0
 11
-43.87561798095703
 21
53.750640869140625
 31
146.0
 12
-44.269432067871094
 22
53.72025680541992
 32
146.0
 13
-44.269432067871094
 23
53.72025680541992
 33
146.0
  0
3DFACE
  8
0
 10
-44.269432067871094
 20
53.72025680541992
 30
146.0
 11
-44.68428039550781
 21
53.662776947021484
 31
146.0
 12
-44.93101119995117
 22
53.606201171875
 32
146.0
 13
-44.93101119995117
 23
53.606201171875
 33
146.0
  0
3DFACE
  8
0
 10
-44.93101119995117
 20
53.606201171875
 30
146.0
 11
-45.48748779296875
 21
53.496246337890625
 31
146.0
 12
-45.58296585083008
 22
53.472145080566406
 32
146.0
 13
-45.58296585083008
 23
53.472145080566406
 33
146.0
  0
3DFACE
  8
0
 10
-45.58296585083008
 20
53.472145080566406
 30
146.0
 11
-46.164608001708984
 21
53.26512145996094
 31
146.0
 12
-47.07274627685547
 22
52.856719970703125
 32
146.0
 13
-47.07274627685547
 23
52.856719970703125
 33
146.0
  0
3DFACE
  8
0
 10
-47.07274627685547
 20
52.856719970703125
 30
146.0
 11
-47.543949127197266
 21
52.557762145996094
 31
146.0
 12
-47.852237701416016
 22
52.346885681152344
 32
146.0
 13
-47.852237701416016
 23
52.346885681152344
 33
146.0
  0
3DFACE
  8
0
 10
-47.852237701416016
 20
52.346885681152344
 30
146.0
 11
-48.558040618896484
 21
51.77613830566406
 31
146.0
 12
-48.59251403808594
 22
51.74498748779297
 32
146.0
 13
-48.59251403808594
 23
51.74498748779297
 33
146.0
  0
3DFACE
  8
0
 10
-48.59251403808594
 20
51.74498748779297
 30
146.0
 11
-48.623680114746094
 21
51.72064208984375
 31
146.0
 12
-49.388004302978516
 22
50.991432189941406
 32
146.0
 13
-49.388004302978516
 23
50.991432189941406
 33
146.0
  0
3DFACE
  8
0
 10
-49.388004302978516
 20
50.991432189941406
 30
146.0
 11
-49.40694808959961
 21
50.971588134765625
 31
146.0
 12
-49.42013168334961
 22
50.9544677734375
 32
146.0
 13
-49.42013168334961
 23
50.9544677734375
 33
146.0
  0
3DFACE
  8
0
 10
-49.42013168334961
 20
50.9544677734375
 30
146.0
 11
-50.73085403442383
 21
49.362850189208984
 31
146.0
 12
-50.80727767944336
 22
49.259952545166016
 32
146.0
 13
-50.80727767944336
 23
49.259952545166016
 33
146.0
  0
3DFACE
  8
0
 10
-50.80727767944336
 20
49.259952545166016
 30
146.0
 11
-50.88862228393555
 21
49.127498626708984
 31
146.0
 12
-51.19384765625
 22
48.55793762207031
 32
146.0
 13
-51.19384765625
 23
48.55793762207031
 33
146.0
  0
3DFACE
  8
0
 10
-51.19384765625
 20
48.55793762207031
 30
146.0
 11
-51.58850860595703
 21
47.75796127319336
 31
146.0
 12
-51.7901496887207
 22
47.103126525878906
 32
146.0
 13
-51.7901496887207
 23
47.103126525878906
 33
146.0
  0
3DFACE
  8
0
 10
-51.825035095214844
 20
46.94882583618164
 30
146.0
 11
-51.92788314819336
 21
46.54245376586914
 31
146.0
 12
-51.97809982299805
 22
46.14427947998047
 32
146.0
 13
-51.97809982299805
 23
46.14427947998047
 33
146.0
  0
3DFACE
  8
0
 10
-51.19384765625
 20
48.55793762207031
 30
146.0
 11
-51.7901496887207
 21
47.103126525878906
 31
146.0
 12
-51.825035095214844
 22
46.94882583618164
 32
146.0
 13
-51.825035095214844
 23
46.94882583618164
 33
146.0
  0
3DFACE
  8
0
 10
-49.42013168334961
 20
50.9544677734375
 30
146.0
 11
-50.80727767944336
 21
49.259952545166016
 31
146.0
 12
-51.19384765625
 22
48.55793762207031
 32
146.0
 13
-51.19384765625
 23
48.55793762207031
 33
146.0
  0
3DFACE
  8
0
 10
-48.59251403808594
 20
51.74498748779297
 30
146.0
 11
-49.388004302978516
 21
50.991432189941406
 31
146.0
 12
-49.42013168334961
 22
50.9544677734375
 32
146.0
 13
-49.42013168334961
 23
50.9544677734375
 33
146.0
  0
3DFACE
  8
0
 10
-47.07274627685547
 20
52.856719970703125
 30
146.0
 11
-47.852237701416016
 21
52.346885681152344
 31
146.0
 12
-48.59251403808594
 22
51.74498748779297
 32
146.0
 13
-48.59251403808594
 23
51.74498748779297
 33
146.0
  0
3DFACE
  8
0
 10
-44.93101119995117
 20
53.606201171875
 30
146.0
 11
-45.58296585083008
 21
53.472145080566406
 31
146.0
 12
-47.07274627685547
 22
52.856719970703125
 32
146.0
 13
-47.07274627685547
 23
52.856719970703125
 33
146.0
  0
3DFACE
  8
0
 10
-43.83462142944336
 20
53.749977111816406
 30
146.0
 11
-44.269432067871094
 21
53.72025680541992
 31
146.0
 12
-44.93101119995117
 22
53.606201171875
 32
146.0
 13
-44.93101119995117
 23
53.606201171875
 33
146.0
  0
3DFACE
  8
0
 10
-36.68876647949219
 20
50.70353698730469
 30
146.0
 11
-39.995826721191406
 21
53.00830078125
 31
146.0
 12
-43.83462142944336
 22
53.749977111816406
 32
146.0
 13
-43.83462142944336
 23
53.749977111816406
 33
146.0
  0
3DFACE
  8
0
 10
-34.076168060302734
 20
45.33972930908203
 30
146.0
 11
-34.32703399658203
 21
46.537776947021484
 31
146.0
 12
-36.68876647949219
 22
50.70353698730469
 32
146.0
 13
-36.68876647949219
 23
50.70353698730469
 33
146.0
  0
3DFACE
  8
0
 10
-34.02407455444336
 20
44.391502380371094
 30
146.0
 11
-34.045658111572266
 21
45.06196975708008
 31
146.0
 12
-34.076168060302734
 22
45.33972930908203
 32
146.0
 13
-34.076168060302734
 23
45.33972930908203
 33
146.0
  0
3DFACE
  8
0
 10
-34.06121063232422
 20
43.399906158447266
 30
146.0
 11
-34.0251350402832
 21
44.0518798828125
 31
146.0
 12
-34.02407455444336
 22
44.391502380371094
 32
146.0
 13
-34.02407455444336
 23
44.391502380371094
 33
146.0
  0
3DFACE
  8
0
 10
-34.12789535522461
 20
42.74845886230469
 30
146.0
 11
-34.10380172729492
 21
42.92607879638672
 31
146.0
 12
-34.06121063232422
 22
43.399906158447266
 32
146.0
 13
-34.06121063232422
 23
43.399906158447266
 33
146.0
  0
3DFACE
  8
0
 10
-34.29506301879883
 20
41.935935974121094
 30
146.0
 11
-34.2521858215332
 21
42.121517181396484
 31
146.0
 12
-34.12789535522461
 22
42.74845886230469
 32
146.0
 13
-34.12789535522461
 23
42.74845886230469
 33
146.0
  0
3DFACE
  8
0
 10
-34.808815002441406
 20
40.44810485839844
 30
146.0
 11
-34.46711349487305
 21
41.31696701049805
 31
146.0
 12
-34.29506301879883
 22
41.935935974121094
 32
146.0
 13
-34.29506301879883
 23
41.935935974121094
 33
146.0
  0
3DFACE
  8
0
 10
-35.52192306518555
 20
39.1890983581543
 30
146.0
 11
-35.20402908325195
 21
39.70786666870117
 31
146.0
 12
-34.872318267822266
 22
40.33818054199219
 32
146.0
 13
-34.872318267822266
 23
40.33818054199219
 33
146.0
  0
3DFACE
  8
0
 10
-34.872318267822266
 20
40.33818054199219
 30
146.0
 11
-34.808815002441406
 21
40.44810485839844
 31
146.0
 12
-34.29506301879883
 22
41.935935974121094
 32
146.0
 13
-34.29506301879883
 23
41.935935974121094
 33
146.0
  0
3DFACE
  8
0
 10
-34.29506301879883
 20
41.935935974121094
 30
146.0
 11
-34.12789535522461
 21
42.74845886230469
 31
146.0
 12
-34.06121063232422
 22
43.399906158447266
 32
146.0
 13
-34.06121063232422
 23
43.399906158447266
 33
146.0
  0
3DFACE
  8
0
 10
-34.06121063232422
 20
43.399906158447266
 30
146.0
 11
-34.02407455444336
 21
44.391502380371094
 31
146.0
 12
-34.076168060302734
 22
45.33972930908203
 32
146.0
 13
-34.076168060302734
 23
45.33972930908203
 33
146.0
  0
3DFACE
  8
0
 10
-34.076168060302734
 20
45.33972930908203
 30
146.0
 11
-36.68876647949219
 21
50.70353698730469
 31
146.0
 12
-43.83462142944336
 22
53.749977111816406
 32
146.0
 13
-43.83462142944336
 23
53.749977111816406
 33
146.0
  0
3DFACE
  8
0
 10
-43.83462142944336
 20
53.749977111816406
 30
146.0
 11
-44.93101119995117
 21
53.606201171875
 31
146.0
 12
-47.07274627685547
 22
52.856719970703125
 32
146.0
 13
-47.07274627685547
 23
52.856719970703125
 33
146.0
  0
3DFACE
  8
0
 10
-47.07274627685547
 20
52.856719970703125
 30
146.0
 11
-48.59251403808594
 21
51.74498748779297
 31
146.0
 12
-49.42013168334961
 22
50.9544677734375
 32
146.0
 13
-49.42013168334961
 23
50.9544677734375
 33
146.0
  0
3DFACE
  8
0
 10
-49.42013168334961
 20
50.9544677734375
 30
146.0
 11
-51.19384765625
 21
48.55793762207031
 31
146.0
 12
-51.825035095214844
 22
46.94882583618164
 32
146.0
 13
-51.825035095214844
 23
46.94882583618164
 33
146.0
  0
3DFACE
  8
0
 10
-51.825035095214844
 20
46.94882583618164
 30
146.0
 11
-51.97809982299805
 21
46.14427947998047
 31
146.0
 12
-52.02833557128906
 22
45.8001708984375
 32
146.0
 13
-52.02833557128906
 23
45.8001708984375
 33
146.0
  0
3DFACE
  8
0
 10
-52.02833557128906
 20
45.8001708984375
 30
146.0
 11
-52.061763763427734
 21
45.3397331237793
 31
146.0
 12
-52.070430755615234
 22
45.078948974609375
 32
146.0
 13
-52.070430755615234
 23
45.078948974609375
 33
146.0
  0
3DFACE
  8
0
 10
-52.03309631347656
 20
44.45881652832031
 30
146.0
 11
-52.0273323059082
 21
44.287147521972656
 31
146.0
 12
-51.98019790649414
 22
43.73062515258789
 32
146.0
 13
-51.98019790649414
 23
43.73062515258789
 33
146.0
  0
3DFACE
  8
0
 10
-52.02833557128906
 20
45.8001708984375
 30
146.0
 11
-52.070430755615234
 21
45.078948974609375
 31
146.0
 12
-52.03309631347656
 22
44.45881652832031
 32
146.0
 13
-52.03309631347656
 23
44.45881652832031
 33
146.0
  0
3DFACE
  8
0
 10
-49.42013168334961
 20
50.9544677734375
 30
146.0
 11
-51.825035095214844
 21
46.94882583618164
 31
146.0
 12
-52.02833557128906
 22
45.8001708984375
 32
146.0
 13
-52.02833557128906
 23
45.8001708984375
 33
146.0
  0
3DFACE
  8
0
 10
-43.83462142944336
 20
53.749977111816406
 30
146.0
 11
-47.07274627685547
 21
52.856719970703125
 31
146.0
 12
-49.42013168334961
 22
50.9544677734375
 32
146.0
 13
-49.42013168334961
 23
50.9544677734375
 33
146.0
  0
3DFACE
  8
0
 10
-34.06121063232422
 20
43.399906158447266
 30
146.0
 11
-34.076168060302734
 21
45.33972930908203
 31
146.0
 12
-43.83462142944336
 22
53.749977111816406
 32
146.0
 13
-43.83462142944336
 23
53.749977111816406
 33
146.0
  0
3DFACE
  8
0
 10
-34.872318267822266
 20
40.33818054199219
 30
146.0
 11
-34.29506301879883
 21
41.935935974121094
 31
146.0
 12
-34.06121063232422
 22
43.399906158447266
 32
146.0
 13
-34.06121063232422
 23
43.399906158447266
 33
146.0
  0
3DFACE
  8
0
 10
-35.745018005371094
 20
38.89247131347656
 30
146.0
 11
-35.52192306518555
 21
39.1890983581543
 31
146.0
 12
-34.872318267822266
 22
40.33818054199219
 32
146.0
 13
-34.872318267822266
 23
40.33818054199219
 33
146.0
  0
3DFACE
  8
0
 10
-37.055686950683594
 20
37.593109130859375
 30
146.0
 11
-36.513301849365234
 21
38.10988235473633
 31
146.0
 12
-35.745018005371094
 22
38.89247131347656
 32
146.0
 13
-35.745018005371094
 23
38.89247131347656
 33
146.0
  0
3DFACE
  8
0
 10
-38.6102409362793
 20
36.50950241088867
 30
146.0
 11
-38.53779602050781
 21
36.5477409362793
 31
146.0
 12
-37.055686950683594
 22
37.593109130859375
 32
146.0
 13
-37.055686950683594
 23
37.593109130859375
 33
146.0
  0
3DFACE
  8
0
 10
-39.842552185058594
 20
35.973716735839844
 30
146.0
 11
-38.6733283996582
 21
36.480403900146484
 31
146.0
 12
-38.6102409362793
 22
36.50950241088867
 32
146.0
 13
-38.6102409362793
 23
36.50950241088867
 33
146.0
  0
3DFACE
  8
0
 10
-41.11103057861328
 20
35.71410369873047
 30
146.0
 11
-40.512847900390625
 21
35.796260833740234
 31
146.0
 12
-39.842552185058594
 22
35.973716735839844
 32
146.0
 13
-39.842552185058594
 23
35.973716735839844
 33
146.0
  0
3DFACE
  8
0
 10
-41.88541030883789
 20
35.6534423828125
 30
146.0
 11
-41.83285903930664
 21
35.650020599365234
 31
146.0
 12
-41.11103057861328
 22
35.71410369873047
 32
146.0
 13
-41.11103057861328
 23
35.71410369873047
 33
146.0
  0
3DFACE
  8
0
 10
-43.11738967895508
 20
35.72359085083008
 30
146.0
 11
-42.62615203857422
 21
35.67415237426758
 31
146.0
 12
-41.88541030883789
 22
35.6534423828125
 32
146.0
 13
-41.88541030883789
 23
35.6534423828125
 33
146.0
  0
3DFACE
  8
0
 10
-44.24312973022461
 20
35.87209701538086
 30
146.0
 11
-43.496726989746094
 21
35.750953674316406
 31
146.0
 12
-43.11738967895508
 22
35.72359085083008
 32
146.0
 13
-43.11738967895508
 23
35.72359085083008
 33
146.0
  0
3DFACE
  8
0
 10
-44.32048416137695
 20
35.88689041137695
 30
146.0
 11
-44.26953887939453
 21
35.875736236572266
 31
146.0
 12
-44.24312973022461
 22
35.87209701538086
 32
146.0
 13
-44.24312973022461
 23
35.87209701538086
 33
146.0
  0
3DFACE
  8
0
 10
-45.935367584228516
 20
36.40192413330078
 30
146.0
 11
-45.099361419677734
 21
36.0941276550293
 31
146.0
 12
-44.32048416137695
 22
35.88689041137695
 32
146.0
 13
-44.32048416137695
 23
35.88689041137695
 33
146.0
  0
3DFACE
  8
0
 10
-46.755435943603516
 20
36.80508041381836
 30
146.0
 11
-46.48082733154297
 21
36.65691375732422
 31
146.0
 12
-45.935367584228516
 22
36.40192413330078
 32
146.0
 13
-45.935367584228516
 23
36.40192413330078
 33
146.0
  0
3DFACE
  8
0
 10
-47.58588790893555
 20
37.32574462890625
 30
146.0
 11
-47.19862365722656
 21
37.06462097167969
 31
146.0
 12
-46.755435943603516
 22
36.80508041381836
 32
146.0
 13
-46.755435943603516
 23
36.80508041381836
 33
146.0
  0
3DFACE
  8
0
 10
-48.53115463256836
 20
38.06402587890625
 30
146.0
 11
-48.28951644897461
 21
37.86400604248047
 31
146.0
 12
-47.58588790893555
 22
37.32574462890625
 32
146.0
 13
-47.58588790893555
 23
37.32574462890625
 33
146.0
  0
3DFACE
  8
0
 10
-49.820621490478516
 20
39.310447692871094
 30
146.0
 11
-49.40068435668945
 21
38.86652374267578
 31
146.0
 12
-48.53115463256836
 22
38.06402587890625
 32
146.0
 13
-48.53115463256836
 23
38.06402587890625
 33
146.0
  0
3DFACE
  8
0
 10
-50.23271179199219
 20
39.80682373046875
 30
146.0
 11
-50.164737701416016
 21
39.71500015258789
 31
146.0
 12
-49.820621490478516
 22
39.310447692871094
 32
146.0
 13
-49.820621490478516
 23
39.310447692871094
 33
146.0
  0
3DFACE
  8
0
 10
-51.17033386230469
 20
41.19303512573242
 30
146.0
 11
-50.61575698852539
 21
40.28987503051758
 31
146.0
 12
-50.23271179199219
 22
39.80682373046875
 32
146.0
 13
-50.23271179199219
 23
39.80682373046875
 33
146.0
  0
3DFACE
  8
0
 10
-51.26255798339844
 20
41.380245208740234
 30
146.0
 11
-51.23922348022461
 21
41.31697463989258
 31
146.0
 12
-51.17033386230469
 22
41.19303512573242
 32
146.0
 13
-51.17033386230469
 23
41.19303512573242
 33
146.0
  0
3DFACE
  8
0
 10
-51.698516845703125
 20
42.602699279785156
 30
146.0
 11
-51.565799713134766
 21
42.10786056518555
 31
146.0
 12
-51.26255798339844
 22
41.380245208740234
 32
146.0
 13
-51.26255798339844
 23
41.380245208740234
 33
146.0
  0
3DFACE
  8
0
 10
-51.966861724853516
 20
43.657676696777344
 30
146.0
 11
-51.81029510498047
 21
42.92607879638672
 31
146.0
 12
-51.698516845703125
 22
42.602699279785156
 32
146.0
 13
-51.698516845703125
 23
42.602699279785156
 33
146.0
  0
3DFACE
  8
0
 10
-52.03309631347656
 20
44.45881652832031
 30
146.0
 11
-51.98019790649414
 21
43.73062515258789
 31
146.0
 12
-51.966861724853516
 22
43.657676696777344
 32
146.0
 13
-51.966861724853516
 23
43.657676696777344
 33
146.0
  0
3DFACE
  8
0
 10
-49.42013168334961
 20
50.9544677734375
 30
146.0
 11
-52.02833557128906
 21
45.8001708984375
 31
146.0
 12
-52.03309631347656
 22
44.45881652832031
 32
146.0
 13
-52.03309631347656
 23
44.45881652832031
 33
146.0
  0
3DFACE
  8
0
 10
-34.06121063232422
 20
43.399906158447266
 30
146.0
 11
-43.83462142944336
 21
53.749977111816406
 31
146.0
 12
-49.42013168334961
 22
50.9544677734375
 32
146.0
 13
-49.42013168334961
 23
50.9544677734375
 33
146.0
  0
3DFACE
  8
0
 10
-35.745018005371094
 20
38.89247131347656
 30
146.0
 11
-34.872318267822266
 21
40.33818054199219
 31
146.0
 12
-34.06121063232422
 22
43.399906158447266
 32
146.0
 13
-34.06121063232422
 23
43.399906158447266
 33
146.0
  0
3DFACE
  8
0
 10
-38.6102409362793
 20
36.50950241088867
 30
146.0
 11
-37.055686950683594
 21
37.593109130859375
 31
146.0
 12
-35.745018005371094
 22
38.89247131347656
 32
146.0
 13
-35.745018005371094
 23
38.89247131347656
 33
146.0
  0
3DFACE
  8
0
 10
-41.11103057861328
 20
35.71410369873047
 30
146.0
 11
-39.842552185058594
 21
35.973716735839844
 31
146.0
 12
-38.6102409362793
 22
36.50950241088867
 32
146.0
 13
-38.6102409362793
 23
36.50950241088867
 33
146.0
  0
3DFACE
  8
0
 10
-43.11738967895508
 20
35.72359085083008
 30
146.0
 11
-41.88541030883789
 21
35.6534423828125
 31
146.0
 12
-41.11103057861328
 22
35.71410369873047
 32
146.0
 13
-41.11103057861328
 23
35.71410369873047
 33
146.0
  0
3DFACE
  8
0
 10
-44.32048416137695
 20
35.88689041137695
 30
146.0
 11
-44.24312973022461
 21
35.87209701538086
 31
146.0
 12
-43.11738967895508
 22
35.72359085083008
 32
146.0
 13
-43.11738967895508
 23
35.72359085083008
 33
146.0
  0
3DFACE
  8
0
 10
-46.755435943603516
 20
36.80508041381836
 30
146.0
 11
-45.935367584228516
 21
36.40192413330078
 31
146.0
 12
-44.32048416137695
 22
35.88689041137695
 32
146.0
 13
-44.32048416137695
 23
35.88689041137695
 33
146.0
  0
3DFACE
  8
0
 10
-48.53115463256836
 20
38.06402587890625
 30
146.0
 11
-47.58588790893555
 21
37.32574462890625
 31
146.0
 12
-46.755435943603516
 22
36.80508041381836
 32
146.0
 13
-46.755435943603516
 23
36.80508041381836
 33
146.0
  0
3DFACE
  8
0
 10
-50.23271179199219
 20
39.80682373046875
 30
146.0
 11
-49.820621490478516
 21
39.310447692871094
 31
146.0
 12
-48.53115463256836
 22
38.06402587890625
 32
146.0
 13
-48.53115463256836
 23
38.06402587890625
 33
146.0
  0
3DFACE
  8
0
 10
-51.26255798339844
 20
41.380245208740234
 30
146.0
 11
-51.17033386230469
 21
41.19303512573242
 31
146.0
 12
-50.23271179199219
 22
39.80682373046875
 32
146.0
 13
-50.23271179199219
 23
39.80682373046875
 33
146.0
  0
3DFACE
  8
0
 10
-51.966861724853516
 20
43.657676696777344
 30
146.0
 11
-51.698516845703125
 21
42.602699279785156
 31
146.0
 12
-51.26255798339844
 22
41.380245208740234
 32
146.0
 13
-51.26255798339844
 23
41.380245208740234
 33
146.0
  0
3DFACE
  8
0
 10
-49.42013168334961
 20
50.9544677734375
 30
146.0
 11
-52.03309631347656
 21
44.45881652832031
 31
146.0
 12
-51.966861724853516
 22
43.657676696777344
 32
146.0
 13
-51.966861724853516
 23
43.657676696777344
 33
146.0
  0
3DFACE
  8
0
 10
-35.745018005371094
 20
38.89247131347656
 30
146.0
 11
-34.06121063232422
 21
43.399906158447266
 31
146.0
 12
-49.42013168334961
 22
50.9544677734375
 32
146.0
 13
-49.42013168334961
 23
50.9544677734375
 33
146.0
  0
3DFACE
  8
0
 10
-41.11103057861328
 20
35.71410369873047
 30
146.0
 11
-38.6102409362793
 21
36.50950241088867
 31
146.0
 12
-35.745018005371094
 22
38.89247131347656
 32
146.0
 13
-35.745018005371094
 23
38.89247131347656
 33
146.0
  0
3DFACE
  8
0
 10
-44.32048416137695
 20
35.88689041137695
 30
146.0
 11
-43.11738967895508
 21
35.72359085083008
 31
146.0
 12
-41.11103057861328
 22
35.71410369873047
 32
146.0
 13
-41.11103057861328
 23
35.71410369873047
 33
146.0
  0
3DFACE
  8
0
 10
-48.53115463256836
 20
38.06402587890625
 30
146.0
 11
-46.755435943603516
 21
36.80508041381836
 31
146.0
 12
-44.32048416137695
 22
35.88689041137695
 32
146.0
 13
-44.32048416137695
 23
35.88689041137695
 33
146.0
  0
3DFACE
  8
0
 10
-51.26255798339844
 20
41.380245208740234
 30
146.0
 11
-50.23271179199219
 21
39.80682373046875
 31
146.0
 12
-48.53115463256836
 22
38.06402587890625
 32
146.0
 13
-48.53115463256836
 23
38.06402587890625
 33
146.0
  0
3DFACE
  8
0
 10
-49.42013168334961
 20
50.9544677734375
 30
146.0
 11
-51.966861724853516
 21
43.657676696777344
 31
146.0
 12
-51.26255798339844
 22
41.380245208740234
 32
146.0
 13
-51.26255798339844
 23
41.380245208740234
 33
146.0
  0
3DFACE
  8
0
 10
-41.11103057861328
 20
35.71410369873047
 30
146.0
 11
-35.745018005371094
 21
38.89247131347656
 31
146.0
 12
-49.42013168334961
 22
50.9544677734375
 32
146.0
 13
-49.42013168334961
 23
50.9544677734375
 33
146.0
  0
3DFACE
  8
0
 10
-48.53115463256836
 20
38.06402587890625
 30
146.0
 11
-44.32048416137695
 21
35.88689041137695
 31
146.0
 12
-41.11103057861328
 22
35.71410369873047
 32
146.0
 13
-41.11103057861328
 23
35.71410369873047
 33
146.0
  0
3DFACE
  8
0
 10
-49.42013168334961
 20
50.9544677734375
 30
146.0
 11
-51.26255798339844
 21
41.380245208740234
 31
146.0
 12
-48.53115463256836
 22
38.06402587890625
 32
146.0
 13
-48.53115463256836
 23
38.06402587890625
 33
146.0
  0
3DFACE
  8
0
 10
-49.42013168334961
 20
50.9544677734375
 30
146.0
 11
-48.53115463256836
 21
38.06402587890625
 31
146.0
 12
-41.11103057861328
 22
35.71410369873047
 32
146.0
 13
-41.11103057861328
 23
35.71410369873047
 33
146.0
  0
3DFACE
  8
0
 10
28.323087692260742
 20
62.27303695678711
 30
146.0
 11
28.2721004486084
 21
62.23786163330078
 31
146.0
 12
28.16309356689453
 22
62.12681198120117
 32
146.0
 13
28.16309356689453
 23
62.12681198120117
 33
146.0
  0
3DFACE
  8
0
 10
28.16309356689453
 20
62.12681198120117
 30
146.0
 11
27.343814849853516
 21
61.185665130615234
 31
146.0
 12
26.967208862304688
 22
60.57931137084961
 32
146.0
 13
26.967208862304688
 23
60.57931137084961
 33
146.0
  0
3DFACE
  8
0
 10
26.702096939086914
 20
60.022891998291016
 30
146.0
 11
26.50571632385254
 21
59.68776321411133
 31
146.0
 12
26.373441696166992
 22
59.408382415771484
 32
146.0
 13
26.373441696166992
 23
59.408382415771484
 33
146.0
  0
3DFACE
  8
0
 10
28.16309356689453
 20
62.12681198120117
 30
146.0
 11
26.967208862304688
 21
60.57931137084961
 31
146.0
 12
26.702096939086914
 22
60.022891998291016
 32
146.0
 13
26.702096939086914
 23
60.022891998291016
 33
146.0
  0
3DFACE
  8
0
 10
29.04669952392578
 20
62.8511848449707
 30
146.0
 11
28.323087692260742
 21
62.27303695678711
 31
146.0
 12
28.16309356689453
 22
62.12681198120117
 32
146.0
 13
28.16309356689453
 23
62.12681198120117
 33
146.0
  0
3DFACE
  8
0
 10
29.879514694213867
 20
63.379207611083984
 30
146.0
 11
29.572750091552734
 21
63.187442779541016
 31
146.0
 12
29.2529239654541
 22
62.97020721435547
 32
146.0
 13
29.2529239654541
 23
62.97020721435547
 33
146.0
  0
3DFACE
  8
0
 10
29.2529239654541
 20
62.97020721435547
 30
146.0
 11
29.04669952392578
 21
62.8511848449707
 31
146.0
 12
28.16309356689453
 22
62.12681198120117
 32
146.0
 13
28.16309356689453
 23
62.12681198120117
 33
146.0
  0
3DFACE
  8
0
 10
28.16309356689453
 20
62.12681198120117
 30
146.0
 11
26.702096939086914
 21
60.022891998291016
 31
146.0
 12
26.373441696166992
 22
59.408382415771484
 32
146.0
 13
26.373441696166992
 23
59.408382415771484
 33
146.0
  0
3DFACE
  8
0
 10
26.373441696166992
 20
59.408382415771484
 30
146.0
 11
26.332237243652344
 21
59.30625915527344
 31
146.0
 12
26.148693084716797
 22
58.78312683105469
 32
146.0
 13
26.148693084716797
 23
58.78312683105469
 33
146.0
  0
3DFACE
  8
0
 10
26.148693084716797
 20
58.78312683105469
 30
146.0
 11
26.04381561279297
 21
58.40691375732422
 31
146.0
 12
25.939922332763672
 22
58.00613021850586
 32
146.0
 13
25.939922332763672
 23
58.00613021850586
 33
146.0
  0
3DFACE
  8
0
 10
25.939922332763672
 20
58.00613021850586
 30
146.0
 11
25.835729598999023
 21
57.5406379699707
 31
146.0
 12
25.799325942993164
 22
57.223873138427734
 32
146.0
 13
25.799325942993164
 23
57.223873138427734
 33
146.0
  0
3DFACE
  8
0
 10
25.799325942993164
 20
57.223873138427734
 30
146.0
 11
25.742345809936523
 21
56.404075622558594
 31
146.0
 12
25.740432739257812
 22
56.256046295166016
 32
146.0
 13
25.740432739257812
 23
56.256046295166016
 33
146.0
  0
3DFACE
  8
0
 10
25.75305938720703
 20
56.045494079589844
 30
146.0
 11
25.76947784423828
 21
55.598915100097656
 31
146.0
 12
25.806713104248047
 22
55.258365631103516
 32
146.0
 13
25.806713104248047
 23
55.258365631103516
 33
146.0
  0
3DFACE
  8
0
 10
25.799325942993164
 20
57.223873138427734
 30
146.0
 11
25.740432739257812
 21
56.256046295166016
 31
146.0
 12
25.75305938720703
 22
56.045494079589844
 32
146.0
 13
25.75305938720703
 23
56.045494079589844
 33
146.0
  0
3DFACE
  8
0
 10
26.148693084716797
 20
58.78312683105469
 30
146.0
 11
25.939922332763672
 21
58.00613021850586
 31
146.0
 12
25.799325942993164
 22
57.223873138427734
 32
146.0
 13
25.799325942993164
 23
57.223873138427734
 33
146.0
  0
3DFACE
  8
0
 10
28.16309356689453
 20
62.12681198120117
 30
146.0
 11
26.373441696166992
 21
59.408382415771484
 31
146.0
 12
26.148693084716797
 22
58.78312683105469
 32
146.0
 13
26.148693084716797
 23
58.78312683105469
 33
146.0
  0
3DFACE
  8
0
 10
29.879514694213867
 20
63.379207611083984
 30
146.0
 11
29.2529239654541
 21
62.97020721435547
 31
146.0
 12
28.16309356689453
 22
62.12681198120117
 32
146.0
 13
28.16309356689453
 23
62.12681198120117
 33
146.0
  0
3DFACE
  8
0
 10
30.355756759643555
 20
63.617210388183594
 30
146.0
 11
30.021949768066406
 21
63.45663833618164
 31
146.0
 12
29.879514694213867
 22
63.379207611083984
 32
146.0
 13
29.879514694213867
 23
63.379207611083984
 33
146.0
  0
3DFACE
  8
0
 10
31.510555267333984
 20
64.04307556152344
 30
146.0
 11
30.706954956054688
 21
63.77964401245117
 31
146.0
 12
30.355756759643555
 22
63.617210388183594
 32
146.0
 13
30.355756759643555
 23
63.617210388183594
 33
146.0
  0
3DFACE
  8
0
 10
32.278568267822266
 20
64.16021728515625
 30
146.0
 11
31.63324737548828
 21
64.06747436523438
 31
146.0
 12
31.510555267333984
 22
64.04307556152344
 32
146.0
 13
31.510555267333984
 23
64.04307556152344
 33
146.0
  0
3DFACE
  8
0
 10
33.09740447998047
 20
64.15546417236328
 30
146.0
 11
32.537899017333984
 21
64.17671966552734
 31
146.0
 12
32.278568267822266
 22
64.16021728515625
 32
146.0
 13
32.278568267822266
 23
64.16021728515625
 33
146.0
  0
3DFACE
  8
0
 10
34.648582458496094
 20
63.899803161621094
 30
146.0
 11
33.653656005859375
 21
64.08766174316406
 31
146.0
 12
33.09740447998047
 22
64.15546417236328
 32
146.0
 13
33.09740447998047
 23
64.15546417236328
 33
146.0
  0
3DFACE
  8
0
 10
34.69743728637695
 20
63.88291549682617
 30
146.0
 11
34.668601989746094
 21
63.89434814453125
 31
146.0
 12
34.648582458496094
 22
63.899803161621094
 32
146.0
 13
34.648582458496094
 23
63.899803161621094
 33
146.0
  0
3DFACE
  8
0
 10
36.21270751953125
 20
63.19042205810547
 30
146.0
 11
35.443458557128906
 21
63.62690734863281
 31
146.0
 12
34.69743728637695
 22
63.88291549682617
 32
146.0
 13
34.69743728637695
 23
63.88291549682617
 33
146.0
  0
3DFACE
  8
0
 10
36.97462844848633
 20
62.604923248291016
 30
146.0
 11
36.30692672729492
 21
63.12974166870117
 31
146.0
 12
36.21270751953125
 22
63.19042205810547
 32
146.0
 13
36.21270751953125
 23
63.19042205810547
 33
146.0
  0
3DFACE
  8
0
 10
37.72213363647461
 20
61.72593307495117
 30
146.0
 11
37.270179748535156
 21
62.279266357421875
 31
146.0
 12
36.97462844848633
 22
62.604923248291016
 32
146.0
 13
36.97462844848633
 23
62.604923248291016
 33
146.0
  0
3DFACE
  8
0
 10
38.23158264160156
 20
60.94963073730469
 30
146.0
 11
37.86436080932617
 21
61.53387451171875
 31
146.0
 12
37.72213363647461
 22
61.72593307495117
 32
146.0
 13
37.72213363647461
 23
61.72593307495117
 33
146.0
  0
3DFACE
  8
0
 10
38.456058502197266
 20
60.56984329223633
 30
146.0
 11
38.350460052490234
 21
60.76832580566406
 31
146.0
 12
38.23158264160156
 22
60.94963073730469
 32
146.0
 13
38.23158264160156
 23
60.94963073730469
 33
146.0
  0
3DFACE
  8
0
 10
38.792945861816406
 20
59.62764358520508
 30
146.0
 11
38.6971435546875
 21
59.99654006958008
 31
146.0
 12
38.456058502197266
 22
60.56984329223633
 32
146.0
 13
38.456058502197266
 23
60.56984329223633
 33
146.0
  0
3DFACE
  8
0
 10
39.04310607910156
 20
58.6753044128418
 30
146.0
 11
38.9315185546875
 21
59.21632385253906
 31
146.0
 12
38.792945861816406
 22
59.62764358520508
 32
146.0
 13
38.792945861816406
 23
59.62764358520508
 33
146.0
  0
3DFACE
  8
0
 10
39.20859909057617
 20
57.711605072021484
 30
146.0
 11
39.11405944824219
 21
58.40691375732422
 31
146.0
 12
39.04310607910156
 22
58.6753044128418
 32
146.0
 13
39.04310607910156
 23
58.6753044128418
 33
146.0
  0
3DFACE
  8
0
 10
39.235713958740234
 20
57.3486213684082
 30
146.0
 11
39.22736358642578
 21
57.61977005004883
 31
146.0
 12
39.20859909057617
 22
57.711605072021484
 32
146.0
 13
39.20859909057617
 23
57.711605072021484
 33
146.0
  0
3DFACE
  8
0
 10
39.20319366455078
 20
56.036231994628906
 30
146.0
 11
39.221824645996094
 21
56.24858093261719
 31
146.0
 12
39.235713958740234
 22
57.3486213684082
 32
146.0
 13
39.235713958740234
 23
57.3486213684082
 33
146.0
  0
3DFACE
  8
0
 10
38.91856002807617
 20
54.640960693359375
 30
146.0
 11
39.085453033447266
 21
55.258365631103516
 31
146.0
 12
39.146583557128906
 22
55.69188690185547
 32
146.0
 13
39.146583557128906
 23
55.69188690185547
 33
146.0
  0
3DFACE
  8
0
 10
39.146583557128906
 20
55.69188690185547
 30
146.0
 11
39.20319366455078
 21
56.036231994628906
 31
146.0
 12
39.235713958740234
 22
57.3486213684082
 32
146.0
 13
39.235713958740234
 23
57.3486213684082
 33
146.0
  0
3DFACE
  8
0
 10
39.235713958740234
 20
57.3486213684082
 30
146.0
 11
39.20859909057617
 21
57.711605072021484
 31
146.0
 12
39.04310607910156
 22
58.6753044128418
 32
146.0
 13
39.04310607910156
 23
58.6753044128418
 33
146.0
  0
3DFACE
  8
0
 10
39.04310607910156
 20
58.6753044128418
 30
146.0
 11
38.792945861816406
 21
59.62764358520508
 31
146.0
 12
38.456058502197266
 22
60.56984329223633
 32
146.0
 13
38.456058502197266
 23
60.56984329223633
 33
146.0
  0
3DFACE
  8
0
 10
38.456058502197266
 20
60.56984329223633
 30
146.0
 11
38.23158264160156
 21
60.94963073730469
 31
146.0
 12
37.72213363647461
 22
61.72593307495117
 32
146.0
 13
37.72213363647461
 23
61.72593307495117
 33
146.0
  0
3DFACE
  8
0
 10
37.72213363647461
 20
61.72593307495117
 30
146.0
 11
36.97462844848633
 21
62.604923248291016
 31
146.0
 12
36.21270751953125
 22
63.19042205810547
 32
146.0
 13
36.21270751953125
 23
63.19042205810547
 33
146.0
  0
3DFACE
  8
0
 10
36.21270751953125
 20
63.19042205810547
 30
146.0
 11
34.69743728637695
 21
63.88291549682617
 31
146.0
 12
34.648582458496094
 22
63.899803161621094
 32
146.0
 13
34.648582458496094
 23
63.899803161621094
 33
146.0
  0
3DFACE
  8
0
 10
34.648582458496094
 20
63.899803161621094
 30
146.0
 11
33.09740447998047
 21
64.15546417236328
 31
146.0
 12
32.278568267822266
 22
64.16021728515625
 32
146.0
 13
32.278568267822266
 23
64.16021728515625
 33
146.0
  0
3DFACE
  8
0
 10
32.278568267822266
 20
64.16021728515625
 30
146.0
 11
31.510555267333984
 21
64.04307556152344
 31
146.0
 12
30.355756759643555
 22
63.617210388183594
 32
146.0
 13
30.355756759643555
 23
63.617210388183594
 33
146.0
  0
3DFACE
  8
0
 10
30.355756759643555
 20
63.617210388183594
 30
146.0
 11
29.879514694213867
 21
63.379207611083984
 31
146.0
 12
28.16309356689453
 22
62.12681198120117
 32
146.0
 13
28.16309356689453
 23
62.12681198120117
 33
146.0
  0
3DFACE
  8
0
 10
28.16309356689453
 20
62.12681198120117
 30
146.0
 11
26.148693084716797
 21
58.78312683105469
 31
146.0
 12
25.799325942993164
 22
57.223873138427734
 32
146.0
 13
25.799325942993164
 23
57.223873138427734
 33
146.0
  0
3DFACE
  8
0
 10
25.799325942993164
 20
57.223873138427734
 30
146.0
 11
25.75305938720703
 21
56.045494079589844
 31
146.0
 12
25.806713104248047
 22
55.258365631103516
 32
146.0
 13
25.806713104248047
 23
55.258365631103516
 33
146.0
  0
3DFACE
  8
0
 10
25.806713104248047
 20
55.258365631103516
 30
146.0
 11
25.855276107788086
 21
54.93080520629883
 31
146.0
 12
25.985219955444336
 22
54.47122573852539
 32
146.0
 13
25.985219955444336
 23
54.47122573852539
 33
146.0
  0
3DFACE
  8
0
 10
25.985219955444336
 20
54.47122573852539
 30
146.0
 11
26.064489364624023
 21
54.13895034790039
 31
146.0
 12
26.19601058959961
 22
53.69460678100586
 32
146.0
 13
26.19601058959961
 23
53.69460678100586
 33
146.0
  0
3DFACE
  8
0
 10
26.19601058959961
 20
53.69460678100586
 30
146.0
 11
26.24501609802246
 21
53.54920196533203
 31
146.0
 12
26.520009994506836
 22
52.896949768066406
 32
146.0
 13
26.520009994506836
 23
52.896949768066406
 33
146.0
  0
3DFACE
  8
0
 10
26.520009994506836
 20
52.896949768066406
 30
146.0
 11
26.537025451660156
 21
52.849517822265625
 31
146.0
 12
26.92125129699707
 22
51.97633743286133
 32
146.0
 13
26.92125129699707
 23
51.97633743286133
 33
146.0
  0
3DFACE
  8
0
 10
26.92125129699707
 20
51.97633743286133
 30
146.0
 11
26.96066665649414
 21
51.891597747802734
 31
146.0
 12
27.27178192138672
 22
51.33477783203125
 32
146.0
 13
27.27178192138672
 23
51.33477783203125
 33
146.0
  0
3DFACE
  8
0
 10
27.27178192138672
 20
51.33477783203125
 30
146.0
 11
27.691953659057617
 21
50.68202590942383
 31
146.0
 12
27.81744956970215
 22
50.53146743774414
 32
146.0
 13
27.81744956970215
 23
50.53146743774414
 33
146.0
  0
3DFACE
  8
0
 10
27.81744956970215
 20
50.53146743774414
 30
146.0
 11
28.445545196533203
 21
49.8293342590332
 31
146.0
 12
28.533729553222656
 22
49.76889419555664
 32
146.0
 13
28.533729553222656
 23
49.76889419555664
 33
146.0
  0
3DFACE
  8
0
 10
28.533729553222656
 20
49.76889419555664
 30
146.0
 11
29.209991455078125
 21
49.39276123046875
 31
146.0
 12
29.493858337402344
 22
49.288021087646484
 32
146.0
 13
29.493858337402344
 23
49.288021087646484
 33
146.0
  0
3DFACE
  8
0
 10
29.493858337402344
 20
49.288021087646484
 30
146.0
 11
29.988744735717773
 21
49.150062561035156
 31
146.0
 12
30.13104248046875
 22
49.12034606933594
 32
146.0
 13
30.13104248046875
 23
49.12034606933594
 33
146.0
  0
3DFACE
  8
0
 10
30.13104248046875
 20
49.12034606933594
 30
146.0
 11
30.77398109436035
 21
49.039302825927734
 31
146.0
 12
31.213911056518555
 22
49.01128387451172
 32
146.0
 13
31.213911056518555
 23
49.01128387451172
 33
146.0
  0
3DFACE
  8
0
 10
31.213911056518555
 20
49.01128387451172
 30
146.0
 11
31.56140899658203
 21
48.973384857177734
 31
146.0
 12
32.19850540161133
 22
48.9920768737793
 32
146.0
 13
32.19850540161133
 23
48.9920768737793
 33
146.0
  0
3DFACE
  8
0
 10
32.19850540161133
 20
48.9920768737793
 30
146.0
 11
32.35247802734375
 21
48.98149108886719
 31
146.0
 12
33.09357833862305
 22
49.027915954589844
 32
146.0
 13
33.09357833862305
 23
49.027915954589844
 33
146.0
  0
3DFACE
  8
0
 10
33.09357833862305
 20
49.027915954589844
 30
146.0
 11
33.14552688598633
 21
49.03001022338867
 31
146.0
 12
33.26930618286133
 22
49.05318069458008
 32
146.0
 13
33.26930618286133
 23
49.05318069458008
 33
146.0
  0
3DFACE
  8
0
 10
33.26930618286133
 20
49.05318069458008
 30
146.0
 11
33.94442367553711
 21
49.197628021240234
 31
146.0
 12
34.30569839477539
 22
49.34370803833008
 32
146.0
 13
34.30569839477539
 23
49.34370803833008
 33
146.0
  0
3DFACE
  8
0
 10
34.30569839477539
 20
49.34370803833008
 30
146.0
 11
34.7609977722168
 21
49.49602127075195
 31
146.0
 12
35.515750885009766
 22
49.85758590698242
 32
146.0
 13
35.515750885009766
 23
49.85758590698242
 33
146.0
  0
3DFACE
  8
0
 10
35.515750885009766
 20
49.85758590698242
 30
146.0
 11
35.559120178222656
 21
49.87718200683594
 31
146.0
 12
35.6401481628418
 22
49.93333435058594
 32
146.0
 13
35.6401481628418
 23
49.93333435058594
 33
146.0
  0
3DFACE
  8
0
 10
35.6401481628418
 20
49.93333435058594
 30
146.0
 11
36.16523361206055
 21
50.33081817626953
 31
146.0
 12
36.3879280090332
 22
50.52786636352539
 32
146.0
 13
36.3879280090332
 23
50.52786636352539
 33
146.0
  0
3DFACE
  8
0
 10
36.3879280090332
 20
50.52786636352539
 30
146.0
 11
36.74787521362305
 21
50.858436584472656
 31
146.0
 12
37.187767028808594
 22
51.35337448120117
 32
146.0
 13
37.187767028808594
 23
51.35337448120117
 33
146.0
  0
3DFACE
  8
0
 10
37.187767028808594
 20
51.35337448120117
 30
146.0
 11
37.46004867553711
 21
51.671142578125
 31
146.0
 12
37.8050422668457
 22
52.10981369018555
 32
146.0
 13
37.8050422668457
 23
52.10981369018555
 33
146.0
  0
3DFACE
  8
0
 10
37.8050422668457
 20
52.10981369018555
 30
146.0
 11
37.94017028808594
 21
52.305171966552734
 31
146.0
 12
38.123443603515625
 22
52.61857986450195
 32
146.0
 13
38.123443603515625
 23
52.61857986450195
 33
146.0
  0
3DFACE
  8
0
 10
38.123443603515625
 20
52.61857986450195
 30
146.0
 11
38.30098342895508
 21
52.89695739746094
 31
146.0
 12
38.427310943603516
 22
53.151668548583984
 32
146.0
 13
38.427310943603516
 23
53.151668548583984
 33
146.0
  0
3DFACE
  8
0
 10
38.427310943603516
 20
53.151668548583984
 30
146.0
 11
38.63750457763672
 21
53.68662643432617
 31
146.0
 12
38.746524810791016
 22
54.01051330566406
 32
146.0
 13
38.746524810791016
 23
54.01051330566406
 33
146.0
  0
3DFACE
  8
0
 10
38.746524810791016
 20
54.01051330566406
 30
146.0
 11
38.88740158081055
 21
54.469932556152344
 31
146.0
 12
38.91856002807617
 22
54.640960693359375
 32
146.0
 13
38.91856002807617
 23
54.640960693359375
 33
146.0
  0
3DFACE
  8
0
 10
38.91856002807617
 20
54.640960693359375
 30
146.0
 11
39.146583557128906
 21
55.69188690185547
 31
146.0
 12
39.235713958740234
 22
57.3486213684082
 32
146.0
 13
39.235713958740234
 23
57.3486213684082
 33
146.0
  0
3DFACE
  8
0
 10
39.235713958740234
 20
57.3486213684082
 30
146.0
 11
39.04310607910156
 21
58.6753044128418
 31
146.0
 12
38.456058502197266
 22
60.56984329223633
 32
146.0
 13
38.456058502197266
 23
60.56984329223633
 33
146.0
  0
3DFACE
  8
0
 10
38.456058502197266
 20
60.56984329223633
 30
146.0
 11
37.72213363647461
 21
61.72593307495117
 31
146.0
 12
36.21270751953125
 22
63.19042205810547
 32
146.0
 13
36.21270751953125
 23
63.19042205810547
 33
146.0
  0
3DFACE
  8
0
 10
36.21270751953125
 20
63.19042205810547
 30
146.0
 11
34.648582458496094
 21
63.899803161621094
 31
146.0
 12
32.278568267822266
 22
64.16021728515625
 32
146.0
 13
32.278568267822266
 23
64.16021728515625
 33
146.0
  0
3DFACE
  8
0
 10
32.278568267822266
 20
64.16021728515625
 30
146.0
 11
30.355756759643555
 21
63.617210388183594
 31
146.0
 12
28.16309356689453
 22
62.12681198120117
 32
146.0
 13
28.16309356689453
 23
62.12681198120117
 33
146.0
  0
3DFACE
  8
0
 10
28.16309356689453
 20
62.12681198120117
 30
146.0
 11
25.799325942993164
 21
57.223873138427734
 31
146.0
 12
25.806713104248047
 22
55.258365631103516
 32
146.0
 13
25.806713104248047
 23
55.258365631103516
 33
146.0
  0
3DFACE
  8
0
 10
25.806713104248047
 20
55.258365631103516
 30
146.0
 11
25.985219955444336
 21
54.47122573852539
 31
146.0
 12
26.19601058959961
 22
53.69460678100586
 32
146.0
 13
26.19601058959961
 23
53.69460678100586
 33
146.0
  0
3DFACE
  8
0
 10
26.19601058959961
 20
53.69460678100586
 30
146.0
 11
26.520009994506836
 21
52.896949768066406
 31
146.0
 12
26.92125129699707
 22
51.97633743286133
 32
146.0
 13
26.92125129699707
 23
51.97633743286133
 33
146.0
  0
3DFACE
  8
0
 10
26.92125129699707
 20
51.97633743286133
 30
146.0
 11
27.27178192138672
 21
51.33477783203125
 31
146.0
 12
27.81744956970215
 22
50.53146743774414
 32
146.0
 13
27.81744956970215
 23
50.53146743774414
 33
146.0
  0
3DFACE
  8
0
 10
27.81744956970215
 20
50.53146743774414
 30
146.0
 11
28.533729553222656
 21
49.76889419555664
 31
146.0
 12
29.493858337402344
 22
49.288021087646484
 32
146.0
 13
29.493858337402344
 23
49.288021087646484
 33
146.0
  0
3DFACE
  8
0
 10
29.493858337402344
 20
49.288021087646484
 30
146.0
 11
30.13104248046875
 21
49.12034606933594
 31
146.0
 12
31.213911056518555
 22
49.01128387451172
 32
146.0
 13
31.213911056518555
 23
49.01128387451172
 33
146.0
  0
3DFACE
  8
0
 10
31.213911056518555
 20
49.01128387451172
 30
146.0
 11
32.19850540161133
 21
48.9920768737793
 31
146.0
 12
33.09357833862305
 22
49.027915954589844
 32
146.0
 13
33.09357833862305
 23
49.027915954589844
 33
146.0
  0
3DFACE
  8
0
 10
33.09357833862305
 20
49.027915954589844
 30
146.0
 11
33.26930618286133
 21
49.05318069458008
 31
146.0
 12
34.30569839477539
 22
49.34370803833008
 32
146.0
 13
34.30569839477539
 23
49.34370803833008
 33
146.0
  0
3DFACE
  8
0
 10
34.30569839477539
 20
49.34370803833008
 30
146.0
 11
35.515750885009766
 21
49.85758590698242
 31
146.0
 12
35.6401481628418
 22
49.93333435058594
 32
146.0
 13
35.6401481628418
 23
49.93333435058594
 33
146.0
  0
3DFACE
  8
0
 10
35.6401481628418
 20
49.93333435058594
 30
146.0
 11
36.3879280090332
 21
50.52786636352539
 31
146.0
 12
37.187767028808594
 22
51.35337448120117
 32
146.0
 13
37.187767028808594
 23
51.35337448120117
 33
146.0
  0
3DFACE
  8
0
 10
37.187767028808594
 20
51.35337448120117
 30
146.0
 11
37.8050422668457
 21
52.10981369018555
 31
146.0
 12
38.123443603515625
 22
52.61857986450195
 32
146.0
 13
38.123443603515625
 23
52.61857986450195
 33
146.0
  0
3DFACE
  8
0
 10
38.123443603515625
 20
52.61857986450195
 30
146.0
 11
38.427310943603516
 21
53.151668548583984
 31
146.0
 12
38.746524810791016
 22
54.01051330566406
 32
146.0
 13
38.746524810791016
 23
54.01051330566406
 33
146.0
  0
3DFACE
  8
0
 10
38.746524810791016
 20
54.01051330566406
 30
146.0
 11
38.91856002807617
 21
54.640960693359375
 31
146.0
 12
39.235713958740234
 22
57.3486213684082
 32
146.0
 13
39.235713958740234
 23
57.3486213684082
 33
146.0
  0
3DFACE
  8
0
 10
39.235713958740234
 20
57.3486213684082
 30
146.0
 11
38.456058502197266
 21
60.56984329223633
 31
146.0
 12
36.21270751953125
 22
63.19042205810547
 32
146.0
 13
36.21270751953125
 23
63.19042205810547
 33
146.0
  0
3DFACE
  8
0
 10
36.21270751953125
 20
63.19042205810547
 30
146.0
 11
32.278568267822266
 21
64.16021728515625
 31
146.0
 12
28.16309356689453
 22
62.12681198120117
 32
146.0
 13
28.16309356689453
 23
62.12681198120117
 33
146.0
  0
3DFACE
  8
0
 10
28.16309356689453
 20
62.12681198120117
 30
146.0
 11
25.806713104248047
 21
55.258365631103516
 31
146.0
 12
26.19601058959961
 22
53.69460678100586
 32
146.0
 13
26.19601058959961
 23
53.69460678100586
 33
146.0
  0
3DFACE
  8
0
 10
26.19601058959961
 20
53.69460678100586
 30
146.0
 11
26.92125129699707
 21
51.97633743286133
 31
146.0
 12
27.81744956970215
 22
50.53146743774414
 32
146.0
 13
27.81744956970215
 23
50.53146743774414
 33
146.0
  0
3DFACE
  8
0
 10
27.81744956970215
 20
50.53146743774414
 30
146.0
 11
29.493858337402344
 21
49.288021087646484
 31
146.0
 12
31.213911056518555
 22
49.01128387451172
 32
146.0
 13
31.213911056518555
 23
49.01128387451172
 33
146.0
  0
3DFACE
  8
0
 10
31.213911056518555
 20
49.01128387451172
 30
146.0
 11
33.09357833862305
 21
49.027915954589844
 31
146.0
 12
34.30569839477539
 22
49.34370803833008
 32
146.0
 13
34.30569839477539
 23
49.34370803833008
 33
146.0
  0
3DFACE
  8
0
 10
34.30569839477539
 20
49.34370803833008
 30
146.0
 11
35.6401481628418
 21
49.93333435058594
 31
146.0
 12
37.187767028808594
 22
51.35337448120117
 32
146.0
 13
37.187767028808594
 23
51.35337448120117
 33
146.0
  0
3DFACE
  8
0
 10
37.187767028808594
 20
51.35337448120117
 30
146.0
 11
38.123443603515625
 21
52.61857986450195
 31
146.0
 12
38.746524810791016
 22
54.01051330566406
 32
146.0
 13
38.746524810791016
 23
54.01051330566406
 33
146.0
  0
3DFACE
  8
0
 10
38.746524810791016
 20
54.01051330566406
 30
146.0
 11
39.235713958740234
 21
57.3486213684082
 31
146.0
 12
36.21270751953125
 22
63.19042205810547
 32
146.0
 13
36.21270751953125
 23
63.19042205810547
 33
146.0
  0
3DFACE
  8
0
 10
36.21270751953125
 20
63.19042205810547
 30
146.0
 11
28.16309356689453
 21
62.12681198120117
 31
146.0
 12
26.19601058959961
 22
53.69460678100586
 32
146.0
 13
26.19601058959961
 23
53.69460678100586
 33
146.0
  0
3DFACE
  8
0
 10
26.19601058959961
 20
53.69460678100586
 30
146.0
 11
27.81744956970215
 21
50.53146743774414
 31
146.0
 12
31.213911056518555
 22
49.01128387451172
 32
146.0
 13
31.213911056518555
 23
49.01128387451172
 33
146.0
  0
3DFACE
  8
0
 10
31.213911056518555
 20
49.01128387451172
 30
146.0
 11
34.30569839477539
 21
49.34370803833008
 31
146.0
 12
37.187767028808594
 22
51.35337448120117
 32
146.0
 13
37.187767028808594
 23
51.35337448120117
 33
146.0
  0
3DFACE
  8
0
 10
37.187767028808594
 20
51.35337448120117
 30
146.0
 11
38.746524810791016
 21
54.01051330566406
 31
146.0
 12
36.21270751953125
 22
63.19042205810547
 32
146.0
 13
36.21270751953125
 23
63.19042205810547
 33
146.0
  0
3DFACE
  8
0
 10
36.21270751953125
 20
63.19042205810547
 30
146.0
 11
26.19601058959961
 21
53.69460678100586
 31
146.0
 12
31.213911056518555
 22
49.01128387451172
 32
146.0
 13
31.213911056518555
 23
49.01128387451172
 33
146.0
  0
3DFACE
  8
0
 10
31.213911056518555
 20
49.01128387451172
 30
146.0
 11
37.187767028808594
 21
51.35337448120117
 31
146.0
 12
36.21270751953125
 22
63.19042205810547
 32
146.0
 13
36.21270751953125
 23
63.19042205810547
 33
146.0
  0
ENDSEC
  0
EOF
