  0
SECTION
  2
HEADER
  9
$ACADVER
  1
AC1009
  9
$INSBASE
 10
0.0
 20
0.0
 30
0.0
  9
$EXTMIN
 10
0.0
 20
0.0
 30
0.0
  9
$EXTMAX
 10
0.0
 20
0.0
 30
0.0
  0
ENDSEC
  0
SECTION
  2
TABLES
  0
TABLE
  2
VPORT
 70
1
  0
VPORT
  2
*ACTIVE
 70
0
 10
0.0
 20
0.0
 11
1.0
 21
1.0
 12
-5.0
 22
1.0
 13
0.0
 23
0.0
 14
0.1
 24
0.1
 15
0.1
 25
0.1
 16
0.0
 26
0.0
 36
1.0
 17
0.0
 27
0.0
 37
0.0
 40
10.0
 41
1.0
 42
50.0
 43
0.0
 44
0.0
 50
0.0
 51
0.0
 71
0
 72
100
 73
1
 74
1
 75
0
 76
0
 77
0
 78
0
  0
ENDTAB
  0
TABLE
  2
LTYPE
 70
8
  0
LTYPE
  2
CONTINUOUS
 70
0
  3
Solid line
 72
65
 73
0
 40
0.0
  0
LTYPE
  2
DOT
 70
0
  3
. . . . . . .
 72
65
 73
2
 40
0.25
 49
0.0
 49
-0.25
  0
LTYPE
  2
DASHED
 70
0
  3
__ __ __ __ __
 72
65
 73
2
 40
0.8
 49
0.5
 49
-0.3
  0
LTYPE
  2
DASHDOT
 70
0
  3
__ . __ . __ .
 72
65
 73
4
 40
1.0
 49
0.5
 49
-0.25
 49
0.0
 49
-0.25
  0
LTYPE
  2
DIVIDE
 70
0
  3
____ . . ____ . . 
 72
65
 73
6
 40
1.25
 49
0.5
 49
-0.25
 49
0.0
 49
-0.25
 49
0.0
 49
-0.25
  0
LTYPE
  2
BORDER
 70
0
  3
__ __ . __ __ . 
 72
65
 73
6
 40
1.75
 49
0.5
 49
-0.25
 49
0.5
 49
-0.25
 49
0.0
 49
-0.25
  0
LTYPE
  2
HIDDEN
 70
0
  3
__ __ __ __ __
 72
65
 73
2
 40
0.4
 49
0.25
 49
-0.25
  0
LTYPE
  2
CENTER
 70
0
  3
____ _ ____ _ __
 72
65
 73
4
 40
2.0
 49
1.25
 49
-0.25
 49
0.25
 49
-0.25
  0
ENDTAB
  0
TABLE
  2
LAYER
 70
1
  0
LAYER
  2
PYDXF
 70
64
 62
7
  6
continuous
  0
ENDTAB
  0
TABLE
  2
STYLE
 70
1
  0
STYLE
  2
STANDARD
 70
0
 40
0
 41
1.0
 50
0.0
 71
0
 42
1
 3
ARIAL.TTF
 4

  0
ENDTAB
  0
TABLE
  2
VIEW
 70
1
  0
VIEW
  2
BF_TOPVIEW
 70
0
 40
120.0
 10
0.0
 20
0.0
 41
200.0
 11
0.0
 21
0.0
 31
1.0
 12
0.0
 22
0.0
 32
0.0
 42
50.0
 43
0.0
 44
0.0
 50
0.0
 71
0
  0
ENDTAB
  0
ENDSEC
  0
SECTION
  2
BLOCKS
  0
ENDSEC
  0
SECTION
  2
ENTITIES
  0
3DFACE
  8
0
 10
-15.765378952026367
 20
-54.920589447021484
 30
148.0
 11
-15.761629104614258
 21
-54.91532516479492
 31
148.0
 12
-15.757984161376953
 22
-54.9090576171875
 32
148.0
 13
-15.757984161376953
 23
-54.9090576171875
 33
148.0
  0
3DFACE
  8
0
 10
-15.757984161376953
 20
-54.9090576171875
 30
148.0
 11
-15.632291793823242
 21
-54.67713928222656
 31
148.0
 12
-15.0709228515625
 22
-53.26327896118164
 32
148.0
 13
-15.0709228515625
 23
-53.26327896118164
 33
148.0
  0
3DFACE
  8
0
 10
-15.0709228515625
 20
-53.26327896118164
 30
148.0
 11
-15.061367988586426
 21
-53.26327896118164
 31
148.0
 12
-15.005119323730469
 22
-53.112125396728516
 32
148.0
 13
-15.005119323730469
 23
-53.112125396728516
 33
148.0
  0
3DFACE
  8
0
 10
-15.005119323730469
 20
-53.112125396728516
 30
148.0
 11
-14.82138729095459
 21
-52.480777740478516
 31
148.0
 12
-14.681198120117188
 22
-51.84943771362305
 32
148.0
 13
-14.681198120117188
 23
-51.84943771362305
 33
148.0
  0
3DFACE
  8
0
 10
-14.681198120117188
 20
-51.84943771362305
 30
148.0
 11
-14.627790451049805
 21
-51.69828414916992
 31
148.0
 12
-14.4894437789917
 22
-50.915775299072266
 32
148.0
 13
-14.4894437789917
 23
-50.915775299072266
 33
148.0
  0
3DFACE
  8
0
 10
-14.466939926147461
 20
-50.284420013427734
 30
148.0
 11
-14.44739055633545
 21
-50.13326644897461
 31
148.0
 12
-14.501840591430664
 22
-49.50192642211914
 32
148.0
 13
-14.501840591430664
 23
-49.50192642211914
 33
148.0
  0
3DFACE
  8
0
 10
-14.681198120117188
 20
-51.84943771362305
 30
148.0
 11
-14.4894437789917
 21
-50.915775299072266
 31
148.0
 12
-14.466939926147461
 22
-50.284420013427734
 32
148.0
 13
-14.466939926147461
 23
-50.284420013427734
 33
148.0
  0
3DFACE
  8
0
 10
-15.0709228515625
 20
-53.26327896118164
 30
148.0
 11
-15.005119323730469
 21
-53.112125396728516
 31
148.0
 12
-14.681198120117188
 22
-51.84943771362305
 32
148.0
 13
-14.681198120117188
 23
-51.84943771362305
 33
148.0
  0
3DFACE
  8
0
 10
-15.765378952026367
 20
-54.920589447021484
 30
148.0
 11
-15.757984161376953
 21
-54.9090576171875
 31
148.0
 12
-15.0709228515625
 22
-53.26327896118164
 32
148.0
 13
-15.0709228515625
 23
-53.26327896118164
 33
148.0
  0
3DFACE
  8
0
 10
-16.14088249206543
 20
-55.45963668823242
 30
148.0
 11
-15.771512031555176
 21
-54.930259704589844
 31
148.0
 12
-15.765378952026367
 22
-54.920589447021484
 32
148.0
 13
-15.765378952026367
 23
-54.920589447021484
 33
148.0
  0
3DFACE
  8
0
 10
-16.712533950805664
 20
-56.227317810058594
 30
148.0
 11
-16.544132232666016
 21
-56.0649299621582
 31
148.0
 12
-16.233139038085938
 22
-55.586463928222656
 32
148.0
 13
-16.233139038085938
 23
-55.586463928222656
 33
148.0
  0
3DFACE
  8
0
 10
-16.233139038085938
 20
-55.586463928222656
 30
148.0
 11
-16.14088249206543
 21
-55.45963668823242
 31
148.0
 12
-15.765378952026367
 22
-54.920589447021484
 32
148.0
 13
-15.765378952026367
 23
-54.920589447021484
 33
148.0
  0
3DFACE
  8
0
 10
-15.765378952026367
 20
-54.920589447021484
 30
148.0
 11
-15.0709228515625
 21
-53.26327896118164
 31
148.0
 12
-14.681198120117188
 22
-51.84943771362305
 32
148.0
 13
-14.681198120117188
 23
-51.84943771362305
 33
148.0
  0
3DFACE
  8
0
 10
-14.681198120117188
 20
-51.84943771362305
 30
148.0
 11
-14.466939926147461
 21
-50.284420013427734
 31
148.0
 12
-14.501840591430664
 22
-49.50192642211914
 32
148.0
 13
-14.501840591430664
 23
-49.50192642211914
 33
148.0
  0
3DFACE
  8
0
 10
-14.501840591430664
 20
-49.50192642211914
 30
148.0
 11
-14.490913391113281
 21
-49.350772857666016
 31
148.0
 12
-14.64680290222168
 22
-48.719417572021484
 32
148.0
 13
-14.64680290222168
 23
-48.719417572021484
 33
148.0
  0
3DFACE
  8
0
 10
-14.64680290222168
 20
-48.719417572021484
 30
148.0
 11
-14.669678688049316
 21
-48.56826400756836
 31
148.0
 12
-14.70792293548584
 22
-48.417110443115234
 32
148.0
 13
-14.70792293548584
 23
-48.417110443115234
 33
148.0
  0
3DFACE
  8
0
 10
-14.70792293548584
 20
-48.417110443115234
 30
148.0
 11
-14.987765312194824
 21
-47.68673324584961
 31
148.0
 12
-15.264445304870605
 22
-47.003204345703125
 32
148.0
 13
-15.264445304870605
 23
-47.003204345703125
 33
148.0
  0
3DFACE
  8
0
 10
-15.639060974121094
 20
-46.360713958740234
 30
148.0
 11
-15.702498435974121
 21
-46.22988510131836
 31
148.0
 12
-15.77107048034668
 22
-46.11111831665039
 32
148.0
 13
-15.77107048034668
 23
-46.11111831665039
 33
148.0
  0
3DFACE
  8
0
 10
-14.70792293548584
 20
-48.417110443115234
 30
148.0
 11
-15.264445304870605
 21
-47.003204345703125
 31
148.0
 12
-15.639060974121094
 22
-46.360713958740234
 32
148.0
 13
-15.639060974121094
 23
-46.360713958740234
 33
148.0
  0
3DFACE
  8
0
 10
-14.501840591430664
 20
-49.50192642211914
 30
148.0
 11
-14.64680290222168
 21
-48.719417572021484
 31
148.0
 12
-14.70792293548584
 22
-48.417110443115234
 32
148.0
 13
-14.70792293548584
 23
-48.417110443115234
 33
148.0
  0
3DFACE
  8
0
 10
-15.765378952026367
 20
-54.920589447021484
 30
148.0
 11
-14.681198120117188
 21
-51.84943771362305
 31
148.0
 12
-14.501840591430664
 22
-49.50192642211914
 32
148.0
 13
-14.501840591430664
 23
-49.50192642211914
 33
148.0
  0
3DFACE
  8
0
 10
-16.712533950805664
 20
-56.227317810058594
 30
148.0
 11
-16.233139038085938
 21
-55.586463928222656
 31
148.0
 12
-15.765378952026367
 22
-54.920589447021484
 32
148.0
 13
-15.765378952026367
 23
-54.920589447021484
 33
148.0
  0
3DFACE
  8
0
 10
-17.47779083251953
 20
-56.971534729003906
 30
148.0
 11
-17.335615158081055
 21
-56.859954833984375
 31
148.0
 12
-16.712533950805664
 22
-56.227317810058594
 32
148.0
 13
-16.712533950805664
 23
-56.227317810058594
 33
148.0
  0
3DFACE
  8
0
 10
-18.245088577270508
 20
-57.55970001220703
 30
148.0
 11
-18.109140396118164
 21
-57.46553039550781
 31
148.0
 12
-17.60019302368164
 22
-57.06036376953125
 32
148.0
 13
-17.60019302368164
 23
-57.06036376953125
 33
148.0
  0
3DFACE
  8
0
 10
-17.60019302368164
 20
-57.06036376953125
 30
148.0
 11
-17.47779083251953
 21
-56.971534729003906
 31
148.0
 12
-16.712533950805664
 22
-56.227317810058594
 32
148.0
 13
-16.712533950805664
 23
-56.227317810058594
 33
148.0
  0
3DFACE
  8
0
 10
-16.712533950805664
 20
-56.227317810058594
 30
148.0
 11
-15.765378952026367
 21
-54.920589447021484
 31
148.0
 12
-14.501840591430664
 22
-49.50192642211914
 32
148.0
 13
-14.501840591430664
 23
-49.50192642211914
 33
148.0
  0
3DFACE
  8
0
 10
-14.501840591430664
 20
-49.50192642211914
 30
148.0
 11
-14.70792293548584
 21
-48.417110443115234
 31
148.0
 12
-15.639060974121094
 22
-46.360713958740234
 32
148.0
 13
-15.639060974121094
 23
-46.360713958740234
 33
148.0
  0
3DFACE
  8
0
 10
-15.639060974121094
 20
-46.360713958740234
 30
148.0
 11
-15.77107048034668
 21
-46.11111831665039
 31
148.0
 12
-16.384469985961914
 22
-45.43630599975586
 32
148.0
 13
-16.384469985961914
 23
-45.43630599975586
 33
148.0
  0
3DFACE
  8
0
 10
-16.384469985961914
 20
-45.43630599975586
 30
148.0
 11
-16.53199005126953
 21
-45.3011360168457
 31
148.0
 12
-17.188949584960938
 22
-44.85334396362305
 32
148.0
 13
-17.188949584960938
 23
-44.85334396362305
 33
148.0
  0
3DFACE
  8
0
 10
-17.188949584960938
 20
-44.85334396362305
 30
148.0
 11
-17.326637268066406
 21
-44.76891326904297
 31
148.0
 12
-17.943832397460938
 22
-44.57093811035156
 32
148.0
 13
-17.943832397460938
 23
-44.57093811035156
 33
148.0
  0
3DFACE
  8
0
 10
-17.943832397460938
 20
-44.57093811035156
 30
148.0
 11
-18.109140396118164
 21
-44.53065490722656
 31
148.0
 12
-18.27444839477539
 22
-44.53484344482422
 32
148.0
 13
-18.27444839477539
 23
-44.53484344482422
 33
148.0
  0
3DFACE
  8
0
 10
-18.27444839477539
 20
-44.53484344482422
 30
148.0
 11
-18.89164161682129
 21
-44.48811340332031
 31
148.0
 12
-19.095718383789062
 22
-44.512977600097656
 32
148.0
 13
-19.095718383789062
 23
-44.512977600097656
 33
148.0
  0
3DFACE
  8
0
 10
-19.095718383789062
 20
-44.512977600097656
 30
148.0
 11
-19.68891143798828
 21
-44.560543060302734
 31
148.0
 12
-19.847726821899414
 22
-44.60240936279297
 32
148.0
 13
-19.847726821899414
 23
-44.60240936279297
 33
148.0
  0
3DFACE
  8
0
 10
-20.446226119995117
 20
-44.74024200439453
 30
148.0
 11
-20.456647872924805
 21
-44.742095947265625
 31
148.0
 12
-21.23914909362793
 22
-44.98152542114258
 32
148.0
 13
-21.23914909362793
 23
-44.98152542114258
 33
148.0
  0
3DFACE
  8
0
 10
-19.095718383789062
 20
-44.512977600097656
 30
148.0
 11
-19.847726821899414
 21
-44.60240936279297
 31
148.0
 12
-20.446226119995117
 22
-44.74024200439453
 32
148.0
 13
-20.446226119995117
 23
-44.74024200439453
 33
148.0
  0
3DFACE
  8
0
 10
-17.943832397460938
 20
-44.57093811035156
 30
148.0
 11
-18.27444839477539
 21
-44.53484344482422
 31
148.0
 12
-19.095718383789062
 22
-44.512977600097656
 32
148.0
 13
-19.095718383789062
 23
-44.512977600097656
 33
148.0
  0
3DFACE
  8
0
 10
-16.384469985961914
 20
-45.43630599975586
 30
148.0
 11
-17.188949584960938
 21
-44.85334396362305
 31
148.0
 12
-17.943832397460938
 22
-44.57093811035156
 32
148.0
 13
-17.943832397460938
 23
-44.57093811035156
 33
148.0
  0
3DFACE
  8
0
 10
-14.501840591430664
 20
-49.50192642211914
 30
148.0
 11
-15.639060974121094
 21
-46.360713958740234
 31
148.0
 12
-16.384469985961914
 22
-45.43630599975586
 32
148.0
 13
-16.384469985961914
 23
-45.43630599975586
 33
148.0
  0
3DFACE
  8
0
 10
-17.60019302368164
 20
-57.06036376953125
 30
148.0
 11
-16.712533950805664
 21
-56.227317810058594
 31
148.0
 12
-14.501840591430664
 22
-49.50192642211914
 32
148.0
 13
-14.501840591430664
 23
-49.50192642211914
 33
148.0
  0
3DFACE
  8
0
 10
-18.89164161682129
 20
-57.97764587402344
 30
148.0
 11
-18.245088577270508
 21
-57.55970001220703
 31
148.0
 12
-17.60019302368164
 22
-57.06036376953125
 32
148.0
 13
-17.60019302368164
 23
-57.06036376953125
 33
148.0
  0
3DFACE
  8
0
 10
-19.674144744873047
 20
-58.39589309692383
 30
148.0
 11
-19.538196563720703
 21
-58.327484130859375
 31
148.0
 12
-18.89164161682129
 22
-57.97764587402344
 32
148.0
 13
-18.89164161682129
 23
-57.97764587402344
 33
148.0
  0
3DFACE
  8
0
 10
-21.23914909362793
 20
-58.96463394165039
 30
148.0
 11
-20.456647872924805
 21
-58.776371002197266
 31
148.0
 12
-19.818042755126953
 22
-58.44966125488281
 32
148.0
 13
-19.818042755126953
 23
-58.44966125488281
 33
148.0
  0
3DFACE
  8
0
 10
-19.818042755126953
 20
-58.44966125488281
 30
148.0
 11
-19.674144744873047
 21
-58.39589309692383
 31
148.0
 12
-18.89164161682129
 22
-57.97764587402344
 32
148.0
 13
-18.89164161682129
 23
-57.97764587402344
 33
148.0
  0
3DFACE
  8
0
 10
-18.89164161682129
 20
-57.97764587402344
 30
148.0
 11
-17.60019302368164
 21
-57.06036376953125
 31
148.0
 12
-14.501840591430664
 22
-49.50192642211914
 32
148.0
 13
-14.501840591430664
 23
-49.50192642211914
 33
148.0
  0
3DFACE
  8
0
 10
-14.501840591430664
 20
-49.50192642211914
 30
148.0
 11
-16.384469985961914
 21
-45.43630599975586
 31
148.0
 12
-17.943832397460938
 22
-44.57093811035156
 32
148.0
 13
-17.943832397460938
 23
-44.57093811035156
 33
148.0
  0
3DFACE
  8
0
 10
-17.943832397460938
 20
-44.57093811035156
 30
148.0
 11
-19.095718383789062
 21
-44.512977600097656
 31
148.0
 12
-20.446226119995117
 22
-44.74024200439453
 32
148.0
 13
-20.446226119995117
 23
-44.74024200439453
 33
148.0
  0
3DFACE
  8
0
 10
-20.446226119995117
 20
-44.74024200439453
 30
148.0
 11
-21.23914909362793
 21
-44.98152542114258
 31
148.0
 12
-21.390302658081055
 22
-45.04773712158203
 32
148.0
 13
-21.390302658081055
 23
-45.04773712158203
 33
148.0
  0
3DFACE
  8
0
 10
-21.390302658081055
 20
-45.04773712158203
 30
148.0
 11
-22.02165412902832
 21
-45.29399108886719
 31
148.0
 12
-22.65300178527832
 22
-45.59735870361328
 32
148.0
 13
-22.65300178527832
 23
-45.59735870361328
 33
148.0
  0
3DFACE
  8
0
 10
-22.65300178527832
 20
-45.59735870361328
 30
148.0
 11
-22.804155349731445
 21
-45.67475891113281
 31
148.0
 12
-22.95530891418457
 22
-45.75558853149414
 32
148.0
 13
-22.95530891418457
 23
-45.75558853149414
 33
148.0
  0
3DFACE
  8
0
 10
-22.95530891418457
 20
-45.75558853149414
 30
148.0
 11
-23.58665657043457
 21
-46.08058547973633
 31
148.0
 12
-23.681049346923828
 22
-46.1456184387207
 32
148.0
 13
-23.681049346923828
 23
-46.1456184387207
 33
148.0
  0
3DFACE
  8
0
 10
-23.878183364868164
 20
-46.27000427246094
 30
148.0
 11
-24.312402725219727
 21
-46.53153991699219
 31
148.0
 12
-24.369165420532227
 22
-46.5777702331543
 32
148.0
 13
-24.369165420532227
 23
-46.5777702331543
 33
148.0
  0
3DFACE
  8
0
 10
-22.95530891418457
 20
-45.75558853149414
 30
148.0
 11
-23.681049346923828
 21
-46.1456184387207
 31
148.0
 12
-23.878183364868164
 22
-46.27000427246094
 32
148.0
 13
-23.878183364868164
 23
-46.27000427246094
 33
148.0
  0
3DFACE
  8
0
 10
-21.390302658081055
 20
-45.04773712158203
 30
148.0
 11
-22.65300178527832
 21
-45.59735870361328
 31
148.0
 12
-22.95530891418457
 22
-45.75558853149414
 32
148.0
 13
-22.95530891418457
 23
-45.75558853149414
 33
148.0
  0
3DFACE
  8
0
 10
-17.943832397460938
 20
-44.57093811035156
 30
148.0
 11
-20.446226119995117
 21
-44.74024200439453
 31
148.0
 12
-21.390302658081055
 22
-45.04773712158203
 32
148.0
 13
-21.390302658081055
 23
-45.04773712158203
 33
148.0
  0
3DFACE
  8
0
 10
-18.89164161682129
 20
-57.97764587402344
 30
148.0
 11
-14.501840591430664
 21
-49.50192642211914
 31
148.0
 12
-17.943832397460938
 22
-44.57093811035156
 32
148.0
 13
-17.943832397460938
 23
-44.57093811035156
 33
148.0
  0
3DFACE
  8
0
 10
-21.23914909362793
 20
-58.96463394165039
 30
148.0
 11
-19.818042755126953
 21
-58.44966125488281
 31
148.0
 12
-18.89164161682129
 22
-57.97764587402344
 32
148.0
 13
-18.89164161682129
 23
-57.97764587402344
 33
148.0
  0
3DFACE
  8
0
 10
-22.02165412902832
 20
-59.10786056518555
 30
148.0
 11
-21.62443733215332
 21
-59.043678283691406
 31
148.0
 12
-21.23914909362793
 22
-58.96463394165039
 32
148.0
 13
-21.23914909362793
 23
-58.96463394165039
 33
148.0
  0
3DFACE
  8
0
 10
-23.24598503112793
 20
-58.955467224121094
 30
148.0
 11
-22.804155349731445
 21
-59.06133270263672
 31
148.0
 12
-22.401098251342773
 22
-59.078914642333984
 32
148.0
 13
-22.401098251342773
 23
-59.078914642333984
 33
148.0
  0
3DFACE
  8
0
 10
-22.401098251342773
 20
-59.078914642333984
 30
148.0
 11
-22.02165412902832
 21
-59.10786056518555
 31
148.0
 12
-21.23914909362793
 22
-58.96463394165039
 32
148.0
 13
-21.23914909362793
 23
-58.96463394165039
 33
148.0
  0
3DFACE
  8
0
 10
-21.23914909362793
 20
-58.96463394165039
 30
148.0
 11
-18.89164161682129
 21
-57.97764587402344
 31
148.0
 12
-17.943832397460938
 22
-44.57093811035156
 32
148.0
 13
-17.943832397460938
 23
-44.57093811035156
 33
148.0
  0
3DFACE
  8
0
 10
-17.943832397460938
 20
-44.57093811035156
 30
148.0
 11
-21.390302658081055
 21
-45.04773712158203
 31
148.0
 12
-22.95530891418457
 22
-45.75558853149414
 32
148.0
 13
-22.95530891418457
 23
-45.75558853149414
 33
148.0
  0
3DFACE
  8
0
 10
-22.95530891418457
 20
-45.75558853149414
 30
148.0
 11
-23.878183364868164
 21
-46.27000427246094
 31
148.0
 12
-24.369165420532227
 22
-46.5777702331543
 32
148.0
 13
-24.369165420532227
 23
-46.5777702331543
 33
148.0
  0
3DFACE
  8
0
 10
-24.47899627685547
 20
-46.68269348144531
 30
148.0
 11
-24.90509033203125
 21
-47.00326156616211
 31
148.0
 12
-25.110342025756836
 22
-47.17524337768555
 32
148.0
 13
-25.110342025756836
 23
-47.17524337768555
 33
148.0
  0
3DFACE
  8
0
 10
-22.95530891418457
 20
-45.75558853149414
 30
148.0
 11
-24.369165420532227
 21
-46.5777702331543
 31
148.0
 12
-24.47899627685547
 22
-46.68269348144531
 32
148.0
 13
-24.47899627685547
 23
-46.68269348144531
 33
148.0
  0
3DFACE
  8
0
 10
-21.23914909362793
 20
-58.96463394165039
 30
148.0
 11
-17.943832397460938
 21
-44.57093811035156
 31
148.0
 12
-22.95530891418457
 22
-45.75558853149414
 32
148.0
 13
-22.95530891418457
 23
-45.75558853149414
 33
148.0
  0
3DFACE
  8
0
 10
-23.24598503112793
 20
-58.955467224121094
 30
148.0
 11
-22.401098251342773
 21
-59.078914642333984
 31
148.0
 12
-21.23914909362793
 22
-58.96463394165039
 32
148.0
 13
-21.23914909362793
 23
-58.96463394165039
 33
148.0
  0
3DFACE
  8
0
 10
-24.369165420532227
 20
-58.65499496459961
 30
148.0
 11
-23.58665657043457
 21
-58.89585876464844
 31
148.0
 12
-23.24598503112793
 22
-58.955467224121094
 32
148.0
 13
-23.24598503112793
 23
-58.955467224121094
 33
148.0
  0
3DFACE
  8
0
 10
-25.151756286621094
 20
-58.173683166503906
 30
148.0
 11
-25.14609146118164
 21
-58.17780303955078
 31
148.0
 12
-24.369165420532227
 22
-58.65499496459961
 32
148.0
 13
-24.369165420532227
 23
-58.65499496459961
 33
148.0
  0
3DFACE
  8
0
 10
-25.934167861938477
 20
-57.61510467529297
 30
148.0
 11
-25.765296936035156
 21
-57.746238708496094
 31
148.0
 12
-25.151756286621094
 22
-58.173683166503906
 32
148.0
 13
-25.151756286621094
 23
-58.173683166503906
 33
148.0
  0
3DFACE
  8
0
 10
-26.44072151184082
 20
-56.9969596862793
 30
148.0
 11
-26.326499938964844
 21
-57.17580032348633
 31
148.0
 12
-25.934167861938477
 22
-57.61510467529297
 32
148.0
 13
-25.934167861938477
 23
-57.61510467529297
 33
148.0
  0
3DFACE
  8
0
 10
-26.83782386779785
 20
-56.3932991027832
 30
148.0
 11
-26.716672897338867
 21
-56.6099967956543
 31
148.0
 12
-26.44072151184082
 22
-56.9969596862793
 32
148.0
 13
-26.44072151184082
 23
-56.9969596862793
 33
148.0
  0
3DFACE
  8
0
 10
-27.13912010192871
 20
-55.61079025268555
 30
148.0
 11
-26.929243087768555
 21
-56.198509216308594
 31
148.0
 12
-26.83782386779785
 22
-56.3932991027832
 32
148.0
 13
-26.83782386779785
 23
-56.3932991027832
 33
148.0
  0
3DFACE
  8
0
 10
-27.36415672302246
 20
-54.82828903198242
 30
148.0
 11
-27.212251663208008
 21
-55.38827133178711
 31
148.0
 12
-27.13912010192871
 22
-55.61079025268555
 32
148.0
 13
-27.13912010192871
 23
-55.61079025268555
 33
148.0
  0
3DFACE
  8
0
 10
-27.487947463989258
 20
-54.0457878112793
 30
148.0
 11
-27.396684646606445
 21
-54.676151275634766
 31
148.0
 12
-27.36415672302246
 22
-54.82828903198242
 32
148.0
 13
-27.36415672302246
 23
-54.82828903198242
 33
148.0
  0
3DFACE
  8
0
 10
-27.5487117767334
 20
-53.26327896118164
 30
148.0
 11
-27.525726318359375
 21
-53.663963317871094
 31
148.0
 12
-27.487947463989258
 22
-54.0457878112793
 32
148.0
 13
-27.487947463989258
 23
-54.0457878112793
 33
148.0
  0
3DFACE
  8
0
 10
-27.49857521057129
 20
-52.56224060058594
 30
148.0
 11
-27.521644592285156
 21
-52.85100555419922
 31
148.0
 12
-27.540912628173828
 22
-53.2003173828125
 32
148.0
 13
-27.540912628173828
 23
-53.2003173828125
 33
148.0
  0
3DFACE
  8
0
 10
-27.540912628173828
 20
-53.2003173828125
 30
148.0
 11
-27.5487117767334
 21
-53.26327896118164
 31
148.0
 12
-27.487947463989258
 22
-54.0457878112793
 32
148.0
 13
-27.487947463989258
 23
-54.0457878112793
 33
148.0
  0
3DFACE
  8
0
 10
-27.487947463989258
 20
-54.0457878112793
 30
148.0
 11
-27.36415672302246
 21
-54.82828903198242
 31
148.0
 12
-27.13912010192871
 22
-55.61079025268555
 32
148.0
 13
-27.13912010192871
 23
-55.61079025268555
 33
148.0
  0
3DFACE
  8
0
 10
-27.13912010192871
 20
-55.61079025268555
 30
148.0
 11
-26.83782386779785
 21
-56.3932991027832
 31
148.0
 12
-26.44072151184082
 22
-56.9969596862793
 32
148.0
 13
-26.44072151184082
 23
-56.9969596862793
 33
148.0
  0
3DFACE
  8
0
 10
-26.44072151184082
 20
-56.9969596862793
 30
148.0
 11
-25.934167861938477
 21
-57.61510467529297
 31
148.0
 12
-25.151756286621094
 22
-58.173683166503906
 32
148.0
 13
-25.151756286621094
 23
-58.173683166503906
 33
148.0
  0
3DFACE
  8
0
 10
-25.151756286621094
 20
-58.173683166503906
 30
148.0
 11
-24.369165420532227
 21
-58.65499496459961
 31
148.0
 12
-23.24598503112793
 22
-58.955467224121094
 32
148.0
 13
-23.24598503112793
 23
-58.955467224121094
 33
148.0
  0
3DFACE
  8
0
 10
-23.24598503112793
 20
-58.955467224121094
 30
148.0
 11
-21.23914909362793
 21
-58.96463394165039
 31
148.0
 12
-22.95530891418457
 22
-45.75558853149414
 32
148.0
 13
-22.95530891418457
 23
-45.75558853149414
 33
148.0
  0
3DFACE
  8
0
 10
-22.95530891418457
 20
-45.75558853149414
 30
148.0
 11
-24.47899627685547
 21
-46.68269348144531
 31
148.0
 12
-25.110342025756836
 22
-47.17524337768555
 32
148.0
 13
-25.110342025756836
 23
-47.17524337768555
 33
148.0
  0
3DFACE
  8
0
 10
-25.110342025756836
 20
-47.17524337768555
 30
148.0
 11
-25.151662826538086
 21
-47.22011947631836
 31
148.0
 12
-25.239151000976562
 22
-47.32639694213867
 32
148.0
 13
-25.239151000976562
 23
-47.32639694213867
 33
148.0
  0
3DFACE
  8
0
 10
-25.239151000976562
 20
-47.32639694213867
 30
148.0
 11
-25.712392807006836
 21
-47.785762786865234
 31
148.0
 12
-26.229446411132812
 22
-48.56826400756836
 32
148.0
 13
-26.229446411132812
 23
-48.56826400756836
 33
148.0
  0
3DFACE
  8
0
 10
-26.296676635742188
 20
-48.719417572021484
 30
148.0
 11
-26.66361427307129
 21
-49.35486602783203
 31
148.0
 12
-26.714773178100586
 22
-49.499961853027344
 32
148.0
 13
-26.714773178100586
 23
-49.499961853027344
 33
148.0
  0
3DFACE
  8
0
 10
-25.239151000976562
 20
-47.32639694213867
 30
148.0
 11
-26.229446411132812
 21
-48.56826400756836
 31
148.0
 12
-26.296676635742188
 22
-48.719417572021484
 32
148.0
 13
-26.296676635742188
 23
-48.719417572021484
 33
148.0
  0
3DFACE
  8
0
 10
-22.95530891418457
 20
-45.75558853149414
 30
148.0
 11
-25.110342025756836
 21
-47.17524337768555
 31
148.0
 12
-25.239151000976562
 22
-47.32639694213867
 32
148.0
 13
-25.239151000976562
 23
-47.32639694213867
 33
148.0
  0
3DFACE
  8
0
 10
-25.151756286621094
 20
-58.173683166503906
 30
148.0
 11
-23.24598503112793
 21
-58.955467224121094
 31
148.0
 12
-22.95530891418457
 22
-45.75558853149414
 32
148.0
 13
-22.95530891418457
 23
-45.75558853149414
 33
148.0
  0
3DFACE
  8
0
 10
-27.13912010192871
 20
-55.61079025268555
 30
148.0
 11
-26.44072151184082
 21
-56.9969596862793
 31
148.0
 12
-25.151756286621094
 22
-58.173683166503906
 32
148.0
 13
-25.151756286621094
 23
-58.173683166503906
 33
148.0
  0
3DFACE
  8
0
 10
-27.540912628173828
 20
-53.2003173828125
 30
148.0
 11
-27.487947463989258
 21
-54.0457878112793
 31
148.0
 12
-27.13912010192871
 22
-55.61079025268555
 32
148.0
 13
-27.13912010192871
 23
-55.61079025268555
 33
148.0
  0
3DFACE
  8
0
 10
-27.415475845336914
 20
-51.85997009277344
 30
148.0
 11
-27.49778938293457
 21
-52.480777740478516
 31
148.0
 12
-27.49857521057129
 22
-52.56224060058594
 32
148.0
 13
-27.49857521057129
 23
-52.56224060058594
 33
148.0
  0
3DFACE
  8
0
 10
-27.49857521057129
 20
-52.56224060058594
 30
148.0
 11
-27.540912628173828
 21
-53.2003173828125
 31
148.0
 12
-27.13912010192871
 22
-55.61079025268555
 32
148.0
 13
-27.13912010192871
 23
-55.61079025268555
 33
148.0
  0
3DFACE
  8
0
 10
-27.13912010192871
 20
-55.61079025268555
 30
148.0
 11
-25.151756286621094
 21
-58.173683166503906
 31
148.0
 12
-22.95530891418457
 22
-45.75558853149414
 32
148.0
 13
-22.95530891418457
 23
-45.75558853149414
 33
148.0
  0
3DFACE
  8
0
 10
-22.95530891418457
 20
-45.75558853149414
 30
148.0
 11
-25.239151000976562
 21
-47.32639694213867
 31
148.0
 12
-26.296676635742188
 22
-48.719417572021484
 32
148.0
 13
-26.296676635742188
 23
-48.719417572021484
 33
148.0
  0
3DFACE
  8
0
 10
-26.296676635742188
 20
-48.719417572021484
 30
148.0
 11
-26.714773178100586
 21
-49.499961853027344
 31
148.0
 12
-26.971446990966797
 22
-50.12861251831055
 32
148.0
 13
-26.971446990966797
 23
-50.12861251831055
 33
148.0
  0
3DFACE
  8
0
 10
-27.01025390625
 20
-50.284420013427734
 30
148.0
 11
-27.209552764892578
 21
-50.915775299072266
 31
148.0
 12
-27.234840393066406
 22
-51.06692886352539
 32
148.0
 13
-27.234840393066406
 23
-51.06692886352539
 33
148.0
  0
3DFACE
  8
0
 10
-26.296676635742188
 20
-48.719417572021484
 30
148.0
 11
-26.971446990966797
 21
-50.12861251831055
 31
148.0
 12
-27.01025390625
 22
-50.284420013427734
 32
148.0
 13
-27.01025390625
 23
-50.284420013427734
 33
148.0
  0
3DFACE
  8
0
 10
-27.13912010192871
 20
-55.61079025268555
 30
148.0
 11
-22.95530891418457
 21
-45.75558853149414
 31
148.0
 12
-26.296676635742188
 22
-48.719417572021484
 32
148.0
 13
-26.296676635742188
 23
-48.719417572021484
 33
148.0
  0
3DFACE
  8
0
 10
-27.415475845336914
 20
-51.85997009277344
 30
148.0
 11
-27.49857521057129
 21
-52.56224060058594
 31
148.0
 12
-27.13912010192871
 22
-55.61079025268555
 32
148.0
 13
-27.13912010192871
 23
-55.61079025268555
 33
148.0
  0
3DFACE
  8
0
 10
-27.234840393066406
 20
-51.06692886352539
 30
148.0
 11
-27.405616760253906
 21
-51.69828414916992
 31
148.0
 12
-27.415475845336914
 22
-51.85997009277344
 32
148.0
 13
-27.415475845336914
 23
-51.85997009277344
 33
148.0
  0
3DFACE
  8
0
 10
-26.296676635742188
 20
-48.719417572021484
 30
148.0
 11
-27.01025390625
 21
-50.284420013427734
 31
148.0
 12
-27.234840393066406
 22
-51.06692886352539
 32
148.0
 13
-27.234840393066406
 23
-51.06692886352539
 33
148.0
  0
3DFACE
  8
0
 10
-27.415475845336914
 20
-51.85997009277344
 30
148.0
 11
-27.13912010192871
 21
-55.61079025268555
 31
148.0
 12
-26.296676635742188
 22
-48.719417572021484
 32
148.0
 13
-26.296676635742188
 23
-48.719417572021484
 33
148.0
  0
3DFACE
  8
0
 10
-26.296676635742188
 20
-48.719417572021484
 30
148.0
 11
-27.234840393066406
 21
-51.06692886352539
 31
148.0
 12
-27.415475845336914
 22
-51.85997009277344
 32
148.0
 13
-27.415475845336914
 23
-51.85997009277344
 33
148.0
  0
3DFACE
  8
0
 10
35.572914123535156
 20
-44.58742904663086
 30
148.0
 11
35.06270217895508
 21
-43.73529815673828
 31
148.0
 12
35.058406829833984
 22
-43.72936248779297
 32
148.0
 13
35.058406829833984
 23
-43.72936248779297
 33
148.0
  0
3DFACE
  8
0
 10
35.050811767578125
 20
-43.71928787231445
 30
148.0
 11
34.455780029296875
 21
-42.8869743347168
 31
148.0
 12
34.11130905151367
 22
-42.45000457763672
 32
148.0
 13
34.11130905151367
 23
-42.45000457763672
 33
148.0
  0
3DFACE
  8
0
 10
35.572914123535156
 20
-44.58742904663086
 30
148.0
 11
35.058406829833984
 21
-43.72936248779297
 31
148.0
 12
35.050811767578125
 22
-43.71928787231445
 32
148.0
 13
35.050811767578125
 23
-43.71928787231445
 33
148.0
  0
3DFACE
  8
0
 10
35.98199462890625
 20
-45.78084945678711
 30
148.0
 11
35.900943756103516
 21
-45.49403762817383
 31
148.0
 12
35.572914123535156
 22
-44.58742904663086
 32
148.0
 13
35.572914123535156
 23
-44.58742904663086
 33
148.0
  0
3DFACE
  8
0
 10
36.094825744628906
 20
-46.31632614135742
 30
148.0
 11
36.08528137207031
 21
-46.265594482421875
 31
148.0
 12
35.98199462890625
 22
-45.78084945678711
 32
148.0
 13
35.98199462890625
 23
-45.78084945678711
 33
148.0
  0
3DFACE
  8
0
 10
36.183162689208984
 20
-47.17357635498047
 30
148.0
 11
36.09955978393555
 21
-46.3471794128418
 31
148.0
 12
36.094825744628906
 22
-46.31632614135742
 32
148.0
 13
36.094825744628906
 23
-46.31632614135742
 33
148.0
  0
3DFACE
  8
0
 10
36.121334075927734
 20
-48.29511642456055
 30
148.0
 11
36.188133239746094
 21
-47.40839385986328
 31
148.0
 12
36.183162689208984
 22
-47.17357635498047
 32
148.0
 13
36.183162689208984
 23
-47.17357635498047
 33
148.0
  0
3DFACE
  8
0
 10
35.86458206176758
 20
-49.5203857421875
 30
148.0
 11
36.04558181762695
 21
-48.75551223754883
 31
148.0
 12
36.121334075927734
 22
-48.29511642456055
 32
148.0
 13
36.121334075927734
 23
-48.29511642456055
 33
148.0
  0
3DFACE
  8
0
 10
35.2578239440918
 20
-50.9044075012207
 30
148.0
 11
35.588218688964844
 21
-50.26310348510742
 31
148.0
 12
35.82155227661133
 22
-49.62302017211914
 32
148.0
 13
35.82155227661133
 23
-49.62302017211914
 33
148.0
  0
3DFACE
  8
0
 10
35.82155227661133
 20
-49.62302017211914
 30
148.0
 11
35.86458206176758
 21
-49.5203857421875
 31
148.0
 12
36.121334075927734
 22
-48.29511642456055
 32
148.0
 13
36.121334075927734
 23
-48.29511642456055
 33
148.0
  0
3DFACE
  8
0
 10
36.121334075927734
 20
-48.29511642456055
 30
148.0
 11
36.183162689208984
 21
-47.17357635498047
 31
148.0
 12
36.094825744628906
 22
-46.31632614135742
 32
148.0
 13
36.094825744628906
 23
-46.31632614135742
 33
148.0
  0
3DFACE
  8
0
 10
36.094825744628906
 20
-46.31632614135742
 30
148.0
 11
35.98199462890625
 21
-45.78084945678711
 31
148.0
 12
35.572914123535156
 22
-44.58742904663086
 32
148.0
 13
35.572914123535156
 23
-44.58742904663086
 33
148.0
  0
3DFACE
  8
0
 10
35.572914123535156
 20
-44.58742904663086
 30
148.0
 11
35.050811767578125
 21
-43.71928787231445
 31
148.0
 12
34.11130905151367
 22
-42.45000457763672
 32
148.0
 13
34.11130905151367
 23
-42.45000457763672
 33
148.0
  0
3DFACE
  8
0
 10
34.11130905151367
 20
-42.45000457763672
 30
148.0
 11
33.57396697998047
 21
-41.88943862915039
 31
148.0
 12
33.411224365234375
 22
-41.75379943847656
 32
148.0
 13
33.411224365234375
 23
-41.75379943847656
 33
148.0
  0
3DFACE
  8
0
 10
33.411224365234375
 20
-41.75379943847656
 30
148.0
 11
32.90411376953125
 21
-41.354957580566406
 31
148.0
 12
32.422080993652344
 22
-41.04778289794922
 32
148.0
 13
32.422080993652344
 23
-41.04778289794922
 33
148.0
  0
3DFACE
  8
0
 10
32.422080993652344
 20
-41.04778289794922
 30
148.0
 11
31.887590408325195
 21
-40.827537536621094
 31
148.0
 12
31.796476364135742
 22
-40.7946891784668
 32
148.0
 13
31.796476364135742
 23
-40.7946891784668
 33
148.0
  0
3DFACE
  8
0
 10
31.796476364135742
 20
-40.7946891784668
 30
148.0
 11
31.661556243896484
 21
-40.768550872802734
 31
148.0
 12
31.118549346923828
 22
-40.697845458984375
 32
148.0
 13
31.118549346923828
 23
-40.697845458984375
 33
148.0
  0
3DFACE
  8
0
 10
31.118549346923828
 20
-40.697845458984375
 30
148.0
 11
30.42032814025879
 21
-40.676082611083984
 31
148.0
 12
30.04941749572754
 22
-40.708831787109375
 32
148.0
 13
30.04941749572754
 23
-40.708831787109375
 33
148.0
  0
3DFACE
  8
0
 10
29.549701690673828
 20
-40.798770904541016
 30
148.0
 11
29.211048126220703
 21
-40.829097747802734
 31
148.0
 12
28.965051651000977
 22
-40.88530731201172
 32
148.0
 13
28.965051651000977
 23
-40.88530731201172
 33
148.0
  0
3DFACE
  8
0
 10
31.118549346923828
 20
-40.697845458984375
 30
148.0
 11
30.04941749572754
 21
-40.708831787109375
 31
148.0
 12
29.549701690673828
 22
-40.798770904541016
 32
148.0
 13
29.549701690673828
 23
-40.798770904541016
 33
148.0
  0
3DFACE
  8
0
 10
32.422080993652344
 20
-41.04778289794922
 30
148.0
 11
31.796476364135742
 21
-40.7946891784668
 31
148.0
 12
31.118549346923828
 22
-40.697845458984375
 32
148.0
 13
31.118549346923828
 23
-40.697845458984375
 33
148.0
  0
3DFACE
  8
0
 10
34.11130905151367
 20
-42.45000457763672
 30
148.0
 11
33.411224365234375
 21
-41.75379943847656
 31
148.0
 12
32.422080993652344
 22
-41.04778289794922
 32
148.0
 13
32.422080993652344
 23
-41.04778289794922
 33
148.0
  0
3DFACE
  8
0
 10
36.094825744628906
 20
-46.31632614135742
 30
148.0
 11
35.572914123535156
 21
-44.58742904663086
 31
148.0
 12
34.11130905151367
 22
-42.45000457763672
 32
148.0
 13
34.11130905151367
 23
-42.45000457763672
 33
148.0
  0
3DFACE
  8
0
 10
35.82155227661133
 20
-49.62302017211914
 30
148.0
 11
36.121334075927734
 21
-48.29511642456055
 31
148.0
 12
36.094825744628906
 22
-46.31632614135742
 32
148.0
 13
36.094825744628906
 23
-46.31632614135742
 33
148.0
  0
3DFACE
  8
0
 10
35.21820831298828
 20
-50.984046936035156
 30
148.0
 11
35.2578239440918
 21
-50.9044075012207
 31
148.0
 12
35.82155227661133
 22
-49.62302017211914
 32
148.0
 13
35.82155227661133
 23
-49.62302017211914
 33
148.0
  0
3DFACE
  8
0
 10
34.706390380859375
 20
-51.6720085144043
 30
148.0
 11
35.11482620239258
 21
-51.13384246826172
 31
148.0
 12
35.21820831298828
 22
-50.984046936035156
 32
148.0
 13
35.21820831298828
 23
-50.984046936035156
 33
148.0
  0
3DFACE
  8
0
 10
33.889347076416016
 20
-52.33892059326172
 30
148.0
 11
34.07500457763672
 21
-52.209808349609375
 31
148.0
 12
34.706390380859375
 22
-51.6720085144043
 32
148.0
 13
34.706390380859375
 23
-51.6720085144043
 33
148.0
  0
3DFACE
  8
0
 10
32.92053985595703
 20
-52.82815170288086
 30
148.0
 11
33.10114288330078
 21
-52.75199890136719
 31
148.0
 12
33.889347076416016
 22
-52.33892059326172
 32
148.0
 13
33.889347076416016
 23
-52.33892059326172
 33
148.0
  0
3DFACE
  8
0
 10
31.819889068603516
 20
-53.0592041015625
 30
148.0
 11
32.27561950683594
 21
-53.020416259765625
 31
148.0
 12
32.92053985595703
 22
-52.82815170288086
 32
148.0
 13
32.92053985595703
 23
-52.82815170288086
 33
148.0
  0
3DFACE
  8
0
 10
30.956443786621094
 20
-53.0604248046875
 30
148.0
 11
31.444717407226562
 21
-53.105926513671875
 31
148.0
 12
31.819889068603516
 22
-53.0592041015625
 32
148.0
 13
31.819889068603516
 23
-53.0592041015625
 33
148.0
  0
3DFACE
  8
0
 10
30.05571937561035
 20
-52.91678237915039
 30
148.0
 11
30.64522933959961
 21
-53.04551315307617
 31
148.0
 12
30.956443786621094
 22
-53.0604248046875
 32
148.0
 13
30.956443786621094
 23
-53.0604248046875
 33
148.0
  0
3DFACE
  8
0
 10
29.41594696044922
 20
-52.68971633911133
 30
148.0
 11
29.867311477661133
 21
-52.884765625
 31
148.0
 12
30.05571937561035
 22
-52.91678237915039
 32
148.0
 13
30.05571937561035
 23
-52.91678237915039
 33
148.0
  0
3DFACE
  8
0
 10
28.4591007232666
 20
-52.248252868652344
 30
148.0
 11
29.144411087036133
 21
-52.60684585571289
 31
148.0
 12
29.41594696044922
 22
-52.68971633911133
 32
148.0
 13
29.41594696044922
 23
-52.68971633911133
 33
148.0
  0
3DFACE
  8
0
 10
28.136201858520508
 20
-52.02128601074219
 30
148.0
 11
28.38605499267578
 21
-52.2166748046875
 31
148.0
 12
28.4591007232666
 22
-52.248252868652344
 32
148.0
 13
28.4591007232666
 23
-52.248252868652344
 33
148.0
  0
3DFACE
  8
0
 10
27.692140579223633
 20
-51.63026809692383
 30
148.0
 11
27.72760009765625
 21
-51.67195510864258
 31
148.0
 12
28.136201858520508
 22
-52.02128601074219
 32
148.0
 13
28.136201858520508
 23
-52.02128601074219
 33
148.0
  0
3DFACE
  8
0
 10
26.979291915893555
 20
-50.744651794433594
 30
148.0
 11
27.05177116394043
 21
-50.865455627441406
 31
148.0
 12
27.61136817932129
 22
-51.51124954223633
 32
148.0
 13
27.61136817932129
 23
-51.51124954223633
 33
148.0
  0
3DFACE
  8
0
 10
27.61136817932129
 20
-51.51124954223633
 30
148.0
 11
27.692140579223633
 21
-51.63026809692383
 31
148.0
 12
28.136201858520508
 22
-52.02128601074219
 32
148.0
 13
28.136201858520508
 23
-52.02128601074219
 33
148.0
  0
3DFACE
  8
0
 10
28.136201858520508
 20
-52.02128601074219
 30
148.0
 11
28.4591007232666
 21
-52.248252868652344
 31
148.0
 12
29.41594696044922
 22
-52.68971633911133
 32
148.0
 13
29.41594696044922
 23
-52.68971633911133
 33
148.0
  0
3DFACE
  8
0
 10
29.41594696044922
 20
-52.68971633911133
 30
148.0
 11
30.05571937561035
 21
-52.91678237915039
 31
148.0
 12
30.956443786621094
 22
-53.0604248046875
 32
148.0
 13
30.956443786621094
 23
-53.0604248046875
 33
148.0
  0
3DFACE
  8
0
 10
30.956443786621094
 20
-53.0604248046875
 30
148.0
 11
31.819889068603516
 21
-53.0592041015625
 31
148.0
 12
32.92053985595703
 22
-52.82815170288086
 32
148.0
 13
32.92053985595703
 23
-52.82815170288086
 33
148.0
  0
3DFACE
  8
0
 10
32.92053985595703
 20
-52.82815170288086
 30
148.0
 11
33.889347076416016
 21
-52.33892059326172
 31
148.0
 12
34.706390380859375
 22
-51.6720085144043
 32
148.0
 13
34.706390380859375
 23
-51.6720085144043
 33
148.0
  0
3DFACE
  8
0
 10
34.706390380859375
 20
-51.6720085144043
 30
148.0
 11
35.21820831298828
 21
-50.984046936035156
 31
148.0
 12
35.82155227661133
 22
-49.62302017211914
 32
148.0
 13
35.82155227661133
 23
-49.62302017211914
 33
148.0
  0
3DFACE
  8
0
 10
35.82155227661133
 20
-49.62302017211914
 30
148.0
 11
36.094825744628906
 21
-46.31632614135742
 31
148.0
 12
34.11130905151367
 22
-42.45000457763672
 32
148.0
 13
34.11130905151367
 23
-42.45000457763672
 33
148.0
  0
3DFACE
  8
0
 10
34.11130905151367
 20
-42.45000457763672
 30
148.0
 11
32.422080993652344
 21
-41.04778289794922
 31
148.0
 12
31.118549346923828
 22
-40.697845458984375
 32
148.0
 13
31.118549346923828
 23
-40.697845458984375
 33
148.0
  0
3DFACE
  8
0
 10
31.118549346923828
 20
-40.697845458984375
 30
148.0
 11
29.549701690673828
 21
-40.798770904541016
 31
148.0
 12
28.965051651000977
 22
-40.88530731201172
 32
148.0
 13
28.965051651000977
 23
-40.88530731201172
 33
148.0
  0
3DFACE
  8
0
 10
28.965051651000977
 20
-40.88530731201172
 30
148.0
 11
28.348018646240234
 21
-41.063968658447266
 31
148.0
 12
28.115013122558594
 22
-41.1506462097168
 32
148.0
 13
28.115013122558594
 23
-41.1506462097168
 33
148.0
  0
3DFACE
  8
0
 10
28.036277770996094
 20
-41.196014404296875
 30
148.0
 11
27.533140182495117
 21
-41.47422409057617
 31
148.0
 12
27.252025604248047
 22
-41.68046188354492
 32
148.0
 13
27.252025604248047
 23
-41.68046188354492
 33
148.0
  0
3DFACE
  8
0
 10
28.965051651000977
 20
-40.88530731201172
 30
148.0
 11
28.115013122558594
 21
-41.1506462097168
 31
148.0
 12
28.036277770996094
 22
-41.196014404296875
 32
148.0
 13
28.036277770996094
 23
-41.196014404296875
 33
148.0
  0
3DFACE
  8
0
 10
34.11130905151367
 20
-42.45000457763672
 30
148.0
 11
31.118549346923828
 21
-40.697845458984375
 31
148.0
 12
28.965051651000977
 22
-40.88530731201172
 32
148.0
 13
28.965051651000977
 23
-40.88530731201172
 33
148.0
  0
3DFACE
  8
0
 10
34.706390380859375
 20
-51.6720085144043
 30
148.0
 11
35.82155227661133
 21
-49.62302017211914
 31
148.0
 12
34.11130905151367
 22
-42.45000457763672
 32
148.0
 13
34.11130905151367
 23
-42.45000457763672
 33
148.0
  0
3DFACE
  8
0
 10
30.956443786621094
 20
-53.0604248046875
 30
148.0
 11
32.92053985595703
 21
-52.82815170288086
 31
148.0
 12
34.706390380859375
 22
-51.6720085144043
 32
148.0
 13
34.706390380859375
 23
-51.6720085144043
 33
148.0
  0
3DFACE
  8
0
 10
28.136201858520508
 20
-52.02128601074219
 30
148.0
 11
29.41594696044922
 21
-52.68971633911133
 31
148.0
 12
30.956443786621094
 22
-53.0604248046875
 32
148.0
 13
30.956443786621094
 23
-53.0604248046875
 33
148.0
  0
3DFACE
  8
0
 10
26.979291915893555
 20
-50.744651794433594
 30
148.0
 11
27.61136817932129
 21
-51.51124954223633
 31
148.0
 12
28.136201858520508
 22
-52.02128601074219
 32
148.0
 13
28.136201858520508
 23
-52.02128601074219
 33
148.0
  0
3DFACE
  8
0
 10
26.034997940063477
 20
-48.92816925048828
 30
148.0
 11
26.67706871032715
 21
-50.277915954589844
 31
148.0
 12
26.979291915893555
 22
-50.744651794433594
 32
148.0
 13
26.979291915893555
 23
-50.744651794433594
 33
148.0
  0
3DFACE
  8
0
 10
25.890098571777344
 20
-48.530086517333984
 30
148.0
 11
25.988506317138672
 21
-48.835086822509766
 31
148.0
 12
26.034997940063477
 22
-48.92816925048828
 32
148.0
 13
26.034997940063477
 23
-48.92816925048828
 33
148.0
  0
3DFACE
  8
0
 10
25.702800750732422
 20
-47.84502029418945
 30
148.0
 11
25.721263885498047
 21
-47.969207763671875
 31
148.0
 12
25.890098571777344
 22
-48.530086517333984
 32
148.0
 13
25.890098571777344
 23
-48.530086517333984
 33
148.0
  0
3DFACE
  8
0
 10
25.51154136657715
 20
-46.813323974609375
 30
148.0
 11
25.524608612060547
 21
-47.10197067260742
 31
148.0
 12
25.702800750732422
 22
-47.84502029418945
 32
148.0
 13
25.702800750732422
 23
-47.84502029418945
 33
148.0
  0
3DFACE
  8
0
 10
25.475675582885742
 20
-45.88168716430664
 30
148.0
 11
25.462112426757812
 21
-46.295040130615234
 31
148.0
 12
25.51154136657715
 22
-46.813323974609375
 32
148.0
 13
25.51154136657715
 23
-46.813323974609375
 33
148.0
  0
3DFACE
  8
0
 10
25.564966201782227
 20
-44.989959716796875
 30
148.0
 11
25.468442916870117
 21
-45.48954772949219
 31
148.0
 12
25.475675582885742
 22
-45.88168716430664
 32
148.0
 13
25.475675582885742
 23
-45.88168716430664
 33
148.0
  0
3DFACE
  8
0
 10
25.777034759521484
 20
-44.11603546142578
 30
148.0
 11
25.60391616821289
 21
-44.71408462524414
 31
148.0
 12
25.564966201782227
 22
-44.989959716796875
 32
148.0
 13
25.564966201782227
 23
-44.989959716796875
 33
148.0
  0
3DFACE
  8
0
 10
26.037446975708008
 20
-43.36729049682617
 30
148.0
 11
25.81216812133789
 21
-43.955535888671875
 31
148.0
 12
25.777034759521484
 22
-44.11603546142578
 32
148.0
 13
25.777034759521484
 23
-44.11603546142578
 33
148.0
  0
3DFACE
  8
0
 10
26.161588668823242
 20
-43.063255310058594
 30
148.0
 11
26.08498191833496
 21
-43.212005615234375
 31
148.0
 12
26.037446975708008
 22
-43.36729049682617
 32
148.0
 13
26.037446975708008
 23
-43.36729049682617
 33
148.0
  0
3DFACE
  8
0
 10
26.512231826782227
 20
-42.504364013671875
 30
148.0
 11
26.506877899169922
 21
-42.5121955871582
 31
148.0
 12
26.50502586364746
 22
-42.51530456542969
 32
148.0
 13
26.50502586364746
 23
-42.51530456542969
 33
148.0
  0
3DFACE
  8
0
 10
26.50502586364746
 20
-42.51530456542969
 30
148.0
 11
26.161588668823242
 21
-43.063255310058594
 31
148.0
 12
26.037446975708008
 22
-43.36729049682617
 32
148.0
 13
26.037446975708008
 23
-43.36729049682617
 33
148.0
  0
3DFACE
  8
0
 10
26.037446975708008
 20
-43.36729049682617
 30
148.0
 11
25.777034759521484
 21
-44.11603546142578
 31
148.0
 12
25.564966201782227
 22
-44.989959716796875
 32
148.0
 13
25.564966201782227
 23
-44.989959716796875
 33
148.0
  0
3DFACE
  8
0
 10
25.564966201782227
 20
-44.989959716796875
 30
148.0
 11
25.475675582885742
 21
-45.88168716430664
 31
148.0
 12
25.51154136657715
 22
-46.813323974609375
 32
148.0
 13
25.51154136657715
 23
-46.813323974609375
 33
148.0
  0
3DFACE
  8
0
 10
25.51154136657715
 20
-46.813323974609375
 30
148.0
 11
25.702800750732422
 21
-47.84502029418945
 31
148.0
 12
25.890098571777344
 22
-48.530086517333984
 32
148.0
 13
25.890098571777344
 23
-48.530086517333984
 33
148.0
  0
3DFACE
  8
0
 10
25.890098571777344
 20
-48.530086517333984
 30
148.0
 11
26.034997940063477
 21
-48.92816925048828
 31
148.0
 12
26.979291915893555
 22
-50.744651794433594
 32
148.0
 13
26.979291915893555
 23
-50.744651794433594
 33
148.0
  0
3DFACE
  8
0
 10
26.979291915893555
 20
-50.744651794433594
 30
148.0
 11
28.136201858520508
 21
-52.02128601074219
 31
148.0
 12
30.956443786621094
 22
-53.0604248046875
 32
148.0
 13
30.956443786621094
 23
-53.0604248046875
 33
148.0
  0
3DFACE
  8
0
 10
30.956443786621094
 20
-53.0604248046875
 30
148.0
 11
34.706390380859375
 21
-51.6720085144043
 31
148.0
 12
34.11130905151367
 22
-42.45000457763672
 32
148.0
 13
34.11130905151367
 23
-42.45000457763672
 33
148.0
  0
3DFACE
  8
0
 10
34.11130905151367
 20
-42.45000457763672
 30
148.0
 11
28.965051651000977
 21
-40.88530731201172
 31
148.0
 12
28.036277770996094
 22
-41.196014404296875
 32
148.0
 13
28.036277770996094
 23
-41.196014404296875
 33
148.0
  0
3DFACE
  8
0
 10
28.036277770996094
 20
-41.196014404296875
 30
148.0
 11
27.252025604248047
 21
-41.68046188354492
 31
148.0
 12
27.11113166809082
 22
-41.78997802734375
 32
148.0
 13
27.11113166809082
 23
-41.78997802734375
 33
148.0
  0
3DFACE
  8
0
 10
27.11113166809082
 20
-41.78997802734375
 30
148.0
 11
27.073335647583008
 21
-41.82785415649414
 31
148.0
 12
26.54979705810547
 22
-42.46074676513672
 32
148.0
 13
26.54979705810547
 23
-42.46074676513672
 33
148.0
  0
3DFACE
  8
0
 10
26.54979705810547
 20
-42.46074676513672
 30
148.0
 11
26.512231826782227
 21
-42.504364013671875
 31
148.0
 12
26.50502586364746
 22
-42.51530456542969
 32
148.0
 13
26.50502586364746
 23
-42.51530456542969
 33
148.0
  0
3DFACE
  8
0
 10
26.50502586364746
 20
-42.51530456542969
 30
148.0
 11
26.037446975708008
 21
-43.36729049682617
 31
148.0
 12
25.564966201782227
 22
-44.989959716796875
 32
148.0
 13
25.564966201782227
 23
-44.989959716796875
 33
148.0
  0
3DFACE
  8
0
 10
25.564966201782227
 20
-44.989959716796875
 30
148.0
 11
25.51154136657715
 21
-46.813323974609375
 31
148.0
 12
25.890098571777344
 22
-48.530086517333984
 32
148.0
 13
25.890098571777344
 23
-48.530086517333984
 33
148.0
  0
3DFACE
  8
0
 10
25.890098571777344
 20
-48.530086517333984
 30
148.0
 11
26.979291915893555
 21
-50.744651794433594
 31
148.0
 12
30.956443786621094
 22
-53.0604248046875
 32
148.0
 13
30.956443786621094
 23
-53.0604248046875
 33
148.0
  0
3DFACE
  8
0
 10
30.956443786621094
 20
-53.0604248046875
 30
148.0
 11
34.11130905151367
 21
-42.45000457763672
 31
148.0
 12
28.036277770996094
 22
-41.196014404296875
 32
148.0
 13
28.036277770996094
 23
-41.196014404296875
 33
148.0
  0
3DFACE
  8
0
 10
28.036277770996094
 20
-41.196014404296875
 30
148.0
 11
27.11113166809082
 21
-41.78997802734375
 31
148.0
 12
26.54979705810547
 22
-42.46074676513672
 32
148.0
 13
26.54979705810547
 23
-42.46074676513672
 33
148.0
  0
3DFACE
  8
0
 10
26.54979705810547
 20
-42.46074676513672
 30
148.0
 11
26.50502586364746
 21
-42.51530456542969
 31
148.0
 12
25.564966201782227
 22
-44.989959716796875
 32
148.0
 13
25.564966201782227
 23
-44.989959716796875
 33
148.0
  0
3DFACE
  8
0
 10
25.564966201782227
 20
-44.989959716796875
 30
148.0
 11
25.890098571777344
 21
-48.530086517333984
 31
148.0
 12
30.956443786621094
 22
-53.0604248046875
 32
148.0
 13
30.956443786621094
 23
-53.0604248046875
 33
148.0
  0
3DFACE
  8
0
 10
30.956443786621094
 20
-53.0604248046875
 30
148.0
 11
28.036277770996094
 21
-41.196014404296875
 31
148.0
 12
26.54979705810547
 22
-42.46074676513672
 32
148.0
 13
26.54979705810547
 23
-42.46074676513672
 33
148.0
  0
3DFACE
  8
0
 10
26.54979705810547
 20
-42.46074676513672
 30
148.0
 11
25.564966201782227
 21
-44.989959716796875
 31
148.0
 12
30.956443786621094
 22
-53.0604248046875
 32
148.0
 13
30.956443786621094
 23
-53.0604248046875
 33
148.0
  0
3DFACE
  8
0
 10
69.78736114501953
 20
-2.45102596282959
 30
148.0
 11
69.76343536376953
 21
-2.443589210510254
 31
148.0
 12
69.75121307373047
 22
-2.4407331943511963
 32
148.0
 13
69.75121307373047
 23
-2.4407331943511963
 33
148.0
  0
3DFACE
  8
0
 10
69.75121307373047
 20
-2.4407331943511963
 30
148.0
 11
69.12458801269531
 21
-2.2816996574401855
 31
148.0
 12
69.04236602783203
 22
-2.2680182456970215
 32
148.0
 13
69.04236602783203
 23
-2.2680182456970215
 33
148.0
  0
3DFACE
  8
0
 10
69.04236602783203
 20
-2.2680182456970215
 30
148.0
 11
68.94469451904297
 21
-2.246722459793091
 31
148.0
 12
68.47877502441406
 22
-2.1608781814575195
 32
148.0
 13
68.47877502441406
 23
-2.1608781814575195
 33
148.0
  0
3DFACE
  8
0
 10
67.94944763183594
 20
-2.1094181537628174
 30
148.0
 11
67.77918243408203
 21
-2.0885138511657715
 31
148.0
 12
67.27098083496094
 22
-2.083545684814453
 32
148.0
 13
67.27098083496094
 23
-2.083545684814453
 33
148.0
  0
3DFACE
  8
0
 10
69.04236602783203
 20
-2.2680182456970215
 30
148.0
 11
68.47877502441406
 21
-2.1608781814575195
 31
148.0
 12
67.94944763183594
 22
-2.1094181537628174
 32
148.0
 13
67.94944763183594
 23
-2.1094181537628174
 33
148.0
  0
3DFACE
  8
0
 10
69.78736114501953
 20
-2.45102596282959
 30
148.0
 11
69.75121307373047
 21
-2.4407331943511963
 31
148.0
 12
69.04236602783203
 22
-2.2680182456970215
 32
148.0
 13
69.04236602783203
 23
-2.2680182456970215
 33
148.0
  0
3DFACE
  8
0
 10
70.3519058227539
 20
-2.618157148361206
 30
148.0
 11
69.90699005126953
 21
-2.484851360321045
 31
148.0
 12
69.78736114501953
 22
-2.45102596282959
 32
148.0
 13
69.78736114501953
 23
-2.45102596282959
 33
148.0
  0
3DFACE
  8
0
 10
70.52188110351562
 20
-2.6845412254333496
 30
148.0
 11
70.40855407714844
 21
-2.63797664642334
 31
148.0
 12
70.3519058227539
 22
-2.618157148361206
 32
148.0
 13
70.3519058227539
 23
-2.618157148361206
 33
148.0
  0
3DFACE
  8
0
 10
72.09907531738281
 20
-3.4301390647888184
 30
148.0
 11
71.41679382324219
 21
-3.0786523818969727
 31
148.0
 12
70.52188110351562
 22
-2.6845412254333496
 32
148.0
 13
70.52188110351562
 23
-2.6845412254333496
 33
148.0
  0
3DFACE
  8
0
 10
73.38182067871094
 20
-4.281506538391113
 30
148.0
 11
72.32965850830078
 21
-3.5578932762145996
 31
148.0
 12
72.09907531738281
 22
-3.4301390647888184
 32
148.0
 13
72.09907531738281
 23
-3.4301390647888184
 33
148.0
  0
3DFACE
  8
0
 10
74.2310791015625
 20
-5.050714492797852
 30
148.0
 11
73.95285034179688
 21
-4.780949115753174
 31
148.0
 12
73.38182067871094
 22
-4.281506538391113
 32
148.0
 13
73.38182067871094
 23
-4.281506538391113
 33
148.0
  0
3DFACE
  8
0
 10
75.04074096679688
 20
-6.027439594268799
 30
148.0
 11
74.90969848632812
 21
-5.81992244720459
 31
148.0
 12
74.2310791015625
 22
-5.050714492797852
 32
148.0
 13
74.2310791015625
 23
-5.050714492797852
 33
148.0
  0
3DFACE
  8
0
 10
75.53780364990234
 20
-6.937979221343994
 30
148.0
 11
75.36482238769531
 21
-6.588515281677246
 31
148.0
 12
75.04074096679688
 22
-6.027439594268799
 32
148.0
 13
75.04074096679688
 23
-6.027439594268799
 33
148.0
  0
3DFACE
  8
0
 10
75.98941802978516
 20
-8.042574882507324
 30
148.0
 11
75.72065734863281
 21
-7.34024715423584
 31
148.0
 12
75.53780364990234
 22
-6.937979221343994
 32
148.0
 13
75.53780364990234
 23
-6.937979221343994
 33
148.0
  0
3DFACE
  8
0
 10
76.16535949707031
 20
-8.896754264831543
 30
148.0
 11
76.01708221435547
 21
-8.127547264099121
 31
148.0
 12
75.98941802978516
 22
-8.042574882507324
 32
148.0
 13
75.98941802978516
 23
-8.042574882507324
 33
148.0
  0
3DFACE
  8
0
 10
76.21756744384766
 20
-10.277280807495117
 30
148.0
 11
76.24209594726562
 21
-9.66596508026123
 31
148.0
 12
76.17730712890625
 22
-9.042901039123535
 32
148.0
 13
76.17730712890625
 23
-9.042901039123535
 33
148.0
  0
3DFACE
  8
0
 10
76.17730712890625
 20
-9.042901039123535
 30
148.0
 11
76.16535949707031
 21
-8.896754264831543
 31
148.0
 12
75.98941802978516
 22
-8.042574882507324
 32
148.0
 13
75.98941802978516
 23
-8.042574882507324
 33
148.0
  0
3DFACE
  8
0
 10
75.98941802978516
 20
-8.042574882507324
 30
148.0
 11
75.53780364990234
 21
-6.937979221343994
 31
148.0
 12
75.04074096679688
 22
-6.027439594268799
 32
148.0
 13
75.04074096679688
 23
-6.027439594268799
 33
148.0
  0
3DFACE
  8
0
 10
75.04074096679688
 20
-6.027439594268799
 30
148.0
 11
74.2310791015625
 21
-5.050714492797852
 31
148.0
 12
73.38182067871094
 22
-4.281506538391113
 32
148.0
 13
73.38182067871094
 23
-4.281506538391113
 33
148.0
  0
3DFACE
  8
0
 10
73.38182067871094
 20
-4.281506538391113
 30
148.0
 11
72.09907531738281
 21
-3.4301390647888184
 31
148.0
 12
70.52188110351562
 22
-2.6845412254333496
 32
148.0
 13
70.52188110351562
 23
-2.6845412254333496
 33
148.0
  0
3DFACE
  8
0
 10
70.52188110351562
 20
-2.6845412254333496
 30
148.0
 11
70.3519058227539
 21
-2.618157148361206
 31
148.0
 12
69.78736114501953
 22
-2.45102596282959
 32
148.0
 13
69.78736114501953
 23
-2.45102596282959
 33
148.0
  0
3DFACE
  8
0
 10
69.78736114501953
 20
-2.45102596282959
 30
148.0
 11
69.04236602783203
 21
-2.2680182456970215
 31
148.0
 12
67.94944763183594
 22
-2.1094181537628174
 32
148.0
 13
67.94944763183594
 23
-2.1094181537628174
 33
148.0
  0
3DFACE
  8
0
 10
67.27098083496094
 20
-2.083545684814453
 30
148.0
 11
67.19226837158203
 21
-2.080251455307007
 31
148.0
 12
66.57889556884766
 22
-2.102245569229126
 32
148.0
 13
66.57889556884766
 23
-2.102245569229126
 33
148.0
  0
3DFACE
  8
0
 10
69.78736114501953
 20
-2.45102596282959
 30
148.0
 11
67.94944763183594
 21
-2.1094181537628174
 31
148.0
 12
67.27098083496094
 22
-2.083545684814453
 32
148.0
 13
67.27098083496094
 23
-2.083545684814453
 33
148.0
  0
3DFACE
  8
0
 10
73.38182067871094
 20
-4.281506538391113
 30
148.0
 11
70.52188110351562
 21
-2.6845412254333496
 31
148.0
 12
69.78736114501953
 22
-2.45102596282959
 32
148.0
 13
69.78736114501953
 23
-2.45102596282959
 33
148.0
  0
3DFACE
  8
0
 10
75.98941802978516
 20
-8.042574882507324
 30
148.0
 11
75.04074096679688
 21
-6.027439594268799
 31
148.0
 12
73.38182067871094
 22
-4.281506538391113
 32
148.0
 13
73.38182067871094
 23
-4.281506538391113
 33
148.0
  0
3DFACE
  8
0
 10
76.21756744384766
 20
-10.277280807495117
 30
148.0
 11
76.17730712890625
 21
-9.042901039123535
 31
148.0
 12
75.98941802978516
 22
-8.042574882507324
 32
148.0
 13
75.98941802978516
 23
-8.042574882507324
 33
148.0
  0
3DFACE
  8
0
 10
76.10163879394531
 20
-11.204380989074707
 30
148.0
 11
76.20781707763672
 21
-10.435172080993652
 31
148.0
 12
76.21756744384766
 22
-10.277280807495117
 32
148.0
 13
76.21756744384766
 23
-10.277280807495117
 33
148.0
  0
3DFACE
  8
0
 10
75.90337371826172
 20
-11.973589897155762
 30
148.0
 11
76.01339721679688
 21
-11.583430290222168
 31
148.0
 12
76.10163879394531
 22
-11.204380989074707
 32
148.0
 13
76.10163879394531
 23
-11.204380989074707
 33
148.0
  0
3DFACE
  8
0
 10
75.33464050292969
 20
-13.432848930358887
 30
148.0
 11
75.6698989868164
 21
-12.743863105773926
 31
148.0
 12
75.90337371826172
 22
-11.973589897155762
 32
148.0
 13
75.90337371826172
 23
-11.973589897155762
 33
148.0
  0
3DFACE
  8
0
 10
74.8336181640625
 20
-14.3125581741333
 30
148.0
 11
75.25349426269531
 21
-13.588315963745117
 31
148.0
 12
75.33464050292969
 22
-13.432848930358887
 32
148.0
 13
75.33464050292969
 23
-13.432848930358887
 33
148.0
  0
3DFACE
  8
0
 10
73.6744384765625
 20
-15.862707138061523
 30
148.0
 11
74.2751235961914
 21
-15.116351127624512
 31
148.0
 12
74.46488189697266
 22
-14.828953742980957
 32
148.0
 13
74.46488189697266
 23
-14.828953742980957
 33
148.0
  0
3DFACE
  8
0
 10
74.46488189697266
 20
-14.828953742980957
 30
148.0
 11
74.8336181640625
 21
-14.3125581741333
 31
148.0
 12
75.33464050292969
 22
-13.432848930358887
 32
148.0
 13
75.33464050292969
 23
-13.432848930358887
 33
148.0
  0
3DFACE
  8
0
 10
75.33464050292969
 20
-13.432848930358887
 30
148.0
 11
75.90337371826172
 21
-11.973589897155762
 31
148.0
 12
76.10163879394531
 22
-11.204380989074707
 32
148.0
 13
76.10163879394531
 23
-11.204380989074707
 33
148.0
  0
3DFACE
  8
0
 10
76.10163879394531
 20
-11.204380989074707
 30
148.0
 11
76.21756744384766
 21
-10.277280807495117
 31
148.0
 12
75.98941802978516
 22
-8.042574882507324
 32
148.0
 13
75.98941802978516
 23
-8.042574882507324
 33
148.0
  0
3DFACE
  8
0
 10
75.98941802978516
 20
-8.042574882507324
 30
148.0
 11
73.38182067871094
 21
-4.281506538391113
 31
148.0
 12
69.78736114501953
 22
-2.45102596282959
 32
148.0
 13
69.78736114501953
 23
-2.45102596282959
 33
148.0
  0
3DFACE
  8
0
 10
69.78736114501953
 20
-2.45102596282959
 30
148.0
 11
67.27098083496094
 21
-2.083545684814453
 31
148.0
 12
66.57889556884766
 22
-2.102245569229126
 32
148.0
 13
66.57889556884766
 23
-2.102245569229126
 33
148.0
  0
3DFACE
  8
0
 10
66.57889556884766
 20
-2.102245569229126
 30
148.0
 11
66.54901885986328
 21
-2.104567527770996
 31
148.0
 12
65.44212341308594
 22
-2.2836925983428955
 32
148.0
 13
65.44212341308594
 23
-2.2836925983428955
 33
148.0
  0
3DFACE
  8
0
 10
65.44212341308594
 20
-2.2836925983428955
 30
148.0
 11
65.26249694824219
 21
-2.3199071884155273
 31
148.0
 12
65.18694305419922
 22
-2.3429458141326904
 32
148.0
 13
65.18694305419922
 23
-2.3429458141326904
 33
148.0
  0
3DFACE
  8
0
 10
65.18694305419922
 20
-2.3429458141326904
 30
148.0
 11
65.00169372558594
 21
-2.3856804370880127
 31
148.0
 12
64.63102722167969
 22
-2.492152214050293
 32
148.0
 13
64.63102722167969
 23
-2.492152214050293
 33
148.0
  0
3DFACE
  8
0
 10
64.63102722167969
 20
-2.492152214050293
 30
148.0
 11
64.09138488769531
 21
-2.6667697429656982
 31
148.0
 12
63.975982666015625
 22
-2.708496570587158
 32
148.0
 13
63.975982666015625
 23
-2.708496570587158
 33
148.0
  0
3DFACE
  8
0
 10
63.975982666015625
 20
-2.708496570587158
 30
148.0
 11
63.919517517089844
 21
-2.732130765914917
 31
148.0
 12
63.812660217285156
 22
-2.7818524837493896
 32
148.0
 13
63.812660217285156
 23
-2.7818524837493896
 33
148.0
  0
3DFACE
  8
0
 10
63.812660217285156
 20
-2.7818524837493896
 30
148.0
 11
63.332725524902344
 21
-3.028083324432373
 31
148.0
 12
62.49343490600586
 22
-3.48256516456604
 32
148.0
 13
62.49343490600586
 23
-3.48256516456604
 33
148.0
  0
3DFACE
  8
0
 10
62.49343490600586
 20
-3.48256516456604
 30
148.0
 11
62.4469108581543
 21
-3.512295722961426
 31
148.0
 12
62.3990592956543
 22
-3.5486977100372314
 32
148.0
 13
62.3990592956543
 23
-3.5486977100372314
 33
148.0
  0
3DFACE
  8
0
 10
62.3990592956543
 20
-3.5486977100372314
 30
148.0
 11
61.399600982666016
 21
-4.281506538391113
 31
148.0
 12
61.08693313598633
 22
-4.590925216674805
 32
148.0
 13
61.08693313598633
 23
-4.590925216674805
 33
148.0
  0
3DFACE
  8
0
 10
61.08693313598633
 20
-4.590925216674805
 30
148.0
 11
60.75969696044922
 21
-4.877432346343994
 31
148.0
 12
60.58246612548828
 22
-5.050714492797852
 32
148.0
 13
60.58246612548828
 23
-5.050714492797852
 33
148.0
  0
3DFACE
  8
0
 10
60.58246612548828
 20
-5.050714492797852
 30
148.0
 11
59.99497985839844
 21
-5.8214006423950195
 31
148.0
 12
59.526893615722656
 22
-6.622519493103027
 32
148.0
 13
59.526893615722656
 23
-6.622519493103027
 33
148.0
  0
3DFACE
  8
0
 10
59.52399826049805
 20
-6.628887176513672
 30
148.0
 11
59.521827697753906
 21
-6.632869720458984
 31
148.0
 12
59.162044525146484
 22
-7.358340263366699
 32
148.0
 13
59.162044525146484
 23
-7.358340263366699
 33
148.0
  0
3DFACE
  8
0
 10
60.58246612548828
 20
-5.050714492797852
 30
148.0
 11
59.526893615722656
 21
-6.622519493103027
 31
148.0
 12
59.52399826049805
 22
-6.628887176513672
 32
148.0
 13
59.52399826049805
 23
-6.628887176513672
 33
148.0
  0
3DFACE
  8
0
 10
62.3990592956543
 20
-3.5486977100372314
 30
148.0
 11
61.08693313598633
 21
-4.590925216674805
 31
148.0
 12
60.58246612548828
 22
-5.050714492797852
 32
148.0
 13
60.58246612548828
 23
-5.050714492797852
 33
148.0
  0
3DFACE
  8
0
 10
63.812660217285156
 20
-2.7818524837493896
 30
148.0
 11
62.49343490600586
 21
-3.48256516456604
 31
148.0
 12
62.3990592956543
 22
-3.5486977100372314
 32
148.0
 13
62.3990592956543
 23
-3.5486977100372314
 33
148.0
  0
3DFACE
  8
0
 10
64.63102722167969
 20
-2.492152214050293
 30
148.0
 11
63.975982666015625
 21
-2.708496570587158
 31
148.0
 12
63.812660217285156
 22
-2.7818524837493896
 32
148.0
 13
63.812660217285156
 23
-2.7818524837493896
 33
148.0
  0
3DFACE
  8
0
 10
65.44212341308594
 20
-2.2836925983428955
 30
148.0
 11
65.18694305419922
 21
-2.3429458141326904
 31
148.0
 12
64.63102722167969
 22
-2.492152214050293
 32
148.0
 13
64.63102722167969
 23
-2.492152214050293
 33
148.0
  0
3DFACE
  8
0
 10
69.78736114501953
 20
-2.45102596282959
 30
148.0
 11
66.57889556884766
 21
-2.102245569229126
 31
148.0
 12
65.44212341308594
 22
-2.2836925983428955
 32
148.0
 13
65.44212341308594
 23
-2.2836925983428955
 33
148.0
  0
3DFACE
  8
0
 10
76.10163879394531
 20
-11.204380989074707
 30
148.0
 11
75.98941802978516
 21
-8.042574882507324
 31
148.0
 12
69.78736114501953
 22
-2.45102596282959
 32
148.0
 13
69.78736114501953
 23
-2.45102596282959
 33
148.0
  0
3DFACE
  8
0
 10
74.46488189697266
 20
-14.828953742980957
 30
148.0
 11
75.33464050292969
 21
-13.432848930358887
 31
148.0
 12
76.10163879394531
 22
-11.204380989074707
 32
148.0
 13
76.10163879394531
 23
-11.204380989074707
 33
148.0
  0
3DFACE
  8
0
 10
73.66375732421875
 20
-15.875343322753906
 30
148.0
 11
73.6744384765625
 21
-15.862707138061523
 31
148.0
 12
74.46488189697266
 22
-14.828953742980957
 32
148.0
 13
74.46488189697266
 23
-14.828953742980957
 33
148.0
  0
3DFACE
  8
0
 10
72.88848114013672
 20
-16.625263214111328
 30
148.0
 11
72.9564208984375
 21
-16.574342727661133
 31
148.0
 12
73.66375732421875
 22
-15.875343322753906
 32
148.0
 13
73.66375732421875
 23
-15.875343322753906
 33
148.0
  0
3DFACE
  8
0
 10
72.21934509277344
 20
-17.111074447631836
 30
148.0
 11
72.80586242675781
 21
-16.693084716796875
 31
148.0
 12
72.88848114013672
 22
-16.625263214111328
 32
148.0
 13
72.88848114013672
 23
-16.625263214111328
 33
148.0
  0
3DFACE
  8
0
 10
71.46489715576172
 20
-17.59099578857422
 30
148.0
 11
71.87203216552734
 21
-17.3360652923584
 31
148.0
 12
72.21934509277344
 22
-17.111074447631836
 32
148.0
 13
72.21934509277344
 23
-17.111074447631836
 33
148.0
  0
3DFACE
  8
0
 10
71.06761932373047
 20
-17.791950225830078
 30
148.0
 11
71.3031005859375
 21
-17.684532165527344
 31
148.0
 12
71.46489715576172
 22
-17.59099578857422
 32
148.0
 13
71.46489715576172
 23
-17.59099578857422
 33
148.0
  0
3DFACE
  8
0
 10
69.89777374267578
 20
-18.302648544311523
 30
148.0
 11
70.69700622558594
 21
-17.98493766784668
 31
148.0
 12
71.06761932373047
 22
-17.791950225830078
 32
148.0
 13
71.06761932373047
 23
-17.791950225830078
 33
148.0
  0
3DFACE
  8
0
 10
68.63172912597656
 20
-18.611223220825195
 30
148.0
 11
69.15192413330078
 21
-18.536296844482422
 31
148.0
 12
69.74211120605469
 22
-18.347335815429688
 32
148.0
 13
69.74211120605469
 23
-18.347335815429688
 33
148.0
  0
3DFACE
  8
0
 10
69.74211120605469
 20
-18.347335815429688
 30
148.0
 11
69.89777374267578
 21
-18.302648544311523
 31
148.0
 12
71.06761932373047
 22
-17.791950225830078
 32
148.0
 13
71.06761932373047
 23
-17.791950225830078
 33
148.0
  0
3DFACE
  8
0
 10
71.06761932373047
 20
-17.791950225830078
 30
148.0
 11
71.46489715576172
 21
-17.59099578857422
 31
148.0
 12
72.21934509277344
 22
-17.111074447631836
 32
148.0
 13
72.21934509277344
 23
-17.111074447631836
 33
148.0
  0
3DFACE
  8
0
 10
72.21934509277344
 20
-17.111074447631836
 30
148.0
 11
72.88848114013672
 21
-16.625263214111328
 31
148.0
 12
73.66375732421875
 22
-15.875343322753906
 32
148.0
 13
73.66375732421875
 23
-15.875343322753906
 33
148.0
  0
3DFACE
  8
0
 10
73.66375732421875
 20
-15.875343322753906
 30
148.0
 11
74.46488189697266
 21
-14.828953742980957
 31
148.0
 12
76.10163879394531
 22
-11.204380989074707
 32
148.0
 13
76.10163879394531
 23
-11.204380989074707
 33
148.0
  0
3DFACE
  8
0
 10
76.10163879394531
 20
-11.204380989074707
 30
148.0
 11
69.78736114501953
 21
-2.45102596282959
 31
148.0
 12
65.44212341308594
 22
-2.2836925983428955
 32
148.0
 13
65.44212341308594
 23
-2.2836925983428955
 33
148.0
  0
3DFACE
  8
0
 10
65.44212341308594
 20
-2.2836925983428955
 30
148.0
 11
64.63102722167969
 21
-2.492152214050293
 31
148.0
 12
63.812660217285156
 22
-2.7818524837493896
 32
148.0
 13
63.812660217285156
 23
-2.7818524837493896
 33
148.0
  0
3DFACE
  8
0
 10
63.812660217285156
 20
-2.7818524837493896
 30
148.0
 11
62.3990592956543
 21
-3.5486977100372314
 31
148.0
 12
60.58246612548828
 22
-5.050714492797852
 32
148.0
 13
60.58246612548828
 23
-5.050714492797852
 33
148.0
  0
3DFACE
  8
0
 10
60.58246612548828
 20
-5.050714492797852
 30
148.0
 11
59.52399826049805
 21
-6.628887176513672
 31
148.0
 12
59.162044525146484
 22
-7.358340263366699
 32
148.0
 13
59.162044525146484
 23
-7.358340263366699
 33
148.0
  0
3DFACE
  8
0
 10
59.14207458496094
 20
-7.423203945159912
 30
148.0
 11
58.877864837646484
 21
-8.127547264099121
 31
148.0
 12
58.671417236328125
 22
-8.896754264831543
 32
148.0
 13
58.671417236328125
 23
-8.896754264831543
 33
148.0
  0
3DFACE
  8
0
 10
60.58246612548828
 20
-5.050714492797852
 30
148.0
 11
59.162044525146484
 21
-7.358340263366699
 31
148.0
 12
59.14207458496094
 22
-7.423203945159912
 32
148.0
 13
59.14207458496094
 23
-7.423203945159912
 33
148.0
  0
3DFACE
  8
0
 10
65.44212341308594
 20
-2.2836925983428955
 30
148.0
 11
63.812660217285156
 21
-2.7818524837493896
 31
148.0
 12
60.58246612548828
 22
-5.050714492797852
 32
148.0
 13
60.58246612548828
 23
-5.050714492797852
 33
148.0
  0
3DFACE
  8
0
 10
73.66375732421875
 20
-15.875343322753906
 30
148.0
 11
76.10163879394531
 21
-11.204380989074707
 31
148.0
 12
65.44212341308594
 22
-2.2836925983428955
 32
148.0
 13
65.44212341308594
 23
-2.2836925983428955
 33
148.0
  0
3DFACE
  8
0
 10
71.06761932373047
 20
-17.791950225830078
 30
148.0
 11
72.21934509277344
 21
-17.111074447631836
 31
148.0
 12
73.66375732421875
 22
-15.875343322753906
 32
148.0
 13
73.66375732421875
 23
-15.875343322753906
 33
148.0
  0
3DFACE
  8
0
 10
68.63172912597656
 20
-18.611223220825195
 30
148.0
 11
69.74211120605469
 21
-18.347335815429688
 31
148.0
 12
71.06761932373047
 22
-17.791950225830078
 32
148.0
 13
71.06761932373047
 23
-17.791950225830078
 33
148.0
  0
3DFACE
  8
0
 10
68.15608978271484
 20
-18.682071685791016
 30
148.0
 11
68.40765380859375
 21
-18.661197662353516
 31
148.0
 12
68.63172912597656
 22
-18.611223220825195
 32
148.0
 13
68.63172912597656
 23
-18.611223220825195
 33
148.0
  0
3DFACE
  8
0
 10
67.83551788330078
 20
-18.71674156188965
 30
148.0
 11
67.97953033447266
 21
-18.702701568603516
 31
148.0
 12
68.15608978271484
 22
-18.682071685791016
 32
148.0
 13
68.15608978271484
 23
-18.682071685791016
 33
148.0
  0
3DFACE
  8
0
 10
67.1922607421875
 20
-18.722766876220703
 30
148.0
 11
67.27098083496094
 21
-18.72336196899414
 31
148.0
 12
67.83551788330078
 22
-18.71674156188965
 32
148.0
 13
67.83551788330078
 23
-18.71674156188965
 33
148.0
  0
3DFACE
  8
0
 10
65.90574645996094
 20
-18.592153549194336
 30
148.0
 11
66.54901885986328
 21
-18.6875
 31
148.0
 12
67.1922607421875
 22
-18.722766876220703
 32
148.0
 13
67.1922607421875
 23
-18.722766876220703
 33
148.0
  0
3DFACE
  8
0
 10
65.26248931884766
 20
-18.442913055419922
 30
148.0
 11
65.79029083251953
 21
-18.570690155029297
 31
148.0
 12
65.90574645996094
 22
-18.592153549194336
 32
148.0
 13
65.90574645996094
 23
-18.592153549194336
 33
148.0
  0
3DFACE
  8
0
 10
64.64524841308594
 20
-18.219682693481445
 30
148.0
 11
65.00169372558594
 21
-18.353212356567383
 31
148.0
 12
65.26248931884766
 22
-18.442913055419922
 32
148.0
 13
65.26248931884766
 23
-18.442913055419922
 33
148.0
  0
3DFACE
  8
0
 10
64.02424621582031
 20
-18.01013946533203
 30
148.0
 11
64.27369689941406
 21
-18.10175132751465
 31
148.0
 12
64.64524841308594
 22
-18.219682693481445
 32
148.0
 13
64.64524841308594
 23
-18.219682693481445
 33
148.0
  0
3DFACE
  8
0
 10
63.31831741333008
 20
-17.66679573059082
 30
148.0
 11
63.42451095581055
 21
-17.723312377929688
 31
148.0
 12
64.02424621582031
 22
-18.01013946533203
 32
148.0
 13
64.02424621582031
 23
-18.01013946533203
 33
148.0
  0
3DFACE
  8
0
 10
62.635902404785156
 20
-17.250276565551758
 30
148.0
 11
62.82170486450195
 21
-17.380046844482422
 31
148.0
 12
63.31831741333008
 22
-17.66679573059082
 32
148.0
 13
63.31831741333008
 23
-17.66679573059082
 33
148.0
  0
3DFACE
  8
0
 10
61.84729766845703
 20
-16.711177825927734
 30
148.0
 11
62.04619598388672
 21
-16.876291275024414
 31
148.0
 12
62.635902404785156
 22
-17.250276565551758
 32
148.0
 13
62.635902404785156
 23
-17.250276565551758
 33
148.0
  0
3DFACE
  8
0
 10
61.402950286865234
 20
-16.349929809570312
 30
148.0
 11
61.645591735839844
 21
-16.556110382080078
 31
148.0
 12
61.84729766845703
 22
-16.711177825927734
 32
148.0
 13
61.84729766845703
 23
-16.711177825927734
 33
148.0
  0
3DFACE
  8
0
 10
60.850677490234375
 20
-15.83032512664795
 30
148.0
 11
61.05351257324219
 21
-16.02557373046875
 31
148.0
 12
61.402950286865234
 22
-16.349929809570312
 32
148.0
 13
61.402950286865234
 23
-16.349929809570312
 33
148.0
  0
3DFACE
  8
0
 10
60.197731018066406
 20
-15.014151573181152
 30
148.0
 11
60.29349899291992
 21
-15.135357856750488
 31
148.0
 12
60.374290466308594
 22
-15.227100372314453
 32
148.0
 13
60.374290466308594
 23
-15.227100372314453
 33
148.0
  0
3DFACE
  8
0
 10
60.374290466308594
 20
-15.227100372314453
 30
148.0
 11
60.850677490234375
 21
-15.83032512664795
 31
148.0
 12
61.402950286865234
 22
-16.349929809570312
 32
148.0
 13
61.402950286865234
 23
-16.349929809570312
 33
148.0
  0
3DFACE
  8
0
 10
61.402950286865234
 20
-16.349929809570312
 30
148.0
 11
61.84729766845703
 21
-16.711177825927734
 31
148.0
 12
62.635902404785156
 22
-17.250276565551758
 32
148.0
 13
62.635902404785156
 23
-17.250276565551758
 33
148.0
  0
3DFACE
  8
0
 10
62.635902404785156
 20
-17.250276565551758
 30
148.0
 11
63.31831741333008
 21
-17.66679573059082
 31
148.0
 12
64.02424621582031
 22
-18.01013946533203
 32
148.0
 13
64.02424621582031
 23
-18.01013946533203
 33
148.0
  0
3DFACE
  8
0
 10
64.64524841308594
 20
-18.219682693481445
 30
148.0
 11
65.26248931884766
 21
-18.442913055419922
 31
148.0
 12
65.90574645996094
 22
-18.592153549194336
 32
148.0
 13
65.90574645996094
 23
-18.592153549194336
 33
148.0
  0
3DFACE
  8
0
 10
62.635902404785156
 20
-17.250276565551758
 30
148.0
 11
64.02424621582031
 21
-18.01013946533203
 31
148.0
 12
64.64524841308594
 22
-18.219682693481445
 32
148.0
 13
64.64524841308594
 23
-18.219682693481445
 33
148.0
  0
3DFACE
  8
0
 10
60.374290466308594
 20
-15.227100372314453
 30
148.0
 11
61.402950286865234
 21
-16.349929809570312
 31
148.0
 12
62.635902404785156
 22
-17.250276565551758
 32
148.0
 13
62.635902404785156
 23
-17.250276565551758
 33
148.0
  0
3DFACE
  8
0
 10
60.13665771484375
 20
-14.923624038696289
 30
148.0
 11
60.197731018066406
 21
-15.014151573181152
 31
148.0
 12
60.374290466308594
 22
-15.227100372314453
 32
148.0
 13
60.374290466308594
 23
-15.227100372314453
 33
148.0
  0
3DFACE
  8
0
 10
59.42387390136719
 20
-13.597892761230469
 30
148.0
 11
59.73969268798828
 21
-14.276615142822266
 31
148.0
 12
60.13665771484375
 22
-14.923624038696289
 32
148.0
 13
60.13665771484375
 23
-14.923624038696289
 33
148.0
  0
3DFACE
  8
0
 10
59.05793380737305
 20
-12.742796897888184
 30
148.0
 11
59.380043029785156
 21
-13.512005805969238
 31
148.0
 12
59.42387390136719
 22
-13.597892761230469
 32
148.0
 13
59.42387390136719
 23
-13.597892761230469
 33
148.0
  0
3DFACE
  8
0
 10
58.82884979248047
 20
-11.930697441101074
 30
148.0
 11
58.96213912963867
 21
-12.44139575958252
 31
148.0
 12
59.05793380737305
 22
-12.742796897888184
 32
148.0
 13
59.05793380737305
 23
-12.742796897888184
 33
148.0
  0
3DFACE
  8
0
 10
58.602027893066406
 20
-10.46572494506836
 30
148.0
 11
58.6838264465332
 21
-11.204380989074707
 31
148.0
 12
58.80204772949219
 22
-11.778424263000488
 32
148.0
 13
58.80204772949219
 23
-11.778424263000488
 33
148.0
  0
3DFACE
  8
0
 10
58.80204772949219
 20
-11.778424263000488
 30
148.0
 11
58.82884979248047
 21
-11.930697441101074
 31
148.0
 12
59.05793380737305
 22
-12.742796897888184
 32
148.0
 13
59.05793380737305
 23
-12.742796897888184
 33
148.0
  0
3DFACE
  8
0
 10
59.05793380737305
 20
-12.742796897888184
 30
148.0
 11
59.42387390136719
 21
-13.597892761230469
 31
148.0
 12
60.13665771484375
 22
-14.923624038696289
 32
148.0
 13
60.13665771484375
 23
-14.923624038696289
 33
148.0
  0
3DFACE
  8
0
 10
60.13665771484375
 20
-14.923624038696289
 30
148.0
 11
60.374290466308594
 21
-15.227100372314453
 31
148.0
 12
62.635902404785156
 22
-17.250276565551758
 32
148.0
 13
62.635902404785156
 23
-17.250276565551758
 33
148.0
  0
3DFACE
  8
0
 10
62.635902404785156
 20
-17.250276565551758
 30
148.0
 11
64.64524841308594
 21
-18.219682693481445
 31
148.0
 12
65.90574645996094
 22
-18.592153549194336
 32
148.0
 13
65.90574645996094
 23
-18.592153549194336
 33
148.0
  0
3DFACE
  8
0
 10
65.90574645996094
 20
-18.592153549194336
 30
148.0
 11
67.1922607421875
 21
-18.722766876220703
 31
148.0
 12
67.83551788330078
 22
-18.71674156188965
 32
148.0
 13
67.83551788330078
 23
-18.71674156188965
 33
148.0
  0
3DFACE
  8
0
 10
67.83551788330078
 20
-18.71674156188965
 30
148.0
 11
68.15608978271484
 21
-18.682071685791016
 31
148.0
 12
68.63172912597656
 22
-18.611223220825195
 32
148.0
 13
68.63172912597656
 23
-18.611223220825195
 33
148.0
  0
3DFACE
  8
0
 10
68.63172912597656
 20
-18.611223220825195
 30
148.0
 11
71.06761932373047
 21
-17.791950225830078
 31
148.0
 12
73.66375732421875
 22
-15.875343322753906
 32
148.0
 13
73.66375732421875
 23
-15.875343322753906
 33
148.0
  0
3DFACE
  8
0
 10
73.66375732421875
 20
-15.875343322753906
 30
148.0
 11
65.44212341308594
 21
-2.2836925983428955
 31
148.0
 12
60.58246612548828
 22
-5.050714492797852
 32
148.0
 13
60.58246612548828
 23
-5.050714492797852
 33
148.0
  0
3DFACE
  8
0
 10
60.58246612548828
 20
-5.050714492797852
 30
148.0
 11
59.14207458496094
 21
-7.423203945159912
 31
148.0
 12
58.671417236328125
 22
-8.896754264831543
 32
148.0
 13
58.671417236328125
 23
-8.896754264831543
 33
148.0
  0
3DFACE
  8
0
 10
58.615264892578125
 20
-9.632780075073242
 30
148.0
 11
58.610530853271484
 21
-9.66596508026123
 31
148.0
 12
58.599449157714844
 22
-10.435172080993652
 32
148.0
 13
58.599449157714844
 23
-10.435172080993652
 33
148.0
  0
3DFACE
  8
0
 10
60.58246612548828
 20
-5.050714492797852
 30
148.0
 11
58.671417236328125
 21
-8.896754264831543
 31
148.0
 12
58.615264892578125
 22
-9.632780075073242
 32
148.0
 13
58.615264892578125
 23
-9.632780075073242
 33
148.0
  0
3DFACE
  8
0
 10
68.63172912597656
 20
-18.611223220825195
 30
148.0
 11
73.66375732421875
 21
-15.875343322753906
 31
148.0
 12
60.58246612548828
 22
-5.050714492797852
 32
148.0
 13
60.58246612548828
 23
-5.050714492797852
 33
148.0
  0
3DFACE
  8
0
 10
65.90574645996094
 20
-18.592153549194336
 30
148.0
 11
67.83551788330078
 21
-18.71674156188965
 31
148.0
 12
68.63172912597656
 22
-18.611223220825195
 32
148.0
 13
68.63172912597656
 23
-18.611223220825195
 33
148.0
  0
3DFACE
  8
0
 10
60.13665771484375
 20
-14.923624038696289
 30
148.0
 11
62.635902404785156
 21
-17.250276565551758
 31
148.0
 12
65.90574645996094
 22
-18.592153549194336
 32
148.0
 13
65.90574645996094
 23
-18.592153549194336
 33
148.0
  0
3DFACE
  8
0
 10
58.80204772949219
 20
-11.778424263000488
 30
148.0
 11
59.05793380737305
 21
-12.742796897888184
 31
148.0
 12
60.13665771484375
 22
-14.923624038696289
 32
148.0
 13
60.13665771484375
 23
-14.923624038696289
 33
148.0
  0
3DFACE
  8
0
 10
58.599449157714844
 20
-10.435172080993652
 30
148.0
 11
58.602027893066406
 21
-10.46572494506836
 31
148.0
 12
58.80204772949219
 22
-11.778424263000488
 32
148.0
 13
58.80204772949219
 23
-11.778424263000488
 33
148.0
  0
3DFACE
  8
0
 10
60.58246612548828
 20
-5.050714492797852
 30
148.0
 11
58.615264892578125
 21
-9.632780075073242
 31
148.0
 12
58.599449157714844
 22
-10.435172080993652
 32
148.0
 13
58.599449157714844
 23
-10.435172080993652
 33
148.0
  0
3DFACE
  8
0
 10
65.90574645996094
 20
-18.592153549194336
 30
148.0
 11
68.63172912597656
 21
-18.611223220825195
 31
148.0
 12
60.58246612548828
 22
-5.050714492797852
 32
148.0
 13
60.58246612548828
 23
-5.050714492797852
 33
148.0
  0
3DFACE
  8
0
 10
58.80204772949219
 20
-11.778424263000488
 30
148.0
 11
60.13665771484375
 21
-14.923624038696289
 31
148.0
 12
65.90574645996094
 22
-18.592153549194336
 32
148.0
 13
65.90574645996094
 23
-18.592153549194336
 33
148.0
  0
3DFACE
  8
0
 10
60.58246612548828
 20
-5.050714492797852
 30
148.0
 11
58.599449157714844
 21
-10.435172080993652
 31
148.0
 12
58.80204772949219
 22
-11.778424263000488
 32
148.0
 13
58.80204772949219
 23
-11.778424263000488
 33
148.0
  0
3DFACE
  8
0
 10
60.58246612548828
 20
-5.050714492797852
 30
148.0
 11
58.80204772949219
 21
-11.778424263000488
 31
148.0
 12
65.90574645996094
 22
-18.592153549194336
 32
148.0
 13
65.90574645996094
 23
-18.592153549194336
 33
148.0
  0
3DFACE
  8
0
 10
-62.335693359375
 20
-1.1216779947280884
 30
148.0
 11
-62.366363525390625
 21
-1.1738810539245605
 31
148.0
 12
-62.372379302978516
 22
-1.193795084953308
 32
148.0
 13
-62.372379302978516
 23
-1.193795084953308
 33
148.0
  0
3DFACE
  8
0
 10
-62.38503646850586
 20
-1.2263683080673218
 30
148.0
 11
-62.686668395996094
 21
-1.954359769821167
 31
148.0
 12
-62.737213134765625
 22
-2.313394784927368
 32
148.0
 13
-62.737213134765625
 23
-2.313394784927368
 33
148.0
  0
3DFACE
  8
0
 10
-62.335693359375
 20
-1.1216779947280884
 30
148.0
 11
-62.372379302978516
 21
-1.193795084953308
 31
148.0
 12
-62.38503646850586
 22
-1.2263683080673218
 32
148.0
 13
-62.38503646850586
 23
-1.2263683080673218
 33
148.0
  0
3DFACE
  8
0
 10
-61.32439422607422
 20
0.3870755434036255
 30
148.0
 11
-61.91015625
 21
-0.3542982041835785
 31
148.0
 12
-62.335693359375
 22
-1.1216779947280884
 32
148.0
 13
-62.335693359375
 23
-1.1216779947280884
 33
148.0
  0
3DFACE
  8
0
 10
-59.3203239440918
 20
1.9471756219863892
 30
148.0
 11
-60.51881408691406
 21
1.1580277681350708
 31
148.0
 12
-61.07877731323242
 22
0.6131493449211121
 32
148.0
 13
-61.07877731323242
 23
0.6131493449211121
 33
148.0
  0
3DFACE
  8
0
 10
-61.07877731323242
 20
0.6131493449211121
 30
148.0
 11
-61.32439422607422
 21
0.3870755434036255
 31
148.0
 12
-62.335693359375
 22
-1.1216779947280884
 32
148.0
 13
-62.335693359375
 23
-1.1216779947280884
 33
148.0
  0
3DFACE
  8
0
 10
-62.335693359375
 20
-1.1216779947280884
 30
148.0
 11
-62.38503646850586
 21
-1.2263683080673218
 31
148.0
 12
-62.737213134765625
 22
-2.313394784927368
 32
148.0
 13
-62.737213134765625
 23
-2.313394784927368
 33
148.0
  0
3DFACE
  8
0
 10
-62.737213134765625
 20
-2.313394784927368
 30
148.0
 11
-62.8760986328125
 21
-2.7348380088806152
 31
148.0
 12
-62.918399810791016
 22
-3.329371929168701
 32
148.0
 13
-62.918399810791016
 23
-3.329371929168701
 33
148.0
  0
3DFACE
  8
0
 10
-62.918399810791016
 20
-3.329371929168701
 30
148.0
 11
-62.93703079223633
 21
-3.5148117542266846
 31
148.0
 12
-62.93791198730469
 22
-3.6935667991638184
 32
148.0
 13
-62.93791198730469
 23
-3.6935667991638184
 33
148.0
  0
3DFACE
  8
0
 10
-62.93791198730469
 20
-3.6935667991638184
 30
148.0
 11
-62.89045333862305
 21
-4.302140712738037
 31
148.0
 12
-62.838531494140625
 22
-4.608299255371094
 32
148.0
 13
-62.838531494140625
 23
-4.608299255371094
 33
148.0
  0
3DFACE
  8
0
 10
-62.838531494140625
 20
-4.608299255371094
 30
148.0
 11
-62.76870346069336
 21
-5.076273441314697
 31
148.0
 12
-62.65403366088867
 22
-5.42664909362793
 32
148.0
 13
-62.65403366088867
 23
-5.42664909362793
 33
148.0
  0
3DFACE
  8
0
 10
-62.65403366088867
 20
-5.42664909362793
 30
148.0
 11
-62.36854553222656
 21
-6.1904778480529785
 31
148.0
 12
-62.142086029052734
 22
-6.621575832366943
 32
148.0
 13
-62.142086029052734
 23
-6.621575832366943
 33
148.0
  0
3DFACE
  8
0
 10
-62.142086029052734
 20
-6.621575832366943
 30
148.0
 11
-61.77334976196289
 21
-7.294353485107422
 31
148.0
 12
-61.6999397277832
 22
-7.417446136474609
 32
148.0
 13
-61.6999397277832
 23
-7.417446136474609
 33
148.0
  0
3DFACE
  8
0
 10
-61.6999397277832
 20
-7.417446136474609
 30
148.0
 11
-61.5662841796875
 21
-7.580554008483887
 31
148.0
 12
-61.01444625854492
 22
-8.213579177856445
 32
148.0
 13
-61.01444625854492
 23
-8.213579177856445
 33
148.0
  0
3DFACE
  8
0
 10
-61.01444625854492
 20
-8.213579177856445
 30
148.0
 11
-60.68165588378906
 21
-8.535903930664062
 31
148.0
 12
-60.18882751464844
 22
-8.985057830810547
 32
148.0
 13
-60.18882751464844
 23
-8.985057830810547
 33
148.0
  0
3DFACE
  8
0
 10
-60.18882751464844
 20
-8.985057830810547
 30
148.0
 11
-59.210655212402344
 21
-9.648835182189941
 31
148.0
 12
-58.96590042114258
 22
-9.789263725280762
 32
148.0
 13
-58.96590042114258
 23
-9.789263725280762
 33
148.0
  0
3DFACE
  8
0
 10
-58.96590042114258
 20
-9.789263725280762
 30
148.0
 11
-57.50115203857422
 21
-10.519304275512695
 31
148.0
 12
-56.46556854248047
 22
-10.89502239227295
 32
148.0
 13
-56.46556854248047
 23
-10.89502239227295
 33
148.0
  0
3DFACE
  8
0
 10
-56.46556854248047
 20
-10.89502239227295
 30
148.0
 11
-56.08873748779297
 21
-10.996850967407227
 31
148.0
 12
-55.67829895019531
 22
-11.097606658935547
 32
148.0
 13
-55.67829895019531
 23
-11.097606658935547
 33
148.0
  0
3DFACE
  8
0
 10
-55.67829895019531
 20
-11.097606658935547
 30
148.0
 11
-55.308258056640625
 21
-11.14850902557373
 31
148.0
 12
-54.722476959228516
 22
-11.216806411743164
 32
148.0
 13
-54.722476959228516
 23
-11.216806411743164
 33
148.0
  0
3DFACE
  8
0
 10
-54.722476959228516
 20
-11.216806411743164
 30
148.0
 11
-54.52778625488281
 21
-11.244921684265137
 31
148.0
 12
-54.333091735839844
 22
-11.26351261138916
 32
148.0
 13
-54.333091735839844
 23
-11.26351261138916
 33
148.0
  0
3DFACE
  8
0
 10
-54.333091735839844
 20
-11.26351261138916
 30
148.0
 11
-53.642250061035156
 21
-11.293805122375488
 31
148.0
 12
-52.966819763183594
 22
-11.27745246887207
 32
148.0
 13
-52.966819763183594
 23
-11.27745246887207
 33
148.0
  0
3DFACE
  8
0
 10
-52.966819763183594
 20
-11.27745246887207
 30
148.0
 11
-52.563175201416016
 21
-11.24632453918457
 31
148.0
 12
-52.18634033203125
 22
-11.200987815856934
 32
148.0
 13
-52.18634033203125
 23
-11.200987815856934
 33
148.0
  0
3DFACE
  8
0
 10
-51.809505462646484
 20
-11.114211082458496
 30
148.0
 11
-51.405860900878906
 21
-11.071639060974121
 31
148.0
 12
-51.029029846191406
 22
-10.974992752075195
 32
148.0
 13
-51.029029846191406
 23
-10.974992752075195
 33
148.0
  0
3DFACE
  8
0
 10
-52.966819763183594
 20
-11.27745246887207
 30
148.0
 11
-52.18634033203125
 21
-11.200987815856934
 31
148.0
 12
-51.809505462646484
 22
-11.114211082458496
 32
148.0
 13
-51.809505462646484
 23
-11.114211082458496
 33
148.0
  0
3DFACE
  8
0
 10
-54.722476959228516
 20
-11.216806411743164
 30
148.0
 11
-54.333091735839844
 21
-11.26351261138916
 31
148.0
 12
-52.966819763183594
 22
-11.27745246887207
 32
148.0
 13
-52.966819763183594
 23
-11.27745246887207
 33
148.0
  0
3DFACE
  8
0
 10
-56.46556854248047
 20
-10.89502239227295
 30
148.0
 11
-55.67829895019531
 21
-11.097606658935547
 31
148.0
 12
-54.722476959228516
 22
-11.216806411743164
 32
148.0
 13
-54.722476959228516
 23
-11.216806411743164
 33
148.0
  0
3DFACE
  8
0
 10
-60.18882751464844
 20
-8.985057830810547
 30
148.0
 11
-58.96590042114258
 21
-9.789263725280762
 31
148.0
 12
-56.46556854248047
 22
-10.89502239227295
 32
148.0
 13
-56.46556854248047
 23
-10.89502239227295
 33
148.0
  0
3DFACE
  8
0
 10
-61.6999397277832
 20
-7.417446136474609
 30
148.0
 11
-61.01444625854492
 21
-8.213579177856445
 31
148.0
 12
-60.18882751464844
 22
-8.985057830810547
 32
148.0
 13
-60.18882751464844
 23
-8.985057830810547
 33
148.0
  0
3DFACE
  8
0
 10
-62.65403366088867
 20
-5.42664909362793
 30
148.0
 11
-62.142086029052734
 21
-6.621575832366943
 31
148.0
 12
-61.6999397277832
 22
-7.417446136474609
 32
148.0
 13
-61.6999397277832
 23
-7.417446136474609
 33
148.0
  0
3DFACE
  8
0
 10
-62.93791198730469
 20
-3.6935667991638184
 30
148.0
 11
-62.838531494140625
 21
-4.608299255371094
 31
148.0
 12
-62.65403366088867
 22
-5.42664909362793
 32
148.0
 13
-62.65403366088867
 23
-5.42664909362793
 33
148.0
  0
3DFACE
  8
0
 10
-62.737213134765625
 20
-2.313394784927368
 30
148.0
 11
-62.918399810791016
 21
-3.329371929168701
 31
148.0
 12
-62.93791198730469
 22
-3.6935667991638184
 32
148.0
 13
-62.93791198730469
 23
-3.6935667991638184
 33
148.0
  0
3DFACE
  8
0
 10
-61.07877731323242
 20
0.6131493449211121
 30
148.0
 11
-62.335693359375
 21
-1.1216779947280884
 31
148.0
 12
-62.737213134765625
 22
-2.313394784927368
 32
148.0
 13
-62.737213134765625
 23
-2.313394784927368
 33
148.0
  0
3DFACE
  8
0
 10
-59.210655212402344
 20
2.004857301712036
 30
148.0
 11
-59.3203239440918
 21
1.9471756219863892
 31
148.0
 12
-61.07877731323242
 22
0.6131493449211121
 32
148.0
 13
-61.07877731323242
 23
0.6131493449211121
 33
148.0
  0
3DFACE
  8
0
 10
-58.18543243408203
 20
2.469663619995117
 30
148.0
 11
-58.456783294677734
 21
2.3498141765594482
 31
148.0
 12
-59.104820251464844
 22
2.0510787963867188
 32
148.0
 13
-59.104820251464844
 23
2.0510787963867188
 33
148.0
  0
3DFACE
  8
0
 10
-59.104820251464844
 20
2.0510787963867188
 30
148.0
 11
-59.210655212402344
 21
2.004857301712036
 31
148.0
 12
-61.07877731323242
 22
0.6131493449211121
 32
148.0
 13
-61.07877731323242
 23
0.6131493449211121
 33
148.0
  0
3DFACE
  8
0
 10
-61.07877731323242
 20
0.6131493449211121
 30
148.0
 11
-62.737213134765625
 21
-2.313394784927368
 31
148.0
 12
-62.93791198730469
 22
-3.6935667991638184
 32
148.0
 13
-62.93791198730469
 23
-3.6935667991638184
 33
148.0
  0
3DFACE
  8
0
 10
-62.93791198730469
 20
-3.6935667991638184
 30
148.0
 11
-62.65403366088867
 21
-5.42664909362793
 31
148.0
 12
-61.6999397277832
 22
-7.417446136474609
 32
148.0
 13
-61.6999397277832
 23
-7.417446136474609
 33
148.0
  0
3DFACE
  8
0
 10
-61.6999397277832
 20
-7.417446136474609
 30
148.0
 11
-60.18882751464844
 21
-8.985057830810547
 31
148.0
 12
-56.46556854248047
 22
-10.89502239227295
 32
148.0
 13
-56.46556854248047
 23
-10.89502239227295
 33
148.0
  0
3DFACE
  8
0
 10
-56.46556854248047
 20
-10.89502239227295
 30
148.0
 11
-54.722476959228516
 21
-11.216806411743164
 31
148.0
 12
-52.966819763183594
 22
-11.27745246887207
 32
148.0
 13
-52.966819763183594
 23
-11.27745246887207
 33
148.0
  0
3DFACE
  8
0
 10
-52.966819763183594
 20
-11.27745246887207
 30
148.0
 11
-51.809505462646484
 21
-11.114211082458496
 31
148.0
 12
-51.029029846191406
 22
-10.974992752075195
 32
148.0
 13
-51.029029846191406
 23
-10.974992752075195
 33
148.0
  0
3DFACE
  8
0
 10
-51.029029846191406
 20
-10.974992752075195
 30
148.0
 11
-50.625389099121094
 21
-10.892151832580566
 31
148.0
 12
-50.24855422973633
 22
-10.766593933105469
 32
148.0
 13
-50.24855422973633
 23
-10.766593933105469
 33
148.0
  0
3DFACE
  8
0
 10
-50.24855422973633
 20
-10.766593933105469
 30
148.0
 11
-49.84490966796875
 21
-10.672163009643555
 31
148.0
 12
-49.441261291503906
 22
-10.526869773864746
 32
148.0
 13
-49.441261291503906
 23
-10.526869773864746
 33
148.0
  0
3DFACE
  8
0
 10
-49.441261291503906
 20
-10.526869773864746
 30
148.0
 11
-49.2476692199707
 21
-10.445966720581055
 31
148.0
 12
-49.064422607421875
 22
-10.361855506896973
 32
148.0
 13
-49.064422607421875
 23
-10.361855506896973
 33
148.0
  0
3DFACE
  8
0
 10
-48.68758773803711
 20
-10.174324035644531
 30
148.0
 11
-48.28394317626953
 21
-10.00964069366455
 31
148.0
 12
-47.94405746459961
 22
-9.8264741897583
 32
148.0
 13
-47.94405746459961
 23
-9.8264741897583
 33
148.0
  0
3DFACE
  8
0
 10
-49.441261291503906
 20
-10.526869773864746
 30
148.0
 11
-49.064422607421875
 21
-10.361855506896973
 31
148.0
 12
-48.68758773803711
 22
-10.174324035644531
 32
148.0
 13
-48.68758773803711
 23
-10.174324035644531
 33
148.0
  0
3DFACE
  8
0
 10
-51.029029846191406
 20
-10.974992752075195
 30
148.0
 11
-50.24855422973633
 21
-10.766593933105469
 31
148.0
 12
-49.441261291503906
 22
-10.526869773864746
 32
148.0
 13
-49.441261291503906
 23
-10.526869773864746
 33
148.0
  0
3DFACE
  8
0
 10
-56.46556854248047
 20
-10.89502239227295
 30
148.0
 11
-52.966819763183594
 21
-11.27745246887207
 31
148.0
 12
-51.029029846191406
 22
-10.974992752075195
 32
148.0
 13
-51.029029846191406
 23
-10.974992752075195
 33
148.0
  0
3DFACE
  8
0
 10
-62.93791198730469
 20
-3.6935667991638184
 30
148.0
 11
-61.6999397277832
 21
-7.417446136474609
 31
148.0
 12
-56.46556854248047
 22
-10.89502239227295
 32
148.0
 13
-56.46556854248047
 23
-10.89502239227295
 33
148.0
  0
3DFACE
  8
0
 10
-59.104820251464844
 20
2.0510787963867188
 30
148.0
 11
-61.07877731323242
 21
0.6131493449211121
 31
148.0
 12
-62.93791198730469
 22
-3.6935667991638184
 32
148.0
 13
-62.93791198730469
 23
-3.6935667991638184
 33
148.0
  0
3DFACE
  8
0
 10
-57.65050506591797
 20
2.7447078227996826
 30
148.0
 11
-57.690738677978516
 21
2.7274298667907715
 31
148.0
 12
-58.18543243408203
 22
2.469663619995117
 32
148.0
 13
-58.18543243408203
 23
2.469663619995117
 33
148.0
  0
3DFACE
  8
0
 10
-58.18543243408203
 20
2.469663619995117
 30
148.0
 11
-59.104820251464844
 21
2.0510787963867188
 31
148.0
 12
-62.93791198730469
 22
-3.6935667991638184
 32
148.0
 13
-62.93791198730469
 23
-3.6935667991638184
 33
148.0
  0
3DFACE
  8
0
 10
-62.93791198730469
 20
-3.6935667991638184
 30
148.0
 11
-56.46556854248047
 21
-10.89502239227295
 31
148.0
 12
-51.029029846191406
 22
-10.974992752075195
 32
148.0
 13
-51.029029846191406
 23
-10.974992752075195
 33
148.0
  0
3DFACE
  8
0
 10
-51.029029846191406
 20
-10.974992752075195
 30
148.0
 11
-49.441261291503906
 21
-10.526869773864746
 31
148.0
 12
-48.68758773803711
 22
-10.174324035644531
 32
148.0
 13
-48.68758773803711
 23
-10.174324035644531
 33
148.0
  0
3DFACE
  8
0
 10
-48.68758773803711
 20
-10.174324035644531
 30
148.0
 11
-47.94405746459961
 21
-9.8264741897583
 31
148.0
 12
-47.768821716308594
 22
-9.721282958984375
 32
148.0
 13
-47.768821716308594
 23
-9.721282958984375
 33
148.0
  0
3DFACE
  8
0
 10
-47.56722640991211
 20
-9.582386016845703
 30
148.0
 11
-46.98741912841797
 21
-9.216601371765137
 31
148.0
 12
-46.63414001464844
 22
-8.96014404296875
 32
148.0
 13
-46.63414001464844
 23
-8.96014404296875
 33
148.0
  0
3DFACE
  8
0
 10
-48.68758773803711
 20
-10.174324035644531
 30
148.0
 11
-47.768821716308594
 21
-9.721282958984375
 31
148.0
 12
-47.56722640991211
 22
-9.582386016845703
 32
148.0
 13
-47.56722640991211
 23
-9.582386016845703
 33
148.0
  0
3DFACE
  8
0
 10
-62.93791198730469
 20
-3.6935667991638184
 30
148.0
 11
-51.029029846191406
 21
-10.974992752075195
 31
148.0
 12
-48.68758773803711
 22
-10.174324035644531
 32
148.0
 13
-48.68758773803711
 23
-10.174324035644531
 33
148.0
  0
3DFACE
  8
0
 10
-57.65050506591797
 20
2.7447078227996826
 30
148.0
 11
-58.18543243408203
 21
2.469663619995117
 31
148.0
 12
-62.93791198730469
 22
-3.6935667991638184
 32
148.0
 13
-62.93791198730469
 23
-3.6935667991638184
 33
148.0
  0
3DFACE
  8
0
 10
-57.10090637207031
 20
2.943298816680908
 30
148.0
 11
-57.65050506591797
 21
2.7447078227996826
 31
148.0
 12
-62.93791198730469
 22
-3.6935667991638184
 32
148.0
 13
-62.93791198730469
 23
-3.6935667991638184
 33
148.0
  0
3DFACE
  8
0
 10
-62.93791198730469
 20
-3.6935667991638184
 30
148.0
 11
-48.68758773803711
 21
-10.174324035644531
 31
148.0
 12
-47.56722640991211
 22
-9.582386016845703
 32
148.0
 13
-47.56722640991211
 23
-9.582386016845703
 33
148.0
  0
3DFACE
  8
0
 10
-47.56722640991211
 20
-9.582386016845703
 30
148.0
 11
-46.63414001464844
 21
-8.96014404296875
 31
148.0
 12
-46.342899322509766
 22
-8.733932495117188
 32
148.0
 13
-46.342899322509766
 23
-8.733932495117188
 33
148.0
  0
3DFACE
  8
0
 10
-46.342899322509766
 20
-8.733932495117188
 30
148.0
 11
-45.722007751464844
 21
-8.198186874389648
 31
148.0
 12
-45.3570442199707
 22
-7.8068695068359375
 32
148.0
 13
-45.3570442199707
 23
-7.8068695068359375
 33
148.0
  0
3DFACE
  8
0
 10
-45.3570442199707
 20
-7.8068695068359375
 30
148.0
 11
-44.9548225402832
 21
-7.413868427276611
 31
148.0
 12
-44.61341857910156
 22
-7.020868301391602
 32
148.0
 13
-44.61341857910156
 23
-7.020868301391602
 33
148.0
  0
3DFACE
  8
0
 10
-44.61341857910156
 20
-7.020868301391602
 30
148.0
 11
-44.33473587036133
 21
-6.637230396270752
 31
148.0
 12
-44.118003845214844
 22
-6.2603960037231445
 32
148.0
 13
-44.118003845214844
 23
-6.2603960037231445
 33
148.0
  0
3DFACE
  8
0
 10
-44.118003845214844
 20
-6.2603960037231445
 30
148.0
 11
-43.907466888427734
 21
-5.856751441955566
 31
148.0
 12
-43.775211334228516
 22
-5.4583587646484375
 32
148.0
 13
-43.775211334228516
 23
-5.4583587646484375
 33
148.0
  0
3DFACE
  8
0
 10
-43.775211334228516
 20
-5.4583587646484375
 30
148.0
 11
-43.621673583984375
 21
-5.076273441314697
 31
148.0
 12
-43.4305534362793
 22
-4.295794486999512
 32
148.0
 13
-43.4305534362793
 23
-4.295794486999512
 33
148.0
  0
3DFACE
  8
0
 10
-43.40877914428711
 20
-3.542126178741455
 30
148.0
 11
-43.362449645996094
 21
-3.0663676261901855
 31
148.0
 12
-43.382266998291016
 22
-2.7348380088806152
 32
148.0
 13
-43.382266998291016
 23
-2.7348380088806152
 33
148.0
  0
3DFACE
  8
0
 10
-43.775211334228516
 20
-5.4583587646484375
 30
148.0
 11
-43.4305534362793
 21
-4.295794486999512
 31
148.0
 12
-43.40877914428711
 22
-3.542126178741455
 32
148.0
 13
-43.40877914428711
 23
-3.542126178741455
 33
148.0
  0
3DFACE
  8
0
 10
-44.61341857910156
 20
-7.020868301391602
 30
148.0
 11
-44.118003845214844
 21
-6.2603960037231445
 31
148.0
 12
-43.775211334228516
 22
-5.4583587646484375
 32
148.0
 13
-43.775211334228516
 23
-5.4583587646484375
 33
148.0
  0
3DFACE
  8
0
 10
-46.342899322509766
 20
-8.733932495117188
 30
148.0
 11
-45.3570442199707
 21
-7.8068695068359375
 31
148.0
 12
-44.61341857910156
 22
-7.020868301391602
 32
148.0
 13
-44.61341857910156
 23
-7.020868301391602
 33
148.0
  0
3DFACE
  8
0
 10
-62.93791198730469
 20
-3.6935667991638184
 30
148.0
 11
-47.56722640991211
 21
-9.582386016845703
 31
148.0
 12
-46.342899322509766
 22
-8.733932495117188
 32
148.0
 13
-46.342899322509766
 23
-8.733932495117188
 33
148.0
  0
3DFACE
  8
0
 10
-56.491310119628906
 20
3.176434278488159
 30
148.0
 11
-57.10090637207031
 21
2.943298816680908
 31
148.0
 12
-62.93791198730469
 22
-3.6935667991638184
 32
148.0
 13
-62.93791198730469
 23
-3.6935667991638184
 33
148.0
  0
3DFACE
  8
0
 10
-55.48328399658203
 20
3.5329127311706543
 30
148.0
 11
-56.08873748779297
 21
3.3415536880493164
 31
148.0
 12
-56.491310119628906
 22
3.176434278488159
 32
148.0
 13
-56.491310119628906
 23
3.176434278488159
 33
148.0
  0
3DFACE
  8
0
 10
-54.95820999145508
 20
3.6087379455566406
 30
148.0
 11
-55.308258056640625
 21
3.566194534301758
 31
148.0
 12
-55.48328399658203
 22
3.5329127311706543
 32
148.0
 13
-55.48328399658203
 23
3.5329127311706543
 33
148.0
  0
3DFACE
  8
0
 10
-53.37046432495117
 20
3.815993070602417
 30
148.0
 11
-53.74729919433594
 21
3.8180861473083496
 31
148.0
 12
-54.95820999145508
 22
3.6087379455566406
 32
148.0
 13
-54.95820999145508
 23
3.6087379455566406
 33
148.0
  0
3DFACE
  8
0
 10
-52.58998489379883
 20
3.820050001144409
 30
148.0
 11
-52.966819763183594
 21
3.841233015060425
 31
148.0
 12
-53.37046432495117
 22
3.815993070602417
 32
148.0
 13
-53.37046432495117
 23
3.815993070602417
 33
148.0
  0
3DFACE
  8
0
 10
-51.809505462646484
 20
3.7738168239593506
 30
148.0
 11
-52.18634033203125
 21
3.82277250289917
 31
148.0
 12
-52.58998489379883
 22
3.820050001144409
 32
148.0
 13
-52.58998489379883
 23
3.820050001144409
 33
148.0
  0
3DFACE
  8
0
 10
-51.029029846191406
 20
3.6892783641815186
 30
148.0
 11
-51.405860900878906
 21
3.757002353668213
 31
148.0
 12
-51.809505462646484
 22
3.7738168239593506
 32
148.0
 13
-51.809505462646484
 23
3.7738168239593506
 33
148.0
  0
3DFACE
  8
0
 10
-50.29270553588867
 20
3.5552151203155518
 30
148.0
 11
-50.625389099121094
 21
3.6444151401519775
 31
148.0
 12
-51.029029846191406
 22
3.6892783641815186
 32
148.0
 13
-51.029029846191406
 23
3.6892783641815186
 33
148.0
  0
3DFACE
  8
0
 10
-49.46807098388672
 20
3.3069071769714355
 30
148.0
 11
-49.889060974121094
 21
3.461658000946045
 31
148.0
 12
-50.29270553588867
 22
3.5552151203155518
 32
148.0
 13
-50.29270553588867
 23
3.5552151203155518
 33
148.0
  0
3DFACE
  8
0
 10
-48.68758773803711
 20
3.0323870182037354
 30
148.0
 11
-49.064422607421875
 21
3.191041946411133
 31
148.0
 12
-49.46807098388672
 22
3.3069071769714355
 32
148.0
 13
-49.46807098388672
 23
3.3069071769714355
 33
148.0
  0
3DFACE
  8
0
 10
-47.88030242919922
 20
2.7085280418395996
 30
148.0
 11
-48.28394317626953
 21
2.879800796508789
 31
148.0
 12
-48.68758773803711
 22
3.0323870182037354
 32
148.0
 13
-48.68758773803711
 23
3.0323870182037354
 33
148.0
  0
3DFACE
  8
0
 10
-47.11769485473633
 20
2.287970542907715
 30
148.0
 11
-47.50347137451172
 21
2.5126819610595703
 31
148.0
 12
-47.88030242919922
 22
2.7085280418395996
 32
148.0
 13
-47.88030242919922
 23
2.7085280418395996
 33
148.0
  0
3DFACE
  8
0
 10
-46.5074462890625
 20
1.9787392616271973
 30
148.0
 11
-46.71405029296875
 21
2.093428611755371
 31
148.0
 12
-47.11769485473633
 22
2.287970542907715
 32
148.0
 13
-47.11769485473633
 23
2.287970542907715
 33
148.0
  0
3DFACE
  8
0
 10
-45.51162338256836
 20
1.3391813039779663
 30
148.0
 11
-45.94251251220703
 21
1.6240872144699097
 31
148.0
 12
-46.5074462890625
 22
1.9787392616271973
 32
148.0
 13
-46.5074462890625
 23
1.9787392616271973
 33
148.0
  0
3DFACE
  8
0
 10
-44.83824157714844
 20
0.718766987323761
 30
148.0
 11
-45.312259674072266
 21
1.1879898309707642
 31
148.0
 12
-45.51162338256836
 22
1.3391813039779663
 32
148.0
 13
-45.51162338256836
 23
1.3391813039779663
 33
148.0
  0
3DFACE
  8
0
 10
-44.52251434326172
 20
0.3870755434036255
 30
148.0
 11
-44.68203353881836
 21
0.5587113499641418
 31
148.0
 12
-44.83824157714844
 22
0.718766987323761
 32
148.0
 13
-44.83824157714844
 23
0.718766987323761
 33
148.0
  0
3DFACE
  8
0
 10
-43.84822082519531
 20
-0.7702370882034302
 30
148.0
 11
-44.004432678222656
 21
-0.39340299367904663
 31
148.0
 12
-44.33332824707031
 22
0.07966718822717667
 32
148.0
 13
-44.33332824707031
 23
0.07966718822717667
 33
148.0
  0
3DFACE
  8
0
 10
-44.33332824707031
 20
0.07966718822717667
 30
148.0
 11
-44.52251434326172
 21
0.3870755434036255
 31
148.0
 12
-44.83824157714844
 22
0.718766987323761
 32
148.0
 13
-44.83824157714844
 23
0.718766987323761
 33
148.0
  0
3DFACE
  8
0
 10
-44.83824157714844
 20
0.718766987323761
 30
148.0
 11
-45.51162338256836
 21
1.3391813039779663
 31
148.0
 12
-46.5074462890625
 22
1.9787392616271973
 32
148.0
 13
-46.5074462890625
 23
1.9787392616271973
 33
148.0
  0
3DFACE
  8
0
 10
-47.11769485473633
 20
2.287970542907715
 30
148.0
 11
-47.88030242919922
 21
2.7085280418395996
 31
148.0
 12
-48.68758773803711
 22
3.0323870182037354
 32
148.0
 13
-48.68758773803711
 23
3.0323870182037354
 33
148.0
  0
3DFACE
  8
0
 10
-44.83824157714844
 20
0.718766987323761
 30
148.0
 11
-46.5074462890625
 21
1.9787392616271973
 31
148.0
 12
-47.11769485473633
 22
2.287970542907715
 32
148.0
 13
-47.11769485473633
 23
2.287970542907715
 33
148.0
  0
3DFACE
  8
0
 10
-43.84822082519531
 20
-0.7702370882034302
 30
148.0
 11
-44.33332824707031
 21
0.07966718822717667
 31
148.0
 12
-44.83824157714844
 22
0.718766987323761
 32
148.0
 13
-44.83824157714844
 23
0.718766987323761
 33
148.0
  0
3DFACE
  8
0
 10
-43.63031768798828
 20
-1.3756992816925049
 30
148.0
 11
-43.69163131713867
 21
-1.1738810539245605
 31
148.0
 12
-43.84822082519531
 22
-0.7702370882034302
 32
148.0
 13
-43.84822082519531
 23
-0.7702370882034302
 33
148.0
  0
3DFACE
  8
0
 10
-43.450782775878906
 20
-2.2100820541381836
 30
148.0
 11
-43.48029327392578
 21
-1.954359769821167
 31
148.0
 12
-43.63031768798828
 22
-1.3756992816925049
 32
148.0
 13
-43.63031768798828
 23
-1.3756992816925049
 33
148.0
  0
3DFACE
  8
0
 10
-43.40877914428711
 20
-3.542126178741455
 30
148.0
 11
-43.382266998291016
 21
-2.7348380088806152
 31
148.0
 12
-43.450782775878906
 22
-2.2100820541381836
 32
148.0
 13
-43.450782775878906
 23
-2.2100820541381836
 33
148.0
  0
3DFACE
  8
0
 10
-44.61341857910156
 20
-7.020868301391602
 30
148.0
 11
-43.775211334228516
 21
-5.4583587646484375
 31
148.0
 12
-43.40877914428711
 22
-3.542126178741455
 32
148.0
 13
-43.40877914428711
 23
-3.542126178741455
 33
148.0
  0
3DFACE
  8
0
 10
-62.93791198730469
 20
-3.6935667991638184
 30
148.0
 11
-46.342899322509766
 21
-8.733932495117188
 31
148.0
 12
-44.61341857910156
 22
-7.020868301391602
 32
148.0
 13
-44.61341857910156
 23
-7.020868301391602
 33
148.0
  0
3DFACE
  8
0
 10
-55.48328399658203
 20
3.5329127311706543
 30
148.0
 11
-56.491310119628906
 21
3.176434278488159
 31
148.0
 12
-62.93791198730469
 22
-3.6935667991638184
 32
148.0
 13
-62.93791198730469
 23
-3.6935667991638184
 33
148.0
  0
3DFACE
  8
0
 10
-53.37046432495117
 20
3.815993070602417
 30
148.0
 11
-54.95820999145508
 21
3.6087379455566406
 31
148.0
 12
-55.48328399658203
 22
3.5329127311706543
 32
148.0
 13
-55.48328399658203
 23
3.5329127311706543
 33
148.0
  0
3DFACE
  8
0
 10
-51.809505462646484
 20
3.7738168239593506
 30
148.0
 11
-52.58998489379883
 21
3.820050001144409
 31
148.0
 12
-53.37046432495117
 22
3.815993070602417
 32
148.0
 13
-53.37046432495117
 23
3.815993070602417
 33
148.0
  0
3DFACE
  8
0
 10
-50.29270553588867
 20
3.5552151203155518
 30
148.0
 11
-51.029029846191406
 21
3.6892783641815186
 31
148.0
 12
-51.809505462646484
 22
3.7738168239593506
 32
148.0
 13
-51.809505462646484
 23
3.7738168239593506
 33
148.0
  0
3DFACE
  8
0
 10
-48.68758773803711
 20
3.0323870182037354
 30
148.0
 11
-49.46807098388672
 21
3.3069071769714355
 31
148.0
 12
-50.29270553588867
 22
3.5552151203155518
 32
148.0
 13
-50.29270553588867
 23
3.5552151203155518
 33
148.0
  0
3DFACE
  8
0
 10
-44.83824157714844
 20
0.718766987323761
 30
148.0
 11
-47.11769485473633
 21
2.287970542907715
 31
148.0
 12
-48.68758773803711
 22
3.0323870182037354
 32
148.0
 13
-48.68758773803711
 23
3.0323870182037354
 33
148.0
  0
3DFACE
  8
0
 10
-43.63031768798828
 20
-1.3756992816925049
 30
148.0
 11
-43.84822082519531
 21
-0.7702370882034302
 31
148.0
 12
-44.83824157714844
 22
0.718766987323761
 32
148.0
 13
-44.83824157714844
 23
0.718766987323761
 33
148.0
  0
3DFACE
  8
0
 10
-43.40877914428711
 20
-3.542126178741455
 30
148.0
 11
-43.450782775878906
 21
-2.2100820541381836
 31
148.0
 12
-43.63031768798828
 22
-1.3756992816925049
 32
148.0
 13
-43.63031768798828
 23
-1.3756992816925049
 33
148.0
  0
3DFACE
  8
0
 10
-62.93791198730469
 20
-3.6935667991638184
 30
148.0
 11
-44.61341857910156
 21
-7.020868301391602
 31
148.0
 12
-43.40877914428711
 22
-3.542126178741455
 32
148.0
 13
-43.40877914428711
 23
-3.542126178741455
 33
148.0
  0
3DFACE
  8
0
 10
-53.37046432495117
 20
3.815993070602417
 30
148.0
 11
-55.48328399658203
 21
3.5329127311706543
 31
148.0
 12
-62.93791198730469
 22
-3.6935667991638184
 32
148.0
 13
-62.93791198730469
 23
-3.6935667991638184
 33
148.0
  0
3DFACE
  8
0
 10
-50.29270553588867
 20
3.5552151203155518
 30
148.0
 11
-51.809505462646484
 21
3.7738168239593506
 31
148.0
 12
-53.37046432495117
 22
3.815993070602417
 32
148.0
 13
-53.37046432495117
 23
3.815993070602417
 33
148.0
  0
3DFACE
  8
0
 10
-44.83824157714844
 20
0.718766987323761
 30
148.0
 11
-48.68758773803711
 21
3.0323870182037354
 31
148.0
 12
-50.29270553588867
 22
3.5552151203155518
 32
148.0
 13
-50.29270553588867
 23
3.5552151203155518
 33
148.0
  0
3DFACE
  8
0
 10
-43.40877914428711
 20
-3.542126178741455
 30
148.0
 11
-43.63031768798828
 21
-1.3756992816925049
 31
148.0
 12
-44.83824157714844
 22
0.718766987323761
 32
148.0
 13
-44.83824157714844
 23
0.718766987323761
 33
148.0
  0
3DFACE
  8
0
 10
-53.37046432495117
 20
3.815993070602417
 30
148.0
 11
-62.93791198730469
 21
-3.6935667991638184
 31
148.0
 12
-43.40877914428711
 22
-3.542126178741455
 32
148.0
 13
-43.40877914428711
 23
-3.542126178741455
 33
148.0
  0
3DFACE
  8
0
 10
-44.83824157714844
 20
0.718766987323761
 30
148.0
 11
-50.29270553588867
 21
3.5552151203155518
 31
148.0
 12
-53.37046432495117
 22
3.815993070602417
 32
148.0
 13
-53.37046432495117
 23
3.815993070602417
 33
148.0
  0
3DFACE
  8
0
 10
-43.40877914428711
 20
-3.542126178741455
 30
148.0
 11
-44.83824157714844
 21
0.718766987323761
 31
148.0
 12
-53.37046432495117
 22
3.815993070602417
 32
148.0
 13
-53.37046432495117
 23
3.815993070602417
 33
148.0
  0
3DFACE
  8
0
 10
-50.918724060058594
 20
43.41153335571289
 30
148.0
 11
-50.9090576171875
 21
43.28485870361328
 31
148.0
 12
-50.83182144165039
 22
42.606964111328125
 32
148.0
 13
-50.83182144165039
 23
42.606964111328125
 33
148.0
  0
3DFACE
  8
0
 10
-50.7523307800293
 20
42.24599075317383
 30
148.0
 11
-50.68683624267578
 21
41.810455322265625
 31
148.0
 12
-50.433448791503906
 22
41.05558395385742
 32
148.0
 13
-50.433448791503906
 23
41.05558395385742
 33
148.0
  0
3DFACE
  8
0
 10
-50.918724060058594
 20
43.41153335571289
 30
148.0
 11
-50.83182144165039
 21
42.606964111328125
 31
148.0
 12
-50.7523307800293
 22
42.24599075317383
 32
148.0
 13
-50.7523307800293
 23
42.24599075317383
 33
148.0
  0
3DFACE
  8
0
 10
-50.89862823486328
 20
44.7637825012207
 30
148.0
 11
-50.93968963623047
 21
44.23221206665039
 31
148.0
 12
-50.915409088134766
 22
43.4688606262207
 32
148.0
 13
-50.915409088134766
 23
43.4688606262207
 33
148.0
  0
3DFACE
  8
0
 10
-50.915409088134766
 20
43.4688606262207
 30
148.0
 11
-50.918724060058594
 21
43.41153335571289
 31
148.0
 12
-50.7523307800293
 22
42.24599075317383
 32
148.0
 13
-50.7523307800293
 23
42.24599075317383
 33
148.0
  0
3DFACE
  8
0
 10
-50.433448791503906
 20
41.05558395385742
 30
148.0
 11
-50.42632293701172
 21
41.025146484375
 31
148.0
 12
-50.41802215576172
 22
40.997859954833984
 32
148.0
 13
-50.41802215576172
 23
40.997859954833984
 33
148.0
  0
3DFACE
  8
0
 10
-50.915409088134766
 20
43.4688606262207
 30
148.0
 11
-50.7523307800293
 21
42.24599075317383
 31
148.0
 12
-50.433448791503906
 22
41.05558395385742
 32
148.0
 13
-50.433448791503906
 23
41.05558395385742
 33
148.0
  0
3DFACE
  8
0
 10
-50.858524322509766
 20
45.02062225341797
 30
148.0
 11
-50.89862823486328
 21
44.7637825012207
 31
148.0
 12
-50.915409088134766
 22
43.4688606262207
 32
148.0
 13
-50.915409088134766
 23
43.4688606262207
 33
148.0
  0
3DFACE
  8
0
 10
-50.68389892578125
 20
45.82517623901367
 30
148.0
 11
-50.78425216674805
 21
45.43035125732422
 31
148.0
 12
-50.858524322509766
 22
45.02062225341797
 32
148.0
 13
-50.858524322509766
 23
45.02062225341797
 33
148.0
  0
3DFACE
  8
0
 10
-50.43766403198242
 20
46.545616149902344
 30
148.0
 11
-50.4608039855957
 21
46.485145568847656
 31
148.0
 12
-50.68389892578125
 22
45.82517623901367
 32
148.0
 13
-50.68389892578125
 23
45.82517623901367
 33
148.0
  0
3DFACE
  8
0
 10
-50.326637268066406
 20
46.76325607299805
 30
148.0
 11
-50.40142822265625
 21
46.62972640991211
 31
148.0
 12
-50.43766403198242
 22
46.545616149902344
 32
148.0
 13
-50.43766403198242
 23
46.545616149902344
 33
148.0
  0
3DFACE
  8
0
 10
-49.89054489135742
 20
47.607139587402344
 30
148.0
 11
-50.00008773803711
 21
47.4068489074707
 31
148.0
 12
-50.326637268066406
 22
46.76325607299805
 32
148.0
 13
-50.326637268066406
 23
46.76325607299805
 33
148.0
  0
3DFACE
  8
0
 10
-49.47149658203125
 20
48.26686477661133
 30
148.0
 11
-49.719146728515625
 21
47.88561248779297
 31
148.0
 12
-49.89054489135742
 22
47.607139587402344
 32
148.0
 13
-49.89054489135742
 23
47.607139587402344
 33
148.0
  0
3DFACE
  8
0
 10
-48.87416458129883
 20
49.04338836669922
 30
148.0
 11
-49.0087890625
 21
48.88009262084961
 31
148.0
 12
-49.47149658203125
 22
48.26686477661133
 32
148.0
 13
-49.47149658203125
 23
48.26686477661133
 33
148.0
  0
3DFACE
  8
0
 10
-48.2425651550293
 20
49.75403594970703
 30
148.0
 11
-48.34879684448242
 21
49.64551544189453
 31
148.0
 12
-48.87416458129883
 22
49.04338836669922
 32
148.0
 13
-48.87416458129883
 23
49.04338836669922
 33
148.0
  0
3DFACE
  8
0
 10
-47.47722244262695
 20
50.46858596801758
 30
148.0
 11
-47.74472427368164
 21
50.24184799194336
 31
148.0
 12
-48.2425651550293
 22
49.75403594970703
 32
148.0
 13
-48.2425651550293
 23
49.75403594970703
 33
148.0
  0
3DFACE
  8
0
 10
-46.22876739501953
 20
51.35866928100586
 30
148.0
 11
-46.974029541015625
 21
50.8685417175293
 31
148.0
 12
-47.47722244262695
 22
50.46858596801758
 32
148.0
 13
-47.47722244262695
 23
50.46858596801758
 33
148.0
  0
3DFACE
  8
0
 10
-45.12911605834961
 20
51.8585319519043
 30
148.0
 11
-45.431575775146484
 21
51.753440856933594
 31
148.0
 12
-46.22876739501953
 22
51.35866928100586
 32
148.0
 13
-46.22876739501953
 23
51.35866928100586
 33
148.0
  0
3DFACE
  8
0
 10
-44.27250671386719
 20
52.11475372314453
 30
148.0
 11
-44.83720779418945
 21
51.95490646362305
 31
148.0
 12
-45.12911605834961
 22
51.8585319519043
 32
148.0
 13
-45.12911605834961
 23
51.8585319519043
 33
148.0
  0
3DFACE
  8
0
 10
-43.52422332763672
 20
52.215904235839844
 30
148.0
 11
-44.22132110595703
 21
52.12439727783203
 31
148.0
 12
-44.27250671386719
 22
52.11475372314453
 32
148.0
 13
-44.27250671386719
 23
52.11475372314453
 33
148.0
  0
3DFACE
  8
0
 10
-42.712459564208984
 20
52.256797790527344
 30
148.0
 11
-42.883079528808594
 21
52.258567810058594
 31
148.0
 12
-43.52422332763672
 22
52.215904235839844
 32
148.0
 13
-43.52422332763672
 23
52.215904235839844
 33
148.0
  0
3DFACE
  8
0
 10
-41.827693939208984
 20
52.184120178222656
 30
148.0
 11
-41.89314651489258
 21
52.190521240234375
 31
148.0
 12
-42.712459564208984
 22
52.256797790527344
 32
148.0
 13
-42.712459564208984
 23
52.256797790527344
 33
148.0
  0
3DFACE
  8
0
 10
-41.07067108154297
 20
52.07845687866211
 30
148.0
 11
-41.13490295410156
 21
52.09309768676758
 31
148.0
 12
-41.827693939208984
 22
52.184120178222656
 32
148.0
 13
-41.827693939208984
 23
52.184120178222656
 33
148.0
  0
3DFACE
  8
0
 10
-39.37210464477539
 20
51.56990051269531
 30
148.0
 11
-40.242191314697266
 21
51.87959289550781
 31
148.0
 12
-40.944576263427734
 22
52.042442321777344
 32
148.0
 13
-40.944576263427734
 23
52.042442321777344
 33
148.0
  0
3DFACE
  8
0
 10
-40.944576263427734
 20
52.042442321777344
 30
148.0
 11
-41.07067108154297
 21
52.07845687866211
 31
148.0
 12
-41.827693939208984
 22
52.184120178222656
 32
148.0
 13
-41.827693939208984
 23
52.184120178222656
 33
148.0
  0
3DFACE
  8
0
 10
-41.827693939208984
 20
52.184120178222656
 30
148.0
 11
-42.712459564208984
 21
52.256797790527344
 31
148.0
 12
-43.52422332763672
 22
52.215904235839844
 32
148.0
 13
-43.52422332763672
 23
52.215904235839844
 33
148.0
  0
3DFACE
  8
0
 10
-43.52422332763672
 20
52.215904235839844
 30
148.0
 11
-44.27250671386719
 21
52.11475372314453
 31
148.0
 12
-45.12911605834961
 22
51.8585319519043
 32
148.0
 13
-45.12911605834961
 23
51.8585319519043
 33
148.0
  0
3DFACE
  8
0
 10
-45.12911605834961
 20
51.8585319519043
 30
148.0
 11
-46.22876739501953
 21
51.35866928100586
 31
148.0
 12
-47.47722244262695
 22
50.46858596801758
 32
148.0
 13
-47.47722244262695
 23
50.46858596801758
 33
148.0
  0
3DFACE
  8
0
 10
-47.47722244262695
 20
50.46858596801758
 30
148.0
 11
-48.2425651550293
 21
49.75403594970703
 31
148.0
 12
-48.87416458129883
 22
49.04338836669922
 32
148.0
 13
-48.87416458129883
 23
49.04338836669922
 33
148.0
  0
3DFACE
  8
0
 10
-48.87416458129883
 20
49.04338836669922
 30
148.0
 11
-49.47149658203125
 21
48.26686477661133
 31
148.0
 12
-49.89054489135742
 22
47.607139587402344
 32
148.0
 13
-49.89054489135742
 23
47.607139587402344
 33
148.0
  0
3DFACE
  8
0
 10
-49.89054489135742
 20
47.607139587402344
 30
148.0
 11
-50.326637268066406
 21
46.76325607299805
 31
148.0
 12
-50.43766403198242
 22
46.545616149902344
 32
148.0
 13
-50.43766403198242
 23
46.545616149902344
 33
148.0
  0
3DFACE
  8
0
 10
-50.43766403198242
 20
46.545616149902344
 30
148.0
 11
-50.68389892578125
 21
45.82517623901367
 31
148.0
 12
-50.858524322509766
 22
45.02062225341797
 32
148.0
 13
-50.858524322509766
 23
45.02062225341797
 33
148.0
  0
3DFACE
  8
0
 10
-50.858524322509766
 20
45.02062225341797
 30
148.0
 11
-50.915409088134766
 21
43.4688606262207
 31
148.0
 12
-50.433448791503906
 22
41.05558395385742
 32
148.0
 13
-50.433448791503906
 23
41.05558395385742
 33
148.0
  0
3DFACE
  8
0
 10
-50.433448791503906
 20
41.05558395385742
 30
148.0
 11
-50.41802215576172
 21
40.997859954833984
 31
148.0
 12
-50.36638641357422
 22
40.86025619506836
 32
148.0
 13
-50.36638641357422
 23
40.86025619506836
 33
148.0
  0
3DFACE
  8
0
 10
-50.36638641357422
 20
40.86025619506836
 30
148.0
 11
-50.184043884277344
 21
40.4017219543457
 31
148.0
 12
-49.99655532836914
 22
40.088993072509766
 32
148.0
 13
-49.99655532836914
 23
40.088993072509766
 33
148.0
  0
3DFACE
  8
0
 10
-49.81892395019531
 20
39.82103729248047
 30
148.0
 11
-49.55381393432617
 21
39.38875961303711
 31
148.0
 12
-49.172367095947266
 22
38.88966369628906
 32
148.0
 13
-49.172367095947266
 23
38.88966369628906
 33
148.0
  0
3DFACE
  8
0
 10
-50.36638641357422
 20
40.86025619506836
 30
148.0
 11
-49.99655532836914
 21
40.088993072509766
 31
148.0
 12
-49.81892395019531
 22
39.82103729248047
 32
148.0
 13
-49.81892395019531
 23
39.82103729248047
 33
148.0
  0
3DFACE
  8
0
 10
-50.858524322509766
 20
45.02062225341797
 30
148.0
 11
-50.433448791503906
 21
41.05558395385742
 31
148.0
 12
-50.36638641357422
 22
40.86025619506836
 32
148.0
 13
-50.36638641357422
 23
40.86025619506836
 33
148.0
  0
3DFACE
  8
0
 10
-49.89054489135742
 20
47.607139587402344
 30
148.0
 11
-50.43766403198242
 21
46.545616149902344
 31
148.0
 12
-50.858524322509766
 22
45.02062225341797
 32
148.0
 13
-50.858524322509766
 23
45.02062225341797
 33
148.0
  0
3DFACE
  8
0
 10
-47.47722244262695
 20
50.46858596801758
 30
148.0
 11
-48.87416458129883
 21
49.04338836669922
 31
148.0
 12
-49.89054489135742
 22
47.607139587402344
 32
148.0
 13
-49.89054489135742
 23
47.607139587402344
 33
148.0
  0
3DFACE
  8
0
 10
-43.52422332763672
 20
52.215904235839844
 30
148.0
 11
-45.12911605834961
 21
51.8585319519043
 31
148.0
 12
-47.47722244262695
 22
50.46858596801758
 32
148.0
 13
-47.47722244262695
 23
50.46858596801758
 33
148.0
  0
3DFACE
  8
0
 10
-40.944576263427734
 20
52.042442321777344
 30
148.0
 11
-41.827693939208984
 21
52.184120178222656
 31
148.0
 12
-43.52422332763672
 22
52.215904235839844
 32
148.0
 13
-43.52422332763672
 23
52.215904235839844
 33
148.0
  0
3DFACE
  8
0
 10
-39.07249450683594
 20
51.437469482421875
 30
148.0
 11
-39.37210464477539
 21
51.56990051269531
 31
148.0
 12
-40.944576263427734
 22
52.042442321777344
 32
148.0
 13
-40.944576263427734
 23
52.042442321777344
 33
148.0
  0
3DFACE
  8
0
 10
-37.83609390258789
 20
50.788612365722656
 30
148.0
 11
-38.78858947753906
 21
51.300682067871094
 31
148.0
 12
-39.07249450683594
 22
51.437469482421875
 32
148.0
 13
-39.07249450683594
 23
51.437469482421875
 33
148.0
  0
3DFACE
  8
0
 10
-37.182064056396484
 20
50.331871032714844
 30
148.0
 11
-37.71738052368164
 21
50.713253021240234
 31
148.0
 12
-37.83609390258789
 22
50.788612365722656
 32
148.0
 13
-37.83609390258789
 23
50.788612365722656
 33
148.0
  0
3DFACE
  8
0
 10
-36.235023498535156
 20
49.514644622802734
 30
148.0
 11
-36.85874938964844
 21
50.07792282104492
 31
148.0
 12
-37.182064056396484
 22
50.331871032714844
 32
148.0
 13
-37.182064056396484
 23
50.331871032714844
 33
148.0
  0
3DFACE
  8
0
 10
-35.85447311401367
 20
49.124149322509766
 30
148.0
 11
-35.986881256103516
 21
49.263126373291016
 31
148.0
 12
-36.235023498535156
 22
49.514644622802734
 32
148.0
 13
-36.235023498535156
 23
49.514644622802734
 33
148.0
  0
3DFACE
  8
0
 10
-35.128318786621094
 20
48.19517517089844
 30
148.0
 11
-35.27080535888672
 21
48.39064025878906
 31
148.0
 12
-35.85447311401367
 22
49.124149322509766
 32
148.0
 13
-35.85447311401367
 23
49.124149322509766
 33
148.0
  0
3DFACE
  8
0
 10
-34.53867721557617
 20
47.30792999267578
 30
148.0
 11
-34.61738967895508
 21
47.43427276611328
 31
148.0
 12
-34.83084487915039
 22
47.730979919433594
 32
148.0
 13
-34.83084487915039
 23
47.730979919433594
 33
148.0
  0
3DFACE
  8
0
 10
-34.83084487915039
 20
47.730979919433594
 30
148.0
 11
-35.128318786621094
 21
48.19517517089844
 31
148.0
 12
-35.85447311401367
 22
49.124149322509766
 32
148.0
 13
-35.85447311401367
 23
49.124149322509766
 33
148.0
  0
3DFACE
  8
0
 10
-35.85447311401367
 20
49.124149322509766
 30
148.0
 11
-36.235023498535156
 21
49.514644622802734
 31
148.0
 12
-37.182064056396484
 22
50.331871032714844
 32
148.0
 13
-37.182064056396484
 23
50.331871032714844
 33
148.0
  0
3DFACE
  8
0
 10
-37.182064056396484
 20
50.331871032714844
 30
148.0
 11
-37.83609390258789
 21
50.788612365722656
 31
148.0
 12
-39.07249450683594
 22
51.437469482421875
 32
148.0
 13
-39.07249450683594
 23
51.437469482421875
 33
148.0
  0
3DFACE
  8
0
 10
-39.07249450683594
 20
51.437469482421875
 30
148.0
 11
-40.944576263427734
 21
52.042442321777344
 31
148.0
 12
-43.52422332763672
 22
52.215904235839844
 32
148.0
 13
-43.52422332763672
 23
52.215904235839844
 33
148.0
  0
3DFACE
  8
0
 10
-43.52422332763672
 20
52.215904235839844
 30
148.0
 11
-47.47722244262695
 21
50.46858596801758
 31
148.0
 12
-49.89054489135742
 22
47.607139587402344
 32
148.0
 13
-49.89054489135742
 23
47.607139587402344
 33
148.0
  0
3DFACE
  8
0
 10
-49.89054489135742
 20
47.607139587402344
 30
148.0
 11
-50.858524322509766
 21
45.02062225341797
 31
148.0
 12
-50.36638641357422
 22
40.86025619506836
 32
148.0
 13
-50.36638641357422
 23
40.86025619506836
 33
148.0
  0
3DFACE
  8
0
 10
-50.36638641357422
 20
40.86025619506836
 30
148.0
 11
-49.81892395019531
 21
39.82103729248047
 31
148.0
 12
-49.172367095947266
 22
38.88966369628906
 32
148.0
 13
-49.172367095947266
 23
38.88966369628906
 33
148.0
  0
3DFACE
  8
0
 10
-49.172367095947266
 20
38.88966369628906
 30
148.0
 11
-49.00849151611328
 21
38.68539047241211
 31
148.0
 12
-48.63502883911133
 22
38.30368423461914
 32
148.0
 13
-48.63502883911133
 23
38.30368423461914
 33
148.0
  0
3DFACE
  8
0
 10
-48.63502883911133
 20
38.30368423461914
 30
148.0
 11
-48.190006256103516
 21
37.81953430175781
 31
148.0
 12
-48.00425720214844
 22
37.638267517089844
 32
148.0
 13
-48.00425720214844
 23
37.638267517089844
 33
148.0
  0
3DFACE
  8
0
 10
-47.6473274230957
 20
37.33012008666992
 30
148.0
 11
-47.42760467529297
 21
37.133056640625
 31
148.0
 12
-46.830726623535156
 22
36.63900375366211
 32
148.0
 13
-46.830726623535156
 23
36.63900375366211
 33
148.0
  0
3DFACE
  8
0
 10
-48.63502883911133
 20
38.30368423461914
 30
148.0
 11
-48.00425720214844
 21
37.638267517089844
 31
148.0
 12
-47.6473274230957
 22
37.33012008666992
 32
148.0
 13
-47.6473274230957
 23
37.33012008666992
 33
148.0
  0
3DFACE
  8
0
 10
-50.36638641357422
 20
40.86025619506836
 30
148.0
 11
-49.172367095947266
 21
38.88966369628906
 31
148.0
 12
-48.63502883911133
 22
38.30368423461914
 32
148.0
 13
-48.63502883911133
 23
38.30368423461914
 33
148.0
  0
3DFACE
  8
0
 10
-43.52422332763672
 20
52.215904235839844
 30
148.0
 11
-49.89054489135742
 21
47.607139587402344
 31
148.0
 12
-50.36638641357422
 22
40.86025619506836
 32
148.0
 13
-50.36638641357422
 23
40.86025619506836
 33
148.0
  0
3DFACE
  8
0
 10
-37.182064056396484
 20
50.331871032714844
 30
148.0
 11
-39.07249450683594
 21
51.437469482421875
 31
148.0
 12
-43.52422332763672
 22
52.215904235839844
 32
148.0
 13
-43.52422332763672
 23
52.215904235839844
 33
148.0
  0
3DFACE
  8
0
 10
-34.83084487915039
 20
47.730979919433594
 30
148.0
 11
-35.85447311401367
 21
49.124149322509766
 31
148.0
 12
-37.182064056396484
 22
50.331871032714844
 32
148.0
 13
-37.182064056396484
 23
50.331871032714844
 33
148.0
  0
3DFACE
  8
0
 10
-34.34617614746094
 20
46.93857192993164
 30
148.0
 11
-34.53867721557617
 21
47.30792999267578
 31
148.0
 12
-34.83084487915039
 22
47.730979919433594
 32
148.0
 13
-34.83084487915039
 23
47.730979919433594
 33
148.0
  0
3DFACE
  8
0
 10
-34.142578125
 20
46.46147918701172
 30
148.0
 11
-34.19922637939453
 21
46.63108444213867
 31
148.0
 12
-34.34617614746094
 22
46.93857192993164
 32
148.0
 13
-34.34617614746094
 23
46.93857192993164
 33
148.0
  0
3DFACE
  8
0
 10
-33.689353942871094
 20
45.02062225341797
 30
148.0
 11
-33.7989616394043
 21
45.51299285888672
 31
148.0
 12
-34.142578125
 22
46.46147918701172
 32
148.0
 13
-34.142578125
 23
46.46147918701172
 33
148.0
  0
3DFACE
  8
0
 10
-33.5456657409668
 20
44.216068267822266
 30
148.0
 11
-33.57984924316406
 21
44.44491195678711
 31
148.0
 12
-33.689353942871094
 22
45.02062225341797
 32
148.0
 13
-33.689353942871094
 23
45.02062225341797
 33
148.0
  0
3DFACE
  8
0
 10
-33.48965835571289
 20
42.9808349609375
 30
148.0
 11
-33.49806594848633
 21
43.61467361450195
 31
148.0
 12
-33.5456657409668
 22
44.216068267822266
 32
148.0
 13
-33.5456657409668
 23
44.216068267822266
 33
148.0
  0
3DFACE
  8
0
 10
-33.598663330078125
 20
41.80241394042969
 30
148.0
 11
-33.535160064697266
 21
42.291927337646484
 31
148.0
 12
-33.48965835571289
 22
42.9808349609375
 32
148.0
 13
-33.48965835571289
 23
42.9808349609375
 33
148.0
  0
3DFACE
  8
0
 10
-33.74929428100586
 20
40.959903717041016
 30
148.0
 11
-33.617366790771484
 21
41.61702346801758
 31
148.0
 12
-33.598663330078125
 22
41.80241394042969
 32
148.0
 13
-33.598663330078125
 23
41.80241394042969
 33
148.0
  0
3DFACE
  8
0
 10
-33.98646926879883
 20
40.19331741333008
 30
148.0
 11
-33.79274368286133
 21
40.8133659362793
 31
148.0
 12
-33.74929428100586
 22
40.959903717041016
 32
148.0
 13
-33.74929428100586
 23
40.959903717041016
 33
148.0
  0
3DFACE
  8
0
 10
-34.29375076293945
 20
39.38875961303711
 30
148.0
 11
-34.214447021484375
 21
39.57380294799805
 31
148.0
 12
-33.98646926879883
 22
40.19331741333008
 32
148.0
 13
-33.98646926879883
 23
40.19331741333008
 33
148.0
  0
3DFACE
  8
0
 10
-34.7397575378418
 20
38.580238342285156
 30
148.0
 11
-34.46267318725586
 21
39.03677749633789
 31
148.0
 12
-34.29375076293945
 22
39.38875961303711
 32
148.0
 13
-34.29375076293945
 23
39.38875961303711
 33
148.0
  0
3DFACE
  8
0
 10
-35.325828552246094
 20
37.7796630859375
 30
148.0
 11
-35.204261779785156
 21
37.929046630859375
 31
148.0
 12
-34.7397575378418
 22
38.580238342285156
 32
148.0
 13
-34.7397575378418
 23
38.580238342285156
 33
148.0
  0
3DFACE
  8
0
 10
-36.148311614990234
 20
36.972503662109375
 30
148.0
 11
-35.964439392089844
 21
37.139774322509766
 31
148.0
 12
-35.325828552246094
 22
37.7796630859375
 32
148.0
 13
-35.325828552246094
 23
37.7796630859375
 33
148.0
  0
3DFACE
  8
0
 10
-37.30514144897461
 20
36.09943389892578
 30
148.0
 11
-36.735389709472656
 21
36.50647735595703
 31
148.0
 12
-36.148311614990234
 22
36.972503662109375
 32
148.0
 13
-36.148311614990234
 23
36.972503662109375
 33
148.0
  0
3DFACE
  8
0
 10
-38.183265686035156
 20
35.57563018798828
 30
148.0
 11
-37.51237487792969
 21
35.96030807495117
 31
148.0
 12
-37.30514144897461
 22
36.09943389892578
 32
148.0
 13
-37.30514144897461
 23
36.09943389892578
 33
148.0
  0
3DFACE
  8
0
 10
-39.09294128417969
 20
35.25292205810547
 30
148.0
 11
-38.29703140258789
 21
35.52530288696289
 31
148.0
 12
-38.183265686035156
 22
35.57563018798828
 32
148.0
 13
-38.183265686035156
 23
35.57563018798828
 33
148.0
  0
3DFACE
  8
0
 10
-40.26773452758789
 20
35.004310607910156
 30
148.0
 11
-39.89330291748047
 21
35.04512023925781
 31
148.0
 12
-39.323429107666016
 22
35.20497512817383
 32
148.0
 13
-39.323429107666016
 23
35.20497512817383
 33
148.0
  0
3DFACE
  8
0
 10
-39.323429107666016
 20
35.20497512817383
 30
148.0
 11
-39.09294128417969
 21
35.25292205810547
 31
148.0
 12
-38.183265686035156
 22
35.57563018798828
 32
148.0
 13
-38.183265686035156
 23
35.57563018798828
 33
148.0
  0
3DFACE
  8
0
 10
-38.183265686035156
 20
35.57563018798828
 30
148.0
 11
-37.30514144897461
 21
36.09943389892578
 31
148.0
 12
-36.148311614990234
 22
36.972503662109375
 32
148.0
 13
-36.148311614990234
 23
36.972503662109375
 33
148.0
  0
3DFACE
  8
0
 10
-36.148311614990234
 20
36.972503662109375
 30
148.0
 11
-35.325828552246094
 21
37.7796630859375
 31
148.0
 12
-34.7397575378418
 22
38.580238342285156
 32
148.0
 13
-34.7397575378418
 23
38.580238342285156
 33
148.0
  0
3DFACE
  8
0
 10
-34.7397575378418
 20
38.580238342285156
 30
148.0
 11
-34.29375076293945
 21
39.38875961303711
 31
148.0
 12
-33.98646926879883
 22
40.19331741333008
 32
148.0
 13
-33.98646926879883
 23
40.19331741333008
 33
148.0
  0
3DFACE
  8
0
 10
-33.98646926879883
 20
40.19331741333008
 30
148.0
 11
-33.74929428100586
 21
40.959903717041016
 31
148.0
 12
-33.598663330078125
 22
41.80241394042969
 32
148.0
 13
-33.598663330078125
 23
41.80241394042969
 33
148.0
  0
3DFACE
  8
0
 10
-33.598663330078125
 20
41.80241394042969
 30
148.0
 11
-33.48965835571289
 21
42.9808349609375
 31
148.0
 12
-33.5456657409668
 22
44.216068267822266
 32
148.0
 13
-33.5456657409668
 23
44.216068267822266
 33
148.0
  0
3DFACE
  8
0
 10
-33.5456657409668
 20
44.216068267822266
 30
148.0
 11
-33.689353942871094
 21
45.02062225341797
 31
148.0
 12
-34.142578125
 22
46.46147918701172
 32
148.0
 13
-34.142578125
 23
46.46147918701172
 33
148.0
  0
3DFACE
  8
0
 10
-34.142578125
 20
46.46147918701172
 30
148.0
 11
-34.34617614746094
 21
46.93857192993164
 31
148.0
 12
-34.83084487915039
 22
47.730979919433594
 32
148.0
 13
-34.83084487915039
 23
47.730979919433594
 33
148.0
  0
3DFACE
  8
0
 10
-34.83084487915039
 20
47.730979919433594
 30
148.0
 11
-37.182064056396484
 21
50.331871032714844
 31
148.0
 12
-43.52422332763672
 22
52.215904235839844
 32
148.0
 13
-43.52422332763672
 23
52.215904235839844
 33
148.0
  0
3DFACE
  8
0
 10
-43.52422332763672
 20
52.215904235839844
 30
148.0
 11
-50.36638641357422
 21
40.86025619506836
 31
148.0
 12
-48.63502883911133
 22
38.30368423461914
 32
148.0
 13
-48.63502883911133
 23
38.30368423461914
 33
148.0
  0
3DFACE
  8
0
 10
-48.63502883911133
 20
38.30368423461914
 30
148.0
 11
-47.6473274230957
 21
37.33012008666992
 31
148.0
 12
-46.830726623535156
 22
36.63900375366211
 32
148.0
 13
-46.830726623535156
 23
36.63900375366211
 33
148.0
  0
3DFACE
  8
0
 10
-46.830726623535156
 20
36.63900375366211
 30
148.0
 11
-46.470333099365234
 21
36.40902328491211
 31
148.0
 12
-45.893367767333984
 22
36.055152893066406
 32
148.0
 13
-45.893367767333984
 23
36.055152893066406
 33
148.0
  0
3DFACE
  8
0
 10
-45.893367767333984
 20
36.055152893066406
 30
148.0
 11
-45.662113189697266
 21
35.92284393310547
 31
148.0
 12
-45.481563568115234
 22
35.84539794921875
 32
148.0
 13
-45.481563568115234
 23
35.84539794921875
 33
148.0
  0
3DFACE
  8
0
 10
-45.481563568115234
 20
35.84539794921875
 30
148.0
 11
-44.8167724609375
 21
35.525794982910156
 31
148.0
 12
-44.19865417480469
 22
35.331642150878906
 32
148.0
 13
-44.19865417480469
 23
35.331642150878906
 33
148.0
  0
3DFACE
  8
0
 10
-44.19865417480469
 20
35.331642150878906
 30
148.0
 11
-44.01661682128906
 21
35.26752853393555
 31
148.0
 12
-43.72062683105469
 22
35.18955612182617
 32
148.0
 13
-43.72062683105469
 23
35.18955612182617
 33
148.0
  0
3DFACE
  8
0
 10
-43.72062683105469
 20
35.18955612182617
 30
148.0
 11
-43.153160095214844
 21
35.058719635009766
 31
148.0
 12
-42.33013153076172
 22
34.93876266479492
 32
148.0
 13
-42.33013153076172
 23
34.93876266479492
 33
148.0
  0
3DFACE
  8
0
 10
-41.59817886352539
 20
34.89004135131836
 30
148.0
 11
-41.522300720214844
 21
34.88324737548828
 31
148.0
 12
-41.414913177490234
 22
34.88032531738281
 32
148.0
 13
-41.414913177490234
 23
34.88032531738281
 33
148.0
  0
3DFACE
  8
0
 10
-43.72062683105469
 20
35.18955612182617
 30
148.0
 11
-42.33013153076172
 21
34.93876266479492
 31
148.0
 12
-41.59817886352539
 22
34.89004135131836
 32
148.0
 13
-41.59817886352539
 23
34.89004135131836
 33
148.0
  0
3DFACE
  8
0
 10
-45.481563568115234
 20
35.84539794921875
 30
148.0
 11
-44.19865417480469
 21
35.331642150878906
 31
148.0
 12
-43.72062683105469
 22
35.18955612182617
 32
148.0
 13
-43.72062683105469
 23
35.18955612182617
 33
148.0
  0
3DFACE
  8
0
 10
-46.830726623535156
 20
36.63900375366211
 30
148.0
 11
-45.893367767333984
 21
36.055152893066406
 31
148.0
 12
-45.481563568115234
 22
35.84539794921875
 32
148.0
 13
-45.481563568115234
 23
35.84539794921875
 33
148.0
  0
3DFACE
  8
0
 10
-43.52422332763672
 20
52.215904235839844
 30
148.0
 11
-48.63502883911133
 21
38.30368423461914
 31
148.0
 12
-46.830726623535156
 22
36.63900375366211
 32
148.0
 13
-46.830726623535156
 23
36.63900375366211
 33
148.0
  0
3DFACE
  8
0
 10
-34.142578125
 20
46.46147918701172
 30
148.0
 11
-34.83084487915039
 21
47.730979919433594
 31
148.0
 12
-43.52422332763672
 22
52.215904235839844
 32
148.0
 13
-43.52422332763672
 23
52.215904235839844
 33
148.0
  0
3DFACE
  8
0
 10
-33.598663330078125
 20
41.80241394042969
 30
148.0
 11
-33.5456657409668
 21
44.216068267822266
 31
148.0
 12
-34.142578125
 22
46.46147918701172
 32
148.0
 13
-34.142578125
 23
46.46147918701172
 33
148.0
  0
3DFACE
  8
0
 10
-34.7397575378418
 20
38.580238342285156
 30
148.0
 11
-33.98646926879883
 21
40.19331741333008
 31
148.0
 12
-33.598663330078125
 22
41.80241394042969
 32
148.0
 13
-33.598663330078125
 23
41.80241394042969
 33
148.0
  0
3DFACE
  8
0
 10
-38.183265686035156
 20
35.57563018798828
 30
148.0
 11
-36.148311614990234
 21
36.972503662109375
 31
148.0
 12
-34.7397575378418
 22
38.580238342285156
 32
148.0
 13
-34.7397575378418
 23
38.580238342285156
 33
148.0
  0
3DFACE
  8
0
 10
-40.26773452758789
 20
35.004310607910156
 30
148.0
 11
-39.323429107666016
 21
35.20497512817383
 31
148.0
 12
-38.183265686035156
 22
35.57563018798828
 32
148.0
 13
-38.183265686035156
 23
35.57563018798828
 33
148.0
  0
3DFACE
  8
0
 10
-41.414913177490234
 20
34.88032531738281
 30
148.0
 11
-40.70014572143555
 21
34.93107223510742
 31
148.0
 12
-40.26773452758789
 22
35.004310607910156
 32
148.0
 13
-40.26773452758789
 23
35.004310607910156
 33
148.0
  0
3DFACE
  8
0
 10
-43.72062683105469
 20
35.18955612182617
 30
148.0
 11
-41.59817886352539
 21
34.89004135131836
 31
148.0
 12
-41.414913177490234
 22
34.88032531738281
 32
148.0
 13
-41.414913177490234
 23
34.88032531738281
 33
148.0
  0
3DFACE
  8
0
 10
-46.830726623535156
 20
36.63900375366211
 30
148.0
 11
-45.481563568115234
 21
35.84539794921875
 31
148.0
 12
-43.72062683105469
 22
35.18955612182617
 32
148.0
 13
-43.72062683105469
 23
35.18955612182617
 33
148.0
  0
3DFACE
  8
0
 10
-34.142578125
 20
46.46147918701172
 30
148.0
 11
-43.52422332763672
 21
52.215904235839844
 31
148.0
 12
-46.830726623535156
 22
36.63900375366211
 32
148.0
 13
-46.830726623535156
 23
36.63900375366211
 33
148.0
  0
3DFACE
  8
0
 10
-34.7397575378418
 20
38.580238342285156
 30
148.0
 11
-33.598663330078125
 21
41.80241394042969
 31
148.0
 12
-34.142578125
 22
46.46147918701172
 32
148.0
 13
-34.142578125
 23
46.46147918701172
 33
148.0
  0
3DFACE
  8
0
 10
-40.26773452758789
 20
35.004310607910156
 30
148.0
 11
-38.183265686035156
 21
35.57563018798828
 31
148.0
 12
-34.7397575378418
 22
38.580238342285156
 32
148.0
 13
-34.7397575378418
 23
38.580238342285156
 33
148.0
  0
3DFACE
  8
0
 10
-43.72062683105469
 20
35.18955612182617
 30
148.0
 11
-41.414913177490234
 21
34.88032531738281
 31
148.0
 12
-40.26773452758789
 22
35.004310607910156
 32
148.0
 13
-40.26773452758789
 23
35.004310607910156
 33
148.0
  0
3DFACE
  8
0
 10
-34.142578125
 20
46.46147918701172
 30
148.0
 11
-46.830726623535156
 21
36.63900375366211
 31
148.0
 12
-43.72062683105469
 22
35.18955612182617
 32
148.0
 13
-43.72062683105469
 23
35.18955612182617
 33
148.0
  0
3DFACE
  8
0
 10
-40.26773452758789
 20
35.004310607910156
 30
148.0
 11
-34.7397575378418
 21
38.580238342285156
 31
148.0
 12
-34.142578125
 22
46.46147918701172
 32
148.0
 13
-34.142578125
 23
46.46147918701172
 33
148.0
  0
3DFACE
  8
0
 10
-43.72062683105469
 20
35.18955612182617
 30
148.0
 11
-40.26773452758789
 21
35.004310607910156
 31
148.0
 12
-34.142578125
 22
46.46147918701172
 32
148.0
 13
-34.142578125
 23
46.46147918701172
 33
148.0
  0
3DFACE
  8
0
 10
34.26687240600586
 20
61.98311233520508
 30
148.0
 11
34.24112319946289
 21
61.99349594116211
 31
148.0
 12
34.22829055786133
 22
61.996009826660156
 32
148.0
 13
34.22829055786133
 23
61.996009826660156
 33
148.0
  0
3DFACE
  8
0
 10
34.22829055786133
 20
61.996009826660156
 30
148.0
 11
33.45985412597656
 21
62.18506622314453
 31
148.0
 12
32.903202056884766
 22
62.258819580078125
 32
148.0
 13
32.903202056884766
 23
62.258819580078125
 33
148.0
  0
3DFACE
  8
0
 10
32.903202056884766
 20
62.258819580078125
 30
148.0
 11
32.67388916015625
 21
62.28086471557617
 31
148.0
 12
32.22583770751953
 22
62.28378677368164
 32
148.0
 13
32.22583770751953
 23
62.28378677368164
 33
148.0
  0
3DFACE
  8
0
 10
32.22583770751953
 20
62.28378677368164
 30
148.0
 11
31.882184982299805
 21
62.25970458984375
 31
148.0
 12
31.085477828979492
 22
62.13676071166992
 32
148.0
 13
31.085477828979492
 23
62.13676071166992
 33
148.0
  0
3DFACE
  8
0
 10
30.369592666625977
 20
61.883056640625
 30
148.0
 11
30.28123664855957
 21
61.86021423339844
 31
148.0
 12
30.101858139038086
 22
61.77006912231445
 32
148.0
 13
30.101858139038086
 23
61.77006912231445
 33
148.0
  0
3DFACE
  8
0
 10
32.22583770751953
 20
62.28378677368164
 30
148.0
 11
31.085477828979492
 21
62.13676071166992
 31
148.0
 12
30.369592666625977
 22
61.883056640625
 32
148.0
 13
30.369592666625977
 23
61.883056640625
 33
148.0
  0
3DFACE
  8
0
 10
34.22829055786133
 20
61.996009826660156
 30
148.0
 11
32.903202056884766
 21
62.258819580078125
 31
148.0
 12
32.22583770751953
 22
62.28378677368164
 32
148.0
 13
32.22583770751953
 23
62.28378677368164
 33
148.0
  0
3DFACE
  8
0
 10
35.01502990722656
 20
61.65214157104492
 30
148.0
 11
34.26687240600586
 21
61.98311233520508
 31
148.0
 12
34.22829055786133
 22
61.996009826660156
 32
148.0
 13
34.22829055786133
 23
61.996009826660156
 33
148.0
  0
3DFACE
  8
0
 10
35.780982971191406
 20
61.14872741699219
 30
148.0
 11
35.72136688232422
 21
61.19598388671875
 31
148.0
 12
35.01502990722656
 22
61.65214157104492
 32
148.0
 13
35.01502990722656
 23
61.65214157104492
 33
148.0
  0
3DFACE
  8
0
 10
36.53514862060547
 20
60.40521240234375
 30
148.0
 11
36.53178787231445
 21
60.408843994140625
 31
148.0
 12
35.780982971191406
 22
61.14872741699219
 32
148.0
 13
35.780982971191406
 23
61.14872741699219
 33
148.0
  0
3DFACE
  8
0
 10
37.274253845214844
 20
59.35491943359375
 30
148.0
 11
37.108829498291016
 21
59.62171173095703
 31
148.0
 12
36.53514862060547
 22
60.40521240234375
 32
148.0
 13
36.53514862060547
 23
60.40521240234375
 33
148.0
  0
3DFACE
  8
0
 10
37.813358306884766
 20
58.24355697631836
 30
148.0
 11
37.55060958862305
 21
58.83456802368164
 31
148.0
 12
37.274253845214844
 22
59.35491943359375
 32
148.0
 13
37.274253845214844
 23
59.35491943359375
 33
148.0
  0
3DFACE
  8
0
 10
37.98811340332031
 20
57.790321350097656
 30
148.0
 11
37.9086799621582
 21
58.047428131103516
 31
148.0
 12
37.813358306884766
 22
58.24355697631836
 32
148.0
 13
37.813358306884766
 23
58.24355697631836
 33
148.0
  0
3DFACE
  8
0
 10
38.156280517578125
 20
57.050010681152344
 30
148.0
 11
38.0513801574707
 21
57.543479919433594
 31
148.0
 12
37.98811340332031
 22
57.790321350097656
 32
148.0
 13
37.98811340332031
 23
57.790321350097656
 33
148.0
  0
3DFACE
  8
0
 10
38.259334564208984
 20
56.4731559753418
 30
148.0
 11
38.244606018066406
 21
56.56199645996094
 31
148.0
 12
38.156280517578125
 22
57.050010681152344
 32
148.0
 13
38.156280517578125
 23
57.050010681152344
 33
148.0
  0
3DFACE
  8
0
 10
38.2514533996582
 20
55.47676086425781
 30
148.0
 11
38.27022933959961
 21
55.68601989746094
 31
148.0
 12
38.258052825927734
 22
56.453773498535156
 32
148.0
 13
38.258052825927734
 23
56.453773498535156
 33
148.0
  0
3DFACE
  8
0
 10
38.258052825927734
 20
56.453773498535156
 30
148.0
 11
38.259334564208984
 21
56.4731559753418
 31
148.0
 12
38.156280517578125
 22
57.050010681152344
 32
148.0
 13
38.156280517578125
 23
57.050010681152344
 33
148.0
  0
3DFACE
  8
0
 10
38.156280517578125
 20
57.050010681152344
 30
148.0
 11
37.98811340332031
 21
57.790321350097656
 31
148.0
 12
37.813358306884766
 22
58.24355697631836
 32
148.0
 13
37.813358306884766
 23
58.24355697631836
 33
148.0
  0
3DFACE
  8
0
 10
37.813358306884766
 20
58.24355697631836
 30
148.0
 11
37.274253845214844
 21
59.35491943359375
 31
148.0
 12
36.53514862060547
 22
60.40521240234375
 32
148.0
 13
36.53514862060547
 23
60.40521240234375
 33
148.0
  0
3DFACE
  8
0
 10
36.53514862060547
 20
60.40521240234375
 30
148.0
 11
35.780982971191406
 21
61.14872741699219
 31
148.0
 12
35.01502990722656
 22
61.65214157104492
 32
148.0
 13
35.01502990722656
 23
61.65214157104492
 33
148.0
  0
3DFACE
  8
0
 10
35.01502990722656
 20
61.65214157104492
 30
148.0
 11
34.22829055786133
 21
61.996009826660156
 31
148.0
 12
32.22583770751953
 22
62.28378677368164
 32
148.0
 13
32.22583770751953
 23
62.28378677368164
 33
148.0
  0
3DFACE
  8
0
 10
32.22583770751953
 20
62.28378677368164
 30
148.0
 11
30.369592666625977
 21
61.883056640625
 31
148.0
 12
30.101858139038086
 22
61.77006912231445
 32
148.0
 13
30.101858139038086
 23
61.77006912231445
 33
148.0
  0
3DFACE
  8
0
 10
30.101858139038086
 20
61.77006912231445
 30
148.0
 11
29.454675674438477
 21
61.42845153808594
 31
148.0
 12
28.652320861816406
 22
60.89102554321289
 32
148.0
 13
28.652320861816406
 23
60.89102554321289
 33
148.0
  0
3DFACE
  8
0
 10
28.652320861816406
 20
60.89102554321289
 30
148.0
 11
28.077028274536133
 21
60.415000915527344
 31
148.0
 12
28.07044792175293
 22
60.40884017944336
 32
148.0
 13
28.07044792175293
 23
60.40884017944336
 33
148.0
  0
3DFACE
  8
0
 10
28.07044792175293
 20
60.40884017944336
 30
148.0
 11
27.671918869018555
 21
59.991764068603516
 31
148.0
 12
27.58599853515625
 22
59.8963623046875
 32
148.0
 13
27.58599853515625
 23
59.8963623046875
 33
148.0
  0
3DFACE
  8
0
 10
27.58599853515625
 20
59.8963623046875
 30
148.0
 11
27.1503849029541
 21
59.28626251220703
 31
148.0
 12
26.96245574951172
 22
58.95793914794922
 32
148.0
 13
26.96245574951172
 23
58.95793914794922
 33
148.0
  0
3DFACE
  8
0
 10
26.96245574951172
 20
58.95793914794922
 30
148.0
 11
26.866365432739258
 21
58.801753997802734
 31
148.0
 12
26.531021118164062
 22
58.1030387878418
 32
148.0
 13
26.531021118164062
 23
58.1030387878418
 33
148.0
  0
3DFACE
  8
0
 10
26.52300453186035
 20
58.07870101928711
 30
148.0
 11
26.28342056274414
 21
57.49944305419922
 31
148.0
 12
26.2207088470459
 22
57.26030349731445
 32
148.0
 13
26.2207088470459
 23
57.26030349731445
 33
148.0
  0
3DFACE
  8
0
 10
26.96245574951172
 20
58.95793914794922
 30
148.0
 11
26.531021118164062
 21
58.1030387878418
 31
148.0
 12
26.52300453186035
 22
58.07870101928711
 32
148.0
 13
26.52300453186035
 23
58.07870101928711
 33
148.0
  0
3DFACE
  8
0
 10
28.07044792175293
 20
60.40884017944336
 30
148.0
 11
27.58599853515625
 21
59.8963623046875
 31
148.0
 12
26.96245574951172
 22
58.95793914794922
 32
148.0
 13
26.96245574951172
 23
58.95793914794922
 33
148.0
  0
3DFACE
  8
0
 10
30.101858139038086
 20
61.77006912231445
 30
148.0
 11
28.652320861816406
 21
60.89102554321289
 31
148.0
 12
28.07044792175293
 22
60.40884017944336
 32
148.0
 13
28.07044792175293
 23
60.40884017944336
 33
148.0
  0
3DFACE
  8
0
 10
35.01502990722656
 20
61.65214157104492
 30
148.0
 11
32.22583770751953
 21
62.28378677368164
 31
148.0
 12
30.101858139038086
 22
61.77006912231445
 32
148.0
 13
30.101858139038086
 23
61.77006912231445
 33
148.0
  0
3DFACE
  8
0
 10
37.813358306884766
 20
58.24355697631836
 30
148.0
 11
36.53514862060547
 21
60.40521240234375
 31
148.0
 12
35.01502990722656
 22
61.65214157104492
 32
148.0
 13
35.01502990722656
 23
61.65214157104492
 33
148.0
  0
3DFACE
  8
0
 10
38.258052825927734
 20
56.453773498535156
 30
148.0
 11
38.156280517578125
 21
57.050010681152344
 31
148.0
 12
37.813358306884766
 22
58.24355697631836
 32
148.0
 13
37.813358306884766
 23
58.24355697631836
 33
148.0
  0
3DFACE
  8
0
 10
38.241573333740234
 20
54.89887619018555
 30
148.0
 11
38.2514533996582
 21
55.47676086425781
 31
148.0
 12
38.258052825927734
 22
56.453773498535156
 32
148.0
 13
38.258052825927734
 23
56.453773498535156
 33
148.0
  0
3DFACE
  8
0
 10
38.12714767456055
 20
54.108333587646484
 30
148.0
 11
38.219512939453125
 21
54.51213836669922
 31
148.0
 12
38.241573333740234
 22
54.89887619018555
 32
148.0
 13
38.241573333740234
 23
54.89887619018555
 33
148.0
  0
3DFACE
  8
0
 10
37.96982192993164
 20
53.324615478515625
 30
148.0
 11
37.98390579223633
 21
53.389041900634766
 31
148.0
 12
38.12714767456055
 22
54.108333587646484
 32
148.0
 13
38.12714767456055
 23
54.108333587646484
 33
148.0
  0
3DFACE
  8
0
 10
37.69060516357422
 20
52.5374641418457
 30
148.0
 11
37.914451599121094
 21
53.15135192871094
 31
148.0
 12
37.96982192993164
 22
53.324615478515625
 32
148.0
 13
37.96982192993164
 23
53.324615478515625
 33
148.0
  0
3DFACE
  8
0
 10
36.927101135253906
 20
51.066165924072266
 30
148.0
 11
37.317996978759766
 21
51.750328063964844
 31
148.0
 12
37.548099517822266
 22
52.2679328918457
 32
148.0
 13
37.548099517822266
 23
52.2679328918457
 33
148.0
  0
3DFACE
  8
0
 10
37.548099517822266
 20
52.2679328918457
 30
148.0
 11
37.69060516357422
 21
52.5374641418457
 31
148.0
 12
37.96982192993164
 22
53.324615478515625
 32
148.0
 13
37.96982192993164
 23
53.324615478515625
 33
148.0
  0
3DFACE
  8
0
 10
37.96982192993164
 20
53.324615478515625
 30
148.0
 11
38.12714767456055
 21
54.108333587646484
 31
148.0
 12
38.241573333740234
 22
54.89887619018555
 32
148.0
 13
38.241573333740234
 23
54.89887619018555
 33
148.0
  0
3DFACE
  8
0
 10
38.241573333740234
 20
54.89887619018555
 30
148.0
 11
38.258052825927734
 21
56.453773498535156
 31
148.0
 12
37.813358306884766
 22
58.24355697631836
 32
148.0
 13
37.813358306884766
 23
58.24355697631836
 33
148.0
  0
3DFACE
  8
0
 10
37.813358306884766
 20
58.24355697631836
 30
148.0
 11
35.01502990722656
 21
61.65214157104492
 31
148.0
 12
30.101858139038086
 22
61.77006912231445
 32
148.0
 13
30.101858139038086
 23
61.77006912231445
 33
148.0
  0
3DFACE
  8
0
 10
30.101858139038086
 20
61.77006912231445
 30
148.0
 11
28.07044792175293
 21
60.40884017944336
 31
148.0
 12
26.96245574951172
 22
58.95793914794922
 32
148.0
 13
26.96245574951172
 23
58.95793914794922
 33
148.0
  0
3DFACE
  8
0
 10
26.96245574951172
 20
58.95793914794922
 30
148.0
 11
26.52300453186035
 21
58.07870101928711
 31
148.0
 12
26.2207088470459
 22
57.26030349731445
 32
148.0
 13
26.2207088470459
 23
57.26030349731445
 33
148.0
  0
3DFACE
  8
0
 10
26.2207088470459
 20
57.26030349731445
 30
148.0
 11
26.033700942993164
 21
56.70463562011719
 31
148.0
 12
25.933622360229492
 22
56.26411056518555
 32
148.0
 13
25.933622360229492
 23
56.26411056518555
 33
148.0
  0
3DFACE
  8
0
 10
25.933622360229492
 20
56.26411056518555
 30
148.0
 11
25.8647403717041
 21
55.8739128112793
 31
148.0
 12
25.83016586303711
 22
55.632591247558594
 32
148.0
 13
25.83016586303711
 23
55.632591247558594
 33
148.0
  0
3DFACE
  8
0
 10
25.83016586303711
 20
55.632591247558594
 30
148.0
 11
25.780969619750977
 21
55.055362701416016
 31
148.0
 12
25.778526306152344
 22
54.99107360839844
 32
148.0
 13
25.778526306152344
 23
54.99107360839844
 33
148.0
  0
3DFACE
  8
0
 10
25.785144805908203
 20
54.89887619018555
 30
148.0
 11
25.803997039794922
 21
54.32638931274414
 31
148.0
 12
25.82891845703125
 22
54.11173629760742
 32
148.0
 13
25.82891845703125
 23
54.11173629760742
 33
148.0
  0
3DFACE
  8
0
 10
25.83016586303711
 20
55.632591247558594
 30
148.0
 11
25.778526306152344
 21
54.99107360839844
 31
148.0
 12
25.785144805908203
 22
54.89887619018555
 32
148.0
 13
25.785144805908203
 23
54.89887619018555
 33
148.0
  0
3DFACE
  8
0
 10
26.2207088470459
 20
57.26030349731445
 30
148.0
 11
25.933622360229492
 21
56.26411056518555
 31
148.0
 12
25.83016586303711
 22
55.632591247558594
 32
148.0
 13
25.83016586303711
 23
55.632591247558594
 33
148.0
  0
3DFACE
  8
0
 10
30.101858139038086
 20
61.77006912231445
 30
148.0
 11
26.96245574951172
 21
58.95793914794922
 31
148.0
 12
26.2207088470459
 22
57.26030349731445
 32
148.0
 13
26.2207088470459
 23
57.26030349731445
 33
148.0
  0
3DFACE
  8
0
 10
38.241573333740234
 20
54.89887619018555
 30
148.0
 11
37.813358306884766
 21
58.24355697631836
 31
148.0
 12
30.101858139038086
 22
61.77006912231445
 32
148.0
 13
30.101858139038086
 23
61.77006912231445
 33
148.0
  0
3DFACE
  8
0
 10
37.548099517822266
 20
52.2679328918457
 30
148.0
 11
37.96982192993164
 21
53.324615478515625
 31
148.0
 12
38.241573333740234
 22
54.89887619018555
 32
148.0
 13
38.241573333740234
 23
54.89887619018555
 33
148.0
  0
3DFACE
  8
0
 10
36.85980987548828
 20
50.942691802978516
 30
148.0
 11
36.927101135253906
 21
51.066165924072266
 31
148.0
 12
37.548099517822266
 22
52.2679328918457
 32
148.0
 13
37.548099517822266
 23
52.2679328918457
 33
148.0
  0
3DFACE
  8
0
 10
36.385494232177734
 20
50.32205581665039
 30
148.0
 11
36.70436096191406
 21
50.72890090942383
 31
148.0
 12
36.85980987548828
 22
50.942691802978516
 32
148.0
 13
36.85980987548828
 23
50.942691802978516
 33
148.0
  0
3DFACE
  8
0
 10
35.34456253051758
 20
49.32758331298828
 30
148.0
 11
35.79612731933594
 21
49.69929122924805
 31
148.0
 12
36.02163314819336
 22
49.94502639770508
 32
148.0
 13
36.02163314819336
 23
49.94502639770508
 33
148.0
  0
3DFACE
  8
0
 10
36.02163314819336
 20
49.94502639770508
 30
148.0
 11
36.385494232177734
 21
50.32205581665039
 31
148.0
 12
36.85980987548828
 22
50.942691802978516
 32
148.0
 13
36.85980987548828
 23
50.942691802978516
 33
148.0
  0
3DFACE
  8
0
 10
36.85980987548828
 20
50.942691802978516
 30
148.0
 11
37.548099517822266
 21
52.2679328918457
 31
148.0
 12
38.241573333740234
 22
54.89887619018555
 32
148.0
 13
38.241573333740234
 23
54.89887619018555
 33
148.0
  0
3DFACE
  8
0
 10
38.241573333740234
 20
54.89887619018555
 30
148.0
 11
30.101858139038086
 21
61.77006912231445
 31
148.0
 12
26.2207088470459
 22
57.26030349731445
 32
148.0
 13
26.2207088470459
 23
57.26030349731445
 33
148.0
  0
3DFACE
  8
0
 10
26.2207088470459
 20
57.26030349731445
 30
148.0
 11
25.83016586303711
 21
55.632591247558594
 31
148.0
 12
25.785144805908203
 22
54.89887619018555
 32
148.0
 13
25.785144805908203
 23
54.89887619018555
 33
148.0
  0
3DFACE
  8
0
 10
25.785144805908203
 20
54.89887619018555
 30
148.0
 11
25.82891845703125
 21
54.11173629760742
 31
148.0
 12
25.906696319580078
 22
53.62690353393555
 32
148.0
 13
25.906696319580078
 23
53.62690353393555
 33
148.0
  0
3DFACE
  8
0
 10
25.906696319580078
 20
53.62690353393555
 30
148.0
 11
26.047237396240234
 21
52.984554290771484
 31
148.0
 12
26.180234909057617
 22
52.53746795654297
 32
148.0
 13
26.180234909057617
 23
52.53746795654297
 33
148.0
  0
3DFACE
  8
0
 10
26.180234909057617
 20
52.53746795654297
 30
148.0
 11
26.238340377807617
 21
52.32560729980469
 31
148.0
 12
26.52414894104004
 22
51.64577865600586
 32
148.0
 13
26.52414894104004
 23
51.64577865600586
 33
148.0
  0
3DFACE
  8
0
 10
26.52414894104004
 20
51.64577865600586
 30
148.0
 11
26.562515258789062
 21
51.53843688964844
 31
148.0
 12
26.612348556518555
 22
51.42934036254883
 32
148.0
 13
26.612348556518555
 23
51.42934036254883
 33
148.0
  0
3DFACE
  8
0
 10
26.612348556518555
 20
51.42934036254883
 30
148.0
 11
27.245105743408203
 21
50.14496994018555
 31
148.0
 12
27.290470123291016
 22
50.066993713378906
 32
148.0
 13
27.290470123291016
 23
50.066993713378906
 33
148.0
  0
3DFACE
  8
0
 10
27.290470123291016
 20
50.066993713378906
 30
148.0
 11
27.82576560974121
 21
49.3310546875
 31
148.0
 12
28.069595336914062
 22
49.021156311035156
 32
148.0
 13
28.069595336914062
 23
49.021156311035156
 33
148.0
  0
3DFACE
  8
0
 10
28.069595336914062
 20
49.021156311035156
 30
148.0
 11
28.831790924072266
 21
48.44114303588867
 31
148.0
 12
29.011932373046875
 22
48.38129806518555
 32
148.0
 13
29.011932373046875
 23
48.38129806518555
 33
148.0
  0
3DFACE
  8
0
 10
29.011932373046875
 20
48.38129806518555
 30
148.0
 11
29.6070556640625
 21
48.127376556396484
 31
148.0
 12
29.80791473388672
 22
48.096336364746094
 32
148.0
 13
29.80791473388672
 23
48.096336364746094
 33
148.0
  0
3DFACE
  8
0
 10
29.80791473388672
 20
48.096336364746094
 30
148.0
 11
30.390586853027344
 21
47.98200225830078
 31
148.0
 12
30.604755401611328
 22
47.952735900878906
 32
148.0
 13
30.604755401611328
 23
47.952735900878906
 33
148.0
  0
3DFACE
  8
0
 10
30.604755401611328
 20
47.952735900878906
 30
148.0
 11
30.781030654907227
 21
47.93994903564453
 31
148.0
 12
31.17857551574707
 22
47.92744064331055
 32
148.0
 13
31.17857551574707
 23
47.92744064331055
 33
148.0
  0
3DFACE
  8
0
 10
31.17857551574707
 20
47.92744064331055
 30
148.0
 11
31.96274757385254
 21
47.916259765625
 31
148.0
 12
32.412513732910156
 22
47.99242401123047
 32
148.0
 13
32.412513732910156
 23
47.99242401123047
 33
148.0
  0
3DFACE
  8
0
 10
32.412513732910156
 20
47.99242401123047
 30
148.0
 11
32.688026428222656
 21
48.047916412353516
 31
148.0
 12
32.76686096191406
 22
48.0689811706543
 32
148.0
 13
32.76686096191406
 23
48.0689811706543
 33
148.0
  0
3DFACE
  8
0
 10
32.91459274291992
 20
48.11676025390625
 30
148.0
 11
33.568321228027344
 21
48.288734436035156
 31
148.0
 12
34.10335159301758
 22
48.552059173583984
 32
148.0
 13
34.10335159301758
 23
48.552059173583984
 33
148.0
  0
3DFACE
  8
0
 10
32.412513732910156
 20
47.99242401123047
 30
148.0
 11
32.76686096191406
 21
48.0689811706543
 31
148.0
 12
32.91459274291992
 22
48.11676025390625
 32
148.0
 13
32.91459274291992
 23
48.11676025390625
 33
148.0
  0
3DFACE
  8
0
 10
30.604755401611328
 20
47.952735900878906
 30
148.0
 11
31.17857551574707
 21
47.92744064331055
 31
148.0
 12
32.412513732910156
 22
47.99242401123047
 32
148.0
 13
32.412513732910156
 23
47.99242401123047
 33
148.0
  0
3DFACE
  8
0
 10
29.011932373046875
 20
48.38129806518555
 30
148.0
 11
29.80791473388672
 21
48.096336364746094
 31
148.0
 12
30.604755401611328
 22
47.952735900878906
 32
148.0
 13
30.604755401611328
 23
47.952735900878906
 33
148.0
  0
3DFACE
  8
0
 10
27.290470123291016
 20
50.066993713378906
 30
148.0
 11
28.069595336914062
 21
49.021156311035156
 31
148.0
 12
29.011932373046875
 22
48.38129806518555
 32
148.0
 13
29.011932373046875
 23
48.38129806518555
 33
148.0
  0
3DFACE
  8
0
 10
26.52414894104004
 20
51.64577865600586
 30
148.0
 11
26.612348556518555
 21
51.42934036254883
 31
148.0
 12
27.290470123291016
 22
50.066993713378906
 32
148.0
 13
27.290470123291016
 23
50.066993713378906
 33
148.0
  0
3DFACE
  8
0
 10
25.906696319580078
 20
53.62690353393555
 30
148.0
 11
26.180234909057617
 21
52.53746795654297
 31
148.0
 12
26.52414894104004
 22
51.64577865600586
 32
148.0
 13
26.52414894104004
 23
51.64577865600586
 33
148.0
  0
3DFACE
  8
0
 10
26.2207088470459
 20
57.26030349731445
 30
148.0
 11
25.785144805908203
 21
54.89887619018555
 31
148.0
 12
25.906696319580078
 22
53.62690353393555
 32
148.0
 13
25.906696319580078
 23
53.62690353393555
 33
148.0
  0
3DFACE
  8
0
 10
36.85980987548828
 20
50.942691802978516
 30
148.0
 11
38.241573333740234
 21
54.89887619018555
 31
148.0
 12
26.2207088470459
 22
57.26030349731445
 32
148.0
 13
26.2207088470459
 23
57.26030349731445
 33
148.0
  0
3DFACE
  8
0
 10
35.34456253051758
 20
49.32758331298828
 30
148.0
 11
36.02163314819336
 21
49.94502639770508
 31
148.0
 12
36.85980987548828
 22
50.942691802978516
 32
148.0
 13
36.85980987548828
 23
50.942691802978516
 33
148.0
  0
3DFACE
  8
0
 10
35.1666259765625
 20
49.18008804321289
 30
148.0
 11
35.27161407470703
 21
49.26116180419922
 31
148.0
 12
35.34456253051758
 22
49.32758331298828
 32
148.0
 13
35.34456253051758
 23
49.32758331298828
 33
148.0
  0
3DFACE
  8
0
 10
34.38167953491211
 20
48.67232894897461
 30
148.0
 11
34.51227951049805
 21
48.74085998535156
 31
148.0
 12
35.1666259765625
 22
49.18008804321289
 32
148.0
 13
35.1666259765625
 23
49.18008804321289
 33
148.0
  0
3DFACE
  8
0
 10
32.91459274291992
 20
48.11676025390625
 30
148.0
 11
34.10335159301758
 21
48.552059173583984
 31
148.0
 12
34.38167953491211
 22
48.67232894897461
 32
148.0
 13
34.38167953491211
 23
48.67232894897461
 33
148.0
  0
3DFACE
  8
0
 10
30.604755401611328
 20
47.952735900878906
 30
148.0
 11
32.412513732910156
 21
47.99242401123047
 31
148.0
 12
32.91459274291992
 22
48.11676025390625
 32
148.0
 13
32.91459274291992
 23
48.11676025390625
 33
148.0
  0
3DFACE
  8
0
 10
27.290470123291016
 20
50.066993713378906
 30
148.0
 11
29.011932373046875
 21
48.38129806518555
 31
148.0
 12
30.604755401611328
 22
47.952735900878906
 32
148.0
 13
30.604755401611328
 23
47.952735900878906
 33
148.0
  0
3DFACE
  8
0
 10
25.906696319580078
 20
53.62690353393555
 30
148.0
 11
26.52414894104004
 21
51.64577865600586
 31
148.0
 12
27.290470123291016
 22
50.066993713378906
 32
148.0
 13
27.290470123291016
 23
50.066993713378906
 33
148.0
  0
3DFACE
  8
0
 10
36.85980987548828
 20
50.942691802978516
 30
148.0
 11
26.2207088470459
 21
57.26030349731445
 31
148.0
 12
25.906696319580078
 22
53.62690353393555
 32
148.0
 13
25.906696319580078
 23
53.62690353393555
 33
148.0
  0
3DFACE
  8
0
 10
35.1666259765625
 20
49.18008804321289
 30
148.0
 11
35.34456253051758
 21
49.32758331298828
 31
148.0
 12
36.85980987548828
 22
50.942691802978516
 32
148.0
 13
36.85980987548828
 23
50.942691802978516
 33
148.0
  0
3DFACE
  8
0
 10
32.91459274291992
 20
48.11676025390625
 30
148.0
 11
34.38167953491211
 21
48.67232894897461
 31
148.0
 12
35.1666259765625
 22
49.18008804321289
 32
148.0
 13
35.1666259765625
 23
49.18008804321289
 33
148.0
  0
3DFACE
  8
0
 10
27.290470123291016
 20
50.066993713378906
 30
148.0
 11
30.604755401611328
 21
47.952735900878906
 31
148.0
 12
32.91459274291992
 22
48.11676025390625
 32
148.0
 13
32.91459274291992
 23
48.11676025390625
 33
148.0
  0
3DFACE
  8
0
 10
36.85980987548828
 20
50.942691802978516
 30
148.0
 11
25.906696319580078
 21
53.62690353393555
 31
148.0
 12
27.290470123291016
 22
50.066993713378906
 32
148.0
 13
27.290470123291016
 23
50.066993713378906
 33
148.0
  0
3DFACE
  8
0
 10
32.91459274291992
 20
48.11676025390625
 30
148.0
 11
35.1666259765625
 21
49.18008804321289
 31
148.0
 12
36.85980987548828
 22
50.942691802978516
 32
148.0
 13
36.85980987548828
 23
50.942691802978516
 33
148.0
  0
3DFACE
  8
0
 10
27.290470123291016
 20
50.066993713378906
 30
148.0
 11
32.91459274291992
 21
48.11676025390625
 31
148.0
 12
36.85980987548828
 22
50.942691802978516
 32
148.0
 13
36.85980987548828
 23
50.942691802978516
 33
148.0
  0
ENDSEC
  0
EOF
