  0
SECTION
  2
HEADER
  9
$ACADVER
  1
AC1009
  9
$INSBASE
 10
0.0
 20
0.0
 30
0.0
  9
$EXTMIN
 10
0.0
 20
0.0
 30
0.0
  9
$EXTMAX
 10
0.0
 20
0.0
 30
0.0
  0
ENDSEC
  0
SECTION
  2
TABLES
  0
TABLE
  2
VPORT
 70
1
  0
VPORT
  2
*ACTIVE
 70
0
 10
0.0
 20
0.0
 11
1.0
 21
1.0
 12
-5.0
 22
1.0
 13
0.0
 23
0.0
 14
0.1
 24
0.1
 15
0.1
 25
0.1
 16
0.0
 26
0.0
 36
1.0
 17
0.0
 27
0.0
 37
0.0
 40
10.0
 41
1.0
 42
50.0
 43
0.0
 44
0.0
 50
0.0
 51
0.0
 71
0
 72
100
 73
1
 74
1
 75
0
 76
0
 77
0
 78
0
  0
ENDTAB
  0
TABLE
  2
LTYPE
 70
8
  0
LTYPE
  2
CONTINUOUS
 70
0
  3
Solid line
 72
65
 73
0
 40
0.0
  0
LTYPE
  2
DOT
 70
0
  3
. . . . . . .
 72
65
 73
2
 40
0.25
 49
0.0
 49
-0.25
  0
LTYPE
  2
DASHED
 70
0
  3
__ __ __ __ __
 72
65
 73
2
 40
0.8
 49
0.5
 49
-0.3
  0
LTYPE
  2
DASHDOT
 70
0
  3
__ . __ . __ .
 72
65
 73
4
 40
1.0
 49
0.5
 49
-0.25
 49
0.0
 49
-0.25
  0
LTYPE
  2
DIVIDE
 70
0
  3
____ . . ____ . . 
 72
65
 73
6
 40
1.25
 49
0.5
 49
-0.25
 49
0.0
 49
-0.25
 49
0.0
 49
-0.25
  0
LTYPE
  2
BORDER
 70
0
  3
__ __ . __ __ . 
 72
65
 73
6
 40
1.75
 49
0.5
 49
-0.25
 49
0.5
 49
-0.25
 49
0.0
 49
-0.25
  0
LTYPE
  2
HIDDEN
 70
0
  3
__ __ __ __ __
 72
65
 73
2
 40
0.4
 49
0.25
 49
-0.25
  0
LTYPE
  2
CENTER
 70
0
  3
____ _ ____ _ __
 72
65
 73
4
 40
2.0
 49
1.25
 49
-0.25
 49
0.25
 49
-0.25
  0
ENDTAB
  0
TABLE
  2
LAYER
 70
1
  0
LAYER
  2
PYDXF
 70
64
 62
7
  6
continuous
  0
ENDTAB
  0
TABLE
  2
STYLE
 70
1
  0
STYLE
  2
STANDARD
 70
0
 40
0
 41
1.0
 50
0.0
 71
0
 42
1
 3
ARIAL.TTF
 4

  0
ENDTAB
  0
TABLE
  2
VIEW
 70
1
  0
VIEW
  2
BF_TOPVIEW
 70
0
 40
120.0
 10
0.0
 20
0.0
 41
200.0
 11
0.0
 21
0.0
 31
1.0
 12
0.0
 22
0.0
 32
0.0
 42
50.0
 43
0.0
 44
0.0
 50
0.0
 71
0
  0
ENDTAB
  0
ENDSEC
  0
SECTION
  2
BLOCKS
  0
ENDSEC
  0
SECTION
  2
ENTITIES
  0
3DFACE
  8
0
 10
-14.335890769958496
 20
-47.19961929321289
 30
150.0
 11
-14.395203590393066
 21
-47.00326156616211
 31
150.0
 12
-14.475305557250977
 22
-46.80607986450195
 32
150.0
 13
-14.475305557250977
 23
-46.80607986450195
 33
150.0
  0
3DFACE
  8
0
 10
-14.475305557250977
 20
-46.80607986450195
 30
150.0
 11
-14.645915985107422
 21
-46.21399688720703
 31
150.0
 12
-14.891471862792969
 22
-45.62190628051758
 32
150.0
 13
-14.891471862792969
 23
-45.62190628051758
 33
150.0
  0
3DFACE
  8
0
 10
-14.891471862792969
 20
-45.62190628051758
 30
150.0
 11
-14.9791259765625
 21
-45.43697738647461
 31
150.0
 12
-15.175484657287598
 22
-45.1170768737793
 32
150.0
 13
-15.175484657287598
 23
-45.1170768737793
 33
150.0
  0
3DFACE
  8
0
 10
-15.224263191223145
 20
-45.04012680053711
 30
150.0
 11
-15.423905372619629
 21
-44.6557502746582
 31
150.0
 12
-15.761629104614258
 22
-44.22117233276367
 32
150.0
 13
-15.761629104614258
 23
-44.22117233276367
 33
150.0
  0
3DFACE
  8
0
 10
-14.891471862792969
 20
-45.62190628051758
 30
150.0
 11
-15.175484657287598
 21
-45.1170768737793
 31
150.0
 12
-15.224263191223145
 22
-45.04012680053711
 32
150.0
 13
-15.224263191223145
 23
-45.04012680053711
 33
150.0
  0
3DFACE
  8
0
 10
-14.23581600189209
 20
-47.785762786865234
 30
150.0
 11
-14.335890769958496
 21
-47.19961929321289
 31
150.0
 12
-14.475305557250977
 22
-46.80607986450195
 32
150.0
 13
-14.475305557250977
 23
-46.80607986450195
 33
150.0
  0
3DFACE
  8
0
 10
-14.475305557250977
 20
-46.80607986450195
 30
150.0
 11
-14.891471862792969
 21
-45.62190628051758
 31
150.0
 12
-15.224263191223145
 22
-45.04012680053711
 32
150.0
 13
-15.224263191223145
 23
-45.04012680053711
 33
150.0
  0
3DFACE
  8
0
 10
-15.224263191223145
 20
-45.04012680053711
 30
150.0
 11
-15.761629104614258
 21
-44.22117233276367
 31
150.0
 12
-16.051353454589844
 22
-43.959442138671875
 32
150.0
 13
-16.051353454589844
 23
-43.959442138671875
 33
150.0
  0
3DFACE
  8
0
 10
-16.051353454589844
 20
-43.959442138671875
 30
150.0
 11
-16.544132232666016
 21
-43.63319396972656
 31
150.0
 12
-16.72198486328125
 22
-43.55275344848633
 32
150.0
 13
-16.72198486328125
 23
-43.55275344848633
 33
150.0
  0
3DFACE
  8
0
 10
-16.72198486328125
 20
-43.55275344848633
 30
150.0
 11
-17.326637268066406
 21
-43.33002853393555
 31
150.0
 12
-17.899093627929688
 22
-43.30855178833008
 32
150.0
 13
-17.899093627929688
 23
-43.30855178833008
 33
150.0
  0
3DFACE
  8
0
 10
-17.899093627929688
 20
-43.30855178833008
 30
150.0
 11
-18.109140396118164
 21
-43.26607894897461
 31
150.0
 12
-18.595836639404297
 22
-43.3420295715332
 32
150.0
 13
-18.595836639404297
 23
-43.3420295715332
 33
150.0
  0
3DFACE
  8
0
 10
-18.595836639404297
 20
-43.3420295715332
 30
150.0
 11
-18.89164161682129
 21
-43.36589813232422
 31
150.0
 12
-19.477787017822266
 22
-43.53435134887695
 32
150.0
 13
-19.477787017822266
 23
-43.53435134887695
 33
150.0
  0
3DFACE
  8
0
 10
-19.477787017822266
 20
-43.53435134887695
 30
150.0
 11
-19.674144744873047
 21
-43.57042694091797
 31
150.0
 12
-20.273717880249023
 22
-43.758174896240234
 32
150.0
 13
-20.273717880249023
 23
-43.758174896240234
 33
150.0
  0
3DFACE
  8
0
 10
-20.273717880249023
 20
-43.758174896240234
 30
150.0
 11
-20.456647872924805
 21
-43.821163177490234
 31
150.0
 12
-21.04279136657715
 22
-44.11271286010742
 32
150.0
 13
-21.04279136657715
 23
-44.11271286010742
 33
150.0
  0
3DFACE
  8
0
 10
-21.04279136657715
 20
-44.11271286010742
 30
150.0
 11
-21.23914909362793
 21
-44.192626953125
 31
150.0
 12
-21.9356632232666
 22
-44.56874465942383
 32
150.0
 13
-21.9356632232666
 23
-44.56874465942383
 33
150.0
  0
3DFACE
  8
0
 10
-21.9356632232666
 20
-44.56874465942383
 30
150.0
 11
-22.040264129638672
 21
-44.62044906616211
 31
150.0
 12
-22.574527740478516
 22
-44.948184967041016
 32
150.0
 13
-22.574527740478516
 23
-44.948184967041016
 33
150.0
  0
3DFACE
  8
0
 10
-22.574527740478516
 20
-44.948184967041016
 30
150.0
 11
-22.804155349731445
 21
-45.06578063964844
 31
150.0
 12
-23.429210662841797
 22
-45.51811218261719
 32
150.0
 13
-23.429210662841797
 23
-45.51811218261719
 33
150.0
  0
3DFACE
  8
0
 10
-23.429210662841797
 20
-45.51811218261719
 30
150.0
 11
-23.58665657043457
 21
-45.659034729003906
 31
150.0
 12
-24.022207260131836
 22
-46.10426330566406
 32
150.0
 13
-24.022207260131836
 23
-46.10426330566406
 33
150.0
  0
3DFACE
  8
0
 10
-24.022207260131836
 20
-46.10426330566406
 30
150.0
 11
-24.169475555419922
 21
-46.220760345458984
 31
150.0
 12
-24.21856689453125
 22
-46.26926040649414
 32
150.0
 13
-24.21856689453125
 23
-46.26926040649414
 33
150.0
  0
3DFACE
  8
0
 10
-24.21856689453125
 20
-46.26926040649414
 30
150.0
 11
-24.369165420532227
 21
-46.44645309448242
 31
150.0
 12
-24.669246673583984
 22
-46.855403900146484
 32
150.0
 13
-24.669246673583984
 23
-46.855403900146484
 33
150.0
  0
3DFACE
  8
0
 10
-24.669246673583984
 20
-46.855403900146484
 30
150.0
 11
-24.805686950683594
 21
-47.00326156616211
 31
150.0
 12
-24.865602493286133
 22
-47.08295822143555
 32
150.0
 13
-24.865602493286133
 23
-47.08295822143555
 33
150.0
  0
3DFACE
  8
0
 10
-25.19835090637207
 20
-47.66910171508789
 30
150.0
 11
-25.277217864990234
 21
-47.785762786865234
 31
150.0
 12
-25.48941993713379
 22
-48.37190628051758
 32
150.0
 13
-25.48941993713379
 23
-48.37190628051758
 33
150.0
  0
3DFACE
  8
0
 10
-24.669246673583984
 20
-46.855403900146484
 30
150.0
 11
-24.865602493286133
 21
-47.08295822143555
 31
150.0
 12
-25.19835090637207
 22
-47.66910171508789
 32
150.0
 13
-25.19835090637207
 23
-47.66910171508789
 33
150.0
  0
3DFACE
  8
0
 10
-24.022207260131836
 20
-46.10426330566406
 30
150.0
 11
-24.21856689453125
 21
-46.26926040649414
 31
150.0
 12
-24.669246673583984
 22
-46.855403900146484
 32
150.0
 13
-24.669246673583984
 23
-46.855403900146484
 33
150.0
  0
3DFACE
  8
0
 10
-22.574527740478516
 20
-44.948184967041016
 30
150.0
 11
-23.429210662841797
 21
-45.51811218261719
 31
150.0
 12
-24.022207260131836
 22
-46.10426330566406
 32
150.0
 13
-24.022207260131836
 23
-46.10426330566406
 33
150.0
  0
3DFACE
  8
0
 10
-21.04279136657715
 20
-44.11271286010742
 30
150.0
 11
-21.9356632232666
 21
-44.56874465942383
 31
150.0
 12
-22.574527740478516
 22
-44.948184967041016
 32
150.0
 13
-22.574527740478516
 23
-44.948184967041016
 33
150.0
  0
3DFACE
  8
0
 10
-19.477787017822266
 20
-43.53435134887695
 30
150.0
 11
-20.273717880249023
 21
-43.758174896240234
 31
150.0
 12
-21.04279136657715
 22
-44.11271286010742
 32
150.0
 13
-21.04279136657715
 23
-44.11271286010742
 33
150.0
  0
3DFACE
  8
0
 10
-17.899093627929688
 20
-43.30855178833008
 30
150.0
 11
-18.595836639404297
 21
-43.3420295715332
 31
150.0
 12
-19.477787017822266
 22
-43.53435134887695
 32
150.0
 13
-19.477787017822266
 23
-43.53435134887695
 33
150.0
  0
3DFACE
  8
0
 10
-16.051353454589844
 20
-43.959442138671875
 30
150.0
 11
-16.72198486328125
 21
-43.55275344848633
 31
150.0
 12
-17.899093627929688
 22
-43.30855178833008
 32
150.0
 13
-17.899093627929688
 23
-43.30855178833008
 33
150.0
  0
3DFACE
  8
0
 10
-14.475305557250977
 20
-46.80607986450195
 30
150.0
 11
-15.224263191223145
 21
-45.04012680053711
 31
150.0
 12
-16.051353454589844
 22
-43.959442138671875
 32
150.0
 13
-16.051353454589844
 23
-43.959442138671875
 33
150.0
  0
3DFACE
  8
0
 10
-14.210580825805664
 20
-47.96898651123047
 30
150.0
 11
-14.23581600189209
 21
-47.785762786865234
 31
150.0
 12
-14.475305557250977
 22
-46.80607986450195
 32
150.0
 13
-14.475305557250977
 23
-46.80607986450195
 33
150.0
  0
3DFACE
  8
0
 10
-14.31065559387207
 20
-49.15441131591797
 30
150.0
 11
-14.191059112548828
 21
-48.56826400756836
 31
150.0
 12
-14.210580825805664
 22
-47.96898651123047
 32
150.0
 13
-14.210580825805664
 23
-47.96898651123047
 33
150.0
  0
3DFACE
  8
0
 10
-14.457895278930664
 20
-49.93690872192383
 30
150.0
 11
-14.313453674316406
 21
-49.350772857666016
 31
150.0
 12
-14.31065559387207
 22
-49.15441131591797
 32
150.0
 13
-14.31065559387207
 23
-49.15441131591797
 33
150.0
  0
3DFACE
  8
0
 10
-14.649048805236816
 20
-50.71941375732422
 30
150.0
 11
-14.493370056152344
 21
-50.13326644897461
 31
150.0
 12
-14.457895278930664
 22
-49.93690872192383
 32
150.0
 13
-14.457895278930664
 23
-49.93690872192383
 33
150.0
  0
3DFACE
  8
0
 10
-14.748587608337402
 20
-51.11213684082031
 30
150.0
 11
-14.695981979370117
 21
-50.915775299072266
 31
150.0
 12
-14.649048805236816
 22
-50.71941375732422
 32
150.0
 13
-14.649048805236816
 23
-50.71941375732422
 33
150.0
  0
3DFACE
  8
0
 10
-15.364697456359863
 20
-52.480777740478516
 30
150.0
 11
-15.035416603088379
 21
-51.7747802734375
 31
150.0
 12
-15.006641387939453
 22
-51.69828414916992
 32
150.0
 13
-15.006641387939453
 23
-51.69828414916992
 33
150.0
  0
3DFACE
  8
0
 10
-15.006641387939453
 20
-51.69828414916992
 30
150.0
 11
-14.748587608337402
 21
-51.11213684082031
 31
150.0
 12
-14.649048805236816
 22
-50.71941375732422
 32
150.0
 13
-14.649048805236816
 23
-50.71941375732422
 33
150.0
  0
3DFACE
  8
0
 10
-14.649048805236816
 20
-50.71941375732422
 30
150.0
 11
-14.457895278930664
 21
-49.93690872192383
 31
150.0
 12
-14.31065559387207
 22
-49.15441131591797
 32
150.0
 13
-14.31065559387207
 23
-49.15441131591797
 33
150.0
  0
3DFACE
  8
0
 10
-14.31065559387207
 20
-49.15441131591797
 30
150.0
 11
-14.210580825805664
 21
-47.96898651123047
 31
150.0
 12
-14.475305557250977
 22
-46.80607986450195
 32
150.0
 13
-14.475305557250977
 23
-46.80607986450195
 33
150.0
  0
3DFACE
  8
0
 10
-14.475305557250977
 20
-46.80607986450195
 30
150.0
 11
-16.051353454589844
 21
-43.959442138671875
 31
150.0
 12
-17.899093627929688
 22
-43.30855178833008
 32
150.0
 13
-17.899093627929688
 23
-43.30855178833008
 33
150.0
  0
3DFACE
  8
0
 10
-17.899093627929688
 20
-43.30855178833008
 30
150.0
 11
-19.477787017822266
 21
-43.53435134887695
 31
150.0
 12
-21.04279136657715
 22
-44.11271286010742
 32
150.0
 13
-21.04279136657715
 23
-44.11271286010742
 33
150.0
  0
3DFACE
  8
0
 10
-21.04279136657715
 20
-44.11271286010742
 30
150.0
 11
-22.574527740478516
 21
-44.948184967041016
 31
150.0
 12
-24.022207260131836
 22
-46.10426330566406
 32
150.0
 13
-24.022207260131836
 23
-46.10426330566406
 33
150.0
  0
3DFACE
  8
0
 10
-24.022207260131836
 20
-46.10426330566406
 30
150.0
 11
-24.669246673583984
 21
-46.855403900146484
 31
150.0
 12
-25.19835090637207
 22
-47.66910171508789
 32
150.0
 13
-25.19835090637207
 23
-47.66910171508789
 33
150.0
  0
3DFACE
  8
0
 10
-25.48941993713379
 20
-48.37190628051758
 30
150.0
 11
-25.583295822143555
 21
-48.56826400756836
 31
150.0
 12
-25.7862491607666
 22
-49.15441131591797
 32
150.0
 13
-25.7862491607666
 23
-49.15441131591797
 33
150.0
  0
3DFACE
  8
0
 10
-24.022207260131836
 20
-46.10426330566406
 30
150.0
 11
-25.19835090637207
 21
-47.66910171508789
 31
150.0
 12
-25.48941993713379
 22
-48.37190628051758
 32
150.0
 13
-25.48941993713379
 23
-48.37190628051758
 33
150.0
  0
3DFACE
  8
0
 10
-17.899093627929688
 20
-43.30855178833008
 30
150.0
 11
-21.04279136657715
 21
-44.11271286010742
 31
150.0
 12
-24.022207260131836
 22
-46.10426330566406
 32
150.0
 13
-24.022207260131836
 23
-46.10426330566406
 33
150.0
  0
3DFACE
  8
0
 10
-14.31065559387207
 20
-49.15441131591797
 30
150.0
 11
-14.475305557250977
 21
-46.80607986450195
 31
150.0
 12
-17.899093627929688
 22
-43.30855178833008
 32
150.0
 13
-17.899093627929688
 23
-43.30855178833008
 33
150.0
  0
3DFACE
  8
0
 10
-15.006641387939453
 20
-51.69828414916992
 30
150.0
 11
-14.649048805236816
 21
-50.71941375732422
 31
150.0
 12
-14.31065559387207
 22
-49.15441131591797
 32
150.0
 13
-14.31065559387207
 23
-49.15441131591797
 33
150.0
  0
3DFACE
  8
0
 10
-15.465315818786621
 20
-52.6771354675293
 30
150.0
 11
-15.364697456359863
 21
-52.480777740478516
 31
150.0
 12
-15.006641387939453
 22
-51.69828414916992
 32
150.0
 13
-15.006641387939453
 23
-51.69828414916992
 33
150.0
  0
3DFACE
  8
0
 10
-15.825471878051758
 20
-53.2696533203125
 30
150.0
 11
-15.761629104614258
 21
-53.18001174926758
 31
150.0
 12
-15.465315818786621
 22
-52.6771354675293
 32
150.0
 13
-15.465315818786621
 23
-52.6771354675293
 33
150.0
  0
3DFACE
  8
0
 10
-17.146963119506836
 20
-54.66510009765625
 30
150.0
 11
-16.569597244262695
 21
-54.13901138305664
 31
150.0
 12
-16.452970504760742
 22
-53.99758529663086
 32
150.0
 13
-16.452970504760742
 23
-53.99758529663086
 33
150.0
  0
3DFACE
  8
0
 10
-16.452970504760742
 20
-53.99758529663086
 30
150.0
 11
-15.825471878051758
 21
-53.2696533203125
 31
150.0
 12
-15.465315818786621
 22
-52.6771354675293
 32
150.0
 13
-15.465315818786621
 23
-52.6771354675293
 33
150.0
  0
3DFACE
  8
0
 10
-15.465315818786621
 20
-52.6771354675293
 30
150.0
 11
-15.006641387939453
 21
-51.69828414916992
 31
150.0
 12
-14.31065559387207
 22
-49.15441131591797
 32
150.0
 13
-14.31065559387207
 23
-49.15441131591797
 33
150.0
  0
3DFACE
  8
0
 10
-14.31065559387207
 20
-49.15441131591797
 30
150.0
 11
-17.899093627929688
 21
-43.30855178833008
 31
150.0
 12
-24.022207260131836
 22
-46.10426330566406
 32
150.0
 13
-24.022207260131836
 23
-46.10426330566406
 33
150.0
  0
3DFACE
  8
0
 10
-24.022207260131836
 20
-46.10426330566406
 30
150.0
 11
-25.48941993713379
 21
-48.37190628051758
 31
150.0
 12
-25.7862491607666
 22
-49.15441131591797
 32
150.0
 13
-25.7862491607666
 23
-49.15441131591797
 33
150.0
  0
3DFACE
  8
0
 10
-25.7862491607666
 20
-49.15441131591797
 30
150.0
 11
-25.866230010986328
 21
-49.350772857666016
 31
150.0
 12
-26.003374099731445
 22
-49.890655517578125
 32
150.0
 13
-26.003374099731445
 23
-49.890655517578125
 33
150.0
  0
3DFACE
  8
0
 10
-26.003374099731445
 20
-49.890655517578125
 30
150.0
 11
-26.063135147094727
 21
-50.10886764526367
 31
150.0
 12
-26.12383460998535
 22
-50.577632904052734
 32
150.0
 13
-26.12383460998535
 23
-50.577632904052734
 33
150.0
  0
3DFACE
  8
0
 10
-26.12383460998535
 20
-50.577632904052734
 30
150.0
 11
-26.196392059326172
 21
-50.915775299072266
 31
150.0
 12
-26.145343780517578
 22
-51.4636344909668
 32
150.0
 13
-26.145343780517578
 23
-51.4636344909668
 33
150.0
  0
3DFACE
  8
0
 10
-26.145343780517578
 20
-51.4636344909668
 30
150.0
 11
-26.162479400634766
 21
-51.69828414916992
 31
150.0
 12
-26.15497398376465
 22
-51.90879440307617
 32
150.0
 13
-26.15497398376465
 23
-51.90879440307617
 33
150.0
  0
3DFACE
  8
0
 10
-26.091459274291992
 20
-52.480777740478516
 30
150.0
 11
-26.07695960998535
 21
-52.64866256713867
 31
150.0
 12
-25.945981979370117
 22
-53.26327896118164
 32
150.0
 13
-25.945981979370117
 23
-53.26327896118164
 33
150.0
  0
3DFACE
  8
0
 10
-26.145343780517578
 20
-51.4636344909668
 30
150.0
 11
-26.15497398376465
 21
-51.90879440307617
 31
150.0
 12
-26.091459274291992
 22
-52.480777740478516
 32
150.0
 13
-26.091459274291992
 23
-52.480777740478516
 33
150.0
  0
3DFACE
  8
0
 10
-26.003374099731445
 20
-49.890655517578125
 30
150.0
 11
-26.12383460998535
 21
-50.577632904052734
 31
150.0
 12
-26.145343780517578
 22
-51.4636344909668
 32
150.0
 13
-26.145343780517578
 23
-51.4636344909668
 33
150.0
  0
3DFACE
  8
0
 10
-24.022207260131836
 20
-46.10426330566406
 30
150.0
 11
-25.7862491607666
 21
-49.15441131591797
 31
150.0
 12
-26.003374099731445
 22
-49.890655517578125
 32
150.0
 13
-26.003374099731445
 23
-49.890655517578125
 33
150.0
  0
3DFACE
  8
0
 10
-15.465315818786621
 20
-52.6771354675293
 30
150.0
 11
-14.31065559387207
 21
-49.15441131591797
 31
150.0
 12
-24.022207260131836
 22
-46.10426330566406
 32
150.0
 13
-24.022207260131836
 23
-46.10426330566406
 33
150.0
  0
3DFACE
  8
0
 10
-17.146963119506836
 20
-54.66510009765625
 30
150.0
 11
-16.452970504760742
 21
-53.99758529663086
 31
150.0
 12
-15.465315818786621
 22
-52.6771354675293
 32
150.0
 13
-15.465315818786621
 23
-52.6771354675293
 33
150.0
  0
3DFACE
  8
0
 10
-18.109140396118164
 20
-55.441219329833984
 30
150.0
 11
-17.326637268066406
 21
-54.836360931396484
 31
150.0
 12
-17.146963119506836
 22
-54.66510009765625
 32
150.0
 13
-17.146963119506836
 23
-54.66510009765625
 33
150.0
  0
3DFACE
  8
0
 10
-19.674144744873047
 20
-56.16345977783203
 30
150.0
 11
-18.871410369873047
 21
-55.818603515625
 31
150.0
 12
-18.469114303588867
 22
-55.61079025268555
 32
150.0
 13
-18.469114303588867
 23
-55.61079025268555
 33
150.0
  0
3DFACE
  8
0
 10
-18.469114303588867
 20
-55.61079025268555
 30
150.0
 11
-18.109140396118164
 21
-55.441219329833984
 31
150.0
 12
-17.146963119506836
 22
-54.66510009765625
 32
150.0
 13
-17.146963119506836
 23
-54.66510009765625
 33
150.0
  0
3DFACE
  8
0
 10
-17.146963119506836
 20
-54.66510009765625
 30
150.0
 11
-15.465315818786621
 21
-52.6771354675293
 31
150.0
 12
-24.022207260131836
 22
-46.10426330566406
 32
150.0
 13
-24.022207260131836
 23
-46.10426330566406
 33
150.0
  0
3DFACE
  8
0
 10
-24.022207260131836
 20
-46.10426330566406
 30
150.0
 11
-26.003374099731445
 21
-49.890655517578125
 31
150.0
 12
-26.145343780517578
 22
-51.4636344909668
 32
150.0
 13
-26.145343780517578
 23
-51.4636344909668
 33
150.0
  0
3DFACE
  8
0
 10
-26.145343780517578
 20
-51.4636344909668
 30
150.0
 11
-26.091459274291992
 21
-52.480777740478516
 31
150.0
 12
-25.945981979370117
 22
-53.26327896118164
 32
150.0
 13
-25.945981979370117
 23
-53.26327896118164
 33
150.0
  0
3DFACE
  8
0
 10
-25.945981979370117
 20
-53.26327896118164
 30
150.0
 11
-25.9419002532959
 21
-53.2801399230957
 31
150.0
 12
-25.934167861938477
 22
-53.303611755371094
 32
150.0
 13
-25.934167861938477
 23
-53.303611755371094
 33
150.0
  0
3DFACE
  8
0
 10
-25.934167861938477
 20
-53.303611755371094
 30
150.0
 11
-25.734619140625
 21
-53.84623718261719
 31
150.0
 12
-25.641555786132812
 22
-54.0457878112793
 32
150.0
 13
-25.641555786132812
 23
-54.0457878112793
 33
150.0
  0
3DFACE
  8
0
 10
-25.641555786132812
 20
-54.0457878112793
 30
150.0
 11
-25.206418991088867
 21
-54.828643798828125
 31
150.0
 12
-25.151662826538086
 22
-54.91515350341797
 32
150.0
 13
-25.151662826538086
 23
-54.91515350341797
 33
150.0
  0
3DFACE
  8
0
 10
-25.151662826538086
 20
-54.91515350341797
 30
150.0
 11
-24.454675674438477
 21
-55.61079025268555
 31
150.0
 12
-24.374624252319336
 22
-55.67390441894531
 32
150.0
 13
-24.374624252319336
 23
-55.67390441894531
 33
150.0
  0
3DFACE
  8
0
 10
-24.374624252319336
 20
-55.67390441894531
 30
150.0
 11
-23.58665657043457
 21
-56.16508483886719
 31
150.0
 12
-22.9356746673584
 22
-56.427947998046875
 32
150.0
 13
-22.9356746673584
 23
-56.427947998046875
 33
150.0
  0
3DFACE
  8
0
 10
-22.9356746673584
 20
-56.427947998046875
 30
150.0
 11
-22.65048599243164
 21
-56.48157501220703
 31
150.0
 12
-22.02165412902832
 22
-56.56316375732422
 32
150.0
 13
-22.02165412902832
 23
-56.56316375732422
 33
150.0
  0
3DFACE
  8
0
 10
-21.840152740478516
 20
-56.55366516113281
 30
150.0
 11
-21.23914909362793
 21
-56.56774139404297
 31
150.0
 12
-20.599124908447266
 22
-56.47198486328125
 32
150.0
 13
-20.599124908447266
 23
-56.47198486328125
 33
150.0
  0
3DFACE
  8
0
 10
-22.9356746673584
 20
-56.427947998046875
 30
150.0
 11
-22.02165412902832
 21
-56.56316375732422
 31
150.0
 12
-21.840152740478516
 22
-56.55366516113281
 32
150.0
 13
-21.840152740478516
 23
-56.55366516113281
 33
150.0
  0
3DFACE
  8
0
 10
-25.151662826538086
 20
-54.91515350341797
 30
150.0
 11
-24.374624252319336
 21
-55.67390441894531
 31
150.0
 12
-22.9356746673584
 22
-56.427947998046875
 32
150.0
 13
-22.9356746673584
 23
-56.427947998046875
 33
150.0
  0
3DFACE
  8
0
 10
-25.934167861938477
 20
-53.303611755371094
 30
150.0
 11
-25.641555786132812
 21
-54.0457878112793
 31
150.0
 12
-25.151662826538086
 22
-54.91515350341797
 32
150.0
 13
-25.151662826538086
 23
-54.91515350341797
 33
150.0
  0
3DFACE
  8
0
 10
-26.145343780517578
 20
-51.4636344909668
 30
150.0
 11
-25.945981979370117
 21
-53.26327896118164
 31
150.0
 12
-25.934167861938477
 22
-53.303611755371094
 32
150.0
 13
-25.934167861938477
 23
-53.303611755371094
 33
150.0
  0
3DFACE
  8
0
 10
-17.146963119506836
 20
-54.66510009765625
 30
150.0
 11
-24.022207260131836
 21
-46.10426330566406
 31
150.0
 12
-26.145343780517578
 22
-51.4636344909668
 32
150.0
 13
-26.145343780517578
 23
-51.4636344909668
 33
150.0
  0
3DFACE
  8
0
 10
-19.674144744873047
 20
-56.16345977783203
 30
150.0
 11
-18.469114303588867
 21
-55.61079025268555
 31
150.0
 12
-17.146963119506836
 22
-54.66510009765625
 32
150.0
 13
-17.146963119506836
 23
-54.66510009765625
 33
150.0
  0
3DFACE
  8
0
 10
-20.599124908447266
 20
-56.47198486328125
 30
150.0
 11
-20.456647872924805
 21
-56.44318389892578
 31
150.0
 12
-19.674283981323242
 22
-56.16350173950195
 32
150.0
 13
-19.674283981323242
 23
-56.16350173950195
 33
150.0
  0
3DFACE
  8
0
 10
-19.674283981323242
 20
-56.16350173950195
 30
150.0
 11
-19.674144744873047
 21
-56.16345977783203
 31
150.0
 12
-17.146963119506836
 22
-54.66510009765625
 32
150.0
 13
-17.146963119506836
 23
-54.66510009765625
 33
150.0
  0
3DFACE
  8
0
 10
-17.146963119506836
 20
-54.66510009765625
 30
150.0
 11
-26.145343780517578
 21
-51.4636344909668
 31
150.0
 12
-25.934167861938477
 22
-53.303611755371094
 32
150.0
 13
-25.934167861938477
 23
-53.303611755371094
 33
150.0
  0
3DFACE
  8
0
 10
-25.934167861938477
 20
-53.303611755371094
 30
150.0
 11
-25.151662826538086
 21
-54.91515350341797
 31
150.0
 12
-22.9356746673584
 22
-56.427947998046875
 32
150.0
 13
-22.9356746673584
 23
-56.427947998046875
 33
150.0
  0
3DFACE
  8
0
 10
-22.9356746673584
 20
-56.427947998046875
 30
150.0
 11
-21.840152740478516
 21
-56.55366516113281
 31
150.0
 12
-20.599124908447266
 22
-56.47198486328125
 32
150.0
 13
-20.599124908447266
 23
-56.47198486328125
 33
150.0
  0
3DFACE
  8
0
 10
-20.599124908447266
 20
-56.47198486328125
 30
150.0
 11
-19.674283981323242
 21
-56.16350173950195
 31
150.0
 12
-17.146963119506836
 22
-54.66510009765625
 32
150.0
 13
-17.146963119506836
 23
-54.66510009765625
 33
150.0
  0
3DFACE
  8
0
 10
-17.146963119506836
 20
-54.66510009765625
 30
150.0
 11
-25.934167861938477
 21
-53.303611755371094
 31
150.0
 12
-22.9356746673584
 22
-56.427947998046875
 32
150.0
 13
-22.9356746673584
 23
-56.427947998046875
 33
150.0
  0
3DFACE
  8
0
 10
-22.9356746673584
 20
-56.427947998046875
 30
150.0
 11
-20.599124908447266
 21
-56.47198486328125
 31
150.0
 12
-17.146963119506836
 22
-54.66510009765625
 32
150.0
 13
-17.146963119506836
 23
-54.66510009765625
 33
150.0
  0
3DFACE
  8
0
 10
30.50460433959961
 20
-40.25193405151367
 30
150.0
 11
30.502023696899414
 21
-40.250762939453125
 31
150.0
 12
30.486604690551758
 22
-40.247222900390625
 32
150.0
 13
30.486604690551758
 23
-40.247222900390625
 33
150.0
  0
3DFACE
  8
0
 10
30.486604690551758
 20
-40.247222900390625
 30
150.0
 11
29.725378036499023
 21
-40.0972785949707
 31
150.0
 12
29.098838806152344
 22
-40.07750701904297
 32
150.0
 13
29.098838806152344
 23
-40.07750701904297
 33
150.0
  0
3DFACE
  8
0
 10
29.098838806152344
 20
-40.07750701904297
 30
150.0
 11
28.912443161010742
 21
-40.09932327270508
 31
150.0
 12
28.411460876464844
 22
-40.17192840576172
 32
150.0
 13
28.411460876464844
 23
-40.17192840576172
 33
150.0
  0
3DFACE
  8
0
 10
28.411460876464844
 20
-40.17192840576172
 30
150.0
 11
27.655567169189453
 21
-40.34034729003906
 31
150.0
 12
27.377948760986328
 22
-40.45722198486328
 32
150.0
 13
27.377948760986328
 23
-40.45722198486328
 33
150.0
  0
3DFACE
  8
0
 10
27.377948760986328
 20
-40.45722198486328
 30
150.0
 11
27.191120147705078
 21
-40.547054290771484
 31
150.0
 12
26.99919891357422
 22
-40.661476135253906
 32
150.0
 13
26.99919891357422
 23
-40.661476135253906
 33
150.0
  0
3DFACE
  8
0
 10
26.99919891357422
 20
-40.661476135253906
 30
150.0
 11
26.759641647338867
 21
-40.82381057739258
 31
150.0
 12
26.57630157470703
 22
-40.955997467041016
 32
150.0
 13
26.57630157470703
 23
-40.955997467041016
 33
150.0
  0
3DFACE
  8
0
 10
26.57630157470703
 20
-40.955997467041016
 30
150.0
 11
26.43634605407715
 21
-41.0671272277832
 31
150.0
 12
26.055866241455078
 22
-41.45354461669922
 32
150.0
 13
26.055866241455078
 23
-41.45354461669922
 33
150.0
  0
3DFACE
  8
0
 10
26.055866241455078
 20
-41.45354461669922
 30
150.0
 11
25.85329246520996
 21
-41.70914840698242
 31
150.0
 12
25.54532241821289
 22
-42.18147277832031
 32
150.0
 13
25.54532241821289
 23
-42.18147277832031
 33
150.0
  0
3DFACE
  8
0
 10
25.54532241821289
 20
-42.18147277832031
 30
150.0
 11
25.403743743896484
 21
-42.44098663330078
 31
150.0
 12
25.294979095458984
 22
-42.7720947265625
 32
150.0
 13
25.294979095458984
 23
-42.7720947265625
 33
150.0
  0
3DFACE
  8
0
 10
25.294979095458984
 20
-42.7720947265625
 30
150.0
 11
25.12773323059082
 21
-43.183773040771484
 31
150.0
 12
25.045072555541992
 22
-43.59260559082031
 32
150.0
 13
25.045072555541992
 23
-43.59260559082031
 33
150.0
  0
3DFACE
  8
0
 10
25.045072555541992
 20
-43.59260559082031
 30
150.0
 11
24.96164894104004
 21
-43.95212173461914
 31
150.0
 12
24.943817138671875
 22
-44.47903060913086
 32
150.0
 13
24.943817138671875
 23
-44.47903060913086
 33
150.0
  0
3DFACE
  8
0
 10
24.943817138671875
 20
-44.47903060913086
 30
150.0
 11
24.90903091430664
 21
-44.74686050415039
 31
150.0
 12
24.966907501220703
 22
-45.42058181762695
 32
150.0
 13
24.966907501220703
 23
-45.42058181762695
 33
150.0
  0
3DFACE
  8
0
 10
24.966907501220703
 20
-45.42058181762695
 30
150.0
 11
24.960363388061523
 21
-45.56574630737305
 31
150.0
 12
25.111425399780273
 22
-46.35506057739258
 32
150.0
 13
25.111425399780273
 23
-46.35506057739258
 33
150.0
  0
3DFACE
  8
0
 10
25.111425399780273
 20
-46.35506057739258
 30
150.0
 11
25.121402740478516
 21
-46.402618408203125
 31
150.0
 12
25.125896453857422
 22
-46.4137077331543
 32
150.0
 13
25.125896453857422
 23
-46.4137077331543
 33
150.0
  0
3DFACE
  8
0
 10
25.125896453857422
 20
-46.4137077331543
 30
150.0
 11
25.4207706451416
 21
-47.28670120239258
 31
150.0
 12
25.481603622436523
 22
-47.42430877685547
 32
150.0
 13
25.481603622436523
 23
-47.42430877685547
 33
150.0
  0
3DFACE
  8
0
 10
25.481603622436523
 20
-47.42430877685547
 30
150.0
 11
25.732301712036133
 21
-48.04474639892578
 31
150.0
 12
25.806840896606445
 22
-48.18341827392578
 32
150.0
 13
25.806840896606445
 23
-48.18341827392578
 33
150.0
  0
3DFACE
  8
0
 10
26.023839950561523
 20
-48.54082107543945
 30
150.0
 11
26.216976165771484
 21
-48.92138671875
 31
150.0
 12
26.33875846862793
 22
-49.098575592041016
 32
150.0
 13
26.33875846862793
 23
-49.098575592041016
 33
150.0
  0
3DFACE
  8
0
 10
25.481603622436523
 20
-47.42430877685547
 30
150.0
 11
25.806840896606445
 21
-48.18341827392578
 31
150.0
 12
26.023839950561523
 22
-48.54082107543945
 32
150.0
 13
26.023839950561523
 23
-48.54082107543945
 33
150.0
  0
3DFACE
  8
0
 10
25.111425399780273
 20
-46.35506057739258
 30
150.0
 11
25.125896453857422
 21
-46.4137077331543
 31
150.0
 12
25.481603622436523
 22
-47.42430877685547
 32
150.0
 13
25.481603622436523
 23
-47.42430877685547
 33
150.0
  0
3DFACE
  8
0
 10
24.943817138671875
 20
-44.47903060913086
 30
150.0
 11
24.966907501220703
 21
-45.42058181762695
 31
150.0
 12
25.111425399780273
 22
-46.35506057739258
 32
150.0
 13
25.111425399780273
 23
-46.35506057739258
 33
150.0
  0
3DFACE
  8
0
 10
25.294979095458984
 20
-42.7720947265625
 30
150.0
 11
25.045072555541992
 21
-43.59260559082031
 31
150.0
 12
24.943817138671875
 22
-44.47903060913086
 32
150.0
 13
24.943817138671875
 23
-44.47903060913086
 33
150.0
  0
3DFACE
  8
0
 10
26.055866241455078
 20
-41.45354461669922
 30
150.0
 11
25.54532241821289
 21
-42.18147277832031
 31
150.0
 12
25.294979095458984
 22
-42.7720947265625
 32
150.0
 13
25.294979095458984
 23
-42.7720947265625
 33
150.0
  0
3DFACE
  8
0
 10
26.99919891357422
 20
-40.661476135253906
 30
150.0
 11
26.57630157470703
 21
-40.955997467041016
 31
150.0
 12
26.055866241455078
 22
-41.45354461669922
 32
150.0
 13
26.055866241455078
 23
-41.45354461669922
 33
150.0
  0
3DFACE
  8
0
 10
28.411460876464844
 20
-40.17192840576172
 30
150.0
 11
27.377948760986328
 21
-40.45722198486328
 31
150.0
 12
26.99919891357422
 22
-40.661476135253906
 32
150.0
 13
26.99919891357422
 23
-40.661476135253906
 33
150.0
  0
3DFACE
  8
0
 10
30.486604690551758
 20
-40.247222900390625
 30
150.0
 11
29.098838806152344
 21
-40.07750701904297
 31
150.0
 12
28.411460876464844
 22
-40.17192840576172
 32
150.0
 13
28.411460876464844
 23
-40.17192840576172
 33
150.0
  0
3DFACE
  8
0
 10
31.13022804260254
 20
-40.50343704223633
 30
150.0
 11
30.50460433959961
 21
-40.25193405151367
 31
150.0
 12
30.486604690551758
 22
-40.247222900390625
 32
150.0
 13
30.486604690551758
 23
-40.247222900390625
 33
150.0
  0
3DFACE
  8
0
 10
31.95733070373535
 20
-41.0526237487793
 30
150.0
 11
31.722387313842773
 21
-40.87498474121094
 31
150.0
 12
31.246139526367188
 22
-40.581756591796875
 32
150.0
 13
31.246139526367188
 23
-40.581756591796875
 33
150.0
  0
3DFACE
  8
0
 10
31.246139526367188
 20
-40.581756591796875
 30
150.0
 11
31.13022804260254
 21
-40.50343704223633
 31
150.0
 12
30.486604690551758
 22
-40.247222900390625
 32
150.0
 13
30.486604690551758
 23
-40.247222900390625
 33
150.0
  0
3DFACE
  8
0
 10
30.486604690551758
 20
-40.247222900390625
 30
150.0
 11
28.411460876464844
 21
-40.17192840576172
 31
150.0
 12
26.99919891357422
 22
-40.661476135253906
 32
150.0
 13
26.99919891357422
 23
-40.661476135253906
 33
150.0
  0
3DFACE
  8
0
 10
26.99919891357422
 20
-40.661476135253906
 30
150.0
 11
26.055866241455078
 21
-41.45354461669922
 31
150.0
 12
25.294979095458984
 22
-42.7720947265625
 32
150.0
 13
25.294979095458984
 23
-42.7720947265625
 33
150.0
  0
3DFACE
  8
0
 10
25.294979095458984
 20
-42.7720947265625
 30
150.0
 11
24.943817138671875
 21
-44.47903060913086
 31
150.0
 12
25.111425399780273
 22
-46.35506057739258
 32
150.0
 13
25.111425399780273
 23
-46.35506057739258
 33
150.0
  0
3DFACE
  8
0
 10
25.111425399780273
 20
-46.35506057739258
 30
150.0
 11
25.481603622436523
 21
-47.42430877685547
 31
150.0
 12
26.023839950561523
 22
-48.54082107543945
 32
150.0
 13
26.023839950561523
 23
-48.54082107543945
 33
150.0
  0
3DFACE
  8
0
 10
26.023839950561523
 20
-48.54082107543945
 30
150.0
 11
26.33875846862793
 21
-49.098575592041016
 31
150.0
 12
26.746278762817383
 22
-49.623565673828125
 32
150.0
 13
26.746278762817383
 23
-49.623565673828125
 33
150.0
  0
3DFACE
  8
0
 10
26.746278762817383
 20
-49.623565673828125
 30
150.0
 11
26.838088989257812
 21
-49.758941650390625
 31
150.0
 12
27.144039154052734
 22
-50.08884048461914
 32
150.0
 13
27.144039154052734
 23
-50.08884048461914
 33
150.0
  0
3DFACE
  8
0
 10
27.144039154052734
 20
-50.08884048461914
 30
150.0
 11
27.16796112060547
 21
-50.11154556274414
 31
150.0
 12
27.17119789123535
 22
-50.11452865600586
 32
150.0
 13
27.17119789123535
 23
-50.11452865600586
 33
150.0
  0
3DFACE
  8
0
 10
27.17119789123535
 20
-50.11452865600586
 30
150.0
 11
27.510114669799805
 21
-50.39390563964844
 31
150.0
 12
27.909948348999023
 22
-50.63175964355469
 32
150.0
 13
27.909948348999023
 23
-50.63175964355469
 33
150.0
  0
3DFACE
  8
0
 10
27.909948348999023
 20
-50.63175964355469
 30
150.0
 11
28.238466262817383
 21
-50.785003662109375
 31
150.0
 12
28.537799835205078
 22
-50.87416458129883
 32
150.0
 13
28.537799835205078
 23
-50.87416458129883
 33
150.0
  0
3DFACE
  8
0
 10
28.537799835205078
 20
-50.87416458129883
 30
150.0
 11
28.988483428955078
 21
-51.07537841796875
 31
150.0
 12
29.468780517578125
 22
-51.168087005615234
 32
150.0
 13
29.468780517578125
 23
-51.168087005615234
 33
150.0
  0
3DFACE
  8
0
 10
29.468780517578125
 20
-51.168087005615234
 30
150.0
 11
29.762191772460938
 21
-51.25566864013672
 31
150.0
 12
30.194543838500977
 22
-51.25027084350586
 32
150.0
 13
30.194543838500977
 23
-51.25027084350586
 33
150.0
  0
3DFACE
  8
0
 10
30.194543838500977
 20
-51.25027084350586
 30
150.0
 11
30.571212768554688
 21
-51.271854400634766
 31
150.0
 12
31.318538665771484
 22
-51.18968200683594
 32
150.0
 13
31.318538665771484
 23
-51.18968200683594
 33
150.0
  0
3DFACE
  8
0
 10
31.318538665771484
 20
-51.18968200683594
 30
150.0
 11
31.402189254760742
 21
-51.18596267700195
 31
150.0
 12
31.522180557250977
 22
-51.1535530090332
 32
150.0
 13
31.522180557250977
 23
-51.1535530090332
 33
150.0
  0
3DFACE
  8
0
 10
31.522180557250977
 20
-51.1535530090332
 30
150.0
 11
32.28938674926758
 21
-50.83871841430664
 31
150.0
 12
32.691837310791016
 22
-50.59102249145508
 32
150.0
 13
32.691837310791016
 23
-50.59102249145508
 33
150.0
  0
3DFACE
  8
0
 10
32.691837310791016
 20
-50.59102249145508
 30
150.0
 11
33.26161575317383
 21
-50.096290588378906
 31
150.0
 12
33.401023864746094
 22
-49.948936462402344
 32
150.0
 13
33.401023864746094
 23
-49.948936462402344
 33
150.0
  0
3DFACE
  8
0
 10
33.514678955078125
 20
-49.763824462890625
 30
150.0
 11
33.859405517578125
 21
-49.248538970947266
 31
150.0
 12
34.085506439208984
 22
-48.72272872924805
 32
150.0
 13
34.085506439208984
 23
-48.72272872924805
 33
150.0
  0
3DFACE
  8
0
 10
32.691837310791016
 20
-50.59102249145508
 30
150.0
 11
33.401023864746094
 21
-49.948936462402344
 31
150.0
 12
33.514678955078125
 22
-49.763824462890625
 32
150.0
 13
33.514678955078125
 23
-49.763824462890625
 33
150.0
  0
3DFACE
  8
0
 10
31.318538665771484
 20
-51.18968200683594
 30
150.0
 11
31.522180557250977
 21
-51.1535530090332
 31
150.0
 12
32.691837310791016
 22
-50.59102249145508
 32
150.0
 13
32.691837310791016
 23
-50.59102249145508
 33
150.0
  0
3DFACE
  8
0
 10
29.468780517578125
 20
-51.168087005615234
 30
150.0
 11
30.194543838500977
 21
-51.25027084350586
 31
150.0
 12
31.318538665771484
 22
-51.18968200683594
 32
150.0
 13
31.318538665771484
 23
-51.18968200683594
 33
150.0
  0
3DFACE
  8
0
 10
27.909948348999023
 20
-50.63175964355469
 30
150.0
 11
28.537799835205078
 21
-50.87416458129883
 31
150.0
 12
29.468780517578125
 22
-51.168087005615234
 32
150.0
 13
29.468780517578125
 23
-51.168087005615234
 33
150.0
  0
3DFACE
  8
0
 10
27.144039154052734
 20
-50.08884048461914
 30
150.0
 11
27.17119789123535
 21
-50.11452865600586
 31
150.0
 12
27.909948348999023
 22
-50.63175964355469
 32
150.0
 13
27.909948348999023
 23
-50.63175964355469
 33
150.0
  0
3DFACE
  8
0
 10
26.023839950561523
 20
-48.54082107543945
 30
150.0
 11
26.746278762817383
 21
-49.623565673828125
 31
150.0
 12
27.144039154052734
 22
-50.08884048461914
 32
150.0
 13
27.144039154052734
 23
-50.08884048461914
 33
150.0
  0
3DFACE
  8
0
 10
25.294979095458984
 20
-42.7720947265625
 30
150.0
 11
25.111425399780273
 21
-46.35506057739258
 31
150.0
 12
26.023839950561523
 22
-48.54082107543945
 32
150.0
 13
26.023839950561523
 23
-48.54082107543945
 33
150.0
  0
3DFACE
  8
0
 10
30.486604690551758
 20
-40.247222900390625
 30
150.0
 11
26.99919891357422
 21
-40.661476135253906
 31
150.0
 12
25.294979095458984
 22
-42.7720947265625
 32
150.0
 13
25.294979095458984
 23
-42.7720947265625
 33
150.0
  0
3DFACE
  8
0
 10
31.95733070373535
 20
-41.0526237487793
 30
150.0
 11
31.246139526367188
 21
-40.581756591796875
 31
150.0
 12
30.486604690551758
 22
-40.247222900390625
 32
150.0
 13
30.486604690551758
 23
-40.247222900390625
 33
150.0
  0
3DFACE
  8
0
 10
32.78439712524414
 20
-41.852779388427734
 30
150.0
 11
32.290035247802734
 21
-41.32728576660156
 31
150.0
 12
31.95733070373535
 22
-41.0526237487793
 32
150.0
 13
31.95733070373535
 23
-41.0526237487793
 33
150.0
  0
3DFACE
  8
0
 10
33.4936637878418
 20
-42.70811462402344
 30
150.0
 11
33.47496795654297
 21
-42.684730529785156
 31
150.0
 12
32.78439712524414
 22
-41.852779388427734
 32
150.0
 13
32.78439712524414
 23
-41.852779388427734
 33
150.0
  0
3DFACE
  8
0
 10
33.88991928100586
 20
-43.39939880371094
 30
150.0
 11
33.553951263427734
 21
-42.80525588989258
 31
150.0
 12
33.4936637878418
 22
-42.70811462402344
 32
150.0
 13
33.4936637878418
 23
-42.70811462402344
 33
150.0
  0
3DFACE
  8
0
 10
34.173789978027344
 20
-44.03740692138672
 30
150.0
 11
34.108543395996094
 21
-43.857208251953125
 31
150.0
 12
33.88991928100586
 22
-43.39939880371094
 32
150.0
 13
33.88991928100586
 23
-43.39939880371094
 33
150.0
  0
3DFACE
  8
0
 10
34.356422424316406
 20
-44.522335052490234
 30
150.0
 11
34.277740478515625
 21
-44.2879638671875
 31
150.0
 12
34.173789978027344
 22
-44.03740692138672
 32
150.0
 13
34.173789978027344
 23
-44.03740692138672
 33
150.0
  0
3DFACE
  8
0
 10
34.59967041015625
 20
-45.81132125854492
 30
150.0
 11
34.556297302246094
 21
-45.378814697265625
 31
150.0
 12
34.43692398071289
 22
-44.89411926269531
 32
150.0
 13
34.43692398071289
 23
-44.89411926269531
 33
150.0
  0
3DFACE
  8
0
 10
34.43692398071289
 20
-44.89411926269531
 30
150.0
 11
34.356422424316406
 21
-44.522335052490234
 31
150.0
 12
34.173789978027344
 22
-44.03740692138672
 32
150.0
 13
34.173789978027344
 23
-44.03740692138672
 33
150.0
  0
3DFACE
  8
0
 10
34.173789978027344
 20
-44.03740692138672
 30
150.0
 11
33.88991928100586
 21
-43.39939880371094
 31
150.0
 12
33.4936637878418
 22
-42.70811462402344
 32
150.0
 13
33.4936637878418
 23
-42.70811462402344
 33
150.0
  0
3DFACE
  8
0
 10
33.4936637878418
 20
-42.70811462402344
 30
150.0
 11
32.78439712524414
 21
-41.852779388427734
 31
150.0
 12
31.95733070373535
 22
-41.0526237487793
 32
150.0
 13
31.95733070373535
 23
-41.0526237487793
 33
150.0
  0
3DFACE
  8
0
 10
31.95733070373535
 20
-41.0526237487793
 30
150.0
 11
30.486604690551758
 21
-40.247222900390625
 31
150.0
 12
25.294979095458984
 22
-42.7720947265625
 32
150.0
 13
25.294979095458984
 23
-42.7720947265625
 33
150.0
  0
3DFACE
  8
0
 10
25.294979095458984
 20
-42.7720947265625
 30
150.0
 11
26.023839950561523
 21
-48.54082107543945
 31
150.0
 12
27.144039154052734
 22
-50.08884048461914
 32
150.0
 13
27.144039154052734
 23
-50.08884048461914
 33
150.0
  0
3DFACE
  8
0
 10
27.144039154052734
 20
-50.08884048461914
 30
150.0
 11
27.909948348999023
 21
-50.63175964355469
 31
150.0
 12
29.468780517578125
 22
-51.168087005615234
 32
150.0
 13
29.468780517578125
 23
-51.168087005615234
 33
150.0
  0
3DFACE
  8
0
 10
29.468780517578125
 20
-51.168087005615234
 30
150.0
 11
31.318538665771484
 21
-51.18968200683594
 31
150.0
 12
32.691837310791016
 22
-50.59102249145508
 32
150.0
 13
32.691837310791016
 23
-50.59102249145508
 33
150.0
  0
3DFACE
  8
0
 10
32.691837310791016
 20
-50.59102249145508
 30
150.0
 11
33.514678955078125
 21
-49.763824462890625
 31
150.0
 12
34.085506439208984
 22
-48.72272872924805
 32
150.0
 13
34.085506439208984
 23
-48.72272872924805
 33
150.0
  0
3DFACE
  8
0
 10
34.085506439208984
 20
-48.72272872924805
 30
150.0
 11
34.18816375732422
 21
-48.51801681518555
 31
150.0
 12
34.43745803833008
 22
-47.769012451171875
 32
150.0
 13
34.43745803833008
 23
-47.769012451171875
 33
150.0
  0
3DFACE
  8
0
 10
34.5147705078125
 20
-47.16807556152344
 30
150.0
 11
34.554832458496094
 21
-46.98934555053711
 31
150.0
 12
34.58277893066406
 22
-46.46055603027344
 32
150.0
 13
34.58277893066406
 23
-46.46055603027344
 33
150.0
  0
3DFACE
  8
0
 10
34.085506439208984
 20
-48.72272872924805
 30
150.0
 11
34.43745803833008
 21
-47.769012451171875
 31
150.0
 12
34.5147705078125
 22
-47.16807556152344
 32
150.0
 13
34.5147705078125
 23
-47.16807556152344
 33
150.0
  0
3DFACE
  8
0
 10
29.468780517578125
 20
-51.168087005615234
 30
150.0
 11
32.691837310791016
 21
-50.59102249145508
 31
150.0
 12
34.085506439208984
 22
-48.72272872924805
 32
150.0
 13
34.085506439208984
 23
-48.72272872924805
 33
150.0
  0
3DFACE
  8
0
 10
25.294979095458984
 20
-42.7720947265625
 30
150.0
 11
27.144039154052734
 21
-50.08884048461914
 31
150.0
 12
29.468780517578125
 22
-51.168087005615234
 32
150.0
 13
29.468780517578125
 23
-51.168087005615234
 33
150.0
  0
3DFACE
  8
0
 10
33.4936637878418
 20
-42.70811462402344
 30
150.0
 11
31.95733070373535
 21
-41.0526237487793
 31
150.0
 12
25.294979095458984
 22
-42.7720947265625
 32
150.0
 13
25.294979095458984
 23
-42.7720947265625
 33
150.0
  0
3DFACE
  8
0
 10
34.43692398071289
 20
-44.89411926269531
 30
150.0
 11
34.173789978027344
 21
-44.03740692138672
 31
150.0
 12
33.4936637878418
 22
-42.70811462402344
 32
150.0
 13
33.4936637878418
 23
-42.70811462402344
 33
150.0
  0
3DFACE
  8
0
 10
34.602359771728516
 20
-46.19342803955078
 30
150.0
 11
34.59967041015625
 21
-45.81132125854492
 31
150.0
 12
34.43692398071289
 22
-44.89411926269531
 32
150.0
 13
34.43692398071289
 23
-44.89411926269531
 33
150.0
  0
3DFACE
  8
0
 10
34.5147705078125
 20
-47.16807556152344
 30
150.0
 11
34.58277893066406
 21
-46.46055603027344
 31
150.0
 12
34.602359771728516
 22
-46.19342803955078
 32
150.0
 13
34.602359771728516
 23
-46.19342803955078
 33
150.0
  0
3DFACE
  8
0
 10
29.468780517578125
 20
-51.168087005615234
 30
150.0
 11
34.085506439208984
 21
-48.72272872924805
 31
150.0
 12
34.5147705078125
 22
-47.16807556152344
 32
150.0
 13
34.5147705078125
 23
-47.16807556152344
 33
150.0
  0
3DFACE
  8
0
 10
33.4936637878418
 20
-42.70811462402344
 30
150.0
 11
25.294979095458984
 21
-42.7720947265625
 31
150.0
 12
29.468780517578125
 22
-51.168087005615234
 32
150.0
 13
29.468780517578125
 23
-51.168087005615234
 33
150.0
  0
3DFACE
  8
0
 10
34.602359771728516
 20
-46.19342803955078
 30
150.0
 11
34.43692398071289
 21
-44.89411926269531
 31
150.0
 12
33.4936637878418
 22
-42.70811462402344
 32
150.0
 13
33.4936637878418
 23
-42.70811462402344
 33
150.0
  0
3DFACE
  8
0
 10
29.468780517578125
 20
-51.168087005615234
 30
150.0
 11
34.5147705078125
 21
-47.16807556152344
 31
150.0
 12
34.602359771728516
 22
-46.19342803955078
 32
150.0
 13
34.602359771728516
 23
-46.19342803955078
 33
150.0
  0
3DFACE
  8
0
 10
29.468780517578125
 20
-51.168087005615234
 30
150.0
 11
34.602359771728516
 21
-46.19342803955078
 31
150.0
 12
33.4936637878418
 22
-42.70811462402344
 32
150.0
 13
33.4936637878418
 23
-42.70811462402344
 33
150.0
  0
3DFACE
  8
0
 10
70.8006591796875
 20
-16.617992401123047
 30
150.0
 11
70.82418060302734
 21
-16.60313606262207
 31
150.0
 12
70.84417724609375
 22
-16.58884048461914
 32
150.0
 13
70.84417724609375
 23
-16.58884048461914
 33
150.0
  0
3DFACE
  8
0
 10
71.26322174072266
 20
-16.21009063720703
 30
150.0
 11
71.52316284179688
 21
-15.983643531799316
 31
150.0
 12
71.69713592529297
 22
-15.819632530212402
 32
150.0
 13
71.69713592529297
 23
-15.819632530212402
 33
150.0
  0
3DFACE
  8
0
 10
70.8006591796875
 20
-16.617992401123047
 30
150.0
 11
70.84417724609375
 21
-16.58884048461914
 31
150.0
 12
71.26322174072266
 22
-16.21009063720703
 32
150.0
 13
71.26322174072266
 23
-16.21009063720703
 33
150.0
  0
3DFACE
  8
0
 10
70.72968292236328
 20
-16.665315628051758
 30
150.0
 11
70.79447937011719
 21
-16.625961303710938
 31
150.0
 12
70.8006591796875
 22
-16.617992401123047
 32
150.0
 13
70.8006591796875
 23
-16.617992401123047
 33
150.0
  0
3DFACE
  8
0
 10
69.73200988769531
 20
-17.288818359375
 30
150.0
 11
70.21463012695312
 21
-17.017423629760742
 31
150.0
 12
70.72968292236328
 22
-16.665315628051758
 32
150.0
 13
70.72968292236328
 23
-16.665315628051758
 33
150.0
  0
3DFACE
  8
0
 10
68.53162384033203
 20
-17.796825408935547
 30
150.0
 11
68.96966552734375
 21
-17.636661529541016
 31
150.0
 12
69.73200988769531
 22
-17.288818359375
 32
150.0
 13
69.73200988769531
 23
-17.288818359375
 33
150.0
  0
3DFACE
  8
0
 10
67.81938934326172
 20
-17.99460792541504
 30
150.0
 11
68.50251770019531
 21
-17.808917999267578
 31
150.0
 12
68.53162384033203
 22
-17.796825408935547
 32
150.0
 13
68.53162384033203
 23
-17.796825408935547
 33
150.0
  0
3DFACE
  8
0
 10
66.4122314453125
 20
-18.17361068725586
 30
150.0
 11
67.0307846069336
 21
-18.116809844970703
 31
150.0
 12
67.75621795654297
 22
-18.00249481201172
 32
150.0
 13
67.75621795654297
 23
-18.00249481201172
 33
150.0
  0
3DFACE
  8
0
 10
67.75621795654297
 20
-18.00249481201172
 30
150.0
 11
67.81938934326172
 21
-17.99460792541504
 31
150.0
 12
68.53162384033203
 22
-17.796825408935547
 32
150.0
 13
68.53162384033203
 23
-17.796825408935547
 33
150.0
  0
3DFACE
  8
0
 10
68.53162384033203
 20
-17.796825408935547
 30
150.0
 11
69.73200988769531
 21
-17.288818359375
 31
150.0
 12
70.72968292236328
 22
-16.665315628051758
 32
150.0
 13
70.72968292236328
 23
-16.665315628051758
 33
150.0
  0
3DFACE
  8
0
 10
70.72968292236328
 20
-16.665315628051758
 30
150.0
 11
70.8006591796875
 21
-16.617992401123047
 31
150.0
 12
71.26322174072266
 22
-16.21009063720703
 32
150.0
 13
71.26322174072266
 23
-16.21009063720703
 33
150.0
  0
3DFACE
  8
0
 10
71.26322174072266
 20
-16.21009063720703
 30
150.0
 11
71.69713592529297
 21
-15.819632530212402
 31
150.0
 12
71.72735595703125
 22
-15.78670883178711
 32
150.0
 13
71.72735595703125
 23
-15.78670883178711
 33
150.0
  0
3DFACE
  8
0
 10
71.72735595703125
 20
-15.78670883178711
 30
150.0
 11
72.29721069335938
 21
-15.192205429077148
 31
150.0
 12
72.41792297363281
 22
-15.050421714782715
 32
150.0
 13
72.41792297363281
 23
-15.050421714782715
 33
150.0
  0
3DFACE
  8
0
 10
72.41792297363281
 20
-15.050421714782715
 30
150.0
 11
72.94058227539062
 21
-14.281216621398926
 31
150.0
 12
73.33956909179688
 22
-13.57710075378418
 32
150.0
 13
73.33956909179688
 23
-13.57710075378418
 33
150.0
  0
3DFACE
  8
0
 10
73.36695098876953
 20
-13.525590896606445
 30
150.0
 11
73.37523651123047
 21
-13.512005805969238
 31
150.0
 12
73.38108825683594
 22
-13.498555183410645
 32
150.0
 13
73.38108825683594
 23
-13.498555183410645
 33
150.0
  0
3DFACE
  8
0
 10
72.41792297363281
 20
-15.050421714782715
 30
150.0
 11
73.33956909179688
 21
-13.57710075378418
 31
150.0
 12
73.36695098876953
 22
-13.525590896606445
 32
150.0
 13
73.36695098876953
 23
-13.525590896606445
 33
150.0
  0
3DFACE
  8
0
 10
71.26322174072266
 20
-16.21009063720703
 30
150.0
 11
71.72735595703125
 21
-15.78670883178711
 31
150.0
 12
72.41792297363281
 22
-15.050421714782715
 32
150.0
 13
72.41792297363281
 23
-15.050421714782715
 33
150.0
  0
3DFACE
  8
0
 10
68.53162384033203
 20
-17.796825408935547
 30
150.0
 11
70.72968292236328
 21
-16.665315628051758
 31
150.0
 12
71.26322174072266
 22
-16.21009063720703
 32
150.0
 13
71.26322174072266
 23
-16.21009063720703
 33
150.0
  0
3DFACE
  8
0
 10
66.4122314453125
 20
-18.17361068725586
 30
150.0
 11
67.75621795654297
 21
-18.00249481201172
 31
150.0
 12
68.53162384033203
 22
-17.796825408935547
 32
150.0
 13
68.53162384033203
 23
-17.796825408935547
 33
150.0
  0
3DFACE
  8
0
 10
65.92949676513672
 20
-18.196857452392578
 30
150.0
 11
66.25727081298828
 21
-18.199337005615234
 31
150.0
 12
66.4122314453125
 22
-18.17361068725586
 32
150.0
 13
66.4122314453125
 23
-18.17361068725586
 33
150.0
  0
3DFACE
  8
0
 10
65.4535903930664
 20
-18.150842666625977
 30
150.0
 11
65.7156982421875
 21
-18.187236785888672
 31
150.0
 12
65.92949676513672
 22
-18.196857452392578
 32
150.0
 13
65.92949676513672
 23
-18.196857452392578
 33
150.0
  0
3DFACE
  8
0
 10
64.64295959472656
 20
-18.061843872070312
 30
150.0
 11
64.65286254882812
 21
-18.063209533691406
 31
150.0
 12
64.66499328613281
 22
-18.064064025878906
 32
150.0
 13
64.66499328613281
 23
-18.064064025878906
 33
150.0
  0
3DFACE
  8
0
 10
64.66499328613281
 20
-18.064064025878906
 30
150.0
 11
65.4535903930664
 21
-18.150842666625977
 31
150.0
 12
65.92949676513672
 22
-18.196857452392578
 32
150.0
 13
65.92949676513672
 23
-18.196857452392578
 33
150.0
  0
3DFACE
  8
0
 10
65.92949676513672
 20
-18.196857452392578
 30
150.0
 11
66.4122314453125
 21
-18.17361068725586
 31
150.0
 12
68.53162384033203
 22
-17.796825408935547
 32
150.0
 13
68.53162384033203
 23
-17.796825408935547
 33
150.0
  0
3DFACE
  8
0
 10
68.53162384033203
 20
-17.796825408935547
 30
150.0
 11
71.26322174072266
 21
-16.21009063720703
 31
150.0
 12
72.41792297363281
 22
-15.050421714782715
 32
150.0
 13
72.41792297363281
 23
-15.050421714782715
 33
150.0
  0
3DFACE
  8
0
 10
72.41792297363281
 20
-15.050421714782715
 30
150.0
 11
73.36695098876953
 21
-13.525590896606445
 31
150.0
 12
73.38108825683594
 22
-13.498555183410645
 32
150.0
 13
73.38108825683594
 23
-13.498555183410645
 33
150.0
  0
3DFACE
  8
0
 10
73.38108825683594
 20
-13.498555183410645
 30
150.0
 11
73.39511108398438
 21
-13.467999458312988
 31
150.0
 12
73.71023559570312
 22
-12.742796897888184
 32
150.0
 13
73.71023559570312
 23
-12.742796897888184
 33
150.0
  0
3DFACE
  8
0
 10
73.9322280883789
 20
-12.153578758239746
 30
150.0
 11
74.00601959228516
 21
-11.973589897155762
 31
150.0
 12
74.03416442871094
 22
-11.833476066589355
 32
150.0
 13
74.03416442871094
 23
-11.833476066589355
 33
150.0
  0
3DFACE
  8
0
 10
73.38108825683594
 20
-13.498555183410645
 30
150.0
 11
73.71023559570312
 21
-12.742796897888184
 31
150.0
 12
73.9322280883789
 22
-12.153578758239746
 32
150.0
 13
73.9322280883789
 23
-12.153578758239746
 33
150.0
  0
3DFACE
  8
0
 10
68.53162384033203
 20
-17.796825408935547
 30
150.0
 11
72.41792297363281
 21
-15.050421714782715
 31
150.0
 12
73.38108825683594
 22
-13.498555183410645
 32
150.0
 13
73.38108825683594
 23
-13.498555183410645
 33
150.0
  0
3DFACE
  8
0
 10
64.66499328613281
 20
-18.064064025878906
 30
150.0
 11
65.92949676513672
 21
-18.196857452392578
 31
150.0
 12
68.53162384033203
 22
-17.796825408935547
 32
150.0
 13
68.53162384033203
 23
-17.796825408935547
 33
150.0
  0
3DFACE
  8
0
 10
64.63473510742188
 20
-18.059823989868164
 30
150.0
 11
64.64295959472656
 21
-18.061843872070312
 31
150.0
 12
64.66499328613281
 22
-18.064064025878906
 32
150.0
 13
64.66499328613281
 23
-18.064064025878906
 33
150.0
  0
3DFACE
  8
0
 10
63.876399993896484
 20
-17.88184928894043
 30
150.0
 11
64.54546356201172
 21
-18.041078567504883
 31
150.0
 12
64.63473510742188
 22
-18.059823989868164
 32
150.0
 13
64.63473510742188
 23
-18.059823989868164
 33
150.0
  0
3DFACE
  8
0
 10
63.08778762817383
 20
-17.60144805908203
 30
150.0
 11
63.356449127197266
 21
-17.707719802856445
 31
150.0
 12
63.876399993896484
 22
-17.88184928894043
 32
150.0
 13
63.876399993896484
 23
-17.88184928894043
 33
150.0
  0
3DFACE
  8
0
 10
62.31242370605469
 20
-17.264507293701172
 30
150.0
 11
62.48876953125
 21
-17.3521728515625
 31
150.0
 12
62.84830093383789
 22
-17.495824813842773
 32
150.0
 13
62.84830093383789
 23
-17.495824813842773
 33
150.0
  0
3DFACE
  8
0
 10
62.84830093383789
 20
-17.495824813842773
 30
150.0
 11
63.08778762817383
 21
-17.60144805908203
 31
150.0
 12
63.876399993896484
 22
-17.88184928894043
 32
150.0
 13
63.876399993896484
 23
-17.88184928894043
 33
150.0
  0
3DFACE
  8
0
 10
63.876399993896484
 20
-17.88184928894043
 30
150.0
 11
64.63473510742188
 21
-18.059823989868164
 31
150.0
 12
64.66499328613281
 22
-18.064064025878906
 32
150.0
 13
64.66499328613281
 23
-18.064064025878906
 33
150.0
  0
3DFACE
  8
0
 10
64.66499328613281
 20
-18.064064025878906
 30
150.0
 11
68.53162384033203
 21
-17.796825408935547
 31
150.0
 12
73.38108825683594
 22
-13.498555183410645
 32
150.0
 13
73.38108825683594
 23
-13.498555183410645
 33
150.0
  0
3DFACE
  8
0
 10
73.38108825683594
 20
-13.498555183410645
 30
150.0
 11
73.9322280883789
 21
-12.153578758239746
 31
150.0
 12
74.03416442871094
 22
-11.833476066589355
 32
150.0
 13
74.03416442871094
 23
-11.833476066589355
 33
150.0
  0
3DFACE
  8
0
 10
74.03416442871094
 20
-11.833476066589355
 30
150.0
 11
74.17524719238281
 21
-11.204380989074707
 31
150.0
 12
74.27730560302734
 22
-10.435172080993652
 32
150.0
 13
74.27730560302734
 23
-10.435172080993652
 33
150.0
  0
3DFACE
  8
0
 10
74.27730560302734
 20
-10.435172080993652
 30
150.0
 11
74.29728698730469
 21
-10.010859489440918
 31
150.0
 12
74.28555297851562
 22
-9.755821228027344
 32
150.0
 13
74.28555297851562
 23
-9.755821228027344
 33
150.0
  0
3DFACE
  8
0
 10
74.28555297851562
 20
-9.755821228027344
 30
150.0
 11
74.28884887695312
 21
-9.66596508026123
 31
150.0
 12
74.2369613647461
 22
-8.896754264831543
 32
150.0
 13
74.2369613647461
 23
-8.896754264831543
 33
150.0
  0
3DFACE
  8
0
 10
74.17372131347656
 20
-8.6239013671875
 30
150.0
 11
74.07109069824219
 21
-8.127547264099121
 31
150.0
 12
73.8943862915039
 22
-7.604213714599609
 32
150.0
 13
73.8943862915039
 23
-7.604213714599609
 33
150.0
  0
3DFACE
  8
0
 10
74.28555297851562
 20
-9.755821228027344
 30
150.0
 11
74.2369613647461
 21
-8.896754264831543
 31
150.0
 12
74.17372131347656
 22
-8.6239013671875
 32
150.0
 13
74.17372131347656
 23
-8.6239013671875
 33
150.0
  0
3DFACE
  8
0
 10
74.03416442871094
 20
-11.833476066589355
 30
150.0
 11
74.27730560302734
 21
-10.435172080993652
 31
150.0
 12
74.28555297851562
 22
-9.755821228027344
 32
150.0
 13
74.28555297851562
 23
-9.755821228027344
 33
150.0
  0
3DFACE
  8
0
 10
64.66499328613281
 20
-18.064064025878906
 30
150.0
 11
73.38108825683594
 21
-13.498555183410645
 31
150.0
 12
74.03416442871094
 22
-11.833476066589355
 32
150.0
 13
74.03416442871094
 23
-11.833476066589355
 33
150.0
  0
3DFACE
  8
0
 10
62.84830093383789
 20
-17.495824813842773
 30
150.0
 11
63.876399993896484
 21
-17.88184928894043
 31
150.0
 12
64.66499328613281
 22
-18.064064025878906
 32
150.0
 13
64.66499328613281
 23
-18.064064025878906
 33
150.0
  0
3DFACE
  8
0
 10
62.06993865966797
 20
-17.13843536376953
 30
150.0
 11
62.31242370605469
 21
-17.264507293701172
 31
150.0
 12
62.84830093383789
 22
-17.495824813842773
 32
150.0
 13
62.84830093383789
 23
-17.495824813842773
 33
150.0
  0
3DFACE
  8
0
 10
60.787078857421875
 20
-16.217042922973633
 30
150.0
 11
61.43471908569336
 21
-16.73488998413086
 31
150.0
 12
62.06993865966797
 22
-17.13843536376953
 32
150.0
 13
62.06993865966797
 23
-17.13843536376953
 33
150.0
  0
3DFACE
  8
0
 10
59.915000915527344
 20
-15.428215026855469
 30
150.0
 11
60.12062072753906
 21
-15.654367446899414
 31
150.0
 12
60.71901321411133
 22
-16.158018112182617
 32
150.0
 13
60.71901321411133
 23
-16.158018112182617
 33
150.0
  0
3DFACE
  8
0
 10
60.71901321411133
 20
-16.158018112182617
 30
150.0
 11
60.787078857421875
 21
-16.217042922973633
 31
150.0
 12
62.06993865966797
 22
-17.13843536376953
 32
150.0
 13
62.06993865966797
 23
-17.13843536376953
 33
150.0
  0
3DFACE
  8
0
 10
62.06993865966797
 20
-17.13843536376953
 30
150.0
 11
62.84830093383789
 21
-17.495824813842773
 31
150.0
 12
64.66499328613281
 22
-18.064064025878906
 32
150.0
 13
64.66499328613281
 23
-18.064064025878906
 33
150.0
  0
3DFACE
  8
0
 10
64.66499328613281
 20
-18.064064025878906
 30
150.0
 11
74.03416442871094
 21
-11.833476066589355
 31
150.0
 12
74.28555297851562
 22
-9.755821228027344
 32
150.0
 13
74.28555297851562
 23
-9.755821228027344
 33
150.0
  0
3DFACE
  8
0
 10
74.28555297851562
 20
-9.755821228027344
 30
150.0
 11
74.17372131347656
 21
-8.6239013671875
 31
150.0
 12
73.8943862915039
 22
-7.604213714599609
 32
150.0
 13
73.8943862915039
 23
-7.604213714599609
 33
150.0
  0
3DFACE
  8
0
 10
73.8943862915039
 20
-7.604213714599609
 30
150.0
 11
73.79513549804688
 21
-7.352299690246582
 31
150.0
 12
73.59687042236328
 22
-6.966601371765137
 32
150.0
 13
73.59687042236328
 23
-6.966601371765137
 33
150.0
  0
3DFACE
  8
0
 10
73.59687042236328
 20
-6.966601371765137
 30
150.0
 11
73.41143035888672
 21
-6.589130401611328
 31
150.0
 12
73.19580841064453
 22
-6.265425682067871
 32
150.0
 13
73.19580841064453
 23
-6.265425682067871
 33
150.0
  0
3DFACE
  8
0
 10
73.19580841064453
 20
-6.265425682067871
 30
150.0
 11
72.86659240722656
 21
-5.811502933502197
 31
150.0
 12
72.35122680664062
 22
-5.258830547332764
 32
150.0
 13
72.35122680664062
 23
-5.258830547332764
 33
150.0
  0
3DFACE
  8
0
 10
72.35122680664062
 20
-5.258830547332764
 30
150.0
 11
72.17245483398438
 21
-5.080493450164795
 31
150.0
 12
71.76236724853516
 22
-4.730635643005371
 32
150.0
 13
71.76236724853516
 23
-4.730635643005371
 33
150.0
  0
3DFACE
  8
0
 10
71.76236724853516
 20
-4.730635643005371
 30
150.0
 11
71.53341674804688
 21
-4.557837009429932
 31
150.0
 12
71.15306854248047
 22
-4.281145095825195
 32
150.0
 13
71.15306854248047
 23
-4.281145095825195
 33
150.0
  0
3DFACE
  8
0
 10
70.71904754638672
 20
-4.016792297363281
 30
150.0
 11
70.51165771484375
 21
-3.885014295578003
 31
150.0
 12
69.78903198242188
 22
-3.4759843349456787
 32
150.0
 13
69.78903198242188
 23
-3.4759843349456787
 33
150.0
  0
3DFACE
  8
0
 10
71.76236724853516
 20
-4.730635643005371
 30
150.0
 11
71.15306854248047
 21
-4.281145095825195
 31
150.0
 12
70.71904754638672
 22
-4.016792297363281
 32
150.0
 13
70.71904754638672
 23
-4.016792297363281
 33
150.0
  0
3DFACE
  8
0
 10
73.19580841064453
 20
-6.265425682067871
 30
150.0
 11
72.35122680664062
 21
-5.258830547332764
 31
150.0
 12
71.76236724853516
 22
-4.730635643005371
 32
150.0
 13
71.76236724853516
 23
-4.730635643005371
 33
150.0
  0
3DFACE
  8
0
 10
73.8943862915039
 20
-7.604213714599609
 30
150.0
 11
73.59687042236328
 21
-6.966601371765137
 31
150.0
 12
73.19580841064453
 22
-6.265425682067871
 32
150.0
 13
73.19580841064453
 23
-6.265425682067871
 33
150.0
  0
3DFACE
  8
0
 10
64.66499328613281
 20
-18.064064025878906
 30
150.0
 11
74.28555297851562
 21
-9.755821228027344
 31
150.0
 12
73.8943862915039
 22
-7.604213714599609
 32
150.0
 13
73.8943862915039
 23
-7.604213714599609
 33
150.0
  0
3DFACE
  8
0
 10
60.71901321411133
 20
-16.158018112182617
 30
150.0
 11
62.06993865966797
 21
-17.13843536376953
 31
150.0
 12
64.66499328613281
 22
-18.064064025878906
 32
150.0
 13
64.66499328613281
 23
-18.064064025878906
 33
150.0
  0
3DFACE
  8
0
 10
59.55632019042969
 20
-15.050421714782715
 30
150.0
 11
59.915000915527344
 21
-15.428215026855469
 31
150.0
 12
60.71901321411133
 22
-16.158018112182617
 32
150.0
 13
60.71901321411133
 23
-16.158018112182617
 33
150.0
  0
3DFACE
  8
0
 10
58.83669662475586
 20
-13.967147827148438
 30
150.0
 11
58.99853515625
 21
-14.246407508850098
 31
150.0
 12
59.294734954833984
 22
-14.66240406036377
 32
150.0
 13
59.294734954833984
 23
-14.66240406036377
 33
150.0
  0
3DFACE
  8
0
 10
59.294734954833984
 20
-14.66240406036377
 30
150.0
 11
59.55632019042969
 21
-15.050421714782715
 31
150.0
 12
60.71901321411133
 22
-16.158018112182617
 32
150.0
 13
60.71901321411133
 23
-16.158018112182617
 33
150.0
  0
3DFACE
  8
0
 10
60.71901321411133
 20
-16.158018112182617
 30
150.0
 11
64.66499328613281
 21
-18.064064025878906
 31
150.0
 12
73.8943862915039
 22
-7.604213714599609
 32
150.0
 13
73.8943862915039
 23
-7.604213714599609
 33
150.0
  0
3DFACE
  8
0
 10
73.8943862915039
 20
-7.604213714599609
 30
150.0
 11
73.19580841064453
 21
-6.265425682067871
 31
150.0
 12
71.76236724853516
 22
-4.730635643005371
 32
150.0
 13
71.76236724853516
 23
-4.730635643005371
 33
150.0
  0
3DFACE
  8
0
 10
71.76236724853516
 20
-4.730635643005371
 30
150.0
 11
70.71904754638672
 21
-4.016792297363281
 31
150.0
 12
69.78903198242188
 22
-3.4759843349456787
 32
150.0
 13
69.78903198242188
 23
-3.4759843349456787
 33
150.0
  0
3DFACE
  8
0
 10
69.3965835571289
 20
-3.3108692169189453
 30
150.0
 11
69.19477844238281
 21
-3.2161998748779297
 31
150.0
 12
68.62420654296875
 22
-2.9916138648986816
 32
150.0
 13
68.62420654296875
 23
-2.9916138648986816
 33
150.0
  0
3DFACE
  8
0
 10
71.76236724853516
 20
-4.730635643005371
 30
150.0
 11
69.78903198242188
 21
-3.4759843349456787
 31
150.0
 12
69.3965835571289
 22
-3.3108692169189453
 32
150.0
 13
69.3965835571289
 23
-3.3108692169189453
 33
150.0
  0
3DFACE
  8
0
 10
60.71901321411133
 20
-16.158018112182617
 30
150.0
 11
73.8943862915039
 21
-7.604213714599609
 31
150.0
 12
71.76236724853516
 22
-4.730635643005371
 32
150.0
 13
71.76236724853516
 23
-4.730635643005371
 33
150.0
  0
3DFACE
  8
0
 10
58.83669662475586
 20
-13.967147827148438
 30
150.0
 11
59.294734954833984
 21
-14.66240406036377
 31
150.0
 12
60.71901321411133
 22
-16.158018112182617
 32
150.0
 13
60.71901321411133
 23
-16.158018112182617
 33
150.0
  0
3DFACE
  8
0
 10
58.27424621582031
 20
-12.727737426757812
 30
150.0
 11
58.593055725097656
 21
-13.512005805969238
 31
150.0
 12
58.83669662475586
 22
-13.967147827148438
 32
150.0
 13
58.83669662475586
 23
-13.967147827148438
 33
150.0
  0
3DFACE
  8
0
 10
57.86503982543945
 20
-11.270289421081543
 30
150.0
 11
58.03349685668945
 21
-11.972688674926758
 31
150.0
 12
58.27424621582031
 22
-12.727737426757812
 32
150.0
 13
58.27424621582031
 23
-12.727737426757812
 33
150.0
  0
3DFACE
  8
0
 10
57.80579376220703
 20
-10.899473190307617
 30
150.0
 11
57.84755325317383
 21
-11.204380989074707
 31
150.0
 12
57.86503982543945
 22
-11.270289421081543
 32
150.0
 13
57.86503982543945
 23
-11.270289421081543
 33
150.0
  0
3DFACE
  8
0
 10
57.690956115722656
 20
-9.788267135620117
 30
150.0
 11
57.726139068603516
 21
-10.435172080993652
 31
150.0
 12
57.80579376220703
 22
-10.899473190307617
 32
150.0
 13
57.80579376220703
 23
-10.899473190307617
 33
150.0
  0
3DFACE
  8
0
 10
57.74053955078125
 20
-8.97271728515625
 30
150.0
 11
57.687965393066406
 21
-9.66596508026123
 31
150.0
 12
57.690956115722656
 22
-9.788267135620117
 32
150.0
 13
57.690956115722656
 23
-9.788267135620117
 33
150.0
  0
3DFACE
  8
0
 10
57.93864059448242
 20
-8.127547264099121
 30
150.0
 11
57.74896240234375
 21
-8.896754264831543
 31
150.0
 12
57.74053955078125
 22
-8.97271728515625
 32
150.0
 13
57.74053955078125
 23
-8.97271728515625
 33
150.0
  0
3DFACE
  8
0
 10
58.20995330810547
 20
-7.358340263366699
 30
150.0
 11
57.96493148803711
 21
-8.046293258666992
 31
150.0
 12
57.93864059448242
 22
-8.127547264099121
 32
150.0
 13
57.93864059448242
 23
-8.127547264099121
 33
150.0
  0
3DFACE
  8
0
 10
58.57875442504883
 20
-6.589130401611328
 30
150.0
 11
58.43482971191406
 21
-6.87789249420166
 31
150.0
 12
58.29823303222656
 22
-7.184709548950195
 32
150.0
 13
58.29823303222656
 23
-7.184709548950195
 33
150.0
  0
3DFACE
  8
0
 10
58.29823303222656
 20
-7.184709548950195
 30
150.0
 11
58.20995330810547
 21
-7.358340263366699
 31
150.0
 12
57.93864059448242
 22
-8.127547264099121
 32
150.0
 13
57.93864059448242
 23
-8.127547264099121
 33
150.0
  0
3DFACE
  8
0
 10
57.93864059448242
 20
-8.127547264099121
 30
150.0
 11
57.74053955078125
 21
-8.97271728515625
 31
150.0
 12
57.690956115722656
 22
-9.788267135620117
 32
150.0
 13
57.690956115722656
 23
-9.788267135620117
 33
150.0
  0
3DFACE
  8
0
 10
57.690956115722656
 20
-9.788267135620117
 30
150.0
 11
57.80579376220703
 21
-10.899473190307617
 31
150.0
 12
57.86503982543945
 22
-11.270289421081543
 32
150.0
 13
57.86503982543945
 23
-11.270289421081543
 33
150.0
  0
3DFACE
  8
0
 10
57.86503982543945
 20
-11.270289421081543
 30
150.0
 11
58.27424621582031
 21
-12.727737426757812
 31
150.0
 12
58.83669662475586
 22
-13.967147827148438
 32
150.0
 13
58.83669662475586
 23
-13.967147827148438
 33
150.0
  0
3DFACE
  8
0
 10
58.83669662475586
 20
-13.967147827148438
 30
150.0
 11
60.71901321411133
 21
-16.158018112182617
 31
150.0
 12
71.76236724853516
 22
-4.730635643005371
 32
150.0
 13
71.76236724853516
 23
-4.730635643005371
 33
150.0
  0
3DFACE
  8
0
 10
71.76236724853516
 20
-4.730635643005371
 30
150.0
 11
69.3965835571289
 21
-3.3108692169189453
 31
150.0
 12
68.62420654296875
 22
-2.9916138648986816
 32
150.0
 13
68.62420654296875
 23
-2.9916138648986816
 33
150.0
  0
3DFACE
  8
0
 10
68.62420654296875
 20
-2.9916138648986816
 30
150.0
 11
68.50251770019531
 21
-2.940945625305176
 31
150.0
 12
67.83487701416016
 22
-2.753173351287842
 32
150.0
 13
67.83487701416016
 23
-2.753173351287842
 33
150.0
  0
3DFACE
  8
0
 10
67.83487701416016
 20
-2.753173351287842
 30
150.0
 11
67.81938934326172
 21
-2.7496681213378906
 31
150.0
 12
66.8004150390625
 22
-2.545607566833496
 32
150.0
 13
66.8004150390625
 23
-2.545607566833496
 33
150.0
  0
3DFACE
  8
0
 10
66.8004150390625
 20
-2.545607566833496
 30
150.0
 11
66.57274627685547
 21
-2.515126943588257
 31
150.0
 12
65.92948150634766
 22
-2.501709222793579
 32
150.0
 13
65.92948150634766
 23
-2.501709222793579
 33
150.0
  0
3DFACE
  8
0
 10
65.92948150634766
 20
-2.501709222793579
 30
150.0
 11
65.28621673583984
 21
-2.5170679092407227
 31
150.0
 12
65.17094421386719
 22
-2.5265815258026123
 32
150.0
 13
65.17094421386719
 23
-2.5265815258026123
 33
150.0
  0
3DFACE
  8
0
 10
65.17094421386719
 20
-2.5265815258026123
 30
150.0
 11
64.64298248291016
 21
-2.587470054626465
 31
150.0
 12
64.29859924316406
 22
-2.6571383476257324
 32
150.0
 13
64.29859924316406
 23
-2.6571383476257324
 33
150.0
  0
3DFACE
  8
0
 10
64.29859924316406
 20
-2.6571383476257324
 30
150.0
 11
64.02474212646484
 21
-2.720721960067749
 31
150.0
 12
63.623653411865234
 22
-2.8419156074523926
 32
150.0
 13
63.623653411865234
 23
-2.8419156074523926
 33
150.0
  0
3DFACE
  8
0
 10
63.623653411865234
 20
-2.8419156074523926
 30
150.0
 11
63.393951416015625
 21
-2.9043235778808594
 31
150.0
 12
62.71320343017578
 22
-3.1473581790924072
 32
150.0
 13
62.71320343017578
 23
-3.1473581790924072
 33
150.0
  0
3DFACE
  8
0
 10
62.71320343017578
 20
-3.1473581790924072
 30
150.0
 11
62.24843978881836
 21
-3.3418962955474854
 31
150.0
 12
62.10105895996094
 22
-3.4104745388031006
 32
150.0
 13
62.10105895996094
 23
-3.4104745388031006
 33
150.0
  0
3DFACE
  8
0
 10
61.887428283691406
 20
-3.534811019897461
 30
150.0
 11
61.51839065551758
 21
-3.7339699268341064
 31
150.0
 12
61.426692962646484
 22
-3.7853200435638428
 32
150.0
 13
61.426692962646484
 23
-3.7853200435638428
 33
150.0
  0
3DFACE
  8
0
 10
62.71320343017578
 20
-3.1473581790924072
 30
150.0
 11
62.10105895996094
 21
-3.4104745388031006
 31
150.0
 12
61.887428283691406
 22
-3.534811019897461
 32
150.0
 13
61.887428283691406
 23
-3.534811019897461
 33
150.0
  0
3DFACE
  8
0
 10
64.29859924316406
 20
-2.6571383476257324
 30
150.0
 11
63.623653411865234
 21
-2.8419156074523926
 31
150.0
 12
62.71320343017578
 22
-3.1473581790924072
 32
150.0
 13
62.71320343017578
 23
-3.1473581790924072
 33
150.0
  0
3DFACE
  8
0
 10
65.92948150634766
 20
-2.501709222793579
 30
150.0
 11
65.17094421386719
 21
-2.5265815258026123
 31
150.0
 12
64.29859924316406
 22
-2.6571383476257324
 32
150.0
 13
64.29859924316406
 23
-2.6571383476257324
 33
150.0
  0
3DFACE
  8
0
 10
67.83487701416016
 20
-2.753173351287842
 30
150.0
 11
66.8004150390625
 21
-2.545607566833496
 31
150.0
 12
65.92948150634766
 22
-2.501709222793579
 32
150.0
 13
65.92948150634766
 23
-2.501709222793579
 33
150.0
  0
3DFACE
  8
0
 10
71.76236724853516
 20
-4.730635643005371
 30
150.0
 11
68.62420654296875
 21
-2.9916138648986816
 31
150.0
 12
67.83487701416016
 22
-2.753173351287842
 32
150.0
 13
67.83487701416016
 23
-2.753173351287842
 33
150.0
  0
3DFACE
  8
0
 10
57.86503982543945
 20
-11.270289421081543
 30
150.0
 11
58.83669662475586
 21
-13.967147827148438
 31
150.0
 12
71.76236724853516
 22
-4.730635643005371
 32
150.0
 13
71.76236724853516
 23
-4.730635643005371
 33
150.0
  0
3DFACE
  8
0
 10
57.93864059448242
 20
-8.127547264099121
 30
150.0
 11
57.690956115722656
 21
-9.788267135620117
 31
150.0
 12
57.86503982543945
 22
-11.270289421081543
 32
150.0
 13
57.86503982543945
 23
-11.270289421081543
 33
150.0
  0
3DFACE
  8
0
 10
58.57875442504883
 20
-6.589130401611328
 30
150.0
 11
58.29823303222656
 21
-7.184709548950195
 31
150.0
 12
57.93864059448242
 22
-8.127547264099121
 32
150.0
 13
57.93864059448242
 23
-8.127547264099121
 33
150.0
  0
3DFACE
  8
0
 10
59.072147369384766
 20
-5.821478366851807
 30
150.0
 11
58.90247344970703
 21
-6.079107284545898
 31
150.0
 12
58.74724578857422
 22
-6.3286004066467285
 32
150.0
 13
58.74724578857422
 23
-6.3286004066467285
 33
150.0
  0
3DFACE
  8
0
 10
58.74724578857422
 20
-6.3286004066467285
 30
150.0
 11
58.57875442504883
 21
-6.589130401611328
 31
150.0
 12
57.93864059448242
 22
-8.127547264099121
 32
150.0
 13
57.93864059448242
 23
-8.127547264099121
 33
150.0
  0
3DFACE
  8
0
 10
57.93864059448242
 20
-8.127547264099121
 30
150.0
 11
57.86503982543945
 21
-11.270289421081543
 31
150.0
 12
71.76236724853516
 22
-4.730635643005371
 32
150.0
 13
71.76236724853516
 23
-4.730635643005371
 33
150.0
  0
3DFACE
  8
0
 10
71.76236724853516
 20
-4.730635643005371
 30
150.0
 11
67.83487701416016
 21
-2.753173351287842
 31
150.0
 12
65.92948150634766
 22
-2.501709222793579
 32
150.0
 13
65.92948150634766
 23
-2.501709222793579
 33
150.0
  0
3DFACE
  8
0
 10
65.92948150634766
 20
-2.501709222793579
 30
150.0
 11
64.29859924316406
 21
-2.6571383476257324
 31
150.0
 12
62.71320343017578
 22
-3.1473581790924072
 32
150.0
 13
62.71320343017578
 23
-3.1473581790924072
 33
150.0
  0
3DFACE
  8
0
 10
62.71320343017578
 20
-3.1473581790924072
 30
150.0
 11
61.887428283691406
 21
-3.534811019897461
 31
150.0
 12
61.426692962646484
 22
-3.7853200435638428
 32
150.0
 13
61.426692962646484
 23
-3.7853200435638428
 33
150.0
  0
3DFACE
  8
0
 10
61.426692962646484
 20
-3.7853200435638428
 30
150.0
 11
60.78343963623047
 21
-4.183748722076416
 31
150.0
 12
60.651512145996094
 22
-4.281506538391113
 32
150.0
 13
60.651512145996094
 23
-4.281506538391113
 33
150.0
  0
3DFACE
  8
0
 10
60.48078918457031
 20
-4.428750514984131
 30
150.0
 11
59.96381759643555
 21
-4.847631931304932
 31
150.0
 12
59.73106384277344
 22
-5.050714492797852
 32
150.0
 13
59.73106384277344
 23
-5.050714492797852
 33
150.0
  0
3DFACE
  8
0
 10
61.426692962646484
 20
-3.7853200435638428
 30
150.0
 11
60.651512145996094
 21
-4.281506538391113
 31
150.0
 12
60.48078918457031
 22
-4.428750514984131
 32
150.0
 13
60.48078918457031
 23
-4.428750514984131
 33
150.0
  0
3DFACE
  8
0
 10
65.92948150634766
 20
-2.501709222793579
 30
150.0
 11
62.71320343017578
 21
-3.1473581790924072
 31
150.0
 12
61.426692962646484
 22
-3.7853200435638428
 32
150.0
 13
61.426692962646484
 23
-3.7853200435638428
 33
150.0
  0
3DFACE
  8
0
 10
57.93864059448242
 20
-8.127547264099121
 30
150.0
 11
71.76236724853516
 21
-4.730635643005371
 31
150.0
 12
65.92948150634766
 22
-2.501709222793579
 32
150.0
 13
65.92948150634766
 23
-2.501709222793579
 33
150.0
  0
3DFACE
  8
0
 10
59.072147369384766
 20
-5.821478366851807
 30
150.0
 11
58.74724578857422
 21
-6.3286004066467285
 31
150.0
 12
57.93864059448242
 22
-8.127547264099121
 32
150.0
 13
57.93864059448242
 23
-8.127547264099121
 33
150.0
  0
3DFACE
  8
0
 10
60.48078918457031
 20
-4.428750514984131
 30
150.0
 11
59.73106384277344
 21
-5.050714492797852
 31
150.0
 12
59.072147369384766
 22
-5.821478366851807
 32
150.0
 13
59.072147369384766
 23
-5.821478366851807
 33
150.0
  0
3DFACE
  8
0
 10
65.92948150634766
 20
-2.501709222793579
 30
150.0
 11
61.426692962646484
 21
-3.7853200435638428
 31
150.0
 12
60.48078918457031
 22
-4.428750514984131
 32
150.0
 13
60.48078918457031
 23
-4.428750514984131
 33
150.0
  0
3DFACE
  8
0
 10
59.072147369384766
 20
-5.821478366851807
 30
150.0
 11
57.93864059448242
 21
-8.127547264099121
 31
150.0
 12
65.92948150634766
 22
-2.501709222793579
 32
150.0
 13
65.92948150634766
 23
-2.501709222793579
 33
150.0
  0
3DFACE
  8
0
 10
65.92948150634766
 20
-2.501709222793579
 30
150.0
 11
60.48078918457031
 21
-4.428750514984131
 31
150.0
 12
59.072147369384766
 22
-5.821478366851807
 32
150.0
 13
59.072147369384766
 23
-5.821478366851807
 33
150.0
  0
3DFACE
  8
0
 10
-47.348304748535156
 20
2.7451958656311035
 30
150.0
 11
-47.410518646240234
 21
2.7627551555633545
 31
150.0
 12
-47.47272872924805
 22
2.7755701541900635
 32
150.0
 13
-47.47272872924805
 23
2.7755701541900635
 33
150.0
  0
3DFACE
  8
0
 10
-47.47272872924805
 20
2.7755701541900635
 30
150.0
 11
-48.28394317626953
 21
3.0200307369232178
 31
150.0
 12
-48.346153259277344
 22
3.026658296585083
 32
150.0
 13
-48.346153259277344
 23
3.026658296585083
 33
150.0
  0
3DFACE
  8
0
 10
-48.346153259277344
 20
3.026658296585083
 30
150.0
 11
-49.064422607421875
 21
3.1600842475891113
 31
150.0
 12
-49.12663269042969
 22
3.161219596862793
 32
150.0
 13
-49.12663269042969
 23
3.161219596862793
 33
150.0
  0
3DFACE
  8
0
 10
-49.12663269042969
 20
3.161219596862793
 30
150.0
 11
-49.84490966796875
 21
3.2468600273132324
 31
150.0
 12
-49.90711975097656
 22
3.243720054626465
 32
150.0
 13
-49.90711975097656
 23
3.243720054626465
 33
150.0
  0
3DFACE
  8
0
 10
-49.90711975097656
 20
3.243720054626465
 30
150.0
 11
-50.625389099121094
 21
3.288545846939087
 31
150.0
 12
-50.687599182128906
 22
3.281090497970581
 32
150.0
 13
-50.687599182128906
 23
3.281090497970581
 33
150.0
  0
3DFACE
  8
0
 10
-50.687599182128906
 20
3.281090497970581
 30
150.0
 11
-51.405860900878906
 21
3.2353217601776123
 31
150.0
 12
-51.46464157104492
 22
3.22509503364563
 32
150.0
 13
-51.46464157104492
 23
3.22509503364563
 33
150.0
  0
3DFACE
  8
0
 10
-51.46464157104492
 20
3.22509503364563
 30
150.0
 11
-52.18634033203125
 21
3.160585403442383
 31
150.0
 12
-52.233760833740234
 22
3.1485683917999268
 32
150.0
 13
-52.233760833740234
 23
3.1485683917999268
 33
150.0
  0
3DFACE
  8
0
 10
-52.233760833740234
 20
3.1485683917999268
 30
150.0
 11
-53.64384078979492
 21
2.8242785930633545
 31
150.0
 12
-53.74729919433594
 22
2.787794351577759
 32
150.0
 13
-53.74729919433594
 23
2.787794351577759
 33
150.0
  0
3DFACE
  8
0
 10
-53.74729919433594
 20
2.787794351577759
 30
150.0
 11
-55.246246337890625
 21
2.2135331630706787
 31
150.0
 12
-55.81441116333008
 22
1.948045015335083
 32
150.0
 13
-55.81441116333008
 23
1.948045015335083
 33
150.0
  0
3DFACE
  8
0
 10
-55.81441116333008
 20
1.948045015335083
 30
150.0
 11
-56.86920928955078
 21
1.36558198928833
 31
150.0
 12
-57.19000244140625
 22
1.1675539016723633
 32
150.0
 13
-57.19000244140625
 23
1.1675539016723633
 33
150.0
  0
3DFACE
  8
0
 10
-57.19000244140625
 20
1.1675539016723633
 30
150.0
 11
-58.13937759399414
 21
0.3870755434036255
 31
150.0
 12
-58.36814498901367
 22
0.1331845372915268
 32
150.0
 13
-58.36814498901367
 23
0.1331845372915268
 33
150.0
  0
3DFACE
  8
0
 10
-58.36814498901367
 20
0.1331845372915268
 30
150.0
 11
-58.809574127197266
 21
-0.3787510395050049
 31
150.0
 12
-58.976898193359375
 22
-0.6667675971984863
 32
150.0
 13
-58.976898193359375
 23
-0.6667675971984863
 33
150.0
  0
3DFACE
  8
0
 10
-58.976898193359375
 20
-0.6667675971984863
 30
150.0
 11
-59.29426193237305
 21
-1.162536859512329
 31
150.0
 12
-59.30113220214844
 22
-1.1738810539245605
 32
150.0
 13
-59.30113220214844
 23
-1.1738810539245605
 33
150.0
  0
3DFACE
  8
0
 10
-59.30113220214844
 20
-1.1738810539245605
 30
150.0
 11
-59.30577850341797
 21
-1.1838232278823853
 31
150.0
 12
-59.63037872314453
 22
-1.954359769821167
 32
150.0
 13
-59.63037872314453
 23
-1.954359769821167
 33
150.0
  0
3DFACE
  8
0
 10
-59.63037872314453
 20
-1.954359769821167
 30
150.0
 11
-59.75690841674805
 21
-2.592082977294922
 31
150.0
 12
-59.77764892578125
 22
-2.7348380088806152
 32
150.0
 13
-59.77764892578125
 23
-2.7348380088806152
 33
150.0
  0
3DFACE
  8
0
 10
-59.82444763183594
 20
-3.369581937789917
 30
150.0
 11
-59.837486267089844
 21
-3.515316963195801
 31
150.0
 12
-59.75822067260742
 22
-4.295794486999512
 32
150.0
 13
-59.75822067260742
 23
-4.295794486999512
 33
150.0
  0
3DFACE
  8
0
 10
-59.63037872314453
 20
-1.954359769821167
 30
150.0
 11
-59.77764892578125
 21
-2.7348380088806152
 31
150.0
 12
-59.82444763183594
 22
-3.369581937789917
 32
150.0
 13
-59.82444763183594
 23
-3.369581937789917
 33
150.0
  0
3DFACE
  8
0
 10
-58.976898193359375
 20
-0.6667675971984863
 30
150.0
 11
-59.30113220214844
 21
-1.1738810539245605
 31
150.0
 12
-59.63037872314453
 22
-1.954359769821167
 32
150.0
 13
-59.63037872314453
 23
-1.954359769821167
 33
150.0
  0
3DFACE
  8
0
 10
-57.19000244140625
 20
1.1675539016723633
 30
150.0
 11
-58.36814498901367
 21
0.1331845372915268
 31
150.0
 12
-58.976898193359375
 22
-0.6667675971984863
 32
150.0
 13
-58.976898193359375
 23
-0.6667675971984863
 33
150.0
  0
3DFACE
  8
0
 10
-53.74729919433594
 20
2.787794351577759
 30
150.0
 11
-55.81441116333008
 21
1.948045015335083
 31
150.0
 12
-57.19000244140625
 22
1.1675539016723633
 32
150.0
 13
-57.19000244140625
 23
1.1675539016723633
 33
150.0
  0
3DFACE
  8
0
 10
-51.46464157104492
 20
3.22509503364563
 30
150.0
 11
-52.233760833740234
 21
3.1485683917999268
 31
150.0
 12
-53.74729919433594
 22
2.787794351577759
 32
150.0
 13
-53.74729919433594
 23
2.787794351577759
 33
150.0
  0
3DFACE
  8
0
 10
-49.90711975097656
 20
3.243720054626465
 30
150.0
 11
-50.687599182128906
 21
3.281090497970581
 31
150.0
 12
-51.46464157104492
 22
3.22509503364563
 32
150.0
 13
-51.46464157104492
 23
3.22509503364563
 33
150.0
  0
3DFACE
  8
0
 10
-48.346153259277344
 20
3.026658296585083
 30
150.0
 11
-49.12663269042969
 21
3.161219596862793
 31
150.0
 12
-49.90711975097656
 22
3.243720054626465
 32
150.0
 13
-49.90711975097656
 23
3.243720054626465
 33
150.0
  0
3DFACE
  8
0
 10
-46.722991943359375
 20
2.5304365158081055
 30
150.0
 11
-47.348304748535156
 21
2.7451958656311035
 31
150.0
 12
-47.47272872924805
 22
2.7755701541900635
 32
150.0
 13
-47.47272872924805
 23
2.7755701541900635
 33
150.0
  0
3DFACE
  8
0
 10
-47.47272872924805
 20
2.7755701541900635
 30
150.0
 11
-48.346153259277344
 21
3.026658296585083
 31
150.0
 12
-49.90711975097656
 22
3.243720054626465
 32
150.0
 13
-49.90711975097656
 23
3.243720054626465
 33
150.0
  0
3DFACE
  8
0
 10
-49.90711975097656
 20
3.243720054626465
 30
150.0
 11
-51.46464157104492
 21
3.22509503364563
 31
150.0
 12
-53.74729919433594
 22
2.787794351577759
 32
150.0
 13
-53.74729919433594
 23
2.787794351577759
 33
150.0
  0
3DFACE
  8
0
 10
-53.74729919433594
 20
2.787794351577759
 30
150.0
 11
-57.19000244140625
 21
1.1675539016723633
 31
150.0
 12
-58.976898193359375
 22
-0.6667675971984863
 32
150.0
 13
-58.976898193359375
 23
-0.6667675971984863
 33
150.0
  0
3DFACE
  8
0
 10
-58.976898193359375
 20
-0.6667675971984863
 30
150.0
 11
-59.63037872314453
 21
-1.954359769821167
 31
150.0
 12
-59.82444763183594
 22
-3.369581937789917
 32
150.0
 13
-59.82444763183594
 23
-3.369581937789917
 33
150.0
  0
3DFACE
  8
0
 10
-59.82444763183594
 20
-3.369581937789917
 30
150.0
 11
-59.75822067260742
 21
-4.295794486999512
 31
150.0
 12
-59.73853302001953
 22
-4.395654201507568
 32
150.0
 13
-59.73853302001953
 23
-4.395654201507568
 33
150.0
  0
3DFACE
  8
0
 10
-59.69657897949219
 20
-4.546710014343262
 30
150.0
 11
-59.57481384277344
 21
-5.076273441314697
 31
150.0
 12
-59.32679748535156
 22
-5.802109718322754
 32
150.0
 13
-59.32679748535156
 23
-5.802109718322754
 33
150.0
  0
3DFACE
  8
0
 10
-59.82444763183594
 20
-3.369581937789917
 30
150.0
 11
-59.73853302001953
 21
-4.395654201507568
 31
150.0
 12
-59.69657897949219
 22
-4.546710014343262
 32
150.0
 13
-59.69657897949219
 23
-4.546710014343262
 33
150.0
  0
3DFACE
  8
0
 10
-53.74729919433594
 20
2.787794351577759
 30
150.0
 11
-58.976898193359375
 21
-0.6667675971984863
 31
150.0
 12
-59.82444763183594
 22
-3.369581937789917
 32
150.0
 13
-59.82444763183594
 23
-3.369581937789917
 33
150.0
  0
3DFACE
  8
0
 10
-47.47272872924805
 20
2.7755701541900635
 30
150.0
 11
-49.90711975097656
 21
3.243720054626465
 31
150.0
 12
-53.74729919433594
 22
2.787794351577759
 32
150.0
 13
-53.74729919433594
 23
2.787794351577759
 33
150.0
  0
3DFACE
  8
0
 10
-46.004722595214844
 20
2.2334890365600586
 30
150.0
 11
-46.722991943359375
 21
2.5304365158081055
 31
150.0
 12
-47.47272872924805
 22
2.7755701541900635
 32
150.0
 13
-47.47272872924805
 23
2.7755701541900635
 33
150.0
  0
3DFACE
  8
0
 10
-45.87593078613281
 20
2.186275005340576
 30
150.0
 11
-45.94251251220703
 21
2.212430715560913
 31
150.0
 12
-46.004722595214844
 22
2.2334890365600586
 32
150.0
 13
-46.004722595214844
 23
2.2334890365600586
 33
150.0
  0
3DFACE
  8
0
 10
-45.20073318481445
 20
1.8636046648025513
 30
150.0
 11
-45.25857162475586
 21
1.8953118324279785
 31
150.0
 12
-45.87593078613281
 22
2.186275005340576
 32
150.0
 13
-45.87593078613281
 23
2.186275005340576
 33
150.0
  0
3DFACE
  8
0
 10
-43.602535247802734
 20
0.7978187203407288
 30
150.0
 11
-44.05775451660156
 21
1.1664263010025024
 31
150.0
 12
-44.11524963378906
 22
1.200179934501648
 32
150.0
 13
-44.11524963378906
 23
1.200179934501648
 33
150.0
  0
3DFACE
  8
0
 10
-44.11524963378906
 20
1.200179934501648
 30
150.0
 11
-45.20073318481445
 21
1.8636046648025513
 31
150.0
 12
-45.87593078613281
 22
2.186275005340576
 32
150.0
 13
-45.87593078613281
 23
2.186275005340576
 33
150.0
  0
3DFACE
  8
0
 10
-46.004722595214844
 20
2.2334890365600586
 30
150.0
 11
-47.47272872924805
 21
2.7755701541900635
 31
150.0
 12
-53.74729919433594
 22
2.787794351577759
 32
150.0
 13
-53.74729919433594
 23
2.787794351577759
 33
150.0
  0
3DFACE
  8
0
 10
-44.11524963378906
 20
1.200179934501648
 30
150.0
 11
-45.87593078613281
 21
2.186275005340576
 31
150.0
 12
-46.004722595214844
 22
2.2334890365600586
 32
150.0
 13
-46.004722595214844
 23
2.2334890365600586
 33
150.0
  0
3DFACE
  8
0
 10
-43.53561019897461
 20
0.739637017250061
 30
150.0
 11
-43.602535247802734
 21
0.7978187203407288
 31
150.0
 12
-44.11524963378906
 22
1.200179934501648
 32
150.0
 13
-44.11524963378906
 23
1.200179934501648
 33
150.0
  0
3DFACE
  8
0
 10
-42.66034698486328
 20
-0.32607460021972656
 30
150.0
 11
-43.17103958129883
 21
0.3889385461807251
 31
150.0
 12
-43.53561019897461
 22
0.739637017250061
 32
150.0
 13
-43.53561019897461
 23
0.739637017250061
 33
150.0
  0
3DFACE
  8
0
 10
-42.23997497558594
 20
-1.175424575805664
 30
150.0
 11
-42.604469299316406
 21
-0.39340299367904663
 31
150.0
 12
-42.66034698486328
 22
-0.32607460021972656
 32
150.0
 13
-42.66034698486328
 23
-0.32607460021972656
 33
150.0
  0
3DFACE
  8
0
 10
-41.926170349121094
 20
-2.6578831672668457
 30
150.0
 11
-42.04659652709961
 21
-1.954359769821167
 31
150.0
 12
-42.23997497558594
 22
-1.175424575805664
 32
150.0
 13
-42.23997497558594
 23
-1.175424575805664
 33
150.0
  0
3DFACE
  8
0
 10
-41.915283203125
 20
-2.833031415939331
 30
150.0
 11
-41.9169921875
 21
-2.7348380088806152
 31
150.0
 12
-41.926170349121094
 22
-2.6578831672668457
 32
150.0
 13
-41.926170349121094
 23
-2.6578831672668457
 33
150.0
  0
3DFACE
  8
0
 10
-41.94789505004883
 20
-3.6095142364501953
 30
150.0
 11
-41.93913650512695
 21
-3.515316963195801
 31
150.0
 12
-41.915283203125
 22
-2.833031415939331
 32
150.0
 13
-41.915283203125
 23
-2.833031415939331
 33
150.0
  0
3DFACE
  8
0
 10
-42.01115417480469
 20
-4.358846664428711
 30
150.0
 11
-41.9947624206543
 21
-4.295794486999512
 31
150.0
 12
-41.94789505004883
 22
-3.6095142364501953
 32
150.0
 13
-41.94789505004883
 23
-3.6095142364501953
 33
150.0
  0
3DFACE
  8
0
 10
-42.217098236083984
 20
-5.138484001159668
 30
150.0
 11
-42.18050765991211
 21
-5.076273441314697
 31
150.0
 12
-42.01115417480469
 22
-4.358846664428711
 32
150.0
 13
-42.01115417480469
 23
-4.358846664428711
 33
150.0
  0
3DFACE
  8
0
 10
-43.151371002197266
 20
-6.640588760375977
 30
150.0
 11
-42.56640625
 21
-5.856751441955566
 31
150.0
 12
-42.217098236083984
 22
-5.138484001159668
 32
150.0
 13
-42.217098236083984
 23
-5.138484001159668
 33
150.0
  0
3DFACE
  8
0
 10
-44.31702423095703
 20
-7.7750139236450195
 30
150.0
 11
-43.90699768066406
 21
-7.419562339782715
 31
150.0
 12
-43.214637756347656
 22
-6.701294898986816
 32
150.0
 13
-43.214637756347656
 23
-6.701294898986816
 33
150.0
  0
3DFACE
  8
0
 10
-43.214637756347656
 20
-6.701294898986816
 30
150.0
 11
-43.151371002197266
 21
-6.640588760375977
 31
150.0
 12
-42.217098236083984
 22
-5.138484001159668
 32
150.0
 13
-42.217098236083984
 23
-5.138484001159668
 33
150.0
  0
3DFACE
  8
0
 10
-42.217098236083984
 20
-5.138484001159668
 30
150.0
 11
-42.01115417480469
 21
-4.358846664428711
 31
150.0
 12
-41.94789505004883
 22
-3.6095142364501953
 32
150.0
 13
-41.94789505004883
 23
-3.6095142364501953
 33
150.0
  0
3DFACE
  8
0
 10
-41.94789505004883
 20
-3.6095142364501953
 30
150.0
 11
-41.915283203125
 21
-2.833031415939331
 31
150.0
 12
-41.926170349121094
 22
-2.6578831672668457
 32
150.0
 13
-41.926170349121094
 23
-2.6578831672668457
 33
150.0
  0
3DFACE
  8
0
 10
-41.926170349121094
 20
-2.6578831672668457
 30
150.0
 11
-42.23997497558594
 21
-1.175424575805664
 31
150.0
 12
-42.66034698486328
 22
-0.32607460021972656
 32
150.0
 13
-42.66034698486328
 23
-0.32607460021972656
 33
150.0
  0
3DFACE
  8
0
 10
-42.66034698486328
 20
-0.32607460021972656
 30
150.0
 11
-43.53561019897461
 21
0.739637017250061
 31
150.0
 12
-44.11524963378906
 22
1.200179934501648
 32
150.0
 13
-44.11524963378906
 23
1.200179934501648
 33
150.0
  0
3DFACE
  8
0
 10
-44.11524963378906
 20
1.200179934501648
 30
150.0
 11
-46.004722595214844
 21
2.2334890365600586
 31
150.0
 12
-53.74729919433594
 22
2.787794351577759
 32
150.0
 13
-53.74729919433594
 23
2.787794351577759
 33
150.0
  0
3DFACE
  8
0
 10
-53.74729919433594
 20
2.787794351577759
 30
150.0
 11
-59.82444763183594
 21
-3.369581937789917
 31
150.0
 12
-59.69657897949219
 22
-4.546710014343262
 32
150.0
 13
-59.69657897949219
 23
-4.546710014343262
 33
150.0
  0
3DFACE
  8
0
 10
-59.69657897949219
 20
-4.546710014343262
 30
150.0
 11
-59.32679748535156
 21
-5.802109718322754
 31
150.0
 12
-59.30912399291992
 22
-5.856751441955566
 32
150.0
 13
-59.30912399291992
 23
-5.856751441955566
 33
150.0
  0
3DFACE
  8
0
 10
-59.288726806640625
 20
-5.895786285400391
 30
150.0
 11
-59.210655212402344
 21
-6.055348873138428
 31
150.0
 12
-58.90985107421875
 22
-6.637230396270752
 32
150.0
 13
-58.90985107421875
 23
-6.637230396270752
 33
150.0
  0
3DFACE
  8
0
 10
-59.69657897949219
 20
-4.546710014343262
 30
150.0
 11
-59.30912399291992
 21
-5.856751441955566
 31
150.0
 12
-59.288726806640625
 22
-5.895786285400391
 32
150.0
 13
-59.288726806640625
 23
-5.895786285400391
 33
150.0
  0
3DFACE
  8
0
 10
-44.11524963378906
 20
1.200179934501648
 30
150.0
 11
-53.74729919433594
 21
2.787794351577759
 31
150.0
 12
-59.69657897949219
 22
-4.546710014343262
 32
150.0
 13
-59.69657897949219
 23
-4.546710014343262
 33
150.0
  0
3DFACE
  8
0
 10
-41.926170349121094
 20
-2.6578831672668457
 30
150.0
 11
-42.66034698486328
 21
-0.32607460021972656
 31
150.0
 12
-44.11524963378906
 22
1.200179934501648
 32
150.0
 13
-44.11524963378906
 23
1.200179934501648
 33
150.0
  0
3DFACE
  8
0
 10
-42.217098236083984
 20
-5.138484001159668
 30
150.0
 11
-41.94789505004883
 21
-3.6095142364501953
 31
150.0
 12
-41.926170349121094
 22
-2.6578831672668457
 32
150.0
 13
-41.926170349121094
 23
-2.6578831672668457
 33
150.0
  0
3DFACE
  8
0
 10
-44.31702423095703
 20
-7.7750139236450195
 30
150.0
 11
-43.214637756347656
 21
-6.701294898986816
 31
150.0
 12
-42.217098236083984
 22
-5.138484001159668
 32
150.0
 13
-42.217098236083984
 23
-5.138484001159668
 33
150.0
  0
3DFACE
  8
0
 10
-45.11061477661133
 20
-8.360221862792969
 30
150.0
 11
-44.86798095703125
 21
-8.190496444702148
 31
150.0
 12
-44.392337799072266
 22
-7.827680587768555
 32
150.0
 13
-44.392337799072266
 23
-7.827680587768555
 33
150.0
  0
3DFACE
  8
0
 10
-44.392337799072266
 20
-7.827680587768555
 30
150.0
 11
-44.31702423095703
 21
-7.7750139236450195
 31
150.0
 12
-42.217098236083984
 22
-5.138484001159668
 32
150.0
 13
-42.217098236083984
 23
-5.138484001159668
 33
150.0
  0
3DFACE
  8
0
 10
-42.217098236083984
 20
-5.138484001159668
 30
150.0
 11
-41.926170349121094
 21
-2.6578831672668457
 31
150.0
 12
-44.11524963378906
 22
1.200179934501648
 32
150.0
 13
-44.11524963378906
 23
1.200179934501648
 33
150.0
  0
3DFACE
  8
0
 10
-44.11524963378906
 20
1.200179934501648
 30
150.0
 11
-59.69657897949219
 21
-4.546710014343262
 31
150.0
 12
-59.288726806640625
 22
-5.895786285400391
 32
150.0
 13
-59.288726806640625
 23
-5.895786285400391
 33
150.0
  0
3DFACE
  8
0
 10
-59.288726806640625
 20
-5.895786285400391
 30
150.0
 11
-58.90985107421875
 21
-6.637230396270752
 31
150.0
 12
-58.43016815185547
 22
-7.290934085845947
 32
150.0
 13
-58.43016815185547
 23
-7.290934085845947
 33
150.0
  0
3DFACE
  8
0
 10
-58.43016815185547
 20
-7.290934085845947
 30
150.0
 11
-58.31986999511719
 21
-7.425511360168457
 31
150.0
 12
-57.649696350097656
 22
-8.02346420288086
 32
150.0
 13
-57.649696350097656
 23
-8.02346420288086
 33
150.0
  0
3DFACE
  8
0
 10
-57.649696350097656
 20
-8.02346420288086
 30
150.0
 11
-57.57355499267578
 21
-8.09928035736084
 31
150.0
 12
-57.489803314208984
 22
-8.168609619140625
 32
150.0
 13
-57.489803314208984
 23
-8.168609619140625
 33
150.0
  0
3DFACE
  8
0
 10
-57.489803314208984
 20
-8.168609619140625
 30
150.0
 11
-56.54669189453125
 21
-8.83297348022461
 31
150.0
 12
-56.30619430541992
 22
-8.97866439819336
 32
150.0
 13
-56.30619430541992
 23
-8.97866439819336
 33
150.0
  0
3DFACE
  8
0
 10
-56.30619430541992
 20
-8.97866439819336
 30
150.0
 11
-56.1629524230957
 21
-9.055953025817871
 31
150.0
 12
-56.08873748779297
 22
-9.093035697937012
 32
150.0
 13
-56.08873748779297
 23
-9.093035697937012
 33
150.0
  0
3DFACE
  8
0
 10
-56.08873748779297
 20
-9.093035697937012
 30
150.0
 11
-55.87516784667969
 21
-9.192234992980957
 31
150.0
 12
-55.308258056640625
 22
-9.44441032409668
 32
150.0
 13
-55.308258056640625
 23
-9.44441032409668
 33
150.0
  0
3DFACE
  8
0
 10
-55.308258056640625
 20
-9.44441032409668
 30
150.0
 11
-55.10993576049805
 21
-9.556167602539062
 31
150.0
 12
-54.554443359375
 22
-9.753983497619629
 32
150.0
 13
-54.554443359375
 23
-9.753983497619629
 33
150.0
  0
3DFACE
  8
0
 10
-54.554443359375
 20
-9.753983497619629
 30
150.0
 11
-54.514556884765625
 21
-9.76740550994873
 31
150.0
 12
-53.685089111328125
 22
-9.998478889465332
 32
150.0
 13
-53.685089111328125
 23
-9.998478889465332
 33
150.0
  0
3DFACE
  8
0
 10
-53.685089111328125
 20
-9.998478889465332
 30
150.0
 11
-52.90462875366211
 21
-10.170753479003906
 31
150.0
 12
-52.18634033203125
 22
-10.256024360656738
 32
150.0
 13
-52.18634033203125
 23
-10.256024360656738
 33
150.0
  0
3DFACE
  8
0
 10
-51.46805191040039
 20
-10.28184700012207
 30
150.0
 11
-51.405860900878906
 21
-10.292515754699707
 31
150.0
 12
-50.687599182128906
 22
-10.263121604919434
 32
150.0
 13
-50.687599182128906
 23
-10.263121604919434
 33
150.0
  0
3DFACE
  8
0
 10
-53.685089111328125
 20
-9.998478889465332
 30
150.0
 11
-52.18634033203125
 21
-10.256024360656738
 31
150.0
 12
-51.46805191040039
 22
-10.28184700012207
 32
150.0
 13
-51.46805191040039
 23
-10.28184700012207
 33
150.0
  0
3DFACE
  8
0
 10
-55.308258056640625
 20
-9.44441032409668
 30
150.0
 11
-54.554443359375
 21
-9.753983497619629
 31
150.0
 12
-53.685089111328125
 22
-9.998478889465332
 32
150.0
 13
-53.685089111328125
 23
-9.998478889465332
 33
150.0
  0
3DFACE
  8
0
 10
-56.30619430541992
 20
-8.97866439819336
 30
150.0
 11
-56.08873748779297
 21
-9.093035697937012
 31
150.0
 12
-55.308258056640625
 22
-9.44441032409668
 32
150.0
 13
-55.308258056640625
 23
-9.44441032409668
 33
150.0
  0
3DFACE
  8
0
 10
-57.649696350097656
 20
-8.02346420288086
 30
150.0
 11
-57.489803314208984
 21
-8.168609619140625
 31
150.0
 12
-56.30619430541992
 22
-8.97866439819336
 32
150.0
 13
-56.30619430541992
 23
-8.97866439819336
 33
150.0
  0
3DFACE
  8
0
 10
-59.288726806640625
 20
-5.895786285400391
 30
150.0
 11
-58.43016815185547
 21
-7.290934085845947
 31
150.0
 12
-57.649696350097656
 22
-8.02346420288086
 32
150.0
 13
-57.649696350097656
 23
-8.02346420288086
 33
150.0
  0
3DFACE
  8
0
 10
-42.217098236083984
 20
-5.138484001159668
 30
150.0
 11
-44.11524963378906
 21
1.200179934501648
 31
150.0
 12
-59.288726806640625
 22
-5.895786285400391
 32
150.0
 13
-59.288726806640625
 23
-5.895786285400391
 33
150.0
  0
3DFACE
  8
0
 10
-45.11061477661133
 20
-8.360221862792969
 30
150.0
 11
-44.392337799072266
 21
-7.827680587768555
 31
150.0
 12
-42.217098236083984
 22
-5.138484001159668
 32
150.0
 13
-42.217098236083984
 23
-5.138484001159668
 33
150.0
  0
3DFACE
  8
0
 10
-45.227787017822266
 20
-8.428335189819336
 30
150.0
 11
-45.16204071044922
 21
-8.394783973693848
 31
150.0
 12
-45.11061477661133
 22
-8.360221862792969
 32
150.0
 13
-45.11061477661133
 23
-8.360221862792969
 33
150.0
  0
3DFACE
  8
0
 10
-46.6643180847168
 20
-9.292040824890137
 30
150.0
 11
-46.01653289794922
 21
-8.933026313781738
 31
150.0
 12
-45.227787017822266
 22
-8.428335189819336
 32
150.0
 13
-45.227787017822266
 23
-8.428335189819336
 33
150.0
  0
3DFACE
  8
0
 10
-46.78520202636719
 20
-9.339434623718262
 30
150.0
 11
-46.722991943359375
 21
-9.317403793334961
 31
150.0
 12
-46.6643180847168
 22
-9.292040824890137
 32
150.0
 13
-46.6643180847168
 23
-9.292040824890137
 33
150.0
  0
3DFACE
  8
0
 10
-47.56568145751953
 20
-9.657044410705566
 30
150.0
 11
-47.50347137451172
 21
-9.642760276794434
 31
150.0
 12
-46.78520202636719
 22
-9.339434623718262
 32
150.0
 13
-46.78520202636719
 23
-9.339434623718262
 33
150.0
  0
3DFACE
  8
0
 10
-48.28394317626953
 20
-9.903094291687012
 30
150.0
 11
-47.840599060058594
 21
-9.756823539733887
 31
150.0
 12
-47.56568145751953
 22
-9.657044410705566
 32
150.0
 13
-47.56568145751953
 23
-9.657044410705566
 33
150.0
  0
3DFACE
  8
0
 10
-49.12663269042969
 20
-10.091609954833984
 30
150.0
 11
-49.064422607421875
 21
-10.085811614990234
 31
150.0
 12
-48.346153259277344
 22
-9.913938522338867
 32
150.0
 13
-48.346153259277344
 23
-9.913938522338867
 33
150.0
  0
3DFACE
  8
0
 10
-48.346153259277344
 20
-9.913938522338867
 30
150.0
 11
-48.28394317626953
 21
-9.903094291687012
 31
150.0
 12
-47.56568145751953
 22
-9.657044410705566
 32
150.0
 13
-47.56568145751953
 23
-9.657044410705566
 33
150.0
  0
3DFACE
  8
0
 10
-46.78520202636719
 20
-9.339434623718262
 30
150.0
 11
-46.6643180847168
 21
-9.292040824890137
 31
150.0
 12
-45.227787017822266
 22
-8.428335189819336
 32
150.0
 13
-45.227787017822266
 23
-8.428335189819336
 33
150.0
  0
3DFACE
  8
0
 10
-48.346153259277344
 20
-9.913938522338867
 30
150.0
 11
-47.56568145751953
 21
-9.657044410705566
 31
150.0
 12
-46.78520202636719
 22
-9.339434623718262
 32
150.0
 13
-46.78520202636719
 23
-9.339434623718262
 33
150.0
  0
3DFACE
  8
0
 10
-49.84490966796875
 20
-10.224861145019531
 30
150.0
 11
-49.12663269042969
 21
-10.091609954833984
 31
150.0
 12
-48.346153259277344
 22
-9.913938522338867
 32
150.0
 13
-48.346153259277344
 23
-9.913938522338867
 33
150.0
  0
3DFACE
  8
0
 10
-50.687599182128906
 20
-10.263121604919434
 30
150.0
 11
-50.625389099121094
 21
-10.26663589477539
 31
150.0
 12
-49.90711975097656
 22
-10.224746704101562
 32
150.0
 13
-49.90711975097656
 23
-10.224746704101562
 33
150.0
  0
3DFACE
  8
0
 10
-49.90711975097656
 20
-10.224746704101562
 30
150.0
 11
-49.84490966796875
 21
-10.224861145019531
 31
150.0
 12
-48.346153259277344
 22
-9.913938522338867
 32
150.0
 13
-48.346153259277344
 23
-9.913938522338867
 33
150.0
  0
3DFACE
  8
0
 10
-48.346153259277344
 20
-9.913938522338867
 30
150.0
 11
-46.78520202636719
 21
-9.339434623718262
 31
150.0
 12
-45.227787017822266
 22
-8.428335189819336
 32
150.0
 13
-45.227787017822266
 23
-8.428335189819336
 33
150.0
  0
3DFACE
  8
0
 10
-45.227787017822266
 20
-8.428335189819336
 30
150.0
 11
-45.11061477661133
 21
-8.360221862792969
 31
150.0
 12
-42.217098236083984
 22
-5.138484001159668
 32
150.0
 13
-42.217098236083984
 23
-5.138484001159668
 33
150.0
  0
3DFACE
  8
0
 10
-42.217098236083984
 20
-5.138484001159668
 30
150.0
 11
-59.288726806640625
 21
-5.895786285400391
 31
150.0
 12
-57.649696350097656
 22
-8.02346420288086
 32
150.0
 13
-57.649696350097656
 23
-8.02346420288086
 33
150.0
  0
3DFACE
  8
0
 10
-57.649696350097656
 20
-8.02346420288086
 30
150.0
 11
-56.30619430541992
 21
-8.97866439819336
 31
150.0
 12
-55.308258056640625
 22
-9.44441032409668
 32
150.0
 13
-55.308258056640625
 23
-9.44441032409668
 33
150.0
  0
3DFACE
  8
0
 10
-55.308258056640625
 20
-9.44441032409668
 30
150.0
 11
-53.685089111328125
 21
-9.998478889465332
 31
150.0
 12
-51.46805191040039
 22
-10.28184700012207
 32
150.0
 13
-51.46805191040039
 23
-10.28184700012207
 33
150.0
  0
3DFACE
  8
0
 10
-51.46805191040039
 20
-10.28184700012207
 30
150.0
 11
-50.687599182128906
 21
-10.263121604919434
 31
150.0
 12
-49.90711975097656
 22
-10.224746704101562
 32
150.0
 13
-49.90711975097656
 23
-10.224746704101562
 33
150.0
  0
3DFACE
  8
0
 10
-49.90711975097656
 20
-10.224746704101562
 30
150.0
 11
-48.346153259277344
 21
-9.913938522338867
 31
150.0
 12
-45.227787017822266
 22
-8.428335189819336
 32
150.0
 13
-45.227787017822266
 23
-8.428335189819336
 33
150.0
  0
3DFACE
  8
0
 10
-45.227787017822266
 20
-8.428335189819336
 30
150.0
 11
-42.217098236083984
 21
-5.138484001159668
 31
150.0
 12
-57.649696350097656
 22
-8.02346420288086
 32
150.0
 13
-57.649696350097656
 23
-8.02346420288086
 33
150.0
  0
3DFACE
  8
0
 10
-57.649696350097656
 20
-8.02346420288086
 30
150.0
 11
-55.308258056640625
 21
-9.44441032409668
 31
150.0
 12
-51.46805191040039
 22
-10.28184700012207
 32
150.0
 13
-51.46805191040039
 23
-10.28184700012207
 33
150.0
  0
3DFACE
  8
0
 10
-51.46805191040039
 20
-10.28184700012207
 30
150.0
 11
-49.90711975097656
 21
-10.224746704101562
 31
150.0
 12
-45.227787017822266
 22
-8.428335189819336
 32
150.0
 13
-45.227787017822266
 23
-8.428335189819336
 33
150.0
  0
3DFACE
  8
0
 10
-57.649696350097656
 20
-8.02346420288086
 30
150.0
 11
-51.46805191040039
 21
-10.28184700012207
 31
150.0
 12
-45.227787017822266
 22
-8.428335189819336
 32
150.0
 13
-45.227787017822266
 23
-8.428335189819336
 33
150.0
  0
3DFACE
  8
0
 10
-47.588191986083984
 20
37.34806823730469
 30
150.0
 11
-47.002723693847656
 21
36.765052795410156
 31
150.0
 12
-46.993892669677734
 22
36.757144927978516
 32
150.0
 13
-46.993892669677734
 23
36.757144927978516
 33
150.0
  0
3DFACE
  8
0
 10
-46.993892669677734
 20
36.757144927978516
 30
150.0
 11
-46.495662689208984
 21
36.28263854980469
 31
150.0
 12
-46.23702621459961
 22
36.07334899902344
 32
150.0
 13
-46.23702621459961
 23
36.07334899902344
 33
150.0
  0
3DFACE
  8
0
 10
-46.117374420166016
 20
35.98046875
 30
150.0
 11
-45.943416595458984
 21
35.8367805480957
 31
150.0
 12
-45.37899398803711
 22
35.44694519042969
 32
150.0
 13
-45.37899398803711
 23
35.44694519042969
 33
150.0
  0
3DFACE
  8
0
 10
-46.993892669677734
 20
36.757144927978516
 30
150.0
 11
-46.23702621459961
 21
36.07334899902344
 31
150.0
 12
-46.117374420166016
 22
35.98046875
 32
150.0
 13
-46.117374420166016
 23
35.98046875
 33
150.0
  0
3DFACE
  8
0
 10
-48.12434768676758
 20
37.98807907104492
 30
150.0
 11
-47.588191986083984
 21
37.34806823730469
 31
150.0
 12
-46.993892669677734
 22
36.757144927978516
 32
150.0
 13
-46.993892669677734
 23
36.757144927978516
 33
150.0
  0
3DFACE
  8
0
 10
-48.7056770324707
 20
38.85647201538086
 30
150.0
 11
-48.45490646362305
 21
38.44917297363281
 31
150.0
 12
-48.12434768676758
 22
37.98807907104492
 32
150.0
 13
-48.12434768676758
 23
37.98807907104492
 33
150.0
  0
3DFACE
  8
0
 10
-48.93598937988281
 20
39.37135696411133
 30
150.0
 11
-48.793495178222656
 21
39.02860641479492
 31
150.0
 12
-48.7056770324707
 22
38.85647201538086
 32
150.0
 13
-48.7056770324707
 23
38.85647201538086
 33
150.0
  0
3DFACE
  8
0
 10
-49.45896530151367
 20
40.65879440307617
 30
150.0
 11
-49.1546516418457
 21
39.86284255981445
 31
150.0
 12
-48.93598937988281
 22
39.37135696411133
 32
150.0
 13
-48.93598937988281
 23
39.37135696411133
 33
150.0
  0
3DFACE
  8
0
 10
-49.466766357421875
 20
40.68790817260742
 30
150.0
 11
-49.465206146240234
 21
40.67875289916992
 31
150.0
 12
-49.45896530151367
 22
40.65879440307617
 32
150.0
 13
-49.45896530151367
 23
40.65879440307617
 33
150.0
  0
3DFACE
  8
0
 10
-49.63536834716797
 20
41.82053756713867
 30
150.0
 11
-49.621009826660156
 21
41.487728118896484
 31
150.0
 12
-49.466766357421875
 22
40.68790817260742
 32
150.0
 13
-49.466766357421875
 23
40.68790817260742
 33
150.0
  0
3DFACE
  8
0
 10
-49.702091217041016
 20
42.758480072021484
 30
150.0
 11
-49.6890869140625
 21
42.28785705566406
 31
150.0
 12
-49.63536834716797
 22
41.82053756713867
 32
150.0
 13
-49.63536834716797
 23
41.82053756713867
 33
150.0
  0
3DFACE
  8
0
 10
-49.604923248291016
 20
43.896968841552734
 30
150.0
 11
-49.662349700927734
 21
43.36818313598633
 31
150.0
 12
-49.702091217041016
 22
42.758480072021484
 32
150.0
 13
-49.702091217041016
 23
42.758480072021484
 33
150.0
  0
3DFACE
  8
0
 10
-49.41446304321289
 20
44.70151901245117
 30
150.0
 11
-49.60268020629883
 21
43.90920639038086
 31
150.0
 12
-49.604923248291016
 22
43.896968841552734
 32
150.0
 13
-49.604923248291016
 23
43.896968841552734
 33
150.0
  0
3DFACE
  8
0
 10
-49.17728042602539
 20
45.39634323120117
 30
150.0
 11
-49.30204391479492
 21
45.05510711669922
 31
150.0
 12
-49.41446304321289
 22
44.70151901245117
 32
150.0
 13
-49.41446304321289
 23
44.70151901245117
 33
150.0
  0
3DFACE
  8
0
 10
-48.66868209838867
 20
46.278629302978516
 30
150.0
 11
-48.91044998168945
 21
45.868160247802734
 31
150.0
 12
-49.113525390625
 22
45.506065368652344
 32
150.0
 13
-49.113525390625
 23
45.506065368652344
 33
150.0
  0
3DFACE
  8
0
 10
-49.113525390625
 20
45.506065368652344
 30
150.0
 11
-49.17728042602539
 21
45.39634323120117
 31
150.0
 12
-49.41446304321289
 22
44.70151901245117
 32
150.0
 13
-49.41446304321289
 23
44.70151901245117
 33
150.0
  0
3DFACE
  8
0
 10
-49.41446304321289
 20
44.70151901245117
 30
150.0
 11
-49.604923248291016
 21
43.896968841552734
 31
150.0
 12
-49.702091217041016
 22
42.758480072021484
 32
150.0
 13
-49.702091217041016
 23
42.758480072021484
 33
150.0
  0
3DFACE
  8
0
 10
-49.702091217041016
 20
42.758480072021484
 30
150.0
 11
-49.63536834716797
 21
41.82053756713867
 31
150.0
 12
-49.466766357421875
 22
40.68790817260742
 32
150.0
 13
-49.466766357421875
 23
40.68790817260742
 33
150.0
  0
3DFACE
  8
0
 10
-49.466766357421875
 20
40.68790817260742
 30
150.0
 11
-49.45896530151367
 21
40.65879440307617
 31
150.0
 12
-48.93598937988281
 22
39.37135696411133
 32
150.0
 13
-48.93598937988281
 23
39.37135696411133
 33
150.0
  0
3DFACE
  8
0
 10
-48.93598937988281
 20
39.37135696411133
 30
150.0
 11
-48.7056770324707
 21
38.85647201538086
 31
150.0
 12
-48.12434768676758
 22
37.98807907104492
 32
150.0
 13
-48.12434768676758
 23
37.98807907104492
 33
150.0
  0
3DFACE
  8
0
 10
-48.12434768676758
 20
37.98807907104492
 30
150.0
 11
-46.993892669677734
 21
36.757144927978516
 31
150.0
 12
-46.117374420166016
 22
35.98046875
 32
150.0
 13
-46.117374420166016
 23
35.98046875
 33
150.0
  0
3DFACE
  8
0
 10
-46.117374420166016
 20
35.98046875
 30
150.0
 11
-45.37899398803711
 21
35.44694519042969
 31
150.0
 12
-45.33340835571289
 22
35.419254302978516
 32
150.0
 13
-45.33340835571289
 23
35.419254302978516
 33
150.0
  0
3DFACE
  8
0
 10
-45.33340835571289
 20
35.419254302978516
 30
150.0
 11
-44.53273010253906
 21
34.990596771240234
 31
150.0
 12
-43.955474853515625
 22
34.753265380859375
 32
150.0
 13
-43.955474853515625
 23
34.753265380859375
 33
150.0
  0
3DFACE
  8
0
 10
-43.955474853515625
 20
34.753265380859375
 30
150.0
 11
-43.693809509277344
 21
34.640621185302734
 31
150.0
 12
-43.278709411621094
 22
34.5176887512207
 32
150.0
 13
-43.278709411621094
 23
34.5176887512207
 33
150.0
  0
3DFACE
  8
0
 10
-43.278709411621094
 20
34.5176887512207
 30
150.0
 11
-42.86311340332031
 21
34.4096794128418
 31
150.0
 12
-42.63945770263672
 22
34.374122619628906
 32
150.0
 13
-42.63945770263672
 23
34.374122619628906
 33
150.0
  0
3DFACE
  8
0
 10
-42.63945770263672
 20
34.374122619628906
 30
150.0
 11
-42.0377311706543
 21
34.255531311035156
 31
150.0
 12
-41.427734375
 22
34.186363220214844
 32
150.0
 13
-41.427734375
 23
34.186363220214844
 33
150.0
  0
3DFACE
  8
0
 10
-41.427734375
 20
34.186363220214844
 30
150.0
 11
-41.22825622558594
 21
34.15908432006836
 31
150.0
 12
-40.792396545410156
 22
34.1405143737793
 32
150.0
 13
-40.792396545410156
 23
34.1405143737793
 33
150.0
  0
3DFACE
  8
0
 10
-40.792396545410156
 20
34.1405143737793
 30
150.0
 11
-40.400535583496094
 21
34.14368438720703
 31
150.0
 12
-39.590919494628906
 22
34.217559814453125
 32
150.0
 13
-39.590919494628906
 23
34.217559814453125
 33
150.0
  0
3DFACE
  8
0
 10
-39.590919494628906
 20
34.217559814453125
 30
150.0
 11
-39.21296691894531
 21
34.282012939453125
 31
150.0
 12
-38.46359634399414
 22
34.4569206237793
 32
150.0
 13
-38.46359634399414
 23
34.4569206237793
 33
150.0
  0
3DFACE
  8
0
 10
-38.46359634399414
 20
34.4569206237793
 30
150.0
 11
-37.98940658569336
 21
34.621849060058594
 31
150.0
 12
-37.78438949584961
 22
34.697731018066406
 32
150.0
 13
-37.78438949584961
 23
34.697731018066406
 33
150.0
  0
3DFACE
  8
0
 10
-37.78438949584961
 20
34.697731018066406
 30
150.0
 11
-37.177913665771484
 21
34.948524475097656
 31
150.0
 12
-35.75375747680664
 22
35.851444244384766
 32
150.0
 13
-35.75375747680664
 23
35.851444244384766
 33
150.0
  0
3DFACE
  8
0
 10
-35.75375747680664
 20
35.851444244384766
 30
150.0
 11
-35.636993408203125
 21
35.94959259033203
 31
150.0
 12
-34.8894157409668
 22
36.65599822998047
 32
150.0
 13
-34.8894157409668
 23
36.65599822998047
 33
150.0
  0
3DFACE
  8
0
 10
-34.8894157409668
 20
36.65599822998047
 30
150.0
 11
-34.87242889404297
 21
36.673187255859375
 31
150.0
 12
-34.277809143066406
 22
37.46398162841797
 32
150.0
 13
-34.277809143066406
 23
37.46398162841797
 33
150.0
  0
3DFACE
  8
0
 10
-34.277809143066406
 20
37.46398162841797
 30
150.0
 11
-34.017269134521484
 21
37.871402740478516
 31
150.0
 12
-33.805973052978516
 22
38.26510238647461
 32
150.0
 13
-33.805973052978516
 23
38.26510238647461
 33
150.0
  0
3DFACE
  8
0
 10
-33.47209930419922
 20
39.00221633911133
 30
150.0
 11
-33.43927001953125
 21
39.06965255737305
 31
150.0
 12
-33.41355514526367
 22
39.14324951171875
 32
150.0
 13
-33.41355514526367
 23
39.14324951171875
 33
150.0
  0
3DFACE
  8
0
 10
-34.277809143066406
 20
37.46398162841797
 30
150.0
 11
-33.805973052978516
 21
38.26510238647461
 31
150.0
 12
-33.47209930419922
 22
39.00221633911133
 32
150.0
 13
-33.47209930419922
 23
39.00221633911133
 33
150.0
  0
3DFACE
  8
0
 10
-35.75375747680664
 20
35.851444244384766
 30
150.0
 11
-34.8894157409668
 21
36.65599822998047
 31
150.0
 12
-34.277809143066406
 22
37.46398162841797
 32
150.0
 13
-34.277809143066406
 23
37.46398162841797
 33
150.0
  0
3DFACE
  8
0
 10
-38.46359634399414
 20
34.4569206237793
 30
150.0
 11
-37.78438949584961
 21
34.697731018066406
 31
150.0
 12
-35.75375747680664
 22
35.851444244384766
 32
150.0
 13
-35.75375747680664
 23
35.851444244384766
 33
150.0
  0
3DFACE
  8
0
 10
-40.792396545410156
 20
34.1405143737793
 30
150.0
 11
-39.590919494628906
 21
34.217559814453125
 31
150.0
 12
-38.46359634399414
 22
34.4569206237793
 32
150.0
 13
-38.46359634399414
 23
34.4569206237793
 33
150.0
  0
3DFACE
  8
0
 10
-42.63945770263672
 20
34.374122619628906
 30
150.0
 11
-41.427734375
 21
34.186363220214844
 31
150.0
 12
-40.792396545410156
 22
34.1405143737793
 32
150.0
 13
-40.792396545410156
 23
34.1405143737793
 33
150.0
  0
3DFACE
  8
0
 10
-43.955474853515625
 20
34.753265380859375
 30
150.0
 11
-43.278709411621094
 21
34.5176887512207
 31
150.0
 12
-42.63945770263672
 22
34.374122619628906
 32
150.0
 13
-42.63945770263672
 23
34.374122619628906
 33
150.0
  0
3DFACE
  8
0
 10
-46.117374420166016
 20
35.98046875
 30
150.0
 11
-45.33340835571289
 21
35.419254302978516
 31
150.0
 12
-43.955474853515625
 22
34.753265380859375
 32
150.0
 13
-43.955474853515625
 23
34.753265380859375
 33
150.0
  0
3DFACE
  8
0
 10
-48.93598937988281
 20
39.37135696411133
 30
150.0
 11
-48.12434768676758
 21
37.98807907104492
 31
150.0
 12
-46.117374420166016
 22
35.98046875
 32
150.0
 13
-46.117374420166016
 23
35.98046875
 33
150.0
  0
3DFACE
  8
0
 10
-49.702091217041016
 20
42.758480072021484
 30
150.0
 11
-49.466766357421875
 21
40.68790817260742
 31
150.0
 12
-48.93598937988281
 22
39.37135696411133
 32
150.0
 13
-48.93598937988281
 23
39.37135696411133
 33
150.0
  0
3DFACE
  8
0
 10
-49.113525390625
 20
45.506065368652344
 30
150.0
 11
-49.41446304321289
 21
44.70151901245117
 31
150.0
 12
-49.702091217041016
 22
42.758480072021484
 32
150.0
 13
-49.702091217041016
 23
42.758480072021484
 33
150.0
  0
3DFACE
  8
0
 10
-48.308815002441406
 20
46.863460540771484
 30
150.0
 11
-48.66868209838867
 21
46.278629302978516
 31
150.0
 12
-49.113525390625
 22
45.506065368652344
 32
150.0
 13
-49.113525390625
 23
45.506065368652344
 33
150.0
  0
3DFACE
  8
0
 10
-48.098670959472656
 20
47.115169525146484
 30
150.0
 11
-48.308815002441406
 21
46.863460540771484
 31
150.0
 12
-49.113525390625
 22
45.506065368652344
 32
150.0
 13
-49.113525390625
 23
45.506065368652344
 33
150.0
  0
3DFACE
  8
0
 10
-49.113525390625
 20
45.506065368652344
 30
150.0
 11
-49.702091217041016
 21
42.758480072021484
 31
150.0
 12
-48.93598937988281
 22
39.37135696411133
 32
150.0
 13
-48.93598937988281
 23
39.37135696411133
 33
150.0
  0
3DFACE
  8
0
 10
-48.93598937988281
 20
39.37135696411133
 30
150.0
 11
-46.117374420166016
 21
35.98046875
 31
150.0
 12
-43.955474853515625
 22
34.753265380859375
 32
150.0
 13
-43.955474853515625
 23
34.753265380859375
 33
150.0
  0
3DFACE
  8
0
 10
-43.955474853515625
 20
34.753265380859375
 30
150.0
 11
-42.63945770263672
 21
34.374122619628906
 31
150.0
 12
-40.792396545410156
 22
34.1405143737793
 32
150.0
 13
-40.792396545410156
 23
34.1405143737793
 33
150.0
  0
3DFACE
  8
0
 10
-40.792396545410156
 20
34.1405143737793
 30
150.0
 11
-38.46359634399414
 21
34.4569206237793
 31
150.0
 12
-35.75375747680664
 22
35.851444244384766
 32
150.0
 13
-35.75375747680664
 23
35.851444244384766
 33
150.0
  0
3DFACE
  8
0
 10
-35.75375747680664
 20
35.851444244384766
 30
150.0
 11
-34.277809143066406
 21
37.46398162841797
 31
150.0
 12
-33.47209930419922
 22
39.00221633911133
 32
150.0
 13
-33.47209930419922
 23
39.00221633911133
 33
150.0
  0
3DFACE
  8
0
 10
-33.47209930419922
 20
39.00221633911133
 30
150.0
 11
-33.41355514526367
 21
39.14324951171875
 31
150.0
 12
-33.190391540527344
 22
39.87420654296875
 32
150.0
 13
-33.190391540527344
 23
39.87420654296875
 33
150.0
  0
3DFACE
  8
0
 10
-33.190391540527344
 20
39.87420654296875
 30
150.0
 11
-33.17382049560547
 21
39.93827819824219
 31
150.0
 12
-33.10395812988281
 22
40.25046920776367
 32
150.0
 13
-33.10395812988281
 23
40.25046920776367
 33
150.0
  0
3DFACE
  8
0
 10
-33.10395812988281
 20
40.25046920776367
 30
150.0
 11
-33.01641082763672
 21
40.67876052856445
 31
150.0
 12
-33.00917434692383
 22
40.801719665527344
 32
150.0
 13
-33.00917434692383
 23
40.801719665527344
 33
150.0
  0
3DFACE
  8
0
 10
-33.00917434692383
 20
40.801719665527344
 30
150.0
 11
-32.94612503051758
 21
41.483306884765625
 31
150.0
 12
-32.93019104003906
 22
41.8853645324707
 32
150.0
 13
-32.93019104003906
 23
41.8853645324707
 33
150.0
  0
3DFACE
  8
0
 10
-32.93019104003906
 20
41.8853645324707
 30
150.0
 11
-32.925941467285156
 21
42.28786087036133
 31
150.0
 12
-32.97264862060547
 22
42.83759307861328
 32
150.0
 13
-32.97264862060547
 23
42.83759307861328
 33
150.0
  0
3DFACE
  8
0
 10
-32.97264862060547
 20
42.83759307861328
 30
150.0
 11
-32.976985931396484
 21
43.08418655395508
 31
150.0
 12
-32.99176025390625
 22
43.234371185302734
 32
150.0
 13
-32.99176025390625
 23
43.234371185302734
 33
150.0
  0
3DFACE
  8
0
 10
-32.99176025390625
 20
43.234371185302734
 30
150.0
 11
-33.09765625
 21
43.722259521484375
 31
150.0
 12
-33.13896942138672
 22
43.896968841552734
 32
150.0
 13
-33.13896942138672
 23
43.896968841552734
 33
150.0
  0
3DFACE
  8
0
 10
-33.16834259033203
 20
43.97968673706055
 30
150.0
 11
-33.37428283691406
 21
44.701515197753906
 31
150.0
 12
-33.51506423950195
 22
45.067169189453125
 32
150.0
 13
-33.51506423950195
 23
45.067169189453125
 33
150.0
  0
3DFACE
  8
0
 10
-32.99176025390625
 20
43.234371185302734
 30
150.0
 11
-33.13896942138672
 21
43.896968841552734
 31
150.0
 12
-33.16834259033203
 22
43.97968673706055
 32
150.0
 13
-33.16834259033203
 23
43.97968673706055
 33
150.0
  0
3DFACE
  8
0
 10
-32.93019104003906
 20
41.8853645324707
 30
150.0
 11
-32.97264862060547
 21
42.83759307861328
 31
150.0
 12
-32.99176025390625
 22
43.234371185302734
 32
150.0
 13
-32.99176025390625
 23
43.234371185302734
 33
150.0
  0
3DFACE
  8
0
 10
-33.10395812988281
 20
40.25046920776367
 30
150.0
 11
-33.00917434692383
 21
40.801719665527344
 31
150.0
 12
-32.93019104003906
 22
41.8853645324707
 32
150.0
 13
-32.93019104003906
 23
41.8853645324707
 33
150.0
  0
3DFACE
  8
0
 10
-33.47209930419922
 20
39.00221633911133
 30
150.0
 11
-33.190391540527344
 21
39.87420654296875
 31
150.0
 12
-33.10395812988281
 22
40.25046920776367
 32
150.0
 13
-33.10395812988281
 23
40.25046920776367
 33
150.0
  0
3DFACE
  8
0
 10
-40.792396545410156
 20
34.1405143737793
 30
150.0
 11
-35.75375747680664
 21
35.851444244384766
 31
150.0
 12
-33.47209930419922
 22
39.00221633911133
 32
150.0
 13
-33.47209930419922
 23
39.00221633911133
 33
150.0
  0
3DFACE
  8
0
 10
-48.93598937988281
 20
39.37135696411133
 30
150.0
 11
-43.955474853515625
 21
34.753265380859375
 31
150.0
 12
-40.792396545410156
 22
34.1405143737793
 32
150.0
 13
-40.792396545410156
 23
34.1405143737793
 33
150.0
  0
3DFACE
  8
0
 10
-48.098670959472656
 20
47.115169525146484
 30
150.0
 11
-49.113525390625
 21
45.506065368652344
 31
150.0
 12
-48.93598937988281
 22
39.37135696411133
 32
150.0
 13
-48.93598937988281
 23
39.37135696411133
 33
150.0
  0
3DFACE
  8
0
 10
-47.086822509765625
 20
48.36756134033203
 30
150.0
 11
-47.66119384765625
 21
47.70741653442383
 31
150.0
 12
-47.83847427368164
 22
47.45504379272461
 32
150.0
 13
-47.83847427368164
 23
47.45504379272461
 33
150.0
  0
3DFACE
  8
0
 10
-47.83847427368164
 20
47.45504379272461
 30
150.0
 11
-48.098670959472656
 21
47.115169525146484
 31
150.0
 12
-48.93598937988281
 22
39.37135696411133
 32
150.0
 13
-48.93598937988281
 23
39.37135696411133
 33
150.0
  0
3DFACE
  8
0
 10
-48.93598937988281
 20
39.37135696411133
 30
150.0
 11
-40.792396545410156
 21
34.1405143737793
 31
150.0
 12
-33.47209930419922
 22
39.00221633911133
 32
150.0
 13
-33.47209930419922
 23
39.00221633911133
 33
150.0
  0
3DFACE
  8
0
 10
-33.47209930419922
 20
39.00221633911133
 30
150.0
 11
-33.10395812988281
 21
40.25046920776367
 31
150.0
 12
-32.93019104003906
 22
41.8853645324707
 32
150.0
 13
-32.93019104003906
 23
41.8853645324707
 33
150.0
  0
3DFACE
  8
0
 10
-32.93019104003906
 20
41.8853645324707
 30
150.0
 11
-32.99176025390625
 21
43.234371185302734
 31
150.0
 12
-33.16834259033203
 22
43.97968673706055
 32
150.0
 13
-33.16834259033203
 23
43.97968673706055
 33
150.0
  0
3DFACE
  8
0
 10
-33.16834259033203
 20
43.97968673706055
 30
150.0
 11
-33.51506423950195
 21
45.067169189453125
 31
150.0
 12
-33.87279510498047
 22
45.80610275268555
 32
150.0
 13
-33.87279510498047
 23
45.80610275268555
 33
150.0
  0
3DFACE
  8
0
 10
-33.87279510498047
 20
45.80610275268555
 30
150.0
 11
-33.90571594238281
 21
45.880462646484375
 31
150.0
 12
-33.998355865478516
 22
46.04739761352539
 32
150.0
 13
-33.998355865478516
 23
46.04739761352539
 33
150.0
  0
3DFACE
  8
0
 10
-33.998355865478516
 20
46.04739761352539
 30
150.0
 11
-34.15583038330078
 21
46.31062316894531
 31
150.0
 12
-34.49886703491211
 22
46.837825775146484
 32
150.0
 13
-34.49886703491211
 23
46.837825775146484
 33
150.0
  0
3DFACE
  8
0
 10
-34.76062774658203
 20
47.14873504638672
 30
150.0
 11
-34.9224853515625
 21
47.347206115722656
 31
150.0
 12
-35.561317443847656
 22
48.08857345581055
 32
150.0
 13
-35.561317443847656
 23
48.08857345581055
 33
150.0
  0
3DFACE
  8
0
 10
-33.998355865478516
 20
46.04739761352539
 30
150.0
 11
-34.49886703491211
 21
46.837825775146484
 31
150.0
 12
-34.76062774658203
 22
47.14873504638672
 32
150.0
 13
-34.76062774658203
 23
47.14873504638672
 33
150.0
  0
3DFACE
  8
0
 10
-33.16834259033203
 20
43.97968673706055
 30
150.0
 11
-33.87279510498047
 21
45.80610275268555
 31
150.0
 12
-33.998355865478516
 22
46.04739761352539
 32
150.0
 13
-33.998355865478516
 23
46.04739761352539
 33
150.0
  0
3DFACE
  8
0
 10
-33.47209930419922
 20
39.00221633911133
 30
150.0
 11
-32.93019104003906
 21
41.8853645324707
 31
150.0
 12
-33.16834259033203
 22
43.97968673706055
 32
150.0
 13
-33.16834259033203
 23
43.97968673706055
 33
150.0
  0
3DFACE
  8
0
 10
-47.83847427368164
 20
47.45504379272461
 30
150.0
 11
-48.93598937988281
 21
39.37135696411133
 31
150.0
 12
-33.47209930419922
 22
39.00221633911133
 32
150.0
 13
-33.47209930419922
 23
39.00221633911133
 33
150.0
  0
3DFACE
  8
0
 10
-46.919029235839844
 20
48.54902648925781
 30
150.0
 11
-47.086822509765625
 21
48.36756134033203
 31
150.0
 12
-47.83847427368164
 22
47.45504379272461
 32
150.0
 13
-47.83847427368164
 23
47.45504379272461
 33
150.0
  0
3DFACE
  8
0
 10
-45.54482650756836
 20
49.632938385009766
 30
150.0
 11
-46.05567169189453
 21
49.287254333496094
 31
150.0
 12
-46.919029235839844
 22
48.54902648925781
 32
150.0
 13
-46.919029235839844
 23
48.54902648925781
 33
150.0
  0
3DFACE
  8
0
 10
-45.42985534667969
 20
49.702030181884766
 30
150.0
 11
-45.49597930908203
 21
49.663421630859375
 31
150.0
 12
-45.54482650756836
 22
49.632938385009766
 32
150.0
 13
-45.54482650756836
 23
49.632938385009766
 33
150.0
  0
3DFACE
  8
0
 10
-44.62998962402344
 20
50.10267639160156
 30
150.0
 11
-44.75883102416992
 21
50.04865264892578
 31
150.0
 12
-45.42985534667969
 22
49.702030181884766
 32
150.0
 13
-45.42985534667969
 23
49.702030181884766
 33
150.0
  0
3DFACE
  8
0
 10
-43.437278747558594
 20
50.52938461303711
 30
150.0
 11
-43.964881896972656
 21
50.34938430786133
 31
150.0
 12
-44.62998962402344
 22
50.10267639160156
 32
150.0
 13
-44.62998962402344
 23
50.10267639160156
 33
150.0
  0
3DFACE
  8
0
 10
-41.894691467285156
 20
50.6523323059082
 30
150.0
 11
-42.35468673706055
 21
50.6279411315918
 31
150.0
 12
-43.437278747558594
 22
50.52938461303711
 32
150.0
 13
-43.437278747558594
 23
50.52938461303711
 33
150.0
  0
3DFACE
  8
0
 10
-39.98933029174805
 20
50.430660247802734
 30
150.0
 11
-40.72199630737305
 21
50.58113098144531
 31
150.0
 12
-41.894691467285156
 22
50.6523323059082
 32
150.0
 13
-41.894691467285156
 23
50.6523323059082
 33
150.0
  0
3DFACE
  8
0
 10
-39.51242446899414
 20
50.300506591796875
 30
150.0
 11
-39.89535140991211
 21
50.40871810913086
 31
150.0
 12
-39.98933029174805
 22
50.430660247802734
 32
150.0
 13
-39.98933029174805
 23
50.430660247802734
 33
150.0
  0
3DFACE
  8
0
 10
-38.94683837890625
 20
50.130462646484375
 30
150.0
 11
-39.11703872680664
 21
50.194881439208984
 31
150.0
 12
-39.51242446899414
 22
50.300506591796875
 32
150.0
 13
-39.51242446899414
 23
50.300506591796875
 33
150.0
  0
3DFACE
  8
0
 10
-37.372283935546875
 20
49.44437026977539
 30
150.0
 11
-38.21079635620117
 21
49.81899642944336
 31
150.0
 12
-38.94683837890625
 22
50.130462646484375
 32
150.0
 13
-38.94683837890625
 23
50.130462646484375
 33
150.0
  0
3DFACE
  8
0
 10
-36.52552795410156
 20
48.86445236206055
 30
150.0
 11
-37.07313537597656
 21
49.25652313232422
 31
150.0
 12
-37.372283935546875
 22
49.44437026977539
 32
150.0
 13
-37.372283935546875
 23
49.44437026977539
 33
150.0
  0
3DFACE
  8
0
 10
-35.561317443847656
 20
48.08857345581055
 30
150.0
 11
-35.92517852783203
 21
48.413291931152344
 31
150.0
 12
-36.34994888305664
 22
48.72795104980469
 32
150.0
 13
-36.34994888305664
 23
48.72795104980469
 33
150.0
  0
3DFACE
  8
0
 10
-36.34994888305664
 20
48.72795104980469
 30
150.0
 11
-36.52552795410156
 21
48.86445236206055
 31
150.0
 12
-37.372283935546875
 22
49.44437026977539
 32
150.0
 13
-37.372283935546875
 23
49.44437026977539
 33
150.0
  0
3DFACE
  8
0
 10
-37.372283935546875
 20
49.44437026977539
 30
150.0
 11
-38.94683837890625
 21
50.130462646484375
 31
150.0
 12
-39.51242446899414
 22
50.300506591796875
 32
150.0
 13
-39.51242446899414
 23
50.300506591796875
 33
150.0
  0
3DFACE
  8
0
 10
-39.51242446899414
 20
50.300506591796875
 30
150.0
 11
-39.98933029174805
 21
50.430660247802734
 31
150.0
 12
-41.894691467285156
 22
50.6523323059082
 32
150.0
 13
-41.894691467285156
 23
50.6523323059082
 33
150.0
  0
3DFACE
  8
0
 10
-41.894691467285156
 20
50.6523323059082
 30
150.0
 11
-43.437278747558594
 21
50.52938461303711
 31
150.0
 12
-44.62998962402344
 22
50.10267639160156
 32
150.0
 13
-44.62998962402344
 23
50.10267639160156
 33
150.0
  0
3DFACE
  8
0
 10
-44.62998962402344
 20
50.10267639160156
 30
150.0
 11
-45.42985534667969
 21
49.702030181884766
 31
150.0
 12
-45.54482650756836
 22
49.632938385009766
 32
150.0
 13
-45.54482650756836
 23
49.632938385009766
 33
150.0
  0
3DFACE
  8
0
 10
-45.54482650756836
 20
49.632938385009766
 30
150.0
 11
-46.919029235839844
 21
48.54902648925781
 31
150.0
 12
-47.83847427368164
 22
47.45504379272461
 32
150.0
 13
-47.83847427368164
 23
47.45504379272461
 33
150.0
  0
3DFACE
  8
0
 10
-47.83847427368164
 20
47.45504379272461
 30
150.0
 11
-33.47209930419922
 21
39.00221633911133
 31
150.0
 12
-33.16834259033203
 22
43.97968673706055
 32
150.0
 13
-33.16834259033203
 23
43.97968673706055
 33
150.0
  0
3DFACE
  8
0
 10
-33.16834259033203
 20
43.97968673706055
 30
150.0
 11
-33.998355865478516
 21
46.04739761352539
 31
150.0
 12
-34.76062774658203
 22
47.14873504638672
 32
150.0
 13
-34.76062774658203
 23
47.14873504638672
 33
150.0
  0
3DFACE
  8
0
 10
-34.76062774658203
 20
47.14873504638672
 30
150.0
 11
-35.561317443847656
 21
48.08857345581055
 31
150.0
 12
-36.34994888305664
 22
48.72795104980469
 32
150.0
 13
-36.34994888305664
 23
48.72795104980469
 33
150.0
  0
3DFACE
  8
0
 10
-36.34994888305664
 20
48.72795104980469
 30
150.0
 11
-37.372283935546875
 21
49.44437026977539
 31
150.0
 12
-39.51242446899414
 22
50.300506591796875
 32
150.0
 13
-39.51242446899414
 23
50.300506591796875
 33
150.0
  0
3DFACE
  8
0
 10
-39.51242446899414
 20
50.300506591796875
 30
150.0
 11
-41.894691467285156
 21
50.6523323059082
 31
150.0
 12
-44.62998962402344
 22
50.10267639160156
 32
150.0
 13
-44.62998962402344
 23
50.10267639160156
 33
150.0
  0
3DFACE
  8
0
 10
-44.62998962402344
 20
50.10267639160156
 30
150.0
 11
-45.54482650756836
 21
49.632938385009766
 31
150.0
 12
-47.83847427368164
 22
47.45504379272461
 32
150.0
 13
-47.83847427368164
 23
47.45504379272461
 33
150.0
  0
3DFACE
  8
0
 10
-47.83847427368164
 20
47.45504379272461
 30
150.0
 11
-33.16834259033203
 21
43.97968673706055
 31
150.0
 12
-34.76062774658203
 22
47.14873504638672
 32
150.0
 13
-34.76062774658203
 23
47.14873504638672
 33
150.0
  0
3DFACE
  8
0
 10
-34.76062774658203
 20
47.14873504638672
 30
150.0
 11
-36.34994888305664
 21
48.72795104980469
 31
150.0
 12
-39.51242446899414
 22
50.300506591796875
 32
150.0
 13
-39.51242446899414
 23
50.300506591796875
 33
150.0
  0
3DFACE
  8
0
 10
-39.51242446899414
 20
50.300506591796875
 30
150.0
 11
-44.62998962402344
 21
50.10267639160156
 31
150.0
 12
-47.83847427368164
 22
47.45504379272461
 32
150.0
 13
-47.83847427368164
 23
47.45504379272461
 33
150.0
  0
3DFACE
  8
0
 10
-34.76062774658203
 20
47.14873504638672
 30
150.0
 11
-39.51242446899414
 21
50.300506591796875
 31
150.0
 12
-47.83847427368164
 22
47.45504379272461
 32
150.0
 13
-47.83847427368164
 23
47.45504379272461
 33
150.0
  0
3DFACE
  8
0
 10
25.87654685974121
 20
53.73160934448242
 30
150.0
 11
25.87501335144043
 21
53.714813232421875
 31
150.0
 12
25.874738693237305
 22
53.6884651184082
 32
150.0
 13
25.874738693237305
 23
53.6884651184082
 33
150.0
  0
3DFACE
  8
0
 10
25.874738693237305
 20
53.6884651184082
 30
150.0
 11
25.8901309967041
 21
53.060367584228516
 31
150.0
 12
25.897415161132812
 22
52.96511459350586
 32
150.0
 13
25.897415161132812
 23
52.96511459350586
 33
150.0
  0
3DFACE
  8
0
 10
25.897415161132812
 20
52.96511459350586
 30
150.0
 11
25.9593505859375
 21
52.39545440673828
 31
150.0
 12
26.00809669494629
 22
52.177978515625
 32
150.0
 13
26.00809669494629
 23
52.177978515625
 33
150.0
  0
3DFACE
  8
0
 10
26.00809669494629
 20
52.177978515625
 30
150.0
 11
26.08114242553711
 21
51.68294906616211
 31
150.0
 12
26.135601043701172
 22
51.47377395629883
 32
150.0
 13
26.135601043701172
 23
51.47377395629883
 33
150.0
  0
3DFACE
  8
0
 10
26.135601043701172
 20
51.47377395629883
 30
150.0
 11
26.236915588378906
 21
51.1069221496582
 31
150.0
 12
26.416807174682617
 22
50.60371398925781
 32
150.0
 13
26.416807174682617
 23
50.60371398925781
 33
150.0
  0
3DFACE
  8
0
 10
26.416807174682617
 20
50.60371398925781
 30
150.0
 11
26.47867202758789
 21
50.44150924682617
 31
150.0
 12
26.525333404541016
 22
50.33140182495117
 32
150.0
 13
26.525333404541016
 23
50.33140182495117
 33
150.0
  0
3DFACE
  8
0
 10
26.525333404541016
 20
50.33140182495117
 30
150.0
 11
26.629043579101562
 21
50.104915618896484
 31
150.0
 12
26.903053283691406
 22
49.55653762817383
 32
150.0
 13
26.903053283691406
 23
49.55653762817383
 33
150.0
  0
3DFACE
  8
0
 10
26.903053283691406
 20
49.55653762817383
 30
150.0
 11
26.967615127563477
 21
49.4320182800293
 31
150.0
 12
27.207063674926758
 22
49.02942657470703
 32
150.0
 13
27.207063674926758
 23
49.02942657470703
 33
150.0
  0
3DFACE
  8
0
 10
27.207063674926758
 20
49.02942657470703
 30
150.0
 11
27.701539993286133
 21
48.28602600097656
 31
150.0
 12
28.454975128173828
 22
47.517822265625
 32
150.0
 13
28.454975128173828
 23
47.517822265625
 33
150.0
  0
3DFACE
  8
0
 10
28.454975128173828
 20
47.517822265625
 30
150.0
 11
28.577247619628906
 21
47.44093322753906
 31
150.0
 12
29.22370719909668
 22
47.071006774902344
 32
150.0
 13
29.22370719909668
 23
47.071006774902344
 33
150.0
  0
3DFACE
  8
0
 10
29.602479934692383
 20
47.00099563598633
 30
150.0
 11
30.00615882873535
 21
46.90361022949219
 31
150.0
 12
30.80250358581543
 22
46.85953140258789
 32
150.0
 13
30.80250358581543
 23
46.85953140258789
 33
150.0
  0
3DFACE
  8
0
 10
28.454975128173828
 20
47.517822265625
 30
150.0
 11
29.22370719909668
 21
47.071006774902344
 31
150.0
 12
29.602479934692383
 22
47.00099563598633
 32
150.0
 13
29.602479934692383
 23
47.00099563598633
 33
150.0
  0
3DFACE
  8
0
 10
26.903053283691406
 20
49.55653762817383
 30
150.0
 11
27.207063674926758
 21
49.02942657470703
 31
150.0
 12
28.454975128173828
 22
47.517822265625
 32
150.0
 13
28.454975128173828
 23
47.517822265625
 33
150.0
  0
3DFACE
  8
0
 10
26.416807174682617
 20
50.60371398925781
 30
150.0
 11
26.525333404541016
 21
50.33140182495117
 31
150.0
 12
26.903053283691406
 22
49.55653762817383
 32
150.0
 13
26.903053283691406
 23
49.55653762817383
 33
150.0
  0
3DFACE
  8
0
 10
26.00809669494629
 20
52.177978515625
 30
150.0
 11
26.135601043701172
 21
51.47377395629883
 31
150.0
 12
26.416807174682617
 22
50.60371398925781
 32
150.0
 13
26.416807174682617
 23
50.60371398925781
 33
150.0
  0
3DFACE
  8
0
 10
25.874738693237305
 20
53.6884651184082
 30
150.0
 11
25.897415161132812
 21
52.96511459350586
 31
150.0
 12
26.00809669494629
 22
52.177978515625
 32
150.0
 13
26.00809669494629
 23
52.177978515625
 33
150.0
  0
3DFACE
  8
0
 10
25.879417419433594
 20
53.75225830078125
 30
150.0
 11
25.87654685974121
 21
53.73160934448242
 31
150.0
 12
25.874738693237305
 22
53.6884651184082
 32
150.0
 13
25.874738693237305
 23
53.6884651184082
 33
150.0
  0
3DFACE
  8
0
 10
25.951244354248047
 20
54.539390563964844
 30
150.0
 11
25.924148559570312
 21
54.3568115234375
 31
150.0
 12
25.879417419433594
 22
53.75225830078125
 32
150.0
 13
25.879417419433594
 23
53.75225830078125
 33
150.0
  0
3DFACE
  8
0
 10
26.20785140991211
 20
55.604942321777344
 30
150.0
 11
26.04493522644043
 21
54.984954833984375
 31
150.0
 12
25.951244354248047
 22
54.539390563964844
 32
150.0
 13
25.951244354248047
 23
54.539390563964844
 33
150.0
  0
3DFACE
  8
0
 10
26.564762115478516
 20
56.541603088378906
 30
150.0
 11
26.4028377532959
 21
56.171146392822266
 31
150.0
 12
26.20785140991211
 22
55.604942321777344
 32
150.0
 13
26.20785140991211
 23
55.604942321777344
 33
150.0
  0
3DFACE
  8
0
 10
26.74559211730957
 20
56.90080261230469
 30
150.0
 11
26.692819595336914
 21
56.81414031982422
 31
150.0
 12
26.564762115478516
 22
56.541603088378906
 32
150.0
 13
26.564762115478516
 23
56.541603088378906
 33
150.0
  0
3DFACE
  8
0
 10
27.227848052978516
 20
57.67802810668945
 30
150.0
 11
27.027565002441406
 21
57.400909423828125
 31
150.0
 12
26.74559211730957
 22
56.90080261230469
 32
150.0
 13
26.74559211730957
 23
56.90080261230469
 33
150.0
  0
3DFACE
  8
0
 10
27.9290771484375
 20
58.52952575683594
 30
150.0
 11
27.40540885925293
 21
57.94729232788086
 31
150.0
 12
27.227848052978516
 22
57.67802810668945
 32
150.0
 13
27.227848052978516
 23
57.67802810668945
 33
150.0
  0
3DFACE
  8
0
 10
28.21866226196289
 20
58.809818267822266
 30
150.0
 11
28.199996948242188
 21
58.7956428527832
 31
150.0
 12
27.9290771484375
 22
58.52952575683594
 32
150.0
 13
27.9290771484375
 23
58.52952575683594
 33
150.0
  0
3DFACE
  8
0
 10
29.478044509887695
 20
59.59004211425781
 30
150.0
 11
29.035642623901367
 21
59.345802307128906
 31
150.0
 12
28.40402603149414
 22
58.92753982543945
 32
150.0
 13
28.40402603149414
 23
58.92753982543945
 33
150.0
  0
3DFACE
  8
0
 10
28.40402603149414
 20
58.92753982543945
 30
150.0
 11
28.21866226196289
 21
58.809818267822266
 31
150.0
 12
27.9290771484375
 22
58.52952575683594
 32
150.0
 13
27.9290771484375
 23
58.52952575683594
 33
150.0
  0
3DFACE
  8
0
 10
27.9290771484375
 20
58.52952575683594
 30
150.0
 11
27.227848052978516
 21
57.67802810668945
 31
150.0
 12
26.74559211730957
 22
56.90080261230469
 32
150.0
 13
26.74559211730957
 23
56.90080261230469
 33
150.0
  0
3DFACE
  8
0
 10
26.74559211730957
 20
56.90080261230469
 30
150.0
 11
26.564762115478516
 21
56.541603088378906
 31
150.0
 12
26.20785140991211
 22
55.604942321777344
 32
150.0
 13
26.20785140991211
 23
55.604942321777344
 33
150.0
  0
3DFACE
  8
0
 10
26.20785140991211
 20
55.604942321777344
 30
150.0
 11
25.951244354248047
 21
54.539390563964844
 31
150.0
 12
25.879417419433594
 22
53.75225830078125
 32
150.0
 13
25.879417419433594
 23
53.75225830078125
 33
150.0
  0
3DFACE
  8
0
 10
25.879417419433594
 20
53.75225830078125
 30
150.0
 11
25.874738693237305
 21
53.6884651184082
 31
150.0
 12
26.00809669494629
 22
52.177978515625
 32
150.0
 13
26.00809669494629
 23
52.177978515625
 33
150.0
  0
3DFACE
  8
0
 10
26.00809669494629
 20
52.177978515625
 30
150.0
 11
26.416807174682617
 21
50.60371398925781
 31
150.0
 12
26.903053283691406
 22
49.55653762817383
 32
150.0
 13
26.903053283691406
 23
49.55653762817383
 33
150.0
  0
3DFACE
  8
0
 10
26.903053283691406
 20
49.55653762817383
 30
150.0
 11
28.454975128173828
 21
47.517822265625
 31
150.0
 12
29.602479934692383
 22
47.00099563598633
 32
150.0
 13
29.602479934692383
 23
47.00099563598633
 33
150.0
  0
3DFACE
  8
0
 10
29.602479934692383
 20
47.00099563598633
 30
150.0
 11
30.80250358581543
 21
46.85953140258789
 31
150.0
 12
30.99458122253418
 22
46.86140060424805
 32
150.0
 13
30.99458122253418
 23
46.86140060424805
 33
150.0
  0
3DFACE
  8
0
 10
30.99458122253418
 20
46.86140060424805
 30
150.0
 11
31.58782196044922
 21
46.910194396972656
 31
150.0
 12
31.648305892944336
 22
46.920440673828125
 32
150.0
 13
31.648305892944336
 23
46.920440673828125
 33
150.0
  0
3DFACE
  8
0
 10
31.648305892944336
 20
46.920440673828125
 30
150.0
 11
32.38933181762695
 21
47.13109588623047
 31
150.0
 12
32.67530822753906
 22
47.2411994934082
 32
150.0
 13
32.67530822753906
 23
47.2411994934082
 33
150.0
  0
3DFACE
  8
0
 10
32.67530822753906
 20
47.2411994934082
 30
150.0
 11
33.19364547729492
 21
47.4090690612793
 31
150.0
 12
33.905967712402344
 22
47.82619857788086
 32
150.0
 13
33.905967712402344
 23
47.82619857788086
 33
150.0
  0
3DFACE
  8
0
 10
33.905967712402344
 20
47.82619857788086
 30
150.0
 11
34.00730514526367
 21
47.87740707397461
 31
150.0
 12
34.17227554321289
 22
47.999794006347656
 32
150.0
 13
34.17227554321289
 23
47.999794006347656
 33
150.0
  0
3DFACE
  8
0
 10
34.17227554321289
 20
47.999794006347656
 30
150.0
 11
34.4642219543457
 21
48.242286682128906
 31
150.0
 12
34.746212005615234
 22
48.49496078491211
 32
150.0
 13
34.746212005615234
 23
48.49496078491211
 33
150.0
  0
3DFACE
  8
0
 10
34.746212005615234
 20
48.49496078491211
 30
150.0
 11
34.832576751708984
 21
48.58237838745117
 31
150.0
 12
35.02020263671875
 22
48.8012580871582
 32
150.0
 13
35.02020263671875
 23
48.8012580871582
 33
150.0
  0
3DFACE
  8
0
 10
35.02020263671875
 20
48.8012580871582
 30
150.0
 11
35.2447395324707
 21
49.02942657470703
 31
150.0
 12
35.37856674194336
 22
49.17506790161133
 32
150.0
 13
35.37856674194336
 23
49.17506790161133
 33
150.0
  0
3DFACE
  8
0
 10
35.88157653808594
 20
49.811981201171875
 30
150.0
 11
35.88569641113281
 21
49.81656265258789
 31
150.0
 12
35.90016174316406
 22
49.84104537963867
 32
150.0
 13
35.90016174316406
 23
49.84104537963867
 33
150.0
  0
3DFACE
  8
0
 10
35.02020263671875
 20
48.8012580871582
 30
150.0
 11
35.37856674194336
 21
49.17506790161133
 31
150.0
 12
35.88157653808594
 22
49.811981201171875
 32
150.0
 13
35.88157653808594
 23
49.811981201171875
 33
150.0
  0
3DFACE
  8
0
 10
34.17227554321289
 20
47.999794006347656
 30
150.0
 11
34.746212005615234
 21
48.49496078491211
 31
150.0
 12
35.02020263671875
 22
48.8012580871582
 32
150.0
 13
35.02020263671875
 23
48.8012580871582
 33
150.0
  0
3DFACE
  8
0
 10
32.67530822753906
 20
47.2411994934082
 30
150.0
 11
33.905967712402344
 21
47.82619857788086
 31
150.0
 12
34.17227554321289
 22
47.999794006347656
 32
150.0
 13
34.17227554321289
 23
47.999794006347656
 33
150.0
  0
3DFACE
  8
0
 10
30.99458122253418
 20
46.86140060424805
 30
150.0
 11
31.648305892944336
 21
46.920440673828125
 31
150.0
 12
32.67530822753906
 22
47.2411994934082
 32
150.0
 13
32.67530822753906
 23
47.2411994934082
 33
150.0
  0
3DFACE
  8
0
 10
26.903053283691406
 20
49.55653762817383
 30
150.0
 11
29.602479934692383
 21
47.00099563598633
 31
150.0
 12
30.99458122253418
 22
46.86140060424805
 32
150.0
 13
30.99458122253418
 23
46.86140060424805
 33
150.0
  0
3DFACE
  8
0
 10
25.879417419433594
 20
53.75225830078125
 30
150.0
 11
26.00809669494629
 21
52.177978515625
 31
150.0
 12
26.903053283691406
 22
49.55653762817383
 32
150.0
 13
26.903053283691406
 23
49.55653762817383
 33
150.0
  0
3DFACE
  8
0
 10
26.74559211730957
 20
56.90080261230469
 30
150.0
 11
26.20785140991211
 21
55.604942321777344
 31
150.0
 12
25.879417419433594
 22
53.75225830078125
 32
150.0
 13
25.879417419433594
 23
53.75225830078125
 33
150.0
  0
3DFACE
  8
0
 10
28.40402603149414
 20
58.92753982543945
 30
150.0
 11
27.9290771484375
 21
58.52952575683594
 31
150.0
 12
26.74559211730957
 22
56.90080261230469
 32
150.0
 13
26.74559211730957
 23
56.90080261230469
 33
150.0
  0
3DFACE
  8
0
 10
29.847576141357422
 20
59.77898406982422
 30
150.0
 11
29.478044509887695
 21
59.59004211425781
 31
150.0
 12
28.40402603149414
 22
58.92753982543945
 32
150.0
 13
28.40402603149414
 23
58.92753982543945
 33
150.0
  0
3DFACE
  8
0
 10
30.653169631958008
 20
60.08302307128906
 30
150.0
 11
30.564382553100586
 21
60.05153274536133
 31
150.0
 12
29.847576141357422
 22
59.77898406982422
 32
150.0
 13
29.847576141357422
 23
59.77898406982422
 33
150.0
  0
3DFACE
  8
0
 10
31.8499755859375
 20
60.272125244140625
 30
150.0
 11
31.451377868652344
 21
60.23661422729492
 31
150.0
 12
30.726879119873047
 22
60.09558868408203
 32
150.0
 13
30.726879119873047
 23
60.09558868408203
 33
150.0
  0
3DFACE
  8
0
 10
30.726879119873047
 20
60.09558868408203
 30
150.0
 11
30.653169631958008
 21
60.08302307128906
 31
150.0
 12
29.847576141357422
 22
59.77898406982422
 32
150.0
 13
29.847576141357422
 23
59.77898406982422
 33
150.0
  0
3DFACE
  8
0
 10
29.847576141357422
 20
59.77898406982422
 30
150.0
 11
28.40402603149414
 21
58.92753982543945
 31
150.0
 12
26.74559211730957
 22
56.90080261230469
 32
150.0
 13
26.74559211730957
 23
56.90080261230469
 33
150.0
  0
3DFACE
  8
0
 10
26.74559211730957
 20
56.90080261230469
 30
150.0
 11
25.879417419433594
 21
53.75225830078125
 31
150.0
 12
26.903053283691406
 22
49.55653762817383
 32
150.0
 13
26.903053283691406
 23
49.55653762817383
 33
150.0
  0
3DFACE
  8
0
 10
26.903053283691406
 20
49.55653762817383
 30
150.0
 11
30.99458122253418
 21
46.86140060424805
 31
150.0
 12
32.67530822753906
 22
47.2411994934082
 32
150.0
 13
32.67530822753906
 23
47.2411994934082
 33
150.0
  0
3DFACE
  8
0
 10
32.67530822753906
 20
47.2411994934082
 30
150.0
 11
34.17227554321289
 21
47.999794006347656
 31
150.0
 12
35.02020263671875
 22
48.8012580871582
 32
150.0
 13
35.02020263671875
 23
48.8012580871582
 33
150.0
  0
3DFACE
  8
0
 10
35.02020263671875
 20
48.8012580871582
 30
150.0
 11
35.88157653808594
 21
49.811981201171875
 31
150.0
 12
35.90016174316406
 22
49.84104537963867
 32
150.0
 13
35.90016174316406
 23
49.84104537963867
 33
150.0
  0
3DFACE
  8
0
 10
35.90016174316406
 20
49.84104537963867
 30
150.0
 11
36.30271530151367
 21
50.60370635986328
 31
150.0
 12
36.46173858642578
 22
50.98808670043945
 32
150.0
 13
36.46173858642578
 23
50.98808670043945
 33
150.0
  0
3DFACE
  8
0
 10
36.46173858642578
 20
50.98808670043945
 30
150.0
 11
36.6585807800293
 21
51.390846252441406
 31
150.0
 12
36.89779281616211
 22
52.09275436401367
 32
150.0
 13
36.89779281616211
 23
52.09275436401367
 33
150.0
  0
3DFACE
  8
0
 10
36.89779281616211
 20
52.09275436401367
 30
150.0
 11
36.92961883544922
 21
52.177978515625
 31
150.0
 12
36.985836029052734
 22
52.403297424316406
 32
150.0
 13
36.985836029052734
 23
52.403297424316406
 33
150.0
  0
3DFACE
  8
0
 10
36.985836029052734
 20
52.403297424316406
 30
150.0
 11
37.08436584472656
 21
52.8492546081543
 31
150.0
 12
37.097591400146484
 22
52.965118408203125
 32
150.0
 13
37.097591400146484
 23
52.965118408203125
 33
150.0
  0
3DFACE
  8
0
 10
37.10842514038086
 20
53.14900588989258
 30
150.0
 11
37.193450927734375
 21
53.74104690551758
 31
150.0
 12
37.19562530517578
 22
54.152549743652344
 32
150.0
 13
37.19562530517578
 23
54.152549743652344
 33
150.0
  0
3DFACE
  8
0
 10
36.985836029052734
 20
52.403297424316406
 30
150.0
 11
37.097591400146484
 21
52.965118408203125
 31
150.0
 12
37.10842514038086
 22
53.14900588989258
 32
150.0
 13
37.10842514038086
 23
53.14900588989258
 33
150.0
  0
3DFACE
  8
0
 10
36.46173858642578
 20
50.98808670043945
 30
150.0
 11
36.89779281616211
 21
52.09275436401367
 31
150.0
 12
36.985836029052734
 22
52.403297424316406
 32
150.0
 13
36.985836029052734
 23
52.403297424316406
 33
150.0
  0
3DFACE
  8
0
 10
35.02020263671875
 20
48.8012580871582
 30
150.0
 11
35.90016174316406
 21
49.84104537963867
 31
150.0
 12
36.46173858642578
 22
50.98808670043945
 32
150.0
 13
36.46173858642578
 23
50.98808670043945
 33
150.0
  0
3DFACE
  8
0
 10
26.903053283691406
 20
49.55653762817383
 30
150.0
 11
32.67530822753906
 21
47.2411994934082
 31
150.0
 12
35.02020263671875
 22
48.8012580871582
 32
150.0
 13
35.02020263671875
 23
48.8012580871582
 33
150.0
  0
3DFACE
  8
0
 10
29.847576141357422
 20
59.77898406982422
 30
150.0
 11
26.74559211730957
 21
56.90080261230469
 31
150.0
 12
26.903053283691406
 22
49.55653762817383
 32
150.0
 13
26.903053283691406
 23
49.55653762817383
 33
150.0
  0
3DFACE
  8
0
 10
31.8499755859375
 20
60.272125244140625
 30
150.0
 11
30.726879119873047
 21
60.09558868408203
 31
150.0
 12
29.847576141357422
 22
59.77898406982422
 32
150.0
 13
29.847576141357422
 23
59.77898406982422
 33
150.0
  0
3DFACE
  8
0
 10
32.90451431274414
 20
60.16307830810547
 30
150.0
 11
32.244266510009766
 21
60.28187561035156
 31
150.0
 12
31.8499755859375
 22
60.272125244140625
 32
150.0
 13
31.8499755859375
 23
60.272125244140625
 33
150.0
  0
3DFACE
  8
0
 10
33.13706970214844
 20
60.126312255859375
 30
150.0
 11
33.0286750793457
 21
60.15446472167969
 31
150.0
 12
32.90451431274414
 22
60.16307830810547
 32
150.0
 13
32.90451431274414
 23
60.16307830810547
 33
150.0
  0
3DFACE
  8
0
 10
34.02116775512695
 20
59.7987060546875
 30
150.0
 11
33.80843734741211
 21
59.93217849731445
 31
150.0
 12
33.13706970214844
 22
60.126312255859375
 32
150.0
 13
33.13706970214844
 23
60.126312255859375
 33
150.0
  0
3DFACE
  8
0
 10
34.8379020690918
 20
59.25286102294922
 30
150.0
 11
34.57661819458008
 21
59.4739875793457
 31
150.0
 12
34.02116775512695
 22
59.7987060546875
 32
150.0
 13
34.02116775512695
 23
59.7987060546875
 33
150.0
  0
3DFACE
  8
0
 10
35.65803909301758
 20
58.4617805480957
 30
150.0
 11
35.33457946777344
 21
58.80793380737305
 31
150.0
 12
34.8379020690918
 22
59.25286102294922
 32
150.0
 13
34.8379020690918
 23
59.25286102294922
 33
150.0
  0
3DFACE
  8
0
 10
36.1898193359375
 20
57.687950134277344
 30
150.0
 11
36.07940673828125
 21
57.8742561340332
 31
150.0
 12
35.65803909301758
 22
58.4617805480957
 32
150.0
 13
35.65803909301758
 23
58.4617805480957
 33
150.0
  0
3DFACE
  8
0
 10
36.90996170043945
 20
56.24541091918945
 30
150.0
 11
36.67070770263672
 21
56.80295944213867
 31
150.0
 12
36.40443801879883
 22
57.28158950805664
 32
150.0
 13
36.40443801879883
 23
57.28158950805664
 33
150.0
  0
3DFACE
  8
0
 10
36.40443801879883
 20
57.28158950805664
 30
150.0
 11
36.1898193359375
 21
57.687950134277344
 31
150.0
 12
35.65803909301758
 22
58.4617805480957
 32
150.0
 13
35.65803909301758
 23
58.4617805480957
 33
150.0
  0
3DFACE
  8
0
 10
35.65803909301758
 20
58.4617805480957
 30
150.0
 11
34.8379020690918
 21
59.25286102294922
 31
150.0
 12
34.02116775512695
 22
59.7987060546875
 32
150.0
 13
34.02116775512695
 23
59.7987060546875
 33
150.0
  0
3DFACE
  8
0
 10
34.02116775512695
 20
59.7987060546875
 30
150.0
 11
33.13706970214844
 21
60.126312255859375
 31
150.0
 12
32.90451431274414
 22
60.16307830810547
 32
150.0
 13
32.90451431274414
 23
60.16307830810547
 33
150.0
  0
3DFACE
  8
0
 10
32.90451431274414
 20
60.16307830810547
 30
150.0
 11
31.8499755859375
 21
60.272125244140625
 31
150.0
 12
29.847576141357422
 22
59.77898406982422
 32
150.0
 13
29.847576141357422
 23
59.77898406982422
 33
150.0
  0
3DFACE
  8
0
 10
29.847576141357422
 20
59.77898406982422
 30
150.0
 11
26.903053283691406
 21
49.55653762817383
 31
150.0
 12
35.02020263671875
 22
48.8012580871582
 32
150.0
 13
35.02020263671875
 23
48.8012580871582
 33
150.0
  0
3DFACE
  8
0
 10
35.02020263671875
 20
48.8012580871582
 30
150.0
 11
36.46173858642578
 21
50.98808670043945
 31
150.0
 12
36.985836029052734
 22
52.403297424316406
 32
150.0
 13
36.985836029052734
 23
52.403297424316406
 33
150.0
  0
3DFACE
  8
0
 10
36.985836029052734
 20
52.403297424316406
 30
150.0
 11
37.10842514038086
 21
53.14900588989258
 31
150.0
 12
37.19562530517578
 22
54.152549743652344
 32
150.0
 13
37.19562530517578
 23
54.152549743652344
 33
150.0
  0
3DFACE
  8
0
 10
37.19562530517578
 20
54.152549743652344
 30
150.0
 11
37.224693298339844
 21
54.53939437866211
 31
150.0
 12
37.16608810424805
 22
55.0574836730957
 32
150.0
 13
37.16608810424805
 23
55.0574836730957
 33
150.0
  0
3DFACE
  8
0
 10
37.16608810424805
 20
55.0574836730957
 30
150.0
 11
37.141395568847656
 21
55.326534271240234
 31
150.0
 12
36.96164321899414
 22
56.08791732788086
 32
150.0
 13
36.96164321899414
 23
56.08791732788086
 33
150.0
  0
3DFACE
  8
0
 10
36.96164321899414
 20
56.08791732788086
 30
150.0
 11
36.95854568481445
 21
56.11367416381836
 31
150.0
 12
36.90996170043945
 22
56.24541091918945
 32
150.0
 13
36.90996170043945
 23
56.24541091918945
 33
150.0
  0
3DFACE
  8
0
 10
36.90996170043945
 20
56.24541091918945
 30
150.0
 11
36.40443801879883
 21
57.28158950805664
 31
150.0
 12
35.65803909301758
 22
58.4617805480957
 32
150.0
 13
35.65803909301758
 23
58.4617805480957
 33
150.0
  0
3DFACE
  8
0
 10
35.65803909301758
 20
58.4617805480957
 30
150.0
 11
34.02116775512695
 21
59.7987060546875
 31
150.0
 12
32.90451431274414
 22
60.16307830810547
 32
150.0
 13
32.90451431274414
 23
60.16307830810547
 33
150.0
  0
3DFACE
  8
0
 10
32.90451431274414
 20
60.16307830810547
 30
150.0
 11
29.847576141357422
 21
59.77898406982422
 31
150.0
 12
35.02020263671875
 22
48.8012580871582
 32
150.0
 13
35.02020263671875
 23
48.8012580871582
 33
150.0
  0
3DFACE
  8
0
 10
35.02020263671875
 20
48.8012580871582
 30
150.0
 11
36.985836029052734
 21
52.403297424316406
 31
150.0
 12
37.19562530517578
 22
54.152549743652344
 32
150.0
 13
37.19562530517578
 23
54.152549743652344
 33
150.0
  0
3DFACE
  8
0
 10
37.19562530517578
 20
54.152549743652344
 30
150.0
 11
37.16608810424805
 21
55.0574836730957
 31
150.0
 12
36.96164321899414
 22
56.08791732788086
 32
150.0
 13
36.96164321899414
 23
56.08791732788086
 33
150.0
  0
3DFACE
  8
0
 10
36.96164321899414
 20
56.08791732788086
 30
150.0
 11
36.90996170043945
 21
56.24541091918945
 31
150.0
 12
35.65803909301758
 22
58.4617805480957
 32
150.0
 13
35.65803909301758
 23
58.4617805480957
 33
150.0
  0
3DFACE
  8
0
 10
35.65803909301758
 20
58.4617805480957
 30
150.0
 11
32.90451431274414
 21
60.16307830810547
 31
150.0
 12
35.02020263671875
 22
48.8012580871582
 32
150.0
 13
35.02020263671875
 23
48.8012580871582
 33
150.0
  0
3DFACE
  8
0
 10
35.02020263671875
 20
48.8012580871582
 30
150.0
 11
37.19562530517578
 21
54.152549743652344
 31
150.0
 12
36.96164321899414
 22
56.08791732788086
 32
150.0
 13
36.96164321899414
 23
56.08791732788086
 33
150.0
  0
3DFACE
  8
0
 10
35.02020263671875
 20
48.8012580871582
 30
150.0
 11
36.96164321899414
 21
56.08791732788086
 31
150.0
 12
35.65803909301758
 22
58.4617805480957
 32
150.0
 13
35.65803909301758
 23
58.4617805480957
 33
150.0
  0
ENDSEC
  0
EOF
