  0
SECTION
  2
HEADER
  9
$ACADVER
  1
AC1009
  9
$INSBASE
 10
0.0
 20
0.0
 30
0.0
  9
$EXTMIN
 10
0.0
 20
0.0
 30
0.0
  9
$EXTMAX
 10
0.0
 20
0.0
 30
0.0
  0
ENDSEC
  0
SECTION
  2
TABLES
  0
TABLE
  2
VPORT
 70
1
  0
VPORT
  2
*ACTIVE
 70
0
 10
0.0
 20
0.0
 11
1.0
 21
1.0
 12
-5.0
 22
1.0
 13
0.0
 23
0.0
 14
0.1
 24
0.1
 15
0.1
 25
0.1
 16
0.0
 26
0.0
 36
1.0
 17
0.0
 27
0.0
 37
0.0
 40
10.0
 41
1.0
 42
50.0
 43
0.0
 44
0.0
 50
0.0
 51
0.0
 71
0
 72
100
 73
1
 74
1
 75
0
 76
0
 77
0
 78
0
  0
ENDTAB
  0
TABLE
  2
LTYPE
 70
8
  0
LTYPE
  2
CONTINUOUS
 70
0
  3
Solid line
 72
65
 73
0
 40
0.0
  0
LTYPE
  2
DOT
 70
0
  3
. . . . . . .
 72
65
 73
2
 40
0.25
 49
0.0
 49
-0.25
  0
LTYPE
  2
DASHED
 70
0
  3
__ __ __ __ __
 72
65
 73
2
 40
0.8
 49
0.5
 49
-0.3
  0
LTYPE
  2
DASHDOT
 70
0
  3
__ . __ . __ .
 72
65
 73
4
 40
1.0
 49
0.5
 49
-0.25
 49
0.0
 49
-0.25
  0
LTYPE
  2
DIVIDE
 70
0
  3
____ . . ____ . . 
 72
65
 73
6
 40
1.25
 49
0.5
 49
-0.25
 49
0.0
 49
-0.25
 49
0.0
 49
-0.25
  0
LTYPE
  2
BORDER
 70
0
  3
__ __ . __ __ . 
 72
65
 73
6
 40
1.75
 49
0.5
 49
-0.25
 49
0.5
 49
-0.25
 49
0.0
 49
-0.25
  0
LTYPE
  2
HIDDEN
 70
0
  3
__ __ __ __ __
 72
65
 73
2
 40
0.4
 49
0.25
 49
-0.25
  0
LTYPE
  2
CENTER
 70
0
  3
____ _ ____ _ __
 72
65
 73
4
 40
2.0
 49
1.25
 49
-0.25
 49
0.25
 49
-0.25
  0
ENDTAB
  0
TABLE
  2
LAYER
 70
1
  0
LAYER
  2
PYDXF
 70
64
 62
7
  6
continuous
  0
ENDTAB
  0
TABLE
  2
STYLE
 70
1
  0
STYLE
  2
STANDARD
 70
0
 40
0
 41
1.0
 50
0.0
 71
0
 42
1
 3
ARIAL.TTF
 4

  0
ENDTAB
  0
TABLE
  2
VIEW
 70
1
  0
VIEW
  2
BF_TOPVIEW
 70
0
 40
120.0
 10
0.0
 20
0.0
 41
200.0
 11
0.0
 21
0.0
 31
1.0
 12
0.0
 22
0.0
 32
0.0
 42
50.0
 43
0.0
 44
0.0
 50
0.0
 71
0
  0
ENDTAB
  0
ENDSEC
  0
SECTION
  2
BLOCKS
  0
ENDSEC
  0
SECTION
  2
ENTITIES
  0
3DFACE
  8
0
 10
-17.870513916015625
 20
-42.05466842651367
 30
152.0
 11
-17.989830017089844
 21
-42.06399154663086
 31
152.0
 12
-18.109140396118164
 22
-42.10200119018555
 32
152.0
 13
-18.109140396118164
 23
-42.10200119018555
 33
152.0
  0
3DFACE
  8
0
 10
-17.870513916015625
 20
-42.05466842651367
 30
152.0
 11
-18.109140396118164
 21
-42.10200119018555
 31
152.0
 12
-18.228450775146484
 22
-42.14569091796875
 32
152.0
 13
-18.228450775146484
 23
-42.14569091796875
 33
152.0
  0
3DFACE
  8
0
 10
-16.827959060668945
 20
-42.04216003417969
 30
152.0
 11
-17.326637268066406
 21
-41.973602294921875
 31
152.0
 12
-17.870513916015625
 22
-42.05466842651367
 32
152.0
 13
-17.870513916015625
 23
-42.05466842651367
 33
152.0
  0
3DFACE
  8
0
 10
-16.260305404663086
 20
-42.1436767578125
 30
152.0
 11
-16.544132232666016
 21
-42.0360221862793
 31
152.0
 12
-16.827959060668945
 22
-42.04216003417969
 32
152.0
 13
-16.827959060668945
 23
-42.04216003417969
 33
152.0
  0
3DFACE
  8
0
 10
-15.523002624511719
 20
-42.62024688720703
 30
152.0
 11
-15.761629104614258
 21
-42.42250442504883
 31
152.0
 12
-15.999910354614258
 22
-42.29282760620117
 32
152.0
 13
-15.999910354614258
 23
-42.29282760620117
 33
152.0
  0
3DFACE
  8
0
 10
-15.999910354614258
 20
-42.29282760620117
 30
152.0
 11
-16.260305404663086
 21
-42.1436767578125
 31
152.0
 12
-16.827959060668945
 22
-42.04216003417969
 32
152.0
 13
-16.827959060668945
 23
-42.04216003417969
 33
152.0
  0
3DFACE
  8
0
 10
-16.827959060668945
 20
-42.04216003417969
 30
152.0
 11
-17.870513916015625
 21
-42.05466842651367
 31
152.0
 12
-18.228450775146484
 22
-42.14569091796875
 32
152.0
 13
-18.228450775146484
 23
-42.14569091796875
 33
152.0
  0
3DFACE
  8
0
 10
-18.347766876220703
 20
-42.187015533447266
 30
152.0
 11
-18.89164161682129
 21
-42.33344268798828
 31
152.0
 12
-19.130268096923828
 22
-42.44367980957031
 32
152.0
 13
-19.130268096923828
 23
-42.44367980957031
 33
152.0
  0
3DFACE
  8
0
 10
-16.827959060668945
 20
-42.04216003417969
 30
152.0
 11
-18.228450775146484
 21
-42.14569091796875
 31
152.0
 12
-18.347766876220703
 22
-42.187015533447266
 32
152.0
 13
-18.347766876220703
 23
-42.187015533447266
 33
152.0
  0
3DFACE
  8
0
 10
-15.523002624511719
 20
-42.62024688720703
 30
152.0
 11
-15.999910354614258
 21
-42.29282760620117
 31
152.0
 12
-16.827959060668945
 22
-42.04216003417969
 32
152.0
 13
-16.827959060668945
 23
-42.04216003417969
 33
152.0
  0
3DFACE
  8
0
 10
-14.9791259765625
 20
-43.154441833496094
 30
152.0
 11
-15.020917892456055
 21
-43.09074783325195
 31
152.0
 12
-15.116976737976074
 22
-43.00846481323242
 32
152.0
 13
-15.116976737976074
 23
-43.00846481323242
 33
152.0
  0
3DFACE
  8
0
 10
-15.116976737976074
 20
-43.00846481323242
 30
152.0
 11
-15.523002624511719
 21
-42.62024688720703
 31
152.0
 12
-16.827959060668945
 22
-42.04216003417969
 32
152.0
 13
-16.827959060668945
 23
-42.04216003417969
 33
152.0
  0
3DFACE
  8
0
 10
-16.827959060668945
 20
-42.04216003417969
 30
152.0
 11
-18.347766876220703
 21
-42.187015533447266
 31
152.0
 12
-19.130268096923828
 22
-42.44367980957031
 32
152.0
 13
-19.130268096923828
 23
-42.44367980957031
 33
152.0
  0
3DFACE
  8
0
 10
-19.130268096923828
 20
-42.44367980957031
 30
152.0
 11
-19.674144744873047
 21
-42.66708755493164
 31
152.0
 12
-19.912771224975586
 22
-42.777530670166016
 32
152.0
 13
-19.912771224975586
 23
-42.777530670166016
 33
152.0
  0
3DFACE
  8
0
 10
-19.912771224975586
 20
-42.777530670166016
 30
152.0
 11
-20.45825958251953
 21
-43.00627517700195
 31
152.0
 12
-20.57638931274414
 22
-43.08905029296875
 32
152.0
 13
-20.57638931274414
 23
-43.08905029296875
 33
152.0
  0
3DFACE
  8
0
 10
-20.57638931274414
 20
-43.08905029296875
 30
152.0
 11
-21.11779022216797
 21
-43.420162200927734
 31
152.0
 12
-21.23914909362793
 22
-43.51585006713867
 32
152.0
 13
-21.23914909362793
 23
-43.51585006713867
 33
152.0
  0
3DFACE
  8
0
 10
-21.408100128173828
 20
-43.65878677368164
 30
152.0
 11
-21.70304298400879
 21
-43.87324142456055
 31
152.0
 12
-21.951976776123047
 22
-44.06546401977539
 32
152.0
 13
-21.951976776123047
 23
-44.06546401977539
 33
152.0
  0
3DFACE
  8
0
 10
-20.57638931274414
 20
-43.08905029296875
 30
152.0
 11
-21.23914909362793
 21
-43.51585006713867
 31
152.0
 12
-21.408100128173828
 22
-43.65878677368164
 32
152.0
 13
-21.408100128173828
 23
-43.65878677368164
 33
152.0
  0
3DFACE
  8
0
 10
-19.130268096923828
 20
-42.44367980957031
 30
152.0
 11
-19.912771224975586
 21
-42.777530670166016
 31
152.0
 12
-20.57638931274414
 22
-43.08905029296875
 32
152.0
 13
-20.57638931274414
 23
-43.08905029296875
 33
152.0
  0
3DFACE
  8
0
 10
-15.116976737976074
 20
-43.00846481323242
 30
152.0
 11
-16.827959060668945
 21
-42.04216003417969
 31
152.0
 12
-19.130268096923828
 22
-42.44367980957031
 32
152.0
 13
-19.130268096923828
 23
-42.44367980957031
 33
152.0
  0
3DFACE
  8
0
 10
-14.716769218444824
 20
-43.63461685180664
 30
152.0
 11
-14.9791259765625
 21
-43.154441833496094
 31
152.0
 12
-15.116976737976074
 22
-43.00846481323242
 32
152.0
 13
-15.116976737976074
 23
-43.00846481323242
 33
152.0
  0
3DFACE
  8
0
 10
-14.280932426452637
 20
-44.6557502746582
 30
152.0
 11
-14.375574111938477
 21
-44.41712188720703
 31
152.0
 12
-14.6338529586792
 22
-43.87324142456055
 32
152.0
 13
-14.6338529586792
 23
-43.87324142456055
 33
152.0
  0
3DFACE
  8
0
 10
-14.6338529586792
 20
-43.87324142456055
 30
152.0
 11
-14.716769218444824
 21
-43.63461685180664
 31
152.0
 12
-15.116976737976074
 22
-43.00846481323242
 32
152.0
 13
-15.116976737976074
 23
-43.00846481323242
 33
152.0
  0
3DFACE
  8
0
 10
-15.116976737976074
 20
-43.00846481323242
 30
152.0
 11
-19.130268096923828
 21
-42.44367980957031
 31
152.0
 12
-20.57638931274414
 22
-43.08905029296875
 32
152.0
 13
-20.57638931274414
 23
-43.08905029296875
 33
152.0
  0
3DFACE
  8
0
 10
-20.57638931274414
 20
-43.08905029296875
 30
152.0
 11
-21.408100128173828
 21
-43.65878677368164
 31
152.0
 12
-21.951976776123047
 22
-44.06546401977539
 32
152.0
 13
-21.951976776123047
 23
-44.06546401977539
 33
152.0
  0
3DFACE
  8
0
 10
-21.951976776123047
 20
-44.06546401977539
 30
152.0
 11
-22.02165412902832
 21
-44.13685989379883
 31
152.0
 12
-22.17799949645996
 22
-44.30409240722656
 32
152.0
 13
-22.17799949645996
 23
-44.30409240722656
 33
152.0
  0
3DFACE
  8
0
 10
-22.17799949645996
 20
-44.30409240722656
 30
152.0
 11
-22.599132537841797
 21
-44.6557502746582
 31
152.0
 12
-22.721874237060547
 22
-44.7952880859375
 32
152.0
 13
-22.721874237060547
 23
-44.7952880859375
 33
152.0
  0
3DFACE
  8
0
 10
-22.8840274810791
 20
-45.033912658691406
 30
152.0
 11
-23.214208602905273
 21
-45.43825149536133
 31
152.0
 12
-23.357946395874023
 22
-45.6768798828125
 32
152.0
 13
-23.357946395874023
 23
-45.6768798828125
 33
152.0
  0
3DFACE
  8
0
 10
-22.17799949645996
 20
-44.30409240722656
 30
152.0
 11
-22.721874237060547
 21
-44.7952880859375
 31
152.0
 12
-22.8840274810791
 22
-45.033912658691406
 32
152.0
 13
-22.8840274810791
 23
-45.033912658691406
 33
152.0
  0
3DFACE
  8
0
 10
-20.57638931274414
 20
-43.08905029296875
 30
152.0
 11
-21.951976776123047
 21
-44.06546401977539
 31
152.0
 12
-22.17799949645996
 22
-44.30409240722656
 32
152.0
 13
-22.17799949645996
 23
-44.30409240722656
 33
152.0
  0
3DFACE
  8
0
 10
-14.6338529586792
 20
-43.87324142456055
 30
152.0
 11
-15.116976737976074
 21
-43.00846481323242
 31
152.0
 12
-20.57638931274414
 22
-43.08905029296875
 32
152.0
 13
-20.57638931274414
 23
-43.08905029296875
 33
152.0
  0
3DFACE
  8
0
 10
-14.112516403198242
 20
-45.19962692260742
 30
152.0
 11
-14.280932426452637
 21
-44.6557502746582
 31
152.0
 12
-14.6338529586792
 22
-43.87324142456055
 32
152.0
 13
-14.6338529586792
 23
-43.87324142456055
 33
152.0
  0
3DFACE
  8
0
 10
-14.063557624816895
 20
-45.6768798828125
 30
152.0
 11
-14.069740295410156
 21
-45.43825149536133
 31
152.0
 12
-14.112516403198242
 22
-45.19962692260742
 32
152.0
 13
-14.112516403198242
 23
-45.19962692260742
 33
152.0
  0
3DFACE
  8
0
 10
-14.01363468170166
 20
-46.45938491821289
 30
152.0
 11
-13.975752830505371
 21
-46.220760345458984
 31
152.0
 12
-14.063557624816895
 22
-45.6768798828125
 32
152.0
 13
-14.063557624816895
 23
-45.6768798828125
 33
152.0
  0
3DFACE
  8
0
 10
-14.071379661560059
 20
-47.54713821411133
 30
152.0
 11
-13.987578392028809
 21
-47.00326156616211
 31
152.0
 12
-14.01363468170166
 22
-46.45938491821289
 32
152.0
 13
-14.01363468170166
 23
-46.45938491821289
 33
152.0
  0
3DFACE
  8
0
 10
-14.371196746826172
 20
-48.56826400756836
 30
152.0
 11
-14.269124984741211
 21
-48.30948257446289
 31
152.0
 12
-14.071379661560059
 22
-47.54713821411133
 32
152.0
 13
-14.071379661560059
 23
-47.54713821411133
 33
152.0
  0
3DFACE
  8
0
 10
-14.963507652282715
 20
-49.92509078979492
 30
152.0
 11
-14.698257446289062
 21
-49.3590202331543
 31
152.0
 12
-14.486050605773926
 22
-48.807403564453125
 32
152.0
 13
-14.486050605773926
 23
-48.807403564453125
 33
152.0
  0
3DFACE
  8
0
 10
-14.486050605773926
 20
-48.807403564453125
 30
152.0
 11
-14.371196746826172
 21
-48.56826400756836
 31
152.0
 12
-14.071379661560059
 22
-47.54713821411133
 32
152.0
 13
-14.071379661560059
 23
-47.54713821411133
 33
152.0
  0
3DFACE
  8
0
 10
-14.071379661560059
 20
-47.54713821411133
 30
152.0
 11
-14.01363468170166
 21
-46.45938491821289
 31
152.0
 12
-14.063557624816895
 22
-45.6768798828125
 32
152.0
 13
-14.063557624816895
 23
-45.6768798828125
 33
152.0
  0
3DFACE
  8
0
 10
-14.063557624816895
 20
-45.6768798828125
 30
152.0
 11
-14.112516403198242
 21
-45.19962692260742
 31
152.0
 12
-14.6338529586792
 22
-43.87324142456055
 32
152.0
 13
-14.6338529586792
 23
-43.87324142456055
 33
152.0
  0
3DFACE
  8
0
 10
-14.6338529586792
 20
-43.87324142456055
 30
152.0
 11
-20.57638931274414
 21
-43.08905029296875
 31
152.0
 12
-22.17799949645996
 22
-44.30409240722656
 32
152.0
 13
-22.17799949645996
 23
-44.30409240722656
 33
152.0
  0
3DFACE
  8
0
 10
-22.17799949645996
 20
-44.30409240722656
 30
152.0
 11
-22.8840274810791
 21
-45.033912658691406
 31
152.0
 12
-23.357946395874023
 22
-45.6768798828125
 32
152.0
 13
-23.357946395874023
 23
-45.6768798828125
 33
152.0
  0
3DFACE
  8
0
 10
-23.357946395874023
 20
-45.6768798828125
 30
152.0
 11
-23.724178314208984
 21
-46.220760345458984
 31
152.0
 12
-23.814828872680664
 22
-46.45938491821289
 32
152.0
 13
-23.814828872680664
 23
-46.45938491821289
 33
152.0
  0
3DFACE
  8
0
 10
-23.814828872680664
 20
-46.45938491821289
 30
152.0
 11
-24.0875301361084
 21
-47.00326156616211
 31
152.0
 12
-24.16910743713379
 22
-47.241886138916016
 32
152.0
 13
-24.16910743713379
 23
-47.241886138916016
 33
152.0
  0
3DFACE
  8
0
 10
-24.16910743713379
 20
-47.241886138916016
 30
152.0
 11
-24.327150344848633
 21
-47.59315490722656
 31
152.0
 12
-24.4072265625
 22
-47.785762786865234
 32
152.0
 13
-24.4072265625
 23
-47.785762786865234
 33
152.0
  0
3DFACE
  8
0
 10
-24.4072265625
 20
-47.785762786865234
 30
152.0
 11
-24.463098526000977
 21
-47.978370666503906
 31
152.0
 12
-24.603971481323242
 22
-48.56826400756836
 32
152.0
 13
-24.603971481323242
 23
-48.56826400756836
 33
152.0
  0
3DFACE
  8
0
 10
-24.603971481323242
 20
-48.56826400756836
 30
152.0
 11
-24.69646453857422
 21
-49.04972839355469
 31
152.0
 12
-24.71240234375
 22
-49.350772857666016
 32
152.0
 13
-24.71240234375
 23
-49.350772857666016
 33
152.0
  0
3DFACE
  8
0
 10
-24.71240234375
 20
-49.350772857666016
 30
152.0
 11
-24.666784286499023
 21
-49.87899398803711
 31
152.0
 12
-24.620803833007812
 22
-50.13326644897461
 32
152.0
 13
-24.620803833007812
 23
-50.13326644897461
 33
152.0
  0
3DFACE
  8
0
 10
-24.620803833007812
 20
-50.13326644897461
 30
152.0
 11
-24.56037139892578
 21
-50.55730056762695
 31
152.0
 12
-24.467288970947266
 22
-50.915775299072266
 32
152.0
 13
-24.467288970947266
 23
-50.915775299072266
 33
152.0
  0
3DFACE
  8
0
 10
-24.467288970947266
 20
-50.915775299072266
 30
152.0
 11
-24.37217903137207
 21
-51.1523551940918
 31
152.0
 12
-24.085248947143555
 22
-51.71470642089844
 32
152.0
 13
-24.085248947143555
 23
-51.71470642089844
 33
152.0
  0
3DFACE
  8
0
 10
-23.75967025756836
 20
-52.31571578979492
 30
152.0
 11
-23.686115264892578
 21
-52.480777740478516
 31
152.0
 12
-23.58665657043457
 22
-52.60828399658203
 32
152.0
 13
-23.58665657043457
 23
-52.60828399658203
 33
152.0
  0
3DFACE
  8
0
 10
-24.467288970947266
 20
-50.915775299072266
 30
152.0
 11
-24.085248947143555
 21
-51.71470642089844
 31
152.0
 12
-23.75967025756836
 22
-52.31571578979492
 32
152.0
 13
-23.75967025756836
 23
-52.31571578979492
 33
152.0
  0
3DFACE
  8
0
 10
-24.71240234375
 20
-49.350772857666016
 30
152.0
 11
-24.620803833007812
 21
-50.13326644897461
 31
152.0
 12
-24.467288970947266
 22
-50.915775299072266
 32
152.0
 13
-24.467288970947266
 23
-50.915775299072266
 33
152.0
  0
3DFACE
  8
0
 10
-24.4072265625
 20
-47.785762786865234
 30
152.0
 11
-24.603971481323242
 21
-48.56826400756836
 31
152.0
 12
-24.71240234375
 22
-49.350772857666016
 32
152.0
 13
-24.71240234375
 23
-49.350772857666016
 33
152.0
  0
3DFACE
  8
0
 10
-23.814828872680664
 20
-46.45938491821289
 30
152.0
 11
-24.16910743713379
 21
-47.241886138916016
 31
152.0
 12
-24.4072265625
 22
-47.785762786865234
 32
152.0
 13
-24.4072265625
 23
-47.785762786865234
 33
152.0
  0
3DFACE
  8
0
 10
-22.17799949645996
 20
-44.30409240722656
 30
152.0
 11
-23.357946395874023
 21
-45.6768798828125
 31
152.0
 12
-23.814828872680664
 22
-46.45938491821289
 32
152.0
 13
-23.814828872680664
 23
-46.45938491821289
 33
152.0
  0
3DFACE
  8
0
 10
-14.063557624816895
 20
-45.6768798828125
 30
152.0
 11
-14.6338529586792
 21
-43.87324142456055
 31
152.0
 12
-22.17799949645996
 22
-44.30409240722656
 32
152.0
 13
-22.17799949645996
 23
-44.30409240722656
 33
152.0
  0
3DFACE
  8
0
 10
-14.486050605773926
 20
-48.807403564453125
 30
152.0
 11
-14.071379661560059
 21
-47.54713821411133
 31
152.0
 12
-14.063557624816895
 22
-45.6768798828125
 32
152.0
 13
-14.063557624816895
 23
-45.6768798828125
 33
152.0
  0
3DFACE
  8
0
 10
-15.098483085632324
 20
-50.1401481628418
 30
152.0
 11
-14.963507652282715
 21
-49.92509078979492
 31
152.0
 12
-14.486050605773926
 22
-48.807403564453125
 32
152.0
 13
-14.486050605773926
 23
-48.807403564453125
 33
152.0
  0
3DFACE
  8
0
 10
-15.512795448303223
 20
-50.825069427490234
 30
152.0
 11
-15.405163764953613
 21
-50.677146911621094
 31
152.0
 12
-15.098483085632324
 22
-50.1401481628418
 32
152.0
 13
-15.098483085632324
 23
-50.1401481628418
 33
152.0
  0
3DFACE
  8
0
 10
-16.013633728027344
 20
-51.45965576171875
 30
152.0
 11
-15.761629104614258
 21
-51.18972396850586
 31
152.0
 12
-15.512795448303223
 22
-50.825069427490234
 32
152.0
 13
-15.512795448303223
 23
-50.825069427490234
 33
152.0
  0
3DFACE
  8
0
 10
-16.809436798095703
 20
-52.183780670166016
 30
152.0
 11
-16.544132232666016
 21
-51.9841423034668
 31
152.0
 12
-16.16819190979004
 22
-51.59543991088867
 32
152.0
 13
-16.16819190979004
 23
-51.59543991088867
 33
152.0
  0
3DFACE
  8
0
 10
-16.16819190979004
 20
-51.59543991088867
 30
152.0
 11
-16.013633728027344
 21
-51.45965576171875
 31
152.0
 12
-15.512795448303223
 22
-50.825069427490234
 32
152.0
 13
-15.512795448303223
 23
-50.825069427490234
 33
152.0
  0
3DFACE
  8
0
 10
-15.512795448303223
 20
-50.825069427490234
 30
152.0
 11
-15.098483085632324
 21
-50.1401481628418
 31
152.0
 12
-14.486050605773926
 22
-48.807403564453125
 32
152.0
 13
-14.486050605773926
 23
-48.807403564453125
 33
152.0
  0
3DFACE
  8
0
 10
-14.486050605773926
 20
-48.807403564453125
 30
152.0
 11
-14.063557624816895
 21
-45.6768798828125
 31
152.0
 12
-22.17799949645996
 22
-44.30409240722656
 32
152.0
 13
-22.17799949645996
 23
-44.30409240722656
 33
152.0
  0
3DFACE
  8
0
 10
-22.17799949645996
 20
-44.30409240722656
 30
152.0
 11
-23.814828872680664
 21
-46.45938491821289
 31
152.0
 12
-24.4072265625
 22
-47.785762786865234
 32
152.0
 13
-24.4072265625
 23
-47.785762786865234
 33
152.0
  0
3DFACE
  8
0
 10
-24.4072265625
 20
-47.785762786865234
 30
152.0
 11
-24.71240234375
 21
-49.350772857666016
 31
152.0
 12
-24.467288970947266
 22
-50.915775299072266
 32
152.0
 13
-24.467288970947266
 23
-50.915775299072266
 33
152.0
  0
3DFACE
  8
0
 10
-24.467288970947266
 20
-50.915775299072266
 30
152.0
 11
-23.75967025756836
 21
-52.31571578979492
 31
152.0
 12
-23.58665657043457
 22
-52.60828399658203
 32
152.0
 13
-23.58665657043457
 23
-52.60828399658203
 33
152.0
  0
3DFACE
  8
0
 10
-23.58665657043457
 20
-52.60828399658203
 30
152.0
 11
-22.919086456298828
 21
-53.2505989074707
 31
152.0
 12
-22.804155349731445
 22
-53.34809494018555
 32
152.0
 13
-22.804155349731445
 23
-53.34809494018555
 33
152.0
  0
3DFACE
  8
0
 10
-22.674951553344727
 20
-53.39188766479492
 30
152.0
 11
-22.02165412902832
 21
-53.68551254272461
 31
152.0
 12
-21.536243438720703
 22
-53.80222702026367
 32
152.0
 13
-21.536243438720703
 23
-53.80222702026367
 33
152.0
  0
3DFACE
  8
0
 10
-23.58665657043457
 20
-52.60828399658203
 30
152.0
 11
-22.804155349731445
 21
-53.34809494018555
 31
152.0
 12
-22.674951553344727
 22
-53.39188766479492
 32
152.0
 13
-22.674951553344727
 23
-53.39188766479492
 33
152.0
  0
3DFACE
  8
0
 10
-24.4072265625
 20
-47.785762786865234
 30
152.0
 11
-24.467288970947266
 21
-50.915775299072266
 31
152.0
 12
-23.58665657043457
 22
-52.60828399658203
 32
152.0
 13
-23.58665657043457
 23
-52.60828399658203
 33
152.0
  0
3DFACE
  8
0
 10
-14.486050605773926
 20
-48.807403564453125
 30
152.0
 11
-22.17799949645996
 21
-44.30409240722656
 31
152.0
 12
-24.4072265625
 22
-47.785762786865234
 32
152.0
 13
-24.4072265625
 23
-47.785762786865234
 33
152.0
  0
3DFACE
  8
0
 10
-16.16819190979004
 20
-51.59543991088867
 30
152.0
 11
-15.512795448303223
 21
-50.825069427490234
 31
152.0
 12
-14.486050605773926
 22
-48.807403564453125
 32
152.0
 13
-14.486050605773926
 23
-48.807403564453125
 33
152.0
  0
3DFACE
  8
0
 10
-17.19388771057129
 20
-52.4617919921875
 30
152.0
 11
-16.809436798095703
 21
-52.183780670166016
 31
152.0
 12
-16.16819190979004
 22
-51.59543991088867
 32
152.0
 13
-16.16819190979004
 23
-51.59543991088867
 33
152.0
  0
3DFACE
  8
0
 10
-17.495986938476562
 20
-52.663185119628906
 30
152.0
 11
-17.326637268066406
 21
-52.57215118408203
 31
152.0
 12
-17.19388771057129
 22
-52.4617919921875
 32
152.0
 13
-17.19388771057129
 23
-52.4617919921875
 33
152.0
  0
3DFACE
  8
0
 10
-18.5828800201416
 20
-53.26731491088867
 30
152.0
 11
-18.07756996154785
 21
-53.010162353515625
 31
152.0
 12
-17.495986938476562
 22
-52.663185119628906
 32
152.0
 13
-17.495986938476562
 23
-52.663185119628906
 33
152.0
  0
3DFACE
  8
0
 10
-19.298229217529297
 20
-53.569618225097656
 30
152.0
 11
-18.89164161682129
 21
-53.43930435180664
 31
152.0
 12
-18.5828800201416
 22
-53.26731491088867
 32
152.0
 13
-18.5828800201416
 23
-53.26731491088867
 33
152.0
  0
3DFACE
  8
0
 10
-20.22888946533203
 20
-53.81802749633789
 30
152.0
 11
-19.674144744873047
 21
-53.68177795410156
 31
152.0
 12
-19.298229217529297
 22
-53.569618225097656
 32
152.0
 13
-19.298229217529297
 23
-53.569618225097656
 33
152.0
  0
3DFACE
  8
0
 10
-20.61308479309082
 20
-53.83639144897461
 30
152.0
 11
-20.456647872924805
 21
-53.84796905517578
 31
152.0
 12
-20.22888946533203
 22
-53.81802749633789
 32
152.0
 13
-20.22888946533203
 23
-53.81802749633789
 33
152.0
  0
3DFACE
  8
0
 10
-21.536243438720703
 20
-53.80222702026367
 30
152.0
 11
-21.23914909362793
 21
-53.856658935546875
 31
152.0
 12
-20.61308479309082
 22
-53.83639144897461
 32
152.0
 13
-20.61308479309082
 23
-53.83639144897461
 33
152.0
  0
3DFACE
  8
0
 10
-23.58665657043457
 20
-52.60828399658203
 30
152.0
 11
-22.674951553344727
 21
-53.39188766479492
 31
152.0
 12
-21.536243438720703
 22
-53.80222702026367
 32
152.0
 13
-21.536243438720703
 23
-53.80222702026367
 33
152.0
  0
3DFACE
  8
0
 10
-14.486050605773926
 20
-48.807403564453125
 30
152.0
 11
-24.4072265625
 21
-47.785762786865234
 31
152.0
 12
-23.58665657043457
 22
-52.60828399658203
 32
152.0
 13
-23.58665657043457
 23
-52.60828399658203
 33
152.0
  0
3DFACE
  8
0
 10
-17.19388771057129
 20
-52.4617919921875
 30
152.0
 11
-16.16819190979004
 21
-51.59543991088867
 31
152.0
 12
-14.486050605773926
 22
-48.807403564453125
 32
152.0
 13
-14.486050605773926
 23
-48.807403564453125
 33
152.0
  0
3DFACE
  8
0
 10
-18.5828800201416
 20
-53.26731491088867
 30
152.0
 11
-17.495986938476562
 21
-52.663185119628906
 31
152.0
 12
-17.19388771057129
 22
-52.4617919921875
 32
152.0
 13
-17.19388771057129
 23
-52.4617919921875
 33
152.0
  0
3DFACE
  8
0
 10
-20.22888946533203
 20
-53.81802749633789
 30
152.0
 11
-19.298229217529297
 21
-53.569618225097656
 31
152.0
 12
-18.5828800201416
 22
-53.26731491088867
 32
152.0
 13
-18.5828800201416
 23
-53.26731491088867
 33
152.0
  0
3DFACE
  8
0
 10
-21.536243438720703
 20
-53.80222702026367
 30
152.0
 11
-20.61308479309082
 21
-53.83639144897461
 31
152.0
 12
-20.22888946533203
 22
-53.81802749633789
 32
152.0
 13
-20.22888946533203
 23
-53.81802749633789
 33
152.0
  0
3DFACE
  8
0
 10
-14.486050605773926
 20
-48.807403564453125
 30
152.0
 11
-23.58665657043457
 21
-52.60828399658203
 31
152.0
 12
-21.536243438720703
 22
-53.80222702026367
 32
152.0
 13
-21.536243438720703
 23
-53.80222702026367
 33
152.0
  0
3DFACE
  8
0
 10
-18.5828800201416
 20
-53.26731491088867
 30
152.0
 11
-17.19388771057129
 21
-52.4617919921875
 31
152.0
 12
-14.486050605773926
 22
-48.807403564453125
 32
152.0
 13
-14.486050605773926
 23
-48.807403564453125
 33
152.0
  0
3DFACE
  8
0
 10
-21.536243438720703
 20
-53.80222702026367
 30
152.0
 11
-20.22888946533203
 21
-53.81802749633789
 31
152.0
 12
-18.5828800201416
 22
-53.26731491088867
 32
152.0
 13
-18.5828800201416
 23
-53.26731491088867
 33
152.0
  0
3DFACE
  8
0
 10
-21.536243438720703
 20
-53.80222702026367
 30
152.0
 11
-18.5828800201416
 21
-53.26731491088867
 31
152.0
 12
-14.486050605773926
 22
-48.807403564453125
 32
152.0
 13
-14.486050605773926
 23
-48.807403564453125
 33
152.0
  0
3DFACE
  8
0
 10
32.58475875854492
 20
-43.57166290283203
 30
152.0
 11
32.56547927856445
 21
-43.493324279785156
 31
152.0
 12
32.551063537597656
 22
-43.46146774291992
 32
152.0
 13
32.551063537597656
 23
-43.46146774291992
 33
152.0
  0
3DFACE
  8
0
 10
32.551063537597656
 20
-43.46146774291992
 30
152.0
 11
32.22319412231445
 21
-42.74999237060547
 31
152.0
 12
32.14284133911133
 22
-42.588104248046875
 32
152.0
 13
32.14284133911133
 23
-42.588104248046875
 33
152.0
  0
3DFACE
  8
0
 10
32.14284133911133
 20
-42.588104248046875
 30
152.0
 11
31.70414924621582
 21
-41.94335174560547
 31
152.0
 12
31.51082992553711
 22
-41.67084884643555
 32
152.0
 13
31.51082992553711
 23
-41.67084884643555
 33
152.0
  0
3DFACE
  8
0
 10
31.51082992553711
 20
-41.67084884643555
 30
152.0
 11
31.466720581054688
 21
-41.612335205078125
 31
152.0
 12
31.397966384887695
 22
-41.53486633300781
 32
152.0
 13
31.397966384887695
 23
-41.53486633300781
 33
152.0
  0
3DFACE
  8
0
 10
31.397966384887695
 20
-41.53486633300781
 30
152.0
 11
30.936424255371094
 21
-40.98653793334961
 31
152.0
 12
30.7275447845459
 22
-40.8301887512207
 32
152.0
 13
30.7275447845459
 23
-40.8301887512207
 33
152.0
  0
3DFACE
  8
0
 10
30.7275447845459
 20
-40.8301887512207
 30
152.0
 11
30.353979110717773
 21
-40.48488235473633
 31
152.0
 12
30.04634666442871
 22
-40.26423263549805
 32
152.0
 13
30.04634666442871
 23
-40.26423263549805
 33
152.0
  0
3DFACE
  8
0
 10
30.04634666442871
 20
-40.26423263549805
 30
152.0
 11
29.7952823638916
 21
-40.10116195678711
 31
152.0
 12
29.32327651977539
 22
-39.84859085083008
 32
152.0
 13
29.32327651977539
 23
-39.84859085083008
 33
152.0
  0
3DFACE
  8
0
 10
29.32327651977539
 20
-39.84859085083008
 30
152.0
 11
29.19179344177246
 21
-39.7669792175293
 31
152.0
 12
28.561708450317383
 22
-39.61185073852539
 32
152.0
 13
28.561708450317383
 23
-39.61185073852539
 33
152.0
  0
3DFACE
  8
0
 10
28.561708450317383
 20
-39.61185073852539
 30
152.0
 11
28.5357666015625
 21
-39.60605239868164
 31
152.0
 12
27.847850799560547
 22
-39.55031967163086
 32
152.0
 13
27.847850799560547
 23
-39.55031967163086
 33
152.0
  0
3DFACE
  8
0
 10
27.847850799560547
 20
-39.55031967163086
 30
152.0
 11
27.761070251464844
 21
-39.556739807128906
 31
152.0
 12
27.12203025817871
 22
-39.61958694458008
 32
152.0
 13
27.12203025817871
 23
-39.61958694458008
 33
152.0
  0
3DFACE
  8
0
 10
26.919267654418945
 20
-39.69294738769531
 30
152.0
 11
26.544614791870117
 21
-39.793968200683594
 31
152.0
 12
26.360103607177734
 22
-39.894412994384766
 32
152.0
 13
26.360103607177734
 23
-39.894412994384766
 33
152.0
  0
3DFACE
  8
0
 10
27.847850799560547
 20
-39.55031967163086
 30
152.0
 11
27.12203025817871
 21
-39.61958694458008
 31
152.0
 12
26.919267654418945
 22
-39.69294738769531
 32
152.0
 13
26.919267654418945
 23
-39.69294738769531
 33
152.0
  0
3DFACE
  8
0
 10
29.32327651977539
 20
-39.84859085083008
 30
152.0
 11
28.561708450317383
 21
-39.61185073852539
 31
152.0
 12
27.847850799560547
 22
-39.55031967163086
 32
152.0
 13
27.847850799560547
 23
-39.55031967163086
 33
152.0
  0
3DFACE
  8
0
 10
30.7275447845459
 20
-40.8301887512207
 30
152.0
 11
30.04634666442871
 21
-40.26423263549805
 31
152.0
 12
29.32327651977539
 22
-39.84859085083008
 32
152.0
 13
29.32327651977539
 23
-39.84859085083008
 33
152.0
  0
3DFACE
  8
0
 10
31.51082992553711
 20
-41.67084884643555
 30
152.0
 11
31.397966384887695
 21
-41.53486633300781
 31
152.0
 12
30.7275447845459
 22
-40.8301887512207
 32
152.0
 13
30.7275447845459
 23
-40.8301887512207
 33
152.0
  0
3DFACE
  8
0
 10
32.551063537597656
 20
-43.46146774291992
 30
152.0
 11
32.14284133911133
 21
-42.588104248046875
 31
152.0
 12
31.51082992553711
 22
-41.67084884643555
 32
152.0
 13
31.51082992553711
 23
-41.67084884643555
 33
152.0
  0
3DFACE
  8
0
 10
32.81217575073242
 20
-44.35575866699219
 30
152.0
 11
32.58475875854492
 21
-43.57166290283203
 31
152.0
 12
32.551063537597656
 22
-43.46146774291992
 32
152.0
 13
32.551063537597656
 23
-43.46146774291992
 33
152.0
  0
3DFACE
  8
0
 10
32.83253860473633
 20
-45.97629165649414
 30
152.0
 11
32.86677551269531
 21
-45.17728805541992
 31
152.0
 12
32.83296203613281
 22
-44.762351989746094
 32
152.0
 13
32.83296203613281
 23
-44.762351989746094
 33
152.0
  0
3DFACE
  8
0
 10
32.83296203613281
 20
-44.762351989746094
 30
152.0
 11
32.81217575073242
 21
-44.35575866699219
 31
152.0
 12
32.551063537597656
 22
-43.46146774291992
 32
152.0
 13
32.551063537597656
 23
-43.46146774291992
 33
152.0
  0
3DFACE
  8
0
 10
32.551063537597656
 20
-43.46146774291992
 30
152.0
 11
31.51082992553711
 21
-41.67084884643555
 31
152.0
 12
30.7275447845459
 22
-40.8301887512207
 32
152.0
 13
30.7275447845459
 23
-40.8301887512207
 33
152.0
  0
3DFACE
  8
0
 10
30.7275447845459
 20
-40.8301887512207
 30
152.0
 11
29.32327651977539
 21
-39.84859085083008
 31
152.0
 12
27.847850799560547
 22
-39.55031967163086
 32
152.0
 13
27.847850799560547
 23
-39.55031967163086
 33
152.0
  0
3DFACE
  8
0
 10
27.847850799560547
 20
-39.55031967163086
 30
152.0
 11
26.919267654418945
 21
-39.69294738769531
 31
152.0
 12
26.360103607177734
 22
-39.894412994384766
 32
152.0
 13
26.360103607177734
 23
-39.894412994384766
 33
152.0
  0
3DFACE
  8
0
 10
26.360103607177734
 20
-39.894412994384766
 30
152.0
 11
26.146942138671875
 21
-39.97926330566406
 31
152.0
 12
25.72297477722168
 22
-40.28864288330078
 32
152.0
 13
25.72297477722168
 23
-40.28864288330078
 33
152.0
  0
3DFACE
  8
0
 10
25.72297477722168
 20
-40.28864288330078
 30
152.0
 11
25.595054626464844
 21
-40.391456604003906
 31
152.0
 12
25.44923973083496
 22
-40.54141616821289
 32
152.0
 13
25.44923973083496
 23
-40.54141616821289
 33
152.0
  0
3DFACE
  8
0
 10
25.44923973083496
 20
-40.54141616821289
 30
152.0
 11
25.282033920288086
 21
-40.70587158203125
 31
152.0
 12
25.08452606201172
 22
-40.94717025756836
 32
152.0
 13
25.08452606201172
 23
-40.94717025756836
 33
152.0
  0
3DFACE
  8
0
 10
25.08452606201172
 20
-40.94717025756836
 30
152.0
 11
24.836933135986328
 21
-41.36568069458008
 31
152.0
 12
24.68168830871582
 22
-41.66048049926758
 32
152.0
 13
24.68168830871582
 23
-41.66048049926758
 33
152.0
  0
3DFACE
  8
0
 10
24.68168830871582
 20
-41.66048049926758
 30
152.0
 11
24.55669593811035
 21
-41.97419357299805
 31
152.0
 12
24.44970703125
 22
-42.413509368896484
 32
152.0
 13
24.44970703125
 23
-42.413509368896484
 33
152.0
  0
3DFACE
  8
0
 10
24.36005973815918
 20
-42.997379302978516
 30
152.0
 11
24.323678970336914
 21
-43.191165924072266
 31
152.0
 12
24.367441177368164
 22
-44.00517272949219
 32
152.0
 13
24.367441177368164
 23
-44.00517272949219
 33
152.0
  0
3DFACE
  8
0
 10
24.68168830871582
 20
-41.66048049926758
 30
152.0
 11
24.44970703125
 21
-42.413509368896484
 31
152.0
 12
24.36005973815918
 22
-42.997379302978516
 32
152.0
 13
24.36005973815918
 23
-42.997379302978516
 33
152.0
  0
3DFACE
  8
0
 10
25.44923973083496
 20
-40.54141616821289
 30
152.0
 11
25.08452606201172
 21
-40.94717025756836
 31
152.0
 12
24.68168830871582
 22
-41.66048049926758
 32
152.0
 13
24.68168830871582
 23
-41.66048049926758
 33
152.0
  0
3DFACE
  8
0
 10
26.360103607177734
 20
-39.894412994384766
 30
152.0
 11
25.72297477722168
 21
-40.28864288330078
 31
152.0
 12
25.44923973083496
 22
-40.54141616821289
 32
152.0
 13
25.44923973083496
 23
-40.54141616821289
 33
152.0
  0
3DFACE
  8
0
 10
30.7275447845459
 20
-40.8301887512207
 30
152.0
 11
27.847850799560547
 21
-39.55031967163086
 31
152.0
 12
26.360103607177734
 22
-39.894412994384766
 32
152.0
 13
26.360103607177734
 23
-39.894412994384766
 33
152.0
  0
3DFACE
  8
0
 10
32.83296203613281
 20
-44.762351989746094
 30
152.0
 11
32.551063537597656
 21
-43.46146774291992
 31
152.0
 12
30.7275447845459
 22
-40.8301887512207
 32
152.0
 13
30.7275447845459
 23
-40.8301887512207
 33
152.0
  0
3DFACE
  8
0
 10
32.82760238647461
 20
-46.0055046081543
 30
152.0
 11
32.83253860473633
 21
-45.97629165649414
 31
152.0
 12
32.83296203613281
 22
-44.762351989746094
 32
152.0
 13
32.83296203613281
 23
-44.762351989746094
 33
152.0
  0
3DFACE
  8
0
 10
32.65436553955078
 20
-46.76613998413086
 30
152.0
 11
32.66368865966797
 21
-46.74400329589844
 31
152.0
 12
32.82760238647461
 22
-46.0055046081543
 32
152.0
 13
32.82760238647461
 23
-46.0055046081543
 33
152.0
  0
3DFACE
  8
0
 10
32.26165771484375
 20
-47.66865921020508
 30
152.0
 11
32.371742248535156
 21
-47.48308563232422
 31
152.0
 12
32.65436553955078
 22
-46.76613998413086
 32
152.0
 13
32.65436553955078
 23
-46.76613998413086
 33
152.0
  0
3DFACE
  8
0
 10
31.48619270324707
 20
-48.67781448364258
 30
152.0
 11
31.97022247314453
 21
-48.19670104980469
 31
152.0
 12
32.26165771484375
 22
-47.66865921020508
 32
152.0
 13
32.26165771484375
 23
-47.66865921020508
 33
152.0
  0
3DFACE
  8
0
 10
30.561891555786133
 20
-49.197452545166016
 30
152.0
 11
31.282136917114258
 21
-48.834964752197266
 31
152.0
 12
31.48619270324707
 22
-48.67781448364258
 32
152.0
 13
31.48619270324707
 23
-48.67781448364258
 33
152.0
  0
3DFACE
  8
0
 10
29.796676635742188
 20
-49.39411163330078
 30
152.0
 11
30.005367279052734
 21
-49.35026550292969
 31
152.0
 12
30.362407684326172
 22
-49.24991226196289
 32
152.0
 13
30.362407684326172
 23
-49.24991226196289
 33
152.0
  0
3DFACE
  8
0
 10
30.362407684326172
 20
-49.24991226196289
 30
152.0
 11
30.561891555786133
 21
-49.197452545166016
 31
152.0
 12
31.48619270324707
 22
-48.67781448364258
 32
152.0
 13
31.48619270324707
 23
-48.67781448364258
 33
152.0
  0
3DFACE
  8
0
 10
31.48619270324707
 20
-48.67781448364258
 30
152.0
 11
32.26165771484375
 21
-47.66865921020508
 31
152.0
 12
32.65436553955078
 22
-46.76613998413086
 32
152.0
 13
32.65436553955078
 23
-46.76613998413086
 33
152.0
  0
3DFACE
  8
0
 10
32.65436553955078
 20
-46.76613998413086
 30
152.0
 11
32.82760238647461
 21
-46.0055046081543
 31
152.0
 12
32.83296203613281
 22
-44.762351989746094
 32
152.0
 13
32.83296203613281
 23
-44.762351989746094
 33
152.0
  0
3DFACE
  8
0
 10
32.83296203613281
 20
-44.762351989746094
 30
152.0
 11
30.7275447845459
 21
-40.8301887512207
 31
152.0
 12
26.360103607177734
 22
-39.894412994384766
 32
152.0
 13
26.360103607177734
 23
-39.894412994384766
 33
152.0
  0
3DFACE
  8
0
 10
26.360103607177734
 20
-39.894412994384766
 30
152.0
 11
25.44923973083496
 21
-40.54141616821289
 31
152.0
 12
24.68168830871582
 22
-41.66048049926758
 32
152.0
 13
24.68168830871582
 23
-41.66048049926758
 33
152.0
  0
3DFACE
  8
0
 10
24.68168830871582
 20
-41.66048049926758
 30
152.0
 11
24.36005973815918
 21
-42.997379302978516
 31
152.0
 12
24.367441177368164
 22
-44.00517272949219
 32
152.0
 13
24.367441177368164
 23
-44.00517272949219
 33
152.0
  0
3DFACE
  8
0
 10
24.367441177368164
 20
-44.00517272949219
 30
152.0
 11
24.36638641357422
 21
-44.01803207397461
 31
152.0
 12
24.378387451171875
 22
-44.093544006347656
 32
152.0
 13
24.378387451171875
 23
-44.093544006347656
 33
152.0
  0
3DFACE
  8
0
 10
24.378387451171875
 20
-44.093544006347656
 30
152.0
 11
24.505451202392578
 21
-44.806053161621094
 31
152.0
 12
24.586130142211914
 22
-45.025062561035156
 32
152.0
 13
24.586130142211914
 23
-45.025062561035156
 33
152.0
  0
3DFACE
  8
0
 10
24.586130142211914
 20
-45.025062561035156
 30
152.0
 11
24.807945251464844
 21
-45.72334289550781
 31
152.0
 12
25.011432647705078
 22
-46.12129592895508
 32
152.0
 13
25.011432647705078
 23
-46.12129592895508
 33
152.0
  0
3DFACE
  8
0
 10
25.011432647705078
 20
-46.12129592895508
 30
152.0
 11
25.213077545166016
 21
-46.62578201293945
 31
152.0
 12
25.29994010925293
 22
-46.77164840698242
 32
152.0
 13
25.29994010925293
 23
-46.77164840698242
 33
152.0
  0
3DFACE
  8
0
 10
25.29994010925293
 20
-46.77164840698242
 30
152.0
 11
25.369579315185547
 21
-46.89594650268555
 31
152.0
 12
25.474044799804688
 22
-47.07625961303711
 32
152.0
 13
25.474044799804688
 23
-47.07625961303711
 33
152.0
  0
3DFACE
  8
0
 10
25.959556579589844
 20
-47.770023345947266
 30
152.0
 11
25.98484992980957
 21
-47.812652587890625
 31
152.0
 12
26.22264289855957
 22
-48.0756721496582
 32
152.0
 13
26.22264289855957
 23
-48.0756721496582
 33
152.0
  0
3DFACE
  8
0
 10
25.29994010925293
 20
-46.77164840698242
 30
152.0
 11
25.474044799804688
 21
-47.07625961303711
 31
152.0
 12
25.959556579589844
 22
-47.770023345947266
 32
152.0
 13
25.959556579589844
 23
-47.770023345947266
 33
152.0
  0
3DFACE
  8
0
 10
24.586130142211914
 20
-45.025062561035156
 30
152.0
 11
25.011432647705078
 21
-46.12129592895508
 31
152.0
 12
25.29994010925293
 22
-46.77164840698242
 32
152.0
 13
25.29994010925293
 23
-46.77164840698242
 33
152.0
  0
3DFACE
  8
0
 10
24.367441177368164
 20
-44.00517272949219
 30
152.0
 11
24.378387451171875
 21
-44.093544006347656
 31
152.0
 12
24.586130142211914
 22
-45.025062561035156
 32
152.0
 13
24.586130142211914
 23
-45.025062561035156
 33
152.0
  0
3DFACE
  8
0
 10
26.360103607177734
 20
-39.894412994384766
 30
152.0
 11
24.68168830871582
 21
-41.66048049926758
 31
152.0
 12
24.367441177368164
 22
-44.00517272949219
 32
152.0
 13
24.367441177368164
 23
-44.00517272949219
 33
152.0
  0
3DFACE
  8
0
 10
32.65436553955078
 20
-46.76613998413086
 30
152.0
 11
32.83296203613281
 21
-44.762351989746094
 31
152.0
 12
26.360103607177734
 22
-39.894412994384766
 32
152.0
 13
26.360103607177734
 23
-39.894412994384766
 33
152.0
  0
3DFACE
  8
0
 10
30.362407684326172
 20
-49.24991226196289
 30
152.0
 11
31.48619270324707
 21
-48.67781448364258
 31
152.0
 12
32.65436553955078
 22
-46.76613998413086
 32
152.0
 13
32.65436553955078
 23
-46.76613998413086
 33
152.0
  0
3DFACE
  8
0
 10
29.706045150756836
 20
-49.39896011352539
 30
152.0
 11
29.796676635742188
 21
-49.39411163330078
 31
152.0
 12
30.362407684326172
 22
-49.24991226196289
 32
152.0
 13
30.362407684326172
 23
-49.24991226196289
 33
152.0
  0
3DFACE
  8
0
 10
28.627689361572266
 20
-49.2861213684082
 30
152.0
 11
28.901325225830078
 21
-49.36283874511719
 31
152.0
 12
29.584848403930664
 22
-49.38047790527344
 32
152.0
 13
29.584848403930664
 23
-49.38047790527344
 33
152.0
  0
3DFACE
  8
0
 10
29.584848403930664
 20
-49.38047790527344
 30
152.0
 11
29.706045150756836
 21
-49.39896011352539
 31
152.0
 12
30.362407684326172
 22
-49.24991226196289
 32
152.0
 13
30.362407684326172
 23
-49.24991226196289
 33
152.0
  0
3DFACE
  8
0
 10
30.362407684326172
 20
-49.24991226196289
 30
152.0
 11
32.65436553955078
 21
-46.76613998413086
 31
152.0
 12
26.360103607177734
 22
-39.894412994384766
 32
152.0
 13
26.360103607177734
 23
-39.894412994384766
 33
152.0
  0
3DFACE
  8
0
 10
26.360103607177734
 20
-39.894412994384766
 30
152.0
 11
24.367441177368164
 21
-44.00517272949219
 31
152.0
 12
24.586130142211914
 22
-45.025062561035156
 32
152.0
 13
24.586130142211914
 23
-45.025062561035156
 33
152.0
  0
3DFACE
  8
0
 10
24.586130142211914
 20
-45.025062561035156
 30
152.0
 11
25.29994010925293
 21
-46.77164840698242
 31
152.0
 12
25.959556579589844
 22
-47.770023345947266
 32
152.0
 13
25.959556579589844
 23
-47.770023345947266
 33
152.0
  0
3DFACE
  8
0
 10
25.959556579589844
 20
-47.770023345947266
 30
152.0
 11
26.22264289855957
 21
-48.0756721496582
 31
152.0
 12
26.65104866027832
 22
-48.4940299987793
 32
152.0
 13
26.65104866027832
 23
-48.4940299987793
 33
152.0
  0
3DFACE
  8
0
 10
26.788358688354492
 20
-48.56024932861328
 30
152.0
 11
26.89374542236328
 21
-48.630287170410156
 31
152.0
 12
27.369972229003906
 22
-48.927581787109375
 32
152.0
 13
27.369972229003906
 23
-48.927581787109375
 33
152.0
  0
3DFACE
  8
0
 10
25.959556579589844
 20
-47.770023345947266
 30
152.0
 11
26.65104866027832
 21
-48.4940299987793
 31
152.0
 12
26.788358688354492
 22
-48.56024932861328
 32
152.0
 13
26.788358688354492
 23
-48.56024932861328
 33
152.0
  0
3DFACE
  8
0
 10
26.360103607177734
 20
-39.894412994384766
 30
152.0
 11
24.586130142211914
 21
-45.025062561035156
 31
152.0
 12
25.959556579589844
 22
-47.770023345947266
 32
152.0
 13
25.959556579589844
 23
-47.770023345947266
 33
152.0
  0
3DFACE
  8
0
 10
29.584848403930664
 20
-49.38047790527344
 30
152.0
 11
30.362407684326172
 21
-49.24991226196289
 31
152.0
 12
26.360103607177734
 22
-39.894412994384766
 32
152.0
 13
26.360103607177734
 23
-39.894412994384766
 33
152.0
  0
3DFACE
  8
0
 10
28.126445770263672
 20
-49.18798065185547
 30
152.0
 11
28.627689361572266
 21
-49.2861213684082
 31
152.0
 12
29.584848403930664
 22
-49.38047790527344
 32
152.0
 13
29.584848403930664
 23
-49.38047790527344
 33
152.0
  0
3DFACE
  8
0
 10
27.369972229003906
 20
-48.927581787109375
 30
152.0
 11
27.629148483276367
 21
-49.039573669433594
 31
152.0
 12
28.126445770263672
 22
-49.18798065185547
 32
152.0
 13
28.126445770263672
 23
-49.18798065185547
 33
152.0
  0
3DFACE
  8
0
 10
25.959556579589844
 20
-47.770023345947266
 30
152.0
 11
26.788358688354492
 21
-48.56024932861328
 31
152.0
 12
27.369972229003906
 22
-48.927581787109375
 32
152.0
 13
27.369972229003906
 23
-48.927581787109375
 33
152.0
  0
3DFACE
  8
0
 10
29.584848403930664
 20
-49.38047790527344
 30
152.0
 11
26.360103607177734
 21
-39.894412994384766
 31
152.0
 12
25.959556579589844
 22
-47.770023345947266
 32
152.0
 13
25.959556579589844
 23
-47.770023345947266
 33
152.0
  0
3DFACE
  8
0
 10
27.369972229003906
 20
-48.927581787109375
 30
152.0
 11
28.126445770263672
 21
-49.18798065185547
 31
152.0
 12
29.584848403930664
 22
-49.38047790527344
 32
152.0
 13
29.584848403930664
 23
-49.38047790527344
 33
152.0
  0
3DFACE
  8
0
 10
25.959556579589844
 20
-47.770023345947266
 30
152.0
 11
27.369972229003906
 21
-48.927581787109375
 31
152.0
 12
29.584848403930664
 22
-49.38047790527344
 32
152.0
 13
29.584848403930664
 23
-49.38047790527344
 33
152.0
  0
3DFACE
  8
0
 10
62.7510871887207
 20
-3.1839566230773926
 30
152.0
 11
62.73691940307617
 21
-3.187119245529175
 31
152.0
 12
62.67421340942383
 22
-3.2037110328674316
 32
152.0
 13
62.67421340942383
 23
-3.2037110328674316
 33
152.0
  0
3DFACE
  8
0
 10
62.67421340942383
 20
-3.2037110328674316
 30
152.0
 11
62.09633255004883
 21
-3.3658390045166016
 31
152.0
 12
61.962493896484375
 22
-3.4121599197387695
 32
152.0
 13
61.962493896484375
 23
-3.4121599197387695
 33
152.0
  0
3DFACE
  8
0
 10
61.962493896484375
 20
-3.4121599197387695
 30
152.0
 11
61.450416564941406
 21
-3.609222173690796
 31
152.0
 12
61.17389678955078
 22
-3.731750726699829
 32
152.0
 13
61.17389678955078
 23
-3.731750726699829
 33
152.0
  0
3DFACE
  8
0
 10
61.17389678955078
 20
-3.731750726699829
 30
152.0
 11
60.807159423828125
 21
-3.8871583938598633
 31
152.0
 12
60.54560852050781
 22
-4.029185771942139
 32
152.0
 13
60.54560852050781
 23
-4.029185771942139
 33
152.0
  0
3DFACE
  8
0
 10
60.54560852050781
 20
-4.029185771942139
 30
152.0
 11
60.200286865234375
 21
-4.1998772621154785
 31
152.0
 12
59.9915657043457
 22
-4.330957889556885
 32
152.0
 13
59.9915657043457
 23
-4.330957889556885
 33
152.0
  0
3DFACE
  8
0
 10
59.9915657043457
 20
-4.330957889556885
 30
152.0
 11
59.493011474609375
 21
-4.658279895782471
 31
152.0
 12
58.921424865722656
 22
-5.081393718719482
 32
152.0
 13
58.921424865722656
 23
-5.081393718719482
 33
152.0
  0
3DFACE
  8
0
 10
58.921424865722656
 20
-5.081393718719482
 30
152.0
 11
58.909664154052734
 21
-5.091682434082031
 31
152.0
 12
58.245391845703125
 22
-5.76622200012207
 32
152.0
 13
58.245391845703125
 23
-5.76622200012207
 33
152.0
  0
3DFACE
  8
0
 10
58.245391845703125
 20
-5.76622200012207
 30
152.0
 11
58.19758224487305
 21
-5.825071334838867
 31
152.0
 12
58.11857223510742
 22
-5.945740222930908
 32
152.0
 13
58.11857223510742
 23
-5.945740222930908
 33
152.0
  0
3DFACE
  8
0
 10
58.03065872192383
 20
-6.088397026062012
 30
152.0
 11
57.677337646484375
 21
-6.592607498168945
 31
152.0
 12
57.465335845947266
 22
-6.967926979064941
 32
152.0
 13
57.465335845947266
 23
-6.967926979064941
 33
152.0
  0
3DFACE
  8
0
 10
58.245391845703125
 20
-5.76622200012207
 30
152.0
 11
58.11857223510742
 21
-5.945740222930908
 31
152.0
 12
58.03065872192383
 22
-6.088397026062012
 32
152.0
 13
58.03065872192383
 23
-6.088397026062012
 33
152.0
  0
3DFACE
  8
0
 10
59.9915657043457
 20
-4.330957889556885
 30
152.0
 11
58.921424865722656
 21
-5.081393718719482
 31
152.0
 12
58.245391845703125
 22
-5.76622200012207
 32
152.0
 13
58.245391845703125
 23
-5.76622200012207
 33
152.0
  0
3DFACE
  8
0
 10
61.17389678955078
 20
-3.731750726699829
 30
152.0
 11
60.54560852050781
 21
-4.029185771942139
 31
152.0
 12
59.9915657043457
 22
-4.330957889556885
 32
152.0
 13
59.9915657043457
 23
-4.330957889556885
 33
152.0
  0
3DFACE
  8
0
 10
62.67421340942383
 20
-3.2037110328674316
 30
152.0
 11
61.962493896484375
 21
-3.4121599197387695
 31
152.0
 12
61.17389678955078
 22
-3.731750726699829
 32
152.0
 13
61.17389678955078
 23
-3.731750726699829
 33
152.0
  0
3DFACE
  8
0
 10
63.38016891479492
 20
-3.090500593185425
 30
152.0
 11
62.7510871887207
 21
-3.1839566230773926
 31
152.0
 12
62.67421340942383
 22
-3.2037110328674316
 32
152.0
 13
62.67421340942383
 23
-3.2037110328674316
 33
152.0
  0
3DFACE
  8
0
 10
64.35660552978516
 20
-3.022188663482666
 30
152.0
 11
64.02342987060547
 21
-3.0262787342071533
 31
152.0
 12
63.53968048095703
 22
-3.0803778171539307
 32
152.0
 13
63.53968048095703
 23
-3.0803778171539307
 33
152.0
  0
3DFACE
  8
0
 10
63.53968048095703
 20
-3.0803778171539307
 30
152.0
 11
63.38016891479492
 21
-3.090500593185425
 31
152.0
 12
62.67421340942383
 22
-3.2037110328674316
 32
152.0
 13
62.67421340942383
 23
-3.2037110328674316
 33
152.0
  0
3DFACE
  8
0
 10
62.67421340942383
 20
-3.2037110328674316
 30
152.0
 11
61.17389678955078
 21
-3.731750726699829
 31
152.0
 12
59.9915657043457
 22
-4.330957889556885
 32
152.0
 13
59.9915657043457
 23
-4.330957889556885
 33
152.0
  0
3DFACE
  8
0
 10
59.9915657043457
 20
-4.330957889556885
 30
152.0
 11
58.245391845703125
 21
-5.76622200012207
 31
152.0
 12
58.03065872192383
 22
-6.088397026062012
 32
152.0
 13
58.03065872192383
 23
-6.088397026062012
 33
152.0
  0
3DFACE
  8
0
 10
58.03065872192383
 20
-6.088397026062012
 30
152.0
 11
57.465335845947266
 21
-6.967926979064941
 31
152.0
 12
57.256858825683594
 22
-7.358340263366699
 32
152.0
 13
57.256858825683594
 23
-7.358340263366699
 33
152.0
  0
3DFACE
  8
0
 10
57.256858825683594
 20
-7.358340263366699
 30
152.0
 11
57.00468826293945
 21
-8.106520652770996
 31
152.0
 12
56.860652923583984
 22
-8.896754264831543
 32
152.0
 13
56.860652923583984
 23
-8.896754264831543
 33
152.0
  0
3DFACE
  8
0
 10
56.840816497802734
 20
-9.33887004852295
 30
152.0
 11
56.81988525390625
 21
-9.66596508026123
 31
152.0
 12
56.86909484863281
 22
-10.004765510559082
 32
152.0
 13
56.86909484863281
 23
-10.004765510559082
 33
152.0
  0
3DFACE
  8
0
 10
57.256858825683594
 20
-7.358340263366699
 30
152.0
 11
56.860652923583984
 21
-8.896754264831543
 31
152.0
 12
56.840816497802734
 22
-9.33887004852295
 32
152.0
 13
56.840816497802734
 23
-9.33887004852295
 33
152.0
  0
3DFACE
  8
0
 10
59.9915657043457
 20
-4.330957889556885
 30
152.0
 11
58.03065872192383
 21
-6.088397026062012
 31
152.0
 12
57.256858825683594
 22
-7.358340263366699
 32
152.0
 13
57.256858825683594
 23
-7.358340263366699
 33
152.0
  0
3DFACE
  8
0
 10
63.53968048095703
 20
-3.0803778171539307
 30
152.0
 11
62.67421340942383
 21
-3.2037110328674316
 31
152.0
 12
59.9915657043457
 22
-4.330957889556885
 32
152.0
 13
59.9915657043457
 23
-4.330957889556885
 33
152.0
  0
3DFACE
  8
0
 10
64.66669464111328
 20
-3.0264787673950195
 30
152.0
 11
64.35660552978516
 21
-3.022188663482666
 31
152.0
 12
63.53968048095703
 22
-3.0803778171539307
 32
152.0
 13
63.53968048095703
 23
-3.0803778171539307
 33
152.0
  0
3DFACE
  8
0
 10
65.67655181884766
 20
-3.1338112354278564
 30
152.0
 11
64.86894226074219
 21
-3.045483112335205
 31
152.0
 12
64.66669464111328
 22
-3.0264787673950195
 32
152.0
 13
64.66669464111328
 23
-3.0264787673950195
 33
152.0
  0
3DFACE
  8
0
 10
66.69408416748047
 20
-3.3723983764648438
 30
152.0
 11
66.16435241699219
 21
-3.241415023803711
 31
152.0
 12
65.67655181884766
 22
-3.1338112354278564
 32
152.0
 13
65.67655181884766
 23
-3.1338112354278564
 33
152.0
  0
3DFACE
  8
0
 10
67.26114654541016
 20
-3.58272385597229
 30
152.0
 11
67.06393432617188
 21
-3.5009894371032715
 31
152.0
 12
66.69408416748047
 22
-3.3723983764648438
 32
152.0
 13
66.69408416748047
 23
-3.3723983764648438
 33
152.0
  0
3DFACE
  8
0
 10
68.08065032958984
 20
-3.9939913749694824
 30
152.0
 11
67.482666015625
 21
-3.6873247623443604
 31
152.0
 12
67.26114654541016
 22
-3.58272385597229
 32
152.0
 13
67.26114654541016
 23
-3.58272385597229
 33
152.0
  0
3DFACE
  8
0
 10
68.55506134033203
 20
-4.2320780754089355
 30
152.0
 11
68.39510345458984
 21
-4.1464128494262695
 31
152.0
 12
68.08065032958984
 22
-3.9939913749694824
 32
152.0
 13
68.08065032958984
 23
-3.9939913749694824
 33
152.0
  0
3DFACE
  8
0
 10
69.19770050048828
 20
-4.630146026611328
 30
152.0
 11
69.16790771484375
 21
-4.611194133758545
 31
152.0
 12
68.55506134033203
 22
-4.2320780754089355
 32
152.0
 13
68.55506134033203
 23
-4.2320780754089355
 33
152.0
  0
3DFACE
  8
0
 10
70.63707733154297
 20
-5.777217864990234
 30
152.0
 11
69.80304718017578
 21
-5.050714492797852
 31
152.0
 12
69.19770050048828
 22
-4.630146026611328
 32
152.0
 13
69.19770050048828
 23
-4.630146026611328
 33
152.0
  0
3DFACE
  8
0
 10
70.7154541015625
 20
-5.861164093017578
 30
152.0
 11
70.68131256103516
 21
-5.81992244720459
 31
152.0
 12
70.63707733154297
 22
-5.777217864990234
 32
152.0
 13
70.63707733154297
 23
-5.777217864990234
 33
152.0
  0
3DFACE
  8
0
 10
71.55704498291016
 20
-7.036179542541504
 30
152.0
 11
71.29167938232422
 21
-6.589130401611328
 31
152.0
 12
70.7154541015625
 22
-5.861164093017578
 32
152.0
 13
70.7154541015625
 23
-5.861164093017578
 33
152.0
  0
3DFACE
  8
0
 10
71.92221069335938
 20
-7.913119792938232
 30
152.0
 11
71.71751403808594
 21
-7.358340263366699
 31
152.0
 12
71.55704498291016
 22
-7.036179542541504
 32
152.0
 13
71.55704498291016
 23
-7.036179542541504
 33
152.0
  0
3DFACE
  8
0
 10
72.0536117553711
 20
-8.337204933166504
 30
152.0
 11
72.01051330566406
 21
-8.127547264099121
 31
152.0
 12
71.92221069335938
 22
-7.913119792938232
 32
152.0
 13
71.92221069335938
 23
-7.913119792938232
 33
152.0
  0
3DFACE
  8
0
 10
72.25772857666016
 20
-9.66596508026123
 30
152.0
 11
72.18714141845703
 21
-8.896754264831543
 31
152.0
 12
72.0536117553711
 22
-8.337204933166504
 32
152.0
 13
72.0536117553711
 23
-8.337204933166504
 33
152.0
  0
3DFACE
  8
0
 10
72.2451171875
 20
-10.464609146118164
 30
152.0
 11
72.25080108642578
 21
-10.435172080993652
 31
152.0
 12
72.25772857666016
 22
-9.66596508026123
 32
152.0
 13
72.25772857666016
 23
-9.66596508026123
 33
152.0
  0
3DFACE
  8
0
 10
72.14768981933594
 20
-11.204380989074707
 30
152.0
 11
72.15755462646484
 21
-11.149057388305664
 31
152.0
 12
72.2451171875
 22
-10.464609146118164
 32
152.0
 13
72.2451171875
 23
-10.464609146118164
 33
152.0
  0
3DFACE
  8
0
 10
71.78143310546875
 20
-12.483378410339355
 30
152.0
 11
71.94642639160156
 21
-11.973589897155762
 31
152.0
 12
72.14768981933594
 22
-11.204380989074707
 32
152.0
 13
72.14768981933594
 23
-11.204380989074707
 33
152.0
  0
3DFACE
  8
0
 10
71.50557708740234
 20
-13.121068954467773
 30
152.0
 11
71.68465423583984
 21
-12.742796897888184
 31
152.0
 12
71.78143310546875
 22
-12.483378410339355
 32
152.0
 13
71.78143310546875
 23
-12.483378410339355
 33
152.0
  0
3DFACE
  8
0
 10
71.08108520507812
 20
-13.924078941345215
 30
152.0
 11
71.32430267333984
 21
-13.51917552947998
 31
152.0
 12
71.50557708740234
 22
-13.121068954467773
 32
152.0
 13
71.50557708740234
 23
-13.121068954467773
 33
152.0
  0
3DFACE
  8
0
 10
70.63488006591797
 20
-14.650130271911621
 30
152.0
 11
70.89501953125
 21
-14.257002830505371
 31
152.0
 12
71.08108520507812
 22
-13.924078941345215
 32
152.0
 13
71.08108520507812
 23
-13.924078941345215
 33
152.0
  0
3DFACE
  8
0
 10
70.33788299560547
 20
-15.045412063598633
 30
152.0
 11
70.45983123779297
 21
-14.891777992248535
 31
152.0
 12
70.63488006591797
 22
-14.650130271911621
 32
152.0
 13
70.63488006591797
 23
-14.650130271911621
 33
152.0
  0
3DFACE
  8
0
 10
69.5689697265625
 20
-15.83646297454834
 30
152.0
 11
69.5884780883789
 21
-15.819632530212402
 31
152.0
 12
70.33788299560547
 22
-15.045412063598633
 32
152.0
 13
70.33788299560547
 23
-15.045412063598633
 33
152.0
  0
3DFACE
  8
0
 10
68.6277847290039
 20
-16.543804168701172
 30
152.0
 11
69.16436767578125
 21
-16.163963317871094
 31
152.0
 12
69.5689697265625
 22
-15.83646297454834
 32
152.0
 13
69.5689697265625
 23
-15.83646297454834
 33
152.0
  0
3DFACE
  8
0
 10
67.96210479736328
 20
-16.90059471130371
 30
152.0
 11
68.4781265258789
 21
-16.629056930541992
 31
152.0
 12
68.6277847290039
 22
-16.543804168701172
 32
152.0
 13
68.6277847290039
 23
-16.543804168701172
 33
152.0
  0
3DFACE
  8
0
 10
66.73983764648438
 20
-17.342252731323242
 30
152.0
 11
67.20875549316406
 21
-17.21273422241211
 31
152.0
 12
67.482666015625
 22
-17.08763885498047
 32
152.0
 13
67.482666015625
 23
-17.08763885498047
 33
152.0
  0
3DFACE
  8
0
 10
67.482666015625
 20
-17.08763885498047
 30
152.0
 11
67.96210479736328
 21
-16.90059471130371
 31
152.0
 12
68.6277847290039
 22
-16.543804168701172
 32
152.0
 13
68.6277847290039
 23
-16.543804168701172
 33
152.0
  0
3DFACE
  8
0
 10
68.6277847290039
 20
-16.543804168701172
 30
152.0
 11
69.5689697265625
 21
-15.83646297454834
 31
152.0
 12
70.33788299560547
 22
-15.045412063598633
 32
152.0
 13
70.33788299560547
 23
-15.045412063598633
 33
152.0
  0
3DFACE
  8
0
 10
70.33788299560547
 20
-15.045412063598633
 30
152.0
 11
70.63488006591797
 21
-14.650130271911621
 31
152.0
 12
71.08108520507812
 22
-13.924078941345215
 32
152.0
 13
71.08108520507812
 23
-13.924078941345215
 33
152.0
  0
3DFACE
  8
0
 10
71.08108520507812
 20
-13.924078941345215
 30
152.0
 11
71.50557708740234
 21
-13.121068954467773
 31
152.0
 12
71.78143310546875
 22
-12.483378410339355
 32
152.0
 13
71.78143310546875
 23
-12.483378410339355
 33
152.0
  0
3DFACE
  8
0
 10
71.78143310546875
 20
-12.483378410339355
 30
152.0
 11
72.14768981933594
 21
-11.204380989074707
 31
152.0
 12
72.2451171875
 22
-10.464609146118164
 32
152.0
 13
72.2451171875
 23
-10.464609146118164
 33
152.0
  0
3DFACE
  8
0
 10
72.2451171875
 20
-10.464609146118164
 30
152.0
 11
72.25772857666016
 21
-9.66596508026123
 31
152.0
 12
72.0536117553711
 22
-8.337204933166504
 32
152.0
 13
72.0536117553711
 23
-8.337204933166504
 33
152.0
  0
3DFACE
  8
0
 10
72.0536117553711
 20
-8.337204933166504
 30
152.0
 11
71.92221069335938
 21
-7.913119792938232
 31
152.0
 12
71.55704498291016
 22
-7.036179542541504
 32
152.0
 13
71.55704498291016
 23
-7.036179542541504
 33
152.0
  0
3DFACE
  8
0
 10
71.55704498291016
 20
-7.036179542541504
 30
152.0
 11
70.7154541015625
 21
-5.861164093017578
 31
152.0
 12
70.63707733154297
 22
-5.777217864990234
 32
152.0
 13
70.63707733154297
 23
-5.777217864990234
 33
152.0
  0
3DFACE
  8
0
 10
70.63707733154297
 20
-5.777217864990234
 30
152.0
 11
69.19770050048828
 21
-4.630146026611328
 31
152.0
 12
68.55506134033203
 22
-4.2320780754089355
 32
152.0
 13
68.55506134033203
 23
-4.2320780754089355
 33
152.0
  0
3DFACE
  8
0
 10
68.55506134033203
 20
-4.2320780754089355
 30
152.0
 11
68.08065032958984
 21
-3.9939913749694824
 31
152.0
 12
67.26114654541016
 22
-3.58272385597229
 32
152.0
 13
67.26114654541016
 23
-3.58272385597229
 33
152.0
  0
3DFACE
  8
0
 10
67.26114654541016
 20
-3.58272385597229
 30
152.0
 11
66.69408416748047
 21
-3.3723983764648438
 31
152.0
 12
65.67655181884766
 22
-3.1338112354278564
 32
152.0
 13
65.67655181884766
 23
-3.1338112354278564
 33
152.0
  0
3DFACE
  8
0
 10
65.67655181884766
 20
-3.1338112354278564
 30
152.0
 11
64.66669464111328
 21
-3.0264787673950195
 31
152.0
 12
63.53968048095703
 22
-3.0803778171539307
 32
152.0
 13
63.53968048095703
 23
-3.0803778171539307
 33
152.0
  0
3DFACE
  8
0
 10
63.53968048095703
 20
-3.0803778171539307
 30
152.0
 11
59.9915657043457
 21
-4.330957889556885
 31
152.0
 12
57.256858825683594
 22
-7.358340263366699
 32
152.0
 13
57.256858825683594
 23
-7.358340263366699
 33
152.0
  0
3DFACE
  8
0
 10
57.256858825683594
 20
-7.358340263366699
 30
152.0
 11
56.840816497802734
 21
-9.33887004852295
 31
152.0
 12
56.86909484863281
 22
-10.004765510559082
 32
152.0
 13
56.86909484863281
 23
-10.004765510559082
 33
152.0
  0
3DFACE
  8
0
 10
56.86909484863281
 20
-10.004765510559082
 30
152.0
 11
56.9008903503418
 21
-10.435172080993652
 31
152.0
 12
56.990623474121094
 22
-10.858246803283691
 32
152.0
 13
56.990623474121094
 23
-10.858246803283691
 33
152.0
  0
3DFACE
  8
0
 10
56.990623474121094
 20
-10.858246803283691
 30
152.0
 11
57.04460144042969
 21
-11.145527839660645
 31
152.0
 12
57.232177734375
 22
-11.928018569946289
 32
152.0
 13
57.232177734375
 23
-11.928018569946289
 33
152.0
  0
3DFACE
  8
0
 10
57.232177734375
 20
-11.928018569946289
 30
152.0
 11
57.23984909057617
 21
-11.963371276855469
 31
152.0
 12
57.242515563964844
 22
-11.973566055297852
 32
152.0
 13
57.242515563964844
 23
-11.973566055297852
 33
152.0
  0
3DFACE
  8
0
 10
57.242515563964844
 20
-11.973566055297852
 30
152.0
 11
57.24784851074219
 21
-11.990123748779297
 31
152.0
 12
57.52140426635742
 22
-12.742796897888184
 32
152.0
 13
57.52140426635742
 23
-12.742796897888184
 33
152.0
  0
3DFACE
  8
0
 10
57.52140426635742
 20
-12.742796897888184
 30
152.0
 11
57.88543701171875
 21
-13.51369857788086
 31
152.0
 12
57.89628219604492
 22
-13.515172958374023
 32
152.0
 13
57.89628219604492
 23
-13.515172958374023
 33
152.0
  0
3DFACE
  8
0
 10
58.1178092956543
 20
-13.876007080078125
 30
152.0
 11
58.37165069580078
 21
-14.308977127075195
 31
152.0
 12
58.805511474609375
 22
-14.826434135437012
 32
152.0
 13
58.805511474609375
 23
-14.826434135437012
 33
152.0
  0
3DFACE
  8
0
 10
57.52140426635742
 20
-12.742796897888184
 30
152.0
 11
57.89628219604492
 21
-13.515172958374023
 31
152.0
 12
58.1178092956543
 22
-13.876007080078125
 32
152.0
 13
58.1178092956543
 23
-13.876007080078125
 33
152.0
  0
3DFACE
  8
0
 10
57.232177734375
 20
-11.928018569946289
 30
152.0
 11
57.242515563964844
 21
-11.973566055297852
 31
152.0
 12
57.52140426635742
 22
-12.742796897888184
 32
152.0
 13
57.52140426635742
 23
-12.742796897888184
 33
152.0
  0
3DFACE
  8
0
 10
56.86909484863281
 20
-10.004765510559082
 30
152.0
 11
56.990623474121094
 21
-10.858246803283691
 31
152.0
 12
57.232177734375
 22
-11.928018569946289
 32
152.0
 13
57.232177734375
 23
-11.928018569946289
 33
152.0
  0
3DFACE
  8
0
 10
63.53968048095703
 20
-3.0803778171539307
 30
152.0
 11
57.256858825683594
 21
-7.358340263366699
 31
152.0
 12
56.86909484863281
 22
-10.004765510559082
 32
152.0
 13
56.86909484863281
 23
-10.004765510559082
 33
152.0
  0
3DFACE
  8
0
 10
67.26114654541016
 20
-3.58272385597229
 30
152.0
 11
65.67655181884766
 21
-3.1338112354278564
 31
152.0
 12
63.53968048095703
 22
-3.0803778171539307
 32
152.0
 13
63.53968048095703
 23
-3.0803778171539307
 33
152.0
  0
3DFACE
  8
0
 10
70.63707733154297
 20
-5.777217864990234
 30
152.0
 11
68.55506134033203
 21
-4.2320780754089355
 31
152.0
 12
67.26114654541016
 22
-3.58272385597229
 32
152.0
 13
67.26114654541016
 23
-3.58272385597229
 33
152.0
  0
3DFACE
  8
0
 10
72.0536117553711
 20
-8.337204933166504
 30
152.0
 11
71.55704498291016
 21
-7.036179542541504
 31
152.0
 12
70.63707733154297
 22
-5.777217864990234
 32
152.0
 13
70.63707733154297
 23
-5.777217864990234
 33
152.0
  0
3DFACE
  8
0
 10
71.78143310546875
 20
-12.483378410339355
 30
152.0
 11
72.2451171875
 21
-10.464609146118164
 31
152.0
 12
72.0536117553711
 22
-8.337204933166504
 32
152.0
 13
72.0536117553711
 23
-8.337204933166504
 33
152.0
  0
3DFACE
  8
0
 10
70.33788299560547
 20
-15.045412063598633
 30
152.0
 11
71.08108520507812
 21
-13.924078941345215
 31
152.0
 12
71.78143310546875
 22
-12.483378410339355
 32
152.0
 13
71.78143310546875
 23
-12.483378410339355
 33
152.0
  0
3DFACE
  8
0
 10
67.482666015625
 20
-17.08763885498047
 30
152.0
 11
68.6277847290039
 21
-16.543804168701172
 31
152.0
 12
70.33788299560547
 22
-15.045412063598633
 32
152.0
 13
70.33788299560547
 23
-15.045412063598633
 33
152.0
  0
3DFACE
  8
0
 10
66.29113006591797
 20
-17.458274841308594
 30
152.0
 11
66.73983764648438
 21
-17.342252731323242
 31
152.0
 12
67.482666015625
 22
-17.08763885498047
 32
152.0
 13
67.482666015625
 23
-17.08763885498047
 33
152.0
  0
3DFACE
  8
0
 10
65.44290924072266
 20
-17.608901977539062
 30
152.0
 11
65.95321655273438
 21
-17.527063369750977
 31
152.0
 12
66.29113006591797
 22
-17.458274841308594
 32
152.0
 13
66.29113006591797
 23
-17.458274841308594
 33
152.0
  0
3DFACE
  8
0
 10
65.22321319580078
 20
-17.6285400390625
 30
152.0
 11
65.3099365234375
 21
-17.62324333190918
 31
152.0
 12
65.44290924072266
 22
-17.608901977539062
 32
152.0
 13
65.44290924072266
 23
-17.608901977539062
 33
152.0
  0
3DFACE
  8
0
 10
64.82239532470703
 20
-17.62906265258789
 30
152.0
 11
65.11688232421875
 21
-17.6311092376709
 31
152.0
 12
65.22321319580078
 22
-17.6285400390625
 32
152.0
 13
65.22321319580078
 23
-17.6285400390625
 33
152.0
  0
3DFACE
  8
0
 10
63.53968048095703
 20
-17.53780746459961
 30
152.0
 11
64.02342987060547
 21
-17.60323715209961
 31
152.0
 12
64.32829284667969
 22
-17.604217529296875
 32
152.0
 13
64.32829284667969
 23
-17.604217529296875
 33
152.0
  0
3DFACE
  8
0
 10
64.32829284667969
 20
-17.604217529296875
 30
152.0
 11
64.82239532470703
 21
-17.62906265258789
 31
152.0
 12
65.22321319580078
 22
-17.6285400390625
 32
152.0
 13
65.22321319580078
 23
-17.6285400390625
 33
152.0
  0
3DFACE
  8
0
 10
65.22321319580078
 20
-17.6285400390625
 30
152.0
 11
65.44290924072266
 21
-17.608901977539062
 31
152.0
 12
66.29113006591797
 22
-17.458274841308594
 32
152.0
 13
66.29113006591797
 23
-17.458274841308594
 33
152.0
  0
3DFACE
  8
0
 10
66.29113006591797
 20
-17.458274841308594
 30
152.0
 11
67.482666015625
 21
-17.08763885498047
 31
152.0
 12
70.33788299560547
 22
-15.045412063598633
 32
152.0
 13
70.33788299560547
 23
-15.045412063598633
 33
152.0
  0
3DFACE
  8
0
 10
70.33788299560547
 20
-15.045412063598633
 30
152.0
 11
71.78143310546875
 21
-12.483378410339355
 31
152.0
 12
72.0536117553711
 22
-8.337204933166504
 32
152.0
 13
72.0536117553711
 23
-8.337204933166504
 33
152.0
  0
3DFACE
  8
0
 10
72.0536117553711
 20
-8.337204933166504
 30
152.0
 11
70.63707733154297
 21
-5.777217864990234
 31
152.0
 12
67.26114654541016
 22
-3.58272385597229
 32
152.0
 13
67.26114654541016
 23
-3.58272385597229
 33
152.0
  0
3DFACE
  8
0
 10
67.26114654541016
 20
-3.58272385597229
 30
152.0
 11
63.53968048095703
 21
-3.0803778171539307
 31
152.0
 12
56.86909484863281
 22
-10.004765510559082
 32
152.0
 13
56.86909484863281
 23
-10.004765510559082
 33
152.0
  0
3DFACE
  8
0
 10
56.86909484863281
 20
-10.004765510559082
 30
152.0
 11
57.232177734375
 21
-11.928018569946289
 31
152.0
 12
57.52140426635742
 22
-12.742796897888184
 32
152.0
 13
57.52140426635742
 23
-12.742796897888184
 33
152.0
  0
3DFACE
  8
0
 10
57.52140426635742
 20
-12.742796897888184
 30
152.0
 11
58.1178092956543
 21
-13.876007080078125
 31
152.0
 12
58.805511474609375
 22
-14.826434135437012
 32
152.0
 13
58.805511474609375
 23
-14.826434135437012
 33
152.0
  0
3DFACE
  8
0
 10
58.805511474609375
 20
-14.826434135437012
 30
152.0
 11
58.85752487182617
 21
-14.892794609069824
 31
152.0
 12
59.012420654296875
 22
-15.050421714782715
 32
152.0
 13
59.012420654296875
 23
-15.050421714782715
 33
152.0
  0
3DFACE
  8
0
 10
59.012420654296875
 20
-15.050421714782715
 30
152.0
 11
59.459922790527344
 21
-15.489476203918457
 31
152.0
 12
59.59660339355469
 22
-15.6099271774292
 32
152.0
 13
59.59660339355469
 23
-15.6099271774292
 33
152.0
  0
3DFACE
  8
0
 10
59.59660339355469
 20
-15.6099271774292
 30
152.0
 11
60.1633186340332
 21
-16.064868927001953
 31
152.0
 12
60.78486633300781
 22
-16.48509407043457
 32
152.0
 13
60.78486633300781
 23
-16.48509407043457
 33
152.0
  0
3DFACE
  8
0
 10
60.78486633300781
 20
-16.48509407043457
 30
152.0
 11
61.151878356933594
 21
-16.702497482299805
 31
152.0
 12
61.450416564941406
 22
-16.861635208129883
 32
152.0
 13
61.450416564941406
 23
-16.861635208129883
 33
152.0
  0
3DFACE
  8
0
 10
61.450416564941406
 20
-16.861635208129883
 30
152.0
 11
62.0830078125
 21
-17.146255493164062
 31
152.0
 12
62.67421340942383
 22
-17.339580535888672
 32
152.0
 13
62.67421340942383
 23
-17.339580535888672
 33
152.0
  0
3DFACE
  8
0
 10
62.67421340942383
 20
-17.339580535888672
 30
152.0
 11
62.7510871887207
 21
-17.36287498474121
 31
152.0
 12
62.77352523803711
 22
-17.3670654296875
 32
152.0
 13
62.77352523803711
 23
-17.3670654296875
 33
152.0
  0
3DFACE
  8
0
 10
62.77352523803711
 20
-17.3670654296875
 30
152.0
 11
63.53968048095703
 21
-17.53780746459961
 31
152.0
 12
64.32829284667969
 22
-17.604217529296875
 32
152.0
 13
64.32829284667969
 23
-17.604217529296875
 33
152.0
  0
3DFACE
  8
0
 10
64.32829284667969
 20
-17.604217529296875
 30
152.0
 11
65.22321319580078
 21
-17.6285400390625
 31
152.0
 12
66.29113006591797
 22
-17.458274841308594
 32
152.0
 13
66.29113006591797
 23
-17.458274841308594
 33
152.0
  0
3DFACE
  8
0
 10
66.29113006591797
 20
-17.458274841308594
 30
152.0
 11
70.33788299560547
 21
-15.045412063598633
 31
152.0
 12
72.0536117553711
 22
-8.337204933166504
 32
152.0
 13
72.0536117553711
 23
-8.337204933166504
 33
152.0
  0
3DFACE
  8
0
 10
72.0536117553711
 20
-8.337204933166504
 30
152.0
 11
67.26114654541016
 21
-3.58272385597229
 31
152.0
 12
56.86909484863281
 22
-10.004765510559082
 32
152.0
 13
56.86909484863281
 23
-10.004765510559082
 33
152.0
  0
3DFACE
  8
0
 10
56.86909484863281
 20
-10.004765510559082
 30
152.0
 11
57.52140426635742
 21
-12.742796897888184
 31
152.0
 12
58.805511474609375
 22
-14.826434135437012
 32
152.0
 13
58.805511474609375
 23
-14.826434135437012
 33
152.0
  0
3DFACE
  8
0
 10
58.805511474609375
 20
-14.826434135437012
 30
152.0
 11
59.012420654296875
 21
-15.050421714782715
 31
152.0
 12
59.59660339355469
 22
-15.6099271774292
 32
152.0
 13
59.59660339355469
 23
-15.6099271774292
 33
152.0
  0
3DFACE
  8
0
 10
59.59660339355469
 20
-15.6099271774292
 30
152.0
 11
60.78486633300781
 21
-16.48509407043457
 31
152.0
 12
61.450416564941406
 22
-16.861635208129883
 32
152.0
 13
61.450416564941406
 23
-16.861635208129883
 33
152.0
  0
3DFACE
  8
0
 10
61.450416564941406
 20
-16.861635208129883
 30
152.0
 11
62.67421340942383
 21
-17.339580535888672
 31
152.0
 12
62.77352523803711
 22
-17.3670654296875
 32
152.0
 13
62.77352523803711
 23
-17.3670654296875
 33
152.0
  0
3DFACE
  8
0
 10
62.77352523803711
 20
-17.3670654296875
 30
152.0
 11
64.32829284667969
 21
-17.604217529296875
 31
152.0
 12
66.29113006591797
 22
-17.458274841308594
 32
152.0
 13
66.29113006591797
 23
-17.458274841308594
 33
152.0
  0
3DFACE
  8
0
 10
66.29113006591797
 20
-17.458274841308594
 30
152.0
 11
72.0536117553711
 21
-8.337204933166504
 31
152.0
 12
56.86909484863281
 22
-10.004765510559082
 32
152.0
 13
56.86909484863281
 23
-10.004765510559082
 33
152.0
  0
3DFACE
  8
0
 10
56.86909484863281
 20
-10.004765510559082
 30
152.0
 11
58.805511474609375
 21
-14.826434135437012
 31
152.0
 12
59.59660339355469
 22
-15.6099271774292
 32
152.0
 13
59.59660339355469
 23
-15.6099271774292
 33
152.0
  0
3DFACE
  8
0
 10
59.59660339355469
 20
-15.6099271774292
 30
152.0
 11
61.450416564941406
 21
-16.861635208129883
 31
152.0
 12
62.77352523803711
 22
-17.3670654296875
 32
152.0
 13
62.77352523803711
 23
-17.3670654296875
 33
152.0
  0
3DFACE
  8
0
 10
62.77352523803711
 20
-17.3670654296875
 30
152.0
 11
66.29113006591797
 21
-17.458274841308594
 31
152.0
 12
56.86909484863281
 22
-10.004765510559082
 32
152.0
 13
56.86909484863281
 23
-10.004765510559082
 33
152.0
  0
3DFACE
  8
0
 10
56.86909484863281
 20
-10.004765510559082
 30
152.0
 11
59.59660339355469
 21
-15.6099271774292
 31
152.0
 12
62.77352523803711
 22
-17.3670654296875
 32
152.0
 13
62.77352523803711
 23
-17.3670654296875
 33
152.0
  0
3DFACE
  8
0
 10
-41.80233383178711
 20
0.20832796394824982
 30
152.0
 11
-41.958003997802734
 21
0.3870755434036255
 31
152.0
 12
-42.040122985839844
 22
0.45081859827041626
 32
152.0
 13
-42.040122985839844
 23
0.45081859827041626
 33
152.0
  0
3DFACE
  8
0
 10
-42.040122985839844
 20
0.45081859827041626
 30
152.0
 11
-42.31935119628906
 21
0.7015089988708496
 31
152.0
 12
-42.95691680908203
 22
1.1656571626663208
 32
152.0
 13
-42.95691680908203
 23
1.1656571626663208
 33
152.0
  0
3DFACE
  8
0
 10
-43.455318450927734
 20
1.4071345329284668
 30
152.0
 11
-43.60107421875
 21
1.4896129369735718
 31
152.0
 12
-44.102325439453125
 22
1.690278172492981
 32
152.0
 13
-44.102325439453125
 23
1.690278172492981
 33
152.0
  0
3DFACE
  8
0
 10
-42.040122985839844
 20
0.45081859827041626
 30
152.0
 11
-42.95691680908203
 21
1.1656571626663208
 31
152.0
 12
-43.455318450927734
 22
1.4071345329284668
 32
152.0
 13
-43.455318450927734
 23
1.4071345329284668
 33
152.0
  0
3DFACE
  8
0
 10
-41.53887176513672
 20
-0.08111029863357544
 30
152.0
 11
-41.80233383178711
 21
0.20832796394824982
 31
152.0
 12
-42.040122985839844
 22
0.45081859827041626
 32
152.0
 13
-42.040122985839844
 23
0.45081859827041626
 33
152.0
  0
3DFACE
  8
0
 10
-41.16929626464844
 20
-0.6590550541877747
 30
152.0
 11
-41.30446243286133
 21
-0.39340299367904663
 31
152.0
 12
-41.452537536621094
 22
-0.2055663764476776
 32
152.0
 13
-41.452537536621094
 23
-0.2055663764476776
 33
152.0
  0
3DFACE
  8
0
 10
-41.452537536621094
 20
-0.2055663764476776
 30
152.0
 11
-41.53887176513672
 21
-0.08111029863357544
 31
152.0
 12
-42.040122985839844
 22
0.45081859827041626
 32
152.0
 13
-42.040122985839844
 23
0.45081859827041626
 33
152.0
  0
3DFACE
  8
0
 10
-42.040122985839844
 20
0.45081859827041626
 30
152.0
 11
-43.455318450927734
 21
1.4071345329284668
 31
152.0
 12
-44.102325439453125
 22
1.690278172492981
 32
152.0
 13
-44.102325439453125
 23
1.690278172492981
 33
152.0
  0
3DFACE
  8
0
 10
-44.102325439453125
 20
1.690278172492981
 30
152.0
 11
-44.381553649902344
 21
1.8221380710601807
 31
152.0
 12
-44.524696350097656
 22
1.8870282173156738
 32
152.0
 13
-44.524696350097656
 23
1.8870282173156738
 33
152.0
  0
3DFACE
  8
0
 10
-44.524696350097656
 20
1.8870282173156738
 30
152.0
 11
-44.70026397705078
 21
1.9480323791503906
 31
152.0
 12
-45.02595138549805
 22
2.0464377403259277
 32
152.0
 13
-45.02595138549805
 23
2.0464377403259277
 33
152.0
  0
3DFACE
  8
0
 10
-45.02595138549805
 20
2.0464377403259277
 30
152.0
 11
-45.16204071044922
 21
2.0981624126434326
 31
152.0
 12
-45.66328811645508
 22
2.213287115097046
 32
152.0
 13
-45.66328811645508
 23
2.213287115097046
 33
152.0
  0
3DFACE
  8
0
 10
-45.66328811645508
 20
2.213287115097046
 30
152.0
 11
-45.94251251220703
 21
2.300384044647217
 31
152.0
 12
-46.443763732910156
 22
2.3847618103027344
 32
152.0
 13
-46.443763732910156
 23
2.3847618103027344
 33
152.0
  0
3DFACE
  8
0
 10
-46.443763732910156
 20
2.3847618103027344
 30
152.0
 11
-46.722991943359375
 21
2.461803674697876
 31
152.0
 12
-47.2242431640625
 22
2.5102643966674805
 32
152.0
 13
-47.2242431640625
 23
2.5102643966674805
 33
152.0
  0
3DFACE
  8
0
 10
-47.2242431640625
 20
2.5102643966674805
 30
152.0
 11
-47.50347137451172
 21
2.566028118133545
 31
152.0
 12
-48.00471878051758
 22
2.5674662590026855
 32
152.0
 13
-48.00471878051758
 23
2.5674662590026855
 33
152.0
  0
3DFACE
  8
0
 10
-48.00471878051758
 20
2.5674662590026855
 30
152.0
 11
-48.28394317626953
 21
2.5940444469451904
 31
152.0
 12
-48.785194396972656
 22
2.5530333518981934
 32
152.0
 13
-48.785194396972656
 23
2.5530333518981934
 33
152.0
  0
3DFACE
  8
0
 10
-48.785194396972656
 20
2.5530333518981934
 30
152.0
 11
-49.064422607421875
 21
2.5664196014404297
 31
152.0
 12
-49.48225402832031
 22
2.511666774749756
 32
152.0
 13
-49.48225402832031
 23
2.511666774749756
 33
152.0
  0
3DFACE
  8
0
 10
-49.48225402832031
 20
2.511666774749756
 30
152.0
 11
-49.861236572265625
 21
2.4749395847320557
 31
152.0
 12
-50.0993766784668
 22
2.4414684772491455
 32
152.0
 13
-50.0993766784668
 23
2.4414684772491455
 33
152.0
  0
3DFACE
  8
0
 10
-50.0993766784668
 20
2.4414684772491455
 30
152.0
 11
-51.051273345947266
 21
2.235410690307617
 31
152.0
 12
-51.54458999633789
 22
2.083634853363037
 32
152.0
 13
-51.54458999633789
 23
2.083634853363037
 33
152.0
  0
3DFACE
  8
0
 10
-51.54458999633789
 20
2.083634853363037
 30
152.0
 11
-51.96405792236328
 21
1.9452409744262695
 31
152.0
 12
-52.18634033203125
 22
1.8547351360321045
 32
152.0
 13
-52.18634033203125
 23
1.8547351360321045
 33
152.0
  0
3DFACE
  8
0
 10
-51.54458999633789
 20
2.083634853363037
 30
152.0
 11
-52.18634033203125
 21
1.8547351360321045
 31
152.0
 12
-52.657371520996094
 22
1.6311960220336914
 32
152.0
 13
-52.657371520996094
 23
1.6311960220336914
 33
152.0
  0
3DFACE
  8
0
 10
-49.48225402832031
 20
2.511666774749756
 30
152.0
 11
-50.0993766784668
 21
2.4414684772491455
 31
152.0
 12
-51.54458999633789
 22
2.083634853363037
 32
152.0
 13
-51.54458999633789
 23
2.083634853363037
 33
152.0
  0
3DFACE
  8
0
 10
-48.00471878051758
 20
2.5674662590026855
 30
152.0
 11
-48.785194396972656
 21
2.5530333518981934
 31
152.0
 12
-49.48225402832031
 22
2.511666774749756
 32
152.0
 13
-49.48225402832031
 23
2.511666774749756
 33
152.0
  0
3DFACE
  8
0
 10
-46.443763732910156
 20
2.3847618103027344
 30
152.0
 11
-47.2242431640625
 21
2.5102643966674805
 31
152.0
 12
-48.00471878051758
 22
2.5674662590026855
 32
152.0
 13
-48.00471878051758
 23
2.5674662590026855
 33
152.0
  0
3DFACE
  8
0
 10
-45.02595138549805
 20
2.0464377403259277
 30
152.0
 11
-45.66328811645508
 21
2.213287115097046
 31
152.0
 12
-46.443763732910156
 22
2.3847618103027344
 32
152.0
 13
-46.443763732910156
 23
2.3847618103027344
 33
152.0
  0
3DFACE
  8
0
 10
-44.102325439453125
 20
1.690278172492981
 30
152.0
 11
-44.524696350097656
 21
1.8870282173156738
 31
152.0
 12
-45.02595138549805
 22
2.0464377403259277
 32
152.0
 13
-45.02595138549805
 23
2.0464377403259277
 33
152.0
  0
3DFACE
  8
0
 10
-41.452537536621094
 20
-0.2055663764476776
 30
152.0
 11
-42.040122985839844
 21
0.45081859827041626
 31
152.0
 12
-44.102325439453125
 22
1.690278172492981
 32
152.0
 13
-44.102325439453125
 23
1.690278172492981
 33
152.0
  0
3DFACE
  8
0
 10
-40.8960075378418
 20
-1.1678112745285034
 30
152.0
 11
-41.16929626464844
 21
-0.6590550541877747
 31
152.0
 12
-41.452537536621094
 22
-0.2055663764476776
 32
152.0
 13
-41.452537536621094
 23
-0.2055663764476776
 33
152.0
  0
3DFACE
  8
0
 10
-40.640724182128906
 20
-2.2689602375030518
 30
152.0
 11
-40.67366409301758
 21
-1.9766933917999268
 31
152.0
 12
-40.76517868041992
 22
-1.6860769987106323
 32
152.0
 13
-40.76517868041992
 23
-1.6860769987106323
 33
152.0
  0
3DFACE
  8
0
 10
-40.76517868041992
 20
-1.6860769987106323
 30
152.0
 11
-40.8960075378418
 21
-1.1678112745285034
 31
152.0
 12
-41.452537536621094
 22
-0.2055663764476776
 32
152.0
 13
-41.452537536621094
 23
-0.2055663764476776
 33
152.0
  0
3DFACE
  8
0
 10
-41.452537536621094
 20
-0.2055663764476776
 30
152.0
 11
-44.102325439453125
 21
1.690278172492981
 31
152.0
 12
-45.02595138549805
 22
2.0464377403259277
 32
152.0
 13
-45.02595138549805
 23
2.0464377403259277
 33
152.0
  0
3DFACE
  8
0
 10
-45.02595138549805
 20
2.0464377403259277
 30
152.0
 11
-46.443763732910156
 21
2.3847618103027344
 31
152.0
 12
-48.00471878051758
 22
2.5674662590026855
 32
152.0
 13
-48.00471878051758
 23
2.5674662590026855
 33
152.0
  0
3DFACE
  8
0
 10
-48.00471878051758
 20
2.5674662590026855
 30
152.0
 11
-49.48225402832031
 21
2.511666774749756
 31
152.0
 12
-51.54458999633789
 22
2.083634853363037
 32
152.0
 13
-51.54458999633789
 23
2.083634853363037
 33
152.0
  0
3DFACE
  8
0
 10
-51.54458999633789
 20
2.083634853363037
 30
152.0
 11
-52.657371520996094
 21
1.6311960220336914
 31
152.0
 12
-52.966819763183594
 22
1.4969046115875244
 32
152.0
 13
-52.966819763183594
 23
1.4969046115875244
 33
152.0
  0
3DFACE
  8
0
 10
-52.966819763183594
 20
1.4969046115875244
 30
152.0
 11
-53.17877960205078
 21
1.4152382612228394
 31
152.0
 12
-53.64127731323242
 22
1.1742157936096191
 32
152.0
 13
-53.64127731323242
 23
1.1742157936096191
 33
152.0
  0
3DFACE
  8
0
 10
-53.64127731323242
 20
1.1742157936096191
 30
152.0
 11
-53.74729919433594
 21
1.1057461500167847
 31
152.0
 12
-53.97586441040039
 22
0.9389895796775818
 32
152.0
 13
-53.97586441040039
 23
0.9389895796775818
 33
152.0
  0
3DFACE
  8
0
 10
-53.97586441040039
 20
0.9389895796775818
 30
152.0
 11
-54.767295837402344
 21
0.3870755434036255
 31
152.0
 12
-55.17513656616211
 22
-0.005063086748123169
 32
152.0
 13
-55.17513656616211
 23
-0.005063086748123169
 33
152.0
  0
3DFACE
  8
0
 10
-55.17513656616211
 20
-0.005063086748123169
 30
152.0
 11
-55.531375885009766
 21
-0.39340299367904663
 31
152.0
 12
-55.94670486450195
 22
-1.067844271659851
 32
152.0
 13
-55.94670486450195
 23
-1.067844271659851
 33
152.0
  0
3DFACE
  8
0
 10
-55.94670486450195
 20
-1.067844271659851
 30
152.0
 11
-56.01766586303711
 21
-1.1738810539245605
 31
152.0
 12
-56.367916107177734
 22
-1.954359769821167
 32
152.0
 13
-56.367916107177734
 23
-1.954359769821167
 33
152.0
  0
3DFACE
  8
0
 10
-56.44134521484375
 20
-2.429260492324829
 30
152.0
 11
-56.508392333984375
 21
-2.7348380088806152
 31
152.0
 12
-56.506980895996094
 22
-3.515316963195801
 32
152.0
 13
-56.506980895996094
 23
-3.515316963195801
 33
152.0
  0
3DFACE
  8
0
 10
-55.94670486450195
 20
-1.067844271659851
 30
152.0
 11
-56.367916107177734
 21
-1.954359769821167
 31
152.0
 12
-56.44134521484375
 22
-2.429260492324829
 32
152.0
 13
-56.44134521484375
 23
-2.429260492324829
 33
152.0
  0
3DFACE
  8
0
 10
-53.97586441040039
 20
0.9389895796775818
 30
152.0
 11
-55.17513656616211
 21
-0.005063086748123169
 31
152.0
 12
-55.94670486450195
 22
-1.067844271659851
 32
152.0
 13
-55.94670486450195
 23
-1.067844271659851
 33
152.0
  0
3DFACE
  8
0
 10
-52.966819763183594
 20
1.4969046115875244
 30
152.0
 11
-53.64127731323242
 21
1.1742157936096191
 31
152.0
 12
-53.97586441040039
 22
0.9389895796775818
 32
152.0
 13
-53.97586441040039
 23
0.9389895796775818
 33
152.0
  0
3DFACE
  8
0
 10
-48.00471878051758
 20
2.5674662590026855
 30
152.0
 11
-51.54458999633789
 21
2.083634853363037
 31
152.0
 12
-52.966819763183594
 22
1.4969046115875244
 32
152.0
 13
-52.966819763183594
 23
1.4969046115875244
 33
152.0
  0
3DFACE
  8
0
 10
-41.452537536621094
 20
-0.2055663764476776
 30
152.0
 11
-45.02595138549805
 21
2.0464377403259277
 31
152.0
 12
-48.00471878051758
 22
2.5674662590026855
 32
152.0
 13
-48.00471878051758
 23
2.5674662590026855
 33
152.0
  0
3DFACE
  8
0
 10
-40.640724182128906
 20
-2.2689602375030518
 30
152.0
 11
-40.76517868041992
 21
-1.6860769987106323
 31
152.0
 12
-41.452537536621094
 22
-0.2055663764476776
 32
152.0
 13
-41.452537536621094
 23
-0.2055663764476776
 33
152.0
  0
3DFACE
  8
0
 10
-40.5527458190918
 20
-2.954335927963257
 30
152.0
 11
-40.55911636352539
 21
-2.7348380088806152
 31
152.0
 12
-40.640724182128906
 22
-2.2689602375030518
 32
152.0
 13
-40.640724182128906
 23
-2.2689602375030518
 33
152.0
  0
3DFACE
  8
0
 10
-40.63893127441406
 20
-3.9997639656066895
 30
152.0
 11
-40.567935943603516
 21
-3.515316963195801
 31
152.0
 12
-40.5527458190918
 22
-2.954335927963257
 32
152.0
 13
-40.5527458190918
 23
-2.954335927963257
 33
152.0
  0
3DFACE
  8
0
 10
-40.886077880859375
 20
-4.79704475402832
 30
152.0
 11
-40.687679290771484
 21
-4.295794486999512
 31
152.0
 12
-40.63893127441406
 22
-3.9997639656066895
 32
152.0
 13
-40.63893127441406
 23
-3.9997639656066895
 33
152.0
  0
3DFACE
  8
0
 10
-41.30369567871094
 20
-5.583797931671143
 30
152.0
 11
-40.97180938720703
 21
-5.0793375968933105
 31
152.0
 12
-40.886077880859375
 22
-4.79704475402832
 32
152.0
 13
-40.886077880859375
 23
-4.79704475402832
 33
152.0
  0
3DFACE
  8
0
 10
-41.700992584228516
 20
-6.135980129241943
 30
152.0
 11
-41.47060775756836
 21
-5.856751441955566
 31
152.0
 12
-41.30369567871094
 22
-5.583797931671143
 32
152.0
 13
-41.30369567871094
 23
-5.583797931671143
 33
152.0
  0
3DFACE
  8
0
 10
-42.339839935302734
 20
-6.75889253616333
 30
152.0
 11
-42.17552185058594
 21
-6.617795944213867
 31
152.0
 12
-41.700992584228516
 22
-6.135980129241943
 32
152.0
 13
-41.700992584228516
 23
-6.135980129241943
 33
152.0
  0
3DFACE
  8
0
 10
-42.99013900756836
 20
-7.279576778411865
 30
152.0
 11
-42.82060241699219
 21
-7.159480571746826
 31
152.0
 12
-42.339839935302734
 22
-6.75889253616333
 32
152.0
 13
-42.339839935302734
 23
-6.75889253616333
 33
152.0
  0
3DFACE
  8
0
 10
-43.26936340332031
 20
-7.4917168617248535
 30
152.0
 11
-43.166622161865234
 21
-7.417708396911621
 31
152.0
 12
-42.99013900756836
 22
-7.279576778411865
 32
152.0
 13
-42.99013900756836
 23
-7.279576778411865
 33
152.0
  0
3DFACE
  8
0
 10
-44.121612548828125
 20
-7.983260631561279
 30
152.0
 11
-43.60107421875
 21
-7.694324493408203
 31
152.0
 12
-43.26936340332031
 22
-7.4917168617248535
 32
152.0
 13
-43.26936340332031
 23
-7.4917168617248535
 33
152.0
  0
3DFACE
  8
0
 10
-44.68007278442383
 20
-8.322837829589844
 30
152.0
 11
-44.426143646240234
 21
-8.173154830932617
 31
152.0
 12
-44.121612548828125
 22
-7.983260631561279
 32
152.0
 13
-44.121612548828125
 23
-7.983260631561279
 33
152.0
  0
3DFACE
  8
0
 10
-45.66328811645508
 20
-8.708312034606934
 30
152.0
 11
-45.16204071044922
 21
-8.543075561523438
 31
152.0
 12
-44.68007278442383
 22
-8.322837829589844
 32
152.0
 13
-44.68007278442383
 23
-8.322837829589844
 33
152.0
  0
3DFACE
  8
0
 10
-46.443763732910156
 20
-8.9431791305542
 30
152.0
 11
-45.94251251220703
 21
-8.831480026245117
 31
152.0
 12
-45.66328811645508
 22
-8.708312034606934
 32
152.0
 13
-45.66328811645508
 23
-8.708312034606934
 33
152.0
  0
3DFACE
  8
0
 10
-47.2242431640625
 20
-9.101643562316895
 30
152.0
 11
-46.722991943359375
 21
-9.02878475189209
 31
152.0
 12
-46.443763732910156
 22
-8.9431791305542
 32
152.0
 13
-46.443763732910156
 23
-8.9431791305542
 33
152.0
  0
3DFACE
  8
0
 10
-48.00471878051758
 20
-9.206853866577148
 30
152.0
 11
-47.50347137451172
 21
-9.170079231262207
 31
152.0
 12
-47.2242431640625
 22
-9.101643562316895
 32
152.0
 13
-47.2242431640625
 23
-9.101643562316895
 33
152.0
  0
3DFACE
  8
0
 10
-48.785194396972656
 20
-9.211560249328613
 30
152.0
 11
-48.28394317626953
 21
-9.247875213623047
 31
152.0
 12
-48.00471878051758
 22
-9.206853866577148
 32
152.0
 13
-48.00471878051758
 23
-9.206853866577148
 33
152.0
  0
3DFACE
  8
0
 10
-49.549781799316406
 20
-9.188886642456055
 30
152.0
 11
-49.064422607421875
 21
-9.225757598876953
 31
152.0
 12
-48.785194396972656
 22
-9.211560249328613
 32
152.0
 13
-48.785194396972656
 23
-9.211560249328613
 33
152.0
  0
3DFACE
  8
0
 10
-50.14003372192383
 20
-9.165982246398926
 30
152.0
 11
-49.84490966796875
 21
-9.189661026000977
 31
152.0
 12
-49.549781799316406
 22
-9.188886642456055
 32
152.0
 13
-49.549781799316406
 23
-9.188886642456055
 33
152.0
  0
3DFACE
  8
0
 10
-51.25286102294922
 20
-8.952857971191406
 30
152.0
 11
-51.12083053588867
 21
-8.982185363769531
 31
152.0
 12
-50.14003372192383
 22
-9.165982246398926
 32
152.0
 13
-50.14003372192383
 23
-9.165982246398926
 33
152.0
  0
3DFACE
  8
0
 10
-51.749839782714844
 20
-8.794076919555664
 30
152.0
 11
-51.405860900878906
 21
-8.913962364196777
 31
152.0
 12
-51.25286102294922
 22
-8.952857971191406
 32
152.0
 13
-51.25286102294922
 23
-8.952857971191406
 33
152.0
  0
3DFACE
  8
0
 10
-52.966819763183594
 20
-8.304330825805664
 30
152.0
 11
-52.481990814208984
 21
-8.511895179748535
 31
152.0
 12
-52.18634033203125
 22
-8.608799934387207
 32
152.0
 13
-52.18634033203125
 23
-8.608799934387207
 33
152.0
  0
3DFACE
  8
0
 10
-52.18634033203125
 20
-8.608799934387207
 30
152.0
 11
-51.749839782714844
 21
-8.794076919555664
 31
152.0
 12
-51.25286102294922
 22
-8.952857971191406
 32
152.0
 13
-51.25286102294922
 23
-8.952857971191406
 33
152.0
  0
3DFACE
  8
0
 10
-51.25286102294922
 20
-8.952857971191406
 30
152.0
 11
-50.14003372192383
 21
-9.165982246398926
 31
152.0
 12
-49.549781799316406
 22
-9.188886642456055
 32
152.0
 13
-49.549781799316406
 23
-9.188886642456055
 33
152.0
  0
3DFACE
  8
0
 10
-49.549781799316406
 20
-9.188886642456055
 30
152.0
 11
-48.785194396972656
 21
-9.211560249328613
 31
152.0
 12
-48.00471878051758
 22
-9.206853866577148
 32
152.0
 13
-48.00471878051758
 23
-9.206853866577148
 33
152.0
  0
3DFACE
  8
0
 10
-48.00471878051758
 20
-9.206853866577148
 30
152.0
 11
-47.2242431640625
 21
-9.101643562316895
 31
152.0
 12
-46.443763732910156
 22
-8.9431791305542
 32
152.0
 13
-46.443763732910156
 23
-8.9431791305542
 33
152.0
  0
3DFACE
  8
0
 10
-46.443763732910156
 20
-8.9431791305542
 30
152.0
 11
-45.66328811645508
 21
-8.708312034606934
 31
152.0
 12
-44.68007278442383
 22
-8.322837829589844
 32
152.0
 13
-44.68007278442383
 23
-8.322837829589844
 33
152.0
  0
3DFACE
  8
0
 10
-44.121612548828125
 20
-7.983260631561279
 30
152.0
 11
-43.26936340332031
 21
-7.4917168617248535
 31
152.0
 12
-42.99013900756836
 22
-7.279576778411865
 32
152.0
 13
-42.99013900756836
 23
-7.279576778411865
 33
152.0
  0
3DFACE
  8
0
 10
-46.443763732910156
 20
-8.9431791305542
 30
152.0
 11
-44.68007278442383
 21
-8.322837829589844
 31
152.0
 12
-44.121612548828125
 22
-7.983260631561279
 32
152.0
 13
-44.121612548828125
 23
-7.983260631561279
 33
152.0
  0
3DFACE
  8
0
 10
-49.549781799316406
 20
-9.188886642456055
 30
152.0
 11
-48.00471878051758
 21
-9.206853866577148
 31
152.0
 12
-46.443763732910156
 22
-8.9431791305542
 32
152.0
 13
-46.443763732910156
 23
-8.9431791305542
 33
152.0
  0
3DFACE
  8
0
 10
-52.18634033203125
 20
-8.608799934387207
 30
152.0
 11
-51.25286102294922
 21
-8.952857971191406
 31
152.0
 12
-49.549781799316406
 22
-9.188886642456055
 32
152.0
 13
-49.549781799316406
 23
-9.188886642456055
 33
152.0
  0
3DFACE
  8
0
 10
-53.1861457824707
 20
-8.192853927612305
 30
152.0
 11
-52.966819763183594
 21
-8.304330825805664
 31
152.0
 12
-52.18634033203125
 22
-8.608799934387207
 32
152.0
 13
-52.18634033203125
 23
-8.608799934387207
 33
152.0
  0
3DFACE
  8
0
 10
-54.52778625488281
 20
-7.316500186920166
 30
152.0
 11
-54.412662506103516
 21
-7.417708396911621
 31
152.0
 12
-53.1861457824707
 22
-8.192853927612305
 32
152.0
 13
-53.1861457824707
 23
-8.192853927612305
 33
152.0
  0
3DFACE
  8
0
 10
-55.309452056884766
 20
-6.566008567810059
 30
152.0
 11
-55.244056701660156
 21
-6.637230396270752
 31
152.0
 12
-54.52778625488281
 22
-7.316500186920166
 32
152.0
 13
-54.52778625488281
 23
-7.316500186920166
 33
152.0
  0
3DFACE
  8
0
 10
-55.99143600463867
 20
-5.466512680053711
 30
152.0
 11
-55.814491271972656
 21
-5.863467216491699
 31
152.0
 12
-55.309452056884766
 22
-6.566008567810059
 32
152.0
 13
-55.309452056884766
 23
-6.566008567810059
 33
152.0
  0
3DFACE
  8
0
 10
-56.278133392333984
 20
-4.768909454345703
 30
152.0
 11
-56.19261932373047
 21
-5.076273441314697
 31
152.0
 12
-55.99143600463867
 22
-5.466512680053711
 32
152.0
 13
-55.99143600463867
 23
-5.466512680053711
 33
152.0
  0
3DFACE
  8
0
 10
-56.469520568847656
 20
-3.9115164279937744
 30
152.0
 11
-56.4471321105957
 21
-4.295794486999512
 31
152.0
 12
-56.278133392333984
 22
-4.768909454345703
 32
152.0
 13
-56.278133392333984
 23
-4.768909454345703
 33
152.0
  0
3DFACE
  8
0
 10
-56.44134521484375
 20
-2.429260492324829
 30
152.0
 11
-56.506980895996094
 21
-3.515316963195801
 31
152.0
 12
-56.469520568847656
 22
-3.9115164279937744
 32
152.0
 13
-56.469520568847656
 23
-3.9115164279937744
 33
152.0
  0
3DFACE
  8
0
 10
-53.97586441040039
 20
0.9389895796775818
 30
152.0
 11
-55.94670486450195
 21
-1.067844271659851
 31
152.0
 12
-56.44134521484375
 22
-2.429260492324829
 32
152.0
 13
-56.44134521484375
 23
-2.429260492324829
 33
152.0
  0
3DFACE
  8
0
 10
-48.00471878051758
 20
2.5674662590026855
 30
152.0
 11
-52.966819763183594
 21
1.4969046115875244
 31
152.0
 12
-53.97586441040039
 22
0.9389895796775818
 32
152.0
 13
-53.97586441040039
 23
0.9389895796775818
 33
152.0
  0
3DFACE
  8
0
 10
-40.640724182128906
 20
-2.2689602375030518
 30
152.0
 11
-41.452537536621094
 21
-0.2055663764476776
 31
152.0
 12
-48.00471878051758
 22
2.5674662590026855
 32
152.0
 13
-48.00471878051758
 23
2.5674662590026855
 33
152.0
  0
3DFACE
  8
0
 10
-40.63893127441406
 20
-3.9997639656066895
 30
152.0
 11
-40.5527458190918
 21
-2.954335927963257
 31
152.0
 12
-40.640724182128906
 22
-2.2689602375030518
 32
152.0
 13
-40.640724182128906
 23
-2.2689602375030518
 33
152.0
  0
3DFACE
  8
0
 10
-41.30369567871094
 20
-5.583797931671143
 30
152.0
 11
-40.886077880859375
 21
-4.79704475402832
 31
152.0
 12
-40.63893127441406
 22
-3.9997639656066895
 32
152.0
 13
-40.63893127441406
 23
-3.9997639656066895
 33
152.0
  0
3DFACE
  8
0
 10
-42.339839935302734
 20
-6.75889253616333
 30
152.0
 11
-41.700992584228516
 21
-6.135980129241943
 31
152.0
 12
-41.30369567871094
 22
-5.583797931671143
 32
152.0
 13
-41.30369567871094
 23
-5.583797931671143
 33
152.0
  0
3DFACE
  8
0
 10
-44.121612548828125
 20
-7.983260631561279
 30
152.0
 11
-42.99013900756836
 21
-7.279576778411865
 31
152.0
 12
-42.339839935302734
 22
-6.75889253616333
 32
152.0
 13
-42.339839935302734
 23
-6.75889253616333
 33
152.0
  0
3DFACE
  8
0
 10
-49.549781799316406
 20
-9.188886642456055
 30
152.0
 11
-46.443763732910156
 21
-8.9431791305542
 31
152.0
 12
-44.121612548828125
 22
-7.983260631561279
 32
152.0
 13
-44.121612548828125
 23
-7.983260631561279
 33
152.0
  0
3DFACE
  8
0
 10
-53.1861457824707
 20
-8.192853927612305
 30
152.0
 11
-52.18634033203125
 21
-8.608799934387207
 31
152.0
 12
-49.549781799316406
 22
-9.188886642456055
 32
152.0
 13
-49.549781799316406
 23
-9.188886642456055
 33
152.0
  0
3DFACE
  8
0
 10
-55.309452056884766
 20
-6.566008567810059
 30
152.0
 11
-54.52778625488281
 21
-7.316500186920166
 31
152.0
 12
-53.1861457824707
 22
-8.192853927612305
 32
152.0
 13
-53.1861457824707
 23
-8.192853927612305
 33
152.0
  0
3DFACE
  8
0
 10
-56.278133392333984
 20
-4.768909454345703
 30
152.0
 11
-55.99143600463867
 21
-5.466512680053711
 31
152.0
 12
-55.309452056884766
 22
-6.566008567810059
 32
152.0
 13
-55.309452056884766
 23
-6.566008567810059
 33
152.0
  0
3DFACE
  8
0
 10
-56.44134521484375
 20
-2.429260492324829
 30
152.0
 11
-56.469520568847656
 21
-3.9115164279937744
 31
152.0
 12
-56.278133392333984
 22
-4.768909454345703
 32
152.0
 13
-56.278133392333984
 23
-4.768909454345703
 33
152.0
  0
3DFACE
  8
0
 10
-48.00471878051758
 20
2.5674662590026855
 30
152.0
 11
-53.97586441040039
 21
0.9389895796775818
 31
152.0
 12
-56.44134521484375
 22
-2.429260492324829
 32
152.0
 13
-56.44134521484375
 23
-2.429260492324829
 33
152.0
  0
3DFACE
  8
0
 10
-40.63893127441406
 20
-3.9997639656066895
 30
152.0
 11
-40.640724182128906
 21
-2.2689602375030518
 31
152.0
 12
-48.00471878051758
 22
2.5674662590026855
 32
152.0
 13
-48.00471878051758
 23
2.5674662590026855
 33
152.0
  0
3DFACE
  8
0
 10
-42.339839935302734
 20
-6.75889253616333
 30
152.0
 11
-41.30369567871094
 21
-5.583797931671143
 31
152.0
 12
-40.63893127441406
 22
-3.9997639656066895
 32
152.0
 13
-40.63893127441406
 23
-3.9997639656066895
 33
152.0
  0
3DFACE
  8
0
 10
-49.549781799316406
 20
-9.188886642456055
 30
152.0
 11
-44.121612548828125
 21
-7.983260631561279
 31
152.0
 12
-42.339839935302734
 22
-6.75889253616333
 32
152.0
 13
-42.339839935302734
 23
-6.75889253616333
 33
152.0
  0
3DFACE
  8
0
 10
-55.309452056884766
 20
-6.566008567810059
 30
152.0
 11
-53.1861457824707
 21
-8.192853927612305
 31
152.0
 12
-49.549781799316406
 22
-9.188886642456055
 32
152.0
 13
-49.549781799316406
 23
-9.188886642456055
 33
152.0
  0
3DFACE
  8
0
 10
-56.44134521484375
 20
-2.429260492324829
 30
152.0
 11
-56.278133392333984
 21
-4.768909454345703
 31
152.0
 12
-55.309452056884766
 22
-6.566008567810059
 32
152.0
 13
-55.309452056884766
 23
-6.566008567810059
 33
152.0
  0
3DFACE
  8
0
 10
-40.63893127441406
 20
-3.9997639656066895
 30
152.0
 11
-48.00471878051758
 21
2.5674662590026855
 31
152.0
 12
-56.44134521484375
 22
-2.429260492324829
 32
152.0
 13
-56.44134521484375
 23
-2.429260492324829
 33
152.0
  0
3DFACE
  8
0
 10
-49.549781799316406
 20
-9.188886642456055
 30
152.0
 11
-42.339839935302734
 21
-6.75889253616333
 31
152.0
 12
-40.63893127441406
 22
-3.9997639656066895
 32
152.0
 13
-40.63893127441406
 23
-3.9997639656066895
 33
152.0
  0
3DFACE
  8
0
 10
-56.44134521484375
 20
-2.429260492324829
 30
152.0
 11
-55.309452056884766
 21
-6.566008567810059
 31
152.0
 12
-49.549781799316406
 22
-9.188886642456055
 32
152.0
 13
-49.549781799316406
 23
-9.188886642456055
 33
152.0
  0
3DFACE
  8
0
 10
-56.44134521484375
 20
-2.429260492324829
 30
152.0
 11
-49.549781799316406
 21
-9.188886642456055
 31
152.0
 12
-40.63893127441406
 22
-3.9997639656066895
 32
152.0
 13
-40.63893127441406
 23
-3.9997639656066895
 33
152.0
  0
3DFACE
  8
0
 10
-33.62867736816406
 20
45.05773162841797
 30
152.0
 11
-33.64205551147461
 21
45.08375930786133
 31
152.0
 12
-33.64948654174805
 22
45.09560012817383
 32
152.0
 13
-33.64948654174805
 23
45.09560012817383
 33
152.0
  0
3DFACE
  8
0
 10
-33.64948654174805
 20
45.09560012817383
 30
152.0
 11
-33.668922424316406
 21
45.125057220458984
 31
152.0
 12
-34.04469299316406
 22
45.66864776611328
 32
152.0
 13
-34.04469299316406
 23
45.66864776611328
 33
152.0
  0
3DFACE
  8
0
 10
-34.04469299316406
 20
45.66864776611328
 30
152.0
 11
-34.455413818359375
 21
46.1362419128418
 31
152.0
 12
-34.596187591552734
 22
46.2848014831543
 32
152.0
 13
-34.596187591552734
 23
46.2848014831543
 33
152.0
  0
3DFACE
  8
0
 10
-34.596187591552734
 20
46.2848014831543
 30
152.0
 11
-35.1252326965332
 21
46.78673553466797
 31
152.0
 12
-35.24939727783203
 22
46.89555358886719
 32
152.0
 13
-35.24939727783203
 23
46.89555358886719
 33
152.0
  0
3DFACE
  8
0
 10
-35.38933181762695
 20
46.99871063232422
 30
152.0
 11
-36.033809661865234
 21
47.51669692993164
 31
152.0
 12
-36.19917297363281
 22
47.62983322143555
 32
152.0
 13
-36.19917297363281
 23
47.62983322143555
 33
152.0
  0
3DFACE
  8
0
 10
-34.596187591552734
 20
46.2848014831543
 30
152.0
 11
-35.24939727783203
 21
46.89555358886719
 31
152.0
 12
-35.38933181762695
 22
46.99871063232422
 32
152.0
 13
-35.38933181762695
 23
46.99871063232422
 33
152.0
  0
3DFACE
  8
0
 10
-33.64948654174805
 20
45.09560012817383
 30
152.0
 11
-34.04469299316406
 21
45.66864776611328
 31
152.0
 12
-34.596187591552734
 22
46.2848014831543
 32
152.0
 13
-34.596187591552734
 23
46.2848014831543
 33
152.0
  0
3DFACE
  8
0
 10
-33.03277587890625
 20
43.991451263427734
 30
152.0
 11
-33.236900329589844
 21
44.382415771484375
 31
152.0
 12
-33.62867736816406
 22
45.05773162841797
 32
152.0
 13
-33.62867736816406
 23
45.05773162841797
 33
152.0
  0
3DFACE
  8
0
 10
-33.62867736816406
 20
45.05773162841797
 30
152.0
 11
-33.64948654174805
 21
45.09560012817383
 31
152.0
 12
-34.596187591552734
 22
46.2848014831543
 32
152.0
 13
-34.596187591552734
 23
46.2848014831543
 33
152.0
  0
3DFACE
  8
0
 10
-34.596187591552734
 20
46.2848014831543
 30
152.0
 11
-35.38933181762695
 21
46.99871063232422
 31
152.0
 12
-36.19917297363281
 22
47.62983322143555
 32
152.0
 13
-36.19917297363281
 23
47.62983322143555
 33
152.0
  0
3DFACE
  8
0
 10
-36.19917297363281
 20
47.62983322143555
 30
152.0
 11
-36.530364990234375
 21
47.820438385009766
 31
152.0
 12
-36.906978607177734
 22
48.010398864746094
 32
152.0
 13
-36.906978607177734
 23
48.010398864746094
 33
152.0
  0
3DFACE
  8
0
 10
-36.906978607177734
 20
48.010398864746094
 30
152.0
 11
-37.60097885131836
 21
48.33379364013672
 31
152.0
 12
-37.884803771972656
 22
48.44243240356445
 32
152.0
 13
-37.884803771972656
 23
48.44243240356445
 33
152.0
  0
3DFACE
  8
0
 10
-37.884803771972656
 20
48.44243240356445
 30
152.0
 11
-37.935848236083984
 21
48.45875549316406
 31
152.0
 12
-38.71569061279297
 22
48.676387786865234
 32
152.0
 13
-38.71569061279297
 23
48.676387786865234
 33
152.0
  0
3DFACE
  8
0
 10
-38.71569061279297
 20
48.676387786865234
 30
152.0
 11
-39.18256378173828
 21
48.77470016479492
 31
152.0
 12
-40.07987594604492
 22
48.93041229248047
 32
152.0
 13
-40.07987594604492
 23
48.93041229248047
 33
152.0
  0
3DFACE
  8
0
 10
-40.07987594604492
 20
48.93041229248047
 30
152.0
 11
-40.36424255371094
 21
48.952491760253906
 31
152.0
 12
-41.18220138549805
 22
48.999229431152344
 32
152.0
 13
-41.18220138549805
 23
48.999229431152344
 33
152.0
  0
3DFACE
  8
0
 10
-41.18220138549805
 20
48.999229431152344
 30
152.0
 11
-41.414512634277344
 21
48.98408508300781
 31
152.0
 12
-41.715553283691406
 22
48.94235610961914
 32
152.0
 13
-41.715553283691406
 23
48.94235610961914
 33
152.0
  0
3DFACE
  8
0
 10
-41.715553283691406
 20
48.94235610961914
 30
152.0
 11
-42.41871643066406
 21
48.83195114135742
 31
152.0
 12
-42.79503631591797
 22
48.75864028930664
 32
152.0
 13
-42.79503631591797
 23
48.75864028930664
 33
152.0
  0
3DFACE
  8
0
 10
-42.79503631591797
 20
48.75864028930664
 30
152.0
 11
-43.05963134765625
 21
48.68128967285156
 31
152.0
 12
-43.58918762207031
 22
48.460968017578125
 32
152.0
 13
-43.58918762207031
 23
48.460968017578125
 33
152.0
  0
3DFACE
  8
0
 10
-43.58918762207031
 20
48.460968017578125
 30
152.0
 11
-44.379920959472656
 21
48.065513610839844
 31
152.0
 12
-45.06755065917969
 22
47.600982666015625
 32
152.0
 13
-45.06755065917969
 23
47.600982666015625
 33
152.0
  0
3DFACE
  8
0
 10
-45.06755065917969
 20
47.600982666015625
 30
152.0
 11
-45.15415954589844
 21
47.52809143066406
 31
152.0
 12
-45.91968536376953
 22
46.81629180908203
 32
152.0
 13
-45.91968536376953
 23
46.81629180908203
 33
152.0
  0
3DFACE
  8
0
 10
-45.91968536376953
 20
46.81629180908203
 30
152.0
 11
-45.97472381591797
 21
46.760215759277344
 31
152.0
 12
-46.712059020996094
 22
45.90850067138672
 32
152.0
 13
-46.712059020996094
 23
45.90850067138672
 33
152.0
  0
3DFACE
  8
0
 10
-46.712059020996094
 20
45.90850067138672
 30
152.0
 11
-47.20920181274414
 21
45.18696594238281
 31
152.0
 12
-47.21869659423828
 22
45.17076110839844
 32
152.0
 13
-47.21869659423828
 23
45.17076110839844
 33
152.0
  0
3DFACE
  8
0
 10
-47.21869659423828
 20
45.17076110839844
 30
152.0
 11
-47.567718505859375
 21
44.550174713134766
 31
152.0
 12
-47.71227264404297
 22
44.18196487426758
 32
152.0
 13
-47.71227264404297
 23
44.18196487426758
 33
152.0
  0
3DFACE
  8
0
 10
-47.83834457397461
 20
43.875709533691406
 30
152.0
 11
-47.96702575683594
 21
43.57785415649414
 31
152.0
 12
-48.005653381347656
 22
43.45363998413086
 32
152.0
 13
-48.005653381347656
 23
43.45363998413086
 33
152.0
  0
3DFACE
  8
0
 10
-47.21869659423828
 20
45.17076110839844
 30
152.0
 11
-47.71227264404297
 21
44.18196487426758
 31
152.0
 12
-47.83834457397461
 22
43.875709533691406
 32
152.0
 13
-47.83834457397461
 23
43.875709533691406
 33
152.0
  0
3DFACE
  8
0
 10
-45.91968536376953
 20
46.81629180908203
 30
152.0
 11
-46.712059020996094
 21
45.90850067138672
 31
152.0
 12
-47.21869659423828
 22
45.17076110839844
 32
152.0
 13
-47.21869659423828
 23
45.17076110839844
 33
152.0
  0
3DFACE
  8
0
 10
-43.58918762207031
 20
48.460968017578125
 30
152.0
 11
-45.06755065917969
 21
47.600982666015625
 31
152.0
 12
-45.91968536376953
 22
46.81629180908203
 32
152.0
 13
-45.91968536376953
 23
46.81629180908203
 33
152.0
  0
3DFACE
  8
0
 10
-41.715553283691406
 20
48.94235610961914
 30
152.0
 11
-42.79503631591797
 21
48.75864028930664
 31
152.0
 12
-43.58918762207031
 22
48.460968017578125
 32
152.0
 13
-43.58918762207031
 23
48.460968017578125
 33
152.0
  0
3DFACE
  8
0
 10
-40.07987594604492
 20
48.93041229248047
 30
152.0
 11
-41.18220138549805
 21
48.999229431152344
 31
152.0
 12
-41.715553283691406
 22
48.94235610961914
 32
152.0
 13
-41.715553283691406
 23
48.94235610961914
 33
152.0
  0
3DFACE
  8
0
 10
-37.884803771972656
 20
48.44243240356445
 30
152.0
 11
-38.71569061279297
 21
48.676387786865234
 31
152.0
 12
-40.07987594604492
 22
48.93041229248047
 32
152.0
 13
-40.07987594604492
 23
48.93041229248047
 33
152.0
  0
3DFACE
  8
0
 10
-36.19917297363281
 20
47.62983322143555
 30
152.0
 11
-36.906978607177734
 21
48.010398864746094
 31
152.0
 12
-37.884803771972656
 22
48.44243240356445
 32
152.0
 13
-37.884803771972656
 23
48.44243240356445
 33
152.0
  0
3DFACE
  8
0
 10
-33.62867736816406
 20
45.05773162841797
 30
152.0
 11
-34.596187591552734
 21
46.2848014831543
 31
152.0
 12
-36.19917297363281
 22
47.62983322143555
 32
152.0
 13
-36.19917297363281
 23
47.62983322143555
 33
152.0
  0
3DFACE
  8
0
 10
-32.839847564697266
 20
43.55849075317383
 30
152.0
 11
-33.03277587890625
 21
43.991451263427734
 31
152.0
 12
-33.62867736816406
 22
45.05773162841797
 32
152.0
 13
-33.62867736816406
 23
45.05773162841797
 33
152.0
  0
3DFACE
  8
0
 10
-32.56041717529297
 20
42.7733039855957
 30
152.0
 11
-32.62041091918945
 21
42.97367477416992
 31
152.0
 12
-32.839847564697266
 22
43.55849075317383
 32
152.0
 13
-32.839847564697266
 23
43.55849075317383
 33
152.0
  0
3DFACE
  8
0
 10
-32.348934173583984
 20
41.16420364379883
 30
152.0
 11
-32.40092849731445
 21
41.73102569580078
 31
152.0
 12
-32.5352897644043
 22
42.590370178222656
 32
152.0
 13
-32.5352897644043
 23
42.590370178222656
 33
152.0
  0
3DFACE
  8
0
 10
-32.5352897644043
 20
42.590370178222656
 30
152.0
 11
-32.56041717529297
 21
42.7733039855957
 31
152.0
 12
-32.839847564697266
 22
43.55849075317383
 32
152.0
 13
-32.839847564697266
 23
43.55849075317383
 33
152.0
  0
3DFACE
  8
0
 10
-32.839847564697266
 20
43.55849075317383
 30
152.0
 11
-33.62867736816406
 21
45.05773162841797
 31
152.0
 12
-36.19917297363281
 22
47.62983322143555
 32
152.0
 13
-36.19917297363281
 23
47.62983322143555
 33
152.0
  0
3DFACE
  8
0
 10
-36.19917297363281
 20
47.62983322143555
 30
152.0
 11
-37.884803771972656
 21
48.44243240356445
 31
152.0
 12
-40.07987594604492
 22
48.93041229248047
 32
152.0
 13
-40.07987594604492
 23
48.93041229248047
 33
152.0
  0
3DFACE
  8
0
 10
-40.07987594604492
 20
48.93041229248047
 30
152.0
 11
-41.715553283691406
 21
48.94235610961914
 31
152.0
 12
-43.58918762207031
 22
48.460968017578125
 32
152.0
 13
-43.58918762207031
 23
48.460968017578125
 33
152.0
  0
3DFACE
  8
0
 10
-43.58918762207031
 20
48.460968017578125
 30
152.0
 11
-45.91968536376953
 21
46.81629180908203
 31
152.0
 12
-47.21869659423828
 22
45.17076110839844
 32
152.0
 13
-47.21869659423828
 23
45.17076110839844
 33
152.0
  0
3DFACE
  8
0
 10
-47.21869659423828
 20
45.17076110839844
 30
152.0
 11
-47.83834457397461
 21
43.875709533691406
 31
152.0
 12
-48.005653381347656
 22
43.45363998413086
 32
152.0
 13
-48.005653381347656
 23
43.45363998413086
 33
152.0
  0
3DFACE
  8
0
 10
-48.005653381347656
 20
43.45363998413086
 30
152.0
 11
-48.199222564697266
 21
42.8768424987793
 31
152.0
 12
-48.2182502746582
 22
42.7691764831543
 32
152.0
 13
-48.2182502746582
 23
42.7691764831543
 33
152.0
  0
3DFACE
  8
0
 10
-48.2182502746582
 20
42.7691764831543
 30
152.0
 11
-48.30746841430664
 21
42.217777252197266
 31
152.0
 12
-48.32788848876953
 22
41.968753814697266
 32
152.0
 13
-48.32788848876953
 23
41.968753814697266
 33
152.0
  0
3DFACE
  8
0
 10
-48.332332611083984
 20
41.42952346801758
 30
152.0
 11
-48.34788513183594
 21
41.16419982910156
 31
152.0
 12
-48.323760986328125
 22
40.88468551635742
 32
152.0
 13
-48.323760986328125
 23
40.88468551635742
 33
152.0
  0
3DFACE
  8
0
 10
-48.2182502746582
 20
42.7691764831543
 30
152.0
 11
-48.32788848876953
 21
41.968753814697266
 31
152.0
 12
-48.332332611083984
 22
41.42952346801758
 32
152.0
 13
-48.332332611083984
 23
41.42952346801758
 33
152.0
  0
3DFACE
  8
0
 10
-47.21869659423828
 20
45.17076110839844
 30
152.0
 11
-48.005653381347656
 21
43.45363998413086
 31
152.0
 12
-48.2182502746582
 22
42.7691764831543
 32
152.0
 13
-48.2182502746582
 23
42.7691764831543
 33
152.0
  0
3DFACE
  8
0
 10
-40.07987594604492
 20
48.93041229248047
 30
152.0
 11
-43.58918762207031
 21
48.460968017578125
 31
152.0
 12
-47.21869659423828
 22
45.17076110839844
 32
152.0
 13
-47.21869659423828
 23
45.17076110839844
 33
152.0
  0
3DFACE
  8
0
 10
-32.839847564697266
 20
43.55849075317383
 30
152.0
 11
-36.19917297363281
 21
47.62983322143555
 31
152.0
 12
-40.07987594604492
 22
48.93041229248047
 32
152.0
 13
-40.07987594604492
 23
48.93041229248047
 33
152.0
  0
3DFACE
  8
0
 10
-32.348934173583984
 20
41.16420364379883
 30
152.0
 11
-32.5352897644043
 21
42.590370178222656
 31
152.0
 12
-32.839847564697266
 22
43.55849075317383
 32
152.0
 13
-32.839847564697266
 23
43.55849075317383
 33
152.0
  0
3DFACE
  8
0
 10
-32.37701416015625
 20
40.26639175415039
 30
152.0
 11
-32.34956741333008
 21
40.935935974121094
 31
152.0
 12
-32.348934173583984
 22
41.16420364379883
 32
152.0
 13
-32.348934173583984
 23
41.16420364379883
 33
152.0
  0
3DFACE
  8
0
 10
-32.4682502746582
 20
39.548770904541016
 30
152.0
 11
-32.45164489746094
 21
39.61308288574219
 31
152.0
 12
-32.37701416015625
 22
40.26639175415039
 32
152.0
 13
-32.37701416015625
 23
40.26639175415039
 33
152.0
  0
3DFACE
  8
0
 10
-32.81245040893555
 20
38.273109436035156
 30
152.0
 11
-32.608253479003906
 21
38.936710357666016
 31
152.0
 12
-32.4682502746582
 22
39.548770904541016
 32
152.0
 13
-32.4682502746582
 23
39.548770904541016
 33
152.0
  0
3DFACE
  8
0
 10
-33.0355339050293
 20
37.63642501831055
 30
152.0
 11
-32.90607452392578
 21
37.94599914550781
 31
152.0
 12
-32.81245040893555
 22
38.273109436035156
 32
152.0
 13
-32.81245040893555
 23
38.273109436035156
 33
152.0
  0
3DFACE
  8
0
 10
-33.73196792602539
 20
36.38510513305664
 30
152.0
 11
-33.314697265625
 21
37.082393646240234
 31
152.0
 12
-33.0355339050293
 22
37.63642501831055
 32
152.0
 13
-33.0355339050293
 23
37.63642501831055
 33
152.0
  0
3DFACE
  8
0
 10
-33.786617279052734
 20
36.30051803588867
 30
152.0
 11
-33.7590446472168
 21
36.336891174316406
 31
152.0
 12
-33.73196792602539
 22
36.38510513305664
 32
152.0
 13
-33.73196792602539
 23
36.38510513305664
 33
152.0
  0
3DFACE
  8
0
 10
-34.54512023925781
 20
35.48719024658203
 30
152.0
 11
-34.496429443359375
 21
35.53594207763672
 31
152.0
 12
-33.786617279052734
 22
36.30051803588867
 32
152.0
 13
-33.786617279052734
 23
36.30051803588867
 33
152.0
  0
3DFACE
  8
0
 10
-35.48995590209961
 20
34.72780227661133
 30
152.0
 11
-35.3157958984375
 21
34.849796295166016
 31
152.0
 12
-34.54512023925781
 22
35.48719024658203
 32
152.0
 13
-34.54512023925781
 23
35.48719024658203
 33
152.0
  0
3DFACE
  8
0
 10
-36.80709457397461
 20
34.05266571044922
 30
152.0
 11
-36.096656799316406
 21
34.35985565185547
 31
152.0
 12
-35.48995590209961
 22
34.72780227661133
 32
152.0
 13
-35.48995590209961
 23
34.72780227661133
 33
152.0
  0
3DFACE
  8
0
 10
-37.121036529541016
 20
33.914920806884766
 30
152.0
 11
-36.92970275878906
 21
33.99063491821289
 31
152.0
 12
-36.80709457397461
 22
34.05266571044922
 32
152.0
 13
-36.80709457397461
 23
34.05266571044922
 33
152.0
  0
3DFACE
  8
0
 10
-37.891685485839844
 20
33.667694091796875
 30
152.0
 11
-37.68069839477539
 21
33.70280075073242
 31
152.0
 12
-37.121036529541016
 22
33.914920806884766
 32
152.0
 13
-37.121036529541016
 23
33.914920806884766
 33
152.0
  0
3DFACE
  8
0
 10
-38.90159225463867
 20
33.502891540527344
 30
152.0
 11
-38.4837760925293
 21
33.53424835205078
 31
152.0
 12
-37.891685485839844
 22
33.667694091796875
 32
152.0
 13
-37.891685485839844
 23
33.667694091796875
 33
152.0
  0
3DFACE
  8
0
 10
-40.024742126464844
 20
33.40342330932617
 30
152.0
 11
-39.29188537597656
 21
33.43840026855469
 31
152.0
 12
-38.90159225463867
 22
33.502891540527344
 32
152.0
 13
-38.90159225463867
 23
33.502891540527344
 33
152.0
  0
3DFACE
  8
0
 10
-40.31940460205078
 20
33.408660888671875
 30
152.0
 11
-40.10985565185547
 21
33.39632797241211
 31
152.0
 12
-40.024742126464844
 22
33.40342330932617
 32
152.0
 13
-40.024742126464844
 23
33.40342330932617
 33
152.0
  0
3DFACE
  8
0
 10
-41.75164794921875
 20
33.66370391845703
 30
152.0
 11
-40.89399337768555
 21
33.47184753417969
 31
152.0
 12
-40.31940460205078
 22
33.408660888671875
 32
152.0
 13
-40.31940460205078
 23
33.408660888671875
 33
152.0
  0
3DFACE
  8
0
 10
-42.68415069580078
 20
33.9247932434082
 30
152.0
 11
-42.63066101074219
 21
33.90742111206055
 31
152.0
 12
-42.59856414794922
 22
33.90003204345703
 32
152.0
 13
-42.59856414794922
 23
33.90003204345703
 33
152.0
  0
3DFACE
  8
0
 10
-42.59856414794922
 20
33.90003204345703
 30
152.0
 11
-41.75164794921875
 21
33.66370391845703
 31
152.0
 12
-40.31940460205078
 22
33.408660888671875
 32
152.0
 13
-40.31940460205078
 23
33.408660888671875
 33
152.0
  0
3DFACE
  8
0
 10
-40.31940460205078
 20
33.408660888671875
 30
152.0
 11
-40.024742126464844
 21
33.40342330932617
 31
152.0
 12
-38.90159225463867
 22
33.502891540527344
 32
152.0
 13
-38.90159225463867
 23
33.502891540527344
 33
152.0
  0
3DFACE
  8
0
 10
-38.90159225463867
 20
33.502891540527344
 30
152.0
 11
-37.891685485839844
 21
33.667694091796875
 31
152.0
 12
-37.121036529541016
 22
33.914920806884766
 32
152.0
 13
-37.121036529541016
 23
33.914920806884766
 33
152.0
  0
3DFACE
  8
0
 10
-37.121036529541016
 20
33.914920806884766
 30
152.0
 11
-36.80709457397461
 21
34.05266571044922
 31
152.0
 12
-35.48995590209961
 22
34.72780227661133
 32
152.0
 13
-35.48995590209961
 23
34.72780227661133
 33
152.0
  0
3DFACE
  8
0
 10
-35.48995590209961
 20
34.72780227661133
 30
152.0
 11
-34.54512023925781
 21
35.48719024658203
 31
152.0
 12
-33.786617279052734
 22
36.30051803588867
 32
152.0
 13
-33.786617279052734
 23
36.30051803588867
 33
152.0
  0
3DFACE
  8
0
 10
-33.786617279052734
 20
36.30051803588867
 30
152.0
 11
-33.73196792602539
 21
36.38510513305664
 31
152.0
 12
-33.0355339050293
 22
37.63642501831055
 32
152.0
 13
-33.0355339050293
 23
37.63642501831055
 33
152.0
  0
3DFACE
  8
0
 10
-33.0355339050293
 20
37.63642501831055
 30
152.0
 11
-32.81245040893555
 21
38.273109436035156
 31
152.0
 12
-32.4682502746582
 22
39.548770904541016
 32
152.0
 13
-32.4682502746582
 23
39.548770904541016
 33
152.0
  0
3DFACE
  8
0
 10
-32.4682502746582
 20
39.548770904541016
 30
152.0
 11
-32.37701416015625
 21
40.26639175415039
 31
152.0
 12
-32.348934173583984
 22
41.16420364379883
 32
152.0
 13
-32.348934173583984
 23
41.16420364379883
 33
152.0
  0
3DFACE
  8
0
 10
-32.348934173583984
 20
41.16420364379883
 30
152.0
 11
-32.839847564697266
 21
43.55849075317383
 31
152.0
 12
-40.07987594604492
 22
48.93041229248047
 32
152.0
 13
-40.07987594604492
 23
48.93041229248047
 33
152.0
  0
3DFACE
  8
0
 10
-40.07987594604492
 20
48.93041229248047
 30
152.0
 11
-47.21869659423828
 21
45.17076110839844
 31
152.0
 12
-48.2182502746582
 22
42.7691764831543
 32
152.0
 13
-48.2182502746582
 23
42.7691764831543
 33
152.0
  0
3DFACE
  8
0
 10
-48.2182502746582
 20
42.7691764831543
 30
152.0
 11
-48.332332611083984
 21
41.42952346801758
 31
152.0
 12
-48.323760986328125
 22
40.88468551635742
 32
152.0
 13
-48.323760986328125
 23
40.88468551635742
 33
152.0
  0
3DFACE
  8
0
 10
-48.29661560058594
 20
40.64463806152344
 30
152.0
 11
-48.2635383605957
 21
40.283016204833984
 31
152.0
 12
-48.14957046508789
 22
39.70024490356445
 32
152.0
 13
-48.14957046508789
 23
39.70024490356445
 33
152.0
  0
3DFACE
  8
0
 10
-48.2182502746582
 20
42.7691764831543
 30
152.0
 11
-48.323760986328125
 21
40.88468551635742
 31
152.0
 12
-48.29661560058594
 22
40.64463806152344
 32
152.0
 13
-48.29661560058594
 23
40.64463806152344
 33
152.0
  0
3DFACE
  8
0
 10
-32.348934173583984
 20
41.16420364379883
 30
152.0
 11
-40.07987594604492
 21
48.93041229248047
 31
152.0
 12
-48.2182502746582
 22
42.7691764831543
 32
152.0
 13
-48.2182502746582
 23
42.7691764831543
 33
152.0
  0
3DFACE
  8
0
 10
-33.0355339050293
 20
37.63642501831055
 30
152.0
 11
-32.4682502746582
 21
39.548770904541016
 31
152.0
 12
-32.348934173583984
 22
41.16420364379883
 32
152.0
 13
-32.348934173583984
 23
41.16420364379883
 33
152.0
  0
3DFACE
  8
0
 10
-35.48995590209961
 20
34.72780227661133
 30
152.0
 11
-33.786617279052734
 21
36.30051803588867
 31
152.0
 12
-33.0355339050293
 22
37.63642501831055
 32
152.0
 13
-33.0355339050293
 23
37.63642501831055
 33
152.0
  0
3DFACE
  8
0
 10
-38.90159225463867
 20
33.502891540527344
 30
152.0
 11
-37.121036529541016
 21
33.914920806884766
 31
152.0
 12
-35.48995590209961
 22
34.72780227661133
 32
152.0
 13
-35.48995590209961
 23
34.72780227661133
 33
152.0
  0
3DFACE
  8
0
 10
-42.59856414794922
 20
33.90003204345703
 30
152.0
 11
-40.31940460205078
 21
33.408660888671875
 31
152.0
 12
-38.90159225463867
 22
33.502891540527344
 32
152.0
 13
-38.90159225463867
 23
33.502891540527344
 33
152.0
  0
3DFACE
  8
0
 10
-43.41884231567383
 20
34.209747314453125
 30
152.0
 11
-42.68415069580078
 21
33.9247932434082
 31
152.0
 12
-42.59856414794922
 22
33.90003204345703
 32
152.0
 13
-42.59856414794922
 23
33.90003204345703
 33
152.0
  0
3DFACE
  8
0
 10
-44.68142318725586
 20
34.89741134643555
 30
152.0
 11
-43.80072021484375
 21
34.40754318237305
 31
152.0
 12
-43.41884231567383
 22
34.209747314453125
 32
152.0
 13
-43.41884231567383
 23
34.209747314453125
 33
152.0
  0
3DFACE
  8
0
 10
-45.21736526489258
 20
35.27660369873047
 30
152.0
 11
-45.1155891418457
 21
35.183170318603516
 31
152.0
 12
-44.68142318725586
 22
34.89741134643555
 32
152.0
 13
-44.68142318725586
 23
34.89741134643555
 33
152.0
  0
3DFACE
  8
0
 10
-46.341644287109375
 20
36.28901290893555
 30
152.0
 11
-45.98279571533203
 21
35.942466735839844
 31
152.0
 12
-45.21736526489258
 22
35.27660369873047
 32
152.0
 13
-45.21736526489258
 23
35.27660369873047
 33
152.0
  0
3DFACE
  8
0
 10
-46.42436218261719
 20
36.38872146606445
 30
152.0
 11
-46.385074615478516
 21
36.33598709106445
 31
152.0
 12
-46.341644287109375
 22
36.28901290893555
 32
152.0
 13
-46.341644287109375
 23
36.28901290893555
 33
152.0
  0
3DFACE
  8
0
 10
-47.196842193603516
 20
37.420867919921875
 30
152.0
 11
-46.86763000488281
 21
36.95659255981445
 31
152.0
 12
-46.42436218261719
 22
36.38872146606445
 32
152.0
 13
-46.42436218261719
 23
36.38872146606445
 33
152.0
  0
3DFACE
  8
0
 10
-47.60380554199219
 20
38.17490005493164
 30
152.0
 11
-47.226463317871094
 21
37.467857360839844
 31
152.0
 12
-47.196842193603516
 22
37.420867919921875
 32
152.0
 13
-47.196842193603516
 23
37.420867919921875
 33
152.0
  0
3DFACE
  8
0
 10
-47.866817474365234
 20
38.75054931640625
 30
152.0
 11
-47.8131217956543
 21
38.59334945678711
 31
152.0
 12
-47.60380554199219
 22
38.17490005493164
 32
152.0
 13
-47.60380554199219
 23
38.17490005493164
 33
152.0
  0
3DFACE
  8
0
 10
-48.14957046508789
 20
39.70024490356445
 30
152.0
 11
-48.114437103271484
 21
39.571136474609375
 31
152.0
 12
-47.96171951293945
 22
39.07914352416992
 32
152.0
 13
-47.96171951293945
 23
39.07914352416992
 33
152.0
  0
3DFACE
  8
0
 10
-47.96171951293945
 20
39.07914352416992
 30
152.0
 11
-47.866817474365234
 21
38.75054931640625
 31
152.0
 12
-47.60380554199219
 22
38.17490005493164
 32
152.0
 13
-47.60380554199219
 23
38.17490005493164
 33
152.0
  0
3DFACE
  8
0
 10
-47.60380554199219
 20
38.17490005493164
 30
152.0
 11
-47.196842193603516
 21
37.420867919921875
 31
152.0
 12
-46.42436218261719
 22
36.38872146606445
 32
152.0
 13
-46.42436218261719
 23
36.38872146606445
 33
152.0
  0
3DFACE
  8
0
 10
-46.42436218261719
 20
36.38872146606445
 30
152.0
 11
-46.341644287109375
 21
36.28901290893555
 31
152.0
 12
-45.21736526489258
 22
35.27660369873047
 32
152.0
 13
-45.21736526489258
 23
35.27660369873047
 33
152.0
  0
3DFACE
  8
0
 10
-45.21736526489258
 20
35.27660369873047
 30
152.0
 11
-44.68142318725586
 21
34.89741134643555
 31
152.0
 12
-43.41884231567383
 22
34.209747314453125
 32
152.0
 13
-43.41884231567383
 23
34.209747314453125
 33
152.0
  0
3DFACE
  8
0
 10
-43.41884231567383
 20
34.209747314453125
 30
152.0
 11
-42.59856414794922
 21
33.90003204345703
 31
152.0
 12
-38.90159225463867
 22
33.502891540527344
 32
152.0
 13
-38.90159225463867
 23
33.502891540527344
 33
152.0
  0
3DFACE
  8
0
 10
-38.90159225463867
 20
33.502891540527344
 30
152.0
 11
-35.48995590209961
 21
34.72780227661133
 31
152.0
 12
-33.0355339050293
 22
37.63642501831055
 32
152.0
 13
-33.0355339050293
 23
37.63642501831055
 33
152.0
  0
3DFACE
  8
0
 10
-33.0355339050293
 20
37.63642501831055
 30
152.0
 11
-32.348934173583984
 21
41.16420364379883
 31
152.0
 12
-48.2182502746582
 22
42.7691764831543
 32
152.0
 13
-48.2182502746582
 23
42.7691764831543
 33
152.0
  0
3DFACE
  8
0
 10
-48.2182502746582
 20
42.7691764831543
 30
152.0
 11
-48.29661560058594
 21
40.64463806152344
 31
152.0
 12
-48.14957046508789
 22
39.70024490356445
 32
152.0
 13
-48.14957046508789
 23
39.70024490356445
 33
152.0
  0
3DFACE
  8
0
 10
-48.14957046508789
 20
39.70024490356445
 30
152.0
 11
-47.96171951293945
 21
39.07914352416992
 31
152.0
 12
-47.60380554199219
 22
38.17490005493164
 32
152.0
 13
-47.60380554199219
 23
38.17490005493164
 33
152.0
  0
3DFACE
  8
0
 10
-47.60380554199219
 20
38.17490005493164
 30
152.0
 11
-46.42436218261719
 21
36.38872146606445
 31
152.0
 12
-45.21736526489258
 22
35.27660369873047
 32
152.0
 13
-45.21736526489258
 23
35.27660369873047
 33
152.0
  0
3DFACE
  8
0
 10
-45.21736526489258
 20
35.27660369873047
 30
152.0
 11
-43.41884231567383
 21
34.209747314453125
 31
152.0
 12
-38.90159225463867
 22
33.502891540527344
 32
152.0
 13
-38.90159225463867
 23
33.502891540527344
 33
152.0
  0
3DFACE
  8
0
 10
-38.90159225463867
 20
33.502891540527344
 30
152.0
 11
-33.0355339050293
 21
37.63642501831055
 31
152.0
 12
-48.2182502746582
 22
42.7691764831543
 32
152.0
 13
-48.2182502746582
 23
42.7691764831543
 33
152.0
  0
3DFACE
  8
0
 10
-48.2182502746582
 20
42.7691764831543
 30
152.0
 11
-48.14957046508789
 21
39.70024490356445
 31
152.0
 12
-47.60380554199219
 22
38.17490005493164
 32
152.0
 13
-47.60380554199219
 23
38.17490005493164
 33
152.0
  0
3DFACE
  8
0
 10
-47.60380554199219
 20
38.17490005493164
 30
152.0
 11
-45.21736526489258
 21
35.27660369873047
 31
152.0
 12
-38.90159225463867
 22
33.502891540527344
 32
152.0
 13
-38.90159225463867
 23
33.502891540527344
 33
152.0
  0
3DFACE
  8
0
 10
-48.2182502746582
 20
42.7691764831543
 30
152.0
 11
-47.60380554199219
 21
38.17490005493164
 31
152.0
 12
-38.90159225463867
 22
33.502891540527344
 32
152.0
 13
-38.90159225463867
 23
33.502891540527344
 33
152.0
  0
3DFACE
  8
0
 10
35.825565338134766
 20
51.03136444091797
 30
152.0
 11
35.96068572998047
 21
51.763675689697266
 31
152.0
 12
35.96564865112305
 22
51.8002815246582
 32
152.0
 13
35.96564865112305
 23
51.8002815246582
 33
152.0
  0
3DFACE
  8
0
 10
35.96564865112305
 20
51.8002815246582
 30
152.0
 11
36.023521423339844
 21
52.38755416870117
 31
152.0
 12
36.007259368896484
 22
52.60563278198242
 32
152.0
 13
36.007259368896484
 23
52.60563278198242
 33
152.0
  0
3DFACE
  8
0
 10
36.007259368896484
 20
52.60563278198242
 30
152.0
 11
36.02662658691406
 21
53.10744094848633
 31
152.0
 12
35.98363494873047
 22
53.39277267456055
 32
152.0
 13
35.98363494873047
 23
53.39277267456055
 33
152.0
  0
3DFACE
  8
0
 10
35.873600006103516
 20
53.877742767333984
 30
152.0
 11
35.83073425292969
 21
54.17991256713867
 31
152.0
 12
35.59810256958008
 22
54.82241439819336
 32
152.0
 13
35.59810256958008
 23
54.82241439819336
 33
152.0
  0
3DFACE
  8
0
 10
36.007259368896484
 20
52.60563278198242
 30
152.0
 11
35.98363494873047
 21
53.39277267456055
 31
152.0
 12
35.873600006103516
 22
53.877742767333984
 32
152.0
 13
35.873600006103516
 23
53.877742767333984
 33
152.0
  0
3DFACE
  8
0
 10
35.825565338134766
 20
51.03136444091797
 30
152.0
 11
35.96564865112305
 21
51.8002815246582
 31
152.0
 12
36.007259368896484
 22
52.60563278198242
 32
152.0
 13
36.007259368896484
 23
52.60563278198242
 33
152.0
  0
3DFACE
  8
0
 10
35.56132125854492
 20
50.285133361816406
 30
152.0
 11
35.73674011230469
 21
50.77275466918945
 31
152.0
 12
35.825565338134766
 22
51.03136444091797
 32
152.0
 13
35.825565338134766
 23
51.03136444091797
 33
152.0
  0
3DFACE
  8
0
 10
35.01131820678711
 20
48.99053955078125
 30
152.0
 11
35.245723724365234
 21
49.45708465576172
 31
152.0
 12
35.33409881591797
 22
49.7293586730957
 32
152.0
 13
35.33409881591797
 23
49.7293586730957
 33
152.0
  0
3DFACE
  8
0
 10
35.33409881591797
 20
49.7293586730957
 30
152.0
 11
35.56132125854492
 21
50.285133361816406
 31
152.0
 12
35.825565338134766
 22
51.03136444091797
 32
152.0
 13
35.825565338134766
 23
51.03136444091797
 33
152.0
  0
3DFACE
  8
0
 10
35.825565338134766
 20
51.03136444091797
 30
152.0
 11
36.007259368896484
 21
52.60563278198242
 31
152.0
 12
35.873600006103516
 22
53.877742767333984
 32
152.0
 13
35.873600006103516
 23
53.877742767333984
 33
152.0
  0
3DFACE
  8
0
 10
35.873600006103516
 20
53.877742767333984
 30
152.0
 11
35.59810256958008
 21
54.82241439819336
 31
152.0
 12
35.53413391113281
 22
54.967041015625
 32
152.0
 13
35.53413391113281
 23
54.967041015625
 33
152.0
  0
3DFACE
  8
0
 10
35.45178985595703
 20
55.1148796081543
 30
152.0
 11
35.13340377807617
 21
55.715850830078125
 31
152.0
 12
34.87126922607422
 22
56.12261962890625
 32
152.0
 13
34.87126922607422
 23
56.12261962890625
 33
152.0
  0
3DFACE
  8
0
 10
35.873600006103516
 20
53.877742767333984
 30
152.0
 11
35.53413391113281
 21
54.967041015625
 31
152.0
 12
35.45178985595703
 22
55.1148796081543
 32
152.0
 13
35.45178985595703
 23
55.1148796081543
 33
152.0
  0
3DFACE
  8
0
 10
35.33409881591797
 20
49.7293586730957
 30
152.0
 11
35.825565338134766
 21
51.03136444091797
 31
152.0
 12
35.873600006103516
 22
53.877742767333984
 32
152.0
 13
35.873600006103516
 23
53.877742767333984
 33
152.0
  0
3DFACE
  8
0
 10
34.820186614990234
 20
48.66994857788086
 30
152.0
 11
35.01131820678711
 21
48.99053955078125
 31
152.0
 12
35.33409881591797
 22
49.7293586730957
 32
152.0
 13
35.33409881591797
 23
49.7293586730957
 33
152.0
  0
3DFACE
  8
0
 10
33.74052429199219
 20
47.38532257080078
 30
152.0
 11
34.20689010620117
 21
47.8828125
 31
152.0
 12
34.652992248535156
 22
48.4647331237793
 32
152.0
 13
34.652992248535156
 23
48.4647331237793
 33
152.0
  0
3DFACE
  8
0
 10
34.652992248535156
 20
48.4647331237793
 30
152.0
 11
34.820186614990234
 21
48.66994857788086
 31
152.0
 12
35.33409881591797
 22
49.7293586730957
 32
152.0
 13
35.33409881591797
 23
49.7293586730957
 33
152.0
  0
3DFACE
  8
0
 10
35.33409881591797
 20
49.7293586730957
 30
152.0
 11
35.873600006103516
 21
53.877742767333984
 31
152.0
 12
35.45178985595703
 22
55.1148796081543
 32
152.0
 13
35.45178985595703
 23
55.1148796081543
 33
152.0
  0
3DFACE
  8
0
 10
35.45178985595703
 20
55.1148796081543
 30
152.0
 11
34.87126922607422
 21
56.12261962890625
 31
152.0
 12
34.54067611694336
 22
56.541324615478516
 32
152.0
 13
34.54067611694336
 23
56.541324615478516
 33
152.0
  0
3DFACE
  8
0
 10
34.54067611694336
 20
56.541324615478516
 30
152.0
 11
34.14359664916992
 21
56.987403869628906
 31
152.0
 12
33.783695220947266
 22
57.28255081176758
 32
152.0
 13
33.783695220947266
 23
57.28255081176758
 33
152.0
  0
3DFACE
  8
0
 10
33.783695220947266
 20
57.28255081176758
 30
152.0
 11
33.36173629760742
 21
57.58540344238281
 31
152.0
 12
32.87333679199219
 22
57.786590576171875
 32
152.0
 13
32.87333679199219
 23
57.786590576171875
 33
152.0
  0
3DFACE
  8
0
 10
32.87333679199219
 20
57.786590576171875
 30
152.0
 11
32.58814239501953
 21
57.93301773071289
 31
152.0
 12
32.4484748840332
 22
57.96660232543945
 32
152.0
 13
32.4484748840332
 23
57.96660232543945
 33
152.0
  0
3DFACE
  8
0
 10
32.4484748840332
 20
57.96660232543945
 30
152.0
 11
31.80423927307129
 21
58.07087707519531
 31
152.0
 12
31.156391143798828
 22
58.02377700805664
 32
152.0
 13
31.156391143798828
 23
58.02377700805664
 33
152.0
  0
3DFACE
  8
0
 10
31.156391143798828
 20
58.02377700805664
 30
152.0
 11
31.011165618896484
 21
58.02202606201172
 31
152.0
 12
30.82026481628418
 22
57.984432220458984
 32
152.0
 13
30.82026481628418
 23
57.984432220458984
 33
152.0
  0
3DFACE
  8
0
 10
30.82026481628418
 20
57.984432220458984
 30
152.0
 11
30.21210479736328
 21
57.850852966308594
 31
152.0
 12
29.882389068603516
 22
57.732879638671875
 32
152.0
 13
29.882389068603516
 23
57.732879638671875
 33
152.0
  0
3DFACE
  8
0
 10
29.882389068603516
 20
57.732879638671875
 30
152.0
 11
29.3990478515625
 21
57.52450942993164
 31
152.0
 12
28.90421485900879
 22
57.2806282043457
 32
152.0
 13
28.90421485900879
 23
57.2806282043457
 33
152.0
  0
3DFACE
  8
0
 10
28.90421485900879
 20
57.2806282043457
 30
152.0
 11
28.585477828979492
 21
57.13656997680664
 31
152.0
 12
28.006668090820312
 22
56.71480178833008
 32
152.0
 13
28.006668090820312
 23
56.71480178833008
 33
152.0
  0
3DFACE
  8
0
 10
28.006668090820312
 20
56.71480178833008
 30
152.0
 11
27.776161193847656
 21
56.53822708129883
 31
152.0
 12
27.723913192749023
 22
56.47239303588867
 32
152.0
 13
27.723913192749023
 23
56.47239303588867
 33
152.0
  0
3DFACE
  8
0
 10
27.723913192749023
 20
56.47239303588867
 30
152.0
 11
27.393436431884766
 21
56.07251739501953
 31
152.0
 12
27.152591705322266
 22
55.71962356567383
 32
152.0
 13
27.152591705322266
 23
55.71962356567383
 33
152.0
  0
3DFACE
  8
0
 10
27.152591705322266
 20
55.71962356567383
 30
152.0
 11
26.95255470275879
 21
55.461891174316406
 31
152.0
 12
26.66036033630371
 22
54.91130447387695
 32
152.0
 13
26.66036033630371
 23
54.91130447387695
 33
152.0
  0
3DFACE
  8
0
 10
26.66036033630371
 20
54.91130447387695
 30
152.0
 11
26.584518432617188
 21
54.72871017456055
 31
152.0
 12
26.42197608947754
 22
54.30591583251953
 32
152.0
 13
26.42197608947754
 23
54.30591583251953
 33
152.0
  0
3DFACE
  8
0
 10
26.42197608947754
 20
54.30591583251953
 30
152.0
 11
26.382314682006836
 21
54.179908752441406
 31
152.0
 12
26.238140106201172
 22
53.689971923828125
 32
152.0
 13
26.238140106201172
 23
53.689971923828125
 33
152.0
  0
3DFACE
  8
0
 10
26.238140106201172
 20
53.689971923828125
 30
152.0
 11
26.116689682006836
 21
53.06195068359375
 31
152.0
 12
26.0711612701416
 22
52.60563278198242
 32
152.0
 13
26.0711612701416
 23
52.60563278198242
 33
152.0
  0
3DFACE
  8
0
 10
26.0206241607666
 20
51.88105010986328
 30
152.0
 11
26.01275062561035
 21
51.8184928894043
 31
152.0
 12
26.016372680664062
 22
51.58531951904297
 32
152.0
 13
26.016372680664062
 23
51.58531951904297
 33
152.0
  0
3DFACE
  8
0
 10
26.238140106201172
 20
53.689971923828125
 30
152.0
 11
26.0711612701416
 21
52.60563278198242
 31
152.0
 12
26.0206241607666
 22
51.88105010986328
 32
152.0
 13
26.0206241607666
 23
51.88105010986328
 33
152.0
  0
3DFACE
  8
0
 10
26.66036033630371
 20
54.91130447387695
 30
152.0
 11
26.42197608947754
 21
54.30591583251953
 31
152.0
 12
26.238140106201172
 22
53.689971923828125
 32
152.0
 13
26.238140106201172
 23
53.689971923828125
 33
152.0
  0
3DFACE
  8
0
 10
27.723913192749023
 20
56.47239303588867
 30
152.0
 11
27.152591705322266
 21
55.71962356567383
 31
152.0
 12
26.66036033630371
 22
54.91130447387695
 32
152.0
 13
26.66036033630371
 23
54.91130447387695
 33
152.0
  0
3DFACE
  8
0
 10
28.90421485900879
 20
57.2806282043457
 30
152.0
 11
28.006668090820312
 21
56.71480178833008
 31
152.0
 12
27.723913192749023
 22
56.47239303588867
 32
152.0
 13
27.723913192749023
 23
56.47239303588867
 33
152.0
  0
3DFACE
  8
0
 10
30.82026481628418
 20
57.984432220458984
 30
152.0
 11
29.882389068603516
 21
57.732879638671875
 31
152.0
 12
28.90421485900879
 22
57.2806282043457
 32
152.0
 13
28.90421485900879
 23
57.2806282043457
 33
152.0
  0
3DFACE
  8
0
 10
32.4484748840332
 20
57.96660232543945
 30
152.0
 11
31.156391143798828
 21
58.02377700805664
 31
152.0
 12
30.82026481628418
 22
57.984432220458984
 32
152.0
 13
30.82026481628418
 23
57.984432220458984
 33
152.0
  0
3DFACE
  8
0
 10
33.783695220947266
 20
57.28255081176758
 30
152.0
 11
32.87333679199219
 21
57.786590576171875
 31
152.0
 12
32.4484748840332
 22
57.96660232543945
 32
152.0
 13
32.4484748840332
 23
57.96660232543945
 33
152.0
  0
3DFACE
  8
0
 10
35.45178985595703
 20
55.1148796081543
 30
152.0
 11
34.54067611694336
 21
56.541324615478516
 31
152.0
 12
33.783695220947266
 22
57.28255081176758
 32
152.0
 13
33.783695220947266
 23
57.28255081176758
 33
152.0
  0
3DFACE
  8
0
 10
34.652992248535156
 20
48.4647331237793
 30
152.0
 11
35.33409881591797
 21
49.7293586730957
 31
152.0
 12
35.45178985595703
 22
55.1148796081543
 32
152.0
 13
35.45178985595703
 23
55.1148796081543
 33
152.0
  0
3DFACE
  8
0
 10
33.458614349365234
 20
47.09705352783203
 30
152.0
 11
33.639366149902344
 21
47.25994873046875
 31
152.0
 12
33.74052429199219
 22
47.38532257080078
 32
152.0
 13
33.74052429199219
 23
47.38532257080078
 33
152.0
  0
3DFACE
  8
0
 10
33.74052429199219
 20
47.38532257080078
 30
152.0
 11
34.652992248535156
 21
48.4647331237793
 31
152.0
 12
35.45178985595703
 22
55.1148796081543
 32
152.0
 13
35.45178985595703
 23
55.1148796081543
 33
152.0
  0
3DFACE
  8
0
 10
35.45178985595703
 20
55.1148796081543
 30
152.0
 11
33.783695220947266
 21
57.28255081176758
 31
152.0
 12
32.4484748840332
 22
57.96660232543945
 32
152.0
 13
32.4484748840332
 23
57.96660232543945
 33
152.0
  0
3DFACE
  8
0
 10
32.4484748840332
 20
57.96660232543945
 30
152.0
 11
30.82026481628418
 21
57.984432220458984
 31
152.0
 12
28.90421485900879
 22
57.2806282043457
 32
152.0
 13
28.90421485900879
 23
57.2806282043457
 33
152.0
  0
3DFACE
  8
0
 10
28.90421485900879
 20
57.2806282043457
 30
152.0
 11
27.723913192749023
 21
56.47239303588867
 31
152.0
 12
26.66036033630371
 22
54.91130447387695
 32
152.0
 13
26.66036033630371
 23
54.91130447387695
 33
152.0
  0
3DFACE
  8
0
 10
26.66036033630371
 20
54.91130447387695
 30
152.0
 11
26.238140106201172
 21
53.689971923828125
 31
152.0
 12
26.0206241607666
 22
51.88105010986328
 32
152.0
 13
26.0206241607666
 23
51.88105010986328
 33
152.0
  0
3DFACE
  8
0
 10
26.0206241607666
 20
51.88105010986328
 30
152.0
 11
26.016372680664062
 21
51.58531951904297
 31
152.0
 12
26.032150268554688
 22
51.12376403808594
 32
152.0
 13
26.032150268554688
 23
51.12376403808594
 33
152.0
  0
3DFACE
  8
0
 10
26.032150268554688
 20
51.12376403808594
 30
152.0
 11
26.141338348388672
 21
50.45111846923828
 31
152.0
 12
26.195161819458008
 22
50.24422073364258
 32
152.0
 13
26.195161819458008
 23
50.24422073364258
 33
152.0
  0
3DFACE
  8
0
 10
26.195161819458008
 20
50.24422073364258
 30
152.0
 11
26.2913875579834
 21
49.770572662353516
 31
152.0
 12
26.405284881591797
 22
49.47629165649414
 32
152.0
 13
26.405284881591797
 23
49.47629165649414
 33
152.0
  0
3DFACE
  8
0
 10
26.405284881591797
 20
49.47629165649414
 30
152.0
 11
26.61093521118164
 21
48.91877365112305
 31
152.0
 12
26.730512619018555
 22
48.66993713378906
 32
152.0
 13
26.730512619018555
 23
48.66993713378906
 33
152.0
  0
3DFACE
  8
0
 10
26.730512619018555
 20
48.66993713378906
 30
152.0
 11
27.214557647705078
 21
47.82799530029297
 31
152.0
 12
27.356693267822266
 22
47.59699630737305
 32
152.0
 13
27.356693267822266
 23
47.59699630737305
 33
152.0
  0
3DFACE
  8
0
 10
27.356693267822266
 20
47.59699630737305
 30
152.0
 11
27.567066192626953
 21
47.298500061035156
 31
152.0
 12
27.825973510742188
 22
46.98693084716797
 32
152.0
 13
27.825973510742188
 23
46.98693084716797
 33
152.0
  0
3DFACE
  8
0
 10
27.825973510742188
 20
46.98693084716797
 30
152.0
 11
28.082815170288086
 21
46.68925476074219
 31
152.0
 12
28.60504722595215
 22
46.28923797607422
 32
152.0
 13
28.60504722595215
 23
46.28923797607422
 33
152.0
  0
3DFACE
  8
0
 10
28.60504722595215
 20
46.28923797607422
 30
152.0
 11
28.845561981201172
 21
46.12052536010742
 31
152.0
 12
29.266407012939453
 22
45.96207046508789
 32
152.0
 13
29.266407012939453
 23
45.96207046508789
 33
152.0
  0
3DFACE
  8
0
 10
29.266407012939453
 20
45.96207046508789
 30
152.0
 11
29.62434959411621
 21
45.8785514831543
 31
152.0
 12
30.204513549804688
 22
45.85421371459961
 32
152.0
 13
30.204513549804688
 23
45.85421371459961
 33
152.0
  0
3DFACE
  8
0
 10
30.204513549804688
 20
45.85421371459961
 30
152.0
 11
30.412643432617188
 21
45.83034896850586
 31
152.0
 12
30.575122833251953
 22
45.84513473510742
 32
152.0
 13
30.575122833251953
 23
45.84513473510742
 33
152.0
  0
3DFACE
  8
0
 10
30.575122833251953
 20
45.84513473510742
 30
152.0
 11
31.056140899658203
 21
45.92658233642578
 31
152.0
 12
31.21099090576172
 22
45.95543670654297
 32
152.0
 13
31.21099090576172
 23
45.95543670654297
 33
152.0
  0
3DFACE
  8
0
 10
31.21099090576172
 20
45.95543670654297
 30
152.0
 11
31.8028564453125
 21
46.101318359375
 31
152.0
 12
32.00852966308594
 22
46.199893951416016
 32
152.0
 13
32.00852966308594
 23
46.199893951416016
 33
152.0
  0
3DFACE
  8
0
 10
32.45273208618164
 20
46.44393539428711
 30
152.0
 11
32.823944091796875
 21
46.630706787109375
 31
152.0
 12
33.414119720458984
 22
47.06037521362305
 32
152.0
 13
33.414119720458984
 23
47.06037521362305
 33
152.0
  0
3DFACE
  8
0
 10
31.21099090576172
 20
45.95543670654297
 30
152.0
 11
32.00852966308594
 21
46.199893951416016
 31
152.0
 12
32.45273208618164
 22
46.44393539428711
 32
152.0
 13
32.45273208618164
 23
46.44393539428711
 33
152.0
  0
3DFACE
  8
0
 10
30.204513549804688
 20
45.85421371459961
 30
152.0
 11
30.575122833251953
 21
45.84513473510742
 31
152.0
 12
31.21099090576172
 22
45.95543670654297
 32
152.0
 13
31.21099090576172
 23
45.95543670654297
 33
152.0
  0
3DFACE
  8
0
 10
28.60504722595215
 20
46.28923797607422
 30
152.0
 11
29.266407012939453
 21
45.96207046508789
 31
152.0
 12
30.204513549804688
 22
45.85421371459961
 32
152.0
 13
30.204513549804688
 23
45.85421371459961
 33
152.0
  0
3DFACE
  8
0
 10
27.356693267822266
 20
47.59699630737305
 30
152.0
 11
27.825973510742188
 21
46.98693084716797
 31
152.0
 12
28.60504722595215
 22
46.28923797607422
 32
152.0
 13
28.60504722595215
 23
46.28923797607422
 33
152.0
  0
3DFACE
  8
0
 10
26.405284881591797
 20
49.47629165649414
 30
152.0
 11
26.730512619018555
 21
48.66993713378906
 31
152.0
 12
27.356693267822266
 22
47.59699630737305
 32
152.0
 13
27.356693267822266
 23
47.59699630737305
 33
152.0
  0
3DFACE
  8
0
 10
26.032150268554688
 20
51.12376403808594
 30
152.0
 11
26.195161819458008
 21
50.24422073364258
 31
152.0
 12
26.405284881591797
 22
49.47629165649414
 32
152.0
 13
26.405284881591797
 23
49.47629165649414
 33
152.0
  0
3DFACE
  8
0
 10
26.66036033630371
 20
54.91130447387695
 30
152.0
 11
26.0206241607666
 21
51.88105010986328
 31
152.0
 12
26.032150268554688
 22
51.12376403808594
 32
152.0
 13
26.032150268554688
 23
51.12376403808594
 33
152.0
  0
3DFACE
  8
0
 10
32.4484748840332
 20
57.96660232543945
 30
152.0
 11
28.90421485900879
 21
57.2806282043457
 31
152.0
 12
26.66036033630371
 22
54.91130447387695
 32
152.0
 13
26.66036033630371
 23
54.91130447387695
 33
152.0
  0
3DFACE
  8
0
 10
33.74052429199219
 20
47.38532257080078
 30
152.0
 11
35.45178985595703
 21
55.1148796081543
 31
152.0
 12
32.4484748840332
 22
57.96660232543945
 32
152.0
 13
32.4484748840332
 23
57.96660232543945
 33
152.0
  0
3DFACE
  8
0
 10
33.414119720458984
 20
47.06037521362305
 30
152.0
 11
33.458614349365234
 21
47.09705352783203
 31
152.0
 12
33.74052429199219
 22
47.38532257080078
 32
152.0
 13
33.74052429199219
 23
47.38532257080078
 33
152.0
  0
3DFACE
  8
0
 10
31.21099090576172
 20
45.95543670654297
 30
152.0
 11
32.45273208618164
 21
46.44393539428711
 31
152.0
 12
33.414119720458984
 22
47.06037521362305
 32
152.0
 13
33.414119720458984
 23
47.06037521362305
 33
152.0
  0
3DFACE
  8
0
 10
28.60504722595215
 20
46.28923797607422
 30
152.0
 11
30.204513549804688
 21
45.85421371459961
 31
152.0
 12
31.21099090576172
 22
45.95543670654297
 32
152.0
 13
31.21099090576172
 23
45.95543670654297
 33
152.0
  0
3DFACE
  8
0
 10
26.405284881591797
 20
49.47629165649414
 30
152.0
 11
27.356693267822266
 21
47.59699630737305
 31
152.0
 12
28.60504722595215
 22
46.28923797607422
 32
152.0
 13
28.60504722595215
 23
46.28923797607422
 33
152.0
  0
3DFACE
  8
0
 10
26.66036033630371
 20
54.91130447387695
 30
152.0
 11
26.032150268554688
 21
51.12376403808594
 31
152.0
 12
26.405284881591797
 22
49.47629165649414
 32
152.0
 13
26.405284881591797
 23
49.47629165649414
 33
152.0
  0
3DFACE
  8
0
 10
33.74052429199219
 20
47.38532257080078
 30
152.0
 11
32.4484748840332
 21
57.96660232543945
 31
152.0
 12
26.66036033630371
 22
54.91130447387695
 32
152.0
 13
26.66036033630371
 23
54.91130447387695
 33
152.0
  0
3DFACE
  8
0
 10
31.21099090576172
 20
45.95543670654297
 30
152.0
 11
33.414119720458984
 21
47.06037521362305
 31
152.0
 12
33.74052429199219
 22
47.38532257080078
 32
152.0
 13
33.74052429199219
 23
47.38532257080078
 33
152.0
  0
3DFACE
  8
0
 10
26.405284881591797
 20
49.47629165649414
 30
152.0
 11
28.60504722595215
 21
46.28923797607422
 31
152.0
 12
31.21099090576172
 22
45.95543670654297
 32
152.0
 13
31.21099090576172
 23
45.95543670654297
 33
152.0
  0
3DFACE
  8
0
 10
33.74052429199219
 20
47.38532257080078
 30
152.0
 11
26.66036033630371
 21
54.91130447387695
 31
152.0
 12
26.405284881591797
 22
49.47629165649414
 32
152.0
 13
26.405284881591797
 23
49.47629165649414
 33
152.0
  0
3DFACE
  8
0
 10
26.405284881591797
 20
49.47629165649414
 30
152.0
 11
31.21099090576172
 21
45.95543670654297
 31
152.0
 12
33.74052429199219
 22
47.38532257080078
 32
152.0
 13
33.74052429199219
 23
47.38532257080078
 33
152.0
  0
ENDSEC
  0
EOF
