  0
SECTION
  2
HEADER
  9
$ACADVER
  1
AC1009
  9
$INSBASE
 10
0.0
 20
0.0
 30
0.0
  9
$EXTMIN
 10
0.0
 20
0.0
 30
0.0
  9
$EXTMAX
 10
0.0
 20
0.0
 30
0.0
  0
ENDSEC
  0
SECTION
  2
TABLES
  0
TABLE
  2
VPORT
 70
1
  0
VPORT
  2
*ACTIVE
 70
0
 10
0.0
 20
0.0
 11
1.0
 21
1.0
 12
-5.0
 22
1.0
 13
0.0
 23
0.0
 14
0.1
 24
0.1
 15
0.1
 25
0.1
 16
0.0
 26
0.0
 36
1.0
 17
0.0
 27
0.0
 37
0.0
 40
10.0
 41
1.0
 42
50.0
 43
0.0
 44
0.0
 50
0.0
 51
0.0
 71
0
 72
100
 73
1
 74
1
 75
0
 76
0
 77
0
 78
0
  0
ENDTAB
  0
TABLE
  2
LTYPE
 70
8
  0
LTYPE
  2
CONTINUOUS
 70
0
  3
Solid line
 72
65
 73
0
 40
0.0
  0
LTYPE
  2
DOT
 70
0
  3
. . . . . . .
 72
65
 73
2
 40
0.25
 49
0.0
 49
-0.25
  0
LTYPE
  2
DASHED
 70
0
  3
__ __ __ __ __
 72
65
 73
2
 40
0.8
 49
0.5
 49
-0.3
  0
LTYPE
  2
DASHDOT
 70
0
  3
__ . __ . __ .
 72
65
 73
4
 40
1.0
 49
0.5
 49
-0.25
 49
0.0
 49
-0.25
  0
LTYPE
  2
DIVIDE
 70
0
  3
____ . . ____ . . 
 72
65
 73
6
 40
1.25
 49
0.5
 49
-0.25
 49
0.0
 49
-0.25
 49
0.0
 49
-0.25
  0
LTYPE
  2
BORDER
 70
0
  3
__ __ . __ __ . 
 72
65
 73
6
 40
1.75
 49
0.5
 49
-0.25
 49
0.5
 49
-0.25
 49
0.0
 49
-0.25
  0
LTYPE
  2
HIDDEN
 70
0
  3
__ __ __ __ __
 72
65
 73
2
 40
0.4
 49
0.25
 49
-0.25
  0
LTYPE
  2
CENTER
 70
0
  3
____ _ ____ _ __
 72
65
 73
4
 40
2.0
 49
1.25
 49
-0.25
 49
0.25
 49
-0.25
  0
ENDTAB
  0
TABLE
  2
LAYER
 70
1
  0
LAYER
  2
PYDXF
 70
64
 62
7
  6
continuous
  0
ENDTAB
  0
TABLE
  2
STYLE
 70
1
  0
STYLE
  2
STANDARD
 70
0
 40
0
 41
1.0
 50
0.0
 71
0
 42
1
 3
ARIAL.TTF
 4

  0
ENDTAB
  0
TABLE
  2
VIEW
 70
1
  0
VIEW
  2
BF_TOPVIEW
 70
0
 40
120.0
 10
0.0
 20
0.0
 41
200.0
 11
0.0
 21
0.0
 31
1.0
 12
0.0
 22
0.0
 32
0.0
 42
50.0
 43
0.0
 44
0.0
 50
0.0
 71
0
  0
ENDTAB
  0
ENDSEC
  0
SECTION
  2
BLOCKS
  0
ENDSEC
  0
SECTION
  2
ENTITIES
  0
3DFACE
  8
0
 10
-18.109140396118164
 20
-50.43784713745117
 30
154.0
 11
-17.39251708984375
 21
-50.10829544067383
 31
154.0
 12
-17.32520866394043
 22
-50.07479476928711
 32
154.0
 13
-17.32520866394043
 23
-50.07479476928711
 33
154.0
  0
3DFACE
  8
0
 10
-17.28527069091797
 20
-50.0458984375
 30
154.0
 11
-16.544132232666016
 21
-49.567501068115234
 31
154.0
 12
-16.49329948425293
 22
-49.52311325073242
 32
154.0
 13
-16.49329948425293
 23
-49.52311325073242
 33
154.0
  0
3DFACE
  8
0
 10
-18.109140396118164
 20
-50.43784713745117
 30
154.0
 11
-17.32520866394043
 21
-50.07479476928711
 31
154.0
 12
-17.28527069091797
 22
-50.0458984375
 32
154.0
 13
-17.28527069091797
 23
-50.0458984375
 33
154.0
  0
3DFACE
  8
0
 10
-18.89164161682129
 20
-50.660640716552734
 30
154.0
 11
-18.496644973754883
 21
-50.558502197265625
 31
154.0
 12
-18.109140396118164
 22
-50.43784713745117
 32
154.0
 13
-18.109140396118164
 23
-50.43784713745117
 33
154.0
  0
3DFACE
  8
0
 10
-19.674144744873047
 20
-50.747337341308594
 30
154.0
 11
-19.50458335876465
 21
-50.746212005615234
 31
154.0
 12
-18.89164161682129
 22
-50.660640716552734
 32
154.0
 13
-18.89164161682129
 23
-50.660640716552734
 33
154.0
  0
3DFACE
  8
0
 10
-20.456647872924805
 20
-50.75468826293945
 30
154.0
 11
-20.115772247314453
 21
-50.759681701660156
 31
154.0
 12
-19.674144744873047
 22
-50.747337341308594
 32
154.0
 13
-19.674144744873047
 23
-50.747337341308594
 33
154.0
  0
3DFACE
  8
0
 10
-21.566390991210938
 20
-50.1517448425293
 30
154.0
 11
-21.23914909362793
 21
-50.41402053833008
 31
154.0
 12
-20.456647872924805
 22
-50.75468826293945
 32
154.0
 13
-20.456647872924805
 23
-50.75468826293945
 33
154.0
  0
3DFACE
  8
0
 10
-22.018211364746094
 20
-49.64423370361328
 30
154.0
 11
-21.797412872314453
 21
-49.909027099609375
 31
154.0
 12
-21.566390991210938
 22
-50.1517448425293
 32
154.0
 13
-21.566390991210938
 23
-50.1517448425293
 33
154.0
  0
3DFACE
  8
0
 10
-22.390094757080078
 20
-48.977169036865234
 30
154.0
 11
-22.221647262573242
 21
-49.34761047363281
 31
154.0
 12
-22.018211364746094
 22
-49.64423370361328
 32
154.0
 13
-22.018211364746094
 23
-49.64423370361328
 33
154.0
  0
3DFACE
  8
0
 10
-22.787588119506836
 20
-48.11903381347656
 30
154.0
 11
-22.59611701965332
 21
-48.56826400756836
 31
154.0
 12
-22.390094757080078
 22
-48.977169036865234
 32
154.0
 13
-22.390094757080078
 23
-48.977169036865234
 33
154.0
  0
3DFACE
  8
0
 10
-22.86012840270996
 20
-47.785762786865234
 30
154.0
 11
-22.866870880126953
 21
-47.87531280517578
 31
154.0
 12
-22.787588119506836
 22
-48.11903381347656
 32
154.0
 13
-22.787588119506836
 23
-48.11903381347656
 33
154.0
  0
3DFACE
  8
0
 10
-22.885093688964844
 20
-47.00326156616211
 30
154.0
 11
-22.893798828125
 21
-47.102291107177734
 31
154.0
 12
-22.86012840270996
 22
-47.785762786865234
 32
154.0
 13
-22.86012840270996
 23
-47.785762786865234
 33
154.0
  0
3DFACE
  8
0
 10
-22.66514778137207
 20
-46.12080383300781
 30
154.0
 11
-22.716934204101562
 21
-46.220760345458984
 31
154.0
 12
-22.801172256469727
 22
-46.668312072753906
 32
154.0
 13
-22.801172256469727
 23
-46.668312072753906
 33
154.0
  0
3DFACE
  8
0
 10
-22.801172256469727
 20
-46.668312072753906
 30
154.0
 11
-22.885093688964844
 21
-47.00326156616211
 31
154.0
 12
-22.86012840270996
 22
-47.785762786865234
 32
154.0
 13
-22.86012840270996
 23
-47.785762786865234
 33
154.0
  0
3DFACE
  8
0
 10
-22.86012840270996
 20
-47.785762786865234
 30
154.0
 11
-22.787588119506836
 21
-48.11903381347656
 31
154.0
 12
-22.390094757080078
 22
-48.977169036865234
 32
154.0
 13
-22.390094757080078
 23
-48.977169036865234
 33
154.0
  0
3DFACE
  8
0
 10
-22.390094757080078
 20
-48.977169036865234
 30
154.0
 11
-22.018211364746094
 21
-49.64423370361328
 31
154.0
 12
-21.566390991210938
 22
-50.1517448425293
 32
154.0
 13
-21.566390991210938
 23
-50.1517448425293
 33
154.0
  0
3DFACE
  8
0
 10
-21.566390991210938
 20
-50.1517448425293
 30
154.0
 11
-20.456647872924805
 21
-50.75468826293945
 31
154.0
 12
-19.674144744873047
 22
-50.747337341308594
 32
154.0
 13
-19.674144744873047
 23
-50.747337341308594
 33
154.0
  0
3DFACE
  8
0
 10
-19.674144744873047
 20
-50.747337341308594
 30
154.0
 11
-18.89164161682129
 21
-50.660640716552734
 31
154.0
 12
-18.109140396118164
 22
-50.43784713745117
 32
154.0
 13
-18.109140396118164
 23
-50.43784713745117
 33
154.0
  0
3DFACE
  8
0
 10
-18.109140396118164
 20
-50.43784713745117
 30
154.0
 11
-17.28527069091797
 21
-50.0458984375
 31
154.0
 12
-16.49329948425293
 22
-49.52311325073242
 32
154.0
 13
-16.49329948425293
 23
-49.52311325073242
 33
154.0
  0
3DFACE
  8
0
 10
-16.49329948425293
 20
-49.52311325073242
 30
154.0
 11
-15.654717445373535
 21
-48.73268127441406
 31
154.0
 12
-15.606623649597168
 22
-48.677146911621094
 32
154.0
 13
-15.606623649597168
 23
-48.677146911621094
 33
154.0
  0
3DFACE
  8
0
 10
-15.532883644104004
 20
-48.57001876831055
 30
154.0
 11
-14.958471298217773
 21
-47.92414093017578
 31
154.0
 12
-14.890718460083008
 22
-47.79985809326172
 32
154.0
 13
-14.890718460083008
 23
-47.79985809326172
 33
154.0
  0
3DFACE
  8
0
 10
-16.49329948425293
 20
-49.52311325073242
 30
154.0
 11
-15.606623649597168
 21
-48.677146911621094
 31
154.0
 12
-15.532883644104004
 22
-48.57001876831055
 32
154.0
 13
-15.532883644104004
 23
-48.57001876831055
 33
154.0
  0
3DFACE
  8
0
 10
-19.674144744873047
 20
-50.747337341308594
 30
154.0
 11
-18.109140396118164
 21
-50.43784713745117
 31
154.0
 12
-16.49329948425293
 22
-49.52311325073242
 32
154.0
 13
-16.49329948425293
 23
-49.52311325073242
 33
154.0
  0
3DFACE
  8
0
 10
-22.390094757080078
 20
-48.977169036865234
 30
154.0
 11
-21.566390991210938
 21
-50.1517448425293
 31
154.0
 12
-19.674144744873047
 22
-50.747337341308594
 32
154.0
 13
-19.674144744873047
 23
-50.747337341308594
 33
154.0
  0
3DFACE
  8
0
 10
-22.801172256469727
 20
-46.668312072753906
 30
154.0
 11
-22.86012840270996
 21
-47.785762786865234
 31
154.0
 12
-22.390094757080078
 22
-48.977169036865234
 32
154.0
 13
-22.390094757080078
 23
-48.977169036865234
 33
154.0
  0
3DFACE
  8
0
 10
-22.451601028442383
 20
-45.43825149536133
 30
154.0
 11
-22.66514778137207
 21
-46.12080383300781
 31
154.0
 12
-22.801172256469727
 22
-46.668312072753906
 32
154.0
 13
-22.801172256469727
 23
-46.668312072753906
 33
154.0
  0
3DFACE
  8
0
 10
-22.023326873779297
 20
-44.592525482177734
 30
154.0
 11
-22.070430755615234
 21
-44.65303421020508
 31
154.0
 12
-22.39482879638672
 22
-45.329368591308594
 32
154.0
 13
-22.39482879638672
 23
-45.329368591308594
 33
154.0
  0
3DFACE
  8
0
 10
-22.39482879638672
 20
-45.329368591308594
 30
154.0
 11
-22.451601028442383
 21
-45.43825149536133
 31
154.0
 12
-22.801172256469727
 22
-46.668312072753906
 32
154.0
 13
-22.801172256469727
 23
-46.668312072753906
 33
154.0
  0
3DFACE
  8
0
 10
-22.801172256469727
 20
-46.668312072753906
 30
154.0
 11
-22.390094757080078
 21
-48.977169036865234
 31
154.0
 12
-19.674144744873047
 22
-50.747337341308594
 32
154.0
 13
-19.674144744873047
 23
-50.747337341308594
 33
154.0
  0
3DFACE
  8
0
 10
-19.674144744873047
 20
-50.747337341308594
 30
154.0
 11
-16.49329948425293
 21
-49.52311325073242
 31
154.0
 12
-15.532883644104004
 22
-48.57001876831055
 32
154.0
 13
-15.532883644104004
 23
-48.57001876831055
 33
154.0
  0
3DFACE
  8
0
 10
-15.532883644104004
 20
-48.57001876831055
 30
154.0
 11
-14.890718460083008
 21
-47.79985809326172
 31
154.0
 12
-14.529914855957031
 22
-47.112144470214844
 32
154.0
 13
-14.529914855957031
 23
-47.112144470214844
 33
154.0
  0
3DFACE
  8
0
 10
-14.481842994689941
 20
-47.00501251220703
 30
154.0
 11
-14.15750789642334
 21
-46.3333854675293
 31
154.0
 12
-14.125118255615234
 22
-46.220760345458984
 32
154.0
 13
-14.125118255615234
 23
-46.220760345458984
 33
154.0
  0
3DFACE
  8
0
 10
-15.532883644104004
 20
-48.57001876831055
 30
154.0
 11
-14.529914855957031
 21
-47.112144470214844
 31
154.0
 12
-14.481842994689941
 22
-47.00501251220703
 32
154.0
 13
-14.481842994689941
 23
-47.00501251220703
 33
154.0
  0
3DFACE
  8
0
 10
-22.801172256469727
 20
-46.668312072753906
 30
154.0
 11
-19.674144744873047
 21
-50.747337341308594
 31
154.0
 12
-15.532883644104004
 22
-48.57001876831055
 32
154.0
 13
-15.532883644104004
 23
-48.57001876831055
 33
154.0
  0
3DFACE
  8
0
 10
-22.023326873779297
 20
-44.592525482177734
 30
154.0
 11
-22.39482879638672
 21
-45.329368591308594
 31
154.0
 12
-22.801172256469727
 22
-46.668312072753906
 32
154.0
 13
-22.801172256469727
 23
-46.668312072753906
 33
154.0
  0
3DFACE
  8
0
 10
-21.5799503326416
 20
-43.87324142456055
 30
154.0
 11
-21.617475509643555
 21
-43.92526626586914
 31
154.0
 12
-22.023326873779297
 22
-44.592525482177734
 32
154.0
 13
-22.023326873779297
 23
-44.592525482177734
 33
154.0
  0
3DFACE
  8
0
 10
-20.963397979736328
 20
-43.09074783325195
 30
154.0
 11
-20.9971923828125
 21
-43.124000549316406
 31
154.0
 12
-21.50859260559082
 22
-43.797611236572266
 32
154.0
 13
-21.50859260559082
 23
-43.797611236572266
 33
154.0
  0
3DFACE
  8
0
 10
-21.50859260559082
 20
-43.797611236572266
 30
154.0
 11
-21.5799503326416
 21
-43.87324142456055
 31
154.0
 12
-22.023326873779297
 22
-44.592525482177734
 32
154.0
 13
-22.023326873779297
 23
-44.592525482177734
 33
154.0
  0
3DFACE
  8
0
 10
-22.023326873779297
 20
-44.592525482177734
 30
154.0
 11
-22.801172256469727
 21
-46.668312072753906
 31
154.0
 12
-15.532883644104004
 22
-48.57001876831055
 32
154.0
 13
-15.532883644104004
 23
-48.57001876831055
 33
154.0
  0
3DFACE
  8
0
 10
-15.532883644104004
 20
-48.57001876831055
 30
154.0
 11
-14.481842994689941
 21
-47.00501251220703
 31
154.0
 12
-14.125118255615234
 22
-46.220760345458984
 32
154.0
 13
-14.125118255615234
 23
-46.220760345458984
 33
154.0
  0
3DFACE
  8
0
 10
-14.109245300292969
 20
-46.11187744140625
 30
154.0
 11
-13.891253471374512
 21
-45.43825149536133
 31
154.0
 12
-13.893233299255371
 22
-45.329368591308594
 32
154.0
 13
-13.893233299255371
 23
-45.329368591308594
 33
154.0
  0
3DFACE
  8
0
 10
-15.532883644104004
 20
-48.57001876831055
 30
154.0
 11
-14.125118255615234
 21
-46.220760345458984
 31
154.0
 12
-14.109245300292969
 22
-46.11187744140625
 32
154.0
 13
-14.109245300292969
 23
-46.11187744140625
 33
154.0
  0
3DFACE
  8
0
 10
-21.50859260559082
 20
-43.797611236572266
 30
154.0
 11
-22.023326873779297
 21
-44.592525482177734
 31
154.0
 12
-15.532883644104004
 22
-48.57001876831055
 32
154.0
 13
-15.532883644104004
 23
-48.57001876831055
 33
154.0
  0
3DFACE
  8
0
 10
-20.888309478759766
 20
-43.03160858154297
 30
154.0
 11
-20.963397979736328
 21
-43.09074783325195
 31
154.0
 12
-21.50859260559082
 22
-43.797611236572266
 32
154.0
 13
-21.50859260559082
 23
-43.797611236572266
 33
154.0
  0
3DFACE
  8
0
 10
-20.11980628967285
 20
-42.284671783447266
 30
154.0
 11
-20.228689193725586
 21
-42.35799026489258
 31
154.0
 12
-20.456647872924805
 22
-42.6016960144043
 32
154.0
 13
-20.456647872924805
 23
-42.6016960144043
 33
154.0
  0
3DFACE
  8
0
 10
-20.456647872924805
 20
-42.6016960144043
 30
154.0
 11
-20.888309478759766
 21
-43.03160858154297
 31
154.0
 12
-21.50859260559082
 22
-43.797611236572266
 32
154.0
 13
-21.50859260559082
 23
-43.797611236572266
 33
154.0
  0
3DFACE
  8
0
 10
-21.50859260559082
 20
-43.797611236572266
 30
154.0
 11
-15.532883644104004
 21
-48.57001876831055
 31
154.0
 12
-14.109245300292969
 22
-46.11187744140625
 32
154.0
 13
-14.109245300292969
 23
-46.11187744140625
 33
154.0
  0
3DFACE
  8
0
 10
-14.109245300292969
 20
-46.11187744140625
 30
154.0
 11
-13.893233299255371
 21
-45.329368591308594
 31
154.0
 12
-13.795917510986328
 22
-44.6557502746582
 32
154.0
 13
-13.795917510986328
 23
-44.6557502746582
 33
154.0
  0
3DFACE
  8
0
 10
-13.817389488220215
 20
-44.54686737060547
 30
154.0
 11
-13.822549819946289
 21
-43.87324142456055
 31
154.0
 12
-13.847074508666992
 22
-43.76409912109375
 32
154.0
 13
-13.847074508666992
 23
-43.76409912109375
 33
154.0
  0
3DFACE
  8
0
 10
-14.109245300292969
 20
-46.11187744140625
 30
154.0
 11
-13.795917510986328
 21
-44.6557502746582
 31
154.0
 12
-13.817389488220215
 22
-44.54686737060547
 32
154.0
 13
-13.817389488220215
 23
-44.54686737060547
 33
154.0
  0
3DFACE
  8
0
 10
-20.456647872924805
 20
-42.6016960144043
 30
154.0
 11
-21.50859260559082
 21
-43.797611236572266
 31
154.0
 12
-14.109245300292969
 22
-46.11187744140625
 32
154.0
 13
-14.109245300292969
 23
-46.11187744140625
 33
154.0
  0
3DFACE
  8
0
 10
-19.674144744873047
 20
-41.92841720581055
 30
154.0
 11
-20.11980628967285
 21
-42.284671783447266
 31
154.0
 12
-20.456647872924805
 22
-42.6016960144043
 32
154.0
 13
-20.456647872924805
 23
-42.6016960144043
 33
154.0
  0
3DFACE
  8
0
 10
-18.782758712768555
 20
-41.45280838012695
 30
154.0
 11
-18.89164161682129
 21
-41.492679595947266
 31
154.0
 12
-19.674144744873047
 22
-41.92841720581055
 32
154.0
 13
-19.674144744873047
 23
-41.92841720581055
 33
154.0
  0
3DFACE
  8
0
 10
-18.00025749206543
 20
-41.06990051269531
 30
154.0
 11
-18.109140396118164
 21
-41.10458755493164
 31
154.0
 12
-18.782758712768555
 22
-41.45280838012695
 32
154.0
 13
-18.782758712768555
 23
-41.45280838012695
 33
154.0
  0
3DFACE
  8
0
 10
-17.225406646728516
 20
-40.789764404296875
 30
154.0
 11
-17.326637268066406
 21
-40.79319763183594
 31
154.0
 12
-18.00025749206543
 22
-41.06990051269531
 32
154.0
 13
-18.00025749206543
 23
-41.06990051269531
 33
154.0
  0
3DFACE
  8
0
 10
-16.43524932861328
 20
-40.68773651123047
 30
154.0
 11
-16.544132232666016
 21
-40.67243194580078
 31
154.0
 12
-17.225406646728516
 22
-40.789764404296875
 32
154.0
 13
-17.225406646728516
 23
-40.789764404296875
 33
154.0
  0
3DFACE
  8
0
 10
-15.796932220458984
 20
-40.71504211425781
 30
154.0
 11
-15.979869842529297
 21
-40.70261001586914
 31
154.0
 12
-16.43524932861328
 22
-40.68773651123047
 32
154.0
 13
-16.43524932861328
 23
-40.68773651123047
 33
154.0
  0
3DFACE
  8
0
 10
-15.726325988769531
 20
-40.72487258911133
 30
154.0
 11
-15.761629104614258
 21
-40.713897705078125
 31
154.0
 12
-15.796932220458984
 22
-40.71504211425781
 32
154.0
 13
-15.796932220458984
 23
-40.71504211425781
 33
154.0
  0
3DFACE
  8
0
 10
-15.543388366699219
 20
-40.8222541809082
 30
154.0
 11
-15.672489166259766
 21
-40.74323654174805
 31
154.0
 12
-15.726325988769531
 22
-40.72487258911133
 32
154.0
 13
-15.726325988769531
 23
-40.72487258911133
 33
154.0
  0
3DFACE
  8
0
 10
-14.9791259765625
 20
-41.14388656616211
 30
154.0
 11
-15.088008880615234
 21
-41.057029724121094
 31
154.0
 12
-15.543388366699219
 22
-40.8222541809082
 32
154.0
 13
-15.543388366699219
 23
-40.8222541809082
 33
154.0
  0
3DFACE
  8
0
 10
-14.331116676330566
 20
-42.12432098388672
 30
154.0
 11
-14.661223411560059
 21
-41.52573776245117
 31
154.0
 12
-14.9791259765625
 22
-41.14388656616211
 32
154.0
 13
-14.9791259765625
 23
-41.14388656616211
 33
154.0
  0
3DFACE
  8
0
 10
-14.139782905578613
 20
-42.41489791870117
 30
154.0
 11
-14.196958541870117
 21
-42.30824661254883
 31
154.0
 12
-14.2498779296875
 22
-42.243316650390625
 32
154.0
 13
-14.2498779296875
 23
-42.243316650390625
 33
154.0
  0
3DFACE
  8
0
 10
-14.331116676330566
 20
-42.12432098388672
 30
154.0
 11
-14.9791259765625
 21
-41.14388656616211
 31
154.0
 12
-15.543388366699219
 22
-40.8222541809082
 32
154.0
 13
-15.543388366699219
 23
-40.8222541809082
 33
154.0
  0
3DFACE
  8
0
 10
-14.139782905578613
 20
-42.41489791870117
 30
154.0
 11
-14.2498779296875
 21
-42.243316650390625
 31
154.0
 12
-14.331116676330566
 22
-42.12432098388672
 32
154.0
 13
-14.331116676330566
 23
-42.12432098388672
 33
154.0
  0
3DFACE
  8
0
 10
-13.847074508666992
 20
-43.76409912109375
 30
154.0
 11
-13.909329414367676
 21
-43.089500427246094
 31
154.0
 12
-14.139782905578613
 22
-42.41489791870117
 32
154.0
 13
-14.139782905578613
 23
-42.41489791870117
 33
154.0
  0
3DFACE
  8
0
 10
-14.109245300292969
 20
-46.11187744140625
 30
154.0
 11
-13.817389488220215
 21
-44.54686737060547
 31
154.0
 12
-13.847074508666992
 22
-43.76409912109375
 32
154.0
 13
-13.847074508666992
 23
-43.76409912109375
 33
154.0
  0
3DFACE
  8
0
 10
-19.674144744873047
 20
-41.92841720581055
 30
154.0
 11
-20.456647872924805
 21
-42.6016960144043
 31
154.0
 12
-14.109245300292969
 22
-46.11187744140625
 32
154.0
 13
-14.109245300292969
 23
-46.11187744140625
 33
154.0
  0
3DFACE
  8
0
 10
-18.00025749206543
 20
-41.06990051269531
 30
154.0
 11
-18.782758712768555
 21
-41.45280838012695
 31
154.0
 12
-19.674144744873047
 22
-41.92841720581055
 32
154.0
 13
-19.674144744873047
 23
-41.92841720581055
 33
154.0
  0
3DFACE
  8
0
 10
-16.43524932861328
 20
-40.68773651123047
 30
154.0
 11
-17.225406646728516
 21
-40.789764404296875
 31
154.0
 12
-18.00025749206543
 22
-41.06990051269531
 32
154.0
 13
-18.00025749206543
 23
-41.06990051269531
 33
154.0
  0
3DFACE
  8
0
 10
-15.726325988769531
 20
-40.72487258911133
 30
154.0
 11
-15.796932220458984
 21
-40.71504211425781
 31
154.0
 12
-16.43524932861328
 22
-40.68773651123047
 32
154.0
 13
-16.43524932861328
 23
-40.68773651123047
 33
154.0
  0
3DFACE
  8
0
 10
-14.331116676330566
 20
-42.12432098388672
 30
154.0
 11
-15.543388366699219
 21
-40.8222541809082
 31
154.0
 12
-15.726325988769531
 22
-40.72487258911133
 32
154.0
 13
-15.726325988769531
 23
-40.72487258911133
 33
154.0
  0
3DFACE
  8
0
 10
-13.847074508666992
 20
-43.76409912109375
 30
154.0
 11
-14.139782905578613
 21
-42.41489791870117
 31
154.0
 12
-14.331116676330566
 22
-42.12432098388672
 32
154.0
 13
-14.331116676330566
 23
-42.12432098388672
 33
154.0
  0
3DFACE
  8
0
 10
-19.674144744873047
 20
-41.92841720581055
 30
154.0
 11
-14.109245300292969
 21
-46.11187744140625
 31
154.0
 12
-13.847074508666992
 22
-43.76409912109375
 32
154.0
 13
-13.847074508666992
 23
-43.76409912109375
 33
154.0
  0
3DFACE
  8
0
 10
-16.43524932861328
 20
-40.68773651123047
 30
154.0
 11
-18.00025749206543
 21
-41.06990051269531
 31
154.0
 12
-19.674144744873047
 22
-41.92841720581055
 32
154.0
 13
-19.674144744873047
 23
-41.92841720581055
 33
154.0
  0
3DFACE
  8
0
 10
-14.331116676330566
 20
-42.12432098388672
 30
154.0
 11
-15.726325988769531
 21
-40.72487258911133
 31
154.0
 12
-16.43524932861328
 22
-40.68773651123047
 32
154.0
 13
-16.43524932861328
 23
-40.68773651123047
 33
154.0
  0
3DFACE
  8
0
 10
-19.674144744873047
 20
-41.92841720581055
 30
154.0
 11
-13.847074508666992
 21
-43.76409912109375
 31
154.0
 12
-14.331116676330566
 22
-42.12432098388672
 32
154.0
 13
-14.331116676330566
 23
-42.12432098388672
 33
154.0
  0
3DFACE
  8
0
 10
-14.331116676330566
 20
-42.12432098388672
 30
154.0
 11
-16.43524932861328
 21
-40.68773651123047
 31
154.0
 12
-19.674144744873047
 22
-41.92841720581055
 32
154.0
 13
-19.674144744873047
 23
-41.92841720581055
 33
154.0
  0
3DFACE
  8
0
 10
23.749502182006836
 20
-41.61582565307617
 30
154.0
 11
23.74172019958496
 21
-41.63627624511719
 31
154.0
 12
23.743362426757812
 22
-41.78949737548828
 32
154.0
 13
23.743362426757812
 23
-41.78949737548828
 33
154.0
  0
3DFACE
  8
0
 10
23.743362426757812
 20
-41.78949737548828
 30
154.0
 11
23.772855758666992
 21
-42.45047378540039
 31
154.0
 12
23.800519943237305
 22
-42.56976318359375
 32
154.0
 13
23.800519943237305
 23
-42.56976318359375
 33
154.0
  0
3DFACE
  8
0
 10
23.800519943237305
 20
-42.56976318359375
 30
154.0
 11
23.921770095825195
 21
-43.292049407958984
 31
154.0
 12
23.974172592163086
 22
-43.435611724853516
 32
154.0
 13
23.974172592163086
 23
-43.435611724853516
 33
154.0
  0
3DFACE
  8
0
 10
23.974172592163086
 20
-43.435611724853516
 30
154.0
 11
24.140718460083008
 21
-43.979068756103516
 31
154.0
 12
24.22654151916504
 22
-44.16987228393555
 32
154.0
 13
24.22654151916504
 23
-44.16987228393555
 33
154.0
  0
3DFACE
  8
0
 10
24.43216323852539
 20
-44.56806945800781
 30
154.0
 11
24.569650650024414
 21
-44.91382598876953
 31
154.0
 12
24.67861557006836
 22
-45.08192825317383
 32
154.0
 13
24.67861557006836
 23
-45.08192825317383
 33
154.0
  0
3DFACE
  8
0
 10
23.974172592163086
 20
-43.435611724853516
 30
154.0
 11
24.22654151916504
 21
-44.16987228393555
 31
154.0
 12
24.43216323852539
 22
-44.56806945800781
 32
154.0
 13
24.43216323852539
 23
-44.56806945800781
 33
154.0
  0
3DFACE
  8
0
 10
23.743362426757812
 20
-41.78949737548828
 30
154.0
 11
23.800519943237305
 21
-42.56976318359375
 31
154.0
 12
23.974172592163086
 22
-43.435611724853516
 32
154.0
 13
23.974172592163086
 23
-43.435611724853516
 33
154.0
  0
3DFACE
  8
0
 10
23.911060333251953
 20
-40.868682861328125
 30
154.0
 11
23.749502182006836
 21
-41.61582565307617
 31
154.0
 12
23.743362426757812
 22
-41.78949737548828
 32
154.0
 13
23.743362426757812
 23
-41.78949737548828
 33
154.0
  0
3DFACE
  8
0
 10
24.248905181884766
 20
-40.14026641845703
 30
154.0
 11
24.168794631958008
 21
-40.26116943359375
 31
154.0
 12
23.911060333251953
 22
-40.868682861328125
 32
154.0
 13
23.911060333251953
 23
-40.868682861328125
 33
154.0
  0
3DFACE
  8
0
 10
24.885997772216797
 20
-39.481422424316406
 30
154.0
 11
24.727130889892578
 21
-39.62496566772461
 31
154.0
 12
24.248905181884766
 22
-40.14026641845703
 32
154.0
 13
24.248905181884766
 23
-40.14026641845703
 33
154.0
  0
3DFACE
  8
0
 10
26.136167526245117
 20
-38.977516174316406
 30
154.0
 11
25.792646408081055
 21
-39.03533172607422
 31
154.0
 12
24.885997772216797
 22
-39.481422424316406
 32
154.0
 13
24.885997772216797
 23
-39.481422424316406
 33
154.0
  0
3DFACE
  8
0
 10
26.163251876831055
 20
-38.97139358520508
 30
154.0
 11
26.14878273010254
 21
-38.97327423095703
 31
154.0
 12
26.136167526245117
 22
-38.977516174316406
 32
154.0
 13
26.136167526245117
 23
-38.977516174316406
 33
154.0
  0
3DFACE
  8
0
 10
26.623149871826172
 20
-38.95163345336914
 30
154.0
 11
26.57585334777832
 21
-38.94050979614258
 31
154.0
 12
26.163251876831055
 22
-38.97139358520508
 32
154.0
 13
26.163251876831055
 23
-38.97139358520508
 33
154.0
  0
3DFACE
  8
0
 10
27.396028518676758
 20
-39.13576126098633
 30
154.0
 11
27.240615844726562
 21
-39.0726203918457
 31
154.0
 12
26.623149871826172
 22
-38.95163345336914
 32
154.0
 13
26.623149871826172
 23
-38.95163345336914
 33
154.0
  0
3DFACE
  8
0
 10
27.96404266357422
 20
-39.46908950805664
 30
154.0
 11
27.710586547851562
 21
-39.28788375854492
 31
154.0
 12
27.396028518676758
 22
-39.13576126098633
 32
154.0
 13
27.396028518676758
 23
-39.13576126098633
 33
154.0
  0
3DFACE
  8
0
 10
28.448640823364258
 20
-39.737449645996094
 30
154.0
 11
28.118932723999023
 21
-39.55219650268555
 31
154.0
 12
27.96404266357422
 22
-39.46908950805664
 32
154.0
 13
27.96404266357422
 23
-39.46908950805664
 33
154.0
  0
3DFACE
  8
0
 10
29.160127639770508
 20
-40.38624572753906
 30
154.0
 11
29.012269973754883
 21
-40.20311737060547
 31
154.0
 12
28.448640823364258
 22
-39.737449645996094
 32
154.0
 13
28.448640823364258
 23
-39.737449645996094
 33
154.0
  0
3DFACE
  8
0
 10
30.076614379882812
 20
-41.483642578125
 30
154.0
 11
29.538190841674805
 21
-40.79293441772461
 31
154.0
 12
29.487545013427734
 22
-40.74387741088867
 32
154.0
 13
29.487545013427734
 23
-40.74387741088867
 33
154.0
  0
3DFACE
  8
0
 10
29.487545013427734
 20
-40.74387741088867
 30
154.0
 11
29.160127639770508
 21
-40.38624572753906
 31
154.0
 12
28.448640823364258
 22
-39.737449645996094
 32
154.0
 13
28.448640823364258
 23
-39.737449645996094
 33
154.0
  0
3DFACE
  8
0
 10
27.96404266357422
 20
-39.46908950805664
 30
154.0
 11
27.396028518676758
 21
-39.13576126098633
 31
154.0
 12
26.623149871826172
 22
-38.95163345336914
 32
154.0
 13
26.623149871826172
 23
-38.95163345336914
 33
154.0
  0
3DFACE
  8
0
 10
29.487545013427734
 20
-40.74387741088867
 30
154.0
 11
28.448640823364258
 21
-39.737449645996094
 31
154.0
 12
27.96404266357422
 22
-39.46908950805664
 32
154.0
 13
27.96404266357422
 23
-39.46908950805664
 33
154.0
  0
3DFACE
  8
0
 10
30.142587661743164
 20
-41.62593460083008
 30
154.0
 11
30.076614379882812
 21
-41.483642578125
 31
154.0
 12
29.487545013427734
 22
-40.74387741088867
 32
154.0
 13
29.487545013427734
 23
-40.74387741088867
 33
154.0
  0
3DFACE
  8
0
 10
30.64761734008789
 20
-42.820770263671875
 30
154.0
 11
30.530487060546875
 21
-42.40758514404297
 31
154.0
 12
30.142587661743164
 22
-41.62593460083008
 32
154.0
 13
30.142587661743164
 23
-41.62593460083008
 33
154.0
  0
3DFACE
  8
0
 10
30.880626678466797
 20
-43.76008987426758
 30
154.0
 11
30.796205520629883
 21
-43.273311614990234
 31
154.0
 12
30.64761734008789
 22
-42.820770263671875
 32
154.0
 13
30.64761734008789
 23
-42.820770263671875
 33
154.0
  0
3DFACE
  8
0
 10
30.88098907470703
 20
-44.723350524902344
 30
154.0
 11
30.914718627929688
 21
-44.110836029052734
 31
154.0
 12
30.880626678466797
 22
-43.76008987426758
 32
154.0
 13
30.880626678466797
 23
-43.76008987426758
 33
154.0
  0
3DFACE
  8
0
 10
30.732982635498047
 20
-45.23319625854492
 30
154.0
 11
30.846139907836914
 21
-44.90184783935547
 31
154.0
 12
30.88098907470703
 22
-44.723350524902344
 32
154.0
 13
30.88098907470703
 23
-44.723350524902344
 33
154.0
  0
3DFACE
  8
0
 10
30.481670379638672
 20
-45.78691864013672
 30
154.0
 11
30.56059455871582
 21
-45.642433166503906
 31
154.0
 12
30.732982635498047
 22
-45.23319625854492
 32
154.0
 13
30.732982635498047
 23
-45.23319625854492
 33
154.0
  0
3DFACE
  8
0
 10
29.888160705566406
 20
-46.48988723754883
 30
154.0
 11
30.062707901000977
 21
-46.341346740722656
 31
154.0
 12
30.481670379638672
 22
-45.78691864013672
 32
154.0
 13
30.481670379638672
 23
-45.78691864013672
 33
154.0
  0
3DFACE
  8
0
 10
29.086456298828125
 20
-46.982933044433594
 30
154.0
 11
29.238296508789062
 21
-46.90189743041992
 31
154.0
 12
29.888160705566406
 22
-46.48988723754883
 32
154.0
 13
29.888160705566406
 23
-46.48988723754883
 33
154.0
  0
3DFACE
  8
0
 10
28.63298797607422
 20
-47.06901168823242
 30
154.0
 11
28.949447631835938
 21
-47.02146530151367
 31
154.0
 12
29.086456298828125
 22
-46.982933044433594
 32
154.0
 13
29.086456298828125
 23
-46.982933044433594
 33
154.0
  0
3DFACE
  8
0
 10
27.472919464111328
 20
-47.16693115234375
 30
154.0
 11
28.09484100341797
 21
-47.217185974121094
 31
154.0
 12
28.63298797607422
 22
-47.06901168823242
 32
154.0
 13
28.63298797607422
 23
-47.06901168823242
 33
154.0
  0
3DFACE
  8
0
 10
26.755460739135742
 20
-47.00687026977539
 30
154.0
 11
27.290203094482422
 21
-47.180625915527344
 31
154.0
 12
27.472919464111328
 22
-47.16693115234375
 32
154.0
 13
27.472919464111328
 23
-47.16693115234375
 33
154.0
  0
3DFACE
  8
0
 10
25.964527130126953
 20
-46.589786529541016
 30
154.0
 11
26.523229598999023
 21
-46.96906661987305
 31
154.0
 12
26.755460739135742
 22
-47.00687026977539
 32
154.0
 13
26.755460739135742
 23
-47.00687026977539
 33
154.0
  0
3DFACE
  8
0
 10
25.319185256958008
 20
-46.04221725463867
 30
154.0
 11
25.807693481445312
 21
-46.51839065551758
 31
154.0
 12
25.964527130126953
 22
-46.589786529541016
 32
154.0
 13
25.964527130126953
 23
-46.589786529541016
 33
154.0
  0
3DFACE
  8
0
 10
24.783124923706055
 20
-45.295772552490234
 30
154.0
 11
25.13899803161621
 21
-45.8392333984375
 31
154.0
 12
25.319185256958008
 22
-46.04221725463867
 32
154.0
 13
25.319185256958008
 23
-46.04221725463867
 33
154.0
  0
3DFACE
  8
0
 10
24.43216323852539
 20
-44.56806945800781
 30
154.0
 11
24.67861557006836
 21
-45.08192825317383
 31
154.0
 12
24.783124923706055
 22
-45.295772552490234
 32
154.0
 13
24.783124923706055
 23
-45.295772552490234
 33
154.0
  0
3DFACE
  8
0
 10
23.743362426757812
 20
-41.78949737548828
 30
154.0
 11
23.974172592163086
 21
-43.435611724853516
 31
154.0
 12
24.43216323852539
 22
-44.56806945800781
 32
154.0
 13
24.43216323852539
 23
-44.56806945800781
 33
154.0
  0
3DFACE
  8
0
 10
24.248905181884766
 20
-40.14026641845703
 30
154.0
 11
23.911060333251953
 21
-40.868682861328125
 31
154.0
 12
23.743362426757812
 22
-41.78949737548828
 32
154.0
 13
23.743362426757812
 23
-41.78949737548828
 33
154.0
  0
3DFACE
  8
0
 10
26.136167526245117
 20
-38.977516174316406
 30
154.0
 11
24.885997772216797
 21
-39.481422424316406
 31
154.0
 12
24.248905181884766
 22
-40.14026641845703
 32
154.0
 13
24.248905181884766
 23
-40.14026641845703
 33
154.0
  0
3DFACE
  8
0
 10
26.623149871826172
 20
-38.95163345336914
 30
154.0
 11
26.163251876831055
 21
-38.97139358520508
 31
154.0
 12
26.136167526245117
 22
-38.977516174316406
 32
154.0
 13
26.136167526245117
 23
-38.977516174316406
 33
154.0
  0
3DFACE
  8
0
 10
29.487545013427734
 20
-40.74387741088867
 30
154.0
 11
27.96404266357422
 21
-39.46908950805664
 31
154.0
 12
26.623149871826172
 22
-38.95163345336914
 32
154.0
 13
26.623149871826172
 23
-38.95163345336914
 33
154.0
  0
3DFACE
  8
0
 10
30.64761734008789
 20
-42.820770263671875
 30
154.0
 11
30.142587661743164
 21
-41.62593460083008
 31
154.0
 12
29.487545013427734
 22
-40.74387741088867
 32
154.0
 13
29.487545013427734
 23
-40.74387741088867
 33
154.0
  0
3DFACE
  8
0
 10
30.88098907470703
 20
-44.723350524902344
 30
154.0
 11
30.880626678466797
 21
-43.76008987426758
 31
154.0
 12
30.64761734008789
 22
-42.820770263671875
 32
154.0
 13
30.64761734008789
 23
-42.820770263671875
 33
154.0
  0
3DFACE
  8
0
 10
30.481670379638672
 20
-45.78691864013672
 30
154.0
 11
30.732982635498047
 21
-45.23319625854492
 31
154.0
 12
30.88098907470703
 22
-44.723350524902344
 32
154.0
 13
30.88098907470703
 23
-44.723350524902344
 33
154.0
  0
3DFACE
  8
0
 10
29.086456298828125
 20
-46.982933044433594
 30
154.0
 11
29.888160705566406
 21
-46.48988723754883
 31
154.0
 12
30.481670379638672
 22
-45.78691864013672
 32
154.0
 13
30.481670379638672
 23
-45.78691864013672
 33
154.0
  0
3DFACE
  8
0
 10
27.472919464111328
 20
-47.16693115234375
 30
154.0
 11
28.63298797607422
 21
-47.06901168823242
 31
154.0
 12
29.086456298828125
 22
-46.982933044433594
 32
154.0
 13
29.086456298828125
 23
-46.982933044433594
 33
154.0
  0
3DFACE
  8
0
 10
25.964527130126953
 20
-46.589786529541016
 30
154.0
 11
26.755460739135742
 21
-47.00687026977539
 31
154.0
 12
27.472919464111328
 22
-47.16693115234375
 32
154.0
 13
27.472919464111328
 23
-47.16693115234375
 33
154.0
  0
3DFACE
  8
0
 10
24.783124923706055
 20
-45.295772552490234
 30
154.0
 11
25.319185256958008
 21
-46.04221725463867
 31
154.0
 12
25.964527130126953
 22
-46.589786529541016
 32
154.0
 13
25.964527130126953
 23
-46.589786529541016
 33
154.0
  0
3DFACE
  8
0
 10
23.743362426757812
 20
-41.78949737548828
 30
154.0
 11
24.43216323852539
 21
-44.56806945800781
 31
154.0
 12
24.783124923706055
 22
-45.295772552490234
 32
154.0
 13
24.783124923706055
 23
-45.295772552490234
 33
154.0
  0
3DFACE
  8
0
 10
26.136167526245117
 20
-38.977516174316406
 30
154.0
 11
24.248905181884766
 21
-40.14026641845703
 31
154.0
 12
23.743362426757812
 22
-41.78949737548828
 32
154.0
 13
23.743362426757812
 23
-41.78949737548828
 33
154.0
  0
3DFACE
  8
0
 10
29.487545013427734
 20
-40.74387741088867
 30
154.0
 11
26.623149871826172
 21
-38.95163345336914
 31
154.0
 12
26.136167526245117
 22
-38.977516174316406
 32
154.0
 13
26.136167526245117
 23
-38.977516174316406
 33
154.0
  0
3DFACE
  8
0
 10
30.88098907470703
 20
-44.723350524902344
 30
154.0
 11
30.64761734008789
 21
-42.820770263671875
 31
154.0
 12
29.487545013427734
 22
-40.74387741088867
 32
154.0
 13
29.487545013427734
 23
-40.74387741088867
 33
154.0
  0
3DFACE
  8
0
 10
29.086456298828125
 20
-46.982933044433594
 30
154.0
 11
30.481670379638672
 21
-45.78691864013672
 31
154.0
 12
30.88098907470703
 22
-44.723350524902344
 32
154.0
 13
30.88098907470703
 23
-44.723350524902344
 33
154.0
  0
3DFACE
  8
0
 10
25.964527130126953
 20
-46.589786529541016
 30
154.0
 11
27.472919464111328
 21
-47.16693115234375
 31
154.0
 12
29.086456298828125
 22
-46.982933044433594
 32
154.0
 13
29.086456298828125
 23
-46.982933044433594
 33
154.0
  0
3DFACE
  8
0
 10
23.743362426757812
 20
-41.78949737548828
 30
154.0
 11
24.783124923706055
 21
-45.295772552490234
 31
154.0
 12
25.964527130126953
 22
-46.589786529541016
 32
154.0
 13
25.964527130126953
 23
-46.589786529541016
 33
154.0
  0
3DFACE
  8
0
 10
29.487545013427734
 20
-40.74387741088867
 30
154.0
 11
26.136167526245117
 21
-38.977516174316406
 31
154.0
 12
23.743362426757812
 22
-41.78949737548828
 32
154.0
 13
23.743362426757812
 23
-41.78949737548828
 33
154.0
  0
3DFACE
  8
0
 10
29.086456298828125
 20
-46.982933044433594
 30
154.0
 11
30.88098907470703
 21
-44.723350524902344
 31
154.0
 12
29.487545013427734
 22
-40.74387741088867
 32
154.0
 13
29.487545013427734
 23
-40.74387741088867
 33
154.0
  0
3DFACE
  8
0
 10
23.743362426757812
 20
-41.78949737548828
 30
154.0
 11
25.964527130126953
 21
-46.589786529541016
 31
154.0
 12
29.086456298828125
 22
-46.982933044433594
 32
154.0
 13
29.086456298828125
 23
-46.982933044433594
 33
154.0
  0
3DFACE
  8
0
 10
23.743362426757812
 20
-41.78949737548828
 30
154.0
 11
29.086456298828125
 21
-46.982933044433594
 31
154.0
 12
29.487545013427734
 22
-40.74387741088867
 32
154.0
 13
29.487545013427734
 23
-40.74387741088867
 33
154.0
  0
3DFACE
  8
0
 10
61.47414016723633
 20
-3.7656402587890625
 30
154.0
 11
60.837196350097656
 21
-3.891754627227783
 31
154.0
 12
60.828800201416016
 22
-3.893967866897583
 32
154.0
 13
60.828800201416016
 23
-3.893967866897583
 33
154.0
  0
3DFACE
  8
0
 10
60.11099624633789
 20
-4.158720016479492
 30
154.0
 11
59.96359634399414
 21
-4.210666656494141
 31
154.0
 12
59.881683349609375
 22
-4.2451324462890625
 32
154.0
 13
59.881683349609375
 23
-4.2451324462890625
 33
154.0
  0
3DFACE
  8
0
 10
61.47414016723633
 20
-3.7656402587890625
 30
154.0
 11
60.828800201416016
 21
-3.893967866897583
 31
154.0
 12
60.11099624633789
 22
-4.158720016479492
 32
154.0
 13
60.11099624633789
 23
-4.158720016479492
 33
154.0
  0
3DFACE
  8
0
 10
62.41438293457031
 20
-3.637864828109741
 30
154.0
 11
62.117393493652344
 21
-3.649163007736206
 31
154.0
 12
61.625789642333984
 22
-3.7443807125091553
 32
154.0
 13
61.625789642333984
 23
-3.7443807125091553
 33
154.0
  0
3DFACE
  8
0
 10
61.625789642333984
 20
-3.7443807125091553
 30
154.0
 11
61.47414016723633
 21
-3.7656402587890625
 31
154.0
 12
60.11099624633789
 22
-4.158720016479492
 32
154.0
 13
60.11099624633789
 23
-4.158720016479492
 33
154.0
  0
3DFACE
  8
0
 10
60.11099624633789
 20
-4.158720016479492
 30
154.0
 11
59.881683349609375
 21
-4.2451324462890625
 31
154.0
 12
59.793758392333984
 22
-4.287415504455566
 32
154.0
 13
59.793758392333984
 23
-4.287415504455566
 33
154.0
  0
3DFACE
  8
0
 10
59.56779098510742
 20
-4.39039421081543
 30
154.0
 11
59.259986877441406
 21
-4.523007869720459
 31
154.0
 12
58.90110778808594
 22
-4.701568126678467
 32
154.0
 13
58.90110778808594
 23
-4.701568126678467
 33
154.0
  0
3DFACE
  8
0
 10
60.11099624633789
 20
-4.158720016479492
 30
154.0
 11
59.793758392333984
 21
-4.287415504455566
 31
154.0
 12
59.56779098510742
 22
-4.39039421081543
 32
154.0
 13
59.56779098510742
 23
-4.39039421081543
 33
154.0
  0
3DFACE
  8
0
 10
62.41438293457031
 20
-3.637864828109741
 30
154.0
 11
61.625789642333984
 21
-3.7443807125091553
 31
154.0
 12
60.11099624633789
 22
-4.158720016479492
 32
154.0
 13
60.11099624633789
 23
-4.158720016479492
 33
154.0
  0
3DFACE
  8
0
 10
63.477447509765625
 20
-3.637974977493286
 30
154.0
 11
63.20297622680664
 21
-3.6182825565338135
 31
154.0
 12
62.88475036621094
 22
-3.6395459175109863
 32
154.0
 13
62.88475036621094
 23
-3.6395459175109863
 33
154.0
  0
3DFACE
  8
0
 10
62.88475036621094
 20
-3.6395459175109863
 30
154.0
 11
62.41438293457031
 21
-3.637864828109741
 31
154.0
 12
60.11099624633789
 22
-4.158720016479492
 32
154.0
 13
60.11099624633789
 23
-4.158720016479492
 33
154.0
  0
3DFACE
  8
0
 10
60.11099624633789
 20
-4.158720016479492
 30
154.0
 11
59.56779098510742
 21
-4.39039421081543
 31
154.0
 12
58.90110778808594
 22
-4.701568126678467
 32
154.0
 13
58.90110778808594
 23
-4.701568126678467
 33
154.0
  0
3DFACE
  8
0
 10
58.465858459472656
 20
-4.9702372550964355
 30
154.0
 11
58.33617401123047
 21
-5.043351173400879
 31
154.0
 12
57.726131439208984
 22
-5.515310287475586
 32
154.0
 13
57.726131439208984
 23
-5.515310287475586
 33
154.0
  0
3DFACE
  8
0
 10
60.11099624633789
 20
-4.158720016479492
 30
154.0
 11
58.90110778808594
 21
-4.701568126678467
 31
154.0
 12
58.465858459472656
 22
-4.9702372550964355
 32
154.0
 13
58.465858459472656
 23
-4.9702372550964355
 33
154.0
  0
3DFACE
  8
0
 10
63.477447509765625
 20
-3.637974977493286
 30
154.0
 11
62.88475036621094
 21
-3.6395459175109863
 31
154.0
 12
60.11099624633789
 22
-4.158720016479492
 32
154.0
 13
60.11099624633789
 23
-4.158720016479492
 33
154.0
  0
3DFACE
  8
0
 10
64.69043731689453
 20
-3.8673813343048096
 30
154.0
 11
64.04717254638672
 21
-3.745504856109619
 31
154.0
 12
63.99158477783203
 22
-3.737880229949951
 32
154.0
 13
63.99158477783203
 23
-3.737880229949951
 33
154.0
  0
3DFACE
  8
0
 10
63.99158477783203
 20
-3.737880229949951
 30
154.0
 11
63.477447509765625
 21
-3.637974977493286
 31
154.0
 12
60.11099624633789
 22
-4.158720016479492
 32
154.0
 13
60.11099624633789
 23
-4.158720016479492
 33
154.0
  0
3DFACE
  8
0
 10
60.11099624633789
 20
-4.158720016479492
 30
154.0
 11
58.465858459472656
 21
-4.9702372550964355
 31
154.0
 12
57.726131439208984
 22
-5.515310287475586
 32
154.0
 13
57.726131439208984
 23
-5.515310287475586
 33
154.0
  0
3DFACE
  8
0
 10
57.726131439208984
 20
-5.515310287475586
 30
154.0
 11
57.682796478271484
 21
-5.5437235832214355
 31
154.0
 12
57.61187744140625
 22
-5.59675407409668
 32
154.0
 13
57.61187744140625
 23
-5.59675407409668
 33
154.0
  0
3DFACE
  8
0
 10
57.61187744140625
 20
-5.59675407409668
 30
154.0
 11
57.38707733154297
 21
-5.819339752197266
 31
154.0
 12
56.79247283935547
 22
-6.5892252922058105
 32
154.0
 13
56.79247283935547
 23
-6.5892252922058105
 33
154.0
  0
3DFACE
  8
0
 10
56.79247283935547
 20
-6.5892252922058105
 30
154.0
 11
56.37683868408203
 21
-7.337063789367676
 31
154.0
 12
56.16487121582031
 22
-7.970427989959717
 32
154.0
 13
56.16487121582031
 23
-7.970427989959717
 33
154.0
  0
3DFACE
  8
0
 10
56.16487121582031
 20
-7.970427989959717
 30
154.0
 11
56.10801696777344
 21
-8.127547264099121
 31
154.0
 12
56.09490203857422
 22
-8.204242706298828
 32
154.0
 13
56.09490203857422
 23
-8.204242706298828
 33
154.0
  0
3DFACE
  8
0
 10
56.09490203857422
 20
-8.204242706298828
 30
154.0
 11
56.04645538330078
 21
-8.445083618164062
 31
154.0
 12
55.963069915771484
 22
-8.896754264831543
 32
154.0
 13
55.963069915771484
 23
-8.896754264831543
 33
154.0
  0
3DFACE
  8
0
 10
55.96552276611328
 20
-9.023919105529785
 30
154.0
 11
55.95623016357422
 21
-9.66596508026123
 31
154.0
 12
56.061729431152344
 22
-10.43574047088623
 32
154.0
 13
56.061729431152344
 23
-10.43574047088623
 33
154.0
  0
3DFACE
  8
0
 10
56.09490203857422
 20
-8.204242706298828
 30
154.0
 11
55.963069915771484
 21
-8.896754264831543
 31
154.0
 12
55.96552276611328
 22
-9.023919105529785
 32
154.0
 13
55.96552276611328
 23
-9.023919105529785
 33
154.0
  0
3DFACE
  8
0
 10
56.79247283935547
 20
-6.5892252922058105
 30
154.0
 11
56.16487121582031
 21
-7.970427989959717
 31
154.0
 12
56.09490203857422
 22
-8.204242706298828
 32
154.0
 13
56.09490203857422
 23
-8.204242706298828
 33
154.0
  0
3DFACE
  8
0
 10
57.726131439208984
 20
-5.515310287475586
 30
154.0
 11
57.61187744140625
 21
-5.59675407409668
 31
154.0
 12
56.79247283935547
 22
-6.5892252922058105
 32
154.0
 13
56.79247283935547
 23
-6.5892252922058105
 33
154.0
  0
3DFACE
  8
0
 10
63.99158477783203
 20
-3.737880229949951
 30
154.0
 11
60.11099624633789
 21
-4.158720016479492
 31
154.0
 12
57.726131439208984
 22
-5.515310287475586
 32
154.0
 13
57.726131439208984
 23
-5.515310287475586
 33
154.0
  0
3DFACE
  8
0
 10
65.12568664550781
 20
-4.027063369750977
 30
154.0
 11
64.69043731689453
 21
-3.8673813343048096
 31
154.0
 12
63.99158477783203
 22
-3.737880229949951
 32
154.0
 13
63.99158477783203
 23
-3.737880229949951
 33
154.0
  0
3DFACE
  8
0
 10
65.77361297607422
 20
-4.26875638961792
 30
154.0
 11
65.56877899169922
 21
-4.18257474899292
 31
154.0
 12
65.12568664550781
 22
-4.027063369750977
 32
154.0
 13
65.12568664550781
 23
-4.027063369750977
 33
154.0
  0
3DFACE
  8
0
 10
66.49761962890625
 20
-4.659626007080078
 30
154.0
 11
66.35737609863281
 21
-4.5724101066589355
 31
154.0
 12
65.77361297607422
 22
-4.26875638961792
 32
154.0
 13
65.77361297607422
 23
-4.26875638961792
 33
154.0
  0
3DFACE
  8
0
 10
67.9345703125
 20
-5.5927042961120605
 30
154.0
 11
67.19769287109375
 21
-5.050714492797852
 31
154.0
 12
66.49761962890625
 22
-4.659626007080078
 32
154.0
 13
66.49761962890625
 23
-4.659626007080078
 33
154.0
  0
3DFACE
  8
0
 10
68.2151107788086
 20
-5.81992244720459
 30
154.0
 11
68.11200714111328
 21
-5.733384609222412
 31
154.0
 12
67.9345703125
 22
-5.5927042961120605
 32
154.0
 13
67.9345703125
 23
-5.5927042961120605
 33
154.0
  0
3DFACE
  8
0
 10
68.95869445800781
 20
-6.586585998535156
 30
154.0
 11
68.3160171508789
 21
-5.919763565063477
 31
154.0
 12
68.2151107788086
 22
-5.81992244720459
 32
154.0
 13
68.2151107788086
 23
-5.81992244720459
 33
154.0
  0
3DFACE
  8
0
 10
69.81681060791016
 20
-8.127547264099121
 30
154.0
 11
69.48475646972656
 21
-7.358558654785156
 31
154.0
 12
69.42469024658203
 22
-7.27340030670166
 32
154.0
 13
69.42469024658203
 23
-7.27340030670166
 33
154.0
  0
3DFACE
  8
0
 10
69.42469024658203
 20
-7.27340030670166
 30
154.0
 11
68.95869445800781
 21
-6.586585998535156
 31
154.0
 12
68.2151107788086
 22
-5.81992244720459
 32
154.0
 13
68.2151107788086
 23
-5.81992244720459
 33
154.0
  0
3DFACE
  8
0
 10
68.2151107788086
 20
-5.81992244720459
 30
154.0
 11
67.9345703125
 21
-5.5927042961120605
 31
154.0
 12
66.49761962890625
 22
-4.659626007080078
 32
154.0
 13
66.49761962890625
 23
-4.659626007080078
 33
154.0
  0
3DFACE
  8
0
 10
66.49761962890625
 20
-4.659626007080078
 30
154.0
 11
65.77361297607422
 21
-4.26875638961792
 31
154.0
 12
65.12568664550781
 22
-4.027063369750977
 32
154.0
 13
65.12568664550781
 23
-4.027063369750977
 33
154.0
  0
3DFACE
  8
0
 10
65.12568664550781
 20
-4.027063369750977
 30
154.0
 11
63.99158477783203
 21
-3.737880229949951
 31
154.0
 12
57.726131439208984
 22
-5.515310287475586
 32
154.0
 13
57.726131439208984
 23
-5.515310287475586
 33
154.0
  0
3DFACE
  8
0
 10
57.726131439208984
 20
-5.515310287475586
 30
154.0
 11
56.79247283935547
 21
-6.5892252922058105
 31
154.0
 12
56.09490203857422
 22
-8.204242706298828
 32
154.0
 13
56.09490203857422
 23
-8.204242706298828
 33
154.0
  0
3DFACE
  8
0
 10
56.09490203857422
 20
-8.204242706298828
 30
154.0
 11
55.96552276611328
 21
-9.023919105529785
 31
154.0
 12
56.061729431152344
 22
-10.43574047088623
 32
154.0
 13
56.061729431152344
 23
-10.43574047088623
 33
154.0
  0
3DFACE
  8
0
 10
56.061729431152344
 20
-10.43574047088623
 30
154.0
 11
56.15754699707031
 21
-10.851608276367188
 31
154.0
 12
56.24779510498047
 22
-11.204380989074707
 32
154.0
 13
56.24779510498047
 23
-11.204380989074707
 33
154.0
  0
3DFACE
  8
0
 10
56.452239990234375
 20
-11.821812629699707
 30
154.0
 11
56.49493408203125
 21
-11.973589897155762
 31
154.0
 12
56.622535705566406
 22
-12.285550117492676
 32
154.0
 13
56.622535705566406
 23
-12.285550117492676
 33
154.0
  0
3DFACE
  8
0
 10
56.061729431152344
 20
-10.43574047088623
 30
154.0
 11
56.24779510498047
 21
-11.204380989074707
 31
154.0
 12
56.452239990234375
 22
-11.821812629699707
 32
154.0
 13
56.452239990234375
 23
-11.821812629699707
 33
154.0
  0
3DFACE
  8
0
 10
57.726131439208984
 20
-5.515310287475586
 30
154.0
 11
56.09490203857422
 21
-8.204242706298828
 31
154.0
 12
56.061729431152344
 22
-10.43574047088623
 32
154.0
 13
56.061729431152344
 23
-10.43574047088623
 33
154.0
  0
3DFACE
  8
0
 10
66.49761962890625
 20
-4.659626007080078
 30
154.0
 11
65.12568664550781
 21
-4.027063369750977
 31
154.0
 12
57.726131439208984
 22
-5.515310287475586
 32
154.0
 13
57.726131439208984
 23
-5.515310287475586
 33
154.0
  0
3DFACE
  8
0
 10
69.42469024658203
 20
-7.27340030670166
 30
154.0
 11
68.2151107788086
 21
-5.81992244720459
 31
154.0
 12
66.49761962890625
 22
-4.659626007080078
 32
154.0
 13
66.49761962890625
 23
-4.659626007080078
 33
154.0
  0
3DFACE
  8
0
 10
69.9160385131836
 20
-8.52187728881836
 30
154.0
 11
69.81681060791016
 21
-8.127547264099121
 31
154.0
 12
69.42469024658203
 22
-7.27340030670166
 32
154.0
 13
69.42469024658203
 23
-7.27340030670166
 33
154.0
  0
3DFACE
  8
0
 10
70.07571411132812
 20
-9.166569709777832
 30
154.0
 11
70.03268432617188
 21
-8.896754264831543
 31
154.0
 12
69.9160385131836
 22
-8.52187728881836
 32
154.0
 13
69.9160385131836
 23
-8.52187728881836
 33
154.0
  0
3DFACE
  8
0
 10
70.11693572998047
 20
-9.935477256774902
 30
154.0
 11
70.13123321533203
 21
-9.66596508026123
 31
154.0
 12
70.07571411132812
 22
-9.166569709777832
 32
154.0
 13
70.07571411132812
 23
-9.166569709777832
 33
154.0
  0
3DFACE
  8
0
 10
70.0340576171875
 20
-10.910355567932129
 30
154.0
 11
70.10993194580078
 21
-10.435172080993652
 31
154.0
 12
70.11693572998047
 22
-9.935477256774902
 32
154.0
 13
70.11693572998047
 23
-9.935477256774902
 33
154.0
  0
3DFACE
  8
0
 10
69.8120346069336
 20
-11.973589897155762
 30
154.0
 11
70.01854705810547
 21
-11.183379173278809
 31
154.0
 12
70.0340576171875
 22
-10.910355567932129
 32
154.0
 13
70.0340576171875
 23
-10.910355567932129
 33
154.0
  0
3DFACE
  8
0
 10
69.55067443847656
 20
-12.720562934875488
 30
154.0
 11
69.5615463256836
 21
-12.69425106048584
 31
154.0
 12
69.8120346069336
 22
-11.973589897155762
 32
154.0
 13
69.8120346069336
 23
-11.973589897155762
 33
154.0
  0
3DFACE
  8
0
 10
69.529541015625
 20
-12.770527839660645
 30
154.0
 11
69.5419921875
 21
-12.742796897888184
 31
154.0
 12
69.55067443847656
 22
-12.720562934875488
 32
154.0
 13
69.55067443847656
 23
-12.720562934875488
 33
154.0
  0
3DFACE
  8
0
 10
68.72198486328125
 20
-14.27971076965332
 30
154.0
 11
69.1529769897461
 21
-13.512005805969238
 31
154.0
 12
69.529541015625
 22
-12.770527839660645
 32
154.0
 13
69.529541015625
 23
-12.770527839660645
 33
154.0
  0
3DFACE
  8
0
 10
68.07099914550781
 20
-15.050421714782715
 30
154.0
 11
68.72101593017578
 21
-14.281216621398926
 31
154.0
 12
68.72198486328125
 22
-14.27971076965332
 32
154.0
 13
68.72198486328125
 23
-14.27971076965332
 33
154.0
  0
3DFACE
  8
0
 10
67.22396087646484
 20
-15.826696395874023
 30
154.0
 11
67.2839126586914
 21
-15.778998374938965
 31
154.0
 12
68.07099914550781
 22
-15.050421714782715
 32
154.0
 13
68.07099914550781
 23
-15.050421714782715
 33
154.0
  0
3DFACE
  8
0
 10
66.35737609863281
 20
-16.327110290527344
 30
154.0
 11
66.57799530029297
 21
-16.223543167114258
 31
154.0
 12
67.11363983154297
 22
-15.890885353088379
 32
154.0
 13
67.11363983154297
 23
-15.890885353088379
 33
154.0
  0
3DFACE
  8
0
 10
67.11363983154297
 20
-15.890885353088379
 30
154.0
 11
67.22396087646484
 21
-15.826696395874023
 31
154.0
 12
68.07099914550781
 22
-15.050421714782715
 32
154.0
 13
68.07099914550781
 23
-15.050421714782715
 33
154.0
  0
3DFACE
  8
0
 10
68.07099914550781
 20
-15.050421714782715
 30
154.0
 11
68.72198486328125
 21
-14.27971076965332
 31
154.0
 12
69.529541015625
 22
-12.770527839660645
 32
154.0
 13
69.529541015625
 23
-12.770527839660645
 33
154.0
  0
3DFACE
  8
0
 10
69.529541015625
 20
-12.770527839660645
 30
154.0
 11
69.55067443847656
 21
-12.720562934875488
 31
154.0
 12
69.8120346069336
 22
-11.973589897155762
 32
154.0
 13
69.8120346069336
 23
-11.973589897155762
 33
154.0
  0
3DFACE
  8
0
 10
69.8120346069336
 20
-11.973589897155762
 30
154.0
 11
70.0340576171875
 21
-10.910355567932129
 31
154.0
 12
70.11693572998047
 22
-9.935477256774902
 32
154.0
 13
70.11693572998047
 23
-9.935477256774902
 33
154.0
  0
3DFACE
  8
0
 10
70.11693572998047
 20
-9.935477256774902
 30
154.0
 11
70.07571411132812
 21
-9.166569709777832
 31
154.0
 12
69.9160385131836
 22
-8.52187728881836
 32
154.0
 13
69.9160385131836
 23
-8.52187728881836
 33
154.0
  0
3DFACE
  8
0
 10
69.9160385131836
 20
-8.52187728881836
 30
154.0
 11
69.42469024658203
 21
-7.27340030670166
 31
154.0
 12
66.49761962890625
 22
-4.659626007080078
 32
154.0
 13
66.49761962890625
 23
-4.659626007080078
 33
154.0
  0
3DFACE
  8
0
 10
66.49761962890625
 20
-4.659626007080078
 30
154.0
 11
57.726131439208984
 21
-5.515310287475586
 31
154.0
 12
56.061729431152344
 22
-10.43574047088623
 32
154.0
 13
56.061729431152344
 23
-10.43574047088623
 33
154.0
  0
3DFACE
  8
0
 10
56.061729431152344
 20
-10.43574047088623
 30
154.0
 11
56.452239990234375
 21
-11.821812629699707
 31
154.0
 12
56.622535705566406
 22
-12.285550117492676
 32
154.0
 13
56.622535705566406
 23
-12.285550117492676
 33
154.0
  0
3DFACE
  8
0
 10
56.622535705566406
 20
-12.285550117492676
 30
154.0
 11
56.799217224121094
 21
-12.742796897888184
 31
154.0
 12
57.215335845947266
 22
-13.512283325195312
 32
154.0
 13
57.215335845947266
 23
-13.512283325195312
 33
154.0
  0
3DFACE
  8
0
 10
57.215335845947266
 20
-13.512283325195312
 30
154.0
 11
57.60197067260742
 21
-14.075201034545898
 31
154.0
 12
57.76425552368164
 22
-14.281216621398926
 32
154.0
 13
57.76425552368164
 23
-14.281216621398926
 33
154.0
  0
3DFACE
  8
0
 10
57.76425552368164
 20
-14.281216621398926
 30
154.0
 11
57.794837951660156
 21
-14.31818962097168
 31
154.0
 12
57.999515533447266
 22
-14.548952102661133
 32
154.0
 13
57.999515533447266
 23
-14.548952102661133
 33
154.0
  0
3DFACE
  8
0
 10
57.999515533447266
 20
-14.548952102661133
 30
154.0
 11
58.831485748291016
 21
-15.325627326965332
 31
154.0
 12
59.06232452392578
 22
-15.50544548034668
 32
154.0
 13
59.06232452392578
 23
-15.50544548034668
 33
154.0
  0
3DFACE
  8
0
 10
59.828369140625
 20
-16.0109806060791
 30
154.0
 11
60.048583984375
 21
-16.161911010742188
 31
154.0
 12
60.2213020324707
 22
-16.260120391845703
 32
154.0
 13
60.2213020324707
 23
-16.260120391845703
 33
154.0
  0
3DFACE
  8
0
 10
57.999515533447266
 20
-14.548952102661133
 30
154.0
 11
59.06232452392578
 21
-15.50544548034668
 31
154.0
 12
59.828369140625
 22
-16.0109806060791
 32
154.0
 13
59.828369140625
 23
-16.0109806060791
 33
154.0
  0
3DFACE
  8
0
 10
57.215335845947266
 20
-13.512283325195312
 30
154.0
 11
57.76425552368164
 21
-14.281216621398926
 31
154.0
 12
57.999515533447266
 22
-14.548952102661133
 32
154.0
 13
57.999515533447266
 23
-14.548952102661133
 33
154.0
  0
3DFACE
  8
0
 10
56.061729431152344
 20
-10.43574047088623
 30
154.0
 11
56.622535705566406
 21
-12.285550117492676
 31
154.0
 12
57.215335845947266
 22
-13.512283325195312
 32
154.0
 13
57.215335845947266
 23
-13.512283325195312
 33
154.0
  0
3DFACE
  8
0
 10
69.9160385131836
 20
-8.52187728881836
 30
154.0
 11
66.49761962890625
 21
-4.659626007080078
 31
154.0
 12
56.061729431152344
 22
-10.43574047088623
 32
154.0
 13
56.061729431152344
 23
-10.43574047088623
 33
154.0
  0
3DFACE
  8
0
 10
69.8120346069336
 20
-11.973589897155762
 30
154.0
 11
70.11693572998047
 21
-9.935477256774902
 31
154.0
 12
69.9160385131836
 22
-8.52187728881836
 32
154.0
 13
69.9160385131836
 23
-8.52187728881836
 33
154.0
  0
3DFACE
  8
0
 10
68.07099914550781
 20
-15.050421714782715
 30
154.0
 11
69.529541015625
 21
-12.770527839660645
 31
154.0
 12
69.8120346069336
 22
-11.973589897155762
 32
154.0
 13
69.8120346069336
 23
-11.973589897155762
 33
154.0
  0
3DFACE
  8
0
 10
66.35737609863281
 20
-16.327110290527344
 30
154.0
 11
67.11363983154297
 21
-15.890885353088379
 31
154.0
 12
68.07099914550781
 22
-15.050421714782715
 32
154.0
 13
68.07099914550781
 23
-15.050421714782715
 33
154.0
  0
3DFACE
  8
0
 10
65.56877899169922
 20
-16.633920669555664
 30
154.0
 11
66.00563049316406
 21
-16.482322692871094
 31
154.0
 12
66.35737609863281
 22
-16.327110290527344
 32
154.0
 13
66.35737609863281
 23
-16.327110290527344
 33
154.0
  0
3DFACE
  8
0
 10
65.06639099121094
 20
-16.79853630065918
 30
154.0
 11
65.31669616699219
 21
-16.74038314819336
 31
154.0
 12
65.56877899169922
 22
-16.633920669555664
 32
154.0
 13
65.56877899169922
 23
-16.633920669555664
 33
154.0
  0
3DFACE
  8
0
 10
64.08545684814453
 20
-16.98057746887207
 30
154.0
 11
64.71306610107422
 21
-16.901119232177734
 31
154.0
 12
65.06639099121094
 22
-16.79853630065918
 32
154.0
 13
65.06639099121094
 23
-16.79853630065918
 33
154.0
  0
3DFACE
  8
0
 10
63.99158477783203
 20
-16.98678970336914
 30
154.0
 11
64.04717254638672
 21
-16.98685646057129
 31
154.0
 12
64.08545684814453
 22
-16.98057746887207
 32
154.0
 13
64.08545684814453
 23
-16.98057746887207
 33
154.0
  0
3DFACE
  8
0
 10
63.20297622680664
 20
-17.030961990356445
 30
154.0
 11
63.40390396118164
 21
-17.03688621520996
 31
154.0
 12
63.99158477783203
 22
-16.98678970336914
 32
154.0
 13
63.99158477783203
 23
-16.98678970336914
 33
154.0
  0
3DFACE
  8
0
 10
62.45599365234375
 20
-16.959211349487305
 30
154.0
 11
62.76064682006836
 21
-16.993135452270508
 31
154.0
 12
63.20297622680664
 22
-17.030961990356445
 32
154.0
 13
63.20297622680664
 23
-17.030961990356445
 33
154.0
  0
3DFACE
  8
0
 10
61.896541595458984
 20
-16.859785079956055
 30
154.0
 11
62.11738967895508
 21
-16.906484603881836
 31
154.0
 12
62.45599365234375
 22
-16.959211349487305
 32
154.0
 13
62.45599365234375
 23
-16.959211349487305
 33
154.0
  0
3DFACE
  8
0
 10
60.84718322753906
 20
-16.540510177612305
 30
154.0
 11
61.625789642333984
 21
-16.790451049804688
 31
154.0
 12
61.896541595458984
 22
-16.859785079956055
 32
154.0
 13
61.896541595458984
 23
-16.859785079956055
 33
154.0
  0
3DFACE
  8
0
 10
60.83372116088867
 20
-16.53665542602539
 30
154.0
 11
60.838443756103516
 21
-16.538131713867188
 31
154.0
 12
60.84718322753906
 22
-16.540510177612305
 32
154.0
 13
60.84718322753906
 23
-16.540510177612305
 33
154.0
  0
3DFACE
  8
0
 10
60.82571792602539
 20
-16.532997131347656
 30
154.0
 11
60.83089065551758
 21
-16.535554885864258
 31
154.0
 12
60.83372116088867
 22
-16.53665542602539
 32
154.0
 13
60.83372116088867
 23
-16.53665542602539
 33
154.0
  0
3DFACE
  8
0
 10
59.828369140625
 20
-16.0109806060791
 30
154.0
 11
60.2213020324707
 21
-16.260120391845703
 31
154.0
 12
60.82571792602539
 22
-16.532997131347656
 32
154.0
 13
60.82571792602539
 23
-16.532997131347656
 33
154.0
  0
3DFACE
  8
0
 10
57.215335845947266
 20
-13.512283325195312
 30
154.0
 11
57.999515533447266
 21
-14.548952102661133
 31
154.0
 12
59.828369140625
 22
-16.0109806060791
 32
154.0
 13
59.828369140625
 23
-16.0109806060791
 33
154.0
  0
3DFACE
  8
0
 10
69.9160385131836
 20
-8.52187728881836
 30
154.0
 11
56.061729431152344
 21
-10.43574047088623
 31
154.0
 12
57.215335845947266
 22
-13.512283325195312
 32
154.0
 13
57.215335845947266
 23
-13.512283325195312
 33
154.0
  0
3DFACE
  8
0
 10
68.07099914550781
 20
-15.050421714782715
 30
154.0
 11
69.8120346069336
 21
-11.973589897155762
 31
154.0
 12
69.9160385131836
 22
-8.52187728881836
 32
154.0
 13
69.9160385131836
 23
-8.52187728881836
 33
154.0
  0
3DFACE
  8
0
 10
65.56877899169922
 20
-16.633920669555664
 30
154.0
 11
66.35737609863281
 21
-16.327110290527344
 31
154.0
 12
68.07099914550781
 22
-15.050421714782715
 32
154.0
 13
68.07099914550781
 23
-15.050421714782715
 33
154.0
  0
3DFACE
  8
0
 10
64.08545684814453
 20
-16.98057746887207
 30
154.0
 11
65.06639099121094
 21
-16.79853630065918
 31
154.0
 12
65.56877899169922
 22
-16.633920669555664
 32
154.0
 13
65.56877899169922
 23
-16.633920669555664
 33
154.0
  0
3DFACE
  8
0
 10
63.20297622680664
 20
-17.030961990356445
 30
154.0
 11
63.99158477783203
 21
-16.98678970336914
 31
154.0
 12
64.08545684814453
 22
-16.98057746887207
 32
154.0
 13
64.08545684814453
 23
-16.98057746887207
 33
154.0
  0
3DFACE
  8
0
 10
61.896541595458984
 20
-16.859785079956055
 30
154.0
 11
62.45599365234375
 21
-16.959211349487305
 31
154.0
 12
63.20297622680664
 22
-17.030961990356445
 32
154.0
 13
63.20297622680664
 23
-17.030961990356445
 33
154.0
  0
3DFACE
  8
0
 10
60.82571792602539
 20
-16.532997131347656
 30
154.0
 11
60.83372116088867
 21
-16.53665542602539
 31
154.0
 12
60.84718322753906
 22
-16.540510177612305
 32
154.0
 13
60.84718322753906
 23
-16.540510177612305
 33
154.0
  0
3DFACE
  8
0
 10
60.84718322753906
 20
-16.540510177612305
 30
154.0
 11
61.896541595458984
 21
-16.859785079956055
 31
154.0
 12
63.20297622680664
 22
-17.030961990356445
 32
154.0
 13
63.20297622680664
 23
-17.030961990356445
 33
154.0
  0
3DFACE
  8
0
 10
63.20297622680664
 20
-17.030961990356445
 30
154.0
 11
64.08545684814453
 21
-16.98057746887207
 31
154.0
 12
65.56877899169922
 22
-16.633920669555664
 32
154.0
 13
65.56877899169922
 23
-16.633920669555664
 33
154.0
  0
3DFACE
  8
0
 10
65.56877899169922
 20
-16.633920669555664
 30
154.0
 11
68.07099914550781
 21
-15.050421714782715
 31
154.0
 12
69.9160385131836
 22
-8.52187728881836
 32
154.0
 13
69.9160385131836
 23
-8.52187728881836
 33
154.0
  0
3DFACE
  8
0
 10
69.9160385131836
 20
-8.52187728881836
 30
154.0
 11
57.215335845947266
 21
-13.512283325195312
 31
154.0
 12
59.828369140625
 22
-16.0109806060791
 32
154.0
 13
59.828369140625
 23
-16.0109806060791
 33
154.0
  0
3DFACE
  8
0
 10
59.828369140625
 20
-16.0109806060791
 30
154.0
 11
60.82571792602539
 21
-16.532997131347656
 31
154.0
 12
60.84718322753906
 22
-16.540510177612305
 32
154.0
 13
60.84718322753906
 23
-16.540510177612305
 33
154.0
  0
3DFACE
  8
0
 10
60.84718322753906
 20
-16.540510177612305
 30
154.0
 11
63.20297622680664
 21
-17.030961990356445
 31
154.0
 12
65.56877899169922
 22
-16.633920669555664
 32
154.0
 13
65.56877899169922
 23
-16.633920669555664
 33
154.0
  0
3DFACE
  8
0
 10
65.56877899169922
 20
-16.633920669555664
 30
154.0
 11
69.9160385131836
 21
-8.52187728881836
 31
154.0
 12
59.828369140625
 22
-16.0109806060791
 32
154.0
 13
59.828369140625
 23
-16.0109806060791
 33
154.0
  0
3DFACE
  8
0
 10
59.828369140625
 20
-16.0109806060791
 30
154.0
 11
60.84718322753906
 21
-16.540510177612305
 31
154.0
 12
65.56877899169922
 22
-16.633920669555664
 32
154.0
 13
65.56877899169922
 23
-16.633920669555664
 33
154.0
  0
3DFACE
  8
0
 10
-39.756561279296875
 20
-4.414838790893555
 30
154.0
 11
-39.71828842163086
 21
-4.365939140319824
 31
154.0
 12
-39.67310333251953
 22
-4.295794486999512
 32
154.0
 13
-39.67310333251953
 23
-4.295794486999512
 33
154.0
  0
3DFACE
  8
0
 10
-39.67310333251953
 20
-4.295794486999512
 30
154.0
 11
-39.42634201049805
 21
-3.515316963195801
 31
154.0
 12
-39.38814163208008
 22
-2.894641637802124
 32
154.0
 13
-39.38814163208008
 23
-2.894641637802124
 33
154.0
  0
3DFACE
  8
0
 10
-39.38814163208008
 20
-2.894641637802124
 30
154.0
 11
-39.37310028076172
 21
-2.7348380088806152
 31
154.0
 12
-39.44566345214844
 22
-2.082996368408203
 32
154.0
 13
-39.44566345214844
 23
-2.082996368408203
 33
154.0
  0
3DFACE
  8
0
 10
-39.44566345214844
 20
-2.082996368408203
 30
154.0
 11
-39.45527648925781
 21
-1.954359769821167
 31
154.0
 12
-39.49787902832031
 22
-1.7945561408996582
 32
154.0
 13
-39.49787902832031
 23
-1.7945561408996582
 33
154.0
  0
3DFACE
  8
0
 10
-39.49787902832031
 20
-1.7945561408996582
 30
154.0
 11
-39.71253967285156
 21
-1.1738810539245605
 31
154.0
 12
-39.744354248046875
 22
-1.1218345165252686
 32
154.0
 13
-39.744354248046875
 23
-1.1218345165252686
 33
154.0
  0
3DFACE
  8
0
 10
-39.761138916015625
 20
-1.1006319522857666
 30
154.0
 11
-40.152626037597656
 21
-0.39340299367904663
 31
154.0
 12
-40.27580642700195
 22
-0.2849133312702179
 32
154.0
 13
-40.27580642700195
 23
-0.2849133312702179
 33
154.0
  0
3DFACE
  8
0
 10
-39.49787902832031
 20
-1.7945561408996582
 30
154.0
 11
-39.744354248046875
 21
-1.1218345165252686
 31
154.0
 12
-39.761138916015625
 22
-1.1006319522857666
 32
154.0
 13
-39.761138916015625
 23
-1.1006319522857666
 33
154.0
  0
3DFACE
  8
0
 10
-39.38814163208008
 20
-2.894641637802124
 30
154.0
 11
-39.44566345214844
 21
-2.082996368408203
 31
154.0
 12
-39.49787902832031
 22
-1.7945561408996582
 32
154.0
 13
-39.49787902832031
 23
-1.7945561408996582
 33
154.0
  0
3DFACE
  8
0
 10
-39.756561279296875
 20
-4.414838790893555
 30
154.0
 11
-39.67310333251953
 21
-4.295794486999512
 31
154.0
 12
-39.38814163208008
 22
-2.894641637802124
 32
154.0
 13
-39.38814163208008
 23
-2.894641637802124
 33
154.0
  0
3DFACE
  8
0
 10
-40.3707389831543
 20
-5.393619537353516
 30
154.0
 11
-40.12724685668945
 21
-5.076273441314697
 31
154.0
 12
-39.756561279296875
 22
-4.414838790893555
 32
154.0
 13
-39.756561279296875
 23
-4.414838790893555
 33
154.0
  0
3DFACE
  8
0
 10
-40.53376007080078
 20
-5.553422927856445
 30
154.0
 11
-40.479164123535156
 21
-5.504001140594482
 31
154.0
 12
-40.3707389831543
 22
-5.393619537353516
 32
154.0
 13
-40.3707389831543
 23
-5.393619537353516
 33
154.0
  0
3DFACE
  8
0
 10
-41.15443420410156
 20
-6.186902046203613
 30
154.0
 11
-40.77827835083008
 21
-5.856751441955566
 31
154.0
 12
-40.53376007080078
 22
-5.553422927856445
 32
154.0
 13
-40.53376007080078
 23
-5.553422927856445
 33
154.0
  0
3DFACE
  8
0
 10
-41.411136627197266
 20
-6.351475238800049
 30
154.0
 11
-41.2596435546875
 21
-6.264452934265137
 31
154.0
 12
-41.15443420410156
 22
-6.186902046203613
 32
154.0
 13
-41.15443420410156
 23
-6.186902046203613
 33
154.0
  0
3DFACE
  8
0
 10
-42.03181076049805
 20
-6.788966655731201
 30
154.0
 11
-41.81773376464844
 21
-6.6419997215271
 31
154.0
 12
-41.411136627197266
 22
-6.351475238800049
 32
154.0
 13
-41.411136627197266
 23
-6.351475238800049
 33
154.0
  0
3DFACE
  8
0
 10
-42.980403900146484
 20
-7.268779277801514
 30
154.0
 11
-42.82060241699219
 21
-7.224380970001221
 31
154.0
 12
-42.199928283691406
 22
-6.874398708343506
 32
154.0
 13
-42.199928283691406
 23
-6.874398708343506
 33
154.0
  0
3DFACE
  8
0
 10
-42.199928283691406
 20
-6.874398708343506
 30
154.0
 11
-42.03181076049805
 21
-6.788966655731201
 31
154.0
 12
-41.411136627197266
 22
-6.351475238800049
 32
154.0
 13
-41.411136627197266
 23
-6.351475238800049
 33
154.0
  0
3DFACE
  8
0
 10
-41.411136627197266
 20
-6.351475238800049
 30
154.0
 11
-41.15443420410156
 21
-6.186902046203613
 31
154.0
 12
-40.53376007080078
 22
-5.553422927856445
 32
154.0
 13
-40.53376007080078
 23
-5.553422927856445
 33
154.0
  0
3DFACE
  8
0
 10
-40.53376007080078
 20
-5.553422927856445
 30
154.0
 11
-40.3707389831543
 21
-5.393619537353516
 31
154.0
 12
-39.756561279296875
 22
-4.414838790893555
 32
154.0
 13
-39.756561279296875
 23
-4.414838790893555
 33
154.0
  0
3DFACE
  8
0
 10
-39.756561279296875
 20
-4.414838790893555
 30
154.0
 11
-39.38814163208008
 21
-2.894641637802124
 31
154.0
 12
-39.49787902832031
 22
-1.7945561408996582
 32
154.0
 13
-39.49787902832031
 23
-1.7945561408996582
 33
154.0
  0
3DFACE
  8
0
 10
-39.49787902832031
 20
-1.7945561408996582
 30
154.0
 11
-39.761138916015625
 21
-1.1006319522857666
 31
154.0
 12
-40.27580642700195
 22
-0.2849133312702179
 32
154.0
 13
-40.27580642700195
 23
-0.2849133312702179
 33
154.0
  0
3DFACE
  8
0
 10
-40.27580642700195
 20
-0.2849133312702179
 30
154.0
 11
-40.479164123535156
 21
-0.04698903486132622
 31
154.0
 12
-40.920806884765625
 22
0.3357616364955902
 32
154.0
 13
-40.920806884765625
 23
0.3357616364955902
 33
154.0
  0
3DFACE
  8
0
 10
-40.920806884765625
 20
0.3357616364955902
 30
154.0
 11
-40.98957443237305
 21
0.3870755434036255
 31
154.0
 12
-41.08061218261719
 22
0.4416520297527313
 32
154.0
 13
-41.08061218261719
 23
0.4416520297527313
 33
154.0
  0
3DFACE
  8
0
 10
-41.08061218261719
 20
0.4416520297527313
 30
154.0
 11
-41.2596435546875
 21
0.5706058740615845
 31
154.0
 12
-41.41944885253906
 22
0.6363404989242554
 32
154.0
 13
-41.41944885253906
 23
0.6363404989242554
 33
154.0
  0
3DFACE
  8
0
 10
-41.41944885253906
 20
0.6363404989242554
 30
154.0
 11
-42.040122985839844
 21
1.0253986120224
 31
154.0
 12
-42.32424545288086
 22
1.1280615329742432
 32
154.0
 13
-42.32424545288086
 23
1.1280615329742432
 33
154.0
  0
3DFACE
  8
0
 10
-42.32424545288086
 20
1.1280615329742432
 30
154.0
 11
-42.8111457824707
 21
1.2660572528839111
 31
154.0
 12
-42.980403900146484
 22
1.2990342378616333
 32
154.0
 13
-42.980403900146484
 23
1.2990342378616333
 33
154.0
  0
3DFACE
  8
0
 10
-42.980403900146484
 20
1.2990342378616333
 30
154.0
 11
-43.60107421875
 21
1.4890172481536865
 31
154.0
 12
-43.76087951660156
 22
1.5083587169647217
 32
154.0
 13
-43.76087951660156
 23
1.5083587169647217
 33
154.0
  0
3DFACE
  8
0
 10
-43.76087951660156
 20
1.5083587169647217
 30
154.0
 11
-44.381553649902344
 21
1.638411283493042
 31
154.0
 12
-44.541358947753906
 22
1.6409716606140137
 32
154.0
 13
-44.541358947753906
 23
1.6409716606140137
 33
154.0
  0
3DFACE
  8
0
 10
-44.541358947753906
 20
1.6409716606140137
 30
154.0
 11
-45.16204071044922
 21
1.7123053073883057
 31
154.0
 12
-45.321842193603516
 22
1.705906867980957
 32
154.0
 13
-45.321842193603516
 23
1.705906867980957
 33
154.0
  0
3DFACE
  8
0
 10
-45.321842193603516
 20
1.705906867980957
 30
154.0
 11
-45.94251251220703
 21
1.743316411972046
 31
154.0
 12
-46.102317810058594
 22
1.7325726747512817
 32
154.0
 13
-46.102317810058594
 23
1.7325726747512817
 33
154.0
  0
3DFACE
  8
0
 10
-46.102317810058594
 20
1.7325726747512817
 30
154.0
 11
-46.722991943359375
 21
1.718896746635437
 31
154.0
 12
-46.865020751953125
 22
1.6942644119262695
 32
154.0
 13
-46.865020751953125
 23
1.6942644119262695
 33
154.0
  0
3DFACE
  8
0
 10
-46.865020751953125
 20
1.6942644119262695
 30
154.0
 11
-47.50347137451172
 21
1.637993335723877
 31
154.0
 12
-48.14191818237305
 22
1.5539798736572266
 32
154.0
 13
-48.14191818237305
 23
1.5539798736572266
 33
154.0
  0
3DFACE
  8
0
 10
-48.14191818237305
 20
1.5539798736572266
 30
154.0
 11
-48.28394317626953
 21
1.5205371379852295
 31
154.0
 12
-48.86714172363281
 22
1.3740615844726562
 32
154.0
 13
-48.86714172363281
 23
1.3740615844726562
 33
154.0
  0
3DFACE
  8
0
 10
-48.86714172363281
 20
1.3740615844726562
 30
154.0
 11
-49.49541473388672
 21
1.1751495599746704
 31
154.0
 12
-49.84490966796875
 22
1.0104584693908691
 32
154.0
 13
-49.84490966796875
 23
1.0104584693908691
 33
154.0
  0
3DFACE
  8
0
 10
-50.17919921875
 20
0.8411282300949097
 30
154.0
 11
-50.625389099121094
 21
0.6366220116615295
 31
154.0
 12
-51.03525924682617
 22
0.38258931040763855
 32
154.0
 13
-51.03525924682617
 23
0.38258931040763855
 33
154.0
  0
3DFACE
  8
0
 10
-48.86714172363281
 20
1.3740615844726562
 30
154.0
 11
-49.84490966796875
 21
1.0104584693908691
 31
154.0
 12
-50.17919921875
 22
0.8411282300949097
 32
154.0
 13
-50.17919921875
 23
0.8411282300949097
 33
154.0
  0
3DFACE
  8
0
 10
-46.865020751953125
 20
1.6942644119262695
 30
154.0
 11
-48.14191818237305
 21
1.5539798736572266
 31
154.0
 12
-48.86714172363281
 22
1.3740615844726562
 32
154.0
 13
-48.86714172363281
 23
1.3740615844726562
 33
154.0
  0
3DFACE
  8
0
 10
-45.321842193603516
 20
1.705906867980957
 30
154.0
 11
-46.102317810058594
 21
1.7325726747512817
 31
154.0
 12
-46.865020751953125
 22
1.6942644119262695
 32
154.0
 13
-46.865020751953125
 23
1.6942644119262695
 33
154.0
  0
3DFACE
  8
0
 10
-43.76087951660156
 20
1.5083587169647217
 30
154.0
 11
-44.541358947753906
 21
1.6409716606140137
 31
154.0
 12
-45.321842193603516
 22
1.705906867980957
 32
154.0
 13
-45.321842193603516
 23
1.705906867980957
 33
154.0
  0
3DFACE
  8
0
 10
-41.41944885253906
 20
0.6363404989242554
 30
154.0
 11
-42.32424545288086
 21
1.1280615329742432
 31
154.0
 12
-42.980403900146484
 22
1.2990342378616333
 32
154.0
 13
-42.980403900146484
 23
1.2990342378616333
 33
154.0
  0
3DFACE
  8
0
 10
-42.980403900146484
 20
1.2990342378616333
 30
154.0
 11
-43.76087951660156
 21
1.5083587169647217
 31
154.0
 12
-45.321842193603516
 22
1.705906867980957
 32
154.0
 13
-45.321842193603516
 23
1.705906867980957
 33
154.0
  0
3DFACE
  8
0
 10
-45.321842193603516
 20
1.705906867980957
 30
154.0
 11
-46.865020751953125
 21
1.6942644119262695
 31
154.0
 12
-48.86714172363281
 22
1.3740615844726562
 32
154.0
 13
-48.86714172363281
 23
1.3740615844726562
 33
154.0
  0
3DFACE
  8
0
 10
-48.86714172363281
 20
1.3740615844726562
 30
154.0
 11
-50.17919921875
 21
0.8411282300949097
 31
154.0
 12
-51.03525924682617
 22
0.38258931040763855
 32
154.0
 13
-51.03525924682617
 23
0.38258931040763855
 33
154.0
  0
3DFACE
  8
0
 10
-51.03525924682617
 20
0.38258931040763855
 30
154.0
 11
-51.89213562011719
 21
-0.3856041133403778
 31
154.0
 12
-52.00734329223633
 22
-0.5454301238059998
 32
154.0
 13
-52.00734329223633
 23
-0.5454301238059998
 33
154.0
  0
3DFACE
  8
0
 10
-52.00734329223633
 20
-0.5454301238059998
 30
154.0
 11
-52.43001174926758
 21
-1.1738810539245605
 31
154.0
 12
-52.47780227661133
 22
-1.314614176750183
 32
154.0
 13
-52.47780227661133
 23
-1.314614176750183
 33
154.0
  0
3DFACE
  8
0
 10
-52.47780227661133
 20
-1.314614176750183
 30
154.0
 11
-52.6722526550293
 21
-1.9452167749404907
 31
154.0
 12
-52.826175689697266
 22
-2.616701126098633
 32
154.0
 13
-52.826175689697266
 23
-2.616701126098633
 33
154.0
  0
3DFACE
  8
0
 10
-52.826175689697266
 20
-2.616701126098633
 30
154.0
 11
-52.850162506103516
 21
-2.7348380088806152
 31
154.0
 12
-52.838111877441406
 22
-2.940390110015869
 32
154.0
 13
-52.838111877441406
 23
-2.940390110015869
 33
154.0
  0
3DFACE
  8
0
 10
-52.838111877441406
 20
-2.940390110015869
 30
154.0
 11
-52.831024169921875
 21
-3.515316963195801
 31
154.0
 12
-52.715824127197266
 22
-4.053622722625732
 32
154.0
 13
-52.715824127197266
 23
-4.053622722625732
 33
154.0
  0
3DFACE
  8
0
 10
-52.715824127197266
 20
-4.053622722625732
 30
154.0
 11
-52.6506233215332
 21
-4.3145060539245605
 31
154.0
 12
-52.58588409423828
 22
-4.465212821960449
 32
154.0
 13
-52.58588409423828
 23
-4.465212821960449
 33
154.0
  0
3DFACE
  8
0
 10
-52.58588409423828
 20
-4.465212821960449
 30
154.0
 11
-52.38534164428711
 21
-4.885736465454102
 31
154.0
 12
-52.28858184814453
 22
-5.076273441314697
 32
154.0
 13
-52.28858184814453
 23
-5.076273441314697
 33
154.0
  0
3DFACE
  8
0
 10
-52.28858184814453
 20
-5.076273441314697
 30
154.0
 11
-52.18450164794922
 21
-5.25212287902832
 31
154.0
 12
-51.78913116455078
 22
-5.850534915924072
 32
154.0
 13
-51.78913116455078
 23
-5.850534915924072
 33
154.0
  0
3DFACE
  8
0
 10
-51.78913116455078
 20
-5.850534915924072
 30
154.0
 11
-51.405860900878906
 21
-6.2008442878723145
 31
154.0
 12
-50.868770599365234
 22
-6.61572265625
 32
154.0
 13
-50.868770599365234
 23
-6.61572265625
 33
154.0
  0
3DFACE
  8
0
 10
-50.868770599365234
 20
-6.61572265625
 30
154.0
 11
-50.62538146972656
 21
-6.777519702911377
 31
154.0
 12
-50.490657806396484
 22
-6.833350658416748
 32
154.0
 13
-50.490657806396484
 23
-6.833350658416748
 33
154.0
  0
3DFACE
  8
0
 10
-50.490657806396484
 20
-6.833350658416748
 30
154.0
 11
-49.90618133544922
 21
-7.171301364898682
 31
154.0
 12
-49.485023498535156
 22
-7.398094654083252
 32
154.0
 13
-49.485023498535156
 23
-7.398094654083252
 33
154.0
  0
3DFACE
  8
0
 10
-49.485023498535156
 20
-7.398094654083252
 30
154.0
 11
-49.01360321044922
 21
-7.626552104949951
 31
154.0
 12
-48.53803253173828
 22
-7.750001907348633
 32
154.0
 13
-48.53803253173828
 23
-7.750001907348633
 33
154.0
  0
3DFACE
  8
0
 10
-48.53803253173828
 20
-7.750001907348633
 30
154.0
 11
-48.14582061767578
 21
-7.871034622192383
 31
154.0
 12
-47.5653190612793
 22
-7.964844226837158
 32
154.0
 13
-47.5653190612793
 23
-7.964844226837158
 33
154.0
  0
3DFACE
  8
0
 10
-47.5653190612793
 20
-7.964844226837158
 30
154.0
 11
-47.32333755493164
 21
-8.037762641906738
 31
154.0
 12
-46.722991943359375
 22
-8.080113410949707
 32
154.0
 13
-46.722991943359375
 23
-8.080113410949707
 33
154.0
  0
3DFACE
  8
0
 10
-46.12879180908203
 20
-8.034041404724121
 30
154.0
 11
-45.94251251220703
 21
-8.042494773864746
 31
154.0
 12
-45.321842193603516
 22
-7.9758172035217285
 32
154.0
 13
-45.321842193603516
 23
-7.9758172035217285
 33
154.0
  0
3DFACE
  8
0
 10
-47.5653190612793
 20
-7.964844226837158
 30
154.0
 11
-46.722991943359375
 21
-8.080113410949707
 31
154.0
 12
-46.12879180908203
 22
-8.034041404724121
 32
154.0
 13
-46.12879180908203
 23
-8.034041404724121
 33
154.0
  0
3DFACE
  8
0
 10
-49.485023498535156
 20
-7.398094654083252
 30
154.0
 11
-48.53803253173828
 21
-7.750001907348633
 31
154.0
 12
-47.5653190612793
 22
-7.964844226837158
 32
154.0
 13
-47.5653190612793
 23
-7.964844226837158
 33
154.0
  0
3DFACE
  8
0
 10
-50.868770599365234
 20
-6.61572265625
 30
154.0
 11
-50.490657806396484
 21
-6.833350658416748
 31
154.0
 12
-49.485023498535156
 22
-7.398094654083252
 32
154.0
 13
-49.485023498535156
 23
-7.398094654083252
 33
154.0
  0
3DFACE
  8
0
 10
-52.28858184814453
 20
-5.076273441314697
 30
154.0
 11
-51.78913116455078
 21
-5.850534915924072
 31
154.0
 12
-50.868770599365234
 22
-6.61572265625
 32
154.0
 13
-50.868770599365234
 23
-6.61572265625
 33
154.0
  0
3DFACE
  8
0
 10
-52.715824127197266
 20
-4.053622722625732
 30
154.0
 11
-52.58588409423828
 21
-4.465212821960449
 31
154.0
 12
-52.28858184814453
 22
-5.076273441314697
 32
154.0
 13
-52.28858184814453
 23
-5.076273441314697
 33
154.0
  0
3DFACE
  8
0
 10
-52.826175689697266
 20
-2.616701126098633
 30
154.0
 11
-52.838111877441406
 21
-2.940390110015869
 31
154.0
 12
-52.715824127197266
 22
-4.053622722625732
 32
154.0
 13
-52.715824127197266
 23
-4.053622722625732
 33
154.0
  0
3DFACE
  8
0
 10
-52.00734329223633
 20
-0.5454301238059998
 30
154.0
 11
-52.47780227661133
 21
-1.314614176750183
 31
154.0
 12
-52.826175689697266
 22
-2.616701126098633
 32
154.0
 13
-52.826175689697266
 23
-2.616701126098633
 33
154.0
  0
3DFACE
  8
0
 10
-48.86714172363281
 20
1.3740615844726562
 30
154.0
 11
-51.03525924682617
 21
0.38258931040763855
 31
154.0
 12
-52.00734329223633
 22
-0.5454301238059998
 32
154.0
 13
-52.00734329223633
 23
-0.5454301238059998
 33
154.0
  0
3DFACE
  8
0
 10
-42.980403900146484
 20
1.2990342378616333
 30
154.0
 11
-45.321842193603516
 21
1.705906867980957
 31
154.0
 12
-48.86714172363281
 22
1.3740615844726562
 32
154.0
 13
-48.86714172363281
 23
1.3740615844726562
 33
154.0
  0
3DFACE
  8
0
 10
-41.08061218261719
 20
0.4416520297527313
 30
154.0
 11
-41.41944885253906
 21
0.6363404989242554
 31
154.0
 12
-42.980403900146484
 22
1.2990342378616333
 32
154.0
 13
-42.980403900146484
 23
1.2990342378616333
 33
154.0
  0
3DFACE
  8
0
 10
-40.27580642700195
 20
-0.2849133312702179
 30
154.0
 11
-40.920806884765625
 21
0.3357616364955902
 31
154.0
 12
-41.08061218261719
 22
0.4416520297527313
 32
154.0
 13
-41.08061218261719
 23
0.4416520297527313
 33
154.0
  0
3DFACE
  8
0
 10
-39.756561279296875
 20
-4.414838790893555
 30
154.0
 11
-39.49787902832031
 21
-1.7945561408996582
 31
154.0
 12
-40.27580642700195
 22
-0.2849133312702179
 32
154.0
 13
-40.27580642700195
 23
-0.2849133312702179
 33
154.0
  0
3DFACE
  8
0
 10
-41.411136627197266
 20
-6.351475238800049
 30
154.0
 11
-40.53376007080078
 21
-5.553422927856445
 31
154.0
 12
-39.756561279296875
 22
-4.414838790893555
 32
154.0
 13
-39.756561279296875
 23
-4.414838790893555
 33
154.0
  0
3DFACE
  8
0
 10
-42.980403900146484
 20
-7.268779277801514
 30
154.0
 11
-42.199928283691406
 21
-6.874398708343506
 31
154.0
 12
-41.411136627197266
 22
-6.351475238800049
 32
154.0
 13
-41.411136627197266
 23
-6.351475238800049
 33
154.0
  0
3DFACE
  8
0
 10
-43.76087951660156
 20
-7.589069366455078
 30
154.0
 11
-43.60107421875
 21
-7.544870853424072
 31
154.0
 12
-42.980403900146484
 22
-7.268779277801514
 32
154.0
 13
-42.980403900146484
 23
-7.268779277801514
 33
154.0
  0
3DFACE
  8
0
 10
-44.541358947753906
 20
-7.8252644538879395
 30
154.0
 11
-44.381553649902344
 21
-7.810248851776123
 31
154.0
 12
-43.76087951660156
 22
-7.589069366455078
 32
154.0
 13
-43.76087951660156
 23
-7.589069366455078
 33
154.0
  0
3DFACE
  8
0
 10
-45.321842193603516
 20
-7.9758172035217285
 30
154.0
 11
-45.16204071044922
 21
-7.970715522766113
 31
154.0
 12
-44.541358947753906
 22
-7.8252644538879395
 32
154.0
 13
-44.541358947753906
 23
-7.8252644538879395
 33
154.0
  0
3DFACE
  8
0
 10
-47.5653190612793
 20
-7.964844226837158
 30
154.0
 11
-46.12879180908203
 21
-8.034041404724121
 31
154.0
 12
-45.321842193603516
 22
-7.9758172035217285
 32
154.0
 13
-45.321842193603516
 23
-7.9758172035217285
 33
154.0
  0
3DFACE
  8
0
 10
-50.868770599365234
 20
-6.61572265625
 30
154.0
 11
-49.485023498535156
 21
-7.398094654083252
 31
154.0
 12
-47.5653190612793
 22
-7.964844226837158
 32
154.0
 13
-47.5653190612793
 23
-7.964844226837158
 33
154.0
  0
3DFACE
  8
0
 10
-52.715824127197266
 20
-4.053622722625732
 30
154.0
 11
-52.28858184814453
 21
-5.076273441314697
 31
154.0
 12
-50.868770599365234
 22
-6.61572265625
 32
154.0
 13
-50.868770599365234
 23
-6.61572265625
 33
154.0
  0
3DFACE
  8
0
 10
-52.00734329223633
 20
-0.5454301238059998
 30
154.0
 11
-52.826175689697266
 21
-2.616701126098633
 31
154.0
 12
-52.715824127197266
 22
-4.053622722625732
 32
154.0
 13
-52.715824127197266
 23
-4.053622722625732
 33
154.0
  0
3DFACE
  8
0
 10
-42.980403900146484
 20
1.2990342378616333
 30
154.0
 11
-48.86714172363281
 21
1.3740615844726562
 31
154.0
 12
-52.00734329223633
 22
-0.5454301238059998
 32
154.0
 13
-52.00734329223633
 23
-0.5454301238059998
 33
154.0
  0
3DFACE
  8
0
 10
-40.27580642700195
 20
-0.2849133312702179
 30
154.0
 11
-41.08061218261719
 21
0.4416520297527313
 31
154.0
 12
-42.980403900146484
 22
1.2990342378616333
 32
154.0
 13
-42.980403900146484
 23
1.2990342378616333
 33
154.0
  0
3DFACE
  8
0
 10
-41.411136627197266
 20
-6.351475238800049
 30
154.0
 11
-39.756561279296875
 21
-4.414838790893555
 31
154.0
 12
-40.27580642700195
 22
-0.2849133312702179
 32
154.0
 13
-40.27580642700195
 23
-0.2849133312702179
 33
154.0
  0
3DFACE
  8
0
 10
-43.76087951660156
 20
-7.589069366455078
 30
154.0
 11
-42.980403900146484
 21
-7.268779277801514
 31
154.0
 12
-41.411136627197266
 22
-6.351475238800049
 32
154.0
 13
-41.411136627197266
 23
-6.351475238800049
 33
154.0
  0
3DFACE
  8
0
 10
-45.321842193603516
 20
-7.9758172035217285
 30
154.0
 11
-44.541358947753906
 21
-7.8252644538879395
 31
154.0
 12
-43.76087951660156
 22
-7.589069366455078
 32
154.0
 13
-43.76087951660156
 23
-7.589069366455078
 33
154.0
  0
3DFACE
  8
0
 10
-50.868770599365234
 20
-6.61572265625
 30
154.0
 11
-47.5653190612793
 21
-7.964844226837158
 31
154.0
 12
-45.321842193603516
 22
-7.9758172035217285
 32
154.0
 13
-45.321842193603516
 23
-7.9758172035217285
 33
154.0
  0
3DFACE
  8
0
 10
-52.00734329223633
 20
-0.5454301238059998
 30
154.0
 11
-52.715824127197266
 21
-4.053622722625732
 31
154.0
 12
-50.868770599365234
 22
-6.61572265625
 32
154.0
 13
-50.868770599365234
 23
-6.61572265625
 33
154.0
  0
3DFACE
  8
0
 10
-40.27580642700195
 20
-0.2849133312702179
 30
154.0
 11
-42.980403900146484
 21
1.2990342378616333
 31
154.0
 12
-52.00734329223633
 22
-0.5454301238059998
 32
154.0
 13
-52.00734329223633
 23
-0.5454301238059998
 33
154.0
  0
3DFACE
  8
0
 10
-43.76087951660156
 20
-7.589069366455078
 30
154.0
 11
-41.411136627197266
 21
-6.351475238800049
 31
154.0
 12
-40.27580642700195
 22
-0.2849133312702179
 32
154.0
 13
-40.27580642700195
 23
-0.2849133312702179
 33
154.0
  0
3DFACE
  8
0
 10
-50.868770599365234
 20
-6.61572265625
 30
154.0
 11
-45.321842193603516
 21
-7.9758172035217285
 31
154.0
 12
-43.76087951660156
 22
-7.589069366455078
 32
154.0
 13
-43.76087951660156
 23
-7.589069366455078
 33
154.0
  0
3DFACE
  8
0
 10
-40.27580642700195
 20
-0.2849133312702179
 30
154.0
 11
-52.00734329223633
 21
-0.5454301238059998
 31
154.0
 12
-50.868770599365234
 22
-6.61572265625
 32
154.0
 13
-50.868770599365234
 23
-6.61572265625
 33
154.0
  0
3DFACE
  8
0
 10
-40.27580642700195
 20
-0.2849133312702179
 30
154.0
 11
-50.868770599365234
 21
-6.61572265625
 31
154.0
 12
-43.76087951660156
 22
-7.589069366455078
 32
154.0
 13
-43.76087951660156
 23
-7.589069366455078
 33
154.0
  0
3DFACE
  8
0
 10
-42.3886604309082
 20
46.78535079956055
 30
154.0
 11
-42.40476608276367
 21
46.77981948852539
 31
154.0
 12
-42.41282272338867
 22
46.776058197021484
 32
154.0
 13
-42.41282272338867
 23
46.776058197021484
 33
154.0
  0
3DFACE
  8
0
 10
-42.41282272338867
 20
46.776058197021484
 30
154.0
 11
-43.19890594482422
 21
46.36167526245117
 31
154.0
 12
-43.505210876464844
 22
46.160762786865234
 32
154.0
 13
-43.505210876464844
 23
46.160762786865234
 33
154.0
  0
3DFACE
  8
0
 10
-43.505210876464844
 20
46.160762786865234
 30
154.0
 11
-43.97921371459961
 21
45.86380386352539
 31
154.0
 12
-44.15860366821289
 22
45.71508026123047
 32
154.0
 13
-44.15860366821289
 23
45.71508026123047
 33
154.0
  0
3DFACE
  8
0
 10
-44.55768966674805
 20
45.33325958251953
 30
154.0
 11
-44.74544143676758
 21
45.16218948364258
 31
154.0
 12
-45.02265930175781
 22
44.867862701416016
 32
154.0
 13
-45.02265930175781
 23
44.867862701416016
 33
154.0
  0
3DFACE
  8
0
 10
-43.505210876464844
 20
46.160762786865234
 30
154.0
 11
-44.15860366821289
 21
45.71508026123047
 31
154.0
 12
-44.55768966674805
 22
45.33325958251953
 32
154.0
 13
-44.55768966674805
 23
45.33325958251953
 33
154.0
  0
3DFACE
  8
0
 10
-42.3886604309082
 20
46.78535079956055
 30
154.0
 11
-42.41282272338867
 21
46.776058197021484
 31
154.0
 12
-43.505210876464844
 22
46.160762786865234
 32
154.0
 13
-43.505210876464844
 23
46.160762786865234
 33
154.0
  0
3DFACE
  8
0
 10
-41.00518798828125
 20
47.11505126953125
 30
154.0
 11
-41.614158630371094
 21
47.008602142333984
 31
154.0
 12
-42.3886604309082
 22
46.78535079956055
 32
154.0
 13
-42.3886604309082
 23
46.78535079956055
 33
154.0
  0
3DFACE
  8
0
 10
-40.713966369628906
 20
47.17084884643555
 30
154.0
 11
-40.77975845336914
 21
47.15922927856445
 31
154.0
 12
-41.00518798828125
 22
47.11505126953125
 32
154.0
 13
-41.00518798828125
 23
47.11505126953125
 33
154.0
  0
3DFACE
  8
0
 10
-39.849212646484375
 20
47.24966812133789
 30
154.0
 11
-39.980594635009766
 21
47.24148941040039
 31
154.0
 12
-40.713966369628906
 22
47.17084884643555
 32
154.0
 13
-40.713966369628906
 23
47.17084884643555
 33
154.0
  0
3DFACE
  8
0
 10
-39.20821762084961
 20
47.24669647216797
 30
154.0
 11
-39.219146728515625
 21
47.24699783325195
 31
154.0
 12
-39.849212646484375
 22
47.24966812133789
 32
154.0
 13
-39.849212646484375
 23
47.24966812133789
 33
154.0
  0
3DFACE
  8
0
 10
-38.20132064819336
 20
47.1136589050293
 30
154.0
 11
-38.3641357421875
 21
47.13726806640625
 31
154.0
 12
-39.20821762084961
 22
47.24669647216797
 32
154.0
 13
-39.20821762084961
 23
47.24669647216797
 33
154.0
  0
3DFACE
  8
0
 10
-36.993927001953125
 20
46.79743576049805
 30
154.0
 11
-37.548763275146484
 21
46.97664260864258
 31
154.0
 12
-38.20132064819336
 22
47.1136589050293
 32
154.0
 13
-38.20132064819336
 23
47.1136589050293
 33
154.0
  0
3DFACE
  8
0
 10
-36.44999313354492
 20
46.551048278808594
 30
154.0
 11
-36.703025817871094
 21
46.679405212402344
 31
154.0
 12
-36.993927001953125
 22
46.79743576049805
 32
154.0
 13
-36.993927001953125
 23
46.79743576049805
 33
154.0
  0
3DFACE
  8
0
 10
-34.981021881103516
 20
45.74599075317383
 30
154.0
 11
-35.827884674072266
 21
46.272029876708984
 31
154.0
 12
-36.44999313354492
 22
46.551048278808594
 32
154.0
 13
-36.44999313354492
 23
46.551048278808594
 33
154.0
  0
3DFACE
  8
0
 10
-34.94111251831055
 20
45.72214889526367
 30
154.0
 11
-34.94832992553711
 21
45.727195739746094
 31
154.0
 12
-34.981021881103516
 22
45.74599075317383
 32
154.0
 13
-34.981021881103516
 23
45.74599075317383
 33
154.0
  0
3DFACE
  8
0
 10
-34.02536392211914
 20
44.85477828979492
 30
154.0
 11
-34.29008865356445
 21
45.137062072753906
 31
154.0
 12
-34.94111251831055
 22
45.72214889526367
 32
154.0
 13
-34.94111251831055
 23
45.72214889526367
 33
154.0
  0
3DFACE
  8
0
 10
-33.33271408081055
 20
44.027381896972656
 30
154.0
 11
-33.80034255981445
 21
44.63402557373047
 31
154.0
 12
-34.02536392211914
 22
44.85477828979492
 32
154.0
 13
-34.02536392211914
 23
44.85477828979492
 33
154.0
  0
3DFACE
  8
0
 10
-33.24526596069336
 20
43.89052200317383
 30
154.0
 11
-33.30404281616211
 21
43.98545455932617
 31
154.0
 12
-33.33271408081055
 22
44.027381896972656
 32
154.0
 13
-33.33271408081055
 23
44.027381896972656
 33
154.0
  0
3DFACE
  8
0
 10
-32.511192321777344
 20
42.65966033935547
 30
154.0
 11
-32.81114196777344
 21
43.25874710083008
 31
154.0
 12
-33.24526596069336
 22
43.89052200317383
 32
154.0
 13
-33.24526596069336
 23
43.89052200317383
 33
154.0
  0
3DFACE
  8
0
 10
-32.24767303466797
 20
42.10493469238281
 30
154.0
 11
-32.39530944824219
 21
42.458030700683594
 31
154.0
 12
-32.511192321777344
 22
42.65966033935547
 32
154.0
 13
-32.511192321777344
 23
42.65966033935547
 33
154.0
  0
3DFACE
  8
0
 10
-31.913171768188477
 20
40.84510040283203
 30
154.0
 11
-32.093719482421875
 21
41.64964294433594
 31
154.0
 12
-32.24767303466797
 22
42.10493469238281
 32
154.0
 13
-32.24767303466797
 23
42.10493469238281
 33
154.0
  0
3DFACE
  8
0
 10
-31.857656478881836
 20
40.04054641723633
 30
154.0
 11
-31.853303909301758
 21
40.52312469482422
 31
154.0
 12
-31.913171768188477
 22
40.84510040283203
 32
154.0
 13
-31.913171768188477
 23
40.84510040283203
 33
154.0
  0
3DFACE
  8
0
 10
-31.875478744506836
 20
39.010231018066406
 30
154.0
 11
-31.83690643310547
 21
39.79214096069336
 31
154.0
 12
-31.857656478881836
 22
40.04054641723633
 32
154.0
 13
-31.857656478881836
 23
40.04054641723633
 33
154.0
  0
3DFACE
  8
0
 10
-31.946720123291016
 20
38.43144607543945
 30
154.0
 11
-31.914627075195312
 21
38.648658752441406
 31
154.0
 12
-31.875478744506836
 22
39.010231018066406
 32
154.0
 13
-31.875478744506836
 23
39.010231018066406
 33
154.0
  0
3DFACE
  8
0
 10
-32.251014709472656
 20
37.32073211669922
 30
154.0
 11
-32.11838150024414
 21
37.62689208984375
 31
154.0
 12
-31.993953704833984
 22
38.269081115722656
 32
154.0
 13
-31.993953704833984
 23
38.269081115722656
 33
154.0
  0
3DFACE
  8
0
 10
-31.993953704833984
 20
38.269081115722656
 30
154.0
 11
-31.946720123291016
 21
38.43144607543945
 31
154.0
 12
-31.875478744506836
 22
39.010231018066406
 32
154.0
 13
-31.875478744506836
 23
39.010231018066406
 33
154.0
  0
3DFACE
  8
0
 10
-31.875478744506836
 20
39.010231018066406
 30
154.0
 11
-31.857656478881836
 21
40.04054641723633
 31
154.0
 12
-31.913171768188477
 22
40.84510040283203
 32
154.0
 13
-31.913171768188477
 23
40.84510040283203
 33
154.0
  0
3DFACE
  8
0
 10
-31.913171768188477
 20
40.84510040283203
 30
154.0
 11
-32.24767303466797
 21
42.10493469238281
 31
154.0
 12
-32.511192321777344
 22
42.65966033935547
 32
154.0
 13
-32.511192321777344
 23
42.65966033935547
 33
154.0
  0
3DFACE
  8
0
 10
-32.511192321777344
 20
42.65966033935547
 30
154.0
 11
-33.24526596069336
 21
43.89052200317383
 31
154.0
 12
-33.33271408081055
 22
44.027381896972656
 32
154.0
 13
-33.33271408081055
 23
44.027381896972656
 33
154.0
  0
3DFACE
  8
0
 10
-33.33271408081055
 20
44.027381896972656
 30
154.0
 11
-34.02536392211914
 21
44.85477828979492
 31
154.0
 12
-34.94111251831055
 22
45.72214889526367
 32
154.0
 13
-34.94111251831055
 23
45.72214889526367
 33
154.0
  0
3DFACE
  8
0
 10
-34.94111251831055
 20
45.72214889526367
 30
154.0
 11
-34.981021881103516
 21
45.74599075317383
 31
154.0
 12
-36.44999313354492
 22
46.551048278808594
 32
154.0
 13
-36.44999313354492
 23
46.551048278808594
 33
154.0
  0
3DFACE
  8
0
 10
-36.44999313354492
 20
46.551048278808594
 30
154.0
 11
-36.993927001953125
 21
46.79743576049805
 31
154.0
 12
-38.20132064819336
 22
47.1136589050293
 32
154.0
 13
-38.20132064819336
 23
47.1136589050293
 33
154.0
  0
3DFACE
  8
0
 10
-38.20132064819336
 20
47.1136589050293
 30
154.0
 11
-39.20821762084961
 21
47.24669647216797
 31
154.0
 12
-39.849212646484375
 22
47.24966812133789
 32
154.0
 13
-39.849212646484375
 23
47.24966812133789
 33
154.0
  0
3DFACE
  8
0
 10
-39.849212646484375
 20
47.24966812133789
 30
154.0
 11
-40.713966369628906
 21
47.17084884643555
 31
154.0
 12
-41.00518798828125
 22
47.11505126953125
 32
154.0
 13
-41.00518798828125
 23
47.11505126953125
 33
154.0
  0
3DFACE
  8
0
 10
-41.00518798828125
 20
47.11505126953125
 30
154.0
 11
-42.3886604309082
 21
46.78535079956055
 31
154.0
 12
-43.505210876464844
 22
46.160762786865234
 32
154.0
 13
-43.505210876464844
 23
46.160762786865234
 33
154.0
  0
3DFACE
  8
0
 10
-43.505210876464844
 20
46.160762786865234
 30
154.0
 11
-44.55768966674805
 21
45.33325958251953
 31
154.0
 12
-45.02265930175781
 22
44.867862701416016
 32
154.0
 13
-45.02265930175781
 23
44.867862701416016
 33
154.0
  0
3DFACE
  8
0
 10
-45.02265930175781
 20
44.867862701416016
 30
154.0
 11
-45.252044677734375
 21
44.601829528808594
 31
154.0
 12
-45.884910583496094
 22
43.65220642089844
 32
154.0
 13
-45.884910583496094
 23
43.65220642089844
 33
154.0
  0
3DFACE
  8
0
 10
-45.884910583496094
 20
43.65220642089844
 30
154.0
 11
-45.9432258605957
 21
43.54686737060547
 31
154.0
 12
-46.23794937133789
 22
42.91884231567383
 32
154.0
 13
-46.23794937133789
 23
42.91884231567383
 33
154.0
  0
3DFACE
  8
0
 10
-46.23794937133789
 20
42.91884231567383
 30
154.0
 11
-46.43478012084961
 21
42.45420455932617
 31
154.0
 12
-46.70240783691406
 22
41.649654388427734
 32
154.0
 13
-46.70240783691406
 23
41.649654388427734
 33
154.0
  0
3DFACE
  8
0
 10
-46.70240783691406
 20
41.649654388427734
 30
154.0
 11
-46.811561584472656
 21
41.025230407714844
 31
154.0
 12
-46.82780456542969
 22
40.90195083618164
 32
154.0
 13
-46.82780456542969
 23
40.90195083618164
 33
154.0
  0
3DFACE
  8
0
 10
-46.82780456542969
 20
40.90195083618164
 30
154.0
 11
-46.834136962890625
 21
40.84510040283203
 31
154.0
 12
-46.86934280395508
 22
40.0694465637207
 32
154.0
 13
-46.86934280395508
 23
40.0694465637207
 33
154.0
  0
3DFACE
  8
0
 10
-46.86934280395508
 20
40.0694465637207
 30
154.0
 11
-46.868309020996094
 21
40.04054260253906
 31
154.0
 12
-46.861473083496094
 22
39.98155212402344
 32
154.0
 13
-46.861473083496094
 23
39.98155212402344
 33
154.0
  0
3DFACE
  8
0
 10
-46.861473083496094
 20
39.98155212402344
 30
154.0
 11
-46.83259963989258
 21
39.236000061035156
 31
154.0
 12
-46.62955856323242
 22
38.43034744262695
 32
154.0
 13
-46.62955856323242
 23
38.43034744262695
 33
154.0
  0
3DFACE
  8
0
 10
-46.62955856323242
 20
38.43034744262695
 30
154.0
 11
-46.56433868408203
 21
38.13815689086914
 31
154.0
 12
-46.40980529785156
 22
37.62689208984375
 32
154.0
 13
-46.40980529785156
 23
37.62689208984375
 33
154.0
  0
3DFACE
  8
0
 10
-46.40980529785156
 20
37.62689208984375
 30
154.0
 11
-46.20058822631836
 21
37.17884063720703
 31
154.0
 12
-46.034671783447266
 22
36.862091064453125
 32
154.0
 13
-46.034671783447266
 23
36.862091064453125
 33
154.0
  0
3DFACE
  8
0
 10
-45.49325942993164
 20
36.02021789550781
 30
154.0
 11
-45.49179458618164
 21
36.01772689819336
 31
154.0
 12
-45.489891052246094
 22
36.01546859741211
 32
154.0
 13
-45.489891052246094
 23
36.01546859741211
 33
154.0
  0
3DFACE
  8
0
 10
-46.40980529785156
 20
37.62689208984375
 30
154.0
 11
-46.034671783447266
 21
36.862091064453125
 31
154.0
 12
-45.49325942993164
 22
36.02021789550781
 32
154.0
 13
-45.49325942993164
 23
36.02021789550781
 33
154.0
  0
3DFACE
  8
0
 10
-46.861473083496094
 20
39.98155212402344
 30
154.0
 11
-46.62955856323242
 21
38.43034744262695
 31
154.0
 12
-46.40980529785156
 22
37.62689208984375
 32
154.0
 13
-46.40980529785156
 23
37.62689208984375
 33
154.0
  0
3DFACE
  8
0
 10
-46.82780456542969
 20
40.90195083618164
 30
154.0
 11
-46.86934280395508
 21
40.0694465637207
 31
154.0
 12
-46.861473083496094
 22
39.98155212402344
 32
154.0
 13
-46.861473083496094
 23
39.98155212402344
 33
154.0
  0
3DFACE
  8
0
 10
-46.23794937133789
 20
42.91884231567383
 30
154.0
 11
-46.70240783691406
 21
41.649654388427734
 31
154.0
 12
-46.82780456542969
 22
40.90195083618164
 32
154.0
 13
-46.82780456542969
 23
40.90195083618164
 33
154.0
  0
3DFACE
  8
0
 10
-45.02265930175781
 20
44.867862701416016
 30
154.0
 11
-45.884910583496094
 21
43.65220642089844
 31
154.0
 12
-46.23794937133789
 22
42.91884231567383
 32
154.0
 13
-46.23794937133789
 23
42.91884231567383
 33
154.0
  0
3DFACE
  8
0
 10
-41.00518798828125
 20
47.11505126953125
 30
154.0
 11
-43.505210876464844
 21
46.160762786865234
 31
154.0
 12
-45.02265930175781
 22
44.867862701416016
 32
154.0
 13
-45.02265930175781
 23
44.867862701416016
 33
154.0
  0
3DFACE
  8
0
 10
-38.20132064819336
 20
47.1136589050293
 30
154.0
 11
-39.849212646484375
 21
47.24966812133789
 31
154.0
 12
-41.00518798828125
 22
47.11505126953125
 32
154.0
 13
-41.00518798828125
 23
47.11505126953125
 33
154.0
  0
3DFACE
  8
0
 10
-34.94111251831055
 20
45.72214889526367
 30
154.0
 11
-36.44999313354492
 21
46.551048278808594
 31
154.0
 12
-38.20132064819336
 22
47.1136589050293
 32
154.0
 13
-38.20132064819336
 23
47.1136589050293
 33
154.0
  0
3DFACE
  8
0
 10
-32.511192321777344
 20
42.65966033935547
 30
154.0
 11
-33.33271408081055
 21
44.027381896972656
 31
154.0
 12
-34.94111251831055
 22
45.72214889526367
 32
154.0
 13
-34.94111251831055
 23
45.72214889526367
 33
154.0
  0
3DFACE
  8
0
 10
-31.875478744506836
 20
39.010231018066406
 30
154.0
 11
-31.913171768188477
 21
40.84510040283203
 31
154.0
 12
-32.511192321777344
 22
42.65966033935547
 32
154.0
 13
-32.511192321777344
 23
42.65966033935547
 33
154.0
  0
3DFACE
  8
0
 10
-32.251014709472656
 20
37.32073211669922
 30
154.0
 11
-31.993953704833984
 21
38.269081115722656
 31
154.0
 12
-31.875478744506836
 22
39.010231018066406
 32
154.0
 13
-31.875478744506836
 23
39.010231018066406
 33
154.0
  0
3DFACE
  8
0
 10
-32.716888427734375
 20
36.15840530395508
 30
154.0
 11
-32.513648986816406
 21
36.592041015625
 31
154.0
 12
-32.251014709472656
 22
37.32073211669922
 32
154.0
 13
-32.251014709472656
 23
37.32073211669922
 33
154.0
  0
3DFACE
  8
0
 10
-32.99815368652344
 20
35.70939254760742
 30
154.0
 11
-32.78634262084961
 21
36.017791748046875
 31
154.0
 12
-32.716888427734375
 22
36.15840530395508
 32
154.0
 13
-32.716888427734375
 23
36.15840530395508
 33
154.0
  0
3DFACE
  8
0
 10
-33.44234848022461
 20
35.06599426269531
 30
154.0
 11
-33.328346252441406
 21
35.21323776245117
 31
154.0
 12
-32.99815368652344
 22
35.70939254760742
 32
154.0
 13
-32.99815368652344
 23
35.70939254760742
 33
154.0
  0
3DFACE
  8
0
 10
-34.21804428100586
 20
34.30231857299805
 30
154.0
 11
-34.09891128540039
 21
34.40348815917969
 31
154.0
 12
-33.44234848022461
 22
35.06599426269531
 32
154.0
 13
-33.44234848022461
 23
35.06599426269531
 33
154.0
  0
3DFACE
  8
0
 10
-35.15533447265625
 20
33.674442291259766
 30
154.0
 11
-34.99622344970703
 21
33.77363967895508
 31
154.0
 12
-34.41925811767578
 22
34.170654296875
 32
154.0
 13
-34.41925811767578
 23
34.170654296875
 33
154.0
  0
3DFACE
  8
0
 10
-34.41925811767578
 20
34.170654296875
 30
154.0
 11
-34.21804428100586
 21
34.30231857299805
 31
154.0
 12
-33.44234848022461
 22
35.06599426269531
 32
154.0
 13
-33.44234848022461
 23
35.06599426269531
 33
154.0
  0
3DFACE
  8
0
 10
-33.44234848022461
 20
35.06599426269531
 30
154.0
 11
-32.99815368652344
 21
35.70939254760742
 31
154.0
 12
-32.716888427734375
 22
36.15840530395508
 32
154.0
 13
-32.716888427734375
 23
36.15840530395508
 33
154.0
  0
3DFACE
  8
0
 10
-32.716888427734375
 20
36.15840530395508
 30
154.0
 11
-32.251014709472656
 21
37.32073211669922
 31
154.0
 12
-31.875478744506836
 22
39.010231018066406
 32
154.0
 13
-31.875478744506836
 23
39.010231018066406
 33
154.0
  0
3DFACE
  8
0
 10
-31.875478744506836
 20
39.010231018066406
 30
154.0
 11
-32.511192321777344
 21
42.65966033935547
 31
154.0
 12
-34.94111251831055
 22
45.72214889526367
 32
154.0
 13
-34.94111251831055
 23
45.72214889526367
 33
154.0
  0
3DFACE
  8
0
 10
-34.94111251831055
 20
45.72214889526367
 30
154.0
 11
-38.20132064819336
 21
47.1136589050293
 31
154.0
 12
-41.00518798828125
 22
47.11505126953125
 32
154.0
 13
-41.00518798828125
 23
47.11505126953125
 33
154.0
  0
3DFACE
  8
0
 10
-41.00518798828125
 20
47.11505126953125
 30
154.0
 11
-45.02265930175781
 21
44.867862701416016
 31
154.0
 12
-46.23794937133789
 22
42.91884231567383
 32
154.0
 13
-46.23794937133789
 23
42.91884231567383
 33
154.0
  0
3DFACE
  8
0
 10
-46.23794937133789
 20
42.91884231567383
 30
154.0
 11
-46.82780456542969
 21
40.90195083618164
 31
154.0
 12
-46.861473083496094
 22
39.98155212402344
 32
154.0
 13
-46.861473083496094
 23
39.98155212402344
 33
154.0
  0
3DFACE
  8
0
 10
-46.861473083496094
 20
39.98155212402344
 30
154.0
 11
-46.40980529785156
 21
37.62689208984375
 31
154.0
 12
-45.49325942993164
 22
36.02021789550781
 32
154.0
 13
-45.49325942993164
 23
36.02021789550781
 33
154.0
  0
3DFACE
  8
0
 10
-45.49325942993164
 20
36.02021789550781
 30
154.0
 11
-45.489891052246094
 21
36.01546859741211
 31
154.0
 12
-45.110233306884766
 22
35.58946228027344
 32
154.0
 13
-45.110233306884766
 23
35.58946228027344
 33
154.0
  0
3DFACE
  8
0
 10
-45.110233306884766
 20
35.58946228027344
 30
154.0
 11
-44.892948150634766
 21
35.36430740356445
 31
154.0
 12
-44.561885833740234
 22
35.047119140625
 32
154.0
 13
-44.561885833740234
 23
35.047119140625
 33
154.0
  0
3DFACE
  8
0
 10
-44.021339416503906
 20
34.68641662597656
 30
154.0
 11
-43.97142791748047
 21
34.648284912109375
 31
154.0
 12
-43.37130355834961
 22
34.214908599853516
 32
154.0
 13
-43.37130355834961
 23
34.214908599853516
 33
154.0
  0
3DFACE
  8
0
 10
-45.110233306884766
 20
35.58946228027344
 30
154.0
 11
-44.561885833740234
 21
35.047119140625
 31
154.0
 12
-44.021339416503906
 22
34.68641662597656
 32
154.0
 13
-44.021339416503906
 23
34.68641662597656
 33
154.0
  0
3DFACE
  8
0
 10
-46.861473083496094
 20
39.98155212402344
 30
154.0
 11
-45.49325942993164
 21
36.02021789550781
 31
154.0
 12
-45.110233306884766
 22
35.58946228027344
 32
154.0
 13
-45.110233306884766
 23
35.58946228027344
 33
154.0
  0
3DFACE
  8
0
 10
-41.00518798828125
 20
47.11505126953125
 30
154.0
 11
-46.23794937133789
 21
42.91884231567383
 31
154.0
 12
-46.861473083496094
 22
39.98155212402344
 32
154.0
 13
-46.861473083496094
 23
39.98155212402344
 33
154.0
  0
3DFACE
  8
0
 10
-31.875478744506836
 20
39.010231018066406
 30
154.0
 11
-34.94111251831055
 21
45.72214889526367
 31
154.0
 12
-41.00518798828125
 22
47.11505126953125
 32
154.0
 13
-41.00518798828125
 23
47.11505126953125
 33
154.0
  0
3DFACE
  8
0
 10
-33.44234848022461
 20
35.06599426269531
 30
154.0
 11
-32.716888427734375
 21
36.15840530395508
 31
154.0
 12
-31.875478744506836
 22
39.010231018066406
 32
154.0
 13
-31.875478744506836
 23
39.010231018066406
 33
154.0
  0
3DFACE
  8
0
 10
-35.15533447265625
 20
33.674442291259766
 30
154.0
 11
-34.41925811767578
 21
34.170654296875
 31
154.0
 12
-33.44234848022461
 22
35.06599426269531
 32
154.0
 13
-33.44234848022461
 23
35.06599426269531
 33
154.0
  0
3DFACE
  8
0
 10
-35.7822151184082
 20
33.35776138305664
 30
154.0
 11
-35.39558410644531
 21
33.546478271484375
 31
154.0
 12
-35.15533447265625
 22
33.674442291259766
 32
154.0
 13
-35.15533447265625
 23
33.674442291259766
 33
154.0
  0
3DFACE
  8
0
 10
-37.18825149536133
 20
32.8696403503418
 30
154.0
 11
-36.575408935546875
 21
33.046329498291016
 31
154.0
 12
-36.26155471801758
 22
33.1756591796875
 32
154.0
 13
-36.26155471801758
 23
33.1756591796875
 33
154.0
  0
3DFACE
  8
0
 10
-36.26155471801758
 20
33.1756591796875
 30
154.0
 11
-35.7822151184082
 21
33.35776138305664
 31
154.0
 12
-35.15533447265625
 22
33.674442291259766
 32
154.0
 13
-35.15533447265625
 23
33.674442291259766
 33
154.0
  0
3DFACE
  8
0
 10
-35.15533447265625
 20
33.674442291259766
 30
154.0
 11
-33.44234848022461
 21
35.06599426269531
 31
154.0
 12
-31.875478744506836
 22
39.010231018066406
 32
154.0
 13
-31.875478744506836
 23
39.010231018066406
 33
154.0
  0
3DFACE
  8
0
 10
-31.875478744506836
 20
39.010231018066406
 30
154.0
 11
-41.00518798828125
 21
47.11505126953125
 31
154.0
 12
-46.861473083496094
 22
39.98155212402344
 32
154.0
 13
-46.861473083496094
 23
39.98155212402344
 33
154.0
  0
3DFACE
  8
0
 10
-46.861473083496094
 20
39.98155212402344
 30
154.0
 11
-45.110233306884766
 21
35.58946228027344
 31
154.0
 12
-44.021339416503906
 22
34.68641662597656
 32
154.0
 13
-44.021339416503906
 23
34.68641662597656
 33
154.0
  0
3DFACE
  8
0
 10
-44.021339416503906
 20
34.68641662597656
 30
154.0
 11
-43.37130355834961
 21
34.214908599853516
 31
154.0
 12
-43.166316986083984
 22
34.1033821105957
 32
154.0
 13
-43.166316986083984
 23
34.1033821105957
 33
154.0
  0
3DFACE
  8
0
 10
-42.512088775634766
 20
33.76902770996094
 30
154.0
 11
-42.17641830444336
 21
33.58750534057617
 31
154.0
 12
-41.565059661865234
 22
33.32938003540039
 32
154.0
 13
-41.565059661865234
 23
33.32938003540039
 33
154.0
  0
3DFACE
  8
0
 10
-44.021339416503906
 20
34.68641662597656
 30
154.0
 11
-43.166316986083984
 21
34.1033821105957
 31
154.0
 12
-42.512088775634766
 22
33.76902770996094
 32
154.0
 13
-42.512088775634766
 23
33.76902770996094
 33
154.0
  0
3DFACE
  8
0
 10
-31.875478744506836
 20
39.010231018066406
 30
154.0
 11
-46.861473083496094
 21
39.98155212402344
 31
154.0
 12
-44.021339416503906
 22
34.68641662597656
 32
154.0
 13
-44.021339416503906
 23
34.68641662597656
 33
154.0
  0
3DFACE
  8
0
 10
-36.26155471801758
 20
33.1756591796875
 30
154.0
 11
-35.15533447265625
 21
33.674442291259766
 31
154.0
 12
-31.875478744506836
 22
39.010231018066406
 32
154.0
 13
-31.875478744506836
 23
39.010231018066406
 33
154.0
  0
3DFACE
  8
0
 10
-37.37472152709961
 20
32.82314682006836
 30
154.0
 11
-37.18825149536133
 21
32.8696403503418
 31
154.0
 12
-36.26155471801758
 22
33.1756591796875
 32
154.0
 13
-36.26155471801758
 23
33.1756591796875
 33
154.0
  0
3DFACE
  8
0
 10
-38.433494567871094
 20
32.725067138671875
 30
154.0
 11
-38.182762145996094
 21
32.7264404296875
 31
154.0
 12
-37.453887939453125
 22
32.8165397644043
 32
154.0
 13
-37.453887939453125
 23
32.8165397644043
 33
154.0
  0
3DFACE
  8
0
 10
-37.453887939453125
 20
32.8165397644043
 30
154.0
 11
-37.37472152709961
 21
32.82314682006836
 31
154.0
 12
-36.26155471801758
 22
33.1756591796875
 32
154.0
 13
-36.26155471801758
 23
33.1756591796875
 33
154.0
  0
3DFACE
  8
0
 10
-36.26155471801758
 20
33.1756591796875
 30
154.0
 11
-31.875478744506836
 21
39.010231018066406
 31
154.0
 12
-44.021339416503906
 22
34.68641662597656
 32
154.0
 13
-44.021339416503906
 23
34.68641662597656
 33
154.0
  0
3DFACE
  8
0
 10
-44.021339416503906
 20
34.68641662597656
 30
154.0
 11
-42.512088775634766
 21
33.76902770996094
 31
154.0
 12
-41.565059661865234
 22
33.32938003540039
 32
154.0
 13
-41.565059661865234
 23
33.32938003540039
 33
154.0
  0
3DFACE
  8
0
 10
-41.17939758300781
 20
33.20912170410156
 30
154.0
 11
-40.62297821044922
 21
33.0046272277832
 31
154.0
 12
-39.83595657348633
 22
32.80162811279297
 32
154.0
 13
-39.83595657348633
 23
32.80162811279297
 33
154.0
  0
3DFACE
  8
0
 10
-44.021339416503906
 20
34.68641662597656
 30
154.0
 11
-41.565059661865234
 21
33.32938003540039
 31
154.0
 12
-41.17939758300781
 22
33.20912170410156
 32
154.0
 13
-41.17939758300781
 23
33.20912170410156
 33
154.0
  0
3DFACE
  8
0
 10
-37.453887939453125
 20
32.8165397644043
 30
154.0
 11
-36.26155471801758
 21
33.1756591796875
 31
154.0
 12
-44.021339416503906
 22
34.68641662597656
 32
154.0
 13
-44.021339416503906
 23
34.68641662597656
 33
154.0
  0
3DFACE
  8
0
 10
-38.995426177978516
 20
32.696495056152344
 30
154.0
 11
-38.433494567871094
 21
32.725067138671875
 31
154.0
 12
-37.453887939453125
 22
32.8165397644043
 32
154.0
 13
-37.453887939453125
 23
32.8165397644043
 33
154.0
  0
3DFACE
  8
0
 10
-39.81088638305664
 20
32.794437408447266
 30
154.0
 11
-39.75846862792969
 21
32.7851448059082
 31
154.0
 12
-38.995426177978516
 22
32.696495056152344
 32
154.0
 13
-38.995426177978516
 23
32.696495056152344
 33
154.0
  0
3DFACE
  8
0
 10
-41.17939758300781
 20
33.20912170410156
 30
154.0
 11
-39.83595657348633
 21
32.80162811279297
 31
154.0
 12
-39.81088638305664
 22
32.794437408447266
 32
154.0
 13
-39.81088638305664
 23
32.794437408447266
 33
154.0
  0
3DFACE
  8
0
 10
-37.453887939453125
 20
32.8165397644043
 30
154.0
 11
-44.021339416503906
 21
34.68641662597656
 31
154.0
 12
-41.17939758300781
 22
33.20912170410156
 32
154.0
 13
-41.17939758300781
 23
33.20912170410156
 33
154.0
  0
3DFACE
  8
0
 10
-39.81088638305664
 20
32.794437408447266
 30
154.0
 11
-38.995426177978516
 21
32.696495056152344
 31
154.0
 12
-37.453887939453125
 22
32.8165397644043
 32
154.0
 13
-37.453887939453125
 23
32.8165397644043
 33
154.0
  0
3DFACE
  8
0
 10
-41.17939758300781
 20
33.20912170410156
 30
154.0
 11
-39.81088638305664
 21
32.794437408447266
 31
154.0
 12
-37.453887939453125
 22
32.8165397644043
 32
154.0
 13
-37.453887939453125
 23
32.8165397644043
 33
154.0
  0
3DFACE
  8
0
 10
31.359878540039062
 20
55.55092239379883
 30
154.0
 11
31.34922218322754
 21
55.554691314697266
 31
154.0
 12
31.341777801513672
 22
55.55501174926758
 32
154.0
 13
31.341777801513672
 23
55.55501174926758
 33
154.0
  0
3DFACE
  8
0
 10
31.341777801513672
 20
55.55501174926758
 30
154.0
 11
31.31288719177246
 21
55.55516815185547
 31
154.0
 12
30.558002471923828
 22
55.54342269897461
 32
154.0
 13
30.558002471923828
 23
55.54342269897461
 33
154.0
  0
3DFACE
  8
0
 10
30.558002471923828
 20
55.54342269897461
 30
154.0
 11
29.782180786132812
 21
55.41571807861328
 31
154.0
 12
29.761632919311523
 22
55.409976959228516
 32
154.0
 13
29.761632919311523
 23
55.409976959228516
 33
154.0
  0
3DFACE
  8
0
 10
29.761632919311523
 20
55.409976959228516
 30
154.0
 11
29.723512649536133
 21
55.395687103271484
 31
154.0
 12
28.954057693481445
 22
55.08279037475586
 32
154.0
 13
28.954057693481445
 23
55.08279037475586
 33
154.0
  0
3DFACE
  8
0
 10
28.954057693481445
 20
55.08279037475586
 30
154.0
 11
28.73151397705078
 21
54.97739791870117
 31
154.0
 12
28.14374351501465
 22
54.68256378173828
 32
154.0
 13
28.14374351501465
 23
54.68256378173828
 33
154.0
  0
3DFACE
  8
0
 10
27.732765197753906
 20
54.266685485839844
 30
154.0
 11
27.333261489868164
 21
53.946632385253906
 31
154.0
 12
27.25124168395996
 22
53.8204231262207
 32
154.0
 13
27.25124168395996
 23
53.8204231262207
 33
154.0
  0
3DFACE
  8
0
 10
28.954057693481445
 20
55.08279037475586
 30
154.0
 11
28.14374351501465
 21
54.68256378173828
 31
154.0
 12
27.732765197753906
 22
54.266685485839844
 32
154.0
 13
27.732765197753906
 23
54.266685485839844
 33
154.0
  0
3DFACE
  8
0
 10
30.558002471923828
 20
55.54342269897461
 30
154.0
 11
29.761632919311523
 21
55.409976959228516
 31
154.0
 12
28.954057693481445
 22
55.08279037475586
 32
154.0
 13
28.954057693481445
 23
55.08279037475586
 33
154.0
  0
3DFACE
  8
0
 10
31.359878540039062
 20
55.55092239379883
 30
154.0
 11
31.341777801513672
 21
55.55501174926758
 31
154.0
 12
30.558002471923828
 22
55.54342269897461
 32
154.0
 13
30.558002471923828
 23
55.54342269897461
 33
154.0
  0
3DFACE
  8
0
 10
32.20828628540039
 20
55.31489181518555
 30
154.0
 11
32.130760192871094
 21
55.36878967285156
 31
154.0
 12
31.359878540039062
 22
55.55092239379883
 32
154.0
 13
31.359878540039062
 23
55.55092239379883
 33
154.0
  0
3DFACE
  8
0
 10
33.168121337890625
 20
54.60756301879883
 30
154.0
 11
32.89769744873047
 21
54.88529968261719
 31
154.0
 12
32.20828628540039
 22
55.31489181518555
 32
154.0
 13
32.20828628540039
 23
55.31489181518555
 33
154.0
  0
3DFACE
  8
0
 10
33.81855773925781
 20
53.82042694091797
 30
154.0
 11
33.64863204956055
 21
54.07599639892578
 31
154.0
 12
33.168121337890625
 22
54.60756301879883
 32
154.0
 13
33.168121337890625
 23
54.60756301879883
 33
154.0
  0
3DFACE
  8
0
 10
34.375
 20
52.766258239746094
 30
154.0
 11
34.26418685913086
 21
53.03328323364258
 31
154.0
 12
34.07313537597656
 22
53.36296463012695
 32
154.0
 13
34.07313537597656
 23
53.36296463012695
 33
154.0
  0
3DFACE
  8
0
 10
34.07313537597656
 20
53.36296463012695
 30
154.0
 11
33.81855773925781
 21
53.82042694091797
 31
154.0
 12
33.168121337890625
 22
54.60756301879883
 32
154.0
 13
33.168121337890625
 23
54.60756301879883
 33
154.0
  0
3DFACE
  8
0
 10
33.168121337890625
 20
54.60756301879883
 30
154.0
 11
32.20828628540039
 21
55.31489181518555
 31
154.0
 12
31.359878540039062
 22
55.55092239379883
 32
154.0
 13
31.359878540039062
 23
55.55092239379883
 33
154.0
  0
3DFACE
  8
0
 10
31.359878540039062
 20
55.55092239379883
 30
154.0
 11
30.558002471923828
 21
55.54342269897461
 31
154.0
 12
28.954057693481445
 22
55.08279037475586
 32
154.0
 13
28.954057693481445
 23
55.08279037475586
 33
154.0
  0
3DFACE
  8
0
 10
28.954057693481445
 20
55.08279037475586
 30
154.0
 11
27.732765197753906
 21
54.266685485839844
 31
154.0
 12
27.25124168395996
 22
53.8204231262207
 32
154.0
 13
27.25124168395996
 23
53.8204231262207
 33
154.0
  0
3DFACE
  8
0
 10
26.83367156982422
 20
53.06578063964844
 30
154.0
 11
26.78204917907715
 21
52.97865676879883
 31
154.0
 12
26.710233688354492
 22
52.7968864440918
 32
154.0
 13
26.710233688354492
 23
52.7968864440918
 33
154.0
  0
3DFACE
  8
0
 10
28.954057693481445
 20
55.08279037475586
 30
154.0
 11
27.25124168395996
 21
53.8204231262207
 31
154.0
 12
26.83367156982422
 22
53.06578063964844
 32
154.0
 13
26.83367156982422
 23
53.06578063964844
 33
154.0
  0
3DFACE
  8
0
 10
33.168121337890625
 20
54.60756301879883
 30
154.0
 11
31.359878540039062
 21
55.55092239379883
 31
154.0
 12
28.954057693481445
 22
55.08279037475586
 32
154.0
 13
28.954057693481445
 23
55.08279037475586
 33
154.0
  0
3DFACE
  8
0
 10
34.375
 20
52.766258239746094
 30
154.0
 11
34.07313537597656
 21
53.36296463012695
 31
154.0
 12
33.168121337890625
 22
54.60756301879883
 32
154.0
 13
33.168121337890625
 23
54.60756301879883
 33
154.0
  0
3DFACE
  8
0
 10
34.53483963012695
 20
52.24614715576172
 30
154.0
 11
34.46730422973633
 21
52.49916458129883
 31
154.0
 12
34.375
 22
52.766258239746094
 32
154.0
 13
34.375
 23
52.766258239746094
 33
154.0
  0
3DFACE
  8
0
 10
34.67000198364258
 20
51.45901870727539
 30
154.0
 11
34.59782791137695
 21
51.97356033325195
 31
154.0
 12
34.53483963012695
 22
52.24614715576172
 32
154.0
 13
34.53483963012695
 23
52.24614715576172
 33
154.0
  0
3DFACE
  8
0
 10
34.67094802856445
 20
50.89862823486328
 30
154.0
 11
34.6712760925293
 21
51.44202423095703
 31
154.0
 12
34.67000198364258
 22
51.45901870727539
 32
154.0
 13
34.67000198364258
 23
51.45901870727539
 33
154.0
  0
3DFACE
  8
0
 10
34.611351013183594
 20
50.45737075805664
 30
154.0
 11
34.65225601196289
 21
50.67186737060547
 31
154.0
 12
34.67094802856445
 22
50.89862823486328
 32
154.0
 13
34.67094802856445
 23
50.89862823486328
 33
154.0
  0
3DFACE
  8
0
 10
34.44948196411133
 20
49.402835845947266
 30
154.0
 11
34.55916213989258
 21
49.884735107421875
 31
154.0
 12
34.611351013183594
 22
50.45737075805664
 32
154.0
 13
34.611351013183594
 23
50.45737075805664
 33
154.0
  0
3DFACE
  8
0
 10
34.154701232910156
 20
48.398681640625
 30
154.0
 11
34.409969329833984
 21
49.097599029541016
 31
154.0
 12
34.44948196411133
 22
49.402835845947266
 32
154.0
 13
34.44948196411133
 23
49.402835845947266
 33
154.0
  0
3DFACE
  8
0
 10
34.091522216796875
 20
48.241676330566406
 30
154.0
 11
34.13250732421875
 21
48.333335876464844
 31
154.0
 12
34.14345169067383
 22
48.373260498046875
 32
154.0
 13
34.14345169067383
 23
48.373260498046875
 33
154.0
  0
3DFACE
  8
0
 10
34.14345169067383
 20
48.373260498046875
 30
154.0
 11
34.154701232910156
 21
48.398681640625
 31
154.0
 12
34.44948196411133
 22
49.402835845947266
 32
154.0
 13
34.44948196411133
 23
49.402835845947266
 33
154.0
  0
3DFACE
  8
0
 10
34.44948196411133
 20
49.402835845947266
 30
154.0
 11
34.611351013183594
 21
50.45737075805664
 31
154.0
 12
34.67094802856445
 22
50.89862823486328
 32
154.0
 13
34.67094802856445
 23
50.89862823486328
 33
154.0
  0
3DFACE
  8
0
 10
34.67094802856445
 20
50.89862823486328
 30
154.0
 11
34.67000198364258
 21
51.45901870727539
 31
154.0
 12
34.53483963012695
 22
52.24614715576172
 32
154.0
 13
34.53483963012695
 23
52.24614715576172
 33
154.0
  0
3DFACE
  8
0
 10
34.53483963012695
 20
52.24614715576172
 30
154.0
 11
34.375
 21
52.766258239746094
 31
154.0
 12
33.168121337890625
 22
54.60756301879883
 32
154.0
 13
33.168121337890625
 23
54.60756301879883
 33
154.0
  0
3DFACE
  8
0
 10
33.168121337890625
 20
54.60756301879883
 30
154.0
 11
28.954057693481445
 21
55.08279037475586
 31
154.0
 12
26.83367156982422
 22
53.06578063964844
 32
154.0
 13
26.83367156982422
 23
53.06578063964844
 33
154.0
  0
3DFACE
  8
0
 10
26.83367156982422
 20
53.06578063964844
 30
154.0
 11
26.710233688354492
 21
52.7968864440918
 31
154.0
 12
26.556962966918945
 22
52.37068176269531
 32
154.0
 13
26.556962966918945
 23
52.37068176269531
 33
154.0
  0
3DFACE
  8
0
 10
26.556962966918945
 20
52.37068176269531
 30
154.0
 11
26.527257919311523
 21
52.259620666503906
 31
154.0
 12
26.50930404663086
 22
52.02806854248047
 32
154.0
 13
26.50930404663086
 23
52.02806854248047
 33
154.0
  0
3DFACE
  8
0
 10
26.50930404663086
 20
52.02806854248047
 30
154.0
 11
26.41865348815918
 21
51.78436279296875
 31
154.0
 12
26.304744720458984
 22
51.453365325927734
 32
154.0
 13
26.304744720458984
 23
51.453365325927734
 33
154.0
  0
3DFACE
  8
0
 10
26.304744720458984
 20
51.453365325927734
 30
154.0
 11
26.22850799560547
 21
51.131187438964844
 31
154.0
 12
26.221302032470703
 22
50.671871185302734
 32
154.0
 13
26.221302032470703
 23
50.671871185302734
 33
154.0
  0
3DFACE
  8
0
 10
26.221302032470703
 20
50.671871185302734
 30
154.0
 11
26.205472946166992
 21
50.48411560058594
 31
154.0
 12
26.18256187438965
 22
49.88473892211914
 32
154.0
 13
26.18256187438965
 23
49.88473892211914
 33
154.0
  0
3DFACE
  8
0
 10
26.18256187438965
 20
49.88473892211914
 30
154.0
 11
26.181900024414062
 21
49.83716583251953
 31
154.0
 12
26.198789596557617
 22
49.58965301513672
 32
154.0
 13
26.198789596557617
 23
49.58965301513672
 33
154.0
  0
3DFACE
  8
0
 10
26.198789596557617
 20
49.58965301513672
 30
154.0
 11
26.23471450805664
 21
49.17543029785156
 31
154.0
 12
26.252290725708008
 22
49.097599029541016
 32
154.0
 13
26.252290725708008
 23
49.097599029541016
 33
154.0
  0
3DFACE
  8
0
 10
26.252290725708008
 20
49.097599029541016
 30
154.0
 11
26.36797523498535
 21
48.498138427734375
 31
154.0
 12
26.43394660949707
 22
48.310462951660156
 32
154.0
 13
26.43394660949707
 23
48.310462951660156
 33
154.0
  0
3DFACE
  8
0
 10
26.43394660949707
 20
48.310462951660156
 30
154.0
 11
26.636133193969727
 21
47.79474639892578
 31
154.0
 12
26.95154571533203
 22
47.10309600830078
 32
154.0
 13
26.95154571533203
 23
47.10309600830078
 33
154.0
  0
3DFACE
  8
0
 10
26.95154571533203
 20
47.10309600830078
 30
154.0
 11
26.98474884033203
 21
47.04787826538086
 31
154.0
 12
27.707242965698242
 22
45.94904327392578
 32
154.0
 13
27.707242965698242
 23
45.94904327392578
 33
154.0
  0
3DFACE
  8
0
 10
27.707242965698242
 20
45.94904327392578
 30
154.0
 11
27.714529037475586
 21
45.939781188964844
 31
154.0
 12
27.731348037719727
 22
45.92481231689453
 32
154.0
 13
27.731348037719727
 23
45.92481231689453
 33
154.0
  0
3DFACE
  8
0
 10
27.731348037719727
 20
45.92481231689453
 30
154.0
 11
28.47103500366211
 21
45.243839263916016
 31
154.0
 12
28.91899871826172
 22
45.033912658691406
 32
154.0
 13
28.91899871826172
 23
45.033912658691406
 33
154.0
  0
3DFACE
  8
0
 10
28.91899871826172
 20
45.033912658691406
 30
154.0
 11
29.245250701904297
 21
44.90869140625
 31
154.0
 12
29.55608558654785
 22
44.86400604248047
 32
154.0
 13
29.55608558654785
 23
44.86400604248047
 33
154.0
  0
3DFACE
  8
0
 10
29.55608558654785
 20
44.86400604248047
 30
154.0
 11
30.034507751464844
 21
44.880043029785156
 31
154.0
 12
30.29033851623535
 22
44.92387390136719
 32
154.0
 13
30.29033851623535
 23
44.92387390136719
 33
154.0
  0
3DFACE
  8
0
 10
30.29033851623535
 20
44.92387390136719
 30
154.0
 11
30.833894729614258
 21
45.05753707885742
 31
154.0
 12
31.008882522583008
 22
45.143699645996094
 32
154.0
 13
31.008882522583008
 23
45.143699645996094
 33
154.0
  0
3DFACE
  8
0
 10
31.008882522583008
 20
45.143699645996094
 30
154.0
 11
31.54092025756836
 21
45.377296447753906
 31
154.0
 12
32.34316635131836
 22
45.89239501953125
 32
154.0
 13
32.34316635131836
 23
45.89239501953125
 33
154.0
  0
3DFACE
  8
0
 10
32.34316635131836
 20
45.89239501953125
 30
154.0
 11
32.4625244140625
 21
45.96466064453125
 31
154.0
 12
32.51432418823242
 22
46.00155258178711
 32
154.0
 13
32.51432418823242
 23
46.00155258178711
 33
154.0
  0
3DFACE
  8
0
 10
32.51432418823242
 20
46.00155258178711
 30
154.0
 11
32.63108444213867
 21
46.12428283691406
 31
154.0
 12
33.18037033081055
 22
46.76303482055664
 32
154.0
 13
33.18037033081055
 23
46.76303482055664
 33
154.0
  0
3DFACE
  8
0
 10
33.445472717285156
 20
47.15572738647461
 30
154.0
 11
33.712467193603516
 21
47.52332305908203
 31
154.0
 12
34.091522216796875
 22
48.241676330566406
 32
154.0
 13
34.091522216796875
 23
48.241676330566406
 33
154.0
  0
3DFACE
  8
0
 10
32.51432418823242
 20
46.00155258178711
 30
154.0
 11
33.18037033081055
 21
46.76303482055664
 31
154.0
 12
33.445472717285156
 22
47.15572738647461
 32
154.0
 13
33.445472717285156
 23
47.15572738647461
 33
154.0
  0
3DFACE
  8
0
 10
31.008882522583008
 20
45.143699645996094
 30
154.0
 11
32.34316635131836
 21
45.89239501953125
 31
154.0
 12
32.51432418823242
 22
46.00155258178711
 32
154.0
 13
32.51432418823242
 23
46.00155258178711
 33
154.0
  0
3DFACE
  8
0
 10
29.55608558654785
 20
44.86400604248047
 30
154.0
 11
30.29033851623535
 21
44.92387390136719
 31
154.0
 12
31.008882522583008
 22
45.143699645996094
 32
154.0
 13
31.008882522583008
 23
45.143699645996094
 33
154.0
  0
3DFACE
  8
0
 10
27.731348037719727
 20
45.92481231689453
 30
154.0
 11
28.91899871826172
 21
45.033912658691406
 31
154.0
 12
29.55608558654785
 22
44.86400604248047
 32
154.0
 13
29.55608558654785
 23
44.86400604248047
 33
154.0
  0
3DFACE
  8
0
 10
26.95154571533203
 20
47.10309600830078
 30
154.0
 11
27.707242965698242
 21
45.94904327392578
 31
154.0
 12
27.731348037719727
 22
45.92481231689453
 32
154.0
 13
27.731348037719727
 23
45.92481231689453
 33
154.0
  0
3DFACE
  8
0
 10
26.252290725708008
 20
49.097599029541016
 30
154.0
 11
26.43394660949707
 21
48.310462951660156
 31
154.0
 12
26.95154571533203
 22
47.10309600830078
 32
154.0
 13
26.95154571533203
 23
47.10309600830078
 33
154.0
  0
3DFACE
  8
0
 10
26.18256187438965
 20
49.88473892211914
 30
154.0
 11
26.198789596557617
 21
49.58965301513672
 31
154.0
 12
26.252290725708008
 22
49.097599029541016
 32
154.0
 13
26.252290725708008
 23
49.097599029541016
 33
154.0
  0
3DFACE
  8
0
 10
26.304744720458984
 20
51.453365325927734
 30
154.0
 11
26.221302032470703
 21
50.671871185302734
 31
154.0
 12
26.18256187438965
 22
49.88473892211914
 32
154.0
 13
26.18256187438965
 23
49.88473892211914
 33
154.0
  0
3DFACE
  8
0
 10
26.83367156982422
 20
53.06578063964844
 30
154.0
 11
26.556962966918945
 21
52.37068176269531
 31
154.0
 12
26.50930404663086
 22
52.02806854248047
 32
154.0
 13
26.50930404663086
 23
52.02806854248047
 33
154.0
  0
3DFACE
  8
0
 10
26.50930404663086
 20
52.02806854248047
 30
154.0
 11
26.304744720458984
 21
51.453365325927734
 31
154.0
 12
26.18256187438965
 22
49.88473892211914
 32
154.0
 13
26.18256187438965
 23
49.88473892211914
 33
154.0
  0
3DFACE
  8
0
 10
26.18256187438965
 20
49.88473892211914
 30
154.0
 11
26.252290725708008
 21
49.097599029541016
 31
154.0
 12
26.95154571533203
 22
47.10309600830078
 32
154.0
 13
26.95154571533203
 23
47.10309600830078
 33
154.0
  0
3DFACE
  8
0
 10
26.95154571533203
 20
47.10309600830078
 30
154.0
 11
27.731348037719727
 21
45.92481231689453
 31
154.0
 12
29.55608558654785
 22
44.86400604248047
 32
154.0
 13
29.55608558654785
 23
44.86400604248047
 33
154.0
  0
3DFACE
  8
0
 10
29.55608558654785
 20
44.86400604248047
 30
154.0
 11
31.008882522583008
 21
45.143699645996094
 31
154.0
 12
32.51432418823242
 22
46.00155258178711
 32
154.0
 13
32.51432418823242
 23
46.00155258178711
 33
154.0
  0
3DFACE
  8
0
 10
32.51432418823242
 20
46.00155258178711
 30
154.0
 11
33.445472717285156
 21
47.15572738647461
 31
154.0
 12
34.091522216796875
 22
48.241676330566406
 32
154.0
 13
34.091522216796875
 23
48.241676330566406
 33
154.0
  0
3DFACE
  8
0
 10
34.091522216796875
 20
48.241676330566406
 30
154.0
 11
34.14345169067383
 21
48.373260498046875
 31
154.0
 12
34.44948196411133
 22
49.402835845947266
 32
154.0
 13
34.44948196411133
 23
49.402835845947266
 33
154.0
  0
3DFACE
  8
0
 10
34.44948196411133
 20
49.402835845947266
 30
154.0
 11
34.67094802856445
 21
50.89862823486328
 31
154.0
 12
34.53483963012695
 22
52.24614715576172
 32
154.0
 13
34.53483963012695
 23
52.24614715576172
 33
154.0
  0
3DFACE
  8
0
 10
34.53483963012695
 20
52.24614715576172
 30
154.0
 11
33.168121337890625
 21
54.60756301879883
 31
154.0
 12
26.83367156982422
 22
53.06578063964844
 32
154.0
 13
26.83367156982422
 23
53.06578063964844
 33
154.0
  0
3DFACE
  8
0
 10
26.83367156982422
 20
53.06578063964844
 30
154.0
 11
26.50930404663086
 21
52.02806854248047
 31
154.0
 12
26.18256187438965
 22
49.88473892211914
 32
154.0
 13
26.18256187438965
 23
49.88473892211914
 33
154.0
  0
3DFACE
  8
0
 10
26.18256187438965
 20
49.88473892211914
 30
154.0
 11
26.95154571533203
 21
47.10309600830078
 31
154.0
 12
29.55608558654785
 22
44.86400604248047
 32
154.0
 13
29.55608558654785
 23
44.86400604248047
 33
154.0
  0
3DFACE
  8
0
 10
29.55608558654785
 20
44.86400604248047
 30
154.0
 11
32.51432418823242
 21
46.00155258178711
 31
154.0
 12
34.091522216796875
 22
48.241676330566406
 32
154.0
 13
34.091522216796875
 23
48.241676330566406
 33
154.0
  0
3DFACE
  8
0
 10
34.091522216796875
 20
48.241676330566406
 30
154.0
 11
34.44948196411133
 21
49.402835845947266
 31
154.0
 12
34.53483963012695
 22
52.24614715576172
 32
154.0
 13
34.53483963012695
 23
52.24614715576172
 33
154.0
  0
3DFACE
  8
0
 10
34.53483963012695
 20
52.24614715576172
 30
154.0
 11
26.83367156982422
 21
53.06578063964844
 31
154.0
 12
26.18256187438965
 22
49.88473892211914
 32
154.0
 13
26.18256187438965
 23
49.88473892211914
 33
154.0
  0
3DFACE
  8
0
 10
26.18256187438965
 20
49.88473892211914
 30
154.0
 11
29.55608558654785
 21
44.86400604248047
 31
154.0
 12
34.091522216796875
 22
48.241676330566406
 32
154.0
 13
34.091522216796875
 23
48.241676330566406
 33
154.0
  0
3DFACE
  8
0
 10
26.18256187438965
 20
49.88473892211914
 30
154.0
 11
34.091522216796875
 21
48.241676330566406
 31
154.0
 12
34.53483963012695
 22
52.24614715576172
 32
154.0
 13
34.53483963012695
 23
52.24614715576172
 33
154.0
  0
ENDSEC
  0
EOF
