  0
SECTION
  2
HEADER
  9
$ACADVER
  1
AC1009
  9
$INSBASE
 10
0.0
 20
0.0
 30
0.0
  9
$EXTMIN
 10
0.0
 20
0.0
 30
0.0
  9
$EXTMAX
 10
0.0
 20
0.0
 30
0.0
  0
ENDSEC
  0
SECTION
  2
TABLES
  0
TABLE
  2
VPORT
 70
1
  0
VPORT
  2
*ACTIVE
 70
0
 10
0.0
 20
0.0
 11
1.0
 21
1.0
 12
-5.0
 22
1.0
 13
0.0
 23
0.0
 14
0.1
 24
0.1
 15
0.1
 25
0.1
 16
0.0
 26
0.0
 36
1.0
 17
0.0
 27
0.0
 37
0.0
 40
10.0
 41
1.0
 42
50.0
 43
0.0
 44
0.0
 50
0.0
 51
0.0
 71
0
 72
100
 73
1
 74
1
 75
0
 76
0
 77
0
 78
0
  0
ENDTAB
  0
TABLE
  2
LTYPE
 70
8
  0
LTYPE
  2
CONTINUOUS
 70
0
  3
Solid line
 72
65
 73
0
 40
0.0
  0
LTYPE
  2
DOT
 70
0
  3
. . . . . . .
 72
65
 73
2
 40
0.25
 49
0.0
 49
-0.25
  0
LTYPE
  2
DASHED
 70
0
  3
__ __ __ __ __
 72
65
 73
2
 40
0.8
 49
0.5
 49
-0.3
  0
LTYPE
  2
DASHDOT
 70
0
  3
__ . __ . __ .
 72
65
 73
4
 40
1.0
 49
0.5
 49
-0.25
 49
0.0
 49
-0.25
  0
LTYPE
  2
DIVIDE
 70
0
  3
____ . . ____ . . 
 72
65
 73
6
 40
1.25
 49
0.5
 49
-0.25
 49
0.0
 49
-0.25
 49
0.0
 49
-0.25
  0
LTYPE
  2
BORDER
 70
0
  3
__ __ . __ __ . 
 72
65
 73
6
 40
1.75
 49
0.5
 49
-0.25
 49
0.5
 49
-0.25
 49
0.0
 49
-0.25
  0
LTYPE
  2
HIDDEN
 70
0
  3
__ __ __ __ __
 72
65
 73
2
 40
0.4
 49
0.25
 49
-0.25
  0
LTYPE
  2
CENTER
 70
0
  3
____ _ ____ _ __
 72
65
 73
4
 40
2.0
 49
1.25
 49
-0.25
 49
0.25
 49
-0.25
  0
ENDTAB
  0
TABLE
  2
LAYER
 70
1
  0
LAYER
  2
PYDXF
 70
64
 62
7
  6
continuous
  0
ENDTAB
  0
TABLE
  2
STYLE
 70
1
  0
STYLE
  2
STANDARD
 70
0
 40
0
 41
1.0
 50
0.0
 71
0
 42
1
 3
ARIAL.TTF
 4

  0
ENDTAB
  0
TABLE
  2
VIEW
 70
1
  0
VIEW
  2
BF_TOPVIEW
 70
0
 40
120.0
 10
0.0
 20
0.0
 41
200.0
 11
0.0
 21
0.0
 31
1.0
 12
0.0
 22
0.0
 32
0.0
 42
50.0
 43
0.0
 44
0.0
 50
0.0
 71
0
  0
ENDTAB
  0
ENDSEC
  0
SECTION
  2
BLOCKS
  0
ENDSEC
  0
SECTION
  2
ENTITIES
  0
3DFACE
  8
0
 10
-16.544132232666016
 20
-46.73866271972656
 30
156.0
 11
-15.77185344696045
 21
-46.23267364501953
 31
156.0
 12
-15.761659622192383
 22
-46.22510528564453
 32
156.0
 13
-15.761659622192383
 23
-46.22510528564453
 33
156.0
  0
3DFACE
  8
0
 10
-15.759556770324707
 20
-46.222599029541016
 30
156.0
 11
-15.757393836975098
 21
-46.220760345458984
 31
156.0
 12
-15.496480941772461
 22
-45.9222526550293
 32
156.0
 13
-15.496480941772461
 23
-45.9222526550293
 33
156.0
  0
3DFACE
  8
0
 10
-16.544132232666016
 20
-46.73866271972656
 30
156.0
 11
-15.761659622192383
 21
-46.22510528564453
 31
156.0
 12
-15.759556770324707
 22
-46.222599029541016
 32
156.0
 13
-15.759556770324707
 23
-46.222599029541016
 33
156.0
  0
3DFACE
  8
0
 10
-17.326637268066406
 20
-47.09455490112305
 30
156.0
 11
-17.174217224121094
 21
-47.02841567993164
 31
156.0
 12
-16.544132232666016
 22
-46.73866271972656
 32
156.0
 13
-16.544132232666016
 23
-46.73866271972656
 33
156.0
  0
3DFACE
  8
0
 10
-18.33163070678711
 20
-47.22487258911133
 30
156.0
 11
-18.109140396118164
 21
-47.220794677734375
 31
156.0
 12
-17.888587951660156
 22
-47.17509460449219
 32
156.0
 13
-17.888587951660156
 23
-47.17509460449219
 33
156.0
  0
3DFACE
  8
0
 10
-17.888587951660156
 20
-47.17509460449219
 30
156.0
 11
-17.326637268066406
 21
-47.09455490112305
 31
156.0
 12
-16.544132232666016
 22
-46.73866271972656
 32
156.0
 13
-16.544132232666016
 23
-46.73866271972656
 33
156.0
  0
3DFACE
  8
0
 10
-16.544132232666016
 20
-46.73866271972656
 30
156.0
 11
-15.759556770324707
 21
-46.222599029541016
 31
156.0
 12
-15.496480941772461
 22
-45.9222526550293
 32
156.0
 13
-15.496480941772461
 23
-45.9222526550293
 33
156.0
  0
3DFACE
  8
0
 10
-15.293906211853027
 20
-45.70138168334961
 30
156.0
 11
-14.9791259765625
 21
-45.4388542175293
 31
156.0
 12
-14.904173851013184
 22
-45.35299301147461
 32
156.0
 13
-14.904173851013184
 23
-45.35299301147461
 33
156.0
  0
3DFACE
  8
0
 10
-16.544132232666016
 20
-46.73866271972656
 30
156.0
 11
-15.496480941772461
 21
-45.9222526550293
 31
156.0
 12
-15.293906211853027
 22
-45.70138168334961
 32
156.0
 13
-15.293906211853027
 23
-45.70138168334961
 33
156.0
  0
3DFACE
  8
0
 10
-18.33163070678711
 20
-47.22487258911133
 30
156.0
 11
-17.888587951660156
 21
-47.17509460449219
 31
156.0
 12
-16.544132232666016
 22
-46.73866271972656
 32
156.0
 13
-16.544132232666016
 23
-46.73866271972656
 33
156.0
  0
3DFACE
  8
0
 10
-19.060890197753906
 20
-47.00326156616211
 30
156.0
 11
-18.892112731933594
 21
-47.08554458618164
 31
156.0
 12
-18.33163070678711
 22
-47.22487258911133
 32
156.0
 13
-18.33163070678711
 23
-47.22487258911133
 33
156.0
  0
3DFACE
  8
0
 10
-19.968347549438477
 20
-46.220760345458984
 30
156.0
 11
-19.674144744873047
 21
-46.58075714111328
 31
156.0
 12
-19.060890197753906
 22
-47.00326156616211
 32
156.0
 13
-19.060890197753906
 23
-47.00326156616211
 33
156.0
  0
3DFACE
  8
0
 10
-20.458820343017578
 20
-45.44464111328125
 30
156.0
 11
-20.456647872924805
 21
-45.44887161254883
 31
156.0
 12
-19.968347549438477
 22
-46.220760345458984
 32
156.0
 13
-19.968347549438477
 23
-46.220760345458984
 33
156.0
  0
3DFACE
  8
0
 10
-20.54816436767578
 20
-44.80304718017578
 30
156.0
 11
-20.46061897277832
 21
-45.43825149536133
 31
156.0
 12
-20.458820343017578
 22
-45.44464111328125
 32
156.0
 13
-20.458820343017578
 23
-45.44464111328125
 33
156.0
  0
3DFACE
  8
0
 10
-20.465511322021484
 20
-43.88839340209961
 30
156.0
 11
-20.542821884155273
 21
-44.6557502746582
 31
156.0
 12
-20.54816436767578
 22
-44.80304718017578
 32
156.0
 13
-20.54816436767578
 23
-44.80304718017578
 33
156.0
  0
3DFACE
  8
0
 10
-20.456510543823242
 20
-43.85858154296875
 30
156.0
 11
-20.461904525756836
 21
-43.87324142456055
 31
156.0
 12
-20.465511322021484
 22
-43.88839340209961
 32
156.0
 13
-20.465511322021484
 23
-43.88839340209961
 33
156.0
  0
3DFACE
  8
0
 10
-19.904682159423828
 20
-42.634368896484375
 30
156.0
 11
-20.19087028503418
 21
-43.09632873535156
 31
156.0
 12
-20.22749137878418
 22
-43.42643356323242
 32
156.0
 13
-20.22749137878418
 23
-43.42643356323242
 33
156.0
  0
3DFACE
  8
0
 10
-20.22749137878418
 20
-43.42643356323242
 30
156.0
 11
-20.456510543823242
 21
-43.85858154296875
 31
156.0
 12
-20.465511322021484
 22
-43.88839340209961
 32
156.0
 13
-20.465511322021484
 23
-43.88839340209961
 33
156.0
  0
3DFACE
  8
0
 10
-20.465511322021484
 20
-43.88839340209961
 30
156.0
 11
-20.54816436767578
 21
-44.80304718017578
 31
156.0
 12
-20.458820343017578
 22
-45.44464111328125
 32
156.0
 13
-20.458820343017578
 23
-45.44464111328125
 33
156.0
  0
3DFACE
  8
0
 10
-20.458820343017578
 20
-45.44464111328125
 30
156.0
 11
-19.968347549438477
 21
-46.220760345458984
 31
156.0
 12
-19.060890197753906
 22
-47.00326156616211
 32
156.0
 13
-19.060890197753906
 23
-47.00326156616211
 33
156.0
  0
3DFACE
  8
0
 10
-19.060890197753906
 20
-47.00326156616211
 30
156.0
 11
-18.33163070678711
 21
-47.22487258911133
 31
156.0
 12
-16.544132232666016
 22
-46.73866271972656
 32
156.0
 13
-16.544132232666016
 23
-46.73866271972656
 33
156.0
  0
3DFACE
  8
0
 10
-16.544132232666016
 20
-46.73866271972656
 30
156.0
 11
-15.293906211853027
 21
-45.70138168334961
 31
156.0
 12
-14.904173851013184
 22
-45.35299301147461
 32
156.0
 13
-14.904173851013184
 23
-45.35299301147461
 33
156.0
  0
3DFACE
  8
0
 10
-14.904173851013184
 20
-45.35299301147461
 30
156.0
 11
-14.723994255065918
 21
-45.11212921142578
 31
156.0
 12
-14.451803207397461
 22
-44.6557502746582
 32
156.0
 13
-14.451803207397461
 23
-44.6557502746582
 33
156.0
  0
3DFACE
  8
0
 10
-14.451803207397461
 20
-44.6557502746582
 30
156.0
 11
-14.199152946472168
 21
-44.32569885253906
 31
156.0
 12
-13.988037109375
 22
-43.872676849365234
 32
156.0
 13
-13.988037109375
 23
-43.872676849365234
 33
156.0
  0
3DFACE
  8
0
 10
-13.988037109375
 20
-43.872676849365234
 30
156.0
 11
-13.846713066101074
 21
-43.547119140625
 31
156.0
 12
-13.741240501403809
 22
-43.09074783325195
 32
156.0
 13
-13.741240501403809
 23
-43.09074783325195
 33
156.0
  0
3DFACE
  8
0
 10
-13.739764213562012
 20
-42.634368896484375
 30
156.0
 11
-13.64214038848877
 21
-42.30824661254883
 31
156.0
 12
-13.675357818603516
 22
-41.851863861083984
 32
156.0
 13
-13.675357818603516
 23
-41.851863861083984
 33
156.0
  0
3DFACE
  8
0
 10
-13.988037109375
 20
-43.872676849365234
 30
156.0
 11
-13.741240501403809
 21
-43.09074783325195
 31
156.0
 12
-13.739764213562012
 22
-42.634368896484375
 32
156.0
 13
-13.739764213562012
 23
-42.634368896484375
 33
156.0
  0
3DFACE
  8
0
 10
-14.904173851013184
 20
-45.35299301147461
 30
156.0
 11
-14.451803207397461
 21
-44.6557502746582
 31
156.0
 12
-13.988037109375
 22
-43.872676849365234
 32
156.0
 13
-13.988037109375
 23
-43.872676849365234
 33
156.0
  0
3DFACE
  8
0
 10
-19.060890197753906
 20
-47.00326156616211
 30
156.0
 11
-16.544132232666016
 21
-46.73866271972656
 31
156.0
 12
-14.904173851013184
 22
-45.35299301147461
 32
156.0
 13
-14.904173851013184
 23
-45.35299301147461
 33
156.0
  0
3DFACE
  8
0
 10
-20.465511322021484
 20
-43.88839340209961
 30
156.0
 11
-20.458820343017578
 21
-45.44464111328125
 31
156.0
 12
-19.060890197753906
 22
-47.00326156616211
 32
156.0
 13
-19.060890197753906
 23
-47.00326156616211
 33
156.0
  0
3DFACE
  8
0
 10
-19.76970672607422
 20
-42.30824661254883
 30
156.0
 11
-19.904682159423828
 21
-42.634368896484375
 31
156.0
 12
-20.22749137878418
 22
-43.42643356323242
 32
156.0
 13
-20.22749137878418
 23
-43.42643356323242
 33
156.0
  0
3DFACE
  8
0
 10
-20.22749137878418
 20
-43.42643356323242
 30
156.0
 11
-20.465511322021484
 21
-43.88839340209961
 31
156.0
 12
-19.060890197753906
 22
-47.00326156616211
 32
156.0
 13
-19.060890197753906
 23
-47.00326156616211
 33
156.0
  0
3DFACE
  8
0
 10
-19.060890197753906
 20
-47.00326156616211
 30
156.0
 11
-14.904173851013184
 21
-45.35299301147461
 31
156.0
 12
-13.988037109375
 22
-43.872676849365234
 32
156.0
 13
-13.988037109375
 23
-43.872676849365234
 33
156.0
  0
3DFACE
  8
0
 10
-13.988037109375
 20
-43.872676849365234
 30
156.0
 11
-13.739764213562012
 21
-42.634368896484375
 31
156.0
 12
-13.675357818603516
 22
-41.851863861083984
 32
156.0
 13
-13.675357818603516
 23
-41.851863861083984
 33
156.0
  0
3DFACE
  8
0
 10
-13.675357818603516
 20
-41.851863861083984
 30
156.0
 11
-13.662010192871094
 21
-41.52573776245117
 31
156.0
 12
-13.822914123535156
 22
-41.069358825683594
 32
156.0
 13
-13.822914123535156
 23
-41.069358825683594
 33
156.0
  0
3DFACE
  8
0
 10
-13.822914123535156
 20
-41.069358825683594
 30
156.0
 11
-13.844820022583008
 21
-40.74323654174805
 31
156.0
 12
-13.977935791015625
 22
-40.4171142578125
 32
156.0
 13
-13.977935791015625
 23
-40.4171142578125
 33
156.0
  0
3DFACE
  8
0
 10
-14.127821922302246
 20
-40.21733856201172
 30
156.0
 11
-14.196624755859375
 21
-40.1171875
 31
156.0
 12
-14.34032154083252
 22
-39.96073532104492
 32
156.0
 13
-14.34032154083252
 23
-39.96073532104492
 33
156.0
  0
3DFACE
  8
0
 10
-13.822914123535156
 20
-41.069358825683594
 30
156.0
 11
-13.977935791015625
 21
-40.4171142578125
 31
156.0
 12
-14.127821922302246
 22
-40.21733856201172
 32
156.0
 13
-14.127821922302246
 23
-40.21733856201172
 33
156.0
  0
3DFACE
  8
0
 10
-13.988037109375
 20
-43.872676849365234
 30
156.0
 11
-13.675357818603516
 21
-41.851863861083984
 31
156.0
 12
-13.822914123535156
 22
-41.069358825683594
 32
156.0
 13
-13.822914123535156
 23
-41.069358825683594
 33
156.0
  0
3DFACE
  8
0
 10
-20.22749137878418
 20
-43.42643356323242
 30
156.0
 11
-19.060890197753906
 21
-47.00326156616211
 31
156.0
 12
-13.988037109375
 22
-43.872676849365234
 32
156.0
 13
-13.988037109375
 23
-43.872676849365234
 33
156.0
  0
3DFACE
  8
0
 10
-19.60686683654785
 20
-42.119163513183594
 30
156.0
 11
-19.76970672607422
 21
-42.30824661254883
 31
156.0
 12
-20.22749137878418
 22
-43.42643356323242
 32
156.0
 13
-20.22749137878418
 23
-43.42643356323242
 33
156.0
  0
3DFACE
  8
0
 10
-18.956871032714844
 20
-41.28505325317383
 30
156.0
 11
-19.19953155517578
 21
-41.52573776245117
 31
156.0
 12
-19.39314842224121
 22
-41.851863861083984
 32
156.0
 13
-19.39314842224121
 23
-41.851863861083984
 33
156.0
  0
3DFACE
  8
0
 10
-19.39314842224121
 20
-41.851863861083984
 30
156.0
 11
-19.60686683654785
 21
-42.119163513183594
 31
156.0
 12
-20.22749137878418
 22
-43.42643356323242
 32
156.0
 13
-20.22749137878418
 23
-43.42643356323242
 33
156.0
  0
3DFACE
  8
0
 10
-20.22749137878418
 20
-43.42643356323242
 30
156.0
 11
-13.988037109375
 21
-43.872676849365234
 31
156.0
 12
-13.822914123535156
 22
-41.069358825683594
 32
156.0
 13
-13.822914123535156
 23
-41.069358825683594
 33
156.0
  0
3DFACE
  8
0
 10
-13.822914123535156
 20
-41.069358825683594
 30
156.0
 11
-14.127821922302246
 21
-40.21733856201172
 31
156.0
 12
-14.34032154083252
 22
-39.96073532104492
 32
156.0
 13
-14.34032154083252
 23
-39.96073532104492
 33
156.0
  0
3DFACE
  8
0
 10
-14.453226089477539
 20
-39.87973403930664
 30
156.0
 11
-14.653002738952637
 21
-39.682735443115234
 31
156.0
 12
-14.9791259765625
 22
-39.468448638916016
 32
156.0
 13
-14.9791259765625
 23
-39.468448638916016
 33
156.0
  0
3DFACE
  8
0
 10
-13.822914123535156
 20
-41.069358825683594
 30
156.0
 11
-14.34032154083252
 21
-39.96073532104492
 31
156.0
 12
-14.453226089477539
 22
-39.87973403930664
 32
156.0
 13
-14.453226089477539
 23
-39.87973403930664
 33
156.0
  0
3DFACE
  8
0
 10
-19.39314842224121
 20
-41.851863861083984
 30
156.0
 11
-20.22749137878418
 21
-43.42643356323242
 31
156.0
 12
-13.822914123535156
 22
-41.069358825683594
 32
156.0
 13
-13.822914123535156
 23
-41.069358825683594
 33
156.0
  0
3DFACE
  8
0
 10
-18.702524185180664
 20
-40.95893096923828
 30
156.0
 11
-18.956871032714844
 21
-41.28505325317383
 31
156.0
 12
-19.39314842224121
 22
-41.851863861083984
 32
156.0
 13
-19.39314842224121
 23
-41.851863861083984
 33
156.0
  0
3DFACE
  8
0
 10
-18.24614715576172
 20
-40.58216094970703
 30
156.0
 11
-18.465700149536133
 21
-40.74323654174805
 31
156.0
 12
-18.702524185180664
 22
-40.95893096923828
 32
156.0
 13
-18.702524185180664
 23
-40.95893096923828
 33
156.0
  0
3DFACE
  8
0
 10
-17.652761459350586
 20
-40.196754455566406
 30
156.0
 11
-18.109140396118164
 21
-40.459197998046875
 31
156.0
 12
-18.24614715576172
 22
-40.58216094970703
 32
156.0
 13
-18.24614715576172
 23
-40.58216094970703
 33
156.0
  0
3DFACE
  8
0
 10
-17.326637268066406
 20
-39.933895111083984
 30
156.0
 11
-17.412128448486328
 21
-39.99359130859375
 31
156.0
 12
-17.652761459350586
 22
-40.196754455566406
 32
156.0
 13
-17.652761459350586
 23
-40.196754455566406
 33
156.0
  0
3DFACE
  8
0
 10
-16.087753295898438
 20
-39.48563003540039
 30
156.0
 11
-16.544132232666016
 21
-39.579864501953125
 31
156.0
 12
-16.870258331298828
 22
-39.76002502441406
 32
156.0
 13
-16.870258331298828
 23
-39.76002502441406
 33
156.0
  0
3DFACE
  8
0
 10
-16.870258331298828
 20
-39.76002502441406
 30
156.0
 11
-17.326637268066406
 21
-39.933895111083984
 31
156.0
 12
-17.652761459350586
 22
-40.196754455566406
 32
156.0
 13
-17.652761459350586
 23
-40.196754455566406
 33
156.0
  0
3DFACE
  8
0
 10
-17.652761459350586
 20
-40.196754455566406
 30
156.0
 11
-18.24614715576172
 21
-40.58216094970703
 31
156.0
 12
-18.702524185180664
 22
-40.95893096923828
 32
156.0
 13
-18.702524185180664
 23
-40.95893096923828
 33
156.0
  0
3DFACE
  8
0
 10
-18.702524185180664
 20
-40.95893096923828
 30
156.0
 11
-19.39314842224121
 21
-41.851863861083984
 31
156.0
 12
-13.822914123535156
 22
-41.069358825683594
 32
156.0
 13
-13.822914123535156
 23
-41.069358825683594
 33
156.0
  0
3DFACE
  8
0
 10
-13.822914123535156
 20
-41.069358825683594
 30
156.0
 11
-14.453226089477539
 21
-39.87973403930664
 31
156.0
 12
-14.9791259765625
 22
-39.468448638916016
 32
156.0
 13
-14.9791259765625
 23
-39.468448638916016
 33
156.0
  0
3DFACE
  8
0
 10
-15.299760818481445
 20
-39.496803283691406
 30
156.0
 11
-15.761629104614258
 21
-39.40452575683594
 31
156.0
 12
-16.087753295898438
 22
-39.48563003540039
 32
156.0
 13
-16.087753295898438
 23
-39.48563003540039
 33
156.0
  0
3DFACE
  8
0
 10
-13.822914123535156
 20
-41.069358825683594
 30
156.0
 11
-14.9791259765625
 21
-39.468448638916016
 31
156.0
 12
-15.299760818481445
 22
-39.496803283691406
 32
156.0
 13
-15.299760818481445
 23
-39.496803283691406
 33
156.0
  0
3DFACE
  8
0
 10
-17.652761459350586
 20
-40.196754455566406
 30
156.0
 11
-18.702524185180664
 21
-40.95893096923828
 31
156.0
 12
-13.822914123535156
 22
-41.069358825683594
 32
156.0
 13
-13.822914123535156
 23
-41.069358825683594
 33
156.0
  0
3DFACE
  8
0
 10
-16.087753295898438
 20
-39.48563003540039
 30
156.0
 11
-16.870258331298828
 21
-39.76002502441406
 31
156.0
 12
-17.652761459350586
 22
-40.196754455566406
 32
156.0
 13
-17.652761459350586
 23
-40.196754455566406
 33
156.0
  0
3DFACE
  8
0
 10
-13.822914123535156
 20
-41.069358825683594
 30
156.0
 11
-15.299760818481445
 21
-39.496803283691406
 31
156.0
 12
-16.087753295898438
 22
-39.48563003540039
 32
156.0
 13
-16.087753295898438
 23
-39.48563003540039
 33
156.0
  0
3DFACE
  8
0
 10
-13.822914123535156
 20
-41.069358825683594
 30
156.0
 11
-16.087753295898438
 21
-39.48563003540039
 31
156.0
 12
-17.652761459350586
 22
-40.196754455566406
 32
156.0
 13
-17.652761459350586
 23
-40.196754455566406
 33
156.0
  0
3DFACE
  8
0
 10
23.40846061706543
 20
-39.23662567138672
 30
156.0
 11
23.348445892333984
 21
-39.30152893066406
 31
156.0
 12
23.342254638671875
 22
-39.31684875488281
 32
156.0
 13
23.342254638671875
 23
-39.31684875488281
 33
156.0
  0
3DFACE
  8
0
 10
23.341135025024414
 20
-39.33662033081055
 30
156.0
 11
23.106975555419922
 21
-40.06911087036133
 31
156.0
 12
23.11481285095215
 22
-40.16756820678711
 32
156.0
 13
23.11481285095215
 23
-40.16756820678711
 33
156.0
  0
3DFACE
  8
0
 10
23.40846061706543
 20
-39.23662567138672
 30
156.0
 11
23.342254638671875
 21
-39.31684875488281
 31
156.0
 12
23.341135025024414
 22
-39.33662033081055
 32
156.0
 13
23.341135025024414
 23
-39.33662033081055
 33
156.0
  0
3DFACE
  8
0
 10
23.84337043762207
 20
-38.73414993286133
 30
156.0
 11
23.762470245361328
 21
-38.80093002319336
 31
156.0
 12
23.40846061706543
 22
-39.23662567138672
 32
156.0
 13
23.40846061706543
 23
-39.23662567138672
 33
156.0
  0
3DFACE
  8
0
 10
23.96788215637207
 20
-38.65532684326172
 30
156.0
 11
23.893640518188477
 21
-38.689178466796875
 31
156.0
 12
23.84337043762207
 22
-38.73414993286133
 32
156.0
 13
23.84337043762207
 23
-38.73414993286133
 33
156.0
  0
3DFACE
  8
0
 10
24.65074348449707
 20
-38.44871139526367
 30
156.0
 11
24.563879013061523
 21
-38.44669723510742
 31
156.0
 12
24.2949161529541
 22
-38.54378128051758
 32
156.0
 13
24.2949161529541
 23
-38.54378128051758
 33
156.0
  0
3DFACE
  8
0
 10
24.2949161529541
 20
-38.54378128051758
 30
156.0
 11
23.96788215637207
 21
-38.65532684326172
 31
156.0
 12
23.84337043762207
 22
-38.73414993286133
 32
156.0
 13
23.84337043762207
 23
-38.73414993286133
 33
156.0
  0
3DFACE
  8
0
 10
23.84337043762207
 20
-38.73414993286133
 30
156.0
 11
23.40846061706543
 21
-39.23662567138672
 31
156.0
 12
23.341135025024414
 22
-39.33662033081055
 32
156.0
 13
23.341135025024414
 23
-39.33662033081055
 33
156.0
  0
3DFACE
  8
0
 10
23.341135025024414
 20
-39.33662033081055
 30
156.0
 11
23.11481285095215
 21
-40.16756820678711
 31
156.0
 12
23.14434051513672
 22
-40.88474655151367
 32
156.0
 13
23.14434051513672
 23
-40.88474655151367
 33
156.0
  0
3DFACE
  8
0
 10
23.20994758605957
 20
-41.08729553222656
 30
156.0
 11
23.315744400024414
 21
-41.666351318359375
 31
156.0
 12
23.502805709838867
 22
-42.20225524902344
 32
156.0
 13
23.502805709838867
 23
-42.20225524902344
 33
156.0
  0
3DFACE
  8
0
 10
23.341135025024414
 20
-39.33662033081055
 30
156.0
 11
23.14434051513672
 21
-40.88474655151367
 31
156.0
 12
23.20994758605957
 22
-41.08729553222656
 32
156.0
 13
23.20994758605957
 23
-41.08729553222656
 33
156.0
  0
3DFACE
  8
0
 10
24.2949161529541
 20
-38.54378128051758
 30
156.0
 11
23.84337043762207
 21
-38.73414993286133
 31
156.0
 12
23.341135025024414
 22
-39.33662033081055
 32
156.0
 13
23.341135025024414
 23
-39.33662033081055
 33
156.0
  0
3DFACE
  8
0
 10
25.28263282775879
 20
-38.40073013305664
 30
156.0
 11
24.65074348449707
 21
-38.44871139526367
 31
156.0
 12
24.2949161529541
 22
-38.54378128051758
 32
156.0
 13
24.2949161529541
 23
-38.54378128051758
 33
156.0
  0
3DFACE
  8
0
 10
26.056581497192383
 20
-38.66598129272461
 30
156.0
 11
25.92579460144043
 21
-38.59109115600586
 31
156.0
 12
25.28263282775879
 22
-38.40073013305664
 32
156.0
 13
25.28263282775879
 23
-38.40073013305664
 33
156.0
  0
3DFACE
  8
0
 10
27.032018661499023
 20
-39.26374435424805
 30
156.0
 11
26.541658401489258
 21
-38.897315979003906
 31
156.0
 12
26.056581497192383
 22
-38.66598129272461
 32
156.0
 13
26.056581497192383
 23
-38.66598129272461
 33
156.0
  0
3DFACE
  8
0
 10
27.57482147216797
 20
-39.907779693603516
 30
156.0
 11
27.087902069091797
 21
-39.30862808227539
 31
156.0
 12
27.032018661499023
 22
-39.26374435424805
 32
156.0
 13
27.032018661499023
 23
-39.26374435424805
 33
156.0
  0
3DFACE
  8
0
 10
27.69109535217285
 20
-40.04623031616211
 30
156.0
 11
27.62921142578125
 21
-39.95941925048828
 31
156.0
 12
27.57482147216797
 22
-39.907779693603516
 32
156.0
 13
27.57482147216797
 23
-39.907779693603516
 33
156.0
  0
3DFACE
  8
0
 10
28.05389404296875
 20
-40.63054656982422
 30
156.0
 11
27.91225814819336
 21
-40.37929153442383
 31
156.0
 12
27.69109535217285
 22
-40.04623031616211
 32
156.0
 13
27.69109535217285
 23
-40.04623031616211
 33
156.0
  0
3DFACE
  8
0
 10
28.53127098083496
 20
-41.88335418701172
 30
156.0
 11
28.383190155029297
 21
-41.295738220214844
 31
156.0
 12
28.18292999267578
 22
-40.913551330566406
 32
156.0
 13
28.18292999267578
 23
-40.913551330566406
 33
156.0
  0
3DFACE
  8
0
 10
28.18292999267578
 20
-40.913551330566406
 30
156.0
 11
28.05389404296875
 21
-40.63054656982422
 31
156.0
 12
27.69109535217285
 22
-40.04623031616211
 32
156.0
 13
27.69109535217285
 23
-40.04623031616211
 33
156.0
  0
3DFACE
  8
0
 10
27.69109535217285
 20
-40.04623031616211
 30
156.0
 11
27.57482147216797
 21
-39.907779693603516
 31
156.0
 12
27.032018661499023
 22
-39.26374435424805
 32
156.0
 13
27.032018661499023
 23
-39.26374435424805
 33
156.0
  0
3DFACE
  8
0
 10
27.032018661499023
 20
-39.26374435424805
 30
156.0
 11
26.056581497192383
 21
-38.66598129272461
 31
156.0
 12
25.28263282775879
 22
-38.40073013305664
 32
156.0
 13
25.28263282775879
 23
-38.40073013305664
 33
156.0
  0
3DFACE
  8
0
 10
25.28263282775879
 20
-38.40073013305664
 30
156.0
 11
24.2949161529541
 21
-38.54378128051758
 31
156.0
 12
23.341135025024414
 22
-39.33662033081055
 32
156.0
 13
23.341135025024414
 23
-39.33662033081055
 33
156.0
  0
3DFACE
  8
0
 10
23.341135025024414
 20
-39.33662033081055
 30
156.0
 11
23.20994758605957
 21
-41.08729553222656
 31
156.0
 12
23.502805709838867
 22
-42.20225524902344
 32
156.0
 13
23.502805709838867
 23
-42.20225524902344
 33
156.0
  0
3DFACE
  8
0
 10
23.502805709838867
 20
-42.20225524902344
 30
156.0
 11
23.618301391601562
 21
-42.64258575439453
 31
156.0
 12
23.693099975585938
 22
-42.81224822998047
 32
156.0
 13
23.693099975585938
 23
-42.81224822998047
 33
156.0
  0
3DFACE
  8
0
 10
23.693099975585938
 20
-42.81224822998047
 30
156.0
 11
23.786529541015625
 21
-43.041656494140625
 31
156.0
 12
24.292404174804688
 22
-43.789188385009766
 32
156.0
 13
24.292404174804688
 23
-43.789188385009766
 33
156.0
  0
3DFACE
  8
0
 10
24.292404174804688
 20
-43.789188385009766
 30
156.0
 11
24.308095932006836
 21
-43.81786346435547
 31
156.0
 12
24.320825576782227
 22
-43.83625793457031
 32
156.0
 13
24.320825576782227
 23
-43.83625793457031
 33
156.0
  0
3DFACE
  8
0
 10
24.320825576782227
 20
-43.83625793457031
 30
156.0
 11
24.4692325592041
 21
-43.988861083984375
 31
156.0
 12
24.829113006591797
 22
-44.34397506713867
 32
156.0
 13
24.829113006591797
 23
-44.34397506713867
 33
156.0
  0
3DFACE
  8
0
 10
25.618059158325195
 20
-44.68911361694336
 30
156.0
 11
25.734224319458008
 21
-44.742164611816406
 31
156.0
 12
25.770294189453125
 22
-44.7496223449707
 32
156.0
 13
25.770294189453125
 23
-44.7496223449707
 33
156.0
  0
3DFACE
  8
0
 10
24.320825576782227
 20
-43.83625793457031
 30
156.0
 11
24.829113006591797
 21
-44.34397506713867
 31
156.0
 12
25.618059158325195
 22
-44.68911361694336
 32
156.0
 13
25.618059158325195
 23
-44.68911361694336
 33
156.0
  0
3DFACE
  8
0
 10
23.502805709838867
 20
-42.20225524902344
 30
156.0
 11
23.693099975585938
 21
-42.81224822998047
 31
156.0
 12
24.292404174804688
 22
-43.789188385009766
 32
156.0
 13
24.292404174804688
 23
-43.789188385009766
 33
156.0
  0
3DFACE
  8
0
 10
24.292404174804688
 20
-43.789188385009766
 30
156.0
 11
24.320825576782227
 21
-43.83625793457031
 31
156.0
 12
25.618059158325195
 22
-44.68911361694336
 32
156.0
 13
25.618059158325195
 23
-44.68911361694336
 33
156.0
  0
3DFACE
  8
0
 10
25.618059158325195
 20
-44.68911361694336
 30
156.0
 11
25.770294189453125
 21
-44.7496223449707
 31
156.0
 12
25.857093811035156
 22
-44.743263244628906
 32
156.0
 13
25.857093811035156
 23
-44.743263244628906
 33
156.0
  0
3DFACE
  8
0
 10
25.857093811035156
 20
-44.743263244628906
 30
156.0
 11
26.410755157470703
 21
-44.69197082519531
 31
156.0
 12
26.566431045532227
 22
-44.65056610107422
 32
156.0
 13
26.566431045532227
 23
-44.65056610107422
 33
156.0
  0
3DFACE
  8
0
 10
26.566431045532227
 20
-44.65056610107422
 30
156.0
 11
26.9450626373291
 21
-44.542110443115234
 31
156.0
 12
27.429590225219727
 22
-44.301883697509766
 32
156.0
 13
27.429590225219727
 23
-44.301883697509766
 33
156.0
  0
3DFACE
  8
0
 10
27.429590225219727
 20
-44.301883697509766
 30
156.0
 11
27.45906639099121
 21
-44.27810287475586
 31
156.0
 12
27.858972549438477
 22
-43.9141731262207
 32
156.0
 13
27.858972549438477
 23
-43.9141731262207
 33
156.0
  0
3DFACE
  8
0
 10
28.102157592773438
 20
-43.65128707885742
 30
156.0
 11
28.24770164489746
 21
-43.501949310302734
 31
156.0
 12
28.48512077331543
 22
-42.933353424072266
 32
156.0
 13
28.48512077331543
 23
-42.933353424072266
 33
156.0
  0
3DFACE
  8
0
 10
27.429590225219727
 20
-44.301883697509766
 30
156.0
 11
27.858972549438477
 21
-43.9141731262207
 31
156.0
 12
28.102157592773438
 22
-43.65128707885742
 32
156.0
 13
28.102157592773438
 23
-43.65128707885742
 33
156.0
  0
3DFACE
  8
0
 10
25.857093811035156
 20
-44.743263244628906
 30
156.0
 11
26.566431045532227
 21
-44.65056610107422
 31
156.0
 12
27.429590225219727
 22
-44.301883697509766
 32
156.0
 13
27.429590225219727
 23
-44.301883697509766
 33
156.0
  0
3DFACE
  8
0
 10
24.292404174804688
 20
-43.789188385009766
 30
156.0
 11
25.618059158325195
 21
-44.68911361694336
 31
156.0
 12
25.857093811035156
 22
-44.743263244628906
 32
156.0
 13
25.857093811035156
 23
-44.743263244628906
 33
156.0
  0
3DFACE
  8
0
 10
23.341135025024414
 20
-39.33662033081055
 30
156.0
 11
23.502805709838867
 21
-42.20225524902344
 31
156.0
 12
24.292404174804688
 22
-43.789188385009766
 32
156.0
 13
24.292404174804688
 23
-43.789188385009766
 33
156.0
  0
3DFACE
  8
0
 10
27.032018661499023
 20
-39.26374435424805
 30
156.0
 11
25.28263282775879
 21
-38.40073013305664
 31
156.0
 12
23.341135025024414
 22
-39.33662033081055
 32
156.0
 13
23.341135025024414
 23
-39.33662033081055
 33
156.0
  0
3DFACE
  8
0
 10
28.18292999267578
 20
-40.913551330566406
 30
156.0
 11
27.69109535217285
 21
-40.04623031616211
 31
156.0
 12
27.032018661499023
 22
-39.26374435424805
 32
156.0
 13
27.032018661499023
 23
-39.26374435424805
 33
156.0
  0
3DFACE
  8
0
 10
28.567106246948242
 20
-42.145450592041016
 30
156.0
 11
28.53127098083496
 21
-41.88335418701172
 31
156.0
 12
28.18292999267578
 22
-40.913551330566406
 32
156.0
 13
28.18292999267578
 23
-40.913551330566406
 33
156.0
  0
3DFACE
  8
0
 10
28.48512077331543
 20
-42.933353424072266
 30
156.0
 11
28.502368927001953
 21
-42.87236022949219
 31
156.0
 12
28.567106246948242
 22
-42.145450592041016
 32
156.0
 13
28.567106246948242
 23
-42.145450592041016
 33
156.0
  0
3DFACE
  8
0
 10
27.429590225219727
 20
-44.301883697509766
 30
156.0
 11
28.102157592773438
 21
-43.65128707885742
 31
156.0
 12
28.48512077331543
 22
-42.933353424072266
 32
156.0
 13
28.48512077331543
 23
-42.933353424072266
 33
156.0
  0
3DFACE
  8
0
 10
24.292404174804688
 20
-43.789188385009766
 30
156.0
 11
25.857093811035156
 21
-44.743263244628906
 31
156.0
 12
27.429590225219727
 22
-44.301883697509766
 32
156.0
 13
27.429590225219727
 23
-44.301883697509766
 33
156.0
  0
3DFACE
  8
0
 10
27.032018661499023
 20
-39.26374435424805
 30
156.0
 11
23.341135025024414
 21
-39.33662033081055
 31
156.0
 12
24.292404174804688
 22
-43.789188385009766
 32
156.0
 13
24.292404174804688
 23
-43.789188385009766
 33
156.0
  0
3DFACE
  8
0
 10
28.567106246948242
 20
-42.145450592041016
 30
156.0
 11
28.18292999267578
 21
-40.913551330566406
 31
156.0
 12
27.032018661499023
 22
-39.26374435424805
 32
156.0
 13
27.032018661499023
 23
-39.26374435424805
 33
156.0
  0
3DFACE
  8
0
 10
27.429590225219727
 20
-44.301883697509766
 30
156.0
 11
28.48512077331543
 21
-42.933353424072266
 31
156.0
 12
28.567106246948242
 22
-42.145450592041016
 32
156.0
 13
28.567106246948242
 23
-42.145450592041016
 33
156.0
  0
3DFACE
  8
0
 10
27.032018661499023
 20
-39.26374435424805
 30
156.0
 11
24.292404174804688
 21
-43.789188385009766
 31
156.0
 12
27.429590225219727
 22
-44.301883697509766
 32
156.0
 13
27.429590225219727
 23
-44.301883697509766
 33
156.0
  0
3DFACE
  8
0
 10
27.429590225219727
 20
-44.301883697509766
 30
156.0
 11
28.567106246948242
 21
-42.145450592041016
 31
156.0
 12
27.032018661499023
 22
-39.26374435424805
 32
156.0
 13
27.032018661499023
 23
-39.26374435424805
 33
156.0
  0
3DFACE
  8
0
 10
62.78437805175781
 20
-4.482604503631592
 30
156.0
 11
62.07768249511719
 21
-4.319570064544678
 31
156.0
 12
62.03068923950195
 22
-4.310416221618652
 32
156.0
 13
62.03068923950195
 23
-4.310416221618652
 33
156.0
  0
3DFACE
  8
0
 10
62.03068923950195
 20
-4.310416221618652
 30
156.0
 11
61.9156608581543
 21
-4.292035102844238
 31
156.0
 12
61.289085388183594
 22
-4.260108947753906
 32
156.0
 13
61.289085388183594
 23
-4.260108947753906
 33
156.0
  0
3DFACE
  8
0
 10
60.91392517089844
 20
-4.302145481109619
 30
156.0
 11
60.4555778503418
 21
-4.327700138092041
 31
156.0
 12
59.939598083496094
 22
-4.438297748565674
 32
156.0
 13
59.939598083496094
 23
-4.438297748565674
 33
156.0
  0
3DFACE
  8
0
 10
62.03068923950195
 20
-4.310416221618652
 30
156.0
 11
61.289085388183594
 21
-4.260108947753906
 31
156.0
 12
60.91392517089844
 22
-4.302145481109619
 32
156.0
 13
60.91392517089844
 23
-4.302145481109619
 33
156.0
  0
3DFACE
  8
0
 10
62.86627197265625
 20
-4.517176151275635
 30
156.0
 11
62.78437805175781
 21
-4.482604503631592
 31
156.0
 12
62.03068923950195
 22
-4.310416221618652
 32
156.0
 13
62.03068923950195
 23
-4.310416221618652
 33
156.0
  0
3DFACE
  8
0
 10
63.654869079589844
 20
-4.7944254875183105
 30
156.0
 11
63.43208312988281
 21
-4.699085235595703
 31
156.0
 12
62.86627197265625
 22
-4.517176151275635
 32
156.0
 13
62.86627197265625
 23
-4.517176151275635
 33
156.0
  0
3DFACE
  8
0
 10
64.30034637451172
 20
-5.103544235229492
 30
156.0
 11
64.03215789794922
 21
-4.963881969451904
 31
156.0
 12
63.654869079589844
 22
-4.7944254875183105
 32
156.0
 13
63.654869079589844
 23
-4.7944254875183105
 33
156.0
  0
3DFACE
  8
0
 10
65.9121322631836
 20
-6.151576042175293
 30
156.0
 11
65.48381042480469
 21
-5.81992244720459
 31
156.0
 12
64.30034637451172
 22
-5.103544235229492
 32
156.0
 13
64.30034637451172
 23
-5.103544235229492
 33
156.0
  0
3DFACE
  8
0
 10
66.42326354980469
 20
-6.619725704193115
 30
156.0
 11
66.02067565917969
 21
-6.239218711853027
 31
156.0
 12
65.9121322631836
 22
-6.151576042175293
 32
156.0
 13
65.9121322631836
 23
-6.151576042175293
 33
156.0
  0
3DFACE
  8
0
 10
67.22549438476562
 20
-7.728918552398682
 30
156.0
 11
67.02345275878906
 21
-7.367212772369385
 31
156.0
 12
66.6365737915039
 22
-6.894960880279541
 32
156.0
 13
66.6365737915039
 23
-6.894960880279541
 33
156.0
  0
3DFACE
  8
0
 10
66.6365737915039
 20
-6.894960880279541
 30
156.0
 11
66.42326354980469
 21
-6.619725704193115
 31
156.0
 12
65.9121322631836
 22
-6.151576042175293
 32
156.0
 13
65.9121322631836
 23
-6.151576042175293
 33
156.0
  0
3DFACE
  8
0
 10
65.9121322631836
 20
-6.151576042175293
 30
156.0
 11
64.30034637451172
 21
-5.103544235229492
 31
156.0
 12
63.654869079589844
 22
-4.7944254875183105
 32
156.0
 13
63.654869079589844
 23
-4.7944254875183105
 33
156.0
  0
3DFACE
  8
0
 10
63.654869079589844
 20
-4.7944254875183105
 30
156.0
 11
62.86627197265625
 21
-4.517176151275635
 31
156.0
 12
62.03068923950195
 22
-4.310416221618652
 32
156.0
 13
62.03068923950195
 23
-4.310416221618652
 33
156.0
  0
3DFACE
  8
0
 10
62.03068923950195
 20
-4.310416221618652
 30
156.0
 11
60.91392517089844
 21
-4.302145481109619
 31
156.0
 12
59.939598083496094
 22
-4.438297748565674
 32
156.0
 13
59.939598083496094
 23
-4.438297748565674
 33
156.0
  0
3DFACE
  8
0
 10
59.939598083496094
 20
-4.438297748565674
 30
156.0
 11
59.71187973022461
 21
-4.4666547775268555
 31
156.0
 12
59.56809997558594
 22
-4.497746467590332
 32
156.0
 13
59.56809997558594
 23
-4.497746467590332
 33
156.0
  0
3DFACE
  8
0
 10
59.56809997558594
 20
-4.497746467590332
 30
156.0
 11
58.92484664916992
 21
-4.689021587371826
 31
156.0
 12
58.38276672363281
 22
-4.881200313568115
 32
156.0
 13
58.38276672363281
 23
-4.881200313568115
 33
156.0
  0
3DFACE
  8
0
 10
58.38276672363281
 20
-4.881200313568115
 30
156.0
 11
58.281593322753906
 21
-4.9217047691345215
 31
156.0
 12
58.215599060058594
 22
-4.954505920410156
 32
156.0
 13
58.215599060058594
 23
-4.954505920410156
 33
156.0
  0
3DFACE
  8
0
 10
58.215599060058594
 20
-4.954505920410156
 30
156.0
 11
57.64987564086914
 21
-5.19792366027832
 31
156.0
 12
56.92518615722656
 22
-5.638583660125732
 32
156.0
 13
56.92518615722656
 23
-5.638583660125732
 33
156.0
  0
3DFACE
  8
0
 10
56.92518615722656
 20
-5.638583660125732
 30
156.0
 11
56.679588317871094
 21
-5.81992244720459
 31
156.0
 12
56.49656677246094
 22
-5.986145973205566
 32
156.0
 13
56.49656677246094
 23
-5.986145973205566
 33
156.0
  0
3DFACE
  8
0
 10
56.087093353271484
 20
-6.446857452392578
 30
156.0
 11
55.9859619140625
 21
-6.542899131774902
 31
156.0
 12
55.948822021484375
 22
-6.587869167327881
 32
156.0
 13
55.948822021484375
 23
-6.587869167327881
 33
156.0
  0
3DFACE
  8
0
 10
56.92518615722656
 20
-5.638583660125732
 30
156.0
 11
56.49656677246094
 21
-5.986145973205566
 31
156.0
 12
56.087093353271484
 22
-6.446857452392578
 32
156.0
 13
56.087093353271484
 23
-6.446857452392578
 33
156.0
  0
3DFACE
  8
0
 10
58.38276672363281
 20
-4.881200313568115
 30
156.0
 11
58.215599060058594
 21
-4.954505920410156
 31
156.0
 12
56.92518615722656
 22
-5.638583660125732
 32
156.0
 13
56.92518615722656
 23
-5.638583660125732
 33
156.0
  0
3DFACE
  8
0
 10
59.939598083496094
 20
-4.438297748565674
 30
156.0
 11
59.56809997558594
 21
-4.497746467590332
 31
156.0
 12
58.38276672363281
 22
-4.881200313568115
 32
156.0
 13
58.38276672363281
 23
-4.881200313568115
 33
156.0
  0
3DFACE
  8
0
 10
63.654869079589844
 20
-4.7944254875183105
 30
156.0
 11
62.03068923950195
 21
-4.310416221618652
 31
156.0
 12
59.939598083496094
 22
-4.438297748565674
 32
156.0
 13
59.939598083496094
 23
-4.438297748565674
 33
156.0
  0
3DFACE
  8
0
 10
66.6365737915039
 20
-6.894960880279541
 30
156.0
 11
65.9121322631836
 21
-6.151576042175293
 31
156.0
 12
63.654869079589844
 22
-4.7944254875183105
 32
156.0
 13
63.654869079589844
 23
-4.7944254875183105
 33
156.0
  0
3DFACE
  8
0
 10
67.42938995361328
 20
-8.127547264099121
 30
156.0
 11
67.22549438476562
 21
-7.728918552398682
 31
156.0
 12
66.6365737915039
 22
-6.894960880279541
 32
156.0
 13
66.6365737915039
 23
-6.894960880279541
 33
156.0
  0
3DFACE
  8
0
 10
67.64752197265625
 20
-8.896754264831543
 30
156.0
 11
67.4731216430664
 21
-8.254264831542969
 31
156.0
 12
67.42938995361328
 22
-8.127547264099121
 32
156.0
 13
67.42938995361328
 23
-8.127547264099121
 33
156.0
  0
3DFACE
  8
0
 10
67.78076171875
 20
-9.775727272033691
 30
156.0
 11
67.78299713134766
 21
-9.66596508026123
 31
156.0
 12
67.64752197265625
 22
-8.896754264831543
 32
156.0
 13
67.64752197265625
 23
-8.896754264831543
 33
156.0
  0
3DFACE
  8
0
 10
67.65872955322266
 20
-11.204380989074707
 30
156.0
 11
67.78136444091797
 21
-10.435172080993652
 31
156.0
 12
67.78076171875
 22
-9.775727272033691
 32
156.0
 13
67.78076171875
 23
-9.775727272033691
 33
156.0
  0
3DFACE
  8
0
 10
67.46497344970703
 20
-11.973589897155762
 30
156.0
 11
67.55501556396484
 21
-11.637807846069336
 31
156.0
 12
67.65872955322266
 22
-11.204380989074707
 32
156.0
 13
67.65872955322266
 23
-11.204380989074707
 33
156.0
  0
3DFACE
  8
0
 10
67.1673583984375
 20
-12.785734176635742
 30
156.0
 11
67.29279327392578
 21
-12.461772918701172
 31
156.0
 12
67.46497344970703
 22
-11.973589897155762
 32
156.0
 13
67.46497344970703
 23
-11.973589897155762
 33
156.0
  0
3DFACE
  8
0
 10
66.81333923339844
 20
-13.512005805969238
 30
156.0
 11
66.81597900390625
 21
-13.50684642791748
 31
156.0
 12
67.1673583984375
 22
-12.785734176635742
 32
156.0
 13
67.1673583984375
 23
-12.785734176635742
 33
156.0
  0
3DFACE
  8
0
 10
66.14939880371094
 20
-14.431453704833984
 30
156.0
 11
66.28868103027344
 21
-14.281216621398926
 31
156.0
 12
66.40484619140625
 22
-14.093855857849121
 32
156.0
 13
66.40484619140625
 23
-14.093855857849121
 33
156.0
  0
3DFACE
  8
0
 10
66.40484619140625
 20
-14.093855857849121
 30
156.0
 11
66.81333923339844
 21
-13.512005805969238
 31
156.0
 12
67.1673583984375
 22
-12.785734176635742
 32
156.0
 13
67.1673583984375
 23
-12.785734176635742
 33
156.0
  0
3DFACE
  8
0
 10
67.1673583984375
 20
-12.785734176635742
 30
156.0
 11
67.46497344970703
 21
-11.973589897155762
 31
156.0
 12
67.65872955322266
 22
-11.204380989074707
 32
156.0
 13
67.65872955322266
 23
-11.204380989074707
 33
156.0
  0
3DFACE
  8
0
 10
67.65872955322266
 20
-11.204380989074707
 30
156.0
 11
67.78076171875
 21
-9.775727272033691
 31
156.0
 12
67.64752197265625
 22
-8.896754264831543
 32
156.0
 13
67.64752197265625
 23
-8.896754264831543
 33
156.0
  0
3DFACE
  8
0
 10
67.64752197265625
 20
-8.896754264831543
 30
156.0
 11
67.42938995361328
 21
-8.127547264099121
 31
156.0
 12
66.6365737915039
 22
-6.894960880279541
 32
156.0
 13
66.6365737915039
 23
-6.894960880279541
 33
156.0
  0
3DFACE
  8
0
 10
66.6365737915039
 20
-6.894960880279541
 30
156.0
 11
63.654869079589844
 21
-4.7944254875183105
 31
156.0
 12
59.939598083496094
 22
-4.438297748565674
 32
156.0
 13
59.939598083496094
 23
-4.438297748565674
 33
156.0
  0
3DFACE
  8
0
 10
59.939598083496094
 20
-4.438297748565674
 30
156.0
 11
58.38276672363281
 21
-4.881200313568115
 31
156.0
 12
56.92518615722656
 22
-5.638583660125732
 32
156.0
 13
56.92518615722656
 23
-5.638583660125732
 33
156.0
  0
3DFACE
  8
0
 10
56.92518615722656
 20
-5.638583660125732
 30
156.0
 11
56.087093353271484
 21
-6.446857452392578
 31
156.0
 12
55.948822021484375
 22
-6.587869167327881
 32
156.0
 13
55.948822021484375
 23
-6.587869167327881
 33
156.0
  0
3DFACE
  8
0
 10
55.948822021484375
 20
-6.587869167327881
 30
156.0
 11
55.889278411865234
 21
-6.68604850769043
 31
156.0
 12
55.50375747680664
 22
-7.353618621826172
 32
156.0
 13
55.50375747680664
 23
-7.353618621826172
 33
156.0
  0
3DFACE
  8
0
 10
55.50375747680664
 20
-7.353618621826172
 30
156.0
 11
55.43531799316406
 21
-7.547192573547363
 31
156.0
 12
55.24225997924805
 22
-8.15368366241455
 32
156.0
 13
55.24225997924805
 23
-8.15368366241455
 33
156.0
  0
3DFACE
  8
0
 10
55.24225997924805
 20
-8.15368366241455
 30
156.0
 11
55.10784149169922
 21
-8.896754264831543
 31
156.0
 12
55.12166213989258
 22
-9.169384956359863
 32
156.0
 13
55.12166213989258
 23
-9.169384956359863
 33
156.0
  0
3DFACE
  8
0
 10
55.12166213989258
 20
-9.169384956359863
 30
156.0
 11
55.1139030456543
 21
-9.60141658782959
 31
156.0
 12
55.11515808105469
 22
-9.66596508026123
 32
156.0
 13
55.11515808105469
 23
-9.66596508026123
 33
156.0
  0
3DFACE
  8
0
 10
55.263893127441406
 20
-10.399866104125977
 30
156.0
 11
55.26865005493164
 21
-10.435233116149902
 31
156.0
 12
55.461246490478516
 22
-11.204380989074707
 32
156.0
 13
55.461246490478516
 23
-11.204380989074707
 33
156.0
  0
3DFACE
  8
0
 10
55.12166213989258
 20
-9.169384956359863
 30
156.0
 11
55.11515808105469
 21
-9.66596508026123
 31
156.0
 12
55.263893127441406
 22
-10.399866104125977
 32
156.0
 13
55.263893127441406
 23
-10.399866104125977
 33
156.0
  0
3DFACE
  8
0
 10
55.50375747680664
 20
-7.353618621826172
 30
156.0
 11
55.24225997924805
 21
-8.15368366241455
 31
156.0
 12
55.12166213989258
 22
-9.169384956359863
 32
156.0
 13
55.12166213989258
 23
-9.169384956359863
 33
156.0
  0
3DFACE
  8
0
 10
56.92518615722656
 20
-5.638583660125732
 30
156.0
 11
55.948822021484375
 21
-6.587869167327881
 31
156.0
 12
55.50375747680664
 22
-7.353618621826172
 32
156.0
 13
55.50375747680664
 23
-7.353618621826172
 33
156.0
  0
3DFACE
  8
0
 10
66.6365737915039
 20
-6.894960880279541
 30
156.0
 11
59.939598083496094
 21
-4.438297748565674
 31
156.0
 12
56.92518615722656
 22
-5.638583660125732
 32
156.0
 13
56.92518615722656
 23
-5.638583660125732
 33
156.0
  0
3DFACE
  8
0
 10
67.65872955322266
 20
-11.204380989074707
 30
156.0
 11
67.64752197265625
 21
-8.896754264831543
 31
156.0
 12
66.6365737915039
 22
-6.894960880279541
 32
156.0
 13
66.6365737915039
 23
-6.894960880279541
 33
156.0
  0
3DFACE
  8
0
 10
66.40484619140625
 20
-14.093855857849121
 30
156.0
 11
67.1673583984375
 21
-12.785734176635742
 31
156.0
 12
67.65872955322266
 22
-11.204380989074707
 32
156.0
 13
67.65872955322266
 23
-11.204380989074707
 33
156.0
  0
3DFACE
  8
0
 10
66.02067565917969
 20
-14.562350273132324
 30
156.0
 11
66.14939880371094
 21
-14.431453704833984
 31
156.0
 12
66.40484619140625
 22
-14.093855857849121
 32
156.0
 13
66.40484619140625
 23
-14.093855857849121
 33
156.0
  0
3DFACE
  8
0
 10
65.34862518310547
 20
-15.188578605651855
 30
156.0
 11
65.50567626953125
 21
-15.069184303283691
 31
156.0
 12
66.02067565917969
 22
-14.562350273132324
 32
156.0
 13
66.02067565917969
 23
-14.562350273132324
 33
156.0
  0
3DFACE
  8
0
 10
64.41077423095703
 20
-15.795894622802734
 30
156.0
 11
65.23208618164062
 21
-15.26919174194336
 31
156.0
 12
65.34862518310547
 22
-15.188578605651855
 32
156.0
 13
65.34862518310547
 23
-15.188578605651855
 33
156.0
  0
3DFACE
  8
0
 10
64.04051971435547
 20
-15.98284912109375
 30
156.0
 11
64.37239837646484
 21
-15.819632530212402
 31
156.0
 12
64.41077423095703
 22
-15.795894622802734
 32
156.0
 13
64.41077423095703
 23
-15.795894622802734
 33
156.0
  0
3DFACE
  8
0
 10
62.78437805175781
 20
-16.328914642333984
 30
156.0
 11
63.42762756347656
 21
-16.166919708251953
 31
156.0
 12
63.654869079589844
 22
-16.092002868652344
 32
156.0
 13
63.654869079589844
 23
-16.092002868652344
 33
156.0
  0
3DFACE
  8
0
 10
63.654869079589844
 20
-16.092002868652344
 30
156.0
 11
64.04051971435547
 21
-15.98284912109375
 31
156.0
 12
64.41077423095703
 22
-15.795894622802734
 32
156.0
 13
64.41077423095703
 23
-15.795894622802734
 33
156.0
  0
3DFACE
  8
0
 10
64.41077423095703
 20
-15.795894622802734
 30
156.0
 11
65.34862518310547
 21
-15.188578605651855
 31
156.0
 12
66.02067565917969
 22
-14.562350273132324
 32
156.0
 13
66.02067565917969
 23
-14.562350273132324
 33
156.0
  0
3DFACE
  8
0
 10
66.02067565917969
 20
-14.562350273132324
 30
156.0
 11
66.40484619140625
 21
-14.093855857849121
 31
156.0
 12
67.65872955322266
 22
-11.204380989074707
 32
156.0
 13
67.65872955322266
 23
-11.204380989074707
 33
156.0
  0
3DFACE
  8
0
 10
67.65872955322266
 20
-11.204380989074707
 30
156.0
 11
66.6365737915039
 21
-6.894960880279541
 31
156.0
 12
56.92518615722656
 22
-5.638583660125732
 32
156.0
 13
56.92518615722656
 23
-5.638583660125732
 33
156.0
  0
3DFACE
  8
0
 10
56.92518615722656
 20
-5.638583660125732
 30
156.0
 11
55.50375747680664
 21
-7.353618621826172
 31
156.0
 12
55.12166213989258
 22
-9.169384956359863
 32
156.0
 13
55.12166213989258
 23
-9.169384956359863
 33
156.0
  0
3DFACE
  8
0
 10
55.12166213989258
 20
-9.169384956359863
 30
156.0
 11
55.263893127441406
 21
-10.399866104125977
 31
156.0
 12
55.461246490478516
 22
-11.204380989074707
 32
156.0
 13
55.461246490478516
 23
-11.204380989074707
 33
156.0
  0
3DFACE
  8
0
 10
55.461246490478516
 20
-11.204380989074707
 30
156.0
 11
55.729610443115234
 21
-11.971236228942871
 31
156.0
 12
56.08955001831055
 22
-12.742796897888184
 32
156.0
 13
56.08955001831055
 23
-12.742796897888184
 33
156.0
  0
3DFACE
  8
0
 10
56.08955001831055
 20
-12.742796897888184
 30
156.0
 11
56.41608428955078
 21
-13.27652645111084
 31
156.0
 12
56.56760787963867
 22
-13.512005805969238
 32
156.0
 13
56.56760787963867
 23
-13.512005805969238
 33
156.0
  0
3DFACE
  8
0
 10
56.56760787963867
 20
-13.512005805969238
 30
156.0
 11
57.02779769897461
 21
-14.082867622375488
 31
156.0
 12
57.20597839355469
 22
-14.26416301727295
 32
156.0
 13
57.20597839355469
 23
-14.26416301727295
 33
156.0
  0
3DFACE
  8
0
 10
57.20597839355469
 20
-14.26416301727295
 30
156.0
 11
57.34608459472656
 21
-14.392464637756348
 31
156.0
 12
57.89817810058594
 22
-14.83665943145752
 32
156.0
 13
57.89817810058594
 23
-14.83665943145752
 33
156.0
  0
3DFACE
  8
0
 10
57.89817810058594
 20
-14.83665943145752
 30
156.0
 11
58.12255859375
 21
-15.029789924621582
 31
156.0
 12
58.17242431640625
 22
-15.0702486038208
 32
156.0
 13
58.17242431640625
 23
-15.0702486038208
 33
156.0
  0
3DFACE
  8
0
 10
58.17242431640625
 20
-15.0702486038208
 30
156.0
 11
58.24518966674805
 21
-15.124789237976074
 31
156.0
 12
58.92470169067383
 22
-15.562871932983398
 32
156.0
 13
58.92470169067383
 23
-15.562871932983398
 33
156.0
  0
3DFACE
  8
0
 10
58.92470169067383
 20
-15.562871932983398
 30
156.0
 11
59.56809997558594
 21
-15.877617835998535
 31
156.0
 12
60.21135330200195
 22
-16.127782821655273
 32
156.0
 13
60.21135330200195
 23
-16.127782821655273
 33
156.0
  0
3DFACE
  8
0
 10
60.21135330200195
 20
-16.127782821655273
 30
156.0
 11
60.50047302246094
 21
-16.206113815307617
 31
156.0
 12
60.854610443115234
 22
-16.284812927246094
 32
156.0
 13
60.854610443115234
 23
-16.284812927246094
 33
156.0
  0
3DFACE
  8
0
 10
60.854610443115234
 20
-16.284812927246094
 30
156.0
 11
61.289085388183594
 21
-16.335416793823242
 31
156.0
 12
61.97719192504883
 22
-16.37355613708496
 32
156.0
 13
61.97719192504883
 23
-16.37355613708496
 33
156.0
  0
3DFACE
  8
0
 10
61.97719192504883
 20
-16.37355613708496
 30
156.0
 11
62.07767868041992
 21
-16.388948440551758
 31
156.0
 12
62.421932220458984
 22
-16.36492919921875
 32
156.0
 13
62.421932220458984
 23
-16.36492919921875
 33
156.0
  0
3DFACE
  8
0
 10
62.421932220458984
 20
-16.36492919921875
 30
156.0
 11
62.78437805175781
 21
-16.328914642333984
 31
156.0
 12
63.654869079589844
 22
-16.092002868652344
 32
156.0
 13
63.654869079589844
 23
-16.092002868652344
 33
156.0
  0
3DFACE
  8
0
 10
63.654869079589844
 20
-16.092002868652344
 30
156.0
 11
64.41077423095703
 21
-15.795894622802734
 31
156.0
 12
66.02067565917969
 22
-14.562350273132324
 32
156.0
 13
66.02067565917969
 23
-14.562350273132324
 33
156.0
  0
3DFACE
  8
0
 10
66.02067565917969
 20
-14.562350273132324
 30
156.0
 11
67.65872955322266
 21
-11.204380989074707
 31
156.0
 12
56.92518615722656
 22
-5.638583660125732
 32
156.0
 13
56.92518615722656
 23
-5.638583660125732
 33
156.0
  0
3DFACE
  8
0
 10
56.92518615722656
 20
-5.638583660125732
 30
156.0
 11
55.12166213989258
 21
-9.169384956359863
 31
156.0
 12
55.461246490478516
 22
-11.204380989074707
 32
156.0
 13
55.461246490478516
 23
-11.204380989074707
 33
156.0
  0
3DFACE
  8
0
 10
55.461246490478516
 20
-11.204380989074707
 30
156.0
 11
56.08955001831055
 21
-12.742796897888184
 31
156.0
 12
56.56760787963867
 22
-13.512005805969238
 32
156.0
 13
56.56760787963867
 23
-13.512005805969238
 33
156.0
  0
3DFACE
  8
0
 10
56.56760787963867
 20
-13.512005805969238
 30
156.0
 11
57.20597839355469
 21
-14.26416301727295
 31
156.0
 12
57.89817810058594
 22
-14.83665943145752
 32
156.0
 13
57.89817810058594
 23
-14.83665943145752
 33
156.0
  0
3DFACE
  8
0
 10
57.89817810058594
 20
-14.83665943145752
 30
156.0
 11
58.17242431640625
 21
-15.0702486038208
 31
156.0
 12
58.92470169067383
 22
-15.562871932983398
 32
156.0
 13
58.92470169067383
 23
-15.562871932983398
 33
156.0
  0
3DFACE
  8
0
 10
58.92470169067383
 20
-15.562871932983398
 30
156.0
 11
60.21135330200195
 21
-16.127782821655273
 31
156.0
 12
60.854610443115234
 22
-16.284812927246094
 32
156.0
 13
60.854610443115234
 23
-16.284812927246094
 33
156.0
  0
3DFACE
  8
0
 10
60.854610443115234
 20
-16.284812927246094
 30
156.0
 11
61.97719192504883
 21
-16.37355613708496
 31
156.0
 12
62.421932220458984
 22
-16.36492919921875
 32
156.0
 13
62.421932220458984
 23
-16.36492919921875
 33
156.0
  0
3DFACE
  8
0
 10
62.421932220458984
 20
-16.36492919921875
 30
156.0
 11
63.654869079589844
 21
-16.092002868652344
 31
156.0
 12
66.02067565917969
 22
-14.562350273132324
 32
156.0
 13
66.02067565917969
 23
-14.562350273132324
 33
156.0
  0
3DFACE
  8
0
 10
66.02067565917969
 20
-14.562350273132324
 30
156.0
 11
56.92518615722656
 21
-5.638583660125732
 31
156.0
 12
55.461246490478516
 22
-11.204380989074707
 32
156.0
 13
55.461246490478516
 23
-11.204380989074707
 33
156.0
  0
3DFACE
  8
0
 10
55.461246490478516
 20
-11.204380989074707
 30
156.0
 11
56.56760787963867
 21
-13.512005805969238
 31
156.0
 12
57.89817810058594
 22
-14.83665943145752
 32
156.0
 13
57.89817810058594
 23
-14.83665943145752
 33
156.0
  0
3DFACE
  8
0
 10
57.89817810058594
 20
-14.83665943145752
 30
156.0
 11
58.92470169067383
 21
-15.562871932983398
 31
156.0
 12
60.854610443115234
 22
-16.284812927246094
 32
156.0
 13
60.854610443115234
 23
-16.284812927246094
 33
156.0
  0
3DFACE
  8
0
 10
60.854610443115234
 20
-16.284812927246094
 30
156.0
 11
62.421932220458984
 21
-16.36492919921875
 31
156.0
 12
66.02067565917969
 22
-14.562350273132324
 32
156.0
 13
66.02067565917969
 23
-14.562350273132324
 33
156.0
  0
3DFACE
  8
0
 10
66.02067565917969
 20
-14.562350273132324
 30
156.0
 11
55.461246490478516
 21
-11.204380989074707
 31
156.0
 12
57.89817810058594
 22
-14.83665943145752
 32
156.0
 13
57.89817810058594
 23
-14.83665943145752
 33
156.0
  0
3DFACE
  8
0
 10
57.89817810058594
 20
-14.83665943145752
 30
156.0
 11
60.854610443115234
 21
-16.284812927246094
 31
156.0
 12
66.02067565917969
 22
-14.562350273132324
 32
156.0
 13
66.02067565917969
 23
-14.562350273132324
 33
156.0
  0
3DFACE
  8
0
 10
-44.548683166503906
 20
0.5005766153335571
 30
156.0
 11
-45.18498992919922
 21
0.4012029767036438
 31
156.0
 12
-45.2536735534668
 22
0.3870755434036255
 32
156.0
 13
-45.2536735534668
 23
0.3870755434036255
 33
156.0
  0
3DFACE
  8
0
 10
-45.2536735534668
 20
0.3870755434036255
 30
156.0
 11
-45.94251251220703
 21
0.18589365482330322
 31
156.0
 12
-46.179691314697266
 22
0.05235469713807106
 32
156.0
 13
-46.179691314697266
 23
0.05235469713807106
 33
156.0
  0
3DFACE
  8
0
 10
-46.179691314697266
 20
0.05235469713807106
 30
156.0
 11
-46.57393264770508
 21
-0.12443842738866806
 31
156.0
 12
-46.733123779296875
 22
-0.20990031957626343
 32
156.0
 13
-46.733123779296875
 23
-0.20990031957626343
 33
156.0
  0
3DFACE
  8
0
 10
-46.733123779296875
 20
-0.20990031957626343
 30
156.0
 11
-47.0597038269043
 21
-0.39340299367904663
 31
156.0
 12
-47.443817138671875
 22
-0.7880253195762634
 32
156.0
 13
-47.443817138671875
 23
-0.7880253195762634
 33
156.0
  0
3DFACE
  8
0
 10
-47.604408264160156
 20
-0.983710527420044
 30
156.0
 11
-47.80217361450195
 21
-1.1738810539245605
 31
156.0
 12
-48.12438201904297
 22
-1.8157497644424438
 32
156.0
 13
-48.12438201904297
 23
-1.8157497644424438
 33
156.0
  0
3DFACE
  8
0
 10
-46.733123779296875
 20
-0.20990031957626343
 30
156.0
 11
-47.443817138671875
 21
-0.7880253195762634
 31
156.0
 12
-47.604408264160156
 22
-0.983710527420044
 32
156.0
 13
-47.604408264160156
 23
-0.983710527420044
 33
156.0
  0
3DFACE
  8
0
 10
-45.2536735534668
 20
0.3870755434036255
 30
156.0
 11
-46.179691314697266
 21
0.05235469713807106
 31
156.0
 12
-46.733123779296875
 22
-0.20990031957626343
 32
156.0
 13
-46.733123779296875
 23
-0.20990031957626343
 33
156.0
  0
3DFACE
  8
0
 10
-44.381553649902344
 20
0.5061972141265869
 30
156.0
 11
-44.548683166503906
 21
0.5005766153335571
 31
156.0
 12
-45.2536735534668
 22
0.3870755434036255
 32
156.0
 13
-45.2536735534668
 23
0.3870755434036255
 33
156.0
  0
3DFACE
  8
0
 10
-43.60107421875
 20
0.5450983643531799
 30
156.0
 11
-43.795196533203125
 21
0.5540911555290222
 31
156.0
 12
-44.381553649902344
 22
0.5061972141265869
 32
156.0
 13
-44.381553649902344
 23
0.5061972141265869
 33
156.0
  0
3DFACE
  8
0
 10
-42.63897705078125
 20
0.5074307918548584
 30
156.0
 11
-42.82060241699219
 21
0.5408982634544373
 31
156.0
 12
-43.406951904296875
 22
0.5236943960189819
 32
156.0
 13
-43.406951904296875
 23
0.5236943960189819
 33
156.0
  0
3DFACE
  8
0
 10
-43.406951904296875
 20
0.5236943960189819
 30
156.0
 11
-43.60107421875
 21
0.5450983643531799
 31
156.0
 12
-44.381553649902344
 22
0.5061972141265869
 32
156.0
 13
-44.381553649902344
 23
0.5061972141265869
 33
156.0
  0
3DFACE
  8
0
 10
-44.381553649902344
 20
0.5061972141265869
 30
156.0
 11
-45.2536735534668
 21
0.3870755434036255
 31
156.0
 12
-46.733123779296875
 22
-0.20990031957626343
 32
156.0
 13
-46.733123779296875
 23
-0.20990031957626343
 33
156.0
  0
3DFACE
  8
0
 10
-46.733123779296875
 20
-0.20990031957626343
 30
156.0
 11
-47.604408264160156
 21
-0.983710527420044
 31
156.0
 12
-48.12438201904297
 22
-1.8157497644424438
 32
156.0
 13
-48.12438201904297
 23
-1.8157497644424438
 33
156.0
  0
3DFACE
  8
0
 10
-48.12438201904297
 20
-1.8157497644424438
 30
156.0
 11
-48.19893264770508
 21
-1.954359769821167
 31
156.0
 12
-48.210506439208984
 22
-2.16072678565979
 32
156.0
 13
-48.210506439208984
 23
-2.16072678565979
 33
156.0
  0
3DFACE
  8
0
 10
-48.21103286743164
 20
-2.583768844604492
 30
156.0
 11
-48.24361801147461
 21
-2.7348380088806152
 31
156.0
 12
-48.213165283203125
 22
-2.887481212615967
 32
156.0
 13
-48.213165283203125
 23
-2.887481212615967
 33
156.0
  0
3DFACE
  8
0
 10
-48.12438201904297
 20
-1.8157497644424438
 30
156.0
 11
-48.210506439208984
 21
-2.16072678565979
 31
156.0
 12
-48.21103286743164
 22
-2.583768844604492
 32
156.0
 13
-48.21103286743164
 23
-2.583768844604492
 33
156.0
  0
3DFACE
  8
0
 10
-44.381553649902344
 20
0.5061972141265869
 30
156.0
 11
-46.733123779296875
 21
-0.20990031957626343
 31
156.0
 12
-48.12438201904297
 22
-1.8157497644424438
 32
156.0
 13
-48.12438201904297
 23
-1.8157497644424438
 33
156.0
  0
3DFACE
  8
0
 10
-42.63897705078125
 20
0.5074307918548584
 30
156.0
 11
-43.406951904296875
 21
0.5236943960189819
 31
156.0
 12
-44.381553649902344
 22
0.5061972141265869
 32
156.0
 13
-44.381553649902344
 23
0.5061972141265869
 33
156.0
  0
3DFACE
  8
0
 10
-41.57670974731445
 20
0.3856380581855774
 30
156.0
 11
-42.058074951171875
 21
0.46588045358657837
 31
156.0
 12
-42.63897705078125
 22
0.5074307918548584
 32
156.0
 13
-42.63897705078125
 23
0.5074307918548584
 33
156.0
  0
3DFACE
  8
0
 10
-41.16072082519531
 20
0.28999629616737366
 30
156.0
 11
-41.2596435546875
 21
0.3376728892326355
 31
156.0
 12
-41.57670974731445
 22
0.3856380581855774
 32
156.0
 13
-41.57670974731445
 23
0.3856380581855774
 33
156.0
  0
3DFACE
  8
0
 10
-40.29753875732422
 20
-0.06512554734945297
 30
156.0
 11
-40.479164123535156
 21
0.054920654743909836
 31
156.0
 12
-41.07801818847656
 22
0.24845845997333527
 32
156.0
 13
-41.07801818847656
 23
0.24845845997333527
 33
156.0
  0
3DFACE
  8
0
 10
-41.07801818847656
 20
0.24845845997333527
 30
156.0
 11
-41.16072082519531
 21
0.28999629616737366
 31
156.0
 12
-41.57670974731445
 22
0.3856380581855774
 32
156.0
 13
-41.57670974731445
 23
0.3856380581855774
 33
156.0
  0
3DFACE
  8
0
 10
-41.57670974731445
 20
0.3856380581855774
 30
156.0
 11
-42.63897705078125
 21
0.5074307918548584
 31
156.0
 12
-44.381553649902344
 22
0.5061972141265869
 32
156.0
 13
-44.381553649902344
 23
0.5061972141265869
 33
156.0
  0
3DFACE
  8
0
 10
-44.381553649902344
 20
0.5061972141265869
 30
156.0
 11
-48.12438201904297
 21
-1.8157497644424438
 31
156.0
 12
-48.21103286743164
 22
-2.583768844604492
 32
156.0
 13
-48.21103286743164
 23
-2.583768844604492
 33
156.0
  0
3DFACE
  8
0
 10
-48.21103286743164
 20
-2.583768844604492
 30
156.0
 11
-48.213165283203125
 21
-2.887481212615967
 31
156.0
 12
-48.1370849609375
 22
-3.515316963195801
 32
156.0
 13
-48.1370849609375
 23
-3.515316963195801
 33
156.0
  0
3DFACE
  8
0
 10
-47.83435821533203
 20
-4.078811168670654
 30
156.0
 11
-47.74751281738281
 21
-4.295794486999512
 31
156.0
 12
-47.44141387939453
 22
-4.737013816833496
 32
156.0
 13
-47.44141387939453
 23
-4.737013816833496
 33
156.0
  0
3DFACE
  8
0
 10
-48.21103286743164
 20
-2.583768844604492
 30
156.0
 11
-48.1370849609375
 21
-3.515316963195801
 31
156.0
 12
-47.83435821533203
 22
-4.078811168670654
 32
156.0
 13
-47.83435821533203
 23
-4.078811168670654
 33
156.0
  0
3DFACE
  8
0
 10
-41.57670974731445
 20
0.3856380581855774
 30
156.0
 11
-44.381553649902344
 21
0.5061972141265869
 31
156.0
 12
-48.21103286743164
 22
-2.583768844604492
 32
156.0
 13
-48.21103286743164
 23
-2.583768844604492
 33
156.0
  0
3DFACE
  8
0
 10
-40.29753875732422
 20
-0.06512554734945297
 30
156.0
 11
-41.07801818847656
 21
0.24845845997333527
 31
156.0
 12
-41.57670974731445
 22
0.3856380581855774
 32
156.0
 13
-41.57670974731445
 23
0.3856380581855774
 33
156.0
  0
3DFACE
  8
0
 10
-39.65317916870117
 20
-0.37912970781326294
 30
156.0
 11
-39.6754264831543
 21
-0.359086811542511
 31
156.0
 12
-40.29753875732422
 22
-0.06512554734945297
 32
156.0
 13
-40.29753875732422
 23
-0.06512554734945297
 33
156.0
  0
3DFACE
  8
0
 10
-38.854469299316406
 20
-1.1738810539245605
 30
156.0
 11
-38.944068908691406
 21
-1.0432662963867188
 31
156.0
 12
-39.5196647644043
 22
-0.5607565641403198
 32
156.0
 13
-39.5196647644043
 23
-0.5607565641403198
 33
156.0
  0
3DFACE
  8
0
 10
-39.5196647644043
 20
-0.5607565641403198
 30
156.0
 11
-39.65317916870117
 21
-0.37912970781326294
 31
156.0
 12
-40.29753875732422
 22
-0.06512554734945297
 32
156.0
 13
-40.29753875732422
 23
-0.06512554734945297
 33
156.0
  0
3DFACE
  8
0
 10
-40.29753875732422
 20
-0.06512554734945297
 30
156.0
 11
-41.57670974731445
 21
0.3856380581855774
 31
156.0
 12
-48.21103286743164
 22
-2.583768844604492
 32
156.0
 13
-48.21103286743164
 23
-2.583768844604492
 33
156.0
  0
3DFACE
  8
0
 10
-48.21103286743164
 20
-2.583768844604492
 30
156.0
 11
-47.83435821533203
 21
-4.078811168670654
 31
156.0
 12
-47.44141387939453
 22
-4.737013816833496
 32
156.0
 13
-47.44141387939453
 23
-4.737013816833496
 33
156.0
  0
3DFACE
  8
0
 10
-47.44141387939453
 20
-4.737013816833496
 30
156.0
 11
-47.12961196899414
 21
-5.076273441314697
 31
156.0
 12
-46.722991943359375
 22
-5.3647308349609375
 32
156.0
 13
-46.722991943359375
 23
-5.3647308349609375
 33
156.0
  0
3DFACE
  8
0
 10
-46.03795623779297
 20
-5.761307239532471
 30
156.0
 11
-45.94251251220703
 21
-5.821393966674805
 31
156.0
 12
-45.881187438964844
 22
-5.842612266540527
 32
156.0
 13
-45.881187438964844
 23
-5.842612266540527
 33
156.0
  0
3DFACE
  8
0
 10
-47.44141387939453
 20
-4.737013816833496
 30
156.0
 11
-46.722991943359375
 21
-5.3647308349609375
 31
156.0
 12
-46.03795623779297
 22
-5.761307239532471
 32
156.0
 13
-46.03795623779297
 23
-5.761307239532471
 33
156.0
  0
3DFACE
  8
0
 10
-40.29753875732422
 20
-0.06512554734945297
 30
156.0
 11
-48.21103286743164
 21
-2.583768844604492
 31
156.0
 12
-47.44141387939453
 22
-4.737013816833496
 32
156.0
 13
-47.44141387939453
 23
-4.737013816833496
 33
156.0
  0
3DFACE
  8
0
 10
-38.854469299316406
 20
-1.1738810539245605
 30
156.0
 11
-39.5196647644043
 21
-0.5607565641403198
 31
156.0
 12
-40.29753875732422
 22
-0.06512554734945297
 32
156.0
 13
-40.29753875732422
 23
-0.06512554734945297
 33
156.0
  0
3DFACE
  8
0
 10
-38.62594223022461
 20
-2.553211212158203
 30
156.0
 11
-38.58107376098633
 21
-1.954359769821167
 31
156.0
 12
-38.79395294189453
 22
-1.3555079698562622
 32
156.0
 13
-38.79395294189453
 23
-1.3555079698562622
 33
156.0
  0
3DFACE
  8
0
 10
-38.79395294189453
 20
-1.3555079698562622
 30
156.0
 11
-38.854469299316406
 21
-1.1738810539245605
 31
156.0
 12
-40.29753875732422
 22
-0.06512554734945297
 32
156.0
 13
-40.29753875732422
 23
-0.06512554734945297
 33
156.0
  0
3DFACE
  8
0
 10
-40.29753875732422
 20
-0.06512554734945297
 30
156.0
 11
-47.44141387939453
 21
-4.737013816833496
 31
156.0
 12
-46.03795623779297
 22
-5.761307239532471
 32
156.0
 13
-46.03795623779297
 23
-5.761307239532471
 33
156.0
  0
3DFACE
  8
0
 10
-46.03795623779297
 20
-5.761307239532471
 30
156.0
 11
-45.881187438964844
 21
-5.842612266540527
 31
156.0
 12
-45.16204071044922
 22
-5.9732985496521
 32
156.0
 13
-45.16204071044922
 23
-5.9732985496521
 33
156.0
  0
3DFACE
  8
0
 10
-44.91429138183594
 20
-5.981672286987305
 30
156.0
 11
-44.381553649902344
 21
-6.056962013244629
 31
156.0
 12
-44.18442916870117
 22
-6.026630878448486
 32
156.0
 13
-44.18442916870117
 23
-6.026630878448486
 33
156.0
  0
3DFACE
  8
0
 10
-46.03795623779297
 20
-5.761307239532471
 30
156.0
 11
-45.16204071044922
 21
-5.9732985496521
 31
156.0
 12
-44.91429138183594
 22
-5.981672286987305
 32
156.0
 13
-44.91429138183594
 23
-5.981672286987305
 33
156.0
  0
3DFACE
  8
0
 10
-38.79395294189453
 20
-1.3555079698562622
 30
156.0
 11
-40.29753875732422
 21
-0.06512554734945297
 31
156.0
 12
-46.03795623779297
 22
-5.761307239532471
 32
156.0
 13
-46.03795623779297
 23
-5.761307239532471
 33
156.0
  0
3DFACE
  8
0
 10
-38.61655807495117
 20
-2.7348380088806152
 30
156.0
 11
-38.62594223022461
 21
-2.553211212158203
 31
156.0
 12
-38.79395294189453
 22
-1.3555079698562622
 32
156.0
 13
-38.79395294189453
 23
-1.3555079698562622
 33
156.0
  0
3DFACE
  8
0
 10
-38.906349182128906
 20
-3.706843614578247
 30
156.0
 11
-38.79978942871094
 21
-3.515316963195801
 31
156.0
 12
-38.767608642578125
 22
-3.3336899280548096
 32
156.0
 13
-38.767608642578125
 23
-3.3336899280548096
 33
156.0
  0
3DFACE
  8
0
 10
-38.767608642578125
 20
-3.3336899280548096
 30
156.0
 11
-38.61655807495117
 21
-2.7348380088806152
 31
156.0
 12
-38.79395294189453
 22
-1.3555079698562622
 32
156.0
 13
-38.79395294189453
 23
-1.3555079698562622
 33
156.0
  0
3DFACE
  8
0
 10
-38.79395294189453
 20
-1.3555079698562622
 30
156.0
 11
-46.03795623779297
 21
-5.761307239532471
 31
156.0
 12
-44.91429138183594
 22
-5.981672286987305
 32
156.0
 13
-44.91429138183594
 23
-5.981672286987305
 33
156.0
  0
3DFACE
  8
0
 10
-44.91429138183594
 20
-5.981672286987305
 30
156.0
 11
-44.18442916870117
 21
-6.026630878448486
 31
156.0
 12
-43.60107421875
 22
-6.061315059661865
 32
156.0
 13
-43.60107421875
 23
-6.061315059661865
 33
156.0
  0
3DFACE
  8
0
 10
-43.60107421875
 20
-6.061315059661865
 30
156.0
 11
-43.02134704589844
 21
-6.038539409637451
 31
156.0
 12
-42.82060241699219
 22
-5.9906697273254395
 32
156.0
 13
-42.82060241699219
 23
-5.9906697273254395
 33
156.0
  0
3DFACE
  8
0
 10
-42.65343475341797
 20
-5.935216903686523
 30
156.0
 11
-42.29611587524414
 21
-5.8483805656433105
 31
156.0
 12
-41.80215835571289
 22
-5.7072038650512695
 32
156.0
 13
-41.80215835571289
 23
-5.7072038650512695
 33
156.0
  0
3DFACE
  8
0
 10
-43.60107421875
 20
-6.061315059661865
 30
156.0
 11
-42.82060241699219
 21
-5.9906697273254395
 31
156.0
 12
-42.65343475341797
 22
-5.935216903686523
 32
156.0
 13
-42.65343475341797
 23
-5.935216903686523
 33
156.0
  0
3DFACE
  8
0
 10
-38.79395294189453
 20
-1.3555079698562622
 30
156.0
 11
-44.91429138183594
 21
-5.981672286987305
 31
156.0
 12
-43.60107421875
 22
-6.061315059661865
 32
156.0
 13
-43.60107421875
 23
-6.061315059661865
 33
156.0
  0
3DFACE
  8
0
 10
-38.906349182128906
 20
-3.706843614578247
 30
156.0
 11
-38.767608642578125
 21
-3.3336899280548096
 31
156.0
 12
-38.79395294189453
 22
-1.3555079698562622
 32
156.0
 13
-38.79395294189453
 23
-1.3555079698562622
 33
156.0
  0
3DFACE
  8
0
 10
-39.408451080322266
 20
-4.425163745880127
 30
156.0
 11
-39.31035614013672
 21
-4.295794486999512
 31
156.0
 12
-39.214969635009766
 22
-4.1141676902771
 32
156.0
 13
-39.214969635009766
 23
-4.1141676902771
 33
156.0
  0
3DFACE
  8
0
 10
-39.214969635009766
 20
-4.1141676902771
 30
156.0
 11
-38.906349182128906
 21
-3.706843614578247
 31
156.0
 12
-38.79395294189453
 22
-1.3555079698562622
 32
156.0
 13
-38.79395294189453
 23
-1.3555079698562622
 33
156.0
  0
3DFACE
  8
0
 10
-38.79395294189453
 20
-1.3555079698562622
 30
156.0
 11
-43.60107421875
 21
-6.061315059661865
 31
156.0
 12
-42.65343475341797
 22
-5.935216903686523
 32
156.0
 13
-42.65343475341797
 23
-5.935216903686523
 33
156.0
  0
3DFACE
  8
0
 10
-42.65343475341797
 20
-5.935216903686523
 30
156.0
 11
-41.80215835571289
 21
-5.7072038650512695
 31
156.0
 12
-41.2596435546875
 22
-5.5136494636535645
 32
156.0
 13
-41.2596435546875
 23
-5.5136494636535645
 33
156.0
  0
3DFACE
  8
0
 10
-41.07801818847656
 20
-5.407188892364502
 30
156.0
 11
-40.419918060302734
 21
-5.184685230255127
 31
156.0
 12
-40.28489303588867
 22
-5.076273441314697
 32
156.0
 13
-40.28489303588867
 23
-5.076273441314697
 33
156.0
  0
3DFACE
  8
0
 10
-42.65343475341797
 20
-5.935216903686523
 30
156.0
 11
-41.2596435546875
 21
-5.5136494636535645
 31
156.0
 12
-41.07801818847656
 22
-5.407188892364502
 32
156.0
 13
-41.07801818847656
 23
-5.407188892364502
 33
156.0
  0
3DFACE
  8
0
 10
-39.214969635009766
 20
-4.1141676902771
 30
156.0
 11
-38.79395294189453
 21
-1.3555079698562622
 31
156.0
 12
-42.65343475341797
 22
-5.935216903686523
 32
156.0
 13
-42.65343475341797
 23
-5.935216903686523
 33
156.0
  0
3DFACE
  8
0
 10
-39.69868469238281
 20
-4.664024829864502
 30
156.0
 11
-39.408451080322266
 21
-4.425163745880127
 31
156.0
 12
-39.214969635009766
 22
-4.1141676902771
 32
156.0
 13
-39.214969635009766
 23
-4.1141676902771
 33
156.0
  0
3DFACE
  8
0
 10
-41.07801818847656
 20
-5.407188892364502
 30
156.0
 11
-40.28489303588867
 21
-5.076273441314697
 31
156.0
 12
-40.23828887939453
 22
-5.0240159034729
 32
156.0
 13
-40.23828887939453
 23
-5.0240159034729
 33
156.0
  0
3DFACE
  8
0
 10
-40.23828887939453
 20
-5.0240159034729
 30
156.0
 11
-39.69868469238281
 21
-4.664024829864502
 31
156.0
 12
-39.214969635009766
 22
-4.1141676902771
 32
156.0
 13
-39.214969635009766
 23
-4.1141676902771
 33
156.0
  0
3DFACE
  8
0
 10
-39.214969635009766
 20
-4.1141676902771
 30
156.0
 11
-42.65343475341797
 21
-5.935216903686523
 31
156.0
 12
-41.07801818847656
 22
-5.407188892364502
 32
156.0
 13
-41.07801818847656
 23
-5.407188892364502
 33
156.0
  0
3DFACE
  8
0
 10
-41.07801818847656
 20
-5.407188892364502
 30
156.0
 11
-40.23828887939453
 21
-5.0240159034729
 31
156.0
 12
-39.214969635009766
 22
-4.1141676902771
 32
156.0
 13
-39.214969635009766
 23
-4.1141676902771
 33
156.0
  0
3DFACE
  8
0
 10
-42.976226806640625
 20
34.35261154174805
 30
156.0
 11
-42.94980239868164
 21
34.330467224121094
 31
156.0
 12
-42.358497619628906
 22
33.899471282958984
 32
156.0
 13
-42.358497619628906
 23
33.899471282958984
 33
156.0
  0
3DFACE
  8
0
 10
-42.976226806640625
 20
34.35261154174805
 30
156.0
 11
-42.358497619628906
 21
33.899471282958984
 31
156.0
 12
-42.080379486083984
 22
33.72678756713867
 32
156.0
 13
-42.080379486083984
 23
33.72678756713867
 33
156.0
  0
3DFACE
  8
0
 10
-44.07889938354492
 20
35.44522476196289
 30
156.0
 11
-43.503421783447266
 21
34.81658172607422
 31
156.0
 12
-42.976226806640625
 22
34.35261154174805
 32
156.0
 13
-42.976226806640625
 23
34.35261154174805
 33
156.0
  0
3DFACE
  8
0
 10
-44.4610710144043
 20
35.961875915527344
 30
156.0
 11
-44.290592193603516
 21
35.69685363769531
 31
156.0
 12
-44.07889938354492
 22
35.44522476196289
 32
156.0
 13
-44.07889938354492
 23
35.44522476196289
 33
156.0
  0
3DFACE
  8
0
 10
-44.62228775024414
 20
36.266361236572266
 30
156.0
 11
-44.57871627807617
 21
36.1715202331543
 31
156.0
 12
-44.4610710144043
 22
35.961875915527344
 32
156.0
 13
-44.4610710144043
 23
35.961875915527344
 33
156.0
  0
3DFACE
  8
0
 10
-44.8102912902832
 20
36.69075012207031
 30
156.0
 11
-44.740089416503906
 21
36.50323486328125
 31
156.0
 12
-44.62228775024414
 22
36.266361236572266
 32
156.0
 13
-44.62228775024414
 23
36.266361236572266
 33
156.0
  0
3DFACE
  8
0
 10
-45.17473602294922
 20
37.69944381713867
 30
156.0
 11
-45.06614303588867
 21
37.33534622192383
 31
156.0
 12
-44.8102912902832
 22
36.69075012207031
 32
156.0
 13
-44.8102912902832
 23
36.69075012207031
 33
156.0
  0
3DFACE
  8
0
 10
-45.24343490600586
 20
38.91688919067383
 30
156.0
 11
-45.20356369018555
 21
38.07859420776367
 31
156.0
 12
-45.17473602294922
 22
37.69944381713867
 32
156.0
 13
-45.17473602294922
 23
37.69944381713867
 33
156.0
  0
3DFACE
  8
0
 10
-45.17405700683594
 20
39.933658599853516
 30
156.0
 11
-45.1933708190918
 21
39.721439361572266
 31
156.0
 12
-45.20374298095703
 22
39.44076919555664
 32
156.0
 13
-45.20374298095703
 23
39.44076919555664
 33
156.0
  0
3DFACE
  8
0
 10
-45.20374298095703
 20
39.44076919555664
 30
156.0
 11
-45.24343490600586
 21
38.91688919067383
 31
156.0
 12
-45.17473602294922
 22
37.69944381713867
 32
156.0
 13
-45.17473602294922
 23
37.69944381713867
 33
156.0
  0
3DFACE
  8
0
 10
-45.17473602294922
 20
37.69944381713867
 30
156.0
 11
-44.8102912902832
 21
36.69075012207031
 31
156.0
 12
-44.62228775024414
 22
36.266361236572266
 32
156.0
 13
-44.62228775024414
 23
36.266361236572266
 33
156.0
  0
3DFACE
  8
0
 10
-44.62228775024414
 20
36.266361236572266
 30
156.0
 11
-44.4610710144043
 21
35.961875915527344
 31
156.0
 12
-44.07889938354492
 22
35.44522476196289
 32
156.0
 13
-44.07889938354492
 23
35.44522476196289
 33
156.0
  0
3DFACE
  8
0
 10
-44.07889938354492
 20
35.44522476196289
 30
156.0
 11
-42.976226806640625
 21
34.35261154174805
 31
156.0
 12
-42.080379486083984
 22
33.72678756713867
 32
156.0
 13
-42.080379486083984
 23
33.72678756713867
 33
156.0
  0
3DFACE
  8
0
 10
-41.43500518798828
 20
33.31163787841797
 30
156.0
 11
-41.32158279418945
 21
33.23537063598633
 31
156.0
 12
-41.16830825805664
 22
33.14460754394531
 32
156.0
 13
-41.16830825805664
 23
33.14460754394531
 33
156.0
  0
3DFACE
  8
0
 10
-44.07889938354492
 20
35.44522476196289
 30
156.0
 11
-42.080379486083984
 21
33.72678756713867
 31
156.0
 12
-41.43500518798828
 22
33.31163787841797
 32
156.0
 13
-41.43500518798828
 23
33.31163787841797
 33
156.0
  0
3DFACE
  8
0
 10
-45.17473602294922
 20
37.69944381713867
 30
156.0
 11
-44.62228775024414
 21
36.266361236572266
 31
156.0
 12
-44.07889938354492
 22
35.44522476196289
 32
156.0
 13
-44.07889938354492
 23
35.44522476196289
 33
156.0
  0
3DFACE
  8
0
 10
-45.17405700683594
 20
39.933658599853516
 30
156.0
 11
-45.20374298095703
 21
39.44076919555664
 31
156.0
 12
-45.17473602294922
 22
37.69944381713867
 32
156.0
 13
-45.17473602294922
 23
37.69944381713867
 33
156.0
  0
3DFACE
  8
0
 10
-44.73689270019531
 20
41.34545135498047
 30
156.0
 11
-45.00844955444336
 21
40.539424896240234
 31
156.0
 12
-45.011680603027344
 22
40.52562713623047
 32
156.0
 13
-45.011680603027344
 23
40.52562713623047
 33
156.0
  0
3DFACE
  8
0
 10
-45.011680603027344
 20
40.52562713623047
 30
156.0
 11
-45.17405700683594
 21
39.933658599853516
 31
156.0
 12
-45.17473602294922
 22
37.69944381713867
 32
156.0
 13
-45.17473602294922
 23
37.69944381713867
 33
156.0
  0
3DFACE
  8
0
 10
-45.17473602294922
 20
37.69944381713867
 30
156.0
 11
-44.07889938354492
 21
35.44522476196289
 31
156.0
 12
-41.43500518798828
 22
33.31163787841797
 32
156.0
 13
-41.43500518798828
 23
33.31163787841797
 33
156.0
  0
3DFACE
  8
0
 10
-41.43500518798828
 20
33.31163787841797
 30
156.0
 11
-41.16830825805664
 21
33.14460754394531
 31
156.0
 12
-40.38264465332031
 22
32.739036560058594
 32
156.0
 13
-40.38264465332031
 23
32.739036560058594
 33
156.0
  0
3DFACE
  8
0
 10
-39.896400451660156
 20
32.54375076293945
 30
156.0
 11
-39.722076416015625
 21
32.46071243286133
 31
156.0
 12
-39.59647750854492
 22
32.408409118652344
 32
156.0
 13
-39.59647750854492
 23
32.408409118652344
 33
156.0
  0
3DFACE
  8
0
 10
-41.43500518798828
 20
33.31163787841797
 30
156.0
 11
-40.38264465332031
 21
32.739036560058594
 31
156.0
 12
-39.896400451660156
 22
32.54375076293945
 32
156.0
 13
-39.896400451660156
 23
32.54375076293945
 33
156.0
  0
3DFACE
  8
0
 10
-45.011680603027344
 20
40.52562713623047
 30
156.0
 11
-45.17473602294922
 21
37.69944381713867
 31
156.0
 12
-41.43500518798828
 22
33.31163787841797
 32
156.0
 13
-41.43500518798828
 23
33.31163787841797
 33
156.0
  0
3DFACE
  8
0
 10
-44.604915618896484
 20
41.69837951660156
 30
156.0
 11
-44.73689270019531
 21
41.34545135498047
 31
156.0
 12
-45.011680603027344
 22
40.52562713623047
 32
156.0
 13
-45.011680603027344
 23
40.52562713623047
 33
156.0
  0
3DFACE
  8
0
 10
-43.819847106933594
 20
42.941349029541016
 30
156.0
 11
-44.35544967651367
 21
42.19464111328125
 31
156.0
 12
-44.604915618896484
 22
41.69837951660156
 32
156.0
 13
-44.604915618896484
 23
41.69837951660156
 33
156.0
  0
3DFACE
  8
0
 10
-43.12398910522461
 20
43.744197845458984
 30
156.0
 11
-43.55434799194336
 21
43.26420593261719
 31
156.0
 12
-43.819847106933594
 22
42.941349029541016
 32
156.0
 13
-43.819847106933594
 23
42.941349029541016
 33
156.0
  0
3DFACE
  8
0
 10
-42.7932243347168
 20
44.039695739746094
 30
156.0
 11
-42.95746612548828
 21
43.9149055480957
 31
156.0
 12
-43.12398910522461
 22
43.744197845458984
 32
156.0
 13
-43.12398910522461
 23
43.744197845458984
 33
156.0
  0
3DFACE
  8
0
 10
-42.014469146728516
 20
44.56016540527344
 30
156.0
 11
-42.03318405151367
 21
44.54875183105469
 31
156.0
 12
-42.7932243347168
 22
44.039695739746094
 32
156.0
 13
-42.7932243347168
 23
44.039695739746094
 33
156.0
  0
3DFACE
  8
0
 10
-41.14385223388672
 20
44.96179962158203
 30
156.0
 11
-41.508243560791016
 21
44.834659576416016
 31
156.0
 12
-42.014469146728516
 22
44.56016540527344
 32
156.0
 13
-42.014469146728516
 23
44.56016540527344
 33
156.0
  0
3DFACE
  8
0
 10
-40.107757568359375
 20
45.26448059082031
 30
156.0
 11
-40.96382141113281
 21
45.0191764831543
 31
156.0
 12
-41.14385223388672
 22
44.96179962158203
 32
156.0
 13
-41.14385223388672
 23
44.96179962158203
 33
156.0
  0
3DFACE
  8
0
 10
-39.77569580078125
 20
45.3460807800293
 30
156.0
 11
-39.94137954711914
 21
45.308162689208984
 31
156.0
 12
-40.107757568359375
 22
45.26448059082031
 32
156.0
 13
-40.107757568359375
 23
45.26448059082031
 33
156.0
  0
3DFACE
  8
0
 10
-38.996028900146484
 20
45.46340560913086
 30
156.0
 11
-39.2576904296875
 21
45.43644332885742
 31
156.0
 12
-39.77569580078125
 22
45.3460807800293
 32
156.0
 13
-39.77569580078125
 23
45.3460807800293
 33
156.0
  0
3DFACE
  8
0
 10
-37.034645080566406
 20
45.384788513183594
 30
156.0
 11
-38.20780944824219
 21
45.475006103515625
 31
156.0
 12
-38.246368408203125
 22
45.4732551574707
 32
156.0
 13
-38.246368408203125
 23
45.4732551574707
 33
156.0
  0
3DFACE
  8
0
 10
-38.246368408203125
 20
45.4732551574707
 30
156.0
 11
-38.996028900146484
 21
45.46340560913086
 31
156.0
 12
-39.77569580078125
 22
45.3460807800293
 32
156.0
 13
-39.77569580078125
 23
45.3460807800293
 33
156.0
  0
3DFACE
  8
0
 10
-39.77569580078125
 20
45.3460807800293
 30
156.0
 11
-40.107757568359375
 21
45.26448059082031
 31
156.0
 12
-41.14385223388672
 22
44.96179962158203
 32
156.0
 13
-41.14385223388672
 23
44.96179962158203
 33
156.0
  0
3DFACE
  8
0
 10
-41.14385223388672
 20
44.96179962158203
 30
156.0
 11
-42.014469146728516
 21
44.56016540527344
 31
156.0
 12
-42.7932243347168
 22
44.039695739746094
 32
156.0
 13
-42.7932243347168
 23
44.039695739746094
 33
156.0
  0
3DFACE
  8
0
 10
-42.7932243347168
 20
44.039695739746094
 30
156.0
 11
-43.12398910522461
 21
43.744197845458984
 31
156.0
 12
-43.819847106933594
 22
42.941349029541016
 32
156.0
 13
-43.819847106933594
 23
42.941349029541016
 33
156.0
  0
3DFACE
  8
0
 10
-43.819847106933594
 20
42.941349029541016
 30
156.0
 11
-44.604915618896484
 21
41.69837951660156
 31
156.0
 12
-45.011680603027344
 22
40.52562713623047
 32
156.0
 13
-45.011680603027344
 23
40.52562713623047
 33
156.0
  0
3DFACE
  8
0
 10
-45.011680603027344
 20
40.52562713623047
 30
156.0
 11
-41.43500518798828
 21
33.31163787841797
 31
156.0
 12
-39.896400451660156
 22
32.54375076293945
 32
156.0
 13
-39.896400451660156
 23
32.54375076293945
 33
156.0
  0
3DFACE
  8
0
 10
-39.896400451660156
 20
32.54375076293945
 30
156.0
 11
-39.59647750854492
 21
32.408409118652344
 31
156.0
 12
-39.11149215698242
 22
32.245853424072266
 32
156.0
 13
-39.11149215698242
 23
32.245853424072266
 33
156.0
  0
3DFACE
  8
0
 10
-39.11149215698242
 20
32.245853424072266
 30
156.0
 11
-38.711971282958984
 21
32.14289855957031
 31
156.0
 12
-38.500404357910156
 22
32.115989685058594
 32
156.0
 13
-38.500404357910156
 23
32.115989685058594
 33
156.0
  0
3DFACE
  8
0
 10
-38.500404357910156
 20
32.115989685058594
 30
156.0
 11
-37.8885383605957
 21
32.016815185546875
 31
156.0
 12
-37.31447982788086
 22
32.03841781616211
 32
156.0
 13
-37.31447982788086
 23
32.03841781616211
 33
156.0
  0
3DFACE
  8
0
 10
-37.31447982788086
 20
32.03841781616211
 30
156.0
 11
-37.074073791503906
 21
32.02075958251953
 31
156.0
 12
-36.94571304321289
 22
32.02922439575195
 32
156.0
 13
-36.94571304321289
 23
32.02922439575195
 33
156.0
  0
3DFACE
  8
0
 10
-36.94571304321289
 20
32.02922439575195
 30
156.0
 11
-36.457923889160156
 21
32.08859634399414
 31
156.0
 12
-36.265960693359375
 22
32.11640167236328
 32
156.0
 13
-36.265960693359375
 23
32.11640167236328
 33
156.0
  0
3DFACE
  8
0
 10
-36.051544189453125
 20
32.183467864990234
 30
156.0
 11
-35.46733856201172
 21
32.34942626953125
 31
156.0
 12
-34.93766784667969
 22
32.56047058105469
 32
156.0
 13
-34.93766784667969
 23
32.56047058105469
 33
156.0
  0
3DFACE
  8
0
 10
-36.94571304321289
 20
32.02922439575195
 30
156.0
 11
-36.265960693359375
 21
32.11640167236328
 31
156.0
 12
-36.051544189453125
 22
32.183467864990234
 32
156.0
 13
-36.051544189453125
 23
32.183467864990234
 33
156.0
  0
3DFACE
  8
0
 10
-38.500404357910156
 20
32.115989685058594
 30
156.0
 11
-37.31447982788086
 21
32.03841781616211
 31
156.0
 12
-36.94571304321289
 22
32.02922439575195
 32
156.0
 13
-36.94571304321289
 23
32.02922439575195
 33
156.0
  0
3DFACE
  8
0
 10
-39.896400451660156
 20
32.54375076293945
 30
156.0
 11
-39.11149215698242
 21
32.245853424072266
 31
156.0
 12
-38.500404357910156
 22
32.115989685058594
 32
156.0
 13
-38.500404357910156
 23
32.115989685058594
 33
156.0
  0
3DFACE
  8
0
 10
-43.819847106933594
 20
42.941349029541016
 30
156.0
 11
-45.011680603027344
 21
40.52562713623047
 31
156.0
 12
-39.896400451660156
 22
32.54375076293945
 32
156.0
 13
-39.896400451660156
 23
32.54375076293945
 33
156.0
  0
3DFACE
  8
0
 10
-41.14385223388672
 20
44.96179962158203
 30
156.0
 11
-42.7932243347168
 21
44.039695739746094
 31
156.0
 12
-43.819847106933594
 22
42.941349029541016
 32
156.0
 13
-43.819847106933594
 23
42.941349029541016
 33
156.0
  0
3DFACE
  8
0
 10
-38.246368408203125
 20
45.4732551574707
 30
156.0
 11
-39.77569580078125
 21
45.3460807800293
 31
156.0
 12
-41.14385223388672
 22
44.96179962158203
 32
156.0
 13
-41.14385223388672
 23
44.96179962158203
 33
156.0
  0
3DFACE
  8
0
 10
-37.00374984741211
 20
45.37894821166992
 30
156.0
 11
-37.034645080566406
 21
45.384788513183594
 31
156.0
 12
-38.246368408203125
 22
45.4732551574707
 32
156.0
 13
-38.246368408203125
 23
45.4732551574707
 33
156.0
  0
3DFACE
  8
0
 10
-36.1765251159668
 20
45.14685821533203
 30
156.0
 11
-36.356807708740234
 21
45.2176513671875
 31
156.0
 12
-37.00374984741211
 22
45.37894821166992
 32
156.0
 13
-37.00374984741211
 23
45.37894821166992
 33
156.0
  0
3DFACE
  8
0
 10
-34.8177490234375
 20
44.48849105834961
 30
156.0
 11
-35.51656723022461
 21
44.84850311279297
 31
156.0
 12
-36.1765251159668
 22
45.14685821533203
 32
156.0
 13
-36.1765251159668
 23
45.14685821533203
 33
156.0
  0
3DFACE
  8
0
 10
-34.407066345214844
 20
44.20267105102539
 30
156.0
 11
-34.76577377319336
 21
44.45640563964844
 31
156.0
 12
-34.8177490234375
 22
44.48849105834961
 32
156.0
 13
-34.8177490234375
 23
44.48849105834961
 33
156.0
  0
3DFACE
  8
0
 10
-33.609169006347656
 20
43.564605712890625
 30
156.0
 11
-33.88428497314453
 21
43.79018020629883
 31
156.0
 12
-34.407066345214844
 22
44.20267105102539
 32
156.0
 13
-34.407066345214844
 23
44.20267105102539
 33
156.0
  0
3DFACE
  8
0
 10
-32.9766845703125
 20
42.87596893310547
 30
156.0
 11
-33.02846908569336
 21
42.94356155395508
 31
156.0
 12
-33.609169006347656
 22
43.564605712890625
 32
156.0
 13
-33.609169006347656
 23
43.564605712890625
 33
156.0
  0
3DFACE
  8
0
 10
-32.43450927734375
 20
42.135093688964844
 30
156.0
 11
-32.63525390625
 21
42.44553756713867
 31
156.0
 12
-32.9766845703125
 22
42.87596893310547
 32
156.0
 13
-32.9766845703125
 23
42.87596893310547
 33
156.0
  0
3DFACE
  8
0
 10
-31.96278190612793
 20
41.33562088012695
 30
156.0
 11
-32.2669563293457
 21
41.89598083496094
 31
156.0
 12
-32.43450927734375
 22
42.135093688964844
 32
156.0
 13
-32.43450927734375
 23
42.135093688964844
 33
156.0
  0
3DFACE
  8
0
 10
-31.90353775024414
 20
41.20087814331055
 30
156.0
 11
-31.940887451171875
 21
41.29727554321289
 31
156.0
 12
-31.96278190612793
 22
41.33562088012695
 32
156.0
 13
-31.96278190612793
 23
41.33562088012695
 33
156.0
  0
3DFACE
  8
0
 10
-31.516721725463867
 20
40.091732025146484
 30
156.0
 11
-31.657543182373047
 21
40.52598571777344
 31
156.0
 12
-31.90353775024414
 22
41.20087814331055
 32
156.0
 13
-31.90353775024414
 23
41.20087814331055
 33
156.0
  0
3DFACE
  8
0
 10
-31.386354446411133
 20
39.07707214355469
 30
156.0
 11
-31.45366668701172
 21
39.721435546875
 31
156.0
 12
-31.516721725463867
 22
40.091732025146484
 32
156.0
 13
-31.516721725463867
 23
40.091732025146484
 33
156.0
  0
3DFACE
  8
0
 10
-31.35106086730957
 20
38.4332160949707
 30
156.0
 11
-31.35834503173828
 21
38.91688537597656
 31
156.0
 12
-31.386354446411133
 22
39.07707214355469
 32
156.0
 13
-31.386354446411133
 23
39.07707214355469
 33
156.0
  0
3DFACE
  8
0
 10
-31.35764503479004
 20
38.11233901977539
 30
156.0
 11
-31.351289749145508
 21
38.17479705810547
 31
156.0
 12
-31.35106086730957
 22
38.4332160949707
 32
156.0
 13
-31.35106086730957
 23
38.4332160949707
 33
156.0
  0
3DFACE
  8
0
 10
-31.419963836669922
 20
37.30778121948242
 30
156.0
 11
-31.390426635742188
 21
37.52142333984375
 31
156.0
 12
-31.35764503479004
 22
38.11233901977539
 32
156.0
 13
-31.35764503479004
 23
38.11233901977539
 33
156.0
  0
3DFACE
  8
0
 10
-31.59309959411621
 20
36.50323486328125
 30
156.0
 11
-31.491455078125
 21
36.86153030395508
 31
156.0
 12
-31.419963836669922
 22
37.30778121948242
 32
156.0
 13
-31.419963836669922
 23
37.30778121948242
 33
156.0
  0
3DFACE
  8
0
 10
-31.879783630371094
 20
35.69868850708008
 30
156.0
 11
-31.706497192382812
 21
36.13186264038086
 31
156.0
 12
-31.59309959411621
 22
36.50323486328125
 32
156.0
 13
-31.59309959411621
 23
36.50323486328125
 33
156.0
  0
3DFACE
  8
0
 10
-32.34043502807617
 20
34.79855728149414
 30
156.0
 11
-32.283695220947266
 21
34.89735794067383
 31
156.0
 12
-32.1900520324707
 22
35.10001754760742
 32
156.0
 13
-32.1900520324707
 23
35.10001754760742
 33
156.0
  0
3DFACE
  8
0
 10
-32.1900520324707
 20
35.10001754760742
 30
156.0
 11
-31.879783630371094
 21
35.69868850708008
 31
156.0
 12
-31.59309959411621
 22
36.50323486328125
 32
156.0
 13
-31.59309959411621
 23
36.50323486328125
 33
156.0
  0
3DFACE
  8
0
 10
-31.59309959411621
 20
36.50323486328125
 30
156.0
 11
-31.419963836669922
 21
37.30778121948242
 31
156.0
 12
-31.35764503479004
 22
38.11233901977539
 32
156.0
 13
-31.35764503479004
 23
38.11233901977539
 33
156.0
  0
3DFACE
  8
0
 10
-31.35764503479004
 20
38.11233901977539
 30
156.0
 11
-31.35106086730957
 21
38.4332160949707
 31
156.0
 12
-31.386354446411133
 22
39.07707214355469
 32
156.0
 13
-31.386354446411133
 23
39.07707214355469
 33
156.0
  0
3DFACE
  8
0
 10
-31.386354446411133
 20
39.07707214355469
 30
156.0
 11
-31.516721725463867
 21
40.091732025146484
 31
156.0
 12
-31.90353775024414
 22
41.20087814331055
 32
156.0
 13
-31.90353775024414
 23
41.20087814331055
 33
156.0
  0
3DFACE
  8
0
 10
-31.90353775024414
 20
41.20087814331055
 30
156.0
 11
-31.96278190612793
 21
41.33562088012695
 31
156.0
 12
-32.43450927734375
 22
42.135093688964844
 32
156.0
 13
-32.43450927734375
 23
42.135093688964844
 33
156.0
  0
3DFACE
  8
0
 10
-32.43450927734375
 20
42.135093688964844
 30
156.0
 11
-32.9766845703125
 21
42.87596893310547
 31
156.0
 12
-33.609169006347656
 22
43.564605712890625
 32
156.0
 13
-33.609169006347656
 23
43.564605712890625
 33
156.0
  0
3DFACE
  8
0
 10
-33.609169006347656
 20
43.564605712890625
 30
156.0
 11
-34.407066345214844
 21
44.20267105102539
 31
156.0
 12
-34.8177490234375
 22
44.48849105834961
 32
156.0
 13
-34.8177490234375
 23
44.48849105834961
 33
156.0
  0
3DFACE
  8
0
 10
-34.8177490234375
 20
44.48849105834961
 30
156.0
 11
-36.1765251159668
 21
45.14685821533203
 31
156.0
 12
-37.00374984741211
 22
45.37894821166992
 32
156.0
 13
-37.00374984741211
 23
45.37894821166992
 33
156.0
  0
3DFACE
  8
0
 10
-37.00374984741211
 20
45.37894821166992
 30
156.0
 11
-38.246368408203125
 21
45.4732551574707
 31
156.0
 12
-41.14385223388672
 22
44.96179962158203
 32
156.0
 13
-41.14385223388672
 23
44.96179962158203
 33
156.0
  0
3DFACE
  8
0
 10
-41.14385223388672
 20
44.96179962158203
 30
156.0
 11
-43.819847106933594
 21
42.941349029541016
 31
156.0
 12
-39.896400451660156
 22
32.54375076293945
 32
156.0
 13
-39.896400451660156
 23
32.54375076293945
 33
156.0
  0
3DFACE
  8
0
 10
-39.896400451660156
 20
32.54375076293945
 30
156.0
 11
-38.500404357910156
 21
32.115989685058594
 31
156.0
 12
-36.94571304321289
 22
32.02922439575195
 32
156.0
 13
-36.94571304321289
 23
32.02922439575195
 33
156.0
  0
3DFACE
  8
0
 10
-36.94571304321289
 20
32.02922439575195
 30
156.0
 11
-36.051544189453125
 21
32.183467864990234
 31
156.0
 12
-34.93766784667969
 22
32.56047058105469
 32
156.0
 13
-34.93766784667969
 23
32.56047058105469
 33
156.0
  0
3DFACE
  8
0
 10
-34.93766784667969
 20
32.56047058105469
 30
156.0
 11
-34.67695999145508
 21
32.701725006103516
 31
156.0
 12
-34.09781265258789
 22
33.048789978027344
 32
156.0
 13
-34.09781265258789
 23
33.048789978027344
 33
156.0
  0
3DFACE
  8
0
 10
-34.09781265258789
 20
33.048789978027344
 30
156.0
 11
-33.89714050292969
 21
33.157875061035156
 31
156.0
 12
-33.72908401489258
 22
33.2850227355957
 32
156.0
 13
-33.72908401489258
 23
33.2850227355957
 33
156.0
  0
3DFACE
  8
0
 10
-33.72908401489258
 20
33.2850227355957
 30
156.0
 11
-33.12488555908203
 21
33.8211784362793
 31
156.0
 12
-32.88405227661133
 22
34.089576721191406
 32
156.0
 13
-32.88405227661133
 23
34.089576721191406
 33
156.0
  0
3DFACE
  8
0
 10
-32.88405227661133
 20
34.089576721191406
 30
156.0
 11
-32.37428283691406
 21
34.74890899658203
 31
156.0
 12
-32.34043502807617
 22
34.79855728149414
 32
156.0
 13
-32.34043502807617
 23
34.79855728149414
 33
156.0
  0
3DFACE
  8
0
 10
-32.34043502807617
 20
34.79855728149414
 30
156.0
 11
-32.1900520324707
 21
35.10001754760742
 31
156.0
 12
-31.59309959411621
 22
36.50323486328125
 32
156.0
 13
-31.59309959411621
 23
36.50323486328125
 33
156.0
  0
3DFACE
  8
0
 10
-31.59309959411621
 20
36.50323486328125
 30
156.0
 11
-31.35764503479004
 21
38.11233901977539
 31
156.0
 12
-31.386354446411133
 22
39.07707214355469
 32
156.0
 13
-31.386354446411133
 23
39.07707214355469
 33
156.0
  0
3DFACE
  8
0
 10
-31.386354446411133
 20
39.07707214355469
 30
156.0
 11
-31.90353775024414
 21
41.20087814331055
 31
156.0
 12
-32.43450927734375
 22
42.135093688964844
 32
156.0
 13
-32.43450927734375
 23
42.135093688964844
 33
156.0
  0
3DFACE
  8
0
 10
-32.43450927734375
 20
42.135093688964844
 30
156.0
 11
-33.609169006347656
 21
43.564605712890625
 31
156.0
 12
-34.8177490234375
 22
44.48849105834961
 32
156.0
 13
-34.8177490234375
 23
44.48849105834961
 33
156.0
  0
3DFACE
  8
0
 10
-34.8177490234375
 20
44.48849105834961
 30
156.0
 11
-37.00374984741211
 21
45.37894821166992
 31
156.0
 12
-41.14385223388672
 22
44.96179962158203
 32
156.0
 13
-41.14385223388672
 23
44.96179962158203
 33
156.0
  0
3DFACE
  8
0
 10
-41.14385223388672
 20
44.96179962158203
 30
156.0
 11
-39.896400451660156
 21
32.54375076293945
 31
156.0
 12
-36.94571304321289
 22
32.02922439575195
 32
156.0
 13
-36.94571304321289
 23
32.02922439575195
 33
156.0
  0
3DFACE
  8
0
 10
-36.94571304321289
 20
32.02922439575195
 30
156.0
 11
-34.93766784667969
 21
32.56047058105469
 31
156.0
 12
-34.09781265258789
 22
33.048789978027344
 32
156.0
 13
-34.09781265258789
 23
33.048789978027344
 33
156.0
  0
3DFACE
  8
0
 10
-34.09781265258789
 20
33.048789978027344
 30
156.0
 11
-33.72908401489258
 21
33.2850227355957
 31
156.0
 12
-32.88405227661133
 22
34.089576721191406
 32
156.0
 13
-32.88405227661133
 23
34.089576721191406
 33
156.0
  0
3DFACE
  8
0
 10
-32.88405227661133
 20
34.089576721191406
 30
156.0
 11
-32.34043502807617
 21
34.79855728149414
 31
156.0
 12
-31.59309959411621
 22
36.50323486328125
 32
156.0
 13
-31.59309959411621
 23
36.50323486328125
 33
156.0
  0
3DFACE
  8
0
 10
-31.59309959411621
 20
36.50323486328125
 30
156.0
 11
-31.386354446411133
 21
39.07707214355469
 31
156.0
 12
-32.43450927734375
 22
42.135093688964844
 32
156.0
 13
-32.43450927734375
 23
42.135093688964844
 33
156.0
  0
3DFACE
  8
0
 10
-32.43450927734375
 20
42.135093688964844
 30
156.0
 11
-34.8177490234375
 21
44.48849105834961
 31
156.0
 12
-41.14385223388672
 22
44.96179962158203
 32
156.0
 13
-41.14385223388672
 23
44.96179962158203
 33
156.0
  0
3DFACE
  8
0
 10
-41.14385223388672
 20
44.96179962158203
 30
156.0
 11
-36.94571304321289
 21
32.02922439575195
 31
156.0
 12
-34.09781265258789
 22
33.048789978027344
 32
156.0
 13
-34.09781265258789
 23
33.048789978027344
 33
156.0
  0
3DFACE
  8
0
 10
-34.09781265258789
 20
33.048789978027344
 30
156.0
 11
-32.88405227661133
 21
34.089576721191406
 31
156.0
 12
-31.59309959411621
 22
36.50323486328125
 32
156.0
 13
-31.59309959411621
 23
36.50323486328125
 33
156.0
  0
3DFACE
  8
0
 10
-31.59309959411621
 20
36.50323486328125
 30
156.0
 11
-32.43450927734375
 21
42.135093688964844
 31
156.0
 12
-41.14385223388672
 22
44.96179962158203
 32
156.0
 13
-41.14385223388672
 23
44.96179962158203
 33
156.0
  0
3DFACE
  8
0
 10
-34.09781265258789
 20
33.048789978027344
 30
156.0
 11
-31.59309959411621
 21
36.50323486328125
 31
156.0
 12
-41.14385223388672
 22
44.96179962158203
 32
156.0
 13
-41.14385223388672
 23
44.96179962158203
 33
156.0
  0
3DFACE
  8
0
 10
30.874650955200195
 20
52.640037536621094
 30
156.0
 11
30.106412887573242
 21
52.69352340698242
 31
156.0
 12
30.086509704589844
 22
52.69148635864258
 32
156.0
 13
30.086509704589844
 23
52.69148635864258
 33
156.0
  0
3DFACE
  8
0
 10
30.086509704589844
 20
52.69148635864258
 30
156.0
 11
30.017845153808594
 21
52.675994873046875
 31
156.0
 12
29.45259666442871
 22
52.50676345825195
 32
156.0
 13
29.45259666442871
 23
52.50676345825195
 33
156.0
  0
3DFACE
  8
0
 10
29.45259666442871
 20
52.50676345825195
 30
156.0
 11
29.2645320892334
 21
52.49995803833008
 31
156.0
 12
28.94243049621582
 22
52.379310607910156
 32
156.0
 13
28.94243049621582
 23
52.379310607910156
 33
156.0
  0
3DFACE
  8
0
 10
28.94243049621582
 20
52.379310607910156
 30
156.0
 11
28.4781436920166
 21
52.242496490478516
 31
156.0
 12
27.838443756103516
 22
51.74299240112305
 32
156.0
 13
27.838443756103516
 23
51.74299240112305
 33
156.0
  0
3DFACE
  8
0
 10
27.838443756103516
 20
51.74299240112305
 30
156.0
 11
27.74534797668457
 21
51.66801071166992
 31
156.0
 12
27.72776222229004
 22
51.63722229003906
 32
156.0
 13
27.72776222229004
 23
51.63722229003906
 33
156.0
  0
3DFACE
  8
0
 10
27.650257110595703
 20
51.515037536621094
 30
156.0
 11
27.139633178710938
 21
50.8104362487793
 31
156.0
 12
27.03167724609375
 22
50.63079071044922
 32
156.0
 13
27.03167724609375
 23
50.63079071044922
 33
156.0
  0
3DFACE
  8
0
 10
27.838443756103516
 20
51.74299240112305
 30
156.0
 11
27.72776222229004
 21
51.63722229003906
 31
156.0
 12
27.650257110595703
 22
51.515037536621094
 32
156.0
 13
27.650257110595703
 23
51.515037536621094
 33
156.0
  0
3DFACE
  8
0
 10
29.45259666442871
 20
52.50676345825195
 30
156.0
 11
28.94243049621582
 21
52.379310607910156
 31
156.0
 12
27.838443756103516
 22
51.74299240112305
 32
156.0
 13
27.838443756103516
 23
51.74299240112305
 33
156.0
  0
3DFACE
  8
0
 10
30.874650955200195
 20
52.640037536621094
 30
156.0
 11
30.086509704589844
 21
52.69148635864258
 31
156.0
 12
29.45259666442871
 22
52.50676345825195
 32
156.0
 13
29.45259666442871
 23
52.50676345825195
 33
156.0
  0
3DFACE
  8
0
 10
32.14509201049805
 20
51.85837936401367
 30
156.0
 11
31.64771270751953
 21
52.281436920166016
 31
156.0
 12
30.928327560424805
 22
52.61336135864258
 32
156.0
 13
30.928327560424805
 23
52.61336135864258
 33
156.0
  0
3DFACE
  8
0
 10
30.928327560424805
 20
52.61336135864258
 30
156.0
 11
30.874650955200195
 21
52.640037536621094
 31
156.0
 12
29.45259666442871
 22
52.50676345825195
 32
156.0
 13
29.45259666442871
 23
52.50676345825195
 33
156.0
  0
3DFACE
  8
0
 10
29.45259666442871
 20
52.50676345825195
 30
156.0
 11
27.838443756103516
 21
51.74299240112305
 31
156.0
 12
27.650257110595703
 22
51.515037536621094
 32
156.0
 13
27.650257110595703
 23
51.515037536621094
 33
156.0
  0
3DFACE
  8
0
 10
27.650257110595703
 20
51.515037536621094
 30
156.0
 11
27.03167724609375
 21
50.63079071044922
 31
156.0
 12
26.841594696044922
 22
50.17831802368164
 32
156.0
 13
26.841594696044922
 23
50.17831802368164
 33
156.0
  0
3DFACE
  8
0
 10
26.841594696044922
 20
50.17831802368164
 30
156.0
 11
26.7244815826416
 21
49.87810134887695
 31
156.0
 12
26.564414978027344
 22
49.157745361328125
 32
156.0
 13
26.564414978027344
 23
49.157745361328125
 33
156.0
  0
3DFACE
  8
0
 10
26.502883911132812
 20
48.738525390625
 30
156.0
 11
26.461179733276367
 21
48.52553176879883
 31
156.0
 12
26.457061767578125
 22
47.95097351074219
 32
156.0
 13
26.457061767578125
 23
47.95097351074219
 33
156.0
  0
3DFACE
  8
0
 10
26.841594696044922
 20
50.17831802368164
 30
156.0
 11
26.564414978027344
 21
49.157745361328125
 31
156.0
 12
26.502883911132812
 22
48.738525390625
 32
156.0
 13
26.502883911132812
 23
48.738525390625
 33
156.0
  0
3DFACE
  8
0
 10
29.45259666442871
 20
52.50676345825195
 30
156.0
 11
27.650257110595703
 21
51.515037536621094
 31
156.0
 12
26.841594696044922
 22
50.17831802368164
 32
156.0
 13
26.841594696044922
 23
50.17831802368164
 33
156.0
  0
3DFACE
  8
0
 10
32.14509201049805
 20
51.85837936401367
 30
156.0
 11
30.928327560424805
 21
52.61336135864258
 31
156.0
 12
29.45259666442871
 22
52.50676345825195
 32
156.0
 13
29.45259666442871
 23
52.50676345825195
 33
156.0
  0
3DFACE
  8
0
 10
32.72083282470703
 20
51.04354476928711
 30
156.0
 11
32.40383529663086
 21
51.57768630981445
 31
156.0
 12
32.14509201049805
 22
51.85837936401367
 32
156.0
 13
32.14509201049805
 23
51.85837936401367
 33
156.0
  0
3DFACE
  8
0
 10
33.11313247680664
 20
49.92021942138672
 30
156.0
 11
33.013790130615234
 21
50.31239318847656
 31
156.0
 12
32.93278503417969
 22
50.4938850402832
 32
156.0
 13
32.93278503417969
 23
50.4938850402832
 33
156.0
  0
3DFACE
  8
0
 10
32.93278503417969
 20
50.4938850402832
 30
156.0
 11
32.72083282470703
 21
51.04354476928711
 31
156.0
 12
32.14509201049805
 22
51.85837936401367
 32
156.0
 13
32.14509201049805
 23
51.85837936401367
 33
156.0
  0
3DFACE
  8
0
 10
32.14509201049805
 20
51.85837936401367
 30
156.0
 11
29.45259666442871
 21
52.50676345825195
 31
156.0
 12
26.841594696044922
 22
50.17831802368164
 32
156.0
 13
26.841594696044922
 23
50.17831802368164
 33
156.0
  0
3DFACE
  8
0
 10
26.841594696044922
 20
50.17831802368164
 30
156.0
 11
26.502883911132812
 21
48.738525390625
 31
156.0
 12
26.457061767578125
 22
47.95097351074219
 32
156.0
 13
26.457061767578125
 23
47.95097351074219
 33
156.0
  0
3DFACE
  8
0
 10
26.457061767578125
 20
47.95097351074219
 30
156.0
 11
26.45342254638672
 21
47.87551498413086
 31
156.0
 12
26.489973068237305
 22
47.47200012207031
 32
156.0
 13
26.489973068237305
 23
47.47200012207031
 33
156.0
  0
3DFACE
  8
0
 10
26.489973068237305
 20
47.47200012207031
 30
156.0
 11
26.51823616027832
 21
47.20954895019531
 31
156.0
 12
26.63236427307129
 22
46.79927062988281
 32
156.0
 13
26.63236427307129
 23
46.79927062988281
 33
156.0
  0
3DFACE
  8
0
 10
26.63236427307129
 20
46.79927062988281
 30
156.0
 11
26.663593292236328
 21
46.70899963378906
 31
156.0
 12
26.806785583496094
 22
46.37670135498047
 32
156.0
 13
26.806785583496094
 23
46.37670135498047
 33
156.0
  0
3DFACE
  8
0
 10
26.806785583496094
 20
46.37670135498047
 30
156.0
 11
27.076927185058594
 21
45.800350189208984
 31
156.0
 12
27.214046478271484
 22
45.589561462402344
 32
156.0
 13
27.214046478271484
 23
45.589561462402344
 33
156.0
  0
3DFACE
  8
0
 10
27.214046478271484
 20
45.589561462402344
 30
156.0
 11
27.354534149169922
 21
45.35893630981445
 31
156.0
 12
27.809247970581055
 22
44.802433013916016
 32
156.0
 13
27.809247970581055
 23
44.802433013916016
 33
156.0
  0
3DFACE
  8
0
 10
27.809247970581055
 20
44.802433013916016
 30
156.0
 11
28.10190773010254
 21
44.47710418701172
 31
156.0
 12
28.61461067199707
 22
44.22174072265625
 32
156.0
 13
28.61461067199707
 23
44.22174072265625
 33
156.0
  0
3DFACE
  8
0
 10
28.61461067199707
 20
44.22174072265625
 30
156.0
 11
28.871856689453125
 21
44.055015563964844
 31
156.0
 12
29.608320236206055
 22
44.01336669921875
 32
156.0
 13
29.608320236206055
 23
44.01336669921875
 33
156.0
  0
3DFACE
  8
0
 10
29.608320236206055
 20
44.01336669921875
 30
156.0
 11
29.660526275634766
 21
44.01434326171875
 31
156.0
 12
29.67904281616211
 22
44.022552490234375
 32
156.0
 13
29.67904281616211
 23
44.022552490234375
 33
156.0
  0
3DFACE
  8
0
 10
29.67904281616211
 20
44.022552490234375
 30
156.0
 11
30.465797424316406
 21
44.31177520751953
 31
156.0
 12
30.914052963256836
 22
44.61192321777344
 32
156.0
 13
30.914052963256836
 23
44.61192321777344
 33
156.0
  0
3DFACE
  8
0
 10
30.914052963256836
 20
44.61192321777344
 30
156.0
 11
31.266679763793945
 21
44.80795669555664
 31
156.0
 12
31.455291748046875
 22
44.959251403808594
 32
156.0
 13
31.455291748046875
 23
44.959251403808594
 33
156.0
  0
3DFACE
  8
0
 10
31.455291748046875
 20
44.959251403808594
 30
156.0
 11
31.793710708618164
 21
45.327510833740234
 31
156.0
 12
32.028289794921875
 22
45.62001037597656
 32
156.0
 13
32.028289794921875
 23
45.62001037597656
 33
156.0
  0
3DFACE
  8
0
 10
32.028289794921875
 20
45.62001037597656
 30
156.0
 11
32.09031677246094
 21
45.72722625732422
 31
156.0
 12
32.12746047973633
 22
45.799644470214844
 32
156.0
 13
32.12746047973633
 23
45.799644470214844
 33
156.0
  0
3DFACE
  8
0
 10
32.12746047973633
 20
45.799644470214844
 30
156.0
 11
32.50364303588867
 21
46.37670135498047
 31
156.0
 12
32.72595977783203
 22
46.93540573120117
 32
156.0
 13
32.72595977783203
 23
46.93540573120117
 33
156.0
  0
3DFACE
  8
0
 10
32.7848014831543
 20
47.05556106567383
 30
156.0
 11
32.84538269042969
 21
47.163841247558594
 31
156.0
 12
33.00434494018555
 22
47.704200744628906
 32
156.0
 13
33.00434494018555
 23
47.704200744628906
 33
156.0
  0
3DFACE
  8
0
 10
32.12746047973633
 20
45.799644470214844
 30
156.0
 11
32.72595977783203
 21
46.93540573120117
 31
156.0
 12
32.7848014831543
 22
47.05556106567383
 32
156.0
 13
32.7848014831543
 23
47.05556106567383
 33
156.0
  0
3DFACE
  8
0
 10
31.455291748046875
 20
44.959251403808594
 30
156.0
 11
32.028289794921875
 21
45.62001037597656
 31
156.0
 12
32.12746047973633
 22
45.799644470214844
 32
156.0
 13
32.12746047973633
 23
45.799644470214844
 33
156.0
  0
3DFACE
  8
0
 10
29.67904281616211
 20
44.022552490234375
 30
156.0
 11
30.914052963256836
 21
44.61192321777344
 31
156.0
 12
31.455291748046875
 22
44.959251403808594
 32
156.0
 13
31.455291748046875
 23
44.959251403808594
 33
156.0
  0
3DFACE
  8
0
 10
28.61461067199707
 20
44.22174072265625
 30
156.0
 11
29.608320236206055
 21
44.01336669921875
 31
156.0
 12
29.67904281616211
 22
44.022552490234375
 32
156.0
 13
29.67904281616211
 23
44.022552490234375
 33
156.0
  0
3DFACE
  8
0
 10
27.214046478271484
 20
45.589561462402344
 30
156.0
 11
27.809247970581055
 21
44.802433013916016
 31
156.0
 12
28.61461067199707
 22
44.22174072265625
 32
156.0
 13
28.61461067199707
 23
44.22174072265625
 33
156.0
  0
3DFACE
  8
0
 10
26.63236427307129
 20
46.79927062988281
 30
156.0
 11
26.806785583496094
 21
46.37670135498047
 31
156.0
 12
27.214046478271484
 22
45.589561462402344
 32
156.0
 13
27.214046478271484
 23
45.589561462402344
 33
156.0
  0
3DFACE
  8
0
 10
26.457061767578125
 20
47.95097351074219
 30
156.0
 11
26.489973068237305
 21
47.47200012207031
 31
156.0
 12
26.63236427307129
 22
46.79927062988281
 32
156.0
 13
26.63236427307129
 23
46.79927062988281
 33
156.0
  0
3DFACE
  8
0
 10
32.14509201049805
 20
51.85837936401367
 30
156.0
 11
26.841594696044922
 21
50.17831802368164
 31
156.0
 12
26.457061767578125
 22
47.95097351074219
 32
156.0
 13
26.457061767578125
 23
47.95097351074219
 33
156.0
  0
3DFACE
  8
0
 10
33.11313247680664
 20
49.92021942138672
 30
156.0
 11
32.93278503417969
 21
50.4938850402832
 31
156.0
 12
32.14509201049805
 22
51.85837936401367
 32
156.0
 13
32.14509201049805
 23
51.85837936401367
 33
156.0
  0
3DFACE
  8
0
 10
33.17509460449219
 20
49.52525329589844
 30
156.0
 11
33.17965316772461
 21
49.604461669921875
 31
156.0
 12
33.11313247680664
 22
49.92021942138672
 32
156.0
 13
33.11313247680664
 23
49.92021942138672
 33
156.0
  0
3DFACE
  8
0
 10
33.114234924316406
 20
48.13371276855469
 30
156.0
 11
33.19611358642578
 21
48.88960266113281
 31
156.0
 12
33.17509460449219
 22
49.52525329589844
 32
156.0
 13
33.17509460449219
 23
49.52525329589844
 33
156.0
  0
3DFACE
  8
0
 10
33.00434494018555
 20
47.704200744628906
 30
156.0
 11
33.081668853759766
 21
47.95097351074219
 31
156.0
 12
33.114234924316406
 22
48.13371276855469
 32
156.0
 13
33.114234924316406
 23
48.13371276855469
 33
156.0
  0
3DFACE
  8
0
 10
32.12746047973633
 20
45.799644470214844
 30
156.0
 11
32.7848014831543
 21
47.05556106567383
 31
156.0
 12
33.00434494018555
 22
47.704200744628906
 32
156.0
 13
33.00434494018555
 23
47.704200744628906
 33
156.0
  0
3DFACE
  8
0
 10
29.67904281616211
 20
44.022552490234375
 30
156.0
 11
31.455291748046875
 21
44.959251403808594
 31
156.0
 12
32.12746047973633
 22
45.799644470214844
 32
156.0
 13
32.12746047973633
 23
45.799644470214844
 33
156.0
  0
3DFACE
  8
0
 10
27.214046478271484
 20
45.589561462402344
 30
156.0
 11
28.61461067199707
 21
44.22174072265625
 31
156.0
 12
29.67904281616211
 22
44.022552490234375
 32
156.0
 13
29.67904281616211
 23
44.022552490234375
 33
156.0
  0
3DFACE
  8
0
 10
26.457061767578125
 20
47.95097351074219
 30
156.0
 11
26.63236427307129
 21
46.79927062988281
 31
156.0
 12
27.214046478271484
 22
45.589561462402344
 32
156.0
 13
27.214046478271484
 23
45.589561462402344
 33
156.0
  0
3DFACE
  8
0
 10
33.11313247680664
 20
49.92021942138672
 30
156.0
 11
32.14509201049805
 21
51.85837936401367
 31
156.0
 12
26.457061767578125
 22
47.95097351074219
 32
156.0
 13
26.457061767578125
 23
47.95097351074219
 33
156.0
  0
3DFACE
  8
0
 10
33.114234924316406
 20
48.13371276855469
 30
156.0
 11
33.17509460449219
 21
49.52525329589844
 31
156.0
 12
33.11313247680664
 22
49.92021942138672
 32
156.0
 13
33.11313247680664
 23
49.92021942138672
 33
156.0
  0
3DFACE
  8
0
 10
32.12746047973633
 20
45.799644470214844
 30
156.0
 11
33.00434494018555
 21
47.704200744628906
 31
156.0
 12
33.114234924316406
 22
48.13371276855469
 32
156.0
 13
33.114234924316406
 23
48.13371276855469
 33
156.0
  0
3DFACE
  8
0
 10
27.214046478271484
 20
45.589561462402344
 30
156.0
 11
29.67904281616211
 21
44.022552490234375
 31
156.0
 12
32.12746047973633
 22
45.799644470214844
 32
156.0
 13
32.12746047973633
 23
45.799644470214844
 33
156.0
  0
3DFACE
  8
0
 10
33.11313247680664
 20
49.92021942138672
 30
156.0
 11
26.457061767578125
 21
47.95097351074219
 31
156.0
 12
27.214046478271484
 22
45.589561462402344
 32
156.0
 13
27.214046478271484
 23
45.589561462402344
 33
156.0
  0
3DFACE
  8
0
 10
32.12746047973633
 20
45.799644470214844
 30
156.0
 11
33.114234924316406
 21
48.13371276855469
 31
156.0
 12
33.11313247680664
 22
49.92021942138672
 32
156.0
 13
33.11313247680664
 23
49.92021942138672
 33
156.0
  0
3DFACE
  8
0
 10
27.214046478271484
 20
45.589561462402344
 30
156.0
 11
32.12746047973633
 21
45.799644470214844
 31
156.0
 12
33.11313247680664
 22
49.92021942138672
 32
156.0
 13
33.11313247680664
 23
49.92021942138672
 33
156.0
  0
ENDSEC
  0
EOF
