  0
SECTION
  2
HEADER
  9
$ACADVER
  1
AC1009
  9
$INSBASE
 10
0.0
 20
0.0
 30
0.0
  9
$EXTMIN
 10
0.0
 20
0.0
 30
0.0
  9
$EXTMAX
 10
0.0
 20
0.0
 30
0.0
  0
ENDSEC
  0
SECTION
  2
TABLES
  0
TABLE
  2
VPORT
 70
1
  0
VPORT
  2
*ACTIVE
 70
0
 10
0.0
 20
0.0
 11
1.0
 21
1.0
 12
-5.0
 22
1.0
 13
0.0
 23
0.0
 14
0.1
 24
0.1
 15
0.1
 25
0.1
 16
0.0
 26
0.0
 36
1.0
 17
0.0
 27
0.0
 37
0.0
 40
10.0
 41
1.0
 42
50.0
 43
0.0
 44
0.0
 50
0.0
 51
0.0
 71
0
 72
100
 73
1
 74
1
 75
0
 76
0
 77
0
 78
0
  0
ENDTAB
  0
TABLE
  2
LTYPE
 70
8
  0
LTYPE
  2
CONTINUOUS
 70
0
  3
Solid line
 72
65
 73
0
 40
0.0
  0
LTYPE
  2
DOT
 70
0
  3
. . . . . . .
 72
65
 73
2
 40
0.25
 49
0.0
 49
-0.25
  0
LTYPE
  2
DASHED
 70
0
  3
__ __ __ __ __
 72
65
 73
2
 40
0.8
 49
0.5
 49
-0.3
  0
LTYPE
  2
DASHDOT
 70
0
  3
__ . __ . __ .
 72
65
 73
4
 40
1.0
 49
0.5
 49
-0.25
 49
0.0
 49
-0.25
  0
LTYPE
  2
DIVIDE
 70
0
  3
____ . . ____ . . 
 72
65
 73
6
 40
1.25
 49
0.5
 49
-0.25
 49
0.0
 49
-0.25
 49
0.0
 49
-0.25
  0
LTYPE
  2
BORDER
 70
0
  3
__ __ . __ __ . 
 72
65
 73
6
 40
1.75
 49
0.5
 49
-0.25
 49
0.5
 49
-0.25
 49
0.0
 49
-0.25
  0
LTYPE
  2
HIDDEN
 70
0
  3
__ __ __ __ __
 72
65
 73
2
 40
0.4
 49
0.25
 49
-0.25
  0
LTYPE
  2
CENTER
 70
0
  3
____ _ ____ _ __
 72
65
 73
4
 40
2.0
 49
1.25
 49
-0.25
 49
0.25
 49
-0.25
  0
ENDTAB
  0
TABLE
  2
LAYER
 70
1
  0
LAYER
  2
PYDXF
 70
64
 62
7
  6
continuous
  0
ENDTAB
  0
TABLE
  2
STYLE
 70
1
  0
STYLE
  2
STANDARD
 70
0
 40
0
 41
1.0
 50
0.0
 71
0
 42
1
 3
ARIAL.TTF
 4

  0
ENDTAB
  0
TABLE
  2
VIEW
 70
1
  0
VIEW
  2
BF_TOPVIEW
 70
0
 40
120.0
 10
0.0
 20
0.0
 41
200.0
 11
0.0
 21
0.0
 31
1.0
 12
0.0
 22
0.0
 32
0.0
 42
50.0
 43
0.0
 44
0.0
 50
0.0
 71
0
  0
ENDTAB
  0
ENDSEC
  0
SECTION
  2
BLOCKS
  0
ENDSEC
  0
SECTION
  2
ENTITIES
  0
3DFACE
  8
0
 10
-14.116857528686523
 20
-41.56272888183594
 30
158.0
 11
-14.108710289001465
 21
-41.5471305847168
 31
158.0
 12
-14.100850105285645
 22
-41.52573776245117
 32
158.0
 13
-14.100850105285645
 23
-41.52573776245117
 33
158.0
  0
3DFACE
  8
0
 10
-14.09749698638916
 20
-41.50434494018555
 30
158.0
 11
-13.745651245117188
 21
-40.74323654174805
 31
158.0
 12
-13.748215675354004
 22
-40.72184371948242
 32
158.0
 13
-13.748215675354004
 23
-40.72184371948242
 33
158.0
  0
3DFACE
  8
0
 10
-14.116857528686523
 20
-41.56272888183594
 30
158.0
 11
-14.100850105285645
 21
-41.52573776245117
 31
158.0
 12
-14.09749698638916
 22
-41.50434494018555
 32
158.0
 13
-14.09749698638916
 23
-41.50434494018555
 33
158.0
  0
3DFACE
  8
0
 10
-14.822589874267578
 20
-42.30824661254883
 30
158.0
 11
-14.196624755859375
 21
-41.68156433105469
 31
158.0
 12
-14.116857528686523
 22
-41.56272888183594
 32
158.0
 13
-14.116857528686523
 23
-41.56272888183594
 33
158.0
  0
3DFACE
  8
0
 10
-14.9791259765625
 20
-42.492549896240234
 30
158.0
 11
-14.914067268371582
 21
-42.405338287353516
 31
158.0
 12
-14.89440631866455
 22
-42.37430191040039
 32
158.0
 13
-14.89440631866455
 23
-42.37430191040039
 33
158.0
  0
3DFACE
  8
0
 10
-14.89440631866455
 20
-42.37430191040039
 30
158.0
 11
-14.822589874267578
 21
-42.30824661254883
 31
158.0
 12
-14.116857528686523
 22
-41.56272888183594
 32
158.0
 13
-14.116857528686523
 23
-41.56272888183594
 33
158.0
  0
3DFACE
  8
0
 10
-14.09749698638916
 20
-41.50434494018555
 30
158.0
 11
-13.748215675354004
 21
-40.72184371948242
 31
158.0
 12
-13.730378150939941
 22
-39.96073532104492
 32
158.0
 13
-13.730378150939941
 23
-39.96073532104492
 33
158.0
  0
3DFACE
  8
0
 10
-14.89440631866455
 20
-42.37430191040039
 30
158.0
 11
-14.116857528686523
 21
-41.56272888183594
 31
158.0
 12
-14.09749698638916
 22
-41.50434494018555
 32
158.0
 13
-14.09749698638916
 23
-41.50434494018555
 33
158.0
  0
3DFACE
  8
0
 10
-15.301188468933105
 20
-42.63031005859375
 30
158.0
 11
-14.9791259765625
 21
-42.492549896240234
 31
158.0
 12
-14.89440631866455
 22
-42.37430191040039
 32
158.0
 13
-14.89440631866455
 23
-42.37430191040039
 33
158.0
  0
3DFACE
  8
0
 10
-15.900639533996582
 20
-42.80880355834961
 30
158.0
 11
-15.761629104614258
 21
-42.78968048095703
 31
158.0
 12
-15.301188468933105
 22
-42.63031005859375
 32
158.0
 13
-15.301188468933105
 23
-42.63031005859375
 33
158.0
  0
3DFACE
  8
0
 10
-17.24407386779785
 20
-42.30824661254883
 30
158.0
 11
-16.544132232666016
 21
-42.86397171020508
 31
158.0
 12
-15.900639533996582
 22
-42.80880355834961
 32
158.0
 13
-15.900639533996582
 23
-42.80880355834961
 33
158.0
  0
3DFACE
  8
0
 10
-17.528728485107422
 20
-41.52573776245117
 30
158.0
 11
-17.326637268066406
 21
-42.16226577758789
 31
158.0
 12
-17.24407386779785
 22
-42.30824661254883
 32
158.0
 13
-17.24407386779785
 23
-42.30824661254883
 33
158.0
  0
3DFACE
  8
0
 10
-17.4456844329834
 20
-40.69913101196289
 30
158.0
 11
-17.471298217773438
 21
-40.74305725097656
 31
158.0
 12
-17.50925064086914
 22
-41.50368881225586
 32
158.0
 13
-17.50925064086914
 23
-41.50368881225586
 33
158.0
  0
3DFACE
  8
0
 10
-17.50925064086914
 20
-41.50368881225586
 30
158.0
 11
-17.528728485107422
 21
-41.52573776245117
 31
158.0
 12
-17.24407386779785
 22
-42.30824661254883
 32
158.0
 13
-17.24407386779785
 23
-42.30824661254883
 33
158.0
  0
3DFACE
  8
0
 10
-17.24407386779785
 20
-42.30824661254883
 30
158.0
 11
-15.900639533996582
 21
-42.80880355834961
 31
158.0
 12
-15.301188468933105
 22
-42.63031005859375
 32
158.0
 13
-15.301188468933105
 23
-42.63031005859375
 33
158.0
  0
3DFACE
  8
0
 10
-15.301188468933105
 20
-42.63031005859375
 30
158.0
 11
-14.89440631866455
 21
-42.37430191040039
 31
158.0
 12
-14.09749698638916
 22
-41.50434494018555
 32
158.0
 13
-14.09749698638916
 23
-41.50434494018555
 33
158.0
  0
3DFACE
  8
0
 10
-14.09749698638916
 20
-41.50434494018555
 30
158.0
 11
-13.730378150939941
 21
-39.96073532104492
 31
158.0
 12
-13.741669654846191
 22
-39.9393424987793
 32
158.0
 13
-13.741669654846191
 23
-39.9393424987793
 33
158.0
  0
3DFACE
  8
0
 10
-13.741669654846191
 20
-39.9393424987793
 30
158.0
 11
-13.819573402404785
 21
-39.178226470947266
 31
158.0
 12
-14.192789077758789
 22
-38.57220458984375
 32
158.0
 13
-14.192789077758789
 23
-38.57220458984375
 33
158.0
  0
3DFACE
  8
0
 10
-14.192789077758789
 20
-38.57220458984375
 30
158.0
 11
-14.196624755859375
 21
-38.568729400634766
 31
158.0
 12
-14.218016624450684
 22
-38.56013107299805
 32
158.0
 13
-14.218016624450684
 23
-38.56013107299805
 33
158.0
  0
3DFACE
  8
0
 10
-14.218016624450684
 20
-38.56013107299805
 30
158.0
 11
-14.983838081359863
 21
-38.40032196044922
 31
158.0
 12
-15.74023723602295
 22
-38.751224517822266
 32
158.0
 13
-15.74023723602295
 23
-38.751224517822266
 33
158.0
  0
3DFACE
  8
0
 10
-15.74023723602295
 20
-38.751224517822266
 30
158.0
 11
-15.761629104614258
 21
-38.75403594970703
 31
158.0
 12
-16.38402557373047
 22
-39.16896057128906
 32
158.0
 13
-16.38402557373047
 23
-39.16896057128906
 33
158.0
  0
3DFACE
  8
0
 10
-16.38402557373047
 20
-39.16896057128906
 30
158.0
 11
-16.40450668334961
 21
-39.17877960205078
 31
158.0
 12
-16.42681121826172
 22
-39.19570541381836
 32
158.0
 13
-16.42681121826172
 23
-39.19570541381836
 33
158.0
  0
3DFACE
  8
0
 10
-17.106164932250977
 20
-39.95682144165039
 30
158.0
 11
-17.112743377685547
 21
-39.96073532104492
 31
158.0
 12
-17.4456844329834
 22
-40.69913101196289
 32
158.0
 13
-17.4456844329834
 23
-40.69913101196289
 33
158.0
  0
3DFACE
  8
0
 10
-16.38402557373047
 20
-39.16896057128906
 30
158.0
 11
-16.42681121826172
 21
-39.19570541381836
 31
158.0
 12
-17.106164932250977
 22
-39.95682144165039
 32
158.0
 13
-17.106164932250977
 23
-39.95682144165039
 33
158.0
  0
3DFACE
  8
0
 10
-14.218016624450684
 20
-38.56013107299805
 30
158.0
 11
-15.74023723602295
 21
-38.751224517822266
 31
158.0
 12
-16.38402557373047
 22
-39.16896057128906
 32
158.0
 13
-16.38402557373047
 23
-39.16896057128906
 33
158.0
  0
3DFACE
  8
0
 10
-13.741669654846191
 20
-39.9393424987793
 30
158.0
 11
-14.192789077758789
 21
-38.57220458984375
 31
158.0
 12
-14.218016624450684
 22
-38.56013107299805
 32
158.0
 13
-14.218016624450684
 23
-38.56013107299805
 33
158.0
  0
3DFACE
  8
0
 10
-15.301188468933105
 20
-42.63031005859375
 30
158.0
 11
-14.09749698638916
 21
-41.50434494018555
 31
158.0
 12
-13.741669654846191
 22
-39.9393424987793
 32
158.0
 13
-13.741669654846191
 23
-39.9393424987793
 33
158.0
  0
3DFACE
  8
0
 10
-17.50925064086914
 20
-41.50368881225586
 30
158.0
 11
-17.24407386779785
 21
-42.30824661254883
 31
158.0
 12
-15.301188468933105
 22
-42.63031005859375
 32
158.0
 13
-15.301188468933105
 23
-42.63031005859375
 33
158.0
  0
3DFACE
  8
0
 10
-17.106164932250977
 20
-39.95682144165039
 30
158.0
 11
-17.4456844329834
 21
-40.69913101196289
 31
158.0
 12
-17.50925064086914
 22
-41.50368881225586
 32
158.0
 13
-17.50925064086914
 23
-41.50368881225586
 33
158.0
  0
3DFACE
  8
0
 10
-14.218016624450684
 20
-38.56013107299805
 30
158.0
 11
-16.38402557373047
 21
-39.16896057128906
 31
158.0
 12
-17.106164932250977
 22
-39.95682144165039
 32
158.0
 13
-17.106164932250977
 23
-39.95682144165039
 33
158.0
  0
3DFACE
  8
0
 10
-15.301188468933105
 20
-42.63031005859375
 30
158.0
 11
-13.741669654846191
 21
-39.9393424987793
 31
158.0
 12
-14.218016624450684
 22
-38.56013107299805
 32
158.0
 13
-14.218016624450684
 23
-38.56013107299805
 33
158.0
  0
3DFACE
  8
0
 10
-17.106164932250977
 20
-39.95682144165039
 30
158.0
 11
-17.50925064086914
 21
-41.50368881225586
 31
158.0
 12
-15.301188468933105
 22
-42.63031005859375
 32
158.0
 13
-15.301188468933105
 23
-42.63031005859375
 33
158.0
  0
3DFACE
  8
0
 10
-14.218016624450684
 20
-38.56013107299805
 30
158.0
 11
-17.106164932250977
 21
-39.95682144165039
 31
158.0
 12
-15.301188468933105
 22
-42.63031005859375
 32
158.0
 13
-15.301188468933105
 23
-42.63031005859375
 33
158.0
  0
3DFACE
  8
0
 10
22.56024932861328
 20
-38.49473190307617
 30
158.0
 11
22.553451538085938
 21
-38.5030403137207
 31
158.0
 12
22.54642105102539
 22
-38.51918411254883
 32
158.0
 13
22.54642105102539
 23
-38.51918411254883
 33
158.0
  0
3DFACE
  8
0
 10
22.541715621948242
 20
-38.87593460083008
 30
158.0
 11
22.494064331054688
 21
-39.31398010253906
 31
158.0
 12
22.515901565551758
 22
-39.380645751953125
 32
158.0
 13
22.515901565551758
 23
-39.380645751953125
 33
158.0
  0
3DFACE
  8
0
 10
22.56024932861328
 20
-38.49473190307617
 30
158.0
 11
22.54642105102539
 21
-38.51918411254883
 31
158.0
 12
22.541715621948242
 22
-38.87593460083008
 32
158.0
 13
22.541715621948242
 23
-38.87593460083008
 33
158.0
  0
3DFACE
  8
0
 10
23.287384033203125
 20
-37.81820297241211
 30
158.0
 11
23.20396614074707
 21
-37.85830307006836
 31
158.0
 12
22.56024932861328
 22
-38.49473190307617
 32
158.0
 13
22.56024932861328
 23
-38.49473190307617
 33
158.0
  0
3DFACE
  8
0
 10
24.302810668945312
 20
-37.94824981689453
 30
158.0
 11
24.015432357788086
 21
-37.7750244140625
 31
158.0
 12
23.287384033203125
 22
-37.81820297241211
 32
158.0
 13
23.287384033203125
 23
-37.81820297241211
 33
158.0
  0
3DFACE
  8
0
 10
24.999095916748047
 20
-38.455421447753906
 30
158.0
 11
24.607938766479492
 21
-38.11642837524414
 31
158.0
 12
24.302810668945312
 22
-37.94824981689453
 32
158.0
 13
24.302810668945312
 23
-37.94824981689453
 33
158.0
  0
3DFACE
  8
0
 10
25.681121826171875
 20
-39.094818115234375
 30
158.0
 11
25.183738708496094
 21
-38.570884704589844
 31
158.0
 12
24.999095916748047
 22
-38.455421447753906
 32
158.0
 13
24.999095916748047
 23
-38.455421447753906
 33
158.0
  0
3DFACE
  8
0
 10
25.73110008239746
 20
-39.145729064941406
 30
158.0
 11
25.71891212463379
 21
-39.13029479980469
 31
158.0
 12
25.681121826171875
 22
-39.094818115234375
 32
158.0
 13
25.681121826171875
 23
-39.094818115234375
 33
158.0
  0
3DFACE
  8
0
 10
25.955116271972656
 20
-39.702239990234375
 30
158.0
 11
25.808244705200195
 21
-39.27750015258789
 31
158.0
 12
25.73110008239746
 22
-39.145729064941406
 32
158.0
 13
25.73110008239746
 23
-39.145729064941406
 33
158.0
  0
3DFACE
  8
0
 10
26.029184341430664
 20
-40.85835266113281
 30
158.0
 11
26.057559967041016
 21
-40.136653900146484
 31
158.0
 12
25.955116271972656
 22
-39.702239990234375
 32
158.0
 13
25.955116271972656
 23
-39.702239990234375
 33
158.0
  0
3DFACE
  8
0
 10
25.717113494873047
 20
-41.30528259277344
 30
158.0
 11
25.992948532104492
 21
-40.93436813354492
 31
158.0
 12
26.029184341430664
 22
-40.85835266113281
 32
158.0
 13
26.029184341430664
 23
-40.85835266113281
 33
158.0
  0
3DFACE
  8
0
 10
25.34302520751953
 20
-41.69975280761719
 30
158.0
 11
25.433704376220703
 21
-41.61131286621094
 31
158.0
 12
25.717113494873047
 22
-41.30528259277344
 32
158.0
 13
25.717113494873047
 23
-41.30528259277344
 33
158.0
  0
3DFACE
  8
0
 10
24.73421859741211
 20
-41.90178298950195
 30
158.0
 11
25.09988021850586
 21
-41.79645538330078
 31
158.0
 12
25.34302520751953
 22
-41.69975280761719
 32
158.0
 13
25.34302520751953
 23
-41.69975280761719
 33
158.0
  0
3DFACE
  8
0
 10
24.102367401123047
 20
-41.88005447387695
 30
158.0
 11
24.26660919189453
 21
-41.893009185791016
 31
158.0
 12
24.73421859741211
 22
-41.90178298950195
 32
158.0
 13
24.73421859741211
 23
-41.90178298950195
 33
158.0
  0
3DFACE
  8
0
 10
23.524106979370117
 20
-41.571529388427734
 30
158.0
 11
23.748815536499023
 21
-41.70683670043945
 31
158.0
 12
24.102367401123047
 22
-41.88005447387695
 32
158.0
 13
24.102367401123047
 23
-41.88005447387695
 33
158.0
  0
3DFACE
  8
0
 10
22.9016056060791
 20
-40.68457794189453
 30
158.0
 11
22.954875946044922
 21
-40.82297897338867
 31
158.0
 12
23.494108200073242
 22
-41.507225036621094
 32
158.0
 13
23.494108200073242
 23
-41.507225036621094
 33
158.0
  0
3DFACE
  8
0
 10
23.494108200073242
 20
-41.507225036621094
 30
158.0
 11
23.524106979370117
 21
-41.571529388427734
 31
158.0
 12
24.102367401123047
 22
-41.88005447387695
 32
158.0
 13
24.102367401123047
 23
-41.88005447387695
 33
158.0
  0
3DFACE
  8
0
 10
24.102367401123047
 20
-41.88005447387695
 30
158.0
 11
24.73421859741211
 21
-41.90178298950195
 31
158.0
 12
25.34302520751953
 22
-41.69975280761719
 32
158.0
 13
25.34302520751953
 23
-41.69975280761719
 33
158.0
  0
3DFACE
  8
0
 10
25.34302520751953
 20
-41.69975280761719
 30
158.0
 11
25.717113494873047
 21
-41.30528259277344
 31
158.0
 12
26.029184341430664
 22
-40.85835266113281
 32
158.0
 13
26.029184341430664
 23
-40.85835266113281
 33
158.0
  0
3DFACE
  8
0
 10
26.029184341430664
 20
-40.85835266113281
 30
158.0
 11
25.955116271972656
 21
-39.702239990234375
 31
158.0
 12
25.73110008239746
 22
-39.145729064941406
 32
158.0
 13
25.73110008239746
 23
-39.145729064941406
 33
158.0
  0
3DFACE
  8
0
 10
25.73110008239746
 20
-39.145729064941406
 30
158.0
 11
25.681121826171875
 21
-39.094818115234375
 31
158.0
 12
24.999095916748047
 22
-38.455421447753906
 32
158.0
 13
24.999095916748047
 23
-38.455421447753906
 33
158.0
  0
3DFACE
  8
0
 10
24.999095916748047
 20
-38.455421447753906
 30
158.0
 11
24.302810668945312
 21
-37.94824981689453
 31
158.0
 12
23.287384033203125
 22
-37.81820297241211
 32
158.0
 13
23.287384033203125
 23
-37.81820297241211
 33
158.0
  0
3DFACE
  8
0
 10
23.287384033203125
 20
-37.81820297241211
 30
158.0
 11
22.56024932861328
 21
-38.49473190307617
 31
158.0
 12
22.541715621948242
 22
-38.87593460083008
 32
158.0
 13
22.541715621948242
 23
-38.87593460083008
 33
158.0
  0
3DFACE
  8
0
 10
22.541715621948242
 20
-38.87593460083008
 30
158.0
 11
22.515901565551758
 21
-39.380645751953125
 31
158.0
 12
22.639802932739258
 22
-39.721473693847656
 32
158.0
 13
22.639802932739258
 23
-39.721473693847656
 33
158.0
  0
3DFACE
  8
0
 10
22.639802932739258
 20
-39.721473693847656
 30
158.0
 11
22.715957641601562
 21
-40.17251968383789
 31
158.0
 12
22.85045623779297
 22
-40.5254020690918
 32
158.0
 13
22.85045623779297
 23
-40.5254020690918
 33
158.0
  0
3DFACE
  8
0
 10
22.85045623779297
 20
-40.5254020690918
 30
158.0
 11
22.9016056060791
 21
-40.68457794189453
 31
158.0
 12
23.494108200073242
 22
-41.507225036621094
 32
158.0
 13
23.494108200073242
 23
-41.507225036621094
 33
158.0
  0
3DFACE
  8
0
 10
23.494108200073242
 20
-41.507225036621094
 30
158.0
 11
24.102367401123047
 21
-41.88005447387695
 31
158.0
 12
25.34302520751953
 22
-41.69975280761719
 32
158.0
 13
25.34302520751953
 23
-41.69975280761719
 33
158.0
  0
3DFACE
  8
0
 10
25.34302520751953
 20
-41.69975280761719
 30
158.0
 11
26.029184341430664
 21
-40.85835266113281
 31
158.0
 12
25.73110008239746
 22
-39.145729064941406
 32
158.0
 13
25.73110008239746
 23
-39.145729064941406
 33
158.0
  0
3DFACE
  8
0
 10
25.73110008239746
 20
-39.145729064941406
 30
158.0
 11
24.999095916748047
 21
-38.455421447753906
 31
158.0
 12
23.287384033203125
 22
-37.81820297241211
 32
158.0
 13
23.287384033203125
 23
-37.81820297241211
 33
158.0
  0
3DFACE
  8
0
 10
23.287384033203125
 20
-37.81820297241211
 30
158.0
 11
22.541715621948242
 21
-38.87593460083008
 31
158.0
 12
22.639802932739258
 22
-39.721473693847656
 32
158.0
 13
22.639802932739258
 23
-39.721473693847656
 33
158.0
  0
3DFACE
  8
0
 10
22.639802932739258
 20
-39.721473693847656
 30
158.0
 11
22.85045623779297
 21
-40.5254020690918
 31
158.0
 12
23.494108200073242
 22
-41.507225036621094
 32
158.0
 13
23.494108200073242
 23
-41.507225036621094
 33
158.0
  0
3DFACE
  8
0
 10
23.494108200073242
 20
-41.507225036621094
 30
158.0
 11
25.34302520751953
 21
-41.69975280761719
 31
158.0
 12
25.73110008239746
 22
-39.145729064941406
 32
158.0
 13
25.73110008239746
 23
-39.145729064941406
 33
158.0
  0
3DFACE
  8
0
 10
25.73110008239746
 20
-39.145729064941406
 30
158.0
 11
23.287384033203125
 21
-37.81820297241211
 31
158.0
 12
22.639802932739258
 22
-39.721473693847656
 32
158.0
 13
22.639802932739258
 23
-39.721473693847656
 33
158.0
  0
3DFACE
  8
0
 10
22.639802932739258
 20
-39.721473693847656
 30
158.0
 11
23.494108200073242
 21
-41.507225036621094
 31
158.0
 12
25.73110008239746
 22
-39.145729064941406
 32
158.0
 13
25.73110008239746
 23
-39.145729064941406
 33
158.0
  0
3DFACE
  8
0
 10
57.01879119873047
 20
-5.438933372497559
 30
158.0
 11
56.37553787231445
 21
-5.707407474517822
 31
158.0
 12
55.73228073120117
 22
-6.093255519866943
 32
158.0
 13
55.73228073120117
 23
-6.093255519866943
 33
158.0
  0
3DFACE
  8
0
 10
55.73228073120117
 20
-6.093255519866943
 30
158.0
 11
55.42813491821289
 21
-6.3628458976745605
 31
158.0
 12
55.192588806152344
 22
-6.580062389373779
 32
158.0
 13
55.192588806152344
 23
-6.580062389373779
 33
158.0
  0
3DFACE
  8
0
 10
54.883724212646484
 20
-7.0688629150390625
 30
158.0
 11
54.77997970581055
 21
-7.201283931732178
 31
158.0
 12
54.67998123168945
 22
-7.358340263366699
 32
158.0
 13
54.67998123168945
 23
-7.358340263366699
 33
158.0
  0
3DFACE
  8
0
 10
55.73228073120117
 20
-6.093255519866943
 30
158.0
 11
55.192588806152344
 21
-6.580062389373779
 31
158.0
 12
54.883724212646484
 22
-7.0688629150390625
 32
158.0
 13
54.883724212646484
 23
-7.0688629150390625
 33
158.0
  0
3DFACE
  8
0
 10
57.66204833984375
 20
-5.247585296630859
 30
158.0
 11
57.01879119873047
 21
-5.438933372497559
 31
158.0
 12
55.73228073120117
 22
-6.093255519866943
 32
158.0
 13
55.73228073120117
 23
-6.093255519866943
 33
158.0
  0
3DFACE
  8
0
 10
58.01326370239258
 20
-5.197259902954102
 30
158.0
 11
57.797977447509766
 21
-5.223469257354736
 31
158.0
 12
57.66204833984375
 22
-5.247585296630859
 32
158.0
 13
57.66204833984375
 23
-5.247585296630859
 33
158.0
  0
3DFACE
  8
0
 10
59.192787170410156
 20
-5.037092208862305
 30
158.0
 11
58.58658218383789
 21
-5.0731401443481445
 31
158.0
 12
58.01326370239258
 22
-5.197259902954102
 32
158.0
 13
58.01326370239258
 23
-5.197259902954102
 33
158.0
  0
3DFACE
  8
0
 10
60.0855827331543
 20
-5.045405864715576
 30
158.0
 11
59.37517547607422
 21
-5.0153889656066895
 31
158.0
 12
59.192787170410156
 22
-5.037092208862305
 32
158.0
 13
59.192787170410156
 23
-5.037092208862305
 33
158.0
  0
3DFACE
  8
0
 10
60.30431365966797
 20
-5.06517219543457
 30
158.0
 11
60.16376495361328
 21
-5.043219089508057
 31
158.0
 12
60.0855827331543
 22
-5.045405864715576
 32
158.0
 13
60.0855827331543
 23
-5.045405864715576
 33
158.0
  0
3DFACE
  8
0
 10
60.96501922607422
 20
-5.261734962463379
 30
158.0
 11
60.769004821777344
 21
-5.181249618530273
 31
158.0
 12
60.30431365966797
 22
-5.06517219543457
 32
158.0
 13
60.30431365966797
 23
-5.06517219543457
 33
158.0
  0
3DFACE
  8
0
 10
62.38462448120117
 20
-5.855230331420898
 30
158.0
 11
61.53201675415039
 21
-5.442264080047607
 31
158.0
 12
60.96501922607422
 22
-5.261734962463379
 32
158.0
 13
60.96501922607422
 23
-5.261734962463379
 33
158.0
  0
3DFACE
  8
0
 10
63.478538513183594
 20
-6.589130401611328
 30
158.0
 11
63.239986419677734
 21
-6.422663688659668
 31
158.0
 12
62.833953857421875
 22
-6.159050464630127
 32
158.0
 13
62.833953857421875
 23
-6.159050464630127
 33
158.0
  0
3DFACE
  8
0
 10
62.833953857421875
 20
-6.159050464630127
 30
158.0
 11
62.38462448120117
 21
-5.855230331420898
 31
158.0
 12
60.96501922607422
 22
-5.261734962463379
 32
158.0
 13
60.96501922607422
 23
-5.261734962463379
 33
158.0
  0
3DFACE
  8
0
 10
60.96501922607422
 20
-5.261734962463379
 30
158.0
 11
60.30431365966797
 21
-5.06517219543457
 31
158.0
 12
60.0855827331543
 22
-5.045405864715576
 32
158.0
 13
60.0855827331543
 23
-5.045405864715576
 33
158.0
  0
3DFACE
  8
0
 10
60.0855827331543
 20
-5.045405864715576
 30
158.0
 11
59.192787170410156
 21
-5.037092208862305
 31
158.0
 12
58.01326370239258
 22
-5.197259902954102
 32
158.0
 13
58.01326370239258
 23
-5.197259902954102
 33
158.0
  0
3DFACE
  8
0
 10
58.01326370239258
 20
-5.197259902954102
 30
158.0
 11
57.66204833984375
 21
-5.247585296630859
 31
158.0
 12
55.73228073120117
 22
-6.093255519866943
 32
158.0
 13
55.73228073120117
 23
-6.093255519866943
 33
158.0
  0
3DFACE
  8
0
 10
55.73228073120117
 20
-6.093255519866943
 30
158.0
 11
54.883724212646484
 21
-7.0688629150390625
 31
158.0
 12
54.67998123168945
 22
-7.358340263366699
 32
158.0
 13
54.67998123168945
 23
-7.358340263366699
 33
158.0
  0
3DFACE
  8
0
 10
54.67998123168945
 20
-7.358340263366699
 30
158.0
 11
54.55001449584961
 21
-7.667482852935791
 31
158.0
 12
54.48760223388672
 22
-7.868402481079102
 32
158.0
 13
54.48760223388672
 23
-7.868402481079102
 33
158.0
  0
3DFACE
  8
0
 10
54.48760223388672
 20
-7.868402481079102
 30
158.0
 11
54.38505935668945
 21
-8.127547264099121
 31
158.0
 12
54.31947708129883
 22
-8.621103286743164
 32
158.0
 13
54.31947708129883
 23
-8.621103286743164
 33
158.0
  0
3DFACE
  8
0
 10
54.31947708129883
 20
-8.621103286743164
 30
158.0
 11
54.27092361450195
 21
-8.896754264831543
 31
158.0
 12
54.2772331237793
 22
-9.171426773071289
 32
158.0
 13
54.2772331237793
 23
-9.171426773071289
 33
158.0
  0
3DFACE
  8
0
 10
54.2772331237793
 20
-9.171426773071289
 30
158.0
 11
54.2786865234375
 21
-9.66596508026123
 31
158.0
 12
54.32355880737305
 22
-9.919184684753418
 32
158.0
 13
54.32355880737305
 23
-9.919184684753418
 33
158.0
  0
3DFACE
  8
0
 10
54.32355880737305
 20
-9.919184684753418
 30
158.0
 11
54.40272903442383
 21
-10.435172080993652
 31
158.0
 12
54.641754150390625
 22
-11.204380989074707
 32
158.0
 13
54.641754150390625
 23
-11.204380989074707
 33
158.0
  0
3DFACE
  8
0
 10
54.641754150390625
 20
-11.204380989074707
 30
158.0
 11
54.975250244140625
 21
-11.972201347351074
 31
158.0
 12
55.178218841552734
 22
-12.32796573638916
 32
158.0
 13
55.178218841552734
 23
-12.32796573638916
 33
158.0
  0
3DFACE
  8
0
 10
55.178218841552734
 20
-12.32796573638916
 30
158.0
 11
55.385902404785156
 21
-12.742796897888184
 31
158.0
 12
55.740787506103516
 22
-13.24357795715332
 32
158.0
 13
55.740787506103516
 23
-13.24357795715332
 33
158.0
  0
3DFACE
  8
0
 10
55.740787506103516
 20
-13.24357795715332
 30
158.0
 11
55.95359802246094
 21
-13.507882118225098
 31
158.0
 12
56.22079086303711
 22
-13.759047508239746
 32
158.0
 13
56.22079086303711
 23
-13.759047508239746
 33
158.0
  0
3DFACE
  8
0
 10
56.704647064208984
 20
-14.198407173156738
 30
158.0
 11
56.7815055847168
 21
-14.272762298583984
 31
158.0
 12
57.01879119873047
 22
-14.472760200500488
 32
158.0
 13
57.01879119873047
 23
-14.472760200500488
 33
158.0
  0
3DFACE
  8
0
 10
55.740787506103516
 20
-13.24357795715332
 30
158.0
 11
56.22079086303711
 21
-13.759047508239746
 31
158.0
 12
56.704647064208984
 22
-14.198407173156738
 32
158.0
 13
56.704647064208984
 23
-14.198407173156738
 33
158.0
  0
3DFACE
  8
0
 10
54.641754150390625
 20
-11.204380989074707
 30
158.0
 11
55.178218841552734
 21
-12.32796573638916
 31
158.0
 12
55.740787506103516
 22
-13.24357795715332
 32
158.0
 13
55.740787506103516
 23
-13.24357795715332
 33
158.0
  0
3DFACE
  8
0
 10
54.2772331237793
 20
-9.171426773071289
 30
158.0
 11
54.32355880737305
 21
-9.919184684753418
 31
158.0
 12
54.641754150390625
 22
-11.204380989074707
 32
158.0
 13
54.641754150390625
 23
-11.204380989074707
 33
158.0
  0
3DFACE
  8
0
 10
54.48760223388672
 20
-7.868402481079102
 30
158.0
 11
54.31947708129883
 21
-8.621103286743164
 31
158.0
 12
54.2772331237793
 22
-9.171426773071289
 32
158.0
 13
54.2772331237793
 23
-9.171426773071289
 33
158.0
  0
3DFACE
  8
0
 10
55.73228073120117
 20
-6.093255519866943
 30
158.0
 11
54.67998123168945
 21
-7.358340263366699
 31
158.0
 12
54.48760223388672
 22
-7.868402481079102
 32
158.0
 13
54.48760223388672
 23
-7.868402481079102
 33
158.0
  0
3DFACE
  8
0
 10
60.0855827331543
 20
-5.045405864715576
 30
158.0
 11
58.01326370239258
 21
-5.197259902954102
 31
158.0
 12
55.73228073120117
 22
-6.093255519866943
 32
158.0
 13
55.73228073120117
 23
-6.093255519866943
 33
158.0
  0
3DFACE
  8
0
 10
62.833953857421875
 20
-6.159050464630127
 30
158.0
 11
60.96501922607422
 21
-5.261734962463379
 31
158.0
 12
60.0855827331543
 22
-5.045405864715576
 32
158.0
 13
60.0855827331543
 23
-5.045405864715576
 33
158.0
  0
3DFACE
  8
0
 10
63.79707336425781
 20
-6.89120626449585
 30
158.0
 11
63.478538513183594
 21
-6.589130401611328
 31
158.0
 12
62.833953857421875
 22
-6.159050464630127
 32
158.0
 13
62.833953857421875
 23
-6.159050464630127
 33
158.0
  0
3DFACE
  8
0
 10
64.25122833251953
 20
-7.358340263366699
 30
158.0
 11
64.10676574707031
 21
-7.2032036781311035
 31
158.0
 12
63.79707336425781
 22
-6.89120626449585
 32
158.0
 13
63.79707336425781
 23
-6.89120626449585
 33
158.0
  0
3DFACE
  8
0
 10
65.0590591430664
 20
-8.896754264831543
 30
158.0
 11
64.75464630126953
 21
-8.127547264099121
 31
158.0
 12
64.32994079589844
 22
-7.491625785827637
 32
158.0
 13
64.32994079589844
 23
-7.491625785827637
 33
158.0
  0
3DFACE
  8
0
 10
64.32994079589844
 20
-7.491625785827637
 30
158.0
 11
64.25122833251953
 21
-7.358340263366699
 31
158.0
 12
63.79707336425781
 22
-6.89120626449585
 32
158.0
 13
63.79707336425781
 23
-6.89120626449585
 33
158.0
  0
3DFACE
  8
0
 10
63.79707336425781
 20
-6.89120626449585
 30
158.0
 11
62.833953857421875
 21
-6.159050464630127
 31
158.0
 12
60.0855827331543
 22
-5.045405864715576
 32
158.0
 13
60.0855827331543
 23
-5.045405864715576
 33
158.0
  0
3DFACE
  8
0
 10
60.0855827331543
 20
-5.045405864715576
 30
158.0
 11
55.73228073120117
 21
-6.093255519866943
 31
158.0
 12
54.48760223388672
 22
-7.868402481079102
 32
158.0
 13
54.48760223388672
 23
-7.868402481079102
 33
158.0
  0
3DFACE
  8
0
 10
54.48760223388672
 20
-7.868402481079102
 30
158.0
 11
54.2772331237793
 21
-9.171426773071289
 31
158.0
 12
54.641754150390625
 22
-11.204380989074707
 32
158.0
 13
54.641754150390625
 23
-11.204380989074707
 33
158.0
  0
3DFACE
  8
0
 10
54.641754150390625
 20
-11.204380989074707
 30
158.0
 11
55.740787506103516
 21
-13.24357795715332
 31
158.0
 12
56.704647064208984
 22
-14.198407173156738
 32
158.0
 13
56.704647064208984
 23
-14.198407173156738
 33
158.0
  0
3DFACE
  8
0
 10
56.704647064208984
 20
-14.198407173156738
 30
158.0
 11
57.01879119873047
 21
-14.472760200500488
 31
158.0
 12
57.66204833984375
 22
-14.864057540893555
 32
158.0
 13
57.66204833984375
 23
-14.864057540893555
 33
158.0
  0
3DFACE
  8
0
 10
57.66204833984375
 20
-14.864057540893555
 30
158.0
 11
57.84251022338867
 21
-14.94849681854248
 31
158.0
 12
58.01326370239258
 22
-15.017354011535645
 32
158.0
 13
58.01326370239258
 23
-15.017354011535645
 33
158.0
  0
3DFACE
  8
0
 10
58.01326370239258
 20
-15.017354011535645
 30
158.0
 11
58.58658218383789
 21
-15.290788650512695
 31
158.0
 12
58.94857406616211
 22
-15.423654556274414
 32
158.0
 13
58.94857406616211
 23
-15.423654556274414
 33
158.0
  0
3DFACE
  8
0
 10
58.94857406616211
 20
-15.423654556274414
 30
158.0
 11
59.37517547607422
 21
-15.507158279418945
 31
158.0
 12
60.050811767578125
 22
-15.595685005187988
 32
158.0
 13
60.050811767578125
 23
-15.595685005187988
 33
158.0
  0
3DFACE
  8
0
 10
60.050811767578125
 20
-15.595685005187988
 30
158.0
 11
60.16376876831055
 21
-15.622937202453613
 31
158.0
 12
60.55072784423828
 22
-15.616147994995117
 32
158.0
 13
60.55072784423828
 23
-15.616147994995117
 33
158.0
  0
3DFACE
  8
0
 10
60.55072784423828
 20
-15.616147994995117
 30
158.0
 11
60.87834930419922
 21
-15.599214553833008
 31
158.0
 12
60.95237731933594
 22
-15.581864356994629
 32
158.0
 13
60.95237731933594
 23
-15.581864356994629
 33
158.0
  0
3DFACE
  8
0
 10
60.95237731933594
 20
-15.581864356994629
 30
158.0
 11
61.521602630615234
 21
-15.492583274841309
 31
158.0
 12
61.73455047607422
 22
-15.424424171447754
 32
158.0
 13
61.73455047607422
 23
-15.424424171447754
 33
158.0
  0
3DFACE
  8
0
 10
61.73455047607422
 20
-15.424424171447754
 30
158.0
 11
62.156314849853516
 21
-15.270820617675781
 31
158.0
 12
62.529579162597656
 22
-15.071393966674805
 32
158.0
 13
62.529579162597656
 23
-15.071393966674805
 33
158.0
  0
3DFACE
  8
0
 10
62.529579162597656
 20
-15.071393966674805
 30
158.0
 11
62.55838394165039
 21
-15.058606147766113
 31
158.0
 12
62.57258605957031
 22
-15.050421714782715
 32
158.0
 13
62.57258605957031
 23
-15.050421714782715
 33
158.0
  0
3DFACE
  8
0
 10
62.57258605957031
 20
-15.050421714782715
 30
158.0
 11
63.32350158691406
 21
-14.507465362548828
 31
158.0
 12
63.582584381103516
 22
-14.286933898925781
 32
158.0
 13
63.582584381103516
 23
-14.286933898925781
 33
158.0
  0
3DFACE
  8
0
 10
63.582584381103516
 20
-14.286933898925781
 30
158.0
 11
64.19221496582031
 21
-13.512005805969238
 31
158.0
 12
64.22339630126953
 22
-13.460232734680176
 32
158.0
 13
64.22339630126953
 23
-13.460232734680176
 33
158.0
  0
3DFACE
  8
0
 10
64.22339630126953
 20
-13.460232734680176
 30
158.0
 11
64.29210662841797
 21
-13.339631080627441
 31
158.0
 12
64.59636688232422
 22
-12.742796897888184
 32
158.0
 13
64.59636688232422
 23
-12.742796897888184
 33
158.0
  0
3DFACE
  8
0
 10
64.59636688232422
 20
-12.742796897888184
 30
158.0
 11
64.76820373535156
 21
-12.349761962890625
 31
158.0
 12
64.91006469726562
 22
-11.973589897155762
 32
158.0
 13
64.91006469726562
 23
-11.973589897155762
 33
158.0
  0
3DFACE
  8
0
 10
64.91006469726562
 20
-11.973589897155762
 30
158.0
 11
65.11167907714844
 21
-11.204380989074707
 31
158.0
 12
65.16548156738281
 22
-10.843070983886719
 32
158.0
 13
65.16548156738281
 23
-10.843070983886719
 33
158.0
  0
3DFACE
  8
0
 10
65.16548156738281
 20
-10.843070983886719
 30
158.0
 11
65.21356964111328
 21
-10.435172080993652
 31
158.0
 12
65.19882202148438
 22
-9.894762992858887
 32
158.0
 13
65.19882202148438
 23
-9.894762992858887
 33
158.0
  0
3DFACE
  8
0
 10
65.19882202148438
 20
-9.894762992858887
 30
158.0
 11
65.187744140625
 21
-9.66596508026123
 31
158.0
 12
65.0755844116211
 22
-8.984646797180176
 32
158.0
 13
65.0755844116211
 23
-8.984646797180176
 33
158.0
  0
3DFACE
  8
0
 10
65.0755844116211
 20
-8.984646797180176
 30
158.0
 11
65.0590591430664
 21
-8.896754264831543
 31
158.0
 12
64.32994079589844
 22
-7.491625785827637
 32
158.0
 13
64.32994079589844
 23
-7.491625785827637
 33
158.0
  0
3DFACE
  8
0
 10
64.32994079589844
 20
-7.491625785827637
 30
158.0
 11
63.79707336425781
 21
-6.89120626449585
 31
158.0
 12
60.0855827331543
 22
-5.045405864715576
 32
158.0
 13
60.0855827331543
 23
-5.045405864715576
 33
158.0
  0
3DFACE
  8
0
 10
60.0855827331543
 20
-5.045405864715576
 30
158.0
 11
54.48760223388672
 21
-7.868402481079102
 31
158.0
 12
54.641754150390625
 22
-11.204380989074707
 32
158.0
 13
54.641754150390625
 23
-11.204380989074707
 33
158.0
  0
3DFACE
  8
0
 10
54.641754150390625
 20
-11.204380989074707
 30
158.0
 11
56.704647064208984
 21
-14.198407173156738
 31
158.0
 12
57.66204833984375
 22
-14.864057540893555
 32
158.0
 13
57.66204833984375
 23
-14.864057540893555
 33
158.0
  0
3DFACE
  8
0
 10
57.66204833984375
 20
-14.864057540893555
 30
158.0
 11
58.01326370239258
 21
-15.017354011535645
 31
158.0
 12
58.94857406616211
 22
-15.423654556274414
 32
158.0
 13
58.94857406616211
 23
-15.423654556274414
 33
158.0
  0
3DFACE
  8
0
 10
58.94857406616211
 20
-15.423654556274414
 30
158.0
 11
60.050811767578125
 21
-15.595685005187988
 31
158.0
 12
60.55072784423828
 22
-15.616147994995117
 32
158.0
 13
60.55072784423828
 23
-15.616147994995117
 33
158.0
  0
3DFACE
  8
0
 10
60.55072784423828
 20
-15.616147994995117
 30
158.0
 11
60.95237731933594
 21
-15.581864356994629
 31
158.0
 12
61.73455047607422
 22
-15.424424171447754
 32
158.0
 13
61.73455047607422
 23
-15.424424171447754
 33
158.0
  0
3DFACE
  8
0
 10
61.73455047607422
 20
-15.424424171447754
 30
158.0
 11
62.529579162597656
 21
-15.071393966674805
 31
158.0
 12
62.57258605957031
 22
-15.050421714782715
 32
158.0
 13
62.57258605957031
 23
-15.050421714782715
 33
158.0
  0
3DFACE
  8
0
 10
62.57258605957031
 20
-15.050421714782715
 30
158.0
 11
63.582584381103516
 21
-14.286933898925781
 31
158.0
 12
64.22339630126953
 22
-13.460232734680176
 32
158.0
 13
64.22339630126953
 23
-13.460232734680176
 33
158.0
  0
3DFACE
  8
0
 10
64.22339630126953
 20
-13.460232734680176
 30
158.0
 11
64.59636688232422
 21
-12.742796897888184
 31
158.0
 12
64.91006469726562
 22
-11.973589897155762
 32
158.0
 13
64.91006469726562
 23
-11.973589897155762
 33
158.0
  0
3DFACE
  8
0
 10
64.91006469726562
 20
-11.973589897155762
 30
158.0
 11
65.16548156738281
 21
-10.843070983886719
 31
158.0
 12
65.19882202148438
 22
-9.894762992858887
 32
158.0
 13
65.19882202148438
 23
-9.894762992858887
 33
158.0
  0
3DFACE
  8
0
 10
65.19882202148438
 20
-9.894762992858887
 30
158.0
 11
65.0755844116211
 21
-8.984646797180176
 31
158.0
 12
64.32994079589844
 22
-7.491625785827637
 32
158.0
 13
64.32994079589844
 23
-7.491625785827637
 33
158.0
  0
3DFACE
  8
0
 10
64.32994079589844
 20
-7.491625785827637
 30
158.0
 11
60.0855827331543
 21
-5.045405864715576
 31
158.0
 12
54.641754150390625
 22
-11.204380989074707
 32
158.0
 13
54.641754150390625
 23
-11.204380989074707
 33
158.0
  0
3DFACE
  8
0
 10
54.641754150390625
 20
-11.204380989074707
 30
158.0
 11
57.66204833984375
 21
-14.864057540893555
 31
158.0
 12
58.94857406616211
 22
-15.423654556274414
 32
158.0
 13
58.94857406616211
 23
-15.423654556274414
 33
158.0
  0
3DFACE
  8
0
 10
58.94857406616211
 20
-15.423654556274414
 30
158.0
 11
60.55072784423828
 21
-15.616147994995117
 31
158.0
 12
61.73455047607422
 22
-15.424424171447754
 32
158.0
 13
61.73455047607422
 23
-15.424424171447754
 33
158.0
  0
3DFACE
  8
0
 10
61.73455047607422
 20
-15.424424171447754
 30
158.0
 11
62.57258605957031
 21
-15.050421714782715
 31
158.0
 12
64.22339630126953
 22
-13.460232734680176
 32
158.0
 13
64.22339630126953
 23
-13.460232734680176
 33
158.0
  0
3DFACE
  8
0
 10
64.22339630126953
 20
-13.460232734680176
 30
158.0
 11
64.91006469726562
 21
-11.973589897155762
 31
158.0
 12
65.19882202148438
 22
-9.894762992858887
 32
158.0
 13
65.19882202148438
 23
-9.894762992858887
 33
158.0
  0
3DFACE
  8
0
 10
65.19882202148438
 20
-9.894762992858887
 30
158.0
 11
64.32994079589844
 21
-7.491625785827637
 31
158.0
 12
54.641754150390625
 22
-11.204380989074707
 32
158.0
 13
54.641754150390625
 23
-11.204380989074707
 33
158.0
  0
3DFACE
  8
0
 10
54.641754150390625
 20
-11.204380989074707
 30
158.0
 11
58.94857406616211
 21
-15.423654556274414
 31
158.0
 12
61.73455047607422
 22
-15.424424171447754
 32
158.0
 13
61.73455047607422
 23
-15.424424171447754
 33
158.0
  0
3DFACE
  8
0
 10
61.73455047607422
 20
-15.424424171447754
 30
158.0
 11
64.22339630126953
 21
-13.460232734680176
 31
158.0
 12
65.19882202148438
 22
-9.894762992858887
 32
158.0
 13
65.19882202148438
 23
-9.894762992858887
 33
158.0
  0
3DFACE
  8
0
 10
54.641754150390625
 20
-11.204380989074707
 30
158.0
 11
61.73455047607422
 21
-15.424424171447754
 31
158.0
 12
65.19882202148438
 22
-9.894762992858887
 32
158.0
 13
65.19882202148438
 23
-9.894762992858887
 33
158.0
  0
3DFACE
  8
0
 10
-36.00471115112305
 20
31.319000244140625
 30
158.0
 11
-35.96527862548828
 21
31.313419342041016
 31
158.0
 12
-35.879085540771484
 22
31.319732666015625
 32
158.0
 13
-35.879085540771484
 23
31.319732666015625
 33
158.0
  0
3DFACE
  8
0
 10
-35.879085540771484
 20
31.319732666015625
 30
158.0
 11
-35.33689498901367
 21
31.378623962402344
 31
158.0
 12
-35.158226013183594
 22
31.4245548248291
 32
158.0
 13
-35.158226013183594
 23
31.4245548248291
 33
158.0
  0
3DFACE
  8
0
 10
-35.158226013183594
 20
31.4245548248291
 30
158.0
 11
-34.66259765625
 21
31.543119430541992
 31
158.0
 12
-34.3597526550293
 22
31.65958595275879
 32
158.0
 13
-34.3597526550293
 23
31.65958595275879
 33
158.0
  0
3DFACE
  8
0
 10
-33.784610748291016
 20
31.931066513061523
 30
158.0
 11
-33.569698333740234
 21
32.016578674316406
 31
158.0
 12
-33.339752197265625
 22
32.161373138427734
 32
158.0
 13
-33.339752197265625
 23
32.161373138427734
 33
158.0
  0
3DFACE
  8
0
 10
-35.158226013183594
 20
31.4245548248291
 30
158.0
 11
-34.3597526550293
 21
31.65958595275879
 31
158.0
 12
-33.784610748291016
 22
31.931066513061523
 32
158.0
 13
-33.784610748291016
 23
31.931066513061523
 33
158.0
  0
3DFACE
  8
0
 10
-36.00471115112305
 20
31.319000244140625
 30
158.0
 11
-35.879085540771484
 21
31.319732666015625
 31
158.0
 12
-35.158226013183594
 22
31.4245548248291
 32
158.0
 13
-35.158226013183594
 23
31.4245548248291
 33
158.0
  0
3DFACE
  8
0
 10
-37.12614059448242
 20
31.433584213256836
 30
158.0
 11
-36.784027099609375
 21
31.371652603149414
 31
158.0
 12
-36.00471115112305
 22
31.319000244140625
 32
158.0
 13
-36.00471115112305
 23
31.319000244140625
 33
158.0
  0
3DFACE
  8
0
 10
-38.43373489379883
 20
31.756227493286133
 30
158.0
 11
-37.58250427246094
 21
31.49801254272461
 31
158.0
 12
-37.12614059448242
 22
31.433584213256836
 32
158.0
 13
-37.12614059448242
 23
31.433584213256836
 33
158.0
  0
3DFACE
  8
0
 10
-39.02678298950195
 20
32.02260208129883
 30
158.0
 11
-38.44025421142578
 21
31.758792877197266
 31
158.0
 12
-38.43373489379883
 22
31.756227493286133
 32
158.0
 13
-38.43373489379883
 23
31.756227493286133
 33
158.0
  0
3DFACE
  8
0
 10
-40.33848190307617
 20
32.843841552734375
 30
158.0
 11
-39.27229690551758
 21
32.1687126159668
 31
158.0
 12
-39.02678298950195
 22
32.02260208129883
 32
158.0
 13
-39.02678298950195
 23
32.02260208129883
 33
158.0
  0
3DFACE
  8
0
 10
-40.60323715209961
 20
33.04780578613281
 30
158.0
 11
-40.49580764770508
 21
32.95537185668945
 31
158.0
 12
-40.33848190307617
 22
32.843841552734375
 32
158.0
 13
-40.33848190307617
 23
32.843841552734375
 33
158.0
  0
3DFACE
  8
0
 10
-41.51124572753906
 20
33.80082321166992
 30
158.0
 11
-41.33255386352539
 21
33.62725067138672
 31
158.0
 12
-40.99538040161133
 22
33.36370086669922
 32
158.0
 13
-40.99538040161133
 23
33.36370086669922
 33
158.0
  0
3DFACE
  8
0
 10
-40.99538040161133
 20
33.36370086669922
 30
158.0
 11
-40.60323715209961
 21
33.04780578613281
 31
158.0
 12
-40.33848190307617
 22
32.843841552734375
 32
158.0
 13
-40.33848190307617
 23
32.843841552734375
 33
158.0
  0
3DFACE
  8
0
 10
-40.33848190307617
 20
32.843841552734375
 30
158.0
 11
-39.02678298950195
 21
32.02260208129883
 31
158.0
 12
-38.43373489379883
 22
31.756227493286133
 32
158.0
 13
-38.43373489379883
 23
31.756227493286133
 33
158.0
  0
3DFACE
  8
0
 10
-38.43373489379883
 20
31.756227493286133
 30
158.0
 11
-37.12614059448242
 21
31.433584213256836
 31
158.0
 12
-36.00471115112305
 22
31.319000244140625
 32
158.0
 13
-36.00471115112305
 23
31.319000244140625
 33
158.0
  0
3DFACE
  8
0
 10
-36.00471115112305
 20
31.319000244140625
 30
158.0
 11
-35.158226013183594
 21
31.4245548248291
 31
158.0
 12
-33.784610748291016
 22
31.931066513061523
 32
158.0
 13
-33.784610748291016
 23
31.931066513061523
 33
158.0
  0
3DFACE
  8
0
 10
-33.784610748291016
 20
31.931066513061523
 30
158.0
 11
-33.339752197265625
 21
32.161373138427734
 31
158.0
 12
-32.76431655883789
 22
32.63105773925781
 32
158.0
 13
-32.76431655883789
 23
32.63105773925781
 33
158.0
  0
3DFACE
  8
0
 10
-32.76431655883789
 20
32.63105773925781
 30
158.0
 11
-32.43396759033203
 21
32.95342254638672
 31
158.0
 12
-32.01657485961914
 22
33.42574691772461
 32
158.0
 13
-32.01657485961914
 23
33.42574691772461
 33
158.0
  0
3DFACE
  8
0
 10
-32.01657485961914
 20
33.42574691772461
 30
158.0
 11
-31.808664321899414
 21
33.746910095214844
 31
158.0
 12
-31.427331924438477
 22
34.430519104003906
 32
158.0
 13
-31.427331924438477
 23
34.430519104003906
 33
158.0
  0
3DFACE
  8
0
 10
-31.427331924438477
 20
34.430519104003906
 30
158.0
 11
-31.341676712036133
 21
34.57501983642578
 31
158.0
 12
-31.308242797851562
 22
34.6606330871582
 32
158.0
 13
-31.308242797851562
 23
34.6606330871582
 33
158.0
  0
3DFACE
  8
0
 10
-31.308242797851562
 20
34.6606330871582
 30
158.0
 11
-31.160030364990234
 21
35.096866607666016
 31
158.0
 12
-30.978912353515625
 22
35.859954833984375
 32
158.0
 13
-30.978912353515625
 23
35.859954833984375
 33
158.0
  0
3DFACE
  8
0
 10
-30.978912353515625
 20
35.859954833984375
 30
158.0
 11
-30.8754825592041
 21
36.5069580078125
 31
158.0
 12
-30.851917266845703
 22
36.725650787353516
 32
158.0
 13
-30.851917266845703
 23
36.725650787353516
 33
158.0
  0
3DFACE
  8
0
 10
-30.851917266845703
 20
36.725650787353516
 30
158.0
 11
-30.828615188598633
 21
37.177635192871094
 31
158.0
 12
-30.866960525512695
 22
37.72810363769531
 32
158.0
 13
-30.866960525512695
 23
37.72810363769531
 33
158.0
  0
3DFACE
  8
0
 10
-30.866960525512695
 20
37.72810363769531
 30
158.0
 11
-30.873716354370117
 21
37.79322814941406
 31
158.0
 12
-30.87922477722168
 22
37.82528305053711
 32
158.0
 13
-30.87922477722168
 23
37.82528305053711
 33
158.0
  0
3DFACE
  8
0
 10
-30.87922477722168
 20
37.82528305053711
 30
158.0
 11
-30.98817253112793
 21
38.59778594970703
 31
158.0
 12
-31.08620262145996
 22
39.029815673828125
 32
158.0
 13
-31.08620262145996
 23
39.029815673828125
 33
158.0
  0
3DFACE
  8
0
 10
-31.219526290893555
 20
39.40233612060547
 30
158.0
 11
-31.29185676574707
 21
39.63410186767578
 31
158.0
 12
-31.63234519958496
 22
40.287078857421875
 32
158.0
 13
-31.63234519958496
 23
40.287078857421875
 33
158.0
  0
3DFACE
  8
0
 10
-30.87922477722168
 20
37.82528305053711
 30
158.0
 11
-31.08620262145996
 21
39.029815673828125
 31
158.0
 12
-31.219526290893555
 22
39.40233612060547
 32
158.0
 13
-31.219526290893555
 23
39.40233612060547
 33
158.0
  0
3DFACE
  8
0
 10
-30.851917266845703
 20
36.725650787353516
 30
158.0
 11
-30.866960525512695
 21
37.72810363769531
 31
158.0
 12
-30.87922477722168
 22
37.82528305053711
 32
158.0
 13
-30.87922477722168
 23
37.82528305053711
 33
158.0
  0
3DFACE
  8
0
 10
-31.308242797851562
 20
34.6606330871582
 30
158.0
 11
-30.978912353515625
 21
35.859954833984375
 31
158.0
 12
-30.851917266845703
 22
36.725650787353516
 32
158.0
 13
-30.851917266845703
 23
36.725650787353516
 33
158.0
  0
3DFACE
  8
0
 10
-32.01657485961914
 20
33.42574691772461
 30
158.0
 11
-31.427331924438477
 21
34.430519104003906
 31
158.0
 12
-31.308242797851562
 22
34.6606330871582
 32
158.0
 13
-31.308242797851562
 23
34.6606330871582
 33
158.0
  0
3DFACE
  8
0
 10
-33.784610748291016
 20
31.931066513061523
 30
158.0
 11
-32.76431655883789
 21
32.63105773925781
 31
158.0
 12
-32.01657485961914
 22
33.42574691772461
 32
158.0
 13
-32.01657485961914
 23
33.42574691772461
 33
158.0
  0
3DFACE
  8
0
 10
-38.43373489379883
 20
31.756227493286133
 30
158.0
 11
-36.00471115112305
 21
31.319000244140625
 31
158.0
 12
-33.784610748291016
 22
31.931066513061523
 32
158.0
 13
-33.784610748291016
 23
31.931066513061523
 33
158.0
  0
3DFACE
  8
0
 10
-40.99538040161133
 20
33.36370086669922
 30
158.0
 11
-40.33848190307617
 21
32.843841552734375
 31
158.0
 12
-38.43373489379883
 22
31.756227493286133
 32
158.0
 13
-38.43373489379883
 23
31.756227493286133
 33
158.0
  0
3DFACE
  8
0
 10
-41.86177444458008
 20
34.159969329833984
 30
158.0
 11
-41.51124572753906
 21
33.80082321166992
 31
158.0
 12
-40.99538040161133
 22
33.36370086669922
 32
158.0
 13
-40.99538040161133
 23
33.36370086669922
 33
158.0
  0
3DFACE
  8
0
 10
-42.292449951171875
 20
34.57379150390625
 30
158.0
 11
-41.97420883178711
 21
34.265869140625
 31
158.0
 12
-41.86177444458008
 22
34.159969329833984
 32
158.0
 13
-41.86177444458008
 23
34.159969329833984
 33
158.0
  0
3DFACE
  8
0
 10
-42.94755554199219
 20
35.436466217041016
 30
158.0
 11
-42.908451080322266
 21
35.379573822021484
 31
158.0
 12
-42.527679443359375
 22
34.907100677490234
 32
158.0
 13
-42.527679443359375
 23
34.907100677490234
 33
158.0
  0
3DFACE
  8
0
 10
-42.527679443359375
 20
34.907100677490234
 30
158.0
 11
-42.292449951171875
 21
34.57379150390625
 31
158.0
 12
-41.86177444458008
 22
34.159969329833984
 32
158.0
 13
-41.86177444458008
 23
34.159969329833984
 33
158.0
  0
3DFACE
  8
0
 10
-41.86177444458008
 20
34.159969329833984
 30
158.0
 11
-40.99538040161133
 21
33.36370086669922
 31
158.0
 12
-38.43373489379883
 22
31.756227493286133
 32
158.0
 13
-38.43373489379883
 23
31.756227493286133
 33
158.0
  0
3DFACE
  8
0
 10
-38.43373489379883
 20
31.756227493286133
 30
158.0
 11
-33.784610748291016
 21
31.931066513061523
 31
158.0
 12
-32.01657485961914
 22
33.42574691772461
 32
158.0
 13
-32.01657485961914
 23
33.42574691772461
 33
158.0
  0
3DFACE
  8
0
 10
-32.01657485961914
 20
33.42574691772461
 30
158.0
 11
-31.308242797851562
 21
34.6606330871582
 31
158.0
 12
-30.851917266845703
 22
36.725650787353516
 32
158.0
 13
-30.851917266845703
 23
36.725650787353516
 33
158.0
  0
3DFACE
  8
0
 10
-30.851917266845703
 20
36.725650787353516
 30
158.0
 11
-30.87922477722168
 21
37.82528305053711
 31
158.0
 12
-31.219526290893555
 22
39.40233612060547
 32
158.0
 13
-31.219526290893555
 23
39.40233612060547
 33
158.0
  0
3DFACE
  8
0
 10
-31.219526290893555
 20
39.40233612060547
 30
158.0
 11
-31.63234519958496
 21
40.287078857421875
 31
158.0
 12
-31.645811080932617
 22
40.30629348754883
 32
158.0
 13
-31.645811080932617
 23
40.30629348754883
 33
158.0
  0
3DFACE
  8
0
 10
-31.645811080932617
 20
40.30629348754883
 30
158.0
 11
-31.950223922729492
 21
40.794254302978516
 31
158.0
 12
-32.35786437988281
 22
41.34544372558594
 32
158.0
 13
-32.35786437988281
 23
41.34544372558594
 33
158.0
  0
3DFACE
  8
0
 10
-32.35786437988281
 20
41.34544372558594
 30
158.0
 11
-32.78028106689453
 21
41.816341400146484
 31
158.0
 12
-32.97331237792969
 22
41.99411392211914
 32
158.0
 13
-32.97331237792969
 23
41.99411392211914
 33
158.0
  0
3DFACE
  8
0
 10
-32.97331237792969
 20
41.99411392211914
 30
158.0
 11
-33.500240325927734
 21
42.393096923828125
 31
158.0
 12
-33.82683181762695
 22
42.59569549560547
 32
158.0
 13
-33.82683181762695
 23
42.59569549560547
 33
158.0
  0
3DFACE
  8
0
 10
-33.82683181762695
 20
42.59569549560547
 30
158.0
 11
-34.21167755126953
 21
42.8752555847168
 31
158.0
 12
-34.828369140625
 22
43.179168701171875
 32
158.0
 13
-34.828369140625
 23
43.179168701171875
 33
158.0
  0
3DFACE
  8
0
 10
-34.828369140625
 20
43.179168701171875
 30
158.0
 11
-35.139652252197266
 21
43.31258010864258
 31
158.0
 12
-35.99747848510742
 22
43.56623458862305
 32
158.0
 13
-35.99747848510742
 23
43.56623458862305
 33
158.0
  0
3DFACE
  8
0
 10
-35.99747848510742
 20
43.56623458862305
 30
158.0
 11
-36.17884063720703
 21
43.60176467895508
 31
158.0
 12
-36.81896209716797
 22
43.66394805908203
 32
158.0
 13
-36.81896209716797
 23
43.66394805908203
 33
158.0
  0
3DFACE
  8
0
 10
-36.81896209716797
 20
43.66394805908203
 30
158.0
 11
-37.230350494384766
 21
43.68457794189453
 31
158.0
 12
-37.53015899658203
 22
43.68660354614258
 32
158.0
 13
-37.53015899658203
 23
43.68660354614258
 33
158.0
  0
3DFACE
  8
0
 10
-37.53015899658203
 20
43.68660354614258
 30
158.0
 11
-37.63444137573242
 21
43.67471694946289
 31
158.0
 12
-38.12343215942383
 22
43.60944366455078
 32
158.0
 13
-38.12343215942383
 23
43.60944366455078
 33
158.0
  0
3DFACE
  8
0
 10
-38.12343215942383
 20
43.60944366455078
 30
158.0
 11
-38.44222640991211
 21
43.57427978515625
 31
158.0
 12
-38.607704162597656
 22
43.52894973754883
 32
158.0
 13
-38.607704162597656
 23
43.52894973754883
 33
158.0
  0
3DFACE
  8
0
 10
-38.607704162597656
 20
43.52894973754883
 30
158.0
 11
-39.033321380615234
 21
43.42509078979492
 31
158.0
 12
-39.24271011352539
 22
43.368106842041016
 32
158.0
 13
-39.24271011352539
 23
43.368106842041016
 33
158.0
  0
3DFACE
  8
0
 10
-39.35899353027344
 20
43.32053756713867
 30
158.0
 11
-40.03704071044922
 21
43.07312774658203
 31
158.0
 12
-40.8309440612793
 22
42.6328125
 32
158.0
 13
-40.8309440612793
 23
42.6328125
 33
158.0
  0
3DFACE
  8
0
 10
-38.607704162597656
 20
43.52894973754883
 30
158.0
 11
-39.24271011352539
 21
43.368106842041016
 31
158.0
 12
-39.35899353027344
 22
43.32053756713867
 32
158.0
 13
-39.35899353027344
 23
43.32053756713867
 33
158.0
  0
3DFACE
  8
0
 10
-37.53015899658203
 20
43.68660354614258
 30
158.0
 11
-38.12343215942383
 21
43.60944366455078
 31
158.0
 12
-38.607704162597656
 22
43.52894973754883
 32
158.0
 13
-38.607704162597656
 23
43.52894973754883
 33
158.0
  0
3DFACE
  8
0
 10
-35.99747848510742
 20
43.56623458862305
 30
158.0
 11
-36.81896209716797
 21
43.66394805908203
 31
158.0
 12
-37.53015899658203
 22
43.68660354614258
 32
158.0
 13
-37.53015899658203
 23
43.68660354614258
 33
158.0
  0
3DFACE
  8
0
 10
-33.82683181762695
 20
42.59569549560547
 30
158.0
 11
-34.828369140625
 21
43.179168701171875
 31
158.0
 12
-35.99747848510742
 22
43.56623458862305
 32
158.0
 13
-35.99747848510742
 23
43.56623458862305
 33
158.0
  0
3DFACE
  8
0
 10
-32.35786437988281
 20
41.34544372558594
 30
158.0
 11
-32.97331237792969
 21
41.99411392211914
 31
158.0
 12
-33.82683181762695
 22
42.59569549560547
 32
158.0
 13
-33.82683181762695
 23
42.59569549560547
 33
158.0
  0
3DFACE
  8
0
 10
-31.219526290893555
 20
39.40233612060547
 30
158.0
 11
-31.645811080932617
 21
40.30629348754883
 31
158.0
 12
-32.35786437988281
 22
41.34544372558594
 32
158.0
 13
-32.35786437988281
 23
41.34544372558594
 33
158.0
  0
3DFACE
  8
0
 10
-32.01657485961914
 20
33.42574691772461
 30
158.0
 11
-30.851917266845703
 21
36.725650787353516
 31
158.0
 12
-31.219526290893555
 22
39.40233612060547
 32
158.0
 13
-31.219526290893555
 23
39.40233612060547
 33
158.0
  0
3DFACE
  8
0
 10
-41.86177444458008
 20
34.159969329833984
 30
158.0
 11
-38.43373489379883
 21
31.756227493286133
 31
158.0
 12
-32.01657485961914
 22
33.42574691772461
 32
158.0
 13
-32.01657485961914
 23
33.42574691772461
 33
158.0
  0
3DFACE
  8
0
 10
-42.94755554199219
 20
35.436466217041016
 30
158.0
 11
-42.527679443359375
 21
34.907100677490234
 31
158.0
 12
-41.86177444458008
 22
34.159969329833984
 32
158.0
 13
-41.86177444458008
 23
34.159969329833984
 33
158.0
  0
3DFACE
  8
0
 10
-43.247982025146484
 20
36.11807632446289
 30
158.0
 11
-43.07508850097656
 21
35.69224166870117
 31
158.0
 12
-42.94755554199219
 22
35.436466217041016
 32
158.0
 13
-42.94755554199219
 23
35.436466217041016
 33
158.0
  0
3DFACE
  8
0
 10
-43.41620635986328
 20
36.64984893798828
 30
158.0
 11
-43.273475646972656
 21
36.18413162231445
 31
158.0
 12
-43.247982025146484
 22
36.11807632446289
 32
158.0
 13
-43.247982025146484
 23
36.11807632446289
 33
158.0
  0
3DFACE
  8
0
 10
-43.51327133178711
 20
37.59824752807617
 30
158.0
 11
-43.47300338745117
 21
36.988677978515625
 31
158.0
 12
-43.41620635986328
 22
36.64984893798828
 32
158.0
 13
-43.41620635986328
 23
36.64984893798828
 33
158.0
  0
3DFACE
  8
0
 10
-43.491390228271484
 20
38.29024124145508
 30
158.0
 11
-43.513816833496094
 21
37.77910614013672
 31
158.0
 12
-43.51327133178711
 22
37.59824752807617
 32
158.0
 13
-43.51327133178711
 23
37.59824752807617
 33
158.0
  0
3DFACE
  8
0
 10
-43.38750076293945
 20
38.928375244140625
 30
158.0
 11
-43.44369125366211
 21
38.597782135009766
 31
158.0
 12
-43.491390228271484
 22
38.29024124145508
 32
158.0
 13
-43.491390228271484
 23
38.29024124145508
 33
158.0
  0
3DFACE
  8
0
 10
-43.03132629394531
 20
40.17512130737305
 30
158.0
 11
-43.0411262512207
 21
40.15445327758789
 31
158.0
 12
-43.38750076293945
 22
38.928375244140625
 32
158.0
 13
-43.38750076293945
 23
38.928375244140625
 33
158.0
  0
3DFACE
  8
0
 10
-42.35673141479492
 20
41.27198028564453
 30
158.0
 11
-42.54292297363281
 21
41.011436462402344
 31
158.0
 12
-43.012107849121094
 22
40.20688247680664
 32
158.0
 13
-43.012107849121094
 23
40.20688247680664
 33
158.0
  0
3DFACE
  8
0
 10
-43.012107849121094
 20
40.20688247680664
 30
158.0
 11
-43.03132629394531
 21
40.17512130737305
 31
158.0
 12
-43.38750076293945
 22
38.928375244140625
 32
158.0
 13
-43.38750076293945
 23
38.928375244140625
 33
158.0
  0
3DFACE
  8
0
 10
-43.38750076293945
 20
38.928375244140625
 30
158.0
 11
-43.491390228271484
 21
38.29024124145508
 31
158.0
 12
-43.51327133178711
 22
37.59824752807617
 32
158.0
 13
-43.51327133178711
 23
37.59824752807617
 33
158.0
  0
3DFACE
  8
0
 10
-43.51327133178711
 20
37.59824752807617
 30
158.0
 11
-43.41620635986328
 21
36.64984893798828
 31
158.0
 12
-43.247982025146484
 22
36.11807632446289
 32
158.0
 13
-43.247982025146484
 23
36.11807632446289
 33
158.0
  0
3DFACE
  8
0
 10
-43.247982025146484
 20
36.11807632446289
 30
158.0
 11
-42.94755554199219
 21
35.436466217041016
 31
158.0
 12
-41.86177444458008
 22
34.159969329833984
 32
158.0
 13
-41.86177444458008
 23
34.159969329833984
 33
158.0
  0
3DFACE
  8
0
 10
-41.86177444458008
 20
34.159969329833984
 30
158.0
 11
-32.01657485961914
 21
33.42574691772461
 31
158.0
 12
-31.219526290893555
 22
39.40233612060547
 32
158.0
 13
-31.219526290893555
 23
39.40233612060547
 33
158.0
  0
3DFACE
  8
0
 10
-31.219526290893555
 20
39.40233612060547
 30
158.0
 11
-32.35786437988281
 21
41.34544372558594
 31
158.0
 12
-33.82683181762695
 22
42.59569549560547
 32
158.0
 13
-33.82683181762695
 23
42.59569549560547
 33
158.0
  0
3DFACE
  8
0
 10
-33.82683181762695
 20
42.59569549560547
 30
158.0
 11
-35.99747848510742
 21
43.56623458862305
 31
158.0
 12
-37.53015899658203
 22
43.68660354614258
 32
158.0
 13
-37.53015899658203
 23
43.68660354614258
 33
158.0
  0
3DFACE
  8
0
 10
-37.53015899658203
 20
43.68660354614258
 30
158.0
 11
-38.607704162597656
 21
43.52894973754883
 31
158.0
 12
-39.35899353027344
 22
43.32053756713867
 32
158.0
 13
-39.35899353027344
 23
43.32053756713867
 33
158.0
  0
3DFACE
  8
0
 10
-39.35899353027344
 20
43.32053756713867
 30
158.0
 11
-40.8309440612793
 21
42.6328125
 31
158.0
 12
-40.84490966796875
 22
42.62456512451172
 32
158.0
 13
-40.84490966796875
 23
42.62456512451172
 33
158.0
  0
3DFACE
  8
0
 10
-40.84490966796875
 20
42.62456512451172
 30
158.0
 11
-40.84730911254883
 21
42.622920989990234
 31
158.0
 12
-41.59668731689453
 22
42.06304168701172
 32
158.0
 13
-41.59668731689453
 23
42.06304168701172
 33
158.0
  0
3DFACE
  8
0
 10
-41.59668731689453
 20
42.06304168701172
 30
158.0
 11
-41.86542510986328
 21
41.81157302856445
 31
158.0
 12
-42.35673141479492
 22
41.27198028564453
 32
158.0
 13
-42.35673141479492
 23
41.27198028564453
 33
158.0
  0
3DFACE
  8
0
 10
-42.35673141479492
 20
41.27198028564453
 30
158.0
 11
-43.012107849121094
 21
40.20688247680664
 31
158.0
 12
-43.38750076293945
 22
38.928375244140625
 32
158.0
 13
-43.38750076293945
 23
38.928375244140625
 33
158.0
  0
3DFACE
  8
0
 10
-43.38750076293945
 20
38.928375244140625
 30
158.0
 11
-43.51327133178711
 21
37.59824752807617
 31
158.0
 12
-43.247982025146484
 22
36.11807632446289
 32
158.0
 13
-43.247982025146484
 23
36.11807632446289
 33
158.0
  0
3DFACE
  8
0
 10
-43.247982025146484
 20
36.11807632446289
 30
158.0
 11
-41.86177444458008
 21
34.159969329833984
 31
158.0
 12
-31.219526290893555
 22
39.40233612060547
 32
158.0
 13
-31.219526290893555
 23
39.40233612060547
 33
158.0
  0
3DFACE
  8
0
 10
-31.219526290893555
 20
39.40233612060547
 30
158.0
 11
-33.82683181762695
 21
42.59569549560547
 31
158.0
 12
-37.53015899658203
 22
43.68660354614258
 32
158.0
 13
-37.53015899658203
 23
43.68660354614258
 33
158.0
  0
3DFACE
  8
0
 10
-37.53015899658203
 20
43.68660354614258
 30
158.0
 11
-39.35899353027344
 21
43.32053756713867
 31
158.0
 12
-40.84490966796875
 22
42.62456512451172
 32
158.0
 13
-40.84490966796875
 23
42.62456512451172
 33
158.0
  0
3DFACE
  8
0
 10
-40.84490966796875
 20
42.62456512451172
 30
158.0
 11
-41.59668731689453
 21
42.06304168701172
 31
158.0
 12
-42.35673141479492
 22
41.27198028564453
 32
158.0
 13
-42.35673141479492
 23
41.27198028564453
 33
158.0
  0
3DFACE
  8
0
 10
-42.35673141479492
 20
41.27198028564453
 30
158.0
 11
-43.38750076293945
 21
38.928375244140625
 31
158.0
 12
-43.247982025146484
 22
36.11807632446289
 32
158.0
 13
-43.247982025146484
 23
36.11807632446289
 33
158.0
  0
3DFACE
  8
0
 10
-43.247982025146484
 20
36.11807632446289
 30
158.0
 11
-31.219526290893555
 21
39.40233612060547
 31
158.0
 12
-37.53015899658203
 22
43.68660354614258
 32
158.0
 13
-37.53015899658203
 23
43.68660354614258
 33
158.0
  0
3DFACE
  8
0
 10
-37.53015899658203
 20
43.68660354614258
 30
158.0
 11
-40.84490966796875
 21
42.62456512451172
 31
158.0
 12
-42.35673141479492
 22
41.27198028564453
 32
158.0
 13
-42.35673141479492
 23
41.27198028564453
 33
158.0
  0
3DFACE
  8
0
 10
-37.53015899658203
 20
43.68660354614258
 30
158.0
 11
-42.35673141479492
 21
41.27198028564453
 31
158.0
 12
-43.247982025146484
 22
36.11807632446289
 32
158.0
 13
-43.247982025146484
 23
36.11807632446289
 33
158.0
  0
3DFACE
  8
0
 10
26.926239013671875
 20
45.23008346557617
 30
158.0
 11
26.927034378051758
 21
45.223270416259766
 31
158.0
 12
26.928258895874023
 22
45.21958541870117
 32
158.0
 13
26.928258895874023
 23
45.21958541870117
 33
158.0
  0
3DFACE
  8
0
 10
26.928258895874023
 20
45.21958541870117
 30
158.0
 11
26.941492080688477
 21
45.17430877685547
 31
158.0
 12
27.004180908203125
 22
44.97480773925781
 32
158.0
 13
27.004180908203125
 23
44.97480773925781
 33
158.0
  0
3DFACE
  8
0
 10
27.004180908203125
 20
44.97480773925781
 30
158.0
 11
27.29241371154785
 21
44.44294357299805
 31
158.0
 12
27.742464065551758
 22
43.783992767333984
 32
158.0
 13
27.742464065551758
 23
43.783992767333984
 33
158.0
  0
3DFACE
  8
0
 10
27.742464065551758
 20
43.783992767333984
 30
158.0
 11
27.897993087768555
 21
43.657596588134766
 31
158.0
 12
28.503564834594727
 22
43.305423736572266
 32
158.0
 13
28.503564834594727
 23
43.305423736572266
 33
158.0
  0
3DFACE
  8
0
 10
28.503564834594727
 20
43.305423736572266
 30
158.0
 11
28.52370834350586
 21
43.30023956298828
 31
158.0
 12
28.603300094604492
 22
43.30842590332031
 32
158.0
 13
28.603300094604492
 23
43.30842590332031
 33
158.0
  0
3DFACE
  8
0
 10
28.603300094604492
 20
43.30842590332031
 30
158.0
 11
29.299922943115234
 21
43.421165466308594
 31
158.0
 12
29.47122573852539
 22
43.52339553833008
 32
158.0
 13
29.47122573852539
 23
43.52339553833008
 33
158.0
  0
3DFACE
  8
0
 10
29.47122573852539
 20
43.52339553833008
 30
158.0
 11
29.969478607177734
 21
43.7657470703125
 31
158.0
 12
30.114072799682617
 22
43.899505615234375
 32
158.0
 13
30.114072799682617
 23
43.899505615234375
 33
158.0
  0
3DFACE
  8
0
 10
30.460678100585938
 20
44.34644317626953
 30
158.0
 11
30.567562103271484
 21
44.44294357299805
 31
158.0
 12
30.57830810546875
 22
44.453269958496094
 32
158.0
 13
30.57830810546875
 23
44.453269958496094
 33
158.0
  0
3DFACE
  8
0
 10
29.47122573852539
 20
43.52339553833008
 30
158.0
 11
30.114072799682617
 21
43.899505615234375
 31
158.0
 12
30.460678100585938
 22
44.34644317626953
 32
158.0
 13
30.460678100585938
 23
44.34644317626953
 33
158.0
  0
3DFACE
  8
0
 10
28.503564834594727
 20
43.305423736572266
 30
158.0
 11
28.603300094604492
 21
43.30842590332031
 31
158.0
 12
29.47122573852539
 22
43.52339553833008
 32
158.0
 13
29.47122573852539
 23
43.52339553833008
 33
158.0
  0
3DFACE
  8
0
 10
27.004180908203125
 20
44.97480773925781
 30
158.0
 11
27.742464065551758
 21
43.783992767333984
 31
158.0
 12
28.503564834594727
 22
43.305423736572266
 32
158.0
 13
28.503564834594727
 23
43.305423736572266
 33
158.0
  0
3DFACE
  8
0
 10
26.926239013671875
 20
45.23008346557617
 30
158.0
 11
26.928258895874023
 21
45.21958541870117
 31
158.0
 12
27.004180908203125
 22
44.97480773925781
 32
158.0
 13
27.004180908203125
 23
44.97480773925781
 33
158.0
  0
3DFACE
  8
0
 10
26.82373809814453
 20
46.0172119140625
 30
158.0
 11
26.814237594604492
 21
45.8965950012207
 31
158.0
 12
26.926239013671875
 22
45.23008346557617
 32
158.0
 13
26.926239013671875
 23
45.23008346557617
 33
158.0
  0
3DFACE
  8
0
 10
26.88983726501465
 20
46.80435562133789
 30
158.0
 11
26.829660415649414
 21
46.54512405395508
 31
158.0
 12
26.82373809814453
 22
46.0172119140625
 32
158.0
 13
26.82373809814453
 23
46.0172119140625
 33
158.0
  0
3DFACE
  8
0
 10
27.08379364013672
 20
47.623939514160156
 30
158.0
 11
26.943517684936523
 21
47.17460632324219
 31
158.0
 12
26.88983726501465
 22
46.80435562133789
 32
158.0
 13
26.88983726501465
 23
46.80435562133789
 33
158.0
  0
3DFACE
  8
0
 10
27.558591842651367
 20
48.30806350708008
 30
158.0
 11
27.196226119995117
 21
47.87080383300781
 31
158.0
 12
27.08379364013672
 22
47.623939514160156
 32
158.0
 13
27.08379364013672
 23
47.623939514160156
 33
158.0
  0
3DFACE
  8
0
 10
28.310625076293945
 20
48.8519287109375
 30
158.0
 11
27.970672607421875
 21
48.72736358642578
 31
158.0
 12
27.558591842651367
 22
48.30806350708008
 32
158.0
 13
27.558591842651367
 23
48.30806350708008
 33
158.0
  0
3DFACE
  8
0
 10
29.553470611572266
 20
49.13875198364258
 30
158.0
 11
28.786691665649414
 21
49.072601318359375
 31
158.0
 12
28.310625076293945
 22
48.8519287109375
 32
158.0
 13
28.310625076293945
 23
48.8519287109375
 33
158.0
  0
3DFACE
  8
0
 10
30.362224578857422
 20
48.95445251464844
 30
158.0
 11
29.580495834350586
 21
49.13640213012695
 31
158.0
 12
29.553470611572266
 22
49.13875198364258
 32
158.0
 13
29.553470611572266
 23
49.13875198364258
 33
158.0
  0
3DFACE
  8
0
 10
31.121456146240234
 20
48.3139533996582
 30
158.0
 11
31.069927215576172
 21
48.37862777709961
 31
158.0
 12
30.362224578857422
 22
48.95445251464844
 32
158.0
 13
30.362224578857422
 23
48.95445251464844
 33
158.0
  0
3DFACE
  8
0
 10
31.385696411132812
 20
47.51332473754883
 30
158.0
 11
31.390939712524414
 21
47.59149169921875
 31
158.0
 12
31.121456146240234
 22
48.3139533996582
 32
158.0
 13
31.121456146240234
 23
48.3139533996582
 33
158.0
  0
3DFACE
  8
0
 10
31.330577850341797
 20
46.51737594604492
 30
158.0
 11
31.404884338378906
 21
46.804359436035156
 31
158.0
 12
31.385696411132812
 22
47.51332473754883
 32
158.0
 13
31.385696411132812
 23
47.51332473754883
 33
158.0
  0
3DFACE
  8
0
 10
31.161500930786133
 20
45.42033004760742
 30
158.0
 11
31.319683074951172
 21
46.02955627441406
 31
158.0
 12
31.330577850341797
 22
46.51737594604492
 32
158.0
 13
31.330577850341797
 23
46.51737594604492
 33
158.0
  0
3DFACE
  8
0
 10
30.959453582763672
 20
45.0140380859375
 30
158.0
 11
31.076026916503906
 21
45.230079650878906
 31
158.0
 12
31.161500930786133
 22
45.42033004760742
 32
158.0
 13
31.161500930786133
 23
45.42033004760742
 33
158.0
  0
3DFACE
  8
0
 10
30.57830810546875
 20
44.453269958496094
 30
158.0
 11
30.75218391418457
 21
44.6767578125
 31
158.0
 12
30.901145935058594
 22
44.929786682128906
 32
158.0
 13
30.901145935058594
 23
44.929786682128906
 33
158.0
  0
3DFACE
  8
0
 10
30.901145935058594
 20
44.929786682128906
 30
158.0
 11
30.959453582763672
 21
45.0140380859375
 31
158.0
 12
31.161500930786133
 22
45.42033004760742
 32
158.0
 13
31.161500930786133
 23
45.42033004760742
 33
158.0
  0
3DFACE
  8
0
 10
31.161500930786133
 20
45.42033004760742
 30
158.0
 11
31.330577850341797
 21
46.51737594604492
 31
158.0
 12
31.385696411132812
 22
47.51332473754883
 32
158.0
 13
31.385696411132812
 23
47.51332473754883
 33
158.0
  0
3DFACE
  8
0
 10
31.385696411132812
 20
47.51332473754883
 30
158.0
 11
31.121456146240234
 21
48.3139533996582
 31
158.0
 12
30.362224578857422
 22
48.95445251464844
 32
158.0
 13
30.362224578857422
 23
48.95445251464844
 33
158.0
  0
3DFACE
  8
0
 10
30.362224578857422
 20
48.95445251464844
 30
158.0
 11
29.553470611572266
 21
49.13875198364258
 31
158.0
 12
28.310625076293945
 22
48.8519287109375
 32
158.0
 13
28.310625076293945
 23
48.8519287109375
 33
158.0
  0
3DFACE
  8
0
 10
28.310625076293945
 20
48.8519287109375
 30
158.0
 11
27.558591842651367
 21
48.30806350708008
 31
158.0
 12
27.08379364013672
 22
47.623939514160156
 32
158.0
 13
27.08379364013672
 23
47.623939514160156
 33
158.0
  0
3DFACE
  8
0
 10
27.08379364013672
 20
47.623939514160156
 30
158.0
 11
26.88983726501465
 21
46.80435562133789
 31
158.0
 12
26.82373809814453
 22
46.0172119140625
 32
158.0
 13
26.82373809814453
 23
46.0172119140625
 33
158.0
  0
3DFACE
  8
0
 10
26.82373809814453
 20
46.0172119140625
 30
158.0
 11
26.926239013671875
 21
45.23008346557617
 31
158.0
 12
27.004180908203125
 22
44.97480773925781
 32
158.0
 13
27.004180908203125
 23
44.97480773925781
 33
158.0
  0
3DFACE
  8
0
 10
27.004180908203125
 20
44.97480773925781
 30
158.0
 11
28.503564834594727
 21
43.305423736572266
 31
158.0
 12
29.47122573852539
 22
43.52339553833008
 32
158.0
 13
29.47122573852539
 23
43.52339553833008
 33
158.0
  0
3DFACE
  8
0
 10
29.47122573852539
 20
43.52339553833008
 30
158.0
 11
30.460678100585938
 21
44.34644317626953
 31
158.0
 12
30.57830810546875
 22
44.453269958496094
 32
158.0
 13
30.57830810546875
 23
44.453269958496094
 33
158.0
  0
3DFACE
  8
0
 10
30.57830810546875
 20
44.453269958496094
 30
158.0
 11
30.901145935058594
 21
44.929786682128906
 31
158.0
 12
31.161500930786133
 22
45.42033004760742
 32
158.0
 13
31.161500930786133
 23
45.42033004760742
 33
158.0
  0
3DFACE
  8
0
 10
31.161500930786133
 20
45.42033004760742
 30
158.0
 11
31.385696411132812
 21
47.51332473754883
 31
158.0
 12
30.362224578857422
 22
48.95445251464844
 32
158.0
 13
30.362224578857422
 23
48.95445251464844
 33
158.0
  0
3DFACE
  8
0
 10
30.362224578857422
 20
48.95445251464844
 30
158.0
 11
28.310625076293945
 21
48.8519287109375
 31
158.0
 12
27.08379364013672
 22
47.623939514160156
 32
158.0
 13
27.08379364013672
 23
47.623939514160156
 33
158.0
  0
3DFACE
  8
0
 10
27.08379364013672
 20
47.623939514160156
 30
158.0
 11
26.82373809814453
 21
46.0172119140625
 31
158.0
 12
27.004180908203125
 22
44.97480773925781
 32
158.0
 13
27.004180908203125
 23
44.97480773925781
 33
158.0
  0
3DFACE
  8
0
 10
27.004180908203125
 20
44.97480773925781
 30
158.0
 11
29.47122573852539
 21
43.52339553833008
 31
158.0
 12
30.57830810546875
 22
44.453269958496094
 32
158.0
 13
30.57830810546875
 23
44.453269958496094
 33
158.0
  0
3DFACE
  8
0
 10
30.57830810546875
 20
44.453269958496094
 30
158.0
 11
31.161500930786133
 21
45.42033004760742
 31
158.0
 12
30.362224578857422
 22
48.95445251464844
 32
158.0
 13
30.362224578857422
 23
48.95445251464844
 33
158.0
  0
3DFACE
  8
0
 10
30.362224578857422
 20
48.95445251464844
 30
158.0
 11
27.08379364013672
 21
47.623939514160156
 31
158.0
 12
27.004180908203125
 22
44.97480773925781
 32
158.0
 13
27.004180908203125
 23
44.97480773925781
 33
158.0
  0
3DFACE
  8
0
 10
27.004180908203125
 20
44.97480773925781
 30
158.0
 11
30.57830810546875
 21
44.453269958496094
 31
158.0
 12
30.362224578857422
 22
48.95445251464844
 32
158.0
 13
30.362224578857422
 23
48.95445251464844
 33
158.0
  0
ENDSEC
  0
EOF
