  0
SECTION
  2
HEADER
  9
$ACADVER
  1
AC1009
  9
$INSBASE
 10
0.0
 20
0.0
 30
0.0
  9
$EXTMIN
 10
0.0
 20
0.0
 30
0.0
  9
$EXTMAX
 10
0.0
 20
0.0
 30
0.0
  0
ENDSEC
  0
SECTION
  2
TABLES
  0
TABLE
  2
VPORT
 70
1
  0
VPORT
  2
*ACTIVE
 70
0
 10
0.0
 20
0.0
 11
1.0
 21
1.0
 12
-5.0
 22
1.0
 13
0.0
 23
0.0
 14
0.1
 24
0.1
 15
0.1
 25
0.1
 16
0.0
 26
0.0
 36
1.0
 17
0.0
 27
0.0
 37
0.0
 40
10.0
 41
1.0
 42
50.0
 43
0.0
 44
0.0
 50
0.0
 51
0.0
 71
0
 72
100
 73
1
 74
1
 75
0
 76
0
 77
0
 78
0
  0
ENDTAB
  0
TABLE
  2
LTYPE
 70
8
  0
LTYPE
  2
CONTINUOUS
 70
0
  3
Solid line
 72
65
 73
0
 40
0.0
  0
LTYPE
  2
DOT
 70
0
  3
. . . . . . .
 72
65
 73
2
 40
0.25
 49
0.0
 49
-0.25
  0
LTYPE
  2
DASHED
 70
0
  3
__ __ __ __ __
 72
65
 73
2
 40
0.8
 49
0.5
 49
-0.3
  0
LTYPE
  2
DASHDOT
 70
0
  3
__ . __ . __ .
 72
65
 73
4
 40
1.0
 49
0.5
 49
-0.25
 49
0.0
 49
-0.25
  0
LTYPE
  2
DIVIDE
 70
0
  3
____ . . ____ . . 
 72
65
 73
6
 40
1.25
 49
0.5
 49
-0.25
 49
0.0
 49
-0.25
 49
0.0
 49
-0.25
  0
LTYPE
  2
BORDER
 70
0
  3
__ __ . __ __ . 
 72
65
 73
6
 40
1.75
 49
0.5
 49
-0.25
 49
0.5
 49
-0.25
 49
0.0
 49
-0.25
  0
LTYPE
  2
HIDDEN
 70
0
  3
__ __ __ __ __
 72
65
 73
2
 40
0.4
 49
0.25
 49
-0.25
  0
LTYPE
  2
CENTER
 70
0
  3
____ _ ____ _ __
 72
65
 73
4
 40
2.0
 49
1.25
 49
-0.25
 49
0.25
 49
-0.25
  0
ENDTAB
  0
TABLE
  2
LAYER
 70
1
  0
LAYER
  2
PYDXF
 70
64
 62
7
  6
continuous
  0
ENDTAB
  0
TABLE
  2
STYLE
 70
1
  0
STYLE
  2
STANDARD
 70
0
 40
0
 41
1.0
 50
0.0
 71
0
 42
1
 3
ARIAL.TTF
 4

  0
ENDTAB
  0
TABLE
  2
VIEW
 70
1
  0
VIEW
  2
BF_TOPVIEW
 70
0
 40
120.0
 10
0.0
 20
0.0
 41
200.0
 11
0.0
 21
0.0
 31
1.0
 12
0.0
 22
0.0
 32
0.0
 42
50.0
 43
0.0
 44
0.0
 50
0.0
 71
0
  0
ENDTAB
  0
ENDSEC
  0
SECTION
  2
BLOCKS
  0
ENDSEC
  0
SECTION
  2
ENTITIES
  0
3DFACE
  8
0
 10
62.392086029052734
 20
-9.66596508026123
 30
160.0
 11
62.17344284057617
 21
-8.94498062133789
 31
160.0
 12
62.157493591308594
 22
-8.896754264831543
 32
160.0
 13
62.157493591308594
 23
-8.896754264831543
 33
160.0
  0
3DFACE
  8
0
 10
62.13570785522461
 20
-8.856119155883789
 30
160.0
 11
61.76268005371094
 21
-8.127547264099121
 31
160.0
 12
61.52146911621094
 22
-7.823119163513184
 32
160.0
 13
61.52146911621094
 23
-7.823119163513184
 33
160.0
  0
3DFACE
  8
0
 10
62.392086029052734
 20
-9.66596508026123
 30
160.0
 11
62.157493591308594
 21
-8.896754264831543
 31
160.0
 12
62.13570785522461
 22
-8.856119155883789
 32
160.0
 13
62.13570785522461
 23
-8.856119155883789
 33
160.0
  0
3DFACE
  8
0
 10
62.35221862792969
 20
-11.139924049377441
 30
160.0
 11
62.47885513305664
 21
-10.435172080993652
 31
160.0
 12
62.430015563964844
 22
-10.104164123535156
 32
160.0
 13
62.430015563964844
 23
-10.104164123535156
 33
160.0
  0
3DFACE
  8
0
 10
62.430015563964844
 20
-10.104164123535156
 30
160.0
 11
62.392086029052734
 21
-9.66596508026123
 31
160.0
 12
62.13570785522461
 22
-8.856119155883789
 32
160.0
 13
62.13570785522461
 23
-8.856119155883789
 33
160.0
  0
3DFACE
  8
0
 10
62.13570785522461
 20
-8.856119155883789
 30
160.0
 11
61.52146911621094
 21
-7.823119163513184
 31
160.0
 12
61.1716194152832
 22
-7.399697303771973
 32
160.0
 13
61.1716194152832
 23
-7.399697303771973
 33
160.0
  0
3DFACE
  8
0
 10
61.1716194152832
 20
-7.399697303771973
 30
160.0
 11
60.61566162109375
 21
-6.933731555938721
 31
160.0
 12
60.15492630004883
 22
-6.589130401611328
 32
160.0
 13
60.15492630004883
 23
-6.589130401611328
 33
160.0
  0
3DFACE
  8
0
 10
60.15492630004883
 20
-6.589130401611328
 30
160.0
 11
58.97292709350586
 21
-6.014427661895752
 31
160.0
 12
58.24986267089844
 22
-5.863779067993164
 32
160.0
 13
58.24986267089844
 23
-5.863779067993164
 33
160.0
  0
3DFACE
  8
0
 10
58.24986267089844
 20
-5.863779067993164
 30
160.0
 11
58.21125411987305
 21
-5.8492960929870605
 31
160.0
 12
58.118980407714844
 22
-5.836457252502441
 32
160.0
 13
58.118980407714844
 23
-5.836457252502441
 33
160.0
  0
3DFACE
  8
0
 10
58.118980407714844
 20
-5.836457252502441
 30
160.0
 11
57.461273193359375
 21
-5.797832489013672
 31
160.0
 12
57.34564208984375
 22
-5.806288242340088
 32
160.0
 13
57.34564208984375
 23
-5.806288242340088
 33
160.0
  0
3DFACE
  8
0
 10
57.34564208984375
 20
-5.806288242340088
 30
160.0
 11
56.67267990112305
 21
-5.829607963562012
 31
160.0
 12
56.08689880371094
 22
-5.945162296295166
 32
160.0
 13
56.08689880371094
 23
-5.945162296295166
 33
160.0
  0
3DFACE
  8
0
 10
56.08689880371094
 20
-5.945162296295166
 30
160.0
 11
55.88406753540039
 21
-5.9610819816589355
 31
160.0
 12
55.75600814819336
 22
-5.982039928436279
 32
160.0
 13
55.75600814819336
 23
-5.982039928436279
 33
160.0
  0
3DFACE
  8
0
 10
55.75600814819336
 20
-5.982039928436279
 30
160.0
 11
55.112754821777344
 21
-6.240255832672119
 31
160.0
 12
55.09547424316406
 22
-6.250743389129639
 32
160.0
 13
55.09547424316406
 23
-6.250743389129639
 33
160.0
  0
3DFACE
  8
0
 10
55.09547424316406
 20
-6.250743389129639
 30
160.0
 11
54.608829498291016
 21
-6.562662124633789
 31
160.0
 12
54.5781364440918
 22
-6.589130401611328
 32
160.0
 13
54.5781364440918
 23
-6.589130401611328
 33
160.0
  0
3DFACE
  8
0
 10
54.469505310058594
 20
-6.723069667816162
 30
160.0
 11
54.306880950927734
 21
-6.867039680480957
 31
160.0
 12
53.91961669921875
 22
-7.314789295196533
 32
160.0
 13
53.91961669921875
 23
-7.314789295196533
 33
160.0
  0
3DFACE
  8
0
 10
55.09547424316406
 20
-6.250743389129639
 30
160.0
 11
54.5781364440918
 21
-6.589130401611328
 31
160.0
 12
54.469505310058594
 22
-6.723069667816162
 32
160.0
 13
54.469505310058594
 23
-6.723069667816162
 33
160.0
  0
3DFACE
  8
0
 10
56.08689880371094
 20
-5.945162296295166
 30
160.0
 11
55.75600814819336
 21
-5.982039928436279
 31
160.0
 12
55.09547424316406
 22
-6.250743389129639
 32
160.0
 13
55.09547424316406
 23
-6.250743389129639
 33
160.0
  0
3DFACE
  8
0
 10
58.118980407714844
 20
-5.836457252502441
 30
160.0
 11
57.34564208984375
 21
-5.806288242340088
 31
160.0
 12
56.08689880371094
 22
-5.945162296295166
 32
160.0
 13
56.08689880371094
 23
-5.945162296295166
 33
160.0
  0
3DFACE
  8
0
 10
60.15492630004883
 20
-6.589130401611328
 30
160.0
 11
58.24986267089844
 21
-5.863779067993164
 31
160.0
 12
58.118980407714844
 22
-5.836457252502441
 32
160.0
 13
58.118980407714844
 23
-5.836457252502441
 33
160.0
  0
3DFACE
  8
0
 10
62.13570785522461
 20
-8.856119155883789
 30
160.0
 11
61.1716194152832
 21
-7.399697303771973
 31
160.0
 12
60.15492630004883
 22
-6.589130401611328
 32
160.0
 13
60.15492630004883
 23
-6.589130401611328
 33
160.0
  0
3DFACE
  8
0
 10
62.35221862792969
 20
-11.139924049377441
 30
160.0
 11
62.430015563964844
 21
-10.104164123535156
 31
160.0
 12
62.13570785522461
 22
-8.856119155883789
 32
160.0
 13
62.13570785522461
 23
-8.856119155883789
 33
160.0
  0
3DFACE
  8
0
 10
62.162025451660156
 20
-11.895084381103516
 30
160.0
 11
62.332889556884766
 21
-11.23169231414795
 31
160.0
 12
62.35221862792969
 22
-11.139924049377441
 32
160.0
 13
62.35221862792969
 23
-11.139924049377441
 33
160.0
  0
3DFACE
  8
0
 10
61.42426300048828
 20
-13.281503677368164
 30
160.0
 11
61.758541107177734
 21
-12.770262718200684
 31
160.0
 12
62.162025451660156
 22
-11.895084381103516
 32
160.0
 13
62.162025451660156
 23
-11.895084381103516
 33
160.0
  0
3DFACE
  8
0
 10
60.615665435791016
 20
-14.04849910736084
 30
160.0
 11
61.258331298828125
 21
-13.509883880615234
 31
160.0
 12
61.42426300048828
 22
-13.281503677368164
 32
160.0
 13
61.42426300048828
 23
-13.281503677368164
 33
160.0
  0
3DFACE
  8
0
 10
60.05868911743164
 20
-14.37817668914795
 30
160.0
 11
60.26332473754883
 21
-14.281216621398926
 31
160.0
 12
60.615665435791016
 22
-14.04849910736084
 32
160.0
 13
60.615665435791016
 23
-14.04849910736084
 33
160.0
  0
3DFACE
  8
0
 10
59.038475036621094
 20
-14.68799114227295
 30
160.0
 11
59.564945220947266
 21
-14.574040412902832
 31
160.0
 12
59.82706832885742
 22
-14.462064743041992
 32
160.0
 13
59.82706832885742
 23
-14.462064743041992
 33
160.0
  0
3DFACE
  8
0
 10
59.82706832885742
 20
-14.462064743041992
 30
160.0
 11
60.05868911743164
 21
-14.37817668914795
 31
160.0
 12
60.615665435791016
 22
-14.04849910736084
 32
160.0
 13
60.615665435791016
 23
-14.04849910736084
 33
160.0
  0
3DFACE
  8
0
 10
60.615665435791016
 20
-14.04849910736084
 30
160.0
 11
61.42426300048828
 21
-13.281503677368164
 31
160.0
 12
62.162025451660156
 22
-11.895084381103516
 32
160.0
 13
62.162025451660156
 23
-11.895084381103516
 33
160.0
  0
3DFACE
  8
0
 10
62.162025451660156
 20
-11.895084381103516
 30
160.0
 11
62.35221862792969
 21
-11.139924049377441
 31
160.0
 12
62.13570785522461
 22
-8.856119155883789
 32
160.0
 13
62.13570785522461
 23
-8.856119155883789
 33
160.0
  0
3DFACE
  8
0
 10
62.13570785522461
 20
-8.856119155883789
 30
160.0
 11
60.15492630004883
 21
-6.589130401611328
 31
160.0
 12
58.118980407714844
 22
-5.836457252502441
 32
160.0
 13
58.118980407714844
 23
-5.836457252502441
 33
160.0
  0
3DFACE
  8
0
 10
58.118980407714844
 20
-5.836457252502441
 30
160.0
 11
56.08689880371094
 21
-5.945162296295166
 31
160.0
 12
55.09547424316406
 22
-6.250743389129639
 32
160.0
 13
55.09547424316406
 23
-6.250743389129639
 33
160.0
  0
3DFACE
  8
0
 10
55.09547424316406
 20
-6.250743389129639
 30
160.0
 11
54.469505310058594
 21
-6.723069667816162
 31
160.0
 12
53.91961669921875
 22
-7.314789295196533
 32
160.0
 13
53.91961669921875
 23
-7.314789295196533
 33
160.0
  0
3DFACE
  8
0
 10
53.91961669921875
 20
-7.314789295196533
 30
160.0
 11
53.89540100097656
 21
-7.358340263366699
 31
160.0
 12
53.83600997924805
 22
-7.507461071014404
 32
160.0
 13
53.83600997924805
 23
-7.507461071014404
 33
160.0
  0
3DFACE
  8
0
 10
53.83600997924805
 20
-7.507461071014404
 30
160.0
 11
53.56006622314453
 21
-8.127547264099121
 31
160.0
 12
53.428199768066406
 22
-8.896754264831543
 32
160.0
 13
53.428199768066406
 23
-8.896754264831543
 33
160.0
  0
3DFACE
  8
0
 10
53.428199768066406
 20
-8.896754264831543
 30
160.0
 11
53.44930648803711
 21
-9.66596508026123
 31
160.0
 12
53.5184326171875
 22
-10.03420352935791
 32
160.0
 13
53.5184326171875
 23
-10.03420352935791
 33
160.0
  0
3DFACE
  8
0
 10
53.5184326171875
 20
-10.03420352935791
 30
160.0
 11
53.5799560546875
 21
-10.435172080993652
 31
160.0
 12
53.74542999267578
 22
-10.886175155639648
 32
160.0
 13
53.74542999267578
 23
-10.886175155639648
 33
160.0
  0
3DFACE
  8
0
 10
53.74542999267578
 20
-10.886175155639648
 30
160.0
 11
53.843544006347656
 21
-11.204380989074707
 31
160.0
 12
54.112884521484375
 22
-11.736367225646973
 32
160.0
 13
54.112884521484375
 23
-11.736367225646973
 33
160.0
  0
3DFACE
  8
0
 10
54.112884521484375
 20
-11.736367225646973
 30
160.0
 11
54.22313690185547
 21
-11.973589897155762
 31
160.0
 12
54.47456359863281
 22
-12.373998641967773
 32
160.0
 13
54.47456359863281
 23
-12.373998641967773
 33
160.0
  0
3DFACE
  8
0
 10
54.47456359863281
 20
-12.373998641967773
 30
160.0
 11
54.75522994995117
 21
-12.745254516601562
 31
160.0
 12
55.09590148925781
 22
-13.116669654846191
 32
160.0
 13
55.09590148925781
 23
-13.116669654846191
 33
160.0
  0
3DFACE
  8
0
 10
55.09590148925781
 20
-13.116669654846191
 30
160.0
 11
55.18924331665039
 21
-13.208395957946777
 31
160.0
 12
55.5009765625
 22
-13.501925468444824
 32
160.0
 13
55.5009765625
 23
-13.501925468444824
 33
160.0
  0
3DFACE
  8
0
 10
55.5009765625
 20
-13.501925468444824
 30
160.0
 11
55.516143798828125
 21
-13.512005805969238
 31
160.0
 12
55.579097747802734
 22
-13.55081844329834
 32
160.0
 13
55.579097747802734
 23
-13.55081844329834
 33
160.0
  0
3DFACE
  8
0
 10
55.579097747802734
 20
-13.55081844329834
 30
160.0
 11
55.88406753540039
 21
-13.796489715576172
 31
160.0
 12
56.423274993896484
 22
-14.117093086242676
 32
160.0
 13
56.423274993896484
 23
-14.117093086242676
 33
160.0
  0
3DFACE
  8
0
 10
56.423274993896484
 20
-14.117093086242676
 30
160.0
 11
56.72376251220703
 21
-14.259093284606934
 31
160.0
 12
57.13177490234375
 22
-14.397418975830078
 32
160.0
 13
57.13177490234375
 23
-14.397418975830078
 33
160.0
  0
3DFACE
  8
0
 10
57.13177490234375
 20
-14.397418975830078
 30
160.0
 11
57.461273193359375
 21
-14.546951293945312
 31
160.0
 12
57.68577575683594
 22
-14.61669635772705
 32
160.0
 13
57.68577575683594
 23
-14.61669635772705
 33
160.0
  0
3DFACE
  8
0
 10
57.68577575683594
 20
-14.61669635772705
 30
160.0
 11
58.2498664855957
 21
-14.693230628967285
 31
160.0
 12
58.679378509521484
 22
-14.712407112121582
 32
160.0
 13
58.679378509521484
 23
-14.712407112121582
 33
160.0
  0
3DFACE
  8
0
 10
58.679378509521484
 20
-14.712407112121582
 30
160.0
 11
58.972293853759766
 21
-14.70606517791748
 31
160.0
 12
59.038475036621094
 22
-14.68799114227295
 32
160.0
 13
59.038475036621094
 23
-14.68799114227295
 33
160.0
  0
3DFACE
  8
0
 10
59.038475036621094
 20
-14.68799114227295
 30
160.0
 11
59.82706832885742
 21
-14.462064743041992
 31
160.0
 12
60.615665435791016
 22
-14.04849910736084
 32
160.0
 13
60.615665435791016
 23
-14.04849910736084
 33
160.0
  0
3DFACE
  8
0
 10
60.615665435791016
 20
-14.04849910736084
 30
160.0
 11
62.162025451660156
 21
-11.895084381103516
 31
160.0
 12
62.13570785522461
 22
-8.856119155883789
 32
160.0
 13
62.13570785522461
 23
-8.856119155883789
 33
160.0
  0
3DFACE
  8
0
 10
62.13570785522461
 20
-8.856119155883789
 30
160.0
 11
58.118980407714844
 21
-5.836457252502441
 31
160.0
 12
55.09547424316406
 22
-6.250743389129639
 32
160.0
 13
55.09547424316406
 23
-6.250743389129639
 33
160.0
  0
3DFACE
  8
0
 10
55.09547424316406
 20
-6.250743389129639
 30
160.0
 11
53.91961669921875
 21
-7.314789295196533
 31
160.0
 12
53.83600997924805
 22
-7.507461071014404
 32
160.0
 13
53.83600997924805
 23
-7.507461071014404
 33
160.0
  0
3DFACE
  8
0
 10
53.83600997924805
 20
-7.507461071014404
 30
160.0
 11
53.428199768066406
 21
-8.896754264831543
 31
160.0
 12
53.5184326171875
 22
-10.03420352935791
 32
160.0
 13
53.5184326171875
 23
-10.03420352935791
 33
160.0
  0
3DFACE
  8
0
 10
53.5184326171875
 20
-10.03420352935791
 30
160.0
 11
53.74542999267578
 21
-10.886175155639648
 31
160.0
 12
54.112884521484375
 22
-11.736367225646973
 32
160.0
 13
54.112884521484375
 23
-11.736367225646973
 33
160.0
  0
3DFACE
  8
0
 10
54.112884521484375
 20
-11.736367225646973
 30
160.0
 11
54.47456359863281
 21
-12.373998641967773
 31
160.0
 12
55.09590148925781
 22
-13.116669654846191
 32
160.0
 13
55.09590148925781
 23
-13.116669654846191
 33
160.0
  0
3DFACE
  8
0
 10
55.09590148925781
 20
-13.116669654846191
 30
160.0
 11
55.5009765625
 21
-13.501925468444824
 31
160.0
 12
55.579097747802734
 22
-13.55081844329834
 32
160.0
 13
55.579097747802734
 23
-13.55081844329834
 33
160.0
  0
3DFACE
  8
0
 10
55.579097747802734
 20
-13.55081844329834
 30
160.0
 11
56.423274993896484
 21
-14.117093086242676
 31
160.0
 12
57.13177490234375
 22
-14.397418975830078
 32
160.0
 13
57.13177490234375
 23
-14.397418975830078
 33
160.0
  0
3DFACE
  8
0
 10
57.13177490234375
 20
-14.397418975830078
 30
160.0
 11
57.68577575683594
 21
-14.61669635772705
 31
160.0
 12
58.679378509521484
 22
-14.712407112121582
 32
160.0
 13
58.679378509521484
 23
-14.712407112121582
 33
160.0
  0
3DFACE
  8
0
 10
58.679378509521484
 20
-14.712407112121582
 30
160.0
 11
59.038475036621094
 21
-14.68799114227295
 31
160.0
 12
60.615665435791016
 22
-14.04849910736084
 32
160.0
 13
60.615665435791016
 23
-14.04849910736084
 33
160.0
  0
3DFACE
  8
0
 10
60.615665435791016
 20
-14.04849910736084
 30
160.0
 11
62.13570785522461
 21
-8.856119155883789
 31
160.0
 12
55.09547424316406
 22
-6.250743389129639
 32
160.0
 13
55.09547424316406
 23
-6.250743389129639
 33
160.0
  0
3DFACE
  8
0
 10
55.09547424316406
 20
-6.250743389129639
 30
160.0
 11
53.83600997924805
 21
-7.507461071014404
 31
160.0
 12
53.5184326171875
 22
-10.03420352935791
 32
160.0
 13
53.5184326171875
 23
-10.03420352935791
 33
160.0
  0
3DFACE
  8
0
 10
53.5184326171875
 20
-10.03420352935791
 30
160.0
 11
54.112884521484375
 21
-11.736367225646973
 31
160.0
 12
55.09590148925781
 22
-13.116669654846191
 32
160.0
 13
55.09590148925781
 23
-13.116669654846191
 33
160.0
  0
3DFACE
  8
0
 10
55.09590148925781
 20
-13.116669654846191
 30
160.0
 11
55.579097747802734
 21
-13.55081844329834
 31
160.0
 12
57.13177490234375
 22
-14.397418975830078
 32
160.0
 13
57.13177490234375
 23
-14.397418975830078
 33
160.0
  0
3DFACE
  8
0
 10
57.13177490234375
 20
-14.397418975830078
 30
160.0
 11
58.679378509521484
 21
-14.712407112121582
 31
160.0
 12
60.615665435791016
 22
-14.04849910736084
 32
160.0
 13
60.615665435791016
 23
-14.04849910736084
 33
160.0
  0
3DFACE
  8
0
 10
60.615665435791016
 20
-14.04849910736084
 30
160.0
 11
55.09547424316406
 21
-6.250743389129639
 31
160.0
 12
53.5184326171875
 22
-10.03420352935791
 32
160.0
 13
53.5184326171875
 23
-10.03420352935791
 33
160.0
  0
3DFACE
  8
0
 10
53.5184326171875
 20
-10.03420352935791
 30
160.0
 11
55.09590148925781
 21
-13.116669654846191
 31
160.0
 12
57.13177490234375
 22
-14.397418975830078
 32
160.0
 13
57.13177490234375
 23
-14.397418975830078
 33
160.0
  0
3DFACE
  8
0
 10
53.5184326171875
 20
-10.03420352935791
 30
160.0
 11
57.13177490234375
 21
-14.397418975830078
 31
160.0
 12
60.615665435791016
 22
-14.04849910736084
 32
160.0
 13
60.615665435791016
 23
-14.04849910736084
 33
160.0
  0
3DFACE
  8
0
 10
-41.78205490112305
 20
36.65476608276367
 30
160.0
 11
-41.779972076416016
 21
36.63218307495117
 31
160.0
 12
-41.688743591308594
 22
35.86502456665039
 32
160.0
 13
-41.688743591308594
 23
35.86502456665039
 33
160.0
  0
3DFACE
  8
0
 10
-41.688743591308594
 20
35.86502456665039
 30
160.0
 11
-41.67631149291992
 21
35.79572677612305
 31
160.0
 12
-41.49022674560547
 22
35.06046676635742
 32
160.0
 13
-41.49022674560547
 23
35.06046676635742
 33
160.0
  0
3DFACE
  8
0
 10
-41.42222595214844
 20
34.93975830078125
 30
160.0
 11
-41.387996673583984
 21
34.84722900390625
 31
160.0
 12
-41.250022888183594
 22
34.56743240356445
 32
160.0
 13
-41.250022888183594
 23
34.56743240356445
 33
160.0
  0
3DFACE
  8
0
 10
-41.688743591308594
 20
35.86502456665039
 30
160.0
 11
-41.49022674560547
 21
35.06046676635742
 31
160.0
 12
-41.42222595214844
 22
34.93975830078125
 32
160.0
 13
-41.42222595214844
 23
34.93975830078125
 33
160.0
  0
3DFACE
  8
0
 10
-41.78021240234375
 20
36.6668815612793
 30
160.0
 11
-41.78205490112305
 21
36.65476608276367
 31
160.0
 12
-41.688743591308594
 22
35.86502456665039
 32
160.0
 13
-41.688743591308594
 23
35.86502456665039
 33
160.0
  0
3DFACE
  8
0
 10
-41.390140533447266
 20
38.2786750793457
 30
160.0
 11
-41.53974533081055
 21
37.911766052246094
 31
160.0
 12
-41.78021240234375
 22
36.6668815612793
 32
160.0
 13
-41.78021240234375
 23
36.6668815612793
 33
160.0
  0
3DFACE
  8
0
 10
-41.21251678466797
 20
38.72621154785156
 30
160.0
 11
-41.32237243652344
 21
38.49354934692383
 31
160.0
 12
-41.390140533447266
 22
38.2786750793457
 32
160.0
 13
-41.390140533447266
 23
38.2786750793457
 33
160.0
  0
3DFACE
  8
0
 10
-40.774024963378906
 20
39.49294662475586
 30
160.0
 11
-41.01762771606445
 21
39.083229064941406
 31
160.0
 12
-41.21251678466797
 22
38.72621154785156
 32
160.0
 13
-41.21251678466797
 23
38.72621154785156
 33
160.0
  0
3DFACE
  8
0
 10
-39.58309555053711
 20
40.65146255493164
 30
160.0
 11
-40.14004898071289
 21
40.17987060546875
 31
160.0
 12
-40.774024963378906
 22
39.49294662475586
 32
160.0
 13
-40.774024963378906
 23
39.49294662475586
 33
160.0
  0
3DFACE
  8
0
 10
-38.84024429321289
 20
41.09264373779297
 30
160.0
 11
-39.518798828125
 21
40.69233322143555
 31
160.0
 12
-39.58309555053711
 22
40.65146255493164
 32
160.0
 13
-39.58309555053711
 23
40.65146255493164
 33
160.0
  0
3DFACE
  8
0
 10
-38.04903030395508
 20
41.43289566040039
 30
160.0
 11
-38.55766296386719
 21
41.22252655029297
 31
160.0
 12
-38.84024429321289
 22
41.09264373779297
 32
160.0
 13
-38.84024429321289
 23
41.09264373779297
 33
160.0
  0
3DFACE
  8
0
 10
-37.862850189208984
 20
41.49458312988281
 30
160.0
 11
-37.99424362182617
 21
41.451744079589844
 31
160.0
 12
-38.04903030395508
 22
41.43289566040039
 32
160.0
 13
-38.04903030395508
 23
41.43289566040039
 33
160.0
  0
3DFACE
  8
0
 10
-37.249549865722656
 20
41.653499603271484
 30
160.0
 11
-37.41282653808594
 21
41.62355041503906
 31
160.0
 12
-37.862850189208984
 22
41.49458312988281
 32
160.0
 13
-37.862850189208984
 23
41.49458312988281
 33
160.0
  0
3DFACE
  8
0
 10
-36.44032287597656
 20
41.7331428527832
 30
160.0
 11
-36.58247375488281
 21
41.72210693359375
 31
160.0
 12
-37.249549865722656
 22
41.653499603271484
 32
160.0
 13
-37.249549865722656
 23
41.653499603271484
 33
160.0
  0
3DFACE
  8
0
 10
-35.625789642333984
 20
41.73585891723633
 30
160.0
 11
-35.8626708984375
 21
41.753746032714844
 31
160.0
 12
-36.44032287597656
 22
41.7331428527832
 32
160.0
 13
-36.44032287597656
 23
41.7331428527832
 33
160.0
  0
3DFACE
  8
0
 10
-34.759761810302734
 20
41.59299087524414
 30
160.0
 11
-34.98611831665039
 21
41.64430618286133
 31
160.0
 12
-35.625789642333984
 22
41.73585891723633
 32
160.0
 13
-35.625789642333984
 23
41.73585891723633
 33
160.0
  0
3DFACE
  8
0
 10
-33.6575927734375
 20
41.19902420043945
 30
160.0
 11
-33.92448425292969
 21
41.31085968017578
 31
160.0
 12
-34.759761810302734
 22
41.59299087524414
 32
160.0
 13
-34.759761810302734
 23
41.59299087524414
 33
160.0
  0
3DFACE
  8
0
 10
-32.8003044128418
 20
40.73140335083008
 30
160.0
 11
-32.87999725341797
 21
40.7784423828125
 31
160.0
 12
-33.014217376708984
 22
40.847312927246094
 32
160.0
 13
-33.014217376708984
 23
40.847312927246094
 33
160.0
  0
3DFACE
  8
0
 10
-33.014217376708984
 20
40.847312927246094
 30
160.0
 11
-33.6575927734375
 21
41.19902420043945
 31
160.0
 12
-34.759761810302734
 22
41.59299087524414
 32
160.0
 13
-34.759761810302734
 23
41.59299087524414
 33
160.0
  0
3DFACE
  8
0
 10
-34.759761810302734
 20
41.59299087524414
 30
160.0
 11
-35.625789642333984
 21
41.73585891723633
 31
160.0
 12
-36.44032287597656
 22
41.7331428527832
 32
160.0
 13
-36.44032287597656
 23
41.7331428527832
 33
160.0
  0
3DFACE
  8
0
 10
-36.44032287597656
 20
41.7331428527832
 30
160.0
 11
-37.249549865722656
 21
41.653499603271484
 31
160.0
 12
-37.862850189208984
 22
41.49458312988281
 32
160.0
 13
-37.862850189208984
 23
41.49458312988281
 33
160.0
  0
3DFACE
  8
0
 10
-37.862850189208984
 20
41.49458312988281
 30
160.0
 11
-38.04903030395508
 21
41.43289566040039
 31
160.0
 12
-38.84024429321289
 22
41.09264373779297
 32
160.0
 13
-38.84024429321289
 23
41.09264373779297
 33
160.0
  0
3DFACE
  8
0
 10
-38.84024429321289
 20
41.09264373779297
 30
160.0
 11
-39.58309555053711
 21
40.65146255493164
 31
160.0
 12
-40.774024963378906
 22
39.49294662475586
 32
160.0
 13
-40.774024963378906
 23
39.49294662475586
 33
160.0
  0
3DFACE
  8
0
 10
-40.774024963378906
 20
39.49294662475586
 30
160.0
 11
-41.21251678466797
 21
38.72621154785156
 31
160.0
 12
-41.390140533447266
 22
38.2786750793457
 32
160.0
 13
-41.390140533447266
 23
38.2786750793457
 33
160.0
  0
3DFACE
  8
0
 10
-41.390140533447266
 20
38.2786750793457
 30
160.0
 11
-41.78021240234375
 21
36.6668815612793
 31
160.0
 12
-41.688743591308594
 22
35.86502456665039
 32
160.0
 13
-41.688743591308594
 23
35.86502456665039
 33
160.0
  0
3DFACE
  8
0
 10
-41.688743591308594
 20
35.86502456665039
 30
160.0
 11
-41.42222595214844
 21
34.93975830078125
 31
160.0
 12
-41.250022888183594
 22
34.56743240356445
 32
160.0
 13
-41.250022888183594
 23
34.56743240356445
 33
160.0
  0
3DFACE
  8
0
 10
-41.250022888183594
 20
34.56743240356445
 30
160.0
 11
-41.04832077026367
 21
34.25592041015625
 31
160.0
 12
-40.98085403442383
 22
34.168148040771484
 32
160.0
 13
-40.98085403442383
 23
34.168148040771484
 33
160.0
  0
3DFACE
  8
0
 10
-40.98085403442383
 20
34.168148040771484
 30
160.0
 11
-40.860877990722656
 21
34.02302551269531
 31
160.0
 12
-40.778263092041016
 22
33.933006286621094
 32
160.0
 13
-40.778263092041016
 23
33.933006286621094
 33
160.0
  0
3DFACE
  8
0
 10
-40.778263092041016
 20
33.933006286621094
 30
160.0
 11
-40.33740997314453
 21
33.420753479003906
 31
160.0
 12
-39.586952209472656
 22
32.63992691040039
 32
160.0
 13
-39.586952209472656
 23
32.63992691040039
 33
160.0
  0
3DFACE
  8
0
 10
-39.586952209472656
 20
32.63992691040039
 30
160.0
 11
-39.49147033691406
 21
32.56450271606445
 31
160.0
 12
-39.18549346923828
 22
32.34417724609375
 32
160.0
 13
-39.18549346923828
 23
32.34417724609375
 33
160.0
  0
3DFACE
  8
0
 10
-39.18549346923828
 20
32.34417724609375
 30
160.0
 11
-39.04287338256836
 21
32.237247467041016
 31
160.0
 12
-38.8894157409668
 22
32.12620162963867
 32
160.0
 13
-38.8894157409668
 23
32.12620162963867
 33
160.0
  0
3DFACE
  8
0
 10
-38.8894157409668
 20
32.12620162963867
 30
160.0
 11
-38.4343376159668
 21
31.76246452331543
 31
160.0
 12
-37.6871337890625
 22
31.35216522216797
 32
160.0
 13
-37.6871337890625
 23
31.35216522216797
 33
160.0
  0
3DFACE
  8
0
 10
-37.6871337890625
 20
31.35216522216797
 30
160.0
 11
-37.341060638427734
 21
31.19043731689453
 31
160.0
 12
-37.12451171875
 22
31.125818252563477
 32
160.0
 13
-37.12451171875
 23
31.125818252563477
 33
160.0
  0
3DFACE
  8
0
 10
-37.12451171875
 20
31.125818252563477
 30
160.0
 11
-36.884952545166016
 21
31.034399032592773
 31
160.0
 12
-36.51363754272461
 22
30.909887313842773
 32
160.0
 13
-36.51363754272461
 23
30.909887313842773
 33
160.0
  0
3DFACE
  8
0
 10
-35.80050277709961
 20
30.74833106994629
 30
160.0
 11
-35.67878341674805
 21
30.71565055847168
 31
160.0
 12
-35.43180847167969
 22
30.699909210205078
 32
160.0
 13
-35.43180847167969
 23
30.699909210205078
 33
160.0
  0
3DFACE
  8
0
 10
-37.12451171875
 20
31.125818252563477
 30
160.0
 11
-36.51363754272461
 21
30.909887313842773
 31
160.0
 12
-35.80050277709961
 22
30.74833106994629
 32
160.0
 13
-35.80050277709961
 23
30.74833106994629
 33
160.0
  0
3DFACE
  8
0
 10
-38.8894157409668
 20
32.12620162963867
 30
160.0
 11
-37.6871337890625
 21
31.35216522216797
 31
160.0
 12
-37.12451171875
 22
31.125818252563477
 32
160.0
 13
-37.12451171875
 23
31.125818252563477
 33
160.0
  0
3DFACE
  8
0
 10
-39.586952209472656
 20
32.63992691040039
 30
160.0
 11
-39.18549346923828
 21
32.34417724609375
 31
160.0
 12
-38.8894157409668
 22
32.12620162963867
 32
160.0
 13
-38.8894157409668
 23
32.12620162963867
 33
160.0
  0
3DFACE
  8
0
 10
-40.98085403442383
 20
34.168148040771484
 30
160.0
 11
-40.778263092041016
 21
33.933006286621094
 31
160.0
 12
-39.586952209472656
 22
32.63992691040039
 32
160.0
 13
-39.586952209472656
 23
32.63992691040039
 33
160.0
  0
3DFACE
  8
0
 10
-41.688743591308594
 20
35.86502456665039
 30
160.0
 11
-41.250022888183594
 21
34.56743240356445
 31
160.0
 12
-40.98085403442383
 22
34.168148040771484
 32
160.0
 13
-40.98085403442383
 23
34.168148040771484
 33
160.0
  0
3DFACE
  8
0
 10
-40.774024963378906
 20
39.49294662475586
 30
160.0
 11
-41.390140533447266
 21
38.2786750793457
 31
160.0
 12
-41.688743591308594
 22
35.86502456665039
 32
160.0
 13
-41.688743591308594
 23
35.86502456665039
 33
160.0
  0
3DFACE
  8
0
 10
-37.862850189208984
 20
41.49458312988281
 30
160.0
 11
-38.84024429321289
 21
41.09264373779297
 31
160.0
 12
-40.774024963378906
 22
39.49294662475586
 32
160.0
 13
-40.774024963378906
 23
39.49294662475586
 33
160.0
  0
3DFACE
  8
0
 10
-34.759761810302734
 20
41.59299087524414
 30
160.0
 11
-36.44032287597656
 21
41.7331428527832
 31
160.0
 12
-37.862850189208984
 22
41.49458312988281
 32
160.0
 13
-37.862850189208984
 23
41.49458312988281
 33
160.0
  0
3DFACE
  8
0
 10
-32.8003044128418
 20
40.73140335083008
 30
160.0
 11
-33.014217376708984
 21
40.847312927246094
 31
160.0
 12
-34.759761810302734
 22
41.59299087524414
 32
160.0
 13
-34.759761810302734
 23
41.59299087524414
 33
160.0
  0
3DFACE
  8
0
 10
-31.944271087646484
 20
39.93089294433594
 30
160.0
 11
-32.22882080078125
 21
40.24040985107422
 31
160.0
 12
-32.75125503540039
 22
40.68785858154297
 32
160.0
 13
-32.75125503540039
 23
40.68785858154297
 33
160.0
  0
3DFACE
  8
0
 10
-32.75125503540039
 20
40.68785858154297
 30
160.0
 11
-32.8003044128418
 21
40.73140335083008
 31
160.0
 12
-34.759761810302734
 22
41.59299087524414
 32
160.0
 13
-34.759761810302734
 23
41.59299087524414
 33
160.0
  0
3DFACE
  8
0
 10
-34.759761810302734
 20
41.59299087524414
 30
160.0
 11
-37.862850189208984
 21
41.49458312988281
 31
160.0
 12
-40.774024963378906
 22
39.49294662475586
 32
160.0
 13
-40.774024963378906
 23
39.49294662475586
 33
160.0
  0
3DFACE
  8
0
 10
-40.774024963378906
 20
39.49294662475586
 30
160.0
 11
-41.688743591308594
 21
35.86502456665039
 31
160.0
 12
-40.98085403442383
 22
34.168148040771484
 32
160.0
 13
-40.98085403442383
 23
34.168148040771484
 33
160.0
  0
3DFACE
  8
0
 10
-40.98085403442383
 20
34.168148040771484
 30
160.0
 11
-39.586952209472656
 21
32.63992691040039
 31
160.0
 12
-38.8894157409668
 22
32.12620162963867
 32
160.0
 13
-38.8894157409668
 23
32.12620162963867
 33
160.0
  0
3DFACE
  8
0
 10
-38.8894157409668
 20
32.12620162963867
 30
160.0
 11
-37.12451171875
 21
31.125818252563477
 31
160.0
 12
-35.80050277709961
 22
30.74833106994629
 32
160.0
 13
-35.80050277709961
 23
30.74833106994629
 33
160.0
  0
3DFACE
  8
0
 10
-35.80050277709961
 20
30.74833106994629
 30
160.0
 11
-35.43180847167969
 21
30.699909210205078
 31
160.0
 12
-34.862388610839844
 22
30.691478729248047
 32
160.0
 13
-34.862388610839844
 23
30.691478729248047
 33
160.0
  0
3DFACE
  8
0
 10
-34.631561279296875
 20
30.72658348083496
 30
160.0
 11
-34.051795959472656
 21
30.75143814086914
 31
160.0
 12
-33.3670654296875
 22
30.955543518066406
 32
160.0
 13
-33.3670654296875
 23
30.955543518066406
 33
160.0
  0
3DFACE
  8
0
 10
-35.80050277709961
 20
30.74833106994629
 30
160.0
 11
-34.862388610839844
 21
30.691478729248047
 31
160.0
 12
-34.631561279296875
 22
30.72658348083496
 32
160.0
 13
-34.631561279296875
 23
30.72658348083496
 33
160.0
  0
3DFACE
  8
0
 10
-40.98085403442383
 20
34.168148040771484
 30
160.0
 11
-38.8894157409668
 21
32.12620162963867
 31
160.0
 12
-35.80050277709961
 22
30.74833106994629
 32
160.0
 13
-35.80050277709961
 23
30.74833106994629
 33
160.0
  0
3DFACE
  8
0
 10
-34.759761810302734
 20
41.59299087524414
 30
160.0
 11
-40.774024963378906
 21
39.49294662475586
 31
160.0
 12
-40.98085403442383
 22
34.168148040771484
 32
160.0
 13
-40.98085403442383
 23
34.168148040771484
 33
160.0
  0
3DFACE
  8
0
 10
-31.944271087646484
 20
39.93089294433594
 30
160.0
 11
-32.75125503540039
 21
40.68785858154297
 31
160.0
 12
-34.759761810302734
 22
41.59299087524414
 32
160.0
 13
-34.759761810302734
 23
41.59299087524414
 33
160.0
  0
3DFACE
  8
0
 10
-31.34990119934082
 20
39.22540283203125
 30
160.0
 11
-31.68683624267578
 21
39.67816925048828
 31
160.0
 12
-31.944271087646484
 22
39.93089294433594
 32
160.0
 13
-31.944271087646484
 23
39.93089294433594
 33
160.0
  0
3DFACE
  8
0
 10
-31.318708419799805
 20
39.17728805541992
 30
160.0
 11
-31.32666015625
 21
39.19240188598633
 31
160.0
 12
-31.34990119934082
 22
39.22540283203125
 32
160.0
 13
-31.34990119934082
 23
39.22540283203125
 33
160.0
  0
3DFACE
  8
0
 10
-30.836313247680664
 20
38.27867126464844
 30
160.0
 11
-30.949508666992188
 21
38.55149459838867
 31
160.0
 12
-31.318708419799805
 22
39.17728805541992
 32
160.0
 13
-31.318708419799805
 23
39.17728805541992
 33
160.0
  0
3DFACE
  8
0
 10
-30.4335880279541
 20
36.877925872802734
 30
160.0
 11
-30.538896560668945
 21
37.47412872314453
 31
160.0
 12
-30.64333724975586
 22
37.72467803955078
 32
160.0
 13
-30.64333724975586
 23
37.72467803955078
 33
160.0
  0
3DFACE
  8
0
 10
-30.64333724975586
 20
37.72467803955078
 30
160.0
 11
-30.836313247680664
 21
38.27867126464844
 31
160.0
 12
-31.318708419799805
 22
39.17728805541992
 32
160.0
 13
-31.318708419799805
 23
39.17728805541992
 33
160.0
  0
3DFACE
  8
0
 10
-31.318708419799805
 20
39.17728805541992
 30
160.0
 11
-31.34990119934082
 21
39.22540283203125
 31
160.0
 12
-31.944271087646484
 22
39.93089294433594
 32
160.0
 13
-31.944271087646484
 23
39.93089294433594
 33
160.0
  0
3DFACE
  8
0
 10
-31.944271087646484
 20
39.93089294433594
 30
160.0
 11
-34.759761810302734
 21
41.59299087524414
 31
160.0
 12
-40.98085403442383
 22
34.168148040771484
 32
160.0
 13
-40.98085403442383
 23
34.168148040771484
 33
160.0
  0
3DFACE
  8
0
 10
-40.98085403442383
 20
34.168148040771484
 30
160.0
 11
-35.80050277709961
 21
30.74833106994629
 31
160.0
 12
-34.631561279296875
 22
30.72658348083496
 32
160.0
 13
-34.631561279296875
 23
30.72658348083496
 33
160.0
  0
3DFACE
  8
0
 10
-34.631561279296875
 20
30.72658348083496
 30
160.0
 11
-33.3670654296875
 21
30.955543518066406
 31
160.0
 12
-33.25294494628906
 22
30.981094360351562
 32
160.0
 13
-33.25294494628906
 23
30.981094360351562
 33
160.0
  0
3DFACE
  8
0
 10
-33.25294494628906
 20
30.981094360351562
 30
160.0
 11
-33.13178634643555
 21
31.037715911865234
 31
160.0
 12
-32.92537307739258
 22
31.14494514465332
 32
160.0
 13
-32.92537307739258
 23
31.14494514465332
 33
160.0
  0
3DFACE
  8
0
 10
-32.92537307739258
 20
31.14494514465332
 30
160.0
 11
-32.46785354614258
 21
31.40991973876953
 31
160.0
 12
-32.1457405090332
 22
31.66454315185547
 32
160.0
 13
-32.1457405090332
 23
31.66454315185547
 33
160.0
  0
3DFACE
  8
0
 10
-32.1457405090332
 20
31.66454315185547
 30
160.0
 11
-31.935474395751953
 21
31.842267990112305
 31
160.0
 12
-31.700042724609375
 22
32.08870315551758
 32
160.0
 13
-31.700042724609375
 23
32.08870315551758
 33
160.0
  0
3DFACE
  8
0
 10
-31.700042724609375
 20
32.08870315551758
 30
160.0
 11
-31.308032989501953
 21
32.64681625366211
 31
160.0
 12
-30.958349227905273
 22
33.22417449951172
 32
160.0
 13
-30.958349227905273
 23
33.22417449951172
 33
160.0
  0
3DFACE
  8
0
 10
-30.958349227905273
 20
33.22417449951172
 30
160.0
 11
-30.847171783447266
 21
33.45041275024414
 31
160.0
 12
-30.809329986572266
 22
33.597999572753906
 32
160.0
 13
-30.809329986572266
 23
33.597999572753906
 33
160.0
  0
3DFACE
  8
0
 10
-30.809329986572266
 20
33.597999572753906
 30
160.0
 11
-30.576698303222656
 21
34.25592041015625
 31
160.0
 12
-30.50227165222168
 22
34.69416046142578
 32
160.0
 13
-30.50227165222168
 23
34.69416046142578
 33
160.0
  0
3DFACE
  8
0
 10
-30.50227165222168
 20
34.69416046142578
 30
160.0
 11
-30.417688369750977
 21
35.060462951660156
 31
160.0
 12
-30.352216720581055
 22
35.81787872314453
 32
160.0
 13
-30.352216720581055
 23
35.81787872314453
 33
160.0
  0
3DFACE
  8
0
 10
-30.352216720581055
 20
35.81787872314453
 30
160.0
 11
-30.346105575561523
 21
35.86501693725586
 31
160.0
 12
-30.407596588134766
 22
36.598724365234375
 32
160.0
 13
-30.407596588134766
 23
36.598724365234375
 33
160.0
  0
3DFACE
  8
0
 10
-30.407596588134766
 20
36.598724365234375
 30
160.0
 11
-30.40766143798828
 21
36.669578552246094
 31
160.0
 12
-30.4335880279541
 22
36.877925872802734
 32
160.0
 13
-30.4335880279541
 23
36.877925872802734
 33
160.0
  0
3DFACE
  8
0
 10
-30.4335880279541
 20
36.877925872802734
 30
160.0
 11
-30.64333724975586
 21
37.72467803955078
 31
160.0
 12
-31.318708419799805
 22
39.17728805541992
 32
160.0
 13
-31.318708419799805
 23
39.17728805541992
 33
160.0
  0
3DFACE
  8
0
 10
-31.318708419799805
 20
39.17728805541992
 30
160.0
 11
-31.944271087646484
 21
39.93089294433594
 31
160.0
 12
-40.98085403442383
 22
34.168148040771484
 32
160.0
 13
-40.98085403442383
 23
34.168148040771484
 33
160.0
  0
3DFACE
  8
0
 10
-40.98085403442383
 20
34.168148040771484
 30
160.0
 11
-34.631561279296875
 21
30.72658348083496
 31
160.0
 12
-33.25294494628906
 22
30.981094360351562
 32
160.0
 13
-33.25294494628906
 23
30.981094360351562
 33
160.0
  0
3DFACE
  8
0
 10
-33.25294494628906
 20
30.981094360351562
 30
160.0
 11
-32.92537307739258
 21
31.14494514465332
 31
160.0
 12
-32.1457405090332
 22
31.66454315185547
 32
160.0
 13
-32.1457405090332
 23
31.66454315185547
 33
160.0
  0
3DFACE
  8
0
 10
-32.1457405090332
 20
31.66454315185547
 30
160.0
 11
-31.700042724609375
 21
32.08870315551758
 31
160.0
 12
-30.958349227905273
 22
33.22417449951172
 32
160.0
 13
-30.958349227905273
 23
33.22417449951172
 33
160.0
  0
3DFACE
  8
0
 10
-30.958349227905273
 20
33.22417449951172
 30
160.0
 11
-30.809329986572266
 21
33.597999572753906
 31
160.0
 12
-30.50227165222168
 22
34.69416046142578
 32
160.0
 13
-30.50227165222168
 23
34.69416046142578
 33
160.0
  0
3DFACE
  8
0
 10
-30.50227165222168
 20
34.69416046142578
 30
160.0
 11
-30.352216720581055
 21
35.81787872314453
 31
160.0
 12
-30.407596588134766
 22
36.598724365234375
 32
160.0
 13
-30.407596588134766
 23
36.598724365234375
 33
160.0
  0
3DFACE
  8
0
 10
-30.407596588134766
 20
36.598724365234375
 30
160.0
 11
-30.4335880279541
 21
36.877925872802734
 31
160.0
 12
-31.318708419799805
 22
39.17728805541992
 32
160.0
 13
-31.318708419799805
 23
39.17728805541992
 33
160.0
  0
3DFACE
  8
0
 10
-31.318708419799805
 20
39.17728805541992
 30
160.0
 11
-40.98085403442383
 21
34.168148040771484
 31
160.0
 12
-33.25294494628906
 22
30.981094360351562
 32
160.0
 13
-33.25294494628906
 23
30.981094360351562
 33
160.0
  0
3DFACE
  8
0
 10
-33.25294494628906
 20
30.981094360351562
 30
160.0
 11
-32.1457405090332
 21
31.66454315185547
 31
160.0
 12
-30.958349227905273
 22
33.22417449951172
 32
160.0
 13
-30.958349227905273
 23
33.22417449951172
 33
160.0
  0
3DFACE
  8
0
 10
-30.958349227905273
 20
33.22417449951172
 30
160.0
 11
-30.50227165222168
 21
34.69416046142578
 31
160.0
 12
-30.407596588134766
 22
36.598724365234375
 32
160.0
 13
-30.407596588134766
 23
36.598724365234375
 33
160.0
  0
3DFACE
  8
0
 10
-30.407596588134766
 20
36.598724365234375
 30
160.0
 11
-31.318708419799805
 21
39.17728805541992
 31
160.0
 12
-33.25294494628906
 22
30.981094360351562
 32
160.0
 13
-33.25294494628906
 23
30.981094360351562
 33
160.0
  0
3DFACE
  8
0
 10
-33.25294494628906
 20
30.981094360351562
 30
160.0
 11
-30.958349227905273
 21
33.22417449951172
 31
160.0
 12
-30.407596588134766
 22
36.598724365234375
 32
160.0
 13
-30.407596588134766
 23
36.598724365234375
 33
160.0
  0
3DFACE
  8
0
 10
27.68194580078125
 20
43.80887222290039
 30
160.0
 11
28.029817581176758
 21
43.29631805419922
 31
160.0
 12
28.166505813598633
 22
43.1917610168457
 32
160.0
 13
28.166505813598633
 23
43.1917610168457
 33
160.0
  0
3DFACE
  8
0
 10
28.166505813598633
 20
43.1917610168457
 30
160.0
 11
28.436077117919922
 21
43.26879119873047
 31
160.0
 12
28.515851974487305
 22
43.29631805419922
 32
160.0
 13
28.515851974487305
 23
43.29631805419922
 33
160.0
  0
3DFACE
  8
0
 10
28.60886573791504
 20
43.666259765625
 30
160.0
 11
28.99551010131836
 21
43.97283935546875
 31
160.0
 12
29.053258895874023
 22
44.08345413208008
 32
160.0
 13
29.053258895874023
 23
44.08345413208008
 33
160.0
  0
3DFACE
  8
0
 10
28.166505813598633
 20
43.1917610168457
 30
160.0
 11
28.515851974487305
 21
43.29631805419922
 31
160.0
 12
28.60886573791504
 22
43.666259765625
 32
160.0
 13
28.60886573791504
 23
43.666259765625
 33
160.0
  0
3DFACE
  8
0
 10
27.631563186645508
 20
44.083457946777344
 30
160.0
 11
27.68194580078125
 21
43.80887222290039
 31
160.0
 12
28.166505813598633
 22
43.1917610168457
 32
160.0
 13
28.166505813598633
 23
43.1917610168457
 33
160.0
  0
3DFACE
  8
0
 10
28.025293350219727
 20
44.87059783935547
 30
160.0
 11
27.754316329956055
 21
44.56071090698242
 31
160.0
 12
27.631563186645508
 22
44.083457946777344
 32
160.0
 13
27.631563186645508
 23
44.083457946777344
 33
160.0
  0
3DFACE
  8
0
 10
28.663728713989258
 20
44.87059783935547
 30
160.0
 11
28.258365631103516
 21
45.0629768371582
 31
160.0
 12
28.15786361694336
 22
44.976383209228516
 32
160.0
 13
28.15786361694336
 23
44.976383209228516
 33
160.0
  0
3DFACE
  8
0
 10
28.15786361694336
 20
44.976383209228516
 30
160.0
 11
28.025293350219727
 21
44.87059783935547
 31
160.0
 12
27.631563186645508
 22
44.083457946777344
 32
160.0
 13
27.631563186645508
 23
44.083457946777344
 33
160.0
  0
3DFACE
  8
0
 10
27.631563186645508
 20
44.083457946777344
 30
160.0
 11
28.166505813598633
 21
43.1917610168457
 31
160.0
 12
28.60886573791504
 22
43.666259765625
 32
160.0
 13
28.60886573791504
 23
43.666259765625
 33
160.0
  0
3DFACE
  8
0
 10
28.60886573791504
 20
43.666259765625
 30
160.0
 11
29.053258895874023
 21
44.08345413208008
 31
160.0
 12
29.01580238342285
 22
44.38615417480469
 32
160.0
 13
29.01580238342285
 23
44.38615417480469
 33
160.0
  0
3DFACE
  8
0
 10
29.01580238342285
 20
44.38615417480469
 30
160.0
 11
28.663728713989258
 21
44.87059783935547
 31
160.0
 12
28.15786361694336
 22
44.976383209228516
 32
160.0
 13
28.15786361694336
 23
44.976383209228516
 33
160.0
  0
3DFACE
  8
0
 10
28.15786361694336
 20
44.976383209228516
 30
160.0
 11
27.631563186645508
 21
44.083457946777344
 31
160.0
 12
28.60886573791504
 22
43.666259765625
 32
160.0
 13
28.60886573791504
 23
43.666259765625
 33
160.0
  0
3DFACE
  8
0
 10
28.60886573791504
 20
43.666259765625
 30
160.0
 11
29.01580238342285
 21
44.38615417480469
 31
160.0
 12
28.15786361694336
 22
44.976383209228516
 32
160.0
 13
28.15786361694336
 23
44.976383209228516
 33
160.0
  0
ENDSEC
  0
EOF
