  0
SECTION
  2
HEADER
  9
$ACADVER
  1
AC1009
  9
$INSBASE
 10
0.0
 20
0.0
 30
0.0
  9
$EXTMIN
 10
0.0
 20
0.0
 30
0.0
  9
$EXTMAX
 10
0.0
 20
0.0
 30
0.0
  0
ENDSEC
  0
SECTION
  2
TABLES
  0
TABLE
  2
VPORT
 70
1
  0
VPORT
  2
*ACTIVE
 70
0
 10
0.0
 20
0.0
 11
1.0
 21
1.0
 12
-5.0
 22
1.0
 13
0.0
 23
0.0
 14
0.1
 24
0.1
 15
0.1
 25
0.1
 16
0.0
 26
0.0
 36
1.0
 17
0.0
 27
0.0
 37
0.0
 40
10.0
 41
1.0
 42
50.0
 43
0.0
 44
0.0
 50
0.0
 51
0.0
 71
0
 72
100
 73
1
 74
1
 75
0
 76
0
 77
0
 78
0
  0
ENDTAB
  0
TABLE
  2
LTYPE
 70
8
  0
LTYPE
  2
CONTINUOUS
 70
0
  3
Solid line
 72
65
 73
0
 40
0.0
  0
LTYPE
  2
DOT
 70
0
  3
. . . . . . .
 72
65
 73
2
 40
0.25
 49
0.0
 49
-0.25
  0
LTYPE
  2
DASHED
 70
0
  3
__ __ __ __ __
 72
65
 73
2
 40
0.8
 49
0.5
 49
-0.3
  0
LTYPE
  2
DASHDOT
 70
0
  3
__ . __ . __ .
 72
65
 73
4
 40
1.0
 49
0.5
 49
-0.25
 49
0.0
 49
-0.25
  0
LTYPE
  2
DIVIDE
 70
0
  3
____ . . ____ . . 
 72
65
 73
6
 40
1.25
 49
0.5
 49
-0.25
 49
0.0
 49
-0.25
 49
0.0
 49
-0.25
  0
LTYPE
  2
BORDER
 70
0
  3
__ __ . __ __ . 
 72
65
 73
6
 40
1.75
 49
0.5
 49
-0.25
 49
0.5
 49
-0.25
 49
0.0
 49
-0.25
  0
LTYPE
  2
HIDDEN
 70
0
  3
__ __ __ __ __
 72
65
 73
2
 40
0.4
 49
0.25
 49
-0.25
  0
LTYPE
  2
CENTER
 70
0
  3
____ _ ____ _ __
 72
65
 73
4
 40
2.0
 49
1.25
 49
-0.25
 49
0.25
 49
-0.25
  0
ENDTAB
  0
TABLE
  2
LAYER
 70
1
  0
LAYER
  2
PYDXF
 70
64
 62
7
  6
continuous
  0
ENDTAB
  0
TABLE
  2
STYLE
 70
1
  0
STYLE
  2
STANDARD
 70
0
 40
0
 41
1.0
 50
0.0
 71
0
 42
1
 3
ARIAL.TTF
 4

  0
ENDTAB
  0
TABLE
  2
VIEW
 70
1
  0
VIEW
  2
BF_TOPVIEW
 70
0
 40
120.0
 10
0.0
 20
0.0
 41
200.0
 11
0.0
 21
0.0
 31
1.0
 12
0.0
 22
0.0
 32
0.0
 42
50.0
 43
0.0
 44
0.0
 50
0.0
 71
0
  0
ENDTAB
  0
ENDSEC
  0
SECTION
  2
BLOCKS
  0
ENDSEC
  0
SECTION
  2
ENTITIES
  0
3DFACE
  8
0
 10
53.30156707763672
 20
-7.357149600982666
 30
162.0
 11
53.30048751831055
 21
-7.358340263366699
 31
162.0
 12
53.2982063293457
 22
-7.3627142906188965
 32
162.0
 13
53.2982063293457
 23
-7.3627142906188965
 33
162.0
  0
3DFACE
  8
0
 10
53.2982063293457
 20
-7.3627142906188965
 30
162.0
 11
53.18478775024414
 21
-7.514170169830322
 31
162.0
 12
52.83672332763672
 22
-8.127547264099121
 32
162.0
 13
52.83672332763672
 23
-8.127547264099121
 33
162.0
  0
3DFACE
  8
0
 10
52.83672332763672
 20
-8.127547264099121
 30
162.0
 11
52.665260314941406
 21
-8.896754264831543
 31
162.0
 12
52.65607452392578
 22
-9.66596508026123
 32
162.0
 13
52.65607452392578
 23
-9.66596508026123
 33
162.0
  0
3DFACE
  8
0
 10
52.65607452392578
 20
-9.66596508026123
 30
162.0
 11
52.751953125
 21
-10.322164535522461
 31
162.0
 12
52.77565383911133
 22
-10.435172080993652
 32
162.0
 13
52.77565383911133
 23
-10.435172080993652
 33
162.0
  0
3DFACE
  8
0
 10
52.77565383911133
 20
-10.435172080993652
 30
162.0
 11
52.94612121582031
 21
-10.765934944152832
 31
162.0
 12
53.20941162109375
 22
-11.232861518859863
 32
162.0
 13
53.20941162109375
 23
-11.232861518859863
 33
162.0
  0
3DFACE
  8
0
 10
53.313941955566406
 20
-11.382621765136719
 30
162.0
 11
53.6860466003418
 21
-11.985868453979492
 31
162.0
 12
53.766841888427734
 22
-12.113995552062988
 32
162.0
 13
53.766841888427734
 23
-12.113995552062988
 33
162.0
  0
3DFACE
  8
0
 10
52.77565383911133
 20
-10.435172080993652
 30
162.0
 11
53.20941162109375
 21
-11.232861518859863
 31
162.0
 12
53.313941955566406
 22
-11.382621765136719
 32
162.0
 13
53.313941955566406
 23
-11.382621765136719
 33
162.0
  0
3DFACE
  8
0
 10
52.83672332763672
 20
-8.127547264099121
 30
162.0
 11
52.65607452392578
 21
-9.66596508026123
 31
162.0
 12
52.77565383911133
 22
-10.435172080993652
 32
162.0
 13
52.77565383911133
 23
-10.435172080993652
 33
162.0
  0
3DFACE
  8
0
 10
53.30156707763672
 20
-7.357149600982666
 30
162.0
 11
53.2982063293457
 21
-7.3627142906188965
 31
162.0
 12
52.83672332763672
 22
-8.127547264099121
 32
162.0
 13
52.83672332763672
 23
-8.127547264099121
 33
162.0
  0
3DFACE
  8
0
 10
53.8499755859375
 20
-6.940342903137207
 30
162.0
 11
53.318050384521484
 21
-7.344193458557129
 31
162.0
 12
53.30156707763672
 22
-7.357149600982666
 32
162.0
 13
53.30156707763672
 23
-7.357149600982666
 33
162.0
  0
3DFACE
  8
0
 10
54.16054916381836
 20
-6.86979341506958
 30
162.0
 11
53.970176696777344
 21
-6.887917995452881
 31
162.0
 12
53.8499755859375
 22
-6.940342903137207
 32
162.0
 13
53.8499755859375
 23
-6.940342903137207
 33
162.0
  0
3DFACE
  8
0
 10
55.511573791503906
 20
-6.601134777069092
 30
162.0
 11
54.7587776184082
 21
-6.666563987731934
 31
162.0
 12
54.16054916381836
 22
-6.86979341506958
 32
162.0
 13
54.16054916381836
 23
-6.86979341506958
 33
162.0
  0
3DFACE
  8
0
 10
55.9633903503418
 20
-6.681048393249512
 30
162.0
 11
55.5473747253418
 21
-6.603090286254883
 31
162.0
 12
55.511573791503906
 22
-6.601134777069092
 32
162.0
 13
55.511573791503906
 23
-6.601134777069092
 33
162.0
  0
3DFACE
  8
0
 10
56.458770751953125
 20
-6.81978178024292
 30
162.0
 11
56.335960388183594
 21
-6.781768798828125
 31
162.0
 12
55.9633903503418
 22
-6.681048393249512
 32
162.0
 13
55.9633903503418
 23
-6.681048393249512
 33
162.0
  0
3DFACE
  8
0
 10
57.124568939208984
 20
-7.131072044372559
 30
162.0
 11
56.80813217163086
 21
-6.977802276611328
 31
162.0
 12
56.458770751953125
 22
-6.81978178024292
 32
162.0
 13
56.458770751953125
 23
-6.81978178024292
 33
162.0
  0
3DFACE
  8
0
 10
58.473262786865234
 20
-8.127547264099121
 30
162.0
 11
57.539527893066406
 21
-7.358340263366699
 31
162.0
 12
57.124568939208984
 22
-7.131072044372559
 32
162.0
 13
57.124568939208984
 23
-7.131072044372559
 33
162.0
  0
3DFACE
  8
0
 10
58.99862289428711
 20
-8.896754264831543
 30
162.0
 11
58.58208465576172
 21
-8.263869285583496
 31
162.0
 12
58.473262786865234
 22
-8.127547264099121
 32
162.0
 13
58.473262786865234
 23
-8.127547264099121
 33
162.0
  0
3DFACE
  8
0
 10
59.375892639160156
 20
-10.32351016998291
 30
162.0
 11
59.30933380126953
 21
-9.66596508026123
 31
162.0
 12
58.99862289428711
 22
-8.896754264831543
 32
162.0
 13
58.99862289428711
 23
-8.896754264831543
 33
162.0
  0
3DFACE
  8
0
 10
59.295257568359375
 20
-11.017256736755371
 30
162.0
 11
59.37884521484375
 21
-10.435172080993652
 31
162.0
 12
59.375892639160156
 22
-10.32351016998291
 32
162.0
 13
59.375892639160156
 23
-10.32351016998291
 33
162.0
  0
3DFACE
  8
0
 10
59.11931228637695
 20
-11.648665428161621
 30
162.0
 11
59.272579193115234
 21
-11.204380989074707
 31
162.0
 12
59.295257568359375
 22
-11.017256736755371
 32
162.0
 13
59.295257568359375
 23
-11.017256736755371
 33
162.0
  0
3DFACE
  8
0
 10
58.8703498840332
 20
-12.13803768157959
 30
162.0
 11
58.98634338378906
 21
-11.973589897155762
 31
162.0
 12
59.11931228637695
 22
-11.648665428161621
 32
162.0
 13
59.11931228637695
 23
-11.648665428161621
 33
162.0
  0
3DFACE
  8
0
 10
57.913169860839844
 20
-13.117064476013184
 30
162.0
 11
58.386898040771484
 21
-12.742796897888184
 31
162.0
 12
58.8703498840332
 22
-12.13803768157959
 32
162.0
 13
58.8703498840332
 23
-12.13803768157959
 33
162.0
  0
3DFACE
  8
0
 10
57.124568939208984
 20
-13.485462188720703
 30
162.0
 11
57.66910934448242
 21
-13.276153564453125
 31
162.0
 12
57.913169860839844
 22
-13.117064476013184
 32
162.0
 13
57.913169860839844
 23
-13.117064476013184
 33
162.0
  0
3DFACE
  8
0
 10
56.80259704589844
 20
-13.552739143371582
 30
162.0
 11
57.06586837768555
 21
-13.51880931854248
 31
162.0
 12
57.124568939208984
 22
-13.485462188720703
 32
162.0
 13
57.124568939208984
 23
-13.485462188720703
 33
162.0
  0
3DFACE
  8
0
 10
56.20823287963867
 20
-13.508490562438965
 30
162.0
 11
56.33596420288086
 21
-13.548378944396973
 31
162.0
 12
56.80259704589844
 22
-13.552739143371582
 32
162.0
 13
56.80259704589844
 23
-13.552739143371582
 33
162.0
  0
3DFACE
  8
0
 10
55.14860153198242
 20
-13.240988731384277
 30
162.0
 11
55.558555603027344
 21
-13.391316413879395
 31
162.0
 12
56.20823287963867
 22
-13.508490562438965
 32
162.0
 13
56.20823287963867
 23
-13.508490562438965
 33
162.0
  0
3DFACE
  8
0
 10
54.57379913330078
 20
-12.837902069091797
 30
162.0
 11
54.7587776184082
 21
-12.995166778564453
 31
162.0
 12
55.14860153198242
 22
-13.240988731384277
 32
162.0
 13
55.14860153198242
 23
-13.240988731384277
 33
162.0
  0
3DFACE
  8
0
 10
54.312591552734375
 20
-12.630434036254883
 30
162.0
 11
54.39665603637695
 21
-12.742796897888184
 31
162.0
 12
54.57379913330078
 22
-12.837902069091797
 32
162.0
 13
54.57379913330078
 23
-12.837902069091797
 33
162.0
  0
3DFACE
  8
0
 10
53.766841888427734
 20
-12.113995552062988
 30
162.0
 11
53.960575103759766
 21
-12.343957901000977
 31
162.0
 12
54.312591552734375
 22
-12.630434036254883
 32
162.0
 13
54.312591552734375
 23
-12.630434036254883
 33
162.0
  0
3DFACE
  8
0
 10
52.77565383911133
 20
-10.435172080993652
 30
162.0
 11
53.313941955566406
 21
-11.382621765136719
 31
162.0
 12
53.766841888427734
 22
-12.113995552062988
 32
162.0
 13
53.766841888427734
 23
-12.113995552062988
 33
162.0
  0
3DFACE
  8
0
 10
53.30156707763672
 20
-7.357149600982666
 30
162.0
 11
52.83672332763672
 21
-8.127547264099121
 31
162.0
 12
52.77565383911133
 22
-10.435172080993652
 32
162.0
 13
52.77565383911133
 23
-10.435172080993652
 33
162.0
  0
3DFACE
  8
0
 10
54.16054916381836
 20
-6.86979341506958
 30
162.0
 11
53.8499755859375
 21
-6.940342903137207
 31
162.0
 12
53.30156707763672
 22
-7.357149600982666
 32
162.0
 13
53.30156707763672
 23
-7.357149600982666
 33
162.0
  0
3DFACE
  8
0
 10
55.9633903503418
 20
-6.681048393249512
 30
162.0
 11
55.511573791503906
 21
-6.601134777069092
 31
162.0
 12
54.16054916381836
 22
-6.86979341506958
 32
162.0
 13
54.16054916381836
 23
-6.86979341506958
 33
162.0
  0
3DFACE
  8
0
 10
57.124568939208984
 20
-7.131072044372559
 30
162.0
 11
56.458770751953125
 21
-6.81978178024292
 31
162.0
 12
55.9633903503418
 22
-6.681048393249512
 32
162.0
 13
55.9633903503418
 23
-6.681048393249512
 33
162.0
  0
3DFACE
  8
0
 10
58.99862289428711
 20
-8.896754264831543
 30
162.0
 11
58.473262786865234
 21
-8.127547264099121
 31
162.0
 12
57.124568939208984
 22
-7.131072044372559
 32
162.0
 13
57.124568939208984
 23
-7.131072044372559
 33
162.0
  0
3DFACE
  8
0
 10
59.295257568359375
 20
-11.017256736755371
 30
162.0
 11
59.375892639160156
 21
-10.32351016998291
 31
162.0
 12
58.99862289428711
 22
-8.896754264831543
 32
162.0
 13
58.99862289428711
 23
-8.896754264831543
 33
162.0
  0
3DFACE
  8
0
 10
58.8703498840332
 20
-12.13803768157959
 30
162.0
 11
59.11931228637695
 21
-11.648665428161621
 31
162.0
 12
59.295257568359375
 22
-11.017256736755371
 32
162.0
 13
59.295257568359375
 23
-11.017256736755371
 33
162.0
  0
3DFACE
  8
0
 10
57.124568939208984
 20
-13.485462188720703
 30
162.0
 11
57.913169860839844
 21
-13.117064476013184
 31
162.0
 12
58.8703498840332
 22
-12.13803768157959
 32
162.0
 13
58.8703498840332
 23
-12.13803768157959
 33
162.0
  0
3DFACE
  8
0
 10
56.20823287963867
 20
-13.508490562438965
 30
162.0
 11
56.80259704589844
 21
-13.552739143371582
 31
162.0
 12
57.124568939208984
 22
-13.485462188720703
 32
162.0
 13
57.124568939208984
 23
-13.485462188720703
 33
162.0
  0
3DFACE
  8
0
 10
54.57379913330078
 20
-12.837902069091797
 30
162.0
 11
55.14860153198242
 21
-13.240988731384277
 31
162.0
 12
56.20823287963867
 22
-13.508490562438965
 32
162.0
 13
56.20823287963867
 23
-13.508490562438965
 33
162.0
  0
3DFACE
  8
0
 10
53.766841888427734
 20
-12.113995552062988
 30
162.0
 11
54.312591552734375
 21
-12.630434036254883
 31
162.0
 12
54.57379913330078
 22
-12.837902069091797
 32
162.0
 13
54.57379913330078
 23
-12.837902069091797
 33
162.0
  0
3DFACE
  8
0
 10
53.30156707763672
 20
-7.357149600982666
 30
162.0
 11
52.77565383911133
 21
-10.435172080993652
 31
162.0
 12
53.766841888427734
 22
-12.113995552062988
 32
162.0
 13
53.766841888427734
 23
-12.113995552062988
 33
162.0
  0
3DFACE
  8
0
 10
55.9633903503418
 20
-6.681048393249512
 30
162.0
 11
54.16054916381836
 21
-6.86979341506958
 31
162.0
 12
53.30156707763672
 22
-7.357149600982666
 32
162.0
 13
53.30156707763672
 23
-7.357149600982666
 33
162.0
  0
3DFACE
  8
0
 10
58.99862289428711
 20
-8.896754264831543
 30
162.0
 11
57.124568939208984
 21
-7.131072044372559
 31
162.0
 12
55.9633903503418
 22
-6.681048393249512
 32
162.0
 13
55.9633903503418
 23
-6.681048393249512
 33
162.0
  0
3DFACE
  8
0
 10
58.8703498840332
 20
-12.13803768157959
 30
162.0
 11
59.295257568359375
 21
-11.017256736755371
 31
162.0
 12
58.99862289428711
 22
-8.896754264831543
 32
162.0
 13
58.99862289428711
 23
-8.896754264831543
 33
162.0
  0
3DFACE
  8
0
 10
56.20823287963867
 20
-13.508490562438965
 30
162.0
 11
57.124568939208984
 21
-13.485462188720703
 31
162.0
 12
58.8703498840332
 22
-12.13803768157959
 32
162.0
 13
58.8703498840332
 23
-12.13803768157959
 33
162.0
  0
3DFACE
  8
0
 10
53.766841888427734
 20
-12.113995552062988
 30
162.0
 11
54.57379913330078
 21
-12.837902069091797
 31
162.0
 12
56.20823287963867
 22
-13.508490562438965
 32
162.0
 13
56.20823287963867
 23
-13.508490562438965
 33
162.0
  0
3DFACE
  8
0
 10
55.9633903503418
 20
-6.681048393249512
 30
162.0
 11
53.30156707763672
 21
-7.357149600982666
 31
162.0
 12
53.766841888427734
 22
-12.113995552062988
 32
162.0
 13
53.766841888427734
 23
-12.113995552062988
 33
162.0
  0
3DFACE
  8
0
 10
58.8703498840332
 20
-12.13803768157959
 30
162.0
 11
58.99862289428711
 21
-8.896754264831543
 31
162.0
 12
55.9633903503418
 22
-6.681048393249512
 32
162.0
 13
55.9633903503418
 23
-6.681048393249512
 33
162.0
  0
3DFACE
  8
0
 10
53.766841888427734
 20
-12.113995552062988
 30
162.0
 11
56.20823287963867
 21
-13.508490562438965
 31
162.0
 12
58.8703498840332
 22
-12.13803768157959
 32
162.0
 13
58.8703498840332
 23
-12.13803768157959
 33
162.0
  0
3DFACE
  8
0
 10
53.766841888427734
 20
-12.113995552062988
 30
162.0
 11
58.8703498840332
 21
-12.13803768157959
 31
162.0
 12
55.9633903503418
 22
-6.681048393249512
 32
162.0
 13
55.9633903503418
 23
-6.681048393249512
 33
162.0
  0
3DFACE
  8
0
 10
-33.5787353515625
 20
39.54777145385742
 30
162.0
 11
-33.600189208984375
 21
39.554805755615234
 31
162.0
 12
-33.62665939331055
 22
39.55824279785156
 32
162.0
 13
-33.62665939331055
 23
39.55824279785156
 33
162.0
  0
3DFACE
  8
0
 10
-33.62665939331055
 20
39.55824279785156
 30
162.0
 11
-34.42469787597656
 21
39.69338607788086
 31
162.0
 12
-34.56272888183594
 22
39.704246520996094
 32
162.0
 13
-34.56272888183594
 23
39.704246520996094
 33
162.0
  0
3DFACE
  8
0
 10
-34.56272888183594
 20
39.704246520996094
 30
162.0
 11
-35.17390060424805
 21
39.72267150878906
 31
162.0
 12
-35.490753173828125
 22
39.68397521972656
 32
162.0
 13
-35.490753173828125
 23
39.68397521972656
 33
162.0
  0
3DFACE
  8
0
 10
-35.490753173828125
 20
39.68397521972656
 30
162.0
 11
-36.04648208618164
 21
39.582340240478516
 31
162.0
 12
-36.06028366088867
 22
39.57958984375
 32
162.0
 13
-36.06028366088867
 23
39.57958984375
 33
162.0
  0
3DFACE
  8
0
 10
-36.06028366088867
 20
39.57958984375
 30
162.0
 11
-36.443538665771484
 21
39.478782653808594
 31
162.0
 12
-36.7199592590332
 22
39.39564514160156
 32
162.0
 13
-36.7199592590332
 23
39.39564514160156
 33
162.0
  0
3DFACE
  8
0
 10
-37.03712463378906
 20
39.26411437988281
 30
162.0
 11
-37.25908660888672
 21
39.1842041015625
 31
162.0
 12
-37.633358001708984
 22
38.966312408447266
 32
162.0
 13
-37.633358001708984
 23
38.966312408447266
 33
162.0
  0
3DFACE
  8
0
 10
-36.06028366088867
 20
39.57958984375
 30
162.0
 11
-36.7199592590332
 21
39.39564514160156
 31
162.0
 12
-37.03712463378906
 22
39.26411437988281
 32
162.0
 13
-37.03712463378906
 23
39.26411437988281
 33
162.0
  0
3DFACE
  8
0
 10
-34.56272888183594
 20
39.704246520996094
 30
162.0
 11
-35.490753173828125
 21
39.68397521972656
 31
162.0
 12
-36.06028366088867
 22
39.57958984375
 32
162.0
 13
-36.06028366088867
 23
39.57958984375
 33
162.0
  0
3DFACE
  8
0
 10
-33.5787353515625
 20
39.54777145385742
 30
162.0
 11
-33.62665939331055
 21
39.55824279785156
 31
162.0
 12
-34.56272888183594
 22
39.704246520996094
 32
162.0
 13
-34.56272888183594
 23
39.704246520996094
 33
162.0
  0
3DFACE
  8
0
 10
-32.763431549072266
 20
39.233089447021484
 30
162.0
 11
-32.971099853515625
 21
39.33363723754883
 31
162.0
 12
-33.505584716796875
 22
39.520137786865234
 32
162.0
 13
-33.505584716796875
 23
39.520137786865234
 33
162.0
  0
3DFACE
  8
0
 10
-33.505584716796875
 20
39.520137786865234
 30
162.0
 11
-33.5787353515625
 21
39.54777145385742
 31
162.0
 12
-34.56272888183594
 22
39.704246520996094
 32
162.0
 13
-34.56272888183594
 23
39.704246520996094
 33
162.0
  0
3DFACE
  8
0
 10
-34.56272888183594
 20
39.704246520996094
 30
162.0
 11
-36.06028366088867
 21
39.57958984375
 31
162.0
 12
-37.03712463378906
 22
39.26411437988281
 32
162.0
 13
-37.03712463378906
 23
39.26411437988281
 33
162.0
  0
3DFACE
  8
0
 10
-37.03712463378906
 20
39.26411437988281
 30
162.0
 11
-37.633358001708984
 21
38.966312408447266
 31
162.0
 12
-37.936859130859375
 22
38.764122009277344
 32
162.0
 13
-37.936859130859375
 23
38.764122009277344
 33
162.0
  0
3DFACE
  8
0
 10
-37.936859130859375
 20
38.764122009277344
 30
162.0
 11
-38.40895462036133
 21
38.400123596191406
 31
162.0
 12
-38.55851364135742
 22
38.27239990234375
 32
162.0
 13
-38.55851364135742
 23
38.27239990234375
 33
162.0
  0
3DFACE
  8
0
 10
-38.55851364135742
 20
38.27239990234375
 30
162.0
 11
-38.852779388427734
 21
37.95957946777344
 31
162.0
 12
-39.167083740234375
 22
37.581321716308594
 32
162.0
 13
-39.167083740234375
 23
37.581321716308594
 33
162.0
  0
3DFACE
  8
0
 10
-39.167083740234375
 20
37.581321716308594
 30
162.0
 11
-39.3433952331543
 21
37.34524917602539
 31
162.0
 12
-39.463130950927734
 22
37.155029296875
 32
162.0
 13
-39.463130950927734
 23
37.155029296875
 33
162.0
  0
3DFACE
  8
0
 10
-39.463130950927734
 20
37.155029296875
 30
162.0
 11
-39.627540588378906
 21
36.854766845703125
 31
162.0
 12
-39.7906379699707
 22
36.350467681884766
 32
162.0
 13
-39.7906379699707
 23
36.350467681884766
 33
162.0
  0
3DFACE
  8
0
 10
-39.7906379699707
 20
36.350467681884766
 30
162.0
 11
-39.8730583190918
 21
36.00788116455078
 31
162.0
 12
-39.94991683959961
 22
35.64054489135742
 32
162.0
 13
-39.94991683959961
 23
35.64054489135742
 33
162.0
  0
3DFACE
  8
0
 10
-39.94991683959961
 20
35.64054489135742
 30
162.0
 11
-39.95211410522461
 21
35.5459098815918
 31
162.0
 12
-39.938140869140625
 22
35.28323745727539
 32
162.0
 13
-39.938140869140625
 23
35.28323745727539
 33
162.0
  0
3DFACE
  8
0
 10
-39.938140869140625
 20
35.28323745727539
 30
162.0
 11
-39.930328369140625
 21
34.74135971069336
 31
162.0
 12
-39.822147369384766
 22
34.276092529296875
 32
162.0
 13
-39.822147369384766
 23
34.276092529296875
 33
162.0
  0
3DFACE
  8
0
 10
-39.822147369384766
 20
34.276092529296875
 30
162.0
 11
-39.76039505004883
 21
34.071441650390625
 31
162.0
 12
-39.71479415893555
 22
33.97177505493164
 32
162.0
 13
-39.71479415893555
 23
33.97177505493164
 33
162.0
  0
3DFACE
  8
0
 10
-39.71479415893555
 20
33.97177505493164
 30
162.0
 11
-39.69679260253906
 21
33.936805725097656
 31
162.0
 12
-39.54376220703125
 22
33.72875213623047
 32
162.0
 13
-39.54376220703125
 23
33.72875213623047
 33
162.0
  0
3DFACE
  8
0
 10
-39.54376220703125
 20
33.72875213623047
 30
162.0
 11
-39.17698287963867
 21
33.12841796875
 31
162.0
 12
-38.55995178222656
 22
32.390201568603516
 32
162.0
 13
-38.55995178222656
 23
32.390201568603516
 33
162.0
  0
3DFACE
  8
0
 10
-38.55995178222656
 20
32.390201568603516
 30
162.0
 11
-38.520416259765625
 21
32.34611129760742
 31
162.0
 12
-38.17642593383789
 22
31.994997024536133
 32
162.0
 13
-38.17642593383789
 23
31.994997024536133
 33
162.0
  0
3DFACE
  8
0
 10
-37.905696868896484
 20
31.76938247680664
 30
162.0
 11
-37.69204330444336
 21
31.567201614379883
 31
162.0
 12
-37.55907440185547
 22
31.459997177124023
 32
162.0
 13
-37.55907440185547
 23
31.459997177124023
 33
162.0
  0
3DFACE
  8
0
 10
-38.55995178222656
 20
32.390201568603516
 30
162.0
 11
-38.17642593383789
 21
31.994997024536133
 31
162.0
 12
-37.905696868896484
 22
31.76938247680664
 32
162.0
 13
-37.905696868896484
 23
31.76938247680664
 33
162.0
  0
3DFACE
  8
0
 10
-39.71479415893555
 20
33.97177505493164
 30
162.0
 11
-39.54376220703125
 21
33.72875213623047
 31
162.0
 12
-38.55995178222656
 22
32.390201568603516
 32
162.0
 13
-38.55995178222656
 23
32.390201568603516
 33
162.0
  0
3DFACE
  8
0
 10
-39.938140869140625
 20
35.28323745727539
 30
162.0
 11
-39.822147369384766
 21
34.276092529296875
 31
162.0
 12
-39.71479415893555
 22
33.97177505493164
 32
162.0
 13
-39.71479415893555
 23
33.97177505493164
 33
162.0
  0
3DFACE
  8
0
 10
-39.7906379699707
 20
36.350467681884766
 30
162.0
 11
-39.94991683959961
 21
35.64054489135742
 31
162.0
 12
-39.938140869140625
 22
35.28323745727539
 32
162.0
 13
-39.938140869140625
 23
35.28323745727539
 33
162.0
  0
3DFACE
  8
0
 10
-39.167083740234375
 20
37.581321716308594
 30
162.0
 11
-39.463130950927734
 21
37.155029296875
 31
162.0
 12
-39.7906379699707
 22
36.350467681884766
 32
162.0
 13
-39.7906379699707
 23
36.350467681884766
 33
162.0
  0
3DFACE
  8
0
 10
-37.936859130859375
 20
38.764122009277344
 30
162.0
 11
-38.55851364135742
 21
38.27239990234375
 31
162.0
 12
-39.167083740234375
 22
37.581321716308594
 32
162.0
 13
-39.167083740234375
 23
37.581321716308594
 33
162.0
  0
3DFACE
  8
0
 10
-34.56272888183594
 20
39.704246520996094
 30
162.0
 11
-37.03712463378906
 21
39.26411437988281
 31
162.0
 12
-37.936859130859375
 22
38.764122009277344
 32
162.0
 13
-37.936859130859375
 23
38.764122009277344
 33
162.0
  0
3DFACE
  8
0
 10
-32.763431549072266
 20
39.233089447021484
 30
162.0
 11
-33.505584716796875
 21
39.520137786865234
 31
162.0
 12
-34.56272888183594
 22
39.704246520996094
 32
162.0
 13
-34.56272888183594
 23
39.704246520996094
 33
162.0
  0
3DFACE
  8
0
 10
-31.182292938232422
 20
38.14470672607422
 30
162.0
 11
-31.915430068969727
 21
38.75182342529297
 31
162.0
 12
-32.763431549072266
 22
39.233089447021484
 32
162.0
 13
-32.763431549072266
 23
39.233089447021484
 33
162.0
  0
3DFACE
  8
0
 10
-31.03801918029785
 20
37.99309539794922
 30
162.0
 11
-31.064210891723633
 21
38.028743743896484
 31
162.0
 12
-31.182292938232422
 22
38.14470672607422
 32
162.0
 13
-31.182292938232422
 23
38.14470672607422
 33
162.0
  0
3DFACE
  8
0
 10
-30.492599487304688
 20
37.15502166748047
 30
162.0
 11
-30.639169692993164
 21
37.461368560791016
 31
162.0
 12
-31.019380569458008
 22
37.96628189086914
 32
162.0
 13
-31.019380569458008
 23
37.96628189086914
 33
162.0
  0
3DFACE
  8
0
 10
-31.019380569458008
 20
37.96628189086914
 30
162.0
 11
-31.03801918029785
 21
37.99309539794922
 31
162.0
 12
-31.182292938232422
 22
38.14470672607422
 32
162.0
 13
-31.182292938232422
 23
38.14470672607422
 33
162.0
  0
3DFACE
  8
0
 10
-31.182292938232422
 20
38.14470672607422
 30
162.0
 11
-32.763431549072266
 21
39.233089447021484
 31
162.0
 12
-34.56272888183594
 22
39.704246520996094
 32
162.0
 13
-34.56272888183594
 23
39.704246520996094
 33
162.0
  0
3DFACE
  8
0
 10
-34.56272888183594
 20
39.704246520996094
 30
162.0
 11
-37.936859130859375
 21
38.764122009277344
 31
162.0
 12
-39.167083740234375
 22
37.581321716308594
 32
162.0
 13
-39.167083740234375
 23
37.581321716308594
 33
162.0
  0
3DFACE
  8
0
 10
-39.167083740234375
 20
37.581321716308594
 30
162.0
 11
-39.7906379699707
 21
36.350467681884766
 31
162.0
 12
-39.938140869140625
 22
35.28323745727539
 32
162.0
 13
-39.938140869140625
 23
35.28323745727539
 33
162.0
  0
3DFACE
  8
0
 10
-39.938140869140625
 20
35.28323745727539
 30
162.0
 11
-39.71479415893555
 21
33.97177505493164
 31
162.0
 12
-38.55995178222656
 22
32.390201568603516
 32
162.0
 13
-38.55995178222656
 23
32.390201568603516
 33
162.0
  0
3DFACE
  8
0
 10
-38.55995178222656
 20
32.390201568603516
 30
162.0
 11
-37.905696868896484
 21
31.76938247680664
 31
162.0
 12
-37.55907440185547
 22
31.459997177124023
 32
162.0
 13
-37.55907440185547
 23
31.459997177124023
 33
162.0
  0
3DFACE
  8
0
 10
-37.55907440185547
 20
31.459997177124023
 30
162.0
 11
-36.89786911010742
 21
31.00090789794922
 31
162.0
 12
-36.25071716308594
 22
30.624755859375
 32
162.0
 13
-36.25071716308594
 23
30.624755859375
 33
162.0
  0
3DFACE
  8
0
 10
-35.76734924316406
 20
30.445465087890625
 30
162.0
 11
-35.4041748046875
 21
30.289764404296875
 31
162.0
 12
-34.818843841552734
 22
30.12982177734375
 32
162.0
 13
-34.818843841552734
 23
30.12982177734375
 33
162.0
  0
3DFACE
  8
0
 10
-37.55907440185547
 20
31.459997177124023
 30
162.0
 11
-36.25071716308594
 21
30.624755859375
 31
162.0
 12
-35.76734924316406
 22
30.445465087890625
 32
162.0
 13
-35.76734924316406
 23
30.445465087890625
 33
162.0
  0
3DFACE
  8
0
 10
-39.938140869140625
 20
35.28323745727539
 30
162.0
 11
-38.55995178222656
 21
32.390201568603516
 31
162.0
 12
-37.55907440185547
 22
31.459997177124023
 32
162.0
 13
-37.55907440185547
 23
31.459997177124023
 33
162.0
  0
3DFACE
  8
0
 10
-34.56272888183594
 20
39.704246520996094
 30
162.0
 11
-39.167083740234375
 21
37.581321716308594
 31
162.0
 12
-39.938140869140625
 22
35.28323745727539
 32
162.0
 13
-39.938140869140625
 23
35.28323745727539
 33
162.0
  0
3DFACE
  8
0
 10
-31.019380569458008
 20
37.96628189086914
 30
162.0
 11
-31.182292938232422
 21
38.14470672607422
 31
162.0
 12
-34.56272888183594
 22
39.704246520996094
 32
162.0
 13
-34.56272888183594
 23
39.704246520996094
 33
162.0
  0
3DFACE
  8
0
 10
-30.33428955078125
 20
36.880374908447266
 30
162.0
 11
-30.492599487304688
 21
37.15502166748047
 31
162.0
 12
-31.019380569458008
 22
37.96628189086914
 32
162.0
 13
-31.019380569458008
 23
37.96628189086914
 33
162.0
  0
3DFACE
  8
0
 10
-30.026248931884766
 20
36.07158279418945
 30
162.0
 11
-30.075220108032227
 21
36.28861999511719
 31
162.0
 12
-30.33428955078125
 22
36.880374908447266
 32
162.0
 13
-30.33428955078125
 23
36.880374908447266
 33
162.0
  0
3DFACE
  8
0
 10
-29.897079467773438
 20
35.22597885131836
 30
162.0
 11
-29.937448501586914
 21
35.5459098815918
 31
162.0
 12
-30.026248931884766
 22
36.07158279418945
 32
162.0
 13
-30.026248931884766
 23
36.07158279418945
 33
162.0
  0
3DFACE
  8
0
 10
-29.884199142456055
 20
34.53679275512695
 30
162.0
 11
-29.883710861206055
 21
34.741363525390625
 31
162.0
 12
-29.897079467773438
 22
35.22597885131836
 32
162.0
 13
-29.897079467773438
 23
35.22597885131836
 33
162.0
  0
3DFACE
  8
0
 10
-29.925783157348633
 20
33.7135009765625
 30
162.0
 11
-29.899879455566406
 21
33.93680953979492
 31
162.0
 12
-29.884199142456055
 22
34.53679275512695
 32
162.0
 13
-29.884199142456055
 23
34.53679275512695
 33
162.0
  0
3DFACE
  8
0
 10
-30.272401809692383
 20
32.334739685058594
 30
162.0
 11
-30.019067764282227
 21
33.13226318359375
 31
162.0
 12
-29.971765518188477
 22
33.44257736206055
 32
162.0
 13
-29.971765518188477
 23
33.44257736206055
 33
162.0
  0
3DFACE
  8
0
 10
-29.971765518188477
 20
33.44257736206055
 30
162.0
 11
-29.925783157348633
 21
33.7135009765625
 31
162.0
 12
-29.884199142456055
 22
34.53679275512695
 32
162.0
 13
-29.884199142456055
 23
34.53679275512695
 33
162.0
  0
3DFACE
  8
0
 10
-29.884199142456055
 20
34.53679275512695
 30
162.0
 11
-29.897079467773438
 21
35.22597885131836
 31
162.0
 12
-30.026248931884766
 22
36.07158279418945
 32
162.0
 13
-30.026248931884766
 23
36.07158279418945
 33
162.0
  0
3DFACE
  8
0
 10
-30.026248931884766
 20
36.07158279418945
 30
162.0
 11
-30.33428955078125
 21
36.880374908447266
 31
162.0
 12
-31.019380569458008
 22
37.96628189086914
 32
162.0
 13
-31.019380569458008
 23
37.96628189086914
 33
162.0
  0
3DFACE
  8
0
 10
-31.019380569458008
 20
37.96628189086914
 30
162.0
 11
-34.56272888183594
 21
39.704246520996094
 31
162.0
 12
-39.938140869140625
 22
35.28323745727539
 32
162.0
 13
-39.938140869140625
 23
35.28323745727539
 33
162.0
  0
3DFACE
  8
0
 10
-39.938140869140625
 20
35.28323745727539
 30
162.0
 11
-37.55907440185547
 21
31.459997177124023
 31
162.0
 12
-35.76734924316406
 22
30.445465087890625
 32
162.0
 13
-35.76734924316406
 23
30.445465087890625
 33
162.0
  0
3DFACE
  8
0
 10
-35.76734924316406
 20
30.445465087890625
 30
162.0
 11
-34.818843841552734
 21
30.12982177734375
 31
162.0
 12
-34.575252532958984
 22
30.08458137512207
 32
162.0
 13
-34.575252532958984
 23
30.08458137512207
 33
162.0
  0
3DFACE
  8
0
 10
-34.458091735839844
 20
30.08205223083496
 30
162.0
 11
-33.75660705566406
 21
30.027814865112305
 31
162.0
 12
-33.23601150512695
 22
30.06105613708496
 32
162.0
 13
-33.23601150512695
 23
30.06105613708496
 33
162.0
  0
3DFACE
  8
0
 10
-35.76734924316406
 20
30.445465087890625
 30
162.0
 11
-34.575252532958984
 21
30.08458137512207
 31
162.0
 12
-34.458091735839844
 22
30.08205223083496
 32
162.0
 13
-34.458091735839844
 23
30.08205223083496
 33
162.0
  0
3DFACE
  8
0
 10
-31.019380569458008
 20
37.96628189086914
 30
162.0
 11
-39.938140869140625
 21
35.28323745727539
 31
162.0
 12
-35.76734924316406
 22
30.445465087890625
 32
162.0
 13
-35.76734924316406
 23
30.445465087890625
 33
162.0
  0
3DFACE
  8
0
 10
-29.884199142456055
 20
34.53679275512695
 30
162.0
 11
-30.026248931884766
 21
36.07158279418945
 31
162.0
 12
-31.019380569458008
 22
37.96628189086914
 32
162.0
 13
-31.019380569458008
 23
37.96628189086914
 33
162.0
  0
3DFACE
  8
0
 10
-30.272401809692383
 20
32.334739685058594
 30
162.0
 11
-29.971765518188477
 21
33.44257736206055
 31
162.0
 12
-29.884199142456055
 22
34.53679275512695
 32
162.0
 13
-29.884199142456055
 23
34.53679275512695
 33
162.0
  0
3DFACE
  8
0
 10
-30.281387329101562
 20
32.31465148925781
 30
162.0
 11
-30.274415969848633
 21
32.32771682739258
 31
162.0
 12
-30.272401809692383
 22
32.334739685058594
 32
162.0
 13
-30.272401809692383
 23
32.334739685058594
 33
162.0
  0
3DFACE
  8
0
 10
-30.733652114868164
 20
31.541046142578125
 30
162.0
 11
-30.62488555908203
 21
31.704975128173828
 31
162.0
 12
-30.281387329101562
 22
32.31465148925781
 32
162.0
 13
-30.281387329101562
 23
32.31465148925781
 33
162.0
  0
3DFACE
  8
0
 10
-31.467445373535156
 20
30.723051071166992
 30
162.0
 11
-31.37312126159668
 21
30.7982177734375
 31
162.0
 12
-30.733652114868164
 22
31.541046142578125
 32
162.0
 13
-30.733652114868164
 23
31.541046142578125
 33
162.0
  0
3DFACE
  8
0
 10
-32.14653778076172
 20
30.308359146118164
 30
162.0
 11
-31.690818786621094
 21
30.58112335205078
 31
162.0
 12
-31.467445373535156
 22
30.723051071166992
 32
162.0
 13
-31.467445373535156
 23
30.723051071166992
 33
162.0
  0
3DFACE
  8
0
 10
-33.23601150512695
 20
30.06105613708496
 30
162.0
 11
-32.64676284790039
 21
30.158096313476562
 31
162.0
 12
-32.14653778076172
 22
30.308359146118164
 32
162.0
 13
-32.14653778076172
 23
30.308359146118164
 33
162.0
  0
3DFACE
  8
0
 10
-35.76734924316406
 20
30.445465087890625
 30
162.0
 11
-34.458091735839844
 21
30.08205223083496
 31
162.0
 12
-33.23601150512695
 22
30.06105613708496
 32
162.0
 13
-33.23601150512695
 23
30.06105613708496
 33
162.0
  0
3DFACE
  8
0
 10
-29.884199142456055
 20
34.53679275512695
 30
162.0
 11
-31.019380569458008
 21
37.96628189086914
 31
162.0
 12
-35.76734924316406
 22
30.445465087890625
 32
162.0
 13
-35.76734924316406
 23
30.445465087890625
 33
162.0
  0
3DFACE
  8
0
 10
-30.281387329101562
 20
32.31465148925781
 30
162.0
 11
-30.272401809692383
 21
32.334739685058594
 31
162.0
 12
-29.884199142456055
 22
34.53679275512695
 32
162.0
 13
-29.884199142456055
 23
34.53679275512695
 33
162.0
  0
3DFACE
  8
0
 10
-31.467445373535156
 20
30.723051071166992
 30
162.0
 11
-30.733652114868164
 21
31.541046142578125
 31
162.0
 12
-30.281387329101562
 22
32.31465148925781
 32
162.0
 13
-30.281387329101562
 23
32.31465148925781
 33
162.0
  0
3DFACE
  8
0
 10
-33.23601150512695
 20
30.06105613708496
 30
162.0
 11
-32.14653778076172
 21
30.308359146118164
 31
162.0
 12
-31.467445373535156
 22
30.723051071166992
 32
162.0
 13
-31.467445373535156
 23
30.723051071166992
 33
162.0
  0
3DFACE
  8
0
 10
-29.884199142456055
 20
34.53679275512695
 30
162.0
 11
-35.76734924316406
 21
30.445465087890625
 31
162.0
 12
-33.23601150512695
 22
30.06105613708496
 32
162.0
 13
-33.23601150512695
 23
30.06105613708496
 33
162.0
  0
3DFACE
  8
0
 10
-31.467445373535156
 20
30.723051071166992
 30
162.0
 11
-30.281387329101562
 21
32.31465148925781
 31
162.0
 12
-29.884199142456055
 22
34.53679275512695
 32
162.0
 13
-29.884199142456055
 23
34.53679275512695
 33
162.0
  0
3DFACE
  8
0
 10
-33.23601150512695
 20
30.06105613708496
 30
162.0
 11
-31.467445373535156
 21
30.723051071166992
 31
162.0
 12
-29.884199142456055
 22
34.53679275512695
 32
162.0
 13
-29.884199142456055
 23
34.53679275512695
 33
162.0
  0
ENDSEC
  0
EOF
