  0
SECTION
  2
HEADER
  9
$ACADVER
  1
AC1009
  9
$INSBASE
 10
0.0
 20
0.0
 30
0.0
  9
$EXTMIN
 10
0.0
 20
0.0
 30
0.0
  9
$EXTMAX
 10
0.0
 20
0.0
 30
0.0
  0
ENDSEC
  0
SECTION
  2
TABLES
  0
TABLE
  2
VPORT
 70
1
  0
VPORT
  2
*ACTIVE
 70
0
 10
0.0
 20
0.0
 11
1.0
 21
1.0
 12
-5.0
 22
1.0
 13
0.0
 23
0.0
 14
0.1
 24
0.1
 15
0.1
 25
0.1
 16
0.0
 26
0.0
 36
1.0
 17
0.0
 27
0.0
 37
0.0
 40
10.0
 41
1.0
 42
50.0
 43
0.0
 44
0.0
 50
0.0
 51
0.0
 71
0
 72
100
 73
1
 74
1
 75
0
 76
0
 77
0
 78
0
  0
ENDTAB
  0
TABLE
  2
LTYPE
 70
8
  0
LTYPE
  2
CONTINUOUS
 70
0
  3
Solid line
 72
65
 73
0
 40
0.0
  0
LTYPE
  2
DOT
 70
0
  3
. . . . . . .
 72
65
 73
2
 40
0.25
 49
0.0
 49
-0.25
  0
LTYPE
  2
DASHED
 70
0
  3
__ __ __ __ __
 72
65
 73
2
 40
0.8
 49
0.5
 49
-0.3
  0
LTYPE
  2
DASHDOT
 70
0
  3
__ . __ . __ .
 72
65
 73
4
 40
1.0
 49
0.5
 49
-0.25
 49
0.0
 49
-0.25
  0
LTYPE
  2
DIVIDE
 70
0
  3
____ . . ____ . . 
 72
65
 73
6
 40
1.25
 49
0.5
 49
-0.25
 49
0.0
 49
-0.25
 49
0.0
 49
-0.25
  0
LTYPE
  2
BORDER
 70
0
  3
__ __ . __ __ . 
 72
65
 73
6
 40
1.75
 49
0.5
 49
-0.25
 49
0.5
 49
-0.25
 49
0.0
 49
-0.25
  0
LTYPE
  2
HIDDEN
 70
0
  3
__ __ __ __ __
 72
65
 73
2
 40
0.4
 49
0.25
 49
-0.25
  0
LTYPE
  2
CENTER
 70
0
  3
____ _ ____ _ __
 72
65
 73
4
 40
2.0
 49
1.25
 49
-0.25
 49
0.25
 49
-0.25
  0
ENDTAB
  0
TABLE
  2
LAYER
 70
1
  0
LAYER
  2
PYDXF
 70
64
 62
7
  6
continuous
  0
ENDTAB
  0
TABLE
  2
STYLE
 70
1
  0
STYLE
  2
STANDARD
 70
0
 40
0
 41
1.0
 50
0.0
 71
0
 42
1
 3
ARIAL.TTF
 4

  0
ENDTAB
  0
TABLE
  2
VIEW
 70
1
  0
VIEW
  2
BF_TOPVIEW
 70
0
 40
120.0
 10
0.0
 20
0.0
 41
200.0
 11
0.0
 21
0.0
 31
1.0
 12
0.0
 22
0.0
 32
0.0
 42
50.0
 43
0.0
 44
0.0
 50
0.0
 71
0
  0
ENDTAB
  0
ENDSEC
  0
SECTION
  2
BLOCKS
  0
ENDSEC
  0
SECTION
  2
ENTITIES
  0
3DFACE
  8
0
 10
54.52998733520508
 20
-8.127547264099121
 30
164.0
 11
54.42206573486328
 21
-8.081457138061523
 31
164.0
 12
54.4099235534668
 22
-8.080493927001953
 32
164.0
 13
54.4099235534668
 23
-8.080493927001953
 33
164.0
  0
3DFACE
  8
0
 10
54.4099235534668
 20
-8.080493927001953
 30
164.0
 11
53.82197189331055
 21
-7.79533576965332
 31
164.0
 12
53.63346481323242
 22
-7.796297073364258
 32
164.0
 13
53.63346481323242
 23
-7.796297073364258
 33
164.0
  0
3DFACE
  8
0
 10
53.63346481323242
 20
-7.796297073364258
 30
164.0
 11
53.222476959228516
 21
-7.790943145751953
 31
164.0
 12
52.83721923828125
 22
-7.968225479125977
 32
164.0
 13
52.83721923828125
 23
-7.968225479125977
 33
164.0
  0
3DFACE
  8
0
 10
52.83721923828125
 20
-7.968225479125977
 30
164.0
 11
52.667972564697266
 21
-8.12367057800293
 31
164.0
 12
52.3284797668457
 22
-8.69961929321289
 32
164.0
 13
52.3284797668457
 23
-8.69961929321289
 33
164.0
  0
3DFACE
  8
0
 10
52.3284797668457
 20
-8.69961929321289
 30
164.0
 11
52.13814163208008
 21
-8.894222259521484
 31
164.0
 12
52.048404693603516
 22
-9.521675109863281
 32
164.0
 13
52.048404693603516
 23
-9.521675109863281
 33
164.0
  0
3DFACE
  8
0
 10
52.048404693603516
 20
-9.521675109863281
 30
164.0
 11
52.014251708984375
 21
-9.66596508026123
 31
164.0
 12
52.0499267578125
 22
-9.782273292541504
 32
164.0
 13
52.0499267578125
 23
-9.782273292541504
 33
164.0
  0
3DFACE
  8
0
 10
52.0499267578125
 20
-9.782273292541504
 30
164.0
 11
52.056270599365234
 21
-9.817910194396973
 31
164.0
 12
52.26473617553711
 22
-10.402283668518066
 32
164.0
 13
52.26473617553711
 23
-10.402283668518066
 33
164.0
  0
3DFACE
  8
0
 10
52.26473617553711
 20
-10.402283668518066
 30
164.0
 11
52.2785530090332
 21
-10.435172080993652
 31
164.0
 12
52.608116149902344
 22
-10.746148109436035
 32
164.0
 13
52.608116149902344
 23
-10.746148109436035
 33
164.0
  0
3DFACE
  8
0
 10
52.91641616821289
 20
-11.080439567565918
 30
164.0
 11
53.0551872253418
 21
-11.279524803161621
 31
164.0
 12
53.65334701538086
 22
-11.671212196350098
 32
164.0
 13
53.65334701538086
 23
-11.671212196350098
 33
164.0
  0
3DFACE
  8
0
 10
52.0499267578125
 20
-9.782273292541504
 30
164.0
 11
52.26473617553711
 21
-10.402283668518066
 31
164.0
 12
52.608116149902344
 22
-10.746148109436035
 32
164.0
 13
52.608116149902344
 23
-10.746148109436035
 33
164.0
  0
3DFACE
  8
0
 10
52.608116149902344
 20
-10.746148109436035
 30
164.0
 11
52.91641616821289
 21
-11.080439567565918
 31
164.0
 12
53.65334701538086
 22
-11.671212196350098
 32
164.0
 13
53.65334701538086
 23
-11.671212196350098
 33
164.0
  0
3DFACE
  8
0
 10
53.65334701538086
 20
-11.671212196350098
 30
164.0
 11
53.69363021850586
 21
-11.709229469299316
 31
164.0
 12
53.71822738647461
 22
-11.712048530578613
 32
164.0
 13
53.71822738647461
 23
-11.712048530578613
 33
164.0
  0
3DFACE
  8
0
 10
53.80966567993164
 20
-11.732412338256836
 30
164.0
 11
54.42206573486328
 21
-11.920808792114258
 31
164.0
 12
54.93689727783203
 22
-11.675265312194824
 32
164.0
 13
54.93689727783203
 23
-11.675265312194824
 33
164.0
  0
3DFACE
  8
0
 10
53.65334701538086
 20
-11.671212196350098
 30
164.0
 11
53.71822738647461
 21
-11.712048530578613
 31
164.0
 12
53.80966567993164
 22
-11.732412338256836
 32
164.0
 13
53.80966567993164
 23
-11.732412338256836
 33
164.0
  0
3DFACE
  8
0
 10
52.0499267578125
 20
-9.782273292541504
 30
164.0
 11
52.608116149902344
 21
-10.746148109436035
 31
164.0
 12
53.65334701538086
 22
-11.671212196350098
 32
164.0
 13
53.65334701538086
 23
-11.671212196350098
 33
164.0
  0
3DFACE
  8
0
 10
52.3284797668457
 20
-8.69961929321289
 30
164.0
 11
52.048404693603516
 21
-9.521675109863281
 31
164.0
 12
52.0499267578125
 22
-9.782273292541504
 32
164.0
 13
52.0499267578125
 23
-9.782273292541504
 33
164.0
  0
3DFACE
  8
0
 10
53.63346481323242
 20
-7.796297073364258
 30
164.0
 11
52.83721923828125
 21
-7.968225479125977
 31
164.0
 12
52.3284797668457
 22
-8.69961929321289
 32
164.0
 13
52.3284797668457
 23
-8.69961929321289
 33
164.0
  0
3DFACE
  8
0
 10
54.52998733520508
 20
-8.127547264099121
 30
164.0
 11
54.4099235534668
 21
-8.080493927001953
 31
164.0
 12
53.63346481323242
 22
-7.796297073364258
 32
164.0
 13
53.63346481323242
 23
-7.796297073364258
 33
164.0
  0
3DFACE
  8
0
 10
55.210670471191406
 20
-8.581498146057129
 30
164.0
 11
54.73585891723633
 21
-8.259737014770508
 31
164.0
 12
54.52998733520508
 22
-8.127547264099121
 32
164.0
 13
54.52998733520508
 23
-8.127547264099121
 33
164.0
  0
3DFACE
  8
0
 10
55.65451431274414
 20
-9.329689979553223
 30
164.0
 11
55.53410339355469
 21
-8.893606185913086
 31
164.0
 12
55.210670471191406
 22
-8.581498146057129
 32
164.0
 13
55.210670471191406
 23
-8.581498146057129
 33
164.0
  0
3DFACE
  8
0
 10
55.80693817138672
 20
-10.009034156799316
 30
164.0
 11
55.75623321533203
 21
-9.66596508026123
 31
164.0
 12
55.65451431274414
 22
-9.329689979553223
 32
164.0
 13
55.65451431274414
 23
-9.329689979553223
 33
164.0
  0
3DFACE
  8
0
 10
55.70143127441406
 20
-10.913867950439453
 30
164.0
 11
55.81803512573242
 21
-10.435172080993652
 31
164.0
 12
55.80693817138672
 22
-10.009034156799316
 32
164.0
 13
55.80693817138672
 23
-10.009034156799316
 33
164.0
  0
3DFACE
  8
0
 10
55.11702346801758
 20
-11.569254875183105
 30
164.0
 11
55.55990982055664
 21
-11.204380989074707
 31
164.0
 12
55.70143127441406
 22
-10.913867950439453
 32
164.0
 13
55.70143127441406
 23
-10.913867950439453
 33
164.0
  0
3DFACE
  8
0
 10
53.80966567993164
 20
-11.732412338256836
 30
164.0
 11
54.93689727783203
 21
-11.675265312194824
 31
164.0
 12
55.11702346801758
 22
-11.569254875183105
 32
164.0
 13
55.11702346801758
 23
-11.569254875183105
 33
164.0
  0
3DFACE
  8
0
 10
52.0499267578125
 20
-9.782273292541504
 30
164.0
 11
53.65334701538086
 21
-11.671212196350098
 31
164.0
 12
53.80966567993164
 22
-11.732412338256836
 32
164.0
 13
53.80966567993164
 23
-11.732412338256836
 33
164.0
  0
3DFACE
  8
0
 10
53.63346481323242
 20
-7.796297073364258
 30
164.0
 11
52.3284797668457
 21
-8.69961929321289
 31
164.0
 12
52.0499267578125
 22
-9.782273292541504
 32
164.0
 13
52.0499267578125
 23
-9.782273292541504
 33
164.0
  0
3DFACE
  8
0
 10
55.210670471191406
 20
-8.581498146057129
 30
164.0
 11
54.52998733520508
 21
-8.127547264099121
 31
164.0
 12
53.63346481323242
 22
-7.796297073364258
 32
164.0
 13
53.63346481323242
 23
-7.796297073364258
 33
164.0
  0
3DFACE
  8
0
 10
55.80693817138672
 20
-10.009034156799316
 30
164.0
 11
55.65451431274414
 21
-9.329689979553223
 31
164.0
 12
55.210670471191406
 22
-8.581498146057129
 32
164.0
 13
55.210670471191406
 23
-8.581498146057129
 33
164.0
  0
3DFACE
  8
0
 10
55.11702346801758
 20
-11.569254875183105
 30
164.0
 11
55.70143127441406
 21
-10.913867950439453
 31
164.0
 12
55.80693817138672
 22
-10.009034156799316
 32
164.0
 13
55.80693817138672
 23
-10.009034156799316
 33
164.0
  0
3DFACE
  8
0
 10
52.0499267578125
 20
-9.782273292541504
 30
164.0
 11
53.80966567993164
 21
-11.732412338256836
 31
164.0
 12
55.11702346801758
 22
-11.569254875183105
 32
164.0
 13
55.11702346801758
 23
-11.569254875183105
 33
164.0
  0
3DFACE
  8
0
 10
55.210670471191406
 20
-8.581498146057129
 30
164.0
 11
53.63346481323242
 21
-7.796297073364258
 31
164.0
 12
52.0499267578125
 22
-9.782273292541504
 32
164.0
 13
52.0499267578125
 23
-9.782273292541504
 33
164.0
  0
3DFACE
  8
0
 10
55.11702346801758
 20
-11.569254875183105
 30
164.0
 11
55.80693817138672
 21
-10.009034156799316
 31
164.0
 12
55.210670471191406
 22
-8.581498146057129
 32
164.0
 13
55.210670471191406
 23
-8.581498146057129
 33
164.0
  0
3DFACE
  8
0
 10
52.0499267578125
 20
-9.782273292541504
 30
164.0
 11
55.11702346801758
 21
-11.569254875183105
 31
164.0
 12
55.210670471191406
 22
-8.581498146057129
 32
164.0
 13
55.210670471191406
 23
-8.581498146057129
 33
164.0
  0
3DFACE
  8
0
 10
-36.01713562011719
 20
30.69948387145996
 30
164.0
 11
-36.00126647949219
 21
30.6882381439209
 31
164.0
 12
-35.991905212402344
 22
30.68206787109375
 32
164.0
 13
-35.991905212402344
 23
30.68206787109375
 33
164.0
  0
3DFACE
  8
0
 10
-35.991905212402344
 20
30.68206787109375
 30
164.0
 11
-35.62115478515625
 21
30.399503707885742
 31
164.0
 12
-35.36581802368164
 22
30.22246551513672
 32
164.0
 13
-35.36581802368164
 23
30.22246551513672
 33
164.0
  0
3DFACE
  8
0
 10
-35.36581802368164
 20
30.22246551513672
 30
164.0
 11
-35.146324157714844
 21
30.106592178344727
 31
164.0
 12
-34.413726806640625
 22
29.753223419189453
 32
164.0
 13
-34.413726806640625
 23
29.753223419189453
 33
164.0
  0
3DFACE
  8
0
 10
-34.413726806640625
 20
29.753223419189453
 30
164.0
 11
-34.30208206176758
 21
29.69255256652832
 31
164.0
 12
-34.142913818359375
 22
29.63794708251953
 32
164.0
 13
-34.142913818359375
 23
29.63794708251953
 33
164.0
  0
3DFACE
  8
0
 10
-34.142913818359375
 20
29.63794708251953
 30
164.0
 11
-33.99728012084961
 21
29.602733612060547
 31
164.0
 12
-33.474365234375
 22
29.491695404052734
 32
164.0
 13
-33.474365234375
 23
29.491695404052734
 33
164.0
  0
3DFACE
  8
0
 10
-33.16932678222656
 20
29.47203254699707
 30
164.0
 11
-32.67792510986328
 21
29.39759635925293
 31
164.0
 12
-32.02349853515625
 22
29.471378326416016
 32
164.0
 13
-32.02349853515625
 23
29.471378326416016
 33
164.0
  0
3DFACE
  8
0
 10
-34.142913818359375
 20
29.63794708251953
 30
164.0
 11
-33.474365234375
 21
29.491695404052734
 31
164.0
 12
-33.16932678222656
 22
29.47203254699707
 32
164.0
 13
-33.16932678222656
 23
29.47203254699707
 33
164.0
  0
3DFACE
  8
0
 10
-35.36581802368164
 20
30.22246551513672
 30
164.0
 11
-34.413726806640625
 21
29.753223419189453
 31
164.0
 12
-34.142913818359375
 22
29.63794708251953
 32
164.0
 13
-34.142913818359375
 23
29.63794708251953
 33
164.0
  0
3DFACE
  8
0
 10
-36.04847717285156
 20
30.72453498840332
 30
164.0
 11
-36.01713562011719
 21
30.69948387145996
 31
164.0
 12
-35.991905212402344
 22
30.68206787109375
 32
164.0
 13
-35.991905212402344
 23
30.68206787109375
 33
164.0
  0
3DFACE
  8
0
 10
-35.991905212402344
 20
30.68206787109375
 30
164.0
 11
-35.36581802368164
 21
30.22246551513672
 31
164.0
 12
-34.142913818359375
 22
29.63794708251953
 32
164.0
 13
-34.142913818359375
 23
29.63794708251953
 33
164.0
  0
3DFACE
  8
0
 10
-34.142913818359375
 20
29.63794708251953
 30
164.0
 11
-33.16932678222656
 21
29.47203254699707
 31
164.0
 12
-32.02349853515625
 22
29.471378326416016
 32
164.0
 13
-32.02349853515625
 23
29.471378326416016
 33
164.0
  0
3DFACE
  8
0
 10
-32.02349853515625
 20
29.471378326416016
 30
164.0
 11
-31.84383773803711
 21
29.47617530822754
 31
164.0
 12
-31.740236282348633
 22
29.490827560424805
 32
164.0
 13
-31.740236282348633
 23
29.490827560424805
 33
164.0
  0
3DFACE
  8
0
 10
-31.740236282348633
 20
29.490827560424805
 30
164.0
 11
-31.397859573364258
 21
29.594491958618164
 31
164.0
 12
-31.046661376953125
 22
29.73016929626465
 32
164.0
 13
-31.046661376953125
 23
29.73016929626465
 33
164.0
  0
3DFACE
  8
0
 10
-30.459308624267578
 20
30.213117599487305
 30
164.0
 11
-30.27483558654785
 21
30.35083770751953
 31
164.0
 12
-30.234081268310547
 22
30.399499893188477
 32
164.0
 13
-30.234081268310547
 23
30.399499893188477
 33
164.0
  0
3DFACE
  8
0
 10
-31.740236282348633
 20
29.490827560424805
 30
164.0
 11
-31.046661376953125
 21
29.73016929626465
 31
164.0
 12
-30.459308624267578
 22
30.213117599487305
 32
164.0
 13
-30.459308624267578
 23
30.213117599487305
 33
164.0
  0
3DFACE
  8
0
 10
-34.142913818359375
 20
29.63794708251953
 30
164.0
 11
-32.02349853515625
 21
29.471378326416016
 31
164.0
 12
-31.740236282348633
 22
29.490827560424805
 32
164.0
 13
-31.740236282348633
 23
29.490827560424805
 33
164.0
  0
3DFACE
  8
0
 10
-36.04847717285156
 20
30.72453498840332
 30
164.0
 11
-35.991905212402344
 21
30.68206787109375
 31
164.0
 12
-34.142913818359375
 22
29.63794708251953
 32
164.0
 13
-34.142913818359375
 23
29.63794708251953
 33
164.0
  0
3DFACE
  8
0
 10
-37.216773986816406
 20
32.01082229614258
 30
164.0
 11
-36.533973693847656
 21
31.189233779907227
 31
164.0
 12
-36.04847717285156
 22
30.72453498840332
 32
164.0
 13
-36.04847717285156
 23
30.72453498840332
 33
164.0
  0
3DFACE
  8
0
 10
-37.625709533691406
 20
32.71187210083008
 30
164.0
 11
-37.502193450927734
 21
32.464256286621094
 31
164.0
 12
-37.216773986816406
 22
32.01082229614258
 32
164.0
 13
-37.216773986816406
 23
32.01082229614258
 33
164.0
  0
3DFACE
  8
0
 10
-37.65340042114258
 20
32.79472351074219
 30
164.0
 11
-37.625709533691406
 21
32.71187210083008
 31
164.0
 12
-37.216773986816406
 22
32.01082229614258
 32
164.0
 13
-37.216773986816406
 23
32.01082229614258
 33
164.0
  0
3DFACE
  8
0
 10
-37.216773986816406
 20
32.01082229614258
 30
164.0
 11
-36.04847717285156
 21
30.72453498840332
 31
164.0
 12
-34.142913818359375
 22
29.63794708251953
 32
164.0
 13
-34.142913818359375
 23
29.63794708251953
 33
164.0
  0
3DFACE
  8
0
 10
-34.142913818359375
 20
29.63794708251953
 30
164.0
 11
-31.740236282348633
 21
29.490827560424805
 31
164.0
 12
-30.459308624267578
 22
30.213117599487305
 32
164.0
 13
-30.459308624267578
 23
30.213117599487305
 33
164.0
  0
3DFACE
  8
0
 10
-30.459308624267578
 20
30.213117599487305
 30
164.0
 11
-30.234081268310547
 21
30.399499893188477
 31
164.0
 12
-30.07596206665039
 22
30.613595962524414
 32
164.0
 13
-30.07596206665039
 23
30.613595962524414
 33
164.0
  0
3DFACE
  8
0
 10
-30.07596206665039
 20
30.613595962524414
 30
164.0
 11
-29.77663230895996
 21
31.204051971435547
 31
164.0
 12
-29.47926139831543
 22
31.97772979736328
 32
164.0
 13
-29.47926139831543
 23
31.97772979736328
 33
164.0
  0
3DFACE
  8
0
 10
-29.47926139831543
 20
31.97772979736328
 30
164.0
 11
-29.469810485839844
 21
32.00498962402344
 31
164.0
 12
-29.46928596496582
 22
32.00860595703125
 32
164.0
 13
-29.46928596496582
 23
32.00860595703125
 33
164.0
  0
3DFACE
  8
0
 10
-29.46928596496582
 20
32.00860595703125
 30
164.0
 11
-29.403728485107422
 21
32.67305374145508
 31
164.0
 12
-29.398113250732422
 22
32.813148498535156
 32
164.0
 13
-29.398113250732422
 23
32.813148498535156
 33
164.0
  0
3DFACE
  8
0
 10
-29.398113250732422
 20
32.813148498535156
 30
164.0
 11
-29.38642692565918
 21
33.329673767089844
 31
164.0
 12
-29.396583557128906
 22
33.97985076904297
 32
164.0
 13
-29.396583557128906
 23
33.97985076904297
 33
164.0
  0
3DFACE
  8
0
 10
-29.396583557128906
 20
33.97985076904297
 30
164.0
 11
-29.50389862060547
 21
34.42226028442383
 31
164.0
 12
-29.725547790527344
 22
35.1259651184082
 32
164.0
 13
-29.725547790527344
 23
35.1259651184082
 33
164.0
  0
3DFACE
  8
0
 10
-29.725547790527344
 20
35.1259651184082
 30
164.0
 11
-29.766897201538086
 21
35.22401428222656
 31
164.0
 12
-29.78952980041504
 22
35.25821304321289
 32
164.0
 13
-29.78952980041504
 23
35.25821304321289
 33
164.0
  0
3DFACE
  8
0
 10
-29.78952980041504
 20
35.25821304321289
 30
164.0
 11
-30.0941104888916
 21
35.77379608154297
 31
164.0
 12
-30.341779708862305
 22
36.03135681152344
 32
164.0
 13
-30.341779708862305
 23
36.03135681152344
 33
164.0
  0
3DFACE
  8
0
 10
-30.341779708862305
 20
36.03135681152344
 30
164.0
 11
-30.578189849853516
 21
36.31492614746094
 31
164.0
 12
-31.179187774658203
 22
36.774051666259766
 32
164.0
 13
-31.179187774658203
 23
36.774051666259766
 33
164.0
  0
3DFACE
  8
0
 10
-31.179187774658203
 20
36.774051666259766
 30
164.0
 11
-31.549657821655273
 21
37.00709915161133
 31
164.0
 12
-31.743968963623047
 22
37.091861724853516
 32
164.0
 13
-31.743968963623047
 23
37.091861724853516
 33
164.0
  0
3DFACE
  8
0
 10
-31.743968963623047
 20
37.091861724853516
 30
164.0
 11
-32.387027740478516
 21
37.28951644897461
 31
164.0
 12
-33.11879348754883
 22
37.436763763427734
 32
164.0
 13
-33.11879348754883
 23
37.436763763427734
 33
164.0
  0
3DFACE
  8
0
 10
-33.11879348754883
 20
37.436763763427734
 30
164.0
 11
-33.210689544677734
 21
37.46395492553711
 31
164.0
 12
-33.287376403808594
 22
37.4738655090332
 32
164.0
 13
-33.287376403808594
 23
37.4738655090332
 33
164.0
  0
3DFACE
  8
0
 10
-33.287376403808594
 20
37.4738655090332
 30
164.0
 11
-33.80546188354492
 21
37.49376678466797
 31
164.0
 12
-34.02666091918945
 22
37.48189163208008
 32
164.0
 13
-34.02666091918945
 23
37.48189163208008
 33
164.0
  0
3DFACE
  8
0
 10
-34.02666091918945
 20
37.48189163208008
 30
164.0
 11
-34.6104621887207
 21
37.41686248779297
 31
164.0
 12
-34.833290100097656
 22
37.36477279663086
 32
164.0
 13
-34.833290100097656
 23
37.36477279663086
 33
164.0
  0
3DFACE
  8
0
 10
-34.833290100097656
 20
37.36477279663086
 30
164.0
 11
-35.245513916015625
 21
37.25076675415039
 31
164.0
 12
-35.62705993652344
 22
37.06144332885742
 32
164.0
 13
-35.62705993652344
 23
37.06144332885742
 33
164.0
  0
3DFACE
  8
0
 10
-35.62705993652344
 20
37.06144332885742
 30
164.0
 11
-35.77909851074219
 21
36.99086380004883
 31
164.0
 12
-36.08078384399414
 22
36.83591079711914
 32
164.0
 13
-36.08078384399414
 23
36.83591079711914
 33
164.0
  0
3DFACE
  8
0
 10
-36.08078384399414
 20
36.83591079711914
 30
164.0
 11
-36.41313171386719
 21
36.6468620300293
 31
164.0
 12
-37.09889602661133
 22
36.03803634643555
 32
164.0
 13
-37.09889602661133
 23
36.03803634643555
 33
164.0
  0
3DFACE
  8
0
 10
-37.09889602661133
 20
36.03803634643555
 30
164.0
 11
-37.179649353027344
 21
35.949520111083984
 31
164.0
 12
-37.65632629394531
 22
35.226810455322266
 32
164.0
 13
-37.65632629394531
 23
35.226810455322266
 33
164.0
  0
3DFACE
  8
0
 10
-37.65632629394531
 20
35.226810455322266
 30
164.0
 11
-37.771610260009766
 21
34.97789001464844
 31
164.0
 12
-37.91615295410156
 22
34.44752883911133
 32
164.0
 13
-37.91615295410156
 23
34.44752883911133
 33
164.0
  0
3DFACE
  8
0
 10
-37.91615295410156
 20
34.44752883911133
 30
164.0
 11
-37.98772048950195
 21
33.76054382324219
 31
164.0
 12
-37.96815490722656
 22
33.62042999267578
 32
164.0
 13
-37.96815490722656
 23
33.62042999267578
 33
164.0
  0
3DFACE
  8
0
 10
-37.81529235839844
 20
33.23103713989258
 30
164.0
 11
-37.65340042114258
 21
32.79472351074219
 31
164.0
 12
-37.216773986816406
 22
32.01082229614258
 32
164.0
 13
-37.216773986816406
 23
32.01082229614258
 33
164.0
  0
3DFACE
  8
0
 10
-37.91615295410156
 20
34.44752883911133
 30
164.0
 11
-37.96815490722656
 21
33.62042999267578
 31
164.0
 12
-37.81529235839844
 22
33.23103713989258
 32
164.0
 13
-37.81529235839844
 23
33.23103713989258
 33
164.0
  0
3DFACE
  8
0
 10
-37.09889602661133
 20
36.03803634643555
 30
164.0
 11
-37.65632629394531
 21
35.226810455322266
 31
164.0
 12
-37.91615295410156
 22
34.44752883911133
 32
164.0
 13
-37.91615295410156
 23
34.44752883911133
 33
164.0
  0
3DFACE
  8
0
 10
-35.62705993652344
 20
37.06144332885742
 30
164.0
 11
-36.08078384399414
 21
36.83591079711914
 31
164.0
 12
-37.09889602661133
 22
36.03803634643555
 32
164.0
 13
-37.09889602661133
 23
36.03803634643555
 33
164.0
  0
3DFACE
  8
0
 10
-34.02666091918945
 20
37.48189163208008
 30
164.0
 11
-34.833290100097656
 21
37.36477279663086
 31
164.0
 12
-35.62705993652344
 22
37.06144332885742
 32
164.0
 13
-35.62705993652344
 23
37.06144332885742
 33
164.0
  0
3DFACE
  8
0
 10
-33.11879348754883
 20
37.436763763427734
 30
164.0
 11
-33.287376403808594
 21
37.4738655090332
 31
164.0
 12
-34.02666091918945
 22
37.48189163208008
 32
164.0
 13
-34.02666091918945
 23
37.48189163208008
 33
164.0
  0
3DFACE
  8
0
 10
-31.179187774658203
 20
36.774051666259766
 30
164.0
 11
-31.743968963623047
 21
37.091861724853516
 31
164.0
 12
-33.11879348754883
 22
37.436763763427734
 32
164.0
 13
-33.11879348754883
 23
37.436763763427734
 33
164.0
  0
3DFACE
  8
0
 10
-29.78952980041504
 20
35.25821304321289
 30
164.0
 11
-30.341779708862305
 21
36.03135681152344
 31
164.0
 12
-31.179187774658203
 22
36.774051666259766
 32
164.0
 13
-31.179187774658203
 23
36.774051666259766
 33
164.0
  0
3DFACE
  8
0
 10
-29.396583557128906
 20
33.97985076904297
 30
164.0
 11
-29.725547790527344
 21
35.1259651184082
 31
164.0
 12
-29.78952980041504
 22
35.25821304321289
 32
164.0
 13
-29.78952980041504
 23
35.25821304321289
 33
164.0
  0
3DFACE
  8
0
 10
-29.46928596496582
 20
32.00860595703125
 30
164.0
 11
-29.398113250732422
 21
32.813148498535156
 31
164.0
 12
-29.396583557128906
 22
33.97985076904297
 32
164.0
 13
-29.396583557128906
 23
33.97985076904297
 33
164.0
  0
3DFACE
  8
0
 10
-30.07596206665039
 20
30.613595962524414
 30
164.0
 11
-29.47926139831543
 21
31.97772979736328
 31
164.0
 12
-29.46928596496582
 22
32.00860595703125
 32
164.0
 13
-29.46928596496582
 23
32.00860595703125
 33
164.0
  0
3DFACE
  8
0
 10
-34.142913818359375
 20
29.63794708251953
 30
164.0
 11
-30.459308624267578
 21
30.213117599487305
 31
164.0
 12
-30.07596206665039
 22
30.613595962524414
 32
164.0
 13
-30.07596206665039
 23
30.613595962524414
 33
164.0
  0
3DFACE
  8
0
 10
-37.81529235839844
 20
33.23103713989258
 30
164.0
 11
-37.216773986816406
 21
32.01082229614258
 31
164.0
 12
-34.142913818359375
 22
29.63794708251953
 32
164.0
 13
-34.142913818359375
 23
29.63794708251953
 33
164.0
  0
3DFACE
  8
0
 10
-37.09889602661133
 20
36.03803634643555
 30
164.0
 11
-37.91615295410156
 21
34.44752883911133
 31
164.0
 12
-37.81529235839844
 22
33.23103713989258
 32
164.0
 13
-37.81529235839844
 23
33.23103713989258
 33
164.0
  0
3DFACE
  8
0
 10
-34.02666091918945
 20
37.48189163208008
 30
164.0
 11
-35.62705993652344
 21
37.06144332885742
 31
164.0
 12
-37.09889602661133
 22
36.03803634643555
 32
164.0
 13
-37.09889602661133
 23
36.03803634643555
 33
164.0
  0
3DFACE
  8
0
 10
-31.179187774658203
 20
36.774051666259766
 30
164.0
 11
-33.11879348754883
 21
37.436763763427734
 31
164.0
 12
-34.02666091918945
 22
37.48189163208008
 32
164.0
 13
-34.02666091918945
 23
37.48189163208008
 33
164.0
  0
3DFACE
  8
0
 10
-29.396583557128906
 20
33.97985076904297
 30
164.0
 11
-29.78952980041504
 21
35.25821304321289
 31
164.0
 12
-31.179187774658203
 22
36.774051666259766
 32
164.0
 13
-31.179187774658203
 23
36.774051666259766
 33
164.0
  0
3DFACE
  8
0
 10
-30.07596206665039
 20
30.613595962524414
 30
164.0
 11
-29.46928596496582
 21
32.00860595703125
 31
164.0
 12
-29.396583557128906
 22
33.97985076904297
 32
164.0
 13
-29.396583557128906
 23
33.97985076904297
 33
164.0
  0
3DFACE
  8
0
 10
-37.81529235839844
 20
33.23103713989258
 30
164.0
 11
-34.142913818359375
 21
29.63794708251953
 31
164.0
 12
-30.07596206665039
 22
30.613595962524414
 32
164.0
 13
-30.07596206665039
 23
30.613595962524414
 33
164.0
  0
3DFACE
  8
0
 10
-34.02666091918945
 20
37.48189163208008
 30
164.0
 11
-37.09889602661133
 21
36.03803634643555
 31
164.0
 12
-37.81529235839844
 22
33.23103713989258
 32
164.0
 13
-37.81529235839844
 23
33.23103713989258
 33
164.0
  0
3DFACE
  8
0
 10
-29.396583557128906
 20
33.97985076904297
 30
164.0
 11
-31.179187774658203
 21
36.774051666259766
 31
164.0
 12
-34.02666091918945
 22
37.48189163208008
 32
164.0
 13
-34.02666091918945
 23
37.48189163208008
 33
164.0
  0
3DFACE
  8
0
 10
-37.81529235839844
 20
33.23103713989258
 30
164.0
 11
-30.07596206665039
 21
30.613595962524414
 31
164.0
 12
-29.396583557128906
 22
33.97985076904297
 32
164.0
 13
-29.396583557128906
 23
33.97985076904297
 33
164.0
  0
3DFACE
  8
0
 10
-29.396583557128906
 20
33.97985076904297
 30
164.0
 11
-34.02666091918945
 21
37.48189163208008
 31
164.0
 12
-37.81529235839844
 22
33.23103713989258
 32
164.0
 13
-37.81529235839844
 23
33.23103713989258
 33
164.0
  0
ENDSEC
  0
EOF
