0
SECTION
2
HEADER
9
$INSUNITS
70
4
9
$ACADVER
1
AC1014
9
$HANDSEED
5
FFFF
0
ENDSEC
0
SECTION
2
TABLES
0
TABLE
2
VPORT
5
8
100
AcDbSymbolTable
0
ENDTAB
0
TABLE
2
LTYPE
5
5
100
AcDbSymbolTable
0
LTYPE
5
14
100
AcDbSymbolTableRecord
100
AcDbLinetypeTableRecord
2
BYBLOCK
70
0
0
LTYPE
5
15
100
AcDbSymbolTableRecord
100
AcDbLinetypeTableRecord
2
BYLAYER
70
0
0
LTYPE
5
16
100
AcDbSymbolTableRecord
100
AcDbLinetypeTableRecord
2
DASHED
70
0
3
Dashed __ __ __ __ __ __ __ __ __ __ __ __ __ _
72
65
73
2
40
0.75
49
0.5
74
0
49
-0.25
74
0
0
ENDTAB
0
TABLE
2
LAYER
5
2
100
AcDbSymbolTable
70
2
0
LAYER
5
50
100
AcDbSymbolTableRecord
100
AcDbLayerTableRecord
2
0
70
0
62
7
6
CONTINUOUS
0
ENDTAB
0
TABLE
2
STYLE
5
3
100
AcDbSymbolTable
70
1
0
STYLE
5
11
100
AcDbSymbolTableRecord
100
AcDbTextStyleTableRecord
2
STANDARD
70
0
0
ENDTAB
0
TABLE
2
VIEW
5
6
100
AcDbSymbolTable
70
0
0
ENDTAB
0
TABLE
2
UCS
5
7
100
AcDbSymbolTable
70
0
0
ENDTAB
0
TABLE
2
APPID
5
9
100
AcDbSymbolTable
70
2
0
APPID
5
12
100
AcDbSymbolTableRecord
100
AcDbRegAppTableRecord
2
ACAD
70
0
0
ENDTAB
0
TABLE
2
DIMSTYLE
5
A
100
AcDbSymbolTable
70
1
0
ENDTAB
0
TABLE
2
BLOCK_RECORD
5
1
100
AcDbSymbolTable
70
1
0
BLOCK_RECORD
5
1F
100
AcDbSymbolTableRecord
100
AcDbBlockTableRecord
2
*MODEL_SPACE
0
BLOCK_RECORD
5
1B
100
AcDbSymbolTableRecord
100
AcDbBlockTableRecord
2
*PAPER_SPACE
0
ENDTAB
0
ENDSEC
0
SECTION
2
BLOCKS
0
BLOCK
5
20
100
AcDbEntity
100
AcDbBlockBegin
2
*MODEL_SPACE
0
ENDBLK
5
21
100
AcDbEntity
100
AcDbBlockEnd
0
BLOCK
5
1C
100
AcDbEntity
100
AcDbBlockBegin
2
*PAPER_SPACE
0
ENDBLK
5
1D
100
AcDbEntity
100
AcDbBlockEnd
0
ENDSEC
0
SECTION
2
ENTITIES
0
LINE
5
100
100
AcDbEntity
8
0
100
AcDbLine
10
15
20
50.000000447034843
30
0
11
15
21
53.000000521540642
31
0
0
ARC
5
101
100
AcDbEntity
8
0
100
AcDbCircle
10
25
20
54.000000521540642
30
0
40
1.0000000000000053
210
0
220
0
230
1
100
AcDbArc
50
0
51
90
0
LINE
5
102
100
AcDbEntity
8
0
100
AcDbLine
10
63.999999999999993
20
54.000000405487611
30
0
11
64
21
52.000000461936011
31
0
0
ARC
5
103
100
AcDbEntity
8
0
100
AcDbCircle
10
59
20
50
30
0
40
1.0000004619360372
210
0
220
-0
230
1
100
AcDbArc
50
89.99998377830822
51
270.00099464021991
0
LINE
5
104
100
AcDbEntity
8
0
100
AcDbLine
10
20.999999716877934
20
49.000000432133682
30
0
11
51.000000000000014
21
49.000000432133682
31
0
0
LINE
5
105
100
AcDbEntity
8
0
100
AcDbLine
10
20.999999716877934
20
51.000000461935997
30
0
11
25
21
51.000000461935997
31
0
0
ARC
5
106
100
AcDbEntity
8
0
100
AcDbCircle
10
21
20
50
30
0
40
1.0000004619360372
210
0
220
0
230
1
100
AcDbArc
50
90.000016221691993
51
270.07661666671464
0
LINE
5
107
100
AcDbEntity
8
0
100
AcDbLine
10
26.000000000000007
20
54.000000521540642
30
0
11
26
21
52.000000461936004
31
0
0
LINE
5
108
100
AcDbEntity
8
0
100
AcDbLine
10
53.000000000000007
20
51.000000432133689
30
0
11
53.000000000000007
21
53.000000405487633
31
0
0
ARC
5
109
100
AcDbEntity
8
0
100
AcDbCircle
10
63.000000000000007
20
54.000000405487611
30
0
40
0.99999999999998757
210
0
220
0
230
1
100
AcDbArc
50
0
51
89.999999999999588
0
ARC
5
110
100
AcDbEntity
8
0
100
AcDbCircle
10
55.000000000000028
20
53.000000405487633
30
0
40
1.9999999999999929
210
0
220
0
230
1
100
AcDbArc
50
90.000000000000398
51
180
0
ARC
5
111
100
AcDbEntity
8
0
100
AcDbCircle
10
63
20
52.000000461936011
30
0
40
1.0000000000000142
210
0
220
0
230
1
100
AcDbArc
50
-90
51
0
0
LINE
5
112
100
AcDbEntity
8
0
100
AcDbLine
10
17.000000000000007
20
55.000000521540642
30
0
11
25
21
55.000000521540649
31
0
0
LINE
5
113
100
AcDbEntity
8
0
100
AcDbLine
10
63.992056170187169
20
47.874203849925799
30
0
11
64.000000000000028
21
46.350043157506363
31
0
0
LINE
5
114
100
AcDbEntity
8
0
100
AcDbLine
10
15
20
50.000000447034843
30
0
11
14.999999805687107
21
44.899798806988201
31
0
0
ARC
5
115
100
AcDbEntity
8
0
100
AcDbCircle
10
17.000000000000007
20
53.000000521540642
30
0
40
2.0000000000000018
210
0
220
-0
230
1
100
AcDbArc
50
90
51
180
0
ARC
5
116
100
AcDbEntity
8
0
100
AcDbCircle
10
25
20
52.000000461936004
30
0
40
1.0000000000000053
210
0
220
0
230
1
100
AcDbArc
50
-90
51
0
0
ARC
5
117
100
AcDbEntity
8
0
100
AcDbCircle
10
63
20
47.999999538220692
30
0
40
1.0000000000000144
210
0
220
0
230
1
100
AcDbArc
50
-7.2267080866665721
51
89.99999999999919
0
ARC
5
118
100
AcDbEntity
8
0
100
AcDbCircle
10
51.000000000000007
20
51.000000432133689
30
0
40
2.0000000000000018
210
0
220
0
230
1
100
AcDbArc
50
-89.999999999999801
51
0
0
LINE
5
119
100
AcDbEntity
8
0
100
AcDbLine
10
58.999982294895446
20
48.999999538220692
30
0
11
63.000000000000014
21
48.999999538220706
31
0
0
LINE
5
120
100
AcDbEntity
8
0
100
AcDbLine
10
59.000000283122063
20
51.000000461935997
30
0
11
63
21
51.000000461935997
31
0
0
LINE
5
121
100
AcDbEntity
8
0
100
AcDbLine
10
55.000000000000014
20
55.000000405487626
30
0
11
63.000000000000014
21
55.000000405487611
31
0
0
LINE
5
122
100
AcDbEntity
8
0
100
AcDbLine
10
14.999999805687107
20
44.899798806988201
30
0
11
14.999999630371308
21
40.298220810655778
31
0
0
LINE
5
123
100
AcDbEntity
8
0
100
AcDbLine
10
64.000000000000028
20
46.350043157506363
30
0
11
64.026380888776146
21
41.288414868509435
31
0
0
ARC
5
124
100
AcDbEntity
8
0
100
AcDbCircle
10
12.999999630371191
20
40.29822088685394
30
0
40
2.0000000000001208
210
-0
220
0
230
1
100
AcDbArc
50
316.86374196584586
51
359.9999979086902
0
ARC
5
125
100
AcDbEntity
8
0
100
AcDbCircle
10
66.026353725040337
20
41.298838601335433
30
0
40
2.0000000000001639
210
0
220
0
230
1
100
AcDbArc
50
180.29861930078695
51
225.29836664854867
0
LINE
5
126
100
AcDbEntity
8
0
100
AcDbLine
10
15.923616025093871
20
2.5947497126062187
30
0
11
13.704784979208494
21
1.4515068361702799
31
0
0
LINE
5
127
100
AcDbEntity
8
0
100
AcDbLine
10
64.076383974906136
20
2.5947497126062204
30
0
11
66.295215020791517
21
1.4515068361702794
31
0
0
ARC
5
128
100
AcDbEntity
8
0
100
AcDbCircle
10
40
20
15
30
0
40
24.250000000000011
210
0
220
0
230
1
100
AcDbArc
50
-20.93898297506475
51
200.93898297506473
0
ARC
5
129
100
AcDbEntity
8
0
100
AcDbCircle
10
40
20
15
30
0
40
35
210
0
220
0
230
1
100
AcDbArc
50
136.86374196584467
51
197.66551893144342
0
ARC
5
130
100
AcDbEntity
8
0
100
AcDbCircle
10
40
20
15
30
0
40
34.999999999999993
210
0
220
0
230
1
100
AcDbArc
50
-17.665518931443412
51
45.298366648550711
0
ARC
5
131
100
AcDbEntity
8
0
100
AcDbCircle
10
11.414671650694309
20
5.8962094069349078
30
0
40
4.9999999999999991
210
0
220
0
230
1
100
AcDbArc
50
197.66551893144342
51
297.25958715830399
0
ARC
5
132
100
AcDbEntity
8
0
100
AcDbCircle
10
68.585328349305698
20
5.896209406934898
30
0
40
4.999999999999992
210
0
220
0
230
1
100
AcDbArc
50
242.74041284169604
51
342.33448106855667
0
ARC
5
133
100
AcDbEntity
8
0
100
AcDbCircle
10
14.549548027985377
20
5.261571255064986
30
0
40
2.9999999999999849
210
0
220
0
230
1
100
AcDbArc
50
-62.740412841696255
51
20.938982975064974
0
ARC
5
134
100
AcDbEntity
8
0
100
AcDbCircle
10
65.450451972014633
20
5.2615712550649896
30
0
40
2.9999999999999893
210
0
220
0
230
1
100
AcDbArc
50
159.06101702493527
51
242.74041284169627
0
ENDSEC
0
SECTION
2
OBJECTS
0
DICTIONARY
5
C
100
AcDbDictionary
3
ACAD_GROUP
350
D
3
ACAD_MLINESTYLE
350
17
0
DICTIONARY
5
D
100
AcDbDictionary
0
DICTIONARY
5
1A
330
C
100
AcDbDictionary
0
DICTIONARY
5
17
100
AcDbDictionary
0
ENDSEC
0
EOF
