0
SECTION
2
HEADER
9
$INSUNITS
70
4
9
$ACADVER
1
AC1014
9
$HANDSEED
5
FFFF
0
ENDSEC
0
SECTION
2
TABLES
0
TABLE
2
VPORT
5
8
100
AcDbSymbolTable
0
ENDTAB
0
TABLE
2
LTYPE
5
5
100
AcDbSymbolTable
0
LTYPE
5
14
100
AcDbSymbolTableRecord
100
AcDbLinetypeTableRecord
2
BYBLOCK
70
0
0
LTYPE
5
15
100
AcDbSymbolTableRecord
100
AcDbLinetypeTableRecord
2
BYLAYER
70
0
0
LTYPE
5
16
100
AcDbSymbolTableRecord
100
AcDbLinetypeTableRecord
2
DASHED
70
0
3
Dashed __ __ __ __ __ __ __ __ __ __ __ __ __ _
72
65
73
2
40
0.75
49
0.5
74
0
49
-0.25
74
0
0
ENDTAB
0
TABLE
2
LAYER
5
2
100
AcDbSymbolTable
70
2
0
LAYER
5
50
100
AcDbSymbolTableRecord
100
AcDbLayerTableRecord
2
0
70
0
62
7
6
CONTINUOUS
0
ENDTAB
0
TABLE
2
STYLE
5
3
100
AcDbSymbolTable
70
1
0
STYLE
5
11
100
AcDbSymbolTableRecord
100
AcDbTextStyleTableRecord
2
STANDARD
70
0
0
ENDTAB
0
TABLE
2
VIEW
5
6
100
AcDbSymbolTable
70
0
0
ENDTAB
0
TABLE
2
UCS
5
7
100
AcDbSymbolTable
70
0
0
ENDTAB
0
TABLE
2
APPID
5
9
100
AcDbSymbolTable
70
2
0
APPID
5
12
100
AcDbSymbolTableRecord
100
AcDbRegAppTableRecord
2
ACAD
70
0
0
ENDTAB
0
TABLE
2
DIMSTYLE
5
A
100
AcDbSymbolTable
70
1
0
ENDTAB
0
TABLE
2
BLOCK_RECORD
5
1
100
AcDbSymbolTable
70
1
0
BLOCK_RECORD
5
1F
100
AcDbSymbolTableRecord
100
AcDbBlockTableRecord
2
*MODEL_SPACE
0
BLOCK_RECORD
5
1B
100
AcDbSymbolTableRecord
100
AcDbBlockTableRecord
2
*PAPER_SPACE
0
ENDTAB
0
ENDSEC
0
SECTION
2
BLOCKS
0
BLOCK
5
20
100
AcDbEntity
100
AcDbBlockBegin
2
*MODEL_SPACE
0
ENDBLK
5
21
100
AcDbEntity
100
AcDbBlockEnd
0
BLOCK
5
1C
100
AcDbEntity
100
AcDbBlockBegin
2
*PAPER_SPACE
0
ENDBLK
5
1D
100
AcDbEntity
100
AcDbBlockEnd
0
ENDSEC
0
SECTION
2
ENTITIES
0
ARC
5
100
100
AcDbEntity
8
0
100
AcDbCircle
10
9.3485781888612749
20
5.2863892617872548
30
0
40
0.99999999999999634
210
0
220
0
230
1
100
AcDbArc
50
205.64241606855802
51
297.3278291087816
0
ARC
5
101
100
AcDbEntity
8
0
100
AcDbCircle
10
14.000000269048677
20
44.899798806988201
30
0
40
0.99999953663842933
210
-0
220
0
230
1
100
AcDbArc
50
-43.76176726073237
51
0
0
ARC
5
102
100
AcDbEntity
8
0
100
AcDbCircle
10
40
20
20
30
0
40
35
210
0
220
0
230
1
100
AcDbArc
50
136.23825816452955
51
205.64241606855893
0
LINE
5
103
100
AcDbEntity
8
0
100
AcDbLine
10
15
20
50.000000447034836
30
0
11
15
21
53.000000521540628
31
0
0
ARC
5
104
100
AcDbEntity
8
0
100
AcDbCircle
10
24.999999999999993
20
54.000000521540642
30
0
40
1.0000000000000053
210
0
220
-0
230
1
100
AcDbArc
50
0
51
90
0
LINE
5
105
100
AcDbEntity
8
0
100
AcDbLine
10
16.91883753830837
20
8.0727228833653228
30
0
11
9.8076592991271596
21
4.3979949044227817
31
0
0
ARC
5
106
100
AcDbEntity
8
0
100
AcDbCircle
10
63.540243571957518
20
8.9611172407297985
30
0
40
0.99999999999999845
210
0
220
0
230
1
100
AcDbArc
50
154.87639839519093
51
242.67217089121854
0
LINE
5
107
100
AcDbEntity
8
0
100
AcDbLine
10
63.999999999999993
20
54.000000405487626
30
0
11
64
21
52.000000461936011
31
0
0
ARC
5
108
100
AcDbEntity
8
0
100
AcDbCircle
10
59
20
50
30
0
40
1.0000004619360372
210
0
220
-0
230
1
100
AcDbArc
50
89.99998377830822
51
270.00099464021991
0
LINE
5
109
100
AcDbEntity
8
0
100
AcDbLine
10
20.999999716877937
20
49.000000432133675
30
0
11
51.000000000000007
21
49.000000432133675
31
0
0
LINE
5
110
100
AcDbEntity
8
0
100
AcDbLine
10
20.999999716877937
20
51.000000461935997
30
0
11
24.999999999999993
21
51.000000461935997
31
0
0
ARC
5
111
100
AcDbEntity
8
0
100
AcDbCircle
10
20.999999999999996
20
50
30
0
40
1.0000004619360372
210
0
220
0
230
1
100
AcDbArc
50
90.000016221691567
51
270.07661666671464
0
LINE
5
112
100
AcDbEntity
8
0
100
AcDbLine
10
25.999999999999996
20
54.000000521540642
30
0
11
25.999999999999996
21
52.000000461935997
31
0
0
ARC
5
113
100
AcDbEntity
8
0
100
AcDbCircle
10
40
20
20
30
0
40
25.000000000000004
210
0
220
0
230
1
100
AcDbArc
50
-25.123601604809576
51
205.12360160480955
0
ARC
5
114
100
AcDbEntity
8
0
100
AcDbCircle
10
65.000000000000014
20
45.903667693978356
30
0
40
1.0000000000000142
210
0
220
0
230
1
100
AcDbArc
50
180
51
226.01703686964302
0
LINE
5
115
100
AcDbEntity
8
0
100
AcDbLine
10
53.000000000000007
20
51.000000432133675
30
0
11
53.000000000000007
21
53.000000405487633
31
0
0
ARC
5
116
100
AcDbEntity
8
0
100
AcDbCircle
10
70.651421811138732
20
5.2863892617872521
30
0
40
1.0000000000000027
210
0
220
0
230
1
100
AcDbArc
50
242.67217089121843
51
334.35758393144101
0
ARC
5
117
100
AcDbEntity
8
0
100
AcDbCircle
10
63
20
54.000000405487626
30
0
40
0.99999999999999645
210
0
220
-0
230
1
100
AcDbArc
50
0
51
89.999999999999588
0
ARC
5
118
100
AcDbEntity
8
0
100
AcDbCircle
10
55.000000000000014
20
53.000000405487633
30
0
40
1.9999999999999929
210
0
220
0
230
1
100
AcDbArc
50
90.000000000000199
51
180
0
ARC
5
119
100
AcDbEntity
8
0
100
AcDbCircle
10
62.999999999999986
20
52.000000461936011
30
0
40
1.0000000000000142
210
-0
220
0
230
1
100
AcDbArc
50
-90
51
0
0
LINE
5
120
100
AcDbEntity
8
0
100
AcDbLine
10
17.000000000000007
20
55.000000521540642
30
0
11
24.999999999999993
21
55.000000521540642
31
0
0
LINE
5
121
100
AcDbEntity
8
0
100
AcDbLine
10
64
20
47.999999538220678
30
0
11
64
21
45.903667693978356
31
0
0
LINE
5
122
100
AcDbEntity
8
0
100
AcDbLine
10
15
20
50.000000447034836
30
0
11
15
21
44.899798806988201
31
0
0
ARC
5
123
100
AcDbEntity
8
0
100
AcDbCircle
10
40
20
20
30
0
40
35.000000000000007
210
0
220
0
230
1
100
AcDbArc
50
-25.642416068558937
51
46.017036869642524
0
ARC
5
124
100
AcDbEntity
8
0
100
AcDbCircle
10
17.000000000000007
20
53.000000521540628
30
0
40
2.0000000000000107
210
0
220
-0
230
1
100
AcDbArc
50
90
51
180
0
ARC
5
125
100
AcDbEntity
8
0
100
AcDbCircle
10
24.999999999999993
20
52.000000461936004
30
0
40
1.0000000000000053
210
-0
220
0
230
1
100
AcDbArc
50
270
51
360
0
ARC
5
126
100
AcDbEntity
8
0
100
AcDbCircle
10
62.999999999999986
20
47.999999538220678
30
0
40
1.0000000000000142
210
0
220
-0
230
1
100
AcDbArc
50
0
51
89.999999999998778
0
ARC
5
127
100
AcDbEntity
8
0
100
AcDbCircle
10
51
20
51.000000432133689
30
0
40
2.0000000000000107
210
-0
220
0
230
1
100
AcDbArc
50
270.00000000000023
51
360
0
LINE
5
128
100
AcDbEntity
8
0
100
AcDbLine
10
58.999982294895446
20
48.999999538220692
30
0
11
63.000000000000007
21
48.999999538220692
31
0
0
LINE
5
129
100
AcDbEntity
8
0
100
AcDbLine
10
59.000000283122063
20
51.000000461935997
30
0
11
62.999999999999986
21
51.000000461935997
31
0
0
LINE
5
130
100
AcDbEntity
8
0
100
AcDbLine
10
55.000000000000007
20
55.000000405487626
30
0
11
63.000000000000007
21
55.00000040548764
31
0
0
LINE
5
131
100
AcDbEntity
8
0
100
AcDbLine
10
63.081162461691633
20
8.0727228833653193
30
0
11
70.192340700872847
21
4.3979949044227773
31
0
0
ARC
5
132
100
AcDbEntity
8
0
100
AcDbCircle
10
16.459756428042486
20
8.9611172407298021
30
0
40
1.0000000000000027
210
0
220
0
230
1
100
AcDbArc
50
-62.672170891218599
51
25.123601604809902
0
ENDSEC
0
SECTION
2
OBJECTS
0
DICTIONARY
5
C
100
AcDbDictionary
3
ACAD_GROUP
350
D
3
ACAD_MLINESTYLE
350
17
0
DICTIONARY
5
D
100
AcDbDictionary
0
DICTIONARY
5
1A
330
C
100
AcDbDictionary
0
DICTIONARY
5
17
100
AcDbDictionary
0
ENDSEC
0
EOF
