  0
SECTION
  2
HEADER
  9
$ACADVER
  1
AC1027
  9
$ACADMAINTVER
 70
105
  9
$DWGCODEPAGE
  3
ANSI_1252
  9
$LASTSAVEDBY
  1
ezdxf
  9
$REQUIREDVERSIONS
160
0
  9
$INSBASE
 10
0.0
 20
0.0
 30
0.0
  9
$EXTMIN
 10
1e+20
 20
1e+20
 30
1e+20
  9
$EXTMAX
 10
-1e+20
 20
-1e+20
 30
-1e+20
  9
$LIMMIN
 10
0.0
 20
0.0
  9
$LIMMAX
 10
420.0
 20
297.0
  9
$ORTHOMODE
 70
0
  9
$REGENMODE
 70
1
  9
$FILLMODE
 70
1
  9
$QTEXTMODE
 70
0
  9
$MIRRTEXT
 70
1
  9
$LTSCALE
 40
1.0
  9
$ATTMODE
 70
1
  9
$TEXTSIZE
 40
2.5
  9
$TRACEWID
 40
1.0
  9
$TEXTSTYLE
  7
Standard
  9
$CLAYER
  8
0
  9
$CELTYPE
  6
ByLayer
  9
$CECOLOR
 62
256
  9
$CELTSCALE
 40
1.0
  9
$DISPSILH
 70
0
  9
$DIMSCALE
 40
1.0
  9
$DIMASZ
 40
2.5
  9
$DIMEXO
 40
0.625
  9
$DIMDLI
 40
3.75
  9
$DIMRND
 40
0.0
  9
$DIMDLE
 40
0.0
  9
$DIMEXE
 40
1.25
  9
$DIMTP
 40
0.0
  9
$DIMTM
 40
0.0
  9
$DIMTXT
 40
2.5
  9
$DIMCEN
 40
2.5
  9
$DIMTSZ
 40
0.0
  9
$DIMTOL
 70
0
  9
$DIMLIM
 70
0
  9
$DIMTIH
 70
0
  9
$DIMTOH
 70
0
  9
$DIMSE1
 70
0
  9
$DIMSE2
 70
0
  9
$DIMTAD
 70
1
  9
$DIMZIN
 70
8
  9
$DIMBLK
  1

  9
$DIMASO
 70
1
  9
$DIMSHO
 70
1
  9
$DIMPOST
  1

  9
$DIMAPOST
  1

  9
$DIMALT
 70
0
  9
$DIMALTD
 70
3
  9
$DIMALTF
 40
0.03937007874
  9
$DIMLFAC
 40
1.0
  9
$DIMTOFL
 70
1
  9
$DIMTVP
 40
0.0
  9
$DIMTIX
 70
0
  9
$DIMSOXD
 70
0
  9
$DIMSAH
 70
0
  9
$DIMBLK1
  1

  9
$DIMBLK2
  1

  9
$DIMSTYLE
  2
ISO-25
  9
$DIMCLRD
 70
0
  9
$DIMCLRE
 70
0
  9
$DIMCLRT
 70
0
  9
$DIMTFAC
 40
1.0
  9
$DIMGAP
 40
0.625
  9
$DIMJUST
 70
0
  9
$DIMSD1
 70
0
  9
$DIMSD2
 70
0
  9
$DIMTOLJ
 70
0
  9
$DIMTZIN
 70
8
  9
$DIMALTZ
 70
0
  9
$DIMALTTZ
 70
0
  9
$DIMUPT
 70
0
  9
$DIMDEC
 70
2
  9
$DIMTDEC
 70
2
  9
$DIMALTU
 70
2
  9
$DIMALTTD
 70
3
  9
$DIMTXSTY
  7
Standard
  9
$DIMAUNIT
 70
0
  9
$DIMADEC
 70
0
  9
$DIMALTRND
 40
0.0
  9
$DIMAZIN
 70
0
  9
$DIMDSEP
 70
44
  9
$DIMATFIT
 70
3
  9
$DIMFRAC
 70
0
  9
$DIMLDRBLK
  1

  9
$DIMLUNIT
 70
2
  9
$DIMLWD
 70
-2
  9
$DIMLWE
 70
-2
  9
$DIMTMOVE
 70
0
  9
$DIMFXL
 40
1.0
  9
$DIMFXLON
 70
0
  9
$DIMJOGANG
 40
0.785398163397
  9
$DIMTFILL
 70
0
  9
$DIMTFILLCLR
 70
0
  9
$DIMARCSYM
 70
0
  9
$DIMLTYPE
  6

  9
$DIMLTEX1
  6

  9
$DIMLTEX2
  6

  9
$DIMTXTDIRECTION
 70
0
  9
$LUNITS
 70
2
  9
$LUPREC
 70
4
  9
$SKETCHINC
 40
1.0
  9
$FILLETRAD
 40
10.0
  9
$AUNITS
 70
0
  9
$AUPREC
 70
2
  9
$MENU
  1
.
  9
$ELEVATION
 40
0.0
  9
$PELEVATION
 40
0.0
  9
$THICKNESS
 40
0.0
  9
$LIMCHECK
 70
0
  9
$CHAMFERA
 40
0.0
  9
$CHAMFERB
 40
0.0
  9
$CHAMFERC
 40
0.0
  9
$CHAMFERD
 40
0.0
  9
$SKPOLY
 70
0
  9
$TDCREATE
 40
2460959.5774652776
  9
$TDUCREATE
 40
2458532.153996898
  9
$TDUPDATE
 40
2460959.5774768516
  9
$TDUUPDATE
 40
2458532.1544311
  9
$TDINDWG
 40
0.0
  9
$TDUSRTIMER
 40
0.0
  9
$USRTIMER
 70
1
  9
$ANGBASE
 50
0.0
  9
$ANGDIR
 70
0
  9
$PDMODE
 70
0
  9
$PDSIZE
 40
0.0
  9
$PLINEWID
 40
0.0
  9
$SPLFRAME
 70
0
  9
$SPLINETYPE
 70
6
  9
$SPLINESEGS
 70
8
  9
$HANDSEED
  5
176
  9
$SURFTAB1
 70
6
  9
$SURFTAB2
 70
6
  9
$SURFTYPE
 70
6
  9
$SURFU
 70
6
  9
$SURFV
 70
6
  9
$UCSBASE
  2

  9
$UCSNAME
  2

  9
$UCSORG
 10
0.0
 20
0.0
 30
0.0
  9
$UCSXDIR
 10
1.0
 20
0.0
 30
0.0
  9
$UCSYDIR
 10
0.0
 20
1.0
 30
0.0
  9
$UCSORTHOREF
  2

  9
$UCSORTHOVIEW
 70
0
  9
$UCSORGTOP
 10
0.0
 20
0.0
 30
0.0
  9
$UCSORGBOTTOM
 10
0.0
 20
0.0
 30
0.0
  9
$UCSORGLEFT
 10
0.0
 20
0.0
 30
0.0
  9
$UCSORGRIGHT
 10
0.0
 20
0.0
 30
0.0
  9
$UCSORGFRONT
 10
0.0
 20
0.0
 30
0.0
  9
$UCSORGBACK
 10
0.0
 20
0.0
 30
0.0
  9
$PUCSBASE
  2

  9
$PUCSNAME
  2

  9
$PUCSORG
 10
0.0
 20
0.0
 30
0.0
  9
$PUCSXDIR
 10
1.0
 20
0.0
 30
0.0
  9
$PUCSYDIR
 10
0.0
 20
1.0
 30
0.0
  9
$PUCSORTHOREF
  2

  9
$PUCSORTHOVIEW
 70
0
  9
$PUCSORGTOP
 10
0.0
 20
0.0
 30
0.0
  9
$PUCSORGBOTTOM
 10
0.0
 20
0.0
 30
0.0
  9
$PUCSORGLEFT
 10
0.0
 20
0.0
 30
0.0
  9
$PUCSORGRIGHT
 10
0.0
 20
0.0
 30
0.0
  9
$PUCSORGFRONT
 10
0.0
 20
0.0
 30
0.0
  9
$PUCSORGBACK
 10
0.0
 20
0.0
 30
0.0
  9
$USERI1
 70
0
  9
$USERI2
 70
0
  9
$USERI3
 70
0
  9
$USERI4
 70
0
  9
$USERI5
 70
0
  9
$USERR1
 40
0.0
  9
$USERR2
 40
0.0
  9
$USERR3
 40
0.0
  9
$USERR4
 40
0.0
  9
$USERR5
 40
0.0
  9
$WORLDVIEW
 70
1
  9
$SHADEDGE
 70
3
  9
$SHADEDIF
 70
70
  9
$TILEMODE
 70
1
  9
$MAXACTVP
 70
64
  9
$PINSBASE
 10
0.0
 20
0.0
 30
0.0
  9
$PLIMCHECK
 70
0
  9
$PEXTMIN
 10
1e+20
 20
1e+20
 30
1e+20
  9
$PEXTMAX
 10
-1e+20
 20
-1e+20
 30
-1e+20
  9
$PLIMMIN
 10
0.0
 20
0.0
  9
$PLIMMAX
 10
420.0
 20
297.0
  9
$UNITMODE
 70
0
  9
$VISRETAIN
 70
1
  9
$PLINEGEN
 70
0
  9
$PSLTSCALE
 70
1
  9
$TREEDEPTH
 70
3020
  9
$CMLSTYLE
  2
Standard
  9
$CMLJUST
 70
0
  9
$CMLSCALE
 40
20.0
  9
$PROXYGRAPHICS
 70
1
  9
$MEASUREMENT
 70
1
  9
$CELWEIGHT
370
-1
  9
$ENDCAPS
280
0
  9
$JOINSTYLE
280
0
  9
$LWDISPLAY
290
0
  9
$INSUNITS
 70
6
  9
$HYPERLINKBASE
  1

  9
$STYLESHEET
  1

  9
$XEDIT
290
1
  9
$CEPSNTYPE
380
0
  9
$PSTYLEMODE
290
1
  9
$FINGERPRINTGUID
  2
{ACB6A921-89C2-4226-849C-7A8290853FC6}
  9
$VERSIONGUID
  2
{2BC16DCC-1934-4EB9-A8DA-BCB0F91ECEE6}
  9
$EXTNAMES
290
1
  9
$PSVPSCALE
 40
0.0
  9
$OLESTARTUP
290
0
  9
$SORTENTS
280
127
  9
$INDEXCTL
280
0
  9
$HIDETEXT
280
1
  9
$XCLIPFRAME
280
1
  9
$HALOGAP
280
0
  9
$OBSCOLOR
 70
257
  9
$OBSLTYPE
280
0
  9
$INTERSECTIONDISPLAY
280
0
  9
$INTERSECTIONCOLOR
 70
257
  9
$DIMASSOC
280
2
  9
$PROJECTNAME
  1

  9
$CAMERADISPLAY
290
0
  9
$LENSLENGTH
 40
50.0
  9
$CAMERAHEIGHT
 40
0.0
  9
$STEPSPERSEC
 40
24.0
  9
$STEPSIZE
 40
100.0
  9
$3DDWFPREC
 40
2.0
  9
$PSOLWIDTH
 40
0.005
  9
$PSOLHEIGHT
 40
0.08
  9
$LOFTANG1
 40
1.570796326795
  9
$LOFTANG2
 40
1.570796326795
  9
$LOFTMAG1
 40
0.0
  9
$LOFTMAG2
 40
0.0
  9
$LOFTPARAM
 70
7
  9
$LOFTNORMALS
280
1
  9
$LATITUDE
 40
37.795
  9
$LONGITUDE
 40
-122.394
  9
$NORTHDIRECTION
 40
0.0
  9
$TIMEZONE
 70
-8000
  9
$LIGHTGLYPHDISPLAY
280
1
  9
$TILEMODELIGHTSYNCH
280
1
  9
$CMATERIAL
347
20
  9
$SOLIDHIST
280
0
  9
$SHOWHIST
280
1
  9
$DWFFRAME
280
2
  9
$DGNFRAME
280
2
  9
$REALWORLDSCALE
290
1
  9
$INTERFERECOLOR
 62
256
  9
$CSHADOW
280
0
  9
$SHADOWPLANELOCATION
 40
0.0
  0
ENDSEC
  0
SECTION
  2
CLASSES
  0
CLASS
  1
ACDBDICTIONARYWDFLT
  2
AcDbDictionaryWithDefault
  3
ObjectDBX Classes
 90
0
 91
0
280
0
281
0
  0
CLASS
  1
SUN
  2
AcDbSun
  3
SCENEOE
 90
1153
 91
0
280
0
281
0
  0
CLASS
  1
VISUALSTYLE
  2
AcDbVisualStyle
  3
ObjectDBX Classes
 90
4095
 91
0
280
0
281
0
  0
CLASS
  1
MATERIAL
  2
AcDbMaterial
  3
ObjectDBX Classes
 90
1153
 91
0
280
0
281
0
  0
CLASS
  1
SCALE
  2
AcDbScale
  3
ObjectDBX Classes
 90
1153
 91
0
280
0
281
0
  0
CLASS
  1
TABLESTYLE
  2
AcDbTableStyle
  3
ObjectDBX Classes
 90
4095
 91
0
280
0
281
0
  0
CLASS
  1
MLEADERSTYLE
  2
AcDbMLeaderStyle
  3
ACDB_MLEADERSTYLE_CLASS
 90
4095
 91
0
280
0
281
0
  0
CLASS
  1
DICTIONARYVAR
  2
AcDbDictionaryVar
  3
ObjectDBX Classes
 90
0
 91
0
280
0
281
0
  0
CLASS
  1
CELLSTYLEMAP
  2
AcDbCellStyleMap
  3
ObjectDBX Classes
 90
1152
 91
0
280
0
281
0
  0
CLASS
  1
MENTALRAYRENDERSETTINGS
  2
AcDbMentalRayRenderSettings
  3
SCENEOE
 90
1024
 91
0
280
0
281
0
  0
CLASS
  1
ACDBDETAILVIEWSTYLE
  2
AcDbDetailViewStyle
  3
ObjectDBX Classes
 90
1025
 91
0
280
0
281
0
  0
CLASS
  1
ACDBSECTIONVIEWSTYLE
  2
AcDbSectionViewStyle
  3
ObjectDBX Classes
 90
1025
 91
0
280
0
281
0
  0
CLASS
  1
RASTERVARIABLES
  2
AcDbRasterVariables
  3
ISM
 90
0
 91
0
280
0
281
0
  0
CLASS
  1
ACDBPLACEHOLDER
  2
AcDbPlaceHolder
  3
ObjectDBX Classes
 90
0
 91
0
280
0
281
0
  0
CLASS
  1
LAYOUT
  2
AcDbLayout
  3
ObjectDBX Classes
 90
0
 91
0
280
0
281
0
  0
ENDSEC
  0
SECTION
  2
TABLES
  0
TABLE
  2
VPORT
  5
8
330
0
100
AcDbSymbolTable
 70
1
  0
VPORT
  5
23
330
8
100
AcDbSymbolTableRecord
100
AcDbViewportTableRecord
  2
*Active
 70
0
 10
0.0
 20
0.0
 11
1.0
 21
1.0
 12
0.0
 22
0.0
 13
0.0
 23
0.0
 14
0.5
 24
0.5
 15
0.5
 25
0.5
 16
0.0
 26
0.0
 36
1.0
 17
0.0
 27
0.0
 37
0.0
 40
1000.0
 41
1.34
 42
50.0
 43
0.0
 44
0.0
 50
0.0
 51
0.0
 71
0
 72
1000
 73
1
 74
3
 75
0
 76
0
 77
0
 78
0
281
0
 65
0
146
0.0
  0
ENDTAB
  0
TABLE
  2
LTYPE
  5
2
330
0
100
AcDbSymbolTable
 70
3
  0
LTYPE
  5
24
330
2
100
AcDbSymbolTableRecord
100
AcDbLinetypeTableRecord
  2
ByBlock
 70
0
  3

 72
65
 73
0
 40
0.0
  0
LTYPE
  5
25
330
2
100
AcDbSymbolTableRecord
100
AcDbLinetypeTableRecord
  2
ByLayer
 70
0
  3

 72
65
 73
0
 40
0.0
  0
LTYPE
  5
26
330
2
100
AcDbSymbolTableRecord
100
AcDbLinetypeTableRecord
  2
Continuous
 70
0
  3

 72
65
 73
0
 40
0.0
  0
ENDTAB
  0
TABLE
  2
LAYER
  5
1
330
0
100
AcDbSymbolTable
 70
2
  0
LAYER
  5
27
330
1
100
AcDbSymbolTableRecord
100
AcDbLayerTableRecord
  2
0
 70
0
 62
7
  6
Continuous
370
-3
390
13
347
21
  0
LAYER
  5
28
330
1
100
AcDbSymbolTableRecord
100
AcDbLayerTableRecord
  2
Defpoints
 70
0
 62
7
  6
Continuous
290
0
370
-3
390
13
347
21
  0
ENDTAB
  0
TABLE
  2
STYLE
  5
5
330
0
100
AcDbSymbolTable
 70
1
  0
STYLE
  5
29
330
5
100
AcDbSymbolTableRecord
100
AcDbTextStyleTableRecord
  2
Standard
 70
0
 40
0.0
 41
1.0
 50
0.0
 71
0
 42
2.5
  3
txt
  4

  0
ENDTAB
  0
TABLE
  2
VIEW
  5
7
330
0
100
AcDbSymbolTable
 70
0
  0
ENDTAB
  0
TABLE
  2
UCS
  5
6
330
0
100
AcDbSymbolTable
 70
0
  0
ENDTAB
  0
TABLE
  2
APPID
  5
3
330
0
100
AcDbSymbolTable
 70
3
  0
APPID
  5
2A
330
3
100
AcDbSymbolTableRecord
100
AcDbRegAppTableRecord
  2
ACAD
 70
0
  0
APPID
  5
173
330
3
100
AcDbSymbolTableRecord
100
AcDbRegAppTableRecord
  2
HATCHBACKGROUNDCOLOR
 70
0
  0
APPID
  5
174
330
3
100
AcDbSymbolTableRecord
100
AcDbRegAppTableRecord
  2
EZDXF
 70
0
  0
ENDTAB
  0
TABLE
  2
DIMSTYLE
  5
4
330
0
100
AcDbSymbolTable
 70
1
100
AcDbDimStyleTable
  0
DIMSTYLE
105
2B
330
4
100
AcDbSymbolTableRecord
100
AcDbDimStyleTableRecord
  2
Standard
 70
0
 40
1.0
 41
2.5
 42
0.625
 43
3.75
 44
1.25
 45
0.0
 46
0.0
 47
0.0
 48
0.0
 49
2.5
140
2.5
141
2.5
142
0.0
143
0.03937007874
144
1.0
145
0.0
146
1.0
147
0.625
148
0.0
 69
0
 70
0
 71
0
 72
0
 73
0
 74
0
 75
0
 76
0
 77
1
 78
8
 79
3
170
0
171
3
172
1
173
0
174
0
175
0
176
0
177
0
178
0
179
2
271
2
272
2
273
2
274
3
275
0
276
0
277
2
278
44
279
0
280
0
281
0
282
0
283
0
284
8
285
0
286
0
288
0
289
3
290
0
371
-2
372
-2
  0
ENDTAB
  0
TABLE
  2
BLOCK_RECORD
  5
9
330
0
100
AcDbSymbolTable
 70
2
  0
BLOCK_RECORD
  5
17
330
9
100
AcDbSymbolTableRecord
100
AcDbBlockTableRecord
  2
*Model_Space
340
1A
 70
0
280
1
281
0
  0
BLOCK_RECORD
  5
1B
330
9
100
AcDbSymbolTableRecord
100
AcDbBlockTableRecord
  2
*Paper_Space
340
1E
 70
0
280
1
281
0
  0
ENDTAB
  0
ENDSEC
  0
SECTION
  2
BLOCKS
  0
BLOCK
  5
18
330
17
100
AcDbEntity
  8
0
100
AcDbBlockBegin
  2
*Model_Space
 70
0
 10
0.0
 20
0.0
 30
0.0
  3
*Model_Space
  1

  0
ENDBLK
  5
19
330
17
100
AcDbEntity
  8
0
100
AcDbBlockEnd
  0
BLOCK
  5
1C
330
1B
100
AcDbEntity
  8
0
100
AcDbBlockBegin
  2
*Paper_Space
 70
0
 10
0.0
 20
0.0
 30
0.0
  3
*Paper_Space
  1

  0
ENDBLK
  5
1D
330
1B
100
AcDbEntity
  8
0
100
AcDbBlockEnd
  0
ENDSEC
  0
SECTION
  2
ENTITIES
  0
LINE
  5
2F
330
17
100
AcDbEntity
  8
0
100
AcDbLine
 10
71.65371919447406
 20
39.84480693080961
 30
0.0
 11
71.29606907855093
 21
40.613597851648265
 31
0.0
  0
LINE
  5
30
330
17
100
AcDbEntity
  8
0
100
AcDbLine
 10
71.29606907855093
 20
40.613597851648265
 30
0.0
 11
70.95714729982191
 21
41.3908269769948
 31
0.0
  0
LINE
  5
31
330
17
100
AcDbEntity
  8
0
100
AcDbLine
 10
70.95714729982191
 20
41.3908269769948
 30
0.0
 11
70.63715277164093
 21
42.176038150704144
 31
0.0
  0
LINE
  5
32
330
17
100
AcDbEntity
  8
0
100
AcDbLine
 10
70.63715277164093
 20
42.176038150704144
 30
0.0
 11
70.33627329894946
 21
42.96877053196323
 31
0.0
  0
LINE
  5
33
330
17
100
AcDbEntity
  8
0
100
AcDbLine
 10
70.33627329894946
 20
42.96877053196323
 30
0.0
 11
70.0546854680538
 21
43.76855886575868
 31
0.0
  0
LINE
  5
34
330
17
100
AcDbEntity
  8
0
100
AcDbLine
 10
70.0546854680538
 20
43.76855886575868
 30
0.0
 11
69.79255454298652
 21
44.57493375593515
 31
0.0
  0
LINE
  5
35
330
17
100
AcDbEntity
  8
0
100
AcDbLine
 10
69.79255454298652
 20
44.57493375593515
 30
0.0
 11
69.55003436851274
 21
45.387421940684334
 31
0.0
  0
LINE
  5
36
330
17
100
AcDbEntity
  8
0
100
AcDbLine
 10
69.55003436851274
 20
45.387421940684334
 30
0.0
 11
69.32726727983878
 21
46.20554657030229
 31
0.0
  0
LINE
  5
37
330
17
100
AcDbEntity
  8
0
100
AcDbLine
 10
69.32726727983878
 20
46.20554657030229
 30
0.0
 11
69.12438401907544
 21
47.02882748705295
 31
0.0
  0
LINE
  5
38
330
17
100
AcDbEntity
  8
0
100
AcDbLine
 10
69.12438401907544
 20
47.02882748705295
 30
0.0
 11
68.94150365850538
 21
47.85678150697288
 31
0.0
  0
LINE
  5
39
330
17
100
AcDbEntity
  8
0
100
AcDbLine
 10
68.94150365850538
 20
47.85678150697288
 30
0.0
 11
68.77873353069967
 21
48.68892270345211
 31
0.0
  0
LINE
  5
3A
330
17
100
AcDbEntity
  8
0
100
AcDbLine
 10
68.77873353069967
 20
48.68892270345211
 30
0.0
 11
68.63616916552402
 21
49.52476269242479
 31
0.0
  0
LINE
  5
3B
330
17
100
AcDbEntity
  8
0
100
AcDbLine
 10
68.63616916552402
 20
49.52476269242479
 30
0.0
 11
68.51389423407257
 21
50.36381091900198
 31
0.0
  0
LINE
  5
3C
330
17
100
AcDbEntity
  8
0
100
AcDbLine
 10
68.51389423407257
 20
50.36381091900198
 30
0.0
 11
68.41198049956094
 21
51.20557494537853
 31
0.0
  0
LINE
  5
3D
330
17
100
AcDbEntity
  8
0
100
AcDbLine
 10
68.41198049956094
 20
51.20557494537853
 30
0.0
 11
68.33048777520867
 21
52.04956073984516
 31
0.0
  0
LINE
  5
3E
330
17
100
AcDbEntity
  8
0
100
AcDbLine
 10
68.33048777520867
 20
52.04956073984516
 30
0.0
 11
68.2694638891346
 21
52.89527296673572
 31
0.0
  0
LINE
  5
3F
330
17
100
AcDbEntity
  8
0
100
AcDbLine
 10
68.2694638891346
 20
52.89527296673572
 30
0.0
 11
68.22894465628661
 21
53.74221527714015
 31
0.0
  0
LINE
  5
40
330
17
100
AcDbEntity
  8
0
100
AcDbLine
 10
68.22894465628661
 20
53.74221527714015
 30
0.0
 11
68.20895385742188
 21
54.589890600211746
 31
0.0
  0
LINE
  5
41
330
17
100
AcDbEntity
  8
0
100
AcDbLine
 10
68.20895385742188
 20
54.589890600211746
 30
0.0
 11
68.20950322514975
 21
55.43780143489833
 31
0.0
  0
LINE
  5
42
330
17
100
AcDbEntity
  8
0
100
AcDbLine
 10
68.20950322514975
 20
55.43780143489833
 30
0.0
 11
68.23059243704608
 21
56.28545014192582
 31
0.0
  0
LINE
  5
43
330
17
100
AcDbEntity
  8
0
100
AcDbLine
 10
68.23059243704608
 20
56.28545014192582
 30
0.0
 11
68.27220911584232
 21
57.132339235863014
 31
0.0
  0
LINE
  5
44
330
17
100
AcDbEntity
  8
0
100
AcDbLine
 10
68.27220911584232
 20
57.132339235863014
 30
0.0
 11
68.33432883668979
 21
57.977971677095965
 31
0.0
  0
LINE
  5
45
330
17
100
AcDbEntity
  8
0
100
AcDbLine
 10
68.33432883668979
 20
57.977971677095965
 30
0.0
 11
68.41691514149464
 21
58.82185116354084
 31
0.0
  0
LINE
  5
46
330
17
100
AcDbEntity
  8
0
100
AcDbLine
 10
68.41691514149464
 20
58.82185116354084
 30
0.0
 11
68.51991956031513
 21
59.663482421923774
 31
0.0
  0
LINE
  5
47
330
17
100
AcDbEntity
  8
0
100
AcDbLine
 10
68.51991956031513
 20
59.663482421923774
 30
0.0
 11
68.6432816398086
 21
60.50237149845702
 31
0.0
  0
LINE
  5
48
330
17
100
AcDbEntity
  8
0
100
AcDbLine
 10
68.6432816398086
 20
60.50237149845702
 30
0.0
 11
68.7869289787117
 21
61.338026048740744
 31
0.0
  0
LINE
  5
49
330
17
100
AcDbEntity
  8
0
100
AcDbLine
 10
68.7869289787117
 20
61.338026048740744
 30
0.0
 11
68.95077727033254
 21
62.16995562671998
 31
0.0
  0
LINE
  5
4A
330
17
100
AcDbEntity
  8
0
100
AcDbLine
 10
68.95077727033254
 20
62.16995562671998
 30
0.0
 11
69.13473035203047
 21
62.99767197252791
 31
0.0
  0
LINE
  5
4B
330
17
100
AcDbEntity
  8
0
100
AcDbLine
 10
69.13473035203047
 20
62.99767197252791
 30
0.0
 11
69.33868026165396
 21
63.82068929904561
 31
0.0
  0
LINE
  5
4C
330
17
100
AcDbEntity
  8
0
100
AcDbLine
 10
69.33868026165396
 20
63.82068929904561
 30
0.0
 11
69.56250730090358
 21
64.63852457701088
 31
0.0
  0
LINE
  5
4D
330
17
100
AcDbEntity
  8
0
100
AcDbLine
 10
69.56250730090358
 20
64.63852457701088
 30
0.0
 11
69.80608010558302
 21
65.45069781850827
 31
0.0
  0
LINE
  5
4E
330
17
100
AcDbEntity
  8
0
100
AcDbLine
 10
69.80608010558302
 20
65.45069781850827
 30
0.0
 11
70.06925572269685
 21
66.25673235867424
 31
0.0
  0
LINE
  5
4F
330
17
100
AcDbEntity
  8
0
100
AcDbLine
 10
70.06925572269685
 20
66.25673235867424
 30
0.0
 11
70.3518796943496
 21
67.05615513545196
 31
0.0
  0
LINE
  5
50
330
17
100
AcDbEntity
  8
0
100
AcDbLine
 10
70.3518796943496
 20
67.05615513545196
 30
0.0
 11
70.65378614839727
 21
67.84849696723174
 31
0.0
  0
LINE
  5
51
330
17
100
AcDbEntity
  8
0
100
AcDbLine
 10
70.65378614839727
 20
67.84849696723174
 30
0.0
 11
70.97479789579768
 21
68.6332928282139
 31
0.0
  0
LINE
  5
52
330
17
100
AcDbEntity
  8
0
100
AcDbLine
 10
70.97479789579768
 20
68.6332928282139
 30
0.0
 11
71.31472653460291
 21
69.41008212133258
 31
0.0
  0
LINE
  5
53
330
17
100
AcDbEntity
  8
0
100
AcDbLine
 10
71.31472653460291
 20
69.41008212133258
 30
0.0
 11
71.6733725605324
 21
70.17840894858045
 31
0.0
  0
LINE
  5
54
330
17
100
AcDbEntity
  8
0
100
AcDbLine
 10
71.6733725605324
 20
70.17840894858045
 30
0.0
 11
72.05052548406213
 21
70.93782237857545
 31
0.0
  0
LINE
  5
55
330
17
100
AcDbEntity
  8
0
100
AcDbLine
 10
72.05052548406213
 20
70.93782237857545
 30
0.0
 11
72.44596395396107
 21
71.6878767112126
 31
0.0
  0
LINE
  5
56
330
17
100
AcDbEntity
  8
0
100
AcDbLine
 10
72.44596395396107
 20
71.6878767112126
 30
0.0
 11
72.85945588720227
 21
72.42813173924566
 31
0.0
  0
LINE
  5
57
330
17
100
AcDbEntity
  8
0
100
AcDbLine
 10
72.85945588720227
 20
72.42813173924566
 30
0.0
 11
73.2907586051725
 21
73.15815300664497
 31
0.0
  0
LINE
  5
58
330
17
100
AcDbEntity
  8
0
100
AcDbLine
 10
73.2907586051725
 20
73.15815300664497
 30
0.0
 11
73.7396189761005
 21
73.87751206357979
 31
0.0
  0
LINE
  5
59
330
17
100
AcDbEntity
  8
0
100
AcDbLine
 10
73.7396189761005
 20
73.87751206357979
 30
0.0
 11
74.20577356362008
 21
74.58578671787589
 31
0.0
  0
LINE
  5
5A
330
17
100
AcDbEntity
  8
0
100
AcDbLine
 10
74.20577356362008
 20
74.58578671787589
 30
0.0
 11
74.68894878138104
 21
75.28256128280017
 31
0.0
  0
LINE
  5
5B
330
17
100
AcDbEntity
  8
0
100
AcDbLine
 10
74.68894878138104
 20
75.28256128280017
 30
0.0
 11
75.1888610536172
 21
75.96742682102754
 31
0.0
  0
LINE
  5
5C
330
17
100
AcDbEntity
  8
0
100
AcDbLine
 10
75.1888610536172
 20
75.96742682102754
 30
0.0
 11
75.7052169815771
 21
76.63998138464632
 31
0.0
  0
LINE
  5
5D
330
17
100
AcDbEntity
  8
0
100
AcDbLine
 10
75.7052169815771
 20
76.63998138464632
 30
0.0
 11
76.23771351571986
 21
77.29983025106176
 31
0.0
  0
LINE
  5
5E
330
17
100
AcDbEntity
  8
0
100
AcDbLine
 10
76.23771351571986
 20
77.29983025106176
 30
0.0
 11
76.78603813357515
 21
77.94658615465883
 31
0.0
  0
LINE
  5
5F
330
17
100
AcDbEntity
  8
0
100
AcDbLine
 10
76.78603813357515
 20
77.94658615465883
 30
0.0
 11
77.3498690231627
 21
78.57986951408861
 31
0.0
  0
LINE
  5
60
330
17
100
AcDbEntity
  8
0
100
AcDbLine
 10
77.3498690231627
 20
78.57986951408861
 30
0.0
 11
77.92887527186399
 21
79.19930865504489
 31
0.0
  0
LINE
  5
61
330
17
100
AcDbEntity
  8
0
100
AcDbLine
 10
77.92887527186399
 20
79.19930865504489
 30
0.0
 11
77.9795464718084
 21
79.25643388534883
 31
0.0
  0
LINE
  5
62
330
17
100
AcDbEntity
  8
0
100
AcDbLine
 10
77.9795464718084
 20
79.25643388534883
 30
0.0
 11
78.02571103646622
 21
79.31725900689446
 31
0.0
  0
LINE
  5
63
330
17
100
AcDbEntity
  8
0
100
AcDbLine
 10
78.02571103646622
 20
79.31725900689446
 30
0.0
 11
78.06709978661124
 21
79.38142935676507
 31
0.0
  0
LINE
  5
64
330
17
100
AcDbEntity
  8
0
100
AcDbLine
 10
78.06709978661124
 20
79.38142935676507
 30
0.0
 11
78.10347139013477
 21
79.44857076647781
 31
0.0
  0
LINE
  5
65
330
17
100
AcDbEntity
  8
0
100
AcDbLine
 10
78.10347139013477
 20
79.44857076647781
 30
0.0
 11
78.13461376921991
 21
79.51829174370849
 31
0.0
  0
LINE
  5
66
330
17
100
AcDbEntity
  8
0
100
AcDbLine
 10
78.13461376921991
 20
79.51829174370849
 30
0.0
 11
78.16034533693812
 21
79.59018575502967
 31
0.0
  0
LINE
  5
67
330
17
100
AcDbEntity
  8
0
100
AcDbLine
 10
78.16034533693812
 20
79.59018575502967
 30
0.0
 11
78.18051605605766
 21
79.66383359635097
 31
0.0
  0
LINE
  5
68
330
17
100
AcDbEntity
  8
0
100
AcDbLine
 10
78.18051605605766
 20
79.66383359635097
 30
0.0
 11
78.19500831388997
 21
79.73880583724055
 31
0.0
  0
LINE
  5
69
330
17
100
AcDbEntity
  8
0
100
AcDbLine
 10
78.19500831388997
 20
79.73880583724055
 30
0.0
 11
78.2037376080732
 21
79.81466532487491
 31
0.0
  0
LINE
  5
6A
330
17
100
AcDbEntity
  8
0
100
AcDbLine
 10
78.2037376080732
 20
79.81466532487491
 30
0.0
 11
78.20665303929374
 21
79.89096973301679
 31
0.0
  0
LINE
  5
6B
330
17
100
AcDbEntity
  8
0
100
AcDbLine
 10
78.20665303929374
 20
79.89096973301679
 30
0.0
 11
78.20665303929374
 21
84.99117137306342
 31
0.0
  0
LINE
  5
6C
330
17
100
AcDbEntity
  8
0
100
AcDbLine
 10
78.20665303929374
 20
84.99117137306342
 30
0.0
 11
78.20665303929374
 21
87.99117144756923
 31
0.0
  0
LINE
  5
6D
330
17
100
AcDbEntity
  8
0
100
AcDbLine
 10
78.20665303929374
 20
87.99117144756923
 30
0.0
 11
78.23127635810346
 21
88.3040403776497
 31
0.0
  0
LINE
  5
6E
330
17
100
AcDbEntity
  8
0
100
AcDbLine
 10
78.23127635810346
 20
88.3040403776497
 30
0.0
 11
78.30454000670343
 21
88.60920543631912
 31
0.0
  0
LINE
  5
6F
330
17
100
AcDbEntity
  8
0
100
AcDbLine
 10
78.30454000670343
 20
88.60920543631912
 30
0.0
 11
78.424639990917
 21
88.89915244704832
 31
0.0
  0
LINE
  5
70
330
17
100
AcDbEntity
  8
0
100
AcDbLine
 10
78.424639990917
 20
88.89915244704832
 30
0.0
 11
78.58861905054384
 21
89.16674195215418
 31
0.0
  0
LINE
  5
71
330
17
100
AcDbEntity
  8
0
100
AcDbLine
 10
78.58861905054384
 20
89.16674195215418
 30
0.0
 11
78.79243947692063
 21
89.40538500994234
 31
0.0
  0
LINE
  5
72
330
17
100
AcDbEntity
  8
0
100
AcDbLine
 10
78.79243947692063
 20
89.40538500994234
 30
0.0
 11
79.03108253470879
 21
89.60920543631913
 31
0.0
  0
LINE
  5
73
330
17
100
AcDbEntity
  8
0
100
AcDbLine
 10
79.03108253470879
 20
89.60920543631913
 30
0.0
 11
79.29867203981465
 21
89.77318449594597
 31
0.0
  0
LINE
  5
74
330
17
100
AcDbEntity
  8
0
100
AcDbLine
 10
79.29867203981465
 20
89.77318449594597
 30
0.0
 11
79.58861905054384
 21
89.89328448015954
 31
0.0
  0
LINE
  5
75
330
17
100
AcDbEntity
  8
0
100
AcDbLine
 10
79.58861905054384
 20
89.89328448015954
 30
0.0
 11
79.89378410921327
 21
89.96654812875951
 31
0.0
  0
LINE
  5
76
330
17
100
AcDbEntity
  8
0
100
AcDbLine
 10
79.89378410921327
 20
89.96654812875951
 30
0.0
 11
80.20665303929374
 21
89.99117144756923
 31
0.0
  0
LINE
  5
77
330
17
100
AcDbEntity
  8
0
100
AcDbLine
 10
80.20665303929374
 20
89.99117144756923
 30
0.0
 11
88.20665341182276
 21
89.99117144756924
 31
0.0
  0
LINE
  5
78
330
17
100
AcDbEntity
  8
0
100
AcDbLine
 10
88.20665341182276
 20
89.99117144756924
 30
0.0
 11
88.36308787686298
 21
89.97885978816439
 31
0.0
  0
LINE
  5
79
330
17
100
AcDbEntity
  8
0
100
AcDbLine
 10
88.36308787686298
 20
89.97885978816439
 30
0.0
 11
88.5156704061977
 21
89.9422279638644
 31
0.0
  0
LINE
  5
7A
330
17
100
AcDbEntity
  8
0
100
AcDbLine
 10
88.5156704061977
 20
89.9422279638644
 30
0.0
 11
88.66064391156232
 21
89.88217797175761
 31
0.0
  0
LINE
  5
7B
330
17
100
AcDbEntity
  8
0
100
AcDbLine
 10
88.66064391156232
 20
89.88217797175761
 30
0.0
 11
88.79443866411523
 21
89.80018844194419
 31
0.0
  0
LINE
  5
7C
330
17
100
AcDbEntity
  8
0
100
AcDbLine
 10
88.79443866411523
 20
89.80018844194419
 30
0.0
 11
88.9137601930093
 21
89.69827822875578
 31
0.0
  0
LINE
  5
7D
330
17
100
AcDbEntity
  8
0
100
AcDbLine
 10
88.9137601930093
 20
89.69827822875578
 30
0.0
 11
89.0156704061977
 21
89.57895669986172
 31
0.0
  0
LINE
  5
7E
330
17
100
AcDbEntity
  8
0
100
AcDbLine
 10
89.0156704061977
 20
89.57895669986172
 30
0.0
 11
89.09765993601113
 21
89.44516194730878
 31
0.0
  0
LINE
  5
7F
330
17
100
AcDbEntity
  8
0
100
AcDbLine
 10
89.09765993601113
 20
89.44516194730878
 30
0.0
 11
89.15770992811792
 21
89.30018844194419
 31
0.0
  0
LINE
  5
80
330
17
100
AcDbEntity
  8
0
100
AcDbLine
 10
89.15770992811792
 20
89.30018844194419
 30
0.0
 11
89.1943417524179
 21
89.14760591260946
 31
0.0
  0
LINE
  5
81
330
17
100
AcDbEntity
  8
0
100
AcDbLine
 10
89.1943417524179
 20
89.14760591260946
 30
0.0
 11
89.20665341182274
 21
88.99117144756923
 31
0.0
  0
LINE
  5
82
330
17
100
AcDbEntity
  8
0
100
AcDbLine
 10
89.20665341182274
 20
88.99117144756923
 30
0.0
 11
89.20665341182277
 21
86.99117138796458
 31
0.0
  0
LINE
  5
83
330
17
100
AcDbEntity
  8
0
100
AcDbLine
 10
89.20665341182277
 20
86.9911713879646
 30
0.0
 11
89.1943417524179
 21
86.83473692292438
 31
0.0
  0
LINE
  5
84
330
17
100
AcDbEntity
  8
0
100
AcDbLine
 10
89.1943417524179
 20
86.83473692292438
 30
0.0
 11
89.15770992811792
 21
86.68215439358966
 31
0.0
  0
LINE
  5
85
330
17
100
AcDbEntity
  8
0
100
AcDbLine
 10
89.15770992811792
 20
86.68215439358966
 30
0.0
 11
89.09765993601113
 21
86.53718088822504
 31
0.0
  0
LINE
  5
86
330
17
100
AcDbEntity
  8
0
100
AcDbLine
 10
89.09765993601113
 20
86.53718088822504
 30
0.0
 11
89.0156704061977
 21
86.40338613567212
 31
0.0
  0
LINE
  5
87
330
17
100
AcDbEntity
  8
0
100
AcDbLine
 10
89.0156704061977
 20
86.40338613567212
 30
0.0
 11
88.9137601930093
 21
86.28406460677805
 31
0.0
  0
LINE
  5
88
330
17
100
AcDbEntity
  8
0
100
AcDbLine
 10
88.9137601930093
 20
86.28406460677805
 30
0.0
 11
88.79443866411523
 21
86.18215439358966
 31
0.0
  0
LINE
  5
89
330
17
100
AcDbEntity
  8
0
100
AcDbLine
 10
88.79443866411523
 20
86.18215439358966
 30
0.0
 11
88.66064391156232
 21
86.10016486377623
 31
0.0
  0
LINE
  5
8A
330
17
100
AcDbEntity
  8
0
100
AcDbLine
 10
88.66064391156232
 20
86.10016486377623
 30
0.0
 11
88.5156704061977
 21
86.04011487166943
 31
0.0
  0
LINE
  5
8B
330
17
100
AcDbEntity
  8
0
100
AcDbLine
 10
88.5156704061977
 20
86.04011487166943
 30
0.0
 11
88.36308787686299
 21
86.00348304736946
 31
0.0
  0
LINE
  5
8C
330
17
100
AcDbEntity
  8
0
100
AcDbLine
 10
88.36308787686299
 20
86.00348304736946
 30
0.0
 11
88.20665341182276
 21
85.99117138796458
 31
0.0
  0
LINE
  5
8D
330
17
100
AcDbEntity
  8
0
100
AcDbLine
 10
88.20665341182276
 20
85.99117138796458
 30
0.0
 11
84.20665312870071
 21
85.99117138796458
 31
0.0
  0
LINE
  5
8E
330
17
100
AcDbEntity
  8
0
100
AcDbLine
 10
84.20665312870071
 20
85.99117138796458
 30
0.0
 11
83.89750885855528
 21
85.94218647219876
 31
0.0
  0
LINE
  5
8F
330
17
100
AcDbEntity
  8
0
100
AcDbLine
 10
83.89750885855528
 20
85.94218647219876
 30
0.0
 11
83.61865136010579
 21
85.80003093310579
 31
0.0
  0
LINE
  5
90
330
17
100
AcDbEntity
  8
0
100
AcDbLine
 10
83.61865136010579
 20
85.80003093310579
 30
0.0
 11
83.39740019406246
 21
85.57863169358407
 31
0.0
  0
LINE
  5
91
330
17
100
AcDbEntity
  8
0
100
AcDbLine
 10
83.39740019406246
 20
85.57863169358407
 30
0.0
 11
83.25543125114561
 21
85.29967915105507
 31
0.0
  0
LINE
  5
92
330
17
100
AcDbEntity
  8
0
100
AcDbLine
 10
83.25543125114561
 20
85.29967915105507
 30
0.0
 11
83.20665317349884
 21
84.99050217766052
 31
0.0
  0
LINE
  5
93
330
17
100
AcDbEntity
  8
0
100
AcDbLine
 10
83.20665317349884
 20
84.99050217766052
 30
0.0
 11
83.25584473042548
 21
84.6813907212836
 31
0.0
  0
LINE
  5
94
330
17
100
AcDbEntity
  8
0
100
AcDbLine
 10
83.25584473042548
 20
84.6813907212836
 30
0.0
 11
83.3981866442179
 21
84.40262831113073
 31
0.0
  0
LINE
  5
95
330
17
100
AcDbEntity
  8
0
100
AcDbLine
 10
83.3981866442179
 20
84.40262831113073
 30
0.0
 11
83.61973373292082
 21
84.18152519214868
 31
0.0
  0
LINE
  5
96
330
17
100
AcDbEntity
  8
0
100
AcDbLine
 10
83.61973373292082
 20
84.18152519214868
 30
0.0
 11
83.89878111438603
 21
84.03974275094478
 31
0.0
  0
LINE
  5
97
330
17
100
AcDbEntity
  8
0
100
AcDbLine
 10
83.89878111438603
 20
84.03974275094478
 30
0.0
 11
84.20799062513802
 21
83.99117135816226
 31
0.0
  0
LINE
  5
98
330
17
100
AcDbEntity
  8
0
100
AcDbLine
 10
84.20665312870071
 20
83.99117135816226
 30
0.0
 11
114.20665341182277
 21
83.99117135816226
 31
0.0
  0
LINE
  5
99
330
17
100
AcDbEntity
  8
0
100
AcDbLine
 10
114.20665341182277
 20
83.99117135816226
 30
0.0
 11
114.51952234190321
 21
84.015794676972
 31
0.0
  0
LINE
  5
9A
330
17
100
AcDbEntity
  8
0
100
AcDbLine
 10
114.51952234190321
 20
84.015794676972
 30
0.0
 11
114.82468740057266
 21
84.08905832557195
 31
0.0
  0
LINE
  5
9B
330
17
100
AcDbEntity
  8
0
100
AcDbLine
 10
114.82468740057266
 20
84.08905832557195
 30
0.0
 11
115.11463441130186
 21
84.20915830978555
 31
0.0
  0
LINE
  5
9C
330
17
100
AcDbEntity
  8
0
100
AcDbLine
 10
115.11463441130186
 20
84.20915830978555
 30
0.0
 11
115.38222391640772
 21
84.37313736941238
 31
0.0
  0
LINE
  5
9D
330
17
100
AcDbEntity
  8
0
100
AcDbLine
 10
115.38222391640772
 20
84.37313736941238
 30
0.0
 11
115.62086697419585
 21
84.57695779578918
 31
0.0
  0
LINE
  5
9E
330
17
100
AcDbEntity
  8
0
100
AcDbLine
 10
115.62086697419585
 20
84.57695779578918
 30
0.0
 11
115.82468740057266
 21
84.81560085357734
 31
0.0
  0
LINE
  5
9F
330
17
100
AcDbEntity
  8
0
100
AcDbLine
 10
115.82468740057266
 20
84.81560085357734
 30
0.0
 11
115.98866646019951
 21
85.08319035868318
 31
0.0
  0
LINE
  5
A0
330
17
100
AcDbEntity
  8
0
100
AcDbLine
 10
115.98866646019951
 20
85.08319035868318
 30
0.0
 11
116.10876644441308
 21
85.37313736941238
 31
0.0
  0
LINE
  5
A1
330
17
100
AcDbEntity
  8
0
100
AcDbLine
 10
116.10876644441308
 20
85.37313736941238
 30
0.0
 11
116.18203009301305
 21
85.67830242808182
 31
0.0
  0
LINE
  5
A2
330
17
100
AcDbEntity
  8
0
100
AcDbLine
 10
116.18203009301305
 20
85.67830242808182
 30
0.0
 11
116.20665341182277
 21
85.99117135816229
 31
0.0
  0
LINE
  5
A3
330
17
100
AcDbEntity
  8
0
100
AcDbLine
 10
116.20665341182277
 20
85.99117135816226
 30
0.0
 11
116.20665341182277
 21
87.99117133151623
 31
0.0
  0
LINE
  5
A4
330
17
100
AcDbEntity
  8
0
100
AcDbLine
 10
116.2066534118228
 20
87.99117133151623
 30
0.0
 11
116.23127673063252
 21
88.3040402615967
 31
0.0
  0
LINE
  5
A5
330
17
100
AcDbEntity
  8
0
100
AcDbLine
 10
116.23127673063252
 20
88.3040402615967
 30
0.0
 11
116.30454037923249
 21
88.60920532026613
 31
0.0
  0
LINE
  5
A6
330
17
100
AcDbEntity
  8
0
100
AcDbLine
 10
116.30454037923249
 20
88.60920532026613
 30
0.0
 11
116.42464036344603
 21
88.89915233099532
 31
0.0
  0
LINE
  5
A7
330
17
100
AcDbEntity
  8
0
100
AcDbLine
 10
116.42464036344603
 20
88.89915233099532
 30
0.0
 11
116.58861942307288
 21
89.16674183610118
 31
0.0
  0
LINE
  5
A8
330
17
100
AcDbEntity
  8
0
100
AcDbLine
 10
116.58861942307288
 20
89.16674183610118
 30
0.0
 11
116.79243984944969
 21
89.40538489388932
 31
0.0
  0
LINE
  5
A9
330
17
100
AcDbEntity
  8
0
100
AcDbLine
 10
116.79243984944969
 20
89.40538489388932
 30
0.0
 11
117.03108290723782
 21
89.60920532026611
 31
0.0
  0
LINE
  5
AA
330
17
100
AcDbEntity
  8
0
100
AcDbLine
 10
117.03108290723782
 20
89.60920532026611
 30
0.0
 11
117.29867241234368
 21
89.77318437989297
 31
0.0
  0
LINE
  5
AB
330
17
100
AcDbEntity
  8
0
100
AcDbLine
 10
117.29867241234368
 20
89.77318437989297
 30
0.0
 11
117.58861942307288
 21
89.89328436410653
 31
0.0
  0
LINE
  5
AC
330
17
100
AcDbEntity
  8
0
100
AcDbLine
 10
117.58861942307288
 20
89.89328436410653
 30
0.0
 11
117.89378448174233
 21
89.96654801270651
 31
0.0
  0
LINE
  5
AD
330
17
100
AcDbEntity
  8
0
100
AcDbLine
 10
117.89378448174233
 20
89.96654801270651
 30
0.0
 11
118.20665341182277
 21
89.99117133151623
 31
0.0
  0
LINE
  5
AE
330
17
100
AcDbEntity
  8
0
100
AcDbLine
 10
118.20665341182277
 20
89.99117133151623
 30
0.0
 11
126.20665341182277
 21
89.99117133151623
 31
0.0
  0
LINE
  5
AF
330
17
100
AcDbEntity
  8
0
100
AcDbLine
 10
126.20665341182277
 20
89.99117133151623
 30
0.0
 11
126.363087876863
 21
89.97885967211135
 31
0.0
  0
LINE
  5
B0
330
17
100
AcDbEntity
  8
0
100
AcDbLine
 10
126.363087876863
 20
89.97885967211135
 30
0.0
 11
126.51567040619773
 21
89.94222784781137
 31
0.0
  0
LINE
  5
B1
330
17
100
AcDbEntity
  8
0
100
AcDbLine
 10
126.51567040619773
 20
89.94222784781137
 30
0.0
 11
126.66064391156232
 21
89.88217785570458
 31
0.0
  0
LINE
  5
B2
330
17
100
AcDbEntity
  8
0
100
AcDbLine
 10
126.66064391156232
 20
89.88217785570458
 30
0.0
 11
126.79443866411523
 21
89.80018832589116
 31
0.0
  0
LINE
  5
B3
330
17
100
AcDbEntity
  8
0
100
AcDbLine
 10
126.79443866411523
 20
89.80018832589116
 30
0.0
 11
126.91376019300932
 21
89.69827811270275
 31
0.0
  0
LINE
  5
B4
330
17
100
AcDbEntity
  8
0
100
AcDbLine
 10
126.91376019300932
 20
89.69827811270275
 30
0.0
 11
127.0156704061977
 21
89.57895658380869
 31
0.0
  0
LINE
  5
B5
330
17
100
AcDbEntity
  8
0
100
AcDbLine
 10
127.0156704061977
 20
89.57895658380869
 30
0.0
 11
127.09765993601113
 21
89.44516183125576
 31
0.0
  0
LINE
  5
B6
330
17
100
AcDbEntity
  8
0
100
AcDbLine
 10
127.09765993601113
 20
89.44516183125576
 30
0.0
 11
127.15770992811792
 21
89.30018832589116
 31
0.0
  0
LINE
  5
B7
330
17
100
AcDbEntity
  8
0
100
AcDbLine
 10
127.15770992811792
 20
89.30018832589116
 30
0.0
 11
127.1943417524179
 21
89.14760579655645
 31
0.0
  0
LINE
  5
B8
330
17
100
AcDbEntity
  8
0
100
AcDbLine
 10
127.1943417524179
 20
89.14760579655645
 30
0.0
 11
127.20665341182277
 21
88.99117133151623
 31
0.0
  0
LINE
  5
B9
330
17
100
AcDbEntity
  8
0
100
AcDbLine
 10
127.20665341182274
 20
88.99117133151623
 30
0.0
 11
127.20665341182277
 21
86.9911713879646
 31
0.0
  0
LINE
  5
BA
330
17
100
AcDbEntity
  8
0
100
AcDbLine
 10
127.20665341182277
 20
86.9911713879646
 30
0.0
 11
127.1943417524179
 21
86.83473692292438
 31
0.0
  0
LINE
  5
BB
330
17
100
AcDbEntity
  8
0
100
AcDbLine
 10
127.1943417524179
 20
86.83473692292438
 30
0.0
 11
127.15770992811792
 21
86.68215439358966
 31
0.0
  0
LINE
  5
BC
330
17
100
AcDbEntity
  8
0
100
AcDbLine
 10
127.15770992811792
 20
86.68215439358966
 30
0.0
 11
127.09765993601113
 21
86.53718088822504
 31
0.0
  0
LINE
  5
BD
330
17
100
AcDbEntity
  8
0
100
AcDbLine
 10
127.09765993601113
 20
86.53718088822504
 30
0.0
 11
127.0156704061977
 21
86.40338613567212
 31
0.0
  0
LINE
  5
BE
330
17
100
AcDbEntity
  8
0
100
AcDbLine
 10
127.0156704061977
 20
86.40338613567212
 30
0.0
 11
126.9137601930093
 21
86.28406460677805
 31
0.0
  0
LINE
  5
BF
330
17
100
AcDbEntity
  8
0
100
AcDbLine
 10
126.9137601930093
 20
86.28406460677805
 30
0.0
 11
126.79443866411523
 21
86.18215439358966
 31
0.0
  0
LINE
  5
C0
330
17
100
AcDbEntity
  8
0
100
AcDbLine
 10
126.79443866411523
 20
86.18215439358966
 30
0.0
 11
126.66064391156232
 21
86.10016486377623
 31
0.0
  0
LINE
  5
C1
330
17
100
AcDbEntity
  8
0
100
AcDbLine
 10
126.66064391156232
 20
86.10016486377623
 30
0.0
 11
126.5156704061977
 21
86.04011487166943
 31
0.0
  0
LINE
  5
C2
330
17
100
AcDbEntity
  8
0
100
AcDbLine
 10
126.5156704061977
 20
86.04011487166943
 30
0.0
 11
126.36308787686298
 21
86.00348304736946
 31
0.0
  0
LINE
  5
C3
330
17
100
AcDbEntity
  8
0
100
AcDbLine
 10
126.36308787686298
 20
86.00348304736946
 30
0.0
 11
126.20665341182274
 21
85.99117138796458
 31
0.0
  0
LINE
  5
C4
330
17
100
AcDbEntity
  8
0
100
AcDbLine
 10
126.20665341182274
 20
85.99117138796458
 30
0.0
 11
122.20665369494483
 21
85.99117138796458
 31
0.0
  0
LINE
  5
C5
330
17
100
AcDbEntity
  8
0
100
AcDbLine
 10
122.20665369494483
 20
85.99117138796458
 30
0.0
 11
121.89763486602988
 21
85.94222742394464
 31
0.0
  0
LINE
  5
C6
330
17
100
AcDbEntity
  8
0
100
AcDbLine
 10
121.89763486602988
 20
85.94222742394464
 30
0.0
 11
121.61886526238732
 21
85.8001863864838
 31
0.0
  0
LINE
  5
C7
330
17
100
AcDbEntity
  8
0
100
AcDbLine
 10
121.61886526238732
 20
85.8001863864838
 30
0.0
 11
121.39763309909199
 21
85.5789523968673
 31
0.0
  0
LINE
  5
C8
330
17
100
AcDbEntity
  8
0
100
AcDbLine
 10
121.39763309909199
 20
85.5789523968673
 30
0.0
 11
121.25559436293219
 21
85.30018162065844
 31
0.0
  0
LINE
  5
C9
330
17
100
AcDbEntity
  8
0
100
AcDbLine
 10
121.25559436293219
 20
85.30018162065844
 30
0.0
 11
121.20665294992318
 21
84.99116238771225
 31
0.0
  0
LINE
  5
CA
330
17
100
AcDbEntity
  8
0
100
AcDbLine
 10
121.20665294992318
 20
84.99116238771225
 30
0.0
 11
121.25559963993055
 21
84.68214399056528
 31
0.0
  0
LINE
  5
CB
330
17
100
AcDbEntity
  8
0
100
AcDbLine
 10
121.25559963993055
 20
84.68214399056528
 30
0.0
 11
121.39764313653359
 21
84.40337563993927
 31
0.0
  0
LINE
  5
CC
330
17
100
AcDbEntity
  8
0
100
AcDbLine
 10
121.39764313653359
 20
84.40337563993927
 30
0.0
 11
121.61887907772649
 21
84.18214542825368
 31
0.0
  0
LINE
  5
CD
330
17
100
AcDbEntity
  8
0
100
AcDbLine
 10
121.61887907772649
 20
84.18214542825368
 30
0.0
 11
121.89765110690988
 21
84.04010915125747
 31
0.0
  0
LINE
  5
CE
330
17
100
AcDbEntity
  8
0
100
AcDbLine
 10
121.89765110690988
 20
84.04010915125747
 30
0.0
 11
122.20667077157748
 21
83.99117046424323
 31
0.0
  0
LINE
  5
CF
330
17
100
AcDbEntity
  8
0
100
AcDbLine
 10
122.2066357067182
 20
83.99117046424928
 30
0.0
 11
126.20665341182277
 21
83.99117046424928
 31
0.0
  0
LINE
  5
D0
330
17
100
AcDbEntity
  8
0
100
AcDbLine
 10
126.20665341182277
 20
83.99117046424928
 30
0.0
 11
126.363087876863
 21
83.97885880484442
 31
0.0
  0
LINE
  5
D1
330
17
100
AcDbEntity
  8
0
100
AcDbLine
 10
126.363087876863
 20
83.97885880484442
 30
0.0
 11
126.51567040619773
 21
83.94222698054443
 31
0.0
  0
LINE
  5
D2
330
17
100
AcDbEntity
  8
0
100
AcDbLine
 10
126.51567040619773
 20
83.94222698054443
 30
0.0
 11
126.66064391156232
 21
83.88217698843765
 31
0.0
  0
LINE
  5
D3
330
17
100
AcDbEntity
  8
0
100
AcDbLine
 10
126.66064391156232
 20
83.88217698843765
 30
0.0
 11
126.79443866411523
 21
83.80018745862424
 31
0.0
  0
LINE
  5
D4
330
17
100
AcDbEntity
  8
0
100
AcDbLine
 10
126.79443866411523
 20
83.80018745862424
 30
0.0
 11
126.91376019300932
 21
83.69827724543583
 31
0.0
  0
LINE
  5
D5
330
17
100
AcDbEntity
  8
0
100
AcDbLine
 10
126.91376019300932
 20
83.69827724543583
 30
0.0
 11
127.01567040619773
 21
83.57895571654174
 31
0.0
  0
LINE
  5
D6
330
17
100
AcDbEntity
  8
0
100
AcDbLine
 10
127.01567040619773
 20
83.57895571654174
 30
0.0
 11
127.09765993601113
 21
83.44516096398883
 31
0.0
  0
LINE
  5
D7
330
17
100
AcDbEntity
  8
0
100
AcDbLine
 10
127.09765993601113
 20
83.44516096398883
 30
0.0
 11
127.15770992811792
 21
83.30018745862422
 31
0.0
  0
LINE
  5
D8
330
17
100
AcDbEntity
  8
0
100
AcDbLine
 10
127.15770992811792
 20
83.30018745862422
 30
0.0
 11
127.1943417524179
 21
83.14760492928951
 31
0.0
  0
LINE
  5
D9
330
17
100
AcDbEntity
  8
0
100
AcDbLine
 10
127.1943417524179
 20
83.14760492928951
 30
0.0
 11
127.20665341182277
 21
82.99117046424928
 31
0.0
  0
LINE
  5
DA
330
17
100
AcDbEntity
  8
0
100
AcDbLine
 10
127.20665341182277
 20
82.99117046424928
 30
0.0
 11
127.20665341182277
 21
80.89483862000694
 31
0.0
  0
LINE
  5
DB
330
17
100
AcDbEntity
  8
0
100
AcDbLine
 10
127.20665341182277
 20
80.89483862000695
 30
0.0
 11
127.20987691851795
 21
80.81461005654648
 31
0.0
  0
LINE
  5
DC
330
17
100
AcDbEntity
  8
0
100
AcDbLine
 10
127.20987691851795
 20
80.81461005654648
 30
0.0
 11
127.21952665661263
 21
80.73489872770892
 31
0.0
  0
LINE
  5
DD
330
17
100
AcDbEntity
  8
0
100
AcDbLine
 10
127.21952665661263
 20
80.73489872770892
 30
0.0
 11
127.23554041411612
 21
80.65621853349867
 31
0.0
  0
LINE
  5
DE
330
17
100
AcDbEntity
  8
0
100
AcDbLine
 10
127.23554041411612
 20
80.65621853349867
 30
0.0
 11
127.25781495011938
 21
80.57907672618134
 31
0.0
  0
LINE
  5
DF
330
17
100
AcDbEntity
  8
0
100
AcDbLine
 10
127.25781495011938
 20
80.57907672618134
 30
0.0
 11
127.28620666039049
 21
80.50397064002165
 31
0.0
  0
LINE
  5
E0
330
17
100
AcDbEntity
  8
0
100
AcDbLine
 10
127.28620666039049
 20
80.50397064002165
 30
0.0
 11
127.32053250319322
 21
80.43138448496279
 31
0.0
  0
LINE
  5
E1
330
17
100
AcDbEntity
  8
0
100
AcDbLine
 10
127.32053250319322
 20
80.43138448496279
 30
0.0
 11
127.36057117935931
 21
80.36178622491838
 31
0.0
  0
LINE
  5
E2
330
17
100
AcDbEntity
  8
0
100
AcDbLine
 10
127.36057117935931
 20
80.36178622491838
 30
0.0
 11
127.40606455900746
 21
80.29562456080285
 31
0.0
  0
LINE
  5
E3
330
17
100
AcDbEntity
  8
0
100
AcDbLine
 10
127.40606455900746
 20
80.29562456080285
 30
0.0
 11
127.45671934570984
 21
80.23332603775069
 31
0.0
  0
LINE
  5
E4
330
17
100
AcDbEntity
  8
0
100
AcDbLine
 10
127.45671934570984
 20
80.23332603775069
 30
0.0
 11
127.51220896737834
 21
80.17529229517422
 31
0.0
  0
LINE
  5
E5
330
17
100
AcDbEntity
  8
0
100
AcDbLine
 10
127.5122089673778
 20
80.17529229517365
 30
0.0
 11
128.13449204251611
 21
79.55950137809866
 31
0.0
  0
LINE
  5
E6
330
17
100
AcDbEntity
  8
0
100
AcDbLine
 10
128.13449204251611
 20
79.55950137809866
 30
0.0
 11
128.7411787421418
 21
78.92833901574414
 31
0.0
  0
LINE
  5
E7
330
17
100
AcDbEntity
  8
0
100
AcDbLine
 10
128.7411787421418
 20
78.92833901574414
 30
0.0
 11
129.3318894860704
 21
78.28220010176128
 31
0.0
  0
LINE
  5
E8
330
17
100
AcDbEntity
  8
0
100
AcDbLine
 10
129.3318894860704
 20
78.28220010176128
 30
0.0
 11
129.90625468964924
 21
77.62148890004492
 31
0.0
  0
LINE
  5
E9
330
17
100
AcDbEntity
  8
0
100
AcDbLine
 10
129.90625468964924
 20
77.62148890004492
 30
0.0
 11
130.46391499499222
 21
76.94661879180154
 31
0.0
  0
LINE
  5
EA
330
17
100
AcDbEntity
  8
0
100
AcDbLine
 10
130.46391499499222
 20
76.94661879180154
 30
0.0
 11
131.0045214958159
 21
76.25801201691269
 31
0.0
  0
LINE
  5
EB
330
17
100
AcDbEntity
  8
0
100
AcDbLine
 10
131.0045214958159
 20
76.25801201691269
 30
0.0
 11
131.52773595573657
 21
75.55609940975594
 31
0.0
  0
LINE
  5
EC
330
17
100
AcDbEntity
  8
0
100
AcDbLine
 10
131.52773595573657
 20
75.55609940975594
 30
0.0
 11
132.03323101989162
 21
74.84132012964878
 31
0.0
  0
LINE
  5
ED
330
17
100
AcDbEntity
  8
0
100
AcDbLine
 10
132.03323101989162
 20
74.84132012964878
 30
0.0
 11
132.52069041975264
 21
74.11412138608361
 31
0.0
  0
LINE
  5
EE
330
17
100
AcDbEntity
  8
0
100
AcDbLine
 10
132.52069041975264
 20
74.11412138608361
 30
0.0
 11
132.9898091710023
 21
73.37495815892629
 31
0.0
  0
LINE
  5
EF
330
17
100
AcDbEntity
  8
0
100
AcDbLine
 10
132.9898091710023
 20
73.37495815892629
 30
0.0
 11
133.4402937643511
 21
72.62429291375304
 31
0.0
  0
LINE
  5
F0
330
17
100
AcDbEntity
  8
0
100
AcDbLine
 10
133.4402937643511
 20
72.62429291375304
 30
0.0
 11
133.87186234917476
 21
71.86259531250374
 31
0.0
  0
LINE
  5
F1
330
17
100
AcDbEntity
  8
0
100
AcDbLine
 10
133.87186234917476
 20
71.86259531250374
 30
0.0
 11
134.28424490985708
 21
71.09034191963275
 31
0.0
  0
LINE
  5
F2
330
17
100
AcDbEntity
  8
0
100
AcDbLine
 10
134.28424490985708
 20
71.09034191963275
 30
0.0
 11
134.6771834347282
 21
70.30801590394124
 31
0.0
  0
LINE
  5
F3
330
17
100
AcDbEntity
  8
0
100
AcDbLine
 10
134.6771834347282
 20
70.30801590394124
 30
0.0
 11
135.05043207749242
 21
69.51610673627722
 31
0.0
  0
LINE
  5
F4
330
17
100
AcDbEntity
  8
0
100
AcDbLine
 10
135.05043207749242
 20
69.51610673627722
 30
0.0
 11
135.40375731104461
 21
68.7151098832928
 31
0.0
  0
LINE
  5
F5
330
17
100
AcDbEntity
  8
0
100
AcDbLine
 10
135.40375731104461
 20
68.7151098832928
 30
0.0
 11
135.73693807357904
 21
67.90552649745007
 31
0.0
  0
LINE
  5
F6
330
17
100
AcDbEntity
  8
0
100
AcDbLine
 10
135.73693807357904
 20
67.90552649745007
 30
0.0
 11
136.04976590689915
 21
67.08786310346943
 31
0.0
  0
LINE
  5
F7
330
17
100
AcDbEntity
  8
0
100
AcDbLine
 10
136.04976590689915
 20
67.08786310346943
 30
0.0
 11
136.34204508684158
 21
66.2626312814171
 31
0.0
  0
LINE
  5
F8
330
17
100
AcDbEntity
  8
0
100
AcDbLine
 10
136.34204508684158
 20
66.2626312814171
 30
0.0
 11
136.61359274573329
 21
65.43034734662916
 31
0.0
  0
LINE
  5
F9
330
17
100
AcDbEntity
  8
0
100
AcDbLine
 10
136.61359274573329
 20
65.43034734662916
 30
0.0
 11
136.86423898680462
 21
64.59153202667343
 31
0.0
  0
LINE
  5
FA
330
17
100
AcDbEntity
  8
0
100
AcDbLine
 10
136.86423898680462
 20
64.59153202667343
 30
0.0
 11
137.09382699048712
 21
63.74671013555037
 31
0.0
  0
LINE
  5
FB
330
17
100
AcDbEntity
  8
0
100
AcDbLine
 10
137.09382699048712
 20
63.74671013555037
 30
0.0
 11
137.30221311252942
 21
62.89641024533762
 31
0.0
  0
LINE
  5
FC
330
17
100
AcDbEntity
  8
0
100
AcDbLine
 10
137.30221311252942
 20
62.89641024533762
 30
0.0
 11
137.4892669738698
 21
62.04116435548295
 31
0.0
  0
LINE
  5
FD
330
17
100
AcDbEntity
  8
0
100
AcDbLine
 10
137.4892669738698
 20
62.04116435548295
 30
0.0
 11
137.65487154220932
 21
61.18150755995306
 31
0.0
  0
LINE
  5
FE
330
17
100
AcDbEntity
  8
0
100
AcDbLine
 10
137.65487154220932
 20
61.18150755995306
 30
0.0
 11
137.79892320523436
 21
60.31797771244612
 31
0.0
  0
LINE
  5
FF
330
17
100
AcDbEntity
  8
0
100
AcDbLine
 10
137.79892320523436
 20
60.31797771244612
 30
0.0
 11
137.92133183544277
 21
59.45111508987773
 31
0.0
  0
LINE
  5
100
330
17
100
AcDbEntity
  8
0
100
AcDbLine
 10
137.92133183544277
 20
59.45111508987773
 30
0.0
 11
138.02202084653314
 21
58.58146205435075
 31
0.0
  0
LINE
  5
101
330
17
100
AcDbEntity
  8
0
100
AcDbLine
 10
138.02202084653314
 20
58.58146205435075
 30
0.0
 11
138.10092724132187
 21
57.70956271382049
 31
0.0
  0
LINE
  5
102
330
17
100
AcDbEntity
  8
0
100
AcDbLine
 10
138.10092724132187
 20
57.70956271382049
 30
0.0
 11
138.15800165115803
 21
56.83596258166763
 31
0.0
  0
LINE
  5
103
330
17
100
AcDbEntity
  8
0
100
AcDbLine
 10
138.15800165115803
 20
56.83596258166763
 30
0.0
 11
138.19320836681146
 21
55.96120823539175
 31
0.0
  0
LINE
  5
104
330
17
100
AcDbEntity
  8
0
100
AcDbLine
 10
138.19320836681146
 20
55.96120823539175
 30
0.0
 11
138.2065253608145
 21
55.08584697463915
 31
0.0
  0
LINE
  5
105
330
17
100
AcDbEntity
  8
0
100
AcDbLine
 10
138.2065253608145
 20
55.08584697463915
 30
0.0
 11
138.19794430124392
 21
54.21042647877886
 31
0.0
  0
LINE
  5
106
330
17
100
AcDbEntity
  8
0
100
AcDbLine
 10
138.19794430124392
 20
54.21042647877886
 30
0.0
 11
138.1674705569337
 21
53.33549446424095
 31
0.0
  0
LINE
  5
107
330
17
100
AcDbEntity
  8
0
100
AcDbLine
 10
138.1674705569337
 20
53.33549446424095
 30
0.0
 11
138.115123194116
 21
52.46159834183183
 31
0.0
  0
LINE
  5
108
330
17
100
AcDbEntity
  8
0
100
AcDbLine
 10
138.115123194116
 20
52.46159834183183
 30
0.0
 11
138.04093496449227
 21
51.58928487424066
 31
0.0
  0
LINE
  5
109
330
17
100
AcDbEntity
  8
0
100
AcDbLine
 10
138.04093496449227
 20
51.58928487424066
 30
0.0
 11
137.94495228474165
 21
50.71909983395122
 31
0.0
  0
LINE
  5
10A
330
17
100
AcDbEntity
  8
0
100
AcDbLine
 10
137.94495228474165
 20
50.71909983395122
 30
0.0
 11
137.82723520747993
 21
49.851587661773436
 31
0.0
  0
LINE
  5
10B
330
17
100
AcDbEntity
  8
0
100
AcDbLine
 10
137.82723520747993
 20
49.851587661773436
 30
0.0
 11
137.687857383687
 21
48.98729112620802
 31
0.0
  0
LINE
  5
10C
330
17
100
AcDbEntity
  8
0
100
AcDbLine
 10
137.687857383687
 20
48.98729112620802
 30
0.0
 11
137.52690601662627
 21
48.126750983857335
 31
0.0
  0
LINE
  5
10D
330
17
100
AcDbEntity
  8
0
100
AcDbLine
 10
137.52690601662627
 20
48.126750983857335
 30
0.0
 11
137.34448180728495
 21
47.27050564109521
 31
0.0
  0
LINE
  5
10E
330
17
100
AcDbEntity
  8
0
100
AcDbLine
 10
137.34448180728495
 20
47.27050564109521
 30
0.0
 11
137.14069889136948
 21
46.41909081720698
 31
0.0
  0
LINE
  5
10F
330
17
100
AcDbEntity
  8
0
100
AcDbLine
 10
137.14069889136948
 20
46.41909081720698
 30
0.0
 11
136.9156847678952
 21
45.573039209210904
 31
0.0
  0
LINE
  5
110
330
17
100
AcDbEntity
  8
0
100
AcDbLine
 10
136.9156847678952
 20
45.573039209210904
 30
0.0
 11
136.66958021941514
 21
44.73288015857045
 31
0.0
  0
LINE
  5
111
330
17
100
AcDbEntity
  8
0
100
AcDbLine
 10
136.66958021941514
 20
44.73288015857045
 30
0.0
 11
136.40253922393802
 21
43.89913932000594
 31
0.0
  0
LINE
  5
112
330
17
100
AcDbEntity
  8
0
100
AcDbLine
 10
136.40253922393802
 20
43.89913932000594
 30
0.0
 11
136.11472885859015
 21
43.072338332612986
 31
0.0
  0
LINE
  5
113
330
17
100
AcDbEntity
  8
0
100
AcDbLine
 10
136.11472885859015
 20
43.072338332612986
 30
0.0
 11
135.80632919508173
 21
42.252994493493205
 31
0.0
  0
LINE
  5
114
330
17
100
AcDbEntity
  8
0
100
AcDbLine
 10
135.80632919508173
 20
42.252994493493205
 30
0.0
 11
135.47753318704306
 21
41.44162043410168
 31
0.0
  0
LINE
  5
115
330
17
100
AcDbEntity
  8
0
100
AcDbLine
 10
135.47753318704306
 20
41.44162043410168
 30
0.0
 11
135.1285465493011
 21
40.638723799513386
 31
0.0
  0
LINE
  5
116
330
17
100
AcDbEntity
  8
0
100
AcDbLine
 10
135.1285465493011
 20
40.638723799513386
 30
0.0
 11
134.75958762917145
 21
39.8448069308096
 31
0.0
  0
LINE
  5
117
330
17
100
AcDbEntity
  8
0
100
AcDbLine
 10
134.75958762917145
 20
39.8448069308096
 30
0.0
 11
134.67911527254492
 21
39.70668959216387
 31
0.0
  0
LINE
  5
118
330
17
100
AcDbEntity
  8
0
100
AcDbLine
 10
134.67911527254492
 20
39.70668959216387
 30
0.0
 11
134.57766353684323
 21
39.58315925281876
 31
0.0
  0
LINE
  5
119
330
17
100
AcDbEntity
  8
0
100
AcDbLine
 10
134.57766353684323
 20
39.58315925281876
 30
0.0
 11
134.4578247370481
 21
39.47737238463907
 31
0.0
  0
LINE
  5
11A
330
17
100
AcDbEntity
  8
0
100
AcDbLine
 10
134.4578247370481
 20
39.47737238463907
 30
0.0
 11
134.32266101806962
 21
39.3920320747761
 31
0.0
  0
LINE
  5
11B
330
17
100
AcDbEntity
  8
0
100
AcDbLine
 10
134.32266101806962
 20
39.3920320747761
 30
0.0
 11
134.1756261102089
 21
39.32931895584562
 31
0.0
  0
LINE
  5
11C
330
17
100
AcDbEntity
  8
0
100
AcDbLine
 10
134.1756261102089
 20
39.32931895584562
 30
0.0
 11
134.0204770787526
 21
39.29083548596856
 31
0.0
  0
LINE
  5
11D
330
17
100
AcDbEntity
  8
0
100
AcDbLine
 10
134.0204770787526
 20
39.29083548596856
 30
0.0
 11
133.86117832269167
 21
39.277565002441406
 31
0.0
  0
LINE
  5
11E
330
17
100
AcDbEntity
  8
0
100
AcDbLine
 10
133.86117832269167
 20
39.277565002441406
 30
0.0
 11
133.7018002756076
 21
39.289846595305576
 31
0.0
  0
LINE
  5
11F
330
17
100
AcDbEntity
  8
0
100
AcDbLine
 10
133.7018002756076
 20
39.289846595305576
 30
0.0
 11
133.54641539714203
 21
39.32736644285107
 31
0.0
  0
LINE
  5
120
330
17
100
AcDbEntity
  8
0
100
AcDbLine
 10
133.54641539714203
 20
39.32736644285107
 30
0.0
 11
133.39899411269562
 21
39.389165830451375
 31
0.0
  0
LINE
  5
121
330
17
100
AcDbEntity
  8
0
100
AcDbLine
 10
133.39899411269562
 20
39.389165830451375
 30
0.0
 11
126.2878158735144
 21
43.06389380939392
 31
0.0
  0
LINE
  5
122
330
17
100
AcDbEntity
  8
0
100
AcDbLine
 10
126.2878158735144
 20
43.06389380939392
 30
0.0
 11
126.15759618626328
 21
43.144374452277816
 31
0.0
  0
LINE
  5
123
330
17
100
AcDbEntity
  8
0
100
AcDbLine
 10
126.15759618626328
 20
43.144374452277816
 30
0.0
 11
126.04118635117862
 21
43.24378798818893
 31
0.0
  0
LINE
  5
124
330
17
100
AcDbEntity
  8
0
100
AcDbLine
 10
126.04118635117862
 20
43.24378798818893
 30
0.0
 11
125.941314351355
 21
43.35980473042049
 31
0.0
  0
LINE
  5
125
330
17
100
AcDbEntity
  8
0
100
AcDbLine
 10
125.941314351355
 20
43.35980473042049
 30
0.0
 11
125.86032061728048
 21
43.48970590773408
 31
0.0
  0
LINE
  5
126
330
17
100
AcDbEntity
  8
0
100
AcDbLine
 10
125.86032061728048
 20
43.48970590773408
 30
0.0
 11
125.80010318048446
 21
43.630447376862776
 31
0.0
  0
LINE
  5
127
330
17
100
AcDbEntity
  8
0
100
AcDbLine
 10
125.80010318048446
 20
43.630447376862776
 30
0.0
 11
125.7620731944958
 21
43.77873095988022
 31
0.0
  0
LINE
  5
128
330
17
100
AcDbEntity
  8
0
100
AcDbLine
 10
125.7620731944958
 20
43.77873095988022
 30
0.0
 11
125.74712186544662
 21
43.9310817346943
 31
0.0
  0
LINE
  5
129
330
17
100
AcDbEntity
  8
0
100
AcDbLine
 10
125.74712186544662
 20
43.9310817346943
 30
0.0
 11
125.7555995672796
 21
44.08392946741684
 31
0.0
  0
LINE
  5
12A
330
17
100
AcDbEntity
  8
0
100
AcDbLine
 10
125.7555995672796
 20
44.08392946741684
 30
0.0
 11
125.78730763097965
 21
44.23369227829852
 31
0.0
  0
LINE
  5
12B
330
17
100
AcDbEntity
  8
0
100
AcDbLine
 10
125.78730763097965
 20
44.23369227829852
 30
0.0
 11
125.84150300024345
 21
44.376860580576476
 31
0.0
  0
LINE
  5
12C
330
17
100
AcDbEntity
  8
0
100
AcDbLine
 10
125.84150300024345
 20
44.376860580576476
 30
0.0
 11
126.62060590252591
 21
46.22836151562282
 31
0.0
  0
LINE
  5
12D
330
17
100
AcDbEntity
  8
0
100
AcDbLine
 10
126.62060590252591
 20
46.22836151562282
 30
0.0
 11
127.24854619049677
 21
48.136435948019425
 31
0.0
  0
LINE
  5
12E
330
17
100
AcDbEntity
  8
0
100
AcDbLine
 10
127.24854619049677
 20
48.136435948019425
 30
0.0
 11
127.72126982434372
 21
50.08876517507747
 31
0.0
  0
LINE
  5
12F
330
17
100
AcDbEntity
  8
0
100
AcDbLine
 10
127.72126982434372
 20
50.08876517507747
 30
0.0
 11
128.0357248571403
 21
52.072744781114636
 31
0.0
  0
LINE
  5
130
330
17
100
AcDbEntity
  8
0
100
AcDbLine
 10
128.0357248571403
 20
52.072744781114636
 30
0.0
 11
128.18988113849397
 21
54.075566012713125
 31
0.0
  0
LINE
  5
131
330
17
100
AcDbEntity
  8
0
100
AcDbLine
 10
128.18988113849397
 20
54.075566012713125
 30
0.0
 11
128.18274342138216
 21
56.08429847320082
 31
0.0
  0
LINE
  5
132
330
17
100
AcDbEntity
  8
0
100
AcDbLine
 10
128.18274342138216
 20
56.08429847320082
 30
0.0
 11
128.01435778755808
 21
58.085973602472336
 31
0.0
  0
LINE
  5
133
330
17
100
AcDbEntity
  8
0
100
AcDbLine
 10
128.01435778755808
 20
58.085973602472336
 30
0.0
 11
127.68581135004246
 21
60.06766840319679
 31
0.0
  0
LINE
  5
134
330
17
100
AcDbEntity
  8
0
100
AcDbLine
 10
127.68581135004246
 20
60.06766840319679
 30
0.0
 11
127.19922523462299
 21
62.016588872868
 31
0.0
  0
LINE
  5
135
330
17
100
AcDbEntity
  8
0
100
AcDbLine
 10
127.19922523462299
 20
62.016588872868
 30
0.0
 11
126.55774088567227
 21
63.92015260305246
 31
0.0
  0
LINE
  5
136
330
17
100
AcDbEntity
  8
0
100
AcDbLine
 10
126.55774088567227
 20
63.92015260305246
 30
0.0
 11
125.7654997846966
 21
65.76607001256659
 31
0.0
  0
LINE
  5
137
330
17
100
AcDbEntity
  8
0
100
AcDbLine
 10
125.7654997846966
 20
65.76607001256659
 30
0.0
 11
124.82761671255301
 21
67.54242369013448
 31
0.0
  0
LINE
  5
138
330
17
100
AcDbEntity
  8
0
100
AcDbLine
 10
124.82761671255301
 20
67.54242369013448
 30
0.0
 11
123.75014672795749
 21
69.23774533428295
 31
0.0
  0
LINE
  5
139
330
17
100
AcDbEntity
  8
0
100
AcDbLine
 10
123.75014672795749
 20
69.23774533428295
 30
0.0
 11
122.54004607547313
 21
70.84108979374243
 31
0.0
  0
LINE
  5
13A
330
17
100
AcDbEntity
  8
0
100
AcDbLine
 10
122.54004607547313
 20
70.84108979374243
 30
0.0
 11
121.20512727536027
 21
72.34210573034264
 31
0.0
  0
LINE
  5
13B
330
17
100
AcDbEntity
  8
0
100
AcDbLine
 10
121.20512727536027
 20
72.34210573034264
 30
0.0
 11
119.75400868523286
 21
73.73110244819662
 31
0.0
  0
LINE
  5
13C
330
17
100
AcDbEntity
  8
0
100
AcDbLine
 10
119.75400868523286
 20
73.73110244819662
 30
0.0
 11
118.19605885915479
 21
74.99911245771777
 31
0.0
  0
LINE
  5
13D
330
17
100
AcDbEntity
  8
0
100
AcDbLine
 10
118.19605885915479
 20
74.99911245771777
 30
0.0
 11
116.5413360634
 21
76.13794937055118
 31
0.0
  0
LINE
  5
13E
330
17
100
AcDbEntity
  8
0
100
AcDbLine
 10
116.5413360634
 20
76.13794937055118
 30
0.0
 11
114.80052333936726
 21
77.14026075164398
 31
0.0
  0
LINE
  5
13F
330
17
100
AcDbEntity
  8
0
100
AcDbLine
 10
114.80052333936726
 20
77.14026075164398
 30
0.0
 11
112.98485953288989
 21
77.99957558723719
 31
0.0
  0
LINE
  5
140
330
17
100
AcDbEntity
  8
0
100
AcDbLine
 10
112.98485953288989
 20
77.99957558723719
 30
0.0
 11
111.10606673522125
 21
78.71034606232107
 31
0.0
  0
LINE
  5
141
330
17
100
AcDbEntity
  8
0
100
AcDbLine
 10
111.10606673522125
 20
78.71034606232107
 30
0.0
 11
109.17627460414371
 21
79.26798337783521
 31
0.0
  0
LINE
  5
142
330
17
100
AcDbEntity
  8
0
100
AcDbLine
 10
109.17627460414371
 20
79.26798337783521
 30
0.0
 11
107.20794205379102
 21
79.66888737637416
 31
0.0
  0
LINE
  5
143
330
17
100
AcDbEntity
  8
0
100
AcDbLine
 10
107.20794205379102
 20
79.66888737637416
 30
0.0
 11
105.21377681876129
 21
79.91046978513214
 31
0.0
  0
LINE
  5
144
330
17
100
AcDbEntity
  8
0
100
AcDbLine
 10
105.21377681876129
 20
79.91046978513214
 30
0.0
 11
103.20665341182277
 21
79.99117092602859
 31
0.0
  0
LINE
  5
145
330
17
100
AcDbEntity
  8
0
100
AcDbLine
 10
103.20665341182277
 20
79.99117092602859
 30
0.0
 11
101.19953000488422
 21
79.91046978513214
 31
0.0
  0
LINE
  5
146
330
17
100
AcDbEntity
  8
0
100
AcDbLine
 10
101.19953000488422
 20
79.91046978513214
 30
0.0
 11
99.2053647698545
 21
79.66888737637416
 31
0.0
  0
LINE
  5
147
330
17
100
AcDbEntity
  8
0
100
AcDbLine
 10
99.2053647698545
 20
79.66888737637416
 30
0.0
 11
97.2370322195018
 21
79.26798337783521
 31
0.0
  0
LINE
  5
148
330
17
100
AcDbEntity
  8
0
100
AcDbLine
 10
97.2370322195018
 20
79.26798337783521
 30
0.0
 11
95.3072400884243
 21
78.71034606232107
 31
0.0
  0
LINE
  5
149
330
17
100
AcDbEntity
  8
0
100
AcDbLine
 10
95.3072400884243
 20
78.71034606232107
 30
0.0
 11
93.42844729075566
 21
77.99957558723719
 31
0.0
  0
LINE
  5
14A
330
17
100
AcDbEntity
  8
0
100
AcDbLine
 10
93.42844729075566
 20
77.99957558723719
 30
0.0
 11
91.61278348427828
 21
77.14026075164398
 31
0.0
  0
LINE
  5
14B
330
17
100
AcDbEntity
  8
0
100
AcDbLine
 10
91.61278348427828
 20
77.14026075164398
 30
0.0
 11
89.87197076024552
 21
76.13794937055118
 31
0.0
  0
LINE
  5
14C
330
17
100
AcDbEntity
  8
0
100
AcDbLine
 10
89.87197076024552
 20
76.13794937055118
 30
0.0
 11
88.21724796449072
 21
74.99911245771777
 31
0.0
  0
LINE
  5
14D
330
17
100
AcDbEntity
  8
0
100
AcDbLine
 10
88.21724796449072
 20
74.99911245771777
 30
0.0
 11
86.65929813841265
 21
73.73110244819662
 31
0.0
  0
LINE
  5
14E
330
17
100
AcDbEntity
  8
0
100
AcDbLine
 10
86.65929813841265
 20
73.73110244819662
 30
0.0
 11
85.20817954828524
 21
72.34210573034264
 31
0.0
  0
LINE
  5
14F
330
17
100
AcDbEntity
  8
0
100
AcDbLine
 10
85.20817954828524
 20
72.34210573034264
 30
0.0
 11
83.87326074817241
 21
70.84108979374241
 31
0.0
  0
LINE
  5
150
330
17
100
AcDbEntity
  8
0
100
AcDbLine
 10
83.87326074817241
 20
70.84108979374241
 30
0.0
 11
82.66316009568804
 21
69.23774533428295
 31
0.0
  0
LINE
  5
151
330
17
100
AcDbEntity
  8
0
100
AcDbLine
 10
82.66316009568804
 20
69.23774533428295
 30
0.0
 11
81.58569011109252
 21
67.5424236901345
 31
0.0
  0
LINE
  5
152
330
17
100
AcDbEntity
  8
0
100
AcDbLine
 10
81.58569011109252
 20
67.5424236901345
 30
0.0
 11
80.64780703894894
 21
65.76607001256659
 31
0.0
  0
LINE
  5
153
330
17
100
AcDbEntity
  8
0
100
AcDbLine
 10
80.64780703894894
 20
65.76607001256659
 30
0.0
 11
79.85556593797324
 21
63.92015260305247
 31
0.0
  0
LINE
  5
154
330
17
100
AcDbEntity
  8
0
100
AcDbLine
 10
79.85556593797324
 20
63.92015260305247
 30
0.0
 11
79.21408158902256
 21
62.016588872868
 31
0.0
  0
LINE
  5
155
330
17
100
AcDbEntity
  8
0
100
AcDbLine
 10
79.21408158902256
 20
62.016588872868
 30
0.0
 11
78.72749547360306
 21
60.06766840319679
 31
0.0
  0
LINE
  5
156
330
17
100
AcDbEntity
  8
0
100
AcDbLine
 10
78.72749547360306
 20
60.06766840319679
 30
0.0
 11
78.39894903608746
 21
58.085973602472336
 31
0.0
  0
LINE
  5
157
330
17
100
AcDbEntity
  8
0
100
AcDbLine
 10
78.39894903608746
 20
58.085973602472336
 30
0.0
 11
78.23056340226336
 21
56.08429847320082
 31
0.0
  0
LINE
  5
158
330
17
100
AcDbEntity
  8
0
100
AcDbLine
 10
78.23056340226336
 20
56.08429847320082
 30
0.0
 11
78.22342568515157
 21
54.075566012713125
 31
0.0
  0
LINE
  5
159
330
17
100
AcDbEntity
  8
0
100
AcDbLine
 10
78.22342568515157
 20
54.075566012713125
 30
0.0
 11
78.37758196650523
 21
52.072744781114636
 31
0.0
  0
LINE
  5
15A
330
17
100
AcDbEntity
  8
0
100
AcDbLine
 10
78.37758196650523
 20
52.072744781114636
 30
0.0
 11
78.69203699930182
 21
50.08876517507747
 31
0.0
  0
LINE
  5
15B
330
17
100
AcDbEntity
  8
0
100
AcDbLine
 10
78.69203699930182
 20
50.08876517507747
 30
0.0
 11
79.16476063314876
 21
48.136435948019425
 31
0.0
  0
LINE
  5
15C
330
17
100
AcDbEntity
  8
0
100
AcDbLine
 10
79.16476063314876
 20
48.136435948019425
 30
0.0
 11
79.79270092111962
 21
46.22836151562282
 31
0.0
  0
LINE
  5
15D
330
17
100
AcDbEntity
  8
0
100
AcDbLine
 10
79.79270092111962
 20
46.22836151562282
 30
0.0
 11
80.57180382340206
 21
44.37686058057649
 31
0.0
  0
LINE
  5
15E
330
17
100
AcDbEntity
  8
0
100
AcDbLine
 10
80.57180382340208
 20
44.37686058057649
 30
0.0
 11
80.62599919266587
 21
44.233692278298534
 31
0.0
  0
LINE
  5
15F
330
17
100
AcDbEntity
  8
0
100
AcDbLine
 10
80.62599919266587
 20
44.233692278298534
 30
0.0
 11
80.65770725636594
 21
44.08392946741685
 31
0.0
  0
LINE
  5
160
330
17
100
AcDbEntity
  8
0
100
AcDbLine
 10
80.65770725636594
 20
44.08392946741685
 30
0.0
 11
80.66618495819893
 21
43.93108173469432
 31
0.0
  0
LINE
  5
161
330
17
100
AcDbEntity
  8
0
100
AcDbLine
 10
80.66618495819893
 20
43.93108173469432
 30
0.0
 11
80.65123362914974
 21
43.778730959880235
 31
0.0
  0
LINE
  5
162
330
17
100
AcDbEntity
  8
0
100
AcDbLine
 10
80.65123362914974
 20
43.778730959880235
 30
0.0
 11
80.61320364316107
 21
43.63044737686279
 31
0.0
  0
LINE
  5
163
330
17
100
AcDbEntity
  8
0
100
AcDbLine
 10
80.61320364316107
 20
43.63044737686279
 30
0.0
 11
80.55298620636503
 21
43.48970590773409
 31
0.0
  0
LINE
  5
164
330
17
100
AcDbEntity
  8
0
100
AcDbLine
 10
80.55298620636503
 20
43.48970590773409
 30
0.0
 11
80.47199247229052
 21
43.35980473042051
 31
0.0
  0
LINE
  5
165
330
17
100
AcDbEntity
  8
0
100
AcDbLine
 10
80.47199247229052
 20
43.35980473042051
 30
0.0
 11
80.37212047246692
 21
43.24378798818894
 31
0.0
  0
LINE
  5
166
330
17
100
AcDbEntity
  8
0
100
AcDbLine
 10
80.37212047246692
 20
43.24378798818894
 30
0.0
 11
80.25571063738226
 21
43.144374452277816
 31
0.0
  0
LINE
  5
167
330
17
100
AcDbEntity
  8
0
100
AcDbLine
 10
80.25571063738226
 20
43.144374452277816
 30
0.0
 11
80.12549095013114
 21
43.06389380939392
 31
0.0
  0
LINE
  5
168
330
17
100
AcDbEntity
  8
0
100
AcDbLine
 10
80.12549095013114
 20
43.06389380939392
 30
0.0
 11
73.01431271094992
 21
39.389165830451375
 31
0.0
  0
LINE
  5
169
330
17
100
AcDbEntity
  8
0
100
AcDbLine
 10
73.01431271094992
 20
39.389165830451375
 30
0.0
 11
72.8668914265035
 21
39.32736644285109
 31
0.0
  0
LINE
  5
16A
330
17
100
AcDbEntity
  8
0
100
AcDbLine
 10
72.8668914265035
 20
39.32736644285109
 30
0.0
 11
72.7115065480379
 21
39.28984659530559
 31
0.0
  0
LINE
  5
16B
330
17
100
AcDbEntity
  8
0
100
AcDbLine
 10
72.7115065480379
 20
39.28984659530559
 30
0.0
 11
72.55212850095387
 21
39.277565002441406
 31
0.0
  0
LINE
  5
16C
330
17
100
AcDbEntity
  8
0
100
AcDbLine
 10
72.55212850095387
 20
39.277565002441406
 30
0.0
 11
72.39282974489294
 21
39.29083548596857
 31
0.0
  0
LINE
  5
16D
330
17
100
AcDbEntity
  8
0
100
AcDbLine
 10
72.39282974489294
 20
39.29083548596857
 30
0.0
 11
72.23768071343665
 21
39.329318955845636
 31
0.0
  0
LINE
  5
16E
330
17
100
AcDbEntity
  8
0
100
AcDbLine
 10
72.23768071343665
 20
39.329318955845636
 30
0.0
 11
72.0906458055759
 21
39.3920320747761
 31
0.0
  0
LINE
  5
16F
330
17
100
AcDbEntity
  8
0
100
AcDbLine
 10
72.0906458055759
 20
39.3920320747761
 30
0.0
 11
71.95548208659741
 21
39.47737238463908
 31
0.0
  0
LINE
  5
170
330
17
100
AcDbEntity
  8
0
100
AcDbLine
 10
71.95548208659741
 20
39.47737238463908
 30
0.0
 11
71.8356432868023
 21
39.583159252818774
 31
0.0
  0
LINE
  5
171
330
17
100
AcDbEntity
  8
0
100
AcDbLine
 10
71.8356432868023
 20
39.583159252818774
 30
0.0
 11
71.73419155110061
 21
39.70668959216388
 31
0.0
  0
LINE
  5
172
330
17
100
AcDbEntity
  8
0
100
AcDbLine
 10
71.73419155110061
 20
39.70668959216388
 30
0.0
 11
71.65371919447406
 21
39.84480693080961
 31
0.0
  0
ENDSEC
  0
SECTION
  2
OBJECTS
  0
DICTIONARY
  5
A
330
0
100
AcDbDictionary
281
1
  3
ACAD_COLOR
350
B
  3
ACAD_GROUP
350
C
  3
ACAD_LAYOUT
350
D
  3
ACAD_MATERIAL
350
E
  3
ACAD_MLEADERSTYLE
350
F
  3
ACAD_MLINESTYLE
350
10
  3
ACAD_PLOTSETTINGS
350
11
  3
ACAD_PLOTSTYLENAME
350
12
  3
ACAD_SCALELIST
350
14
  3
ACAD_TABLESTYLE
350
15
  3
ACAD_VISUALSTYLE
350
16
  3
EZDXF_META
350
2D
  0
DICTIONARY
  5
B
330
A
100
AcDbDictionary
281
1
  0
DICTIONARY
  5
C
330
A
100
AcDbDictionary
281
1
  0
DICTIONARY
  5
D
330
A
100
AcDbDictionary
281
1
  3
Model
350
1A
  3
Layout1
350
1E
  0
DICTIONARY
  5
E
330
A
100
AcDbDictionary
281
1
  3
ByBlock
350
1F
  3
ByLayer
350
20
  3
Global
350
21
  0
DICTIONARY
  5
F
330
A
100
AcDbDictionary
281
1
  3
Standard
350
2C
  0
DICTIONARY
  5
10
330
A
100
AcDbDictionary
281
1
  3
Standard
350
22
  0
DICTIONARY
  5
11
330
A
100
AcDbDictionary
281
1
  0
ACDBDICTIONARYWDFLT
  5
12
330
A
100
AcDbDictionary
281
1
  3
Normal
350
13
100
AcDbDictionaryWithDefault
340
13
  0
ACDBPLACEHOLDER
  5
13
330
12
  0
DICTIONARY
  5
14
330
A
100
AcDbDictionary
281
1
  0
DICTIONARY
  5
15
330
A
100
AcDbDictionary
281
1
  0
DICTIONARY
  5
16
330
A
100
AcDbDictionary
281
1
  0
LAYOUT
  5
1A
330
D
100
AcDbPlotSettings
  1

  4
A3
  6

 40
7.5
 41
20.0
 42
7.5
 43
20.0
 44
420.0
 45
297.0
 46
0.0
 47
0.0
 48
0.0
 49
0.0
140
0.0
141
0.0
142
1.0
143
1.0
 70
1024
 72
1
 73
0
 74
5
  7

 75
16
 76
0
 77
2
 78
300
147
1.0
148
0.0
149
0.0
100
AcDbLayout
  1
Model
 70
1
 71
0
 10
0.0
 20
0.0
 11
420.0
 21
297.0
 12
0.0
 22
0.0
 32
0.0
 14
1e+20
 24
1e+20
 34
1e+20
 15
-1e+20
 25
-1e+20
 35
-1e+20
146
0.0
 13
0.0
 23
0.0
 33
0.0
 16
1.0
 26
0.0
 36
0.0
 17
0.0
 27
1.0
 37
0.0
 76
1
330
17
  0
LAYOUT
  5
1E
330
D
100
AcDbPlotSettings
  1

  4
A3
  6

 40
7.5
 41
20.0
 42
7.5
 43
20.0
 44
420.0
 45
297.0
 46
0.0
 47
0.0
 48
0.0
 49
0.0
140
0.0
141
0.0
142
1.0
143
1.0
 70
0
 72
1
 73
0
 74
5
  7

 75
16
 76
0
 77
2
 78
300
147
1.0
148
0.0
149
0.0
100
AcDbLayout
  1
Layout1
 70
1
 71
1
 10
0.0
 20
0.0
 11
420.0
 21
297.0
 12
0.0
 22
0.0
 32
0.0
 14
1e+20
 24
1e+20
 34
1e+20
 15
-1e+20
 25
-1e+20
 35
-1e+20
146
0.0
 13
0.0
 23
0.0
 33
0.0
 16
1.0
 26
0.0
 36
0.0
 17
0.0
 27
1.0
 37
0.0
 76
1
330
1B
  0
MATERIAL
  5
1F
102
{ACAD_REACTORS
330
E
102
}
330
E
100
AcDbMaterial
  1
ByBlock
  2

 70
0
 40
1.0
 71
1
 41
1.0
 91
-1023410177
 42
1.0
 72
1
  3

 73
1
 74
1
 75
1
 44
0.5
 73
0
 45
1.0
 46
1.0
 77
1
  4

 78
1
 79
1
170
1
 48
1.0
171
1
  6

172
1
173
1
174
1
140
1.0
141
1.0
175
1
  7

176
1
177
1
178
1
143
1.0
179
1
  8

270
1
271
1
272
1
145
1.0
146
1.0
273
1
  9

274
1
275
1
276
1
 42
1.0
 72
1
  3

 73
1
 74
1
 75
1
 94
63
  0
MATERIAL
  5
20
102
{ACAD_REACTORS
330
E
102
}
330
E
100
AcDbMaterial
  1
ByLayer
  2

 70
0
 40
1.0
 71
1
 41
1.0
 91
-1023410177
 42
1.0
 72
1
  3

 73
1
 74
1
 75
1
 44
0.5
 73
0
 45
1.0
 46
1.0
 77
1
  4

 78
1
 79
1
170
1
 48
1.0
171
1
  6

172
1
173
1
174
1
140
1.0
141
1.0
175
1
  7

176
1
177
1
178
1
143
1.0
179
1
  8

270
1
271
1
272
1
145
1.0
146
1.0
273
1
  9

274
1
275
1
276
1
 42
1.0
 72
1
  3

 73
1
 74
1
 75
1
 94
63
  0
MATERIAL
  5
21
102
{ACAD_REACTORS
330
E
102
}
330
E
100
AcDbMaterial
  1
Global
  2

 70
0
 40
1.0
 71
1
 41
1.0
 91
-1023410177
 42
1.0
 72
1
  3

 73
1
 74
1
 75
1
 44
0.5
 73
0
 45
1.0
 46
1.0
 77
1
  4

 78
1
 79
1
170
1
 48
1.0
171
1
  6

172
1
173
1
174
1
140
1.0
141
1.0
175
1
  7

176
1
177
1
178
1
143
1.0
179
1
  8

270
1
271
1
272
1
145
1.0
146
1.0
273
1
  9

274
1
275
1
276
1
 42
1.0
 72
1
  3

 73
1
 74
1
 75
1
 94
63
  0
MLINESTYLE
  5
22
102
{ACAD_REACTORS
330
10
102
}
330
10
100
AcDbMlineStyle
  2
Standard
 70
0
  3

 62
256
 51
90.0
 52
90.0
 71
2
 49
0.5
 62
256
  6
BYLAYER
 49
-0.5
 62
256
  6
BYLAYER
  0
MLEADERSTYLE
  5
2C
102
{ACAD_REACTORS
330
F
102
}
330
F
100
AcDbMLeaderStyle
179
2
170
2
171
1
172
0
 90
2
 40
0.0
 41
0.0
173
1
 91
-1056964608
 92
-2
290
1
 42
2.0
291
1
 43
8.0
  3
Standard
 44
4.0
300

342
29
174
1
175
1
176
0
178
1
 93
-1056964608
 45
4.0
292
0
297
0
 46
4.0
 94
-1056964608
 47
1.0
 49
1.0
140
1.0
294
1
141
0.0
177
0
142
1.0
295
0
296
0
143
3.75
271
0
272
9
273
9
  0
DICTIONARY
  5
2D
330
A
100
AcDbDictionary
280
1
281
1
  3
CREATED_BY_EZDXF
350
2E
  3
WRITTEN_BY_EZDXF
350
175
  0
DICTIONARYVAR
  5
2E
330
2D
100
DictionaryVariables
280
0
  1
1.4.2 @ 2025-10-10T10:51:33.991558+00:00
  0
DICTIONARYVAR
  5
175
330
2D
100
DictionaryVariables
280
0
  1
1.4.2 @ 2025-10-10T10:51:34.074323+00:00
  0
ENDSEC
  0
EOF
